<svg width="25" height="25" viewBox="0 0 25 25" fill="none" xmlns="http://www.w3.org/2000/svg">
<path d="M20.2695 5.49736L14.0426 5.3549L15.2996 3.27635C11.8163 2.29229 7.92137 3.17944 5.17739 5.94155C1.13287 10.0212 1.12647 16.6204 5.17674 20.6898C9.2287 24.7609 15.7846 24.7603 19.8278 20.6904C21.6975 18.8 22.8584 16.1923 22.8584 13.316H24.1071C24.1071 16.5401 22.8043 19.4629 20.7119 21.5782L20.7109 21.5791C16.1797 26.1405 8.83363 26.1399 4.29463 21.5795C-0.246056 17.0174 -0.235884 9.62207 4.29377 5.05336C7.45755 1.8685 11.9863 0.909014 15.9711 2.16599L17.2809 0L20.2695 5.49736Z" fill="white"/>
</svg>
