<svg version="1.1" id="Layer_1" xmlns="http://www.w3.org/2000/svg" xmlns:xlink="http://www.w3.org/1999/xlink" x="0px" y="0px"
	 width="100%" viewBox="0 0 1250 1250" enable-background="new 0 0 1250 1250" xml:space="preserve">
<path fill="#0c262b" opacity="1.000000" stroke="none" 
	d="
M758.000000,1251.000000 
	C505.333344,1251.000000 253.166672,1251.000000 1.000000,1251.000000 
	C1.000000,834.333313 1.000000,417.666656 1.000000,1.000000 
	C417.666656,1.000000 834.333313,1.000000 1251.000000,1.000000 
	C1251.000000,417.666656 1251.000000,834.333313 1251.000000,1251.000000 
	C1086.833374,1251.000000 922.666687,1251.000000 758.000000,1251.000000 
M641.672058,71.999626 
	C638.239258,71.666306 634.793091,70.947884 631.375977,71.066399 
	C616.673218,71.576286 601.960388,72.061417 587.287048,73.075272 
	C573.040283,74.059662 558.687622,74.809273 544.650574,77.225281 
	C524.309082,80.726379 504.136414,85.319962 484.023102,90.010757 
	C449.176086,98.137718 416.036835,111.181831 383.901001,126.684402 
	C355.655121,140.310394 328.853516,156.423843 303.340332,174.775925 
	C282.644592,189.662750 262.948914,205.689346 244.444626,223.155792 
	C222.555237,243.817474 202.499710,266.182312 184.313614,290.193146 
	C167.651245,312.192261 152.278290,335.075562 139.357101,359.455841 
	C130.664703,375.857025 122.770164,392.709839 115.156891,409.647491 
	C103.600655,435.357269 94.518173,462.073456 88.298080,489.489441 
	C82.355324,515.682983 77.951889,542.290405 74.270721,568.909424 
	C71.882332,586.180115 71.426605,603.789673 71.178307,621.262634 
	C70.971992,635.780823 72.063164,650.340088 73.074577,664.846680 
	C74.067863,679.093262 74.817413,693.445679 77.234650,707.482910 
	C80.737473,727.824219 85.312775,748.001465 90.025230,768.109314 
	C98.189079,802.944092 111.247810,836.074341 126.752029,868.212524 
	C140.379883,896.461304 155.891647,923.708252 175.036148,948.626343 
	C189.702744,967.716125 204.499649,986.800110 220.569809,1004.690918 
	C237.033035,1023.019287 254.912033,1040.142578 274.646149,1055.065918 
	C290.523560,1067.072754 306.499939,1078.978760 322.867065,1090.301147 
	C349.907562,1109.007202 379.034607,1123.948486 409.300018,1136.742188 
	C438.717712,1149.177368 468.955536,1158.883301 500.069672,1166.209106 
	C530.573242,1173.390991 561.463806,1177.601685 592.610901,1179.805176 
	C608.230225,1180.910278 623.997498,1180.256592 639.687744,1179.921997 
	C652.392761,1179.651245 665.096008,1178.854492 677.774963,1177.942505 
	C687.753418,1177.224609 697.824158,1176.666870 707.623535,1174.817505 
	C727.916565,1170.987793 748.140930,1166.704224 768.240173,1161.958008 
	C803.054443,1153.736816 836.192200,1140.707764 868.325684,1125.181274 
	C896.419861,1111.606812 923.031128,1095.517212 948.470215,1077.362183 
	C968.411377,1063.130981 987.276184,1047.652710 1005.216187,1031.072998 
	C1015.811340,1021.281067 1025.742554,1010.709167 1035.373779,999.952148 
	C1046.322144,987.723999 1056.939453,975.163696 1067.102539,962.276062 
	C1087.149292,936.855164 1104.168091,909.424072 1118.969482,880.664978 
	C1125.453003,868.067322 1131.205688,855.078796 1136.934326,842.110535 
	C1148.391113,816.175415 1156.946167,789.231628 1163.982544,761.802063 
	C1170.599121,736.010254 1175.060669,709.788635 1177.829834,683.344910 
	C1179.632202,666.132751 1180.579346,648.777893 1180.820312,631.471741 
	C1181.024902,616.786621 1179.938354,602.061096 1178.925781,587.387756 
	C1177.942627,573.140930 1177.197144,558.787964 1174.781982,544.750977 
	C1171.281982,524.409302 1166.651123,504.245880 1162.005615,484.121155 
	C1153.843506,448.763184 1140.501465,415.199463 1124.757446,382.655914 
	C1111.320312,354.880829 1095.999634,328.059418 1077.088989,303.566528 
	C1062.376953,284.511719 1047.797119,265.226349 1031.537964,247.532532 
	C1016.565186,231.238525 1000.079407,216.153748 983.069763,201.963150 
	C965.797058,187.553162 947.335815,174.507706 928.906860,161.559631 
	C907.925476,146.818314 885.326355,134.810410 862.086426,123.944191 
	C837.130310,112.275543 811.545715,102.397003 785.139404,94.539482 
	C755.874451,85.831360 726.202759,79.106422 695.804993,76.067879 
	C678.123962,74.300499 660.363403,73.329170 641.672058,71.999626 
z"/>
<path fill="white" opacity="1.000000" stroke="none" 
	d="
M642.155334,71.999634 
	C660.363403,73.329170 678.123962,74.300499 695.804993,76.067879 
	C726.202759,79.106422 755.874451,85.831360 785.139404,94.539482 
	C811.545715,102.397003 837.130310,112.275543 862.086426,123.944191 
	C885.326355,134.810410 907.925476,146.818314 928.906860,161.559631 
	C947.335815,174.507706 965.797058,187.553162 983.069763,201.963150 
	C1000.079407,216.153748 1016.565186,231.238525 1031.537964,247.532532 
	C1047.797119,265.226349 1062.376953,284.511719 1077.088989,303.566528 
	C1095.999634,328.059418 1111.320312,354.880829 1124.757446,382.655914 
	C1140.501465,415.199463 1153.843506,448.763184 1162.005615,484.121155 
	C1166.651123,504.245880 1171.281982,524.409302 1174.781982,544.750977 
	C1177.197144,558.787964 1177.942627,573.140930 1178.925781,587.387756 
	C1179.938354,602.061096 1181.024902,616.786621 1180.820312,631.471741 
	C1180.579346,648.777893 1179.632202,666.132751 1177.829834,683.344910 
	C1175.060669,709.788635 1170.599121,736.010254 1163.982544,761.802063 
	C1156.946167,789.231628 1148.391113,816.175415 1136.934326,842.110535 
	C1131.205688,855.078796 1125.453003,868.067322 1118.969482,880.664978 
	C1104.168091,909.424072 1087.149292,936.855164 1067.102539,962.276062 
	C1056.939453,975.163696 1046.322144,987.723999 1035.373779,999.952148 
	C1025.742554,1010.709167 1015.811340,1021.281067 1005.216187,1031.072998 
	C987.276184,1047.652710 968.411377,1063.130981 948.470215,1077.362183 
	C923.031128,1095.517212 896.419861,1111.606812 868.325684,1125.181274 
	C836.192200,1140.707764 803.054443,1153.736816 768.240173,1161.958008 
	C748.140930,1166.704224 727.916565,1170.987793 707.623535,1174.817505 
	C697.824158,1176.666870 687.753418,1177.224609 677.774963,1177.942505 
	C665.096008,1178.854492 652.392761,1179.651245 639.687744,1179.921997 
	C623.997498,1180.256592 608.230225,1180.910278 592.610901,1179.805176 
	C561.463806,1177.601685 530.573242,1173.390991 500.069672,1166.209106 
	C468.955536,1158.883301 438.717712,1149.177368 409.300018,1136.742188 
	C379.034607,1123.948486 349.907562,1109.007202 322.867065,1090.301147 
	C306.499939,1078.978760 290.523560,1067.072754 274.646149,1055.065918 
	C254.912033,1040.142578 237.033035,1023.019287 220.569809,1004.690918 
	C204.499649,986.800110 189.702744,967.716125 175.036148,948.626343 
	C155.891647,923.708252 140.379883,896.461304 126.752029,868.212524 
	C111.247810,836.074341 98.189079,802.944092 90.025230,768.109314 
	C85.312775,748.001465 80.737473,727.824219 77.234650,707.482910 
	C74.817413,693.445679 74.067863,679.093262 73.074577,664.846680 
	C72.063164,650.340088 70.971992,635.780823 71.178307,621.262634 
	C71.426605,603.789673 71.882332,586.180115 74.270721,568.909424 
	C77.951889,542.290405 82.355324,515.682983 88.298080,489.489441 
	C94.518173,462.073456 103.600655,435.357269 115.156891,409.647491 
	C122.770164,392.709839 130.664703,375.857025 139.357101,359.455841 
	C152.278290,335.075562 167.651245,312.192261 184.313614,290.193146 
	C202.499710,266.182312 222.555237,243.817474 244.444626,223.155792 
	C262.948914,205.689346 282.644592,189.662750 303.340332,174.775925 
	C328.853516,156.423843 355.655121,140.310394 383.901001,126.684402 
	C416.036835,111.181831 449.176086,98.137718 484.023102,90.010757 
	C504.136414,85.319962 524.309082,80.726379 544.650574,77.225281 
	C558.687622,74.809273 573.040283,74.059662 587.287048,73.075272 
	C601.960388,72.061417 616.673218,71.576286 631.375977,71.066399 
	C634.793091,70.947884 638.239258,71.666306 642.155334,71.999634 
M649.500488,352.843018 
	C643.399658,352.843018 637.298828,352.843018 630.843018,352.843018 
	C630.843018,355.300598 630.843018,357.103943 630.843018,358.907288 
	C630.843018,478.387360 630.793396,597.867493 630.945129,717.347351 
	C630.956299,726.124695 631.767334,735.017334 633.311951,743.658752 
	C650.990845,842.565247 747.863098,905.624084 845.638672,882.059753 
	C922.011780,863.653564 978.012695,794.035400 978.141357,717.121704 
	C978.341003,597.816772 978.439331,478.511749 978.580261,359.206757 
	C978.582581,357.246033 978.580566,355.285309 978.580566,353.150391 
	C936.812988,353.150391 895.595093,353.150391 854.000000,353.150391 
	C854.000000,355.421417 854.000000,357.389557 854.000000,359.357697 
	C854.000000,479.004395 854.002441,598.651123 853.997192,718.297791 
	C853.996521,734.686523 847.658447,748.214783 834.666870,758.102478 
	C818.667847,770.278992 800.887939,772.129761 782.953003,763.407532 
	C764.598755,754.481323 755.092163,738.917175 755.068359,718.449890 
	C754.929016,598.803284 755.000000,479.156555 755.000000,359.509857 
	C755.000000,357.401764 755.000000,355.293671 755.000000,352.842957 
	C719.764099,352.842957 685.132202,352.842957 649.500488,352.843018 
M484.549072,356.917877 
	C460.929443,350.396698 437.014648,349.130798 412.806061,352.814941 
	C334.907501,364.669708 273.748322,429.321899 266.199341,507.929718 
	C265.605408,514.114624 265.608521,520.356934 265.339355,526.454224 
	C307.426025,526.454224 348.503326,526.454224 389.168762,526.454224 
	C390.178436,521.108887 390.704956,516.105225 392.094208,511.353729 
	C397.827911,491.743378 416.034637,476.959045 435.346466,475.901245 
	C457.401611,474.693176 476.387512,486.029266 484.746918,505.397308 
	C492.782990,524.016113 488.280823,546.316956 473.904419,560.228271 
	C435.236328,597.645447 396.630157,635.126526 358.008820,672.591980 
	C337.562744,692.426086 317.369415,712.528076 296.629059,732.049194 
	C279.231720,748.423767 267.918884,767.454407 265.705719,791.709412 
	C260.906891,844.302124 301.394836,888.997864 354.260773,888.999207 
	C474.427032,889.002380 594.593262,889.000183 714.759521,889.000183 
	C716.489014,889.000183 718.218506,889.000244 721.396240,889.000244 
	C718.498413,887.353149 716.948364,886.488342 715.413452,885.597351 
	C669.483826,858.936462 636.954346,821.300598 621.164612,770.089966 
	C619.943237,766.128540 618.422974,764.717590 614.111816,764.730591 
	C558.112549,764.899292 502.112579,764.842407 446.112793,764.842407 
	C444.360779,764.842407 442.608795,764.842407 440.856781,764.842407 
	C440.535492,764.357666 440.214203,763.872925 439.892914,763.388184 
	C441.357513,762.370544 442.991058,761.528992 444.262299,760.309692 
	C482.969543,723.182922 522.566956,686.926208 560.089905,648.636963 
	C609.754456,597.958130 623.127686,536.692688 602.244751,469.696838 
	C584.194641,411.789337 543.439941,374.765259 484.549072,356.917877 
M1012.951233,879.502625 
	C1014.513611,878.004150 1016.150085,876.575012 1017.626404,874.996094 
	C1028.534180,863.329712 1030.262207,843.742493 1021.685730,829.412659 
	C1013.244080,815.307739 996.100342,808.239685 980.281494,812.661621 
	C965.063110,816.915588 955.578491,826.962219 953.006775,842.537231 
	C950.263306,859.152161 955.562317,873.065857 970.258606,881.994995 
	C984.467957,890.628113 998.776306,889.459717 1012.951233,879.502625 
z"/>
<path fill="#0c262b" opacity="1.000000" stroke="none" 
	d="
M650.000366,352.842987 
	C685.132202,352.842957 719.764099,352.842957 755.000000,352.842957 
	C755.000000,355.293671 755.000000,357.401764 755.000000,359.509857 
	C755.000000,479.156555 754.929016,598.803284 755.068359,718.449890 
	C755.092163,738.917175 764.598755,754.481323 782.953003,763.407532 
	C800.887939,772.129761 818.667847,770.278992 834.666870,758.102478 
	C847.658447,748.214783 853.996521,734.686523 853.997192,718.297791 
	C854.002441,598.651123 854.000000,479.004395 854.000000,359.357697 
	C854.000000,357.389557 854.000000,355.421417 854.000000,353.150391 
	C895.595093,353.150391 936.812988,353.150391 978.580566,353.150391 
	C978.580566,355.285309 978.582581,357.246033 978.580261,359.206757 
	C978.439331,478.511749 978.341003,597.816772 978.141357,717.121704 
	C978.012695,794.035400 922.011780,863.653564 845.638672,882.059753 
	C747.863098,905.624084 650.990845,842.565247 633.311951,743.658752 
	C631.767334,735.017334 630.956299,726.124695 630.945129,717.347351 
	C630.793396,597.867493 630.843018,478.387360 630.843018,358.907288 
	C630.843018,357.103943 630.843018,355.300598 630.843018,352.843018 
	C637.298828,352.843018 643.399658,352.843018 650.000366,352.842987 
z"/>
<path fill="#0c262b" opacity="1.000000" stroke="none" 
	d="
M484.950806,356.985962 
	C543.439941,374.765259 584.194641,411.789337 602.244751,469.696838 
	C623.127686,536.692688 609.754456,597.958130 560.089905,648.636963 
	C522.566956,686.926208 482.969543,723.182922 444.262299,760.309692 
	C442.991058,761.528992 441.357513,762.370544 439.892914,763.388184 
	C440.214203,763.872925 440.535492,764.357666 440.856781,764.842407 
	C442.608795,764.842407 444.360779,764.842407 446.112793,764.842407 
	C502.112579,764.842407 558.112549,764.899292 614.111816,764.730591 
	C618.422974,764.717590 619.943237,766.128540 621.164612,770.089966 
	C636.954346,821.300598 669.483826,858.936462 715.413452,885.597351 
	C716.948364,886.488342 718.498413,887.353149 721.396240,889.000244 
	C718.218506,889.000244 716.489014,889.000183 714.759521,889.000183 
	C594.593262,889.000183 474.427032,889.002380 354.260773,888.999207 
	C301.394836,888.997864 260.906891,844.302124 265.705719,791.709412 
	C267.918884,767.454407 279.231720,748.423767 296.629059,732.049194 
	C317.369415,712.528076 337.562744,692.426086 358.008820,672.591980 
	C396.630157,635.126526 435.236328,597.645447 473.904419,560.228271 
	C488.280823,546.316956 492.782990,524.016113 484.746918,505.397308 
	C476.387512,486.029266 457.401611,474.693176 435.346466,475.901245 
	C416.034637,476.959045 397.827911,491.743378 392.094208,511.353729 
	C390.704956,516.105225 390.178436,521.108887 389.168762,526.454224 
	C348.503326,526.454224 307.426025,526.454224 265.339355,526.454224 
	C265.608521,520.356934 265.605408,514.114624 266.199341,507.929718 
	C273.748322,429.321899 334.907501,364.669708 412.806061,352.814941 
	C437.014648,349.130798 460.929443,350.396698 484.950806,356.985962 
z"/>
<path fill="#0c262b" opacity="1.000000" stroke="none" 
	d="
M1012.674622,879.730042 
	C998.776306,889.459717 984.467957,890.628113 970.258606,881.994995 
	C955.562317,873.065857 950.263306,859.152161 953.006775,842.537231 
	C955.578491,826.962219 965.063110,816.915588 980.281494,812.661621 
	C996.100342,808.239685 1013.244080,815.307739 1021.685730,829.412659 
	C1030.262207,843.742493 1028.534180,863.329712 1017.626404,874.996094 
	C1016.150085,876.575012 1014.513611,878.004150 1012.674622,879.730042 
M958.567993,859.629639 
	C964.086487,874.238708 975.440308,882.371704 990.450928,882.087036 
	C1003.881653,881.832397 1013.662415,875.286926 1019.233704,863.274658 
	C1024.899170,851.059448 1023.415588,839.093567 1014.852234,828.661194 
	C1006.408447,818.374634 995.171082,814.917236 982.169861,817.624695 
	C966.636169,820.859680 952.534363,837.912598 958.567993,859.629639 
z"/>
<path fill="white" opacity="1.000000" stroke="none" 
	d="
M958.421875,859.251709 
	C952.534363,837.912598 966.636169,820.859680 982.169861,817.624695 
	C995.171082,814.917236 1006.408447,818.374634 1014.852234,828.661194 
	C1023.415588,839.093567 1024.899170,851.059448 1019.233704,863.274658 
	C1013.662415,875.286926 1003.881653,881.832397 990.450928,882.087036 
	C975.440308,882.371704 964.086487,874.238708 958.421875,859.251709 
M1001.486450,857.960815 
	C1000.601379,856.584778 999.716370,855.208740 998.744202,853.697327 
	C999.804810,853.060181 1000.663635,852.598694 1001.465576,852.053467 
	C1005.915527,849.027649 1007.663208,844.788086 1006.773865,839.544067 
	C1005.932983,834.586365 1002.373230,830.670227 997.003113,830.262634 
	C989.806946,829.716431 982.538147,830.127441 975.365723,830.127441 
	C975.365723,842.906128 975.365723,855.283203 975.365723,867.565002 
	C977.840149,867.565002 979.937195,867.565002 982.706909,867.565002 
	C982.706909,863.240662 982.706909,859.191284 982.706909,855.649475 
	C990.564575,852.377197 992.538330,858.292847 995.471619,862.469910 
	C999.809509,868.647034 999.763916,868.679077 1007.868408,867.185242 
	C1005.826782,864.223938 1003.869202,861.384460 1001.486450,857.960815 
z"/>
<path fill="#0c262b" opacity="1.000000" stroke="none" 
	d="
M1001.699036,858.252930 
	C1003.869202,861.384460 1005.826782,864.223938 1007.868408,867.185242 
	C999.763916,868.679077 999.809509,868.647034 995.471619,862.469910 
	C992.538330,858.292847 990.564575,852.377197 982.706909,855.649475 
	C982.706909,859.191284 982.706909,863.240662 982.706909,867.565002 
	C979.937195,867.565002 977.840149,867.565002 975.365723,867.565002 
	C975.365723,855.283203 975.365723,842.906128 975.365723,830.127441 
	C982.538147,830.127441 989.806946,829.716431 997.003113,830.262634 
	C1002.373230,830.670227 1005.932983,834.586365 1006.773865,839.544067 
	C1007.663208,844.788086 1005.915527,849.027649 1001.465576,852.053467 
	C1000.663635,852.598694 999.804810,853.060181 998.744202,853.697327 
	C999.716370,855.208740 1000.601379,856.584778 1001.699036,858.252930 
M982.432129,846.839172 
	C986.032227,849.888977 995.449402,849.213440 998.023804,845.720642 
	C1000.421692,842.467346 999.163940,837.957458 995.102234,837.041443 
	C991.177185,836.156189 987.034973,836.233398 982.377808,835.835693 
	C982.377808,839.755554 982.377808,842.859680 982.432129,846.839172 
z"/>
<path fill="white" opacity="1.000000" stroke="none" 
	d="
M982.404968,846.401489 
	C982.377808,842.859680 982.377808,839.755554 982.377808,835.835693 
	C987.034973,836.233398 991.177185,836.156189 995.102234,837.041443 
	C999.163940,837.957458 1000.421692,842.467346 998.023804,845.720642 
	C995.449402,849.213440 986.032227,849.888977 982.404968,846.401489 
z"/>
</svg>