<?xml version="1.0" encoding="UTF-8"?>
<svg id="Layer_1" data-name="Layer 1" xmlns="http://www.w3.org/2000/svg" viewBox="0 0 113.73 93.18">
  <defs>
    <style>
      .cls-1 {
        stroke: #2546f0;
        stroke-width: 11.05px;
      }

      .cls-1, .cls-2, .cls-3 {
        fill: none;
        stroke-linecap: round;
        stroke-linejoin: round;
      }

      .cls-2 {
        stroke-width: 2px;
      }

      .cls-2, .cls-3 {
        stroke: #1b1b1b;
      }

      .cls-3 {
        stroke-width: 1.89px;
      }
    </style>
  </defs>
  <line class="cls-3" x1="1.56" y1="5.53" x2="102.18" y2="5.53"/>
  <line class="cls-3" x1="1.56" y1="25.48" x2="112.79" y2="25.48"/>
  <line class="cls-3" x1="1.56" y1="45.43" x2="112.79" y2="45.43"/>
  <line class="cls-3" x1="1.56" y1="65.38" x2="112.79" y2="65.38"/>
  <line class="cls-3" x1="1.56" y1="85.32" x2="60.97" y2="85.32"/>
  <line class="cls-1" x1="75.79" y1="65.53" x2="94.85" y2="65.53"/>
  <line class="cls-1" x1="42.34" y1="5.53" x2="61.4" y2="5.53"/>
  <line class="cls-1" x1="5.53" y1="45.43" x2="24.59" y2="45.43"/>
  <line class="cls-1" x1="17.47" y1="85.32" x2="36.53" y2="85.32"/>
  <g>
    <line class="cls-2" x1="97.23" y1="77.09" x2="112.54" y2="92.18"/>
    <path class="cls-2" d="m102.42,64.87c0,9.52-7.71,17.23-17.23,17.23s-17.23-7.71-17.23-17.23,7.71-17.23,17.23-17.23,17.23,7.71,17.23,17.23Z"/>
  </g>
</svg>