<svg xmlns="http://www.w3.org/2000/svg" xmlns:xlink="http://www.w3.org/1999/xlink" version="1.1" width="1000" height="1000" viewBox="0 0 1000 1000" xml:space="preserve">
<desc>Created with Fabric.js 3.5.0</desc>
<defs>
</defs>
<rect x="0" y="0" width="100%" height="100%" fill="#ffffff"/>
<g transform="matrix(0.0781 0 0 0.0781 75.4449 200.3791)" id="219642">
<g style="" vector-effect="non-scaling-stroke">
		<g transform="matrix(1 0 0 1 -153 1)" id="Layer_1">
<path style="stroke: none; stroke-width: 1; stroke-dasharray: none; stroke-linecap: butt; stroke-dashoffset: 0; stroke-linejoin: miter; stroke-miterlimit: 4; is-custom-font: none; font-file-url: none; fill: rgb(21,118,212); fill-rule: nonzero; opacity: 1;" transform=" translate(-231, -272)" d="M 461 543 C 332.645782 543 204.29155 543 75.301376 542.635132 C 67.071892 539.988098 59.00668 538.67511 51.969288 535.250183 C 26.28569 522.750671 9.75652 502.478607 2.929757 474.533447 C 2.698847 473.588226 1.661475 472.840027 1.000006 472 C 1 459.979095 1 447.958221 1.363669 435.342896 C 2.118665 434.230804 2.761153 433.758789 2.864776 433.188812 C 5.820122 416.933563 13.210613 403.029907 25.018782 391.50769 C 33.330818 383.396942 41.778435 375.425385 50.132954 367.357971 C 60.884438 356.976044 71.613251 346.570587 82.333694 336.156586 C 94.846588 324.001434 107.332207 311.818176 119.844032 299.661896 C 130.683014 289.13092 141.544159 278.622742 152.391708 268.100555 C 163.717529 257.11441 175.089478 246.175186 186.346054 235.11853 C 195.379776 226.24527 204.379791 217.332458 213.195831 208.244232 C 222.34169 198.81604 226.300812 186.894058 225.728409 174.256317 C 225.132538 161.100464 219.7901 149.486374 209.744675 140.11528 C 186.37056 118.310211 149.215683 124.117027 133.396667 152.624603 C 129.269699 160.061859 127.904808 169.031784 125.047623 178 C 84.590408 178 42.795204 178 1 178 C 1 170.97905 1 163.958099 1.322194 156.361725 C 1.429592 154.857529 1.214796 153.928757 1 153 C 1 152.555557 1 152.111099 1.37077 151.200775 C 3.161804 144.789352 4.543778 138.834335 6.008783 132.899811 C 13.39272 102.988579 27.787077 76.864105 48.99062 54.590252 C 65.300652 37.456924 84.396698 24.04842 106.301353 15.096433 C 116.448975 10.949307 127.140862 8.063968 137.712662 5.051059 C 144.014755 3.254996 150.562622 2.321347 157 1 C 169.687561 1 182.375122 1 195.714386 1.374905 C 200.280136 2.189368 204.265594 2.297781 208.096298 3.12391 C 228.224899 7.464836 247.601349 13.833063 265.301361 24.691294 C 284.631836 36.54977 301.49408 51.041939 315.12915 69.323784 C 327.446503 85.838829 336.274048 103.917984 342.356384 123.5662 C 347.0401 138.696411 349.7258 154.194931 349.718597 169.831818 C 349.711975 184.205887 348.073517 198.694672 345.832275 212.924744 C 342.612061 233.370667 334.67157 252.252579 323.69165 269.807129 C 312.800323 287.220001 298.992889 302.014648 283.86853 315.879059 C 266.969971 331.369843 251.004227 347.876709 234.587387 363.895111 C 224.846725 373.399353 215.044205 382.840576 205.219772 392.25827 C 200.204285 397.066071 195.114639 401.798187 189.991501 406.491364 C 186.43779 409.746826 182.76976 412.877502 178.09024 417 C 181.524231 417 183.318619 417 185.113007 417 C 239.75087 417 294.388733 417 349.026581 417 C 358.139709 417 358.207794 416.978851 360.89325 425.622498 C 367.232758 446.027649 376.787628 464.828247 389.530334 481.925995 C 401.086884 497.432129 414.259003 511.473785 430.186615 522.613281 C 440.275574 529.669373 450.716766 536.221741 461 543 z" stroke-linecap="round"/>
</g>
		<g transform="matrix(1 0 0 1 89.5451 1)" id="Layer_1">
<path style="stroke: none; stroke-width: 1; stroke-dasharray: none; stroke-linecap: butt; stroke-dashoffset: 0; stroke-linejoin: miter; stroke-miterlimit: 4; is-custom-font: none; font-file-url: none; fill: rgb(255,255,255); fill-rule: nonzero; opacity: 1;" transform=" translate(-473.5451, -272)" d="M 461.468658 543 C 450.716766 536.221741 440.275574 529.669373 430.186615 522.613281 C 414.259003 511.473785 401.086884 497.432129 389.530334 481.925995 C 376.787628 464.828247 367.232758 446.027649 360.89325 425.622498 C 358.207794 416.978851 358.139709 417 349.026581 417 C 294.388733 417 239.75087 417 185.113007 417 C 183.318619 417 181.524231 417 178.09024 417 C 182.76976 412.877502 186.43779 409.746826 189.991501 406.491364 C 195.114639 401.798187 200.204285 397.066071 205.219772 392.25827 C 215.044205 382.840576 224.846725 373.399353 234.587387 363.895111 C 251.004227 347.876709 266.969971 331.369843 283.86853 315.879059 C 298.992889 302.014648 312.800323 287.220001 323.69165 269.807129 C 334.67157 252.252579 342.612061 233.370667 345.832275 212.924744 C 348.073517 198.694672 349.711975 184.205887 349.718597 169.831818 C 349.7258 154.194931 347.0401 138.696411 342.356384 123.5662 C 336.274048 103.917984 327.446503 85.838829 315.12915 69.323784 C 301.49408 51.041939 284.631836 36.54977 265.301361 24.691294 C 247.601349 13.833063 228.224899 7.464836 208.096298 3.12391 C 204.265594 2.297781 200.280136 2.189368 196.183044 1.374905 C 386.9216 1 577.843201 1 769 1 C 769 164.687485 769 328.375092 768.658325 492.400818 C 767.94989 492.009521 767.468018 491.315216 767.233215 490.545593 C 761.441956 471.558472 739.894348 461.788361 722.76532 465.946106 C 700.679932 471.306946 688.789917 493.35025 694.49585 513.826477 C 698.908875 529.662964 712.795288 541.291016 730.704163 541.199463 C 745.033447 541.12616 755.49884 535.261841 763.424927 523.973816 C 765.602112 520.873108 767.15863 517.336548 769 514 C 769 523.654114 769 533.308228 769 543 C 666.645752 543 564.291565 543 461.468658 543 M 369 31.5 C 369 146.332489 368.987885 261.164978 369.044312 375.997437 C 369.04657 380.595032 369.083832 385.342255 370.16214 389.76178 C 373.505646 403.465088 376.516663 417.341644 381.202087 430.605072 C 389.444855 453.93866 403.490875 473.973846 421.041687 491.166504 C 430.081024 500.021332 440.667786 507.48114 451.237701 514.551025 C 474.295105 529.973389 500.131409 538.644226 527.595398 540.73645 C 553.587524 542.716614 579.395081 540.637329 604.273376 531.137329 C 630.510986 521.118286 653.431641 506.616638 672.684937 485.996277 C 687.39978 470.236633 698.762756 452.578278 707.077881 432.774841 C 714.537659 415.008575 719.717102 396.453217 719.782837 377.345673 C 720.207031 253.8479 720 130.347961 720 6.84875 C 720 5.27581 720 3.70287 720 2.280314 C 677.585999 2.280314 635.9823 2.280314 594 2.280314 C 594 4.521706 594 6.487346 594 8.452986 C 594 130.118881 594.039124 251.784821 593.945435 373.450653 C 593.934937 387.073456 588.081116 398.767456 578.398804 407.795105 C 566.130188 419.2341 551.270142 423.314575 534.389343 420.095459 C 512.391174 415.900543 495.100372 395.187225 495.072998 373.299225 C 494.920837 251.633514 495 129.967514 495 8.30162 C 495 6.349424 495 4.397228 495 2.296978 C 452.790131 2.296978 411.068298 2.296978 369 2.296978 C 369 11.893812 369 21.196907 369 31.5 z" stroke-linecap="round"/>
</g>
		<g transform="matrix(1 0 0 1 -270.6088 9.8777)" id="Layer_1">
<path style="stroke: none; stroke-width: 1; stroke-dasharray: none; stroke-linecap: butt; stroke-dashoffset: 0; stroke-linejoin: miter; stroke-miterlimit: 4; is-custom-font: none; font-file-url: none; fill: rgb(255,255,255); fill-rule: nonzero; opacity: 1;" transform=" translate(-113.3912, -280.8778)" d="M 1 178.468658 C 42.795204 178 84.590408 178 125.047623 178 C 127.904808 169.031784 129.269699 160.061859 133.396667 152.624603 C 149.215683 124.117027 186.37056 118.310211 209.744675 140.11528 C 219.7901 149.486374 225.132538 161.100464 225.728409 174.256317 C 226.300812 186.894058 222.34169 198.81604 213.195831 208.244232 C 204.379791 217.332458 195.379776 226.24527 186.346054 235.11853 C 175.089478 246.175186 163.717529 257.11441 152.391708 268.100555 C 141.544159 278.622742 130.683014 289.13092 119.844032 299.661896 C 107.332207 311.818176 94.846588 324.001434 82.333694 336.156586 C 71.613251 346.570587 60.884438 356.976044 50.132954 367.357971 C 41.778435 375.425385 33.330818 383.396942 25.018782 391.50769 C 13.210613 403.029907 5.820122 416.933563 2.864776 433.188812 C 2.761153 433.758789 2.118665 434.230804 1.363669 434.874268 C 1 349.645782 1 264.291534 1 178.468658 z" stroke-linecap="round"/>
</g>
		<g transform="matrix(1 0 0 1 -305.2343 -195.0663)" id="Layer_1">
<path style="stroke: none; stroke-width: 1; stroke-dasharray: none; stroke-linecap: butt; stroke-dashoffset: 0; stroke-linejoin: miter; stroke-miterlimit: 4; is-custom-font: none; font-file-url: none; fill: rgb(255,255,255); fill-rule: nonzero; opacity: 1;" transform=" translate(-78.7657, -75.9337)" d="M 156.531342 1 C 150.562622 2.321347 144.014755 3.254996 137.712662 5.051059 C 127.140862 8.063968 116.448975 10.949307 106.301353 15.096433 C 84.396698 24.04842 65.300652 37.456924 48.99062 54.590252 C 27.787077 76.864105 13.39272 102.988579 6.008783 132.899811 C 4.543778 138.834335 3.161804 144.789352 1.37077 150.867462 C 1 101.071571 1 51.143147 1 1 C 52.687363 1 104.375023 1 156.531342 1 z" stroke-linecap="round"/>
</g>
		<g transform="matrix(1 0 0 1 -346.0836 236.7344)" id="Layer_1">
<path style="stroke: none; stroke-width: 1; stroke-dasharray: none; stroke-linecap: butt; stroke-dashoffset: 0; stroke-linejoin: miter; stroke-miterlimit: 4; is-custom-font: none; font-file-url: none; fill: rgb(255,255,255); fill-rule: nonzero; opacity: 1;" transform=" translate(-37.9164, -507.7343)" d="M 1.000006 472.468658 C 1.661475 472.840027 2.698847 473.588226 2.929757 474.533447 C 9.75652 502.478607 26.28569 522.750671 51.969288 535.250183 C 59.00668 538.67511 67.071892 539.988098 74.832718 542.635132 C 50.407982 543 25.815964 543 1 543 C 1 519.64624 1 496.291779 1.000006 472.468658 z" stroke-linecap="round"/>
</g>
		<g transform="matrix(1 0 0 1 347.0375 232.0994)" id="Layer_1">
<path style="stroke: none; stroke-width: 1; stroke-dasharray: none; stroke-linecap: butt; stroke-dashoffset: 0; stroke-linejoin: miter; stroke-miterlimit: 4; is-custom-font: none; font-file-url: none; fill: rgb(21,118,212); fill-rule: nonzero; opacity: 1;" transform=" translate(-731.0374, -503.0995)" d="M 769 513.531494 C 767.15863 517.336548 765.602112 520.873108 763.424927 523.973816 C 755.49884 535.261841 745.033447 541.12616 730.704163 541.199463 C 712.795288 541.291016 698.908875 529.662964 694.49585 513.826477 C 688.789917 493.35025 700.679932 471.306946 722.76532 465.946106 C 739.894348 461.788361 761.441956 471.558472 767.233215 490.545593 C 767.468018 491.315216 767.94989 492.009521 768.658325 492.869446 C 769 499.687653 769 506.375275 769 513.531494 M 743.456421 472.888031 C 738.707825 471.927216 733.824524 469.720245 729.233521 470.216797 C 706.80127 472.642914 693.75 493.567535 700.744385 514.38739 C 706.13739 530.440369 720.867554 538.842224 737.669983 535.683289 C 752.058838 532.978088 763.593323 520.869873 763.849121 504.289368 C 764.06897 490.035919 757.495117 479.236572 743.456421 472.888031 z" stroke-linecap="round"/>
</g>
		<g transform="matrix(1 0 0 1 -382.8246 -116.3659)" id="Layer_1">
<path style="stroke: none; stroke-width: 1; stroke-dasharray: none; stroke-linecap: butt; stroke-dashoffset: 0; stroke-linejoin: miter; stroke-miterlimit: 4; is-custom-font: none; font-file-url: none; fill: rgb(255,255,255); fill-rule: nonzero; opacity: 1;" transform=" translate(-1.1754, -154.6341)" d="M 1 153.375 C 1.214796 153.928757 1.429592 154.857529 1.322194 155.893143 C 1 155.25 1 154.5 1 153.375 z" stroke-linecap="round"/>
</g>
		<g transform="matrix(1 0 0 1 160.5247 0.8493)" id="Layer_1">
<path style="stroke: none; stroke-width: 1; stroke-dasharray: none; stroke-linecap: butt; stroke-dashoffset: 0; stroke-linejoin: miter; stroke-miterlimit: 4; is-custom-font: none; font-file-url: none; fill: rgb(21,118,212); fill-rule: nonzero; opacity: 1;" transform=" translate(-544.5247, -271.8493)" d="M 369 31 C 369 21.196907 369 11.893812 369 2.296978 C 411.068298 2.296978 452.790131 2.296978 495 2.296978 C 495 4.397228 495 6.349424 495 8.30162 C 495 129.967514 494.920837 251.633514 495.072998 373.299225 C 495.100372 395.187225 512.391174 415.900543 534.389343 420.095459 C 551.270142 423.314575 566.130188 419.2341 578.398804 407.795105 C 588.081116 398.767456 593.934937 387.073456 593.945435 373.450653 C 594.039124 251.784821 594 130.118881 594 8.452986 C 594 6.487346 594 4.521706 594 2.280314 C 635.9823 2.280314 677.585999 2.280314 720 2.280314 C 720 3.70287 720 5.27581 720 6.84875 C 720 130.347961 720.207031 253.8479 719.782837 377.345673 C 719.717102 396.453217 714.537659 415.008575 707.077881 432.774841 C 698.762756 452.578278 687.39978 470.236633 672.684937 485.996277 C 653.431641 506.616638 630.510986 521.118286 604.273376 531.137329 C 579.395081 540.637329 553.587524 542.716614 527.595398 540.73645 C 500.131409 538.644226 474.295105 529.973389 451.237701 514.551025 C 440.667786 507.48114 430.081024 500.021332 421.041687 491.166504 C 403.490875 473.973846 389.444855 453.93866 381.202087 430.605072 C 376.516663 417.341644 373.505646 403.465088 370.16214 389.76178 C 369.083832 385.342255 369.04657 380.595032 369.044312 375.997437 C 368.987885 261.164978 369 146.332489 369 31 z" stroke-linecap="round"/>
</g>
		<g transform="matrix(1 0 0 1 347.3537 232.2431)" id="Layer_1">
<path style="stroke: none; stroke-width: 1; stroke-dasharray: none; stroke-linecap: butt; stroke-dashoffset: 0; stroke-linejoin: miter; stroke-miterlimit: 4; is-custom-font: none; font-file-url: none; fill: rgb(255,255,255); fill-rule: nonzero; opacity: 1;" transform=" translate(-731.3537, -503.243)" d="M 743.842041 472.967285 C 757.495117 479.236572 764.06897 490.035919 763.849121 504.289368 C 763.593323 520.869873 752.058838 532.978088 737.669983 535.683289 C 720.867554 538.842224 706.13739 530.440369 700.744385 514.38739 C 693.75 493.567535 706.80127 472.642914 729.233521 470.216797 C 733.824524 469.720245 738.707825 471.927216 743.842041 472.967285 M 747.659668 501.834839 C 751.323364 493.954254 748.226501 485.154541 739.443787 483.968109 C 731.849426 482.94223 724.102234 483.048157 716.304688 482.647705 C 716.304688 496.270721 716.304688 508.994324 716.304688 521.641418 C 719.014343 521.641418 721.399109 521.641418 724.103882 521.641418 C 724.103882 517.339783 724.103882 513.390381 724.103882 509.606842 C 731.528809 506.626404 733.867798 512.295166 736.800842 516.552307 C 740.965942 522.597595 742.836365 523.370422 750.077026 521.034607 C 747.037537 516.581848 744.035217 512.183533 741.032898 507.785217 C 741.669434 508.369141 742.305969 508.953033 742.942505 509.536957 C 744.338623 507.166412 745.734741 504.795868 747.659668 501.834839 z" stroke-linecap="round"/>
</g>
		<g transform="matrix(1 0 0 1 349.1909 231.4509)" id="Layer_1">
<path style="stroke: none; stroke-width: 1; stroke-dasharray: none; stroke-linecap: butt; stroke-dashoffset: 0; stroke-linejoin: miter; stroke-miterlimit: 4; is-custom-font: none; font-file-url: none; fill: rgb(21,118,212); fill-rule: nonzero; opacity: 1;" transform=" translate(-733.1909, -502.4509)" d="M 747.395264 502.130066 C 745.734741 504.795868 744.338623 507.166412 742.942505 509.536957 C 742.305969 508.953033 741.669434 508.369141 741.032898 507.785217 C 744.035217 512.183533 747.037537 516.581848 750.077026 521.034607 C 742.836365 523.370422 740.965942 522.597595 736.800842 516.552307 C 733.867798 512.295166 731.528809 506.626404 724.103882 509.606842 C 724.103882 513.390381 724.103882 517.339783 724.103882 521.641418 C 721.399109 521.641418 719.014343 521.641418 716.304688 521.641418 C 716.304688 508.994324 716.304688 496.270721 716.304688 482.647705 C 724.102234 483.048157 731.849426 482.94223 739.443787 483.968109 C 748.226501 485.154541 751.323364 493.954254 747.395264 502.130066 M 727.549927 490.000519 C 725.309082 489.770386 723.714172 490.075043 723.95166 493.033142 C 724.183655 495.921356 724.002136 498.842834 724.002136 501.976898 C 727.924194 501.976898 731.262024 502.35791 734.464844 501.864014 C 737.359558 501.417633 740.072754 500.130341 740.044373 496.230194 C 740.019531 492.809418 738.709778 491.047119 735.153198 490.915161 C 732.916748 490.832184 730.696167 490.319794 727.549927 490.000519 z" stroke-linecap="round"/>
</g>
		<g transform="matrix(1 0 0 1 347.9865 225.0285)" id="Layer_1">
<path style="stroke: none; stroke-width: 1; stroke-dasharray: none; stroke-linecap: butt; stroke-dashoffset: 0; stroke-linejoin: miter; stroke-miterlimit: 4; is-custom-font: none; font-file-url: none; fill: rgb(255,255,255); fill-rule: nonzero; opacity: 1;" transform=" translate(-731.9865, -496.0284)" d="M 728.009216 490.000305 C 730.696167 490.319794 732.916748 490.832184 735.153198 490.915161 C 738.709778 491.047119 740.019531 492.809418 740.044373 496.230194 C 740.072754 500.130341 737.359558 501.417633 734.464844 501.864014 C 731.262024 502.35791 727.924194 501.976898 724.002136 501.976898 C 724.002136 498.842834 724.183655 495.921356 723.95166 493.033142 C 723.714172 490.075043 725.309082 489.770386 728.009216 490.000305 z" stroke-linecap="round"/>
</g>
</g>
</g>
</svg>