<svg version="1.1" id="Layer_1" xmlns="http://www.w3.org/2000/svg" xmlns:xlink="http://www.w3.org/1999/xlink" x="0px" y="0px" width="133" viewBox="0 0 3326 1750" enable-background="new 0 0 3326 1750" xml:space="preserve" height="70"><path fill="#00262B" opacity="1.000000" stroke="none" d=" M1.999999,1378.000000   C2.000000,1378.000000 2.000000,1377.000000 2.792924,1376.681641   C4.289497,1375.405884 5.412081,1374.537109 5.636260,1373.478149   C13.812667,1334.859497 21.910347,1296.223999 30.008669,1257.588867   C39.807659,1210.839966 49.608776,1164.091553 59.388103,1117.338623   C68.896103,1071.882690 78.359230,1026.417358 87.875893,980.963318   C97.664162,934.211914 107.502739,887.471008 117.301987,840.721863   C126.897995,794.942383 136.470840,749.158020 146.056366,703.376343   C154.484863,663.120850 162.920639,622.866760 171.346191,582.610657   C180.928482,536.827881 190.497086,491.042175 200.082718,445.260071   C208.511185,405.004700 216.975464,364.756775 225.386490,324.497742   C235.020248,278.386108 244.576096,232.258179 254.233398,186.151505   C263.957214,139.727249 273.839203,93.335991 283.491150,46.896866   C286.590271,31.985874 289.178192,16.968634 292.000000,2.000001   C879.389404,2.000000 1466.778809,2.000000 2054.893311,2.759723   C2051.866699,20.685318 2047.989990,37.825001 2044.385498,55.021698   C2031.046997,118.659592 2017.782104,182.312897 2004.528687,245.968582   C2001.560181,260.226288 1998.751465,274.517242 1995.660400,289.827026   C2370.295410,289.827026 2744.101318,289.827026 3118.235107,289.827026   C3117.929688,292.739105 3117.899170,294.746796 3117.490723,296.674347   C3106.141846,350.223083 3094.783936,403.769867 3083.367188,457.304169   C3069.527832,522.196533 3055.575195,587.064758 3041.780029,651.966431   C3027.571289,718.814087 3013.588135,785.709778 2999.330811,852.546997   C2984.450928,922.302734 2969.243164,991.988647 2954.398193,1061.751831   C2939.276855,1132.813965 2924.493408,1203.948120 2909.431396,1275.022827   C2895.606689,1340.257324 2881.607666,1405.454834 2867.685791,1470.668579   C2856.535156,1522.901123 2845.340088,1575.124146 2834.249512,1627.369263   C2825.433350,1668.898804 2816.744873,1710.455444 2808.000000,1752.000000   C2337.943848,1752.000000 1867.887817,1752.000000 1396.928467,1751.190674   C1422.846558,1628.004272 1449.668213,1505.627197 1476.690796,1382.332764   C1471.445312,1382.332764 1467.483887,1382.332642 1463.522461,1382.332642   C981.275818,1382.332642 499.029114,1382.332764 16.782446,1382.329834   C13.450149,1382.329834 10.014083,1382.766724 6.825791,1382.077515   C5.008316,1381.684570 3.595183,1379.421265 1.999999,1378.000000  M2273.803711,735.198914   C2237.180664,649.539734 2200.557617,563.880615 2164.156006,478.739197   C2076.286133,478.739197 1989.242310,478.739197 1901.044556,478.739197   C1976.270508,648.931824 2051.034180,818.078674 2125.539795,986.641846   C2125.250732,987.750305 2125.225830,988.103882 2125.070801,988.386292   C2124.750977,988.968872 2124.419678,989.562073 2123.993652,990.066895   C1974.170654,1167.574951 1824.338257,1345.075073 1674.509888,1522.578613   C1663.977783,1535.056152 1653.468872,1547.553467 1642.964111,1560.053955   C1642.547729,1560.549561 1642.243408,1561.155518 1641.972290,1561.749023   C1641.860474,1561.993530 1641.915161,1562.359741 1642.001953,1562.636963   C1642.098877,1562.947632 1642.317871,1563.220093 1642.765503,1564.000000   C1645.765869,1564.000000 1649.051025,1564.000000 1652.336304,1564.000000   C1730.331787,1564.000000 1808.327637,1563.877319 1886.321777,1564.196533   C1893.831543,1564.227173 1898.391113,1561.791992 1903.082520,1556.214233   C2000.903198,1439.913330 2098.913818,1323.772217 2196.888672,1207.601196   C2209.071045,1193.156372 2209.075684,1193.159058 2227.841064,1194.224731   C2228.162598,1194.242920 2228.474854,1194.423096 2229.659912,1194.815063   C2285.538330,1317.427124 2341.675537,1440.607056 2397.638428,1563.404663   C2423.254395,1565.459839 2647.311279,1564.512207 2655.278076,1562.175903   C2572.484131,1379.340332 2489.733398,1196.599976 2406.746338,1013.337830   C2561.186279,835.290222 2715.421143,657.478821 2870.722656,478.438110   C2782.888428,478.438110 2697.035645,478.438110 2610.659668,478.438110   C2608.799072,480.663879 2606.639648,483.170990 2604.561523,485.743683   C2514.517822,597.212708 2424.410645,708.630615 2334.600098,820.287048   C2328.504883,827.864929 2322.376221,830.593140 2313.214111,827.513306   C2300.220459,797.175232 2287.257080,766.908325 2273.803711,735.198914  M1024.981812,916.705017   C1025.414307,944.078308 1027.561035,971.276550 1034.076172,997.951294   C1046.991211,1050.828613 1070.516113,1098.153809 1110.196289,1136.037231   C1176.102783,1198.959473 1255.237915,1217.293823 1343.076660,1200.689819   C1410.019409,1188.035645 1465.045288,1154.077026 1508.148682,1101.220093   C1512.072144,1096.408813 1515.951294,1094.629761 1522.607788,1096.863770   C1515.908569,1128.927124 1509.213013,1160.973389 1502.464722,1193.271729   C1539.800415,1193.271729 1576.338989,1193.271729 1613.188721,1193.271729   C1684.157959,859.261536 1755.026123,525.727234 1826.021240,191.594971   C1786.616333,191.594971 1748.168213,191.594971 1709.226562,191.594971   C1679.723633,330.632446 1650.321167,469.196411 1620.942261,607.649414   C1616.823608,607.649414 1613.599243,607.649414 1610.321045,607.649414   C1601.746338,579.691284 1587.848267,555.235840 1568.113647,534.294067   C1527.572998,491.273376 1476.711792,469.097382 1418.659790,464.427307   C1339.607422,458.067841 1267.542236,479.125000 1203.165161,525.417725   C1142.935913,568.727905 1100.049316,626.096558 1070.056763,693.393250   C1038.660767,763.838623 1025.260986,838.064636 1024.981812,916.705017  M855.094055,1114.090942   C883.277161,1084.770264 903.108948,1050.718506 914.309570,1010.784180   C873.188049,1010.784180 833.011536,1010.784180 792.830200,1010.795776   C792.382080,1011.287781 791.852600,1011.727905 791.500488,1012.281128   C790.250488,1014.244568 789.077271,1016.256714 787.846191,1018.232544   C767.200684,1051.369995 738.566956,1074.935791 701.854004,1087.993408   C666.169922,1100.684937 629.116089,1104.169434 591.564636,1100.241821   C527.798340,1093.572144 481.755920,1061.320435 453.742310,1003.387390   C439.081573,973.068420 433.790497,940.794128 432.542206,907.594238   C431.970764,892.396912 432.095520,877.201355 434.505096,861.671326   C521.039001,861.671326 606.974792,861.671326 692.910583,861.671326   C778.794250,861.671326 864.677917,861.671326 950.796936,861.671326   C951.340698,859.130310 951.851074,857.570679 951.989014,855.978821   C954.575928,826.126892 957.956482,796.313171 959.455200,766.405457   C961.264465,730.302307 958.033936,694.382751 947.784119,659.598389   C921.349060,569.886597 865.900635,506.997711 775.949097,476.992889   C732.829041,462.609436 688.479370,460.888733 643.614929,465.629883   C582.650940,472.072449 527.323364,493.235168 477.787384,529.260132   C423.611450,568.659546 385.215271,620.647034 357.921631,681.285645   C327.946228,747.882324 314.733063,818.039185 313.322479,890.763855   C312.674194,924.187805 313.856171,957.474915 322.085785,989.971924   C350.112823,1100.644897 418.369873,1171.845093 530.443481,1197.952637   C594.682434,1212.916992 658.841431,1208.392578 722.053894,1190.522583   C772.234070,1176.336670 817.127075,1152.560303 855.094055,1114.090942  z" /><path fill="#FFFFFF" opacity="1.000000" stroke="none" d=" M2808.937256,1752.000000   C2816.744873,1710.455444 2825.433350,1668.898804 2834.249512,1627.369263   C2845.340088,1575.124146 2856.535156,1522.901123 2867.685791,1470.668579   C2881.607666,1405.454834 2895.606689,1340.257324 2909.431396,1275.022827   C2924.493408,1203.948120 2939.276855,1132.813965 2954.398193,1061.751831   C2969.243164,991.988647 2984.450928,922.302734 2999.330811,852.546997   C3013.588135,785.709778 3027.571289,718.814087 3041.780029,651.966431   C3055.575195,587.064758 3069.527832,522.196533 3083.367188,457.304169   C3094.783936,403.769867 3106.141846,350.223083 3117.490723,296.674347   C3117.899170,294.746796 3117.929688,292.739105 3118.235107,289.827026   C2744.101318,289.827026 2370.295410,289.827026 1995.660400,289.827026   C1998.751465,274.517242 2001.560181,260.226288 2004.528687,245.968582   C2017.782104,182.312897 2031.046997,118.659592 2044.385498,55.021698   C2047.989990,37.825001 2051.866699,20.685318 2055.809082,2.759723   C2479.770020,2.000000 2903.540283,2.000000 3328.000000,2.000000   C3328.000000,115.374191 3328.000000,228.749771 3327.310547,342.758423   C3325.671631,339.888672 3325.129883,336.210480 3323.709961,332.910034   C3308.501465,297.555481 3270.922852,279.557251 3234.449951,288.782806   C3205.008057,296.229889 3185.565430,315.440216 3178.275635,344.943146   C3170.531250,376.285339 3179.033936,403.600891 3204.048340,424.504700   C3237.697754,452.624969 3290.081299,446.228638 3315.487793,409.282257   C3320.761719,401.613312 3323.885498,392.466034 3328.000000,384.000061   C3328.000000,839.788696 3328.000000,1295.577393 3328.000000,1752.000000   C3155.291992,1752.000000 2982.583252,1752.000000 2808.937256,1752.000000  z" /><path fill="#FEFEFE" opacity="1.000000" stroke="none" d=" M1.999999,1378.937256   C3.595183,1379.421265 5.008316,1381.684570 6.825791,1382.077515   C10.014083,1382.766724 13.450149,1382.329834 16.782446,1382.329834   C499.029114,1382.332764 981.275818,1382.332642 1463.522461,1382.332642   C1467.483887,1382.332642 1471.445312,1382.332764 1476.690796,1382.332764   C1449.668213,1505.627197 1422.846558,1628.004272 1396.012451,1751.190674   C1324.624878,1752.000000 1253.249756,1752.000000 1180.995239,1751.548828   C1180.115845,1751.097656 1180.310059,1750.208984 1181.100098,1750.147705   C1202.468994,1746.948242 1219.366211,1736.881958 1233.238037,1721.805298   C1250.778687,1702.741089 1257.554077,1679.455444 1257.626465,1654.079590   C1257.795532,1594.760132 1257.690430,1535.439819 1257.646606,1476.119873   C1257.644775,1473.610962 1257.147217,1471.102417 1256.904175,1468.814697   C1234.458862,1468.814697 1212.901367,1468.814697 1190.319214,1468.814697   C1190.319214,1472.843262 1190.319214,1476.424194 1190.319214,1480.005127   C1190.319214,1538.991821 1190.319946,1597.978516 1190.317017,1656.965210   C1190.316895,1659.630859 1190.479980,1662.314819 1190.233643,1664.959229   C1189.088379,1677.255737 1178.754395,1687.227051 1166.796631,1688.353027   C1153.011475,1689.650757 1139.234985,1677.244629 1139.402466,1662.064941   C1140.075195,1601.086182 1139.687134,1540.095459 1139.663940,1479.109253   C1139.662598,1475.612549 1139.419067,1472.115723 1139.295532,1468.818115   C1116.449951,1468.818115 1094.893311,1468.818115 1072.319214,1468.818115   C1072.319214,1472.866455 1072.319214,1476.440796 1072.319214,1480.015015   C1072.319214,1539.668213 1072.154297,1599.322388 1072.493286,1658.973633   C1072.545410,1668.139771 1073.588135,1677.733398 1076.450806,1686.374756   C1088.188721,1721.807129 1112.075439,1744.006836 1149.638550,1750.746216   C1149.709839,1751.176758 1150.000000,1752.000000 1150.000000,1752.000000   C1140.621460,1752.000000 1131.243042,1752.000000 1120.557617,1751.429688   C1093.285034,1736.568604 1075.940430,1715.203979 1067.064331,1686.090332   C1036.461426,1686.090332 1006.023682,1686.090332 974.249146,1686.090332   C994.526367,1666.578613 1013.685974,1648.266602 1032.703979,1629.808472   C1052.779175,1610.324463 1063.050049,1586.975464 1062.540283,1558.516602   C1062.086548,1533.189087 1053.755859,1511.813965 1035.662842,1494.168335   C1010.920471,1470.037964 981.094177,1462.644409 948.390259,1470.992798   C914.610474,1479.615723 892.604919,1502.156372 882.704651,1535.741455   C880.321655,1543.825195 878.464539,1552.339111 880.304932,1561.159424   C902.390869,1561.159424 923.904724,1561.159424 945.333130,1561.159424   C946.276672,1557.804688 946.951721,1554.905762 947.905579,1552.101807   C951.519897,1541.477783 959.645142,1535.754761 970.161255,1534.745972   C980.059875,1533.796387 988.204163,1538.532227 993.567871,1547.177490   C1000.337769,1558.089111 998.836853,1568.722778 988.751221,1578.645630   C956.939941,1609.943237 925.355286,1641.484985 892.964722,1672.174072   C877.238953,1687.074097 875.843689,1716.044189 887.487854,1732.785645   C893.833191,1741.908569 902.978394,1746.695435 912.000000,1752.000000   C845.958191,1752.000000 779.916443,1752.000000 713.375000,1751.422119   C729.058716,1747.156982 739.997803,1737.280518 746.041382,1722.057129   C764.180481,1676.365356 782.168518,1630.613770 800.198914,1584.879028   C801.514709,1581.541626 802.697632,1578.151855 804.185791,1574.127930   C789.256531,1574.127930 775.074829,1574.127930 760.365234,1574.127930   C751.247070,1599.341431 742.099060,1624.637329 732.951111,1649.933228   C732.362183,1649.914185 731.773254,1649.895142 731.184387,1649.876099   C722.061768,1624.452759 712.939148,1599.029541 703.985046,1574.075806   C688.921936,1574.075806 675.023926,1574.075806 660.445496,1574.075806   C661.526245,1577.113281 662.332336,1579.587158 663.278320,1582.006348   C678.157288,1620.057983 693.059570,1658.100586 707.944214,1696.150146   C712.369080,1707.461426 707.780090,1715.125122 695.535461,1715.994385   C690.759888,1716.333252 685.879272,1715.192627 680.244202,1714.648315   C678.833435,1727.063965 677.416687,1739.531982 676.000000,1752.000000   C451.520996,1752.000000 227.041962,1752.000000 2.000000,1752.000000   C2.000000,1627.958740 2.000000,1503.916748 1.999999,1378.937256  M624.938049,1702.718384   C641.952148,1698.306519 653.355469,1687.433105 660.170715,1671.587769   C667.500061,1654.547363 667.807068,1636.823364 664.687866,1618.820923   C662.770752,1607.756104 658.361328,1597.764771 651.289062,1589.165771   C635.305359,1569.731689 602.987183,1562.737183 579.576111,1580.971069   C577.917786,1582.262451 576.256531,1583.550049 573.395508,1585.772339   C573.395508,1564.977051 573.395508,1545.762085 573.395508,1526.188477   C559.241394,1526.188477 545.794189,1526.188477 532.278687,1526.188477   C532.278687,1584.803833 532.278687,1642.882080 532.278687,1700.974487   C546.347961,1700.974487 559.784790,1700.974487 573.368652,1700.974487   C573.613403,1697.070068 573.814636,1693.859619 574.122375,1688.949463   C588.401733,1704.074951 605.217834,1706.366577 624.938049,1702.718384  z" /><path fill="#FFFFFF" opacity="1.000000" stroke="none" d=" M291.062683,2.000001   C289.178192,16.968634 286.590271,31.985874 283.491150,46.896866   C273.839203,93.335991 263.957214,139.727249 254.233398,186.151505   C244.576096,232.258179 235.020248,278.386108 225.386490,324.497742   C216.975464,364.756775 208.511185,405.004700 200.082718,445.260071   C190.497086,491.042175 180.928482,536.827881 171.346191,582.610657   C162.920639,622.866760 154.484863,663.120850 146.056366,703.376343   C136.470840,749.158020 126.897995,794.942383 117.301987,840.721863   C107.502739,887.471008 97.664162,934.211914 87.875893,980.963318   C78.359230,1026.417358 68.896103,1071.882690 59.388103,1117.338623   C49.608776,1164.091553 39.807659,1210.839966 30.008669,1257.588867   C21.910347,1296.223999 13.812667,1334.859497 5.636260,1373.478149   C5.412081,1374.537109 4.289497,1375.405884 2.792924,1376.181641   C2.000000,918.240906 2.000000,460.481812 2.000000,2.000000   C98.040581,2.000000 194.082977,2.000000 291.062683,2.000001  z" /><path fill="#02282D" opacity="1.000000" stroke="none" d=" M912.937317,1752.000000   C902.978394,1746.695435 893.833191,1741.908569 887.487854,1732.785645   C875.843689,1716.044189 877.238953,1687.074097 892.964722,1672.174072   C925.355286,1641.484985 956.939941,1609.943237 988.751221,1578.645630   C998.836853,1568.722778 1000.337769,1558.089111 993.567871,1547.177490   C988.204163,1538.532227 980.059875,1533.796387 970.161255,1534.745972   C959.645142,1535.754761 951.519897,1541.477783 947.905579,1552.101807   C946.951721,1554.905762 946.276672,1557.804688 945.333130,1561.159424   C923.904724,1561.159424 902.390869,1561.159424 880.304932,1561.159424   C878.464539,1552.339111 880.321655,1543.825195 882.704651,1535.741455   C892.604919,1502.156372 914.610474,1479.615723 948.390259,1470.992798   C981.094177,1462.644409 1010.920471,1470.037964 1035.662842,1494.168335   C1053.755859,1511.813965 1062.086548,1533.189087 1062.540283,1558.516602   C1063.050049,1586.975464 1052.779175,1610.324463 1032.703979,1629.808472   C1013.685974,1648.266602 994.526367,1666.578613 974.249146,1686.090332   C1006.023682,1686.090332 1036.461426,1686.090332 1067.064331,1686.090332   C1075.940430,1715.203979 1093.285034,1736.568604 1119.625488,1751.429688   C1051.291504,1752.000000 982.583069,1752.000000 912.937317,1752.000000  z" /><path fill="#03292E" opacity="1.000000" stroke="none" d=" M676.935852,1752.000000   C677.416687,1739.531982 678.833435,1727.063965 680.244202,1714.648315   C685.879272,1715.192627 690.759888,1716.333252 695.535461,1715.994385   C707.780090,1715.125122 712.369080,1707.461426 707.944214,1696.150146   C693.059570,1658.100586 678.157288,1620.057983 663.278320,1582.006348   C662.332336,1579.587158 661.526245,1577.113281 660.445496,1574.075806   C675.023926,1574.075806 688.921936,1574.075806 703.985046,1574.075806   C712.939148,1599.029541 722.061768,1624.452759 731.184387,1649.876099   C731.773254,1649.895142 732.362183,1649.914185 732.951111,1649.933228   C742.099060,1624.637329 751.247070,1599.341431 760.365234,1574.127930   C775.074829,1574.127930 789.256531,1574.127930 804.185791,1574.127930   C802.697632,1578.151855 801.514709,1581.541626 800.198914,1584.879028   C782.168518,1630.613770 764.180481,1676.365356 746.041382,1722.057129   C739.997803,1737.280518 729.058716,1747.156982 712.437622,1751.422119   C700.623901,1752.000000 689.247864,1752.000000 676.935852,1752.000000  z" /><path fill="#0D3136" opacity="1.000000" stroke="none" d=" M3328.000000,383.063232   C3323.885498,392.466034 3320.761719,401.613312 3315.487793,409.282257   C3290.081299,446.228638 3237.697754,452.624969 3204.048340,424.504700   C3179.033936,403.600891 3170.531250,376.285339 3178.275635,344.943146   C3185.565430,315.440216 3205.008057,296.229889 3234.449951,288.782806   C3270.922852,279.557251 3308.501465,297.555481 3323.709961,332.910034   C3325.129883,336.210480 3325.671631,339.888672 3327.310547,343.695740   C3328.000000,356.708801 3328.000000,369.417572 3328.000000,383.063232  M3224.084717,302.708374   C3221.200684,304.361389 3218.194580,305.834808 3215.450684,307.694733   C3181.808594,330.500000 3172.699951,382.532471 3207.937012,415.030701   C3232.279785,437.481293 3267.881836,437.971771 3294.080811,417.795502   C3318.881836,398.695770 3327.006592,362.805023 3313.384033,334.171234   C3298.790771,303.496948 3260.972656,286.408081 3224.084717,302.708374  z" /><path fill="#415E62" opacity="1.000000" stroke="none" d=" M1180.310059,1750.208984   C1180.310059,1750.208984 1180.115845,1751.097656 1180.057861,1751.548828   C1170.621460,1752.000000 1161.243042,1752.000000 1150.932251,1752.000000   C1150.000000,1752.000000 1149.709839,1751.176758 1150.592529,1750.617920   C1161.086914,1750.108887 1170.698486,1750.158936 1180.310059,1750.208984  z" /><path fill="#FEFEFE" opacity="1.000000" stroke="none" d=" M2274.048828,735.920166   C2287.257080,766.908325 2300.220459,797.175232 2313.214111,827.513306   C2322.376221,830.593140 2328.504883,827.864929 2334.600098,820.287048   C2424.410645,708.630615 2514.517822,597.212708 2604.561523,485.743683   C2606.639648,483.170990 2608.799072,480.663879 2610.659668,478.438110   C2697.035645,478.438110 2782.888428,478.438110 2870.722656,478.438110   C2715.421143,657.478821 2561.186279,835.290222 2406.746338,1013.337830   C2489.733398,1196.599976 2572.484131,1379.340332 2655.278076,1562.175903   C2647.311279,1564.512207 2423.254395,1565.459839 2397.638428,1563.404663   C2341.675537,1440.607056 2285.538330,1317.427124 2229.659912,1194.815063   C2228.474854,1194.423096 2228.162598,1194.242920 2227.841064,1194.224731   C2209.075684,1193.159058 2209.071045,1193.156372 2196.888672,1207.601196   C2098.913818,1323.772217 2000.903198,1439.913330 1903.082520,1556.214233   C1898.391113,1561.791992 1893.831543,1564.227173 1886.321777,1564.196533   C1808.327637,1563.877319 1730.331787,1564.000000 1652.336304,1564.000000   C1649.051025,1564.000000 1645.765869,1564.000000 1642.765503,1564.000000   C1642.317871,1563.220093 1642.098877,1562.947632 1642.001953,1562.636963   C1641.915161,1562.359741 1641.860474,1561.993530 1641.972290,1561.749023   C1642.243408,1561.155518 1642.547729,1560.549561 1642.964111,1560.053955   C1653.468872,1547.553467 1663.977783,1535.056152 1674.509888,1522.578613   C1824.338257,1345.075073 1974.170654,1167.574951 2123.993652,990.066895   C2124.419678,989.562073 2124.750977,988.968872 2125.070801,988.386292   C2125.225830,988.103882 2125.250732,987.750305 2125.539795,986.641846   C2051.034180,818.078674 1976.270508,648.931824 1901.044556,478.739197   C1989.242310,478.739197 2076.286133,478.739197 2164.156006,478.739197   C2200.557617,563.880615 2237.180664,649.539734 2274.048828,735.920166  z" /><path fill="#FEFEFE" opacity="1.000000" stroke="none" d=" M1024.981812,915.803589   C1025.260986,838.064636 1038.660767,763.838623 1070.056763,693.393250   C1100.049316,626.096558 1142.935913,568.727905 1203.165161,525.417725   C1267.542236,479.125000 1339.607422,458.067841 1418.659790,464.427307   C1476.711792,469.097382 1527.572998,491.273376 1568.113647,534.294067   C1587.848267,555.235840 1601.746338,579.691284 1610.321045,607.649414   C1613.599243,607.649414 1616.823608,607.649414 1620.942261,607.649414   C1650.321167,469.196411 1679.723633,330.632446 1709.226562,191.594971   C1748.168213,191.594971 1786.616333,191.594971 1826.021240,191.594971   C1755.026123,525.727234 1684.157959,859.261536 1613.188721,1193.271729   C1576.338989,1193.271729 1539.800415,1193.271729 1502.464722,1193.271729   C1509.213013,1160.973389 1515.908569,1128.927124 1522.607788,1096.863770   C1515.951294,1094.629761 1512.072144,1096.408813 1508.148682,1101.220093   C1465.045288,1154.077026 1410.019409,1188.035645 1343.076660,1200.689819   C1255.237915,1217.293823 1176.102783,1198.959473 1110.196289,1136.037231   C1070.516113,1098.153809 1046.991211,1050.828613 1034.076172,997.951294   C1027.561035,971.276550 1025.414307,944.078308 1024.981812,915.803589  M1311.479004,586.369812   C1255.905396,612.529297 1216.251831,654.812317 1188.413696,708.750977   C1159.480835,764.810913 1146.389648,824.755615 1145.328735,887.640503   C1144.790771,919.513367 1147.753052,950.772888 1158.073853,981.106995   C1186.883179,1065.781250 1259.218994,1114.372437 1354.483154,1100.626953   C1396.609009,1094.548706 1433.080078,1076.484009 1465.565796,1049.723389   C1504.717529,1017.471191 1532.265381,976.712769 1552.031006,930.367004   C1571.041504,885.791565 1580.968872,839.120667 1583.591064,790.875488   C1585.442871,756.808044 1584.227173,722.911926 1573.965210,689.983765   C1554.095581,626.226746 1512.781250,584.710022 1446.675659,570.918579   C1400.798462,561.347229 1355.911743,566.700806 1311.479004,586.369812  z" /><path fill="#FDFEFE" opacity="1.000000" stroke="none" d=" M854.613892,1114.612183   C817.127075,1152.560303 772.234070,1176.336670 722.053894,1190.522583   C658.841431,1208.392578 594.682434,1212.916992 530.443481,1197.952637   C418.369873,1171.845093 350.112823,1100.644897 322.085785,989.971924   C313.856171,957.474915 312.674194,924.187805 313.322479,890.763855   C314.733063,818.039185 327.946228,747.882324 357.921631,681.285645   C385.215271,620.647034 423.611450,568.659546 477.787384,529.260132   C527.323364,493.235168 582.650940,472.072449 643.614929,465.629883   C688.479370,460.888733 732.829041,462.609436 775.949097,476.992889   C865.900635,506.997711 921.349060,569.886597 947.784119,659.598389   C958.033936,694.382751 961.264465,730.302307 959.455200,766.405457   C957.956482,796.313171 954.575928,826.126892 951.989014,855.978821   C951.851074,857.570679 951.340698,859.130310 950.796936,861.671326   C864.677917,861.671326 778.794250,861.671326 692.910583,861.671326   C606.974792,861.671326 521.039001,861.671326 434.505096,861.671326   C432.095520,877.201355 431.970764,892.396912 432.542206,907.594238   C433.790497,940.794128 439.081573,973.068420 453.742310,1003.387390   C481.755920,1061.320435 527.798340,1093.572144 591.564636,1100.241821   C629.116089,1104.169434 666.169922,1100.684937 701.854004,1087.993408   C738.566956,1074.935791 767.200684,1051.369995 787.846191,1018.232544   C789.077271,1016.256714 790.250488,1014.244568 791.500488,1012.281128   C791.852600,1011.727905 792.382080,1011.287781 792.832642,1010.789978   C833.011536,1010.784180 873.188049,1010.784180 914.309570,1010.784180   C903.108948,1050.718506 883.277161,1084.770264 854.613892,1114.612183  M611.762817,574.527283   C570.155273,588.541382 536.279480,613.519226 508.831238,647.464050   C484.882568,677.080994 468.185944,710.624207 456.032196,746.546082   C453.704407,753.426086 451.730377,760.425903 449.384064,768.049805   C579.494812,768.049805 708.638123,768.049805 837.990051,768.049805   C838.445007,764.941833 839.015991,762.346375 839.179199,759.725525   C840.868469,732.600159 839.238708,705.710938 831.552185,679.546387   C815.334106,624.341064 780.726685,586.424988 724.666443,570.797668   C687.541870,560.448853 650.126038,562.848877 611.762817,574.527283  z" /><path fill="#04292E" opacity="1.000000" stroke="none" d=" M1181.100098,1750.147705   C1170.698486,1750.158936 1161.086914,1750.108887 1150.521240,1750.187256   C1112.075439,1744.006836 1088.188721,1721.807129 1076.450806,1686.374756   C1073.588135,1677.733398 1072.545410,1668.139771 1072.493286,1658.973633   C1072.154297,1599.322388 1072.319214,1539.668213 1072.319214,1480.015015   C1072.319214,1476.440796 1072.319214,1472.866455 1072.319214,1468.818115   C1094.893311,1468.818115 1116.449951,1468.818115 1139.295532,1468.818115   C1139.419067,1472.115723 1139.662598,1475.612549 1139.663940,1479.109253   C1139.687134,1540.095459 1140.075195,1601.086182 1139.402466,1662.064941   C1139.234985,1677.244629 1153.011475,1689.650757 1166.796631,1688.353027   C1178.754395,1687.227051 1189.088379,1677.255737 1190.233643,1664.959229   C1190.479980,1662.314819 1190.316895,1659.630859 1190.317017,1656.965210   C1190.319946,1597.978516 1190.319214,1538.991821 1190.319214,1480.005127   C1190.319214,1476.424194 1190.319214,1472.843262 1190.319214,1468.814697   C1212.901367,1468.814697 1234.458862,1468.814697 1256.904175,1468.814697   C1257.147217,1471.102417 1257.644775,1473.610962 1257.646606,1476.119873   C1257.690430,1535.439819 1257.795532,1594.760132 1257.626465,1654.079590   C1257.554077,1679.455444 1250.778687,1702.741089 1233.238037,1721.805298   C1219.366211,1736.881958 1202.468994,1746.948242 1181.100098,1750.147705  z" /><path fill="#03292E" opacity="1.000000" stroke="none" d=" M624.165649,1703.084229   C605.217834,1706.366577 588.401733,1704.074951 574.122375,1688.949463   C573.814636,1693.859619 573.613403,1697.070068 573.368652,1700.974487   C559.784790,1700.974487 546.347961,1700.974487 532.278687,1700.974487   C532.278687,1642.882080 532.278687,1584.803833 532.278687,1526.188477   C545.794189,1526.188477 559.241394,1526.188477 573.395508,1526.188477   C573.395508,1545.762085 573.395508,1564.977051 573.395508,1585.772339   C576.256531,1583.550049 577.917786,1582.262451 579.576111,1580.971069   C602.987183,1562.737183 635.305359,1569.731689 651.289062,1589.165771   C658.361328,1597.764771 662.770752,1607.756104 664.687866,1618.820923   C667.807068,1636.823364 667.500061,1654.547363 660.170715,1671.587769   C653.355469,1687.433105 641.952148,1698.306519 624.165649,1703.084229  M624.332336,1638.799072   C624.187012,1636.485107 624.234619,1634.139771 623.866394,1631.861938   C620.234253,1609.395508 596.880249,1600.104736 578.380371,1613.585083   C575.106628,1615.970581 573.499878,1618.539429 573.600891,1622.638794   C573.813354,1631.265381 573.651184,1639.900879 573.667419,1648.532715   C573.685730,1658.271484 576.326904,1662.154907 585.261658,1665.660645   C597.684265,1670.534912 610.779236,1667.571899 618.072937,1656.974609   C621.302307,1652.282471 622.295166,1646.051147 624.332336,1638.799072  z" /><path fill="#FAFAFB" opacity="1.000000" stroke="none" d=" M3224.780762,302.385406   C3260.972656,286.408081 3298.790771,303.496948 3313.384033,334.171234   C3327.006592,362.805023 3318.881836,398.695770 3294.080811,417.795502   C3267.881836,437.971771 3232.279785,437.481293 3207.937012,415.030701   C3172.699951,382.532471 3181.808594,330.500000 3215.450684,307.694733   C3218.194580,305.834808 3221.200684,304.361389 3224.780762,302.385406  M3238.345215,387.218872   C3238.345215,383.634491 3238.345215,380.050110 3238.345215,376.086517   C3244.177734,376.086517 3249.041992,376.086517 3254.060791,376.086517   C3260.309326,384.932098 3266.420410,393.582733 3272.100342,401.623169   C3278.714355,401.623169 3284.468018,401.623169 3291.399414,401.623169   C3284.410889,391.428497 3278.145020,382.288513 3271.740967,372.946533   C3274.847900,370.943420 3277.486572,369.520813 3279.803955,367.691284   C3285.002930,363.587311 3287.969482,358.299744 3288.373779,351.493408   C3289.359375,334.903870 3279.876221,324.159912 3263.141113,323.714233   C3251.825928,323.412933 3240.496582,323.607086 3229.174072,323.694580   C3227.004150,323.711334 3224.838379,324.263519 3222.918945,324.533752   C3222.918945,350.758636 3222.918945,376.253906 3222.918945,401.680542   C3228.327148,401.680542 3233.125977,401.680542 3238.345215,401.680542   C3238.345215,397.059723 3238.345215,393.095825 3238.345215,387.218872  z" /><path fill="#01272C" opacity="1.000000" stroke="none" d=" M1312.189453,586.107849   C1355.911743,566.700806 1400.798462,561.347229 1446.675659,570.918579   C1512.781250,584.710022 1554.095581,626.226746 1573.965210,689.983765   C1584.227173,722.911926 1585.442871,756.808044 1583.591064,790.875488   C1580.968872,839.120667 1571.041504,885.791565 1552.031006,930.367004   C1532.265381,976.712769 1504.717529,1017.471191 1465.565796,1049.723389   C1433.080078,1076.484009 1396.609009,1094.548706 1354.483154,1100.626953   C1259.218994,1114.372437 1186.883179,1065.781250 1158.073853,981.106995   C1147.753052,950.772888 1144.790771,919.513367 1145.328735,887.640503   C1146.389648,824.755615 1159.480835,764.810913 1188.413696,708.750977   C1216.251831,654.812317 1255.905396,612.529297 1312.189453,586.107849  z" /><path fill="#01272C" opacity="1.000000" stroke="none" d=" M612.531494,574.305908   C650.126038,562.848877 687.541870,560.448853 724.666443,570.797668   C780.726685,586.424988 815.334106,624.341064 831.552185,679.546387   C839.238708,705.710938 840.868469,732.600159 839.179199,759.725525   C839.015991,762.346375 838.445007,764.941833 837.990051,768.049805   C708.638123,768.049805 579.494812,768.049805 449.384064,768.049805   C451.730377,760.425903 453.704407,753.426086 456.032196,746.546082   C468.185944,710.624207 484.882568,677.080994 508.831238,647.464050   C536.279480,613.519226 570.155273,588.541382 612.531494,574.305908  z" /><path fill="#FBFCFC" opacity="1.000000" stroke="none" d=" M624.317810,1639.658813   C622.295166,1646.051147 621.302307,1652.282471 618.072937,1656.974609   C610.779236,1667.571899 597.684265,1670.534912 585.261658,1665.660645   C576.326904,1662.154907 573.685730,1658.271484 573.667419,1648.532715   C573.651184,1639.900879 573.813354,1631.265381 573.600891,1622.638794   C573.499878,1618.539429 575.106628,1615.970581 578.380371,1613.585083   C596.880249,1600.104736 620.234253,1609.395508 623.866394,1631.861938   C624.234619,1634.139771 624.187012,1636.485107 624.317810,1639.658813  z" /><path fill="#082D31" opacity="1.000000" stroke="none" d=" M3238.345215,388.175415   C3238.345215,393.095825 3238.345215,397.059723 3238.345215,401.680542   C3233.125977,401.680542 3228.327148,401.680542 3222.918945,401.680542   C3222.918945,376.253906 3222.918945,350.758636 3222.918945,324.533752   C3224.838379,324.263519 3227.004150,323.711334 3229.174072,323.694580   C3240.496582,323.607086 3251.825928,323.412933 3263.141113,323.714233   C3279.876221,324.159912 3289.359375,334.903870 3288.373779,351.493408   C3287.969482,358.299744 3285.002930,363.587311 3279.803955,367.691284   C3277.486572,369.520813 3274.847900,370.943420 3271.740967,372.946533   C3278.145020,382.288513 3284.410889,391.428497 3291.399414,401.623169   C3284.468018,401.623169 3278.714355,401.623169 3272.100342,401.623169   C3266.420410,393.582733 3260.309326,384.932098 3254.060791,376.086517   C3249.041992,376.086517 3244.177734,376.086517 3238.345215,376.086517   C3238.345215,380.050110 3238.345215,383.634491 3238.345215,388.175415  M3272.177246,350.646240   C3272.225586,344.185211 3269.347168,339.290985 3262.948242,338.313080   C3254.917236,337.085785 3246.684082,336.761871 3238.902588,338.598602   C3238.902588,346.506042 3238.902588,353.679688 3238.902588,361.296112   C3241.721680,361.444366 3243.981445,361.639862 3246.243164,361.665741   C3250.563965,361.715210 3254.915283,361.982605 3259.200439,361.584991   C3265.161133,361.031952 3270.079834,358.622833 3272.177246,350.646240  z" /><path fill="#F4F5F6" opacity="1.000000" stroke="none" d=" M3272.015137,351.425598   C3270.079834,358.622833 3265.161133,361.031952 3259.200439,361.584991   C3254.915283,361.982605 3250.563965,361.715210 3246.243164,361.665741   C3243.981445,361.639862 3241.721680,361.444366 3238.902588,361.296112   C3238.902588,353.679688 3238.902588,346.506042 3238.902588,338.598602   C3246.684082,336.761871 3254.917236,337.085785 3262.948242,338.313080   C3269.347168,339.290985 3272.225586,344.185211 3272.015137,351.425598  z" /></svg>