<svg version="1.1" id="Layer_1" xmlns="http://www.w3.org/2000/svg" xmlns:xlink="http://www.w3.org/1999/xlink" x="0px" y="0px" width="133" viewBox="0 0 1400 513" enable-background="new 0 0 1400 513" xml:space="preserve" height="49"><path fill="#FEFEFE" opacity="1.000000" stroke="none" d=" M887.000000,514.000000   C875.979126,514.000000 864.958191,514.000000 853.422363,513.657593   C852.857239,513.090454 852.807068,512.865601 852.825989,512.252014   C856.950317,487.477020 861.005432,463.090851 865.115234,438.376160   C857.903442,438.376160 851.181335,438.376160 844.423401,438.376160   C842.697571,448.300781 840.948547,457.928314 839.361938,467.582550   C836.885742,482.649506 834.519531,497.734558 832.063721,513.107544   C832.013733,513.602051 832.006897,513.801025 832.000000,514.000000   C822.979126,514.000000 813.958191,514.000000 804.396667,513.612915   C803.784119,512.973389 803.712219,512.720947 803.747559,512.140808   C814.581177,487.396729 825.307617,462.980408 836.180847,438.230103   C828.692932,438.230103 822.053772,438.230103 815.256042,438.230103   C808.718689,454.543182 802.211609,470.780823 795.704529,487.018463   C795.422607,486.946167 795.140747,486.873871 794.858826,486.801544   C793.555420,470.751282 792.252014,454.701050 790.902039,438.077362   C785.585632,438.077362 780.425537,438.458527 775.352173,437.959229   C771.137085,437.544403 769.559143,439.439240 768.192993,442.922638   C763.032837,456.080017 757.653870,469.151764 752.317566,482.239563   C751.833984,483.425690 751.069275,484.497223 750.435181,485.622009   C750.078857,485.496307 749.722534,485.370605 749.366272,485.244904   C748.285889,469.602936 747.205566,453.960938 746.128479,438.365631   C738.807800,438.365631 732.215637,438.365631 725.257446,438.365631   C726.046204,446.752472 726.740906,454.830872 727.577698,462.894501   C729.345764,479.933746 731.188110,496.965302 733.000000,514.000000   C489.116272,514.000000 245.232529,514.000000 1.000000,514.000000   C1.000000,451.979553 1.000000,389.958435 1.359953,327.637634   C3.698945,338.538025 6.775848,349.308624 12.485619,359.315063   C27.915043,386.355316 66.108810,397.605621 93.590065,382.848511   C98.597137,380.159790 103.239662,376.792206 108.669609,373.344940   C108.438919,378.302124 108.500748,382.634827 107.988983,386.898682   C106.511452,399.209015 100.524200,408.947235 88.984718,413.648407   C72.886459,420.206909 56.255486,420.195068 40.752502,411.944305   C33.919746,408.307861 28.476208,402.061127 22.002886,396.666962   C17.480993,402.740326 12.590910,409.308197 6.915501,416.930878   C14.670704,422.632141 21.500143,428.900848 29.400000,433.204803   C46.702545,442.631561 65.563324,442.244354 84.465897,439.623413   C96.987411,437.887207 108.224228,433.194092 117.337776,424.203888   C129.628113,412.079834 133.909378,396.819519 133.937073,380.096985   C134.011566,335.114594 133.964813,290.131989 133.955292,245.149475   C133.955017,243.866287 133.831619,242.583145 133.758865,241.168549   C125.203667,241.168549 116.973587,241.168549 108.031860,241.168549   C108.031860,245.215561 108.031860,248.995087 108.031860,253.334442   C72.757675,223.158310 20.307974,237.895554 6.426007,281.117554   C4.424366,287.349731 2.799323,293.702850 0.999998,300.000000   C1.000000,200.374741 1.000000,100.749481 1.000000,1.000000   C252.020874,1.000000 503.041779,1.000000 754.289551,1.263631   C692.364868,23.016443 630.213440,44.505627 567.013245,66.357391   C570.669800,67.724533 573.128052,68.720787 575.636353,69.569130   C594.386597,75.910889 613.168945,82.158607 631.899292,88.558426   C672.338562,102.375725 712.744019,116.291908 753.205017,130.045044   C755.055054,130.673904 757.496887,130.647018 759.352905,130.014786   C809.889709,112.800194 860.386658,95.468628 910.884033,78.138458   C911.813293,77.819557 912.666931,77.280479 914.142090,76.556343   C863.037537,59.075142 812.720581,41.863377 762.403687,24.651611   C762.429810,24.170298 762.455933,23.688982 762.482056,23.207666   C765.621155,22.805458 769.128601,21.285522 771.840515,22.179350   C792.048035,28.839525 812.099243,35.973999 832.196838,42.967388   C861.416077,53.134830 890.629456,63.318916 919.863586,73.443268   C921.060242,73.857689 922.584351,74.166351 923.714966,73.793594   C930.441589,71.575882 937.097290,69.142914 944.558228,66.506058   C942.376038,65.637505 941.024597,65.037109 939.632202,64.554909   C921.087952,58.132938 902.534668,51.737129 883.990234,45.315773   C851.772278,34.159748 819.543152,23.035383 787.352905,11.799807   C777.511108,8.364641 767.781189,4.608922 758.000000,1.000000   C972.228821,1.000000 1186.457642,1.000000 1401.000000,1.000000   C1401.000000,85.353966 1401.000000,169.708328 1400.630371,254.570923   C1399.643555,253.715118 1399.093750,252.315796 1398.398926,250.992630   C1393.380005,241.437714 1382.341553,236.138901 1372.450684,238.504013   C1361.266724,241.178360 1353.921265,250.068649 1353.604614,261.313965   C1353.297119,272.234436 1360.380249,281.722626 1371.037842,284.666565   C1381.554810,287.571716 1392.410278,283.026764 1397.955566,273.388947   C1398.984497,271.600769 1399.985962,269.796753 1401.000000,268.000000   C1401.000000,349.902954 1401.000000,431.805908 1401.000000,514.000000   C1359.979492,514.000000 1318.958374,514.000000 1277.474609,513.664734   C1276.898193,512.108826 1277.102417,510.743469 1276.622681,509.689362   C1270.215698,495.612305 1263.830933,481.522308 1257.149414,467.575043   C1255.528931,464.192291 1255.930664,461.921600 1258.201416,459.087769   C1266.731445,448.442657 1275.043945,437.622711 1283.390137,426.831299   C1286.754150,422.481781 1289.994629,418.036621 1293.690308,413.102356   C1286.190063,413.102356 1279.690674,412.861298 1273.227661,413.240967   C1271.135986,413.363861 1268.493164,414.597382 1267.205444,416.205902   C1259.127319,426.295410 1251.360840,436.634399 1243.158203,447.324890   C1242.219116,445.382477 1241.457886,443.955078 1240.824219,442.473053   C1237.096680,433.755371 1233.482788,424.987305 1229.602905,416.338226   C1228.998291,414.990326 1227.265991,413.301758 1225.988159,413.243805   C1219.214233,412.936340 1212.418823,413.099304 1205.502808,413.099304   C1205.596436,413.922821 1205.533936,414.452209 1205.721802,414.868744   C1212.148438,429.118530 1218.414429,443.445862 1225.160767,457.543213   C1227.121338,461.640228 1226.649170,464.259888 1223.862305,467.693878   C1211.811401,482.543182 1200.069092,497.643066 1188.140381,512.985596   C1188.043945,513.546326 1188.021973,513.773193 1188.000000,514.000000   C1184.638672,514.000000 1181.277466,514.000000 1177.505859,513.631836   C1177.755249,511.433899 1178.710693,509.653961 1179.029541,507.766541   C1182.379639,487.927429 1185.630615,468.071533 1188.903931,448.219452   C1190.811646,436.648499 1192.710083,425.076019 1194.648926,413.283905   C1187.505005,413.283905 1180.903198,413.283905 1173.997314,413.283905   C1171.906372,425.464111 1169.838379,437.511017 1167.585815,450.632721   C1164.297363,443.286926 1159.999634,438.290009 1152.459473,437.354309   C1145.480469,436.488190 1138.773071,437.535370 1132.710449,441.102478   C1118.706665,449.341980 1113.093994,462.717804 1111.010620,477.967072   C1108.444336,496.749817 1112.857544,505.349030 1129.000000,514.000000   C1110.312378,514.000000 1091.624878,514.000000 1072.674438,513.678955   C1085.113892,510.646515 1094.889038,504.287476 1100.369507,491.454742   C1094.291504,491.033478 1089.010620,490.540375 1083.720215,490.395874   C1082.495850,490.362488 1080.843872,491.204773 1080.062378,492.182556   C1075.759155,497.566803 1069.995850,499.085876 1063.555664,498.596924   C1053.624390,497.842957 1049.074951,490.539490 1052.503784,480.735748   C1065.542725,480.735748 1078.682617,480.735718 1091.822510,480.735748   C1103.703491,480.735748 1103.703491,480.735779 1104.338745,468.598511   C1105.066406,454.696075 1099.480713,443.872589 1088.979492,439.758789   C1078.401245,435.614960 1067.603149,435.897308 1057.389648,440.665649   C1040.244141,448.670349 1032.846924,463.378876 1031.316162,481.459351   C1030.132935,495.436096 1035.606201,508.680756 1051.959961,513.131409   C1052.356079,513.239197 1052.655518,513.702515 1053.000000,514.000000   C1031.312500,514.000000 1009.624878,514.000000 987.374756,513.604248   C986.727234,512.950989 986.642395,512.693420 986.625977,512.050537   C989.328308,495.571594 992.090454,479.497498 994.531982,463.374847   C995.491272,457.040405 995.213745,450.668365 991.110352,445.201843   C984.839966,436.848633 976.078918,436.252258 966.790344,437.693665   C958.552063,438.972046 952.881226,444.119263 947.769287,450.477264   C949.827332,438.226501 951.885315,425.975739 953.999939,413.388184   C946.955688,413.388184 940.412048,413.388184 933.682861,413.388184   C931.209290,427.726349 928.779724,441.809540 926.110168,455.967926   C925.896912,456.692200 925.923584,457.341278 925.971802,458.408936   C925.449768,462.183044 924.906189,465.538605 924.118774,468.964966   C923.904419,469.688141 923.934021,470.340546 923.986816,471.398865   C923.518127,474.506714 923.026184,477.208679 922.272461,479.962158   C922.025513,480.679535 922.040283,481.345337 922.072144,482.407166   C921.895386,483.838043 921.701599,484.872864 921.248291,485.959900   C921.002014,486.676697 921.015320,487.341309 921.046875,488.402710   C920.861145,489.833466 920.657288,490.867432 920.198669,491.956024   C919.960327,492.673309 919.976624,493.335968 920.011719,494.416931   C919.510010,498.191284 918.989502,501.547302 918.213989,504.955872   C917.972778,505.672302 917.986572,506.336182 918.015991,507.402527   C917.846252,508.860107 917.660828,509.915253 917.205688,511.010590   C916.957336,512.033875 916.978699,513.016907 917.000000,514.000000   C912.310730,514.000000 907.621521,514.000000 902.619934,513.655273   C904.011047,512.745789 905.714478,512.181030 907.627319,511.546906   C907.397339,506.605011 907.169495,501.707458 906.945984,496.904633   C904.460693,496.904633 902.473938,496.928833 900.487915,496.899200   C897.134827,496.849182 895.339294,494.869354 895.799683,491.787781   C897.682434,479.185760 899.842346,466.625214 901.941284,453.798218   C906.865845,453.798218 911.311646,453.798218 916.041199,453.798218   C916.960693,448.532745 917.829834,443.555237 918.809692,437.943909   C913.758789,437.943909 909.374573,437.943909 904.714722,437.943909   C905.653503,431.844421 906.504883,426.312958 907.399231,420.502197   C900.242310,420.502197 893.677246,420.502197 886.794861,420.502197   C885.730774,426.365967 884.701355,432.038483 883.604614,438.081940   C880.913574,438.081940 878.413330,437.832977 876.004883,438.194916   C874.924011,438.357361 873.371277,439.603180 873.160339,440.596802   C872.270264,444.788300 871.805054,449.070068 871.112549,453.810303   C874.514343,453.810303 877.610291,453.810303 881.122131,453.810303   C879.236328,465.436462 877.572937,476.575928 875.597229,487.659729   C872.762512,503.563141 873.509644,505.493408 886.825989,513.540527   C886.936279,513.607178 886.944275,513.843140 887.000000,514.000000  M929.540100,166.138794   C930.049744,165.438782 930.559387,164.738770 931.683411,163.462921   C931.788147,146.890945 931.910767,130.319031 931.968994,113.746902   C931.974670,112.133514 931.582031,110.518730 931.064819,108.225594   C930.792725,107.813766 930.421021,107.436729 930.263123,106.984993   C927.250977,98.365166 926.506592,99.871452 917.780518,100.379730   C913.117981,100.651299 912.112793,105.726067 912.057495,109.578842   C911.806580,127.061150 911.902283,144.549347 912.019775,162.034439   C912.030090,163.572067 913.101562,165.102570 913.680176,166.636398   C914.264099,166.483475 914.848083,166.330566 915.432007,166.177643   C915.432007,147.788193 915.432007,129.398743 915.432007,111.009300   C915.931213,110.978157 916.430359,110.947006 916.929565,110.915855   C917.110413,112.734337 917.443665,114.552437 917.448120,116.371353   C917.489136,133.024475 917.425354,149.678085 917.540649,166.330521   C917.553467,168.190964 918.489258,170.045013 918.997070,171.902039   C919.681213,171.798279 920.365417,171.694504 921.049561,171.590744   C921.049561,151.434998 921.049561,131.279236 921.049561,111.123482   C921.673523,111.125023 922.297546,111.126564 922.921509,111.128105   C922.921509,121.139626 922.921570,131.151154 922.921570,141.162674   C922.921570,151.329376 922.921509,161.496078 922.921509,171.662781   C923.547791,171.726181 924.174072,171.789581 924.800354,171.852966   C925.157043,169.953354 925.814331,168.055145 925.823303,166.153870   C925.903687,149.167953 925.815552,132.181015 925.967957,115.196083   C925.980774,113.771210 927.384277,112.358818 928.077820,111.884880   C928.067444,128.570465 928.037598,145.256088 928.082092,161.941544   C928.085815,163.339432 928.589600,164.735977 929.540100,166.138794  M754.544800,138.091644   C717.821533,125.398148 681.098328,112.704643 643.955200,99.865997   C643.863220,101.763748 643.732910,103.213341 643.731812,104.663040   C643.718079,122.642067 643.842834,140.622559 643.625244,158.598953   C643.580139,162.322449 644.913879,163.804184 648.256165,164.914566   C667.647217,171.356628 686.944580,178.080093 706.322876,184.561050   C722.861816,190.092392 739.467163,195.425385 756.786194,200.954788   C792.548462,188.923691 828.297424,176.852814 864.093750,164.923889   C867.618347,163.749313 869.083862,162.124420 868.921082,158.226990   C868.588074,150.249084 868.821167,142.247559 868.821167,134.255753   C868.821167,122.979561 868.821167,111.703369 868.821167,100.355881   C867.915161,100.355881 867.395325,100.228043 866.969543,100.374161   C843.380798,108.468178 819.807434,116.606949 796.215454,124.691406   C782.549744,129.374329 768.855225,133.973511 754.544800,138.091644  M646.365356,247.113495   C632.044617,235.817932 616.321228,234.426758 599.834778,241.178604   C593.030334,243.965302 586.703796,247.918884 579.592468,251.638519   C579.592468,247.946686 579.592468,244.548981 579.592468,241.215454   C570.929932,241.215454 562.838562,241.215454 554.661987,241.215454   C554.661987,289.766968 554.661987,337.995911 554.661987,386.426758   C563.096802,386.426758 571.169922,386.426758 579.846436,386.426758   C579.846436,384.210907 579.846497,382.261902 579.846436,380.312927   C579.846375,348.646790 579.814026,316.980560 579.916077,285.314728   C579.923096,283.128540 580.340393,280.511108 581.572998,278.833313   C588.364014,269.589111 597.663269,263.879669 608.823914,261.642792   C623.454468,258.710388 632.922119,266.019257 634.280029,280.848450   C634.598389,284.325989 634.770813,287.829437 634.775269,291.321259   C634.813232,321.154022 634.796936,350.986877 634.796875,380.819702   C634.796875,382.605743 634.796875,384.391785 634.796875,386.436951   C643.431641,386.436951 651.509338,386.436951 660.163025,386.436951   C660.163025,384.241852 660.163086,382.292297 660.163086,380.342743   C660.162598,348.509949 660.149841,316.677094 660.194641,284.844391   C660.197144,283.071045 660.107483,280.902222 661.023254,279.588470   C667.945068,269.659637 683.187988,259.437073 697.856323,261.372284   C705.754272,262.414276 711.278992,266.531647 713.368347,274.229462   C714.572876,278.667114 715.167542,283.402008 715.190552,288.007324   C715.344666,318.839386 715.266541,349.672546 715.282898,380.505371   C715.283936,382.440796 715.446533,384.376190 715.541504,386.478271   C724.004822,386.478271 731.930237,386.478271 740.520203,386.478271   C740.520203,384.311493 740.520203,382.360840 740.520203,380.410217   C740.520203,349.244080 740.542480,318.077911 740.493530,286.911835   C740.487000,282.752625 740.292725,278.577148 739.889648,274.437988   C738.113953,256.201721 728.930603,243.952393 713.402588,239.346313   C702.543640,236.125244 691.467590,235.866165 681.123596,240.634125   C671.904419,244.883606 663.289856,250.444931 654.219727,255.533234   C652.261047,253.413330 649.573975,250.505035 646.365356,247.113495  M163.953873,282.408295   C158.425400,296.884247 156.570053,311.807495 159.145126,327.102539   C163.421692,352.503693 175.920258,372.271942 199.906067,383.205505   C219.974228,392.353241 240.688507,392.084564 261.178314,384.572479   C273.033691,380.226013 282.791687,372.578369 290.997772,362.814178   C286.109589,356.755981 281.475098,351.012238 276.734406,345.136841   C258.666473,365.343079 237.222153,371.898651 212.328400,362.281860   C196.998398,356.359650 185.538788,338.157440 186.268234,323.523682   C223.271072,323.523682 260.307190,323.523682 297.157837,323.523682   C297.157837,316.295715 297.436951,309.640076 297.057953,303.022125   C296.812500,298.735718 295.878601,294.432831 294.785736,290.259735   C286.036926,256.851593 259.758423,235.854843 227.010056,237.368912   C197.029846,238.754974 176.401642,254.522629 163.953873,282.408295  M1156.500000,323.721863   C1183.108276,323.721863 1209.716553,323.721863 1237.636963,323.721863   C1236.649048,313.500275 1236.407959,303.848297 1234.663330,294.476196   C1231.257202,276.178772 1222.743286,260.407318 1207.262329,249.570068   C1179.994751,230.481766 1143.981812,233.425385 1120.126343,256.731140   C1100.197998,276.200348 1094.677490,300.582764 1098.380737,327.454163   C1101.088989,347.105957 1109.909668,363.561981 1125.961914,375.529785   C1147.116577,391.301605 1170.766113,393.130737 1195.354980,386.178925   C1209.233276,382.255188 1220.538330,373.902161 1229.908813,362.756836   C1225.082397,356.741486 1220.515991,351.050049 1215.752075,345.112549   C1197.501587,365.178467 1175.803955,372.199463 1150.685669,361.858093   C1134.593628,355.232880 1127.375244,341.072052 1124.495239,323.721680   C1135.244141,323.721680 1145.372070,323.721680 1156.500000,323.721863  M860.360657,294.309875   C860.360657,296.385864 860.360657,298.461853 860.360657,301.272736   C858.696350,300.401855 857.815918,300.019409 857.015747,299.510773   C842.413879,290.229584 826.442200,287.497070 809.576172,290.182434   C787.980103,293.620911 770.752808,310.326904 767.970886,329.978302   C764.527893,354.299622 774.098877,374.006195 795.420471,384.102875   C815.961731,393.830048 836.191772,391.040466 855.678772,380.296082   C857.039490,379.545837 858.327637,378.663971 860.102661,377.561981   C860.330566,381.001770 860.501770,383.585419 860.674194,386.187042   C869.258301,386.187042 877.321472,386.187042 885.240112,386.187042   C885.491089,385.495789 885.700928,385.187622 885.700928,384.879486   C885.705933,350.725677 886.148865,316.563324 885.506531,282.421417   C885.150208,263.482361 875.724182,249.528793 857.776917,242.215317   C842.767700,236.099060 827.275146,235.692108 811.687683,239.533340   C795.624146,243.491913 782.848328,252.582458 772.211304,265.492340   C777.269104,271.809296 782.098816,277.841370 787.195618,284.207092   C788.770752,282.319122 789.942078,280.936218 791.090881,279.534821   C801.631165,266.676697 815.191101,260.516724 831.818726,261.223236   C850.910461,262.034424 860.360840,271.866913 860.360779,290.860657   C860.360779,291.693695 860.360901,292.526764 860.360657,294.309875  M496.391083,241.031128   C483.956024,236.915543 471.212952,235.979767 458.412811,238.396606   C443.897614,241.137268 431.279785,247.171844 423.265106,260.574127   C415.992218,272.735901 414.727966,295.783661 431.217651,307.949768   C441.001038,315.167969 452.147400,318.642578 463.554443,321.821777   C472.682373,324.365814 481.905273,326.685760 490.817291,329.859741   C503.084045,334.228485 507.141602,345.058105 500.119049,355.135681   C497.520111,358.865204 493.220947,362.357941 488.964203,363.810211   C475.000854,368.573975 460.844666,368.009827 447.970093,360.408081   C440.959625,356.268768 434.997406,350.354126 428.160553,344.920868   C423.715332,350.422333 418.534912,356.833649 413.363007,363.234467   C431.453247,385.607117 455.349304,391.867584 482.384857,389.328461   C497.487030,387.910065 510.845886,382.519653 520.408630,370.001434   C531.800842,355.088440 533.680115,328.888123 514.190735,314.073914   C504.850372,306.974182 494.056946,303.365234 482.934692,300.204193   C471.776062,297.032776 460.659973,293.557495 449.848450,289.379028   C443.737579,287.017365 441.746002,281.903900 444.117859,275.776459   C445.587372,271.980194 448.299408,267.973511 451.586243,265.694916   C464.038849,257.062073 488.198669,258.925812 500.549896,269.217407   C504.681396,272.659943 508.049896,277.018158 512.110657,281.321808   C517.096313,274.988190 522.076904,268.661041 527.040283,262.355774   C518.633850,252.420425 508.771606,245.582672 496.391083,241.031128  M308.976074,245.620300   C308.976074,251.863876 308.976074,258.107452 308.976074,264.780396   C316.835449,264.780396 323.927368,264.780396 331.583679,264.780396   C331.583679,267.011505 331.583710,268.793854 331.583710,270.576233   C331.583710,290.401428 331.549713,310.226685 331.597504,330.051758   C331.622772,340.543884 331.363678,351.061584 331.999420,361.521179   C332.829071,375.171448 340.219940,384.610443 351.754333,388.121552   C366.028595,392.466705 383.267487,388.414001 390.921753,378.798767   C391.596924,377.950653 392.194153,376.280365 391.812286,375.470947   C388.712799,368.901794 385.370819,362.447021 381.929688,355.613800   C379.710114,357.967041 378.047272,360.059113 376.057129,361.770538   C372.067688,365.201233 367.346863,367.225708 362.235657,365.176422   C357.499268,363.277435 357.449310,358.421814 357.006805,354.106506   C356.905304,353.116486 356.966766,352.108917 356.966705,351.109436   C356.964905,323.953918 356.964874,296.798431 356.964569,269.642914   C356.964539,268.052185 356.964569,266.461456 356.964569,264.446655   C366.460052,264.446655 375.219086,264.446655 384.056152,264.446655   C384.056152,256.433075 384.056152,248.850922 384.056152,240.731369   C374.922089,240.731369 366.029083,240.731369 356.845581,240.731369   C356.845581,228.248672 356.845581,216.303589 356.845581,204.178345   C348.322479,204.178345 340.119507,204.178345 331.352295,204.178345   C331.352295,216.530914 331.352295,228.581161 331.352295,240.891586   C324.644775,240.891586 318.494293,241.055664 312.358887,240.822876   C309.256470,240.705185 308.631744,242.073975 308.976074,245.620300  M1055.397461,355.739502   C1055.356689,325.926636 1055.313354,296.113739 1055.302002,266.300873   C1055.301758,265.872498 1055.701660,265.444000 1056.182007,264.478882   C1064.716675,264.478882 1073.445435,264.478882 1082.226807,264.478882   C1082.226807,256.332855 1082.226807,248.767960 1082.226807,240.762695   C1073.122559,240.762695 1064.368042,240.762695 1055.026367,240.762695   C1055.026367,228.275391 1055.026367,216.224579 1055.026367,204.182953   C1046.340576,204.182953 1038.258423,204.182953 1029.554810,204.182953   C1029.554810,216.538956 1029.554810,228.594543 1029.554810,241.068237   C1021.836060,241.068237 1014.739746,241.068237 1007.546021,241.068237   C1007.546021,249.062393 1007.546021,256.614349 1007.546021,264.717743   C1013.172241,264.717743 1018.487244,265.033966 1023.745911,264.624969   C1028.584839,264.248627 1029.890503,265.902588 1029.853394,270.707642   C1029.633911,299.192352 1029.731689,327.679626 1029.752197,356.166016   C1029.759155,365.804688 1032.280762,374.448914 1038.998779,381.802826   C1049.163330,392.929443 1078.991699,393.652893 1090.900513,376.633545   C1087.440918,369.826843 1083.937500,362.933655 1080.141357,355.464661   C1078.094727,357.730377 1076.571777,359.668396 1074.793091,361.333069   C1071.068604,364.818817 1066.637329,366.538849 1061.526733,365.458038   C1056.814087,364.461365 1056.438843,360.295898 1055.397461,355.739502  M1266.910767,386.576294   C1274.676270,386.576294 1282.441895,386.576294 1290.777710,386.576294   C1290.777710,384.148987 1290.777710,382.195526 1290.777710,380.242065   C1290.777466,349.598206 1290.759521,318.954346 1290.819214,288.310608   C1290.822998,286.386017 1290.798950,283.965271 1291.858521,282.616638   C1301.056763,270.910065 1312.623169,263.503479 1328.120972,264.210999   C1330.807861,264.333679 1333.448608,265.463196 1336.343994,266.185883   C1336.343994,256.492767 1336.343994,247.405869 1336.343994,238.193436   C1318.700928,236.329971 1304.378540,243.065323 1290.772461,255.130524   C1290.772461,249.589630 1290.772461,245.398926 1290.772461,241.299072   C1282.061035,241.299072 1274.006470,241.299072 1265.934082,241.299072   C1265.869019,242.529999 1265.786987,243.359222 1265.786865,244.188446   C1265.780029,290.320770 1265.777344,336.453064 1265.794922,382.585388   C1265.795410,383.733398 1266.029419,384.881348 1266.910767,386.576294  M971.796570,264.101227   C976.178101,264.586426 980.559570,265.071655 985.223633,265.588165   C985.223633,256.559814 985.223633,247.487305 985.223633,238.203888   C967.686707,236.341293 953.405273,243.106003 939.801636,255.126022   C939.801636,249.555847 939.801636,245.365509 939.801636,241.266464   C931.078125,241.266464 923.005798,241.266464 915.049805,241.266464   C915.049805,289.846283 915.049805,338.056458 915.049805,386.334076   C923.451538,386.334076 931.500549,386.334076 939.908142,386.334076   C939.908142,384.160889 939.908142,382.349609 939.908142,380.538330   C939.908020,349.899475 939.805664,319.259766 940.061890,288.623047   C940.088196,285.469696 941.482117,281.641022 943.568115,279.315887   C950.851318,271.197601 959.905212,265.774933 971.796570,264.101227  M1309.024658,435.374207   C1310.368042,437.257874 1311.500122,439.346375 1313.092041,440.989166   C1319.521484,447.624115 1330.877808,447.747101 1337.431152,441.399658   C1344.727295,434.332764 1345.153687,423.350342 1338.403931,416.345886   C1332.531982,410.252350 1324.075806,408.850311 1316.986694,412.794830   C1309.088867,417.189423 1306.162720,424.958527 1309.024658,435.374207  M867.420471,411.109863   C861.952148,403.969910 850.002197,407.589539 847.375916,415.876678   C845.838196,420.728699 848.217407,426.339600 852.815674,427.742065   C857.577087,429.194305 862.155945,428.631287 865.743225,424.876831   C869.393921,421.056030 870.670349,416.649780 867.420471,411.109863  M927.115662,94.732086   C928.117371,92.073982 930.085876,89.350983 929.912720,86.771782   C929.586304,81.909027 924.041931,78.740074 919.563538,80.036491   C914.441895,81.519112 911.705872,86.741524 913.616821,91.387413   C915.684082,96.413361 920.915344,97.944344 927.115662,94.732086  z" /><path fill="#E51670" opacity="1.000000" stroke="none" d=" M757.625000,1.000000   C767.781189,4.608922 777.511108,8.364641 787.352905,11.799807   C819.543152,23.035383 851.772278,34.159748 883.990234,45.315773   C902.534668,51.737129 921.087952,58.132938 939.632202,64.554909   C941.024597,65.037109 942.376038,65.637505 944.558228,66.506058   C937.097290,69.142914 930.441589,71.575882 923.714966,73.793594   C922.584351,74.166351 921.060242,73.857689 919.863586,73.443268   C890.629456,63.318916 861.416077,53.134830 832.196838,42.967388   C812.099243,35.973999 792.048035,28.839525 771.840515,22.179350   C769.128601,21.285522 765.621155,22.805458 762.482056,23.207666   C762.455933,23.688982 762.429810,24.170298 762.403687,24.651611   C812.720581,41.863377 863.037537,59.075142 914.142090,76.556343   C912.666931,77.280479 911.813293,77.819557 910.884033,78.138458   C860.386658,95.468628 809.889709,112.800194 759.352905,130.014786   C757.496887,130.647018 755.055054,130.673904 753.205017,130.045044   C712.744019,116.291908 672.338562,102.375725 631.899292,88.558426   C613.168945,82.158607 594.386597,75.910889 575.636353,69.569130   C573.128052,68.720787 570.669800,67.724533 567.013245,66.357391   C630.213440,44.505627 692.364868,23.016443 754.758179,1.263631   C755.750000,1.000000 756.500000,1.000000 757.625000,1.000000  z" /><path fill="#0B2437" opacity="1.000000" stroke="none" d=" M0.999998,300.468658   C2.799323,293.702850 4.424366,287.349731 6.426007,281.117554   C20.307974,237.895554 72.757675,223.158310 108.031860,253.334442   C108.031860,248.995087 108.031860,245.215561 108.031860,241.168549   C116.973587,241.168549 125.203667,241.168549 133.758865,241.168549   C133.831619,242.583145 133.955017,243.866287 133.955292,245.149475   C133.964813,290.131989 134.011566,335.114594 133.937073,380.096985   C133.909378,396.819519 129.628113,412.079834 117.337776,424.203888   C108.224228,433.194092 96.987411,437.887207 84.465897,439.623413   C65.563324,442.244354 46.702545,442.631561 29.400000,433.204803   C21.500143,428.900848 14.670704,422.632141 6.915501,416.930878   C12.590910,409.308197 17.480993,402.740326 22.002886,396.666962   C28.476208,402.061127 33.919746,408.307861 40.752502,411.944305   C56.255486,420.195068 72.886459,420.206909 88.984718,413.648407   C100.524200,408.947235 106.511452,399.209015 107.988983,386.898682   C108.500748,382.634827 108.438919,378.302124 108.669609,373.344940   C103.239662,376.792206 98.597137,380.159790 93.590065,382.848511   C66.108810,397.605621 27.915043,386.355316 12.485619,359.315063   C6.775848,349.308624 3.698945,338.538025 1.359953,327.168945   C1.000000,318.312439 1.000000,309.624878 0.999998,300.468658  M53.166595,264.548737   C48.426331,268.354950 42.795082,271.454987 39.113415,276.100189   C28.214895,289.851135 26.592682,306.225616 28.397324,322.994904   C29.880764,336.779419 34.697128,349.242584 46.178337,358.006775   C64.307007,371.845306 93.730759,365.110413 107.312187,346.124847   C108.185181,344.904480 108.485535,343.038422 108.492142,341.470367   C108.570679,322.829529 108.613922,304.187561 108.444923,285.547913   C108.425667,283.423950 107.533470,280.953094 106.243835,279.250824   C94.314758,263.504730 72.255730,257.256104 53.166595,264.548737  z" /><path fill="#0E2739" opacity="1.000000" stroke="none" d=" M733.468506,514.000000   C731.188110,496.965302 729.345764,479.933746 727.577698,462.894501   C726.740906,454.830872 726.046204,446.752472 725.257446,438.365631   C732.215637,438.365631 738.807800,438.365631 746.128479,438.365631   C747.205566,453.960938 748.285889,469.602936 749.366272,485.244904   C749.722534,485.370605 750.078857,485.496307 750.435181,485.622009   C751.069275,484.497223 751.833984,483.425690 752.317566,482.239563   C757.653870,469.151764 763.032837,456.080017 768.192993,442.922638   C769.559143,439.439240 771.137085,437.544403 775.352173,437.959229   C780.425537,438.458527 785.585632,438.077362 790.902039,438.077362   C792.252014,454.701050 793.555420,470.751282 794.858826,486.801544   C795.140747,486.873871 795.422607,486.946167 795.704529,487.018463   C802.211609,470.780823 808.718689,454.543182 815.256042,438.230103   C822.053772,438.230103 828.692932,438.230103 836.180847,438.230103   C825.307617,462.980408 814.581177,487.396729 803.317383,512.261169   C795.863953,512.784912 788.947876,512.860474 781.862305,512.711426   C781.553406,512.361267 781.414001,512.235779 781.364990,511.842010   C781.278320,511.055573 781.101135,510.537354 780.962585,509.580811   C780.721008,507.129578 780.440796,505.116638 780.286987,502.848877   C780.246582,502.070007 780.079834,501.545929 779.953491,500.577118   C779.719116,497.788940 779.444397,495.445496 779.318726,492.852539   C779.316956,492.067291 779.166138,491.531555 779.050049,490.555786   C778.238220,482.440247 777.391602,474.764801 776.585571,466.806702   C776.133850,466.695740 775.641602,466.867401 774.967407,467.350464   C772.411255,473.093201 770.086182,478.546661 767.652466,483.951172   C763.135193,493.982513 758.554321,503.985321 754.000000,514.000000   C747.312378,514.000000 740.624695,514.000000 733.468506,514.000000  z" /><path fill="#0E2639" opacity="1.000000" stroke="none" d=" M1188.214600,512.651794   C1200.069092,497.643066 1211.811401,482.543182 1223.862305,467.693878   C1226.649170,464.259888 1227.121338,461.640228 1225.160767,457.543213   C1218.414429,443.445862 1212.148438,429.118530 1205.721802,414.868744   C1205.533936,414.452209 1205.596436,413.922821 1205.502808,413.099304   C1212.418823,413.099304 1219.214233,412.936340 1225.988159,413.243805   C1227.265991,413.301758 1228.998291,414.990326 1229.602905,416.338226   C1233.482788,424.987305 1237.096680,433.755371 1240.824219,442.473053   C1241.457886,443.955078 1242.219116,445.382477 1243.158203,447.324890   C1251.360840,436.634399 1259.127319,426.295410 1267.205444,416.205902   C1268.493164,414.597382 1271.135986,413.363861 1273.227661,413.240967   C1279.690674,412.861298 1286.190063,413.102356 1293.690308,413.102356   C1289.994629,418.036621 1286.754150,422.481781 1283.390137,426.831299   C1275.043945,437.622711 1266.731445,448.442657 1258.201416,459.087769   C1255.930664,461.921600 1255.528931,464.192291 1257.149414,467.575043   C1263.830933,481.522308 1270.215698,495.612305 1276.622681,509.689362   C1277.102417,510.743469 1276.898193,512.108826 1277.005981,513.664734   C1269.645752,514.000000 1262.291504,514.000000 1254.566284,513.628723   C1249.297607,501.872284 1244.400024,490.487152 1239.129517,478.235321   C1229.933838,490.290161 1221.383667,501.498901 1212.375977,512.724731   C1204.017090,512.711853 1196.115845,512.681824 1188.214600,512.651794  z" /><path fill="#0E2639" opacity="1.000000" stroke="none" d=" M1129.463135,514.000000   C1112.857544,505.349030 1108.444336,496.749817 1111.010620,477.967072   C1113.093994,462.717804 1118.706665,449.341980 1132.710449,441.102478   C1138.773071,437.535370 1145.480469,436.488190 1152.459473,437.354309   C1159.999634,438.290009 1164.297363,443.286926 1167.585815,450.632721   C1169.838379,437.511017 1171.906372,425.464111 1173.997314,413.283905   C1180.903198,413.283905 1187.505005,413.283905 1194.648926,413.283905   C1192.710083,425.076019 1190.811646,436.648499 1188.903931,448.219452   C1185.630615,468.071533 1182.379639,487.927429 1179.029541,507.766541   C1178.710693,509.653961 1177.755249,511.433899 1177.047729,513.631836   C1170.978882,514.000000 1164.957642,514.000000 1158.490601,513.571655   C1158.466431,509.242279 1158.888184,505.341248 1159.179321,502.648773   C1153.652710,506.300507 1147.826416,510.150269 1142.000000,514.000000   C1137.975464,514.000000 1133.950928,514.000000 1129.463135,514.000000  M1161.111572,485.430450   C1162.225952,478.963623 1163.976562,472.524353 1164.257690,466.021515   C1164.491455,460.619629 1161.676270,455.885681 1155.948120,454.301544   C1149.870605,452.620819 1144.162842,454.097595 1140.089844,458.933350   C1132.750000,467.647614 1130.902832,477.939362 1133.261719,488.899384   C1134.499512,494.650757 1138.589722,497.389893 1144.562622,497.408630   C1152.612427,497.433899 1157.238770,492.542816 1161.111572,485.430450  z" /><path fill="#0F2739" opacity="1.000000" stroke="none" d=" M1053.468262,514.000000   C1052.655518,513.702515 1052.356079,513.239197 1051.959961,513.131409   C1035.606201,508.680756 1030.132935,495.436096 1031.316162,481.459351   C1032.846924,463.378876 1040.244141,448.670349 1057.389648,440.665649   C1067.603149,435.897308 1078.401245,435.614960 1088.979492,439.758789   C1099.480713,443.872589 1105.066406,454.696075 1104.338745,468.598511   C1103.703491,480.735779 1103.703491,480.735748 1091.822510,480.735748   C1078.682617,480.735718 1065.542725,480.735748 1052.503784,480.735748   C1049.074951,490.539490 1053.624390,497.842957 1063.555664,498.596924   C1069.995850,499.085876 1075.759155,497.566803 1080.062378,492.182556   C1080.843872,491.204773 1082.495850,490.362488 1083.720215,490.395874   C1089.010620,490.540375 1094.291504,491.033478 1100.369507,491.454742   C1094.889038,504.287476 1085.113892,510.646515 1072.205811,513.678955   C1065.978882,514.000000 1059.957642,514.000000 1053.468262,514.000000  M1054.588135,466.160004   C1054.910034,466.759033 1055.226807,467.878326 1055.554443,467.881470   C1065.286499,467.974609 1075.019653,467.957092 1084.648071,467.957092   C1086.243164,458.954407 1081.564331,452.846680 1073.226685,452.743744   C1064.191528,452.632202 1058.415527,457.499634 1054.588135,466.160004  z" /><path fill="#0E2638" opacity="1.000000" stroke="none" d=" M887.466125,514.000000   C886.944275,513.843140 886.936279,513.607178 886.825989,513.540527   C873.509644,505.493408 872.762512,503.563141 875.597229,487.659729   C877.572937,476.575928 879.236328,465.436462 881.122131,453.810303   C877.610291,453.810303 874.514343,453.810303 871.112549,453.810303   C871.805054,449.070068 872.270264,444.788300 873.160339,440.596802   C873.371277,439.603180 874.924011,438.357361 876.004883,438.194916   C878.413330,437.832977 880.913574,438.081940 883.604614,438.081940   C884.701355,432.038483 885.730774,426.365967 886.794861,420.502197   C893.677246,420.502197 900.242310,420.502197 907.399231,420.502197   C906.504883,426.312958 905.653503,431.844421 904.714722,437.943909   C909.374573,437.943909 913.758789,437.943909 918.809692,437.943909   C917.829834,443.555237 916.960693,448.532745 916.041199,453.798218   C911.311646,453.798218 906.865845,453.798218 901.941284,453.798218   C899.842346,466.625214 897.682434,479.185760 895.799683,491.787781   C895.339294,494.869354 897.134827,496.849182 900.487915,496.899200   C902.473938,496.928833 904.460693,496.904633 906.945984,496.904633   C907.169495,501.707458 907.397339,506.605011 907.627319,511.546906   C905.714478,512.181030 904.011047,512.745789 902.153809,513.655273   C897.310730,514.000000 892.621521,514.000000 887.466125,514.000000  z" /><path fill="#FCFCFC" opacity="1.000000" stroke="none" d=" M966.000000,514.000000   C956.979126,514.000000 947.958191,514.000000 938.433228,513.670898   C937.886780,513.125183 937.844360,512.908630 937.880737,512.301880   C940.295166,498.161560 942.327759,484.348877 945.143738,470.697815   C946.033691,466.383820 948.336975,461.917938 951.210449,458.564301   C955.147095,453.969849 963.326660,453.302826 968.322205,455.963379   C972.508118,458.192719 973.861450,462.785370 972.606873,470.134521   C971.712463,475.373413 970.892944,480.625702 970.093750,485.880188   C968.724792,494.881378 967.397888,503.889008 966.028198,513.169861   C966.002136,513.630554 966.001099,513.815247 966.000000,514.000000  z" /><path fill="#FAFAFB" opacity="1.000000" stroke="none" d=" M1212.833496,512.707642   C1221.383667,501.498901 1229.933838,490.290161 1239.129517,478.235321   C1244.400024,490.487152 1249.297607,501.872284 1254.097656,513.628723   C1240.645752,514.000000 1227.291504,514.000000 1213.437744,513.675537   C1212.903320,513.136597 1212.868408,512.922119 1212.833496,512.707642  z" /><path fill="#FBFBFB" opacity="1.000000" stroke="none" d=" M780.160645,503.103699   C780.440796,505.116638 780.721008,507.129578 780.750000,509.704529   C780.757385,510.881134 781.015930,511.495697 781.274536,512.110229   C781.414001,512.235779 781.553406,512.361267 781.846313,512.977173   C781.999939,513.645020 781.999939,513.822510 782.000000,514.000000   C772.979126,514.000000 763.958191,514.000000 754.468628,514.000000   C758.554321,503.985321 763.135193,493.982513 767.652466,483.951172   C770.086182,478.546661 772.411255,473.093201 775.199829,467.385315   C775.614258,467.108765 776.081116,467.168518 776.081116,467.168518   C776.081116,467.168518 776.545044,467.089355 776.545044,467.089355   C777.391602,474.764801 778.238220,482.440247 778.835144,490.668274   C778.780212,491.847961 778.974976,492.475006 779.169678,493.102081   C779.444397,495.445496 779.719116,497.788940 779.746826,500.695374   C779.720093,501.873505 779.940369,502.488617 780.160645,503.103699  z" /><path fill="#1D3445" opacity="1.000000" stroke="none" d=" M1401.000000,267.536804   C1399.985962,269.796753 1398.984497,271.600769 1397.955566,273.388947   C1392.410278,283.026764 1381.554810,287.571716 1371.037842,284.666565   C1360.380249,281.722626 1353.297119,272.234436 1353.604614,261.313965   C1353.921265,250.068649 1361.266724,241.178360 1372.450684,238.504013   C1382.341553,236.138901 1393.380005,241.437714 1398.398926,250.992630   C1399.093750,252.315796 1399.643555,253.715118 1400.630371,255.039581   C1401.000000,259.024536 1401.000000,263.049103 1401.000000,267.536804  M1359.408569,269.730865   C1364.364990,279.316650 1374.185059,283.688812 1383.411987,280.417908   C1392.957275,277.034180 1398.530273,267.459076 1396.456177,258.005768   C1393.873657,246.234833 1383.305054,239.894043 1371.516602,243.042648   C1360.837646,245.894913 1355.340454,257.398224 1359.408569,269.730865  z" /><path fill="#EDEEEF" opacity="1.000000" stroke="none" d=" M1142.466797,514.000000   C1147.826416,510.150269 1153.652710,506.300507 1159.179321,502.648773   C1158.888184,505.341248 1158.466431,509.242279 1158.022339,513.571655   C1152.977905,514.000000 1147.955811,514.000000 1142.466797,514.000000  z" /><path fill="#D3D5D8" opacity="1.000000" stroke="none" d=" M937.801880,512.692017   C937.844360,512.908630 937.886780,513.125183 937.964600,513.670898   C931.312378,514.000000 924.624695,514.000000 917.468567,514.000000   C916.978699,513.016907 916.957336,512.033875 917.324402,511.440857   C924.409180,512.117920 931.105530,512.404968 937.801880,512.692017  z" /><path fill="#D3D5D8" opacity="1.000000" stroke="none" d=" M1212.375977,512.724731   C1212.868408,512.922119 1212.903320,513.136597 1212.969116,513.675537   C1204.979126,514.000000 1196.958130,514.000000 1188.468628,514.000000   C1188.021973,513.773193 1188.043945,513.546326 1188.140381,512.985596   C1196.115845,512.681824 1204.017090,512.711853 1212.375977,512.724731  z" /><path fill="#D3D5D8" opacity="1.000000" stroke="none" d=" M782.468567,514.000000   C781.999939,513.822510 781.999939,513.645020 782.015808,513.201782   C788.947876,512.860474 795.863953,512.784912 803.210205,512.588928   C803.712219,512.720947 803.784119,512.973389 803.927979,513.612915   C796.979065,514.000000 789.958069,514.000000 782.468567,514.000000  z" /><path fill="#D3D5D8" opacity="1.000000" stroke="none" d=" M852.756836,512.640808   C852.807068,512.865601 852.857239,513.090454 852.953735,513.657593   C846.312378,514.000000 839.624695,514.000000 832.468506,514.000000   C832.006897,513.801025 832.013733,513.602051 832.524902,513.088562   C839.605042,512.729614 846.180908,512.685242 852.756836,512.640808  z" /><path fill="#D3D5D8" opacity="1.000000" stroke="none" d=" M966.468506,514.000000   C966.001099,513.815247 966.002136,513.630554 966.491089,513.120850   C973.505188,512.675903 980.031372,512.555908 986.557495,512.435913   C986.642395,512.693420 986.727234,512.950989 986.906067,513.604248   C980.312378,514.000000 973.624695,514.000000 966.468506,514.000000  z" /><path fill="#E51872" opacity="1.000000" stroke="none" d=" M646.626099,247.355103   C649.573975,250.505035 652.261047,253.413330 654.219727,255.533234   C663.289856,250.444931 671.904419,244.883606 681.123596,240.634125   C691.467590,235.866165 702.543640,236.125244 713.402588,239.346313   C728.930603,243.952393 738.113953,256.201721 739.889648,274.437988   C740.292725,278.577148 740.487000,282.752625 740.493530,286.911835   C740.542480,318.077911 740.520203,349.244080 740.520203,380.410217   C740.520203,382.360840 740.520203,384.311493 740.520203,386.478271   C731.930237,386.478271 724.004822,386.478271 715.541504,386.478271   C715.446533,384.376190 715.283936,382.440796 715.282898,380.505371   C715.266541,349.672546 715.344666,318.839386 715.190552,288.007324   C715.167542,283.402008 714.572876,278.667114 713.368347,274.229462   C711.278992,266.531647 705.754272,262.414276 697.856323,261.372284   C683.187988,259.437073 667.945068,269.659637 661.023254,279.588470   C660.107483,280.902222 660.197144,283.071045 660.194641,284.844391   C660.149841,316.677094 660.162598,348.509949 660.163086,380.342743   C660.163086,382.292297 660.163025,384.241852 660.163025,386.436951   C651.509338,386.436951 643.431641,386.436951 634.796875,386.436951   C634.796875,384.391785 634.796875,382.605743 634.796875,380.819702   C634.796936,350.986877 634.813232,321.154022 634.775269,291.321259   C634.770813,287.829437 634.598389,284.325989 634.280029,280.848450   C632.922119,266.019257 623.454468,258.710388 608.823914,261.642792   C597.663269,263.879669 588.364014,269.589111 581.572998,278.833313   C580.340393,280.511108 579.923096,283.128540 579.916077,285.314728   C579.814026,316.980560 579.846375,348.646790 579.846436,380.312927   C579.846497,382.261902 579.846436,384.210907 579.846436,386.426758   C571.169922,386.426758 563.096802,386.426758 554.661987,386.426758   C554.661987,337.995911 554.661987,289.766968 554.661987,241.215454   C562.838562,241.215454 570.929932,241.215454 579.592468,241.215454   C579.592468,244.548981 579.592468,247.946686 579.592468,251.638519   C586.703796,247.918884 593.030334,243.965302 599.834778,241.178604   C616.321228,234.426758 632.044617,235.817932 646.626099,247.355103  z" /><path fill="#0D2638" opacity="1.000000" stroke="none" d=" M164.077271,282.043518   C176.401642,254.522629 197.029846,238.754974 227.010056,237.368912   C259.758423,235.854843 286.036926,256.851593 294.785736,290.259735   C295.878601,294.432831 296.812500,298.735718 297.057953,303.022125   C297.436951,309.640076 297.157837,316.295715 297.157837,323.523682   C260.307190,323.523682 223.271072,323.523682 186.268234,323.523682   C185.538788,338.157440 196.998398,356.359650 212.328400,362.281860   C237.222153,371.898651 258.666473,365.343079 276.734406,345.136841   C281.475098,351.012238 286.109589,356.755981 290.997772,362.814178   C282.791687,372.578369 273.033691,380.226013 261.178314,384.572479   C240.688507,392.084564 219.974228,392.353241 199.906067,383.205505   C175.920258,372.271942 163.421692,352.503693 159.145126,327.102539   C156.570053,311.807495 158.425400,296.884247 164.077271,282.043518  M257.492371,301.206696   C262.201416,301.206696 266.910461,301.206696 271.706421,301.206696   C268.245422,274.951202 249.247131,258.842712 224.798508,260.710663   C204.696808,262.246490 185.941345,281.758118 186.228638,301.206696   C209.645721,301.206696 233.070114,301.206696 257.492371,301.206696  z" /><path fill="#E51972" opacity="1.000000" stroke="none" d=" M1156.000000,323.721771   C1145.372070,323.721680 1135.244141,323.721680 1124.495239,323.721680   C1127.375244,341.072052 1134.593628,355.232880 1150.685669,361.858093   C1175.803955,372.199463 1197.501587,365.178467 1215.752075,345.112549   C1220.515991,351.050049 1225.082397,356.741486 1229.908813,362.756836   C1220.538330,373.902161 1209.233276,382.255188 1195.354980,386.178925   C1170.766113,393.130737 1147.116577,391.301605 1125.961914,375.529785   C1109.909668,363.561981 1101.088989,347.105957 1098.380737,327.454163   C1094.677490,300.582764 1100.197998,276.200348 1120.126343,256.731140   C1143.981812,233.425385 1179.994751,230.481766 1207.262329,249.570068   C1222.743286,260.407318 1231.257202,276.178772 1234.663330,294.476196   C1236.407959,303.848297 1236.649048,313.500275 1237.636963,323.721863   C1209.716553,323.721863 1183.108276,323.721863 1156.000000,323.721771  M1204.923462,282.668671   C1195.273804,264.881042 1174.316772,256.392914 1154.989136,262.361938   C1138.679321,267.398926 1125.327881,285.221375 1125.369263,300.784576   C1153.700684,300.784576 1182.029907,300.784576 1210.776001,300.784576   C1210.061890,297.392120 1209.669067,294.407745 1208.772827,291.583069   C1207.872803,288.746216 1206.471313,286.068481 1204.923462,282.668671  z" /><path fill="#E51972" opacity="1.000000" stroke="none" d=" M860.360840,293.834839   C860.360901,292.526764 860.360779,291.693695 860.360779,290.860657   C860.360840,271.866913 850.910461,262.034424 831.818726,261.223236   C815.191101,260.516724 801.631165,266.676697 791.090881,279.534821   C789.942078,280.936218 788.770752,282.319122 787.195618,284.207092   C782.098816,277.841370 777.269104,271.809296 772.211304,265.492340   C782.848328,252.582458 795.624146,243.491913 811.687683,239.533340   C827.275146,235.692108 842.767700,236.099060 857.776917,242.215317   C875.724182,249.528793 885.150208,263.482361 885.506531,282.421417   C886.148865,316.563324 885.705933,350.725677 885.700928,384.879486   C885.700928,385.187622 885.491089,385.495789 885.240112,386.187042   C877.321472,386.187042 869.258301,386.187042 860.674194,386.187042   C860.501770,383.585419 860.330566,381.001770 860.102661,377.561981   C858.327637,378.663971 857.039490,379.545837 855.678772,380.296082   C836.191772,391.040466 815.961731,393.830048 795.420471,384.102875   C774.098877,374.006195 764.527893,354.299622 767.970886,329.978302   C770.752808,310.326904 787.980103,293.620911 809.576172,290.182434   C826.442200,287.497070 842.413879,290.229584 857.015747,299.510773   C857.815918,300.019409 858.696350,300.401855 860.360657,301.272736   C860.360657,298.461853 860.360657,296.385864 860.360840,293.834839  M795.961548,327.688232   C788.978882,344.110718 796.044067,360.833649 812.748535,365.649170   C827.824219,369.995056 842.042297,367.129150 854.853882,357.921509   C858.881287,355.027069 860.979614,351.407043 860.459656,346.086578   C859.944336,340.813477 860.589783,335.433868 860.222107,330.135956   C860.078735,328.069672 859.054749,325.589264 857.588684,324.166077   C846.950256,313.839020 833.908508,310.676605 819.476440,312.004486   C809.114319,312.957947 801.301758,317.815918 795.961548,327.688232  z" /><path fill="#E51871" opacity="1.000000" stroke="none" d=" M496.768250,241.141632   C508.771606,245.582672 518.633850,252.420425 527.040283,262.355774   C522.076904,268.661041 517.096313,274.988190 512.110657,281.321808   C508.049896,277.018158 504.681396,272.659943 500.549896,269.217407   C488.198669,258.925812 464.038849,257.062073 451.586243,265.694916   C448.299408,267.973511 445.587372,271.980194 444.117859,275.776459   C441.746002,281.903900 443.737579,287.017365 449.848450,289.379028   C460.659973,293.557495 471.776062,297.032776 482.934692,300.204193   C494.056946,303.365234 504.850372,306.974182 514.190735,314.073914   C533.680115,328.888123 531.800842,355.088440 520.408630,370.001434   C510.845886,382.519653 497.487030,387.910065 482.384857,389.328461   C455.349304,391.867584 431.453247,385.607117 413.363007,363.234467   C418.534912,356.833649 423.715332,350.422333 428.160553,344.920868   C434.997406,350.354126 440.959625,356.268768 447.970093,360.408081   C460.844666,368.009827 475.000854,368.573975 488.964203,363.810211   C493.220947,362.357941 497.520111,358.865204 500.119049,355.135681   C507.141602,345.058105 503.084045,334.228485 490.817291,329.859741   C481.905273,326.685760 472.682373,324.365814 463.554443,321.821777   C452.147400,318.642578 441.001038,315.167969 431.217651,307.949768   C414.727966,295.783661 415.992218,272.735901 423.265106,260.574127   C431.279785,247.171844 443.897614,241.137268 458.412811,238.396606   C471.212952,235.979767 483.956024,236.915543 496.768250,241.141632  z" /><path fill="#E51670" opacity="1.000000" stroke="none" d=" M755.173706,138.610382   C768.855225,133.973511 782.549744,129.374329 796.215454,124.691406   C819.807434,116.606949 843.380798,108.468178 866.969543,100.374161   C867.395325,100.228043 867.915161,100.355881 868.821167,100.355881   C868.821167,111.703369 868.821167,122.979561 868.821167,134.255753   C868.821167,142.247559 868.588074,150.249084 868.921082,158.226990   C869.083862,162.124420 867.618347,163.749313 864.093750,164.923889   C828.297424,176.852814 792.548462,188.923691 756.401733,200.442200   C756.016357,181.412262 756.039978,162.894821 755.977539,144.377670   C755.971069,142.454361 755.453918,140.532761 755.173706,138.610382  z" /><path fill="#A31063" opacity="1.000000" stroke="none" d=" M754.859253,138.351013   C755.453918,140.532761 755.971069,142.454361 755.977539,144.377670   C756.039978,162.894821 756.016357,181.412262 756.030212,200.387878   C739.467163,195.425385 722.861816,190.092392 706.322876,184.561050   C686.944580,178.080093 667.647217,171.356628 648.256165,164.914566   C644.913879,163.804184 643.580139,162.322449 643.625244,158.598953   C643.842834,140.622559 643.718079,122.642067 643.731812,104.663040   C643.732910,103.213341 643.863220,101.763748 643.955200,99.865997   C681.098328,112.704643 717.821533,125.398148 754.859253,138.351013  z" /><path fill="#0B2436" opacity="1.000000" stroke="none" d=" M308.975983,245.135040   C308.631744,242.073975 309.256470,240.705185 312.358887,240.822876   C318.494293,241.055664 324.644775,240.891586 331.352295,240.891586   C331.352295,228.581161 331.352295,216.530914 331.352295,204.178345   C340.119507,204.178345 348.322479,204.178345 356.845581,204.178345   C356.845581,216.303589 356.845581,228.248672 356.845581,240.731369   C366.029083,240.731369 374.922089,240.731369 384.056152,240.731369   C384.056152,248.850922 384.056152,256.433075 384.056152,264.446655   C375.219086,264.446655 366.460052,264.446655 356.964569,264.446655   C356.964569,266.461456 356.964539,268.052185 356.964569,269.642914   C356.964874,296.798431 356.964905,323.953918 356.966705,351.109436   C356.966766,352.108917 356.905304,353.116486 357.006805,354.106506   C357.449310,358.421814 357.499268,363.277435 362.235657,365.176422   C367.346863,367.225708 372.067688,365.201233 376.057129,361.770538   C378.047272,360.059113 379.710114,357.967041 381.929688,355.613800   C385.370819,362.447021 388.712799,368.901794 391.812286,375.470947   C392.194153,376.280365 391.596924,377.950653 390.921753,378.798767   C383.267487,388.414001 366.028595,392.466705 351.754333,388.121552   C340.219940,384.610443 332.829071,375.171448 331.999420,361.521179   C331.363678,351.061584 331.622772,340.543884 331.597504,330.051758   C331.549713,310.226685 331.583710,290.401428 331.583710,270.576233   C331.583710,268.793854 331.583679,267.011505 331.583679,264.780396   C323.927368,264.780396 316.835449,264.780396 308.976074,264.780396   C308.976074,258.107452 308.976074,251.863876 308.975983,245.135040  z" /><path fill="#E51771" opacity="1.000000" stroke="none" d=" M1055.482788,356.160583   C1056.438843,360.295898 1056.814087,364.461365 1061.526733,365.458038   C1066.637329,366.538849 1071.068604,364.818817 1074.793091,361.333069   C1076.571777,359.668396 1078.094727,357.730377 1080.141357,355.464661   C1083.937500,362.933655 1087.440918,369.826843 1090.900513,376.633545   C1078.991699,393.652893 1049.163330,392.929443 1038.998779,381.802826   C1032.280762,374.448914 1029.759155,365.804688 1029.752197,356.166016   C1029.731689,327.679626 1029.633911,299.192352 1029.853394,270.707642   C1029.890503,265.902588 1028.584839,264.248627 1023.745911,264.624969   C1018.487244,265.033966 1013.172241,264.717743 1007.546021,264.717743   C1007.546021,256.614349 1007.546021,249.062393 1007.546021,241.068237   C1014.739746,241.068237 1021.836060,241.068237 1029.554810,241.068237   C1029.554810,228.594543 1029.554810,216.538956 1029.554810,204.182953   C1038.258423,204.182953 1046.340576,204.182953 1055.026367,204.182953   C1055.026367,216.224579 1055.026367,228.275391 1055.026367,240.762695   C1064.368042,240.762695 1073.122559,240.762695 1082.226807,240.762695   C1082.226807,248.767960 1082.226807,256.332855 1082.226807,264.478882   C1073.445435,264.478882 1064.716675,264.478882 1056.182007,264.478882   C1055.701660,265.444000 1055.301758,265.872498 1055.302002,266.300873   C1055.313354,296.113739 1055.356689,325.926636 1055.482788,356.160583  z" /><path fill="#E51871" opacity="1.000000" stroke="none" d=" M1266.532715,386.302795   C1266.029419,384.881348 1265.795410,383.733398 1265.794922,382.585388   C1265.777344,336.453064 1265.780029,290.320770 1265.786865,244.188446   C1265.786987,243.359222 1265.869019,242.529999 1265.934082,241.299072   C1274.006470,241.299072 1282.061035,241.299072 1290.772461,241.299072   C1290.772461,245.398926 1290.772461,249.589630 1290.772461,255.130524   C1304.378540,243.065323 1318.700928,236.329971 1336.343994,238.193436   C1336.343994,247.405869 1336.343994,256.492767 1336.343994,266.185883   C1333.448608,265.463196 1330.807861,264.333679 1328.120972,264.210999   C1312.623169,263.503479 1301.056763,270.910065 1291.858521,282.616638   C1290.798950,283.965271 1290.822998,286.386017 1290.819214,288.310608   C1290.759521,318.954346 1290.777466,349.598206 1290.777710,380.242065   C1290.777710,382.195526 1290.777710,384.148987 1290.777710,386.576294   C1282.441895,386.576294 1274.676270,386.576294 1266.532715,386.302795  z" /><path fill="#E51771" opacity="1.000000" stroke="none" d=" M971.360962,264.127686   C959.905212,265.774933 950.851318,271.197601 943.568115,279.315887   C941.482117,281.641022 940.088196,285.469696 940.061890,288.623047   C939.805664,319.259766 939.908020,349.899475 939.908142,380.538330   C939.908142,382.349609 939.908142,384.160889 939.908142,386.334076   C931.500549,386.334076 923.451538,386.334076 915.049805,386.334076   C915.049805,338.056458 915.049805,289.846283 915.049805,241.266464   C923.005798,241.266464 931.078125,241.266464 939.801636,241.266464   C939.801636,245.365509 939.801636,249.555847 939.801636,255.126022   C953.405273,243.106003 967.686707,236.341293 985.223633,238.203888   C985.223633,247.487305 985.223633,256.559814 985.223633,265.588165   C980.559570,265.071655 976.178101,264.586426 971.360962,264.127686  z" /><path fill="#0E2639" opacity="1.000000" stroke="none" d=" M986.625977,512.050476   C980.031372,512.555908 973.505188,512.675903 966.516235,512.844910   C967.397888,503.889008 968.724792,494.881378 970.093750,485.880188   C970.892944,480.625702 971.712463,475.373413 972.606873,470.134521   C973.861450,462.785370 972.508118,458.192719 968.322205,455.963379   C963.326660,453.302826 955.147095,453.969849 951.210449,458.564301   C948.336975,461.917938 946.033691,466.383820 945.143738,470.697815   C942.327759,484.348877 940.295166,498.161560 937.880737,512.301880   C931.105530,512.404968 924.409180,512.117920 917.594116,511.400665   C917.660828,509.915253 917.846252,508.860107 918.213684,507.191528   C918.420105,506.019806 918.444580,505.461578 918.468994,504.903320   C918.989502,501.547302 919.510010,498.191284 920.213257,494.207886   C920.415161,493.020782 920.434326,492.461090 920.453430,491.901398   C920.657288,490.867432 920.861145,489.833466 921.257812,488.201752   C921.469727,487.038544 921.488770,486.473145 921.507812,485.907715   C921.701599,484.872864 921.895386,483.838043 922.288330,482.210052   C922.503052,481.048157 922.518677,480.479370 922.534302,479.910614   C923.026184,477.208679 923.518127,474.506714 924.192139,471.190460   C924.370422,470.015472 924.366577,469.454834 924.362671,468.894165   C924.906189,465.538605 925.449768,462.183044 926.177490,458.200470   C926.357788,457.013214 926.354004,456.452972 926.350159,455.892731   C928.779724,441.809540 931.209290,427.726349 933.682861,413.388184   C940.412048,413.388184 946.955688,413.388184 953.999939,413.388184   C951.885315,425.975739 949.827332,438.226501 947.769287,450.477264   C952.881226,444.119263 958.552063,438.972046 966.790344,437.693665   C976.078918,436.252258 984.839966,436.848633 991.110352,445.201843   C995.213745,450.668365 995.491272,457.040405 994.531982,463.374847   C992.090454,479.497498 989.328308,495.571594 986.625977,512.050476  z" /><path fill="#0F2739" opacity="1.000000" stroke="none" d=" M852.825989,512.252014   C846.180908,512.685242 839.605042,512.729614 832.567932,512.792969   C834.519531,497.734558 836.885742,482.649506 839.361938,467.582550   C840.948547,457.928314 842.697571,448.300781 844.423401,438.376160   C851.181335,438.376160 857.903442,438.376160 865.115234,438.376160   C861.005432,463.090851 856.950317,487.477020 852.825989,512.252014  z" /><path fill="#E32A7B" opacity="1.000000" stroke="none" d=" M928.141663,110.940628   C927.384277,112.358818 925.980774,113.771210 925.967957,115.196083   C925.815552,132.181015 925.903687,149.167953 925.823303,166.153870   C925.814331,168.055145 925.157043,169.953354 924.800354,171.852966   C924.174072,171.789581 923.547791,171.726181 922.921509,171.662781   C922.921509,161.496078 922.921570,151.329376 922.921570,141.162674   C922.921570,131.151154 922.921509,121.139626 922.921509,111.128105   C922.297546,111.126564 921.673523,111.125023 921.049561,111.123482   C921.049561,131.279236 921.049561,151.434998 921.049561,171.590744   C920.365417,171.694504 919.681213,171.798279 918.997070,171.902039   C918.489258,170.045013 917.553467,168.190964 917.540649,166.330521   C917.425354,149.678085 917.489136,133.024475 917.448120,116.371353   C917.443665,114.552437 917.110413,112.734337 916.929565,110.915855   C916.430359,110.947006 915.931213,110.978157 915.432007,111.009300   C915.432007,129.398743 915.432007,147.788193 915.432007,166.177643   C914.848083,166.330566 914.264099,166.483475 913.680176,166.636398   C913.101562,165.102570 912.030090,163.572067 912.019775,162.034439   C911.902283,144.549347 911.806580,127.061150 912.057495,109.578842   C912.112793,105.726067 913.117981,100.651299 917.780518,100.379730   C926.506592,99.871452 927.250977,98.365166 930.263123,106.984993   C930.421021,107.436729 930.792725,107.813766 931.076111,109.022186   C931.081299,127.892097 931.075134,145.965424 931.068970,164.038757   C930.559387,164.738770 930.049744,165.438782 929.259216,165.658569   C928.998779,148.491226 929.040649,131.804077 929.000549,115.117111   C928.997192,113.724274 928.440979,112.332764 928.141663,110.940628  z" /><path fill="#1D3445" opacity="1.000000" stroke="none" d=" M1308.887573,435.018066   C1306.162720,424.958527 1309.088867,417.189423 1316.986694,412.794830   C1324.075806,408.850311 1332.531982,410.252350 1338.403931,416.345886   C1345.153687,423.350342 1344.727295,434.332764 1337.431152,441.399658   C1330.877808,447.747101 1319.521484,447.624115 1313.092041,440.989166   C1311.500122,439.346375 1310.368042,437.257874 1308.887573,435.018066  M1334.009766,418.395813   C1329.399292,414.681122 1324.312134,414.195007 1319.167480,416.828156   C1314.283447,419.327911 1312.074585,423.757965 1312.342041,429.156616   C1312.600220,434.366302 1315.194336,438.203735 1320.078247,440.387573   C1325.402832,442.768341 1332.151611,441.166748 1335.814575,436.572815   C1339.979858,431.348877 1339.515869,424.880737 1334.009766,418.395813  z" /><path fill="#10293B" opacity="1.000000" stroke="none" d=" M867.649658,411.398590   C870.670349,416.649780 869.393921,421.056030 865.743225,424.876831   C862.155945,428.631287 857.577087,429.194305 852.815674,427.742065   C848.217407,426.339600 845.838196,420.728699 847.375916,415.876678   C850.002197,407.589539 861.952148,403.969910 867.649658,411.398590  z" /><path fill="#E52076" opacity="1.000000" stroke="none" d=" M926.809204,94.945343   C920.915344,97.944344 915.684082,96.413361 913.616821,91.387413   C911.705872,86.741524 914.441895,81.519112 919.563538,80.036491   C924.041931,78.740074 929.586304,81.909027 929.912720,86.771782   C930.085876,89.350983 928.117371,92.073982 926.809204,94.945343  z" /><path fill="#E7ACC2" opacity="1.000000" stroke="none" d=" M931.376221,163.750839   C931.075134,145.965424 931.081299,127.892097 931.230835,109.361679   C931.582031,110.518730 931.974670,112.133514 931.968994,113.746902   C931.910767,130.319031 931.788147,146.890945 931.376221,163.750839  z" /><path fill="#DB7EA7" opacity="1.000000" stroke="none" d=" M928.109741,111.412758   C928.440979,112.332764 928.997192,113.724274 929.000549,115.117111   C929.040649,131.804077 928.998779,148.491226 928.919678,165.655746   C928.589600,164.735977 928.085815,163.339432 928.082092,161.941544   C928.037598,145.256088 928.067444,128.570465 928.109741,111.412758  z" /><path fill="#D3D5D8" opacity="1.000000" stroke="none" d=" M924.118774,468.964966   C924.366577,469.454834 924.370422,470.015472 924.168945,470.784546   C923.934021,470.340546 923.904419,469.688141 924.118774,468.964966  z" /><path fill="#D3D5D8" opacity="1.000000" stroke="none" d=" M922.272461,479.962158   C922.518677,480.479370 922.503052,481.048157 922.271240,481.814026   C922.040283,481.345337 922.025513,480.679535 922.272461,479.962158  z" /><path fill="#D3D5D8" opacity="1.000000" stroke="none" d=" M921.248291,485.959900   C921.488770,486.473145 921.469727,487.038544 921.239685,487.804932   C921.015320,487.341309 921.002014,486.676697 921.248291,485.959900  z" /><path fill="#D3D5D8" opacity="1.000000" stroke="none" d=" M920.198730,491.956024   C920.434326,492.461090 920.415161,493.020782 920.194519,493.789551   C919.976624,493.335968 919.960327,492.673309 920.198730,491.956024  z" /><path fill="#D3D5D8" opacity="1.000000" stroke="none" d=" M926.110168,455.967926   C926.354004,456.452972 926.357788,457.013214 926.155945,457.781921   C925.923584,457.341278 925.896912,456.692200 926.110168,455.967926  z" /><path fill="#D3D5D8" opacity="1.000000" stroke="none" d=" M918.214050,504.955872   C918.444580,505.461578 918.420105,506.019806 918.197998,506.789062   C917.986572,506.336182 917.972778,505.672302 918.214050,504.955872  z" /><path fill="#FCFDFD" opacity="1.000000" stroke="none" d=" M53.512604,264.378235   C72.255730,257.256104 94.314758,263.504730 106.243835,279.250824   C107.533470,280.953094 108.425667,283.423950 108.444923,285.547913   C108.613922,304.187561 108.570679,322.829529 108.492142,341.470367   C108.485535,343.038422 108.185181,344.904480 107.312187,346.124847   C93.730759,365.110413 64.307007,371.845306 46.178337,358.006775   C34.697128,349.242584 29.880764,336.779419 28.397324,322.994904   C26.592682,306.225616 28.214895,289.851135 39.113415,276.100189   C42.795082,271.454987 48.426331,268.354950 53.512604,264.378235  z" /><path fill="#D3D5D8" opacity="1.000000" stroke="none" d=" M779.318726,492.852539   C778.974976,492.475006 778.780212,491.847961 778.800415,491.108368   C779.166138,491.531555 779.316956,492.067291 779.318726,492.852539  z" /><path fill="#D3D5D8" opacity="1.000000" stroke="none" d=" M780.286987,502.848877   C779.940369,502.488617 779.720093,501.873505 779.706543,501.140137   C780.079834,501.545929 780.246582,502.070007 780.286987,502.848877  z" /><path fill="#D3D5D8" opacity="1.000000" stroke="none" d=" M781.364990,511.842010   C781.015930,511.495697 780.757385,510.881134 780.711426,510.142883   C781.101135,510.537354 781.278320,511.055573 781.364990,511.842010  z" /><path fill="#D3D5D8" opacity="1.000000" stroke="none" d=" M776.585571,466.806702   C776.545044,467.089355 776.081116,467.168518 776.081116,467.168518   C776.081116,467.168518 775.614258,467.108765 775.381836,467.073914   C775.641602,466.867401 776.133850,466.695740 776.585571,466.806702  z" /><path fill="#FAFAFB" opacity="1.000000" stroke="none" d=" M1160.953613,485.771698   C1157.238770,492.542816 1152.612427,497.433899 1144.562622,497.408630   C1138.589722,497.389893 1134.499512,494.650757 1133.261719,488.899384   C1130.902832,477.939362 1132.750000,467.647614 1140.089844,458.933350   C1144.162842,454.097595 1149.870605,452.620819 1155.948120,454.301544   C1161.676270,455.885681 1164.491455,460.619629 1164.257690,466.021515   C1163.976562,472.524353 1162.225952,478.963623 1160.953613,485.771698  z" /><path fill="#F6F6F7" opacity="1.000000" stroke="none" d=" M1054.717651,465.798248   C1058.415527,457.499634 1064.191528,452.632202 1073.226685,452.743744   C1081.564331,452.846680 1086.243164,458.954407 1084.648071,467.957092   C1075.019653,467.957092 1065.286499,467.974609 1055.554443,467.881470   C1055.226807,467.878326 1054.910034,466.759033 1054.717651,465.798248  z" /><path fill="#F2F3F4" opacity="1.000000" stroke="none" d=" M1359.263184,269.359772   C1355.340454,257.398224 1360.837646,245.894913 1371.516602,243.042648   C1383.305054,239.894043 1393.873657,246.234833 1396.456177,258.005768   C1398.530273,267.459076 1392.957275,277.034180 1383.411987,280.417908   C1374.185059,283.688812 1364.364990,279.316650 1359.263184,269.359772  M1381.664307,250.331482   C1378.102661,250.075165 1374.541016,249.818848 1370.547363,249.531433   C1370.547363,253.894623 1370.547241,257.511261 1370.547241,261.127899   C1370.547241,264.719055 1370.547363,268.310181 1370.547363,272.190491   C1378.131470,272.339417 1372.744995,265.561493 1376.673706,263.394318   C1377.949097,265.204407 1379.088013,267.310272 1380.695679,268.958923   C1382.177368,270.478271 1384.162598,271.506531 1385.926025,272.751099   C1386.269653,272.291077 1386.613281,271.831024 1386.956909,271.371002   C1386.132690,269.958008 1385.284058,268.558472 1384.490723,267.128296   C1383.695557,265.694275 1382.955322,264.229675 1382.240601,262.872711   C1386.531860,257.384430 1386.540405,254.986938 1381.664307,250.331482  z" /><path fill="#FDFDFD" opacity="1.000000" stroke="none" d=" M256.993439,301.206696   C233.070114,301.206696 209.645721,301.206696 186.228638,301.206696   C185.941345,281.758118 204.696808,262.246490 224.798508,260.710663   C249.247131,258.842712 268.245422,274.951202 271.706421,301.206696   C266.910461,301.206696 262.201416,301.206696 256.993439,301.206696  z" /><path fill="#FEFDFD" opacity="1.000000" stroke="none" d=" M1205.106445,282.994873   C1206.471313,286.068481 1207.872803,288.746216 1208.772827,291.583069   C1209.669067,294.407745 1210.061890,297.392120 1210.776001,300.784576   C1182.029907,300.784576 1153.700684,300.784576 1125.369263,300.784576   C1125.327881,285.221375 1138.679321,267.398926 1154.989136,262.361938   C1174.316772,256.392914 1195.273804,264.881042 1205.106445,282.994873  z" /><path fill="#FEFDFD" opacity="1.000000" stroke="none" d=" M796.111206,327.339325   C801.301758,317.815918 809.114319,312.957947 819.476440,312.004486   C833.908508,310.676605 846.950256,313.839020 857.588684,324.166077   C859.054749,325.589264 860.078735,328.069672 860.222107,330.135956   C860.589783,335.433868 859.944336,340.813477 860.459656,346.086578   C860.979614,351.407043 858.881287,355.027069 854.853882,357.921509   C842.042297,367.129150 827.824219,369.995056 812.748535,365.649170   C796.044067,360.833649 788.978882,344.110718 796.111206,327.339325  z" /><path fill="#EDEEEF" opacity="1.000000" stroke="none" d=" M1334.279053,418.658875   C1339.515869,424.880737 1339.979858,431.348877 1335.814575,436.572815   C1332.151611,441.166748 1325.402832,442.768341 1320.078247,440.387573   C1315.194336,438.203735 1312.600220,434.366302 1312.342041,429.156616   C1312.074585,423.757965 1314.283447,419.327911 1319.167480,416.828156   C1324.312134,414.195007 1329.399292,414.681122 1334.279053,418.658875  M1332.694946,426.825104   C1333.728638,423.644196 1333.088989,420.675903 1329.575562,420.358612   C1326.507446,420.081604 1321.300171,420.440460 1320.549316,422.103638   C1318.683228,426.236755 1318.821411,431.274750 1318.154785,435.949371   C1318.686279,436.220612 1319.217773,436.491882 1319.749268,436.763153   C1320.562866,435.640045 1321.357910,434.502777 1322.196411,433.398499   C1322.829468,432.564636 1323.517944,431.772919 1324.181885,430.962463   C1324.952515,431.681946 1326.087891,432.262909 1326.423828,433.147522   C1327.349731,435.585480 1328.334473,437.377686 1329.997681,436.435150   C1330.952393,432.691040 1331.613770,430.097534 1332.694946,426.825104  z" /><path fill="#1D3445" opacity="1.000000" stroke="none" d=" M1382.052612,250.520935   C1386.540405,254.986938 1386.531860,257.384430 1382.240601,262.872711   C1382.955322,264.229675 1383.695557,265.694275 1384.490723,267.128296   C1385.284058,268.558472 1386.132690,269.958008 1386.956909,271.371002   C1386.613281,271.831024 1386.269653,272.291077 1385.926025,272.751099   C1384.162598,271.506531 1382.177368,270.478271 1380.695679,268.958923   C1379.088013,267.310272 1377.949097,265.204407 1376.673706,263.394318   C1372.744995,265.561493 1378.131470,272.339417 1370.547363,272.190491   C1370.547363,268.310181 1370.547241,264.719055 1370.547241,261.127899   C1370.547241,257.511261 1370.547363,253.894623 1370.547363,249.531433   C1374.541016,249.818848 1378.102661,250.075165 1382.052612,250.520935  M1377.973145,259.802979   C1378.909546,258.359985 1379.845947,256.917023 1380.782227,255.474030   C1379.043579,254.762085 1377.304932,254.050125 1375.566406,253.338165   C1375.086670,253.838333 1374.606934,254.338516 1374.127197,254.838684   C1375.133057,256.537170 1376.138916,258.235657 1377.973145,259.802979  z" /><path fill="#1D3445" opacity="1.000000" stroke="none" d=" M1332.485107,427.164551   C1331.613770,430.097534 1330.952393,432.691040 1329.997681,436.435150   C1328.334473,437.377686 1327.349731,435.585480 1326.423828,433.147522   C1326.087891,432.262909 1324.952515,431.681946 1324.181885,430.962463   C1323.517944,431.772919 1322.829468,432.564636 1322.196411,433.398499   C1321.357910,434.502777 1320.562866,435.640045 1319.749268,436.763153   C1319.217773,436.491882 1318.686279,436.220612 1318.154785,435.949371   C1318.821411,431.274750 1318.683228,426.236755 1320.549316,422.103638   C1321.300171,420.440460 1326.507446,420.081604 1329.575562,420.358612   C1333.088989,420.675903 1333.728638,423.644196 1332.485107,427.164551  M1326.355225,427.980286   C1327.232300,426.821411 1328.109253,425.662537 1328.986206,424.503662   C1327.942505,423.950897 1326.845947,422.894409 1325.871216,422.996887   C1325.014893,423.086914 1323.714111,424.449066 1323.675537,425.297791   C1323.635498,426.177460 1324.877075,427.115356 1326.355225,427.980286  z" /><path fill="#EDEEEF" opacity="1.000000" stroke="none" d=" M1377.558960,259.868530   C1376.138916,258.235657 1375.133057,256.537170 1374.127197,254.838684   C1374.606934,254.338516 1375.086670,253.838333 1375.566406,253.338165   C1377.304932,254.050125 1379.043579,254.762085 1380.782227,255.474030   C1379.845947,256.917023 1378.909546,258.359985 1377.558960,259.868530  z" /><path fill="#D3D5D8" opacity="1.000000" stroke="none" d=" M1325.956543,428.004028   C1324.877075,427.115356 1323.635498,426.177460 1323.675537,425.297791   C1323.714111,424.449066 1325.014893,423.086914 1325.871216,422.996887   C1326.845947,422.894409 1327.942505,423.950897 1328.986206,424.503662   C1328.109253,425.662537 1327.232300,426.821411 1325.956543,428.004028  z" /></svg>