<svg version="1.1" id="Layer_1" xmlns="http://www.w3.org/2000/svg" xmlns:xlink="http://www.w3.org/1999/xlink" x="0px" y="0px" width="56" viewBox="0 0 768 542" enable-background="new 0 0 768 542" xml:space="preserve" height="40"><path fill="#1576D4" opacity="1.000000" stroke="none" d=" M461.000000,543.000000   C332.645782,543.000000 204.291550,543.000000 75.301376,542.635132   C67.071892,539.988098 59.006680,538.675110 51.969288,535.250183   C26.285690,522.750671 9.756520,502.478607 2.929757,474.533447   C2.698847,473.588226 1.661475,472.840027 1.000006,472.000000   C1.000000,459.979095 1.000000,447.958221 1.363669,435.342896   C2.118665,434.230804 2.761153,433.758789 2.864776,433.188812   C5.820122,416.933563 13.210613,403.029907 25.018782,391.507690   C33.330818,383.396942 41.778435,375.425385 50.132954,367.357971   C60.884438,356.976044 71.613251,346.570587 82.333694,336.156586   C94.846588,324.001434 107.332207,311.818176 119.844032,299.661896   C130.683014,289.130920 141.544159,278.622742 152.391708,268.100555   C163.717529,257.114410 175.089478,246.175186 186.346054,235.118530   C195.379776,226.245270 204.379791,217.332458 213.195831,208.244232   C222.341690,198.816040 226.300812,186.894058 225.728409,174.256317   C225.132538,161.100464 219.790100,149.486374 209.744675,140.115280   C186.370560,118.310211 149.215683,124.117027 133.396667,152.624603   C129.269699,160.061859 127.904808,169.031784 125.047623,178.000000   C84.590408,178.000000 42.795204,178.000000 1.000000,178.000000   C1.000000,170.979050 1.000000,163.958099 1.322194,156.361725   C1.429592,154.857529 1.214796,153.928757 1.000000,153.000000   C1.000000,152.555557 1.000000,152.111099 1.370770,151.200775   C3.161804,144.789352 4.543778,138.834335 6.008783,132.899811   C13.392720,102.988579 27.787077,76.864105 48.990620,54.590252   C65.300652,37.456924 84.396698,24.048420 106.301353,15.096433   C116.448975,10.949307 127.140862,8.063968 137.712662,5.051059   C144.014755,3.254996 150.562622,2.321347 157.000000,1.000000   C169.687561,1.000000 182.375122,1.000000 195.714386,1.374905   C200.280136,2.189368 204.265594,2.297781 208.096298,3.123910   C228.224899,7.464836 247.601349,13.833063 265.301361,24.691294   C284.631836,36.549770 301.494080,51.041939 315.129150,69.323784   C327.446503,85.838829 336.274048,103.917984 342.356384,123.566200   C347.040100,138.696411 349.725800,154.194931 349.718597,169.831818   C349.711975,184.205887 348.073517,198.694672 345.832275,212.924744   C342.612061,233.370667 334.671570,252.252579 323.691650,269.807129   C312.800323,287.220001 298.992889,302.014648 283.868530,315.879059   C266.969971,331.369843 251.004227,347.876709 234.587387,363.895111   C224.846725,373.399353 215.044205,382.840576 205.219772,392.258270   C200.204285,397.066071 195.114639,401.798187 189.991501,406.491364   C186.437790,409.746826 182.769760,412.877502 178.090240,417.000000   C181.524231,417.000000 183.318619,417.000000 185.113007,417.000000   C239.750870,417.000000 294.388733,417.000000 349.026581,417.000000   C358.139709,417.000000 358.207794,416.978851 360.893250,425.622498   C367.232758,446.027649 376.787628,464.828247 389.530334,481.925995   C401.086884,497.432129 414.259003,511.473785 430.186615,522.613281   C440.275574,529.669373 450.716766,536.221741 461.000000,543.000000  z" /><path fill="#FFFFFF" opacity="1.000000" stroke="none" d=" M461.468658,543.000000   C450.716766,536.221741 440.275574,529.669373 430.186615,522.613281   C414.259003,511.473785 401.086884,497.432129 389.530334,481.925995   C376.787628,464.828247 367.232758,446.027649 360.893250,425.622498   C358.207794,416.978851 358.139709,417.000000 349.026581,417.000000   C294.388733,417.000000 239.750870,417.000000 185.113007,417.000000   C183.318619,417.000000 181.524231,417.000000 178.090240,417.000000   C182.769760,412.877502 186.437790,409.746826 189.991501,406.491364   C195.114639,401.798187 200.204285,397.066071 205.219772,392.258270   C215.044205,382.840576 224.846725,373.399353 234.587387,363.895111   C251.004227,347.876709 266.969971,331.369843 283.868530,315.879059   C298.992889,302.014648 312.800323,287.220001 323.691650,269.807129   C334.671570,252.252579 342.612061,233.370667 345.832275,212.924744   C348.073517,198.694672 349.711975,184.205887 349.718597,169.831818   C349.725800,154.194931 347.040100,138.696411 342.356384,123.566200   C336.274048,103.917984 327.446503,85.838829 315.129150,69.323784   C301.494080,51.041939 284.631836,36.549770 265.301361,24.691294   C247.601349,13.833063 228.224899,7.464836 208.096298,3.123910   C204.265594,2.297781 200.280136,2.189368 196.183044,1.374905   C386.921600,1.000000 577.843201,1.000000 769.000000,1.000000   C769.000000,164.687485 769.000000,328.375092 768.658325,492.400818   C767.949890,492.009521 767.468018,491.315216 767.233215,490.545593   C761.441956,471.558472 739.894348,461.788361 722.765320,465.946106   C700.679932,471.306946 688.789917,493.350250 694.495850,513.826477   C698.908875,529.662964 712.795288,541.291016 730.704163,541.199463   C745.033447,541.126160 755.498840,535.261841 763.424927,523.973816   C765.602112,520.873108 767.158630,517.336548 769.000000,514.000000   C769.000000,523.654114 769.000000,533.308228 769.000000,543.000000   C666.645752,543.000000 564.291565,543.000000 461.468658,543.000000  M369.000000,31.500000   C369.000000,146.332489 368.987885,261.164978 369.044312,375.997437   C369.046570,380.595032 369.083832,385.342255 370.162140,389.761780   C373.505646,403.465088 376.516663,417.341644 381.202087,430.605072   C389.444855,453.938660 403.490875,473.973846 421.041687,491.166504   C430.081024,500.021332 440.667786,507.481140 451.237701,514.551025   C474.295105,529.973389 500.131409,538.644226 527.595398,540.736450   C553.587524,542.716614 579.395081,540.637329 604.273376,531.137329   C630.510986,521.118286 653.431641,506.616638 672.684937,485.996277   C687.399780,470.236633 698.762756,452.578278 707.077881,432.774841   C714.537659,415.008575 719.717102,396.453217 719.782837,377.345673   C720.207031,253.847900 720.000000,130.347961 720.000000,6.848750   C720.000000,5.275810 720.000000,3.702870 720.000000,2.280314   C677.585999,2.280314 635.982300,2.280314 594.000000,2.280314   C594.000000,4.521706 594.000000,6.487346 594.000000,8.452986   C594.000000,130.118881 594.039124,251.784821 593.945435,373.450653   C593.934937,387.073456 588.081116,398.767456 578.398804,407.795105   C566.130188,419.234100 551.270142,423.314575 534.389343,420.095459   C512.391174,415.900543 495.100372,395.187225 495.072998,373.299225   C494.920837,251.633514 495.000000,129.967514 495.000000,8.301620   C495.000000,6.349424 495.000000,4.397228 495.000000,2.296978   C452.790131,2.296978 411.068298,2.296978 369.000000,2.296978   C369.000000,11.893812 369.000000,21.196907 369.000000,31.500000  z" /><path fill="#FFFFFF" opacity="1.000000" stroke="none" d=" M1.000000,178.468658   C42.795204,178.000000 84.590408,178.000000 125.047623,178.000000   C127.904808,169.031784 129.269699,160.061859 133.396667,152.624603   C149.215683,124.117027 186.370560,118.310211 209.744675,140.115280   C219.790100,149.486374 225.132538,161.100464 225.728409,174.256317   C226.300812,186.894058 222.341690,198.816040 213.195831,208.244232   C204.379791,217.332458 195.379776,226.245270 186.346054,235.118530   C175.089478,246.175186 163.717529,257.114410 152.391708,268.100555   C141.544159,278.622742 130.683014,289.130920 119.844032,299.661896   C107.332207,311.818176 94.846588,324.001434 82.333694,336.156586   C71.613251,346.570587 60.884438,356.976044 50.132954,367.357971   C41.778435,375.425385 33.330818,383.396942 25.018782,391.507690   C13.210613,403.029907 5.820122,416.933563 2.864776,433.188812   C2.761153,433.758789 2.118665,434.230804 1.363669,434.874268   C1.000000,349.645782 1.000000,264.291534 1.000000,178.468658  z" /><path fill="#FFFFFF" opacity="1.000000" stroke="none" d=" M156.531342,1.000000   C150.562622,2.321347 144.014755,3.254996 137.712662,5.051059   C127.140862,8.063968 116.448975,10.949307 106.301353,15.096433   C84.396698,24.048420 65.300652,37.456924 48.990620,54.590252   C27.787077,76.864105 13.392720,102.988579 6.008783,132.899811   C4.543778,138.834335 3.161804,144.789352 1.370770,150.867462   C1.000000,101.071571 1.000000,51.143147 1.000000,1.000000   C52.687363,1.000000 104.375023,1.000000 156.531342,1.000000  z" /><path fill="#FFFFFF" opacity="1.000000" stroke="none" d=" M1.000006,472.468658   C1.661475,472.840027 2.698847,473.588226 2.929757,474.533447   C9.756520,502.478607 26.285690,522.750671 51.969288,535.250183   C59.006680,538.675110 67.071892,539.988098 74.832718,542.635132   C50.407982,543.000000 25.815964,543.000000 1.000000,543.000000   C1.000000,519.646240 1.000000,496.291779 1.000006,472.468658  z" /><path fill="#1576D4" opacity="1.000000" stroke="none" d=" M769.000000,513.531494   C767.158630,517.336548 765.602112,520.873108 763.424927,523.973816   C755.498840,535.261841 745.033447,541.126160 730.704163,541.199463   C712.795288,541.291016 698.908875,529.662964 694.495850,513.826477   C688.789917,493.350250 700.679932,471.306946 722.765320,465.946106   C739.894348,461.788361 761.441956,471.558472 767.233215,490.545593   C767.468018,491.315216 767.949890,492.009521 768.658325,492.869446   C769.000000,499.687653 769.000000,506.375275 769.000000,513.531494  M743.456421,472.888031   C738.707825,471.927216 733.824524,469.720245 729.233521,470.216797   C706.801270,472.642914 693.750000,493.567535 700.744385,514.387390   C706.137390,530.440369 720.867554,538.842224 737.669983,535.683289   C752.058838,532.978088 763.593323,520.869873 763.849121,504.289368   C764.068970,490.035919 757.495117,479.236572 743.456421,472.888031  z" /><path fill="#FFFFFF" opacity="1.000000" stroke="none" d=" M1.000000,153.375000   C1.214796,153.928757 1.429592,154.857529 1.322194,155.893143   C1.000000,155.250000 1.000000,154.500000 1.000000,153.375000  z" /><path fill="#1576D4" opacity="1.000000" stroke="none" d=" M369.000000,31.000000   C369.000000,21.196907 369.000000,11.893812 369.000000,2.296978   C411.068298,2.296978 452.790131,2.296978 495.000000,2.296978   C495.000000,4.397228 495.000000,6.349424 495.000000,8.301620   C495.000000,129.967514 494.920837,251.633514 495.072998,373.299225   C495.100372,395.187225 512.391174,415.900543 534.389343,420.095459   C551.270142,423.314575 566.130188,419.234100 578.398804,407.795105   C588.081116,398.767456 593.934937,387.073456 593.945435,373.450653   C594.039124,251.784821 594.000000,130.118881 594.000000,8.452986   C594.000000,6.487346 594.000000,4.521706 594.000000,2.280314   C635.982300,2.280314 677.585999,2.280314 720.000000,2.280314   C720.000000,3.702870 720.000000,5.275810 720.000000,6.848750   C720.000000,130.347961 720.207031,253.847900 719.782837,377.345673   C719.717102,396.453217 714.537659,415.008575 707.077881,432.774841   C698.762756,452.578278 687.399780,470.236633 672.684937,485.996277   C653.431641,506.616638 630.510986,521.118286 604.273376,531.137329   C579.395081,540.637329 553.587524,542.716614 527.595398,540.736450   C500.131409,538.644226 474.295105,529.973389 451.237701,514.551025   C440.667786,507.481140 430.081024,500.021332 421.041687,491.166504   C403.490875,473.973846 389.444855,453.938660 381.202087,430.605072   C376.516663,417.341644 373.505646,403.465088 370.162140,389.761780   C369.083832,385.342255 369.046570,380.595032 369.044312,375.997437   C368.987885,261.164978 369.000000,146.332489 369.000000,31.000000  z" /><path fill="#FFFFFF" opacity="1.000000" stroke="none" d=" M743.842041,472.967285   C757.495117,479.236572 764.068970,490.035919 763.849121,504.289368   C763.593323,520.869873 752.058838,532.978088 737.669983,535.683289   C720.867554,538.842224 706.137390,530.440369 700.744385,514.387390   C693.750000,493.567535 706.801270,472.642914 729.233521,470.216797   C733.824524,469.720245 738.707825,471.927216 743.842041,472.967285  M747.659668,501.834839   C751.323364,493.954254 748.226501,485.154541 739.443787,483.968109   C731.849426,482.942230 724.102234,483.048157 716.304688,482.647705   C716.304688,496.270721 716.304688,508.994324 716.304688,521.641418   C719.014343,521.641418 721.399109,521.641418 724.103882,521.641418   C724.103882,517.339783 724.103882,513.390381 724.103882,509.606842   C731.528809,506.626404 733.867798,512.295166 736.800842,516.552307   C740.965942,522.597595 742.836365,523.370422 750.077026,521.034607   C747.037537,516.581848 744.035217,512.183533 741.032898,507.785217   C741.669434,508.369141 742.305969,508.953033 742.942505,509.536957   C744.338623,507.166412 745.734741,504.795868 747.659668,501.834839  z" /><path fill="#1576D4" opacity="1.000000" stroke="none" d=" M747.395264,502.130066   C745.734741,504.795868 744.338623,507.166412 742.942505,509.536957   C742.305969,508.953033 741.669434,508.369141 741.032898,507.785217   C744.035217,512.183533 747.037537,516.581848 750.077026,521.034607   C742.836365,523.370422 740.965942,522.597595 736.800842,516.552307   C733.867798,512.295166 731.528809,506.626404 724.103882,509.606842   C724.103882,513.390381 724.103882,517.339783 724.103882,521.641418   C721.399109,521.641418 719.014343,521.641418 716.304688,521.641418   C716.304688,508.994324 716.304688,496.270721 716.304688,482.647705   C724.102234,483.048157 731.849426,482.942230 739.443787,483.968109   C748.226501,485.154541 751.323364,493.954254 747.395264,502.130066  M727.549927,490.000519   C725.309082,489.770386 723.714172,490.075043 723.951660,493.033142   C724.183655,495.921356 724.002136,498.842834 724.002136,501.976898   C727.924194,501.976898 731.262024,502.357910 734.464844,501.864014   C737.359558,501.417633 740.072754,500.130341 740.044373,496.230194   C740.019531,492.809418 738.709778,491.047119 735.153198,490.915161   C732.916748,490.832184 730.696167,490.319794 727.549927,490.000519  z" /><path fill="#FFFFFF" opacity="1.000000" stroke="none" d=" M728.009216,490.000305   C730.696167,490.319794 732.916748,490.832184 735.153198,490.915161   C738.709778,491.047119 740.019531,492.809418 740.044373,496.230194   C740.072754,500.130341 737.359558,501.417633 734.464844,501.864014   C731.262024,502.357910 727.924194,501.976898 724.002136,501.976898   C724.002136,498.842834 724.183655,495.921356 723.951660,493.033142   C723.714172,490.075043 725.309082,489.770386 728.009216,490.000305  z" /></svg>