<?xml version="1.0" encoding="UTF-8"?>
<svg id="Layer_1" data-name="Layer 1" xmlns="http://www.w3.org/2000/svg" viewBox="0 0 133.65 122.02">
  <defs>
    <style>
      .cls-1 {
        stroke-width: 2px;
      }

      .cls-1, .cls-2, .cls-3, .cls-4 {
        fill: none;
        stroke: #1b1b1b;
        stroke-linecap: round;
        stroke-linejoin: round;
      }

      .cls-2 {
        stroke-width: 2.08px;
      }

      .cls-3 {
        stroke-width: 2.04px;
      }

      .cls-4 {
        stroke-width: 2.14px;
      }

      .cls-5 {
        fill: #2546f0;
        stroke-width: 0px;
      }
    </style>
  </defs>
  <g>
    <path class="cls-1" d="m47.93,1.01c-8.63,0-15.63,7-15.63,15.63h0c0,.81.07,1.61.2,2.4-2.11-1.03-4.42-1.56-6.76-1.56-8.64,0-15.63,7-15.63,15.64,0,4.66,2.08,9.07,5.67,12.04-8.61.46-15.21,7.81-14.75,16.42.43,7.96,6.79,14.33,14.75,14.75-6.66,5.48-7.62,15.32-2.14,21.98,4.58,5.57,12.37,7.28,18.86,4.14-.12.79-.19,1.59-.2,2.39-.29,8.63,6.47,15.86,15.1,16.16s15.86-6.47,16.16-15.1c.01-.35.01-.7,0-1.06V16.65c0-8.63-7-15.63-15.63-15.64Z"/>
    <line class="cls-4" x1="62.56" y1="61.01" x2="21.6" y2="61.01"/>
    <circle class="cls-5" cx="17.63" cy="61.01" r="5.85"/>
    <polyline class="cls-3" points="47.92 21.61 47.92 50.34 63.56 50.34"/>
    <circle class="cls-5" cx="47.92" cy="15.54" r="5.85"/>
    <line class="cls-3" x1="47.92" y1="103.91" x2="47.92" y2="121"/>
    <circle class="cls-5" cx="47.92" cy="98.83" r="5.85"/>
    <polyline class="cls-2" points="29.51 84.98 43.14 71.68 62.5 71.68"/>
    <circle class="cls-5" cx="28.71" cy="86.85" r="5.85"/>
    <polyline class="cls-3" points="15.78 45.16 23.69 45.16 32.28 36.94"/>
    <circle class="cls-5" cx="34.4" cy="34.84" r="5.85"/>
  </g>
  <g>
    <path class="cls-1" d="m85.72,121.01c8.63,0,15.63-7,15.63-15.63h0c0-.81-.07-1.61-.2-2.4,2.11,1.03,4.42,1.56,6.76,1.56,8.64,0,15.63-7,15.63-15.64,0-4.66-2.08-9.07-5.67-12.04,8.61-.46,15.21-7.81,14.75-16.42-.43-7.96-6.79-14.33-14.75-14.75,6.66-5.48,7.62-15.32,2.14-21.98-4.58-5.57-12.37-7.28-18.86-4.14.12-.79.19-1.59.2-2.39.29-8.63-6.47-15.86-15.1-16.16s-15.86,6.47-16.16,15.1c-.01.35-.01.7,0,1.06v88.2c0,8.63,7,15.63,15.63,15.64Z"/>
    <line class="cls-4" x1="71.09" y1="61.01" x2="112.05" y2="61.01"/>
    <circle class="cls-5" cx="116.02" cy="61.01" r="5.85"/>
    <polyline class="cls-3" points="85.73 100.41 85.73 71.68 70.09 71.68"/>
    <circle class="cls-5" cx="85.73" cy="106.48" r="5.85"/>
    <line class="cls-3" x1="85.73" y1="18.11" x2="85.73" y2="1.02"/>
    <circle class="cls-5" cx="85.73" cy="23.18" r="5.85"/>
    <polyline class="cls-2" points="104.14 37.04 90.51 50.34 71.15 50.34"/>
    <circle class="cls-5" cx="104.94" cy="35.17" r="5.85"/>
    <polyline class="cls-3" points="117.87 76.86 109.96 76.86 101.37 85.08"/>
    <circle class="cls-5" cx="99.25" cy="87.18" r="5.85"/>
  </g>
</svg>