<?xml version="1.0" encoding="UTF-8"?>
<svg id="Layer_1" data-name="Layer 1" xmlns="http://www.w3.org/2000/svg" viewBox="0 0 104.67 98.05">
  <defs>
    <style>
      .cls-1 {
        fill: none;
        stroke: #1b1b1b;
        stroke-linecap: round;
        stroke-linejoin: round;
        stroke-width: 2px;
      }

      .cls-2 {
        fill: #2546f0;
        stroke-width: 0px;
      }
    </style>
  </defs>
  <circle class="cls-2" cx="15" cy="24.01" r="7.5"/>
  <circle class="cls-2" cx="7.5" cy="54.47" r="7.5"/>
  <circle class="cls-2" cx="35" cy="9.26" r="7.5"/>
  <circle class="cls-2" cx="42" cy="28.58" r="7.5"/>
  <circle class="cls-2" cx="28.78" cy="46.97" r="7.5"/>
  <circle class="cls-1" cx="74.5" cy="39.47" r="7.5"/>
  <circle class="cls-1" cx="75.11" cy="8.5" r="7.5"/>
  <circle class="cls-1" cx="96.17" cy="28.58" r="7.5"/>
  <circle class="cls-1" cx="95.73" cy="60.04" r="7.5"/>
  <g>
    <circle class="cls-1" cx="53.67" cy="68.6" r="7.5"/>
    <line class="cls-1" x1="58.97" y1="63.3" x2="48.36" y2="73.9"/>
    <line class="cls-1" x1="48.36" y1="63.3" x2="58.97" y2="73.9"/>
  </g>
  <g>
    <circle class="cls-1" cx="34.28" cy="83.89" r="7.5"/>
    <line class="cls-1" x1="39.58" y1="78.59" x2="28.98" y2="89.2"/>
    <line class="cls-1" x1="28.98" y1="78.59" x2="39.58" y2="89.2"/>
  </g>
  <g>
    <circle class="cls-1" cx="70.11" cy="89.55" r="7.5"/>
    <line class="cls-1" x1="75.41" y1="84.24" x2="64.8" y2="94.85"/>
    <line class="cls-1" x1="64.8" y1="84.24" x2="75.41" y2="94.85"/>
  </g>
</svg>