<?xml version="1.0" encoding="UTF-8"?><svg id="Isolation_Mode" xmlns="http://www.w3.org/2000/svg" viewBox="0 0 40 40"><defs><style>.cls-1{fill:#000440;}.cls-2{fill:#fff;}.cls-3{fill:#e5e5e5;}.cls-4{fill:#65b0db;}.cls-5{fill:#d89d29;}</style></defs><circle class="cls-2" cx="20" cy="20" r="20"/><g><circle class="cls-1" cx="20" cy="20" r="18"/><path class="cls-3" d="M31.11,21.18h-1.16c-.21-2.44-2.27-4.3-4.71-4.28-.29,0-.59,.02-.88,.08-.3-2.94-2.93-5.08-5.87-4.79-2.69,.27-4.75,2.5-4.81,5.2-.48-.16-.99-.25-1.5-.25-2.52-.05-4.6,1.94-4.66,4.46-.05,2.25,1.55,4.2,3.77,4.59,1.93,.37,3.94,.22,5.91,.22h13.89c1.44-.11,2.53-1.37,2.42-2.81-.09-1.22-1.02-2.22-2.24-2.4l-.17-.03Z"/><circle class="cls-4" cx="10.81" cy="12.94" r="1.98"/><circle class="cls-4" cx="25.58" cy="10.96" r="1.98"/><circle class="cls-4" cx="17.27" cy="8.4" r="1.25"/><circle class="cls-4" cx="29.33" cy="14.4" r="1.25"/><circle class="cls-4" cx="32.26" cy="19.03" r=".87"/><circle class="cls-4" cx="7.79" cy="16.24" r=".71"/><circle class="cls-4" cx="33.33" cy="16.01" r=".48"/><circle class="cls-4" cx="21.09" cy="9.08" r=".57"/><path class="cls-5" d="M24.53,31.03s-5.7,1.35-6.82-6.67h-1.2l2.93-4.58,2.87,4.55h-1.15s-.3,4.99,3.37,6.69Z"/></g></svg>