<!-- Generator: Adobe Illustrator 24.1.2, SVG Export Plug-In  -->
<svg version="1.1" xmlns="http://www.w3.org/2000/svg" xmlns:xlink="http://www.w3.org/1999/xlink" x="0px" y="0px" width="45.7px"
	 height="58.5px" viewBox="0 0 45.7 58.5" style="overflow:visible;enable-background:new 0 0 45.7 58.5;" xml:space="preserve">
<style type="text/css">
	.st0{fill:#000440;}
	.st1{fill:#D6EAF6;}
	.st2{fill:#8C8C8C;}
	.st3{fill:#FFFFFF;}
	.st4{fill:#4BA5D7;}
	.st5{fill:#A7A6A6;}
	.st6{fill:#4BA5D7;stroke:#000440;stroke-miterlimit:10;}
	.st7{fill:#A7A6A6;stroke:#000440;stroke-miterlimit:10;}
</style>
<defs>
</defs>
<g>
	<g>
		<g>
			<g>
				<g>
					<g>
						<g>
							<path class="st0" d="M45.7,50.7l-2-11.3c-0.3-1.5-1.3-2.8-2.7-3.4l-12.4-5.1l-5.8,5.8l-5.8-5.8L4.7,36
								c-1.4,0.6-2.4,1.9-2.7,3.4L0,50.7c0,0,6.4,7.8,22.8,7.8S45.7,50.7,45.7,50.7z"/>
							<path class="st1" d="M29.4,58l1.3-26.2h-3l-4.9,5l-4.9-5h-3L16.3,58c2,0.3,4.1,0.4,6.5,0.4C25.2,58.5,27.4,58.3,29.4,58z"/>
							<polygon class="st2" points="22.8,36.6 28.6,30.9 28.6,24.1 17.1,24.1 17.1,30.9 							"/>
							<polygon class="st3" points="22.8,36.6 18.7,40 15,31.8 17.1,30 							"/>
							<polygon class="st3" points="22.8,36.6 26.9,40 30.7,31.8 28.6,30 							"/>
							<polygon class="st4" points="25.5,38.8 24.2,41.5 22.8,41.5 21.4,41.5 20.2,38.8 22.8,36.6 							"/>
							<path class="st4" d="M22.8,58.5c1.3,0,2.6-0.1,3.7-0.1l-2.3-16.9l-1.4,0l-1.4,0l-2.3,16.9C20.3,58.4,21.5,58.5,22.8,58.5z"/>
						</g>
					</g>
					<path class="st2" d="M33.8,19.8H12.3c-1.6,0-3-1.3-3-3l0-6.7c0-1.6,1.3-3,3-3h21.5c1.6,0,3,1.3,3,3v6.7
						C36.8,18.4,35.5,19.8,33.8,19.8z"/>
					<g>
						<path class="st5" d="M11.7,19.4c0.3,6,5.4,10.8,11.4,10.8c5.9,0,10.9-4.8,11.2-10.8c0-7.5,0-0.6,0-8.2
							C34.2,4.9,28.9-0.1,22.8,0c-6,0.1-11,5.1-11.1,11.2C11.7,18.7,11.7,11.8,11.7,19.4z"/>
					</g>
				</g>
				<g>
					<circle class="st5" cx="34.4" cy="18.1" r="4"/>
					<circle class="st5" cx="11.7" cy="18.1" r="4"/>
					<line class="st6" x1="11.7" y1="15.1" x2="34.4" y2="15.1"/>
					<path class="st7" d="M20.7,18h-5.6c-0.6,0-1-0.4-1-1v-3.7c0-0.6,0.4-1,1-1h5.6c0.6,0,1,0.4,1,1V17C21.7,17.5,21.3,18,20.7,18z"
						/>
					<path class="st7" d="M30.9,18h-5.6c-0.6,0-1-0.4-1-1v-3.7c0-0.6,0.4-1,1-1h5.6c0.6,0,1,0.4,1,1V17C31.9,17.5,31.4,18,30.9,18z"
						/>
				</g>
			</g>
		</g>
	</g>
</g>
</svg>
