<?xml version="1.0" encoding="UTF-8"?><svg id="Content" xmlns="http://www.w3.org/2000/svg" xmlns:xlink="http://www.w3.org/1999/xlink" viewBox="0 0 594.08 395.33"><defs><style>.cls-1,.cls-2,.cls-3,.cls-4,.cls-5,.cls-6,.cls-7,.cls-8,.cls-9,.cls-10,.cls-11,.cls-12,.cls-13,.cls-14,.cls-15,.cls-16,.cls-17,.cls-18,.cls-19,.cls-20,.cls-21,.cls-22,.cls-23,.cls-24,.cls-25{fill:none;}.cls-26{fill:url(#linear-gradient);opacity:.8;}.cls-2,.cls-3,.cls-27,.cls-4,.cls-5,.cls-6,.cls-7,.cls-8,.cls-9,.cls-10,.cls-11,.cls-12,.cls-13,.cls-14,.cls-15,.cls-16,.cls-28,.cls-29,.cls-17,.cls-18,.cls-19,.cls-20,.cls-21,.cls-22,.cls-23,.cls-24,.cls-25{stroke-miterlimit:10;}.cls-2,.cls-3,.cls-10,.cls-11{stroke:#072f69;}.cls-2,.cls-28,.cls-29{stroke-width:.76px;}.cls-3{stroke-width:.38px;}.cls-30{clip-path:url(#clippath);}.cls-27,.cls-31,.cls-28{fill:#0e5b90;}.cls-27,.cls-12,.cls-13,.cls-22{stroke-width:.6px;}.cls-27,.cls-28{stroke:#0e5b90;}.cls-32{opacity:.06;}.cls-33{opacity:.1;}.cls-34{fill:#02124e;}.cls-35{fill:#000440;}.cls-36{fill:#fff;}.cls-37{fill:#e4e4e4;}.cls-38{fill:#96cae6;}.cls-39{fill:#979797;}.cls-40{fill:#7f9cad;}.cls-41{fill:#666;}.cls-42{fill:#65b0db;}.cls-43{fill:#8c8c8c;}.cls-44{fill:#a6aabe;}.cls-45{fill:#b1b1b1;}.cls-46{fill:#cacaca;}.cls-47{fill:#d6d6d6;}.cls-48{fill:#d89d29;}.cls-49{fill:#10699e;}.cls-50{fill:#093e77;}.cls-51,.cls-29{fill:#0b4c83;}.cls-52{fill:#072f69;}.cls-53{fill:#1872a6;}.cls-54{fill:#4494c2;}.cls-55{fill:gray;}.cls-56{fill:#2981b6;}.cls-57{fill:#2b88bf;}.cls-58{fill:#3898d1;}.cls-59{fill:#6093b6;}.cls-60{fill:#4ba3d5;}.cls-61{fill:#4d4d4d;}.cls-4{stroke-width:1.28px;}.cls-4,.cls-29{stroke:#0b4c83;}.cls-5{stroke:#cacaca;stroke-width:20.42px;}.cls-6{stroke:#68708b;stroke-width:.47px;}.cls-7,.cls-8{stroke-width:.18px;}.cls-7,.cls-19{stroke:#4ba3d5;}.cls-8,.cls-20{stroke:#3898d1;}.cls-62{clip-path:url(#clippath-1);}.cls-63{fill:url(#New_Gradient_Swatch_1);}.cls-9{stroke:#093e77;stroke-width:.51px;}.cls-10{stroke-width:.2px;}.cls-11{stroke-width:.4px;}.cls-12,.cls-13,.cls-17,.cls-21,.cls-23{stroke:#212b5c;}.cls-12,.cls-14,.cls-25{stroke-linecap:round;}.cls-14{stroke:#10699e;stroke-width:.61px;}.cls-15{stroke-width:.62px;}.cls-15,.cls-18,.cls-22,.cls-24{opacity:.3;stroke:#ebedf0;}.cls-16{stroke:#202c5b;stroke-width:.91px;}.cls-17{stroke-width:.23px;}.cls-18{stroke-width:.59px;}.cls-19,.cls-20{stroke-width:.34px;}.cls-64{fill:url(#New_Gradient_Swatch_1-5);}.cls-65{fill:url(#New_Gradient_Swatch_1-2);}.cls-66{fill:url(#New_Gradient_Swatch_1-3);}.cls-67{fill:url(#New_Gradient_Swatch_1-4);}.cls-21{stroke-width:.66px;}.cls-23{stroke-width:.45px;}.cls-24{stroke-width:1.04px;}.cls-25{stroke:#356d8f;stroke-width:.35px;}</style><clipPath id="clippath"><rect class="cls-1" x="146.94" y="32.83" width="339.9" height="360.02"/></clipPath><linearGradient id="New_Gradient_Swatch_1" x1="218.26" y1="320.09" x2="316.65" y2="281.46" gradientUnits="userSpaceOnUse"><stop offset="0" stop-color="#b1b1b1" stop-opacity=".9"/><stop offset=".22" stop-color="#b8b8b8" stop-opacity=".62"/><stop offset=".49" stop-color="#c2c2c2" stop-opacity=".29"/><stop offset=".7" stop-color="#c7c7c7" stop-opacity=".08"/><stop offset=".81" stop-color="#cacaca" stop-opacity="0"/></linearGradient><linearGradient id="New_Gradient_Swatch_1-2" x1="80.11" y1="320.09" x2="178.5" y2="281.46" xlink:href="#New_Gradient_Swatch_1"/><linearGradient id="New_Gradient_Swatch_1-3" x1="356.62" x2="455.01" y2="281.46" xlink:href="#New_Gradient_Swatch_1"/><linearGradient id="New_Gradient_Swatch_1-4" x1="494.74" x2="593.12" y2="281.46" xlink:href="#New_Gradient_Swatch_1"/><linearGradient id="New_Gradient_Swatch_1-5" x1="-13829.27" y1="84.68" x2="-13970.23" y2="-13.37" gradientTransform="translate(-13586.94) rotate(-180) scale(1 -1)" xlink:href="#New_Gradient_Swatch_1"/><clipPath id="clippath-1"><path class="cls-1" d="m266.84,234.49c0,1.23,15.79,1.23,15.79,0h5.92s0-12.1,0-12.1h-21.98l.27,12.1Z"/></clipPath><linearGradient id="linear-gradient" x1="84.49" y1="211.51" x2="347.65" y2="159.55" gradientUnits="userSpaceOnUse"><stop offset="0" stop-color="#1872a6" stop-opacity=".9"/><stop offset=".18" stop-color="#1872a6" stop-opacity=".66"/><stop offset=".48" stop-color="#1872a6" stop-opacity=".3"/><stop offset=".69" stop-color="#1872a6" stop-opacity=".08"/><stop offset=".81" stop-color="#1872a6" stop-opacity="0"/></linearGradient></defs><g class="cls-30"><rect class="cls-40" x="146.94" y="32.83" width="340.22" height="360.02"/><g><path class="cls-14" d="m258.27,248.39c.54,2.32,2.61,4.05,5.09,4.05s4.55-1.73,5.09-4.05"/><path class="cls-14" d="m268.45,248.39c.54,2.32,2.61,4.05,5.09,4.05"/><path class="cls-14" d="m253.17,252.44c2.48,0,4.55-1.73,5.09-4.05"/></g><g><path class="cls-14" d="m223.23,170.84c2.23,0,4.1-1.56,4.58-3.64"/><path class="cls-14" d="m227.81,167.19c.48,2.09,2.35,3.64,4.58,3.64s4.1-1.56,4.58-3.64"/><path class="cls-14" d="m236.97,167.19c.48,2.09,2.35,3.64,4.58,3.64s4.1-1.56,4.58-3.64"/><path class="cls-14" d="m246.13,167.19c.48,2.09,2.35,3.64,4.58,3.64"/></g><path class="cls-36" d="m146.94,395.33h339.9V33.08h-255.99c13.62,46.93,62.25,84.14,95.5,84.14h97.96s-56.95,178.53-56.95,178.53h-220.42v99.58Z"/><path class="cls-40" d="m208.58,34.79s3.9,6.29,16.98,3.5c14.04-3,22.79,1.95,20.64,11.61-2.15,9.65,4.19,17.33,13.85,18.66,9.66,1.33,41.45,12.89,30.09,29.46-10.07,14.69-3.41,14.94.34,16.46s11.89,8.35,4.43,16.71c-7.45,8.35-14.76,3.65-14.76,3.65,0,0-75.93-90.76-77.15-91.51s-4.92-11.29,5.57-8.54Z"/><g><ellipse class="cls-40" cx="277.88" cy="84.17" rx="11.08" ry="6.02"/><ellipse class="cls-40" cx="269.22" cy="77.23" rx="14.46" ry="7.96"/><ellipse class="cls-40" cx="285.84" cy="79.1" rx="5.01" ry="11.69" transform="translate(117.95 323.59) rotate(-70.99)"/></g><path class="cls-47" d="m395.47,254.58c16.55-48.99,32.2-99.12,46.63-148.78,2.01-7.14,4.08-14.27,6.01-21.44l15.66,4.54c-8.53,27.97-16.75,57.48-24.35,85.68-5.61,20.72-11.56,43.74-16.86,64.67-1.77,7.22-3.6,14.41-5.3,21.65l-21.79-6.31h0Z"/><path class="cls-40" d="m384.74,163.29l30.41-40.09h7.25s-1.05,5.53,6.37,6.73c5.06.82,6.25,4.16,2.08,5.5-4.1,1.32-5.62,2.57-5.63,4.34,0,1.24.37,2.58,2.03,3.61,1.97,1.22,5.02,1.61,5.84,4.84.82,3.23-4.26,6.09-11.48,6.66,0,0-9.28.28-10.65,4.14"/><line class="cls-5" x1="410.79" y1="307.14" x2="487.47" y2="307.14"/><line class="cls-5" x1="146.94" y1="357.42" x2="487.47" y2="357.42"/><g><g><rect class="cls-51" x="398.76" y="85.54" width="20.46" height="7.72"/><line class="cls-15" x1="408.99" y1="86.15" x2="408.99" y2="92.66"/></g><g><rect class="cls-49" x="419.22" y="85.54" width="20.46" height="7.72"/><line class="cls-15" x1="429.45" y1="86.15" x2="429.45" y2="92.66"/></g><g><rect class="cls-60" x="439.68" y="85.54" width="20.46" height="7.72"/><line class="cls-15" x1="449.91" y1="86.15" x2="449.91" y2="92.66"/></g><g><rect class="cls-51" x="460.14" y="85.54" width="20.46" height="7.72"/><line class="cls-15" x1="470.37" y1="86.15" x2="470.37" y2="92.66"/></g><g><rect class="cls-56" x="460.14" y="77.82" width="20.46" height="7.72" transform="translate(940.74 163.36) rotate(-180)"/><line class="cls-15" x1="470.37" y1="78.42" x2="470.37" y2="84.93"/></g><g><rect class="cls-48" x="439.68" y="77.82" width="20.46" height="7.72" transform="translate(899.82 163.36) rotate(-180)"/><line class="cls-15" x1="449.91" y1="78.42" x2="449.91" y2="84.93"/></g><g><rect class="cls-49" x="398.76" y="77.82" width="20.46" height="7.72"/><line class="cls-15" x1="408.99" y1="78.42" x2="408.99" y2="84.93"/></g><g><rect class="cls-60" x="419.22" y="77.82" width="20.46" height="7.72"/><line class="cls-15" x1="429.45" y1="78.42" x2="429.45" y2="84.93"/></g><rect class="cls-51" x="429.45" y="70.09" width="20.46" height="7.72"/><g><rect class="cls-48" x="408.99" y="70.09" width="20.46" height="7.72"/><line class="cls-15" x1="419.22" y1="70.7" x2="419.22" y2="77.21"/><line class="cls-15" x1="439.68" y1="70.7" x2="439.68" y2="77.21"/></g><g><rect class="cls-38" x="449.91" y="70.09" width="20.46" height="7.72" transform="translate(920.28 147.91) rotate(-180)"/><line class="cls-15" x1="460.14" y1="70.7" x2="460.14" y2="77.21"/></g></g><g><g><rect class="cls-49" x="170.21" y="302.98" width="34.45" height="13.01"/><line class="cls-24" x1="187.43" y1="304" x2="187.43" y2="314.96"/></g><g><rect class="cls-45" x="170.21" y="289.98" width="34.45" height="13.01"/><line class="cls-24" x1="187.43" y1="291" x2="187.43" y2="301.96"/></g><g><rect class="cls-60" x="204.66" y="302.98" width="34.45" height="13.01"/><line class="cls-24" x1="221.88" y1="304" x2="221.88" y2="314.96"/></g><g><rect class="cls-51" x="239.11" y="302.98" width="34.45" height="13.01"/><line class="cls-24" x1="256.33" y1="304" x2="256.33" y2="314.96"/></g><g><rect class="cls-49" x="273.56" y="302.98" width="34.45" height="13.01"/><line class="cls-24" x1="290.78" y1="304" x2="290.78" y2="314.96"/></g><g><rect class="cls-45" x="239.11" y="263.97" width="34.45" height="13.01"/><line class="cls-24" x1="256.33" y1="264.99" x2="256.33" y2="275.95"/></g><g><rect class="cls-49" x="187.39" y="276.97" width="34.45" height="13.01"/><line class="cls-24" x1="204.61" y1="277.99" x2="204.61" y2="288.95"/></g><g><rect class="cls-45" x="273.56" y="289.98" width="34.45" height="13.01" transform="translate(581.56 592.96) rotate(-180)"/><line class="cls-24" x1="290.78" y1="291" x2="290.78" y2="301.96"/></g><g><rect class="cls-56" x="239.11" y="289.98" width="34.45" height="13.01" transform="translate(512.66 592.96) rotate(-180)"/><line class="cls-24" x1="256.33" y1="291" x2="256.33" y2="301.96"/></g><g><rect class="cls-51" x="135.76" y="302.98" width="34.45" height="13.01"/><line class="cls-24" x1="152.99" y1="304" x2="152.99" y2="314.96"/></g><g><rect class="cls-56" x="135.76" y="289.98" width="34.45" height="13.01" transform="translate(305.97 592.96) rotate(-180)"/><line class="cls-24" x1="152.99" y1="291" x2="152.99" y2="301.96"/></g><g><rect class="cls-48" x="204.66" y="289.98" width="34.45" height="13.01" transform="translate(443.77 592.96) rotate(-180)"/><line class="cls-24" x1="221.88" y1="291" x2="221.88" y2="301.96"/></g><g><rect class="cls-51" x="221.88" y="276.97" width="34.45" height="13.01" transform="translate(478.22 566.95) rotate(-180)"/><line class="cls-24" x1="239.11" y1="277.99" x2="239.11" y2="288.95"/></g><g><rect class="cls-49" x="256.33" y="276.97" width="34.45" height="13.01" transform="translate(547.11 566.95) rotate(-180)"/><line class="cls-24" x1="273.56" y1="277.99" x2="273.56" y2="288.95"/></g></g><g><polygon class="cls-52" points="428.11 47.7 446.22 45.95 495.43 45.78 481.87 47.7 428.11 47.7"/><rect class="cls-31" x="428.11" y="52.12" width="53.76" height="41.15"/><rect class="cls-51" x="428.11" y="47.7" width="53.76" height="4.42"/><polygon class="cls-53" points="495.43 93.26 481.87 93.26 481.87 52.12 495.43 49.62 495.43 93.26"/><polygon class="cls-31" points="495.43 45.78 481.87 47.7 481.87 52.12 495.43 49.62 495.43 45.78"/><rect class="cls-46" x="432.47" y="64.8" width="45.04" height="28.47"/><g><rect class="cls-56" x="433.87" y="56.62" width="2.73" height="4.83"/><rect class="cls-56" x="439.46" y="56.62" width="2.73" height="4.83"/><rect class="cls-56" x="445.06" y="56.62" width="2.73" height="4.83"/><rect class="cls-56" x="450.65" y="56.62" width="2.73" height="4.83"/><rect class="cls-56" x="456.25" y="56.62" width="2.73" height="4.83"/><rect class="cls-56" x="461.84" y="56.62" width="2.73" height="4.83"/><rect class="cls-56" x="467.44" y="56.62" width="2.73" height="4.83"/><rect class="cls-56" x="473.03" y="56.62" width="2.73" height="4.83"/></g><polygon class="cls-57" points="488.33 57.23 485.25 57.81 485.25 69.04 488.33 68.46 488.33 57.23"/><polygon class="cls-57" points="492.64 56.44 489.79 56.98 489.79 68.21 492.64 67.68 492.64 56.44"/><rect class="cls-45" x="484.97" y="84.31" width="8.67" height="4.84"/><polygon class="cls-52" points="493.64 84.31 484.97 84.31 484.97 72.69 493.64 70.94 493.64 84.31"/><g><path class="cls-10" d="m495.43,82.27l7.4,3.5c.23.11.38.34.38.6v1.32"/><polygon class="cls-52" points="495.43 83.88 503.2 87.56 503.2 87.69 495.43 87.69 495.43 83.88"/><g><line class="cls-10" x1="496.6" y1="84.55" x2="496.6" y2="82.81"/><line class="cls-10" x1="497.93" y1="85.18" x2="497.93" y2="83.44"/><line class="cls-10" x1="499.25" y1="85.81" x2="499.25" y2="84.07"/><line class="cls-10" x1="500.57" y1="86.44" x2="500.57" y2="84.7"/><line class="cls-10" x1="501.89" y1="87.07" x2="501.89" y2="85.33"/></g></g><polygon class="cls-46" points="495.43 93.26 503.2 87.67 493.64 84.31 485.25 88.26 495.43 93.26"/><g><path class="cls-11" d="m481.87,83.82l12.89,6.1c.41.19.66.6.66,1.05v2.3"/><polygon class="cls-52" points="481.87 86.63 495.43 93.04 495.43 93.26 481.87 93.26 481.87 86.63"/><g><line class="cls-11" x1="483.92" y1="87.79" x2="483.92" y2="84.76"/><line class="cls-11" x1="486.22" y1="88.89" x2="486.22" y2="85.86"/><line class="cls-11" x1="488.53" y1="89.99" x2="488.53" y2="86.96"/><line class="cls-11" x1="490.83" y1="91.09" x2="490.83" y2="88.06"/><line class="cls-11" x1="493.14" y1="92.19" x2="493.14" y2="89.15"/></g></g><g><g><polygon class="cls-43" points="462 75.8 460.82 74.62 456.26 74.62 455.14 75.8 462 75.8"/><rect class="cls-39" x="455.14" y="75.8" width="6.86" height="5.82"/><rect class="cls-46" x="455.54" y="76.4" width="2.34" height="1.06"/><rect class="cls-45" x="457.46" y="76.53" width=".25" height=".79"/><rect class="cls-45" x="457.01" y="76.53" width=".25" height=".79"/><rect class="cls-45" x="456.56" y="76.53" width=".25" height=".79"/><rect class="cls-45" x="456.14" y="76.53" width=".25" height=".79"/><rect class="cls-45" x="455.71" y="76.53" width=".25" height=".79"/></g><g><rect class="cls-42" x="455.14" y="81.62" width="6.86" height="5.82"/><rect class="cls-38" x="459.27" y="82.22" width="2.34" height="1.06"/><rect class="cls-42" x="459.44" y="82.36" width=".25" height=".79"/><rect class="cls-42" x="459.88" y="82.36" width=".25" height=".79"/><rect class="cls-42" x="460.35" y="82.36" width=".25" height=".79"/><rect class="cls-42" x="460.77" y="82.36" width=".25" height=".79"/><rect class="cls-42" x="461.19" y="82.36" width=".25" height=".79"/></g><g><rect class="cls-60" x="455.14" y="87.44" width="6.86" height="5.82"/><rect class="cls-42" x="455.54" y="88.04" width="2.34" height="1.06"/><rect class="cls-54" x="457.46" y="88.18" width=".25" height=".79"/><rect class="cls-54" x="457.01" y="88.18" width=".25" height=".79"/><rect class="cls-54" x="456.56" y="88.18" width=".25" height=".79"/><rect class="cls-54" x="456.14" y="88.18" width=".25" height=".79"/><rect class="cls-54" x="455.71" y="88.18" width=".25" height=".79"/></g><g><rect class="cls-56" x="448.28" y="81.62" width="6.86" height="5.82"/><rect class="cls-42" x="448.73" y="82.08" width="1.77" height="1.45"/><g><line class="cls-8" x1="450.13" y1="83.25" x2="449.05" y2="83.25"/><g><line class="cls-8" x1="449.85" y1="83.25" x2="449.85" y2="82.56"/><polygon class="cls-58" points="449.64 82.63 449.85 82.25 450.07 82.63 449.64 82.63"/></g><g><line class="cls-8" x1="449.34" y1="83.25" x2="449.34" y2="82.56"/><polygon class="cls-58" points="449.12 82.63 449.34 82.25 449.55 82.63 449.12 82.63"/></g></g></g><g><rect class="cls-42" x="448.28" y="87.44" width="6.86" height="5.82"/><rect class="cls-38" x="448.73" y="87.9" width="1.77" height="1.45"/><g><line class="cls-7" x1="450.13" y1="89.07" x2="449.05" y2="89.07"/><g><line class="cls-7" x1="449.85" y1="89.07" x2="449.85" y2="88.39"/><polygon class="cls-60" points="449.64 88.45 449.85 88.08 450.07 88.45 449.64 88.45"/></g><g><line class="cls-7" x1="449.34" y1="89.07" x2="449.34" y2="88.39"/><polygon class="cls-60" points="449.12 88.45 449.34 88.08 449.55 88.45 449.12 88.45"/></g></g></g><g><polygon class="cls-43" points="439.33 75.8 438.14 74.62 433.58 74.62 432.47 75.8 439.33 75.8"/><rect class="cls-39" x="432.47" y="75.8" width="6.86" height="5.82"/><rect class="cls-46" x="432.86" y="76.4" width="2.34" height="1.06"/><rect class="cls-45" x="434.78" y="76.53" width=".25" height=".79"/><rect class="cls-45" x="434.34" y="76.53" width=".25" height=".79"/><rect class="cls-45" x="433.88" y="76.53" width=".25" height=".79"/><rect class="cls-45" x="433.46" y="76.53" width=".25" height=".79"/><rect class="cls-45" x="433.03" y="76.53" width=".25" height=".79"/></g><g><polygon class="cls-46" points="446.19 87.44 445 86.26 440.44 86.26 439.33 87.44 446.19 87.44"/><rect class="cls-39" x="439.33" y="87.44" width="6.86" height="5.82"/><rect class="cls-46" x="439.72" y="88.04" width="2.34" height="1.06"/><rect class="cls-45" x="441.64" y="88.18" width=".25" height=".79"/><rect class="cls-45" x="441.2" y="88.18" width=".25" height=".79"/><rect class="cls-45" x="440.74" y="88.18" width=".25" height=".79"/><rect class="cls-45" x="440.32" y="88.18" width=".25" height=".79"/><rect class="cls-45" x="439.89" y="88.18" width=".25" height=".79"/></g><g><rect class="cls-42" x="439.33" y="81.62" width="6.86" height="5.82"/><rect class="cls-38" x="439.72" y="82.22" width="2.34" height="1.06"/><rect class="cls-42" x="441.64" y="82.36" width=".25" height=".79"/><rect class="cls-42" x="441.2" y="82.36" width=".25" height=".79"/><rect class="cls-42" x="440.74" y="82.36" width=".25" height=".79"/><rect class="cls-42" x="440.32" y="82.36" width=".25" height=".79"/><rect class="cls-42" x="439.89" y="82.36" width=".25" height=".79"/></g><g><rect class="cls-56" x="432.47" y="81.62" width="6.86" height="5.82"/><rect class="cls-42" x="436.6" y="82.22" width="2.34" height="1.06"/><rect class="cls-54" x="436.77" y="82.36" width=".25" height=".79"/><rect class="cls-54" x="437.21" y="82.36" width=".25" height=".79"/><rect class="cls-54" x="437.67" y="82.36" width=".25" height=".79"/><rect class="cls-54" x="438.09" y="82.36" width=".25" height=".79"/><rect class="cls-54" x="438.51" y="82.36" width=".25" height=".79"/></g><g><polygon class="cls-58" points="446.19 75.8 445 74.62 440.44 74.62 439.33 75.8 446.19 75.8"/><rect class="cls-60" x="439.33" y="75.8" width="6.86" height="5.82"/><rect class="cls-42" x="439.77" y="76.26" width="1.77" height="1.45"/><g><line class="cls-8" x1="441.17" y1="77.43" x2="440.09" y2="77.43"/><g><line class="cls-8" x1="440.9" y1="77.42" x2="440.9" y2="76.74"/><polygon class="cls-58" points="440.68 76.81 440.9 76.43 441.11 76.81 440.68 76.81"/></g><g><line class="cls-8" x1="440.38" y1="77.42" x2="440.38" y2="76.74"/><polygon class="cls-58" points="440.17 76.81 440.38 76.43 440.6 76.81 440.17 76.81"/></g></g></g><g><rect class="cls-42" x="432.47" y="87.44" width="6.86" height="5.82"/><rect class="cls-38" x="432.91" y="87.9" width="1.77" height="1.45"/><g><line class="cls-7" x1="434.31" y1="89.07" x2="433.23" y2="89.07"/><g><line class="cls-7" x1="434.04" y1="89.07" x2="434.04" y2="88.39"/><polygon class="cls-60" points="433.82 88.45 434.04 88.08 434.25 88.45 433.82 88.45"/></g><g><line class="cls-7" x1="433.52" y1="89.07" x2="433.52" y2="88.39"/><polygon class="cls-60" points="433.31 88.45 433.52 88.08 433.74 88.45 433.31 88.45"/></g></g></g><g><polygon class="cls-43" points="470.65 69.98 469.47 68.8 464.9 68.8 463.79 69.98 470.65 69.98"/><rect class="cls-39" x="463.79" y="69.98" width="6.86" height="5.82"/><rect class="cls-46" x="464.18" y="70.58" width="2.34" height="1.06"/><rect class="cls-45" x="466.1" y="70.71" width=".25" height=".79"/><rect class="cls-45" x="465.66" y="70.71" width=".25" height=".79"/><rect class="cls-45" x="465.2" y="70.71" width=".25" height=".79"/><rect class="cls-45" x="464.78" y="70.71" width=".25" height=".79"/><rect class="cls-45" x="464.36" y="70.71" width=".25" height=".79"/></g><g><polygon class="cls-46" points="477.51 81.62 476.33 80.44 471.76 80.44 470.65 81.62 477.51 81.62"/><rect class="cls-39" x="470.65" y="81.62" width="6.86" height="5.82"/><rect class="cls-46" x="471.04" y="82.22" width="2.34" height="1.06"/><rect class="cls-45" x="472.96" y="82.36" width=".25" height=".79"/><rect class="cls-45" x="472.52" y="82.36" width=".25" height=".79"/><rect class="cls-45" x="472.06" y="82.36" width=".25" height=".79"/><rect class="cls-45" x="471.64" y="82.36" width=".25" height=".79"/><rect class="cls-45" x="471.21" y="82.36" width=".25" height=".79"/></g><g><rect class="cls-42" x="470.65" y="75.8" width="6.86" height="5.82"/><rect class="cls-38" x="471.04" y="76.4" width="2.34" height="1.06"/><rect class="cls-42" x="472.96" y="76.53" width=".25" height=".79"/><rect class="cls-42" x="472.52" y="76.53" width=".25" height=".79"/><rect class="cls-42" x="472.06" y="76.53" width=".25" height=".79"/><rect class="cls-42" x="471.64" y="76.53" width=".25" height=".79"/><rect class="cls-42" x="471.21" y="76.53" width=".25" height=".79"/></g><g><rect class="cls-56" x="463.79" y="75.8" width="6.86" height="5.82"/><rect class="cls-42" x="464.18" y="76.4" width="2.34" height="1.06"/><rect class="cls-54" x="466.1" y="76.53" width=".25" height=".79"/><rect class="cls-54" x="465.66" y="76.53" width=".25" height=".79"/><rect class="cls-54" x="465.2" y="76.53" width=".25" height=".79"/><rect class="cls-54" x="464.78" y="76.53" width=".25" height=".79"/><rect class="cls-54" x="464.36" y="76.53" width=".25" height=".79"/></g><g><polygon class="cls-58" points="477.51 69.98 476.33 68.8 471.76 68.8 470.65 69.98 477.51 69.98"/><rect class="cls-60" x="470.65" y="69.98" width="6.86" height="5.82"/><rect class="cls-42" x="471.09" y="70.44" width="1.77" height="1.45"/><g><line class="cls-8" x1="472.49" y1="71.6" x2="471.42" y2="71.6"/><g><line class="cls-8" x1="472.22" y1="71.6" x2="472.22" y2="70.92"/><polygon class="cls-58" points="472 70.99 472.22 70.61 472.43 70.99 472 70.99"/></g><g><line class="cls-8" x1="471.7" y1="71.6" x2="471.7" y2="70.92"/><polygon class="cls-58" points="471.49 70.99 471.7 70.61 471.92 70.99 471.49 70.99"/></g></g></g><g><rect class="cls-42" x="463.79" y="81.62" width="6.86" height="5.82"/><rect class="cls-38" x="464.23" y="82.08" width="1.77" height="1.45"/><g><line class="cls-7" x1="465.63" y1="83.25" x2="464.56" y2="83.25"/><g><line class="cls-7" x1="465.36" y1="83.25" x2="465.36" y2="82.56"/><polygon class="cls-60" points="465.15 82.63 465.36 82.25 465.57 82.63 465.15 82.63"/></g><g><line class="cls-7" x1="464.84" y1="83.25" x2="464.84" y2="82.56"/><polygon class="cls-60" points="464.63 82.63 464.84 82.25 465.06 82.63 464.63 82.63"/></g></g></g><g><rect class="cls-39" x="463.79" y="87.44" width="6.86" height="5.82"/><rect class="cls-46" x="467.92" y="88.04" width="2.34" height="1.06"/><rect class="cls-45" x="468.09" y="88.18" width=".25" height=".79"/><rect class="cls-45" x="468.53" y="88.18" width=".25" height=".79"/><rect class="cls-45" x="468.99" y="88.18" width=".25" height=".79"/><rect class="cls-45" x="469.41" y="88.18" width=".25" height=".79"/><rect class="cls-45" x="469.83" y="88.18" width=".25" height=".79"/></g><g><rect class="cls-42" x="470.65" y="87.44" width="6.86" height="5.82"/><rect class="cls-38" x="475.3" y="87.9" width="1.77" height="1.45"/><g><line class="cls-7" x1="475.66" y1="89.07" x2="476.74" y2="89.07"/><g><line class="cls-7" x1="475.94" y1="89.07" x2="475.94" y2="88.39"/><polygon class="cls-60" points="476.15 88.45 475.94 88.08 475.72 88.45 476.15 88.45"/></g><g><line class="cls-7" x1="476.45" y1="89.07" x2="476.45" y2="88.39"/><polygon class="cls-60" points="476.67 88.45 476.45 88.08 476.24 88.45 476.67 88.45"/></g></g></g></g></g><g><g><rect class="cls-55" x="236.15" y="351.32" width="1.92" height="2.64"/><polyline class="cls-55" points="233.02 353.15 233.02 354.76 222.35 354.76 222.5 353.15"/><path class="cls-60" d="m222.99,350.92v-14.48l-.53-4.21c-.34-2.18-.47-3.79-.75-3.73-3.16.71-13.68,3.93-13.68,3.93-5.34,1.49-9.06,5.7-9.06,5.7l-2.52,6.89s-7.49,1.81-11.64,4.66c-.51.34-.81.91-.82,1.53v3.02c-.09.08-.18.15-.28.22,0,0-.53,1.35,0,1.81.1.09.19.17.28.26v1.05l-.08.07c-.75.6.16.97,1.13,1.12s3.82.46,3.82.46l.24-.9,5.89.28,25.17-.41,2.76-1.53,1.67-3.3-1.6-2.44Z"/><polyline class="cls-55" points="196.54 355.37 196.54 358.77 250.4 358.77 250.4 354.39 199.29 354.39"/><line class="cls-16" x1="196.54" y1="354.39" x2="196.54" y2="355.37"/><circle class="cls-34" cx="237.08" cy="357.42" r="4.52"/><circle class="cls-55" cx="237.08" cy="357.42" r="2.05"/><path class="cls-55" d="m200.66,358.79c.05-.31.09-.62.09-.95,0-3.13-2.54-5.67-5.67-5.67s-5.67,2.54-5.67,5.67c0,.32-.03.19.02.49l5.73.45h5.5Z"/><circle class="cls-34" cx="195.08" cy="357.85" r="4.52"/><circle class="cls-55" cx="195.16" cy="357.85" r="2.05"/><circle class="cls-34" cx="247.46" cy="357.16" r="4.52"/><circle class="cls-55" cx="247.46" cy="357.16" r="2.05"/><path class="cls-56" d="m197.43,337.23l-.44,1.12h9.41v-1.9h-7.83c-.51,0-.96.31-1.14.78Z"/><path class="cls-56" d="m206.39,336.45h16.6v14.95h-15.81c-.44,0-.79-.36-.79-.79v-14.15h0Z"/><rect class="cls-60" x="215.5" y="345.36" width="5.84" height="4.43" rx="1.32" ry="1.32"/><path class="cls-56" d="m219.39,332.22l-4.21.48c-.42-.02-.78.28-.84.7v1.09c.08.45.5.76.96.69h4.78c.62,0,1.05-.44.9-.89v-1.12c.01-.55-.42-1-.97-1.02-.01,0-.03,0-.04,0-.21.03-.42.05-.57.06Z"/><path class="cls-41" d="m200.31,340.13l-1.53,4.34s0,.05.03.06c0,0,.02,0,.02,0l5.61-.87c.44-.04.79-.38.83-.82v-2.63c-.04-.34-.34-.59-.68-.56h-3.49c-.34-.02-.65.17-.79.48Z"/><path class="cls-41" d="m198.45,339.64h.8c.13,0,.24.11.24.24,0,.03,0,.06-.02.08l-1.65,4.48c-.06.15-.19.26-.35.29l-.99.27c.23-1.23,1.96-5.37,1.96-5.37Z"/><line class="cls-23" x1="184.03" y1="356.5" x2="189.48" y2="356.5"/><line class="cls-17" x1="184.03" y1="351.19" x2="185" y2="351.19"/><line class="cls-17" x1="184.03" y1="352.02" x2="185" y2="352.02"/><line class="cls-17" x1="184.03" y1="352.89" x2="185" y2="352.89"/><rect class="cls-61" x="225.29" y="350.13" width="89.93" height="1.73"/><path class="cls-34" d="m202.45,341.51v4.51h0c-.71,0-1.29-.58-1.29-1.29v-2.64c0-.49.4-.88.88-.88h.13c.16.01.28.14.28.3Z"/><path class="cls-44" d="m185.45,354.08c-.43-.45.95-1.18.95-1.18,0,0,3.3-1.39,2.3.28-1,1.67-3.23.9-3.23.9"/><rect class="cls-44" x="202.37" y="347.02" width="2.25" height="1.63" rx=".51" ry=".51"/><rect class="cls-55" x="296.19" y="352.72" width="16.1" height="3.34"/><rect class="cls-55" x="296.19" y="351.86" width="16.1" height="1.22"/><circle class="cls-34" cx="299.69" cy="357.85" r="4.52"/><circle class="cls-55" cx="299.69" cy="357.85" r="2.05"/><circle class="cls-34" cx="310.07" cy="357.59" r="4.52"/><circle class="cls-55" cx="310.07" cy="357.59" r="2.05"/></g><rect class="cls-56" x="225.4" y="327.37" width="89.72" height="22.76"/><polygon class="cls-53" points="228.24 323.3 315.12 323.3 315.12 327.37 225.4 327.37 228.24 323.3"/><polygon class="cls-53" points="317.61 323.3 315.12 323.3 315.12 351.86 317.61 349.67 317.61 323.3"/><g><line class="cls-21" x1="236.7" y1="331.09" x2="236.7" y2="346.4"/><line class="cls-21" x1="250.13" y1="346.4" x2="250.13" y2="331.09"/><line class="cls-21" x1="263.55" y1="346.4" x2="263.55" y2="331.09"/><line class="cls-21" x1="276.97" y1="346.4" x2="276.97" y2="331.09"/><line class="cls-21" x1="290.39" y1="346.4" x2="290.39" y2="331.09"/><line class="cls-21" x1="303.81" y1="331.09" x2="303.81" y2="346.4"/></g><path class="cls-4" d="m209.63,351.38v-21.66s0-2.5,2.33-2.67"/><path class="cls-63" d="m237.87,303.98c-1.57-5.34.73-11.24,5.82-14.02,4.31-2.35,9.42-1.81,13.1.97-.21-3.41,1.53-6.79,4.72-8.54,3.43-1.87,7.53-1.3,10.32,1.11,1-1.32,2.29-2.45,3.83-3.3,5.87-3.2,13.22-1.04,16.42,4.83,1.38,2.53,1.76,5.34,1.28,7.97,1.63.31,3.12,1.31,3.98,2.88,1.51,2.78.49,6.25-2.28,7.77-.4.22-.82.38-1.24.49.12,2.88-1.35,5.71-4.05,7.18-2.36,1.29-5.1,1.23-7.32.08-1.2,2.68-3.24,5-6.01,6.51-5.88,3.21-13.07,1.72-17.23-3.21-.32.51-.77.94-1.33,1.25-1.77.97-3.99.31-4.95-1.46-.38-.7-.51-1.47-.41-2.2-3.84.99-7.91.02-10.88-2.51-.29.37-.67.69-1.11.93-1.77.97-3.99.31-4.95-1.46-.97-1.77-.31-3.99,1.46-4.95.27-.15.56-.26.85-.33Zm-22.83,17.08c1.34,1.51,3.65,1.65,5.15.31.06-.05.12-.11.17-.17,2.59,1.71,6.1,1.56,8.53-.6,2.44-2.16,3.01-5.64,1.6-8.42,1.15-1.36,1.16-3.4-.06-4.77-1.34-1.51-3.65-1.65-5.15-.31-.4.35-.7.78-.91,1.24-1.7-.03-3.42.54-4.8,1.76-1.48,1.31-2.27,3.11-2.35,4.94-.68.1-1.33.39-1.88.88-1.51,1.34-1.65,3.65-.31,5.15Zm.42,4.36c1.59,0,2.88-1.29,2.88-2.88s-1.29-2.88-2.88-2.88c-1.59,0-2.88,1.29-2.88,2.88,0,1.59,1.29,2.88,2.88,2.88Zm-1.85,1.02c.66,0,1.19-.53,1.19-1.19,0-.66-.53-1.19-1.19-1.19s-1.19.53-1.19,1.19c0,.66.53,1.19,1.19,1.19Z"/></g><g><g><rect class="cls-55" x="98" y="351.32" width="1.92" height="2.64"/><polyline class="cls-55" points="94.86 353.15 94.86 354.76 84.2 354.76 84.35 353.15"/><path class="cls-60" d="m84.84,350.92v-14.48l-.53-4.21c-.34-2.18-.47-3.79-.75-3.73-3.16.71-13.68,3.93-13.68,3.93-5.34,1.49-9.06,5.7-9.06,5.7l-2.52,6.89s-7.49,1.81-11.64,4.66c-.51.34-.81.91-.82,1.53v3.02c-.09.08-.18.15-.28.22,0,0-.53,1.35,0,1.81.1.09.19.17.28.26v1.05l-.08.07c-.75.6.16.97,1.13,1.12s3.82.46,3.82.46l.24-.9,5.89.28,25.17-.41,2.76-1.53,1.67-3.3-1.6-2.44Z"/><polyline class="cls-55" points="58.39 355.37 58.39 358.77 112.25 358.77 112.25 354.39 61.14 354.39"/><line class="cls-16" x1="58.39" y1="354.39" x2="58.39" y2="355.37"/><circle class="cls-34" cx="98.93" cy="357.42" r="4.52"/><circle class="cls-55" cx="98.93" cy="357.42" r="2.05"/><path class="cls-55" d="m62.51,358.79c.05-.31.09-.62.09-.95,0-3.13-2.54-5.67-5.67-5.67s-5.67,2.54-5.67,5.67c0,.32-.03.19.02.49l5.73.45h5.5Z"/><circle class="cls-34" cx="56.93" cy="357.85" r="4.52"/><circle class="cls-55" cx="57.01" cy="357.85" r="2.05"/><circle class="cls-34" cx="109.31" cy="357.16" r="4.52"/><circle class="cls-55" cx="109.31" cy="357.16" r="2.05"/><path class="cls-56" d="m59.28,337.23l-.44,1.12h9.41v-1.9h-7.83c-.51,0-.96.31-1.14.78Z"/><path class="cls-56" d="m68.24,336.45h16.6v14.95h-15.81c-.44,0-.79-.36-.79-.79v-14.15h0Z"/><rect class="cls-60" x="77.35" y="345.36" width="5.84" height="4.43" rx="1.32" ry="1.32"/><path class="cls-56" d="m81.24,332.22l-4.21.48c-.42-.02-.78.28-.84.7v1.09c.08.45.5.76.96.69h4.78c.62,0,1.05-.44.9-.89v-1.12c.01-.55-.42-1-.97-1.02-.01,0-.03,0-.04,0-.21.03-.42.05-.57.06Z"/><path class="cls-41" d="m62.16,340.13l-1.53,4.34s0,.05.03.06c0,0,.02,0,.02,0l5.61-.87c.44-.04.79-.38.83-.82v-2.63c-.04-.34-.34-.59-.68-.56h-3.49c-.34-.02-.65.17-.79.48Z"/><path class="cls-41" d="m60.3,339.64h.8c.13,0,.24.11.24.24,0,.03,0,.06-.02.08l-1.65,4.48c-.06.15-.19.26-.35.29l-.99.27c.23-1.23,1.96-5.37,1.96-5.37Z"/><line class="cls-23" x1="45.88" y1="356.5" x2="51.33" y2="356.5"/><line class="cls-17" x1="45.88" y1="351.19" x2="46.85" y2="351.19"/><line class="cls-17" x1="45.88" y1="352.02" x2="46.85" y2="352.02"/><line class="cls-17" x1="45.88" y1="352.89" x2="46.85" y2="352.89"/><rect class="cls-61" x="87.14" y="350.13" width="89.93" height="1.73"/><path class="cls-34" d="m64.3,341.51v4.51h0c-.71,0-1.29-.58-1.29-1.29v-2.64c0-.49.4-.88.88-.88h.13c.16.01.28.14.28.3Z"/><path class="cls-44" d="m47.3,354.08c-.43-.45.95-1.18.95-1.18,0,0,3.3-1.39,2.3.28-1,1.67-3.23.9-3.23.9"/><rect class="cls-44" x="64.22" y="347.02" width="2.25" height="1.63" rx=".51" ry=".51"/><rect class="cls-55" x="158.04" y="352.72" width="16.1" height="3.34"/><rect class="cls-55" x="158.04" y="351.86" width="16.1" height="1.22"/><circle class="cls-34" cx="161.54" cy="357.85" r="4.52"/><circle class="cls-55" cx="161.54" cy="357.85" r="2.05"/><circle class="cls-34" cx="171.92" cy="357.59" r="4.52"/><circle class="cls-55" cx="171.92" cy="357.59" r="2.05"/></g><rect class="cls-56" x="87.24" y="327.37" width="89.72" height="22.76"/><polygon class="cls-53" points="90.09 323.3 176.97 323.3 176.97 327.37 87.24 327.37 90.09 323.3"/><polygon class="cls-53" points="179.46 323.3 176.97 323.3 176.97 351.86 179.46 349.67 179.46 323.3"/><g><line class="cls-21" x1="98.55" y1="331.09" x2="98.55" y2="346.4"/><line class="cls-21" x1="111.97" y1="346.4" x2="111.97" y2="331.09"/><line class="cls-21" x1="125.4" y1="346.4" x2="125.4" y2="331.09"/><line class="cls-21" x1="138.82" y1="346.4" x2="138.82" y2="331.09"/><line class="cls-21" x1="152.24" y1="346.4" x2="152.24" y2="331.09"/><line class="cls-21" x1="165.66" y1="331.09" x2="165.66" y2="346.4"/></g><path class="cls-4" d="m71.48,351.38v-21.66s0-2.5,2.33-2.67"/><path class="cls-65" d="m99.72,303.98c-1.57-5.34.73-11.24,5.82-14.02,4.31-2.35,9.42-1.81,13.1.97-.21-3.41,1.53-6.79,4.72-8.54,3.43-1.87,7.53-1.3,10.32,1.11,1-1.32,2.29-2.45,3.83-3.3,5.87-3.2,13.22-1.04,16.42,4.83,1.38,2.53,1.76,5.34,1.28,7.97,1.63.31,3.12,1.31,3.98,2.88,1.51,2.78.49,6.25-2.28,7.77-.4.22-.82.38-1.24.49.12,2.88-1.35,5.71-4.05,7.18-2.36,1.29-5.1,1.23-7.32.08-1.2,2.68-3.24,5-6.01,6.51-5.88,3.21-13.07,1.72-17.23-3.21-.32.51-.77.94-1.33,1.25-1.77.97-3.99.31-4.95-1.46-.38-.7-.51-1.47-.41-2.2-3.84.99-7.91.02-10.88-2.51-.29.37-.67.69-1.11.93-1.77.97-3.99.31-4.95-1.46-.97-1.77-.31-3.99,1.46-4.95.27-.15.56-.26.85-.33Zm-22.83,17.08c1.34,1.51,3.65,1.65,5.15.31.06-.05.12-.11.17-.17,2.59,1.71,6.1,1.56,8.53-.6,2.44-2.16,3.01-5.64,1.6-8.42,1.15-1.36,1.16-3.4-.06-4.77-1.34-1.51-3.65-1.65-5.15-.31-.4.35-.7.78-.91,1.24-1.7-.03-3.42.54-4.8,1.76-1.48,1.31-2.27,3.11-2.35,4.94-.68.1-1.33.39-1.88.88-1.51,1.34-1.65,3.65-.31,5.15Zm.42,4.36c1.59,0,2.88-1.29,2.88-2.88s-1.29-2.88-2.88-2.88c-1.59,0-2.88,1.29-2.88,2.88,0,1.59,1.29,2.88,2.88,2.88Zm-1.85,1.02c.66,0,1.19-.53,1.19-1.19,0-.66-.53-1.19-1.19-1.19s-1.19.53-1.19,1.19c0,.66.53,1.19,1.19,1.19Z"/></g><g><g><rect class="cls-55" x="374.51" y="351.32" width="1.92" height="2.64"/><polyline class="cls-55" points="371.38 353.15 371.38 354.76 360.71 354.76 360.86 353.15"/><path class="cls-60" d="m361.35,350.92v-14.48l-.53-4.21c-.34-2.18-.47-3.79-.75-3.73-3.16.71-13.68,3.93-13.68,3.93-5.34,1.49-9.06,5.7-9.06,5.7l-2.52,6.89s-7.49,1.81-11.64,4.66c-.51.34-.81.91-.82,1.53v3.02c-.09.08-.18.15-.28.22,0,0-.53,1.35,0,1.81.1.09.19.17.28.26v1.05l-.08.07c-.75.6.16.97,1.13,1.12s3.82.46,3.82.46l.24-.9,5.89.28,25.17-.41,2.76-1.53,1.67-3.3-1.6-2.44Z"/><polyline class="cls-55" points="334.9 355.37 334.9 358.77 388.76 358.77 388.76 354.39 337.65 354.39"/><line class="cls-16" x1="334.9" y1="354.39" x2="334.9" y2="355.37"/><circle class="cls-34" cx="375.44" cy="357.42" r="4.52"/><circle class="cls-55" cx="375.44" cy="357.42" r="2.05"/><path class="cls-55" d="m339.02,358.79c.05-.31.09-.62.09-.95,0-3.13-2.54-5.67-5.67-5.67s-5.67,2.54-5.67,5.67c0,.32-.03.19.02.49l5.73.45h5.5Z"/><circle class="cls-34" cx="333.44" cy="357.85" r="4.52"/><circle class="cls-55" cx="333.52" cy="357.85" r="2.05"/><circle class="cls-34" cx="385.82" cy="357.16" r="4.52"/><circle class="cls-55" cx="385.82" cy="357.16" r="2.05"/><path class="cls-56" d="m335.79,337.23l-.44,1.12h9.41v-1.9h-7.83c-.51,0-.96.31-1.14.78Z"/><path class="cls-56" d="m344.75,336.45h16.6v14.95h-15.81c-.44,0-.79-.36-.79-.79v-14.15h0Z"/><rect class="cls-60" x="353.86" y="345.36" width="5.84" height="4.43" rx="1.32" ry="1.32"/><path class="cls-56" d="m357.76,332.22l-4.21.48c-.42-.02-.78.28-.84.7v1.09c.08.45.5.76.96.69h4.78c.62,0,1.05-.44.9-.89v-1.12c.01-.55-.42-1-.97-1.02-.01,0-.03,0-.04,0-.21.03-.42.05-.57.06Z"/><path class="cls-41" d="m338.67,340.13l-1.53,4.34s0,.05.03.06c0,0,.02,0,.02,0l5.61-.87c.44-.04.79-.38.83-.82v-2.63c-.04-.34-.34-.59-.68-.56h-3.49c-.34-.02-.65.17-.79.48Z"/><path class="cls-41" d="m336.81,339.64h.8c.13,0,.24.11.24.24,0,.03,0,.06-.02.08l-1.65,4.48c-.06.15-.19.26-.35.29l-.99.27c.23-1.23,1.96-5.37,1.96-5.37Z"/><line class="cls-23" x1="322.39" y1="356.5" x2="327.84" y2="356.5"/><line class="cls-17" x1="322.39" y1="351.19" x2="323.37" y2="351.19"/><line class="cls-17" x1="322.39" y1="352.02" x2="323.37" y2="352.02"/><line class="cls-17" x1="322.39" y1="352.89" x2="323.37" y2="352.89"/><rect class="cls-61" x="363.65" y="350.13" width="89.93" height="1.73"/><path class="cls-34" d="m340.81,341.51v4.51h0c-.71,0-1.29-.58-1.29-1.29v-2.64c0-.49.4-.88.88-.88h.13c.16.01.28.14.28.3Z"/><path class="cls-44" d="m323.81,354.08c-.43-.45.95-1.18.95-1.18,0,0,3.3-1.39,2.3.28-1,1.67-3.23.9-3.23.9"/><rect class="cls-44" x="340.73" y="347.02" width="2.25" height="1.63" rx=".51" ry=".51"/><rect class="cls-55" x="434.55" y="352.72" width="16.1" height="3.34"/><rect class="cls-55" x="434.55" y="351.86" width="16.1" height="1.22"/><circle class="cls-34" cx="438.05" cy="357.85" r="4.52"/><circle class="cls-55" cx="438.05" cy="357.85" r="2.05"/><circle class="cls-34" cx="448.43" cy="357.59" r="4.52"/><circle class="cls-55" cx="448.43" cy="357.59" r="2.05"/></g><rect class="cls-56" x="363.76" y="327.37" width="89.72" height="22.76"/><polygon class="cls-53" points="366.6 323.3 453.48 323.3 453.48 327.37 363.76 327.37 366.6 323.3"/><polygon class="cls-53" points="455.97 323.3 453.48 323.3 453.48 351.86 455.97 349.67 455.97 323.3"/><g><line class="cls-21" x1="375.06" y1="331.09" x2="375.06" y2="346.4"/><line class="cls-21" x1="388.49" y1="346.4" x2="388.49" y2="331.09"/><line class="cls-21" x1="401.91" y1="346.4" x2="401.91" y2="331.09"/><line class="cls-21" x1="415.33" y1="346.4" x2="415.33" y2="331.09"/><line class="cls-21" x1="428.75" y1="346.4" x2="428.75" y2="331.09"/><line class="cls-21" x1="442.17" y1="331.09" x2="442.17" y2="346.4"/></g><path class="cls-4" d="m347.99,351.38v-21.66s0-2.5,2.33-2.67"/><path class="cls-66" d="m376.23,303.98c-1.57-5.34.73-11.24,5.82-14.02,4.31-2.35,9.42-1.81,13.1.97-.21-3.41,1.53-6.79,4.72-8.54,3.43-1.87,7.53-1.3,10.32,1.11,1-1.32,2.29-2.45,3.83-3.3,5.87-3.2,13.22-1.04,16.42,4.83,1.38,2.53,1.76,5.34,1.28,7.97,1.63.31,3.12,1.31,3.98,2.88,1.51,2.78.49,6.25-2.28,7.77-.4.22-.82.38-1.24.49.12,2.88-1.35,5.71-4.05,7.18-2.36,1.29-5.1,1.23-7.32.08-1.2,2.68-3.24,5-6.01,6.51-5.88,3.21-13.07,1.72-17.23-3.21-.32.51-.77.94-1.33,1.25-1.77.97-3.99.31-4.95-1.46-.38-.7-.51-1.47-.41-2.2-3.84.99-7.91.02-10.88-2.51-.29.37-.67.69-1.11.93-1.77.97-3.99.31-4.95-1.46-.97-1.77-.31-3.99,1.46-4.95.27-.15.56-.26.85-.33Zm-22.83,17.08c1.34,1.51,3.65,1.65,5.15.31.06-.05.12-.11.17-.17,2.59,1.71,6.1,1.56,8.53-.6,2.44-2.16,3.01-5.64,1.6-8.42,1.15-1.36,1.16-3.4-.06-4.77-1.34-1.51-3.65-1.65-5.15-.31-.4.35-.7.78-.91,1.24-1.7-.03-3.42.54-4.8,1.76-1.48,1.31-2.27,3.11-2.35,4.94-.68.1-1.33.39-1.88.88-1.51,1.34-1.65,3.65-.31,5.15Zm.42,4.36c1.59,0,2.88-1.29,2.88-2.88s-1.29-2.88-2.88-2.88c-1.59,0-2.88,1.29-2.88,2.88s1.29,2.88,2.88,2.88Zm-1.85,1.02c.66,0,1.19-.53,1.19-1.19,0-.66-.53-1.19-1.19-1.19s-1.19.53-1.19,1.19c0,.66.53,1.19,1.19,1.19Z"/></g><g><g><rect class="cls-55" x="512.63" y="351.32" width="1.92" height="2.64"/><polyline class="cls-55" points="509.49 353.15 509.49 354.76 498.82 354.76 498.98 353.15"/><path class="cls-60" d="m499.47,350.92v-14.48l-.53-4.21c-.34-2.18-.47-3.79-.75-3.73-3.16.71-13.68,3.93-13.68,3.93-5.34,1.49-9.06,5.7-9.06,5.7l-2.52,6.89s-7.49,1.81-11.64,4.66c-.51.34-.81.91-.82,1.53v3.02c-.09.08-.18.15-.28.22,0,0-.53,1.35,0,1.81.1.09.19.17.28.26v1.05l-.08.07c-.75.6.16.97,1.13,1.12s3.82.46,3.82.46l.24-.9,5.89.28,25.17-.41,2.76-1.53,1.67-3.3-1.6-2.44Z"/><polyline class="cls-55" points="473.02 355.37 473.02 358.77 526.88 358.77 526.88 354.39 475.77 354.39"/><line class="cls-16" x1="473.02" y1="354.39" x2="473.02" y2="355.37"/><circle class="cls-34" cx="513.56" cy="357.42" r="4.52"/><circle class="cls-55" cx="513.56" cy="357.42" r="2.05"/><path class="cls-55" d="m477.14,358.79c.05-.31.09-.62.09-.95,0-3.13-2.54-5.67-5.67-5.67s-5.67,2.54-5.67,5.67c0,.32-.03.19.02.49l5.73.45h5.5Z"/><circle class="cls-34" cx="471.56" cy="357.85" r="4.52"/><circle class="cls-55" cx="471.64" cy="357.85" r="2.05"/><circle class="cls-34" cx="523.94" cy="357.16" r="4.52"/><circle class="cls-55" cx="523.94" cy="357.16" r="2.05"/><path class="cls-56" d="m473.9,337.23l-.44,1.12h9.41v-1.9h-7.83c-.51,0-.96.31-1.14.78Z"/><path class="cls-56" d="m482.87,336.45h16.6v14.95h-15.81c-.44,0-.79-.36-.79-.79v-14.15h0Z"/><rect class="cls-60" x="491.98" y="345.36" width="5.84" height="4.43" rx="1.32" ry="1.32"/><path class="cls-56" d="m495.87,332.22l-4.21.48c-.42-.02-.78.28-.84.7v1.09c.08.45.5.76.96.69h4.78c.62,0,1.05-.44.9-.89v-1.12c.01-.55-.42-1-.97-1.02-.01,0-.03,0-.04,0-.21.03-.42.05-.57.06Z"/><path class="cls-41" d="m476.79,340.13l-1.53,4.34s0,.05.03.06c0,0,.02,0,.02,0l5.61-.87c.44-.04.79-.38.83-.82v-2.63c-.04-.34-.34-.59-.68-.56h-3.49c-.34-.02-.65.17-.79.48Z"/><path class="cls-41" d="m474.92,339.64h.8c.13,0,.24.11.24.24,0,.03,0,.06-.02.08l-1.65,4.48c-.06.15-.19.26-.35.29l-.99.27c.23-1.23,1.96-5.37,1.96-5.37Z"/><line class="cls-23" x1="460.5" y1="356.5" x2="465.96" y2="356.5"/><line class="cls-17" x1="460.5" y1="351.19" x2="461.48" y2="351.19"/><line class="cls-17" x1="460.5" y1="352.02" x2="461.48" y2="352.02"/><line class="cls-17" x1="460.5" y1="352.89" x2="461.48" y2="352.89"/><rect class="cls-61" x="501.77" y="350.13" width="89.93" height="1.73"/><path class="cls-34" d="m478.93,341.51v4.51h0c-.71,0-1.29-.58-1.29-1.29v-2.64c0-.49.4-.88.88-.88h.13c.16.01.28.14.28.3Z"/><path class="cls-44" d="m461.93,354.08c-.43-.45.95-1.18.95-1.18,0,0,3.3-1.39,2.3.28-1,1.67-3.23.9-3.23.9"/><rect class="cls-44" x="478.85" y="347.02" width="2.25" height="1.63" rx=".51" ry=".51"/><rect class="cls-55" x="572.67" y="352.72" width="16.1" height="3.34"/><rect class="cls-55" x="572.67" y="351.86" width="16.1" height="1.22"/><circle class="cls-34" cx="576.17" cy="357.85" r="4.52"/><circle class="cls-55" cx="576.17" cy="357.85" r="2.05"/><circle class="cls-34" cx="586.54" cy="357.59" r="4.52"/><circle class="cls-55" cx="586.54" cy="357.59" r="2.05"/></g><rect class="cls-56" x="501.87" y="327.37" width="89.72" height="22.76"/><polygon class="cls-53" points="504.72 323.3 591.6 323.3 591.6 327.37 501.87 327.37 504.72 323.3"/><polygon class="cls-53" points="594.08 323.3 591.6 323.3 591.6 351.86 594.08 349.67 594.08 323.3"/><g><line class="cls-21" x1="513.18" y1="331.09" x2="513.18" y2="346.4"/><line class="cls-21" x1="526.6" y1="346.4" x2="526.6" y2="331.09"/><line class="cls-21" x1="540.02" y1="346.4" x2="540.02" y2="331.09"/><line class="cls-21" x1="553.45" y1="346.4" x2="553.45" y2="331.09"/><line class="cls-21" x1="566.87" y1="346.4" x2="566.87" y2="331.09"/><line class="cls-21" x1="580.29" y1="331.09" x2="580.29" y2="346.4"/></g><path class="cls-4" d="m486.11,351.38v-21.66s0-2.5,2.33-2.67"/><path class="cls-67" d="m514.35,303.98c-1.57-5.34.73-11.24,5.82-14.02,4.31-2.35,9.42-1.81,13.1.97-.21-3.41,1.53-6.79,4.72-8.54,3.43-1.87,7.53-1.3,10.32,1.11,1-1.32,2.29-2.45,3.83-3.3,5.87-3.2,13.22-1.04,16.42,4.83,1.38,2.53,1.76,5.34,1.28,7.97,1.63.31,3.12,1.31,3.98,2.88,1.51,2.78.49,6.25-2.28,7.77-.4.22-.82.38-1.24.49.12,2.88-1.35,5.71-4.05,7.18-2.36,1.29-5.1,1.23-7.32.08-1.2,2.68-3.24,5-6.01,6.51-5.88,3.21-13.07,1.72-17.23-3.21-.32.51-.77.94-1.33,1.25-1.77.97-3.99.31-4.95-1.46-.38-.7-.51-1.47-.41-2.2-3.84.99-7.91.02-10.88-2.51-.29.37-.67.69-1.11.93-1.77.97-3.99.31-4.95-1.46-.97-1.77-.31-3.99,1.46-4.95.27-.15.56-.26.85-.33Zm-22.83,17.08c1.34,1.51,3.65,1.65,5.15.31.06-.05.12-.11.17-.17,2.59,1.71,6.1,1.56,8.53-.6,2.44-2.16,3.01-5.64,1.6-8.42,1.15-1.36,1.16-3.4-.06-4.77-1.34-1.51-3.65-1.65-5.15-.31-.4.35-.7.78-.91,1.24-1.7-.03-3.42.54-4.8,1.76-1.48,1.31-2.27,3.11-2.35,4.94-.68.1-1.33.39-1.88.88-1.51,1.34-1.65,3.65-.31,5.15Zm.42,4.36c1.59,0,2.88-1.29,2.88-2.88s-1.29-2.88-2.88-2.88c-1.59,0-2.88,1.29-2.88,2.88s1.29,2.88,2.88,2.88Zm-1.85,1.02c.66,0,1.19-.53,1.19-1.19,0-.66-.53-1.19-1.19-1.19s-1.19.53-1.19,1.19c0,.66.53,1.19,1.19,1.19Z"/></g><g><polyline class="cls-39" points="412.54 127.7 405.88 124.02 242.81 124.02 242.81 127.7 412.52 127.7"/><g><rect class="cls-39" x="360.65" y="120.36" width="19.46" height="7.35" transform="translate(740.75 248.07) rotate(-180)"/><line class="cls-18" x1="370.38" y1="120.94" x2="370.38" y2="127.13"/></g><g><rect class="cls-56" x="341.19" y="120.36" width="19.46" height="7.35" transform="translate(701.83 248.07) rotate(-180)"/><line class="cls-18" x1="350.92" y1="120.94" x2="350.92" y2="127.13"/></g><g><rect class="cls-38" x="321.73" y="120.36" width="19.46" height="7.35" transform="translate(662.92 248.07) rotate(-180)"/><line class="cls-18" x1="331.46" y1="120.94" x2="331.46" y2="127.13"/></g><g><rect class="cls-49" x="302.27" y="120.36" width="19.46" height="7.35" transform="translate(624 248.07) rotate(-180)"/><line class="cls-18" x1="312" y1="120.94" x2="312" y2="127.13"/></g><g><rect class="cls-60" x="243.89" y="120.36" width="19.46" height="7.35"/><line class="cls-18" x1="253.62" y1="120.94" x2="253.62" y2="127.13"/></g><g><rect class="cls-49" x="263.35" y="120.36" width="19.46" height="7.35"/><line class="cls-18" x1="273.08" y1="120.94" x2="273.08" y2="127.13"/></g><g><rect class="cls-51" x="282.81" y="120.36" width="19.46" height="7.35"/><line class="cls-18" x1="292.54" y1="120.94" x2="292.54" y2="127.13"/></g><g><rect class="cls-45" x="282.81" y="113.02" width="19.46" height="7.35" transform="translate(585.08 233.38) rotate(-180)"/><line class="cls-18" x1="292.54" y1="113.59" x2="292.54" y2="119.79"/></g><g><rect class="cls-56" x="263.35" y="113.02" width="19.46" height="7.35" transform="translate(546.16 233.38) rotate(-180)"/><line class="cls-18" x1="273.08" y1="113.59" x2="273.08" y2="119.79"/></g><g><rect class="cls-56" x="263.35" y="98.33" width="19.46" height="7.35" transform="translate(546.16 204) rotate(-180)"/><line class="cls-18" x1="273.08" y1="98.9" x2="273.08" y2="105.09"/></g><g><rect class="cls-39" x="243.89" y="113.02" width="19.46" height="7.35" transform="translate(507.25 233.38) rotate(-180)"/><line class="cls-18" x1="253.62" y1="113.59" x2="253.62" y2="119.79"/></g><g><rect class="cls-49" x="321.73" y="113.02" width="19.46" height="7.35" transform="translate(662.92 233.38) rotate(-180)"/><line class="cls-18" x1="331.46" y1="113.59" x2="331.46" y2="119.79"/></g><g><rect class="cls-60" x="302.27" y="113.02" width="19.46" height="7.35" transform="translate(624 233.38) rotate(-180)"/><line class="cls-18" x1="312" y1="113.59" x2="312" y2="119.79"/></g><g><rect class="cls-51" x="341.19" y="113.02" width="19.46" height="7.35"/><line class="cls-18" x1="350.92" y1="113.59" x2="350.92" y2="119.79"/></g><g><rect class="cls-51" x="312" y="105.67" width="19.46" height="7.35"/><line class="cls-18" x1="321.73" y1="106.25" x2="321.73" y2="112.44"/></g><g><rect class="cls-48" x="253.62" y="105.67" width="19.46" height="7.35" transform="translate(526.71 218.69) rotate(-180)"/><line class="cls-18" x1="263.35" y1="106.25" x2="263.35" y2="112.44"/></g><g><rect class="cls-51" x="273.08" y="105.67" width="19.46" height="7.35" transform="translate(565.62 218.69) rotate(-180)"/><line class="cls-18" x1="282.81" y1="106.25" x2="282.81" y2="112.44"/></g><g><rect class="cls-49" x="292.54" y="105.67" width="19.46" height="7.35" transform="translate(604.54 218.69) rotate(-180)"/><line class="cls-18" x1="302.27" y1="106.25" x2="302.27" y2="112.44"/></g><g><path class="cls-64" d="m262.52,56.4c-4.5-7.6-3.27-17.56,3.46-23.81,5.7-5.3,13.77-6.46,20.51-3.62-1.65-5.16-.31-11.03,3.92-14.96,4.54-4.22,11.07-4.95,16.29-2.32,1.02-2.42,2.56-4.66,4.6-6.56,7.76-7.21,19.9-6.76,27.11,1,3.11,3.35,4.79,7.51,5.08,11.74,2.63-.17,5.3.8,7.24,2.88,3.41,3.67,3.2,9.41-.47,12.82-.53.49-1.11.9-1.71,1.24,1.31,4.37.15,9.3-3.41,12.61-3.12,2.9-7.35,3.88-11.21,2.98-.79,4.58-3.03,8.94-6.7,12.35-7.78,7.23-19.4,7.74-27.73,1.8-.3.9-.81,1.74-1.56,2.43-2.34,2.18-6,2.04-8.18-.3-.86-.93-1.35-2.06-1.5-3.22-5.5,3.02-12.14,3.12-17.7.39-.31.68-.75,1.32-1.34,1.86-2.34,2.18-6,2.04-8.18-.3-2.18-2.34-2.04-6,.3-8.18.36-.34.76-.61,1.17-.84Zm-34.95,35.16c2.64,1.8,6.24,1.11,8.04-1.54.07-.11.14-.22.2-.33,4.64,1.62,9.97.02,12.87-4.25,2.91-4.28,2.42-9.85-.83-13.57,1.24-2.54.46-5.67-1.95-7.31-2.64-1.8-6.24-1.11-8.04,1.54-.48.7-.77,1.47-.91,2.26-2.63.61-5.05,2.16-6.68,4.57-1.76,2.59-2.27,5.66-1.69,8.5-1,.42-1.89,1.12-2.54,2.08-1.8,2.64-1.11,6.24,1.54,8.04Z"/><polygon class="cls-31" points="224.37 114.84 236.52 114.84 236.19 108.09 235.72 98.79 235.35 91.15 225.54 91.15 225.16 98.79 224.7 108.09 224.37 114.84"/><polygon class="cls-53" points="224.7 108.09 236.19 108.09 235.72 98.79 225.16 98.79 224.7 108.09"/><g><rect class="cls-49" x="191.33" y="100.46" width="28.83" height="18.08"/><polygon class="cls-49" points="220.16 94.86 211.61 94.86 205.74 101.63 220.16 101.63 220.16 94.86"/><g><rect class="cls-56" x="213.19" y="114.93" width="3.61" height="3.61" transform="translate(429.99 233.47) rotate(-180)"/><rect class="cls-56" x="207" y="114.93" width="3.61" height="3.61" transform="translate(417.62 233.47) rotate(-180)"/><rect class="cls-56" x="200.81" y="114.93" width="3.61" height="3.61" transform="translate(405.24 233.47) rotate(-180)"/></g><g><rect class="cls-56" x="213.19" y="109.01" width="3.61" height="3.61" transform="translate(429.99 221.63) rotate(-180)"/><rect class="cls-56" x="207" y="109.01" width="3.61" height="3.61" transform="translate(417.62 221.63) rotate(-180)"/><rect class="cls-56" x="200.81" y="109.01" width="3.61" height="3.61" transform="translate(405.24 221.63) rotate(-180)"/></g><g><rect class="cls-56" x="213.19" y="103.09" width="3.61" height="3.61" transform="translate(429.99 209.79) rotate(-180)"/><rect class="cls-56" x="207" y="103.09" width="3.61" height="3.61" transform="translate(417.62 209.79) rotate(-180)"/><rect class="cls-56" x="200.81" y="103.09" width="3.61" height="3.61" transform="translate(405.24 209.79) rotate(-180)"/><rect class="cls-56" x="194.62" y="114.93" width="3.61" height="3.61" transform="translate(392.86 233.47) rotate(-180)"/><rect class="cls-56" x="194.62" y="109.01" width="3.61" height="3.61" transform="translate(392.86 221.63) rotate(-180)"/><rect class="cls-56" x="194.62" y="103.09" width="3.61" height="3.61" transform="translate(392.86 209.79) rotate(-180)"/></g></g><g><path class="cls-37" d="m170.78,114.84c0,7,2.41,12.11,5.62,15.76,3.29,3.72,7.39,5.9,10.6,6.94,2.85.99,5.24,2.03,7.24,3.1,11.48,6.1,10.3,12.83,10.3,12.83h182.26c9.51,0,17.81-5.16,22.27-12.83,2.21-3.8,3.47-8.21,3.47-12.93h-159.01c-5.31,0-9.63-4.31-9.63-9.63v-3.24s-73.12,0-73.12,0Z"/><path class="cls-31" d="m204.53,153.46h182.26c9.51,0,17.82-5.16,22.28-12.82h-214.83c11.48,6.09,10.3,12.82,10.3,12.82Z"/><path class="cls-32" d="m176.39,130.59c3.29,3.72,7.39,5.9,10.6,6.94,2.85.99,5.24,2.03,7.24,3.1,11.48,6.1,10.3,12.83,10.3,12.83h51.35c.6-.76.98-1.53,1.12-2.31.58-3.32-2.98-8.45-6.07-11.26-3.28-2.98-6.76-4.02-9.47-4.83-7.92-2.37-8.56,1.22-17.38-.24-6.13-1.01-6.58-10.78-15.72-7.12-10.23,4.09-24.04-5.36-31.05,1.81-.32.33-.63.69-.91,1.07Z"/><path class="cls-33" d="m239.43,114.84c-.33,1.12-1.94,2.35-3.42,2.77-1.5.43-2.1-.48-4.04.15-1.8.59-1.24,3.78-3.49,3.03-.8-.27-.82-2.34-2.36-2.8-1.73-.51-2.14-.24-2.87-.63-.86-.47-1.55-1.53-1.79-2.52h17.97Z"/></g><g><circle class="cls-46" cx="387.81" cy="140.08" r="4.1"/><circle class="cls-60" cx="387.81" cy="140.08" r="2.91"/></g><g><circle class="cls-46" cx="366.21" cy="140.08" r="4.1"/><circle class="cls-60" cx="366.21" cy="140.08" r="2.91"/></g><g><circle class="cls-46" cx="343.8" cy="140.08" r="4.1"/><circle class="cls-60" cx="343.8" cy="140.08" r="2.91"/></g></g></g><path class="cls-36" d="m277.04,201.65h133.75v-37.46h-122.01c-5.83,0-11.08,3.54-13.26,8.95l-6.63,16.42c-2.34,5.78,1.92,12.09,8.16,12.09Z"/><path class="cls-40" d="m365.28,204.17s24.13,2.01,30.13-1.49c5.31-3.1,11.42-1.78,13.66.27,5.31,4.84,7.31,8.57,14.64,7.95s21.22,3.53,24.41,9.34c3.19,5.81-3.22,11.83-13.58,18.05-10.35,6.22-18.3,19.61-19.25,31.02h-52.08l2.08-65.14Z"/><g><ellipse class="cls-40" cx="460.41" cy="233.7" rx="13.97" ry="7.59"/><ellipse class="cls-40" cx="449.48" cy="224.95" rx="18.25" ry="10.04"/><ellipse class="cls-40" cx="473.52" cy="223.85" rx="14.75" ry="6.31"/></g><path class="cls-40" d="m234.01,188.84s24.67-.12,29.29-2.67c4.62-2.54,7.29-4.47,13.66-2.85,6.37,1.63,7.31,9.1,14.64,8.8s21.22,1.73,24.41,4.58c3.19,2.85-3.22,5.8-13.58,8.85-10.35,3.05-18.3,9.61-19.25,15.2h-52.08l2.92-31.91Z"/><g><polygon class="cls-52" points="301.98 230.61 335.93 227.33 428.13 227 402.72 230.61 301.98 230.61"/><rect class="cls-31" x="301.98" y="238.88" width="100.74" height="77.1"/><rect class="cls-51" x="301.98" y="230.61" width="100.74" height="8.28"/><polygon class="cls-53" points="428.13 315.99 402.72 315.99 402.72 238.88 428.13 234.21 428.13 315.99"/><polygon class="cls-31" points="428.13 227 402.72 230.61 402.72 238.88 428.13 234.21 428.13 227"/><rect class="cls-46" x="310.15" y="262.64" width="84.4" height="53.34"/><g><rect class="cls-56" x="312.77" y="247.31" width="5.11" height="9.04"/><rect class="cls-56" x="323.26" y="247.31" width="5.11" height="9.04"/><rect class="cls-56" x="333.74" y="247.31" width="5.11" height="9.04"/><rect class="cls-56" x="344.23" y="247.31" width="5.11" height="9.04"/><rect class="cls-56" x="354.71" y="247.31" width="5.11" height="9.04"/><rect class="cls-56" x="365.2" y="247.31" width="5.11" height="9.04"/><rect class="cls-56" x="375.68" y="247.31" width="5.11" height="9.04"/><rect class="cls-56" x="386.17" y="247.31" width="5.11" height="9.04"/></g><polygon class="cls-57" points="414.82 248.45 409.06 249.54 409.06 270.58 414.82 269.5 414.82 248.45"/><polygon class="cls-57" points="422.91 246.98 417.58 247.99 417.58 269.03 422.91 268.05 422.91 246.98"/><rect class="cls-45" x="408.53" y="299.21" width="16.25" height="9.08"/><polygon class="cls-52" points="424.79 299.21 408.53 299.21 408.53 277.43 424.79 274.16 424.79 299.21"/><g><path class="cls-3" d="m428.13,295.39l13.86,6.56c.44.21.71.64.71,1.13v2.47"/><polygon class="cls-52" points="428.13 298.4 442.7 305.29 442.7 305.54 428.13 305.54 428.13 298.4"/><g><line class="cls-3" x1="430.33" y1="299.66" x2="430.33" y2="296.39"/><line class="cls-3" x1="432.81" y1="300.84" x2="432.81" y2="297.58"/><line class="cls-3" x1="435.29" y1="302.02" x2="435.29" y2="298.76"/><line class="cls-3" x1="437.77" y1="303.2" x2="437.77" y2="299.94"/><line class="cls-3" x1="440.25" y1="304.38" x2="440.25" y2="301.12"/></g></g><polygon class="cls-46" points="428.13 315.99 442.7 305.51 424.79 299.21 409.06 306.61 428.13 315.99"/><g><path class="cls-2" d="m402.72,298.29l24.16,11.43c.76.36,1.24,1.12,1.24,1.96v4.3"/><polygon class="cls-52" points="402.72 303.55 428.13 315.56 428.13 315.99 402.72 315.99 402.72 303.55"/><g><line class="cls-2" x1="406.57" y1="305.74" x2="406.57" y2="300.05"/><line class="cls-2" x1="410.89" y1="307.8" x2="410.89" y2="302.11"/><line class="cls-2" x1="415.21" y1="309.85" x2="415.21" y2="304.17"/><line class="cls-2" x1="419.53" y1="311.91" x2="419.53" y2="306.23"/><line class="cls-2" x1="423.85" y1="313.97" x2="423.85" y2="308.29"/></g></g><g><g><polygon class="cls-43" points="339.21 283.26 341.42 281.04 349.97 281.04 352.06 283.26 339.21 283.26"/><rect class="cls-39" x="339.21" y="283.26" width="12.85" height="10.91"/><rect class="cls-46" x="346.94" y="284.38" width="4.38" height="1.99"/><rect class="cls-45" x="347.26" y="284.64" width=".46" height="1.48"/><rect class="cls-45" x="348.09" y="284.64" width=".47" height="1.48"/><rect class="cls-45" x="348.95" y="284.64" width=".46" height="1.48"/><rect class="cls-45" x="349.74" y="284.64" width=".46" height="1.48"/><rect class="cls-45" x="350.53" y="284.64" width=".47" height="1.48"/></g><g><rect class="cls-42" x="339.21" y="294.17" width="12.85" height="10.91"/><rect class="cls-38" x="339.95" y="295.29" width="4.38" height="1.99"/><rect class="cls-42" x="343.54" y="295.55" width=".46" height="1.48"/><rect class="cls-42" x="342.71" y="295.55" width=".47" height="1.48"/><rect class="cls-42" x="341.85" y="295.55" width=".46" height="1.48"/><rect class="cls-42" x="341.06" y="295.55" width=".46" height="1.48"/><rect class="cls-42" x="340.27" y="295.55" width=".47" height="1.48"/></g><g><rect class="cls-60" x="339.21" y="305.08" width="12.85" height="10.91"/><rect class="cls-42" x="346.94" y="306.2" width="4.38" height="1.99"/><rect class="cls-54" x="347.26" y="306.45" width=".46" height="1.48"/><rect class="cls-54" x="348.09" y="306.45" width=".47" height="1.48"/><rect class="cls-54" x="348.95" y="306.45" width=".46" height="1.48"/><rect class="cls-54" x="349.74" y="306.45" width=".46" height="1.48"/><rect class="cls-54" x="350.53" y="306.45" width=".47" height="1.48"/></g><g><rect class="cls-56" x="352.06" y="294.17" width="12.85" height="10.91"/><rect class="cls-42" x="360.77" y="295.03" width="3.31" height="2.73"/><g><line class="cls-20" x1="361.46" y1="297.21" x2="363.48" y2="297.21"/><g><line class="cls-20" x1="361.97" y1="297.21" x2="361.97" y2="295.94"/><polygon class="cls-58" points="362.37 296.05 361.97 295.36 361.57 296.05 362.37 296.05"/></g><g><line class="cls-20" x1="362.94" y1="297.21" x2="362.94" y2="295.94"/><polygon class="cls-58" points="363.34 296.05 362.94 295.36 362.54 296.05 363.34 296.05"/></g></g></g><g><rect class="cls-42" x="352.06" y="305.08" width="12.85" height="10.91"/><rect class="cls-38" x="360.77" y="305.94" width="3.31" height="2.73"/><g><line class="cls-19" x1="361.46" y1="308.12" x2="363.48" y2="308.12"/><g><line class="cls-19" x1="361.97" y1="308.12" x2="361.97" y2="306.84"/><polygon class="cls-60" points="362.37 306.96 361.97 306.26 361.57 306.96 362.37 306.96"/></g><g><line class="cls-19" x1="362.94" y1="308.12" x2="362.94" y2="306.84"/><polygon class="cls-60" points="363.34 306.96 362.94 306.26 362.54 306.96 363.34 306.96"/></g></g></g><g><polygon class="cls-43" points="381.7 283.26 383.92 281.04 392.46 281.04 394.55 283.26 381.7 283.26"/><rect class="cls-39" x="381.7" y="283.26" width="12.85" height="10.91"/><rect class="cls-46" x="389.44" y="284.38" width="4.38" height="1.99"/><rect class="cls-45" x="389.75" y="284.64" width=".46" height="1.48"/><rect class="cls-45" x="390.58" y="284.64" width=".47" height="1.48"/><rect class="cls-45" x="391.45" y="284.64" width=".46" height="1.48"/><rect class="cls-45" x="392.23" y="284.64" width=".46" height="1.48"/><rect class="cls-45" x="393.03" y="284.64" width=".47" height="1.48"/></g><g><polygon class="cls-46" points="368.85 305.08 371.06 302.86 379.61 302.86 381.7 305.08 368.85 305.08"/><rect class="cls-39" x="368.85" y="305.08" width="12.85" height="10.91"/><rect class="cls-46" x="376.58" y="306.2" width="4.38" height="1.99"/><rect class="cls-45" x="376.9" y="306.45" width=".46" height="1.48"/><rect class="cls-45" x="377.73" y="306.45" width=".47" height="1.48"/><rect class="cls-45" x="378.59" y="306.45" width=".46" height="1.48"/><rect class="cls-45" x="379.38" y="306.45" width=".46" height="1.48"/><rect class="cls-45" x="380.17" y="306.45" width=".47" height="1.48"/></g><g><rect class="cls-42" x="368.85" y="294.17" width="12.85" height="10.91"/><rect class="cls-38" x="376.58" y="295.29" width="4.38" height="1.99"/><rect class="cls-42" x="376.9" y="295.55" width=".46" height="1.48"/><rect class="cls-42" x="377.73" y="295.55" width=".47" height="1.48"/><rect class="cls-42" x="378.59" y="295.55" width=".46" height="1.48"/><rect class="cls-42" x="379.38" y="295.55" width=".46" height="1.48"/><rect class="cls-42" x="380.17" y="295.55" width=".47" height="1.48"/></g><g><rect class="cls-56" x="381.7" y="294.17" width="12.85" height="10.91"/><rect class="cls-42" x="382.44" y="295.29" width="4.38" height="1.99"/><rect class="cls-54" x="386.04" y="295.55" width=".46" height="1.48"/><rect class="cls-54" x="385.2" y="295.55" width=".47" height="1.48"/><rect class="cls-54" x="384.34" y="295.55" width=".46" height="1.48"/><rect class="cls-54" x="383.56" y="295.55" width=".46" height="1.48"/><rect class="cls-54" x="382.76" y="295.55" width=".47" height="1.48"/></g><g><polygon class="cls-58" points="368.85 283.26 371.06 281.04 379.61 281.04 381.7 283.26 368.85 283.26"/><rect class="cls-60" x="368.85" y="283.26" width="12.85" height="10.91"/><rect class="cls-42" x="377.56" y="284.13" width="3.31" height="2.73"/><g><line class="cls-20" x1="378.24" y1="286.31" x2="380.26" y2="286.31"/><g><line class="cls-20" x1="378.76" y1="286.31" x2="378.76" y2="285.03"/><polygon class="cls-58" points="379.16 285.15 378.76 284.45 378.35 285.15 379.16 285.15"/></g><g><line class="cls-20" x1="379.72" y1="286.31" x2="379.72" y2="285.03"/><polygon class="cls-58" points="380.13 285.15 379.72 284.45 379.32 285.15 380.13 285.15"/></g></g></g><g><rect class="cls-42" x="381.7" y="305.08" width="12.85" height="10.91"/><rect class="cls-38" x="390.41" y="305.94" width="3.31" height="2.73"/><g><line class="cls-19" x1="391.1" y1="308.12" x2="393.12" y2="308.12"/><g><line class="cls-19" x1="391.61" y1="308.12" x2="391.61" y2="306.84"/><polygon class="cls-60" points="392.01 306.96 391.61 306.26 391.21 306.96 392.01 306.96"/></g><g><line class="cls-19" x1="392.58" y1="308.12" x2="392.58" y2="306.84"/><polygon class="cls-60" points="392.98 306.96 392.58 306.26 392.18 306.96 392.98 306.96"/></g></g></g><g><polygon class="cls-43" points="323.01 272.35 325.22 270.14 333.77 270.14 335.86 272.35 323.01 272.35"/><rect class="cls-39" x="323.01" y="272.35" width="12.85" height="10.91"/><rect class="cls-46" x="330.74" y="273.47" width="4.38" height="1.99"/><rect class="cls-45" x="331.06" y="273.73" width=".46" height="1.48"/><rect class="cls-45" x="331.89" y="273.73" width=".47" height="1.48"/><rect class="cls-45" x="332.75" y="273.73" width=".46" height="1.48"/><rect class="cls-45" x="333.54" y="273.73" width=".46" height="1.48"/><rect class="cls-45" x="334.33" y="273.73" width=".47" height="1.48"/></g><g><polygon class="cls-46" points="310.15 294.17 312.37 291.95 320.92 291.95 323.01 294.17 310.15 294.17"/><rect class="cls-39" x="310.15" y="294.17" width="12.85" height="10.91"/><rect class="cls-46" x="317.89" y="295.29" width="4.38" height="1.99"/><rect class="cls-45" x="318.21" y="295.55" width=".46" height="1.48"/><rect class="cls-45" x="319.03" y="295.55" width=".47" height="1.48"/><rect class="cls-45" x="319.9" y="295.55" width=".46" height="1.48"/><rect class="cls-45" x="320.68" y="295.55" width=".46" height="1.48"/><rect class="cls-45" x="321.48" y="295.55" width=".47" height="1.48"/></g><g><rect class="cls-42" x="310.15" y="283.26" width="12.85" height="10.91"/><rect class="cls-38" x="317.89" y="284.38" width="4.38" height="1.99"/><rect class="cls-42" x="318.21" y="284.64" width=".46" height="1.48"/><rect class="cls-42" x="319.03" y="284.64" width=".47" height="1.48"/><rect class="cls-42" x="319.9" y="284.64" width=".46" height="1.48"/><rect class="cls-42" x="320.68" y="284.64" width=".46" height="1.48"/><rect class="cls-42" x="321.48" y="284.64" width=".47" height="1.48"/></g><g><rect class="cls-56" x="323.01" y="283.26" width="12.85" height="10.91"/><rect class="cls-42" x="330.74" y="284.38" width="4.38" height="1.99"/><rect class="cls-54" x="331.06" y="284.64" width=".46" height="1.48"/><rect class="cls-54" x="331.89" y="284.64" width=".47" height="1.48"/><rect class="cls-54" x="332.75" y="284.64" width=".46" height="1.48"/><rect class="cls-54" x="333.54" y="284.64" width=".46" height="1.48"/><rect class="cls-54" x="334.33" y="284.64" width=".47" height="1.48"/></g><g><polygon class="cls-58" points="310.15 272.35 312.37 270.14 320.92 270.14 323.01 272.35 310.15 272.35"/><rect class="cls-60" x="310.15" y="272.35" width="12.85" height="10.91"/><rect class="cls-42" x="318.86" y="273.22" width="3.31" height="2.73"/><g><line class="cls-20" x1="319.55" y1="275.4" x2="321.57" y2="275.4"/><g><line class="cls-20" x1="320.06" y1="275.4" x2="320.06" y2="274.12"/><polygon class="cls-58" points="320.47 274.24 320.06 273.54 319.66 274.24 320.47 274.24"/></g><g><line class="cls-20" x1="321.03" y1="275.4" x2="321.03" y2="274.12"/><polygon class="cls-58" points="321.43 274.24 321.03 273.54 320.63 274.24 321.43 274.24"/></g></g></g><g><rect class="cls-42" x="323.01" y="294.17" width="12.85" height="10.91"/><rect class="cls-38" x="331.72" y="295.03" width="3.31" height="2.73"/><g><line class="cls-19" x1="332.4" y1="297.21" x2="334.42" y2="297.21"/><g><line class="cls-19" x1="332.92" y1="297.21" x2="332.92" y2="295.94"/><polygon class="cls-60" points="333.32 296.05 332.92 295.36 332.51 296.05 333.32 296.05"/></g><g><line class="cls-19" x1="333.88" y1="297.21" x2="333.88" y2="295.94"/><polygon class="cls-60" points="334.29 296.05 333.88 295.36 333.48 296.05 334.29 296.05"/></g></g></g><g><rect class="cls-39" x="323.01" y="305.08" width="12.85" height="10.91"/><rect class="cls-46" x="323.74" y="306.2" width="4.38" height="1.99"/><rect class="cls-45" x="327.34" y="306.45" width=".46" height="1.48"/><rect class="cls-45" x="326.51" y="306.45" width=".47" height="1.48"/><rect class="cls-45" x="325.65" y="306.45" width=".46" height="1.48"/><rect class="cls-45" x="324.86" y="306.45" width=".46" height="1.48"/><rect class="cls-45" x="324.07" y="306.45" width=".47" height="1.48"/></g><g><rect class="cls-42" x="310.15" y="305.08" width="12.85" height="10.91"/><rect class="cls-38" x="310.98" y="305.94" width="3.31" height="2.73"/><g><line class="cls-19" x1="313.61" y1="308.12" x2="311.59" y2="308.12"/><g><line class="cls-19" x1="313.09" y1="308.12" x2="313.09" y2="306.84"/><polygon class="cls-60" points="312.69 306.96 313.09 306.26 313.5 306.96 312.69 306.96"/></g><g><line class="cls-19" x1="312.13" y1="308.12" x2="312.13" y2="306.84"/><polygon class="cls-60" points="311.72 306.96 312.13 306.26 312.53 306.96 311.72 306.96"/></g></g></g></g></g><g id="crane"><g><rect class="cls-28" x="328.3" y="181.88" width="16.8" height="3.68"/><ellipse class="cls-28" cx="336.7" cy="185.85" rx="8.4" ry="1.04"/><ellipse class="cls-29" cx="336.7" cy="181.64" rx="8.4" ry="1.04"/></g><g><rect class="cls-28" x="290.1" y="181.88" width="16.8" height="3.68"/><ellipse class="cls-28" cx="298.5" cy="185.85" rx="8.4" ry="1.04"/><ellipse class="cls-29" cx="298.5" cy="181.64" rx="8.4" ry="1.04"/></g><g><rect class="cls-28" x="309.31" y="183.99" width="16.8" height="3.68"/><ellipse class="cls-28" cx="317.71" cy="187.96" rx="8.4" ry="1.04"/><ellipse class="cls-29" cx="317.71" cy="183.75" rx="8.4" ry="1.04"/></g><line class="cls-13" x1="337.47" y1="181.39" x2="337.62" y2="162.99"/><line class="cls-13" x1="333.22" y1="181.39" x2="333.36" y2="162.99"/><line class="cls-13" x1="319.82" y1="183.23" x2="319.96" y2="162.99"/><line class="cls-13" x1="298.71" y1="181.39" x2="298.85" y2="162.99"/><line class="cls-13" x1="316.1" y1="183.23" x2="316.25" y2="162.99"/><line class="cls-13" x1="302.62" y1="181.39" x2="302.77" y2="162.99"/><line class="cls-13" x1="298.85" y1="169.4" x2="337.62" y2="169.4"/><line class="cls-13" x1="298.71" y1="175.2" x2="337.55" y2="175.2"/><polygon class="cls-39" points="312.79 129.05 323.72 129.05 323.72 145.8 318.03 159.32 312.79 145.8 312.79 129.05"/><line class="cls-13" x1="326.02" y1="142.14" x2="336.5" y2="159.32"/><line class="cls-13" x1="310.18" y1="142.72" x2="299.7" y2="159.9"/><line class="cls-13" x1="309.14" y1="144.19" x2="336.5" y2="159.32"/><line class="cls-13" x1="327.22" y1="144.19" x2="299.86" y2="159.32"/><line class="cls-12" x1="316.39" y1="80.63" x2="339.83" y2="94.93"/><rect class="cls-59" x="310.7" y="80.01" width="5.69" height="10.6"/><polygon class="cls-59" points="339.83 94.67 342.48 94.67 342.48 105.27 339.83 106.72 339.83 94.67"/><rect class="cls-27" x="299.53" y="116.82" width="37.94" height="12.05"/><polygon class="cls-31" points="340.59 104.54 334.13 119.36 336.68 119.36 364.19 56.32 340.59 104.54"/><ellipse class="cls-31" cx="364.19" cy="56.32" rx="2.06" ry="2.01"/><polyline class="cls-13" points="357.08 57.49 381.8 80.31 364.19 56.32 357.08 57.49 307.56 87.84"/><polygon class="cls-59" points="314.11 116.82 307.56 87.84 309.92 87.84 318.03 116.82 314.11 116.82"/><path class="cls-13" d="m384.38,82.47v20.87c0,.64-.54,1.17-1.19,1.17h-.05c-.66,0-1.19-.52-1.19-1.17v-20.87c0-.64.54-1.17,1.19-1.17h.05c.66,0,1.19.52,1.19,1.17Z"/><rect class="cls-39" x="380.23" y="99.97" width="5.86" height="4.53"/><ellipse class="cls-31" cx="383.16" cy="82.02" rx="2.06" ry="2.01"/><line class="cls-12" x1="315.44" y1="92.11" x2="339.83" y2="100.7"/><path class="cls-31" d="m299.32,80.28l17.65,7.99c1.02.46,1.5,1.62,1.08,2.63h0c-.41,1.01-1.55,1.54-2.61,1.2l-18.52-5.83,2.39-6Z"/><rect class="cls-27" x="298.79" y="159.32" width="38.83" height="3.67"/><polygon class="cls-27" points="309.14 140.52 327.38 140.52 327.38 142.35 327.38 144.19 309.14 144.19 309.14 140.52"/><line class="cls-13" x1="331.26" y1="126.3" x2="331.26" y2="119.36"/><line class="cls-13" x1="326.27" y1="126.31" x2="326.27" y2="119.37"/><line class="cls-13" x1="321.28" y1="126.31" x2="321.28" y2="119.37"/><line class="cls-13" x1="316.3" y1="126.31" x2="316.3" y2="119.37"/><line class="cls-13" x1="311.32" y1="126.31" x2="311.32" y2="119.37"/><line class="cls-13" x1="306.33" y1="126.31" x2="306.33" y2="119.37"/><g><rect class="cls-56" x="373.08" y="104.5" width="20.16" height="7.44" transform="translate(766.32 216.44) rotate(-180)"/><line class="cls-22" x1="383.16" y1="105.09" x2="383.16" y2="111.35"/></g></g><g><g><rect class="cls-51" x="329.46" y="184.46" width="20.46" height="7.72"/><line class="cls-15" x1="339.69" y1="185.07" x2="339.69" y2="191.58"/></g><g><rect class="cls-49" x="349.92" y="184.46" width="20.46" height="7.72"/><line class="cls-15" x1="360.15" y1="185.07" x2="360.15" y2="191.58"/></g><g><rect class="cls-60" x="370.38" y="184.46" width="20.46" height="7.72"/><line class="cls-15" x1="380.6" y1="185.07" x2="380.6" y2="191.58"/></g><g><rect class="cls-51" x="390.83" y="184.46" width="20.46" height="7.72"/><line class="cls-15" x1="401.06" y1="185.07" x2="401.06" y2="191.58"/></g><g><rect class="cls-56" x="390.83" y="176.74" width="20.46" height="7.72" transform="translate(802.13 361.2) rotate(-180)"/><line class="cls-15" x1="401.06" y1="177.35" x2="401.06" y2="183.85"/></g><g><rect class="cls-45" x="370.38" y="176.74" width="20.46" height="7.72" transform="translate(761.21 361.2) rotate(-180)"/><line class="cls-15" x1="380.6" y1="177.35" x2="380.6" y2="183.85"/></g><g><rect class="cls-49" x="329.46" y="176.74" width="20.46" height="7.72"/><line class="cls-15" x1="339.69" y1="177.35" x2="339.69" y2="183.85"/></g><g><rect class="cls-60" x="349.92" y="176.74" width="20.46" height="7.72"/><line class="cls-15" x1="360.15" y1="177.35" x2="360.15" y2="183.85"/></g><rect class="cls-51" x="360.15" y="169.01" width="20.46" height="7.72"/><g><rect class="cls-39" x="339.69" y="169.01" width="20.46" height="7.72"/><line class="cls-15" x1="349.92" y1="169.62" x2="349.92" y2="176.13"/><line class="cls-15" x1="370.38" y1="169.62" x2="370.38" y2="176.13"/></g><g><rect class="cls-38" x="380.6" y="169.01" width="20.46" height="7.72" transform="translate(781.67 345.75) rotate(-180)"/><line class="cls-15" x1="390.83" y1="169.62" x2="390.83" y2="176.13"/></g></g><g><g class="cls-62"><g><ellipse class="cls-6" cx="269.92" cy="243.42" rx="1.16" ry="6.95" transform="translate(-72.35 365.72) rotate(-61.71)"/><path class="cls-60" d="m276.07,246.66c-.3.57-3.29-.45-6.67-2.27-3.38-1.82-5.87-3.75-5.57-4.32l7.8-14.5,12.24,6.59-7.8,14.5Z"/><ellipse class="cls-50" cx="277.76" cy="228.86" rx="1.16" ry="6.95" transform="translate(-55.42 364.96) rotate(-61.71)"/><ellipse class="cls-9" cx="277.76" cy="228.86" rx="1.16" ry="6.95" transform="translate(-55.42 364.96) rotate(-61.71)"/><path class="cls-50" d="m282.32,235.02v.03c-.21.4-.82.27-.82.27h0c-.31-.03-.77-.14-1.46-.37-1.25-.43-2.84-1.14-4.46-2.02-1.63-.88-3.1-1.8-4.14-2.61-.58-.45-.92-.78-1.12-1.01h0s-.45-.43-.23-.84c-.15.04-.26.11-.32.22-.13.24-.12.7,1.45,1.91,1.06.82,2.55,1.76,4.19,2.65s3.25,1.61,4.52,2.04c.9.31,2.13.66,2.4.16.05-.1.07-.22,0-.42Z"/><path class="cls-50" d="m280.29,238.78v.03c-.21.4-.82.27-.82.27h0c-.3-.04-.77-.14-1.46-.37-1.25-.43-2.84-1.14-4.46-2.02-1.63-.88-3.1-1.8-4.14-2.61-.58-.45-.92-.78-1.12-1.01h0s-.45-.43-.23-.84c-.15.04-.26.11-.32.22-.13.24-.12.7,1.45,1.91,1.06.82,2.55,1.76,4.19,2.65,1.64.89,3.25,1.61,4.52,2.04.9.31,2.13.66,2.4.16.05-.1.07-.22,0-.42Z"/><path class="cls-35" d="m278.27,242.54v.03c-.21.4-.82.27-.82.27h0c-.3-.04-.77-.14-1.46-.37-1.25-.43-2.84-1.14-4.46-2.02-1.63-.88-3.1-1.8-4.14-2.61-.58-.45-.92-.78-1.12-1.01h0s-.45-.43-.23-.84c-.15.04-.26.11-.32.22-.13.24-.12.7,1.45,1.91,1.06.82,2.55,1.76,4.19,2.65,1.64.89,3.25,1.61,4.52,2.04.9.31,2.13.66,2.4.16.05-.09.07-.22,0-.42Z"/><path class="cls-35" d="m276.24,246.31v.03c-.21.4-.82.27-.82.27h0c-.3-.04-.77-.14-1.46-.37-1.25-.43-2.84-1.14-4.46-2.02-1.63-.88-3.1-1.8-4.14-2.61-.58-.45-.92-.78-1.12-1.01h0s-.45-.43-.23-.84c-.15.04-.26.11-.32.22-.13.24-.12.7,1.45,1.91,1.06.82,2.55,1.76,4.19,2.65s3.25,1.61,4.52,2.04c.9.31,2.13.66,2.39.16.05-.1.07-.22,0-.42Z"/></g></g><path class="cls-25" d="m266.06,233.74s-1.94,2.56,3.12,2.47"/><path class="cls-25" d="m284.21,234.19s.21,1.83-2.39,2.01"/></g><ellipse class="cls-40" cx="445.21" cy="145.53" rx="10.68" ry="4.61"/><ellipse class="cls-40" cx="450.8" cy="140.92" rx="6.84" ry="2.96"/><path class="cls-26" d="m10.62,178.88s11.01-13.08,26.26-14.31c15.25-1.22,15.81-13.93,35.01-15.06,19.2-1.13,53.38-.75,58.75,8.41,6.1,10.42,22.57,6.65,22.57,6.65,0,0,8.94-1.55,12.14,3.58,3.53,5.65,29.65,2.54,29.65,2.54,0,0,18.73-1.69,22.52,10.74,2.61,8.59,13.62,7.89,13.62,7.89,0,0,28.87-.89,35.33-.45,6.46.45,16.06,4.26,16.2,16.96.14,13.02-11.32,15.66-23.01,16.8-12.99,1.27-9.65,12.41-16.38,16.8s-18.35,4.38-32.19,4.66-13.65,3.96-22.87,9.88c-9.23,5.92-32.47,7.34-60.42,7.91s-83.29,3.67-100.52.56c-17.22-3.11-41.51-31.34-16.66-83.58Z"/><g><path class="cls-14" d="m174.43,203.57c.51,2.2,2.48,3.84,4.83,3.84s4.33-1.64,4.83-3.84"/><path class="cls-14" d="m184.1,203.57c.51,2.2,2.48,3.84,4.83,3.84s4.33-1.64,4.83-3.84"/><path class="cls-14" d="m169.6,207.42c2.36,0,4.33-1.64,4.83-3.84"/><path class="cls-14" d="m193.77,203.57c.51,2.2,2.48,3.84,4.83,3.84s4.33-1.64,4.83-3.84"/><path class="cls-14" d="m203.44,203.57c.51,2.2,2.48,3.84,4.83,3.84s4.33-1.64,4.83-3.84"/><path class="cls-14" d="m213.11,203.57c.51,2.2,2.48,3.84,4.83,3.84s4.33-1.64,4.83-3.84"/><path class="cls-14" d="m222.78,203.57c.51,2.2,2.48,3.84,4.83,3.84s4.33-1.64,4.83-3.84"/><path class="cls-14" d="m232.45,203.57c.51,2.2,2.48,3.84,4.83,3.84"/></g></g></svg>