<?xml version="1.0" encoding="UTF-8"?><svg id="Content" xmlns="http://www.w3.org/2000/svg" xmlns:xlink="http://www.w3.org/1999/xlink" viewBox="0 0 367.54 395.33"><defs><style>.cls-1,.cls-2,.cls-3,.cls-4,.cls-5,.cls-6,.cls-7,.cls-8,.cls-9,.cls-10,.cls-11,.cls-12,.cls-13,.cls-14,.cls-15,.cls-16,.cls-17,.cls-18,.cls-19,.cls-20,.cls-21,.cls-22,.cls-23,.cls-24{stroke-miterlimit:10;}.cls-1,.cls-2,.cls-4,.cls-5,.cls-6,.cls-7,.cls-8,.cls-9,.cls-10,.cls-11,.cls-12,.cls-13,.cls-14,.cls-17,.cls-18,.cls-19,.cls-20,.cls-21,.cls-22,.cls-23,.cls-24{fill:none;}.cls-1,.cls-2,.cls-8,.cls-9{stroke:#072f69;}.cls-1,.cls-15,.cls-16{stroke-width:.76px;}.cls-2{stroke-width:.38px;}.cls-3,.cls-25,.cls-15{fill:#0e5b90;}.cls-3,.cls-10,.cls-11,.cls-22{stroke-width:.6px;}.cls-3,.cls-15{stroke:#0e5b90;}.cls-26{opacity:.06;}.cls-27,.cls-28{fill:#02124e;}.cls-29{fill:#fff;}.cls-30{fill:#e4e4e4;}.cls-31,.cls-32{fill:#96cae6;}.cls-33{fill:#979797;}.cls-34{fill:#666;}.cls-35{fill:#65b0db;}.cls-36{fill:#8c8c8c;}.cls-37{fill:#a6aabe;}.cls-38{fill:#b1b1b1;}.cls-39{fill:#cacaca;}.cls-40{fill:#d6d6d6;}.cls-41{fill:#d89d29;}.cls-42,.cls-43{fill:#10699e;}.cls-44,.cls-16{fill:#0b4c83;}.cls-45{fill:#072f69;}.cls-46{fill:#1872a6;}.cls-47{fill:#4494c2;}.cls-48,.cls-49{fill:gray;}.cls-50,.cls-51{fill:#2981b6;}.cls-52{fill:#2b88bf;}.cls-53{fill:#3898d1;}.cls-54{fill:#6093b6;}.cls-55,.cls-56{fill:#4ba3d5;}.cls-57{fill:#4d4d4d;}.cls-4{stroke-width:1.28px;}.cls-4,.cls-16{stroke:#0b4c83;}.cls-5{stroke:#cacaca;stroke-width:20.42px;}.cls-6,.cls-7{stroke-width:.18px;}.cls-6,.cls-19{stroke:#4ba3d5;}.cls-7,.cls-20{stroke:#3898d1;}.cls-58{fill:url(#New_Gradient_Swatch_1);}.cls-8{stroke-width:.2px;}.cls-9{stroke-width:.4px;}.cls-10,.cls-11,.cls-17,.cls-21,.cls-23{stroke:#212b5c;}.cls-10,.cls-12{stroke-linecap:round;}.cls-12{stroke:#10699e;stroke-width:.61px;}.cls-13{stroke-width:.62px;}.cls-13,.cls-18,.cls-22,.cls-24{opacity:.3;stroke:#ebedf0;}.cls-14{stroke:#202c5b;stroke-width:.91px;}.cls-51,.cls-56,.cls-49,.cls-43,.cls-32,.cls-59,.cls-28{fill-rule:evenodd;}.cls-59{fill:#333;}.cls-17{stroke-width:.23px;}.cls-18{stroke-width:.59px;}.cls-19,.cls-20{stroke-width:.34px;}.cls-60{fill:url(#New_Gradient_Swatch_1-2);}.cls-61{fill:url(#New_Gradient_Swatch_1-3);}.cls-21{stroke-width:.66px;}.cls-23{stroke-width:.45px;}.cls-24{stroke-width:1.04px;}</style><linearGradient id="New_Gradient_Swatch_1" x1="79.49" y1="320.09" x2="177.88" y2="281.46" gradientUnits="userSpaceOnUse"><stop offset="0" stop-color="#b1b1b1" stop-opacity=".9"/><stop offset=".22" stop-color="#b8b8b8" stop-opacity=".62"/><stop offset=".49" stop-color="#c2c2c2" stop-opacity=".29"/><stop offset=".7" stop-color="#c7c7c7" stop-opacity=".08"/><stop offset=".81" stop-color="#cacaca" stop-opacity="0"/></linearGradient><linearGradient id="New_Gradient_Swatch_1-2" x1="223.86" x2="322.25" y2="281.46" xlink:href="#New_Gradient_Swatch_1"/><linearGradient id="New_Gradient_Swatch_1-3" x1="-11299.82" y1="84.68" x2="-11440.77" y2="-13.37" gradientTransform="translate(-11193.25) rotate(-180) scale(1 -1)" xlink:href="#New_Gradient_Swatch_1"/></defs><rect class="cls-55" x="11.17" y="32.83" width="340.22" height="360.02"/><g><path class="cls-12" d="m122.51,248.39c.54,2.32,2.61,4.05,5.09,4.05s4.55-1.73,5.09-4.05"/><path class="cls-12" d="m132.69,248.39c.54,2.32,2.61,4.05,5.09,4.05"/><path class="cls-12" d="m117.41,252.44c2.48,0,4.55-1.73,5.09-4.05"/></g><g><path class="cls-12" d="m38.67,203.57c.51,2.2,2.48,3.84,4.83,3.84s4.33-1.64,4.83-3.84"/><path class="cls-12" d="m48.34,203.57c.51,2.2,2.48,3.84,4.83,3.84s4.33-1.64,4.83-3.84"/><path class="cls-12" d="m33.84,207.42c2.36,0,4.33-1.64,4.83-3.84"/><path class="cls-12" d="m58.01,203.57c.51,2.2,2.48,3.84,4.83,3.84s4.33-1.64,4.83-3.84"/><path class="cls-12" d="m67.68,203.57c.51,2.2,2.48,3.84,4.83,3.84s4.33-1.64,4.83-3.84"/><path class="cls-12" d="m77.35,203.57c.51,2.2,2.48,3.84,4.83,3.84s4.33-1.64,4.83-3.84"/><path class="cls-12" d="m87.02,203.57c.51,2.2,2.48,3.84,4.83,3.84s4.33-1.64,4.83-3.84"/><path class="cls-12" d="m96.69,203.57c.51,2.2,2.48,3.84,4.83,3.84"/></g><g><path class="cls-12" d="m87.47,170.84c2.23,0,4.1-1.56,4.58-3.64"/><path class="cls-12" d="m92.05,167.19c.48,2.09,2.35,3.64,4.58,3.64s4.1-1.56,4.58-3.64"/><path class="cls-12" d="m101.21,167.19c.48,2.09,2.35,3.64,4.58,3.64s4.1-1.56,4.58-3.64"/><path class="cls-12" d="m110.37,167.19c.48,2.09,2.35,3.64,4.58,3.64"/></g><g><path class="cls-38" d="m141.28,208.16h136.51v-37.46h-124.77c-5.83,0-11.08,3.54-13.26,8.95l-7.28,16.42c0,5.88,2.57,12.09,8.81,12.09Z"/><rect class="cls-38" x="132.47" y="193.49" width="7.39" height="2.74"/></g><path class="cls-38" d="m348.07,32.83H92.08c13.62,50.98,62.25,91.39,95.5,91.39h97.96"/><path class="cls-29" d="m11.17,395.33h339.9V33.08H95.08c13.62,46.93,62.25,84.14,95.5,84.14h97.96s-56.95,178.53-56.95,178.53H11.17v99.58Z"/><line class="cls-5" x1="275.03" y1="307.14" x2="351.71" y2="307.14"/><line class="cls-5" x1="11.17" y1="357.42" x2="351.71" y2="357.42"/><path class="cls-40" d="m259.71,254.58c16.55-48.99,32.2-99.12,46.63-148.78,2.01-7.14,4.08-14.27,6.01-21.44l15.66,4.54c-8.53,27.97-16.75,57.48-24.35,85.68-5.61,20.72-11.56,43.74-16.86,64.67-1.77,7.22-3.6,14.41-5.3,21.65,0,0-21.79-6.31-21.79-6.31h0Z"/><g><g><rect class="cls-44" x="263" y="85.54" width="20.46" height="7.72"/><line class="cls-13" x1="273.23" y1="86.15" x2="273.23" y2="92.66"/></g><g><rect class="cls-42" x="283.46" y="85.54" width="20.46" height="7.72"/><line class="cls-13" x1="293.69" y1="86.15" x2="293.69" y2="92.66"/></g><g><rect class="cls-55" x="303.92" y="85.54" width="20.46" height="7.72"/><line class="cls-13" x1="314.15" y1="86.15" x2="314.15" y2="92.66"/></g><g><rect class="cls-44" x="324.38" y="85.54" width="20.46" height="7.72"/><line class="cls-13" x1="334.61" y1="86.15" x2="334.61" y2="92.66"/></g><g><rect class="cls-50" x="324.38" y="77.82" width="20.46" height="7.72" transform="translate(669.21 163.36) rotate(-180)"/><line class="cls-13" x1="334.61" y1="78.42" x2="334.61" y2="84.93"/></g><g><rect class="cls-41" x="303.92" y="77.82" width="20.46" height="7.72" transform="translate(628.3 163.36) rotate(-180)"/><line class="cls-13" x1="314.15" y1="78.42" x2="314.15" y2="84.93"/></g><g><rect class="cls-42" x="263" y="77.82" width="20.46" height="7.72"/><line class="cls-13" x1="273.23" y1="78.42" x2="273.23" y2="84.93"/></g><g><rect class="cls-55" x="283.46" y="77.82" width="20.46" height="7.72"/><line class="cls-13" x1="293.69" y1="78.42" x2="293.69" y2="84.93"/></g><rect class="cls-44" x="293.69" y="70.09" width="20.46" height="7.72"/><g><rect class="cls-41" x="273.23" y="70.09" width="20.46" height="7.72"/><line class="cls-13" x1="283.46" y1="70.7" x2="283.46" y2="77.21"/><line class="cls-13" x1="303.92" y1="70.7" x2="303.92" y2="77.21"/></g><g><rect class="cls-31" x="314.15" y="70.09" width="20.46" height="7.72" transform="translate(648.75 147.91) rotate(-180)"/><line class="cls-13" x1="324.38" y1="70.7" x2="324.38" y2="77.21"/></g></g><g><g><rect class="cls-42" x="34.45" y="302.98" width="34.45" height="13.01"/><line class="cls-24" x1="51.67" y1="304" x2="51.67" y2="314.96"/></g><g><rect class="cls-38" x="34.45" y="289.98" width="34.45" height="13.01"/><line class="cls-24" x1="51.67" y1="291" x2="51.67" y2="301.96"/></g><g><rect class="cls-55" x="68.9" y="302.98" width="34.45" height="13.01"/><line class="cls-24" x1="86.12" y1="304" x2="86.12" y2="314.96"/></g><g><rect class="cls-44" x="103.35" y="302.98" width="34.45" height="13.01"/><line class="cls-24" x1="120.57" y1="304" x2="120.57" y2="314.96"/></g><g><rect class="cls-42" x="137.79" y="302.98" width="34.45" height="13.01"/><line class="cls-24" x1="155.02" y1="304" x2="155.02" y2="314.96"/></g><g><rect class="cls-38" x="103.35" y="263.97" width="34.45" height="13.01"/><line class="cls-24" x1="120.57" y1="264.99" x2="120.57" y2="275.95"/></g><g><rect class="cls-42" x="51.62" y="276.97" width="34.45" height="13.01"/><line class="cls-24" x1="68.85" y1="277.99" x2="68.85" y2="288.95"/></g><g><rect class="cls-38" x="137.79" y="289.98" width="34.45" height="13.01" transform="translate(310.04 592.96) rotate(-180)"/><line class="cls-24" x1="155.02" y1="291" x2="155.02" y2="301.96"/></g><g><rect class="cls-50" x="103.35" y="289.98" width="34.45" height="13.01" transform="translate(241.14 592.96) rotate(-180)"/><line class="cls-24" x1="120.57" y1="291" x2="120.57" y2="301.96"/></g><g><rect class="cls-44" x="0" y="302.98" width="34.45" height="13.01"/><line class="cls-24" x1="17.22" y1="304" x2="17.22" y2="314.96"/></g><g><rect class="cls-50" x="0" y="289.98" width="34.45" height="13.01" transform="translate(34.45 592.96) rotate(-180)"/><line class="cls-24" x1="17.22" y1="291" x2="17.22" y2="301.96"/></g><g><rect class="cls-41" x="68.9" y="289.98" width="34.45" height="13.01" transform="translate(172.24 592.96) rotate(-180)"/><line class="cls-24" x1="86.12" y1="291" x2="86.12" y2="301.96"/></g><g><rect class="cls-44" x="86.12" y="276.97" width="34.45" height="13.01" transform="translate(206.69 566.95) rotate(-180)"/><line class="cls-24" x1="103.35" y1="277.99" x2="103.35" y2="288.95"/></g><g><rect class="cls-42" x="120.57" y="276.97" width="34.45" height="13.01" transform="translate(275.59 566.95) rotate(-180)"/><line class="cls-24" x1="137.79" y1="277.99" x2="137.79" y2="288.95"/></g></g><g><polygon class="cls-45" points="166.22 230.61 200.16 227.33 292.37 227 266.96 230.61 166.22 230.61"/><rect class="cls-25" x="166.22" y="238.88" width="100.74" height="77.1"/><rect class="cls-44" x="166.22" y="230.61" width="100.74" height="8.28"/><polygon class="cls-46" points="292.37 315.99 266.96 315.99 266.96 238.88 292.37 234.21 292.37 315.99"/><polygon class="cls-25" points="292.37 227 266.96 230.61 266.96 238.88 292.37 234.21 292.37 227"/><rect class="cls-39" x="174.39" y="262.64" width="84.4" height="53.34"/><g><rect class="cls-50" x="177.01" y="247.31" width="5.11" height="9.04"/><rect class="cls-50" x="187.5" y="247.31" width="5.11" height="9.04"/><rect class="cls-50" x="197.98" y="247.31" width="5.11" height="9.04"/><rect class="cls-50" x="208.46" y="247.31" width="5.11" height="9.04"/><rect class="cls-50" x="218.95" y="247.31" width="5.11" height="9.04"/><rect class="cls-50" x="229.43" y="247.31" width="5.11" height="9.04"/><rect class="cls-50" x="239.92" y="247.31" width="5.11" height="9.04"/><rect class="cls-50" x="250.4" y="247.31" width="5.11" height="9.04"/></g><polygon class="cls-52" points="279.06 248.45 273.3 249.54 273.3 270.58 279.06 269.5 279.06 248.45"/><polygon class="cls-52" points="287.14 246.98 281.82 247.99 281.82 269.03 287.14 268.05 287.14 246.98"/><rect class="cls-38" x="272.77" y="299.21" width="16.25" height="9.08"/><polygon class="cls-45" points="289.02 299.21 272.77 299.21 272.77 277.43 289.02 274.16 289.02 299.21"/><g><path class="cls-2" d="m292.37,295.39l13.86,6.56c.44.21.71.64.71,1.13v2.47"/><polygon class="cls-45" points="292.37 298.4 306.94 305.29 306.94 305.54 292.37 305.54 292.37 298.4"/><g><line class="cls-2" x1="294.57" y1="299.66" x2="294.57" y2="296.39"/><line class="cls-2" x1="297.05" y1="300.84" x2="297.05" y2="297.58"/><line class="cls-2" x1="299.53" y1="302.02" x2="299.53" y2="298.76"/><line class="cls-2" x1="302.01" y1="303.2" x2="302.01" y2="299.94"/><line class="cls-2" x1="304.49" y1="304.38" x2="304.49" y2="301.12"/></g></g><polygon class="cls-39" points="292.37 315.99 306.94 305.51 289.02 299.21 273.3 306.61 292.37 315.99"/><g><path class="cls-1" d="m266.96,298.29l24.16,11.43c.76.36,1.24,1.12,1.24,1.96v4.3"/><polygon class="cls-45" points="266.96 303.55 292.37 315.56 292.37 315.99 266.96 315.99 266.96 303.55"/><g><line class="cls-1" x1="270.8" y1="305.74" x2="270.8" y2="300.05"/><line class="cls-1" x1="275.12" y1="307.8" x2="275.12" y2="302.11"/><line class="cls-1" x1="279.44" y1="309.85" x2="279.44" y2="304.17"/><line class="cls-1" x1="283.76" y1="311.91" x2="283.76" y2="306.23"/><line class="cls-1" x1="288.08" y1="313.97" x2="288.08" y2="308.29"/></g></g><g><g><polygon class="cls-36" points="203.44 283.26 205.66 281.04 214.21 281.04 216.3 283.26 203.44 283.26"/><rect class="cls-33" x="203.44" y="283.26" width="12.85" height="10.91"/><rect class="cls-39" x="211.18" y="284.38" width="4.38" height="1.99"/><rect class="cls-38" x="211.5" y="284.64" width=".46" height="1.48"/><rect class="cls-38" x="212.33" y="284.64" width=".47" height="1.48"/><rect class="cls-38" x="213.19" y="284.64" width=".46" height="1.48"/><rect class="cls-38" x="213.98" y="284.64" width=".46" height="1.48"/><rect class="cls-38" x="214.77" y="284.64" width=".47" height="1.48"/></g><g><rect class="cls-35" x="203.44" y="294.17" width="12.85" height="10.91"/><rect class="cls-31" x="204.18" y="295.29" width="4.38" height="1.99"/><rect class="cls-35" x="207.78" y="295.55" width=".46" height="1.48"/><rect class="cls-35" x="206.95" y="295.55" width=".47" height="1.48"/><rect class="cls-35" x="206.09" y="295.55" width=".46" height="1.48"/><rect class="cls-35" x="205.3" y="295.55" width=".46" height="1.48"/><rect class="cls-35" x="204.5" y="295.55" width=".47" height="1.48"/></g><g><rect class="cls-55" x="203.44" y="305.08" width="12.85" height="10.91"/><rect class="cls-35" x="211.18" y="306.2" width="4.38" height="1.99"/><rect class="cls-47" x="211.5" y="306.45" width=".46" height="1.48"/><rect class="cls-47" x="212.33" y="306.45" width=".47" height="1.48"/><rect class="cls-47" x="213.19" y="306.45" width=".46" height="1.48"/><rect class="cls-47" x="213.98" y="306.45" width=".46" height="1.48"/><rect class="cls-47" x="214.77" y="306.45" width=".47" height="1.48"/></g><g><rect class="cls-50" x="216.3" y="294.17" width="12.85" height="10.91"/><rect class="cls-35" x="225.01" y="295.03" width="3.31" height="2.73"/><g><line class="cls-20" x1="225.7" y1="297.21" x2="227.72" y2="297.21"/><g><line class="cls-20" x1="226.21" y1="297.21" x2="226.21" y2="295.94"/><polygon class="cls-53" points="226.61 296.05 226.21 295.36 225.81 296.05 226.61 296.05"/></g><g><line class="cls-20" x1="227.18" y1="297.21" x2="227.18" y2="295.94"/><polygon class="cls-53" points="227.58 296.05 227.18 295.36 226.77 296.05 227.58 296.05"/></g></g></g><g><rect class="cls-35" x="216.3" y="305.08" width="12.85" height="10.91"/><rect class="cls-31" x="225.01" y="305.94" width="3.31" height="2.73"/><g><line class="cls-19" x1="225.7" y1="308.12" x2="227.72" y2="308.12"/><g><line class="cls-19" x1="226.21" y1="308.12" x2="226.21" y2="306.84"/><polygon class="cls-55" points="226.61 306.96 226.21 306.26 225.81 306.96 226.61 306.96"/></g><g><line class="cls-19" x1="227.18" y1="308.12" x2="227.18" y2="306.84"/><polygon class="cls-55" points="227.58 306.96 227.18 306.26 226.77 306.96 227.58 306.96"/></g></g></g><g><polygon class="cls-36" points="245.94 283.26 248.16 281.04 256.7 281.04 258.79 283.26 245.94 283.26"/><rect class="cls-33" x="245.94" y="283.26" width="12.85" height="10.91"/><rect class="cls-39" x="253.68" y="284.38" width="4.38" height="1.99"/><rect class="cls-38" x="253.99" y="284.64" width=".46" height="1.48"/><rect class="cls-38" x="254.82" y="284.64" width=".47" height="1.48"/><rect class="cls-38" x="255.68" y="284.64" width=".46" height="1.48"/><rect class="cls-38" x="256.47" y="284.64" width=".46" height="1.48"/><rect class="cls-38" x="257.27" y="284.64" width=".47" height="1.48"/></g><g><polygon class="cls-39" points="233.08 305.08 235.3 302.86 243.85 302.86 245.94 305.08 233.08 305.08"/><rect class="cls-33" x="233.08" y="305.08" width="12.85" height="10.91"/><rect class="cls-39" x="240.82" y="306.2" width="4.38" height="1.99"/><rect class="cls-38" x="241.14" y="306.45" width=".46" height="1.48"/><rect class="cls-38" x="241.97" y="306.45" width=".47" height="1.48"/><rect class="cls-38" x="242.83" y="306.45" width=".46" height="1.48"/><rect class="cls-38" x="243.62" y="306.45" width=".46" height="1.48"/><rect class="cls-38" x="244.41" y="306.45" width=".47" height="1.48"/></g><g><rect class="cls-35" x="233.08" y="294.17" width="12.85" height="10.91"/><rect class="cls-31" x="240.82" y="295.29" width="4.38" height="1.99"/><rect class="cls-35" x="241.14" y="295.55" width=".46" height="1.48"/><rect class="cls-35" x="241.97" y="295.55" width=".47" height="1.48"/><rect class="cls-35" x="242.83" y="295.55" width=".46" height="1.48"/><rect class="cls-35" x="243.62" y="295.55" width=".46" height="1.48"/><rect class="cls-35" x="244.41" y="295.55" width=".47" height="1.48"/></g><g><rect class="cls-50" x="245.94" y="294.17" width="12.85" height="10.91"/><rect class="cls-35" x="246.68" y="295.29" width="4.38" height="1.99"/><rect class="cls-47" x="250.27" y="295.55" width=".46" height="1.48"/><rect class="cls-47" x="249.44" y="295.55" width=".47" height="1.48"/><rect class="cls-47" x="248.58" y="295.55" width=".46" height="1.48"/><rect class="cls-47" x="247.8" y="295.55" width=".46" height="1.48"/><rect class="cls-47" x="247" y="295.55" width=".47" height="1.48"/></g><g><polygon class="cls-53" points="233.08 283.26 235.3 281.04 243.85 281.04 245.94 283.26 233.08 283.26"/><rect class="cls-55" x="233.08" y="283.26" width="12.85" height="10.91"/><rect class="cls-35" x="241.8" y="284.13" width="3.31" height="2.73"/><g><line class="cls-20" x1="242.48" y1="286.31" x2="244.5" y2="286.31"/><g><line class="cls-20" x1="243" y1="286.31" x2="243" y2="285.03"/><polygon class="cls-53" points="243.4 285.15 243 284.45 242.59 285.15 243.4 285.15"/></g><g><line class="cls-20" x1="243.96" y1="286.31" x2="243.96" y2="285.03"/><polygon class="cls-53" points="244.36 285.15 243.96 284.45 243.56 285.15 244.36 285.15"/></g></g></g><g><rect class="cls-35" x="245.94" y="305.08" width="12.85" height="10.91"/><rect class="cls-31" x="254.65" y="305.94" width="3.31" height="2.73"/><g><line class="cls-19" x1="255.34" y1="308.12" x2="257.36" y2="308.12"/><g><line class="cls-19" x1="255.85" y1="308.12" x2="255.85" y2="306.84"/><polygon class="cls-55" points="256.25 306.96 255.85 306.26 255.45 306.96 256.25 306.96"/></g><g><line class="cls-19" x1="256.82" y1="308.12" x2="256.82" y2="306.84"/><polygon class="cls-55" points="257.22 306.96 256.82 306.26 256.41 306.96 257.22 306.96"/></g></g></g><g><polygon class="cls-36" points="187.24 272.35 189.46 270.14 198.01 270.14 200.1 272.35 187.24 272.35"/><rect class="cls-33" x="187.24" y="272.35" width="12.85" height="10.91"/><rect class="cls-39" x="194.98" y="273.47" width="4.38" height="1.99"/><rect class="cls-38" x="195.3" y="273.73" width=".46" height="1.48"/><rect class="cls-38" x="196.13" y="273.73" width=".47" height="1.48"/><rect class="cls-38" x="196.99" y="273.73" width=".46" height="1.48"/><rect class="cls-38" x="197.78" y="273.73" width=".46" height="1.48"/><rect class="cls-38" x="198.57" y="273.73" width=".47" height="1.48"/></g><g><polygon class="cls-39" points="174.39 294.17 176.61 291.95 185.15 291.95 187.24 294.17 174.39 294.17"/><rect class="cls-33" x="174.39" y="294.17" width="12.85" height="10.91"/><rect class="cls-39" x="182.13" y="295.29" width="4.38" height="1.99"/><rect class="cls-38" x="182.44" y="295.55" width=".46" height="1.48"/><rect class="cls-38" x="183.27" y="295.55" width=".47" height="1.48"/><rect class="cls-38" x="184.13" y="295.55" width=".46" height="1.48"/><rect class="cls-38" x="184.92" y="295.55" width=".46" height="1.48"/><rect class="cls-38" x="185.72" y="295.55" width=".47" height="1.48"/></g><g><rect class="cls-35" x="174.39" y="283.26" width="12.85" height="10.91"/><rect class="cls-31" x="182.13" y="284.38" width="4.38" height="1.99"/><rect class="cls-35" x="182.44" y="284.64" width=".46" height="1.48"/><rect class="cls-35" x="183.27" y="284.64" width=".47" height="1.48"/><rect class="cls-35" x="184.13" y="284.64" width=".46" height="1.48"/><rect class="cls-35" x="184.92" y="284.64" width=".46" height="1.48"/><rect class="cls-35" x="185.72" y="284.64" width=".47" height="1.48"/></g><g><rect class="cls-50" x="187.24" y="283.26" width="12.85" height="10.91"/><rect class="cls-35" x="194.98" y="284.38" width="4.38" height="1.99"/><rect class="cls-47" x="195.3" y="284.64" width=".46" height="1.48"/><rect class="cls-47" x="196.13" y="284.64" width=".47" height="1.48"/><rect class="cls-47" x="196.99" y="284.64" width=".46" height="1.48"/><rect class="cls-47" x="197.78" y="284.64" width=".46" height="1.48"/><rect class="cls-47" x="198.57" y="284.64" width=".47" height="1.48"/></g><g><polygon class="cls-53" points="174.39 272.35 176.61 270.14 185.15 270.14 187.24 272.35 174.39 272.35"/><rect class="cls-55" x="174.39" y="272.35" width="12.85" height="10.91"/><rect class="cls-35" x="183.1" y="273.22" width="3.31" height="2.73"/><g><line class="cls-20" x1="183.79" y1="275.4" x2="185.81" y2="275.4"/><g><line class="cls-20" x1="184.3" y1="275.4" x2="184.3" y2="274.12"/><polygon class="cls-53" points="184.7 274.24 184.3 273.54 183.9 274.24 184.7 274.24"/></g><g><line class="cls-20" x1="185.27" y1="275.4" x2="185.27" y2="274.12"/><polygon class="cls-53" points="185.67 274.24 185.27 273.54 184.87 274.24 185.67 274.24"/></g></g></g><g><rect class="cls-35" x="187.24" y="294.17" width="12.85" height="10.91"/><rect class="cls-31" x="195.96" y="295.03" width="3.31" height="2.73"/><g><line class="cls-19" x1="196.64" y1="297.21" x2="198.66" y2="297.21"/><g><line class="cls-19" x1="197.16" y1="297.21" x2="197.16" y2="295.94"/><polygon class="cls-55" points="197.56 296.05 197.16 295.36 196.75 296.05 197.56 296.05"/></g><g><line class="cls-19" x1="198.12" y1="297.21" x2="198.12" y2="295.94"/><polygon class="cls-55" points="198.53 296.05 198.12 295.36 197.72 296.05 198.53 296.05"/></g></g></g><g><rect class="cls-33" x="187.24" y="305.08" width="12.85" height="10.91"/><rect class="cls-39" x="187.98" y="306.2" width="4.38" height="1.99"/><rect class="cls-38" x="191.58" y="306.45" width=".46" height="1.48"/><rect class="cls-38" x="190.75" y="306.45" width=".47" height="1.48"/><rect class="cls-38" x="189.89" y="306.45" width=".46" height="1.48"/><rect class="cls-38" x="189.1" y="306.45" width=".46" height="1.48"/><rect class="cls-38" x="188.3" y="306.45" width=".47" height="1.48"/></g><g><rect class="cls-35" x="174.39" y="305.08" width="12.85" height="10.91"/><rect class="cls-31" x="175.22" y="305.94" width="3.31" height="2.73"/><g><line class="cls-19" x1="177.85" y1="308.12" x2="175.83" y2="308.12"/><g><line class="cls-19" x1="177.33" y1="308.12" x2="177.33" y2="306.84"/><polygon class="cls-55" points="176.93 306.96 177.33 306.26 177.73 306.96 176.93 306.96"/></g><g><line class="cls-19" x1="176.36" y1="308.12" x2="176.36" y2="306.84"/><polygon class="cls-55" points="175.96 306.96 176.36 306.26 176.77 306.96 175.96 306.96"/></g></g></g></g></g><g><polygon class="cls-45" points="292.35 47.7 310.46 45.95 359.66 45.78 346.11 47.7 292.35 47.7"/><rect class="cls-25" x="292.35" y="52.12" width="53.76" height="41.15"/><rect class="cls-44" x="292.35" y="47.7" width="53.76" height="4.42"/><polygon class="cls-46" points="359.66 93.26 346.11 93.26 346.11 52.12 359.66 49.62 359.66 93.26"/><polygon class="cls-25" points="359.66 45.78 346.11 47.7 346.11 52.12 359.66 49.62 359.66 45.78"/><rect class="cls-39" x="296.71" y="64.8" width="45.04" height="28.47"/><g><rect class="cls-50" x="298.11" y="56.62" width="2.73" height="4.83"/><rect class="cls-50" x="303.7" y="56.62" width="2.73" height="4.83"/><rect class="cls-50" x="309.3" y="56.62" width="2.73" height="4.83"/><rect class="cls-50" x="314.89" y="56.62" width="2.73" height="4.83"/><rect class="cls-50" x="320.49" y="56.62" width="2.73" height="4.83"/><rect class="cls-50" x="326.08" y="56.62" width="2.73" height="4.83"/><rect class="cls-50" x="331.68" y="56.62" width="2.73" height="4.83"/><rect class="cls-50" x="337.27" y="56.62" width="2.73" height="4.83"/></g><polygon class="cls-52" points="352.56 57.23 349.49 57.81 349.49 69.04 352.56 68.46 352.56 57.23"/><polygon class="cls-52" points="356.88 56.44 354.03 56.98 354.03 68.21 356.88 67.68 356.88 56.44"/><rect class="cls-38" x="349.21" y="84.31" width="8.67" height="4.84"/><polygon class="cls-45" points="357.88 84.31 349.21 84.31 349.21 72.69 357.88 70.94 357.88 84.31"/><g><path class="cls-8" d="m359.66,82.27l7.4,3.5c.23.11.38.34.38.6v1.32"/><polygon class="cls-45" points="359.66 83.88 367.44 87.56 367.44 87.69 359.66 87.69 359.66 83.88"/><g><line class="cls-8" x1="360.84" y1="84.55" x2="360.84" y2="82.81"/><line class="cls-8" x1="362.16" y1="85.18" x2="362.16" y2="83.44"/><line class="cls-8" x1="363.49" y1="85.81" x2="363.49" y2="84.07"/><line class="cls-8" x1="364.81" y1="86.44" x2="364.81" y2="84.7"/><line class="cls-8" x1="366.13" y1="87.07" x2="366.13" y2="85.33"/></g></g><polygon class="cls-39" points="359.66 93.26 367.44 87.67 357.88 84.31 349.49 88.26 359.66 93.26"/><g><path class="cls-9" d="m346.11,83.82l12.89,6.1c.41.19.66.6.66,1.05v2.3"/><polygon class="cls-45" points="346.11 86.63 359.66 93.04 359.66 93.26 346.11 93.26 346.11 86.63"/><g><line class="cls-9" x1="348.16" y1="87.79" x2="348.16" y2="84.76"/><line class="cls-9" x1="350.46" y1="88.89" x2="350.46" y2="85.86"/><line class="cls-9" x1="352.77" y1="89.99" x2="352.77" y2="86.96"/><line class="cls-9" x1="355.07" y1="91.09" x2="355.07" y2="88.06"/><line class="cls-9" x1="357.38" y1="92.19" x2="357.38" y2="89.15"/></g></g><g><g><polygon class="cls-36" points="326.24 75.8 325.06 74.62 320.5 74.62 319.38 75.8 326.24 75.8"/><rect class="cls-33" x="319.38" y="75.8" width="6.86" height="5.82"/><rect class="cls-39" x="319.78" y="76.4" width="2.34" height="1.06"/><rect class="cls-38" x="321.7" y="76.53" width=".25" height=".79"/><rect class="cls-38" x="321.25" y="76.53" width=".25" height=".79"/><rect class="cls-38" x="320.79" y="76.53" width=".25" height=".79"/><rect class="cls-38" x="320.37" y="76.53" width=".25" height=".79"/><rect class="cls-38" x="319.95" y="76.53" width=".25" height=".79"/></g><g><rect class="cls-35" x="319.38" y="81.62" width="6.86" height="5.82"/><rect class="cls-31" x="323.51" y="82.22" width="2.34" height="1.06"/><rect class="cls-35" x="323.68" y="82.36" width=".25" height=".79"/><rect class="cls-35" x="324.12" y="82.36" width=".25" height=".79"/><rect class="cls-35" x="324.58" y="82.36" width=".25" height=".79"/><rect class="cls-35" x="325" y="82.36" width=".25" height=".79"/><rect class="cls-35" x="325.43" y="82.36" width=".25" height=".79"/></g><g><rect class="cls-55" x="319.38" y="87.44" width="6.86" height="5.82"/><rect class="cls-35" x="319.78" y="88.04" width="2.34" height="1.06"/><rect class="cls-47" x="321.7" y="88.18" width=".25" height=".79"/><rect class="cls-47" x="321.25" y="88.18" width=".25" height=".79"/><rect class="cls-47" x="320.79" y="88.18" width=".25" height=".79"/><rect class="cls-47" x="320.37" y="88.18" width=".25" height=".79"/><rect class="cls-47" x="319.95" y="88.18" width=".25" height=".79"/></g><g><rect class="cls-50" x="312.52" y="81.62" width="6.86" height="5.82"/><rect class="cls-35" x="312.97" y="82.08" width="1.77" height="1.45"/><g><line class="cls-7" x1="314.37" y1="83.25" x2="313.29" y2="83.25"/><g><line class="cls-7" x1="314.09" y1="83.25" x2="314.09" y2="82.56"/><polygon class="cls-53" points="313.88 82.63 314.09 82.25 314.31 82.63 313.88 82.63"/></g><g><line class="cls-7" x1="313.58" y1="83.25" x2="313.58" y2="82.56"/><polygon class="cls-53" points="313.36 82.63 313.58 82.25 313.79 82.63 313.36 82.63"/></g></g></g><g><rect class="cls-35" x="312.52" y="87.44" width="6.86" height="5.82"/><rect class="cls-31" x="312.97" y="87.9" width="1.77" height="1.45"/><g><line class="cls-6" x1="314.37" y1="89.07" x2="313.29" y2="89.07"/><g><line class="cls-6" x1="314.09" y1="89.07" x2="314.09" y2="88.39"/><polygon class="cls-55" points="313.88 88.45 314.09 88.08 314.31 88.45 313.88 88.45"/></g><g><line class="cls-6" x1="313.58" y1="89.07" x2="313.58" y2="88.39"/><polygon class="cls-55" points="313.36 88.45 313.58 88.08 313.79 88.45 313.36 88.45"/></g></g></g><g><polygon class="cls-36" points="303.57 75.8 302.38 74.62 297.82 74.62 296.71 75.8 303.57 75.8"/><rect class="cls-33" x="296.71" y="75.8" width="6.86" height="5.82"/><rect class="cls-39" x="297.1" y="76.4" width="2.34" height="1.06"/><rect class="cls-38" x="299.02" y="76.53" width=".25" height=".79"/><rect class="cls-38" x="298.58" y="76.53" width=".25" height=".79"/><rect class="cls-38" x="298.12" y="76.53" width=".25" height=".79"/><rect class="cls-38" x="297.7" y="76.53" width=".25" height=".79"/><rect class="cls-38" x="297.27" y="76.53" width=".25" height=".79"/></g><g><polygon class="cls-39" points="310.43 87.44 309.24 86.26 304.68 86.26 303.57 87.44 310.43 87.44"/><rect class="cls-33" x="303.57" y="87.44" width="6.86" height="5.82"/><rect class="cls-39" x="303.96" y="88.04" width="2.34" height="1.06"/><rect class="cls-38" x="305.88" y="88.18" width=".25" height=".79"/><rect class="cls-38" x="305.44" y="88.18" width=".25" height=".79"/><rect class="cls-38" x="304.98" y="88.18" width=".25" height=".79"/><rect class="cls-38" x="304.56" y="88.18" width=".25" height=".79"/><rect class="cls-38" x="304.13" y="88.18" width=".25" height=".79"/></g><g><rect class="cls-35" x="303.57" y="81.62" width="6.86" height="5.82"/><rect class="cls-31" x="303.96" y="82.22" width="2.34" height="1.06"/><rect class="cls-35" x="305.88" y="82.36" width=".25" height=".79"/><rect class="cls-35" x="305.44" y="82.36" width=".25" height=".79"/><rect class="cls-35" x="304.98" y="82.36" width=".25" height=".79"/><rect class="cls-35" x="304.56" y="82.36" width=".25" height=".79"/><rect class="cls-35" x="304.13" y="82.36" width=".25" height=".79"/></g><g><rect class="cls-50" x="296.71" y="81.62" width="6.86" height="5.82"/><rect class="cls-35" x="300.84" y="82.22" width="2.34" height="1.06"/><rect class="cls-47" x="301" y="82.36" width=".25" height=".79"/><rect class="cls-47" x="301.45" y="82.36" width=".25" height=".79"/><rect class="cls-47" x="301.91" y="82.36" width=".25" height=".79"/><rect class="cls-47" x="302.33" y="82.36" width=".25" height=".79"/><rect class="cls-47" x="302.75" y="82.36" width=".25" height=".79"/></g><g><polygon class="cls-53" points="310.43 75.8 309.24 74.62 304.68 74.62 303.57 75.8 310.43 75.8"/><rect class="cls-55" x="303.57" y="75.8" width="6.86" height="5.82"/><rect class="cls-35" x="304.01" y="76.26" width="1.77" height="1.45"/><g><line class="cls-7" x1="305.41" y1="77.43" x2="304.33" y2="77.43"/><g><line class="cls-7" x1="305.14" y1="77.42" x2="305.14" y2="76.74"/><polygon class="cls-53" points="304.92 76.81 305.14 76.43 305.35 76.81 304.92 76.81"/></g><g><line class="cls-7" x1="304.62" y1="77.42" x2="304.62" y2="76.74"/><polygon class="cls-53" points="304.41 76.81 304.62 76.43 304.84 76.81 304.41 76.81"/></g></g></g><g><rect class="cls-35" x="296.71" y="87.44" width="6.86" height="5.82"/><rect class="cls-31" x="297.15" y="87.9" width="1.77" height="1.45"/><g><line class="cls-6" x1="298.55" y1="89.07" x2="297.47" y2="89.07"/><g><line class="cls-6" x1="298.28" y1="89.07" x2="298.28" y2="88.39"/><polygon class="cls-55" points="298.06 88.45 298.28 88.08 298.49 88.45 298.06 88.45"/></g><g><line class="cls-6" x1="297.76" y1="89.07" x2="297.76" y2="88.39"/><polygon class="cls-55" points="297.55 88.45 297.76 88.08 297.98 88.45 297.55 88.45"/></g></g></g><g><polygon class="cls-36" points="334.89 69.98 333.7 68.8 329.14 68.8 328.03 69.98 334.89 69.98"/><rect class="cls-33" x="328.03" y="69.98" width="6.86" height="5.82"/><rect class="cls-39" x="328.42" y="70.58" width="2.34" height="1.06"/><rect class="cls-38" x="330.34" y="70.71" width=".25" height=".79"/><rect class="cls-38" x="329.9" y="70.71" width=".25" height=".79"/><rect class="cls-38" x="329.44" y="70.71" width=".25" height=".79"/><rect class="cls-38" x="329.02" y="70.71" width=".25" height=".79"/><rect class="cls-38" x="328.59" y="70.71" width=".25" height=".79"/></g><g><polygon class="cls-39" points="341.75 81.62 340.56 80.44 336 80.44 334.89 81.62 341.75 81.62"/><rect class="cls-33" x="334.89" y="81.62" width="6.86" height="5.82"/><rect class="cls-39" x="335.28" y="82.22" width="2.34" height="1.06"/><rect class="cls-38" x="337.2" y="82.36" width=".25" height=".79"/><rect class="cls-38" x="336.76" y="82.36" width=".25" height=".79"/><rect class="cls-38" x="336.3" y="82.36" width=".25" height=".79"/><rect class="cls-38" x="335.88" y="82.36" width=".25" height=".79"/><rect class="cls-38" x="335.45" y="82.36" width=".25" height=".79"/></g><g><rect class="cls-35" x="334.89" y="75.8" width="6.86" height="5.82"/><rect class="cls-31" x="335.28" y="76.4" width="2.34" height="1.06"/><rect class="cls-35" x="337.2" y="76.53" width=".25" height=".79"/><rect class="cls-35" x="336.76" y="76.53" width=".25" height=".79"/><rect class="cls-35" x="336.3" y="76.53" width=".25" height=".79"/><rect class="cls-35" x="335.88" y="76.53" width=".25" height=".79"/><rect class="cls-35" x="335.45" y="76.53" width=".25" height=".79"/></g><g><rect class="cls-50" x="328.03" y="75.8" width="6.86" height="5.82"/><rect class="cls-35" x="328.42" y="76.4" width="2.34" height="1.06"/><rect class="cls-47" x="330.34" y="76.53" width=".25" height=".79"/><rect class="cls-47" x="329.9" y="76.53" width=".25" height=".79"/><rect class="cls-47" x="329.44" y="76.53" width=".25" height=".79"/><rect class="cls-47" x="329.02" y="76.53" width=".25" height=".79"/><rect class="cls-47" x="328.59" y="76.53" width=".25" height=".79"/></g><g><polygon class="cls-53" points="341.75 69.98 340.56 68.8 336 68.8 334.89 69.98 341.75 69.98"/><rect class="cls-55" x="334.89" y="69.98" width="6.86" height="5.82"/><rect class="cls-35" x="335.33" y="70.44" width="1.77" height="1.45"/><g><line class="cls-7" x1="336.73" y1="71.6" x2="335.65" y2="71.6"/><g><line class="cls-7" x1="336.46" y1="71.6" x2="336.46" y2="70.92"/><polygon class="cls-53" points="336.24 70.99 336.46 70.61 336.67 70.99 336.24 70.99"/></g><g><line class="cls-7" x1="335.94" y1="71.6" x2="335.94" y2="70.92"/><polygon class="cls-53" points="335.73 70.99 335.94 70.61 336.16 70.99 335.73 70.99"/></g></g></g><g><rect class="cls-35" x="328.03" y="81.62" width="6.86" height="5.82"/><rect class="cls-31" x="328.47" y="82.08" width="1.77" height="1.45"/><g><line class="cls-6" x1="329.87" y1="83.25" x2="328.79" y2="83.25"/><g><line class="cls-6" x1="329.6" y1="83.25" x2="329.6" y2="82.56"/><polygon class="cls-55" points="329.38 82.63 329.6 82.25 329.81 82.63 329.38 82.63"/></g><g><line class="cls-6" x1="329.08" y1="83.25" x2="329.08" y2="82.56"/><polygon class="cls-55" points="328.87 82.63 329.08 82.25 329.3 82.63 328.87 82.63"/></g></g></g><g><rect class="cls-33" x="328.03" y="87.44" width="6.86" height="5.82"/><rect class="cls-39" x="332.16" y="88.04" width="2.34" height="1.06"/><rect class="cls-38" x="332.33" y="88.18" width=".25" height=".79"/><rect class="cls-38" x="332.77" y="88.18" width=".25" height=".79"/><rect class="cls-38" x="333.23" y="88.18" width=".25" height=".79"/><rect class="cls-38" x="333.65" y="88.18" width=".25" height=".79"/><rect class="cls-38" x="334.07" y="88.18" width=".25" height=".79"/></g><g><rect class="cls-35" x="334.89" y="87.44" width="6.86" height="5.82"/><rect class="cls-31" x="339.54" y="87.9" width="1.77" height="1.45"/><g><line class="cls-6" x1="339.9" y1="89.07" x2="340.98" y2="89.07"/><g><line class="cls-6" x1="340.18" y1="89.07" x2="340.18" y2="88.39"/><polygon class="cls-55" points="340.39 88.45 340.18 88.08 339.96 88.45 340.39 88.45"/></g><g><line class="cls-6" x1="340.69" y1="89.07" x2="340.69" y2="88.39"/><polygon class="cls-55" points="340.91 88.45 340.69 88.08 340.48 88.45 340.91 88.45"/></g></g></g></g></g><g><g><rect class="cls-48" x="97.39" y="351.32" width="1.92" height="2.64"/><polyline class="cls-48" points="94.25 353.15 94.25 354.76 83.58 354.76 83.74 353.15"/><path class="cls-55" d="m84.22,350.92v-14.48l-.53-4.21c-.34-2.18-.47-3.79-.75-3.73-3.16.71-13.68,3.93-13.68,3.93-5.34,1.49-9.06,5.7-9.06,5.7l-2.52,6.89s-7.49,1.81-11.64,4.66c-.51.34-.81.91-.82,1.53v3.02c-.09.08-.18.15-.28.22,0,0-.53,1.35,0,1.81.1.09.19.17.28.26v1.05l-.08.07c-.75.6.16.97,1.13,1.12s3.82.46,3.82.46l.24-.9,5.89.28,25.17-.41,2.76-1.53,1.67-3.3-1.6-2.44Z"/><polyline class="cls-48" points="57.78 355.37 57.78 358.77 111.63 358.77 111.63 354.39 60.53 354.39"/><line class="cls-14" x1="57.78" y1="354.39" x2="57.78" y2="355.37"/><circle class="cls-27" cx="98.32" cy="357.42" r="4.52"/><circle class="cls-48" cx="98.32" cy="357.42" r="2.05"/><path class="cls-48" d="m61.9,358.79c.05-.31.09-.62.09-.95,0-3.13-2.54-5.67-5.67-5.67s-5.67,2.54-5.67,5.67c0,.32-.03.19.02.49l5.73.45h5.5Z"/><circle class="cls-27" cx="56.32" cy="357.85" r="4.52"/><circle class="cls-48" cx="56.4" cy="357.85" r="2.05"/><circle class="cls-27" cx="108.7" cy="357.16" r="4.52"/><circle class="cls-48" cx="108.7" cy="357.16" r="2.05"/><path class="cls-50" d="m58.66,337.23l-.44,1.12h9.41v-1.9h-7.83c-.51,0-.96.31-1.14.78Z"/><path class="cls-50" d="m67.63,336.45h16.6v14.95h-15.81c-.44,0-.79-.36-.79-.79v-14.15h0Z"/><rect class="cls-55" x="76.74" y="345.36" width="5.84" height="4.43" rx="1.32" ry="1.32"/><path class="cls-50" d="m80.63,332.22l-4.21.48c-.42-.02-.78.28-.84.7v1.09c.08.45.5.76.96.69h4.78c.62,0,1.05-.44.9-.89v-1.12c.01-.55-.42-1-.97-1.02-.01,0-.03,0-.04,0-.21.03-.42.05-.57.06Z"/><path class="cls-34" d="m61.55,340.13l-1.53,4.34s0,.05.03.06c0,0,.02,0,.02,0l5.61-.87c.44-.04.79-.38.83-.82v-2.63c-.04-.34-.34-.59-.68-.56h-3.49c-.34-.02-.65.17-.79.48Z"/><path class="cls-34" d="m59.68,339.64h.8c.13,0,.24.11.24.24,0,.03,0,.06-.02.08l-1.65,4.48c-.06.15-.19.26-.35.29l-.99.27c.23-1.23,1.96-5.37,1.96-5.37Z"/><line class="cls-23" x1="45.26" y1="356.5" x2="50.72" y2="356.5"/><line class="cls-17" x1="45.26" y1="351.19" x2="46.24" y2="351.19"/><line class="cls-17" x1="45.26" y1="352.02" x2="46.24" y2="352.02"/><line class="cls-17" x1="45.26" y1="352.89" x2="46.24" y2="352.89"/><rect class="cls-57" x="86.53" y="350.13" width="89.93" height="1.73"/><path class="cls-27" d="m63.69,341.51v4.51h0c-.71,0-1.29-.58-1.29-1.29v-2.64c0-.49.4-.88.88-.88h.13c.16.01.28.14.28.3Z"/><path class="cls-37" d="m46.69,354.08c-.43-.45.95-1.18.95-1.18,0,0,3.3-1.39,2.3.28-1,1.67-3.23.9-3.23.9"/><rect class="cls-37" x="63.61" y="347.02" width="2.25" height="1.63" rx=".51" ry=".51"/><rect class="cls-48" x="157.42" y="352.72" width="16.1" height="3.34"/><rect class="cls-48" x="157.42" y="351.86" width="16.1" height="1.22"/><circle class="cls-27" cx="160.93" cy="357.85" r="4.52"/><circle class="cls-48" cx="160.93" cy="357.85" r="2.05"/><circle class="cls-27" cx="171.3" cy="357.59" r="4.52"/><circle class="cls-48" cx="171.3" cy="357.59" r="2.05"/></g><rect class="cls-50" x="86.63" y="327.37" width="89.72" height="22.76"/><polygon class="cls-46" points="89.48 323.3 176.36 323.3 176.36 327.37 86.63 327.37 89.48 323.3"/><polygon class="cls-46" points="178.84 323.3 176.36 323.3 176.36 351.86 178.84 349.67 178.84 323.3"/><g><line class="cls-21" x1="97.94" y1="331.09" x2="97.94" y2="346.4"/><line class="cls-21" x1="111.36" y1="346.4" x2="111.36" y2="331.09"/><line class="cls-21" x1="124.78" y1="346.4" x2="124.78" y2="331.09"/><line class="cls-21" x1="138.2" y1="346.4" x2="138.2" y2="331.09"/><line class="cls-21" x1="151.63" y1="346.4" x2="151.63" y2="331.09"/><line class="cls-21" x1="165.05" y1="331.09" x2="165.05" y2="346.4"/></g><path class="cls-4" d="m70.86,351.38v-21.66s0-2.5,2.33-2.67"/><path class="cls-58" d="m99.11,303.98c-1.57-5.34.73-11.24,5.82-14.02,4.31-2.35,9.42-1.81,13.1.97-.21-3.41,1.53-6.79,4.72-8.54,3.43-1.87,7.53-1.3,10.32,1.11,1-1.32,2.29-2.45,3.83-3.3,5.87-3.2,13.22-1.04,16.42,4.83,1.38,2.53,1.76,5.34,1.28,7.97,1.63.31,3.12,1.31,3.98,2.88,1.51,2.78.49,6.25-2.28,7.77-.4.22-.82.38-1.24.49.12,2.88-1.35,5.71-4.05,7.18-2.36,1.29-5.1,1.23-7.32.08-1.2,2.68-3.24,5-6.01,6.51-5.88,3.21-13.07,1.72-17.23-3.21-.32.51-.77.94-1.33,1.25-1.77.97-3.99.31-4.95-1.46-.38-.7-.51-1.47-.41-2.2-3.84.99-7.91.02-10.88-2.51-.29.37-.67.69-1.11.93-1.77.97-3.99.31-4.95-1.46-.97-1.77-.31-3.99,1.46-4.95.27-.15.56-.26.85-.33Zm-22.83,17.08c1.34,1.51,3.65,1.65,5.15.31.06-.05.12-.11.17-.17,2.59,1.71,6.1,1.56,8.53-.6,2.44-2.16,3.01-5.64,1.6-8.42,1.15-1.36,1.16-3.4-.06-4.77-1.34-1.51-3.65-1.65-5.15-.31-.4.35-.7.78-.91,1.24-1.7-.03-3.42.54-4.8,1.76-1.48,1.31-2.27,3.11-2.35,4.94-.68.1-1.33.39-1.88.88-1.51,1.34-1.65,3.65-.31,5.15Zm.42,4.36c1.59,0,2.88-1.29,2.88-2.88s-1.29-2.88-2.88-2.88c-1.59,0-2.88,1.29-2.88,2.88,0,1.59,1.29,2.88,2.88,2.88Zm-1.85,1.02c.66,0,1.19-.53,1.19-1.19s-.53-1.19-1.19-1.19-1.19.53-1.19,1.19.53,1.19,1.19,1.19Z"/></g><g><g><rect class="cls-48" x="241.75" y="351.32" width="1.92" height="2.64"/><polyline class="cls-48" points="238.62 353.15 238.62 354.76 227.95 354.76 228.1 353.15"/><path class="cls-55" d="m228.59,350.92v-14.48l-.53-4.21c-.34-2.18-.47-3.79-.75-3.73-3.16.71-13.68,3.93-13.68,3.93-5.34,1.49-9.06,5.7-9.06,5.7l-2.52,6.89s-7.49,1.81-11.64,4.66c-.51.34-.81.91-.82,1.53v3.02c-.09.08-.18.15-.28.22,0,0-.53,1.35,0,1.81.1.09.19.17.28.26v1.05l-.08.07c-.75.6.16.97,1.13,1.12s3.82.46,3.82.46l.24-.9,5.89.28,25.17-.41,2.76-1.53,1.67-3.3-1.6-2.44Z"/><polyline class="cls-48" points="202.14 355.37 202.14 358.77 256 358.77 256 354.39 204.89 354.39"/><line class="cls-14" x1="202.14" y1="354.39" x2="202.14" y2="355.37"/><circle class="cls-27" cx="242.68" cy="357.42" r="4.52"/><circle class="cls-48" cx="242.68" cy="357.42" r="2.05"/><path class="cls-48" d="m206.26,358.79c.05-.31.09-.62.09-.95,0-3.13-2.54-5.67-5.67-5.67s-5.67,2.54-5.67,5.67c0,.32-.03.19.02.49l5.73.45h5.5Z"/><circle class="cls-27" cx="200.68" cy="357.85" r="4.52"/><circle class="cls-48" cx="200.76" cy="357.85" r="2.05"/><circle class="cls-27" cx="253.06" cy="357.16" r="4.52"/><circle class="cls-48" cx="253.06" cy="357.16" r="2.05"/><path class="cls-50" d="m203.03,337.23l-.44,1.12h9.41v-1.9h-7.83c-.51,0-.96.31-1.14.78Z"/><path class="cls-50" d="m211.99,336.45h16.6v14.95h-15.81c-.44,0-.79-.36-.79-.79v-14.15h0Z"/><rect class="cls-55" x="221.1" y="345.36" width="5.84" height="4.43" rx="1.32" ry="1.32"/><path class="cls-50" d="m225,332.22l-4.21.48c-.42-.02-.78.28-.84.7v1.09c.08.45.5.76.96.69h4.78c.62,0,1.05-.44.9-.89v-1.12c.01-.55-.42-1-.97-1.02-.01,0-.03,0-.04,0-.21.03-.42.05-.57.06Z"/><path class="cls-34" d="m205.91,340.13l-1.53,4.34s0,.05.03.06c0,0,.02,0,.02,0l5.61-.87c.44-.04.79-.38.83-.82v-2.63c-.04-.34-.34-.59-.68-.56h-3.49c-.34-.02-.65.17-.79.48Z"/><path class="cls-34" d="m204.05,339.64h.8c.13,0,.24.11.24.24,0,.03,0,.06-.02.08l-1.65,4.48c-.06.15-.19.26-.35.29l-.99.27c.23-1.23,1.96-5.37,1.96-5.37Z"/><line class="cls-23" x1="189.63" y1="356.5" x2="195.08" y2="356.5"/><line class="cls-17" x1="189.63" y1="351.19" x2="190.61" y2="351.19"/><line class="cls-17" x1="189.63" y1="352.02" x2="190.61" y2="352.02"/><line class="cls-17" x1="189.63" y1="352.89" x2="190.61" y2="352.89"/><rect class="cls-57" x="230.89" y="350.13" width="89.93" height="1.73"/><path class="cls-27" d="m208.05,341.51v4.51h0c-.71,0-1.29-.58-1.29-1.29v-2.64c0-.49.4-.88.88-.88h.13c.16.01.28.14.28.3Z"/><path class="cls-37" d="m191.05,354.08c-.43-.45.95-1.18.95-1.18,0,0,3.3-1.39,2.3.28-1,1.67-3.23.9-3.23.9"/><rect class="cls-37" x="207.97" y="347.02" width="2.25" height="1.63" rx=".51" ry=".51"/><rect class="cls-48" x="301.79" y="352.72" width="16.1" height="3.34"/><rect class="cls-48" x="301.79" y="351.86" width="16.1" height="1.22"/><circle class="cls-27" cx="305.29" cy="357.85" r="4.52"/><circle class="cls-48" cx="305.29" cy="357.85" r="2.05"/><circle class="cls-27" cx="315.67" cy="357.59" r="4.52"/><circle class="cls-48" cx="315.67" cy="357.59" r="2.05"/></g><rect class="cls-50" x="231" y="327.37" width="89.72" height="22.76"/><polygon class="cls-46" points="233.84 323.3 320.72 323.3 320.72 327.37 231 327.37 233.84 323.3"/><polygon class="cls-46" points="323.21 323.3 320.72 323.3 320.72 351.86 323.21 349.67 323.21 323.3"/><g><line class="cls-21" x1="242.3" y1="331.09" x2="242.3" y2="346.4"/><line class="cls-21" x1="255.73" y1="346.4" x2="255.73" y2="331.09"/><line class="cls-21" x1="269.15" y1="346.4" x2="269.15" y2="331.09"/><line class="cls-21" x1="282.57" y1="346.4" x2="282.57" y2="331.09"/><line class="cls-21" x1="295.99" y1="346.4" x2="295.99" y2="331.09"/><line class="cls-21" x1="309.41" y1="331.09" x2="309.41" y2="346.4"/></g><path class="cls-4" d="m215.23,351.38v-21.66s0-2.5,2.33-2.67"/><path class="cls-60" d="m243.47,303.98c-1.57-5.34.73-11.24,5.82-14.02,4.31-2.35,9.42-1.81,13.1.97-.21-3.41,1.53-6.79,4.72-8.54,3.43-1.87,7.53-1.3,10.32,1.11,1-1.32,2.29-2.45,3.83-3.3,5.87-3.2,13.22-1.04,16.42,4.83,1.38,2.53,1.76,5.34,1.28,7.97,1.63.31,3.12,1.31,3.98,2.88,1.51,2.78.49,6.25-2.28,7.77-.4.22-.82.38-1.24.49.12,2.88-1.35,5.71-4.05,7.18-2.36,1.29-5.1,1.23-7.32.08-1.2,2.68-3.24,5-6.01,6.51-5.88,3.21-13.07,1.72-17.23-3.21-.32.51-.77.94-1.33,1.25-1.77.97-3.99.31-4.95-1.46-.38-.7-.51-1.47-.41-2.2-3.84.99-7.91.02-10.88-2.51-.29.37-.67.69-1.11.93-1.77.97-3.99.31-4.95-1.46-.97-1.77-.31-3.99,1.46-4.95.27-.15.56-.26.85-.33Zm-22.83,17.08c1.34,1.51,3.65,1.65,5.15.31.06-.05.12-.11.17-.17,2.59,1.71,6.1,1.56,8.53-.6,2.44-2.16,3.01-5.64,1.6-8.42,1.15-1.36,1.16-3.4-.06-4.77-1.34-1.51-3.65-1.65-5.15-.31-.4.35-.7.78-.91,1.24-1.7-.03-3.42.54-4.8,1.76-1.48,1.31-2.27,3.11-2.35,4.94-.68.1-1.33.39-1.88.88-1.51,1.34-1.65,3.65-.31,5.15Zm.42,4.36c1.59,0,2.88-1.29,2.88-2.88,0-1.59-1.29-2.88-2.88-2.88-1.59,0-2.88,1.29-2.88,2.88s1.29,2.88,2.88,2.88Zm-1.85,1.02c.66,0,1.19-.53,1.19-1.19,0-.66-.53-1.19-1.19-1.19s-1.19.53-1.19,1.19.53,1.19,1.19,1.19Z"/></g><g><polyline class="cls-33" points="276.78 127.7 270.12 124.02 107.05 124.02 107.05 127.7 276.76 127.7"/><g><rect class="cls-31" x="224.88" y="120.36" width="19.46" height="7.35" transform="translate(469.23 248.07) rotate(-180)"/><line class="cls-18" x1="234.61" y1="120.94" x2="234.61" y2="127.13"/></g><g><rect class="cls-50" x="205.43" y="120.36" width="19.46" height="7.35" transform="translate(430.31 248.07) rotate(-180)"/><line class="cls-18" x1="215.15" y1="120.94" x2="215.15" y2="127.13"/></g><g><rect class="cls-31" x="185.97" y="120.36" width="19.46" height="7.35" transform="translate(391.39 248.07) rotate(-180)"/><line class="cls-18" x1="195.7" y1="120.94" x2="195.7" y2="127.13"/></g><g><rect class="cls-42" x="166.51" y="120.36" width="19.46" height="7.35" transform="translate(352.47 248.07) rotate(-180)"/><line class="cls-18" x1="176.24" y1="120.94" x2="176.24" y2="127.13"/></g><g><rect class="cls-55" x="108.13" y="120.36" width="19.46" height="7.35"/><line class="cls-18" x1="117.86" y1="120.94" x2="117.86" y2="127.13"/></g><g><rect class="cls-42" x="127.59" y="120.36" width="19.46" height="7.35"/><line class="cls-18" x1="137.32" y1="120.94" x2="137.32" y2="127.13"/></g><g><rect class="cls-44" x="147.05" y="120.36" width="19.46" height="7.35"/><line class="cls-18" x1="156.78" y1="120.94" x2="156.78" y2="127.13"/></g><g><rect class="cls-38" x="147.05" y="113.02" width="19.46" height="7.35" transform="translate(313.56 233.38) rotate(-180)"/><line class="cls-18" x1="156.78" y1="113.59" x2="156.78" y2="119.79"/></g><g><rect class="cls-50" x="127.59" y="113.02" width="19.46" height="7.35" transform="translate(274.64 233.38) rotate(-180)"/><line class="cls-18" x1="137.32" y1="113.59" x2="137.32" y2="119.79"/></g><g><rect class="cls-50" x="127.59" y="98.33" width="19.46" height="7.35" transform="translate(274.64 204) rotate(-180)"/><line class="cls-18" x1="137.32" y1="98.9" x2="137.32" y2="105.09"/></g><g><rect class="cls-33" x="108.13" y="113.02" width="19.46" height="7.35" transform="translate(235.72 233.38) rotate(-180)"/><line class="cls-18" x1="117.86" y1="113.59" x2="117.86" y2="119.79"/></g><g><rect class="cls-42" x="185.97" y="113.02" width="19.46" height="7.35" transform="translate(391.39 233.38) rotate(-180)"/><line class="cls-18" x1="195.7" y1="113.59" x2="195.7" y2="119.79"/></g><g><rect class="cls-55" x="166.51" y="113.02" width="19.46" height="7.35" transform="translate(352.47 233.38) rotate(-180)"/><line class="cls-18" x1="176.24" y1="113.59" x2="176.24" y2="119.79"/></g><g><rect class="cls-44" x="205.43" y="113.02" width="19.46" height="7.35"/><line class="cls-18" x1="215.15" y1="113.59" x2="215.15" y2="119.79"/></g><g><rect class="cls-44" x="176.24" y="105.67" width="19.46" height="7.35"/><line class="cls-18" x1="185.97" y1="106.25" x2="185.97" y2="112.44"/></g><g><rect class="cls-41" x="117.86" y="105.67" width="19.46" height="7.35" transform="translate(255.18 218.69) rotate(-180)"/><line class="cls-18" x1="127.59" y1="106.25" x2="127.59" y2="112.44"/></g><g><rect class="cls-44" x="137.32" y="105.67" width="19.46" height="7.35" transform="translate(294.1 218.69) rotate(-180)"/><line class="cls-18" x1="147.05" y1="106.25" x2="147.05" y2="112.44"/></g><g><rect class="cls-42" x="156.78" y="105.67" width="19.46" height="7.35" transform="translate(333.02 218.69) rotate(-180)"/><line class="cls-18" x1="166.51" y1="106.25" x2="166.51" y2="112.44"/></g><g><path class="cls-61" d="m126.76,56.4c-4.5-7.6-3.27-17.56,3.46-23.81,5.7-5.3,13.77-6.46,20.51-3.62-1.65-5.16-.31-11.03,3.92-14.96,4.54-4.22,11.07-4.95,16.29-2.32,1.02-2.42,2.56-4.66,4.6-6.56,7.76-7.21,19.9-6.76,27.11,1,3.11,3.35,4.79,7.51,5.08,11.74,2.63-.17,5.3.8,7.24,2.88,3.41,3.67,3.2,9.41-.47,12.82-.53.49-1.11.9-1.71,1.24,1.31,4.37.15,9.3-3.41,12.61-3.12,2.9-7.35,3.88-11.21,2.98-.79,4.58-3.03,8.94-6.7,12.35-7.78,7.23-19.4,7.74-27.73,1.8-.3.9-.81,1.74-1.56,2.43-2.34,2.18-6,2.04-8.18-.3-.86-.93-1.35-2.06-1.5-3.22-5.5,3.02-12.14,3.12-17.7.39-.31.68-.75,1.32-1.34,1.86-2.34,2.18-6,2.04-8.18-.3-2.18-2.34-2.04-6,.3-8.18.36-.34.76-.61,1.17-.84Zm-34.95,35.16c2.64,1.8,6.24,1.11,8.04-1.54.07-.11.14-.22.2-.33,4.64,1.62,9.97.02,12.87-4.25,2.91-4.28,2.42-9.85-.83-13.57,1.24-2.54.46-5.67-1.95-7.31-2.64-1.8-6.24-1.11-8.04,1.54-.48.7-.77,1.47-.91,2.26-2.63.61-5.05,2.16-6.68,4.57-1.76,2.59-2.27,5.66-1.69,8.5-1,.42-1.89,1.12-2.54,2.08-1.8,2.64-1.11,6.24,1.54,8.04Z"/><polygon class="cls-25" points="88.61 114.84 100.76 114.84 100.42 108.09 99.96 98.79 99.59 91.15 89.78 91.15 89.4 98.79 88.94 108.09 88.61 114.84"/><polygon class="cls-46" points="88.94 108.09 100.42 108.09 99.96 98.79 89.4 98.79 88.94 108.09"/><g><rect class="cls-42" x="55.57" y="100.46" width="28.83" height="18.08"/><polygon class="cls-42" points="84.4 94.86 75.84 94.86 69.98 101.63 84.4 101.63 84.4 94.86"/><g><rect class="cls-50" x="77.43" y="114.93" width="3.61" height="3.61" transform="translate(158.47 233.47) rotate(-180)"/><rect class="cls-50" x="71.24" y="114.93" width="3.61" height="3.61" transform="translate(146.09 233.47) rotate(-180)"/><rect class="cls-50" x="65.05" y="114.93" width="3.61" height="3.61" transform="translate(133.72 233.47) rotate(-180)"/></g><g><rect class="cls-50" x="77.43" y="109.01" width="3.61" height="3.61" transform="translate(158.47 221.63) rotate(-180)"/><rect class="cls-50" x="71.24" y="109.01" width="3.61" height="3.61" transform="translate(146.09 221.63) rotate(-180)"/><rect class="cls-50" x="65.05" y="109.01" width="3.61" height="3.61" transform="translate(133.72 221.63) rotate(-180)"/></g><g><rect class="cls-50" x="77.43" y="103.09" width="3.61" height="3.61" transform="translate(158.47 209.79) rotate(-180)"/><rect class="cls-50" x="71.24" y="103.09" width="3.61" height="3.61" transform="translate(146.09 209.79) rotate(-180)"/><rect class="cls-50" x="65.05" y="103.09" width="3.61" height="3.61" transform="translate(133.72 209.79) rotate(-180)"/><rect class="cls-50" x="58.86" y="114.93" width="3.61" height="3.61" transform="translate(121.34 233.47) rotate(-180)"/><rect class="cls-50" x="58.86" y="109.01" width="3.61" height="3.61" transform="translate(121.34 221.63) rotate(-180)"/><rect class="cls-50" x="58.86" y="103.09" width="3.61" height="3.61" transform="translate(121.34 209.79) rotate(-180)"/></g></g><g><path class="cls-30" d="m35.02,114.84c0,7,2.41,12.11,5.62,15.76,3.29,3.72,7.39,5.9,10.6,6.94,2.85.99,5.24,2.03,7.24,3.1,11.48,6.1,10.3,12.83,10.3,12.83h182.26c9.51,0,17.81-5.16,22.27-12.83,2.21-3.8,3.47-8.21,3.47-12.93H117.76c-5.31,0-9.63-4.31-9.63-9.63v-3.24s-73.12,0-73.12,0Z"/><path class="cls-25" d="m68.77,153.46h182.26c9.51,0,17.82-5.16,22.28-12.82H58.47c11.48,6.09,10.3,12.82,10.3,12.82Z"/><path class="cls-26" d="m40.63,130.59c3.29,3.72,7.39,5.9,10.6,6.94,2.85.99,5.24,2.03,7.24,3.1,11.48,6.1,10.3,12.83,10.3,12.83h51.35c.6-.76.98-1.53,1.12-2.31.58-3.32-2.98-8.45-6.07-11.26-3.28-2.98-6.76-4.02-9.47-4.83-7.92-2.37-12.45.02-21.27-1.43-6.13-1.01-5.82-2.48-13.22-4.64-5.7-1.67-22.66-6.64-29.67.53-.32.33-.63.69-.91,1.07Z"/></g><g><circle class="cls-39" cx="252.05" cy="140.08" r="4.1"/><circle class="cls-55" cx="252.05" cy="140.08" r="2.91"/></g><g><circle class="cls-39" cx="230.45" cy="140.08" r="4.1"/><circle class="cls-55" cx="230.45" cy="140.08" r="2.91"/></g><g><circle class="cls-39" cx="208.04" cy="140.08" r="4.1"/><circle class="cls-55" cx="208.04" cy="140.08" r="2.91"/></g></g></g><path class="cls-29" d="m141.28,201.65h133.75v-37.46h-122.01c-5.83,0-11.08,3.54-13.26,8.95l-6.63,16.42c-2.34,5.78,1.92,12.09,8.16,12.09Z"/><g id="crane"><g><rect class="cls-15" x="192.54" y="181.88" width="16.8" height="3.68"/><ellipse class="cls-15" cx="200.94" cy="185.85" rx="8.4" ry="1.04"/><ellipse class="cls-16" cx="200.94" cy="181.64" rx="8.4" ry="1.04"/></g><g><rect class="cls-15" x="154.34" y="181.88" width="16.8" height="3.68"/><ellipse class="cls-15" cx="162.74" cy="185.85" rx="8.4" ry="1.04"/><ellipse class="cls-16" cx="162.74" cy="181.64" rx="8.4" ry="1.04"/></g><g><rect class="cls-15" x="173.55" y="183.99" width="16.8" height="3.68"/><ellipse class="cls-15" cx="181.95" cy="187.96" rx="8.4" ry="1.04"/><ellipse class="cls-16" cx="181.95" cy="183.75" rx="8.4" ry="1.04"/></g><line class="cls-11" x1="201.71" y1="181.39" x2="201.86" y2="162.99"/><line class="cls-11" x1="197.45" y1="181.39" x2="197.6" y2="162.99"/><line class="cls-11" x1="184.05" y1="183.23" x2="184.2" y2="162.99"/><line class="cls-11" x1="162.94" y1="181.39" x2="163.09" y2="162.99"/><line class="cls-11" x1="180.34" y1="183.23" x2="180.49" y2="162.99"/><line class="cls-11" x1="166.86" y1="181.39" x2="167.01" y2="162.99"/><line class="cls-11" x1="163.09" y1="169.4" x2="201.86" y2="169.4"/><line class="cls-11" x1="162.94" y1="175.2" x2="201.78" y2="175.2"/><polygon class="cls-33" points="177.03 129.05 187.96 129.05 187.96 145.8 182.27 159.32 177.03 145.8 177.03 129.05"/><line class="cls-11" x1="190.26" y1="142.14" x2="200.73" y2="159.32"/><line class="cls-11" x1="174.42" y1="142.72" x2="163.94" y2="159.9"/><line class="cls-11" x1="173.38" y1="144.19" x2="200.73" y2="159.32"/><line class="cls-11" x1="191.46" y1="144.19" x2="164.09" y2="159.32"/><line class="cls-10" x1="180.63" y1="80.63" x2="204.07" y2="94.93"/><rect class="cls-54" x="174.94" y="80.01" width="5.69" height="10.6"/><polygon class="cls-54" points="204.07 94.67 206.72 94.67 206.72 105.27 204.07 106.72 204.07 94.67"/><rect class="cls-3" x="163.77" y="116.82" width="37.94" height="12.05"/><polygon class="cls-25" points="204.83 104.54 198.36 119.36 200.92 119.36 228.42 56.32 204.83 104.54"/><ellipse class="cls-25" cx="228.42" cy="56.32" rx="2.06" ry="2.01"/><polyline class="cls-11" points="221.32 57.49 246.03 80.31 228.42 56.32 221.32 57.49 171.79 87.84"/><polygon class="cls-54" points="178.34 116.82 171.79 87.84 174.16 87.84 182.27 116.82 178.34 116.82"/><path class="cls-11" d="m248.62,82.47v20.87c0,.64-.54,1.17-1.19,1.17h-.05c-.66,0-1.19-.52-1.19-1.17v-20.87c0-.64.54-1.17,1.19-1.17h.05c.66,0,1.19.52,1.19,1.17Z"/><rect class="cls-33" x="244.47" y="99.97" width="5.86" height="4.53"/><ellipse class="cls-25" cx="247.4" cy="82.02" rx="2.06" ry="2.01"/><line class="cls-10" x1="179.68" y1="92.11" x2="204.07" y2="100.7"/><path class="cls-25" d="m163.56,80.28l17.65,7.99c1.02.46,1.5,1.62,1.08,2.63h0c-.41,1.01-1.55,1.54-2.61,1.2l-18.52-5.83,2.39-6Z"/><rect class="cls-3" x="163.03" y="159.32" width="38.83" height="3.67"/><polygon class="cls-3" points="173.38 140.52 191.61 140.52 191.61 142.35 191.61 144.19 173.38 144.19 173.38 140.52"/><line class="cls-11" x1="195.5" y1="126.3" x2="195.5" y2="119.36"/><line class="cls-11" x1="190.51" y1="126.31" x2="190.51" y2="119.37"/><line class="cls-11" x1="185.52" y1="126.31" x2="185.52" y2="119.37"/><line class="cls-11" x1="180.54" y1="126.31" x2="180.54" y2="119.37"/><line class="cls-11" x1="175.56" y1="126.31" x2="175.56" y2="119.37"/><line class="cls-11" x1="170.57" y1="126.31" x2="170.57" y2="119.37"/><g><rect class="cls-50" x="237.32" y="104.5" width="20.16" height="7.44" transform="translate(494.8 216.44) rotate(-180)"/><line class="cls-22" x1="247.4" y1="105.09" x2="247.4" y2="111.35"/></g></g><g><g><rect class="cls-44" x="193.7" y="184.46" width="20.46" height="7.72"/><line class="cls-13" x1="203.92" y1="185.07" x2="203.92" y2="191.58"/></g><g><rect class="cls-42" x="214.15" y="184.46" width="20.46" height="7.72"/><line class="cls-13" x1="224.38" y1="185.07" x2="224.38" y2="191.58"/></g><g><rect class="cls-55" x="234.61" y="184.46" width="20.46" height="7.72"/><line class="cls-13" x1="244.84" y1="185.07" x2="244.84" y2="191.58"/></g><g><rect class="cls-44" x="255.07" y="184.46" width="20.46" height="7.72"/><line class="cls-13" x1="265.3" y1="185.07" x2="265.3" y2="191.58"/></g><g><rect class="cls-50" x="255.07" y="176.74" width="20.46" height="7.72" transform="translate(530.6 361.2) rotate(-180)"/><line class="cls-13" x1="265.3" y1="177.35" x2="265.3" y2="183.85"/></g><g><rect class="cls-38" x="234.61" y="176.74" width="20.46" height="7.72" transform="translate(489.69 361.2) rotate(-180)"/><line class="cls-13" x1="244.84" y1="177.35" x2="244.84" y2="183.85"/></g><g><rect class="cls-42" x="193.7" y="176.74" width="20.46" height="7.72"/><line class="cls-13" x1="203.92" y1="177.35" x2="203.92" y2="183.85"/></g><g><rect class="cls-55" x="214.15" y="176.74" width="20.46" height="7.72"/><line class="cls-13" x1="224.38" y1="177.35" x2="224.38" y2="183.85"/></g><rect class="cls-44" x="224.38" y="169.01" width="20.46" height="7.72"/><g><rect class="cls-33" x="203.92" y="169.01" width="20.46" height="7.72"/><line class="cls-13" x1="214.15" y1="169.62" x2="214.15" y2="176.13"/><line class="cls-13" x1="234.61" y1="169.62" x2="234.61" y2="176.13"/></g><g><rect class="cls-31" x="244.84" y="169.01" width="20.46" height="7.72" transform="translate(510.15 345.75) rotate(-180)"/><line class="cls-13" x1="255.07" y1="169.62" x2="255.07" y2="176.13"/></g></g><g id="New_Factory"><path class="cls-32" d="m309.07,303.31h0c-.63.21-1.3-.13-1.51-.75l-1.74-5.17c-.21-.63.13-1.3.75-1.51h0c.63-.21,1.3.13,1.51.75l1.74,5.17c.21.63-.13,1.3-.75,1.51Z"/><polygon class="cls-59" points="322.41 308.61 322.41 296.11 321.84 296.11 321.84 308.61 321.2 308.61 321.2 289.14 323.04 289.14 323.04 308.61 322.41 308.61"/><rect class="cls-50" x="320.68" y="303.19" width="3.54" height="5.42"/><rect class="cls-31" x="306.31" y="301.58" width="8.58" height="3.06" rx="1.53" ry="1.53"/><path class="cls-59" d="m316.41,304.78l4.67-.03-1.04-3.66c-2.08,1.51-2.2,1.56-3.63,3.69Z"/><path class="cls-59" d="m319.36,302.88h0c-.19.18-.5.17-.68-.03l-2.76-3.05c-.17-.2-.16-.49.03-.68h0s0,0,.01-.01c.19-.17.49-.16.67.03l2.76,3.05c.18.19.17.5-.02.68Z"/><path class="cls-59" d="m318.68,302.85l-3.4-3.76c-.17-.2-.16-.49.03-.68h0s0,0,.01-.01c.19-.17.49-.16.67.03l3.4,3.76"/><path class="cls-43" d="m313.99,299.6h0c.16.17.42.18.59.02l1.93-1.77s0,0,0,0c.17-.16.18-.42.02-.59h0c-.16-.17-.42-.18-.59-.02l-1.93,1.77c-.17.16-.18.42-.02.59Z"/><path class="cls-56" d="m306.47,289.33c-.7,0-1.27.57-1.27,1.27v16.76c0,.7.57,1.27,1.27,1.27h14.45c.7,0,1.49-.61,1.27-1.27l-5.35-16.76c-.22-.67-.57-1.27-1.27-1.27h-9.1Zm8.84.85c.62,0,.96.55,1.15,1.16l4.82,15.27c.19.61-.52,1.16-1.15,1.16h-13.04c-.64,0-1.15-.52-1.15-1.16v-15.27c0-.64.52-1.16,1.15-1.16h8.22Z"/><g><path class="cls-42" d="m308.6,301s1.31.53,3.19-.78c-.31-.84-.93-2.99-1.02-3.35s-.64-.86-1.57-.67-.75.93-.78,1.71.18,3.08.18,3.08Z"/><path class="cls-42" d="m308.91,301.08s-.09.77,1.59.88c1.69.11,3.57,0,3.57,0l.98,2.62.47-.13-.38-3.04s-.09-.72-.91-.73c-1.13-.02-1.93,0-2.44-.44-1,.2-2.88.85-2.88.85Z"/><polygon class="cls-42" points="312.84 301.89 313.86 304.57 314.31 304.5 313.92 301.7 312.84 301.89"/><path class="cls-42" d="m315.05,304.57l-.09.74h1.57s.04-.32-.28-.33-.36-.04-.43-.13-.3-.41-.3-.41l-.47.13Z"/><path class="cls-42" d="m313.85,304.57l-.09.74h1.57s.04-.32-.28-.33-.36-.04-.43-.13-.3-.41-.3-.41l-.47.13Z"/><path class="cls-42" d="m310.71,296.72s.72,1.94,3.14,1.35c.06.15,0,.5,0,.5,0,0-1.76.87-3.3-.83-.31-.53-.38-.68-.33-.84s.22-.33.48-.19Z"/><path class="cls-42" d="m313.85,298.07s.65-.47,1.12-.1c.18.16-.11.65-.42.67-.3-.12-.5-.14-.7-.06-.22-.07-.07-.46,0-.5Z"/><path class="cls-42" d="m308.1,294.23s3.43-1.3,3.37-1.29-.89-.16-.89-.16c0,0-.46-.92-1.67-.62-1.21.3-1.07,1.57-.81,2.07Z"/><path class="cls-42" d="m310.66,293.26l.1.63s.31.55.25.58-.25.13-.25.13c0,0,.19.83-.65.96-.25.3-.21.63-.24.63s-.84.07-.84.07l-.12-.68s-.74-.55-.72-1.38c1.06-.5,2.02-.98,2.46-.94Z"/></g><path class="cls-56" d="m306.09,303.68h14.92s1.18,3.53,1.18,3.53c.24.74-.57,1.42-1.27,1.42h-14.45c-.75-.04-1.32-.68-1.28-1.43v-3.95c.2.3.54.46.9.42Z"/><rect class="cls-50" x="302.37" y="300.31" width="6.74" height="6.32" rx="1.05" ry="1.05"/><path class="cls-51" d="m321.77,305.95l.42,1.27c.24.74-.57,1.42-1.27,1.42h-14.45c-.75-.04-1.32-.68-1.28-1.42v-1.27h16.58Z"/><path class="cls-56" d="m305.74,306.63h-2.33c-.58,0-1.05-.47-1.05-1.05v-4.21c0-.58.47-1.05,1.05-1.05h2.33v6.32Z"/><rect class="cls-33" x="322.99" y="287.36" width="9.93" height="8.43"/><rect class="cls-48" x="322.99" y="287.36" width="9.95" height="1.86"/><rect class="cls-38" x="322.74" y="287.23" width="10.42" height="1.49"/><rect class="cls-30" x="328.97" y="289.41" width="3.38" height="1.54"/><rect class="cls-38" x="329.21" y="289.6" width=".36" height="1.14"/><rect class="cls-38" x="329.85" y="289.6" width=".36" height="1.14"/><rect class="cls-38" x="330.52" y="289.6" width=".36" height="1.14"/><rect class="cls-38" x="331.13" y="289.6" width=".36" height="1.14"/><rect class="cls-38" x="331.74" y="289.6" width=".36" height="1.14"/><polygon class="cls-59" points="334.35 296.65 321.2 296.65 321.2 295.77 333.33 295.77 334.35 296.65"/><path class="cls-28" d="m318.53,308.53c0-1.72,1.39-3.11,3.11-3.11,1.72,0,3.11,1.39,3.11,3.11,0,1.72-1.39,3.11-3.11,3.11-1.71,0-3.1-1.39-3.11-3.11Z"/><path class="cls-49" d="m320.41,308.53c0-.68.55-1.22,1.22-1.22s1.22.55,1.22,1.22c0,.68-.55,1.22-1.22,1.22-.68,0-1.22-.55-1.22-1.22Z"/><path class="cls-43" d="m317.67,306.89h.76c.34-.67.89-1.22,1.56-1.56,1.77-.91,3.94-.21,4.85,1.56h.76c-.66-1.6-2.22-2.64-3.95-2.65-1.74,0-3.31,1.04-3.97,2.65Z"/><circle class="cls-27" cx="305.38" cy="308.7" r="3.11"/><path class="cls-49" d="m304.15,308.7s0,0,0,0c0-.68.55-1.22,1.22-1.22s1.22.55,1.22,1.22-.55,1.22-1.22,1.22c-.68,0-1.22-.55-1.22-1.22Z"/><path class="cls-43" d="m301.42,307.04h.76c.34-.67.89-1.22,1.56-1.56,1.77-.91,3.94-.21,4.85,1.56h.75c-.67-1.59-2.22-2.63-3.95-2.63-1.73,0-3.29,1.04-3.96,2.63Z"/></g></svg>