<?xml version="1.0" encoding="UTF-8"?><svg id="a" xmlns="http://www.w3.org/2000/svg" viewBox="0 0 239.57 31.76"><defs><style>.b{stroke:#002137;stroke-miterlimit:10;stroke-width:.14px;}.b,.c{fill:#002137;}.d{fill:#f90070;}.e{fill:#b00063;}</style></defs><g><g><path class="b" d="M7.07,19.91c.89,0,1.55,.22,2.01,.65,.45,.43,.68,1.12,.68,2.07v4.83h-1.2v-4.74c0-1.19-.55-1.78-1.66-1.78-.82,0-1.39,.23-1.7,.69-.31,.46-.47,1.12-.47,1.99v3.84h-1.22v-7.41h.98l.18,1.01h.07c.24-.39,.57-.68,1-.86,.42-.19,.87-.28,1.34-.28Z"/><path class="b" d="M18.61,27.6c-.66,0-1.25-.13-1.76-.4-.51-.27-.91-.68-1.2-1.24-.29-.56-.44-1.28-.44-2.16s.15-1.65,.45-2.23c.3-.57,.71-.99,1.24-1.26,.53-.27,1.12-.4,1.78-.4,.37,0,.73,.04,1.09,.12,.35,.08,.64,.17,.86,.28l-.37,1.01c-.22-.08-.48-.16-.77-.24-.3-.07-.57-.11-.83-.11-1.46,0-2.19,.94-2.19,2.81,0,.89,.18,1.58,.53,2.05,.35,.48,.88,.71,1.58,.71,.4,0,.75-.04,1.06-.12,.31-.08,.6-.18,.86-.3v1.08c-.25,.13-.52,.23-.82,.3-.3,.07-.66,.1-1.09,.1Z"/><path class="b" d="M28.72,23.74c0,1.23-.31,2.18-.93,2.85-.62,.67-1.46,1.01-2.52,1.01-.65,0-1.24-.15-1.75-.45-.51-.3-.92-.74-1.21-1.31-.3-.58-.44-1.27-.44-2.1,0-1.23,.31-2.17,.92-2.84,.61-.66,1.45-1,2.52-1,.66,0,1.25,.15,1.77,.45,.52,.3,.92,.73,1.21,1.3,.29,.57,.44,1.26,.44,2.08Zm-5.6,0c0,.88,.17,1.57,.52,2.08,.35,.51,.9,.77,1.65,.77s1.3-.26,1.65-.77c.35-.51,.53-1.21,.53-2.08s-.18-1.56-.53-2.06c-.35-.5-.9-.75-1.66-.75s-1.3,.25-1.65,.75c-.34,.5-.51,1.18-.51,2.06Z"/><path class="b" d="M31.86,27.46h-1.22v-10.51h1.22v10.51Z"/><path class="b" d="M35.43,27.46h-1.22v-10.51h1.22v10.51Z"/><path class="b" d="M40.59,19.92c.9,0,1.57,.2,2.01,.59,.43,.4,.65,1.03,.65,1.89v5.05h-.89l-.23-1.05h-.06c-.32,.41-.66,.71-1.02,.9s-.85,.29-1.47,.29c-.67,0-1.23-.18-1.67-.53-.44-.35-.66-.91-.66-1.67s.29-1.31,.87-1.71c.58-.4,1.47-.62,2.68-.66l1.26-.04v-.44c0-.62-.13-1.05-.4-1.29-.27-.24-.65-.36-1.13-.36-.39,0-.76,.06-1.11,.17-.35,.12-.68,.25-.98,.39l-.37-.91c.32-.18,.71-.32,1.15-.45,.44-.12,.9-.19,1.38-.19Zm1.45,3.91l-1.09,.04c-.92,.04-1.56,.18-1.92,.44-.35,.26-.53,.62-.53,1.09,0,.41,.13,.72,.38,.91,.25,.19,.58,.29,.98,.29,.62,0,1.14-.17,1.56-.52,.42-.35,.63-.88,.63-1.6v-.66Z"/><path class="b" d="M46.76,16.95v2.56c0,.31,0,.61-.02,.88-.01,.27-.03,.49-.05,.64h.07c.21-.31,.5-.58,.87-.79,.37-.21,.84-.32,1.42-.32,.92,0,1.66,.32,2.22,.96,.56,.64,.84,1.6,.84,2.87s-.28,2.23-.84,2.88c-.56,.65-1.3,.97-2.21,.97-.58,0-1.06-.11-1.42-.32-.37-.21-.66-.47-.87-.76h-.1l-.25,.94h-.87v-10.51h1.22Zm2.09,3.98c-.79,0-1.34,.23-1.64,.68-.3,.45-.45,1.15-.45,2.1v.06c0,.91,.15,1.61,.45,2.1s.86,.73,1.67,.73c.66,0,1.16-.24,1.49-.73,.33-.49,.49-1.19,.49-2.12,0-1.87-.67-2.81-2.01-2.81Z"/><path class="b" d="M60.49,23.74c0,1.23-.31,2.18-.93,2.85-.62,.67-1.46,1.01-2.52,1.01-.65,0-1.24-.15-1.75-.45-.51-.3-.92-.74-1.21-1.31-.3-.58-.44-1.27-.44-2.1,0-1.23,.31-2.17,.92-2.84,.61-.66,1.45-1,2.52-1,.66,0,1.25,.15,1.77,.45,.52,.3,.92,.73,1.21,1.3,.29,.57,.44,1.26,.44,2.08Zm-5.6,0c0,.88,.17,1.57,.52,2.08,.35,.51,.9,.77,1.65,.77s1.3-.26,1.65-.77c.35-.51,.53-1.21,.53-2.08s-.18-1.56-.53-2.06c-.35-.5-.9-.75-1.66-.75s-1.3,.25-1.65,.75c-.34,.5-.51,1.18-.51,2.06Z"/><path class="b" d="M65.87,19.91c.14,0,.29,0,.44,.02,.16,.01,.3,.03,.43,.06l-.15,1.12c-.12-.03-.25-.05-.4-.07-.15-.02-.28-.03-.4-.03-.38,0-.73,.1-1.06,.31-.33,.21-.6,.5-.8,.87-.2,.37-.3,.81-.3,1.31v3.96h-1.22v-7.41h1l.14,1.36h.06c.23-.41,.54-.76,.92-1.05,.38-.29,.83-.44,1.35-.44Z"/><path class="b" d="M70.65,19.92c.9,0,1.57,.2,2.01,.59,.43,.4,.65,1.03,.65,1.89v5.05h-.89l-.23-1.05h-.06c-.32,.41-.66,.71-1.02,.9s-.85,.29-1.47,.29c-.67,0-1.23-.18-1.67-.53-.44-.35-.66-.91-.66-1.67s.29-1.31,.87-1.71c.58-.4,1.47-.62,2.68-.66l1.26-.04v-.44c0-.62-.13-1.05-.4-1.29-.27-.24-.65-.36-1.13-.36-.39,0-.76,.06-1.11,.17-.35,.12-.68,.25-.98,.39l-.37-.91c.32-.18,.71-.32,1.15-.45,.44-.12,.9-.19,1.38-.19Zm1.45,3.91l-1.09,.04c-.92,.04-1.56,.18-1.92,.44-.35,.26-.53,.62-.53,1.09,0,.41,.13,.72,.38,.91,.25,.19,.58,.29,.98,.29,.62,0,1.14-.17,1.56-.52,.42-.35,.63-.88,.63-1.6v-.66Z"/><path class="b" d="M78.08,26.6c.18,0,.37-.01,.57-.04,.19-.03,.35-.06,.47-.11v.93c-.13,.06-.31,.12-.55,.16-.24,.04-.47,.06-.69,.06-.39,0-.74-.07-1.07-.2-.33-.13-.59-.37-.8-.7s-.3-.8-.3-1.4v-4.31h-1.05v-.58l1.06-.48,.48-1.58h.72v1.7h2.14v.94h-2.14v4.29c0,.45,.11,.79,.32,1,.22,.22,.5,.32,.84,.32Z"/><path class="b" d="M81.22,17.27c.18,0,.35,.06,.49,.19,.14,.12,.21,.32,.21,.59s-.07,.46-.21,.59c-.14,.12-.31,.19-.49,.19-.2,0-.37-.06-.51-.19-.14-.12-.21-.32-.21-.59s.07-.46,.21-.59c.14-.12,.31-.19,.51-.19Zm.59,2.78v7.41h-1.22v-7.41h1.22Z"/><path class="b" d="M90.61,23.74c0,1.23-.31,2.18-.93,2.85-.62,.67-1.46,1.01-2.52,1.01-.65,0-1.24-.15-1.75-.45-.51-.3-.92-.74-1.21-1.31-.3-.58-.44-1.27-.44-2.1,0-1.23,.31-2.17,.92-2.84,.61-.66,1.45-1,2.52-1,.66,0,1.25,.15,1.77,.45,.52,.3,.92,.73,1.21,1.3,.29,.57,.44,1.26,.44,2.08Zm-5.6,0c0,.88,.17,1.57,.52,2.08,.35,.51,.9,.77,1.65,.77s1.3-.26,1.65-.77c.35-.51,.53-1.21,.53-2.08s-.18-1.56-.53-2.06c-.35-.5-.9-.75-1.66-.75s-1.3,.25-1.65,.75c-.34,.5-.51,1.18-.51,2.06Z"/><path class="b" d="M96.1,19.91c.89,0,1.55,.22,2.01,.65,.45,.43,.68,1.12,.68,2.07v4.83h-1.2v-4.74c0-1.19-.55-1.78-1.66-1.78-.82,0-1.39,.23-1.7,.69-.31,.46-.47,1.12-.47,1.99v3.84h-1.22v-7.41h.98l.18,1.01h.07c.24-.39,.57-.68,1-.86,.42-.19,.87-.28,1.34-.28Z"/><path class="b" d="M110.73,27.45l-1.27-4.18c-.12-.38-.23-.75-.32-1.11-.09-.36-.16-.65-.19-.86h-.06c-.04,.21-.1,.5-.18,.86s-.19,.73-.32,1.12l-1.33,4.16h-1.38l-2.03-7.41h1.26l1.02,3.96c.1,.4,.2,.8,.29,1.2,.09,.41,.16,.74,.19,1.01h.06c.03-.16,.07-.35,.12-.58s.12-.47,.18-.73c.06-.25,.13-.48,.19-.68l1.31-4.18h1.33l1.27,4.18c.09,.32,.19,.67,.29,1.04,.1,.37,.17,.68,.21,.94h.06c.03-.23,.09-.55,.19-.95,.1-.41,.2-.82,.31-1.24l1.04-3.96h1.24l-2.06,7.41h-1.42Z"/><path class="b" d="M116.16,17.27c.18,0,.35,.06,.49,.19,.14,.12,.21,.32,.21,.59s-.07,.46-.21,.59c-.14,.12-.31,.19-.49,.19-.2,0-.37-.06-.51-.19-.14-.12-.21-.32-.21-.59s.07-.46,.21-.59c.14-.12,.31-.19,.51-.19Zm.59,2.78v7.41h-1.22v-7.41h1.22Z"/><path class="b" d="M121.58,26.6c.18,0,.37-.01,.57-.04,.19-.03,.35-.06,.47-.11v.93c-.13,.06-.31,.12-.55,.16-.24,.04-.47,.06-.69,.06-.39,0-.74-.07-1.07-.2-.33-.13-.59-.37-.8-.7s-.3-.8-.3-1.4v-4.31h-1.05v-.58l1.06-.48,.48-1.58h.72v1.7h2.14v.94h-2.14v4.29c0,.45,.11,.79,.32,1,.22,.22,.5,.32,.84,.32Z"/><path class="b" d="M125.32,16.95v3.08c0,.37-.02,.71-.07,1.04h.08c.24-.38,.56-.66,.98-.86,.41-.19,.85-.29,1.33-.29,.89,0,1.57,.21,2.03,.64,.46,.43,.68,1.12,.68,2.07v4.83h-1.2v-4.74c0-1.19-.55-1.78-1.66-1.78-.83,0-1.4,.23-1.71,.7-.31,.47-.46,1.13-.46,2v3.83h-1.22v-10.51h1.22Z"/></g><path class="b" d="M1.29,27.59H.07v-10.14H1.29v10.14Z"/></g><g><path class="d" d="M203.91,4.72l-13.6-4.72-13.65,4.72,13.65,4.67,11.43-3.93-11.08-3.79,.63-.22,11,3.82,1.62-.55h0Zm-1.67,2.19c.34,0,.61-.27,.61-.61s-.27-.61-.61-.61-.61,.27-.61,.61,.27,.61,.61,.61h0Zm-.42,.26l-.28,.51v4.12l.2,.19V7.89h.2v4.3l.2,.19V7.89h.19v4.5l.2-.2V7.89h.2v4.1l.19-.19V7.68l-.33-.51h-.79Z"/><polygon class="d" points="198.43 11.7 198.43 7.13 190.31 9.93 190.31 14.44 198.43 11.7 198.43 11.7"/><polygon class="e" points="182.19 11.7 182.19 7.13 190.31 9.93 190.31 14.44 182.19 11.7 182.19 11.7"/></g><g><path class="d" d="M220.18,28.05c-.75,0-1.46-.14-2.11-.4-.65-.27-1.21-.66-1.67-1.15-.47-.49-.83-1.08-1.09-1.75-.26-.66-.39-1.41-.39-2.2,0-.74,.13-1.45,.38-2.12,.25-.66,.6-1.25,1.05-1.74,.46-.5,1-.89,1.62-1.18,.63-.29,1.32-.44,2.04-.44,.79,0,1.5,.15,2.13,.46,.62,.3,1.15,.71,1.57,1.22,.42,.51,.75,1.11,.96,1.77,.21,.65,.32,1.36,.32,2.1v.67h-8.11c.05,.34,.13,.67,.25,.97,.16,.43,.39,.8,.69,1.12,.3,.32,.65,.57,1.05,.75,.4,.18,.88,.27,1.4,.27,.56,0,1.1-.1,1.6-.31,.5-.21,.94-.52,1.31-.92l.3-.32,1.03,1.29-.23,.24c-.52,.55-1.12,.97-1.79,1.26-.67,.29-1.44,.44-2.29,.44Zm-7.83,0c-.76,0-1.34-.23-1.73-.69-.38-.43-.57-1.04-.57-1.81v-6.53h-1.61v-1.71h1.61v-2.66h1.83v2.66h1.98v1.71h-1.98v6.37c0,.31,.06,.56,.18,.75,.09,.14,.23,.2,.45,.2,.17,0,.32-.04,.47-.1,.14-.07,.26-.15,.33-.23l.38-.42,.78,1.55-.2,.2c-.22,.22-.48,.4-.79,.53-.31,.13-.7,.19-1.14,.19Zm-17.44,0c-.45,0-.91-.08-1.36-.23-.45-.16-.86-.39-1.22-.7-.36-.31-.66-.69-.87-1.14-.22-.46-.33-.98-.33-1.56s.11-1.1,.33-1.56c.22-.45,.52-.84,.88-1.15,.36-.31,.77-.54,1.21-.69,.44-.15,.9-.22,1.37-.22,1.14,0,2.12,.3,2.92,.91v-1.1c0-.6-.2-1.04-.61-1.35-.45-.33-.98-.49-1.63-.49-.55,0-1.05,.1-1.49,.3-.44,.2-.86,.53-1.27,1l-.3,.35-1.08-1.34,.22-.24c.54-.59,1.14-1.03,1.77-1.33,.64-.3,1.4-.45,2.26-.45,.53,0,1.03,.07,1.5,.2,.48,.13,.9,.35,1.26,.63,.37,.29,.66,.67,.87,1.12,.2,.45,.31,.98,.31,1.56v7.24h-1.82v-.67c-.81,.61-1.79,.91-2.92,.91Zm-25.07,0c-.84,0-1.6-.13-2.25-.39-.66-.26-1.26-.69-1.79-1.27l-.22-.24,1.13-1.41,.3,.37c.28,.35,.66,.64,1.17,.91,.49,.25,1.06,.38,1.68,.38,.72,0,1.28-.16,1.67-.48,.37-.3,.54-.67,.54-1.12,0-.33-.1-.56-.31-.73-.26-.21-.6-.39-1.02-.52-.44-.14-.92-.27-1.45-.4-.55-.12-1.07-.29-1.55-.49-.5-.21-.93-.51-1.27-.89-.37-.4-.55-.95-.55-1.62,0-.43,.09-.84,.27-1.22,.19-.39,.44-.71,.78-.99,.33-.27,.74-.49,1.21-.64,.47-.15,1.01-.23,1.59-.23,.9,0,1.67,.16,2.29,.46,.61,.31,1.11,.68,1.49,1.1l.22,.24-1.1,1.4-.3-.41c-.24-.34-.59-.61-1.02-.82-.46-.21-.97-.32-1.56-.32-.67,0-1.2,.14-1.55,.42-.33,.26-.5,.58-.5,.97,0,.28,.09,.47,.29,.62,.27,.19,.61,.35,1.03,.48,.41,.13,.87,.25,1.46,.39,.55,.12,1.07,.3,1.55,.53,.51,.24,.94,.57,1.27,.97,.36,.43,.54,1.01,.54,1.72,0,.44-.09,.86-.27,1.26-.18,.4-.45,.75-.8,1.05-.35,.3-.78,.53-1.27,.69-.5,.16-1.07,.24-1.71,.24Zm19.34-.24h-1.81v-7.2c0-.59-.13-1.06-.38-1.39-.23-.3-.62-.45-1.19-.45-.23,0-.46,.04-.69,.11-.23,.08-.47,.19-.7,.33-.22,.13-.43,.3-.62,.48-.16,.16-.29,.31-.4,.46v7.65h-1.83v-7.2c0-.59-.13-1.06-.38-1.39-.23-.3-.62-.44-1.2-.44-.21,0-.43,.04-.66,.12-.24,.08-.47,.19-.7,.33-.23,.14-.43,.29-.62,.48-.16,.16-.3,.32-.42,.49v7.62h-1.82v-10.5h1.82v.87c.18-.15,.37-.29,.6-.43,.32-.2,.65-.36,1-.48,.38-.14,.77-.2,1.16-.2,.42,0,.79,.06,1.12,.18,.33,.11,.63,.28,.87,.48,.26,.21,.45,.44,.6,.69,.02,.04,.04,.07,.06,.11,.06-.06,.11-.12,.18-.18,.24-.24,.53-.45,.84-.64,.31-.18,.64-.33,.98-.45,.36-.12,.74-.18,1.13-.18,1.99,0,3.04,1.16,3.04,3.35v7.4Zm39.71,0h-1.82v-10.5h1.82v1.05c.27-.25,.55-.48,.85-.67,.6-.39,1.29-.59,2.05-.59h.38v2.04l-.49-.14c-.06-.02-.11-.02-.15-.02h-.27c-.2,0-.42,.04-.65,.13-.26,.09-.5,.21-.73,.36-.23,.15-.44,.31-.63,.5-.15,.15-.27,.31-.36,.46v7.39Zm-25.32,0h-1.81v-10.5h1.81v1.05c.27-.25,.55-.48,.85-.67,.6-.39,1.29-.59,2.05-.59h.38v2.03l-.48-.13c-.06-.02-.11-.02-.15-.02h-.27c-.2,0-.42,.04-.66,.13-.26,.09-.5,.21-.73,.36-.23,.15-.44,.31-.63,.5-.15,.15-.27,.31-.36,.46v7.38Zm-8.29-5.4c-.71,0-1.26,.19-1.67,.58-.41,.38-.61,.86-.61,1.45s.2,1.06,.6,1.43c.41,.39,.97,.58,1.67,.58,.54,0,1.04-.1,1.5-.3,.41-.18,.77-.44,1.06-.78v-1.86c-.29-.34-.65-.61-1.07-.8-.46-.2-.97-.31-1.5-.31Zm21.6-.73h6.25c-.03-.26-.09-.52-.17-.78-.13-.39-.33-.76-.59-1.08-.26-.32-.59-.59-.99-.78-.39-.2-.86-.31-1.4-.31-.51,0-.96,.1-1.33,.3-.38,.2-.71,.46-.97,.78-.26,.31-.47,.68-.61,1.08-.09,.27-.16,.53-.19,.78Z"/><path class="c" d="M140.65,31.76c-.4,0-.79-.02-1.17-.07-.37-.04-.73-.13-1.07-.25-.32-.12-.65-.28-.96-.49-.3-.2-.6-.45-.91-.78l-.22-.23,1.08-1.45,.31,.37c.39,.46,.81,.78,1.24,.96,.45,.18,1.02,.28,1.69,.28,.41,0,.8-.05,1.16-.16,.35-.1,.66-.26,.92-.48,.26-.22,.47-.5,.62-.84,.16-.34,.24-.77,.24-1.27v-.53c-.25,.22-.53,.43-.83,.61-.65,.39-1.38,.59-2.17,.59-.7,0-1.34-.13-1.93-.39-.59-.26-1.1-.63-1.52-1.12-.42-.48-.74-1.07-.96-1.74-.22-.66-.33-1.41-.33-2.23s.11-1.54,.33-2.22c.22-.67,.54-1.26,.96-1.74,.42-.49,.93-.86,1.52-1.13,.58-.26,1.23-.4,1.93-.4,.76,0,1.47,.18,2.11,.53,.32,.18,.62,.39,.89,.64v-.93h1.83v10.02c0,.8-.13,1.5-.39,2.06-.26,.56-.62,1.03-1.07,1.39-.44,.36-.96,.61-1.54,.77-.56,.15-1.16,.23-1.78,.23Zm21.32-3.71c-.76,0-1.34-.23-1.73-.69-.37-.43-.56-1.04-.56-1.81v-6.53h-1.61v-1.71h1.61v-2.66h1.84v2.66h1.97v1.71h-1.97v6.37c0,.31,.06,.56,.18,.75,.09,.14,.22,.2,.44,.2,.17,0,.33-.04,.47-.1,.14-.07,.26-.15,.34-.23l.37-.41,.78,1.55-.2,.2c-.22,.22-.48,.4-.79,.53-.31,.13-.7,.19-1.14,.19Zm-9.53,0c-.76,0-1.47-.14-2.11-.4-.65-.27-1.21-.66-1.67-1.15-.46-.49-.83-1.08-1.08-1.75-.26-.67-.39-1.41-.39-2.21,0-.74,.13-1.45,.38-2.12,.25-.67,.61-1.26,1.06-1.75,.45-.49,.99-.89,1.61-1.18,.63-.29,1.31-.44,2.04-.44,.79,0,1.51,.15,2.13,.45,.61,.29,1.14,.7,1.57,1.22,.42,.5,.74,1.1,.96,1.77,.21,.66,.32,1.37,.32,2.1v.67h-8.11c.05,.34,.13,.66,.25,.97,.17,.44,.4,.8,.69,1.12,.29,.32,.65,.57,1.05,.74,.4,.18,.87,.27,1.4,.27,.56,0,1.1-.1,1.59-.31,.49-.21,.93-.52,1.31-.92l.3-.32,1.02,1.29-.23,.24c-.52,.55-1.12,.97-1.79,1.26-.67,.29-1.44,.44-2.3,.44Zm-12.93-2.03c.37,.18,.79,.27,1.27,.27,.3,0,.59-.04,.88-.13,.31-.09,.58-.21,.82-.35,.25-.14,.48-.31,.68-.51,.17-.17,.32-.34,.44-.52v-4.51c-.12-.18-.26-.35-.44-.52-.2-.19-.42-.36-.68-.5-.26-.15-.53-.27-.82-.35-.73-.21-1.53-.16-2.15,.15-.37,.18-.68,.44-.93,.77-.26,.34-.46,.74-.6,1.2-.14,.47-.21,.98-.21,1.53s.07,1.07,.21,1.53c.14,.46,.34,.86,.6,1.19,.25,.33,.56,.58,.93,.76Zm9.62-4.35h6.25c-.03-.25-.09-.52-.17-.78-.12-.39-.32-.75-.59-1.08-.26-.32-.59-.58-.99-.78-.39-.2-.85-.3-1.4-.3-.52,0-.96,.1-1.33,.3-.39,.2-.71,.47-.98,.78-.27,.32-.47,.68-.61,1.08-.09,.27-.16,.53-.2,.78Z"/></g><path class="c" d="M235.52,20.11h-.48v-2.38h-.81v-.41h2.11v.41h-.82v2.38Zm2.33,0l-.78-2.17h-.03l.02,.5v1.67h-.46v-2.8h.73l.76,2.17,.79-2.17h.7v2.8h-.49v-1.63l.02-.53h-.03l-.82,2.16h-.4Z"/></svg>