<!-- Generator: Adobe Illustrator 24.1.2, SVG Export Plug-In  -->
<svg version="1.1" xmlns="http://www.w3.org/2000/svg" xmlns:xlink="http://www.w3.org/1999/xlink" x="0px" y="0px" width="48.9px"
	 height="69px" viewBox="0 0 48.9 69" style="overflow:visible;enable-background:new 0 0 48.9 69;" xml:space="preserve">
<style type="text/css">
	.st0{fill:#98CCE8;}
	.st1{fill:none;stroke:#000440;stroke-miterlimit:10;}
	.st2{fill:#4BA5D7;}
	.st3{fill:#000440;}
	.st4{fill:#2983B8;}
</style>
<defs>
</defs>
<g>
	<g>
		<circle class="st0" cx="19.3" cy="23.5" r="5.7"/>
		<circle class="st0" cx="16.2" cy="17.7" r="2.7"/>
		<circle class="st0" cx="28.5" cy="11.7" r="11.7"/>
		<g>
			<path class="st1" d="M26.7,11.4c0.7,0.5,1.5,0.7,2.3,1c0.9,0.2,1.9,0.5,2.6,1.1c1.3,1.3,0.9,3.2-0.9,3.9
				c-1.8,0.6-3.8,0.6-5.8-0.3"/>
			<path class="st1" d="M32.4,7.6c-1.5-0.6-3.2-0.9-4.7-0.5c-0.9,0.2-2,0.8-2.1,1.9c-0.1,1,0.2,1.9,1.1,2.4"/>
			<line class="st1" x1="28.8" y1="4.8" x2="28.8" y2="19.6"/>
		</g>
		<g>
			<path class="st2" d="M26.4,28.7H12.2c0.5,5,0.3,10.1-0.5,15.1c-0.8,4.8-2.2,9.6-4.1,14.1H31c-2-4.6-3.4-9.4-4.1-14.3
				C26.1,38.6,25.9,33.6,26.4,28.7z"/>
			<rect x="11.5" y="28.6" class="st3" width="15.6" height="2"/>
		</g>
		<g>
			<path class="st2" d="M44.6,56.3c-0.6-2.2-1.1-4.4-1.5-6.6c-0.8-4.9-0.9-9.9-0.4-14.8H28.5c0.5,5,0.3,10.1-0.5,15.1
				c-0.8,4.8-2.2,9.6-4.1,14.1h12.2C39.4,62,42.3,59.3,44.6,56.3z"/>
			<rect x="27.8" y="34.8" class="st3" width="15.6" height="2"/>
		</g>
	</g>
	<g>
		<g id="Layer_2_2_">
			<g id="icons_1_">
				<path class="st4" d="M0,61c5.7,5,13.1,8,21.2,8c11.8,0,22.1-6.4,27.7-15.9v-4.2H0V61z"/>
			</g>
		</g>
	</g>
	<path class="st3" d="M0,52.9V61c0.3,0.2,0.5,0.5,0.8,0.7h40.8c2.9-2.4,5.4-5.3,7.3-8.5v-0.2H0z"/>
</g>
</svg>
