<?xml version="1.0" encoding="UTF-8"?><svg id="Content" xmlns="http://www.w3.org/2000/svg" viewBox="0 0 151.61 176.5"><defs><style>.cls-1{stroke-width:.54px;}.cls-1,.cls-2,.cls-3{stroke-miterlimit:10;}.cls-1,.cls-2,.cls-3,.cls-4{fill:none;}.cls-1,.cls-3{stroke:#0e5b90;}.cls-2{stroke:#093e77;stroke-width:.66px;}.cls-5{fill:#e5be72;}.cls-6{fill:#d89d29;}.cls-7{fill:#0e5b90;}.cls-8{fill:#1872a6;}.cls-3{stroke-width:1.37px;}.cls-4{stroke:#d89d29;stroke-linecap:round;stroke-linejoin:round;stroke-width:2.23px;}</style></defs><g id="Layer_2"><g id="Layer_5"><path class="cls-4" d="m107.67,126.18c-.05,1.5-1.3,2.68-2.81,2.64,0,0,0,0,0,0-1.51,0-2.99-1.55-2.93-3.79.43-13.67,23.58-15.87,25.62-32.81,1.45-12.25-7.61-15.25-12.71-14.04-2.12.56-3.63,2.41-3.75,4.6-.07,2.33,1.76,4.27,4.08,4.34,2.33.07,4.27-1.76,4.34-4.08"/><path class="cls-4" d="m57.48,126.18c.05,1.51,1.31,2.68,2.82,2.64,1.51,0,2.99-1.55,2.92-3.79-.42-13.67-23.58-15.87-25.6-32.81-1.46-12.25,7.6-15.25,12.71-14.04,2.12.56,3.63,2.41,3.76,4.6-.02,2.33-1.93,4.2-4.26,4.18-2.2-.02-4.02-1.73-4.17-3.92"/><path class="cls-8" d="m91.66,55.51s.21-24.65,16.7-29.68l-.87-2.64s-16.21,3.77-15.83,32.31Z"/><path class="cls-8" d="m124.59,72.32c7.82-1.38,15.77,1.63,20.72,7.85l-1.7,1.55s-7-10.18-19.01-9.4Z"/><path class="cls-6" d="m92.08,71.46s21.1-32.52,59.11-20.36l.43,2.4s-32.91-14.1-59.54,17.96Z"/><path class="cls-8" d="m100.01.31c-.77-.54-1.83-.36-2.37.41,0,.01-.02.03-.03.04.57-.32,1.3-.11,1.62.46.01.02.02.04.03.06l.75-.98Z"/><path class="cls-8" d="m97.61.76c-.31.58-.79,1.06-1.36,1.38l-.66-1.25c.66.25,1.4.2,2.03-.13Z"/><path class="cls-6" d="m131.19,34.07l-.68,1.97s1.18,0,2,2.24l.45-.92c-.16-1.28-.79-2.46-1.78-3.29Z"/><path class="cls-6" d="m138.83,95.88l.99,1.4c1.12-.5,1.97-1.47,2.3-2.65h-.85s-.15.38-2.44,1.24Z"/><path class="cls-6" d="m146.19,58.66c-.13,1.19.68,2.27,1.85,2.49l.56-1.38s-1.31.18-1.65-.74l-.76-.36Z"/><path class="cls-6" d="m100.64,49.09l-1.61.61c.56.78.82,1.73.73,2.69l1.02-.39c.33-.95.28-2-.14-2.92Z"/><path class="cls-8" d="m145.83,27.08l.63.72s2.14-.49,2.49-1.9l-1.8-1.3c-.04.98-.52,1.9-1.32,2.48Z"/><path class="cls-8" d="m121.84,3.22c1.14-.58,2.45-.71,3.68-.38l.09.95c-.98-.54-2.15-.65-3.22-.31l-.55-.27Z"/><path class="cls-6" d="m80.12,53.5c-2.04-9.2-6.66-17.63-13.32-24.3l-1.07,1.07c6.52,6.53,11.45,14.48,14.39,23.23Z"/><path class="cls-2" d="m108.36,65.98s1.39-4.29,7.04-5.76c9.11-2.33,9.92,8.57,17.15,6.65,2.47-.71,4.38-2.67,5.03-5.16"/><path class="cls-2" d="m80.29,8.97s5.92.84,5.85,5.09c-.08,4.63-7.02,4.51-7.11,9.22,0,3.47,6.43,2.63,6.43,6.43s-2.75,4.18-2.8,7.16c-.11,1.71.71,3.35,2.14,4.29"/><path class="cls-2" d="m120.76,26.21s-2.14-.09-2.92,1.48c-1.45,3.22.08,6.92-2.14,9.65-2.04,2.51-6.11,1.55-6.11,1.55"/><path class="cls-8" d="m57.6,66.45c-7.15-3.47-15.63-2.74-22.08,1.9l1.22,1.96s9.55-7.94,20.86-3.86Z"/><path class="cls-6" d="m61.29,57.37S36.35,27.71.13,44.4l-.13,2.44s30.93-18.02,61.29,10.52Z"/><path class="cls-6" d="m63.63,15.69c.9-.28,1.85.22,2.13,1.12,0,.01,0,.02.01.04-.44-.48-1.19-.5-1.67-.06-.02.02-.04.04-.06.06l-.42-1.16Z"/><path class="cls-6" d="m65.79,16.85c.13.65.43,1.25.88,1.74l1.01-1.01c-.7.04-1.39-.23-1.89-.73Z"/><path class="cls-6" d="m47.59,1.07l1.51,1.45s-1.07.58-.75,2.9l-.81-.61c-.46-1.21-.44-2.55.05-3.74Z"/><path class="cls-6" d="m29.15,86.28l-.21,1.7c-1.23.08-2.43-.4-3.27-1.3l.73-.42s.32.3,2.75.01Z"/><path class="cls-8" d="m10.36,54.75c.65,1,.44,2.33-.5,3.07l-1.07-.96s1.24-.44,1.13-1.41l.45-.69Z"/><path class="cls-6" d="m42.77,33.53l1.66-.2c-.14.95.07,1.92.6,2.72l-1.07.13c-.72-.7-1.14-1.65-1.19-2.65Z"/><path class="cls-6" d="m17.5,29.13l-.25.93s-2.14.56-3.07-.55l1-1.97c.49.86,1.34,1.44,2.32,1.59Z"/><path class="cls-6" d="m87.02,68.14l-.24.92s-2.14.57-3.08-.54l1-1.97c.49.86,1.34,1.44,2.32,1.59Z"/><path class="cls-8" d="m37.23,7.16c-1.27,0-2.5.5-3.43,1.36l.36.88c.62-.94,1.6-1.58,2.7-1.78l.36-.46Z"/><path class="cls-8" d="m58.8,45.4c-5.91-7.35-9.6-16.22-10.64-25.59l1.52-.15c1.02,9.17,4.14,17.98,9.12,25.74Z"/><path class="cls-2" d="m44.59,54.84s-3.73-2.56-9.09-.26c-8.57,3.71-2.62,12.86-9.54,15.74-2.4.93-5.11.52-7.13-1.07"/><path class="cls-2" d="m66.87,45.01s-4.87,2.97-3.22,6.67c1.81,4.02,7.85,1.29,9.65,5.36,1.43,2.98-4.6,4.69-3.14,8,1.46,3.3,3.98,2.62,5.14,5.2.73,1.45.63,3.18-.26,4.53"/><path class="cls-2" d="m24.63,14.47s2.14-.23,3,1.29c1.66,3.1.38,6.91,2.72,9.44,2.21,2.37,6.21,1.15,6.21,1.15"/><rect class="cls-6" x="63.42" y="165.8" width="38.27" height="8.39"/><rect class="cls-6" x="65.91" y="160.45" width="33.29" height="4.2"/><path class="cls-5" d="m111.05,82.77s0,43.12-21.62,50.71h-13.75c-21.6-7.59-21.6-50.71-21.6-50.71h56.96Z"/><path class="cls-6" d="m94.68,158.62h-24.24c5.28-5.28,8.77-10.95,8.77-21.01h6.71c0,10.03,3.54,15.7,8.77,21.01Z"/><rect class="cls-5" x="61.88" y="174.19" width="41.34" height="2.32"/><rect class="cls-5" x="64.19" y="164.65" width="36.74" height="1.16"/><rect class="cls-5" x="70.44" y="158.6" width="24.24" height="1.84"/><rect class="cls-5" x="77.79" y="135.75" width="9.54" height="1.85"/><rect class="cls-6" x="75.46" y="133.48" width="14.19" height="2.26"/><path class="cls-7" d="m93.6,87.95c-1.35-.9-2.94-1.36-4.56-1.32-3.76,0-7.19,2.55-7.19,5.16s1.7,3.22,2.51,3.22c3.54,0,4.82-4.76,6.07-6,.83-.83,2.01-1.22,3.17-1.05Z"/><path class="cls-7" d="m73.73,95.01c.34-.8.93-1.48,1.67-1.93,1.69-1.07,3.99-.95,4.75.23.54.6.5,1.52-.1,2.06-.03.03-.07.06-.1.08-1.6,1.07-3.57-.74-4.5-.93-.62-.12-1.26.06-1.71.49Z"/><path class="cls-1" d="m82.7,94.24s-.65.33-.65,2.14"/><path class="cls-1" d="m82.04,98.23v-1.86c0-1.4-1.53-1.79-1.53-1.79"/><circle class="cls-3" cx="82.04" cy="110.67" r="12.44"/><path class="cls-7" d="m73.91,117.26c0,2.14-.88,1.88-1.07,1.82h0c-2.1-2.29-3.27-5.29-3.27-8.4,0-.68.05-1.36.17-2.03,0,0,2.54-.61,2.52.75-.2,1.63.42,3.26,1.65,4.34,1.2,1.17.02,1.94,0,3.52Z"/><path class="cls-7" d="m94.3,108.49c-1.73-1.7-1.7-.29-2.57-.29s-1.13-.79-1.6-.79c-1.93,0,.06,1.59-.7,2.34-.47.49-1.3-.33-1.61-.33s-1.48.43-.18,1.75,2.4.85,1.07,2.2c-1.04.94-1.59,2.29-1.51,3.69,0,1.19-2.14,2.83-2.83,2.83s-1.41-.83-1.41-2.14c0-1.66-.61-1.46-.61-2.97,0-2.14-1.45-1.36-2.36-1.36-1.49.02-2.73-1.13-2.83-2.62-.08-1.86,1.36-3.43,3.21-3.51.04,0,.08,0,.12,0,1.96,0,2.34.83,3.42.83s2.33-.19,2.33-1.23c0-1.32-1.89-1.55-3.39-1.3s-1.92-.34-1.92-.66,1.46-.69,1.46-2.34,2.89,0,2.89-.93-.32-2.14.41-2.85c4.46,1.36,7.79,5.11,8.61,9.71Z"/><path class="cls-7" d="m75.67,103.34c-1.07.99-1.64.38-2.55,1.3s-1.65,2.29-2.56,1.29c.98-2.4,2.7-4.42,4.9-5.79h0c.14.16,1.26,2.26.21,3.2Z"/><path class="cls-7" d="m88.05,121.57c-1.84,1.01-3.9,1.54-5.99,1.53-1.48,0-2.96-.26-4.35-.77h0c.3-.55.92-.83,1.53-.7,1.47.36,3.02.22,4.42-.38,1.2-.47,2.08.78,3.22.19s1.18.12,1.18.12Z"/></g></g></svg>