<?xml version="1.0" encoding="UTF-8"?><svg id="Pop_up" xmlns="http://www.w3.org/2000/svg" viewBox="0 0 119.16 110.84"><defs><style>.cls-1{fill:#d89d29;}.cls-2{fill:#1069a0;}.cls-3{fill:#4ba5d7;}.cls-4{fill:#d6eaf6;stroke:#d6eaf6;stroke-miterlimit:10;stroke-width:.88px;}</style></defs><circle class="cls-3" cx="55.42" cy="55.42" r="55.42"/><path class="cls-2" d="m55.42,0c-1.02,0-2.03.03-3.04.09l-5.08,6.62.15,4.45h4.76l.47,2.16-5.23,3.67-7.16,5.62,2.68,2.81-.71,2.63-4.77.22-.83,4.99,3.23,1.31,3.94-1.09,3.38-5.86,4.33-1.31,4.97,5.64,1.35-1.09-3.76-4.98,1.37-.44,6.08,8.24.95-1.09.12-2.19,1.37-.44,1.44,1.09,1.37-.65-.7-2.63.88-2.82,9.47,2.38-.88,2.6-7.34.88-3.28,2.82,2.24,1.31,4.95-.88-1,5.01-2.34,1.31-8.27-2.39-.91,2.39-7.51-3.7-.32-3.26-14.61,3.71-6.07,9.81.3,9.34,8.05,7.29,8.55-1.75,4.87,1.75.21,5.69,2.84,6.61-.92,7.73,6.56,14.4h6.66l6.05-9.98-.15-3.98,3.66-3.98-1.75-8.61,7.31-7.91,1.9-7.29-6.73,1.82-7.73-13.56,1.1-2.4,7.51,13.1,11.77-5.47-3.16-3.94h-3.39l-3.01-5.25,1.38-.22,1.89,2.4,11.67,2.19,4.41,4.81,4.27,10.72,3.24-8.1,2.16-1.7C108.17,22.01,84.19,0,55.42,0Zm26.71,34.09l.24-3.91-2.33-3.47,4.64-3.26,2.03,10.63h-4.59Z"/><path class="cls-2" d="m20.77,71.34l-12.39-3.55L.07,57.91c.49,11.39,4.51,22.35,11.49,31.37l5.78-2.63-.24-8.2,3.79-3.2-.12-3.9Z"/><path class="cls-4" d="m112.8,78.92v-42.56c0-4.03-3.27-7.29-7.29-7.29h0c-4.03,0-7.29,3.27-7.29,7.29h0v42.56c-6.09,4.03-7.76,12.23-3.74,18.32,4.03,6.09,12.23,7.76,18.32,3.74,6.09-4.03,7.76-12.23,3.74-18.32-.98-1.48-2.25-2.75-3.74-3.74h0Z"/><path class="cls-1" d="m105.5,99.1c-5.05,0-9.15-4.1-9.15-9.15,0-3.07,1.54-5.93,4.1-7.63l1.82-1.21v-30.67h6.44v30.67l1.82,1.21c4.21,2.79,5.37,8.46,2.58,12.68-1.69,2.56-4.56,4.1-7.63,4.1h0Z"/></svg>