<?xml version="1.0" encoding="UTF-8"?><svg id="Isolation_Mode" xmlns="http://www.w3.org/2000/svg" viewBox="0 0 129.89 120"><defs><style>.cls-1,.cls-2,.cls-3,.cls-4{fill:none;}.cls-2{stroke:#202c5b;stroke-width:.82px;}.cls-2,.cls-3,.cls-4{stroke-miterlimit:10;}.cls-5{fill:#02124e;}.cls-6{fill:#000440;}.cls-7{fill:#fff;}.cls-8{fill:#96cae6;}.cls-9{fill:#d89d29;}.cls-10{fill:#1069a0;}.cls-11{fill:#0b4c83;}.cls-12{fill:#2981b6;}.cls-13{fill:#4ba3d5;}.cls-3{stroke:#212b5c;stroke-width:.41px;}.cls-4{stroke:#0b4c83;stroke-width:1.22px;}</style></defs><ellipse class="cls-7" cx="59.87" cy="60" rx="59.87" ry="60"/><g><g><rect class="cls-11" x="9.49" y="72.46" width="14.59" height="3.02"/><polyline class="cls-11" points="78.28 72.84 78.28 74.31 87.95 74.31 87.81 72.84"/><path class="cls-13" d="M87.37,70.83v-13.12s0-5.71,0-5.71c3.89,.51,8.5,1.82,8.5,1.82,4.84,1.35,8.21,5.42,8.21,5.42l2.28,6.25s4.62,1.64,8.39,4.22c.46,.31,.74,.83,.74,1.38v2.74c.08,.07,.16,.14,.25,.2,0,0,.48,1.22,0,1.64-.09,.08-.18,.16-.25,.23v.95s.08,.07,.08,.07c.68,.55-.15,.88-1.02,1.01s-2.74,.42-2.74,.42l-.21-.82-5.33,.25-16.31-.37-2.5-1.39-1.52-2.99,1.45-2.21Z"/><polyline class="cls-11" points="104.84 74.85 104.84 77.94 62.53 77.94 62.53 73.97 102.35 73.97"/><line class="cls-2" x1="104.84" y1="73.97" x2="104.84" y2="74.85"/><path class="cls-11" d="M101.11,77.96c-.05-.28-.08-.56-.08-.86,0-2.84,2.3-5.14,5.14-5.14s5.14,2.3,5.14,5.14c0,.29,.02,.17-.02,.45l-5.19,.41h-4.98Z"/><circle class="cls-6" cx="106.17" cy="76.87" r="4.1"/><circle class="cls-13" cx="106.09" cy="76.87" r="1.85"/><path class="cls-12" d="M105.48,58.42l.4,1.01h-8.52v-1.72h7.09c.46,0,.87,.28,1.03,.71Z"/><path class="cls-12" d="M97.36,57.71h-9.99s0,13.54,0,13.54h9.28c.4,0,.72-.32,.72-.72v-12.82s0,0,0,0Z"/><path class="cls-8" d="M102.87,61.04l1.39,3.93s0,.05-.03,.06c0,0-.01,0-.02,0l-5.09-.79c-.4-.03-.71-.35-.75-.74v-2.38c.03-.31,.31-.53,.61-.51h3.16c.31-.02,.59,.15,.72,.43Z"/><path class="cls-8" d="M104.56,60.6h-.73c-.12,0-.22,.1-.22,.22,0,.03,0,.05,.01,.08l1.5,4.06c.05,.14,.17,.24,.32,.26l.9,.24c-.21-1.11-1.78-4.86-1.78-4.86Z"/><rect class="cls-6" x="6.83" y="71.28" width="78.45" height="1.56"/><path class="cls-5" d="M100.93,62.29v4.09h0c.65,0,1.17-.52,1.17-1.17v-2.39c0-.44-.36-.8-.8-.8h-.11c-.14,.01-.25,.13-.25,.27Z"/><path class="cls-11" d="M114.17,73.68c.39-.41-.86-1.07-.86-1.07,0,0-2.99-1.26-2.08,.25,.91,1.52,2.93,.82,2.93,.82"/><circle class="cls-6" cx="20.91" cy="76.87" r="4.1"/><circle class="cls-13" cx="20.91" cy="76.87" r="1.85"/><circle class="cls-6" cx="11.5" cy="76.87" r="4.1"/><circle class="cls-13" cx="11.5" cy="76.87" r="1.85"/><circle class="cls-6" cx="74.6" cy="76.87" r="4.1"/><circle class="cls-13" cx="74.6" cy="76.87" r="1.85"/><circle class="cls-6" cx="65.19" cy="76.87" r="4.1"/><circle class="cls-13" cx="65.19" cy="76.87" r="1.85"/></g><rect class="cls-13" x="6.93" y="50.65" width="78.26" height="20.62"/><g><line class="cls-3" x1="74.94" y1="54.03" x2="74.94" y2="67.9"/><line class="cls-3" x1="63.39" y1="67.9" x2="63.39" y2="54.03"/><line class="cls-3" x1="51.83" y1="67.9" x2="51.83" y2="54.03"/><line class="cls-3" x1="40.28" y1="67.9" x2="40.28" y2="54.03"/><line class="cls-3" x1="28.73" y1="67.9" x2="28.73" y2="54.03"/><line class="cls-3" x1="17.17" y1="54.03" x2="17.17" y2="67.9"/></g></g><path class="cls-1" d="M129.89,60.13c0,33.06-36.95,59.87-70.02,59.87S0,93.2,0,60.13,26.8,.26,59.87,.26s70.02,26.8,70.02,59.87Z"/><path class="cls-10" d="M115.95,81.12H3.79c8.5,22.71,30.4,38.88,56.08,38.88s47.58-16.17,56.08-38.88Z"/><path class="cls-9" d="M65.51,26.49c1.68,.92,2.3,3.03,1.38,4.71-.92,1.68-3.03,2.3-4.71,1.38-.42-.23-.77-.53-1.05-.88-2.83,2.41-6.7,3.33-10.35,2.39,.09,.7-.03,1.43-.39,2.1-.92,1.68-3.03,2.3-4.71,1.38-.53-.29-.96-.7-1.27-1.18-3.96,4.68-10.79,6.1-16.38,3.05-2.63-1.44-4.58-3.64-5.72-6.19-2.11,1.09-4.71,1.15-6.96-.08-2.56-1.4-3.96-4.09-3.85-6.83-.4-.11-.8-.26-1.18-.47-2.64-1.44-3.61-4.75-2.17-7.38,.82-1.49,2.23-2.45,3.78-2.74-.46-2.5-.09-5.17,1.22-7.57C16.2,2.59,23.19,.54,28.77,3.58c1.47,.8,2.69,1.88,3.65,3.13,2.65-2.3,6.55-2.84,9.81-1.06,3.04,1.66,4.69,4.88,4.49,8.12,3.5-2.64,8.36-3.16,12.45-.92,4.84,2.64,7.02,8.25,5.53,13.33,.27,.07,.54,.17,.8,.31Zm20.61,11.03c-.52-.46-1.14-.74-1.79-.83-.08-1.74-.83-3.45-2.24-4.69-1.31-1.16-2.94-1.7-4.56-1.67-.2-.44-.48-.84-.86-1.18-1.43-1.27-3.63-1.14-4.9,.3-1.16,1.31-1.15,3.24-.05,4.54-1.34,2.64-.8,5.95,1.52,8.01,2.31,2.05,5.65,2.2,8.11,.57,.05,.05,.11,.11,.17,.16,1.43,1.27,3.63,1.14,4.9-.3,1.27-1.43,1.14-3.63-.3-4.9Z"/><circle class="cls-6" cx="35.45" cy="22.82" r="11.64"/><path class="cls-7" d="M37.32,29.25h-2.76v-7.54c0-.3,0-.71,.02-1.23,.01-.52,.03-.97,.05-1.36-.06,.07-.19,.2-.39,.39-.2,.19-.39,.36-.56,.5l-1.5,1.2-1.33-1.66,4.2-3.34h2.26v13.04Z"/><path class="cls-4" d="M91.56,71.25v-20.59s0-2.37-2.22-2.54"/><circle class="cls-9" cx="86.01" cy="43.83" r="2.73"/><circle class="cls-9" cx="87.77" cy="46.41" r="1.13"/></svg>