<!-- Generator: Adobe Illustrator 24.1.2, SVG Export Plug-In  -->
<svg version="1.1" xmlns="http://www.w3.org/2000/svg" xmlns:xlink="http://www.w3.org/1999/xlink" x="0px" y="0px" width="55.2px"
	 height="79px" viewBox="0 0 55.2 79" style="overflow:visible;enable-background:new 0 0 55.2 79;" xml:space="preserve">
<style type="text/css">
	.st0{fill:#4BA5D7;}
	.st1{fill:#1069A0;}
	.st2{fill:#000440;stroke:#000440;stroke-linecap:round;stroke-miterlimit:10;}
	.st3{fill:#000440;}
</style>
<defs>
</defs>
<path class="st0" d="M55.2,57.1c-6.2-2.5-13.4-4-21-4C20.3,53.1,8,57.8,0,65.2c5.9,7.5,15,12.4,25.3,12.4
	C38.9,77.6,50.6,69.1,55.2,57.1z"/>
<g>
	<rect x="22.9" y="60.4" class="st1" width="15.4" height="5.9"/>
	<line class="st2" x1="30.3" y1="0.5" x2="30.3" y2="13.1"/>
	<rect x="27.6" y="13.5" class="st0" width="5.2" height="1.4"/>
	<rect x="28.9" y="12.7" class="st3" width="2.5" height="0.8"/>
	<g>
		<path class="st1" d="M21.7,72.2c0,0,2.7-5.4,8.6-5.4c5.8,0,8.6,5.4,8.6,5.4l-2.7-6.3H24.4L21.7,72.2z"/>
	</g>
	<g>
		<g>
			<path class="st1" d="M42.1,79c-10.7-20.8-12-33.3-11.9-46.5V14.9h2.3c0,0.2,0-0.1,0,0.1c0.3,35.2,6.7,48.4,17.3,64H42.1z"/>
		</g>
		<g>
			<path class="st1" d="M18.4,79c10.7-20.8,12-33.3,11.9-46.5V14.9h-2.3c0,0.2,0-0.1,0,0.1c-0.3,35.2-6.7,48.4-17.3,64H18.4z"/>
		</g>
	</g>
	<line class="st2" x1="42" y1="65.9" x2="18.5" y2="65.9"/>
	<g>
		<rect x="23.9" y="44.4" class="st2" width="12.7" height="2.5"/>
	</g>
	<g>
		<rect x="20" y="57.5" class="st2" width="20.6" height="2.5"/>
	</g>
	<rect x="27.7" y="14.9" class="st3" width="5.1" height="2.5"/>
	<line class="st2" x1="40.6" y1="62.6" x2="20" y2="62.6"/>
	<line class="st2" x1="36.6" y1="49.2" x2="23.9" y2="49.2"/>
</g>
</svg>
