<?xml version="1.0" encoding="UTF-8"?><svg id="Isolation_Mode" xmlns="http://www.w3.org/2000/svg" viewBox="0 0 122.04 95.57"><defs><style>.cls-1{stroke:#1069a0;}.cls-1,.cls-2{fill:none;stroke-miterlimit:10;stroke-width:1.62px;}.cls-2{stroke:#0e5b90;}.cls-3{fill:#d89d29;}.cls-4{fill:#cae3f2;}.cls-5{fill:#1069a0;}.cls-6{fill:#4ba5d7;}</style></defs><g id="Layer_2"><g id="Content"><rect class="cls-5" y="43.26" width="26.43" height="51.7"/><rect class="cls-6" x="4.87" y="54.08" width="16.63" height="7.07"/><rect class="cls-6" x="14.43" y="54.08" width="7.07" height="7.07"/><rect class="cls-6" x="4.87" y="64.06" width="16.63" height="7.07"/><rect class="cls-6" x="14.43" y="64.06" width="7.07" height="7.07"/><rect class="cls-6" x="4.87" y="73.94" width="16.63" height="7.07"/><rect class="cls-6" x="14.43" y="73.94" width="7.07" height="7.07"/><circle class="cls-5" cx="52.8" cy="23.71" r="12.92"/><line class="cls-1" x1="52.8" x2="52.8" y2="23.71"/><rect class="cls-6" x="26.43" y="19.99" width="52.72" height="74.97"/><rect class="cls-5" x="45.06" y="78.13" width="15.48" height="16.83"/><line class="cls-1" x1="26.43" y1="25.57" x2="79.17" y2="25.57"/><line class="cls-1" x1="62.34" y1="90.22" x2="79.17" y2="90.22"/><line class="cls-1" x1="26.37" y1="90.22" x2="43.18" y2="90.22"/><rect class="cls-5" x="37.23" y="43.96" width="7.07" height="7.07"/><rect class="cls-5" x="49.25" y="43.96" width="7.07" height="7.07"/><rect class="cls-5" x="37.23" y="53.94" width="7.07" height="7.07"/><rect class="cls-5" x="49.25" y="53.94" width="7.07" height="7.07"/><rect class="cls-5" x="37.23" y="63.92" width="7.07" height="7.07"/><rect class="cls-5" x="49.25" y="63.92" width="7.07" height="7.07"/><rect class="cls-5" x="61.28" y="43.96" width="7.07" height="7.07"/><rect class="cls-5" x="61.28" y="53.94" width="7.07" height="7.07"/><rect class="cls-5" x="61.28" y="63.92" width="7.07" height="7.07"/></g></g><g><rect class="cls-3" x="70.75" y="43.96" width="51.28" height="5.31"/><rect class="cls-4" x="74.05" y="49.26" width="44.68" height="29.38"/><line class="cls-2" x1="97.08" y1="78.64" x2="97.08" y2="94.96"/><polyline class="cls-2" points="85.49 94.96 97.08 84.74 109.07 94.96"/></g><line class="cls-2" x1="84.8" y1="52.25" x2="90.87" y2="58.32"/><line class="cls-2" x1="90.87" y1="52.25" x2="84.8" y2="58.32"/><circle class="cls-2" cx="87.98" cy="72.08" r="2.9"/><line class="cls-2" x1="101.88" y1="69.05" x2="107.96" y2="75.12"/><line class="cls-2" x1="107.96" y1="69.05" x2="101.88" y2="75.12"/><path class="cls-2" d="m87.98,69.18v-1.42c0-2.26,1.83-4.09,4.09-4.09h8.62c2.26,0,4.09-1.83,4.09-4.09v-6.97"/><polyline class="cls-2" points="108.48 55.94 104.74 52.25 101 55.94"/></svg>