<?xml version="1.0" encoding="UTF-8"?><svg id="a" xmlns="http://www.w3.org/2000/svg" viewBox="0 0 64.32 64.32"><defs><style>.b{fill:#000440;}.c{fill:#d6eaf6;}.d{fill:#1069a0;}.e{fill:#4ba5d7;}</style></defs><circle class="c" cx="32.16" cy="32.16" r="32.16"/><path class="b" d="M5.67,50.4c5.8,8.41,15.5,13.92,26.49,13.92s20.69-5.51,26.49-13.92H5.67Z"/><g><rect class="b" x="6.38" y="17.21" width="52.2" height="2.18" transform="translate(64.97 36.6) rotate(180)"/><rect class="d" x="3.93" y="48.56" width="56.47" height="3.67" transform="translate(64.32 100.79) rotate(180)"/><g><rect class="e" x="10.94" y="22.04" width="7.1" height="20.9"/><rect class="e" x="9.78" y="19.39" width="9.43" height="2.65"/><rect class="d" x="9.78" y="43.92" width="9.43" height="2.47"/><path class="b" d="M10.4,42.59h8.18c.35,0,.63,.2,.63,.45v.88H9.78v-.88c0-.25,.28-.45,.63-.45Z"/></g><g><rect class="e" x="28.66" y="22.04" width="7.1" height="20.9"/><rect class="e" x="27.49" y="19.39" width="9.43" height="2.65"/><rect class="d" x="27.49" y="43.92" width="9.43" height="2.47"/><path class="b" d="M28.12,42.59h8.18c.35,0,.63,.2,.63,.45v.88h-9.43v-.88c0-.25,.28-.45,.63-.45Z"/></g><g><rect class="e" x="46.37" y="22.04" width="7.1" height="20.9"/><rect class="e" x="45.2" y="19.39" width="9.43" height="2.65"/><rect class="d" x="45.2" y="43.92" width="9.43" height="2.47"/><path class="b" d="M45.83,42.59h8.18c.35,0,.63,.2,.63,.45v.88h-9.43v-.88c0-.25,.28-.45,.63-.45Z"/></g><path class="b" d="M6.38,46.39H58.59c0,1.2-.98,2.18-2.18,2.18H8.56c-1.2,0-2.18-.98-2.18-2.18h0Z" transform="translate(64.97 94.95) rotate(180)"/><polygon class="e" points="7.02 17.21 32.16 5.05 57.3 17.21 7.02 17.21"/></g></svg>