<!-- Generator: Adobe Illustrator 24.1.2, SVG Export Plug-In  -->
<svg version="1.1" xmlns="http://www.w3.org/2000/svg" xmlns:xlink="http://www.w3.org/1999/xlink" x="0px" y="0px" width="64.3px"
	 height="49.2px" viewBox="0 0 64.3 49.2" style="overflow:visible;enable-background:new 0 0 64.3 49.2;" xml:space="preserve">
<style type="text/css">
	.st0{fill:#A7A6A6;}
	.st1{fill:#8C8C8C;}
	.st2{fill:#4BA5D7;}
	.st3{fill:#000440;}
	.st4{fill:#1069A0;}
	.st5{fill:none;stroke:#000440;stroke-linecap:round;stroke-linejoin:round;stroke-miterlimit:10;}
</style>
<defs>
</defs>
<g>
	<path class="st0" d="M32.8,6.5c0,0,3.8,2.5,5.3,3.5c1.4,1,3.8,3.2,4.5,3.7s2,2.1,2.1,2.9c0.1,0.8,0,1.6-0.9,2
		c-0.9,0.4-2.1-0.2-2.3-0.8l-0.7,0.2c0,0,1.1,2-0.3,2.9c-1.3,1-2.4,0.4-3-0.2c0,0,0.4,1.6-0.9,2.1c-0.8,0.3-1.7,0.1-2.3-0.6
		c0,0-0.1,1.2-1,1.5c-1,0.3-2.1-0.2-3.5-1.6"/>
	<path class="st0" d="M34.4,10.6l-3.4,12.5c0,0-0.8-0.6-2.6-1.5s-3.6-1.8-7-3.8c-1.9-1.2-5.2-3.3-5.2-3.3l2.9-9.8
		c0,0,2.4,0.8,3.4,0.7s5.1-1.6,6.3-1.8s6.9,2.1,6.9,2.1L34.4,10.6"/>
	<path class="st1" d="M41.6,5.4c0,0-4.8-1.8-5.6-2.1s-1.3-0.9-2.9-0.7c-1.6,0.3-4.8,0.2-5.4,1.3c-0.6,1.1-1.7,2.5-2,2.9
		c-0.3,0.4-1.1,1.2,0,1.7s3.4-0.3,3.8-0.9c0,0,0.7-0.7,0.7-0.9l1.8-0.1c0,0,0.9-0.1,2.2,1c1.3,1,5.1,3.9,5.9,4.3s3,2.1,3.3,2.6
		l0.8,1.4l0.9-0.9C45.3,15.2,43.2,6,41.6,5.4z"/>
	<path class="st1" d="M28.2,20.4c0,0-1.6-0.3-1.7,1.2c-0.1,1.5,1.5,1.9,2,1.8c0.5-0.1,1.2-0.1,1.1-1.8
		C29.5,20.5,28.2,20.4,28.2,20.4z"/>
	<path class="st1" d="M25.4,18.1c0,0-1.5-0.5-1.9,1.1s0.6,2.3,1,2.3c0.4,0,1.7,0.3,2-1.1C26.8,19,25.9,18.2,25.4,18.1z"/>
	<path class="st1" d="M21.1,16.7c0,0-1.3-0.4-1.3,1.2c0,1.5,1.6,2.1,2.1,1.9c0.5-0.2,1.2-0.2,1.2-1.2C23,17.4,21.6,16.7,21.1,16.7z"
		/>
	<rect x="3" y="3.2" transform="matrix(0.2351 -0.972 0.972 0.2351 -2.0222 19.2231)" class="st2" width="16.5" height="15.5"/>
	<path class="st3" d="M0,13.5c0,2.1,0.2,4.1,0.6,6.1l9,2.2l4.6-19L3,0C1.1,4.1,0,8.7,0,13.5z"/>
	<circle class="st4" cx="14.1" cy="17.8" r="1"/>
	<rect x="43.3" y="3.1" transform="matrix(0.972 -0.2351 0.2351 0.972 -1.2413 12.3265)" class="st2" width="15.5" height="16.5"/>
	<circle class="st3" cx="48.5" cy="18.2" r="1"/>
	<path class="st4" d="M64.3,13.5c0-4.8-1.1-9.3-2.9-13.4L48.1,3.2l4.6,19l11-2.6C64.1,17.6,64.3,15.6,64.3,13.5z"/>
</g>
<g>
	<g>
		<g>
			<path class="st2" d="M23.1,36.1c-3.2-3.2-2.8-9-2.8-9s5.8-0.5,9,2.8s2.8,9,2.8,9S26.4,39.4,23.1,36.1z"/>
			<path class="st2" d="M41.2,36.1c3.2-3.2,2.8-9,2.8-9s-5.8-0.5-9,2.8s-2.8,9-2.8,9S38,39.4,41.2,36.1z"/>
		</g>
		<polyline class="st5" points="44,27.1 32.1,38.9 20.4,27.1 		"/>
	</g>
	<line class="st5" x1="32.2" y1="48.7" x2="32.2" y2="38.9"/>
</g>
</svg>
