<?xml version="1.0" encoding="UTF-8"?><svg id="Content" xmlns="http://www.w3.org/2000/svg" viewBox="0 0 360.46 362.5"><defs><style>.cls-1{stroke-width:.76px;}.cls-1,.cls-2,.cls-3,.cls-4,.cls-5,.cls-6,.cls-7,.cls-8,.cls-9,.cls-10,.cls-11,.cls-12,.cls-13,.cls-14,.cls-15,.cls-16,.cls-17,.cls-18,.cls-19,.cls-20,.cls-21,.cls-22,.cls-23,.cls-24,.cls-25,.cls-26,.cls-27,.cls-28{stroke-miterlimit:10;}.cls-1,.cls-2,.cls-5,.cls-6,.cls-7,.cls-8,.cls-9,.cls-10,.cls-11,.cls-12,.cls-13,.cls-14,.cls-15,.cls-16,.cls-17,.cls-18,.cls-21,.cls-22,.cls-23,.cls-24,.cls-25,.cls-26,.cls-27{fill:none;}.cls-1,.cls-2,.cls-12,.cls-13{stroke:#072f69;}.cls-2{stroke-width:.38px;}.cls-3,.cls-4,.cls-29,.cls-19,.cls-28{fill:#d89d29;}.cls-3,.cls-4,.cls-19,.cls-28{stroke:#d89d29;}.cls-3,.cls-14,.cls-15,.cls-25{stroke-width:.6px;}.cls-4{stroke-width:.63px;}.cls-30,.cls-31{fill:#02124e;}.cls-32{fill:#fff;}.cls-33{fill:#e4e4e4;}.cls-34{fill:#e5be70;}.cls-35,.cls-36{fill:#96cae6;}.cls-37{fill:#979797;}.cls-38{fill:#666;}.cls-39{fill:#65b0db;}.cls-40{fill:#8c8c8c;}.cls-41{fill:#b1b1b1;}.cls-42{fill:#cacaca;}.cls-43{fill:#d6d6d6;}.cls-44{fill:#e1b359;}.cls-45{fill:#1069a0;}.cls-46,.cls-47{fill:#10699e;}.cls-48{fill:#212b5c;}.cls-49{fill:#093e77;}.cls-50{fill:#0b4c83;}.cls-51{fill:#072f69;}.cls-52{fill:#0e5b90;}.cls-53{fill:#1872a6;}.cls-54{fill:#4494c2;}.cls-55,.cls-56{fill:gray;}.cls-57,.cls-58{fill:#2981b6;}.cls-59{fill:#2b88bf;}.cls-60{fill:#3898d1;}.cls-61,.cls-62{fill:#4ba3d5;}.cls-63{fill:#4d4d4d;}.cls-5{stroke-width:.46px;}.cls-5,.cls-6{stroke:#b1b1b1;}.cls-6{stroke-width:.93px;}.cls-7{stroke-width:20.42px;}.cls-7,.cls-11{stroke:#cacaca;}.cls-8,.cls-9{stroke-width:.18px;}.cls-8,.cls-23{stroke:#4ba3d5;}.cls-9,.cls-24{stroke:#3898d1;}.cls-10{stroke-width:.43px;}.cls-10,.cls-14,.cls-15,.cls-18,.cls-21,.cls-27{stroke:#212b5c;}.cls-10,.cls-14,.cls-16,.cls-18,.cls-27{stroke-linecap:round;}.cls-11{stroke-width:.53px;}.cls-12{stroke-width:.2px;}.cls-13{stroke-width:.4px;}.cls-16{stroke:#10699e;stroke-width:.61px;}.cls-17{stroke-width:.62px;}.cls-17,.cls-22,.cls-25,.cls-26{opacity:.3;stroke:#ebedf0;}.cls-18{stroke-width:.31px;}.cls-58,.cls-62,.cls-56,.cls-47,.cls-36,.cls-64,.cls-65,.cls-31{fill-rule:evenodd;}.cls-64{fill:#333;}.cls-65{fill:#f0f0f0;}.cls-19,.cls-20{stroke-width:.76px;}.cls-20{fill:#b88523;stroke:#b88523;}.cls-21{stroke-width:.66px;}.cls-22{stroke-width:.59px;}.cls-23,.cls-24{stroke-width:.34px;}.cls-26{stroke-width:1.04px;}.cls-27{stroke-width:.37px;}.cls-28{stroke-width:.65px;}</style></defs><rect class="cls-61" width="340.22" height="360.02"/><g><g><path class="cls-47" d="m83.47,207.74s-1.89,1.3-3.47,1.25c-1.84-.06.74-.55.58-2.16l2.89.91Z"/><path class="cls-47" d="m88.77,209.31s.26-.62-1.31-1.68c0,0,1.15-3.82-4.06-5.28-1.01-.28-1.97-.38-3.01-.5-.03,0-1.41-.77-1.87-.91-1.62-.5-3.68-.59-4.33.43-.32.5,1.87.19,1.32,1.92-.44.42-1.74,1.29-2.24,1.82-2.37,2.54-3,5.2-3.26,7.77-.06.62.54.1.59,0,1.84-3.45,5.95-6.58,13.63-4.56,2.17.57,4.2,1.61,4.53.98Z"/><path class="cls-65" d="m71.14,212c.22-.32.45-.64.71-.94,2.22-2.59,6.11-4.38,12.39-2.73,2.13.56,4.12,1.57,4.51,1.01-.73-.37-1.45-.73-2.18-1.05-.23-.1-.81-.45-1.06-.77-.43-.56-.65-.66-1.28-.9-2.37-.89-5.67-.87-8.54.4-1.67.74-3.14,1.99-3.96,3.43-.28.5-.48,1.01-.59,1.54Z"/><path class="cls-47" d="m72.97,216.91c-.65-.13-2.52-.73-2.69-3.67,0-.09-.81,3.06-4.37,3.27,0,0,.33-3.22,3.96-4.03.34-.08.76-1.86.95-1.98,1.43-.94-.33,1.05.24,2.06.13.23,1.86.42,1.91,4.35Z"/><path class="cls-47" d="m80.79,206.66c-.66.95-2.05,1.84-3.44,2.05-1.06.15-.85-.14-.27-.64.98-.84.76-2.68.85-2.74.56-.43,1.9-.16,2.68-.1,1.32.11.89.41.18,1.43Z"/><ellipse class="cls-57" cx="84.56" cy="205.72" rx=".35" ry=".22" transform="translate(-137.85 203.48) rotate(-67.08)"/></g><g><path class="cls-47" d="m51.06,219.93c-.2,1.23-1.69,2.28-3.37,2.56-.73.12-.91-.18-.25-.39.55-.18,1.08-1.49.85-1.85l2.77-.33Z"/><path class="cls-47" d="m56.51,220.4s.05-.26-.31-.64c-.24-.25-.68-.55-1.43-.87,0,0,.41-4.29-5.42-4.75-.91-.07-1.76-.02-2.65.06-.21.02-.61.09-.83.1-.15.01-1.31-.96-2.58-1.21-1.56-.3-3.23.14-2.88.5.53.55,1.55.81,1.54,2.38,0,.3-.1.49-.26.63-3.58,3.25-10.27,1.44-10.2,1.52,3.06,3.64,6.08,4.48,19.49,2.27,2.39-.39,5.32.73,5.55-.01Z"/><path class="cls-65" d="m31.97,218.7c2.92,3.16,6.31,3.8,18.99,1.71,2.36-.39,5.26.7,5.54.01-2.34-.27-2.77-.62-4.69-1.33-1.91-.7-4.24.08-6.73.68-7.57,1.84-11.59.44-12.59-.81-1-1.24-.34-.29-.51-.26Z"/><path class="cls-47" d="m26.66,218.99c.42-.58,1.82-2.17,4.81-1.05.09.03-2.67-2.15-1.32-5.76,0,0,3.04,1.74,2.25,5.68-.07.37,2.55,1.07,2.59,1.31.3,1.83-1.94-.29-3.19-.17-.28.03-1.23,1.66-5.14-.02Z"/><path class="cls-47" d="m46.94,221.43c-.77.85-1.9,1.49-3.23,1.77-1.27.27-1.35.12-.62-.47.19-.16.99-.86,1.07-1.32.21-1.24-.88-1.63-.77-1.72.64-.56,2.81-1.75,3.76-1.73.43,0,.89.14,1.05.44.42.79-.68,2.4-1.25,3.03Z"/><ellipse class="cls-57" cx="51.14" cy="217.97" rx=".19" ry=".29" transform="translate(-80.86 37.13) rotate(-22.92)"/></g><path class="cls-62" d="m31.48,220.93c.03.07,7.64.14,11.91-1.59,4.27-1.73,9.7-1.32,14.23.98v3.86h-26.14v-3.25Z"/></g><g><path class="cls-41" d="m130.11,175.33h136.51v-37.46h-124.77c-5.83,0-11.08,3.54-13.26,8.95l-7.28,16.42c0,5.88,2.57,12.09,8.81,12.09Z"/><rect class="cls-41" x="121.3" y="160.66" width="7.39" height="2.74"/></g><path class="cls-41" d="m336.9,0H80.9c13.62,50.98,62.25,91.39,95.5,91.39h97.96"/><path class="cls-32" d="m0,362.5h339.9V.25H83.91c13.62,46.93,62.25,84.14,95.5,84.14h97.96s-56.95,178.53-56.95,178.53H0v99.58Z"/><g><path class="cls-61" d="m307.2,195.39c.05-.35.08-.71.08-1.07,0-2.03-.8-3.97-2.22-5.42.97-3.04-.7-6.29-3.74-7.26-3.04-.97-6.29.7-7.26,3.74-.18.57-.27,1.16-.27,1.75,0,.6.09,1.19.28,1.76-1.71,1.7-2.5,4.11-2.14,6.49-3.68,4.22-3.24,10.62.98,14.3,4.22,3.68,10.62,3.24,14.3-.98,3.33-3.82,3.33-9.5,0-13.32h0Z"/><line class="cls-10" x1="299.56" y1="202.18" x2="299.56" y2="219.48"/><line class="cls-10" x1="299.56" y1="210.83" x2="303.65" y2="206.74"/><line class="cls-10" x1="299.56" y1="208.09" x2="296.18" y2="204.7"/></g><g><path class="cls-61" d="m316.71,140.41c.04-.3.07-.61.07-.91,0-1.72-.68-3.38-1.89-4.6.82-2.58-.6-5.34-3.18-6.16-2.58-.82-5.34.6-6.16,3.18-.15.48-.23.98-.23,1.49,0,.51.08,1.01.24,1.5-1.45,1.44-2.12,3.49-1.82,5.51-3.12,3.58-2.75,9.02.83,12.14s9.02,2.75,12.14-.83c2.83-3.24,2.83-8.07,0-11.31h0Z"/><line class="cls-27" x1="310.22" y1="146.18" x2="310.22" y2="160.87"/><line class="cls-27" x1="310.22" y1="153.52" x2="313.69" y2="150.05"/><line class="cls-27" x1="310.22" y1="151.19" x2="307.34" y2="148.31"/></g><g id="Background-3"><path id="Bush-3" class="cls-61" d="m343.43,224.97c-.93-.88-2.17-1.37-3.45-1.36h-1.85c-1.01-3.39-4.16-5.69-7.7-5.63-1.17,0-2.33.25-3.39.73-1.03-4.58-5.3-8.01-10.44-8.01s-9.5,3.51-10.44,8.18c-1.17-.6-2.46-.91-3.77-.9-3.66-.06-6.88,2.41-7.76,5.96-.59-.23-1.22-.35-1.85-.35-2.64-.06-4.83,2.02-4.89,4.66h56.96c0-1.24-.51-2.43-1.41-3.29Z"/><path id="Bush-4" class="cls-39" d="m359.66,226.39c-.53-.49-1.23-.77-1.95-.77h-1.04c-.57-1.91-2.34-3.21-4.34-3.19-.66,0-1.31.14-1.91.41-.87-3.25-4.21-5.18-7.46-4.31-2.14.57-3.8,2.26-4.34,4.41-.66-.33-1.39-.5-2.13-.5-2.07-.04-3.89,1.36-4.39,3.37-.33-.13-.69-.2-1.04-.19-1.49-.04-2.73,1.14-2.76,2.63h32.18c0-.71-.29-1.38-.81-1.87Z"/></g><g><path class="cls-61" d="m325.02,88.17c.04-.25.06-.51.06-.76,0-1.45-.57-2.84-1.59-3.86.69-2.17-.5-4.49-2.67-5.18-2.17-.69-4.49.5-5.18,2.67-.13.4-.2.83-.2,1.25,0,.43.07.85.2,1.26-1.22,1.21-1.78,2.93-1.53,4.63-2.62,3.01-2.31,7.58.7,10.2,3.01,2.62,7.58,2.31,10.2-.7,2.37-2.72,2.37-6.78,0-9.5h0Z"/><line class="cls-18" x1="319.57" y1="93.01" x2="319.57" y2="105.35"/><line class="cls-18" x1="319.57" y1="99.18" x2="322.49" y2="96.26"/><line class="cls-18" x1="319.57" y1="97.22" x2="317.15" y2="94.8"/></g><g><g><g id="body"><polygon class="cls-45" points="139.97 56.57 134.21 56.57 135.73 18.45 138.45 18.45 139.97 56.57"/><path class="cls-45" d="m138.43,17.8c0-.69-.6-1.26-1.35-1.26s-1.35.56-1.35,1.26v.64h2.69v-.64Z"/></g><path id="blade_1" class="cls-49" d="m138.06,19.81l-3.65-17.05c-.06-.29-.34-.48-.63-.42h0c-.29.05-.48.33-.44.62l2.72,17.22,1.99-.37Z"/><path id="blade_2" class="cls-49" d="m137.4,21.37l16.54,5.52c.28.1.58-.05.69-.33h0c.1-.28-.04-.59-.31-.69l-16.22-6.41-.69,1.91Z"/><path id="blade_3" class="cls-49" d="m137.26,21.58l-13.7,10.79c-.23.19-.57.15-.76-.08h0c-.19-.23-.16-.56.06-.76l13.1-11.52,1.3,1.56Z"/><g id="centre"><circle class="cls-49" cx="137" cy="20.24" r="1.99" transform="translate(-1.49 20.55) rotate(-8.53)"/><circle class="cls-45" cx="137" cy="20.24" r=".72"/></g></g><g><g id="body-2"><polygon class="cls-45" points="179.51 56.57 173.75 56.57 175.27 18.45 177.99 18.45 179.51 56.57"/><path class="cls-45" d="m177.97,17.8c0-.69-.6-1.26-1.35-1.26s-1.35.56-1.35,1.26v.64h2.69v-.64Z"/></g><g><path id="blade_1-2" class="cls-49" d="m175.96,21.2l11.68,12.95c.2.22.53.25.76.05h0c.22-.19.25-.53.07-.76l-10.96-13.56-1.54,1.32Z"/><path id="blade_2-2" class="cls-49" d="m175.76,19.52l-17.09,3.47c-.29.06-.48.33-.43.63h0c.05.29.33.49.62.44l17.25-2.55-.35-2Z"/><path id="blade_3-2" class="cls-49" d="m175.77,19.28l6.48-16.19c.11-.28.42-.41.69-.31h0c.28.1.42.41.32.69l-5.6,16.52-1.9-.7Z"/><g id="centre-2"><circle class="cls-49" cx="176.64" cy="20.32" r="1.99" transform="translate(-.8 8.98) rotate(-2.9)"/><circle class="cls-45" cx="176.64" cy="20.32" r=".72" transform="translate(-.8 8.98) rotate(-2.9)"/></g></g></g><g><g id="body-3"><polygon class="cls-45" points="215.39 56.57 209.62 56.57 211.14 18.45 213.87 18.45 215.39 56.57"/><path class="cls-45" d="m213.85,17.8c0-.69-.6-1.26-1.35-1.26s-1.35.56-1.35,1.26v.64h2.69v-.64Z"/></g><path id="blade_1-3" class="cls-49" d="m213.41,20.72l10.33-14.05c.18-.24.13-.57-.1-.75h0c-.23-.18-.57-.14-.76.09l-11.07,13.47,1.6,1.24Z"/><path id="blade_2-3" class="cls-49" d="m211.81,21.26l6.85,16.03c.11.27.43.4.7.3h0c.28-.11.41-.42.31-.69l-5.98-16.38-1.89.75Z"/><path id="blade_3-3" class="cls-49" d="m211.57,21.3l-17.16-3.08c-.29-.05-.49-.32-.45-.62h0c.04-.29.31-.5.61-.46l17.31,2.14-.3,2Z"/><g id="centre-3"><circle class="cls-49" cx="212.42" cy="20.24" r="1.99" transform="translate(-.65 31.74) rotate(-8.53)"/><circle class="cls-45" cx="212.42" cy="20.24" r=".72"/></g></g></g><line class="cls-7" x1="263.85" y1="274.31" x2="340.53" y2="274.31"/><line class="cls-7" y1="324.59" x2="340.53" y2="324.59"/><path class="cls-43" d="m248.54,221.75c16.55-48.99,32.2-99.12,46.63-148.78,2.01-7.14,4.08-14.27,6.01-21.44l15.66,4.54c-8.53,27.97-16.75,57.48-24.35,85.68-5.61,20.72-11.56,43.74-16.86,64.67-1.77,7.22-3.6,14.41-5.3,21.65l-21.79-6.31h0Z"/><g><g><rect class="cls-50" x="251.83" y="52.71" width="20.46" height="7.72"/><line class="cls-17" x1="262.06" y1="53.32" x2="262.06" y2="59.83"/></g><g><rect class="cls-46" x="272.29" y="52.71" width="20.46" height="7.72"/><line class="cls-17" x1="282.51" y1="53.32" x2="282.51" y2="59.83"/></g><g><rect class="cls-61" x="292.74" y="52.71" width="20.46" height="7.72"/><line class="cls-17" x1="302.97" y1="53.32" x2="302.97" y2="59.83"/></g><g><rect class="cls-50" x="313.2" y="52.71" width="20.46" height="7.72"/><line class="cls-17" x1="323.43" y1="53.32" x2="323.43" y2="59.83"/></g><g><rect class="cls-57" x="313.2" y="44.99" width="20.46" height="7.72" transform="translate(646.87 97.7) rotate(-180)"/><line class="cls-17" x1="323.43" y1="45.59" x2="323.43" y2="52.1"/></g><g><rect class="cls-29" x="292.74" y="44.99" width="20.46" height="7.72" transform="translate(605.95 97.7) rotate(-180)"/><line class="cls-17" x1="302.97" y1="45.59" x2="302.97" y2="52.1"/></g><g><rect class="cls-46" x="251.83" y="44.99" width="20.46" height="7.72"/><line class="cls-17" x1="262.06" y1="45.59" x2="262.06" y2="52.1"/></g><g><rect class="cls-61" x="272.29" y="44.99" width="20.46" height="7.72"/><line class="cls-17" x1="282.51" y1="45.59" x2="282.51" y2="52.1"/></g><rect class="cls-50" x="282.51" y="37.26" width="20.46" height="7.72"/><g><rect class="cls-29" x="262.06" y="37.26" width="20.46" height="7.72"/><line class="cls-17" x1="272.29" y1="37.87" x2="272.29" y2="44.38"/><line class="cls-17" x1="292.74" y1="37.87" x2="292.74" y2="44.38"/></g><g><rect class="cls-35" x="302.97" y="37.26" width="20.46" height="7.72" transform="translate(626.41 82.25) rotate(-180)"/><line class="cls-17" x1="313.2" y1="37.87" x2="313.2" y2="44.38"/></g></g><g><g><rect class="cls-61" x="57.72" y="270.15" width="34.45" height="13.01"/><line class="cls-26" x1="74.95" y1="271.17" x2="74.95" y2="282.13"/></g><g><rect class="cls-50" x="92.17" y="270.15" width="34.45" height="13.01"/><line class="cls-26" x1="109.4" y1="271.17" x2="109.4" y2="282.13"/></g><g><rect class="cls-46" x="126.62" y="270.15" width="34.45" height="13.01"/><line class="cls-26" x1="143.85" y1="271.17" x2="143.85" y2="282.13"/></g><g><rect class="cls-41" x="126.62" y="257.15" width="34.45" height="13.01" transform="translate(287.69 527.3) rotate(-180)"/><line class="cls-26" x1="143.85" y1="258.17" x2="143.85" y2="269.13"/></g><g><rect class="cls-57" x="92.17" y="257.15" width="34.45" height="13.01" transform="translate(218.79 527.3) rotate(-180)"/><line class="cls-26" x1="109.4" y1="258.17" x2="109.4" y2="269.13"/></g><g><rect class="cls-46" x="109.4" y="244.14" width="34.45" height="13.01" transform="translate(253.24 501.29) rotate(-180)"/><line class="cls-26" x1="126.62" y1="245.16" x2="126.62" y2="256.12"/></g></g><g><polygon class="cls-51" points="155.05 197.77 188.99 194.5 281.19 194.17 255.79 197.77 155.05 197.77"/><rect class="cls-52" x="155.05" y="206.05" width="100.74" height="77.1"/><rect class="cls-29" x="155.05" y="197.77" width="100.74" height="8.28"/><polygon class="cls-53" points="281.19 283.16 255.79 283.16 255.79 206.05 281.19 201.38 281.19 283.16"/><polygon class="cls-44" points="281.19 194.17 255.79 197.77 255.79 206.05 281.19 201.38 281.19 194.17"/><rect class="cls-42" x="163.22" y="229.81" width="84.4" height="53.34"/><g><rect class="cls-57" x="165.84" y="214.48" width="5.11" height="9.04"/><rect class="cls-57" x="176.32" y="214.48" width="5.11" height="9.04"/><rect class="cls-57" x="186.81" y="214.48" width="5.11" height="9.04"/><rect class="cls-57" x="197.29" y="214.48" width="5.11" height="9.04"/><rect class="cls-57" x="207.78" y="214.48" width="5.11" height="9.04"/><rect class="cls-57" x="218.26" y="214.48" width="5.11" height="9.04"/><rect class="cls-57" x="228.75" y="214.48" width="5.11" height="9.04"/><rect class="cls-57" x="239.23" y="214.48" width="5.11" height="9.04"/></g><polygon class="cls-59" points="267.89 215.62 262.12 216.71 262.12 237.75 267.89 236.67 267.89 215.62"/><polygon class="cls-59" points="275.97 214.15 270.64 215.16 270.64 236.2 275.97 235.22 275.97 214.15"/><rect class="cls-41" x="261.6" y="266.38" width="16.25" height="9.08"/><polygon class="cls-51" points="277.85 266.38 261.6 266.38 261.6 244.6 277.85 241.33 277.85 266.38"/><g><path class="cls-2" d="m281.19,262.56l13.86,6.56c.44.21.71.64.71,1.13v2.47"/><polygon class="cls-51" points="281.19 265.57 295.77 272.46 295.77 272.71 281.19 272.71 281.19 265.57"/><g><line class="cls-2" x1="283.4" y1="266.83" x2="283.4" y2="263.56"/><line class="cls-2" x1="285.88" y1="268.01" x2="285.88" y2="264.75"/><line class="cls-2" x1="288.36" y1="269.19" x2="288.36" y2="265.93"/><line class="cls-2" x1="290.83" y1="270.37" x2="290.83" y2="267.11"/><line class="cls-2" x1="293.31" y1="271.55" x2="293.31" y2="268.29"/></g></g><polygon class="cls-42" points="281.19 283.16 295.77 272.68 277.85 266.38 262.12 273.78 281.19 283.16"/><g><path class="cls-1" d="m255.79,265.46l24.16,11.43c.76.36,1.24,1.12,1.24,1.96v4.3"/><polygon class="cls-51" points="255.79 270.72 281.19 282.73 281.19 283.16 255.79 283.16 255.79 270.72"/><g><line class="cls-1" x1="259.63" y1="272.91" x2="259.63" y2="267.22"/><line class="cls-1" x1="263.95" y1="274.96" x2="263.95" y2="269.28"/><line class="cls-1" x1="268.27" y1="277.02" x2="268.27" y2="271.34"/><line class="cls-1" x1="272.59" y1="279.08" x2="272.59" y2="273.4"/><line class="cls-1" x1="276.91" y1="281.14" x2="276.91" y2="275.46"/></g></g><g><g><polygon class="cls-40" points="192.27 250.43 194.49 248.21 203.04 248.21 205.12 250.43 192.27 250.43"/><rect class="cls-37" x="192.27" y="250.43" width="12.85" height="10.91"/><rect class="cls-42" x="200.01" y="251.55" width="4.38" height="1.99"/><rect class="cls-41" x="200.33" y="251.81" width=".46" height="1.48"/><rect class="cls-41" x="201.15" y="251.81" width=".47" height="1.48"/><rect class="cls-41" x="202.02" y="251.81" width=".46" height="1.48"/><rect class="cls-41" x="202.8" y="251.81" width=".46" height="1.48"/><rect class="cls-41" x="203.6" y="251.81" width=".47" height="1.48"/></g><g><rect class="cls-39" x="192.27" y="261.34" width="12.85" height="10.91"/><rect class="cls-35" x="193.01" y="262.46" width="4.38" height="1.99"/><rect class="cls-39" x="196.61" y="262.71" width=".46" height="1.48"/><rect class="cls-39" x="195.77" y="262.71" width=".47" height="1.48"/><rect class="cls-39" x="194.92" y="262.71" width=".46" height="1.48"/><rect class="cls-39" x="194.13" y="262.71" width=".46" height="1.48"/><rect class="cls-39" x="193.33" y="262.71" width=".47" height="1.48"/></g><g><rect class="cls-61" x="192.27" y="272.25" width="12.85" height="10.91"/><rect class="cls-39" x="200.01" y="273.37" width="4.38" height="1.99"/><rect class="cls-54" x="200.33" y="273.62" width=".46" height="1.48"/><rect class="cls-54" x="201.15" y="273.62" width=".47" height="1.48"/><rect class="cls-54" x="202.02" y="273.62" width=".46" height="1.48"/><rect class="cls-54" x="202.8" y="273.62" width=".46" height="1.48"/><rect class="cls-54" x="203.6" y="273.62" width=".47" height="1.48"/></g><g><rect class="cls-57" x="205.12" y="261.34" width="12.85" height="10.91"/><rect class="cls-39" x="213.84" y="262.2" width="3.31" height="2.73"/><g><line class="cls-24" x1="214.52" y1="264.38" x2="216.54" y2="264.38"/><g><line class="cls-24" x1="215.04" y1="264.38" x2="215.04" y2="263.11"/><polygon class="cls-60" points="215.44 263.22 215.04 262.53 214.63 263.22 215.44 263.22"/></g><g><line class="cls-24" x1="216" y1="264.38" x2="216" y2="263.11"/><polygon class="cls-60" points="216.41 263.22 216 262.53 215.6 263.22 216.41 263.22"/></g></g></g><g><rect class="cls-39" x="205.12" y="272.25" width="12.85" height="10.91"/><rect class="cls-35" x="213.84" y="273.11" width="3.31" height="2.73"/><g><line class="cls-23" x1="214.52" y1="275.29" x2="216.54" y2="275.29"/><g><line class="cls-23" x1="215.04" y1="275.29" x2="215.04" y2="274.01"/><polygon class="cls-61" points="215.44 274.13 215.04 273.43 214.63 274.13 215.44 274.13"/></g><g><line class="cls-23" x1="216" y1="275.29" x2="216" y2="274.01"/><polygon class="cls-61" points="216.41 274.13 216 273.43 215.6 274.13 216.41 274.13"/></g></g></g><g><polygon class="cls-40" points="234.76 250.43 236.98 248.21 245.53 248.21 247.62 250.43 234.76 250.43"/><rect class="cls-37" x="234.76" y="250.43" width="12.85" height="10.91"/><rect class="cls-42" x="242.5" y="251.55" width="4.38" height="1.99"/><rect class="cls-41" x="242.82" y="251.81" width=".46" height="1.48"/><rect class="cls-41" x="243.65" y="251.81" width=".47" height="1.48"/><rect class="cls-41" x="244.51" y="251.81" width=".46" height="1.48"/><rect class="cls-41" x="245.3" y="251.81" width=".46" height="1.48"/><rect class="cls-41" x="246.09" y="251.81" width=".47" height="1.48"/></g><g><polygon class="cls-42" points="221.91 272.25 224.13 270.03 232.67 270.03 234.76 272.25 221.91 272.25"/><rect class="cls-37" x="221.91" y="272.25" width="12.85" height="10.91"/><rect class="cls-42" x="229.65" y="273.37" width="4.38" height="1.99"/><rect class="cls-41" x="229.96" y="273.62" width=".46" height="1.48"/><rect class="cls-41" x="230.79" y="273.62" width=".47" height="1.48"/><rect class="cls-41" x="231.66" y="273.62" width=".46" height="1.48"/><rect class="cls-41" x="232.44" y="273.62" width=".46" height="1.48"/><rect class="cls-41" x="233.24" y="273.62" width=".47" height="1.48"/></g><g><rect class="cls-39" x="221.91" y="261.34" width="12.85" height="10.91"/><rect class="cls-35" x="229.65" y="262.46" width="4.38" height="1.99"/><rect class="cls-39" x="229.96" y="262.71" width=".46" height="1.48"/><rect class="cls-39" x="230.79" y="262.71" width=".47" height="1.48"/><rect class="cls-39" x="231.66" y="262.71" width=".46" height="1.48"/><rect class="cls-39" x="232.44" y="262.71" width=".46" height="1.48"/><rect class="cls-39" x="233.24" y="262.71" width=".47" height="1.48"/></g><g><rect class="cls-57" x="234.76" y="261.34" width="12.85" height="10.91"/><rect class="cls-39" x="235.5" y="262.46" width="4.38" height="1.99"/><rect class="cls-54" x="239.1" y="262.71" width=".46" height="1.48"/><rect class="cls-54" x="238.27" y="262.71" width=".47" height="1.48"/><rect class="cls-54" x="237.41" y="262.71" width=".46" height="1.48"/><rect class="cls-54" x="236.62" y="262.71" width=".46" height="1.48"/><rect class="cls-54" x="235.82" y="262.71" width=".47" height="1.48"/></g><g><polygon class="cls-60" points="221.91 250.43 224.13 248.21 232.67 248.21 234.76 250.43 221.91 250.43"/><rect class="cls-61" x="221.91" y="250.43" width="12.85" height="10.91"/><rect class="cls-39" x="230.62" y="251.3" width="3.31" height="2.73"/><g><line class="cls-24" x1="231.31" y1="253.48" x2="233.33" y2="253.48"/><g><line class="cls-24" x1="231.82" y1="253.47" x2="231.82" y2="252.2"/><polygon class="cls-60" points="232.22 252.32 231.82 251.62 231.42 252.32 232.22 252.32"/></g><g><line class="cls-24" x1="232.79" y1="253.47" x2="232.79" y2="252.2"/><polygon class="cls-60" points="233.19 252.32 232.79 251.62 232.39 252.32 233.19 252.32"/></g></g></g><g><rect class="cls-39" x="234.76" y="272.25" width="12.85" height="10.91"/><rect class="cls-35" x="243.48" y="273.11" width="3.31" height="2.73"/><g><line class="cls-23" x1="244.16" y1="275.29" x2="246.18" y2="275.29"/><g><line class="cls-23" x1="244.68" y1="275.29" x2="244.68" y2="274.01"/><polygon class="cls-61" points="245.08 274.13 244.68 273.43 244.27 274.13 245.08 274.13"/></g><g><line class="cls-23" x1="245.64" y1="275.29" x2="245.64" y2="274.01"/><polygon class="cls-61" points="246.05 274.13 245.64 273.43 245.24 274.13 246.05 274.13"/></g></g></g><g><polygon class="cls-40" points="176.07 239.52 178.29 237.31 186.83 237.31 188.92 239.52 176.07 239.52"/><rect class="cls-37" x="176.07" y="239.52" width="12.85" height="10.91"/><rect class="cls-42" x="183.81" y="240.64" width="4.38" height="1.99"/><rect class="cls-41" x="184.12" y="240.9" width=".46" height="1.48"/><rect class="cls-41" x="184.95" y="240.9" width=".47" height="1.48"/><rect class="cls-41" x="185.82" y="240.9" width=".46" height="1.48"/><rect class="cls-41" x="186.6" y="240.9" width=".46" height="1.48"/><rect class="cls-41" x="187.4" y="240.9" width=".47" height="1.48"/></g><g><polygon class="cls-42" points="163.22 261.34 165.43 259.12 173.98 259.12 176.07 261.34 163.22 261.34"/><rect class="cls-37" x="163.22" y="261.34" width="12.85" height="10.91"/><rect class="cls-42" x="170.95" y="262.46" width="4.38" height="1.99"/><rect class="cls-41" x="171.27" y="262.71" width=".46" height="1.48"/><rect class="cls-41" x="172.1" y="262.71" width=".47" height="1.48"/><rect class="cls-41" x="172.96" y="262.71" width=".46" height="1.48"/><rect class="cls-41" x="173.75" y="262.71" width=".46" height="1.48"/><rect class="cls-41" x="174.54" y="262.71" width=".47" height="1.48"/></g><g><rect class="cls-39" x="163.22" y="250.43" width="12.85" height="10.91"/><rect class="cls-35" x="170.95" y="251.55" width="4.38" height="1.99"/><rect class="cls-39" x="171.27" y="251.81" width=".46" height="1.48"/><rect class="cls-39" x="172.1" y="251.81" width=".47" height="1.48"/><rect class="cls-39" x="172.96" y="251.81" width=".46" height="1.48"/><rect class="cls-39" x="173.75" y="251.81" width=".46" height="1.48"/><rect class="cls-39" x="174.54" y="251.81" width=".47" height="1.48"/></g><g><rect class="cls-57" x="176.07" y="250.43" width="12.85" height="10.91"/><rect class="cls-39" x="183.81" y="251.55" width="4.38" height="1.99"/><rect class="cls-54" x="184.12" y="251.81" width=".46" height="1.48"/><rect class="cls-54" x="184.95" y="251.81" width=".47" height="1.48"/><rect class="cls-54" x="185.82" y="251.81" width=".46" height="1.48"/><rect class="cls-54" x="186.6" y="251.81" width=".46" height="1.48"/><rect class="cls-54" x="187.4" y="251.81" width=".47" height="1.48"/></g><g><polygon class="cls-60" points="163.22 239.52 165.43 237.31 173.98 237.31 176.07 239.52 163.22 239.52"/><rect class="cls-61" x="163.22" y="239.52" width="12.85" height="10.91"/><rect class="cls-39" x="171.93" y="240.39" width="3.31" height="2.73"/><g><line class="cls-24" x1="172.61" y1="242.57" x2="174.63" y2="242.57"/><g><line class="cls-24" x1="173.13" y1="242.57" x2="173.13" y2="241.29"/><polygon class="cls-60" points="173.53 241.41 173.13 240.71 172.72 241.41 173.53 241.41"/></g><g><line class="cls-24" x1="174.09" y1="242.57" x2="174.09" y2="241.29"/><polygon class="cls-60" points="174.5 241.41 174.09 240.71 173.69 241.41 174.5 241.41"/></g></g></g><g><rect class="cls-39" x="176.07" y="261.34" width="12.85" height="10.91"/><rect class="cls-35" x="184.78" y="262.2" width="3.31" height="2.73"/><g><line class="cls-23" x1="185.47" y1="264.38" x2="187.49" y2="264.38"/><g><line class="cls-23" x1="185.98" y1="264.38" x2="185.98" y2="263.11"/><polygon class="cls-61" points="186.38 263.22 185.98 262.53 185.58 263.22 186.38 263.22"/></g><g><line class="cls-23" x1="186.95" y1="264.38" x2="186.95" y2="263.11"/><polygon class="cls-61" points="187.35 263.22 186.95 262.53 186.55 263.22 187.35 263.22"/></g></g></g><g><rect class="cls-37" x="176.07" y="272.25" width="12.85" height="10.91"/><rect class="cls-42" x="176.81" y="273.37" width="4.38" height="1.99"/><rect class="cls-41" x="180.41" y="273.62" width=".46" height="1.48"/><rect class="cls-41" x="179.57" y="273.62" width=".47" height="1.48"/><rect class="cls-41" x="178.71" y="273.62" width=".46" height="1.48"/><rect class="cls-41" x="177.93" y="273.62" width=".46" height="1.48"/><rect class="cls-41" x="177.13" y="273.62" width=".47" height="1.48"/></g><g><rect class="cls-39" x="163.22" y="272.25" width="12.85" height="10.91"/><rect class="cls-35" x="164.05" y="273.11" width="3.31" height="2.73"/><g><line class="cls-23" x1="166.67" y1="275.29" x2="164.65" y2="275.29"/><g><line class="cls-23" x1="166.16" y1="275.29" x2="166.16" y2="274.01"/><polygon class="cls-61" points="165.76 274.13 166.16 273.43 166.56 274.13 165.76 274.13"/></g><g><line class="cls-23" x1="165.19" y1="275.29" x2="165.19" y2="274.01"/><polygon class="cls-61" points="164.79 274.13 165.19 273.43 165.59 274.13 164.79 274.13"/></g></g></g></g></g><g><polygon class="cls-51" points="281.17 14.87 299.29 13.12 348.49 12.95 334.93 14.87 281.17 14.87"/><rect class="cls-52" x="281.17" y="19.29" width="53.76" height="41.15"/><rect class="cls-50" x="281.17" y="14.87" width="53.76" height="4.42"/><polygon class="cls-53" points="348.49 60.43 334.93 60.43 334.93 19.29 348.49 16.79 348.49 60.43"/><polygon class="cls-52" points="348.49 12.95 334.93 14.87 334.93 19.29 348.49 16.79 348.49 12.95"/><rect class="cls-42" x="285.53" y="31.97" width="45.04" height="28.47"/><g><rect class="cls-57" x="286.93" y="23.79" width="2.73" height="4.83"/><rect class="cls-57" x="292.53" y="23.79" width="2.73" height="4.83"/><rect class="cls-57" x="298.12" y="23.79" width="2.73" height="4.83"/><rect class="cls-57" x="303.72" y="23.79" width="2.73" height="4.83"/><rect class="cls-57" x="309.31" y="23.79" width="2.73" height="4.83"/><rect class="cls-57" x="314.91" y="23.79" width="2.73" height="4.83"/><rect class="cls-57" x="320.5" y="23.79" width="2.73" height="4.83"/><rect class="cls-57" x="326.1" y="23.79" width="2.73" height="4.83"/></g><polygon class="cls-59" points="341.39 24.4 338.31 24.97 338.31 36.2 341.39 35.63 341.39 24.4"/><polygon class="cls-59" points="345.7 23.61 342.86 24.15 342.86 35.38 345.7 34.85 345.7 23.61"/><rect class="cls-41" x="338.03" y="51.48" width="8.67" height="4.84"/><polygon class="cls-51" points="346.71 51.48 338.03 51.48 338.03 39.86 346.71 38.11 346.71 51.48"/><g><path class="cls-12" d="m348.49,49.44l7.4,3.5c.23.11.38.34.38.6v1.32"/><polygon class="cls-51" points="348.49 51.05 356.27 54.73 356.27 54.86 348.49 54.86 348.49 51.05"/><g><line class="cls-12" x1="349.67" y1="51.72" x2="349.67" y2="49.98"/><line class="cls-12" x1="350.99" y1="52.35" x2="350.99" y2="50.61"/><line class="cls-12" x1="352.31" y1="52.98" x2="352.31" y2="51.24"/><line class="cls-12" x1="353.63" y1="53.61" x2="353.63" y2="51.87"/><line class="cls-12" x1="354.96" y1="54.24" x2="354.96" y2="52.5"/></g></g><polygon class="cls-42" points="348.49 60.43 356.27 54.84 346.71 51.48 338.31 55.43 348.49 60.43"/><g><path class="cls-13" d="m334.93,50.99l12.89,6.1c.41.19.66.6.66,1.05v2.3"/><polygon class="cls-51" points="334.93 53.8 348.49 60.21 348.49 60.43 334.93 60.43 334.93 53.8"/><g><line class="cls-13" x1="336.98" y1="54.96" x2="336.98" y2="51.93"/><line class="cls-13" x1="339.29" y1="56.06" x2="339.29" y2="53.03"/><line class="cls-13" x1="341.59" y1="57.16" x2="341.59" y2="54.13"/><line class="cls-13" x1="343.9" y1="58.26" x2="343.9" y2="55.23"/><line class="cls-13" x1="346.2" y1="59.36" x2="346.2" y2="56.32"/></g></g><g><g><polygon class="cls-40" points="315.07 42.97 313.88 41.79 309.32 41.79 308.21 42.97 315.07 42.97"/><rect class="cls-37" x="308.21" y="42.97" width="6.86" height="5.82"/><rect class="cls-42" x="308.6" y="43.57" width="2.34" height="1.06"/><rect class="cls-41" x="310.52" y="43.7" width=".25" height=".79"/><rect class="cls-41" x="310.08" y="43.7" width=".25" height=".79"/><rect class="cls-41" x="309.62" y="43.7" width=".25" height=".79"/><rect class="cls-41" x="309.2" y="43.7" width=".25" height=".79"/><rect class="cls-41" x="308.77" y="43.7" width=".25" height=".79"/></g><g><rect class="cls-39" x="308.21" y="48.79" width="6.86" height="5.82"/><rect class="cls-35" x="312.34" y="49.39" width="2.34" height="1.06"/><rect class="cls-39" x="312.51" y="49.53" width=".25" height=".79"/><rect class="cls-39" x="312.95" y="49.53" width=".25" height=".79"/><rect class="cls-39" x="313.41" y="49.53" width=".25" height=".79"/><rect class="cls-39" x="313.83" y="49.53" width=".25" height=".79"/><rect class="cls-39" x="314.25" y="49.53" width=".25" height=".79"/></g><g><rect class="cls-61" x="308.21" y="54.61" width="6.86" height="5.82"/><rect class="cls-39" x="308.6" y="55.21" width="2.34" height="1.06"/><rect class="cls-54" x="310.52" y="55.35" width=".25" height=".79"/><rect class="cls-54" x="310.08" y="55.35" width=".25" height=".79"/><rect class="cls-54" x="309.62" y="55.35" width=".25" height=".79"/><rect class="cls-54" x="309.2" y="55.35" width=".25" height=".79"/><rect class="cls-54" x="308.77" y="55.35" width=".25" height=".79"/></g><g><rect class="cls-57" x="301.35" y="48.79" width="6.86" height="5.82"/><rect class="cls-39" x="301.79" y="49.25" width="1.77" height="1.45"/><g><line class="cls-9" x1="303.19" y1="50.42" x2="302.12" y2="50.42"/><g><line class="cls-9" x1="302.92" y1="50.42" x2="302.92" y2="49.73"/><polygon class="cls-60" points="302.7 49.8 302.92 49.42 303.13 49.8 302.7 49.8"/></g><g><line class="cls-9" x1="302.4" y1="50.42" x2="302.4" y2="49.73"/><polygon class="cls-60" points="302.19 49.8 302.4 49.42 302.62 49.8 302.19 49.8"/></g></g></g><g><rect class="cls-39" x="301.35" y="54.61" width="6.86" height="5.82"/><rect class="cls-35" x="301.79" y="55.07" width="1.77" height="1.45"/><g><line class="cls-8" x1="303.19" y1="56.24" x2="302.12" y2="56.24"/><g><line class="cls-8" x1="302.92" y1="56.24" x2="302.92" y2="55.55"/><polygon class="cls-61" points="302.7 55.62 302.92 55.25 303.13 55.62 302.7 55.62"/></g><g><line class="cls-8" x1="302.4" y1="56.24" x2="302.4" y2="55.55"/><polygon class="cls-61" points="302.19 55.62 302.4 55.25 302.62 55.62 302.19 55.62"/></g></g></g><g><polygon class="cls-40" points="292.39 42.97 291.21 41.79 286.65 41.79 285.53 42.97 292.39 42.97"/><rect class="cls-37" x="285.53" y="42.97" width="6.86" height="5.82"/><rect class="cls-42" x="285.93" y="43.57" width="2.34" height="1.06"/><rect class="cls-41" x="287.85" y="43.7" width=".25" height=".79"/><rect class="cls-41" x="287.4" y="43.7" width=".25" height=".79"/><rect class="cls-41" x="286.94" y="43.7" width=".25" height=".79"/><rect class="cls-41" x="286.52" y="43.7" width=".25" height=".79"/><rect class="cls-41" x="286.1" y="43.7" width=".25" height=".79"/></g><g><polygon class="cls-42" points="299.25 54.61 298.07 53.43 293.51 53.43 292.39 54.61 299.25 54.61"/><rect class="cls-37" x="292.39" y="54.61" width="6.86" height="5.82"/><rect class="cls-42" x="292.79" y="55.21" width="2.34" height="1.06"/><rect class="cls-41" x="294.71" y="55.35" width=".25" height=".79"/><rect class="cls-41" x="294.26" y="55.35" width=".25" height=".79"/><rect class="cls-41" x="293.8" y="55.35" width=".25" height=".79"/><rect class="cls-41" x="293.38" y="55.35" width=".25" height=".79"/><rect class="cls-41" x="292.96" y="55.35" width=".25" height=".79"/></g><g><rect class="cls-39" x="292.39" y="48.79" width="6.86" height="5.82"/><rect class="cls-35" x="292.79" y="49.39" width="2.34" height="1.06"/><rect class="cls-39" x="294.71" y="49.53" width=".25" height=".79"/><rect class="cls-39" x="294.26" y="49.53" width=".25" height=".79"/><rect class="cls-39" x="293.8" y="49.53" width=".25" height=".79"/><rect class="cls-39" x="293.38" y="49.53" width=".25" height=".79"/><rect class="cls-39" x="292.96" y="49.53" width=".25" height=".79"/></g><g><rect class="cls-57" x="285.53" y="48.79" width="6.86" height="5.82"/><rect class="cls-39" x="289.66" y="49.39" width="2.34" height="1.06"/><rect class="cls-54" x="289.83" y="49.53" width=".25" height=".79"/><rect class="cls-54" x="290.27" y="49.53" width=".25" height=".79"/><rect class="cls-54" x="290.73" y="49.53" width=".25" height=".79"/><rect class="cls-54" x="291.15" y="49.53" width=".25" height=".79"/><rect class="cls-54" x="291.58" y="49.53" width=".25" height=".79"/></g><g><polygon class="cls-60" points="299.25 42.97 298.07 41.79 293.51 41.79 292.39 42.97 299.25 42.97"/><rect class="cls-61" x="292.39" y="42.97" width="6.86" height="5.82"/><rect class="cls-39" x="292.84" y="43.43" width="1.77" height="1.45"/><g><line class="cls-9" x1="294.24" y1="44.59" x2="293.16" y2="44.59"/><g><line class="cls-9" x1="293.96" y1="44.59" x2="293.96" y2="43.91"/><polygon class="cls-60" points="293.75 43.98 293.96 43.6 294.18 43.98 293.75 43.98"/></g><g><line class="cls-9" x1="293.45" y1="44.59" x2="293.45" y2="43.91"/><polygon class="cls-60" points="293.23 43.98 293.45 43.6 293.66 43.98 293.23 43.98"/></g></g></g><g><rect class="cls-39" x="285.53" y="54.61" width="6.86" height="5.82"/><rect class="cls-35" x="285.98" y="55.07" width="1.77" height="1.45"/><g><line class="cls-8" x1="287.38" y1="56.24" x2="286.3" y2="56.24"/><g><line class="cls-8" x1="287.1" y1="56.24" x2="287.1" y2="55.55"/><polygon class="cls-61" points="286.89 55.62 287.1 55.25 287.32 55.62 286.89 55.62"/></g><g><line class="cls-8" x1="286.59" y1="56.24" x2="286.59" y2="55.55"/><polygon class="cls-61" points="286.37 55.62 286.59 55.25 286.8 55.62 286.37 55.62"/></g></g></g><g><polygon class="cls-40" points="323.71 37.15 322.53 35.97 317.97 35.97 316.85 37.15 323.71 37.15"/><rect class="cls-37" x="316.85" y="37.15" width="6.86" height="5.82"/><rect class="cls-42" x="317.25" y="37.75" width="2.34" height="1.06"/><rect class="cls-41" x="319.17" y="37.88" width=".25" height=".79"/><rect class="cls-41" x="318.72" y="37.88" width=".25" height=".79"/><rect class="cls-41" x="318.27" y="37.88" width=".25" height=".79"/><rect class="cls-41" x="317.85" y="37.88" width=".25" height=".79"/><rect class="cls-41" x="317.42" y="37.88" width=".25" height=".79"/></g><g><polygon class="cls-42" points="330.57 48.79 329.39 47.61 324.83 47.61 323.71 48.79 330.57 48.79"/><rect class="cls-37" x="323.71" y="48.79" width="6.86" height="5.82"/><rect class="cls-42" x="324.11" y="49.39" width="2.34" height="1.06"/><rect class="cls-41" x="326.03" y="49.53" width=".25" height=".79"/><rect class="cls-41" x="325.58" y="49.53" width=".25" height=".79"/><rect class="cls-41" x="325.13" y="49.53" width=".25" height=".79"/><rect class="cls-41" x="324.7" y="49.53" width=".25" height=".79"/><rect class="cls-41" x="324.28" y="49.53" width=".25" height=".79"/></g><g><rect class="cls-39" x="323.71" y="42.97" width="6.86" height="5.82"/><rect class="cls-35" x="324.11" y="43.57" width="2.34" height="1.06"/><rect class="cls-39" x="326.03" y="43.7" width=".25" height=".79"/><rect class="cls-39" x="325.58" y="43.7" width=".25" height=".79"/><rect class="cls-39" x="325.13" y="43.7" width=".25" height=".79"/><rect class="cls-39" x="324.7" y="43.7" width=".25" height=".79"/><rect class="cls-39" x="324.28" y="43.7" width=".25" height=".79"/></g><g><rect class="cls-57" x="316.85" y="42.97" width="6.86" height="5.82"/><rect class="cls-39" x="317.25" y="43.57" width="2.34" height="1.06"/><rect class="cls-54" x="319.17" y="43.7" width=".25" height=".79"/><rect class="cls-54" x="318.72" y="43.7" width=".25" height=".79"/><rect class="cls-54" x="318.27" y="43.7" width=".25" height=".79"/><rect class="cls-54" x="317.85" y="43.7" width=".25" height=".79"/><rect class="cls-54" x="317.42" y="43.7" width=".25" height=".79"/></g><g><polygon class="cls-60" points="330.57 37.15 329.39 35.97 324.83 35.97 323.71 37.15 330.57 37.15"/><rect class="cls-61" x="323.71" y="37.15" width="6.86" height="5.82"/><rect class="cls-39" x="324.16" y="37.61" width="1.77" height="1.45"/><g><line class="cls-9" x1="325.56" y1="38.77" x2="324.48" y2="38.77"/><g><line class="cls-9" x1="325.28" y1="38.77" x2="325.28" y2="38.09"/><polygon class="cls-60" points="325.07 38.15 325.28 37.78 325.5 38.15 325.07 38.15"/></g><g><line class="cls-9" x1="324.77" y1="38.77" x2="324.77" y2="38.09"/><polygon class="cls-60" points="324.55 38.15 324.77 37.78 324.98 38.15 324.55 38.15"/></g></g></g><g><rect class="cls-39" x="316.85" y="48.79" width="6.86" height="5.82"/><rect class="cls-35" x="317.3" y="49.25" width="1.77" height="1.45"/><g><line class="cls-8" x1="318.7" y1="50.42" x2="317.62" y2="50.42"/><g><line class="cls-8" x1="318.42" y1="50.42" x2="318.42" y2="49.73"/><polygon class="cls-61" points="318.21 49.8 318.42 49.42 318.64 49.8 318.21 49.8"/></g><g><line class="cls-8" x1="317.91" y1="50.42" x2="317.91" y2="49.73"/><polygon class="cls-61" points="317.69 49.8 317.91 49.42 318.12 49.8 317.69 49.8"/></g></g></g><g><rect class="cls-37" x="316.85" y="54.61" width="6.86" height="5.82"/><rect class="cls-42" x="320.98" y="55.21" width="2.34" height="1.06"/><rect class="cls-41" x="321.15" y="55.35" width=".25" height=".79"/><rect class="cls-41" x="321.59" y="55.35" width=".25" height=".79"/><rect class="cls-41" x="322.05" y="55.35" width=".25" height=".79"/><rect class="cls-41" x="322.47" y="55.35" width=".25" height=".79"/><rect class="cls-41" x="322.9" y="55.35" width=".25" height=".79"/></g><g><rect class="cls-39" x="323.71" y="54.61" width="6.86" height="5.82"/><rect class="cls-35" x="328.36" y="55.07" width="1.77" height="1.45"/><g><line class="cls-8" x1="328.73" y1="56.24" x2="329.81" y2="56.24"/><g><line class="cls-8" x1="329" y1="56.24" x2="329" y2="55.55"/><polygon class="cls-61" points="329.22 55.62 329 55.25 328.79 55.62 329.22 55.62"/></g><g><line class="cls-8" x1="329.52" y1="56.24" x2="329.52" y2="55.55"/><polygon class="cls-61" points="329.73 55.62 329.52 55.25 329.3 55.62 329.73 55.62"/></g></g></g></g></g><g><g><circle class="cls-30" cx="231.29" cy="324.57" r="4.54"/><circle class="cls-41" cx="231.29" cy="324.57" r="2.05"/><circle class="cls-30" cx="190.11" cy="325" r="4.54"/><circle class="cls-41" cx="190.2" cy="325" r="2.05"/><circle class="cls-30" cx="241.7" cy="324.32" r="4.54"/><circle class="cls-41" cx="241.7" cy="324.32" r="2.05"/><polygon class="cls-38" points="288.96 319 308.29 319 306.7 323.21 290.56 323.21 288.96 319"/><circle class="cls-30" cx="294.07" cy="325" r="4.54"/><circle class="cls-41" cx="294.07" cy="325" r="2.05"/><circle class="cls-30" cx="304.47" cy="324.75" r="4.54"/><circle class="cls-41" cx="304.47" cy="324.75" r="2.05"/></g><rect class="cls-57" x="219.57" y="294.45" width="89.96" height="22.82"/><path class="cls-63" d="m250.02,317.27c-1.06,0-1.45-.58-1.54-.74-.01-.03-.02-.04-.02-.04v.03c-.31-.94-1.19-1.62-2.24-1.62h-26.75v4.1h90.17v-1.73h-59.62Z"/><rect class="cls-53" x="219.57" y="290.37" width="89.96" height="4.08"/><polygon class="cls-53" points="312.03 290.37 309.54 290.37 309.54 319 312.03 316.81 312.03 290.37"/><g><line class="cls-21" x1="230.91" y1="298.18" x2="230.91" y2="313.53"/><line class="cls-21" x1="244.37" y1="313.53" x2="244.37" y2="298.18"/><line class="cls-21" x1="257.83" y1="313.53" x2="257.83" y2="298.18"/><line class="cls-21" x1="271.29" y1="313.53" x2="271.29" y2="298.18"/><line class="cls-21" x1="284.74" y1="313.53" x2="284.74" y2="298.18"/><line class="cls-21" x1="298.2" y1="298.18" x2="298.2" y2="313.53"/></g><g><path class="cls-29" d="m218.03,290.24v25.56c0,1.97-.82,2.28-.82,2.28,0,0-.93.84-3.62,3.31-2.69,2.47-5.69,2.33-5.69,2.33h-28.99c-1.38,0-.94-1.06-.94-2.27,0-2.5,1.03-3.85,1.03-3.85,0,0,.41-.64,3.01-4.19,1.62-2.2,4.1-5.54,7.84-10.54.1-.14.21-.28.32-.42,9.71-12.63,20.07-12.2,20.07-12.2h7.79Z"/><path class="cls-55" d="m178.92,323.71s-.09,1.18.44,2.24h5.43s1.35.07,1.39-.77,0-1.47,0-1.47h-7.26Z"/><path class="cls-53" d="m180.82,321.72s1.5,0,1.96-1.32,1.68-2.6,2.69-3.2c-.71,0-2.1.07-2.8.77s-1.83,1.32-1.85,3.75Z"/><path class="cls-53" d="m206.23,302.44s-1.24,5.54-5.61,6.77c-4.37,1.24-16.08,3.97-18.61,4.19,1.62-2.2,4.1-5.54,7.84-10.54.1-.14.21-.28.32-.42h16.05Z"/><path class="cls-48" d="m184.51,316.59c7.31-2.25,18.24-1.77,25.87-1.93,0,0,0,.66,0,.66-7.66-.03-18.48-.8-25.87,1.27h0Z"/><path class="cls-38" d="m199.08,319.76c-1.49.5-2.5,1.89-2.5,3.47h0c0,.53.44.97.99.97h49.77s.59-.99.59-3.82c0-.64.05-1.1-.95-1.65-.99-.55-1.65-.79-3.23-.95s-17.83-.51-22.8-.51-8.63.22-8.63.22c0,0-7.12.24-13.24,2.27Z"/></g></g><g><polyline class="cls-37" points="265.6 94.87 258.95 91.19 95.87 91.19 95.87 94.87 265.58 94.87"/><g><rect class="cls-35" x="213.71" y="87.53" width="19.46" height="7.35" transform="translate(446.88 182.41) rotate(-180)"/><line class="cls-22" x1="223.44" y1="88.11" x2="223.44" y2="94.3"/></g><g><rect class="cls-57" x="194.25" y="87.53" width="19.46" height="7.35" transform="translate(407.96 182.41) rotate(-180)"/><line class="cls-22" x1="203.98" y1="88.11" x2="203.98" y2="94.3"/></g><g><rect class="cls-35" x="174.79" y="87.53" width="19.46" height="7.35" transform="translate(369.04 182.41) rotate(-180)"/><line class="cls-22" x1="184.52" y1="88.11" x2="184.52" y2="94.3"/></g><g><rect class="cls-46" x="155.33" y="87.53" width="19.46" height="7.35" transform="translate(330.13 182.41) rotate(-180)"/><line class="cls-22" x1="165.06" y1="88.11" x2="165.06" y2="94.3"/></g><g><rect class="cls-61" x="96.96" y="87.53" width="19.46" height="7.35"/><line class="cls-22" x1="106.69" y1="88.11" x2="106.69" y2="94.3"/></g><g><rect class="cls-46" x="116.42" y="87.53" width="19.46" height="7.35"/><line class="cls-22" x1="126.15" y1="88.11" x2="126.15" y2="94.3"/></g><g><rect class="cls-50" x="135.88" y="87.53" width="19.46" height="7.35"/><line class="cls-22" x1="145.6" y1="88.11" x2="145.6" y2="94.3"/></g><g><rect class="cls-41" x="135.88" y="80.19" width="19.46" height="7.35" transform="translate(291.21 167.72) rotate(-180)"/><line class="cls-22" x1="145.6" y1="80.76" x2="145.6" y2="86.96"/></g><g><rect class="cls-57" x="116.42" y="80.19" width="19.46" height="7.35" transform="translate(252.29 167.72) rotate(-180)"/><line class="cls-22" x1="126.15" y1="80.76" x2="126.15" y2="86.96"/></g><g><rect class="cls-57" x="116.42" y="65.49" width="19.46" height="7.35" transform="translate(252.29 138.34) rotate(-180)"/><line class="cls-22" x1="126.15" y1="66.07" x2="126.15" y2="72.26"/></g><g><rect class="cls-37" x="96.96" y="80.19" width="19.46" height="7.35" transform="translate(213.38 167.72) rotate(-180)"/><line class="cls-22" x1="106.69" y1="80.76" x2="106.69" y2="86.96"/></g><g><rect class="cls-46" x="174.79" y="80.19" width="19.46" height="7.35" transform="translate(369.04 167.72) rotate(-180)"/><line class="cls-22" x1="184.52" y1="80.76" x2="184.52" y2="86.96"/></g><g><rect class="cls-61" x="155.33" y="80.19" width="19.46" height="7.35" transform="translate(330.13 167.72) rotate(-180)"/><line class="cls-22" x1="165.06" y1="80.76" x2="165.06" y2="86.96"/></g><g><rect class="cls-50" x="194.25" y="80.19" width="19.46" height="7.35"/><line class="cls-22" x1="203.98" y1="80.76" x2="203.98" y2="86.96"/></g><g><rect class="cls-50" x="165.06" y="72.84" width="19.46" height="7.35"/><line class="cls-22" x1="174.79" y1="73.42" x2="174.79" y2="79.61"/></g><g><rect class="cls-29" x="106.69" y="72.84" width="19.46" height="7.35" transform="translate(232.83 153.03) rotate(-180)"/><line class="cls-22" x1="116.42" y1="73.42" x2="116.42" y2="79.61"/></g><g><rect class="cls-50" x="126.15" y="72.84" width="19.46" height="7.35" transform="translate(271.75 153.03) rotate(-180)"/><line class="cls-22" x1="135.88" y1="73.42" x2="135.88" y2="79.61"/></g><g><rect class="cls-46" x="145.6" y="72.84" width="19.46" height="7.35" transform="translate(310.67 153.03) rotate(-180)"/><line class="cls-22" x1="155.33" y1="73.42" x2="155.33" y2="79.61"/></g><g><g><polygon class="cls-33" points="82.89 85.78 98.19 59.42 99.55 60.16 85.98 87.45 82.89 85.78 82.89 85.78"/><path class="cls-33" d="m23.86,97.94c.32,3.81,1.36,4.91,3.88,7.82,1.84,2.12,3.45,3.98,4.84,5.6,5.78,6.72,7.87,9.28,7.87,9.28h199.4c7.96,0,15.07-3.61,19.79-9.28.93-1.11,1.76-2.3,2.49-3.55,2.21-3.8,3.47-8.21,3.47-12.93H106.52c-5.31,0-9.63-4.31-9.63-9.63v-1.02s-40.48,0-40.48,0l-7.79,2.4-15.1,4.66-6.52,2.01c-2.01.62-3.33,2.55-3.15,4.65Z"/><path class="cls-29" d="m32.58,111.35c5.78,6.72,7.87,9.28,7.87,9.28h199.4c7.96,0,15.07-3.61,19.79-9.28H32.58Z"/></g><g><path class="cls-42" d="m215.82,102.42c.24,0,.46-.1.61-.28.15-.18.22-.42.18-.66l-.36-2.27c-.07-.44-.47-.79-.92-.79h-3.25c-.24,0-.46.1-.61.28-.15.18-.22.42-.18.66l.36,2.27c.07.44.47.79.92.79h3.25Z"/><path class="cls-61" d="m212.57,101.96h3.25c.22,0,.37-.18.34-.4l-.36-2.27c-.03-.22-.24-.4-.46-.4h-3.25c-.22,0-.37.18-.34.4l.36,2.27c.03.22.24.4.46.4Z"/></g><g><path class="cls-42" d="m204.01,102.42c.24,0,.46-.1.61-.28.15-.18.22-.42.18-.66l-.36-2.27c-.07-.44-.47-.79-.92-.79h-3.25c-.24,0-.46.1-.61.28-.15.18-.22.42-.18.66l.36,2.27c.07.44.47.79.92.79h3.25Z"/><path class="cls-61" d="m200.75,101.96h3.25c.22,0,.37-.18.34-.4l-.36-2.27c-.03-.22-.24-.4-.46-.4h-3.25c-.22,0-.37.18-.34.4l.36,2.27c.03.22.24.4.46.4Z"/></g><path class="cls-50" d="m33.52,91.27c34.67-.04,53.6-2.06,57.46-2.52.48-.06.92-.27,1.27-.61l1.09-1.06c.18-.17.06-.48-.19-.48h-44.2s-.32,0-.32,0l-15.1,4.66Z"/><g><g><line class="cls-11" x1="74.85" y1="84.21" x2="74.85" y2="81.36"/><line class="cls-11" x1="77.96" y1="84.21" x2="77.96" y2="81.36"/><line class="cls-11" x1="81.07" y1="84.21" x2="81.07" y2="81.36"/><line class="cls-11" x1="84.18" y1="84.21" x2="84.18" y2="81.36"/><line class="cls-11" x1="87.28" y1="84.21" x2="87.28" y2="81.36"/><line class="cls-11" x1="90.39" y1="84.21" x2="90.39" y2="81.36"/><line class="cls-11" x1="93.5" y1="84.21" x2="93.5" y2="81.36"/><line class="cls-11" x1="96.61" y1="84.21" x2="96.61" y2="81.36"/></g><line class="cls-11" x1="97.93" y1="81.36" x2="73.53" y2="81.36"/></g><polygon class="cls-33" points="84.98 66.86 93.99 66.86 94.91 65.48 84.05 65.48 84.98 66.86"/><polygon class="cls-41" points="93.99 66.86 93.75 67.2 85.24 67.2 84.98 66.86 93.99 66.86"/><polygon class="cls-42" points="88.61 67.2 92.57 69.09 93.75 67.2 88.61 67.2"/><line class="cls-6" x1="89.48" y1="65.48" x2="89.48" y2="64.28"/><line class="cls-5" x1="93.22" y1="64.28" x2="85.74" y2="64.28"/></g></g><path class="cls-32" d="m130.11,168.82h133.75v-37.46h-122.01c-5.83,0-11.08,3.54-13.26,8.95l-6.63,16.42c-2.34,5.78,1.92,12.09,8.16,12.09Z"/><g id="crane"><g><rect class="cls-19" x="181.36" y="149.05" width="16.8" height="3.68"/><ellipse class="cls-19" cx="189.76" cy="153.02" rx="8.4" ry="1.04"/><ellipse class="cls-20" cx="189.76" cy="148.81" rx="8.4" ry="1.04"/></g><g><rect class="cls-19" x="143.16" y="149.05" width="16.8" height="3.68"/><ellipse class="cls-19" cx="151.56" cy="153.02" rx="8.4" ry="1.04"/><ellipse class="cls-20" cx="151.56" cy="148.81" rx="8.4" ry="1.04"/></g><g><rect class="cls-19" x="162.38" y="151.16" width="16.8" height="3.68"/><ellipse class="cls-19" cx="170.78" cy="155.13" rx="8.4" ry="1.04"/><ellipse class="cls-20" cx="170.78" cy="150.92" rx="8.4" ry="1.04"/></g><line class="cls-15" x1="190.54" y1="148.56" x2="190.68" y2="130.16"/><line class="cls-15" x1="186.28" y1="148.56" x2="186.42" y2="130.16"/><line class="cls-15" x1="172.88" y1="150.4" x2="173.02" y2="130.16"/><line class="cls-15" x1="151.77" y1="148.56" x2="151.91" y2="130.16"/><line class="cls-15" x1="169.17" y1="150.4" x2="169.31" y2="130.16"/><line class="cls-15" x1="155.69" y1="148.56" x2="155.83" y2="130.16"/><line class="cls-15" x1="151.91" y1="136.57" x2="190.68" y2="136.57"/><line class="cls-15" x1="151.77" y1="142.37" x2="190.61" y2="142.37"/><polygon class="cls-37" points="165.86 96.22 176.78 96.22 176.78 112.97 171.1 126.49 165.86 112.97 165.86 96.22"/><line class="cls-15" x1="179.08" y1="109.31" x2="189.56" y2="126.49"/><line class="cls-15" x1="163.24" y1="109.89" x2="152.77" y2="127.07"/><line class="cls-15" x1="162.2" y1="111.36" x2="189.56" y2="126.49"/><line class="cls-15" x1="180.29" y1="111.36" x2="152.92" y2="126.49"/><line class="cls-14" x1="169.45" y1="47.8" x2="192.89" y2="62.1"/><rect class="cls-34" x="163.76" y="47.18" width="5.69" height="10.6"/><polygon class="cls-34" points="192.89 61.84 195.54 61.84 195.54 72.44 192.89 73.89 192.89 61.84"/><rect class="cls-3" x="152.6" y="83.99" width="37.94" height="12.05" rx="3.1" ry="3.1"/><polygon class="cls-29" points="193.66 71.71 187.19 86.53 189.74 86.53 228.47 40.55 193.66 71.71"/><ellipse class="cls-29" cx="228.47" cy="41.13" rx="2.06" ry="2.01"/><polyline class="cls-15" points="234.86 47.48 228.47 40.55 224.78 38.23 160.62 55.01"/><polygon class="cls-34" points="167.17 83.99 160.62 55.01 162.98 55.01 171.1 83.99 167.17 83.99"/><path class="cls-15" d="m237.45,49.64v20.87c0,.64-.54,1.17-1.19,1.17h-.05c-.66,0-1.19-.52-1.19-1.17v-20.87c0-.64.54-1.17,1.19-1.17h.05c.66,0,1.19.52,1.19,1.17Z"/><rect class="cls-37" x="233.3" y="67.14" width="5.86" height="4.53"/><ellipse class="cls-29" cx="236.23" cy="49.19" rx="2.06" ry="2.01"/><line class="cls-14" x1="168.51" y1="59.28" x2="192.89" y2="67.87"/><path class="cls-29" d="m152.38,47.45l17.65,7.99c1.02.46,1.5,1.62,1.08,2.63h0c-.41,1.01-1.55,1.54-2.61,1.2l-18.52-5.83,2.39-6Z"/><rect class="cls-4" x="149.74" y="126.49" width="43.06" height="3.67" rx="1.07" ry="1.07"/><path class="cls-28" d="m161.57,107.69h19.5c.49,0,.89.4.89.89v.94s0,.94,0,.94c0,.49-.4.89-.89.89h-19.5c-.49,0-.89-.4-.89-.89v-1.88c0-.49.4-.89.89-.89Z"/><line class="cls-15" x1="184.32" y1="93.47" x2="184.32" y2="86.53"/><line class="cls-15" x1="179.34" y1="93.48" x2="179.34" y2="86.54"/><line class="cls-15" x1="174.35" y1="93.48" x2="174.35" y2="86.54"/><line class="cls-15" x1="169.36" y1="93.48" x2="169.36" y2="86.54"/><line class="cls-15" x1="164.38" y1="93.48" x2="164.38" y2="86.54"/><line class="cls-15" x1="159.4" y1="93.48" x2="159.4" y2="86.54"/><g><rect class="cls-57" x="226.14" y="71.67" width="20.16" height="7.44" transform="translate(472.45 150.78) rotate(-180)"/><line class="cls-25" x1="236.23" y1="72.25" x2="236.23" y2="78.52"/></g></g><g><g><rect class="cls-50" x="182.52" y="151.63" width="20.46" height="7.72"/><line class="cls-17" x1="192.75" y1="152.24" x2="192.75" y2="158.75"/></g><g><rect class="cls-46" x="202.98" y="151.63" width="20.46" height="7.72"/><line class="cls-17" x1="213.21" y1="152.24" x2="213.21" y2="158.75"/></g><g><rect class="cls-61" x="223.44" y="151.63" width="20.46" height="7.72"/><line class="cls-17" x1="233.67" y1="152.24" x2="233.67" y2="158.75"/></g><g><rect class="cls-41" x="223.44" y="143.91" width="20.46" height="7.72" transform="translate(467.34 295.54) rotate(-180)"/><line class="cls-17" x1="233.67" y1="144.51" x2="233.67" y2="151.02"/></g><g><rect class="cls-46" x="182.52" y="143.91" width="20.46" height="7.72"/><line class="cls-17" x1="192.75" y1="144.51" x2="192.75" y2="151.02"/></g><g><rect class="cls-61" x="202.98" y="143.91" width="20.46" height="7.72"/><line class="cls-17" x1="213.21" y1="144.51" x2="213.21" y2="151.02"/></g><rect class="cls-50" x="213.21" y="136.18" width="20.46" height="7.72"/><g><rect class="cls-37" x="192.75" y="136.18" width="20.46" height="7.72"/><line class="cls-17" x1="202.98" y1="136.79" x2="202.98" y2="143.3"/><line class="cls-17" x1="223.44" y1="136.79" x2="223.44" y2="143.3"/></g></g><g id="New_Factory"><path class="cls-36" d="m297.9,270.48h0c-.63.21-1.3-.13-1.51-.75l-1.74-5.17c-.21-.63.13-1.3.75-1.51h0c.63-.21,1.3.13,1.51.75l1.74,5.17c.21.63-.13,1.3-.75,1.51Z"/><polygon class="cls-64" points="311.23 275.78 311.23 263.28 310.67 263.28 310.67 275.78 310.03 275.78 310.03 256.31 311.87 256.31 311.87 275.78 311.23 275.78"/><rect class="cls-57" x="309.51" y="270.36" width="3.54" height="5.42"/><rect class="cls-35" x="295.14" y="268.75" width="8.58" height="3.06" rx="1.53" ry="1.53"/><path class="cls-64" d="m305.24,271.95l4.67-.03-1.04-3.66c-2.08,1.51-2.2,1.56-3.63,3.69Z"/><path class="cls-64" d="m308.18,270.05h0c-.19.18-.5.17-.68-.03l-2.76-3.05c-.17-.2-.16-.49.03-.68h0s0,0,.01-.01c.19-.17.49-.16.67.03l2.76,3.05c.18.19.17.5-.02.68Z"/><path class="cls-64" d="m307.51,270.02l-3.4-3.76c-.17-.2-.16-.49.03-.68h0s0,0,.01-.01c.19-.17.49-.16.67.03l3.4,3.76"/><path class="cls-47" d="m302.81,266.77h0c.16.17.42.18.59.02l1.93-1.77s0,0,0,0c.17-.16.18-.42.02-.59h0c-.16-.17-.42-.18-.59-.02l-1.93,1.77c-.17.16-.18.42-.02.59Z"/><path class="cls-62" d="m295.3,256.5c-.7,0-1.27.57-1.27,1.27v16.76c0,.7.57,1.27,1.27,1.27h14.45c.7,0,1.49-.61,1.27-1.27l-5.35-16.76c-.22-.67-.57-1.27-1.27-1.27h-9.1Zm8.84.85c.62,0,.96.55,1.15,1.16l4.82,15.27c.19.61-.52,1.16-1.15,1.16h-13.04c-.64,0-1.15-.52-1.15-1.16v-15.27c0-.64.52-1.16,1.15-1.16h8.22Z"/><g><path class="cls-46" d="m297.43,268.17s1.31.53,3.19-.78c-.31-.84-.93-2.99-1.02-3.35s-.64-.86-1.57-.67-.75.93-.78,1.71.18,3.08.18,3.08Z"/><path class="cls-46" d="m297.74,268.25s-.09.77,1.59.88c1.69.11,3.57,0,3.57,0l.98,2.62.47-.13-.38-3.04s-.09-.72-.91-.73c-1.13-.02-1.93,0-2.44-.44-1,.2-2.88.85-2.88.85Z"/><polygon class="cls-46" points="301.67 269.06 302.69 271.74 303.13 271.66 302.75 268.87 301.67 269.06"/><path class="cls-46" d="m303.88,271.74l-.09.74h1.57s.04-.32-.28-.33-.36-.04-.43-.13-.3-.41-.3-.41l-.47.13Z"/><path class="cls-46" d="m302.67,271.74l-.09.74h1.57s.04-.32-.28-.33-.36-.04-.43-.13-.3-.41-.3-.41l-.47.13Z"/><path class="cls-46" d="m299.53,263.89s.72,1.94,3.14,1.35c.06.15,0,.5,0,.5,0,0-1.76.87-3.3-.83-.31-.53-.38-.68-.33-.84s.22-.33.48-.19Z"/><path class="cls-46" d="m302.67,265.24s.65-.47,1.12-.1c.18.16-.11.65-.42.67-.3-.12-.5-.14-.7-.06-.22-.07-.07-.46,0-.5Z"/><path class="cls-46" d="m296.92,261.4s3.43-1.3,3.37-1.29-.89-.16-.89-.16c0,0-.46-.92-1.67-.62-1.21.3-1.07,1.57-.81,2.07Z"/><path class="cls-46" d="m299.48,260.43l.1.63s.31.55.25.58-.25.13-.25.13c0,0,.19.83-.65.96-.25.3-.21.63-.24.63s-.84.07-.84.07l-.12-.68s-.74-.55-.72-1.38c1.06-.5,2.02-.98,2.46-.94Z"/></g><path class="cls-62" d="m294.92,270.85h14.92s1.18,3.53,1.18,3.53c.24.74-.57,1.42-1.27,1.42h-14.45c-.75-.04-1.32-.68-1.28-1.43v-3.95c.2.3.54.46.9.42Z"/><rect class="cls-57" x="291.2" y="267.48" width="6.74" height="6.32" rx="1.05" ry="1.05"/><path class="cls-58" d="m310.6,273.12l.42,1.27c.24.74-.57,1.42-1.27,1.42h-14.45c-.75-.04-1.32-.68-1.28-1.42v-1.27h16.58Z"/><path class="cls-62" d="m294.56,273.8h-2.33c-.58,0-1.05-.47-1.05-1.05v-4.21c0-.58.47-1.05,1.05-1.05h2.33v6.32Z"/><rect class="cls-37" x="311.82" y="254.53" width="9.93" height="8.43"/><rect class="cls-55" x="311.82" y="254.53" width="9.95" height="1.86"/><rect class="cls-41" x="311.57" y="254.4" width="10.42" height="1.49"/><rect class="cls-33" x="317.8" y="256.58" width="3.38" height="1.54"/><rect class="cls-41" x="318.04" y="256.77" width=".36" height="1.14"/><rect class="cls-41" x="318.68" y="256.77" width=".36" height="1.14"/><rect class="cls-41" x="319.35" y="256.77" width=".36" height="1.14"/><rect class="cls-41" x="319.96" y="256.77" width=".36" height="1.14"/><rect class="cls-41" x="320.57" y="256.77" width=".36" height="1.14"/><polygon class="cls-64" points="323.18 263.82 310.03 263.82 310.03 262.94 322.16 262.94 323.18 263.82"/><path class="cls-31" d="m307.36,275.7c0-1.72,1.39-3.11,3.11-3.11,1.72,0,3.11,1.39,3.11,3.11,0,1.72-1.39,3.11-3.11,3.11-1.71,0-3.1-1.39-3.11-3.11Z"/><path class="cls-56" d="m309.24,275.7c0-.68.55-1.22,1.22-1.22s1.22.55,1.22,1.22c0,.68-.55,1.22-1.22,1.22-.68,0-1.22-.55-1.22-1.22Z"/><path class="cls-47" d="m306.49,274.06h.76c.34-.67.89-1.22,1.56-1.56,1.77-.91,3.94-.21,4.85,1.56h.76c-.66-1.6-2.22-2.64-3.95-2.65-1.74,0-3.31,1.04-3.97,2.65Z"/><circle class="cls-30" cx="294.21" cy="275.87" r="3.11"/><path class="cls-56" d="m292.98,275.87s0,0,0,0c0-.68.55-1.22,1.22-1.22s1.22.55,1.22,1.22-.55,1.22-1.22,1.22c-.68,0-1.22-.55-1.22-1.22Z"/><path class="cls-47" d="m290.24,274.21h.76c.34-.67.89-1.22,1.56-1.56,1.77-.91,3.94-.21,4.85,1.56h.75c-.67-1.59-2.22-2.63-3.95-2.63-1.73,0-3.29,1.04-3.96,2.63Z"/></g><g><g><circle class="cls-30" cx="86.93" cy="324.57" r="4.54"/><circle class="cls-41" cx="86.93" cy="324.57" r="2.05"/><circle class="cls-30" cx="45.75" cy="325" r="4.54"/><circle class="cls-41" cx="45.83" cy="325" r="2.05"/><circle class="cls-30" cx="97.34" cy="324.32" r="4.54"/><circle class="cls-41" cx="97.34" cy="324.32" r="2.05"/><polygon class="cls-38" points="144.6 319 163.93 319 162.33 323.21 146.19 323.21 144.6 319"/><circle class="cls-30" cx="149.71" cy="325" r="4.54"/><circle class="cls-41" cx="149.71" cy="325" r="2.05"/><circle class="cls-30" cx="160.11" cy="324.75" r="4.54"/><circle class="cls-41" cx="160.11" cy="324.75" r="2.05"/></g><rect class="cls-57" x="75.21" y="294.45" width="89.96" height="22.82"/><path class="cls-63" d="m105.65,317.27c-1.06,0-1.45-.58-1.54-.74-.01-.03-.02-.04-.02-.04v.03c-.31-.94-1.19-1.62-2.24-1.62h-26.75v4.1h90.17v-1.73h-59.62Z"/><rect class="cls-53" x="75.21" y="290.37" width="89.96" height="4.08"/><polygon class="cls-53" points="167.67 290.37 165.17 290.37 165.17 319 167.67 316.81 167.67 290.37"/><g><line class="cls-21" x1="86.55" y1="298.18" x2="86.55" y2="313.53"/><line class="cls-21" x1="100.01" y1="313.53" x2="100.01" y2="298.18"/><line class="cls-21" x1="113.46" y1="313.53" x2="113.46" y2="298.18"/><line class="cls-21" x1="126.92" y1="313.53" x2="126.92" y2="298.18"/><line class="cls-21" x1="140.38" y1="313.53" x2="140.38" y2="298.18"/><line class="cls-21" x1="153.84" y1="298.18" x2="153.84" y2="313.53"/></g><g><path class="cls-29" d="m73.67,290.24v25.56c0,1.97-.82,2.28-.82,2.28,0,0-.93.84-3.62,3.31-2.69,2.47-5.69,2.33-5.69,2.33h-28.99c-1.38,0-.94-1.06-.94-2.27,0-2.5,1.03-3.85,1.03-3.85,0,0,.41-.64,3.01-4.19,1.62-2.2,4.1-5.54,7.84-10.54.1-.14.21-.28.32-.42,9.71-12.63,20.07-12.2,20.07-12.2h7.79Z"/><path class="cls-55" d="m34.56,323.71s-.09,1.18.44,2.24h5.43s1.35.07,1.39-.77,0-1.47,0-1.47h-7.26Z"/><path class="cls-53" d="m36.45,321.72s1.5,0,1.96-1.32,1.68-2.6,2.69-3.2c-.71,0-2.1.07-2.8.77s-1.83,1.32-1.85,3.75Z"/><path class="cls-53" d="m61.87,302.44s-1.24,5.54-5.61,6.77c-4.37,1.24-16.08,3.97-18.61,4.19,1.62-2.2,4.1-5.54,7.84-10.54.1-.14.21-.28.32-.42h16.05Z"/><path class="cls-48" d="m40.15,316.59c7.31-2.25,18.24-1.77,25.87-1.93,0,0,0,.66,0,.66-7.66-.03-18.48-.8-25.87,1.27h0Z"/><path class="cls-38" d="m54.72,319.76c-1.49.5-2.5,1.89-2.5,3.47h0c0,.53.44.97.99.97h49.77s.59-.99.59-3.82c0-.64.05-1.1-.95-1.65-.99-.55-1.65-.79-3.23-.95s-17.83-.51-22.8-.51-8.63.22-8.63.22c0,0-7.12.24-13.24,2.27Z"/></g></g><g><path class="cls-16" d="m111.33,215.56c.54,2.32,2.61,4.05,5.09,4.05s4.55-1.73,5.09-4.05"/><path class="cls-16" d="m121.51,215.56c.54,2.32,2.61,4.05,5.09,4.05"/><path class="cls-16" d="m106.23,219.61c2.48,0,4.55-1.73,5.09-4.05"/></g><g><path class="cls-16" d="m27.5,170.74c.51,2.2,2.48,3.84,4.83,3.84s4.33-1.64,4.83-3.84"/><path class="cls-16" d="m37.17,170.74c.51,2.2,2.48,3.84,4.83,3.84s4.33-1.64,4.83-3.84"/><path class="cls-16" d="m22.66,174.59c2.36,0,4.33-1.64,4.83-3.84"/><path class="cls-16" d="m46.84,170.74c.51,2.2,2.48,3.84,4.83,3.84s4.33-1.64,4.83-3.84"/><path class="cls-16" d="m56.5,170.74c.51,2.2,2.48,3.84,4.83,3.84s4.33-1.64,4.83-3.84"/><path class="cls-16" d="m66.17,170.74c.51,2.2,2.48,3.84,4.83,3.84s4.33-1.64,4.83-3.84"/><path class="cls-16" d="m75.84,170.74c.51,2.2,2.48,3.84,4.83,3.84s4.33-1.64,4.83-3.84"/><path class="cls-16" d="m85.51,170.74c.51,2.2,2.48,3.84,4.83,3.84"/></g><g><path class="cls-16" d="m76.29,138c2.23,0,4.1-1.56,4.58-3.64"/><path class="cls-16" d="m80.87,134.36c.48,2.09,2.35,3.64,4.58,3.64s4.1-1.56,4.58-3.64"/><path class="cls-16" d="m90.03,134.36c.48,2.09,2.35,3.64,4.58,3.64s4.1-1.56,4.58-3.64"/><path class="cls-16" d="m99.19,134.36c.48,2.09,2.35,3.64,4.58,3.64"/></g></svg>