<?xml version="1.0" encoding="UTF-8"?><svg id="Isolation_Mode" xmlns="http://www.w3.org/2000/svg" viewBox="0 0 118.31 118.31"><defs><style>.cls-1{fill:#000440;}.cls-2{fill:#fff;}.cls-3{fill:#929497;}.cls-4{fill:#a5d2eb;}.cls-5{fill:#bbbdbf;}.cls-6{fill:#ddd;}.cls-7{fill:#d89d29;}.cls-8{fill:#d4e8f4;}.cls-9{fill:#1069a0;}.cls-10{fill:#808184;}.cls-11{fill:#4ba5d7;}</style></defs><circle class="cls-8" cx="59.16" cy="59.16" r="59.16"/><circle class="cls-2" cx="59.16" cy="59.29" r="59.03"/><path class="cls-9" d="m114.45,79.98H3.86c8.38,22.39,29.98,38.33,55.29,38.33s46.91-15.94,55.29-38.33Z"/><g><polygon id="Seesaw_horiz_bar" class="cls-9" points="30.65 56.7 87.74 56.51 87.74 57.87 30.65 58.06 30.65 56.7"/><g id="Seesaw_stand"><path class="cls-11" d="m61.56,56.84v32.85c0,1.25-1.01,2.26-2.26,2.26s-2.26-1.01-2.26-2.26v-32.85c0-.88.5-1.64,1.24-2.02.31-.16.65-.24,1.02-.24.62,0,1.19.25,1.6.66.41.41.66.97.66,1.6h0Z"/><path class="cls-1" d="m76.75,91.95h-34.91c0-1.41,1.14-2.55,2.55-2.55h29.81c.7,0,1.34.29,1.8.75.46.46.75,1.1.75,1.8h0Z"/><path class="cls-10" d="m60.89,55.24c.41.41.66.97.66,1.6v5.92l-3.28-7.94c.31-.16.65-.24,1.02-.24.62,0,1.19.25,1.6.66Z"/><circle class="cls-5" cx="59.3" cy="57.3" r="1.41"/><path class="cls-3" d="m60.71,57.3c0,.59-.36,1.09-.87,1.31l-1.08-2.61c.17-.07.35-.11.54-.11.78,0,1.41.63,1.41,1.41h0Z"/></g><g id="Right_bucket"><path id="Hinge" class="cls-9" d="m91.52,52.35v5.29c0,1.72-1.12,3.17-2.68,3.67-.37.12-.77.18-1.17.18h-.44c-2.13,0-3.85-1.72-3.86-3.84v-5.29h8.14,0Z"/><circle id="Ellipse" class="cls-6" cx="87.45" cy="57.38" r="1.89"/><path id="Rounded_top" class="cls-1" d="m102.53,46.89h-30.16c0-8.33,6.75-15.08,15.08-15.08s15.08,6.75,15.08,15.08Z"/><path id="Bucket" class="cls-11" d="m71.1,46.89h32.71c0,3.14-2.54,5.68-5.68,5.68h-21.35c-3.14,0-5.68-2.54-5.68-5.68h0Z"/></g><g id="Left_bucket"><path id="Hinge-2" class="cls-9" d="m34.93,52.34v5.29c0,1.72-1.12,3.17-2.68,3.67-.37.12-.77.18-1.17.18h-.44c-2.13,0-3.85-1.72-3.86-3.84v-5.29h8.14,0Z"/><circle id="Ellipse-2" class="cls-6" cx="30.86" cy="57.36" r="1.89"/><path id="Rounded_top-2" class="cls-1" d="m45.73,46.91H15.56c0-8.33,6.75-15.08,15.08-15.08s15.08,6.75,15.08,15.08Z"/><path id="Bucket-2" class="cls-11" d="m47.22,46.89c0,1.57-.64,2.99-1.66,4.01-.16.16-.32.3-.49.44-.97.77-2.19,1.22-3.52,1.22h-21.35c-1.61,0-3.07-.67-4.1-1.75-.97-1.02-1.57-2.4-1.57-3.92h32.71Z"/></g><g id="Earth"><circle class="cls-4" cx="59.16" cy="57.16" r="10.2"/><polygon class="cls-1" points="57.41 49.96 57.71 49.78 57.54 49.51 57.49 49.14 57.52 48.83 57.27 48.68 57.02 48.84 56.88 49.27 56.87 49.64 56.85 49.91 57.22 50.02 57.41 49.96"/><path class="cls-1" d="m61.79,47.3l-.25.61-.31.42-.34-.27-.1-.32-.85-.21-.48.27-.34.5-.47.38-.18.22.13.32.46-.04.24.3-.21.47-.53-.02-.58.43-.38.13-.38.17.12.42-.23.1-.73-.19-.46.63.05.4.54.25.55-.03.23-.55.42-.11.21-.32.46.27.46-.21.5.33.4.69.45-.36.38.2.56-.33.59.63.9-.22.2.82-.69.6h0l-1.5-.11-.24.64-1.39-.79-.1-.62-2.49.25-1.22,1.13-.88,1.22v1.8s1.14,1.58,1.14,1.58l1.02.19,1.13-.31,1.13.51-.14.88.85,1.43-.35,1.06.75,1.49.26.56.49.14,1.2-.38,1.36-1.15.15-.72.8-.73-.09-1.59.71-1.38.55-.41.43-1.61-1.08.46-1.04-1.27-1.11-2.02.03.02.66-.32.6.78.44.92.83.82.48-.28.13-.3.39-.3.43-1.2-.56-.13-.49.17-.39-.14-.42-.75.73.09.46-.19.72.3.78-.11,1.13,1.4.87,1.07c-.54-4.1-3.51-7.46-7.5-8.52Z"/><path class="cls-1" d="m51.23,59.32l-1.07-.82-.12-.9-1.01-1.01-.05-.19c-.02.25-.03.5-.03.75,0,2.15.67,4.24,1.93,5.98l-.15-.56.51-.31-.14-1.21.48-.84-.36-.9Z"/></g><g id="Emissions_dots"><circle class="cls-7" cx="30.65" cy="40.19" r="3.67"/></g><g id="Offset_dots"><polygon class="cls-11" points="91.28 43.5 83.62 43.5 87.45 36.87 91.28 43.5"/></g></g></svg>