<?xml version="1.0" encoding="UTF-8"?><svg id="Isolation_Mode" xmlns="http://www.w3.org/2000/svg" viewBox="0 0 40 40"><defs><style>.cls-1{fill:none;}.cls-2{fill:#000440;}.cls-3{fill:#e5e5e5;}.cls-4{fill:#d89d29;}.cls-5,.cls-6{fill:#1069a0;}.cls-7{fill:#4ba5d7;}.cls-6{isolation:isolate;opacity:.5;}</style></defs><circle class="cls-1" cx="20" cy="20" r="20"/><circle class="cls-2" cx="20" cy="20" r="18"/><g><path class="cls-7" d="M24.62,12.62H15.4s-9.04,8.15-5.63,14.78c0,0,1.12,2.48,3.9,2.62h12.68c2.78-.14,3.9-2.62,3.9-2.62,3.4-6.62-5.63-14.78-5.63-14.78Z"/><path class="cls-7" d="M15.32,11.5h9.38l.82-2.13c.22-.57-.07-1.2-.63-1.42-.12-.05-.26-.07-.39-.07h-2.36c-1.18-1.13-3.04-1.13-4.22,0h-2.36c-.61,0-1.1,.49-1.1,1.1,0,.13,.02,.27,.07,.39l.81,2.13Z"/><path class="cls-3" d="M15.51,11.5h9c.31,0,.56,.25,.56,.56h0c0,.31-.25,.56-.56,.56H15.51c-.31,0-.56-.25-.56-.56h0c0-.31,.25-.57,.57-.57Z"/><path class="cls-6" d="M21.67,30.02h4.68c2.78-.14,3.9-2.62,3.9-2.62,3.4-6.62-5.63-14.78-5.63-14.78,0,0,4.35,8.15,.95,14.77,0,0-1.12,2.48-3.9,2.62Z"/></g><g id="Layer_2"><g id="layer"><rect class="cls-3" x="8.61" y="15.18" width="10.93" height="14.84" rx=".6" ry=".6"/><rect class="cls-5" x="10.02" y="20.55" width="1.9" height="1.9"/><rect class="cls-5" x="10.02" y="23.48" width="1.9" height="1.9"/><rect class="cls-5" x="10.02" y="26.42" width="1.9" height="1.9"/><rect class="cls-5" x="13.13" y="20.55" width="1.9" height="1.9"/><rect class="cls-5" x="13.13" y="23.48" width="1.9" height="1.9"/><rect class="cls-5" x="13.13" y="26.42" width="1.9" height="1.9"/><rect class="cls-5" x="16.24" y="20.55" width="1.9" height="1.9"/><rect class="cls-5" x="16.24" y="23.48" width="1.9" height="1.9"/><rect class="cls-5" x="16.24" y="26.42" width="1.9" height="1.9"/><rect class="cls-4" x="10.02" y="16.64" width="8.11" height="2.49"/></g></g></svg>