<?xml version="1.0" encoding="UTF-8"?><svg id="DT_-_Logos" xmlns="http://www.w3.org/2000/svg" viewBox="0 0 287.12 38.06"><defs><style>.cls-1,.cls-2{fill:#002137;}.cls-3{fill:#f90070;}.cls-4{fill:#b00063;}.cls-2{stroke:#002137;stroke-miterlimit:10;stroke-width:.17px;}</style></defs><g><g><path class="cls-2" d="M8.47,23.86c1.06,0,1.86,.26,2.4,.78,.54,.52,.81,1.35,.81,2.49v5.78h-1.44v-5.68c0-1.43-.66-2.14-1.99-2.14-.98,0-1.66,.28-2.04,.83-.38,.55-.56,1.35-.56,2.39v4.61h-1.46v-8.88h1.18l.22,1.21h.08c.29-.46,.69-.81,1.19-1.04,.51-.23,1.04-.34,1.61-.34Z"/><path class="cls-2" d="M22.31,33.08c-.8,0-1.5-.16-2.1-.48-.61-.32-1.09-.82-1.43-1.49-.35-.67-.52-1.54-.52-2.59s.18-1.98,.54-2.67c.36-.69,.85-1.19,1.48-1.51,.63-.32,1.34-.48,2.14-.48,.44,0,.88,.05,1.3,.14,.43,.09,.77,.21,1.04,.34l-.45,1.21c-.27-.1-.57-.19-.93-.28-.35-.09-.69-.13-.99-.13-1.75,0-2.62,1.12-2.62,3.36,0,1.07,.21,1.89,.64,2.46,.43,.57,1.06,.85,1.9,.85,.48,0,.9-.05,1.28-.15,.38-.1,.72-.22,1.03-.36v1.29c-.3,.15-.63,.27-.99,.36-.36,.08-.79,.12-1.3,.12Z"/><path class="cls-2" d="M34.42,28.45c0,1.47-.37,2.61-1.12,3.41-.75,.81-1.75,1.21-3.02,1.21-.78,0-1.48-.18-2.1-.54-.61-.36-1.1-.88-1.45-1.57-.35-.69-.53-1.53-.53-2.51,0-1.47,.37-2.6,1.1-3.4,.73-.8,1.74-1.19,3.02-1.19,.8,0,1.5,.18,2.12,.54,.62,.36,1.1,.88,1.45,1.56,.35,.68,.52,1.51,.52,2.49Zm-6.71,0c0,1.05,.21,1.88,.62,2.49,.41,.61,1.07,.92,1.98,.92s1.55-.31,1.97-.92c.42-.61,.63-1.44,.63-2.49s-.21-1.87-.63-2.47c-.42-.6-1.08-.89-1.99-.89s-1.56,.3-1.97,.89c-.41,.6-.61,1.42-.61,2.47Z"/><path class="cls-2" d="M38.18,32.91h-1.46v-12.6h1.46v12.6Z"/><path class="cls-2" d="M42.46,32.91h-1.46v-12.6h1.46v12.6Z"/><path class="cls-2" d="M48.64,23.88c1.08,0,1.88,.24,2.4,.71,.52,.48,.78,1.23,.78,2.27v6.05h-1.06l-.28-1.26h-.07c-.39,.49-.8,.85-1.23,1.08s-1.02,.35-1.76,.35c-.81,0-1.47-.21-2.01-.64-.53-.43-.8-1.09-.8-2s.35-1.57,1.04-2.05c.7-.48,1.77-.74,3.22-.79l1.51-.05v-.53c0-.74-.16-1.25-.48-1.54-.32-.29-.77-.43-1.36-.43-.46,0-.91,.07-1.33,.21-.42,.14-.81,.3-1.18,.47l-.45-1.09c.39-.21,.85-.39,1.38-.54,.53-.15,1.08-.22,1.66-.22Zm1.74,4.69l-1.31,.05c-1.1,.04-1.87,.22-2.3,.53-.43,.31-.64,.75-.64,1.31,0,.5,.15,.86,.46,1.09,.3,.23,.69,.35,1.17,.35,.74,0,1.36-.21,1.86-.62,.5-.41,.75-1.05,.75-1.91v-.8Z"/><path class="cls-2" d="M56.03,20.31v3.07c0,.38,0,.73-.02,1.05-.02,.33-.04,.58-.06,.77h.08c.25-.38,.6-.69,1.04-.94,.44-.25,1.01-.38,1.71-.38,1.11,0,1.99,.38,2.66,1.15,.67,.77,1,1.91,1,3.44s-.34,2.67-1.01,3.45c-.67,.77-1.56,1.16-2.65,1.16-.7,0-1.27-.13-1.71-.38-.44-.25-.79-.56-1.04-.91h-.12l-.3,1.13h-1.04v-12.6h1.46Zm2.5,4.77c-.95,0-1.61,.27-1.96,.81-.36,.54-.54,1.38-.54,2.52v.07c0,1.09,.18,1.93,.54,2.51s1.02,.87,2,.87c.8,0,1.39-.29,1.78-.88,.39-.59,.59-1.43,.59-2.54,0-2.24-.8-3.36-2.4-3.36Z"/><path class="cls-2" d="M72.49,28.45c0,1.47-.37,2.61-1.12,3.41-.75,.81-1.75,1.21-3.02,1.21-.78,0-1.48-.18-2.1-.54-.61-.36-1.1-.88-1.45-1.57-.35-.69-.53-1.53-.53-2.51,0-1.47,.37-2.6,1.1-3.4,.73-.8,1.74-1.19,3.02-1.19,.8,0,1.5,.18,2.12,.54,.62,.36,1.1,.88,1.45,1.56,.35,.68,.52,1.51,.52,2.49Zm-6.71,0c0,1.05,.21,1.88,.62,2.49,.41,.61,1.07,.92,1.98,.92s1.55-.31,1.97-.92c.42-.61,.63-1.44,.63-2.49s-.21-1.87-.63-2.47c-.42-.6-1.08-.89-1.99-.89s-1.56,.3-1.97,.89c-.41,.6-.61,1.42-.61,2.47Z"/><path class="cls-2" d="M78.94,23.86c.17,0,.34,0,.53,.02,.19,.02,.36,.04,.51,.07l-.18,1.34c-.14-.03-.3-.06-.48-.08-.18-.02-.34-.03-.48-.03-.45,0-.88,.12-1.28,.37-.4,.25-.72,.6-.95,1.04-.24,.45-.36,.97-.36,1.57v4.74h-1.46v-8.88h1.19l.17,1.62h.07c.28-.49,.64-.91,1.1-1.26,.46-.35,1-.53,1.62-.53Z"/><path class="cls-2" d="M84.67,23.88c1.08,0,1.88,.24,2.4,.71,.52,.48,.78,1.23,.78,2.27v6.05h-1.06l-.28-1.26h-.07c-.39,.49-.8,.85-1.23,1.08s-1.02,.35-1.76,.35c-.81,0-1.47-.21-2.01-.64-.53-.43-.8-1.09-.8-2s.35-1.57,1.04-2.05c.7-.48,1.77-.74,3.22-.79l1.51-.05v-.53c0-.74-.16-1.25-.48-1.54-.32-.29-.77-.43-1.36-.43-.46,0-.91,.07-1.33,.21-.42,.14-.81,.3-1.18,.47l-.45-1.09c.39-.21,.85-.39,1.38-.54,.53-.15,1.08-.22,1.66-.22Zm1.74,4.69l-1.31,.05c-1.1,.04-1.87,.22-2.3,.53-.43,.31-.64,.75-.64,1.31,0,.5,.15,.86,.46,1.09,.3,.23,.69,.35,1.17,.35,.74,0,1.36-.21,1.86-.62,.5-.41,.75-1.05,.75-1.91v-.8Z"/><path class="cls-2" d="M93.57,31.88c.22,0,.45-.02,.68-.05,.23-.03,.42-.08,.56-.13v1.11c-.15,.08-.38,.14-.66,.19-.29,.05-.56,.07-.83,.07-.46,0-.89-.08-1.28-.24-.39-.16-.71-.44-.95-.84s-.36-.96-.36-1.67v-5.17h-1.26v-.7l1.28-.58,.58-1.89h.86v2.04h2.57v1.13h-2.57v5.14c0,.54,.13,.94,.39,1.2,.26,.26,.59,.39,1,.39Z"/><path class="cls-2" d="M97.34,20.7c.22,0,.42,.07,.59,.22,.17,.15,.26,.38,.26,.7s-.09,.56-.26,.7c-.17,.15-.37,.22-.59,.22-.24,0-.45-.07-.61-.22-.17-.15-.25-.38-.25-.7s.08-.56,.25-.7c.17-.15,.37-.22,.61-.22Zm.71,3.33v8.88h-1.46v-8.88h1.46Z"/><path class="cls-2" d="M108.59,28.45c0,1.47-.37,2.61-1.12,3.41-.75,.81-1.75,1.21-3.02,1.21-.78,0-1.48-.18-2.1-.54-.61-.36-1.1-.88-1.45-1.57-.35-.69-.53-1.53-.53-2.51,0-1.47,.37-2.6,1.1-3.4,.73-.8,1.74-1.19,3.02-1.19,.8,0,1.5,.18,2.12,.54,.62,.36,1.1,.88,1.45,1.56,.35,.68,.52,1.51,.52,2.49Zm-6.71,0c0,1.05,.21,1.88,.62,2.49,.41,.61,1.07,.92,1.98,.92s1.55-.31,1.97-.92c.42-.61,.63-1.44,.63-2.49s-.21-1.87-.63-2.47c-.42-.6-1.08-.89-1.99-.89s-1.56,.3-1.97,.89c-.41,.6-.61,1.42-.61,2.47Z"/><path class="cls-2" d="M115.17,23.86c1.06,0,1.86,.26,2.4,.78,.54,.52,.81,1.35,.81,2.49v5.78h-1.44v-5.68c0-1.43-.66-2.14-1.99-2.14-.98,0-1.66,.28-2.04,.83-.38,.55-.56,1.35-.56,2.39v4.61h-1.46v-8.88h1.18l.22,1.21h.08c.29-.46,.69-.81,1.19-1.04,.51-.23,1.04-.34,1.61-.34Z"/><path class="cls-2" d="M132.7,32.89l-1.52-5.01c-.14-.45-.27-.89-.38-1.33-.11-.43-.19-.77-.23-1.03h-.07c-.04,.25-.12,.6-.22,1.03s-.23,.88-.38,1.34l-1.59,4.99h-1.66l-2.44-8.88h1.51l1.23,4.74c.12,.48,.24,.96,.35,1.44,.11,.49,.19,.89,.23,1.21h.07c.03-.19,.08-.42,.15-.7s.14-.57,.22-.87c.08-.3,.15-.58,.23-.82l1.57-5.01h1.59l1.53,5.01c.11,.39,.23,.8,.35,1.24,.12,.44,.2,.82,.25,1.13h.07c.03-.28,.11-.66,.22-1.14,.12-.49,.24-.98,.37-1.49l1.24-4.74h1.49l-2.47,8.88h-1.71Z"/><path class="cls-2" d="M139.22,20.7c.22,0,.42,.07,.59,.22,.17,.15,.26,.38,.26,.7s-.09,.56-.26,.7c-.17,.15-.37,.22-.59,.22-.24,0-.45-.07-.61-.22-.17-.15-.25-.38-.25-.7s.08-.56,.25-.7c.17-.15,.37-.22,.61-.22Zm.71,3.33v8.88h-1.46v-8.88h1.46Z"/><path class="cls-2" d="M145.71,31.88c.22,0,.45-.02,.68-.05,.23-.03,.42-.08,.56-.13v1.11c-.15,.08-.38,.14-.66,.19-.29,.05-.56,.07-.83,.07-.46,0-.89-.08-1.28-.24-.39-.16-.71-.44-.95-.84s-.36-.96-.36-1.67v-5.17h-1.26v-.7l1.28-.58,.58-1.89h.86v2.04h2.57v1.13h-2.57v5.14c0,.54,.13,.94,.39,1.2,.26,.26,.59,.39,1,.39Z"/><path class="cls-2" d="M150.19,20.31v3.7c0,.44-.03,.86-.08,1.24h.1c.29-.45,.68-.8,1.17-1.03,.49-.23,1.02-.35,1.6-.35,1.07,0,1.88,.26,2.43,.77,.55,.51,.82,1.34,.82,2.48v5.78h-1.44v-5.68c0-1.43-.66-2.14-1.99-2.14-.99,0-1.68,.28-2.05,.84-.37,.56-.56,1.36-.56,2.39v4.59h-1.46v-12.6h1.46Z"/></g><path class="cls-2" d="M1.54,33.07H.09v-12.16H1.54v12.16Z"/></g><g><path class="cls-3" d="M244.38,5.65L228.08,0l-16.36,5.65,16.36,5.6,13.7-4.7-13.28-4.54,.76-.27,13.19,4.58,1.94-.66h0Zm-2,2.62c.4,0,.73-.33,.73-.73s-.33-.73-.73-.73-.73,.33-.73,.73,.33,.73,.73,.73h0Zm-.5,.32l-.34,.61v4.94l.24,.23v-4.91h.24v5.16l.24,.23v-5.39h.23v5.39l.24-.24v-5.15h.25v4.91l.23-.23v-4.94l-.39-.61h-.94Z"/><polygon class="cls-3" points="237.81 14.03 237.81 8.55 228.08 11.9 228.08 17.31 237.81 14.03 237.81 14.03"/><polygon class="cls-4" points="218.35 14.03 218.35 8.55 228.08 11.9 228.08 17.31 218.35 14.03 218.35 14.03"/></g><g><path class="cls-3" d="M263.87,33.61c-.9,0-1.75-.16-2.53-.48-.78-.32-1.45-.79-2-1.38-.56-.59-1-1.29-1.3-2.09-.31-.8-.47-1.69-.47-2.64,0-.89,.15-1.74,.45-2.54,.3-.8,.72-1.5,1.26-2.09,.55-.59,1.2-1.07,1.94-1.41,.76-.35,1.58-.53,2.44-.53,.94,0,1.8,.18,2.55,.55,.75,.35,1.38,.85,1.88,1.46,.51,.61,.89,1.33,1.15,2.12,.26,.78,.38,1.63,.38,2.52v.8h-9.71c.06,.41,.16,.8,.3,1.16,.2,.51,.47,.96,.82,1.34,.36,.38,.78,.69,1.26,.89,.49,.22,1.05,.32,1.68,.32,.67,0,1.32-.13,1.91-.37,.6-.26,1.12-.63,1.57-1.1l.36-.39,1.23,1.55-.27,.29c-.62,.65-1.34,1.16-2.15,1.51-.8,.35-1.73,.52-2.75,.52Zm-9.39,0c-.91,0-1.61-.28-2.07-.83-.45-.52-.68-1.25-.68-2.17v-7.83h-1.93v-2.05h1.93v-3.19h2.2v3.19h2.37v2.05h-2.37v7.64c0,.37,.07,.67,.22,.9,.11,.16,.27,.24,.53,.24,.2,0,.39-.04,.56-.13,.17-.09,.31-.18,.4-.28l.45-.5,.93,1.86-.23,.23c-.26,.26-.58,.47-.94,.63-.38,.15-.83,.23-1.36,.23Zm-20.9,0c-.54,0-1.09-.09-1.63-.28-.54-.19-1.04-.47-1.47-.83-.43-.37-.79-.83-1.05-1.37-.26-.55-.4-1.18-.4-1.87s.13-1.32,.4-1.87c.27-.54,.62-1.01,1.05-1.37,.43-.37,.92-.65,1.46-.82,.53-.18,1.08-.27,1.64-.27,1.36,0,2.54,.36,3.5,1.08v-1.31c0-.72-.24-1.25-.73-1.62-.54-.4-1.18-.59-1.95-.59-.65,0-1.25,.12-1.78,.36-.52,.23-1.03,.64-1.52,1.2l-.36,.42-1.3-1.61,.27-.29c.65-.7,1.37-1.24,2.12-1.59,.77-.36,1.68-.54,2.7-.54,.63,0,1.23,.08,1.79,.23,.57,.16,1.08,.42,1.51,.76,.44,.35,.79,.81,1.04,1.34,.24,.54,.37,1.17,.37,1.87v8.67h-2.18v-.8c-.97,.73-2.15,1.09-3.5,1.09Zm-30.04,0c-1.01,0-1.91-.16-2.69-.47-.79-.31-1.51-.82-2.14-1.52l-.26-.29,1.35-1.69,.36,.45c.33,.42,.79,.77,1.4,1.08,.59,.3,1.27,.46,2.01,.46,.87,0,1.54-.19,2-.57,.44-.36,.65-.8,.65-1.34,0-.39-.12-.67-.37-.87-.31-.25-.72-.46-1.22-.62-.53-.17-1.1-.33-1.74-.48-.66-.15-1.28-.35-1.85-.59-.6-.25-1.11-.61-1.53-1.07-.44-.48-.66-1.14-.66-1.95,0-.51,.11-1,.32-1.46,.22-.47,.53-.86,.94-1.19,.4-.32,.89-.58,1.45-.77,.57-.18,1.21-.28,1.91-.28,1.08,0,2.01,.19,2.74,.55,.73,.37,1.33,.81,1.78,1.31l.26,.29-1.32,1.68-.36-.5c-.29-.4-.7-.73-1.23-.98-.55-.25-1.16-.38-1.87-.38-.81,0-1.43,.17-1.86,.51-.4,.32-.59,.7-.59,1.16,0,.34,.11,.57,.35,.74,.32,.23,.73,.42,1.23,.57,.49,.15,1.05,.3,1.75,.47,.66,.15,1.29,.36,1.86,.64,.62,.29,1.13,.68,1.52,1.16,.43,.51,.65,1.21,.65,2.06,0,.52-.11,1.03-.32,1.52-.22,.48-.54,.9-.96,1.26-.42,.36-.93,.63-1.53,.82-.59,.19-1.28,.29-2.05,.29Zm23.17-.29h-2.17v-8.63c0-.71-.15-1.27-.46-1.66-.28-.36-.75-.53-1.42-.53-.28,0-.55,.04-.83,.13-.28,.09-.56,.22-.83,.39-.26,.16-.51,.36-.74,.58-.2,.19-.35,.37-.48,.55v9.17h-2.2v-8.63c0-.71-.15-1.27-.45-1.67-.27-.36-.74-.53-1.43-.53-.25,0-.52,.05-.79,.14-.29,.1-.57,.23-.84,.39-.27,.16-.51,.35-.74,.57-.19,.2-.36,.39-.5,.58v9.13h-2.18v-12.59h2.18v1.04c.21-.18,.45-.35,.72-.51,.38-.24,.78-.43,1.2-.58,.46-.16,.93-.24,1.38-.24,.51,0,.95,.07,1.35,.21,.4,.14,.75,.33,1.05,.57,.31,.25,.54,.52,.72,.82,.03,.04,.05,.09,.07,.13,.07-.07,.14-.15,.21-.22,.29-.28,.63-.54,1-.77,.37-.22,.76-.4,1.18-.54,.43-.14,.89-.22,1.35-.22,2.39,0,3.65,1.39,3.65,4.01v8.87Zm47.59,0h-2.18v-12.58h2.18v1.26c.32-.3,.66-.57,1.02-.8,.72-.47,1.55-.7,2.46-.7h.46v2.44l-.58-.17c-.07-.02-.13-.03-.18-.03h-.32c-.24,0-.5,.05-.78,.15-.31,.11-.6,.25-.88,.43-.27,.17-.52,.37-.76,.6-.18,.18-.33,.37-.43,.55v8.85Zm-30.35,0h-2.17v-12.58h2.17v1.26c.32-.3,.66-.57,1.02-.8,.72-.47,1.55-.7,2.46-.7h.46v2.44l-.58-.16c-.07-.02-.13-.03-.18-.03h-.33c-.24,0-.5,.05-.79,.15-.31,.11-.6,.25-.88,.43-.27,.17-.53,.38-.75,.6-.18,.18-.33,.37-.43,.55v8.85Zm-9.93-6.47c-.85,0-1.51,.23-2,.7-.49,.46-.73,1.03-.73,1.74s.24,1.26,.72,1.72c.49,.46,1.17,.7,2,.7,.64,0,1.25-.12,1.8-.36,.49-.21,.92-.53,1.27-.94v-2.23c-.35-.41-.78-.73-1.28-.96-.55-.24-1.16-.37-1.79-.37Zm25.88-.87h7.49c-.03-.31-.1-.62-.21-.93-.15-.47-.39-.91-.7-1.29-.32-.39-.71-.7-1.18-.94-.46-.24-1.03-.37-1.68-.37-.62,0-1.15,.12-1.6,.36-.46,.24-.85,.56-1.17,.94-.31,.37-.56,.81-.73,1.3-.11,.32-.19,.64-.23,.94Z"/><path class="cls-1" d="M168.56,38.06c-.48,0-.95-.03-1.4-.08-.45-.05-.88-.15-1.28-.3-.39-.14-.77-.34-1.16-.59-.36-.24-.71-.54-1.09-.93l-.27-.28,1.3-1.74,.37,.44c.47,.55,.97,.94,1.49,1.15,.54,.22,1.22,.33,2.03,.33,.49,0,.96-.06,1.39-.19,.42-.12,.79-.31,1.1-.57,.31-.26,.56-.6,.75-1,.19-.41,.28-.92,.28-1.52v-.64c-.3,.27-.63,.51-1,.73-.78,.47-1.65,.71-2.6,.71-.83,0-1.61-.16-2.31-.46-.71-.31-1.32-.76-1.82-1.34-.5-.58-.89-1.28-1.15-2.08-.26-.79-.4-1.69-.4-2.67s.13-1.84,.4-2.66c.26-.81,.65-1.51,1.15-2.09,.5-.58,1.12-1.04,1.82-1.35,.7-.32,1.47-.48,2.31-.48,.91,0,1.76,.22,2.53,.64,.39,.21,.74,.47,1.07,.77v-1.12h2.2v12c0,.96-.16,1.79-.47,2.46-.31,.67-.74,1.23-1.28,1.66-.53,.43-1.15,.74-1.85,.92-.67,.18-1.39,.27-2.13,.27Zm25.55-4.45c-.91,0-1.61-.28-2.08-.83-.45-.52-.68-1.25-.68-2.17v-7.83h-1.93v-2.05h1.93v-3.19h2.2v3.19h2.37v2.05h-2.37v7.64c0,.38,.07,.68,.21,.89,.11,.17,.27,.24,.53,.24,.2,0,.39-.04,.57-.13,.17-.08,.31-.18,.4-.28l.45-.49,.93,1.86-.23,.23c-.26,.26-.58,.47-.94,.63-.38,.15-.83,.23-1.37,.23Zm-11.42,0c-.91,0-1.76-.16-2.53-.48-.78-.32-1.45-.79-2.01-1.38-.55-.59-.99-1.29-1.3-2.09-.31-.8-.47-1.69-.47-2.64,0-.88,.15-1.74,.45-2.54,.3-.8,.73-1.51,1.27-2.1,.54-.59,1.18-1.06,1.93-1.41,.75-.35,1.58-.53,2.44-.53,.94,0,1.8,.18,2.55,.54,.73,.35,1.37,.84,1.88,1.46,.5,.6,.89,1.32,1.15,2.12,.25,.79,.38,1.64,.38,2.52v.8h-9.72c.06,.4,.16,.79,.3,1.16,.2,.52,.48,.96,.83,1.34,.35,.38,.78,.68,1.26,.89,.48,.22,1.05,.33,1.68,.33,.68,0,1.32-.13,1.91-.37,.59-.25,1.12-.62,1.57-1.1l.36-.38,1.23,1.55-.27,.29c-.62,.66-1.34,1.16-2.14,1.51-.8,.35-1.73,.52-2.75,.52Zm-15.49-2.43c.44,.22,.95,.33,1.52,.33,.36,0,.71-.05,1.05-.15,.37-.11,.69-.25,.98-.42,.3-.17,.58-.38,.82-.61,.21-.2,.38-.41,.52-.63v-5.41c-.14-.21-.31-.42-.53-.63-.23-.23-.51-.43-.81-.6-.31-.18-.64-.32-.98-.42-.87-.25-1.83-.19-2.57,.17-.45,.22-.81,.52-1.12,.92-.31,.4-.55,.89-.72,1.44-.17,.56-.26,1.18-.26,1.83s.09,1.28,.26,1.83c.17,.55,.41,1.03,.72,1.42,.3,.39,.67,.69,1.12,.91Zm11.52-5.21h7.49c-.03-.31-.1-.62-.21-.93-.15-.47-.39-.9-.7-1.29-.31-.38-.71-.7-1.18-.94-.47-.25-1.02-.36-1.68-.36-.62,0-1.16,.12-1.59,.36-.46,.24-.85,.56-1.17,.94-.32,.38-.56,.81-.73,1.29-.11,.32-.19,.63-.24,.94Z"/></g><path class="cls-1" d="M282.27,24.11h-.57v-2.86h-.97v-.49h2.52v.49h-.98v2.86Zm2.79,0l-.93-2.6h-.04l.03,.6v2h-.55v-3.35h.87l.91,2.6,.94-2.6h.84v3.35h-.59v-1.95l.03-.64h-.04l-.98,2.59h-.48Z"/></svg>