<!-- Generator: Adobe Illustrator 24.1.2, SVG Export Plug-In  -->
<svg version="1.1" xmlns="http://www.w3.org/2000/svg" xmlns:xlink="http://www.w3.org/1999/xlink" x="0px" y="0px" width="64px"
	 height="72.9px" viewBox="0 0 64 72.9" style="overflow:visible;enable-background:new 0 0 64 72.9;" xml:space="preserve">
<style type="text/css">
	.st0{fill:#D6EAF6;}
	.st1{fill:#4BA5D7;}
	.st2{fill:#000440;}
	.st3{fill:none;stroke:#000440;stroke-miterlimit:10;}
	.st4{fill:#1069A0;}
</style>
<defs>
</defs>
<circle class="st0" cx="32" cy="40.9" r="32"/>
<path class="st1" d="M62.9,49.2C55.4,45.3,46.1,43,36.2,43C22.9,43,11,47,2.5,53.4C7.4,64.9,18.8,72.9,32,72.9
	C46.8,72.9,59.3,62.8,62.9,49.2z"/>
<g>
	<path class="st2" d="M33.4,72.9c5.9-0.2,11.4-2.1,16-5.1V22.6h-16V72.9z"/>
	<g>
		<line class="st3" x1="41.4" y1="4.9" x2="41.4" y2="17.6"/>
	</g>
	<circle class="st2" cx="41.4" cy="3.3" r="3.3"/>
	<polygon class="st1" points="22.6,25.4 22.6,26.8 60.2,26.8 60.2,25.4 41.4,14.4 	"/>
	<polygon class="st4" points="22.6,62.1 22.6,63.5 60.2,63.5 60.2,62.1 41.4,51.1 	"/>
	<polygon class="st4" points="22.6,49.8 22.6,51.3 60.2,51.3 60.2,49.8 41.4,38.9 	"/>
	<polygon class="st4" points="22.6,37.6 22.6,39.1 60.2,39.1 60.2,37.6 41.4,26.7 	"/>
	<rect x="33.4" y="26.7" class="st2" width="16" height="4.7"/>
	<rect x="33.4" y="39.1" class="st2" width="16" height="4.5"/>
	<rect x="33.4" y="51.3" class="st2" width="16" height="4.5"/>
	<polygon class="st4" points="60.2,25.4 60,25.3 22.8,25.3 22.6,25.4 22.6,26.8 60.2,26.8 	"/>
	<polygon class="st4" points="60.2,37.6 60,37.5 22.8,37.5 22.6,37.6 22.6,39.1 60.2,39.1 	"/>
	<polygon class="st4" points="60.2,49.9 60,49.8 22.8,49.8 22.6,49.9 22.6,51.3 60.2,51.3 	"/>
</g>
</svg>
