<?xml version="1.0" encoding="UTF-8"?><svg id="a" xmlns="http://www.w3.org/2000/svg" viewBox="0 0 65.89 64.16"><defs><style>.b{fill:#000440;}.c{fill:#a5d2eb;}.d{fill:#d6eaf6;}.e{fill:#1069a0;}.f{fill:#4ba5d7;}.g{fill:none;stroke:#000440;stroke-miterlimit:10;}</style></defs><g><path class="d" d="M32,0C14.7,0,.61,13.73,.02,30.88H63.98C63.39,13.73,49.3,0,32,0Z"/><path class="c" d="M17.63,35.39l2.46-9.21,4.97-6.07,.98,3.22,3.29-6.95,4.98-7.26,2.1,4.02,1.86,4.81,2.28-4.08,2.12,4.29,2.9-2.56,3.19,6.38,4.6,3.54,2.97-1.83,4.86,10.25s-9.7,1.98-9.75,2.19-33.8-.74-33.8-.74Z"/><path class="f" d="M32,64c17.67,0,32-14.33,32-32,0-.37,0-.75-.02-1.12H.02c-.01,.37-.02,.74-.02,1.12,0,17.67,14.33,32,32,32Z"/></g><g><path class="b" d="M31.94,64.16c8.78,0,16.73-3.54,22.51-9.26,0-.08-.67-6.38-13.24-6.38-5.23,0-4.18-5.39-.14-5.39,9.5,0,9.16-8.51,9.16-8.51l-.02-2.07h-5.04l.04,2.07c0,3.14-1.41,4.55-12.5,4.55s-12.17,6.99-21.46,6.99c-3.14,0-5.59,.43-7.51,1.09,5.39,10.06,16.01,16.9,28.22,16.9Z"/><line class="g" x1="50.09" y1="15.56" x2="50.09" y2="23.41"/><g><rect class="f" x="44.4" y="21.07" width="7.38" height="11.48" transform="translate(96.17 53.63) rotate(-180)"/><rect class="b" x="44.4" y="24.44" width="7.38" height="2.48" transform="translate(96.17 51.37) rotate(-180)"/><rect class="e" x="43.68" y="23.85" width="8.81" height="1.59" transform="translate(96.17 49.3) rotate(-180)"/><rect class="e" x="43.68" y="19.48" width="8.81" height="1.59" transform="translate(96.17 40.56) rotate(-180)"/><path class="e" d="M65.89,29.08h-11.94l-.76,.77H19.43l-1.74-1.85H6.29c.43,1.25,1.09,2.09,1.71,2.66,1.64,1.52,3.32,1.49,5.26,3.02,1.06,.84,1.72,1.76,2.15,2.51H61.66c.87-.85,1.94-2.07,2.84-3.67,.72-1.29,1.14-2.48,1.4-3.44Z"/><path class="b" d="M63.78,33.68c-.72,1.05-1.47,1.88-2.12,2.51H15.5l-.16-.12c-.42-.73-1.07-1.6-2.08-2.4H63.78Z"/><path class="f" d="M63.47,34.11H13.77c-.16-.14-.32-.29-.5-.43H63.78c-.1,.15-.2,.29-.3,.43Z"/><g><rect class="b" x="49.57" y="21.64" width="2.21" height="1.73" transform="translate(101.34 45.01) rotate(-180)"/><rect class="b" x="46.98" y="21.64" width="2.21" height="1.73" transform="translate(96.17 45.01) rotate(-180)"/><rect class="b" x="44.4" y="21.64" width="2.21" height="1.73" transform="translate(91 45.01) rotate(-180)"/></g></g></g></svg>