<?xml version="1.0" encoding="UTF-8"?><svg id="a" xmlns="http://www.w3.org/2000/svg" viewBox="0 0 262.33 34.3"><defs><style>.b{fill:#002856;}.c{fill:#fff;}.d{fill:#bb9905;}.e{fill:#231f20;}.f{fill:#9ab6d3;}</style></defs><g><path class="c" d="M56.04,27.13h-.29c.03-.19,.04-.36,.04-.51,0-.79-.47-1-1.34-1h-1.99l-.72,3.39h1.87c.93,0,1.34-.01,1.69-1.02h.26l-.57,2.78h-.29c.01-.14,.03-.3,.03-.37,0-.75-.37-.73-1.26-.73h-1.87l-.65,3.06c0,.18,.04,.4,.28,.5l2.2-.04c.95-.01,1.66-.4,1.94-1.58h.28l-.47,2.2h-4.62l-2.68,.04,.07-.32c.64-.03,1.47-.22,1.76-.68l1.49-7.03c-.07-.28-.68-.46-1.3-.48l.06-.3h5.45c.4,0,.66-.04,.86-.1h.26l-.47,2.2Z"/><path class="c" d="M62.81,28.88c-.22-.07-.76-.12-1-.12-.15,0-.43,.26-.69,.59l-.95,1.19,.36,1.45c.05,.21,.21,.65,.26,.77,.11,.26,.19,.37,.37,.37s.69-.46,1.26-1.11l.22,.21c-.89,1-1.48,1.67-2.23,1.67-.22,0-.4-.26-.51-.57-.08-.23-.15-.48-.21-.69l-.28-1.19c-1.13,1.53-1.74,2.48-2.48,2.48-.35,0-.51-.28-.51-.6,0-.18,.04-.4,.14-.55,.26,.08,.77,.12,1.01,.12,.15,0,.46-.26,.72-.6l1.01-1.26c-.15-.65-.32-1.4-.57-2.2-.05-.18-.17-.39-.47-.39-.18,0-.73,.11-.82,1.27h-.3c0-1.54,.98-2.02,1.56-2.02,.69,0,.89,.51,.98,.84,.17,.57,.24,.97,.37,1.56,1.11-1.51,1.63-2.41,2.37-2.41,.35,0,.53,.28,.53,.59,0,.18-.04,.4-.15,.55Z"/><path class="c" d="M64.47,31.06c-.01,.17-.03,.39-.03,.55,0,.98,.37,1.6,1.01,1.6,.46,0,1.02-.44,1.69-1.15l.22,.22c-.9,1.08-1.87,1.65-2.56,1.65-.87,0-1.42-.89-1.42-2.13,0-1.07,.47-2.12,1.15-2.89,.62-.72,1.34-1.19,2.06-1.19,.8,0,1.15,.53,1.15,1.08,0,.79-1.08,1.66-3.26,2.25Zm1.27-2.78c-.54,.36-1.05,1.3-1.24,2.43,1.13-.3,1.76-.75,2.19-1.13,.03-.07,.06-.18,.06-.25,0-.57-.11-1.05-1-1.05Z"/><path class="c" d="M72.08,29.21c-.37-.4-.72-.76-1.42-.8-.44,.26-1.19,1.49-1.19,2.93s.44,1.9,.98,1.9c.42,0,1.02-.46,1.67-1.16l.22,.22c-.9,1.08-1.87,1.65-2.53,1.65-.87,0-1.45-.9-1.45-2.14,0-1.06,.47-2.07,1.13-2.85,.66-.78,1.45-1.19,2.17-1.19s1.12,.41,1.12,.71c0,.24-.44,.62-.71,.75Z"/><path class="c" d="M77.49,33.91c-.3,0-.41-.43-.41-.91,0-.35,.44-1.98,.44-1.98-1.22,1.56-2.5,2.89-3.25,2.89-.24,0-.59-.53-.59-.94,0-.25,.07-.57,.21-1.07l.66-2.53c.07-.25,.19-.76,.19-.82s.03-.18-.04-.18c-.18,0-.58,.4-1.13,1.18l-.26-.18c.77-1.11,1.37-1.65,2.01-1.65,.3,0,.43,.39,.43,.83,0,.14-.03,.28-.05,.41-.37,1.47-.79,3.04-.89,3.61,0,.37,.08,.53,.24,.53,.29,0,1.47-1.25,2.56-2.64l.55-2.6h1.04l-.97,4.44c-.03,.17-.07,.39-.07,.48,0,.21,.03,.36,.18,.36s.65-.5,1.18-1.12l.25,.21c-.8,.97-1.54,1.67-2.25,1.67Z"/><path class="c" d="M83.88,28.49h-1.45l-.69,3.68c-.03,.14-.05,.46-.05,.55,0,.26,.08,.44,.24,.44s.82-.54,1.36-1.25l.25,.21c-.87,1.12-1.69,1.78-2.41,1.78-.3,0-.5-.43-.5-.91,0-.25,.07-.69,.15-1.09l.65-3.43-.87,.03,.07-.29c.94-.43,1.45-.84,2.05-1.8h.3l-.43,1.49h1.51l-.17,.58Z"/><path class="c" d="M85.14,33.91c-.3,0-.42-.43-.42-.91,0-.25,.11-.73,.19-1.16l.62-2.5c.07-.3,.17-.76,.17-.82,0-.04,.03-.14-.04-.14-.18,0-.58,.4-1.13,1.18l-.26-.18c.77-1.11,1.38-1.65,2.02-1.65,.3,0,.41,.39,.41,.82,0,.14-.01,.32-.04,.47l-.8,3.21c-.03,.11-.07,.36-.07,.46,0,.21,.07,.43,.22,.43,.14,0,.61-.46,1.13-1.08l.25,.21c-.8,.97-1.54,1.67-2.25,1.67Zm1.55-8.33c-.43,0-.71-.35-.71-.66s.28-.69,.71-.69,.69,.36,.69,.69-.28,.66-.69,.66Z"/><path class="c" d="M93.59,29.31c-.77,2.43-3.11,4.61-4.37,4.61-.25,0-.46-.55-.46-1,0-.25,.04-.57,.12-1.04l.48-2.5c.06-.25,.14-.75,.14-.82,0-.06,0-.1-.04-.1-.18,0-.55,.32-1.05,1.09l-.29-.18c.71-1.11,1.26-1.65,1.9-1.65,.3,0,.47,.43,.47,.86,.01,.14,0,.26-.03,.39-.26,1.47-.57,3.02-.64,3.58,.01,.43-.01,.62,.21,.62,.77,0,2.7-2.46,2.7-3.78,0-.47-.25-.82-.5-1.18,.14-.14,.48-.46,.86-.51,.28,0,.57,.39,.57,1.02,0,.11-.01,.4-.07,.57Z"/><path class="c" d="M95.32,31.06c-.01,.17-.03,.39-.03,.55,0,.98,.37,1.6,1.01,1.6,.46,0,1.02-.44,1.69-1.15l.22,.22c-.9,1.08-1.87,1.65-2.56,1.65-.87,0-1.42-.89-1.42-2.13,0-1.07,.47-2.12,1.15-2.89,.62-.72,1.34-1.19,2.06-1.19,.8,0,1.15,.53,1.15,1.08,0,.79-1.08,1.66-3.26,2.25Zm1.27-2.78c-.54,.36-1.05,1.3-1.24,2.43,1.13-.3,1.76-.75,2.19-1.13,.03-.07,.06-.18,.06-.25,0-.57-.11-1.05-1-1.05Z"/><path class="c" d="M109.78,27.13h-.29c.03-.19,.04-.36,.04-.51,0-.79-.47-1-1.34-1h-1.99l-.72,3.39h1.87c.93,0,1.34-.01,1.69-1.02h.26l-.57,2.78h-.29c.01-.14,.03-.3,.03-.37,0-.75-.37-.73-1.26-.73h-1.87l-.65,3.06c0,.18,.04,.4,.28,.5l2.2-.04c.95-.01,1.66-.4,1.94-1.58h.28l-.47,2.2h-4.62l-2.68,.04,.07-.32c.64-.03,1.47-.22,1.76-.68l1.49-7.03c-.07-.28-.68-.46-1.3-.48l.06-.3h5.45c.4,0,.66-.04,.86-.1h.26l-.47,2.2Z"/><path class="c" d="M115.06,32.31c-.03,.17-.06,.37-.06,.48,0,.17,0,.37,.15,.37,.11,0,.66-.51,1.19-1.13l.25,.21c-.8,.97-1.54,1.67-2.25,1.67-.3,0-.42-.43-.42-.91l.35-1.53c-1.13,1.36-2.31,2.45-3.06,2.45-.24,0-.66-.4-.66-1.48s.4-2.37,1.23-3.21c.89-.9,2.07-1.37,3.25-1.59l.36-1.91c.04-.24,.08-.42,.08-.55,0-.28-.14-.37-.53-.37-.21,0-.4,.05-.59,.08l.07-.32,2.12-.55h.22l-1.7,8.3Zm-.76-3.79c-.55,0-1.24,.12-1.44,.28-.68,.54-1.23,1.66-1.23,3.25,0,.82,.21,1.07,.36,1.07,.19,0,1.36-.98,2.35-2.21l.51-2.32c-.17-.04-.4-.05-.55-.05Z"/><path class="c" d="M121.45,33.91c-.3,0-.41-.43-.41-.91,0-.35,.44-1.98,.44-1.98-1.22,1.56-2.5,2.89-3.25,2.89-.24,0-.59-.53-.59-.94,0-.25,.07-.57,.21-1.07l.66-2.53c.07-.25,.19-.76,.19-.82s.03-.18-.04-.18c-.18,0-.58,.4-1.13,1.18l-.26-.18c.77-1.11,1.37-1.65,2.01-1.65,.3,0,.43,.39,.43,.83,0,.14-.03,.28-.06,.41-.37,1.47-.79,3.04-.89,3.61,0,.37,.08,.53,.24,.53,.29,0,1.47-1.25,2.56-2.64l.55-2.6h1.04l-.97,4.44c-.03,.17-.07,.39-.07,.48,0,.21,.03,.36,.18,.36s.65-.5,1.18-1.12l.25,.21c-.8,.97-1.54,1.67-2.25,1.67Z"/><path class="c" d="M128.01,29.21c-.37-.4-.72-.76-1.42-.8-.44,.26-1.19,1.49-1.19,2.93s.44,1.9,.98,1.9c.41,0,1.02-.46,1.67-1.16l.22,.22c-.9,1.08-1.87,1.65-2.53,1.65-.87,0-1.45-.9-1.45-2.14,0-1.06,.47-2.07,1.13-2.85,.66-.78,1.45-1.19,2.17-1.19s1.12,.41,1.12,.71c0,.24-.44,.62-.71,.75Z"/><path class="c" d="M132.67,33.91c-.3,0-.43-.43-.43-.91l.37-1.6c-1.13,1.38-2.27,2.52-3.02,2.52-.24,0-.66-.4-.66-1.48s.4-2.2,1.23-3.04c1.04-1.06,2.37-1.53,3.78-1.63h.42l-.97,4.55c-.03,.14-.06,.4-.06,.5,0,.18,0,.32,.15,.32,.17,0,.66-.47,1.19-1.09l.25,.21c-.8,.97-1.54,1.67-2.25,1.67Zm-.06-5.28c-.55,0-1.16,.11-1.37,.28-.68,.54-1.23,1.55-1.23,3.14,0,.83,.21,1.07,.36,1.07,.25,0,1.31-1.05,2.31-2.28l.46-2.14c-.17-.04-.37-.06-.53-.06Z"/><path class="c" d="M139.01,28.49h-1.45l-.69,3.68c-.03,.14-.06,.46-.06,.55,0,.26,.08,.44,.24,.44s.82-.54,1.36-1.25l.25,.21c-.87,1.12-1.69,1.78-2.41,1.78-.3,0-.5-.43-.5-.91,0-.25,.07-.69,.15-1.09l.65-3.43-.87,.03,.07-.29c.94-.43,1.45-.84,2.05-1.8h.3l-.43,1.49h1.51l-.17,.58Z"/><path class="c" d="M140.26,33.91c-.3,0-.42-.43-.42-.91,0-.25,.11-.73,.19-1.16l.62-2.5c.07-.3,.17-.76,.17-.82,0-.04,.03-.14-.04-.14-.18,0-.58,.4-1.13,1.18l-.26-.18c.77-1.11,1.38-1.65,2.02-1.65,.3,0,.41,.39,.41,.82,0,.14-.01,.32-.04,.47l-.8,3.21c-.03,.11-.07,.36-.07,.46,0,.21,.07,.43,.22,.43,.14,0,.61-.46,1.13-1.08l.25,.21c-.8,.97-1.54,1.67-2.25,1.67Zm1.55-8.33c-.43,0-.71-.35-.71-.66s.28-.69,.71-.69,.69,.36,.69,.69-.28,.66-.69,.66Z"/><path class="c" d="M147.24,32.35c-.94,1.15-1.92,1.6-2.43,1.6-.76,0-1.58-.87-1.58-2.41,0-.72,.28-1.52,.84-2.23,.87-1.08,1.96-1.59,2.43-1.59,.79,0,1.58,.87,1.58,2.41,0,.72-.28,1.52-.84,2.21Zm-1.29-4.04c-.58,0-1.65,1.22-1.65,3.11,0,1.33,.5,1.96,1.07,1.96,.62,0,1.63-1.25,1.63-3.18,0-1.23-.5-1.9-1.05-1.9Z"/><path class="c" d="M153.13,33.91c-.3,0-.39-.44-.39-.93,0-.25,.1-.66,.21-1.09,0,0,.6-2.34,.69-2.91,0-.36-.03-.44-.24-.44-.26,0-1.51,1.29-2.6,2.61l-.51,2.64h-1.02l.91-4.47c.04-.24,.18-.76,.18-.82,0-.04-.01-.14-.04-.14-.18,0-.58,.4-1.13,1.18l-.26-.18c.77-1.11,1.36-1.65,1.99-1.65,.3,0,.44,.39,.44,.82,0,.14-.04,.32-.07,.47l-.36,1.53c1.22-1.48,2.49-2.82,3.24-2.82,.24,0,.57,.53,.57,.94,0,.25-.06,.57-.19,1.06l-.68,2.53c-.04,.15-.08,.46-.08,.55,0,.22,.01,.33,.18,.33,.15,0,.65-.5,1.18-1.12l.25,.21c-.8,.97-1.54,1.67-2.25,1.67Z"/></g><g><g><path class="c" d="M88.77,14.27c-1.04,0-1.88-.29-2.38-.51l-.23-2.17h.43c.11,.49,.54,1.17,.96,1.52,.31,.23,.91,.57,1.42,.57,.98,0,1.53-.65,1.53-1.34,0-.82-.65-1.13-1.5-1.5-1.78-.73-2.53-1.29-2.53-2.53,0-1.39,1.39-2.33,3.23-2.33,.9,0,1.57,.23,2.01,.42v2.1h-.41c-.05-.52-.26-1.17-.73-1.47-.18-.11-.68-.44-1.22-.44-.96,0-1.48,.62-1.48,1.22,0,.75,.49,1.13,1.61,1.6,1.65,.67,2.43,1.26,2.43,2.46,0,1.49-1.4,2.38-3.13,2.38Z"/><path class="c" d="M100.72,13.81l-.29,.08c-.73,.24-1.18,.36-2.48,.36-2.58,0-4.44-1.84-4.44-4.19s1.97-4.06,4.47-4.06c1.01,0,1.75,.16,2.46,.36l.44,.1v2.19h-.41c-.05-.52-.28-1.14-.77-1.47-.25-.18-.82-.59-1.84-.59-1.71,0-2.72,1.48-2.72,3.18,0,2.28,1.3,3.88,3.31,3.88,.64,0,1.11-.28,1.32-.46,.49-.37,.83-.96,.95-1.52l.41,.06-.41,2.07Z"/><path class="c" d="M108,14.09v-.42c.55-.02,1.06-.2,1.21-.41v-2.86h-4.14v2.87c.13,.2,.64,.38,1.19,.39v.42h-3.82v-.42c.51-.02,1.03-.2,1.16-.39V6.96c-.11-.2-.65-.38-1.16-.41v-.39h3.82v.39c-.54,.03-1.08,.21-1.19,.41v2.71h4.14v-2.69c-.2-.18-.69-.39-1.21-.42v-.39h3.85v.39c-.55,.03-1.06,.23-1.21,.42v6.28c.15,.21,.65,.39,1.21,.41v.42h-3.85Z"/><path class="c" d="M116.97,14.28c-2.51,0-3.96-1.73-3.96-4.13s2.01-4.18,4.52-4.18,3.96,1.75,3.96,4.05c0,2.51-1.97,4.26-4.52,4.26Zm-.13-7.68c-1.13,0-2.25,1.3-2.25,3.18,0,2.25,1.09,3.87,2.98,3.87,1.21,0,2.36-1.26,2.36-3.16,0-2.33-1.21-3.88-3.1-3.88Z"/><path class="c" d="M127.02,14.28c-2.51,0-3.96-1.73-3.96-4.13s2.01-4.18,4.52-4.18,3.96,1.75,3.96,4.05c0,2.51-1.97,4.26-4.52,4.26Zm-.13-7.68c-1.13,0-2.25,1.3-2.25,3.18,0,2.25,1.09,3.87,2.99,3.87,1.21,0,2.36-1.26,2.36-3.16,0-2.33-1.21-3.88-3.1-3.88Z"/><path class="c" d="M132.48,14.09v-.42c.51-.03,1.24-.2,1.43-.54V6.96c-.08-.21-.6-.36-1.19-.39v-.41h3.93v.41c-.52,.03-1.16,.21-1.27,.41v6.44l2.19-.07c.82-.02,1.37-.83,1.39-1.84h.41v2.58h-6.88Z"/><path class="c" d="M148.48,14.28c-2.51,0-3.96-1.73-3.96-4.13s2.01-4.18,4.52-4.18,3.96,1.75,3.96,4.05c0,2.51-1.97,4.26-4.52,4.26Zm-.13-7.68c-1.13,0-2.25,1.3-2.25,3.18,0,2.25,1.09,3.87,2.98,3.87,1.21,0,2.37-1.26,2.37-3.16,0-2.33-1.21-3.88-3.1-3.88Z"/><path class="c" d="M159.94,8.2c-.05-1.06-.51-1.35-1.4-1.35h-1.7v2.98l1.63-.07c.78-.03,1.14-.05,1.26-.96h.39v2.74h-.41c-.1-1.01-.42-1.01-1.24-1.03-.28,0-.57-.02-.85-.02h-.78v2.58c.18,.34,.86,.55,1.42,.59v.42h-4.21v-.42c.59-.03,1.16-.18,1.32-.52V7.01c-.15-.21-.7-.41-1.26-.42v-.42h5.15c.28,0,.56-.02,.74-.08h.34v2.12h-.41Z"/><path class="c" d="M172.18,14.09v-.42c.54-.03,1.17-.21,1.29-.41-.06-1.48-.16-3.03-.23-4.53l-.02-1.11c-.08,.23-.25,.59-.33,.8l-2.5,5.69h-.56l-2.14-5.92c-.1-.25-.16-.49-.26-.77,0,.11-.02,.23-.02,.33-.02,.13-.02,.24-.02,.37l-.34,5.04c.11,.23,.69,.47,1.24,.51v.42h-3.28v-.42c.54-.03,1.08-.29,1.22-.54l.34-4.4s0-.16,.02-.21c0-.07,.02-.18,.02-.23,.03-.39,.06-.88,.06-.91,0-.08,0-.26-.02-.39v.02c-.13-.2-.56-.39-1.11-.42v-.41h2.85l.41,1.22c.55,1.55,1.16,3.2,1.71,4.75,.65-1.53,1.35-3.1,2.01-4.63l.54-1.34h2.53v.41c-.49,.03-.93,.25-1.11,.41v.26c0,.13,.05,1.08,.08,1.48l.26,4.5c.21,.2,.75,.41,1.22,.44v.42h-3.9Z"/><path class="c" d="M182.06,14.09v-.42c.51-.03,.99-.23,1.17-.41-.26-.75-.55-1.5-.82-2.25h-2.45l-.8,2.12c.16,.26,.65,.51,1.18,.54v.42h-3.28v-.42c.54-.03,.95-.13,1.19-.42v.02l.08-.18c.33-.8,.68-1.66,1.03-2.61l.21-.55,.21-.57c.38-.98,.7-1.84,.91-2.46,.12-.31,.13-.47,.15-.7,0-.02,.02-.07,.02-.1h1.55c.03,.42,.07,.67,.16,.98l.83,2.53,.29,.85c.28,.83,.57,1.6,.94,2.56l.07,.16c.11,.33,.57,.47,1.17,.51v.42h-3.83Zm-.67-6.26l-.15-.52c-.05,.15-.13,.38-.16,.52l-.9,2.5h2.02l-.82-2.5Z"/><path class="c" d="M196.1,6.57c-.51,.03-1.01,.31-1.17,.54v4.73c0,.64,.03,1.81,.08,2.35h-.78l-4.81-5.9-.46-.64,.03,.54v2.85c0,.31,.02,.69,.03,1.04,0,.13,.02,.28,.02,.41v.1c.02,.16,.03,.42,.03,.55,.19,.23,.86,.49,1.38,.52v.42h-3.51v-.42c.56-.03,1.09-.28,1.22-.51v-4.44c0-.57,0-1.21-.05-1.66v.02c-.15-.24-.65-.47-1.17-.51v-.41h2.56l.7,.9,3.95,4.84v-2.72c0-.49-.03-1.13-.05-1.6,0-.15-.02-.29-.02-.39v-.08c-.19-.23-.88-.51-1.4-.54v-.41h3.44v.39l-.03,.02Z"/><path class="c" d="M201.56,14.09v-.42c.5-.03,1-.23,1.17-.41-.26-.75-.56-1.5-.82-2.25h-2.45l-.8,2.12c.16,.26,.65,.51,1.18,.54v.42h-3.28v-.42c.54-.03,.95-.13,1.19-.42v.02l.08-.18c.33-.8,.69-1.66,1.03-2.61l.21-.55,.21-.57c.37-.98,.7-1.84,.91-2.46,.11-.31,.13-.47,.15-.7,0-.02,.02-.07,.02-.1h1.55c.03,.42,.06,.67,.16,.98l.83,2.53,.29,.85c.28,.83,.57,1.6,.95,2.56l.06,.16c.11,.33,.57,.47,1.17,.51v.42h-3.83Zm-.67-6.26l-.15-.52c-.05,.15-.13,.38-.16,.52l-.9,2.5h2.02l-.82-2.5Z"/><path class="c" d="M214.14,10.97c-.49,.03-.8,.23-.95,.44v2.06c-.88,.42-1.89,.8-3.36,.8-2.45,0-4.08-1.91-4.08-4.19,0-2.43,2.04-4.08,4.5-4.08,.95,0,1.66,.15,2.33,.33l.52,.11v2.17h-.41c-.03-.33-.2-.93-.62-1.31-.02,0-.03,0-.05-.05v.02c-.23-.2-.78-.68-1.93-.68-1.83,0-2.74,1.61-2.74,3.34,0,2.17,1.05,3.75,2.86,3.75,.57,0,1.27-.41,1.55-.67v-1.6c-.21-.21-.95-.41-1.45-.44v-.41h3.85v.39l-.03,.02Z"/><path class="c" d="M217.64,14.09l-2.85,.03v-.41c.57-.03,1.4-.23,1.58-.57V6.96c-.13-.2-.67-.36-1.21-.39v-.41h5.15c.34,0,.57-.03,.74-.08h.33v2.12h-.39c-.05-1.06-.49-1.35-1.4-1.35h-1.75v2.85h1.63c.82,0,1.16-.02,1.27-.93h.38v2.64h-.39c-.1-.99-.37-1.01-1.26-1.01h-1.63v2.63c.05,.13,.18,.31,.29,.39,.23,0,.69-.02,.95-.02,.33-.02,.75-.02,1-.02,.8-.01,1.35-.37,1.39-1.4h.38v2.1h-4.19Z"/><path class="c" d="M230.42,14.09v-.42c.54-.03,1.17-.21,1.29-.41-.06-1.48-.16-3.03-.23-4.53l-.02-1.11c-.08,.23-.24,.59-.33,.8l-2.5,5.69h-.55l-2.14-5.92c-.1-.25-.16-.49-.26-.77,0,.11-.02,.23-.02,.33-.02,.13-.02,.24-.02,.37l-.34,5.04c.11,.23,.69,.47,1.24,.51v.42h-3.28v-.42c.54-.03,1.07-.29,1.22-.54l.34-4.4s0-.16,.02-.21c0-.07,.02-.18,.02-.23,.03-.39,.06-.88,.06-.91,0-.08,0-.26-.02-.39v.02c-.13-.2-.55-.39-1.11-.42v-.41h2.85l.41,1.22c.56,1.55,1.16,3.2,1.71,4.75,.65-1.53,1.35-3.1,2.01-4.63l.54-1.34h2.53v.41c-.49,.03-.93,.25-1.11,.41v.26c0,.13,.05,1.08,.08,1.48l.26,4.5c.21,.2,.75,.41,1.22,.44v.42h-3.9Z"/><path class="c" d="M238.33,14.09l-2.85,.03v-.41c.57-.03,1.4-.23,1.58-.57V6.96c-.13-.2-.67-.36-1.21-.39v-.41h5.15c.34,0,.57-.03,.73-.08h.33v2.12h-.39c-.05-1.06-.49-1.35-1.4-1.35h-1.74v2.85h1.63c.82,0,1.16-.02,1.27-.93h.38v2.64h-.39c-.1-.99-.37-1.01-1.25-1.01h-1.63v2.63c.05,.13,.18,.31,.29,.39,.23,0,.69-.02,.95-.02,.33-.02,.75-.02,1-.02,.8-.01,1.35-.37,1.39-1.4h.38v2.1h-4.19Z"/><path class="c" d="M253.18,6.57c-.5,.03-1.01,.31-1.17,.54v4.73c0,.64,.03,1.81,.08,2.35h-.78l-4.81-5.9-.46-.64,.03,.54v2.85c0,.31,.02,.69,.03,1.04,0,.13,.02,.28,.02,.41v.1c.02,.16,.03,.42,.03,.55,.19,.23,.86,.49,1.39,.52v.42h-3.51v-.42c.56-.03,1.09-.28,1.22-.51v-4.44c0-.57,0-1.21-.05-1.66v.02c-.15-.24-.65-.47-1.17-.51v-.41h2.56l.7,.9,3.95,4.84v-2.72c0-.49-.03-1.13-.05-1.6,0-.15-.02-.29-.02-.39v-.08c-.2-.23-.88-.51-1.4-.54v-.41h3.44v.39l-.03,.02Z"/><path class="c" d="M261.97,8.46c-.03-1.03-.6-1.58-1.47-1.6h-.67c-.23,0-.42-.02-.64-.02v6.17c.26,.52,.96,.62,1.53,.65v.42h-4.54v-.42c.55-.03,1.35-.18,1.57-.49V6.84c-.16,0-.46,.02-.65,.02h-.65c-.86,.02-1.44,.57-1.45,1.6h-.41v-2.4h.34c.16,.05,.33,.1,.73,.1h5.61c.29,0,.57-.05,.73-.1h.31v2.4h-.36Z"/></g><path class="c" d="M75.48,6.04c-1,0-1.69,.8-1.93,2.05l3.5-.04c0-1.06-.66-2.01-1.57-2.01h0Zm-.18,8.1c-2.09,0-3.7-1.65-3.7-3.96,0-2.82,1.73-4.75,4.18-4.75,1.97,0,3.06,1.12,3.06,2.88v.36l-5.37-.04c-.04,.22-.06,.58-.06,1.01,0,2.03,1.27,3.36,2.96,3.36,1.02,0,1.53-.36,2.33-1.03l.3,.46c-1.13,1.04-2.07,1.71-3.7,1.71h0Zm-9.19-.16v-.46c.89-.06,1.15-.26,1.31-.6V2.62c0-.68-.1-.95-1.47-1.07v-.4l3.64-.91,.12,.34-.58,.72V12.92c.2,.4,.58,.54,1.39,.6v.46h-4.41Zm-6.07-3.06c-.08,.32-.14,.6-.14,1.03,0,.6,.34,1.19,.99,1.19,.6,0,.94-.2,1.47-.62l.02-2.69c-.52,.24-1.79,.8-2.35,1.08h0Zm3.98,3.24c-1.07,0-1.59-.74-1.63-1.25-.68,.72-1.55,1.25-2.39,1.25-1.07,0-1.99-.66-1.99-1.79,0-.56,.14-1.13,.42-1.59l3.96-1.43v-1.47c0-.9-.42-1.75-1.31-1.75-.54,0-1.05,.66-1.09,1.67l-1.79,.3v-.2c.6-1.79,2.57-2.49,3.52-2.49,1.81,0,2.47,.96,2.45,2.43l-.06,4.18c-.02,.82,.42,1.01,.82,1.01,.32,0,.64-.2,1.01-.58v.58c-.44,.52-1.21,1.13-1.91,1.13h0Zm-6.53-11l-3.28,5.53v3.72c.38,.9,1.33,1.02,2.25,1.06v.52h-6.43v-.52c.91-.04,2.03-.18,2.33-.78v-3.84l-3.34-5.65c-.58-.95-1.13-1.27-2.25-1.35v-.52h5.59v.52c-1.05,.06-1.39,.26-1.69,.5l3.1,5.37,3.04-5.35c-.32-.24-.74-.46-1.79-.52v-.52h4.77v.52c-1.07,.04-1.75,.4-2.31,1.31h0Z"/></g><g><path class="c" d="M27.6,.54V9.97c0,.08,0,.17,0,.26,0,4.94-.12,16.85-13.47,23.45l-.06,.03-.06-.03C.66,27.07,.53,15.17,.54,10.23V.54H27.6m.54-.54H0V10.23c0,4.68-.02,17.11,13.77,23.92l.06,.03,.24,.12,.24-.12,.06-.03c13.78-6.81,13.77-19.25,13.76-23.92V0h0Z"/><path class="c" d="M27.6,9.97c0,.08,0,.17,0,.26,0,4.94-.12,16.85-13.47,23.45l-.06,.03-.06-.03C.66,27.07,.53,15.17,.54,10.23V.54H27.6V9.97Z"/><path class="b" d="M27.61,10.22c0,5.02-.15,16.9-13.54,23.55h0C.68,27.13,.53,15.25,.53,10.23H27.61Z"/><rect class="b" x=".53" y=".54" width="27.08" height="9.19"/><g><path class="e" d="M13.67,1.64c.24,.08,.48,.53,.48,.53,0,0,.14-.53,.78-.57,.67-.05,1.67,.42,2.46-.2l.47,.69,.25-.16,.34,.31-.02,1.01c.06,.17,.23,.29,.4,.31,0,0,.05-.17-.02-.38-.17-.38-.12-.69,.1-.91,.06,.08,.34,.15,.47,.13-.08,.21-.12,.47-.07,.73,.08,.31,.02,.67-.16,.92-.17,.17-.43,.09-.61,.01l-.12-.06v2.6c.06,.12,.1,.24,.21,.31,.24-.13,.05-.46,.12-.69,.01-.14,.1-.29,.18-.38,.13,.05,.44,.12,.47,.13-.03,.09-.15,.31-.12,.52,.08,.71-.2,1.01-.35,1.06-.2,.05-.39-.07-.54-.16v1.32l-3.62-.08c-.02,.16-.06,.48-.65,.49-.59,0-.66-.37-.7-.47-1.27,.01-3.73-.07-3.73-.07v-1.15h-.01c-.14,.07-.25,.2-.44,.13-.19-.07-.31-.34-.35-.65-.04-.31,.11-.67-.16-.89,.08-.05,.17-.06,.28-.08,.09,0,.27-.06,.27-.06,.21,.25,.07,.73,.06,.85,0,.12,.04,.2,.04,.2,.12-.08,.23-.13,.31-.24l.02-2.57-.02-.02c-.15,.06-.33,.17-.5,.1-.17-.07-.34-.25-.4-.66-.06-.41,.11-.92-.03-1.16l.5-.17c.23,.37,.08,.83,.02,1.23,.01,.05,.02,.1,.07,.14,.13-.06,.26-.14,.37-.22v-1.2l.32-.29,.34,.02s.31-.41,.35-.55c.9,.48,2,.02,2.94,.29"/><path class="c" d="M13.73,1.87c.22,.12,.3,.31,.35,.55v5.62c-.45-.73-.9-.45-2.41-.45-.31,0-.74-.18-.88-.33-.02-1.88,.01-5.71,.01-5.71,.86,.53,2.01-.06,2.92,.32"/><path class="c" d="M17.34,7.39s-.09,.24-.85,.24c-.7,.04-1.82-.39-2.28,.41V2.32c.03-.2,.22-.35,.41-.43,.68-.23,.98,.04,1.64,0,.65-.03,.89-.16,1.09-.32V7.39Z"/><path class="d" d="M17.78,8.07c-.15-.18-.3-.42-.33-.65V1.67l.34,.5v5.9Z"/><path class="d" d="M10.67,6.04v1.36c-.03,.17-.15,.32-.27,.45v-2.92c0-.9,0-2.02,.04-2.91l.25-.33-.03,4.35Z"/><polygon class="c" points="10.32 2.03 10.28 8.09 13.39 8.18 13.5 8.29 10.09 8.23 10.13 2.02 10.32 2.03"/><polygon class="c" points="10.02 3.13 9.98 8.26 9.86 8.35 9.84 2.25 10 2.09 10.02 3.13"/><g><path class="c" d="M18.06,2.11l-.05,6.24c-1.08,0-3.31-.03-3.31-.03l.06-.1h3.13V2.2l.18-.1Z"/><path class="c" d="M18.37,2.3s-.07,5.72-.1,6.26l-.18-.19,.08-6.26,.2,.19Z"/><path class="c" d="M9.23,2.73c.02,.29-.15,.6,0,.87,0,0-.03,.07-.16,.06-.13-.01-.18-.15-.18-.24-.04-.34,.1-.49,.04-.89l.27-.09,.03,.3Z"/><path class="c" d="M19.23,2.52c-.16,.33,.07,.66,0,.99-.06,.06-.17,.06-.25,.06,.09-.19-.02-.33-.11-.69-.06-.28,.1-.42,.1-.42,0,0,.11,.08,.26,.06"/><path class="c" d="M19.17,3.69s-.05,.28-.2,.32c-.17,.05-.44-.11-.54-.19-.01-.13-.01-.25-.02-.39,.18,.21,.49,.36,.76,.25"/><path class="c" d="M9.71,3.89c-.18,.08-.4,.24-.6,.1-.07-.06-.1-.13-.13-.2,.27,.02,.55-.09,.74-.27l-.02,.36Z"/><path class="c" d="M19.25,6.06c-.19,.48,0,.75-.09,.9-.13,.2-.43,.04-.43,.04,0,0,.09,0,.15-.17,.06-.17-.13-.6,.09-.84l.28,.08Z"/><path class="c" d="M9.27,6.18c.06,.21-.01,.42-.02,.62l.04,.17c-.06,.05-.16,.02-.22,.01-.16-.28,.1-.61-.1-.88l.23-.06s.05,.08,.08,.13"/><path class="c" d="M19.13,7.15c-.03,.09-.1,.25-.26,.26-.15,.01-.38-.05-.47-.22v-.31c.18,.2,.44,.4,.73,.27"/><path class="c" d="M9.68,7.21c-.14,.09-.37,.25-.46,.19-.09-.06-.15-.15-.16-.25,.23,.06,.47-.13,.64-.26l-.02,.33Z"/><path class="d" d="M14.05,8.24c.07,.15,.02,.14,.01,.22-.25,.06-.43-.18-.59-.36,0,0-2.07-.09-3.03-.12,.13-.18,.32-.33,.35-.56,.72,.71,2.8-.23,3.26,.81"/><path class="d" d="M17.66,8.09c-.99,.06-2.01,.01-2.98,.03-.12,.17-.28,.38-.5,.34,.25-.92,1.13-.68,2.3-.68,.65,0,.87-.25,.87-.25,.05,.17,.22,.43,.31,.56"/><path class="c" d="M13.58,8.38s.03,.03,.04,.06c-.23,.06-3.7,.02-3.7,.02l.21-.13,3.46,.05Z"/><path class="c" d="M18.03,8.42l.16,.15-3.61-.09,.05-.07s2.28,0,3.4,.02"/><path class="c" d="M14.13,8.68c.15,0,.31-.05,.41-.14,.11,.15-.04,.39-.41,.39-.41,0-.6-.26-.48-.45,.14,.16,.33,.2,.48,.2"/></g><path class="e" d="M12.71,6.17c-.12-.02-.22-.03-.35-.03-.12,0-.25,.02-.37,.03,0-.27,.03-.47,.1-.63,.33,.03,.47,.03,.53,.12,.07,.07,.05,.2,.08,.51m.17-.43c0-.45-.23-.47-.56-.5-.25-.02-.32-.07-.35-.23h-.03c-.05,.1-.1,.18-.1,.28s.05,.18,.18,.23c-.18,.22-.17,.55-.18,.91,.15-.02,.33-.03,.48-.03,.17,0,.32,0,.48,.03,0-.25,.08-.47,.08-.7"/><path class="e" d="M16.05,6.15c-.12-.03-.23-.03-.37-.03-.12,0-.23,.02-.33,.03,0-.02-.02-.18-.02-.22,0-.1,.03-.25,.08-.4,.28,0,.43,0,.52,.07,.1,.08,.12,.23,.12,.55m.15-.47c0-.37-.15-.43-.3-.43-.1,0-.45,.02-.57-.07-.03-.02-.05-.13-.05-.2h-.03c-.03,.08-.1,.18-.1,.28s.03,.2,.17,.25c-.15,.27-.12,.53-.17,.91,.17,0,.37-.03,.55-.03,.15,0,.3,0,.43,.03,0-.28,.07-.3,.07-.75"/><path class="e" d="M13.39,5.46c0-.18-.17-.25-.2-.38v-.15l-.03-.02c-.05,.08-.17,.2-.17,.3,0,.07,.02,.15,.08,.22,.05,.07,.08,.13,.1,.17,.02,.02,.02,.12,.02,.17h.03c.07-.1,.17-.22,.17-.3"/><path class="e" d="M16.73,5.37c0-.18-.2-.15-.23-.32-.02-.03,0-.1,.02-.17h-.03c-.07,.08-.17,.2-.17,.3,0,.07,.02,.15,.08,.2,.03,.03,.12,.08,.13,.12,.02,.02,.02,.15,.02,.2l.05,.02c.05-.12,.13-.3,.13-.35"/><path class="e" d="M15.32,4.14c-.15-.18-.02-.61-.17-.88-.02-.03-.1-.05-.18-.05h-.33c-.08,0-.12-.08-.15-.2h-.03c-.05,.07-.05,.15-.05,.22,0,.2,.15,.31,.27,.31,.15,0,.33-.07,.4,.05,.02,.03,.03,.12,.03,.3,0,.2-.02,.4-.02,.48h.03c.08-.05,.15-.15,.2-.23"/><path class="e" d="M13.3,4.14c-.15-.17-.03-.85-.18-.93-.07-.03-.13-.03-.2-.03-.1,0-.18,.02-.27,.02-.1,0-.17-.05-.22-.25h-.03c-.02,.08-.03,.17-.03,.23,0,.15,.02,.28,.18,.33-.03,.1-.03,.18-.03,.27s0,.18,.02,.3c-.15,.05-.18,.05-.22,.08-.03,.03-.03,.1-.07,.23,.38,0,.5-.05,.5-.18,0-.1-.13-.32-.13-.52,0-.08,.03-.13,.05-.18,.12,0,.23-.05,.35,0,.07,.03,.08,.2,.08,.38,0,.2-.02,.4-.02,.48h.03c.08-.05,.15-.15,.18-.23"/><path class="e" d="M15.86,4.16v-.03s-.03-.03-.05-.05c-.05-.07-.05-.23-.05-.33,0-.05,.02-.1,.03-.15,.03-.07,.07-.12,.07-.27,0-.12-.12-.12-.23-.13-.08,0-.15-.03-.17-.08-.02-.03-.03-.1-.05-.13h-.03c-.03,.08-.05,.18-.05,.25,0,.22,.07,.3,.33,.3-.02,.2-.03,.37-.03,.56,0,.08,0,.18,.02,.28h.03c.07-.05,.13-.1,.18-.22"/><path class="e" d="M12.27,3.59c0-.2-.15-.23-.3-.32-.1-.05-.18-.13-.17-.35h-.05c-.1,.12-.15,.2-.2,.32-.1,0-.25-.12-.2-.32h-.03c-.1,.07-.13,.18-.13,.28,0,.12,.07,.23,.2,.3-.05,.1-.2,.25-.2,.38,0,.12,.03,.25,.03,.32s0,.12-.03,.17c-.02,0-.02,.03,.03,.03,.07-.08,.18-.18,.18-.38,0-.08-.03-.18-.03-.25,0-.12,.13-.25,.2-.38,.2,.1,.53,.17,.53,.41,0,.07-.05,.22-.12,.27-.03,.03-.13,.03-.2,.03h-.25c-.03,.1-.05,.18-.1,.28h.05s.1-.02,.15-.02c.1,0,.17,.02,.22,.02,.17,0,.23-.08,.3-.3,.03-.13,.12-.33,.12-.5"/><path class="e" d="M13.85,4.14v-.03s-.05-.02-.07-.05c-.03-.05-.03-.22-.03-.33,0-.03,.02-.1,.02-.15,.02-.05,.08-.12,.08-.27,0-.08-.13-.1-.25-.12-.07-.02-.13-.05-.17-.1-.02-.02-.03-.08-.05-.13h-.03c-.02,.1-.03,.18-.03,.27,0,.22,.05,.28,.33,.28-.02,.12-.03,.23-.03,.37,0,.15-.02,.35-.03,.48h.05c.12-.05,.15-.08,.22-.22"/><path class="e" d="M17.06,4.01c0-.12-.05-.22-.17-.28-.03-.02-.08-.08-.07-.07,.08-.07,.2-.18,.2-.32,0-.05-.02-.1-.05-.15-.03-.02-.1-.05-.12-.1-.02-.05-.02-.08,0-.13l-.03-.02c-.07,.07-.17,.17-.17,.25,0,.2,.27,.18,.08,.43-.25-.12-.58-.27-.55-.65h-.03c-.08,.07-.12,.2-.12,.28,0,.22,.15,.37,.28,.45-.07,.03-.1,.05-.13,.08-.06,.05-.08,.13-.08,.22,0,.07,0,.15,.02,.23l-.12,.07v.05c.18,.02,.42,.07,.42-.18,0-.07-.13-.18-.13-.23,0-.1,.07-.15,.08-.2,.2,.1,.48,.21,.48,.43,0,.05,0,.12-.03,.18h.05c.13-.1,.18-.25,.18-.35"/></g><g><path class="c" d="M19.94,24.74c.66,.66,1.72,.66,2.38,0,.66-.66,.66-1.72,0-2.38-.66-.66-1.72-.66-2.38,0-.66,.66-.66,1.72,0,2.38"/><path class="c" d="M16.25,28.43c.66,.66,1.72,.66,2.38,0,.66-.66,.66-1.72,0-2.38-.66-.66-1.72-.66-2.38,0s-.66,1.72,0,2.38"/><path class="c" d="M9.51,26.05c-.66,.66-.66,1.72,0,2.38,.66,.66,1.72,.66,2.38,0,.66-.66,.66-1.72,0-2.38s-1.72-.66-2.38,0"/><path class="c" d="M5.82,22.36c-.66,.66-.66,1.72,0,2.38,.66,.66,1.72,.66,2.38,0s.66-1.72,0-2.38c-.66-.66-1.72-.66-2.38,0"/></g><g><path class="f" d="M9.51,14.31c.66,.66,1.72,.66,2.38,0,.66-.66,.66-1.72,0-2.38s-1.72-.66-2.38,0c-.66,.66-.66,1.72,0,2.38"/><path class="f" d="M5.82,18c.66,.66,1.72,.66,2.38,0,.66-.66,.66-1.72,0-2.38-.66-.66-1.72-.66-2.38,0-.66,.66-.66,1.72,0,2.38"/><path class="f" d="M19.94,15.62c-.66,.66-.66,1.72,0,2.38,.66,.66,1.72,.66,2.38,0,.66-.66,.66-1.72,0-2.38-.66-.66-1.72-.66-2.38,0"/><path class="f" d="M16.25,11.93c-.66,.66-.66,1.72,0,2.38s1.72,.66,2.38,0c.66-.66,.66-1.72,0-2.38-.66-.66-1.72-.66-2.38,0"/></g><polygon class="c" points="20.22 20.01 14.07 13.86 7.92 20.01 20.22 20.01"/><polygon class="f" points="7.92 20.35 14.07 26.5 20.23 20.35 7.92 20.35"/></g></svg>