<?xml version="1.0" encoding="UTF-8"?><svg id="Content" xmlns="http://www.w3.org/2000/svg" xmlns:xlink="http://www.w3.org/1999/xlink" viewBox="0 0 120 120.97"><defs><style>.cls-1,.cls-2,.cls-3,.cls-4,.cls-5,.cls-6,.cls-7,.cls-8,.cls-9,.cls-10,.cls-11,.cls-12,.cls-13{fill:none;}.cls-14{clip-path:url(#clippath);}.cls-15{fill:#093e77;}.cls-15,.cls-16,.cls-2,.cls-3,.cls-4,.cls-5,.cls-7,.cls-8,.cls-9,.cls-10,.cls-11,.cls-12,.cls-13{stroke-miterlimit:10;}.cls-15,.cls-16,.cls-5,.cls-6{stroke-linecap:round;}.cls-15,.cls-16,.cls-5,.cls-13{stroke-width:.5px;}.cls-15,.cls-2,.cls-3,.cls-4,.cls-5,.cls-7,.cls-8,.cls-9,.cls-10,.cls-11,.cls-12,.cls-13{stroke:#000440;}.cls-16{stroke:#d89d29;}.cls-16,.cls-17{fill:#d89d29;}.cls-2{stroke-width:.86px;}.cls-18{fill:#000440;}.cls-19{fill:#fff;}.cls-20{fill:#cae3f2;}.cls-21{fill:#1069a0;}.cls-3{stroke-width:.68px;}.cls-4{stroke-width:1.39px;}.cls-6{stroke:#979797;stroke-linejoin:round;stroke-width:.24px;}.cls-7{stroke-width:1.03px;}.cls-8{stroke-width:1.57px;}.cls-9{stroke-width:1.21px;}.cls-10{stroke-width:2.1px;}.cls-11{stroke-width:1.93px;}.cls-12{stroke-width:1.75px;}</style><clipPath id="clippath"><path class="cls-1" d="m120,60c0,2.89-.2,5.73-.6,8.51-.75,5.32-2.21,10.43-4.27,15.2-.45,1.07-.94,2.12-1.46,3.15-9.86,19.65-30.19,33.14-53.67,33.14s-43.81-13.49-53.67-33.14c-.52-1.03-1.01-2.08-1.46-3.15-2.06-4.77-3.52-9.88-4.27-15.2-.4-2.78-.6-5.62-.6-8.51C0,26.87,26.86,0,60,0s60,26.87,60,60Z"/></clipPath></defs><path class="cls-19" d="m120,60c0,2.89-.2,5.73-.6,8.51-.75,5.32-2.21,10.43-4.27,15.2-.45,1.07-.94,2.12-1.46,3.15-9.86,19.65-30.19,33.14-53.67,33.14s-43.81-13.49-53.67-33.14c-.52-1.03-1.01-2.08-1.46-3.15-2.06-4.77-3.52-9.88-4.27-15.2-.4-2.78-.6-5.62-.6-8.51C0,26.87,26.86,0,60,0s60,26.87,60,60Z"/><path class="cls-21" d="m3.85,81.16c8.56,22.7,30.46,38.85,56.15,38.85s47.6-16.15,56.15-38.85H3.85Z"/><path class="cls-17" d="m85.54,55.6h0c7.05,0,12.78,5.73,12.78,12.78v12.78h-25.56v-12.78c0-7.05,5.73-12.78,12.78-12.78Z"/><path class="cls-18" d="m80.76,77.48v-8.78c0-2.64,2.14-4.78,4.78-4.78s4.78,2.14,4.78,4.78v8.78h-9.56Z"/><polygon class="cls-21" points="77.96 81.16 80.17 77.48 91.15 77.48 93.1 81.16 77.96 81.16"/><g class="cls-14"><g><polygon class="cls-18" points="84 73.24 68.91 120.37 66.75 119.64 83.52 73.08 84 73.24 84 73.24"/><polygon class="cls-18" points="87.55 73.08 104.33 119.64 102.17 120.37 87.08 73.24 87.55 73.08 87.55 73.08"/><g><line class="cls-10" x1="65.29" y1="115.42" x2="105.78" y2="115.42"/><line class="cls-11" x1="68.19" y1="109.33" x2="102.88" y2="109.33"/><line class="cls-12" x1="69.64" y1="103.19" x2="101.44" y2="103.19"/><line class="cls-8" x1="71.09" y1="97.83" x2="99.99" y2="97.83"/><line class="cls-4" x1="72.54" y1="92.99" x2="98.54" y2="92.99"/><line class="cls-9" x1="73.99" y1="88.96" x2="97.09" y2="88.96"/><line class="cls-7" x1="75.43" y1="85.4" x2="95.64" y2="85.4"/><line class="cls-2" x1="76.88" y1="82.78" x2="94.19" y2="82.78"/><line class="cls-7" x1="77.47" y1="60.77" x2="93.6" y2="60.77"/><line class="cls-3" x1="78.33" y1="80.62" x2="92.74" y2="80.62"/><line class="cls-13" x1="79.78" y1="78.84" x2="91.3" y2="78.84"/></g><polygon class="cls-21" points="80.76 77.16 63.8 120.97 56.57 120.97 78.33 77.16 80.76 77.16"/><polygon class="cls-21" points="90.32 77.16 107.28 120.97 114.5 120.97 92.74 77.16 90.32 77.16"/></g></g><g id="jvDdTB"><path class="cls-20" d="m43.85,108.21c-.78,0-1.55.03-2.33,0-.87-.04-1.73-.14-2.6-.22-1.6-.15-3.18-.43-4.73-.83-1.11-.28-2.19-.65-3.21-1.18-.58-.3-1.12-.66-1.56-1.16-.63-.73-.63-1.6,0-2.32.42-.48.94-.82,1.49-1.12.15-.09.32-.16.47-.25.17-.11.35-.22.5-.35.28-.26.24-.45-.12-.53-.49-.11-.99-.17-1.48-.26-1.22-.21-2.43-.49-3.56-1-.35-.16-.68-.34-1-.55-.22-.15-.43-.34-.6-.55-.43-.51-.4-1.09.03-1.59.32-.37.71-.63,1.13-.85.94-.48,1.94-.77,2.97-1,.48-.11.96-.18,1.44-.26.42-.08.82-.19,1.18-.42.26-.17.47-.38.59-.66.23-.59.69-.97,1.2-1.3.83-.54,1.75-.89,2.68-1.18,1.43-.45,2.88-.78,4.36-1.01,1.13-.17,2.26-.33,3.39-.46.7-.08,1.41-.13,2.11-.18,2.13-.13,4.27-.22,6.4-.16,1.25.03,2.5.08,3.75.17,1.84.13,3.68.33,5.5.64,1.73.3,3.44.68,5.09,1.29.79.3,1.57.63,2.23,1.17.21.17.41.37.56.58.41.56.39,1.1-.04,1.65-.32.42-.74.72-1.19.98-.68.38-1.39.68-2.13.92-1.79.59-3.62.98-5.48,1.23-1.21.16-2.43.3-3.64.41-.87.08-1.73.14-2.6.17-1.35.04-2.69.04-4.04.09-.83.03-1.66.09-2.48.15-.23.02-.45.09-.67.16-.13.04-.27.11-.27.27,0,.15.12.25.25.29.31.1.62.21.94.26.79.13,1.59.21,2.38.33,1.92.31,3.82.73,5.6,1.56.64.3,1.26.64,1.77,1.14.9.88.92,1.84.02,2.74-.51.51-1.12.85-1.77,1.15-1.34.62-2.75,1.01-4.19,1.31-1.1.23-2.22.39-3.34.51-1.67.18-3.34.26-5.01.22Z"/></g><ellipse class="cls-20" cx="21.13" cy="94.55" rx="3.8" ry="1.42"/><ellipse class="cls-20" cx="27.3" cy="91.72" rx="2.57" ry=".97"/><g><g><rect class="cls-5" x="41.86" y="37.29" width="9.67" height="9.67"/><line class="cls-5" x1="51.52" y1="37.29" x2="41.86" y2="46.96"/></g><g><rect class="cls-5" x="41.86" y="46.96" width="9.67" height="9.67" transform="translate(93.38 103.59) rotate(-180)"/><line class="cls-5" x1="51.52" y1="56.63" x2="41.86" y2="46.96"/></g><g><rect class="cls-5" x="41.86" y="56.63" width="9.67" height="9.67"/><line class="cls-5" x1="41.86" y1="66.3" x2="51.52" y2="56.63"/></g><g><rect class="cls-5" x="41.86" y="75.96" width="9.67" height="9.67"/><line class="cls-5" x1="41.86" y1="85.63" x2="51.52" y2="75.96"/><rect class="cls-15" x="41.86" y="85.63" width="9.67" height="9.67"/><rect class="cls-16" x="25.71" y="37.29" width="9.02" height="5.97"/><rect class="cls-16" x="14.68" y="37.29" width="9.02" height="5.97"/></g><g><rect class="cls-5" x="41.86" y="66.3" width="9.67" height="9.67" transform="translate(93.38 142.26) rotate(-180)"/><line class="cls-5" x1="51.52" y1="75.96" x2="41.86" y2="66.3"/></g><polyline class="cls-5" points="41.86 37.29 46.69 19.39 51.52 37.29"/><polygon class="cls-5" points="14.68 37.29 96.01 37.29 85.86 29.83 43.87 29.83 14.68 37.29"/><polyline class="cls-5" points="46.69 19.39 74.93 37.29 85.86 29.83"/><line class="cls-5" x1="51.52" y1="37.29" x2="62.96" y2="29.83"/><path class="cls-5" d="m83.53,48.92c0,1.18.96,2.14,2.14,2.14,1.18,0,2.14-.96,2.14-2.14,0-1.18-.96-2.14-2.14-2.14,0,0,0,0,0,0v-1.35"/><polyline class="cls-5" points="87.03 39.72 87.03 45.44 84.3 45.44 84.3 39.72"/><line class="cls-5" x1="85.54" y1="50.98" x2="82.02" y2="60.22"/><line class="cls-5" x1="89.06" y1="60.22" x2="85.54" y2="50.98"/><line class="cls-5" x1="38.06" y1="95.3" x2="55.32" y2="95.3"/><rect class="cls-16" x="83.81" y="38.54" width="3.71" height="1.17"/><rect class="cls-16" x="81.16" y="36.05" width="9.02" height="2.49"/></g><g><polygon class="cls-17" points="94.73 81.16 92.74 77.16 90.32 77.16 91.87 81.16 94.73 81.16"/><polygon class="cls-17" points="79.21 81.16 80.76 77.16 78.33 77.16 76.35 81.16 79.21 81.16"/></g><g><polyline class="cls-6" points="115.48 50.98 111.06 50.98 111.06 55.5"/><polyline class="cls-6" points="111.85 46.46 105.01 46.46 105.01 50.98 114.14 50.98"/><polyline class="cls-6" points="100.46 50.98 105.01 50.98 105.01 46.46 97.09 46.46"/></g><g><polyline class="cls-6" points="34.01 63.72 27.17 63.72 27.17 68.23"/><polyline class="cls-6" points="15.36 54.69 15.36 59.2 24.5 59.2 24.5 54.69"/><polyline class="cls-6" points="27.96 59.2 21.12 59.2 21.12 63.72 30.26 63.72"/><polyline class="cls-6" points="16.57 63.72 21.12 63.72 21.12 59.2 11.98 59.2"/></g><g><polyline class="cls-6" points="57.24 51.68 62.87 51.68 62.87 56.19"/><polyline class="cls-6" points="74.68 42.65 74.68 47.16 65.54 47.16"/><polyline class="cls-6" points="63.29 47.16 68.92 47.16 68.92 51.68 59.79 51.68"/><polyline class="cls-6" points="73.47 51.68 68.92 51.68 68.92 47.16 78.06 47.16"/></g></svg>