<?xml version="1.0" encoding="UTF-8"?><svg id="Isolation_Mode" xmlns="http://www.w3.org/2000/svg" viewBox="0 0 178.62 186.87"><defs><style>.cls-1{fill:#a5d2eb;}.cls-2{fill:#bd8924;}.cls-3{fill:#ddd;}.cls-4{fill:#d89d29;}.cls-5{fill:#1069a0;}.cls-6{fill:#072f69;}.cls-7{fill:#1872a6;}.cls-8{fill:#4ba5d7;}</style></defs><rect class="cls-5" x="34.01" y="79.72" width="111.18" height="5.91" transform="translate(9.05 -8.84) rotate(5.95)"/><g id="Seesaw_stand"><path class="cls-8" d="M85.66,74.25h7.88c1.99,0,3.6,1.61,3.6,3.6v103.69h-15.08V77.85c0-1.99,1.61-3.6,3.6-3.6Z"/><path class="cls-7" d="M126.15,186.87H53.05c0-2.95,2.39-5.33,5.33-5.33h62.42c1.47,0,2.81,.6,3.77,1.56,.96,.97,1.56,2.3,1.56,3.77h0Z"/></g><g id="Right_bucket"><path id="Hinge" class="cls-5" d="M152.9,77.96v11.07c0,3.59-2.35,6.64-5.6,7.68-.77,.25-1.6,.38-2.46,.38h-.91c-4.45,0-8.07-3.59-8.08-8.05v-11.09h17.05Z"/><circle id="Ellipse" class="cls-3" cx="144.37" cy="88.49" r="3.95"/><g><path class="cls-4" d="M157.87,25.35h-24.97s-24.47,22.08-15.25,40.01c0,0,3.04,6.71,10.56,7.08h34.34c7.52-.38,10.56-7.08,10.56-7.08,9.22-17.93-15.25-40.01-15.25-40.01Z"/><path class="cls-4" d="M132.68,22.3h25.39l2.21-5.77c.58-1.53-.18-3.25-1.72-3.83-.34-.13-.7-.19-1.06-.19h-6.4c-3.2-3.06-8.24-3.06-11.44,0h-6.4c-1.64,0-2.97,1.33-2.97,2.97,0,.36,.07,.72,.19,1.06l2.18,5.77Z"/><rect class="cls-6" x="131.67" y="22.3" width="27.43" height="3.06" rx="1.53" ry="1.53"/><path class="cls-2" d="M149.88,72.46h12.68c7.52-.38,10.56-7.08,10.56-7.08,9.22-17.93-15.25-40.01-15.25-40.01,0,0,11.79,22.07,2.57,40,0,0-3.04,6.71-10.56,7.09Z"/></g><path id="Bucket" class="cls-8" d="M110.12,66.51h68.49c0,6.57-5.32,11.89-11.89,11.89h-44.71c-6.57,0-11.89-5.32-11.89-11.89h0Z"/></g><g id="Earth"><circle class="cls-1" cx="34.25" cy="31.13" r="31.13"/><polygon class="cls-6" points="28.91 9.17 29.82 8.62 29.32 7.78 29.16 6.66 29.25 5.72 28.49 5.25 27.73 5.76 27.29 7.06 27.26 8.18 27.21 9 28.34 9.35 28.91 9.17"/><path class="cls-6" d="M42.28,1.05l-.76,1.85-.95,1.29-1.03-.81-.31-.96-2.59-.63-1.45,.81-1.05,1.53-1.42,1.17-.55,.68,.38,.99,1.4-.11,.72,.92-.64,1.42-1.6-.05-1.78,1.3-1.14,.38-1.14,.5,.36,1.29-.69,.31-2.24-.56-1.4,1.91,.15,1.22,1.64,.76,1.68-.09,.71-1.67,1.29-.35,.64-.96,1.41,.82,1.41-.63,1.53,1,1.23,2.11,1.36-1.08,1.14,.62,1.72-1.02,1.8,1.93,2.73-.66,.62,2.5-2.1,1.83h.03l-4.58-.34-.74,1.95-4.24-2.4-.3-1.88-7.61,.76-3.73,3.43-2.67,3.73-.03,5.5,3.49,4.82,3.12,.58,3.43-.94,3.43,1.54-.42,2.67,2.58,4.35-1.05,3.23,2.29,4.55,.79,1.7,1.49,.42,3.67-1.14,4.15-3.5,.46-2.2,2.44-2.24-.27-4.86,2.15-4.2,1.69-1.25,1.3-4.9-3.28,1.41-3.16-3.86-3.37-6.16,.1,.07,2.02-.97,1.83,2.39,1.35,2.8,2.52,2.49,1.45-.86,.38-.91,1.17-.91,1.3-3.66-1.7-.38-1.5,.51-1.17-.43-1.29-2.29,2.22,.28,1.41-.58,2.19,.91,2.39-.32,3.43,4.28,2.65,3.28c-1.66-12.5-10.7-22.76-22.88-25.99Z"/><path class="cls-6" d="M10.08,37.72l-3.28-2.49-.36-2.73-3.07-3.07-.15-.58c-.05,.76-.09,1.53-.09,2.29-.01,6.55,2.05,12.93,5.9,18.24l-.45-1.72,1.55-.95-.41-3.68,1.46-2.57-1.09-2.73Z"/></g><g id="Left_bucket"><path id="Hinge-2" class="cls-5" d="M42.77,66.32v11.07c0,3.59-2.35,6.64-5.6,7.68-.77,.25-1.6,.38-2.46,.38h-.91c-4.45,0-8.07-3.59-8.08-8.05v-11.09h17.05Z"/><circle id="Ellipse-2" class="cls-3" cx="34.25" cy="76.85" r="3.95"/><path id="Bucket-2" class="cls-8" d="M68.49,54.91c0,3.28-1.33,6.26-3.48,8.41-.33,.33-.67,.63-1.03,.92-2.03,1.6-4.59,2.56-7.37,2.56H11.89c-3.38,0-6.43-1.41-8.59-3.67-2.04-2.13-3.3-5.03-3.3-8.22H68.49Z"/></g></svg>