<?xml version="1.0" encoding="UTF-8"?><svg id="Isolation_Mode" xmlns="http://www.w3.org/2000/svg" viewBox="0 0 120 120"><defs><style>.cls-1{stroke-width:.75px;}.cls-1,.cls-2,.cls-3,.cls-4,.cls-5,.cls-6,.cls-7{fill:none;}.cls-1,.cls-2,.cls-4,.cls-5{stroke-linecap:round;}.cls-1,.cls-4,.cls-5,.cls-6{stroke-linejoin:round;}.cls-1,.cls-5{stroke:#1069a0;}.cls-8{fill:#000440;}.cls-9{fill:#fff;}.cls-10{fill:#96cae6;}.cls-11{fill:#c48f25;}.cls-12{fill:#e1b359;}.cls-13{fill:#d89d29;}.cls-14{fill:#1069a0;}.cls-15{fill:#0b4c83;}.cls-16{fill:#072f69;}.cls-17{fill:#2981b6;}.cls-2,.cls-3,.cls-7{stroke-miterlimit:10;}.cls-2,.cls-4,.cls-5,.cls-6,.cls-7{stroke-width:.5px;}.cls-2,.cls-4,.cls-6,.cls-7{stroke:#000440;}.cls-3{stroke:#0b4c83;stroke-width:.53px;}</style></defs><path class="cls-10" d="m115.74,81.21H3.83c8.49,22.66,30.34,38.79,55.96,38.79s47.47-16.13,55.96-38.79Z"/><path class="cls-9" d="m120,60c0,2.76-.19,5.47-.55,8.13-.97,7.2-3.23,14-6.53,20.15-10.1,18.88-30.01,31.72-52.92,31.72s-42.82-12.84-52.93-31.72c-3.29-6.15-5.55-12.95-6.52-20.15-.36-2.66-.55-5.37-.55-8.13,0-1.27.04-2.52.12-3.77C2.06,24.86,28.13,0,60,0s57.94,24.86,59.88,56.23c.08,1.25.12,2.5.12,3.77Z"/><path class="cls-14" d="m3.84,81.16c8.56,22.7,30.46,38.85,56.15,38.85s47.6-16.15,56.15-38.85H3.84Z"/><path class="cls-9" d="m120,60c0,2.76-.19,5.47-.55,8.13-.97,7.2-3.23,14-6.53,20.15H7.07c-3.29-6.15-5.55-12.95-6.52-20.15-.36-2.66-.55-5.37-.55-8.13,0-1.27.04-2.52.12-3.77h119.76c.08,1.25.12,2.5.12,3.77Z"/><g><polyline class="cls-5" points="44.65 41.22 69.92 21.11 44.65 36.54"/><rect class="cls-4" x="22.14" y="36.54" width="22.51" height="11.73"/><rect class="cls-4" x="22.14" y="48.27" width="22.51" height="11.73"/><rect class="cls-4" x="22.14" y="60" width="22.51" height="11.73"/><g><line class="cls-2" x1="22.14" y1="36.54" x2="44.65" y2="48.27"/><line class="cls-2" x1="22.14" y1="48.27" x2="44.65" y2="36.54"/></g><g><line class="cls-2" x1="22.14" y1="48.27" x2="44.65" y2="60"/><line class="cls-2" x1="22.14" y1="60" x2="44.65" y2="48.27"/></g><g><line class="cls-2" x1="22.14" y1="60" x2="44.65" y2="71.72"/><line class="cls-2" x1="22.14" y1="71.72" x2="44.65" y2="60"/></g><polygon class="cls-6" points="35.17 12.23 32.03 12.23 22.14 36.54 44.65 36.54 35.17 12.23"/><line class="cls-2" x1="40.05" y1="24.81" x2="29.63" y2="18.15"/><line class="cls-2" x1="37.37" y1="18.15" x2="26.9" y2="24.81"/><line class="cls-2" x1="26.9" y1="24.81" x2="40.05" y2="24.81"/><line class="cls-2" x1="26.9" y1="24.81" x2="44.65" y2="36.54"/><line class="cls-2" x1="22.39" y1="36.54" x2="40.05" y2="24.81"/><line class="cls-2" x1="29.66" y1="18.15" x2="37.37" y2="18.15"/><g><line class="cls-5" x1="73.33" y1="22.81" x2="73.33" y2="37.1"/><path class="cls-1" d="m72.34,39.34c0,.55.44.99.99.99s.99-.44.99-.99-.44-.99-.99-.99v-1.25"/><rect class="cls-7" x="56.85" y="18.91" width="3.8" height="57.37" transform="translate(27.61 -21.3) rotate(26.66)"/><polyline class="cls-4" points="44.18 72.38 49.1 71.08 47.21 66.35 52.13 65.05 50.24 60.32 55.16 59.01 53.26 54.29 58.18 52.98 56.29 48.25 61.21 46.95 59.32 42.22 64.24 40.92 62.35 36.19 67.27 34.89 65.37 30.16 70.3 28.86 68.4 24.13 73.33 22.82"/><polyline class="cls-4" points="69.92 21.11 71.81 25.83 66.89 27.14 68.79 31.86 63.86 33.17 65.76 37.89 60.84 39.2 62.73 43.93 57.81 45.23 59.7 49.96 54.78 51.26 56.68 55.99 51.76 57.29 53.65 62.02 48.73 63.32 50.62 68.05 45.7 69.36 47.59 74.09"/></g><rect class="cls-15" x="16.75" y="70.77" width="33.28" height="10.49"/><rect class="cls-8" x="12.95" y="79.81" width="39.31" height="10.78"/><line class="cls-3" x1="12.95" y1="82.82" x2="52.26" y2="82.82"/><line class="cls-3" x1="12.95" y1="84.56" x2="52.26" y2="84.56"/></g><g><g><rect class="cls-12" x="64.49" y="51.06" width="13.37" height="7.09"/><rect class="cls-13" x="64.49" y="43.97" width="13.37" height="7.09"/><rect class="cls-13" x="77.86" y="51.06" width="8.3" height="7.09"/><rect class="cls-11" x="72.79" y="58.15" width="13.37" height="7.09" transform="translate(158.96 123.38) rotate(-180)"/><rect class="cls-13" x="64.49" y="58.15" width="8.3" height="7.09" transform="translate(137.29 123.38) rotate(-180)"/></g><path class="cls-15" d="m85.04,57.83v38.64s-8.55-.9-13.58-2.69c-1.79-.66-2.45-1.38-2.75-3.29-.3-1.91-4.07-13.94-10.23-22.31,4.67-2.57,17.59-8.73,26.56-10.35Z"/><g><path class="cls-16" d="m100.8,41.36l.56-10.69c0-.28.45-.28.46,0l.56,10.69c.03,1.08-1.6,1.09-1.57,0h0Z"/><rect class="cls-15" x="92.29" y="41.35" width="11.17" height="25.57" rx=".66" ry=".66"/><rect class="cls-15" x="90.66" y="41.35" width="14.42" height="7.95" rx=".66" ry=".66"/><rect class="cls-8" x="88.71" y="47.37" width="18.32" height="3.86" rx=".64" ry=".64"/><g><rect class="cls-17" x="92.69" y="43.09" width="2.27" height="2.89" rx=".56" ry=".56"/><rect class="cls-17" x="96.74" y="43.09" width="2.27" height="2.89" rx=".56" ry=".56"/><rect class="cls-17" x="100.79" y="43.09" width="2.27" height="2.89" rx=".56" ry=".56"/></g></g><path class="cls-8" d="m85.02,57.83v38.64s8.55-.9,13.58-2.69c1.79-.66,2.45-1.38,2.75-3.29s4.07-13.94,10.23-22.31c-4.67-2.57-17.59-8.73-26.56-10.35Z"/><ellipse class="cls-8" cx="77.75" cy="66.5" rx=".9" ry="2.11" transform="translate(-22.68 86.02) rotate(-51.54)"/><ellipse class="cls-15" cx="92.29" cy="66.49" rx="2.11" ry=".9" transform="translate(-21.33 71.82) rotate(-38.46)"/></g></svg>