<?xml version="1.0" encoding="UTF-8"?><svg id="a" xmlns="http://www.w3.org/2000/svg" viewBox="0 0 64 64"><defs><style>.b{fill:#000440;}.c{fill:#a5d2eb;}.d{fill:#d6eaf6;}.e{fill:#1069a0;}.f{fill:#4ba5d7;}</style></defs><g><circle class="d" cx="32" cy="32" r="32"/><g/><path class="c" d="M63.63,27.13C61.28,11.77,48.02,0,32,0c-3.36,0-6.6,.52-9.64,1.48l-1.84,2.39,.09,2.57h2.75l.27,1.25-3.02,2.12-4.14,3.25,1.55,1.63-.41,1.5-2.76,.13-.48,2.88,1.87,.75,2.28-.63,1.95-3.38,2.5-.75,2.87,3.26,.78-.63-2.17-2.88,.79-.25,3.51,4.76,.55-.63,.07-1.25,.79-.25,.83,.63,.79-.38-.4-1.5,.51-1.63,5.47,1.38-.51,1.5-4.24,.5-1.89,1.63,1.29,.75,2.86-.5-.58,2.89-1.35,.75-4.77-1.38-.52,1.38-4.34-2.14-.18-1.88-8.44,2.13-3.5,5.66,.17,5.4,4.65,4.21,4.94-1.01,2.81,1.01,.12,3.3,1.64,3.81-.53,4.46,3.79,8.32h3.84l3.5-5.76-.09-2.3,2.11-2.3-1.01-4.97,4.22-4.57,1.09-4.21-3.89,1.05-4.46-7.83,.64-1.38,4.34,7.57,6.79-3.16-1.83-2.27h-1.96l-1.74-3.02,.8-.13,1.09,1.39,6.74,1.26,2.54,2.77,2.47,6.19,1.87-4.68,7.78-3.13Zm-22.99-7.44l.14-2.26-1.35-2,2.68-1.88,1.18,6.14h-2.65Z"/><path class="c" d="M11.99,41.2l-7.16-2.05L.03,33.44c.3,6.81,2.73,13.06,6.63,18.11l3.34-1.52-.14-4.73,2.19-1.85-.07-2.25Z"/></g><g><g><g><path class="e" d="M45.15,54.94h0c-.53-.91-1.51-2.21-2.16-4.16-2.42-7.27-6.01-8.42-7-9.21l-3.09,7.99s1.77,3.68,4.68,5.43c.73,.44,.92,.23,1.99,2.53,.07,.22,.17,.44,.3,.64h0v.02c.91,1.46,2.82,1.91,4.27,1.01,1.45-.9,1.9-2.8,1.01-4.25Z"/><polygon class="e" points="34.97 60.2 30.48 58.97 45.77 3.1 50.26 4.34 34.97 60.2"/><path class="e" d="M34.13,42.82l3.35,2.34c.4,.33,.49,.91,.21,1.34-.28,.43-.84,.58-1.29,.35-.89-.47-2.27-1.38-3.46-2.15,0,0-1.11-.79-.44-1.72,.63-.87,1.63-.18,1.63-.18Z"/><path class="e" d="M35.97,42.37c-.25,.49-.92,.64-1.49,.35-.27-.14-.99-.59-1.12-.75-.25-.3-.29-.69-.09-1.11,.07-.15,.43-.46,.82-.44,.53,.03,1.14,.45,1.3,.53,.57,.3,.83,.93,.58,1.42Z"/><path class="e" d="M33.31,45.14l3.14,2.03c.38,.29,.48,.85,.22,1.31-.25,.44-.75,.64-1.18,.46-.83-.39-2.12-1.17-3.24-1.82,0,0-1.04-.68-.44-1.66,.56-.91,1.5-.31,1.5-.31Z"/><path class="e" d="M32.75,47.61l2.82,1.53c.34,.22,.46,.7,.27,1.1-.19,.4-.61,.6-.99,.47-.74-.28-1.9-.86-2.89-1.35,0,0-.94-.51-.48-1.39,.43-.81,1.27-.37,1.27-.37Z"/><path class="e" d="M43.43,52.13c-.1-.73-.08-4.49-1.41-6.95-.93-1.73-2.76-2.07-3.61-3.17-.13-.17-.7-1.46-1.28-1.84-.44-.29-.92,.24-1.04,.47-.2,.42-.2,1.12,.17,1.92,.61,1.33,1.82,2.86,1.84,3.37,0,0-.48,3.44-.02,5.04"/></g><polygon class="e" points="45.15 54.94 39.16 56.7 42.46 64 51.48 64 45.15 54.94"/><rect class="b" x="28.08" y="4.12" width="29.32" height="35.88" transform="translate(9.87 57.17) rotate(-74.18)"/></g><path class="f" d="M49.88,15.94c-1.33-.37-2.42-.1-3.74,.61-.79,.42-1.43,.78-1.43,.78,0,0-.37-.63-.83-1.4-.77-1.28-1.57-2.07-2.9-2.44-2.43-.67-4.93,.75-5.6,3.18-1.49,5.41,5.77,13.58,5.77,13.58,0,0,4.63-1.46,8.15-4.04,1.77-1.29,3.26-2.86,3.76-4.67,.67-2.43-.75-4.93-3.18-5.6Z"/></g></svg>