<?xml version="1.0" encoding="UTF-8"?><svg id="Isolation_Mode" xmlns="http://www.w3.org/2000/svg" viewBox="0 0 118.08 96.84"><defs><style>.cls-1{fill:#000440;}.cls-2{fill:#a5d2eb;}.cls-3{fill:#bd8924;}.cls-4{fill:#ddd;}.cls-5{fill:#d89d29;}.cls-6{fill:#1069a0;}.cls-7{fill:#072f69;}.cls-8{fill:#4ba5d7;}</style></defs><rect class="cls-6" x="22.49" y="49.79" width="73.5" height="3.91"/><g id="Seesaw_stand"><path class="cls-8" d="m57.85,46.18h2.77c1.99,0,3.6,1.61,3.6,3.6v47.06h-9.97v-47.06c0-1.99,1.61-3.6,3.6-3.6Z"/><path class="cls-1" d="m83.39,96.84h-48.32c0-1.95,1.58-3.53,3.53-3.53h41.27c.97,0,1.85.4,2.49,1.03.64.64,1.03,1.52,1.03,2.49h0Z"/></g><g id="Right_bucket"><path id="Hinge" class="cls-6" d="m101.08,44.8v7.32c0,2.38-1.56,4.39-3.7,5.07-.51.16-1.06.25-1.63.25h-.6c-2.94,0-5.34-2.38-5.34-5.32v-7.33h11.27,0Z"/><circle id="Ellipse" class="cls-4" cx="95.44" cy="51.76" r="2.61"/><g><path class="cls-5" d="m104.36,10.02h-16.51s-16.18,14.6-10.08,26.45c0,0,2.01,4.44,6.98,4.68h22.7c4.97-.25,6.98-4.68,6.98-4.68,6.09-11.85-10.08-26.45-10.08-26.45Z"/><path class="cls-5" d="m87.71,8h16.79l1.46-3.82c.39-1.01-.12-2.15-1.14-2.53-.22-.09-.46-.13-.7-.13h-4.23c-2.11-2.02-5.45-2.02-7.56,0h-4.23c-1.08,0-1.96.88-1.96,1.96,0,.24.04.48.13.7l1.44,3.82Z"/><path class="cls-7" d="m88.05,8h16.11c.56,0,1.01.45,1.01,1.01h0c0,.56-.45,1.01-1.01,1.01h-16.11c-.56,0-1.01-.45-1.01-1.01h0c0-.56.45-1.01,1.01-1.01Z"/><path class="cls-3" d="m99.08,41.16h8.38c4.97-.25,6.98-4.68,6.98-4.68,6.09-11.85-10.08-26.45-10.08-26.45,0,0,7.79,14.59,1.7,26.45,0,0-2.01,4.44-6.98,4.69Z"/></g><path id="Bucket" class="cls-8" d="m72.8,37.23h45.28c0,4.34-3.52,7.86-7.86,7.86h-29.56c-4.34,0-7.86-3.52-7.86-7.86h0Z"/></g><g id="Earth"><circle class="cls-2" cx="22.64" cy="21.51" r="20.58"/><polygon class="cls-7" points="19.11 6.99 19.72 6.62 19.38 6.07 19.28 5.33 19.34 4.71 18.84 4.4 18.33 4.74 18.04 5.59 18.02 6.34 17.99 6.88 18.74 7.11 19.11 6.99"/><path class="cls-7" d="m27.95,1.62l-.5,1.23-.63.85-.68-.53-.21-.64-1.71-.41-.96.54-.69,1.01-.94.77-.36.45.25.65.93-.07.48.61-.42.94-1.06-.04-1.18.86-.76.25-.76.33.24.85-.45.2-1.48-.37-.93,1.26.1.8,1.08.5,1.11-.06.47-1.11.85-.23.42-.64.93.54.93-.42,1.01.66.81,1.4.9-.72.76.41,1.13-.67,1.19,1.28,1.81-.44.41,1.65-1.39,1.21h.02l-3.03-.23-.49,1.29-2.8-1.59-.2-1.24-5.03.5-2.47,2.27-1.77,2.47-.02,3.64,2.31,3.19,2.06.38,2.27-.62,2.27,1.02-.28,1.77,1.71,2.88-.7,2.13,1.51,3.01.52,1.12.98.27,2.43-.76,2.74-2.31.31-1.45,1.61-1.48-.18-3.21,1.42-2.77,1.11-.83.86-3.24-2.17.93-2.09-2.55-2.23-4.07.07.05,1.33-.64,1.21,1.58.89,1.85,1.67,1.65.96-.57.25-.6.78-.6.86-2.42-1.13-.25-.99.34-.78-.29-.85-1.51,1.47.18.93-.38,1.44.6,1.58-.21,2.27,2.83,1.75,2.17c-1.1-8.26-7.07-15.05-15.13-17.18Z"/><path class="cls-7" d="m6.66,25.87l-2.17-1.65-.24-1.81-2.03-2.03-.1-.38c-.04.5-.06,1.01-.06,1.51,0,4.33,1.36,8.55,3.9,12.06l-.3-1.13,1.03-.63-.27-2.44.97-1.7-.72-1.81Z"/></g><g id="Left_bucket"><path id="Hinge-2" class="cls-6" d="m28.28,44.77v7.32c0,2.38-1.56,4.39-3.7,5.07-.51.16-1.06.25-1.63.25h-.6c-2.94,0-5.34-2.38-5.34-5.32v-7.33h11.27,0Z"/><circle id="Ellipse-2" class="cls-4" cx="22.64" cy="51.73" r="2.61"/><path id="Bucket-2" class="cls-8" d="m45.28,37.23c0,2.17-.88,4.14-2.3,5.56-.22.22-.44.42-.68.61-1.34,1.06-3.03,1.69-4.87,1.69H7.86c-2.23,0-4.25-.93-5.68-2.43-1.35-1.41-2.18-3.32-2.18-5.43h45.28Z"/></g></svg>