<!-- Generator: Adobe Illustrator 24.1.2, SVG Export Plug-In  -->
<svg version="1.1" xmlns="http://www.w3.org/2000/svg" xmlns:xlink="http://www.w3.org/1999/xlink" x="0px" y="0px" width="48.8px"
	 height="62px" viewBox="0 0 48.8 62" style="overflow:visible;enable-background:new 0 0 48.8 62;" xml:space="preserve">
<style type="text/css">
	.st0{fill:#1069A0;}
	.st1{fill:#4BA5D7;}
	.st2{fill:none;stroke:#1069A0;stroke-miterlimit:10;}
	.st3{fill:none;stroke:#000440;stroke-miterlimit:10;}
	.st4{fill:#000440;}
	.st5{fill:none;stroke:#1069A0;stroke-linecap:round;stroke-miterlimit:10;}
</style>
<defs>
</defs>
<g>
	<rect y="26.7" class="st0" width="16.3" height="31.9"/>
	<g>
		<g>
			<g>
				<rect x="3" y="33.3" class="st1" width="10.3" height="4.4"/>
				<rect x="8.9" y="33.3" class="st1" width="4.4" height="4.4"/>
			</g>
			<g>
				<rect x="3" y="39.5" class="st1" width="10.3" height="4.4"/>
				<rect x="8.9" y="39.5" class="st1" width="4.4" height="4.4"/>
			</g>
		</g>
	</g>
	<circle class="st0" cx="32.5" cy="14.6" r="8"/>
	<line class="st2" x1="32.5" y1="0" x2="32.5" y2="14.6"/>
	<rect x="16.3" y="12.3" class="st1" width="32.5" height="46.2"/>
	<line class="st2" x1="16.3" y1="15.8" x2="48.8" y2="15.8"/>
	<line class="st2" x1="38.4" y1="55.6" x2="48.8" y2="55.6"/>
	<line class="st2" x1="16.2" y1="55.6" x2="26.6" y2="55.6"/>
	<line class="st3" x1="16.2" y1="55.6" x2="0" y2="55.6"/>
	<g>
		<g>
			<g>
				<path class="st4" d="M22.6,40.4c-3.6-3.6-3-9.9-3-9.9s6.3-0.5,9.9,3c3.6,3.6,3,9.9,3,9.9S26.2,43.9,22.6,40.4z"/>
				<path class="st4" d="M42.5,40.4c3.6-3.6,3-9.9,3-9.9s-6.3-0.5-9.9,3c-3.6,3.6-3,9.9-3,9.9S38.9,43.9,42.5,40.4z"/>
			</g>
			<polyline class="st5" points="45.5,30.5 32.5,43.4 19.6,30.5 			"/>
		</g>
	</g>
	<line class="st5" x1="32.5" y1="43.4" x2="32.5" y2="61.5"/>
	<rect x="20.8" y="20.4" class="st0" width="23.4" height="4.4"/>
</g>
</svg>
