<?xml version="1.0" encoding="UTF-8"?><svg id="a" xmlns="http://www.w3.org/2000/svg" viewBox="0 0 69.91 69.91"><defs><style>.b{fill:#000440;}.c{fill:#fff;}.d{fill:#4ba5d7;}.e{stroke:#1069a0;}.e,.f{fill:none;stroke-miterlimit:10;}.f{stroke:#4ba5d7;}</style></defs><g><g><line class="e" x1="14.34" y1="14.34" x2="55.57" y2="55.57"/><circle class="d" cx="14.34" cy="14.34" r="6.16"/><circle class="d" cx="55.57" cy="55.57" r="6.16"/></g><g><line class="e" x1="6.16" y1="30.39" x2="63.75" y2="39.51"/><circle class="d" cx="6.16" cy="30.39" r="6.16"/><circle class="d" cx="63.75" cy="39.51" r="6.16"/></g><g><line class="e" x1="8.98" y1="48.19" x2="60.93" y2="21.72"/><circle class="d" cx="8.98" cy="48.19" r="6.16"/><circle class="d" cx="60.93" cy="21.72" r="6.16"/></g><g><line class="e" x1="21.72" y1="60.93" x2="48.19" y2="8.98"/><circle class="d" cx="21.72" cy="60.93" r="6.16"/><circle class="d" cx="48.19" cy="8.98" r="6.16"/></g><g><line class="e" x1="39.51" y1="63.75" x2="30.39" y2="6.16"/><circle class="d" cx="39.51" cy="63.75" r="6.16"/><circle class="d" cx="30.39" cy="6.16" r="6.16"/></g><polygon class="c" points="14.65 16.08 12.7 17.1 13.07 14.93 11.5 13.4 13.68 13.08 14.65 11.11 15.62 13.08 17.8 13.4 16.22 14.93 16.6 17.1 14.65 16.08"/><polygon class="c" points="30.7 7.9 28.75 8.92 29.13 6.76 27.55 5.22 29.73 4.9 30.7 2.93 31.67 4.9 33.85 5.22 32.28 6.76 32.65 8.92 30.7 7.9"/><polygon class="c" points="48.49 10.72 46.55 11.74 46.92 9.57 45.34 8.04 47.52 7.72 48.49 5.75 49.47 7.72 51.65 8.04 50.07 9.57 50.44 11.74 48.49 10.72"/><polygon class="c" points="61.17 23.39 59.22 24.41 59.59 22.24 58.02 20.71 60.19 20.39 61.17 18.42 62.14 20.39 64.32 20.71 62.74 22.24 63.11 24.41 61.17 23.39"/><polygon class="c" points="64.22 41.42 62.27 42.44 62.64 40.27 61.07 38.74 63.24 38.42 64.22 36.45 65.19 38.42 67.37 38.74 65.79 40.27 66.16 42.44 64.22 41.42"/><polygon class="c" points="55.87 57.3 53.93 58.33 54.3 56.16 52.72 54.62 54.9 54.31 55.87 52.34 56.85 54.31 59.02 54.62 57.45 56.16 57.82 58.33 55.87 57.3"/><polygon class="c" points="39.99 65.65 38.04 66.67 38.41 64.5 36.84 62.97 39.01 62.65 39.99 60.68 40.96 62.65 43.14 62.97 41.56 64.5 41.93 66.67 39.99 65.65"/><polygon class="c" points="21.96 62.6 20.01 63.62 20.38 61.45 18.81 59.92 20.98 59.6 21.96 57.63 22.93 59.6 25.11 59.92 23.53 61.45 23.91 63.62 21.96 62.6"/><polygon class="c" points="9.29 49.92 7.34 50.95 7.71 48.78 6.14 47.24 8.31 46.93 9.29 44.96 10.26 46.93 12.44 47.24 10.86 48.78 11.23 50.95 9.29 49.92"/><polygon class="c" points="6.47 32.13 4.52 33.15 4.89 30.99 3.32 29.45 5.5 29.14 6.47 27.16 7.44 29.14 9.62 29.45 8.05 30.99 8.42 33.15 6.47 32.13"/></g><circle class="b" cx="34.98" cy="34.91" r="16.53"/><g><circle class="f" cx="35.06" cy="33.57" r="6.9"/><circle class="f" cx="35.06" cy="33.57" r="6.9"/><path class="f" d="M44.41,33.57c0,5.16-4.18,9.34-9.34,9.34s-9.34-4.18-9.34-9.34"/><circle class="f" cx="35.06" cy="33.57" r="4.21"/><line class="f" x1="28.16" y1="33.57" x2="41.97" y2="33.57"/><line class="f" x1="35.06" y1="40.47" x2="35.06" y2="26.66"/><line class="f" x1="30.18" y1="28.68" x2="39.94" y2="38.45"/><line class="f" x1="30.18" y1="38.45" x2="39.94" y2="28.68"/><path class="f" d="M35.06,42.91c-2.06,0-3.89,1.81-4.37,2.55"/><path class="f" d="M35.06,42.91c2.06,0,3.89,1.81,4.37,2.55"/><path class="f" d="M23.88,35.17s.97,.88,2.18,1.19"/><path class="f" d="M24.49,37.94s1.22,.47,2.46,.32"/><path class="f" d="M25.54,40.42s1.31,.02,2.42-.55"/><path class="f" d="M46.05,35.17s-.97,.88-2.18,1.19"/><path class="f" d="M45.44,37.94s-1.22,.47-2.46,.32"/><path class="f" d="M44.39,40.42s-1.31,.02-2.42-.55"/></g></svg>