<?xml version="1.0" encoding="UTF-8"?><svg id="Content" xmlns="http://www.w3.org/2000/svg" viewBox="0 0 120 120"><defs><style>.cls-1{fill:#000440;}.cls-2{fill:#fff;}.cls-3{fill:#96cae6;}.cls-4{fill:#d89d29;}.cls-5{fill:#1069a0;}.cls-6{stroke:#000440;stroke-linecap:round;stroke-width:.61px;}.cls-6,.cls-7{fill:none;stroke-miterlimit:10;}.cls-7{stroke:#4ba5d7;stroke-width:1.18px;}</style></defs><path class="cls-3" d="m115.75,81.21H3.84c8.49,22.66,30.34,38.79,55.96,38.79s47.47-16.13,55.96-38.79Z"/><circle class="cls-2" cx="60" cy="60" r="60"/><path class="cls-5" d="m3.85,81.15c8.56,22.7,30.46,38.85,56.15,38.85s47.6-16.15,56.15-38.85H3.85Z"/><g><g id="text"><line class="cls-7" x1="68.35" y1="39.63" x2="59.67" y2="48.31"/><line class="cls-7" x1="70.79" y1="47.26" x2="64.97" y2="53.07"/><line class="cls-7" x1="87.59" y1="41.44" x2="65.71" y2="63.32"/><line class="cls-7" x1="81.05" y1="37.04" x2="72.38" y2="45.72"/><line class="cls-7" x1="63.13" y1="54.85" x2="57.3" y2="60.66"/><line class="cls-7" x1="96.66" y1="39.27" x2="90.85" y2="45.08"/><line class="cls-7" x1="87.79" y1="48.14" x2="84.68" y2="51.25"/><path class="cls-5" d="m92.17,42.21c5.03.42,9.45-3.31,9.87-8.34.42-5.03-3.31-9.45-8.34-9.87-.51-.04-1.02-.04-1.53,0-.47.01-.93.05-1.39.12-.62-5.71-5.75-9.84-11.47-9.22,0,0,0,0,0,0-.89.11-1.76.33-2.6.65-3.14-8.03-12.19-11.99-20.22-8.85-4.05,1.59-7.26,4.79-8.85,8.85-5.34-2.11-11.39.5-13.5,5.85,0,.02-.02.04-.02.06-.32.84-.54,1.71-.65,2.6-.46-.07-.92-.1-1.38-.12-5.03-.42-9.45,3.31-9.87,8.34-.42,5.03,3.31,9.45,8.34,9.87.51.04,1.02.04,1.53,0l60.08.07Z"/><path class="cls-4" d="m41.31,68.38l14.6-17.26-6.83.17,6.36-7.71-8.81.33-9.52,12.04,8.98-.21-4.77,12.65Z"/><path class="cls-4" d="m27.76,58.87l9.78-11.57-4.58.11,4.27-5.17-5.9.22-6.38,8.07,6.02-.14-3.2,8.48Z"/></g><path class="cls-3" d="m60.8,32.04c-.47,0-.93.04-1.39.14-.33-6.79-5.93-12.13-12.73-12.13-.46,0-.9,0-1.3.07-1.38,0-2.75.26-4.03.78-2.79,1.1-5.01,3.29-6.13,6.07-3.73-1.45-7.93.39-9.38,4.11,0,0,0,.01,0,.02-.23.59-.38,1.21-.46,1.83-.32-.05-.64-.08-.96-.08-3.51-.29-6.59,2.31-6.89,5.82-.29,3.51,2.31,6.59,5.82,6.89.35.03.71.03,1.07,0h22.63c3.07-.09,11.34,0,13.76,0,3.74,0,6.78-3.03,6.78-6.78s-3.03-6.78-6.78-6.78v.03Z"/></g><g id="QHBLtW"><g><path class="cls-1" d="m101.13,72.33c1.15-.84,2.2-1.77,2.98-3.1,1.1-1.84,1.13-3.8.1-5.57-.76-1.3-1.79-2.22-2.92-2.99-1.96-1.34-4.07-2.22-6.27-2.83-7.48-2.09-15.07-2.05-22.74-.32-2.98.67-5.9,1.71-8.65,3.44-1.34.84-2.59,1.83-3.59,3.27-1.43,2.07-1.48,4.34-.15,6.35.66.99,1.48,1.74,2.37,2.39.06.05.22.04.26-.02,1.41-1.77,3.18-2.72,5-3.52,2.79-1.23,5.66-1.91,8.57-2.33,4.43-.64,8.84-.67,13.22-.03,2.83.41,5.61,1.08,8.24,2.4,1.33.67,2.58,1.49,3.57,2.86Z"/><path class="cls-1" d="m95.99,81.43c.79-.46,1.5-.99,2.12-1.71,1.19-1.39,1.32-3.04.37-4.57-.63-1.01-1.46-1.73-2.35-2.35-1.87-1.3-3.9-2.12-6-2.72-5.51-1.56-11.12-1.89-16.82-.87-2.07.37-4.12.94-6.04,2.13-.68.42-1.34.94-1.91,1.56-1.25,1.35-1.41,3.05-.41,4.57.46.7,1.08,1.25,1.64,1.85.05.06.21.05.27,0,1.31-1.31,2.85-1.87,4.42-2.33,2.48-.72,4.99-.96,7.51-.98,2.53-.02,5.03.2,7.51.68,2.45.48,4.84,1.16,7.08,2.44.99.56,1.91,1.24,2.63,2.3Z"/><path class="cls-1" d="m81.31,76.99c-2.92-.33-6.05-.34-9.19.47-1.18.3-2.33.73-3.39,1.49-.67.49-1.28,1.08-1.52,2.05-.17.68-.07,1.3.2,1.88.34.73.83,1.27,1.37,1.75.06.05.19.06.24.01,1.21-1.1,2.6-1.47,4-1.75,3.2-.64,6.37-.48,9.52.08,2.1.37,4.15.94,6.09,1.96,1.02.53,2,1.15,2.73,2.21.04.06.17.1.24.06.68-.38,1.33-.83,1.84-1.55.57-.81.68-1.75.31-2.67-.32-.81-.84-1.39-1.41-1.9-1.35-1.2-2.89-1.94-4.49-2.55-2.05-.78-4.17-1.24-6.54-1.54Z"/><path class="cls-1" d="m70.4,85.5c-.08.74.14,1.28.43,1.8.05.09.12.18.17.27.19.38.39.45.77.24.82-.46,1.71-.51,2.57-.48,3.81.14,7.35,1.33,10.59,3.64.77.55,1.49,1.21,1.97,2.18.03.06.15.12.2.09.47-.25.98-.44,1.39-.8.6-.52.72-1.35.41-2.19-.29-.79-.77-1.39-1.3-1.93-1.5-1.51-3.25-2.49-5.08-3.29-2.28-.99-4.63-1.61-7.08-1.73-1.09-.05-2.19-.02-3.26.39-.44.17-.87.46-1.27.76-.31.24-.49.64-.53,1.03Z"/><path class="cls-1" d="m67.46,103.94c.35.14.7.3,1.05.43,2.18.77,4.39,1.04,6.67.33,1.36-.42,2.57-1.21,3.63-2.37.07-.08.14-.16.22-.26-1.66-3.4-3.68-6.24-6.98-7.16.01,1.08.08,2.12.02,3.16-.05.81-.19,1.65-.41,2.43-.61,2.07-1.87,3.1-3.59,3.32-.2.03-.39.04-.59.05,0,.03-.01.05-.02.08Z"/><path class="cls-1" d="m74.36,88.07c-.66-.13-1.21-.05-1.77.1-.88.24-1.23,1.05-.97,2.09.02.1.05.2.09.29.22.67.22.66.8.58.97-.13,1.89.13,2.79.49,2.5.98,4.75,2.48,6.67,4.64.55.62,1.05,1.31,1.32,2.2.02.07.12.17.17.16.39-.1.81-.16,1.17-.36.53-.3.72-.93.58-1.68-.18-.94-.64-1.67-1.14-2.34-1.46-1.94-3.26-3.32-5.2-4.45-1.44-.84-2.88-1.38-4.5-1.71Z"/><path class="cls-1" d="m71.76,93.04c.06.35.1.71.18,1.05.01.07.11.14.17.16.59.07,1.05.18,1.51.44,2.16,1.18,3.94,2.96,5.29,5.34.27.47.4,1.06.6,1.59.03.09.11.22.16.22.31-.01.64,0,.94-.11.42-.16.64-.65.53-1.25-.12-.63-.3-1.27-.57-1.82-.93-1.92-2.25-3.38-3.73-4.64-.98-.84-2.02-1.57-3.22-1.89-.34-.09-.71-.1-1.07-.05-.43.06-.86.32-.8.96Z"/></g></g><g id="SoW8cx"><path class="cls-1" d="m26.61,82.64c-.11-.74-.21-1.41-.21-1.87,0-.24-.04-1.56.15-1.64.17-.08.65,1.04.8,1.37.12.27.22.49.31.72.29.8.87,1.24,1.85,1.22.98-.01,1.72.62,2.3,1.39.35.46.64.97,1.1,1.67.31-1.68.6-3.18.85-4.69q.59-3.53-.85-6.87c-.71-1.66-1.49-3.29-2.15-4.97-.85-2.15-1.46-4.37-.89-6.7.17-.7.5-1.37.86-1.99.12-.21.68-1.06,1.11-1.01.31.15.07,1.28-.02,1.5-.67,1.7-.18,3.26.47,4.81.05.13.16.23.28.39.12-.36.22-.69.34-1.01.44-1.16,1.19-2.03,2.42-2.35,1.89-.49,3.32-1.59,4.45-3.14.09-.12.18-.23.28-.34.31-.35,1.09-1.61,1.47-1.19.18.2-.22,1.7-.38,1.96-1.12,1.82-2.51,3.43-4.62,4.08-1.48.45-2.01,1.44-2.01,2.97,0,1.87.37,3.52,1.68,4.96.95,1.04,1.69,2.26,2.57,3.38.53.68.8,1.43.84,2.29.08,1.7.21,3.4.34,5.36.78-.38,1.38-.67,2.11-1.03-.5-1.36-.94-2.59-1.38-3.81-.39-1.06-.66-2.12-.4-3.28.2-.91.58-1.69,1.34-2.18,1.69-1.09,2.76-2.52,3.31-4.42.05-.19.12-.45.18-.64.17-.53.39-1.99.8-1.72.21.13.03,2.14-.02,2.4-.43,2.15-.78,3.89-2.62,5.23-1.19.86-1.41,1.93-.98,3.2.28.82.67,1.61,1.11,2.67.31-.56.52-.91.7-1.27.61-1.22,1.16-2.47,1.84-3.65.59-1.03,1.41-1.95,2.57-2.31.83-.26,2.18-.23,2.44.16.22.32-1.15.6-1.78,1-1.48.93-2.21,2.29-2.81,3.8-.32.82-.63,1.64-.95,2.45-1.4,3.44-1.95,4.06-5.05,5.65.09,2.39.17,4.77.29,7.15.07,1.36.24,1.83.31,3.19.03.67.26,1.07.9,1.32.91.36,1.79.78,2.67,1.19.31.14.64.28.89.49.22.18-3.99,2.09-8.56,2.27-7.82.31-10.73-1.5-10.64-1.54.58-.27.76-.4,1.1-.59.84-.49,1.71-.95,2.59-1.37.62-.29.97-.67,1.08-1.4.37-2.41.88-3.91,1.28-6.31.05-.3-.02-.67-.15-.96-.42-.93-.93-1.81-1.34-2.74-.64-1.42-1.01-1.7-2.54-1.61-1.58.09-2.98-.4-4.29-1.2-.34-.21-2.15-1.68-1.9-2.15.23-.43,2.08.91,2.49,1.07.61.24,1.05.48,2.1.63Z"/></g><g><line class="cls-6" x1="22.48" y1="103.55" x2="26.08" y2="102.23"/><polyline class="cls-6" points="22.14 101.51 28.06 101.24 31 100.09"/><line class="cls-6" x1="24.67" y1="101.43" x2="31.53" y2="104.8"/><polyline class="cls-6" points="27.19 105.96 31.83 104.7 34.63 102.3 38.86 102.23"/><polyline class="cls-6" points="30.97 99.5 30.48 101.45 31.83 104.7 31.9 106.08"/><line class="cls-6" x1="33.7" y1="103.09" x2="37.42" y2="105.5"/><polyline class="cls-6" points="35.28 106.08 37.57 105.6 38.96 103.96 44.59 103.5 44.5 101.95 47.37 101.01 47.28 99.49 44.82 98.71 42.21 100.1 39.49 100.41 35.48 99.68 34.08 98.9 30.96 99.34 29.55 98.49 25.35 99.89 24.35 101.41"/><polyline class="cls-6" points="34.63 102.3 34.05 101.65 35.48 99.68"/><line class="cls-6" x1="34.05" y1="101.65" x2="30.48" y2="101.45"/><polyline class="cls-6" points="38.96 103.96 38.92 102.25 39.49 100.41 38.85 98.23"/><line class="cls-6" x1="42.21" y1="100.1" x2="44.5" y2="101.95"/><line class="cls-6" x1="47.37" y1="101.01" x2="49.98" y2="101.57"/><line class="cls-6" x1="44.59" y1="103.5" x2="46.29" y2="104.87"/></g></svg>