<?xml version="1.0" encoding="UTF-8"?><svg id="Content" xmlns="http://www.w3.org/2000/svg" viewBox="0 0 119.74 120"><defs><style>.cls-1{fill:#000440;}.cls-2{fill:#fff;}.cls-3{fill:#d89d29;}.cls-4{fill:#1069a0;}.cls-5{fill:#4ba5d7;}</style></defs><ellipse class="cls-2" cx="59.87" cy="60" rx="59.87" ry="60"/><path class="cls-4" d="m115.95,81.12H3.79c8.5,22.71,30.4,38.88,56.08,38.88,25.68,0,47.58-16.17,56.08-38.88Z"/><path class="cls-2" d="m1.6,73.77c6.22,26.49,29.94,46.23,58.27,46.23s52.05-19.74,58.27-46.23H1.6Z"/><g><path class="cls-1" d="m95.67,65.21h-3.89c-.72-8.3-7.61-14.65-15.82-14.57-.99,0-1.98.08-2.95.26-1-10.02-9.83-17.32-19.7-16.3-9.02.93-15.94,8.53-16.15,17.72-1.62-.56-3.32-.84-5.03-.85-8.46-.19-15.46,6.62-15.64,15.2-.16,7.67,5.22,14.32,12.67,15.64,6.47,1.26,13.23.75,19.84.75h46.64c4.85-.37,8.48-4.66,8.11-9.58-.31-4.17-3.43-7.57-7.51-8.17l-.56-.1Z"/><ellipse class="cls-5" cx="27.51" cy="37.14" rx="6.64" ry="6.73"/><ellipse class="cls-5" cx="77.12" cy="30.41" rx="6.64" ry="6.73"/><ellipse class="cls-5" cx="49.19" cy="21.7" rx="4.18" ry="4.24"/><ellipse class="cls-5" cx="89.68" cy="42.11" rx="4.18" ry="4.24"/><ellipse class="cls-5" cx="99.54" cy="57.9" rx="2.93" ry="2.97"/><ellipse class="cls-5" cx="17.39" cy="48.4" rx="2.4" ry="2.43"/><ellipse class="cls-5" cx="103.13" cy="47.6" rx="1.61" ry="1.63"/><ellipse class="cls-5" cx="62.04" cy="23.99" rx="1.92" ry="1.95"/></g><g><path class="cls-3" d="m55.31,59.58l-2.75,13.74c-.09.43.05.87.36,1.18l20.9,20.9c.51.51,1.33.51,1.84,0l16.01-16.01c.51-.51.51-1.33,0-1.84l-21-21c-.3-.3-.73-.44-1.15-.36l-13.17,2.37c-.53.09-.94.5-1.05,1.03Z"/><circle cx="58.93" cy="62.06" r="1.34"/><path d="m65.53,80.13l1.27-1.27c-.55-.58-1-1.14-1.35-1.67-.35-.53-.63-1.06-.83-1.59l1.68-1.68c.18.53.45,1.11.81,1.75.36.64.75,1.21,1.19,1.69l1.96-1.96c-.41-.93-.69-1.72-.85-2.37-.16-.65-.17-1.21-.04-1.69.13-.48.41-.93.83-1.35.65-.65,1.42-.92,2.32-.79.89.12,1.78.55,2.65,1.29l.98-.98.87.87-.95.95c.93,1,1.61,2.07,2.04,3.21l-2.08.88c-.2-.5-.44-.96-.71-1.39-.27-.43-.55-.81-.83-1.14l-1.87,1.87c.29.64.55,1.28.77,1.91.22.63.31,1.23.26,1.81-.05.58-.33,1.12-.84,1.63-.63.63-1.39.93-2.28.9s-1.83-.47-2.85-1.31l-1.3,1.3-.87-.87Zm3.68-1.94c.68.47,1.21.5,1.61.1.17-.17.25-.39.23-.66-.02-.27-.1-.61-.26-1.03l-1.59,1.59Zm2.9-4.64l1.5-1.5c-.62-.47-1.12-.52-1.48-.16-.18.18-.27.4-.26.65,0,.25.09.59.25,1Z"/></g></svg>