<?xml version="1.0" encoding="UTF-8"?><svg id="Isolation_Mode" xmlns="http://www.w3.org/2000/svg" viewBox="0 0 256.82 62.25"><defs><style>.cls-1{opacity:.06;}.cls-2{fill:#e4e4e4;}.cls-3{fill:#96cae6;}.cls-4{fill:#979797;}.cls-5{fill:#b1b1b1;}.cls-6{fill:#cacaca;}.cls-7{fill:#d89d29;}.cls-8{fill:#10699e;}.cls-9{fill:#0b4c83;}.cls-10{fill:#0e5b90;}.cls-11{fill:#2981b6;}.cls-12{fill:#4ba3d5;}.cls-13{fill:none;opacity:.3;stroke:#ebedf0;stroke-miterlimit:10;stroke-width:.62px;}</style></defs><g><rect class="cls-4" x="201.7" y="27.09" width="20.67" height="7.8" transform="translate(424.07 61.99) rotate(-180)"/><line class="cls-13" x1="212.03" y1="27.71" x2="212.03" y2="34.28"/></g><g><rect class="cls-11" x="181.03" y="27.09" width="20.67" height="7.8" transform="translate(382.72 61.99) rotate(-180)"/><line class="cls-13" x1="191.36" y1="27.71" x2="191.36" y2="34.28"/></g><g><rect class="cls-11" x="222.36" y="27.09" width="20.67" height="7.8" transform="translate(465.39 61.99) rotate(-180)"/><line class="cls-13" x1="232.7" y1="27.71" x2="232.7" y2="34.28"/></g><g><rect class="cls-3" x="160.36" y="27.09" width="20.67" height="7.8" transform="translate(341.38 61.99) rotate(-180)"/><line class="cls-13" x1="170.69" y1="27.71" x2="170.69" y2="34.28"/></g><g><rect class="cls-8" x="139.68" y="27.09" width="20.67" height="7.8" transform="translate(300.04 61.99) rotate(-180)"/><line class="cls-13" x1="150.02" y1="27.71" x2="150.02" y2="34.28"/></g><g><rect class="cls-12" x="77.67" y="27.09" width="20.67" height="7.8"/><line class="cls-13" x1="88.01" y1="27.71" x2="88.01" y2="34.28"/></g><g><rect class="cls-8" x="98.34" y="27.09" width="20.67" height="7.8"/><line class="cls-13" x1="108.68" y1="27.71" x2="108.68" y2="34.28"/></g><g><rect class="cls-9" x="119.01" y="27.09" width="20.67" height="7.8"/><line class="cls-13" x1="129.35" y1="27.71" x2="129.35" y2="34.28"/></g><g><rect class="cls-5" x="119.01" y="19.29" width="20.67" height="7.8" transform="translate(258.7 46.38) rotate(-180)"/><line class="cls-13" x1="129.35" y1="19.9" x2="129.35" y2="26.48"/></g><g><rect class="cls-11" x="98.34" y="19.29" width="20.67" height="7.8" transform="translate(217.36 46.38) rotate(-180)"/><line class="cls-13" x1="108.68" y1="19.9" x2="108.68" y2="26.48"/></g><g><rect class="cls-11" x="98.34" y="3.68" width="20.67" height="7.8" transform="translate(217.36 15.17) rotate(-180)"/><line class="cls-13" x1="108.68" y1="4.3" x2="108.68" y2="10.87"/></g><g><rect class="cls-4" x="77.67" y="19.29" width="20.67" height="7.8" transform="translate(176.01 46.38) rotate(-180)"/><line class="cls-13" x1="88.01" y1="19.9" x2="88.01" y2="26.48"/></g><g><rect class="cls-8" x="160.36" y="19.29" width="20.67" height="7.8" transform="translate(341.38 46.38) rotate(-180)"/><line class="cls-13" x1="170.69" y1="19.9" x2="170.69" y2="26.48"/></g><g><rect class="cls-12" x="139.68" y="19.29" width="20.67" height="7.8" transform="translate(300.04 46.38) rotate(-180)"/><line class="cls-13" x1="150.02" y1="19.9" x2="150.02" y2="26.48"/></g><g><rect class="cls-9" x="181.03" y="19.29" width="20.67" height="7.8"/><line class="cls-13" x1="191.36" y1="19.9" x2="191.36" y2="26.48"/></g><g><rect class="cls-9" x="150.02" y="11.49" width="20.67" height="7.8"/><line class="cls-13" x1="160.36" y1="12.1" x2="160.36" y2="18.68"/></g><g><rect class="cls-7" x="88.01" y="11.49" width="20.67" height="7.8" transform="translate(196.69 30.78) rotate(-180)"/><line class="cls-13" x1="98.34" y1="12.1" x2="98.34" y2="18.68"/></g><g><rect class="cls-9" x="108.68" y="11.49" width="20.67" height="7.8" transform="translate(238.03 30.78) rotate(-180)"/><line class="cls-13" x1="119.01" y1="12.1" x2="119.01" y2="18.68"/></g><g><rect class="cls-8" x="129.35" y="11.49" width="20.67" height="7.8" transform="translate(279.37 30.78) rotate(-180)"/><line class="cls-13" x1="139.68" y1="12.1" x2="139.68" y2="18.68"/></g><g><g><rect class="cls-8" x="21.83" y="5.95" width="30.63" height="19.21"/><polygon class="cls-8" points="52.46 0 43.37 0 37.15 7.19 52.46 7.19 52.46 0"/><g><rect class="cls-11" x="45.06" y="21.32" width="3.84" height="3.84" transform="translate(93.95 46.48) rotate(-180)"/><rect class="cls-11" x="38.48" y="21.32" width="3.84" height="3.84" transform="translate(80.8 46.48) rotate(-180)"/><rect class="cls-11" x="31.91" y="21.32" width="3.84" height="3.84" transform="translate(67.65 46.48) rotate(-180)"/></g><g><rect class="cls-11" x="45.06" y="15.03" width="3.84" height="3.84" transform="translate(93.95 33.9) rotate(-180)"/><rect class="cls-11" x="38.48" y="15.03" width="3.84" height="3.84" transform="translate(80.8 33.9) rotate(-180)"/><rect class="cls-11" x="31.91" y="15.03" width="3.84" height="3.84" transform="translate(67.65 33.9) rotate(-180)"/></g><g><rect class="cls-11" x="45.06" y="8.74" width="3.84" height="3.84" transform="translate(93.95 21.33) rotate(-180)"/><rect class="cls-11" x="38.48" y="8.74" width="3.84" height="3.84" transform="translate(80.8 21.33) rotate(-180)"/><rect class="cls-11" x="31.91" y="8.74" width="3.84" height="3.84" transform="translate(67.65 21.33) rotate(-180)"/><rect class="cls-11" x="25.33" y="21.32" width="3.84" height="3.84" transform="translate(54.51 46.48) rotate(-180)"/><rect class="cls-11" x="25.33" y="15.03" width="3.84" height="3.84" transform="translate(54.51 33.9) rotate(-180)"/><rect class="cls-11" x="25.33" y="8.74" width="3.84" height="3.84" transform="translate(54.51 21.33) rotate(-180)"/></g></g><g><path class="cls-2" d="M0,21.23c0,7.44,2.56,12.87,5.97,16.74,3.49,3.96,7.85,6.27,11.26,7.37,3.02,1.05,5.56,2.16,7.69,3.29,12.19,6.48,10.94,13.63,10.94,13.63H229.47c10.1,0,18.92-5.48,23.66-13.63,2.35-4.03,3.69-8.72,3.69-13.73H87.9c-5.64,0-10.23-4.58-10.23-10.23v-3.44s-77.67,0-77.67,0Z"/><path class="cls-10" d="M35.86,62.25H229.47c10.1,0,18.92-5.48,23.66-13.62H24.92c12.19,6.47,10.94,13.62,10.94,13.62Z"/><path class="cls-1" d="M5.97,37.96c3.49,3.96,7.85,6.27,11.26,7.37,3.02,1.05,5.56,2.16,7.69,3.29,12.19,6.48,10.94,13.63,10.94,13.63h54.55c.64-.81,1.05-1.63,1.19-2.46,.62-3.53-3.17-8.97-6.45-11.96-3.48-3.17-7.19-4.27-10.06-5.13-8.42-2.51-13.23,.02-22.59-1.52-6.51-1.07-6.18-2.63-14.04-4.93-6.06-1.77-24.07-7.05-31.51,.57-.34,.35-.67,.73-.96,1.14Z"/></g><g><circle class="cls-6" cx="230.55" cy="48.04" r="4.36"/><circle class="cls-12" cx="230.55" cy="48.04" r="3.09"/></g><g><circle class="cls-6" cx="207.61" cy="48.04" r="4.36"/><circle class="cls-12" cx="207.61" cy="48.04" r="3.09"/></g><g><circle class="cls-6" cx="183.81" cy="48.04" r="4.36"/><circle class="cls-12" cx="183.81" cy="48.04" r="3.09"/></g></g></svg>