<?xml version="1.0" encoding="UTF-8"?><svg id="Content" xmlns="http://www.w3.org/2000/svg" viewBox="0 0 119.74 120"><defs><style>.cls-1{fill:#000440;}.cls-2{fill:#fff;}.cls-3{fill:#96cae6;}.cls-4{fill:#d89d29;}.cls-5{fill:#1069a0;}.cls-6{fill:#10699e;}.cls-7{fill:#0b4c83;}.cls-8{fill:#2981b6;}.cls-9{fill:none;stroke:#10699e;stroke-miterlimit:10;stroke-width:.79px;}</style></defs><g><ellipse class="cls-2" cx="59.87" cy="60" rx="59.87" ry="60"/><g><circle class="cls-7" cx="43.05" cy="69.62" r="9.77"/><circle class="cls-7" cx="62.59" cy="69.62" r="9.77"/><circle class="cls-7" cx="82.12" cy="69.62" r="9.77"/><path class="cls-6" d="m30.81,70.3v-19.29c0-.29-.23-.52-.52-.52h-10.19c-.23,0-.44.16-.5.38l-3.07,11.13h-1.2v-9.78c0-.33-.27-.6-.6-.6h-4.62c-.31,0-.57.23-.6.54l-1.92,18.13h23.22Z"/><g><rect class="cls-8" x="21.33" y="54.56" width="2.34" height="1.89"/><rect class="cls-8" x="25.29" y="54.56" width="3.7" height="1.89"/></g><g><rect class="cls-8" x="21.33" y="59.21" width="2.34" height="1.89"/><rect class="cls-8" x="25.29" y="59.21" width="3.7" height="1.89"/></g><g><rect class="cls-8" x="21.33" y="63.86" width="2.34" height="1.89"/><rect class="cls-8" x="25.29" y="63.86" width="3.7" height="1.89"/></g><path class="cls-3" d="m115.95,63.12c0,3.26-1.13,5.65-2.62,7.35-1.53,1.74-3.45,2.75-4.94,3.24-1.33.46-2.44.95-3.38,1.44-5.35,2.84-4.8,5.98-4.8,5.98H15.23c-4.43,0-8.3-2.41-10.39-5.98-1.03-1.77-1.62-3.83-1.62-6.03h84.16c2.48,0,4.49-2.01,4.49-4.49v-1.51h24.08Z"/><path class="cls-3" d="m108.03,81.12s.78-6.35,5.05-10.39h-9.81v10.39h4.75Z"/><path class="cls-1" d="m100.21,81.12H15.23c-4.43,0-8.31-2.4-10.39-5.98h100.17c-5.35,2.84-4.8,5.98-4.8,5.98Z"/><circle class="cls-8" cx="29.33" cy="75.14" r="1.61"/><circle class="cls-8" cx="39.64" cy="75.14" r="1.61"/><rect class="cls-1" x="94.2" y="75.14" width="18.15" height="5.98" rx="2.99" ry="2.99"/><path class="cls-9" d="m43.05,59.86v-1.3c0-.84.68-1.52,1.52-1.52h36.04c.84,0,1.52.68,1.52,1.52v1.3"/><line class="cls-9" x1="62.59" y1="59.86" x2="62.59" y2="57.04"/></g><path class="cls-5" d="m115.95,81.12H3.79c8.5,22.71,30.4,38.88,56.08,38.88s47.58-16.17,56.08-38.88Z"/></g><g><path class="cls-1" d="m80.45,31.33h-1.87c-.35-3.94-3.66-6.94-7.61-6.91-.48,0-.95.04-1.42.12-.48-4.75-4.73-8.21-9.48-7.73-4.34.44-7.67,4.04-7.77,8.4-.78-.26-1.6-.4-2.42-.4-4.07-.09-7.44,3.14-7.53,7.21-.08,3.64,2.51,6.79,6.09,7.42,3.11.6,6.37.36,9.55.36h22.44c2.33-.18,4.08-2.21,3.9-4.54-.15-1.98-1.65-3.59-3.61-3.87l-.27-.05Z"/><circle class="cls-7" cx="47.66" cy="18.02" r="3.19"/><circle class="cls-7" cx="71.52" cy="14.83" r="3.19"/><circle class="cls-7" cx="58.09" cy="10.7" r="2.01"/><circle class="cls-7" cx="77.57" cy="20.38" r="2.01"/><circle class="cls-7" cx="82.31" cy="27.86" r="1.41"/><circle class="cls-7" cx="42.79" cy="23.36" r="1.15"/><circle class="cls-7" cx="84.04" cy="22.98" r=".77"/><circle class="cls-7" cx="64.27" cy="11.78" r=".92"/><polygon class="cls-4" points="55.36 42.56 62.18 49.38 68.99 42.56 64.42 42.56 64.42 26.45 59.93 26.45 59.93 42.56 55.36 42.56"/></g></svg>