<?xml version="1.0" encoding="UTF-8"?><svg id="Content" xmlns="http://www.w3.org/2000/svg" xmlns:xlink="http://www.w3.org/1999/xlink" viewBox="0 0 167.18 120"><defs><style>.cls-1{fill:none;}.cls-2{clip-path:url(#clippath);}.cls-3{fill:#000440;}.cls-4{fill:#fff;}.cls-5{fill:#96cae6;}.cls-6{fill:#d89d29;}.cls-7{fill:#1069a0;}.cls-8{fill:#10699e;}.cls-9{fill:#0b4c83;}.cls-10{fill:#2981b6;}</style><clipPath id="clippath"><path class="cls-1" d="M167.18,60.13c0,33.06-36.95,59.87-70.02,59.87s-59.87-26.8-59.87-59.87S64.1,.26,97.16,.26s70.02,26.8,70.02,59.87Z"/></clipPath></defs><ellipse class="cls-4" cx="97.16" cy="60" rx="59.87" ry="60"/><g class="cls-2"><g><g><rect class="cls-8" x="127.36" y="47.14" width="19.09" height="11.97" transform="translate(273.82 106.26) rotate(-180)"/><polygon class="cls-8" points="127.36 43.44 133.03 43.44 136.91 47.92 127.36 47.92 127.36 43.44"/><g><rect class="cls-10" x="129.59" y="56.72" width="2.39" height="2.39"/><rect class="cls-10" x="133.68" y="56.72" width="2.39" height="2.39"/><rect class="cls-10" x="137.78" y="56.72" width="2.39" height="2.39"/></g><g><rect class="cls-10" x="129.59" y="52.8" width="2.39" height="2.39"/><rect class="cls-10" x="133.68" y="52.8" width="2.39" height="2.39"/><rect class="cls-10" x="137.78" y="52.8" width="2.39" height="2.39"/></g><g><rect class="cls-10" x="129.59" y="48.89" width="2.39" height="2.39"/><rect class="cls-10" x="133.68" y="48.89" width="2.39" height="2.39"/><rect class="cls-10" x="137.78" y="48.89" width="2.39" height="2.39"/><rect class="cls-10" x="141.88" y="56.72" width="2.39" height="2.39"/><rect class="cls-10" x="141.88" y="52.8" width="2.39" height="2.39"/><rect class="cls-10" x="141.88" y="48.89" width="2.39" height="2.39"/></g></g><rect class="cls-10" x="21.47" y="60.32" width="12.88" height="4.86"/><rect class="cls-8" x="34.35" y="60.32" width="12.88" height="4.86"/><rect class="cls-10" x="47.24" y="60.32" width="12.88" height="4.86"/><rect class="cls-9" x="60.12" y="60.32" width="12.88" height="4.86"/><rect class="cls-10" x="73" y="60.32" width="12.88" height="4.86"/><rect class="cls-8" x="85.89" y="60.32" width="12.88" height="4.86"/><rect class="cls-9" x="98.77" y="60.32" width="12.88" height="4.86"/><rect class="cls-8" x="98.77" y="55.46" width="12.88" height="4.86" transform="translate(210.42 115.78) rotate(-180)"/><rect class="cls-10" x="85.89" y="55.46" width="12.88" height="4.86" transform="translate(184.66 115.78) rotate(-180)"/><rect class="cls-9" x="73" y="55.46" width="12.88" height="4.86" transform="translate(158.89 115.78) rotate(-180)"/><rect class="cls-8" x="47.24" y="55.46" width="12.88" height="4.86"/><rect class="cls-10" x="60.12" y="55.46" width="12.88" height="4.86"/><rect class="cls-9" x="34.35" y="55.46" width="12.88" height="4.86" transform="translate(81.59 115.78) rotate(-180)"/><rect class="cls-9" x="53.68" y="50.59" width="12.88" height="4.86" transform="translate(120.24 106.05) rotate(-180)"/><rect class="cls-8" x="79.44" y="50.59" width="12.88" height="4.86" transform="translate(171.77 106.05) rotate(-180)"/><rect class="cls-9" x="92.33" y="50.59" width="12.88" height="4.86" transform="translate(197.54 106.05) rotate(-180)"/><g><path class="cls-5" d="M160.06,56.66c0,4.63-1.6,8.02-3.72,10.43-2.18,2.47-4.89,3.9-7.02,4.59-1.88,.66-3.47,1.35-4.79,2.05-7.6,4.04-6.82,8.49-6.82,8.49H17.05c-6.29,0-11.79-3.42-14.75-8.49-1.46-2.51-2.3-5.44-2.3-8.56H105.28c3.52,0,6.37-2.85,6.37-6.37v-2.14h48.41Z"/><path class="cls-3" d="M137.71,82.23H17.05c-6.3,0-11.79-3.41-14.75-8.49H144.53c-7.6,4.03-6.82,8.49-6.82,8.49Z"/></g><g><circle class="cls-10" cx="30.63" cy="73.38" r="2.72"/><circle class="cls-10" cx="30.63" cy="73.38" r="1.93"/></g><g><circle class="cls-10" cx="44.93" cy="73.38" r="2.72"/><circle class="cls-10" cx="44.93" cy="73.38" r="1.93"/></g><g><circle class="cls-10" cx="59.76" cy="73.38" r="2.72"/><circle class="cls-10" cx="59.76" cy="73.38" r="1.93"/></g></g></g><path class="cls-7" d="M153.24,81.12H41.08c8.5,22.71,30.4,38.88,56.08,38.88s47.58-16.17,56.08-38.88Z"/><path class="cls-6" d="M102.81,24.87c1.68,.92,2.3,3.03,1.38,4.71-.92,1.68-3.03,2.3-4.71,1.38-.42-.23-.77-.53-1.05-.88-2.83,2.41-6.7,3.33-10.35,2.39,.09,.7-.03,1.43-.39,2.1-.92,1.68-3.03,2.3-4.71,1.38-.53-.29-.96-.7-1.27-1.18-3.96,4.68-10.79,6.1-16.38,3.05-2.63-1.44-4.58-3.64-5.72-6.19-2.11,1.09-4.71,1.15-6.96-.08-2.56-1.4-3.96-4.09-3.85-6.83-.4-.11-.8-.26-1.18-.47-2.64-1.44-3.61-4.75-2.17-7.38,.82-1.49,2.23-2.45,3.78-2.74-.46-2.5-.09-5.17,1.22-7.57,3.04-5.58,10.03-7.63,15.61-4.59,1.47,.8,2.69,1.88,3.65,3.13,2.65-2.3,6.55-2.84,9.81-1.06,3.04,1.66,4.69,4.88,4.49,8.12,3.5-2.64,8.36-3.16,12.45-.92,4.84,2.64,7.02,8.25,5.53,13.33,.27,.07,.54,.17,.8,.31Zm20.61,11.03c-.52-.46-1.14-.74-1.79-.83-.08-1.74-.83-3.45-2.24-4.69-1.31-1.16-2.94-1.7-4.56-1.67-.2-.44-.48-.84-.86-1.18-1.43-1.27-3.63-1.14-4.9,.3-1.16,1.31-1.15,3.24-.05,4.54-1.34,2.64-.8,5.95,1.52,8.01,2.31,2.05,5.65,2.2,8.11,.57,.05,.05,.11,.11,.17,.16,1.43,1.27,3.63,1.14,4.9-.3,1.27-1.43,1.14-3.63-.3-4.9Z"/><polygon class="cls-9" points="124.58 56.66 116.53 56.66 116.75 52.2 117.06 46.04 117.31 40.98 123.8 40.98 124.05 46.04 124.36 52.2 124.58 56.66"/><polygon class="cls-8" points="124.36 52.2 116.75 52.2 117.06 46.04 124.05 46.04 124.36 52.2"/><circle class="cls-3" cx="72.74" cy="20.94" r="11.64"/><path class="cls-4" d="M74.61,27.39h-2.76v-7.54c0-.3,0-.71,.02-1.23,.01-.52,.03-.97,.05-1.36-.06,.07-.19,.2-.39,.39-.2,.19-.39,.36-.56,.5l-1.5,1.2-1.33-1.66,4.2-3.34h2.26v13.04Z"/></svg>