<?xml version="1.0" encoding="UTF-8"?><svg id="Isolation_Mode" xmlns="http://www.w3.org/2000/svg" viewBox="0 0 151.21 97.49"><defs><style>.cls-1{fill:#000440;}.cls-2{fill:#96cae6;}.cls-3{fill:#d89d29;}.cls-4{fill:#1069a0;}.cls-5{fill:#10699e;}.cls-6{fill:#0b4c83;}.cls-7{fill:#2981b6;}.cls-8{fill:#4ba5d7;}.cls-9{fill:#d6eaf6;stroke:#d6eaf6;stroke-miterlimit:10;stroke-width:.73px;}</style></defs><g id="climate"><g><circle class="cls-2" cx="87.91" cy="46.2" r="46.19"/><path class="cls-4" d="M87.91,0c-.85,0-1.69,.02-2.53,.07l-4.23,5.51,.13,3.71h3.97l.39,1.8-4.36,3.06-5.97,4.69,2.23,2.35-.59,2.19-3.98,.18-.69,4.16,2.69,1.09,3.28-.91,2.82-4.88,3.61-1.09,4.15,4.7,1.13-.9-3.14-4.15,1.15-.36,5.07,6.87,.79-.91,.1-1.82,1.15-.36,1.2,.9,1.14-.54-.58-2.19,.73-2.35,7.89,1.99-.73,2.17-6.12,.73-2.73,2.35,1.87,1.09,4.13-.73-.84,4.17-1.95,1.09-6.89-1.99-.76,1.99-6.26-3.08-.26-2.72-12.18,3.09-5.06,8.18,.25,7.79,6.71,6.08,7.13-1.46,4.06,1.46,.17,4.74,2.37,5.51-.77,6.44,5.47,12.01h5.55l5.04-8.32-.13-3.32,3.05-3.32-1.46-7.18,6.09-6.59,1.58-6.07-5.61,1.51-6.44-11.31,.92-2,6.26,10.92,9.81-4.56-2.64-3.28h-2.82l-2.51-4.38,1.15-.18,1.58,2,9.73,1.82,3.67,4.01,3.56,8.94,2.7-6.75,1.8-1.42C131.88,18.35,111.89,0,87.91,0Zm22.27,28.42l.2-3.26-1.94-2.89,3.87-2.72,1.7,8.86h-3.82Z"/><path class="cls-4" d="M59.03,59.47l-10.33-2.96-6.93-8.24c.41,9.5,3.76,18.63,9.58,26.15l4.82-2.19-.2-6.83,3.16-2.67-.1-3.25Z"/></g><g><polygon class="cls-6" points="33.52 73.34 41.12 73.34 40.91 69.12 40.62 63.3 40.39 58.52 34.25 58.52 34.02 63.3 33.73 69.12 33.52 73.34"/><g><rect class="cls-5" x="12.85" y="64.34" width="18.03" height="11.31"/><polygon class="cls-5" points="30.89 60.84 25.54 60.84 21.87 65.08 30.89 65.08 30.89 60.84"/><g><rect class="cls-7" x="26.53" y="73.39" width="2.26" height="2.26" transform="translate(55.31 149.05) rotate(-180)"/><rect class="cls-7" x="22.66" y="73.39" width="2.26" height="2.26" transform="translate(47.57 149.05) rotate(-180)"/><rect class="cls-7" x="18.79" y="73.39" width="2.26" height="2.26" transform="translate(39.83 149.05) rotate(-180)"/></g><g><rect class="cls-7" x="26.53" y="69.69" width="2.26" height="2.26" transform="translate(55.31 141.64) rotate(-180)"/><rect class="cls-7" x="22.66" y="69.69" width="2.26" height="2.26" transform="translate(47.57 141.64) rotate(-180)"/><rect class="cls-7" x="18.79" y="69.69" width="2.26" height="2.26" transform="translate(39.83 141.64) rotate(-180)"/></g><g><rect class="cls-7" x="26.53" y="65.99" width="2.26" height="2.26" transform="translate(55.31 134.24) rotate(-180)"/><rect class="cls-7" x="22.66" y="65.99" width="2.26" height="2.26" transform="translate(47.57 134.24) rotate(-180)"/><rect class="cls-7" x="18.79" y="65.99" width="2.26" height="2.26" transform="translate(39.83 134.24) rotate(-180)"/><rect class="cls-7" x="14.92" y="73.39" width="2.26" height="2.26" transform="translate(32.09 149.05) rotate(-180)"/><rect class="cls-7" x="14.92" y="69.69" width="2.26" height="2.26" transform="translate(32.09 141.64) rotate(-180)"/><rect class="cls-7" x="14.92" y="65.99" width="2.26" height="2.26" transform="translate(32.09 134.24) rotate(-180)"/></g></g><rect class="cls-7" x="118.75" y="76.79" width="12.17" height="4.59" transform="translate(249.68 158.18) rotate(-180)"/><rect class="cls-5" x="106.58" y="76.79" width="12.17" height="4.59" transform="translate(225.34 158.18) rotate(-180)"/><rect class="cls-7" x="94.41" y="76.79" width="12.17" height="4.59" transform="translate(200.99 158.18) rotate(-180)"/><rect class="cls-6" x="82.24" y="76.79" width="12.17" height="4.59" transform="translate(176.65 158.18) rotate(-180)"/><rect class="cls-7" x="70.07" y="76.79" width="12.17" height="4.59" transform="translate(152.31 158.18) rotate(-180)"/><rect class="cls-5" x="57.9" y="76.79" width="12.17" height="4.59" transform="translate(127.97 158.18) rotate(-180)"/><rect class="cls-6" x="45.73" y="76.79" width="12.17" height="4.59" transform="translate(103.63 158.18) rotate(-180)"/><rect class="cls-5" x="45.73" y="72.2" width="12.17" height="4.59"/><rect class="cls-7" x="57.9" y="72.2" width="12.17" height="4.59"/><rect class="cls-6" x="70.07" y="72.2" width="12.17" height="4.59"/><rect class="cls-5" x="94.41" y="72.2" width="12.17" height="4.59" transform="translate(200.99 148.99) rotate(-180)"/><rect class="cls-7" x="82.24" y="72.2" width="12.17" height="4.59" transform="translate(176.65 148.99) rotate(-180)"/><rect class="cls-6" x="106.58" y="72.2" width="12.17" height="4.59"/><rect class="cls-5" x="63.99" y="67.6" width="12.17" height="4.59"/><rect class="cls-6" x="51.82" y="67.6" width="12.17" height="4.59"/><g><path class="cls-8" d="M0,73.34c0,4.38,1.51,7.58,3.51,9.85,2.05,2.33,4.62,3.69,6.63,4.34,1.78,.62,3.27,1.27,4.53,1.94,7.18,3.81,6.44,8.02,6.44,8.02h113.99c5.95,0,11.14-3.23,13.93-8.02,1.38-2.37,2.17-5.14,2.17-8.08H51.75c-3.32,0-6.02-2.7-6.02-6.02v-2.03s-45.73,0-45.73,0Z"/><path class="cls-1" d="M21.11,97.49h113.99c5.95,0,11.14-3.22,13.93-8.02H14.67c7.18,3.81,6.44,8.02,6.44,8.02Z"/></g><g><circle class="cls-7" cx="122.27" cy="89.12" r="2.57"/><circle class="cls-7" cx="122.27" cy="89.12" r="1.82"/></g><g><circle class="cls-7" cx="108.76" cy="89.12" r="2.57"/><circle class="cls-7" cx="108.76" cy="89.12" r="1.82"/></g><g><circle class="cls-7" cx="94.75" cy="89.12" r="2.57"/><circle class="cls-7" cx="94.75" cy="89.12" r="1.82"/></g></g><g><path class="cls-9" d="M140.18,54.85V19.37c0-3.36-2.72-6.08-6.08-6.08h0c-3.36,0-6.08,2.72-6.08,6.08h0V54.85c-5.08,3.36-6.47,10.2-3.11,15.27,3.36,5.08,10.2,6.47,15.27,3.11,5.08-3.36,6.47-10.2,3.11-15.27-.82-1.24-1.88-2.3-3.11-3.11h0Z"/><path class="cls-3" d="M134.1,71.66c-4.21,0-7.63-3.42-7.62-7.63,0-2.56,1.28-4.95,3.42-6.36l1.52-1.01V31.11h5.37v25.56l1.52,1.01c3.51,2.32,4.48,7.06,2.15,10.57-1.41,2.13-3.8,3.42-6.36,3.42h0Z"/></g></g></svg>