<?xml version="1.0" encoding="UTF-8"?><svg id="Content" xmlns="http://www.w3.org/2000/svg" viewBox="0 0 120 120"><defs><style>.cls-1{fill:#000440;}.cls-2{fill:#fff;}.cls-3{fill:#a5d2eb;}.cls-4{fill:#d89d29;}.cls-5{fill:#1069a0;}.cls-6{fill:#093e77;}.cls-7{stroke-linecap:round;stroke-width:2px;}.cls-7,.cls-8,.cls-9{fill:none;stroke-miterlimit:10;}.cls-7,.cls-9{stroke:#fff;}.cls-8{stroke:#000440;}</style></defs><circle class="cls-2" cx="60" cy="60" r="60"/><path class="cls-5" d="m3.85,81.15c8.56,22.7,30.46,38.85,56.15,38.85s47.6-16.15,56.15-38.85H3.85Z"/><g id="Earth"><path class="cls-8" d="m87.69,30.19c15.29,15.29,15.29,40.08,0,55.37s-40.08,15.29-55.37,0"/><line class="cls-8" x1="60" y1="97.03" x2="60" y2="105.42"/><g><rect class="cls-6" x="46.94" y="101.14" width="26.85" height="4.95" rx="2.3" ry="2.3"/><path class="cls-1" d="m77.42,111.04h-34.89v-2.89c0-1.6,1.3-2.89,2.89-2.89h29.16c1.6,0,2.89,1.3,2.89,2.89v2.89s-.04,0-.06,0Z"/></g><circle class="cls-3" cx="60" cy="57.87" r="35.62"/><polygon class="cls-1" points="53.89 32.75 54.94 32.11 54.37 31.15 54.18 29.88 54.28 28.8 53.41 28.26 52.55 28.84 52.04 30.33 52.01 31.61 51.95 32.55 53.24 32.95 53.89 32.75"/><path class="cls-1" d="m69.2,23.46l-.87,2.12-1.08,1.48-1.18-.93-.36-1.1-2.96-.72-1.66.93-1.2,1.75-1.62,1.34-.62.78.44,1.13,1.61-.12.82,1.05-.73,1.63-1.83-.06-2.04,1.49-1.31.44-1.31.58.41,1.48-.79.35-2.56-.65-1.61,2.18.17,1.39,1.87.87,1.92-.1.81-1.92,1.48-.4.73-1.1,1.61.94,1.61-.72,1.75,1.14,1.41,2.42,1.55-1.24,1.31.71,1.96-1.17,2.06,2.21,3.12-.75.71,2.86-2.4,2.09h.03l-5.24-.39-.84,2.23-4.85-2.74-.34-2.15-8.7.87-4.27,3.93-3.05,4.27-.03,6.3,4,5.52,3.57.66,3.93-1.07,3.93,1.77-.48,3.05,2.95,4.98-1.2,3.69,2.62,5.2.9,1.94,1.7.48,4.2-1.31,4.74-4,.53-2.51,2.79-2.56-.31-5.56,2.46-4.8,1.93-1.43,1.48-5.61-3.75,1.61-3.61-4.42-3.86-7.05.11.08,2.31-1.11,2.09,2.74,1.54,3.2,2.89,2.85,1.66-.98.44-1.04,1.34-1.04,1.49-4.19-1.95-.44-1.72.58-1.34-.5-1.47-2.62,2.54.32,1.61-.66,2.5,1.04,2.73-.37,3.93,4.89,3.03,3.75c-1.9-14.3-12.24-26.05-26.18-29.74Z"/><path class="cls-1" d="m32.34,65.41l-3.75-2.85-.41-3.12-3.52-3.52-.17-.66c-.06.87-.1,1.75-.1,2.62-.01,7.49,2.35,14.8,6.75,20.86l-.52-1.96,1.78-1.09-.47-4.22,1.67-2.94-1.25-3.13Z"/></g><g><polygon class="cls-4" points="32.95 24.15 21.12 44.63 44.77 44.63 32.95 24.15"/><line class="cls-9" x1="32.95" y1="31" x2="32.95" y2="38.32"/><line class="cls-7" x1="32.95" y1="40.47" x2="32.95" y2="40.47"/></g><g><polygon class="cls-4" points="74.64 55.26 62.82 75.74 86.47 75.74 74.64 55.26"/><line class="cls-9" x1="74.64" y1="62.11" x2="74.64" y2="69.43"/><line class="cls-7" x1="74.64" y1="71.58" x2="74.64" y2="71.58"/></g></svg>