<?xml version="1.0" encoding="UTF-8"?><svg id="Isolation_Mode" xmlns="http://www.w3.org/2000/svg" viewBox="0 0 120 120"><defs><style>.cls-1{fill:none;}.cls-2{fill:#bfbfbf;}.cls-3{fill:#d89d29;}.cls-4{fill:#1069a0;}.cls-5{fill:#4ba5d7;}</style></defs><circle class="cls-1" cx="60" cy="60" r="60"/><g><g><path class="cls-5" d="m101.88,60.37h-3.75c-.69-8.01-7.34-14.13-15.26-14.06-.96,0-1.91.08-2.85.25-.97-9.67-9.48-16.71-19.01-15.73-8.7.9-15.38,8.23-15.58,17.1-1.56-.54-3.2-.81-4.86-.82-8.16-.18-14.91,6.39-15.09,14.66-.16,7.4,5.03,13.81,12.22,15.09,6.24,1.22,12.77.72,19.14.72h44.99c4.68-.36,8.18-4.5,7.83-9.24-.3-4.02-3.31-7.3-7.25-7.88l-.54-.1Z"/><path class="cls-4" d="m68.58,64.46h-2.87c-.53-6.12-5.61-10.8-11.66-10.75-.73,0-1.46.06-2.18.19-.74-7.39-7.24-12.77-14.53-12.02-6.65.69-11.75,6.29-11.91,13.07-1.2-.41-2.45-.62-3.71-.63-6.23-.14-11.4,4.88-11.53,11.21-.12,5.66,3.85,10.56,9.34,11.53,4.77.93,9.76.55,14.63.55h34.39c3.57-.27,6.25-3.44,5.98-7.07-.23-3.08-2.53-5.58-5.54-6.02l-.42-.07Z"/><ellipse class="cls-2" cx="36.48" cy="29.76" rx="6.4" ry="6.5"/><ellipse class="cls-2" cx="83.98" cy="26.8" rx="6.4" ry="6.5"/><ellipse class="cls-2" cx="57.04" cy="18.39" rx="4.03" ry="4.09"/><ellipse class="cls-2" cx="96.1" cy="38.09" rx="4.03" ry="4.09"/><ellipse class="cls-2" cx="14.51" cy="45.9" rx="4.03" ry="4.09"/><ellipse class="cls-2" cx="105.61" cy="53.32" rx="2.83" ry="2.87"/><ellipse class="cls-2" cx="24.05" cy="37.11" rx="2.31" ry="2.35"/><ellipse class="cls-2" cx="109.07" cy="43.38" rx="1.55" ry="1.58"/><ellipse class="cls-2" cx="18.54" cy="28.37" rx="1.55" ry="1.58"/><ellipse class="cls-2" cx="69.44" cy="20.61" rx="1.85" ry="1.88"/></g><g><path class="cls-3" d="m70.22,94.5c-1.66.76-3.44,1.2-5.3,1.2-8.48,0-15.38-8.63-15.38-19.25s6.9-19.25,15.38-19.25,15.38,8.63,15.38,19.25c0,5.89-2.13,11.17-5.48,14.71.39.08.77.16,1.19.27.69.17,1.38.35,2.08.51,3.22-4.01,5.21-9.47,5.21-15.49,0-12.27-8.25-22.25-18.38-22.25s-18.38,9.98-18.38,22.25,8.25,22.25,18.38,22.25c1.9,0,3.74-.35,5.47-1.01l-.17-3.2Z"/><path class="cls-3" d="m61.55,98.3c5.2.85,10.35.88,15.51.49-4.91,1.7-9.94,2.06-15.17,1.49.62.56,1.21,1.15,1.85,1.68,2.13,1.77,4.51,3.03,7.29,3.37,3.32.4,6.24-.67,8.91-2.57,2.85-2.02,5.04-4.67,7.01-7.51.27-.39.51-.81.81-1.28-4.23,1.27-8.23.29-12.21-.72-2.43-.62-4.87-.98-7.36-.51-3,.57-5.17,2.25-6.49,5.01-.06.13-.08.28-.15.56Z"/></g></g></svg>