<?xml version="1.0" encoding="UTF-8"?><svg id="Isolation_Mode" xmlns="http://www.w3.org/2000/svg" xmlns:xlink="http://www.w3.org/1999/xlink" viewBox="0 0 146.15 139.14"><defs><style>.cls-1{fill:url(#linear-gradient);}.cls-2{fill:#0e5b90;}.cls-3{fill:#1872a6;}</style><linearGradient id="linear-gradient" x1="-8465.68" y1="-461.38" x2="-8731.06" y2="-645.99" gradientTransform="translate(-8489.45 -591.3) rotate(-172.13) scale(1 -1)" gradientUnits="userSpaceOnUse"><stop offset="0" stop-color="#b1b1b1" stop-opacity=".9"/><stop offset=".24" stop-color="#b8b8b8" stop-opacity=".62"/><stop offset=".56" stop-color="#c2c2c2" stop-opacity=".29"/><stop offset=".79" stop-color="#c7c7c7" stop-opacity=".08"/><stop offset=".92" stop-color="#cacaca" stop-opacity="0"/></linearGradient></defs><path class="cls-1" d="M30.16,58.77c-4.22-10.06-1.03-22.03,8.27-28.55,7.87-5.52,17.94-5.57,25.7-.96-1.14-6.59,1.49-13.55,7.33-17.64,6.27-4.39,14.37-4.18,20.32-.08,1.66-2.78,3.92-5.27,6.74-7.25,10.72-7.51,25.49-4.91,33,5.81,3.24,4.62,4.59,10,4.23,15.22,3.24,.24,6.35,1.87,8.37,4.75,3.55,5.07,2.32,12.06-2.75,15.61-.73,.51-1.51,.91-2.3,1.23,.86,5.57-1.38,11.4-6.31,14.85-4.31,3.02-9.64,3.5-14.22,1.75-1.74,5.47-5.22,10.43-10.28,13.98-10.75,7.53-25.05,6.19-34.23-2.48-.51,1.05-1.29,1.99-2.32,2.71-3.23,2.27-7.69,1.48-9.96-1.75-.9-1.28-1.31-2.75-1.29-4.2-7.25,2.77-15.38,1.77-21.72-2.52-.49,.78-1.15,1.48-1.95,2.05-3.23,2.27-7.69,1.48-9.96-1.75-2.27-3.23-1.48-7.69,1.75-9.96,.5-.35,1.03-.62,1.57-.82ZM3.88,114.23c3.3,2.24,7.8,1.39,10.05-1.92,.09-.14,.17-.28,.25-.41,5.8,2.03,12.47,.02,16.08-5.31,3.63-5.34,3.03-12.3-1.04-16.95,1.54-3.18,.57-7.09-2.44-9.13-3.3-2.24-7.8-1.39-10.05,1.92-.6,.88-.97,1.84-1.14,2.82-3.29,.76-6.31,2.7-8.35,5.72-2.2,3.24-2.84,7.07-2.11,10.62-1.25,.52-2.36,1.4-3.18,2.6-2.24,3.3-1.39,7.8,1.92,10.05Z"/><polygon class="cls-2" points="0 139.14 12.91 139.14 12.56 131.98 12.06 122.1 11.67 113.98 1.24 113.98 .85 122.1 .35 131.98 0 139.14"/><polygon class="cls-3" points=".35 131.98 12.56 131.98 12.06 122.1 .85 122.1 .35 131.98"/></svg>