<?xml version="1.0" encoding="UTF-8"?><svg id="Isolation_Mode" xmlns="http://www.w3.org/2000/svg" viewBox="0 0 96 96"><defs><style>.cls-1{fill:#000440;}.cls-2{fill:#e5e5e5;}.cls-3{fill:#4ba5d7;}.cls-4,.cls-5{fill:#d89d29;stroke:#000440;stroke-miterlimit:10;stroke-width:1.6px;}.cls-6{fill:#1069a0;isolation:isolate;opacity:.5;}.cls-5{stroke-linecap:round;}</style></defs><circle class="cls-1" cx="48" cy="48" r="48"/><g><path class="cls-3" d="M60.32,28.33h-24.59s-24.1,21.75-15.01,39.4c0,0,2.99,6.61,10.4,6.97h33.82c7.41-.37,10.4-6.97,10.4-6.97,9.08-17.66-15.01-39.4-15.01-39.4Z"/><path class="cls-3" d="M35.53,25.32h25.01l2.18-5.69c.58-1.51-.18-3.2-1.69-3.77-.33-.13-.69-.19-1.04-.19h-6.3c-3.15-3.01-8.11-3.01-11.26,0h-6.3c-1.62,0-2.92,1.31-2.93,2.92,0,.36,.06,.71,.19,1.04l2.15,5.69Z"/><rect class="cls-2" x="34.52" y="25.32" width="27.01" height="3.01" rx="1.51" ry="1.51"/><path class="cls-6" d="M52.45,74.72h12.48c7.41-.37,10.4-6.97,10.4-6.97,9.08-17.66-15.01-39.4-15.01-39.4,0,0,11.61,21.74,2.53,39.39,0,0-2.99,6.61-10.4,6.98Z"/></g><circle class="cls-4" cx="64.92" cy="62.22" r="16.91"/><line class="cls-5" x1="59.1" y1="67.78" x2="70.21" y2="56.67"/><line class="cls-5" x1="70.21" y1="67.78" x2="59.1" y2="56.67"/></svg>