<?xml version="1.0" encoding="UTF-8"?><svg id="a" xmlns="http://www.w3.org/2000/svg" viewBox="0 0 62.14 49.34"><defs><style>.b{fill:#000440;}.c{fill:#1069a0;}.d{fill:#4ba5d7;}.e{fill:none;stroke:#1069a0;stroke-miterlimit:10;}</style></defs><g><path class="c" d="M36.49,.39c-6.7,11.29-4.6,23-4.6,23l-12.89,7.45c-.97-7-.52-12.39,.75-16.55h2.24l-1.48-2.15c.48-1.16,1.03-2.21,1.62-3.15l1.78,.7s-.22-1.79,.01-3.09c1.78-2.02,3.77-3.4,5.65-4.36-1.06,4.26-.72,8.73-.72,8.73,.82-7.58,5.29-10.41,5.47-10.52h0c.82-.22,1.47-.35,1.89-.45,.22-.06,.4,.19,.28,.38Z"/><path class="d" d="M38.42,26.14c-1.18,3.59-4.37,10.41-12.31,10.43-1.54,0-3.26-.26-5.18-.83-.04,0-.08-.03-.11-.03l-.15,.22-.71,1.12-.28,.44-6.08,9.53c-1.01,1.34-2.9,1.63-4.25,.65l-1.03,.91c-1.27,1.12-3.2,1-4.32-.25,0,0-2.2,1.55-3.99-.65l16.26-14.29c.45-.8,.01-1.87-.96-2.09-5.62-1.29-9.09-4.36-11.21-8.03l1.87-3.47H2.53c-.78-2.23-1.19-4.57-1.38-6.76,3.72,2.23,6.64,1.59,6.64,1.59-2.74-1.74-5.02-3.45-6.77-4.89,0-2.96,.34-5.36,.52-6.49,.04-.27,.4-.36,.56-.13,7.04,9.5,15.2,14.64,20.8,17.3,2.81,1.33,6.16,.78,8.43-1.35l.57-.54c1.92-1.82,3.57-3.91,4.88-6.22,.57-1.25,2.06-2.16,3.82-2.16,2.25,0,4.07,1.45,4.08,3.26l2.16,2.43c-.63-.08-1.27-.1-1.9-.04-5.5,.58-5.2,6.37-6.51,10.36"/></g><g><path class="e" d="M45.88,20.17s1.28-11.6,8.85-15.27"/><path class="b" d="M59.04,9.57s-5.15-4.1-8.93-.23c0,0,2.89,4.13,8.93,.23Z"/><path class="b" d="M47.91,12.04s2.45-5.21-2.37-8.64c0,0-3.2,5.62,2.37,8.64Z"/><path class="b" d="M62.14,1.56s-5.38-2.08-8.23,3.79c0,0,5.43,1.51,8.23-3.79Z"/></g></svg>