<?xml version="1.0" encoding="UTF-8"?><svg id="Content" xmlns="http://www.w3.org/2000/svg" viewBox="0 0 156 156"><defs><style>.cls-1{stroke:#1069a0;}.cls-1,.cls-2{fill:none;stroke-miterlimit:10;stroke-width:1.62px;}.cls-2{stroke:#0e5b90;}.cls-3{fill:#fff;}.cls-4{fill:#d89d29;}.cls-5{fill:#cae3f2;}.cls-6{fill:#1069a0;}.cls-7{fill:#4ba5d7;}</style></defs><circle class="cls-5" cx="78" cy="78" r="78"/><g><g id="Layer_2"><g id="Content-2"><rect class="cls-6" x="18.98" y="62.93" width="26.43" height="51.7"/><rect class="cls-7" x="23.85" y="73.75" width="16.63" height="7.07"/><rect class="cls-7" x="33.41" y="73.75" width="7.07" height="7.07"/><rect class="cls-7" x="23.85" y="83.73" width="16.63" height="7.07"/><rect class="cls-7" x="33.41" y="83.73" width="7.07" height="7.07"/><rect class="cls-7" x="23.85" y="93.6" width="16.63" height="7.07"/><rect class="cls-7" x="33.41" y="93.6" width="7.07" height="7.07"/><circle class="cls-6" cx="71.78" cy="43.37" r="12.92"/><line class="cls-1" x1="71.78" y1="19.67" x2="71.78" y2="43.37"/><rect class="cls-7" x="45.42" y="39.66" width="52.72" height="74.97"/><rect class="cls-6" x="64.04" y="97.8" width="15.48" height="16.83"/><line class="cls-1" x1="45.42" y1="45.24" x2="98.15" y2="45.24"/><line class="cls-1" x1="81.32" y1="109.88" x2="98.15" y2="109.88"/><line class="cls-1" x1="45.35" y1="109.88" x2="62.16" y2="109.88"/><rect class="cls-6" x="56.21" y="63.62" width="7.07" height="7.07"/><rect class="cls-6" x="68.24" y="63.62" width="7.07" height="7.07"/><rect class="cls-6" x="56.21" y="73.6" width="7.07" height="7.07"/><rect class="cls-6" x="68.24" y="73.6" width="7.07" height="7.07"/><rect class="cls-6" x="56.21" y="83.58" width="7.07" height="7.07"/><rect class="cls-6" x="68.24" y="83.58" width="7.07" height="7.07"/><rect class="cls-6" x="80.26" y="63.62" width="7.07" height="7.07"/><rect class="cls-6" x="80.26" y="73.6" width="7.07" height="7.07"/><rect class="cls-6" x="80.26" y="83.58" width="7.07" height="7.07"/></g></g><g><rect class="cls-4" x="89.74" y="63.62" width="51.28" height="5.31"/><rect class="cls-3" x="93.04" y="68.93" width="44.68" height="29.38"/><line class="cls-2" x1="116.07" y1="98.31" x2="116.07" y2="114.62"/><polyline class="cls-2" points="104.47 114.62 116.07 104.4 128.05 114.62"/></g><line class="cls-2" x1="103.79" y1="71.92" x2="109.86" y2="77.99"/><line class="cls-2" x1="109.86" y1="71.92" x2="103.79" y2="77.99"/><circle class="cls-2" cx="106.96" cy="91.75" r="2.9"/><line class="cls-2" x1="120.86" y1="88.72" x2="126.94" y2="94.79"/><line class="cls-2" x1="126.94" y1="88.72" x2="120.86" y2="94.79"/><path class="cls-2" d="m106.96,88.85v-1.42c0-2.26,1.83-4.09,4.09-4.09h8.62c2.26,0,4.09-1.83,4.09-4.09v-6.97"/><polyline class="cls-2" points="127.46 75.6 123.73 71.92 119.98 75.6"/></g></svg>