<?xml version="1.0" encoding="UTF-8"?><svg id="Content" xmlns="http://www.w3.org/2000/svg" viewBox="0 0 120 120"><defs><style>.cls-1{stroke:#000440;}.cls-1,.cls-2{fill:none;stroke-linecap:round;stroke-linejoin:round;}.cls-2{stroke:#1872a6;stroke-width:1.39px;}.cls-3{fill:#000440;}.cls-4{fill:#fff;}.cls-5{fill:#e5e5e5;}.cls-6{fill:#d89d29;}.cls-7{fill:#1069a0;}.cls-8{fill:#10699e;}.cls-9{fill:#093e77;}</style></defs><circle class="cls-4" cx="60" cy="60" r="60"/><path class="cls-7" d="m3.85,81.15c8.56,22.7,30.46,38.85,56.15,38.85s47.6-16.15,56.15-38.85H3.85Z"/><g><rect class="cls-8" x="20.36" y="19.17" width="55.31" height="71.75" rx="4.67" ry="4.67"/><rect class="cls-5" x="24.63" y="24.01" width="46.77" height="62.06"/><line class="cls-1" x1="41.22" y1="40.64" x2="63.28" y2="40.64"/><line class="cls-1" x1="41.22" y1="48.53" x2="63.28" y2="48.53"/><line class="cls-1" x1="41.22" y1="57.29" x2="63.28" y2="57.29"/><polyline class="cls-2" points="30.95 40.62 32.7 42.37 36.18 38.9"/><polyline class="cls-2" points="30.95 49.08 32.7 50.83 36.18 47.35"/><polyline class="cls-2" points="30.95 57.53 32.7 59.28 36.18 55.81"/><line class="cls-1" x1="41.22" y1="66" x2="63.28" y2="66"/><polyline class="cls-2" points="30.95 65.99 32.7 67.74 36.18 64.26"/><path class="cls-6" d="m39.18,18.02h17.69c3.8,0,6.88,3.08,6.88,6.88,0,0,0,0,0,.01v.23h-31.44v-.23c0-3.8,3.07-6.88,6.87-6.89,0,0,0,0,0,0Z"/><path class="cls-6" d="m47.63,10.53h0c-2.58,0-4.67,2.09-4.67,4.67v2.82h9.34v-2.82c0-2.58-2.09-4.67-4.67-4.67,0,0,0,0,0,0Zm0,6.31c-1,0-1.82-.81-1.82-1.82,0-1,.81-1.82,1.82-1.82s1.82.81,1.82,1.82c0,0,0,0,0,0,0,1-.81,1.81-1.81,1.81,0,0,0,0,0,0Z"/></g><g><rect class="cls-9" x="46.94" y="97.59" width="26.85" height="4.95" rx="2.3" ry="2.3"/><path class="cls-3" d="m77.42,107.49h-34.89v-2.89c0-1.6,1.3-2.89,2.89-2.89h29.16c1.6,0,2.89,1.3,2.89,2.89v2.89s-.04,0-.06,0Z"/></g><g><path class="cls-3" d="m57.37,66.42l8.74,8.74c.84.84.84,2.21,0,3.05h0c-.84.84-2.21.84-3.05,0l-8.74-8.74c-.84-.84-.84-2.21,0-3.05h0c.84-.84,2.21-.84,3.05,0Z"/><path class="cls-3" d="m80.39,43.41l8.74,8.74c.84.84.84,2.21,0,3.05h0c-.84.84-2.21.84-3.05,0l-8.74-8.74c-.84-.84-.84-2.21,0-3.05h0c.84-.84,2.21-.84,3.05,0Z"/><rect class="cls-3" x="78.02" y="44.02" width="4.31" height="16.67" rx="2.16" ry="2.16" transform="translate(-13.54 72.03) rotate(-45)"/><rect class="cls-3" x="89.05" y="57.08" width="4.73" height="48.44" transform="translate(-30.71 88.45) rotate(-45)"/><path class="cls-3" d="m60.43,63.37l8.74,8.74c.84.84.84,2.21,0,3.05h0c-.84.84-2.21.84-3.05,0l-8.74-8.74c-.84-.84-.84-2.21,0-3.05h0c.84-.84,2.21-.84,3.05,0Z"/><rect class="cls-9" x="61.93" y="54.11" width="19.61" height="13.4" transform="translate(-21.99 68.53) rotate(-45)"/><circle class="cls-3" cx="113" cy="102.67" r="3.97"/><ellipse class="cls-3" cx="104.17" cy="94.05" rx="4.8" ry="8.21" transform="translate(-35.99 101.2) rotate(-45)"/><rect class="cls-9" x="93.39" y="86.82" width="10.32" height="3.2" rx="1.51" ry="1.51" transform="translate(-33.65 95.58) rotate(-45)"/><rect class="cls-9" x="104.53" y="97.96" width="10.32" height="3.2" rx="1.51" ry="1.51" transform="translate(-38.27 106.72) rotate(-45)"/></g></svg>