<?xml version="1.0" encoding="UTF-8"?><svg id="a" xmlns="http://www.w3.org/2000/svg" viewBox="0 0 64.32 64.32"><defs><style>.b{stroke:#1069a0;}.b,.c{stroke-linecap:round;}.b,.c,.d{stroke-linejoin:round;}.b,.c,.d,.e{fill:none;}.c,.d,.e{stroke:#000440;}.f{fill:#000440;}.g{fill:#98cce8;}.h{fill:#d6eaf6;}.i{fill:#1069a0;}.j{fill:#4ba5d7;}.e{stroke-miterlimit:10;}</style></defs><circle class="h" cx="32.16" cy="32.16" r="32.16"/><circle class="h" cx="32.16" cy="32.23" r="32.09"/><path class="i" d="M62.22,43.48H2.1c4.56,12.17,16.3,20.84,30.06,20.84s25.5-8.67,30.06-20.84Z"/><g><circle class="g" cx="29.93" cy="26.36" r="3.98"/><circle class="g" cx="26.82" cy="22.44" r="2.92"/><circle class="g" cx="49.49" cy="13.52" r="1.86"/><circle class="g" cx="42.84" cy="19.14" r="1.86"/><circle class="g" cx="59.98" cy="9.64" r="1.86"/><circle class="g" cx="33.01" cy="11.5" r="4.64"/><circle class="g" cx="53.21" cy="9.64" r="1.86"/><circle class="g" cx="34.24" cy="21.02" r="8.14"/><circle class="g" cx="42.84" cy="12.07" r="6.17"/><circle class="g" cx="39.04" cy="29.34" r="6.17"/><circle class="g" cx="56.4" cy="10.57" r="3.58"/></g><path class="j" d="M35.01,34.57s-.26-1.17,1.43-2.49c1.69-1.31,3.9-4.89,3.9-4.89l.43,1.04s1.63-1.11,2.2-2.54l.25,1.5s1.47-1.71,1.49-2.26c0,0,1.33,3.27,1.83,5.47,0,0,.81-.61,.81-1.65,0,0,1.25,2.17,1.5,5.83h-13.84Z"/><path class="j" d="M7.42,34.22c0-2.72,3.82-3.92,4.28-4.86l-.2,1.22s3.15-1.57,3.47-3.61l2.22,2.37s3.49-4.52,3.49-6.66c0,0,2.25,3.17,2.57,5.16l1.12-1.93s1.24,2.28,1.4,3.13l1.48-1.16s3.48,4.67,2.56,6.33H7.42Z"/><polyline class="b" points="36.61 18.76 45.79 12.32 36.61 17.26"/><g><line class="b" x1="36.46" y1="28.74" x2="45.79" y2="12.32"/><line class="b" x1="45.79" y1="12.32" x2="45.79" y2="21.37"/></g><path class="f" d="M15.84,44.77h3.83c1.76,0,3.19,1.43,3.19,3.19v2.55H12.65v-2.55c0-1.76,1.43-3.19,3.19-3.19Z"/><path class="f" d="M16.53,40.61h2.96c1.36,0,2.46,1.1,2.46,2.46v1.71h-7.87v-1.71c0-1.36,1.1-2.46,2.46-2.46Z"/><path class="f" d="M47.51,44.77h3.83c1.76,0,3.19,1.43,3.19,3.19v2.55h-10.2v-2.55c0-1.76,1.43-3.19,3.19-3.19Z"/><path class="f" d="M48.2,40.61h2.96c1.36,0,2.46,1.1,2.46,2.46v1.71h-7.87v-1.71c0-1.36,1.1-2.46,2.46-2.46Z"/><rect class="i" x="9.5" y="35.89" width="48.83" height="5.53"/><rect class="c" x="40.77" y="30.12" width="14.72" height="4.75"/><polyline class="f" points="3.78 30.58 14.48 30.58 20.52 33.85 3.78 33.85"/><rect class="i" x="3.78" y="33.85" width="56.53" height="2.04"/><line class="e" x1="3.78" y1="33.85" x2="60.31" y2="33.85"/><line class="e" x1="11.3" y1="50.51" x2="23.98" y2="50.51"/><line class="e" x1="43.15" y1="50.51" x2="55.84" y2="50.51"/><rect class="c" x="29.4" y="17.26" width="7.21" height="6.04"/><rect class="c" x="29.4" y="23.3" width="7.21" height="6.04"/><polygon class="d" points="33.57 9.48 32.57 9.48 29.4 17.26 36.61 17.26 33.57 9.48"/><rect class="f" x="27.67" y="28.22" width="10.66" height="5.63"/></svg>