<!-- Generator: Adobe Illustrator 24.1.2, SVG Export Plug-In  -->
<svg version="1.1" xmlns="http://www.w3.org/2000/svg" xmlns:xlink="http://www.w3.org/1999/xlink" x="0px" y="0px" width="48.8px"
	 height="58.5px" viewBox="0 0 48.8 58.5" style="overflow:visible;enable-background:new 0 0 48.8 58.5;" xml:space="preserve">
<style type="text/css">
	.st0{fill:#1069A0;}
	.st1{fill:#4BA5D7;}
	.st2{fill:#D6EAF6;}
	.st3{fill:none;stroke:#1069A0;stroke-miterlimit:10;}
	.st4{fill:none;stroke:#000440;stroke-miterlimit:10;}
	.st5{fill:#000440;}
	.st6{fill:none;stroke:#4BA5D7;stroke-miterlimit:10;}
</style>
<defs>
</defs>
<g>
	<rect x="0" y="26.7" class="st0" width="16.3" height="31.9"/>
	<g>
		<g>
			<g>
				<rect x="3" y="33.3" class="st1" width="10.3" height="4.4"/>
				<rect x="8.9" y="33.3" class="st1" width="4.4" height="4.4"/>
				<rect x="17.8" y="30.6" class="st2" width="4.4" height="4.4"/>
				<rect x="25.2" y="30.6" class="st2" width="4.4" height="4.4"/>
			</g>
			<g>
				<rect x="3" y="39.5" class="st1" width="10.3" height="4.4"/>
				<rect x="8.9" y="39.5" class="st1" width="4.4" height="4.4"/>
				<rect x="17.8" y="36.8" class="st2" width="4.4" height="4.4"/>
				<rect x="25.2" y="36.8" class="st2" width="4.4" height="4.4"/>
			</g>
			<g>
				<rect x="17.8" y="42.9" class="st2" width="4.4" height="4.4"/>
				<rect x="25.2" y="42.9" class="st2" width="4.4" height="4.4"/>
			</g>
		</g>
	</g>
	<circle class="st0" cx="32.5" cy="14.6" r="8"/>
	<line class="st3" x1="32.5" y1="0" x2="32.5" y2="14.6"/>
	<rect x="16.3" y="12.3" class="st1" width="32.5" height="46.2"/>
	<rect x="27.8" y="48.1" class="st0" width="9.5" height="10.4"/>
	<line class="st3" x1="16.3" y1="15.8" x2="48.8" y2="15.8"/>
	<line class="st3" x1="38.4" y1="55.6" x2="48.8" y2="55.6"/>
	<line class="st3" x1="16.2" y1="55.6" x2="26.6" y2="55.6"/>
	<line class="st4" x1="16.2" y1="55.6" x2="0" y2="55.6"/>
	<circle class="st5" cx="32.5" cy="31.5" r="10.1"/>
	<polyline class="st6" points="27.6,31.8 30.7,34.9 37.5,28.1 	"/>
</g>
</svg>
