<?xml version="1.0" encoding="UTF-8"?><svg id="Content" xmlns="http://www.w3.org/2000/svg" viewBox="0 0 156 156"><defs><style>.cls-1{fill:#fff;}.cls-2{fill:#d89d29;}.cls-3{fill:#cae3f2;}.cls-4{fill:#1069a0;}.cls-5{fill:#4ba5d7;}</style></defs><circle class="cls-3" cx="78" cy="78" r="78"/><g><g><path class="cls-5" d="m128.94,78.45h-4.56c-.84-9.74-8.93-17.19-18.56-17.1-1.16,0-2.32.1-3.47.3-1.18-11.76-11.53-20.33-23.12-19.13-10.58,1.09-18.71,10.01-18.96,20.8-1.9-.65-3.9-.99-5.91-1-9.92-.22-18.14,7.77-18.36,17.84-.19,9.01,6.12,16.81,14.87,18.36,7.59,1.48,15.53.88,23.29.88h54.74c5.69-.44,9.95-5.47,9.52-11.25-.36-4.9-4.03-8.88-8.82-9.59l-.66-.12Z"/><path class="cls-4" d="m88.43,83.42h-3.49c-.65-7.45-6.82-13.14-14.19-13.07-.89,0-1.77.07-2.65.23-.9-8.99-8.81-15.54-17.67-14.62-8.09.83-14.3,7.65-14.49,15.9-1.45-.5-2.98-.76-4.51-.76-7.58-.17-13.87,5.94-14.03,13.63-.15,6.88,4.68,12.84,11.36,14.03,5.8,1.13,11.87.67,17.8.67h41.84c4.35-.33,7.61-4.18,7.28-8.6-.28-3.74-3.08-6.79-6.74-7.33l-.51-.09Z"/><ellipse class="cls-1" cx="49.38" cy="41.21" rx="7.79" ry="7.9"/><ellipse class="cls-1" cx="107.17" cy="37.61" rx="7.79" ry="7.9"/><ellipse class="cls-1" cx="74.4" cy="27.38" rx="4.9" ry="4.98"/><ellipse class="cls-1" cx="121.92" cy="51.34" rx="4.9" ry="4.98"/><ellipse class="cls-1" cx="22.66" cy="60.85" rx="4.9" ry="4.98"/><ellipse class="cls-1" cx="133.49" cy="69.87" rx="3.44" ry="3.49"/><ellipse class="cls-1" cx="34.27" cy="50.15" rx="2.81" ry="2.85"/><ellipse class="cls-1" cx="137.7" cy="57.79" rx="1.89" ry="1.92"/><ellipse class="cls-1" cx="27.57" cy="39.53" rx="1.89" ry="1.92"/><ellipse class="cls-1" cx="89.48" cy="30.08" rx="2.25" ry="2.29"/></g><g><path class="cls-2" d="m90.44,120c-2.01.93-4.18,1.43-6.45,1.43-10.32,0-18.71-10.5-18.71-23.41s8.39-23.41,18.71-23.41,18.71,10.5,18.71,23.41c0,7.17-2.59,13.59-6.66,17.89.47.1.94.2,1.44.33.84.21,1.68.43,2.54.62,3.91-4.88,6.33-11.52,6.33-18.84,0-14.92-10.03-27.06-22.36-27.06s-22.36,12.14-22.36,27.06,10.03,27.06,22.36,27.06c2.32,0,4.55-.43,6.66-1.22l-.2-3.86Z"/><path class="cls-2" d="m79.89,124.59c6.33,1.04,12.59,1.07,18.87.6-5.98,2.06-12.1,2.5-18.45,1.81.75.68,1.47,1.39,2.25,2.04,2.59,2.16,5.48,3.69,8.87,4.1,4.04.49,7.59-.82,10.83-3.12,3.47-2.46,6.13-5.68,8.52-9.14.33-.48.62-.98.99-1.56-5.15,1.55-10.01.35-14.85-.88-2.96-.75-5.92-1.19-8.95-.62-3.65.69-6.29,2.73-7.89,6.09-.08.16-.1.34-.18.68Z"/></g></g></svg>