<?xml version="1.0" encoding="UTF-8"?><svg id="Isolation_Mode" xmlns="http://www.w3.org/2000/svg" viewBox="0 0 40 40"><defs><style>.cls-1,.cls-2{fill:none;}.cls-3{fill:#000440;}.cls-4{fill:#e5e5e5;}.cls-5{fill:#d89d29;}.cls-6{fill:#1069a0;}.cls-7{fill:#4ba5d7;}.cls-2{stroke:#e5e5e5;stroke-miterlimit:10;stroke-width:.75px;}</style></defs><circle class="cls-1" cx="20" cy="20" r="20"/><circle class="cls-3" cx="20" cy="20" r="18"/><g><path class="cls-4" d="M29.4,30.12H10.59c-.77,0-1.39-.64-1.39-1.4V11.86c0-.76,.62-1.38,1.39-1.39H29.4c.77,0,1.4,.62,1.4,1.39V28.75c-.02,.76-.64,1.37-1.4,1.37Zm0,0H10.59c-.77,0-1.39-.64-1.39-1.4V11.86c0-.76,.62-1.38,1.39-1.39H29.4c.77,0,1.4,.62,1.4,1.39V28.75c-.02,.76-.64,1.37-1.4,1.37Z"/><path class="cls-6" d="M29.4,10.47H10.59c-.76,0-1.38,.62-1.39,1.39v2.46H30.78v-2.46c0-.76-.62-1.38-1.39-1.39Z"/><path class="cls-2" d="M13.7,12.39v-3.86m4.21,3.86v-3.86m4.19,3.86v-3.86m4.18,3.86v-3.86"/><rect class="cls-5" x="11.43" y="17.03" width="4.24" height="4.24"/><path class="cls-7" d="M22.13,21.27h-4.25v-4.24h4.25v4.24Zm6.43-4.24h-4.24v4.24h4.24v-4.24Zm-12.89,6.2h-4.24v4.24h4.24v-4.24Zm6.44,0h-4.24v4.24h4.25l-.02-4.24Zm6.44,0h-4.24v4.24h4.24v-4.24Z"/></g></svg>