<?xml version="1.0" encoding="UTF-8"?><svg id="a" xmlns="http://www.w3.org/2000/svg" viewBox="0 0 68.74 57.01"><defs><style>.b{fill:#000440;}.c{fill:#1069a0;}.d{fill:#4ba5d7;}.e{stroke:#212b5c;stroke-width:.23px;}.e,.f{stroke-linecap:round;stroke-linejoin:round;}.e,.f,.g{fill:none;}.f{stroke:#000440;stroke-width:.5px;}.g{stroke:#4ba5d7;stroke-miterlimit:10;stroke-width:2.35px;}</style></defs><g><polyline class="g" points="4.18 41.64 16.74 30 25.19 35.92 46.01 21.66 52.12 28.79 64.02 19.19"/><polygon class="d" points="65.67 23.14 68.63 15.47 60.51 16.74 65.67 23.14"/></g><g><path class="c" d="M54.72,15.99c-1,0-1.97-.39-2.68-1.1l-.02-.02c-9.77-9.69-25.53-9.69-35.31,0l-.02,.02c-.71,.71-1.68,1.1-2.68,1.1-1.21,0-2.35-.58-3.07-1.55-.41-.52-.31-1.28,.22-1.68,.52-.41,1.28-.31,1.68,.22,.01,.01,.02,.03,.03,.05,.46,.63,1.35,.76,1.97,.3,.06-.04,.12-.09,.17-.15l.04-.04c10.7-10.57,27.92-10.57,38.63,0l.04,.04c.55,.56,1.44,.56,2,.02,.05-.05,.1-.11,.15-.17,.38-.54,1.13-.68,1.67-.3,.54,.38,.68,1.13,.3,1.67-.01,.02-.02,.03-.03,.05-.72,.98-1.86,1.55-3.07,1.55Z"/><circle class="c" cx="34.37" cy="7.25" r="3.72"/><path class="c" d="M21.74,52.44h25.25c1.37,0,2.48,1.11,2.48,2.48h0v2.09H19.26v-2.09c0-1.37,1.11-2.48,2.48-2.48Z"/><path class="c" d="M26.73,48.67h15.27c1.37,0,2.48,1.11,2.48,2.48v2.09H24.25v-2.09c0-1.37,1.11-2.48,2.48-2.48h0Z"/><circle class="c" cx="34.37" cy="43.37" r="2.66"/><path class="c" d="M33.7,2.79h1.34c.44,0,.8,.36,.8,.8V50.95h-2.93V3.59c0-.44,.36-.8,.8-.8Z"/><path class="c" d="M32.45,45.13h3.84c.65,0,1.17,.53,1.17,1.17h0v3.94h-6.19v-3.94c0-.65,.53-1.17,1.17-1.17h0Z"/><circle class="c" cx="34.37" cy="2.66" r="2.66"/><line class="e" x1="44.48" y1="52.44" x2="24.25" y2="52.44"/><path class="b" d="M44.95,38.72h23.8c0,3.22-2.61,5.83-5.83,5.83h-12.14c-3.22,0-5.83-2.61-5.83-5.83h0Z"/><circle class="b" cx="56.84" cy="13.67" r=".72"/><polyline class="f" points="45.31 38.72 56.84 13.67 68.37 38.72"/><path class="b" d="M0,38.62H23.8c0,3.22-2.61,5.83-5.83,5.83H5.83c-3.22,0-5.83-2.61-5.83-5.83H0Z"/><circle class="b" cx="11.9" cy="13.67" r=".72"/><polyline class="f" points=".32 38.62 11.9 13.67 23.48 38.62"/></g></svg>