<!-- Generator: Adobe Illustrator 24.1.2, SVG Export Plug-In  -->
<svg version="1.1" xmlns="http://www.w3.org/2000/svg" xmlns:xlink="http://www.w3.org/1999/xlink" x="0px" y="0px" width="56.6px"
	 height="63.6px" viewBox="0 0 56.6 63.6" style="overflow:visible;enable-background:new 0 0 56.6 63.6;" xml:space="preserve">
<style type="text/css">
	.st0{fill:#1069A0;}
	.st1{fill:#A5D2EB;}
	.st2{fill:#4BA5D7;}
	.st3{fill:none;stroke:#A5D2EB;stroke-linecap:round;stroke-linejoin:round;stroke-miterlimit:10;}
	.st4{fill:none;stroke:#000440;stroke-linecap:round;stroke-linejoin:round;}
	.st5{fill:#000440;}
	.st6{fill:#FFFFFF;}
</style>
<defs>
</defs>
<g>
	<path class="st0" d="M52.4,55.3H4.3c-1.8,0-3.3-1.5-3.3-3.3v0l0,0h54.6l0,0v0C55.7,53.8,54.2,55.3,52.4,55.3z"/>
	<path class="st1" d="M55.2,53.1H1.6c-0.7,0-1.3-0.6-1.3-1.3v-0.2c0-0.7,0.6-1.3,1.3-1.3h53.7c0.7,0,1.3,0.6,1.3,1.3v0.2
		C56.6,52.5,56,53.1,55.2,53.1z"/>
	<path class="st2" d="M1.8,31.8c0,0-1.5,5.3-1.8,10.5s0.2,6.9,2.2,8h53.5c0,0,1.5-0.7,0.5-2.6c-0.7-1.4-7.3-3.3-12.4-5.4
		c-1.9-0.8-3.5-1.5-4.6-2.3L22.4,27.9c0,0-3.8-1.7-4.4,3l-7.2,5.6c0,0-1.2,0.7-2.2,0c-0.7-0.5-2.3-1.9-3-2.5
		c-0.2-0.2-0.4-0.4-0.5-0.6C4.7,32.7,3.5,30.9,1.8,31.8z"/>
	<line class="st3" x1="8.4" y1="50.3" x2="23.2" y2="34.2"/>
	<line class="st3" x1="30.6" y1="47" x2="35.6" y2="41.5"/>
	<line class="st3" x1="27.6" y1="50.4" x2="30.6" y2="47"/>
	<path class="st4" d="M24.5,36.7c0,0,3.2-4.3,4.4-4.7c0.4-0.1,0.9,0.1,1,0.6c0,0.1,0,0.1,0,0.2c0,0.2,0,0.4-0.1,0.6"/>
	<path class="st4" d="M27.6,38.8c0,0,3.6-4.7,4.8-4.8c0.3,0,0.6,0.2,0.7,0.6c0,0,0,0,0,0c0,0.4,0,0.7-0.1,1.1"/>
	<path class="st4" d="M31.2,40.8c0,0,3.4-4.2,4.6-4.7c0.3-0.1,0.7,0.1,0.8,0.4c0,0.1,0,0.1,0,0.2c0,0.5,0,0.9-0.1,1.4"/>
	<path class="st4" d="M34.5,42.8c0,0,3.4-4.2,4.6-4.7c0.3-0.1,0.7,0.1,0.8,0.4c0,0.1,0,0.2,0,0.2c0,0.5-0.1,1-0.2,1.5"/>
</g>
<path class="st5" d="M7.6,55.3c5.7,5.2,13.2,8.3,21.5,8.3s15.8-3.2,21.5-8.3H7.6z"/>
<g>
	<g>
		<g>
			<g>
				<path class="st5" d="M41.2,1L29.8,20.8c-0.7,1.3,0.2,2.9,1.7,2.9h22.9c1.5,0,2.4-1.6,1.7-2.9L44.5,1C43.8-0.3,42-0.3,41.2,1z"/>
			</g>
		</g>
		<g>
			<g>
				<path class="st6" d="M44.2,15.6h-2.4l-0.4-6.8h3.1L44.2,15.6z M41.5,18.1c0-0.4,0.1-0.8,0.4-1c0.3-0.2,0.6-0.4,1.1-0.4
					c0.5,0,0.9,0.1,1.1,0.4c0.2,0.2,0.4,0.6,0.4,1c0,0.4-0.1,0.8-0.4,1c-0.3,0.2-0.6,0.4-1.1,0.4c-0.5,0-0.8-0.1-1.1-0.4
					S41.5,18.5,41.5,18.1z"/>
			</g>
		</g>
	</g>
</g>
</svg>
