<!-- Generator: Adobe Illustrator 24.1.2, SVG Export Plug-In  -->
<svg version="1.1" xmlns="http://www.w3.org/2000/svg" xmlns:xlink="http://www.w3.org/1999/xlink" x="0px" y="0px" width="58.6px"
	 height="63.2px" viewBox="0 0 58.6 63.2" style="overflow:visible;enable-background:new 0 0 58.6 63.2;" xml:space="preserve">
<style type="text/css">
	.st0{fill:#1069A0;}
	.st1{fill:#000440;}
	.st2{fill:none;stroke:#4BA5D7;stroke-linecap:round;stroke-miterlimit:10;}
	.st3{fill:#4BA5D7;}
	.st4{fill:none;stroke:#000440;stroke-linecap:round;stroke-linejoin:round;stroke-miterlimit:10;}
</style>
<defs>
</defs>
<path class="st0" d="M29.3,35.4c-11.6,0-22,3.4-29.3,8.9c5.1,11.1,16.3,18.9,29.3,18.9c13,0,24.2-7.8,29.3-18.9
	C51.3,38.8,40.9,35.4,29.3,35.4z"/>
<g>
	<g>
		<path class="st1" d="M43.7,14.8c4.1-4.1,4.5-10.9,4.4-13.4c0-0.6-0.5-1-1-1c-2.5,0-9.2,0.3-13.4,4.4s-4.5,10.9-4.4,13.4
			c0,0.6,0.5,1,1,1C32.8,19.3,39.5,19,43.7,14.8z"/>
	</g>
	<line class="st2" x1="48" y1="0.5" x2="29.2" y2="19.2"/>
	<path class="st3" d="M31.9,49.9L31.9,49.9c-0.2,0-0.4-0.1-0.6-0.2L31,49.5c-1.3-0.9-2.9-0.9-4.2,0l-0.4,0.3
		c-0.2,0.1-0.4,0.2-0.6,0.2h0c-4.4,0-8.4-2.8-9.9-6.9l-3.1-8.4c-0.8-2.3-0.8-4.9,0-7.2l0-0.1c1.5-4.1,5.5-6.8,9.8-6.8H35
		c4.4,0,8.3,2.7,9.8,6.8l0,0.1c0.9,2.3,0.9,4.9,0,7.2L41.8,43C40.3,47.2,36.4,49.9,31.9,49.9z"/>
	<path class="st3" d="M31.9,49.9L31.9,49.9c-0.2,0-0.4-0.1-0.6-0.2L31,49.5c-1.3-0.9-2.9-0.9-4.2,0l-0.4,0.3
		c-0.2,0.1-0.4,0.2-0.6,0.2h0c-4.4,0-8.4-2.8-9.9-6.9l-3.1-8.4c-0.8-2.3-0.8-4.9,0-7.2l0-0.1c1.5-4.1,5.5-6.8,9.8-6.8H35
		c4.4,0,8.3,2.7,9.8,6.8l0,0.1c0.9,2.3,0.9,4.9,0,7.2L41.8,43C40.3,47.2,36.4,49.9,31.9,49.9z"/>
	<path class="st4" d="M29.2,24.2v-4.6c0-0.3-0.1-0.5-0.3-0.7l-2.5-2.3"/>
	<path class="st4" d="M32.9,22.9c-2,2-5.3,2-7.4,0"/>
</g>
</svg>
