<?xml version="1.0" encoding="UTF-8"?><svg id="Content" xmlns="http://www.w3.org/2000/svg" viewBox="0 0 119.74 120"><defs><style>.cls-1{stroke-width:.57px;}.cls-1,.cls-2,.cls-3{fill:none;stroke-miterlimit:10;}.cls-1,.cls-3{stroke:#68708b;}.cls-4{fill:#000440;}.cls-5{fill:#fff;}.cls-6{fill:#f1f2f2;}.cls-7{fill:#d89d29;}.cls-8{fill:#1069a0;}.cls-9{fill:#4ba5d7;}.cls-2{stroke:#000440;stroke-width:.73px;}.cls-3{stroke-width:.66px;}</style></defs><path class="cls-5" d="m119.74,60c0,3.65-.32,7.22-.94,10.68-5.03,28.04-29.5,49.32-58.93,49.32S5.97,98.72.95,70.68c-.63-3.46-.95-7.03-.95-10.68C0,26.87,26.81,0,59.87,0s59.87,26.87,59.87,60Z"/><path class="cls-8" d="m118.8,70.68c-5.03,28.04-29.5,49.32-58.93,49.32S5.97,98.72.95,70.68h117.85Z"/><path class="cls-8" d="m115.95,81.13H3.79c8.5,22.71,30.4,38.88,56.08,38.88s47.58-16.17,56.08-38.88Z"/><g><ellipse class="cls-1" cx="78.11" cy="73.95" rx="19.82" ry="3.32"/><path class="cls-4" d="m97.93,73.77c0,1.83-8.87,3.31-19.82,3.31s-19.82-1.48-19.82-3.31V26.83h39.64v46.95Z"/><ellipse class="cls-9" cx="78.11" cy="26.83" rx="19.82" ry="3.32"/><path class="cls-9" d="m78.11,24.14c12.29,0,18.93,1.73,19.2,2.68-.26.97-6.9,2.7-19.2,2.7s-18.93-1.73-19.2-2.68c.26-.97,6.9-2.7,19.2-2.7m0-.62c-10.95,0-19.82,1.48-19.82,3.32s8.87,3.31,19.82,3.31,19.82-1.48,19.82-3.31-8.87-3.32-19.82-3.32h0Z"/><path class="cls-9" d="m97.88,36.11l.06.06c0,1.31-1.71,1.79-1.71,1.79h0c-.81.33-2.12.7-4.17,1.04-3.72.62-8.67.96-13.93.96s-10.22-.34-13.93-.96c-2.05-.34-3.36-.72-4.17-1.04h0s-1.71-.48-1.71-1.79c-.32.29-.5.61-.5.98,0,.77.64,1.91,6.23,2.84,3.77.63,8.78.98,14.1.98s10.33-.35,14.1-.98c2.67-.45,6.23-1.23,6.23-2.84-.01-.3-.12-.66-.58-1.04Z"/><path class="cls-9" d="m97.88,48.3l.06.06c0,1.31-1.71,1.79-1.71,1.79h0c-.81.32-2.12.7-4.17,1.04-3.72.62-8.67.96-13.93.96s-10.22-.34-13.93-.96c-2.05-.34-3.36-.72-4.17-1.04h0s-1.71-.48-1.71-1.79c-.32.29-.5.61-.5.98,0,.77.64,1.91,6.23,2.84,3.77.63,8.78.98,14.1.98s10.33-.35,14.1-.98c2.67-.45,6.23-1.23,6.23-2.84-.01-.3-.12-.66-.58-1.04Z"/><path class="cls-9" d="m97.88,60.49l.06.06c0,1.31-1.71,1.79-1.71,1.79h0c-.81.32-2.12.7-4.17,1.04-3.72.62-8.67.96-13.93.96s-10.22-.34-13.93-.96c-2.05-.34-3.36-.72-4.17-1.04h0s-1.71-.48-1.71-1.79c-.32.29-.5.61-.5.98,0,.77.64,1.91,6.23,2.84,3.77.63,8.78.98,14.1.98s10.33-.35,14.1-.98c2.67-.45,6.23-1.23,6.23-2.84-.01-.3-.12-.66-.58-1.04Z"/><path class="cls-9" d="m97.88,72.68l.06.06c0,1.31-1.71,1.79-1.71,1.79h0c-.81.32-2.12.7-4.17,1.04-3.72.62-8.67.96-13.93.96s-10.22-.34-13.93-.96c-2.05-.34-3.36-.72-4.17-1.04h0s-1.71-.48-1.71-1.79c-.32.29-.5.61-.5.98,0,.77.64,1.91,6.23,2.84,3.77.63,8.78.98,14.1.98s10.33-.35,14.1-.98c2.67-.45,6.23-1.23,6.23-2.84-.01-.3-.12-.66-.58-1.04Z"/><g><rect class="cls-4" x="75.59" y="49.38" width="4.62" height="5.97"/><path class="cls-7" d="m73.03,61.51c1.66-3.91,3.86-7.43,6.36-10.78-3.27,2.61-5.69,5.89-7.55,9.69-.12-.66-.26-1.32-.34-1.98-.29-2.21-.12-4.38.85-6.42,1.16-2.44,3.15-3.96,5.59-4.96,2.61-1.07,5.35-1.42,8.14-1.53.38-.02.77,0,1.22,0-2.69,2.33-3.75,5.48-4.78,8.63-.63,1.92-1.43,3.74-2.83,5.23-1.68,1.8-3.76,2.55-6.21,2.26-.12-.01-.23-.07-.44-.14Z"/></g></g><g><ellipse class="cls-3" cx="42.99" cy="91.22" rx="23.12" ry="3.87"/><path class="cls-9" d="m66.11,91.02c0,2.14-10.35,3.86-23.12,3.86s-23.12-1.73-23.12-3.86v-54.76h46.24v54.76Z"/><ellipse class="cls-4" cx="42.99" cy="36.26" rx="23.12" ry="3.87"/><ellipse class="cls-2" cx="42.99" cy="36.26" rx="23.12" ry="3.87"/><path class="cls-4" d="m66.04,47.08l.07.07c0,1.52-2,2.09-2,2.09h0c-.95.38-2.48.81-4.87,1.21-4.34.73-10.11,1.12-16.25,1.12s-11.92-.4-16.25-1.12c-2.4-.4-3.92-.84-4.87-1.21h0s-1.99-.56-2-2.08c-.37.34-.59.71-.59,1.14,0,.9.75,2.23,7.26,3.31,4.4.74,10.24,1.14,16.45,1.14s12.05-.4,16.45-1.14c3.12-.52,7.26-1.43,7.26-3.31-.02-.35-.14-.77-.67-1.22Z"/><path class="cls-4" d="m66.04,61.3l.07.08c0,1.52-2,2.09-2,2.09h0c-.95.38-2.48.81-4.87,1.21-4.34.73-10.11,1.12-16.25,1.12s-11.92-.4-16.25-1.12c-2.4-.4-3.92-.84-4.87-1.21h0s-1.99-.56-2-2.08c-.37.34-.59.71-.59,1.14,0,.9.75,2.23,7.26,3.31,4.4.74,10.24,1.14,16.45,1.14s12.05-.4,16.45-1.14c3.12-.52,7.26-1.43,7.26-3.31-.02-.35-.14-.77-.67-1.22Z"/><path class="cls-4" d="m66.04,75.51l.07.07c0,1.52-2,2.09-2,2.09h0c-.95.38-2.48.81-4.87,1.21-4.34.73-10.11,1.12-16.25,1.12s-11.92-.4-16.25-1.12c-2.4-.4-3.92-.84-4.87-1.21h0s-1.99-.56-2-2.08c-.37.34-.59.71-.59,1.14,0,.9.75,2.23,7.26,3.31,4.4.74,10.24,1.14,16.45,1.14s12.05-.41,16.45-1.14c3.12-.52,7.26-1.43,7.26-3.31-.02-.35-.14-.77-.67-1.22Z"/><path class="cls-4" d="m66.04,89.74l.07.07c0,1.52-2,2.09-2,2.09h0c-.95.38-2.48.81-4.87,1.21-4.34.73-10.11,1.12-16.25,1.12s-11.92-.4-16.25-1.12c-2.4-.4-3.92-.84-4.87-1.21h0s-1.99-.56-2-2.08c-.37.34-.59.71-.59,1.14,0,.9.75,2.22,7.26,3.31,4.4.74,10.24,1.14,16.45,1.14s12.05-.41,16.45-1.14c3.12-.52,7.26-1.43,7.26-3.31-.02-.35-.14-.77-.67-1.22Z"/><g id="Layer_2-2"><g id="Layer_90"><path class="cls-6" d="m42.99,55.51l-5.81,10.45c-1.7,3.21-.48,7.2,2.73,8.9,3.21,1.7,7.2.48,8.9-2.73,1.02-1.93,1.02-4.24,0-6.17l-5.81-10.45Z"/></g></g></g></svg>