<?xml version="1.0" encoding="UTF-8"?>
<svg id="Layer_2" data-name="Layer 2" xmlns="http://www.w3.org/2000/svg" viewBox="0 0 215.73 328.7">
  <defs>
    <style>
      .cls-1, .cls-2 {
        fill: #a59a6e;
      }

      .cls-3 {
        fill: #aa2734;
      }

      .cls-4 {
        fill: #54565a;
      }

      .cls-4, .cls-2, .cls-5, .cls-6 {
        stroke: #000;
        stroke-linecap: round;
        stroke-linejoin: round;
        stroke-width: 1.5px;
      }

      .cls-5 {
        fill: #fff;
      }

      .cls-6 {
        fill: none;
      }
    </style>
  </defs>
  <g id="Content">
    <g>
      <g>
        <path class="cls-3" d="m102.98,1.5c11.36,0,20.63,9.16,20.73,20.55.1,10.94-8.29,19.98-19.03,20.85-.5.04-1.01.07-1.51.07-.07,0-.14,0-.21,0-.56,0-1.12-.03-1.68-.07-10.57-.86-18.93-9.66-19.03-20.47-.1-11.45,9.09-20.82,20.54-20.92.06,0,.13,0,.19,0m0-1.5h-.2c-12.26.12-22.14,10.18-22.03,22.44.11,11.58,8.88,21.02,20.41,21.96.61.05,1.21.08,1.8.08h.23c.56,0,1.11-.03,1.63-.08,11.54-.93,20.5-10.76,20.4-22.36-.11-12.15-10.08-22.04-22.23-22.04h0Z"/>
        <g>
          <path class="cls-4" d="m115.72,21.54c.02-.63-.35-1.18-.89-1.41.5-.31.79-.91.68-1.53v-.07c-.12-.62-.6-1.09-1.18-1.21.42-.4.59-1.04.36-1.62l-.04-.1c-.24-.59-.81-.93-1.41-.91.35-.5.37-1.18,0-1.71l-.04-.05c-.36-.53-1.01-.75-1.6-.6.22-.57.08-1.24-.39-1.68,0,0-.03-.03-.03-.03-.47-.43-1.14-.5-1.68-.22.08-.6-.21-1.21-.77-1.51l-.07-.04c-.57-.31-1.25-.21-1.7.2-.07-.61-.52-1.13-1.15-1.28,0,0-.07-.02-.08-.02-.63-.14-1.24.15-1.56.67-.22-.57-.77-.99-1.42-.96h-.12c-.64.03-1.17.46-1.35,1.04-.37-.49-1.01-.72-1.63-.53l-.09.03c-.61.2-1,.75-1.02,1.36-.48-.38-1.17-.45-1.72-.1l-.05.03c-.55.33-.8.96-.69,1.56-.55-.24-1.22-.13-1.67.32l-.05.05c-.44.45-.54,1.12-.29,1.66-.59-.1-1.2.14-1.54.68l-.05.08c-.33.54-.26,1.2.11,1.67-.6.01-1.16.38-1.37.98l-.03.09c-.21.6-.01,1.23.45,1.61-.58.14-1.04.61-1.14,1.24v.1c-.1.63.23,1.21.76,1.48-.54.25-.9.81-.86,1.44v.09c.05.64.49,1.13,1.06,1.3-.48.36-.72.98-.55,1.59l.03.09c.18.61.71,1.01,1.3,1.06-.4.45-.5,1.12-.2,1.69l.04.08c.3.56.91.84,1.5.75-.3.54-.24,1.23.19,1.71l.04.05c.42.48,1.07.63,1.64.43-.15.58.06,1.22.58,1.59l.08.05c.53.37,1.2.34,1.69-.01-.02.61.35,1.2.95,1.43l.1.04c.61.22,1.25.02,1.64-.44.14.6.65,1.07,1.3,1.13h.1s.06.01.09.01c.61.02,1.14-.34,1.38-.87.3.54.92.87,1.56.76,0,0,.07-.01.08-.01.64-.11,1.09-.61,1.18-1.22.42.44,1.09.6,1.68.35l.1-.05c.58-.27.9-.86.85-1.47.52.32,1.2.29,1.71-.11l.06-.05c.51-.4.66-1.06.46-1.63.58.2,1.25.01,1.65-.5l.05-.06c.39-.5.41-1.17.11-1.68.6.05,1.19-.28,1.46-.85l.03-.06c.27-.57.16-1.23-.25-1.66.58-.08,1.08-.51,1.24-1.11l.02-.09c.15-.62-.12-1.22-.61-1.56.56-.19.98-.72,1.01-1.35v-.13s0-.02,0-.02Z"/>
          <g>
            <g>
              <polyline class="cls-5" points="118.28 35.83 107.1 30.99 107.1 26.1 98.85 26.1 98.85 30.99 87.64 35.9"/>
              <polygon class="cls-5" points="102.98 34.33 107.1 30.99 107.1 26.1 98.85 26.1 98.85 30.99 102.98 34.33"/>
              <polygon class="cls-5" points="102.98 34.33 100.06 36.72 97.36 31.6 98.85 30.29 102.98 34.33"/>
              <polygon class="cls-5" points="102.98 34.33 105.89 36.72 108.59 31.6 107.1 30.29 102.98 34.33"/>
              <polyline class="cls-6" points="104.87 35.89 103.99 37.76 102.98 37.76 101.97 37.76 101.08 35.89"/>
              <line class="cls-6" x1="104.68" y1="42.9" x2="103.99" y2="37.76"/>
              <line class="cls-6" x1="101.97" y1="37.76" x2="101.28" y2="42.9"/>
            </g>
            <path class="cls-5" d="m109.74,18.04c0,4.85,0-1.62,0,3.22-.18,3.88-3.18,7.66-6.74,7.63-3.53-.02-6.48-3.78-6.65-7.63,0-4.85,0,.87,0-3.97"/>
            <path class="cls-5" d="m96.35,17.3s2.93-1.6,3.83-4.35c0,0,2.87,4.68,9.57,5.11"/>
          </g>
        </g>
      </g>
      <g>
        <path class="cls-3" d="m79.85,214.19c11.36,0,20.63,9.16,20.73,20.55.1,10.94-8.29,19.98-19.03,20.85-.5.04-1.01.07-1.51.07-.07,0-.14,0-.21,0-.56,0-1.12-.03-1.68-.07-10.57-.86-18.93-9.66-19.03-20.47-.1-11.45,9.09-20.82,20.54-20.92.06,0,.13,0,.19,0m0-1.5h-.2c-12.26.12-22.14,10.18-22.03,22.44.11,11.58,8.88,21.02,20.41,21.96.61.05,1.21.08,1.8.08h.23c.56,0,1.11-.03,1.63-.08,11.54-.93,20.5-10.76,20.4-22.36-.11-12.15-10.08-22.03-22.23-22.03h0Z"/>
        <g>
          <path class="cls-4" d="m92.58,234.23c.02-.63-.35-1.18-.89-1.41.5-.31.79-.91.68-1.53v-.07c-.12-.62-.6-1.09-1.18-1.21.42-.4.59-1.04.36-1.62l-.04-.1c-.24-.59-.81-.93-1.41-.91.35-.5.37-1.18,0-1.71l-.04-.05c-.36-.53-1.01-.75-1.6-.6.22-.57.08-1.24-.39-1.68,0,0-.03-.03-.03-.03-.47-.43-1.14-.5-1.68-.22.08-.6-.21-1.21-.77-1.51l-.07-.04c-.57-.31-1.25-.21-1.7.2-.07-.61-.52-1.13-1.15-1.28,0,0-.07-.02-.08-.02-.63-.14-1.24.15-1.56.67-.22-.57-.77-.99-1.42-.96h-.12c-.64.03-1.17.46-1.35,1.04-.37-.49-1.01-.72-1.63-.53l-.09.03c-.61.2-1,.75-1.02,1.36-.48-.38-1.17-.45-1.72-.1l-.05.03c-.55.33-.8.96-.69,1.56-.55-.24-1.22-.13-1.67.32l-.05.05c-.44.45-.54,1.12-.29,1.66-.59-.1-1.2.14-1.54.68l-.05.08c-.33.54-.26,1.2.11,1.67-.6.01-1.16.38-1.37.98l-.03.09c-.21.6-.01,1.23.45,1.61-.58.14-1.04.61-1.14,1.24v.1c-.1.63.23,1.21.76,1.48-.54.25-.9.81-.86,1.44v.09c.05.64.49,1.13,1.06,1.3-.48.36-.72.98-.55,1.59l.03.09c.18.61.71,1.01,1.3,1.06-.4.45-.5,1.12-.2,1.69l.04.08c.3.56.91.84,1.5.75-.3.54-.24,1.23.19,1.71l.04.05c.42.48,1.07.63,1.64.43-.15.58.06,1.22.58,1.59l.08.05c.53.37,1.2.34,1.69-.01-.02.61.35,1.2.95,1.43l.1.04c.61.22,1.25.02,1.64-.44.14.6.65,1.07,1.3,1.13h.1s.06.01.09.01c.61.02,1.14-.34,1.38-.87.3.54.92.87,1.56.76,0,0,.07-.01.08-.01.64-.11,1.09-.61,1.18-1.22.42.44,1.09.6,1.68.35l.1-.05c.58-.27.9-.86.85-1.47.52.32,1.2.29,1.71-.11l.06-.05c.51-.4.66-1.06.46-1.63.58.2,1.25.01,1.65-.5l.05-.06c.39-.5.41-1.17.11-1.68.6.05,1.19-.28,1.46-.85l.03-.06c.27-.57.16-1.23-.25-1.66.58-.08,1.08-.51,1.24-1.11l.02-.09c.15-.62-.12-1.22-.61-1.56.56-.19.98-.72,1.01-1.35v-.13s0-.02,0-.02Z"/>
          <g>
            <g>
              <polyline class="cls-5" points="95.15 248.52 83.97 243.68 83.97 238.79 75.72 238.79 75.72 243.68 64.51 248.59"/>
              <polygon class="cls-5" points="79.84 247.02 83.97 243.68 83.97 238.79 75.72 238.79 75.72 243.68 79.84 247.02"/>
              <polygon class="cls-5" points="79.84 247.02 76.93 249.41 74.23 244.29 75.72 242.98 79.84 247.02"/>
              <polygon class="cls-5" points="79.84 247.02 82.76 249.41 85.46 244.29 83.97 242.98 79.84 247.02"/>
              <polyline class="cls-6" points="81.74 248.58 80.85 250.45 79.84 250.45 78.84 250.45 77.95 248.58"/>
              <line class="cls-6" x1="81.55" y1="255.59" x2="80.85" y2="250.45"/>
              <line class="cls-6" x1="78.84" y1="250.45" x2="78.14" y2="255.59"/>
            </g>
            <path class="cls-5" d="m86.61,230.73c0,4.85,0-1.62,0,3.22-.18,3.88-3.18,7.66-6.74,7.63-3.53-.02-6.48-3.78-6.65-7.63,0-4.85,0,.87,0-3.97"/>
            <path class="cls-5" d="m73.22,230s2.93-1.6,3.83-4.35c0,0,2.87,4.68,9.57,5.11"/>
          </g>
        </g>
      </g>
      <g>
        <line class="cls-6" x1="113.26" y1="52.38" x2="140.71" y2="198.22"/>
        <polygon points="133.76 194.47 134.65 193.26 140.6 197.65 144.55 191.4 145.82 192.2 141.01 199.82 133.76 194.47"/>
      </g>
      <g>
        <line class="cls-6" x1="95.41" y1="52.38" x2="83.26" y2="198.2"/>
        <polygon points="77.56 192.73 78.74 191.81 83.3 197.62 88.77 192.64 89.78 193.75 83.12 199.82 77.56 192.73"/>
      </g>
      <g>
        <line class="cls-6" x1="77.1" y1="43.46" x2="33.21" y2="137.44"/>
        <polygon points="29.75 130.34 31.18 129.88 33.45 136.92 40.3 134.14 40.87 135.53 32.52 138.91 29.75 130.34"/>
      </g>
      <g>
        <line class="cls-6" x1="127.73" y1="43.46" x2="176.18" y2="139.51"/>
        <polygon points="168.47 137.84 168.99 136.43 175.92 139 177.98 131.9 179.42 132.31 176.91 140.97 168.47 137.84"/>
      </g>
      <g>
        <polygon class="cls-1" points="159.37 242.61 150.9 241.15 150.9 234.73 156.12 235.17 157.52 239.88 159.37 242.61"/>
        <path class="cls-2" d="m153.27,233.84c.99-.36,2.33.09,3.28,1.67.71,1.19.75,3.43.9,3.89.29.91,1.28,1.95,3.28,1.52,0,0-.16,1.5-1.3,1.72"/>
        <path class="cls-2" d="m155.72,226.1c0,3.59-2.91,6.49-6.49,6.49s-6.49-2.91-6.49-6.49,2.91-6.55,6.49-6.55,6.49,2.96,6.49,6.55Z"/>
        <g>
          <path class="cls-5" d="m163.05,245.36c-.18-.93-.84-1.72-1.77-2.1l-8.88-2.98v-4.43h-6.33v4.43l-8.88,2.98c-.93.38-1.59,1.16-1.77,2.1"/>
          <path class="cls-5" d="m155.38,227.35c0,4.45,0-.81,0,3.63-.16,3.57-2.92,7.03-6.19,7-3.24-.02-5.94-3.47-6.11-7,0-4.45,0,.9,0-3.54l5.67-.06c1.4-.02,2.62-.94,3.02-2.28l.15-.5.04.19c.32,1.6,1.79,2.71,3.42,2.56h0Z"/>
          <path class="cls-5" d="m141.75,241.89s2.37,3.27,7.48,3.27,7.48-3.27,7.48-3.27"/>
        </g>
      </g>
      <g>
        <polygon class="cls-1" points="209.82 275.38 201.36 273.92 201.36 267.5 206.57 267.94 207.97 272.65 209.82 275.38"/>
        <path class="cls-2" d="m203.72,266.61c.99-.36,2.33.09,3.28,1.67.71,1.19.75,3.43.9,3.89.29.91,1.28,1.95,3.28,1.52,0,0-.16,1.5-1.3,1.72"/>
        <path class="cls-2" d="m206.18,258.87c0,3.59-2.91,6.49-6.49,6.49s-6.49-2.91-6.49-6.49,2.91-6.55,6.49-6.55,6.49,2.96,6.49,6.55Z"/>
        <g>
          <path class="cls-5" d="m213.5,278.13c-.18-.93-.84-1.72-1.77-2.1l-8.88-2.98v-4.43h-6.33v4.43l-8.88,2.98c-.93.38-1.59,1.16-1.77,2.1"/>
          <path class="cls-5" d="m205.83,260.12c0,4.45,0-.81,0,3.63-.16,3.57-2.92,7.03-6.19,7-3.24-.02-5.94-3.47-6.11-7,0-4.45,0,.9,0-3.54l5.67-.06c1.4-.02,2.62-.94,3.02-2.28l.15-.5.04.19c.32,1.6,1.79,2.71,3.42,2.56h0Z"/>
          <path class="cls-5" d="m192.21,274.66s2.37,3.27,7.48,3.27,7.48-3.27,7.48-3.27"/>
        </g>
      </g>
      <g>
        <path class="cls-3" d="m193.65,156.96c11.28,0,20.48,9.1,20.58,20.4.1,10.86-8.23,19.84-18.89,20.7-.5.04-1,.07-1.5.07-.07,0-.14,0-.21,0-.56,0-1.11-.03-1.66-.07-10.5-.85-18.79-9.59-18.89-20.33-.1-11.37,9.03-20.67,20.4-20.77.06,0,.13,0,.19,0m0-1.5h-.2c-12.18.11-21.99,10.11-21.88,22.29.11,11.5,8.82,20.88,20.27,21.81.6.05,1.2.08,1.78.08h.23c.55,0,1.1-.03,1.62-.08,11.46-.93,20.37-10.68,20.26-22.21-.11-12.07-10.01-21.89-22.08-21.89h0Z"/>
        <g>
          <path class="cls-4" d="m206.29,176.86c.02-.62-.35-1.17-.89-1.4.5-.31.79-.9.68-1.52v-.07c-.12-.62-.59-1.08-1.17-1.2.42-.4.58-1.03.36-1.61l-.04-.1c-.24-.59-.81-.92-1.4-.9.35-.5.37-1.18,0-1.7l-.04-.05c-.36-.53-1-.75-1.59-.6.22-.56.08-1.23-.39-1.66,0,0-.03-.03-.03-.03-.47-.42-1.13-.49-1.67-.22.08-.59-.21-1.2-.77-1.5l-.07-.04c-.57-.3-1.24-.2-1.69.2-.07-.6-.52-1.12-1.14-1.27,0,0-.07-.02-.08-.02-.63-.14-1.23.15-1.55.67-.22-.57-.76-.98-1.41-.96h-.12c-.64.03-1.16.46-1.34,1.03-.36-.49-1.01-.72-1.62-.53l-.09.03c-.61.19-.99.74-1.01,1.35-.48-.38-1.16-.44-1.71-.1l-.05.03c-.54.33-.8.96-.68,1.55-.55-.24-1.21-.13-1.65.32l-.05.05c-.44.45-.54,1.11-.29,1.65-.58-.1-1.19.14-1.53.67l-.05.08c-.33.54-.26,1.19.11,1.66-.59.01-1.15.38-1.36.97l-.03.09c-.21.6,0,1.22.45,1.6-.58.14-1.04.61-1.13,1.23v.1c-.1.63.23,1.2.75,1.47-.54.25-.89.81-.86,1.43v.09c.05.63.48,1.13,1.05,1.29-.48.35-.71.97-.55,1.58l.03.09c.17.61.7,1.01,1.3,1.05-.4.45-.5,1.11-.2,1.67l.04.08c.3.56.9.83,1.49.74-.3.53-.24,1.22.19,1.7l.04.05c.41.48,1.06.63,1.62.42-.15.58.06,1.21.57,1.58l.08.05c.53.37,1.19.34,1.68-.01-.02.61.35,1.19.95,1.42l.1.04c.6.22,1.24.02,1.62-.44.14.59.65,1.06,1.29,1.13h.1s.06.01.09.01c.61.02,1.13-.34,1.37-.86.29.54.91.86,1.55.76,0,0,.07-.01.08-.01.64-.11,1.08-.61,1.18-1.21.42.44,1.08.6,1.67.34l.1-.05c.58-.27.89-.86.84-1.46.52.31,1.19.29,1.69-.11l.06-.05c.5-.4.66-1.05.45-1.62.58.19,1.24.01,1.64-.5l.05-.06c.39-.49.41-1.16.11-1.67.59.05,1.18-.27,1.45-.84l.03-.06c.27-.56.15-1.22-.25-1.65.58-.08,1.08-.51,1.23-1.11l.02-.09c.15-.61-.12-1.21-.61-1.54.56-.19.97-.71,1-1.34v-.13s0-.02,0-.02Z"/>
          <g>
            <g>
              <polyline class="cls-5" points="208.84 191.05 197.74 186.24 197.74 181.38 189.55 181.38 189.55 186.24 178.42 191.12"/>
              <polygon class="cls-5" points="193.64 189.55 197.74 186.24 197.74 181.38 189.55 181.38 189.55 186.24 193.64 189.55"/>
              <polygon class="cls-5" points="193.64 189.55 190.75 191.93 188.07 186.85 189.55 185.55 193.64 189.55"/>
              <polygon class="cls-5" points="193.64 189.55 196.54 191.93 199.22 186.85 197.74 185.55 193.64 189.55"/>
              <polyline class="cls-6" points="195.53 191.1 194.65 192.96 193.64 192.96 192.64 192.96 191.76 191.1"/>
              <line class="cls-6" x1="195.33" y1="198.06" x2="194.65" y2="192.96"/>
              <line class="cls-6" x1="192.64" y1="192.96" x2="191.96" y2="198.06"/>
            </g>
            <path class="cls-5" d="m200.36,173.38c0,4.81,0-1.61,0,3.2-.18,3.86-3.16,7.6-6.69,7.58-3.5-.02-6.43-3.76-6.6-7.58,0-4.81,0,.87,0-3.94"/>
            <path class="cls-5" d="m187.06,172.65s2.91-1.59,3.8-4.32c0,0,2.85,4.65,9.5,5.07"/>
          </g>
        </g>
      </g>
      <g>
        <polygon class="cls-1" points="28.1 256.92 19.69 255.47 19.69 249.09 24.87 249.53 26.26 254.2 28.1 256.92"/>
        <path class="cls-2" d="m22.04,248.21c.98-.36,2.31.09,3.26,1.66.71,1.18.74,3.41.89,3.86.29.91,1.27,1.93,3.26,1.51,0,0-.16,1.49-1.29,1.71"/>
        <path class="cls-2" d="m24.48,240.53c0,3.56-2.89,6.45-6.45,6.45s-6.45-2.89-6.45-6.45,2.89-6.5,6.45-6.5,6.45,2.94,6.45,6.5Z"/>
        <g>
          <path class="cls-5" d="m31.75,259.65c-.18-.92-.84-1.71-1.76-2.08l-8.82-2.96v-4.4h-6.29v4.4l-8.82,2.96c-.92.38-1.58,1.16-1.76,2.08"/>
          <path class="cls-5" d="m24.14,241.77c0,4.41,0-.81,0,3.61-.16,3.54-2.9,6.98-6.14,6.95-3.21-.02-5.9-3.45-6.06-6.95,0-4.41,0,.9,0-3.52l5.63-.06c1.39-.02,2.6-.93,3-2.26l.15-.49.04.19c.31,1.59,1.78,2.69,3.39,2.54h0Z"/>
          <path class="cls-5" d="m10.61,256.2s2.35,3.25,7.42,3.25,7.42-3.25,7.42-3.25"/>
        </g>
      </g>
      <g>
        <g>
          <polygon class="cls-1" points="32.14 183.91 23.74 182.46 23.74 176.08 28.92 176.52 30.31 181.19 32.14 183.91"/>
          <path class="cls-2" d="m26.09,175.2c.98-.36,2.31.09,3.26,1.66.71,1.18.74,3.41.89,3.86.29.91,1.27,1.93,3.26,1.51,0,0-.16,1.49-1.29,1.71"/>
          <path class="cls-2" d="m28.53,167.52c0,3.56-2.89,6.45-6.45,6.45s-6.45-2.89-6.45-6.45,2.89-6.5,6.45-6.5,6.45,2.94,6.45,6.5Z"/>
          <g>
            <path class="cls-5" d="m35.8,186.64c-.18-.92-.84-1.71-1.76-2.08l-8.82-2.96v-4.4h-6.29v4.4l-8.82,2.96c-.92.38-1.58,1.16-1.76,2.08"/>
            <path class="cls-5" d="m28.18,168.76c0,4.41,0-.81,0,3.61-.16,3.54-2.9,6.98-6.14,6.95-3.21-.02-5.9-3.45-6.06-6.95,0-4.41,0,.9,0-3.52l5.63-.06c1.39-.02,2.6-.93,3-2.26l.15-.49.04.19c.31,1.59,1.78,2.69,3.39,2.54h0Z"/>
            <path class="cls-5" d="m14.66,183.19s2.35,3.25,7.42,3.25,7.42-3.25,7.42-3.25"/>
          </g>
        </g>
        <path class="cls-3" d="m22.09,150.62c11.28,0,20.48,9.09,20.58,20.4.1,10.86-8.23,19.84-18.89,20.7-.5.04-1,.07-1.5.07-.07,0-.14,0-.21,0-.56,0-1.11-.03-1.66-.07-10.5-.85-18.79-9.59-18.89-20.33-.1-11.37,9.03-20.67,20.4-20.77.06,0,.13,0,.19,0m0-1.5h-.2C9.71,149.24-.11,159.23,0,171.41c.11,11.5,8.82,20.88,20.27,21.81.6.05,1.21.08,1.78.08h.23c.55,0,1.1-.03,1.62-.08,11.46-.93,20.37-10.68,20.26-22.21-.11-12.07-10.01-21.89-22.08-21.89h0Z"/>
      </g>
      <g>
        <g>
          <polygon class="cls-1" points="163.58 319.32 155.18 317.86 155.18 311.48 160.36 311.93 161.75 316.6 163.58 319.32"/>
          <path class="cls-2" d="m157.53,310.6c.98-.36,2.31.09,3.26,1.66.71,1.18.74,3.41.89,3.86.29.91,1.27,1.93,3.26,1.51,0,0-.16,1.49-1.29,1.71"/>
          <path class="cls-2" d="m159.97,302.92c0,3.56-2.89,6.45-6.45,6.45s-6.45-2.89-6.45-6.45,2.89-6.5,6.45-6.5,6.45,2.94,6.45,6.5Z"/>
          <g>
            <path class="cls-5" d="m167.24,322.04c-.18-.92-.84-1.71-1.76-2.08l-8.82-2.96v-4.4h-6.29v4.4l-8.82,2.96c-.92.38-1.58,1.16-1.76,2.08"/>
            <path class="cls-5" d="m159.62,304.16c0,4.41,0-.81,0,3.61-.16,3.54-2.9,6.98-6.14,6.95-3.21-.02-5.9-3.45-6.06-6.95,0-4.41,0,.9,0-3.52l5.63-.06c1.39-.02,2.6-.93,3-2.26l.15-.49.04.19c.31,1.59,1.78,2.69,3.39,2.54h0Z"/>
            <path class="cls-5" d="m146.1,318.6s2.35,3.25,7.42,3.25,7.42-3.25,7.42-3.25"/>
          </g>
        </g>
        <path class="cls-3" d="m153.52,286.03c11.28,0,20.48,9.1,20.58,20.4.1,10.86-8.23,19.84-18.89,20.7-.5.04-1,.07-1.5.07-.07,0-.14,0-.21,0-.56,0-1.11-.03-1.66-.07-10.5-.85-18.79-9.59-18.89-20.33-.1-11.37,9.03-20.67,20.4-20.77.06,0,.13,0,.19,0m0-1.5h-.2c-12.18.11-21.99,10.11-21.88,22.29.11,11.5,8.82,20.88,20.27,21.81.6.05,1.21.08,1.78.08h.23c.55,0,1.1-.03,1.62-.08,11.46-.93,20.37-10.68,20.26-22.21-.11-12.07-10.01-21.89-22.08-21.89h0Z"/>
      </g>
      <g>
        <path class="cls-4" d="m95.69,302.09c.02-.62-.35-1.17-.89-1.4.5-.31.79-.9.68-1.52v-.07c-.12-.62-.59-1.08-1.17-1.2.42-.4.58-1.03.36-1.61l-.04-.1c-.24-.59-.81-.92-1.4-.9.35-.5.37-1.18,0-1.7l-.04-.05c-.36-.53-1-.75-1.59-.6.22-.56.08-1.23-.39-1.66,0,0-.03-.03-.03-.03-.47-.42-1.13-.49-1.67-.22.08-.59-.21-1.2-.77-1.5l-.07-.04c-.57-.3-1.24-.2-1.69.2-.07-.6-.52-1.12-1.14-1.27,0,0-.07-.02-.08-.02-.63-.14-1.23.15-1.55.67-.22-.57-.76-.98-1.41-.96h-.12c-.64.03-1.16.46-1.34,1.03-.36-.49-1.01-.72-1.62-.53l-.09.03c-.61.19-.99.74-1.01,1.35-.48-.38-1.16-.44-1.71-.1l-.05.03c-.54.33-.8.96-.68,1.55-.55-.24-1.21-.13-1.65.32l-.05.05c-.44.45-.54,1.11-.29,1.65-.58-.1-1.19.14-1.53.67l-.05.08c-.33.54-.26,1.19.11,1.66-.59.01-1.15.38-1.36.97l-.03.09c-.21.6,0,1.22.45,1.6-.58.14-1.04.61-1.13,1.23v.1c-.1.63.23,1.2.75,1.47-.54.25-.89.81-.86,1.43v.09c.05.63.48,1.13,1.05,1.29-.48.35-.71.97-.55,1.58l.03.09c.17.61.7,1.01,1.3,1.05-.4.45-.5,1.11-.2,1.67l.04.08c.3.56.9.83,1.49.74-.3.53-.24,1.22.19,1.7l.04.05c.41.48,1.06.63,1.62.42-.15.58.06,1.21.57,1.58l.08.05c.53.37,1.19.34,1.68-.01-.02.61.35,1.19.95,1.42l.1.04c.6.22,1.24.02,1.62-.44.14.59.65,1.06,1.29,1.13h.1s.06.01.09.01c.61.02,1.13-.34,1.37-.86.29.54.91.86,1.55.76,0,0,.07-.01.08-.01.64-.11,1.08-.61,1.18-1.21.42.44,1.08.6,1.67.34l.1-.05c.58-.27.89-.86.84-1.46.52.31,1.19.29,1.69-.11l.06-.05c.5-.4.66-1.05.45-1.62.58.19,1.24.01,1.64-.5l.05-.06c.39-.49.41-1.16.11-1.67.59.05,1.18-.27,1.45-.84l.03-.06c.27-.56.15-1.22-.25-1.65.58-.08,1.08-.51,1.23-1.11l.02-.09c.15-.61-.12-1.21-.61-1.54.56-.19.97-.71,1-1.34v-.13s0-.02,0-.02Z"/>
        <g>
          <g>
            <polyline class="cls-5" points="98.24 316.28 87.14 311.47 87.14 306.61 78.95 306.61 78.95 311.47 67.82 316.35"/>
            <polygon class="cls-5" points="83.04 314.78 87.14 311.47 87.14 306.61 78.95 306.61 78.95 311.47 83.04 314.78"/>
            <polygon class="cls-5" points="83.04 314.78 80.15 317.16 77.47 312.08 78.95 310.78 83.04 314.78"/>
            <polygon class="cls-5" points="83.04 314.78 85.94 317.16 88.62 312.08 87.14 310.78 83.04 314.78"/>
            <polyline class="cls-6" points="84.93 316.33 84.04 318.19 83.04 318.19 82.04 318.19 81.16 316.33"/>
            <line class="cls-6" x1="84.73" y1="323.29" x2="84.04" y2="318.19"/>
            <line class="cls-6" x1="82.04" y1="318.19" x2="81.35" y2="323.29"/>
          </g>
          <path class="cls-5" d="m89.76,298.61c0,4.81,0-1.61,0,3.2-.18,3.86-3.16,7.6-6.69,7.58-3.5-.02-6.43-3.76-6.6-7.58,0-4.81,0,.87,0-3.94"/>
          <path class="cls-5" d="m76.46,297.89s2.91-1.59,3.8-4.32c0,0,2.85,4.65,9.5,5.07"/>
        </g>
      </g>
    </g>
  </g>
</svg>