<?xml version="1.0" encoding="UTF-8"?>
<svg id="Layer_2" data-name="Layer 2" xmlns="http://www.w3.org/2000/svg" viewBox="0 0 289.38 212.11">
  <defs>
    <style>
      .cls-1 {
        stroke-width: 1.42px;
      }

      .cls-1, .cls-2, .cls-3, .cls-4, .cls-5, .cls-6, .cls-7, .cls-8, .cls-9, .cls-10, .cls-11, .cls-12 {
        stroke-linecap: round;
      }

      .cls-1, .cls-2, .cls-3, .cls-4, .cls-5, .cls-6, .cls-7, .cls-8, .cls-9, .cls-12 {
        stroke-miterlimit: 10;
      }

      .cls-1, .cls-2, .cls-3, .cls-5, .cls-6, .cls-7, .cls-8, .cls-9, .cls-10, .cls-11, .cls-12 {
        fill: none;
      }

      .cls-1, .cls-6 {
        stroke: #444344;
      }

      .cls-2, .cls-5 {
        stroke: #5b5a5d;
      }

      .cls-2, .cls-11 {
        stroke-width: .86px;
      }

      .cls-13 {
        fill: #010101;
      }

      .cls-14 {
        fill: #e9b69b;
      }

      .cls-15 {
        fill: #fff;
      }

      .cls-16 {
        fill: #f1f1f1;
      }

      .cls-17 {
        fill: #ba0c2f;
      }

      .cls-18 {
        fill: #919394;
      }

      .cls-19 {
        fill: #bacc52;
      }

      .cls-20 {
        fill: #b9ad86;
      }

      .cls-21 {
        fill: #a89968;
      }

      .cls-22 {
        fill: #a6a6a9;
      }

      .cls-23 {
        fill: #cccbcb;
      }

      .cls-24 {
        fill: #cbc2a4;
      }

      .cls-25, .cls-4 {
        fill: #d1d2d2;
      }

      .cls-26 {
        fill: #172d4c;
      }

      .cls-27 {
        fill: #244a87;
      }

      .cls-28 {
        fill: #221f20;
      }

      .cls-29 {
        fill: #444344;
      }

      .cls-30 {
        fill: #6e6f72;
      }

      .cls-31 {
        fill: #808082;
      }

      .cls-32 {
        fill: #5b5a5d;
      }

      .cls-33 {
        fill: #2e6755;
      }

      .cls-34 {
        fill: #4e85c2;
      }

      .cls-35 {
        fill: #4ea887;
      }

      .cls-3 {
        stroke-width: 1.3px;
      }

      .cls-3, .cls-12 {
        stroke: #2d2d2c;
      }

      .cls-4, .cls-8, .cls-9 {
        stroke: #919394;
      }

      .cls-4, .cls-9 {
        stroke-width: .98px;
      }

      .cls-5, .cls-6, .cls-7, .cls-8, .cls-10 {
        stroke-width: .95px;
      }

      .cls-7 {
        stroke: #181818;
      }

      .cls-36 {
        opacity: .5;
      }

      .cls-36, .cls-37 {
        fill: #ef3340;
        isolation: isolate;
      }

      .cls-37 {
        opacity: .6;
      }

      .cls-10, .cls-11 {
        stroke: #010101;
        stroke-linejoin: round;
      }

      .cls-12 {
        stroke-width: 1.31px;
      }
    </style>
  </defs>
  <g id="Content">
    <g>
      <rect class="cls-16" x="48.01" y="0" width="196.23" height="154.53" rx="32.32" ry="32.32"/>
      <g>
        <g>
          <g>
            <path class="cls-21" d="m253.5,155.33s-.04,0,0,0c-.17.17-.72.64-1.49,1.28-2.94,2.47-9.49,7.92-13.66,10.38-.6.38-1.23.72-1.92,1.02-2.04.98-4.3,1.7-6.72,2-.26.04-.72.04-1.23.04h-.6c-.51,0-.98-.04-1.23-.04-2.43-.26-4.68-.98-6.72-2-.64-.34-1.28-.68-1.92-1.02-4.17-2.51-10.72-7.92-13.66-10.38-.77-.64-1.32-1.11-1.45-1.23l-.04-.04.81-7.62.64-6.21,1.49-14.26.3-2.68h44.18l.3,2.94h0l1.49,14,.64,6.21.81,7.62h0Z"/>
            <g>
              <path class="cls-21" d="m227.75,156.43c0,1.02-.13,2-.34,2.94,0,.09-.04.13-.04.21-1.32,5.19-5.92,9.07-11.41,9.32h-.64c-6.89,0-12.47-5.58-12.47-12.47h0c0-1.49.26-2.98.77-4.3h0c1.74-4.77,6.34-8.17,11.7-8.17,6.85,0,12.43,5.58,12.43,12.47h0Z"/>
              <path class="cls-21" d="m228.52,156.43c0,1.02.13,2,.34,2.94,0,.09.04.13.04.21,1.32,5.19,5.92,9.07,11.41,9.32h.64c6.89,0,12.47-5.58,12.47-12.47h0c0-1.49-.26-2.98-.77-4.3h0c-1.74-4.77-6.34-8.17-11.7-8.17-6.81,0-12.43,5.58-12.43,12.47h0Z"/>
            </g>
            <path class="cls-25" d="m254.61,86.89l-4.34,37.15h0l-.04.47h-44.18l-.04-.34h0l-4.55-37.24,7.83-4.21,9.45-5.06,1.06-.55h0l3.62-1.96,2.68-1.45.77-.43,1.4-.77,1.4.77.64.34.13.09,5.96,3.23.98.51,9.28,5.06,7.96,4.38h0Z"/>
            <circle class="cls-25" cx="228.14" cy="127.49" r="22.39"/>
            <g>
              <path class="cls-25" d="m236.95,80.21c0,4.98-3.96,9.02-8.85,9.02s-8.85-4.04-8.81-9.07c0-.09.85-5.02.85-5.02l1.23-7.06.13-.85h13.28l.21,1.36.17,1.02s1.79,10.51,1.79,10.6h0Z"/>
              <path class="cls-25" d="m234.73,67.27c0,3.75-2.98,6.77-6.64,6.77s-6.64-3.02-6.64-6.81h0c0-.55.09-1.11.21-1.62.72-2.98,3.32-5.15,6.47-5.15s6,2.43,6.51,5.62c.09.43.09.81.09,1.19h0Z"/>
              <path class="cls-22" d="m235.16,69.61c-2.47,3.49-6.38,5.53-10.6,5.53h-4.47l1.23-7.06.13-.85h0c0-.55.09-1.11.21-1.62l12.98.47c.09.38.09.77.09,1.15l.21,1.36.21,1.02h0Z"/>
            </g>
            <path class="cls-32" d="m239.71,56.16c-.55-.17-3.4-1.96-3.7-5.92s-4.04-4.72-4.04-4.72c0,0-.34,0-1.23-.04h-2.55c-.6,0-1.23,0-1.96.04h-.21c-4.13.13-5.62,1.28-5.87,4.94,0,.34-.04.64-.09.94-.51,3.32-2.47,6-2.47,6,0,0-2.34-2.26-3.02-4.98-1.66-6.55,3.87-9.53,3.87-9.53,4.51-9.96,11.58-3.96,11.58-3.96,5.28-.09,4.85,3.79,4.85,3.79,0,0,3.49-1.4,4.85,1.11,1.32,2.6,0,12.34,0,12.34h0Z"/>
            <g>
              <path class="cls-32" d="m212.86,49.14s-4.6,6.17,1.15,8.89l2,3.19,25.88-6.55c.09-1.15-.77-2.81-1.92-2.94l-27.11-2.6h0Z"/>
              <g>
                <path class="cls-25" d="m240.14,51.14c0,.55,0,1.06-.09,1.62,0,.13-.04.26-.04.38-.04.26-.09.51-.13.81-.04.13-.04.26-.09.43-.04.17-.09.38-.13.55,0,0-.98,10.26-1.11,11.02-.43,2.51-6.94,6.26-8.94,7.41-.81.47-1.83.51-2.64.04-2-1.11-8.68-4.68-9.19-7.15-.17-.77-1.36-10.98-1.36-10.98h0c-.04-.13-.09-.3-.13-.43s-.09-.26-.13-.38c-.09-.3-.13-.6-.21-.89,0-.13-.04-.26-.09-.38-.13-.85-.17-1.7-.09-2.6.43-6.13,5.32-11.07,11.41-11.45,6.98-.47,12.85,5.06,12.94,12h0Z"/>
                <path class="cls-29" d="m218.26,52.84c-.09.04-.17-.09-.09-.21.38-.51,1.32-1.53,2.47-1.74,1.11-.26,2.85-.17,3.7-.09.43.04.81.43.81.94h0c0,.43-.21.6-.43.68-.13.04-.3.09-.47.04-.64-.09-3.19-.47-3.66-.34-.43.17-1.74.55-2.34.72h0Z"/>
                <path class="cls-29" d="m237.03,52.55c.09.04.17-.13.09-.21-.43-.47-1.36-1.49-2.51-1.7-1.11-.21-2.85-.09-3.75,0-.43.04-.77.47-.77.98h0c0,.43.21.6.43.64.13.04.3.04.47.04.64-.13,3.19-.55,3.66-.43.43.21,1.79.55,2.38.68h0Z"/>
                <g>
                  <ellipse class="cls-13" cx="222.4" cy="55.95" rx="1.15" ry="1.62" transform="translate(-.82 3.38) rotate(-.87)"/>
                  <path class="cls-13" d="m223.5,54.97c-.94-.47-1.79-.51-2.77-.09.6-1.02,2.21-.94,2.77.09h0Z"/>
                  <ellipse class="cls-13" cx="233.72" cy="55.78" rx="1.15" ry="1.62" transform="translate(-.82 3.56) rotate(-.87)"/>
                  <path class="cls-13" d="m232.56,54.8c.51-1.02,2.13-1.15,2.72-.17-.94-.38-1.79-.34-2.72.17h0Z"/>
                </g>
                <line class="cls-9" x1="227.71" y1="52.72" x2="226.94" y2="60.21"/>
                <path class="cls-25" d="m239.63,54.72s4.34-1.19,3.45,2.85c-1.11,4.85-4.51,4.34-4.51,4.34l1.06-7.19h0Z"/>
                <path class="cls-25" d="m216.77,55.18s-4.72-1.15-3.66,2.85c1.23,4.81,4.6,4.21,4.6,4.21l-.94-7.06h0Z"/>
                <path class="cls-4" d="m230.09,60.97s-1.32,1.32-1.92,1.32-2-1.28-2-1.28"/>
                <path class="cls-22" d="m226.22,64.93l-3.19-.3c.72,1.28,2,2.94,3.11,3.4,1.23.55,2.68.55,3.92,0,1.11-.47,2.38-2.13,3.11-3.4l-3.19.3c-1.23.13-2.51.13-3.75,0h0Z"/>
                <path class="cls-22" d="m223.03,64.63c2.34,1.36,5.06,1.23,5.06,1.23,0,0,2.72.13,5.06-1.23h-10.13Z"/>
                <path class="cls-15" d="m223.71,64.97s1.7,1.96,3.49,2.34c.6.13,1.23.13,1.83,0,1.74-.38,3.49-2.34,3.49-2.34-2.38.68-6.47.68-8.81,0h0Z"/>
              </g>
              <path class="cls-32" d="m241.24,53.48c-.64-.17-3.83-2.17-4.26-6.55-.43-4.43-4.6-5.23-4.6-5.23h-1.4c-.68,0-1.62,0-2.85.04-.64,0-1.36.04-2.21.09h-.21c-4.6.21-6.3,1.53-6.47,5.62,0,.38-.04.72-.09,1.06-.51,3.7-2.68,6.81-2.68,6.81,0,0-2.68-2.51-3.49-5.53-2-7.32,4.17-10.77,4.17-10.77,4.89-11.24,12.94-4.64,12.94-4.64,5.92-.17,5.53,4.17,5.53,4.17,0,0,3.92-1.66,5.45,1.15,1.49,2.77.13,13.79.17,13.79h0Z"/>
              <path class="cls-13" d="m225.71,41.78c-4.6.21-6.3,1.53-6.47,5.62,0,.38-.04.72-.09,1.06-.43-2.04-1.66-9.58,3.02-9.75-.04-.04,3.06,0,3.53,3.06Z"/>
              <path class="cls-13" d="m230.99,41.65c-.68,0-1.62,0-2.85.04.55-.77,2-2.98,1.4-4.64,0,0,1.83.98,1.45,4.6Z"/>
              <path class="cls-13" d="m232.35,41.65s4.34.13,4.81,4.38c.47,4.26,1.15,4.81,1.15,4.81,0,0-2.47-2.3-2.81-5.36-.34-3.06-3.15-3.83-3.15-3.83Z"/>
            </g>
          </g>
          <g>
            <path class="cls-27" d="m195.32,93.53s-4.89,30.81-6.21,35.92l15.15,3.62c.72-2.6,8.81-34.43,8.81-34.43l-17.75-5.11h0Z"/>
            <path class="cls-27" d="m189.75,168.31l-8.43-1.79s.55-3.49,1.06-5.45c.13-.51.3-1.15.47-1.79h0v-.09c.77-2.98,1.7-7.02,2.55-11.32,1.23-6.3,2.04-13.07,3.66-18.47l15.15,3.62c.13,2.13-14.47,35.24-14.47,35.28h0Z"/>
            <circle class="cls-25" cx="204.26" cy="95.83" r="9.32"/>
            <circle class="cls-27" cx="196.94" cy="130.81" r="7.92"/>
            <g id="Scene1_2-11" data-name="Scene1 2-11">
              <g id="Hand-11">
                <circle class="cls-25" cx="185.87" cy="166.26" r="4.38"/>
              </g>
            </g>
            <g>
              <path class="cls-18" d="m183.79,182.61c2.6.77,6.09-1.4,6.26,1.87-2.17.68-5.7.94-8.6-.13l2.34-1.74Z"/>
              <path class="cls-18" d="m185.02,184.82c3.23,1.28,7.32-1.06,7.15,3.15-2.85.64-6.77.51-10.34-1.19l3.19-1.96Z"/>
              <path class="cls-22" d="m186.51,186.61c3.11,1.53,8.26-.64,7.75,3.53-2.89.43-7.66.13-11.11-1.83l3.36-1.7h0Z"/>
              <path class="cls-25" d="m188.94,166.48l-.55,12.68c-2.04,2.3-2.55,5.28-1.15,9.11,3.57,1.83,7.36,1.96,6.51,4.77-2.89.26-7.19-.51-10.51-2.68l-4.21-9.87c.17-4.94,1.11-9.83,2.51-13.87l7.41-.13h0Z"/>
              <path class="cls-22" d="m183.28,190.35c-.09,0-.81-1.83-1.4-4.13-.55-2.3-.98-4.17-.89-4.21s.64,1.83,1.19,4.13c.6,2.34,1.19,4.21,1.11,4.21h0Z"/>
              <path class="cls-25" d="m188.17,179.2c1.92,1.7,1.02,2.43,1.66,5.49.98,4.47,4.04,4,4.43,2.89.38-1.11-1.15-7.83-1.15-7.83-1.19-4.51-.34-9.32-4.21-13.28-2.13,2.72-.72,7.79-.72,12.73h0Z"/>
            </g>
          </g>
          <circle class="cls-25" cx="251.71" cy="95.83" r="9.32"/>
          <g>
            <path class="cls-12" d="m211.92,145.37s-1.74,17.53-10.72,21.49"/>
            <path class="cls-3" d="m227.33,165.03c0,.85.72,1.53,1.57,1.53h.64"/>
          </g>
          <path class="cls-24" d="m248.52,117.75v32.13h-41.07v-32.13l1.83-34.98,9.45-5.06c.21.26.51.51.81.85,1.79,1.7,4.72,3.83,8.43,4.13,3.87-.3,6.89-2.64,8.64-4.34.3-.3.55-.55.77-.81l9.28,5.06,1.87,35.15h0Z"/>
          <g>
            <path class="cls-21" d="m193.15,93.1l-7.53,49.45,15.36,2.38c.38-2,5.4-17.02,5.53-17.62l6.77-26.51-20.13-7.7h0Z"/>
            <circle class="cls-27" cx="203.24" cy="96.98" r="10.81"/>
            <circle class="cls-21" cx="193.49" cy="143.11" r="7.7"/>
            <path class="cls-27" d="m185.62,142.56s-1.96,12.21-5.45,22.34c0,0,7.58,3.66,11.92,2.72,0,0,7.75-17.75,8.94-22.73l-15.41-2.34h0Z"/>
            <path class="cls-34" d="m179.58,161.16s8.94.43,14.94,3.66l-1.79,6.85s-9.58-2.47-14.64-3.06l1.49-7.45h0Z"/>
            <path class="cls-13" d="m183.66,165.28c0,.68-.55,1.23-1.23,1.23s-1.23-.55-1.23-1.23.55-1.23,1.23-1.23,1.23.55,1.23,1.23Z"/>
          </g>
          <path class="cls-21" d="m262.18,92.3l18.64,35.41-12.43,8.77c-.94-1.83-24.81-33.58-24.81-33.58l18.6-10.6h0Z"/>
          <circle class="cls-21" cx="252.18" cy="96.47" r="10.81"/>
          <g>
            <path class="cls-20" d="m219.75,77.1s-10.9,5.32-20.3,9.75c0,0,4.21,11.49,5.28,22.6,0,0,.26,8.81-.17,14.13-.43,5.36-1.92,25.19-1.92,25.19,0,0,4.04,5.19,8.81,6.17s10.98,1.19,10.98,1.19c0,0,2.38-4.43,2.38-5.58s0-44.26.26-47.33c.26-3.06.3-10.13.3-15.11,0,0-12.85-4.13-5.62-11.02h0Z"/>
            <g>
              <path class="cls-21" d="m221.03,104.21l-.38,7.7s-.89,3.49-7.11,3.19c-6.21-.3-6.72-3.92-6.72-3.92l.38-7.7"/>
              <path class="cls-24" d="m221.07,102.81l-.09,1.4c-.09,1.36-1.23,2.47-2.64,2.38l-8.85-.43c-1.36-.09-2.47-1.23-2.38-2.64l.09-1.4"/>
            </g>
            <path class="cls-21" d="m225.37,88.12s-5.49,1.28-7.15,2.89-4.85,3.36-4.85,3.36c0,0-.21-2.77-.38-5.7s-1.28-4.72.77-7.02c2.04-2.34,2.98-4.13,6-4.55,0,0-2.38,1.87-1.79,4.77.64,2.89,6.04,4.77,7.41,6.26h0Z"/>
          </g>
          <g>
            <path class="cls-20" d="m236.52,77.1s10.9,5.32,20.3,9.75c0,0-4.21,11.49-5.28,22.6,0,0-.26,8.81.17,14.13.43,5.36,2.04,25.11,2.04,25.11,0,0-4.21,5.28-8.98,6.26s-10.98,1.19-10.98,1.19c0,0-2.38-4.43-2.38-5.58s0-44.26-.26-47.33c-.26-3.06-.3-10.13-.3-15.11.09,0,12.9-4.13,5.66-11.02h0Z"/>
            <g>
              <path class="cls-21" d="m235.29,104.21l.38,7.7s.89,3.49,7.11,3.19c6.21-.3,6.72-3.92,6.72-3.92l-.38-7.7"/>
              <path class="cls-24" d="m235.2,102.81l.09,1.4c.09,1.36,1.23,2.47,2.64,2.38l8.85-.43c1.36-.09,2.47-1.23,2.38-2.64l-.09-1.4"/>
            </g>
            <path class="cls-21" d="m230.94,88.12s5.49,1.28,7.15,2.89,4.85,3.36,4.85,3.36c0,0,.21-2.77.38-5.7.17-2.94,1.28-4.72-.77-7.02-2.04-2.34-3.11-4.26-6.17-4.68,0,0,2.51,2,1.92,4.89-.6,2.89-6,4.77-7.36,6.26h0Z"/>
          </g>
          <g>
            <g>
              <g id="Scene1_2-12" data-name="Scene1 2-12">
                <g id="Hand-12">
                  <circle class="cls-25" cx="255.16" cy="109.83" r="4.38"/>
                </g>
              </g>
              <circle class="cls-21" cx="273.84" cy="131.02" r="7.7"/>
              <path class="cls-21" d="m268.35,136.47s-10.98-14.68-18.56-22.26c0,0,5.23-6.6,9.58-7.62,0,0,17.24,15.62,20.43,19.58l-11.45,10.3h0Z"/>
            </g>
            <g>
              <path class="cls-23" d="m240.95,97.57c.94.17,2.6.13,5.32.94,2.94.85,3.75,1.06,6.6,1.87.98.3,3.75,2.55,5.83,4.85,1.7,1.87,1.83,4.77.34,6.81l-.17.21c-1.45,1.92-3.96,2.47-6.09,1.4-1.11-.55-2.17-.72-2.81-.68-.85.04-.77.43-3.4.38-4.13-.09-7.66-1.02-7.66-1.02"/>
              <path class="cls-23" d="m246.05,98.68c.09-1.87.09-4.04-.26-5.66-.34-1.66-.38-3.23.47-4.6.43-.68.89-.68,1.4-.55.77.21.77.81.89,1.49.04.26-.04,2.13,1.36,4.26.38.6,1.15,3.32,2.38,5.11.98,1.36,1.02,2.21,1.74,2.34"/>
              <path class="cls-23" d="m242.95,101.96c-1.45-.13-2.55-.43-3.92-.68,0,0-1.87-.51-1.57-2.34,0,0,.3-1.66,2.6-1.4,0,0,3.19.34,3.49.38"/>
              <path class="cls-23" d="m240.78,109.02l-2-.17s-1.66,0-1.66,1.62c0,1.06.68,1.53,1.19,1.7.34.13,2.47.55,2.47.55"/>
              <path class="cls-23" d="m241.8,105.28l-3.7-.43s-1.83-.17-1.96,1.66c-.13,1.96,1.92,2.17,1.92,2.17,0,0,2.81.43,3.4.47"/>
              <path class="cls-23" d="m242.95,101.96l-4.94-.85s-2-.26-2.26,1.53c-.3,1.87,1.92,2.17,1.92,2.17,0,0,3.66.43,4.09.47"/>
            </g>
            <g>
              <path class="cls-24" d="m259.46,103.23s-7.28,5.19-10.55,11.24l5.23,4.77s6.68-7.28,10.6-10.55l-5.28-5.45Z"/>
              <path class="cls-13" d="m258.31,108.89c.38.55,1.15.72,1.7.34.55-.38.72-1.15.34-1.7s-1.15-.72-1.7-.34-.72,1.15-.34,1.7Z"/>
            </g>
          </g>
        </g>
        <g>
          <path class="cls-13" d="m44.85,91.44c1.79.13,3.57.09,5.36-.13.6-.09,1.23-.13,1.79-.38.13-.04,1.53-1.06,1.36-1.19.51.34,1.28.55,1.87.34s.81-.89,1.49-1.06c.55-.13,1.02.09,1.62-.09.77-.26,1.4-.6,2.26-.6.89,0,2,.17,2.6-.51.64-.68.55-2.09,1.45-2.34.43-.13.94.09,1.32-.13.98-.47.17-2.17.89-2.98.26-.3.72-.43,1.02-.68.89-.81.04-2.34.47-3.49.26-.68.94-1.15,1.19-1.83.6-1.49-.98-3.23-.3-4.72.21-.43.55-.72.85-1.11.51-.72.64-1.7.3-2.55-.38-.94-1.23-1.66-1.36-2.64-.09-.51.04-1.06.09-1.57.09-1.36-.64-2.72-1.83-3.45-.94-.55-2.17-.85-2.51-1.87-.09-.21-.09-.47-.13-.72-.26-1.02-1.32-1.57-2.3-2-.51-.21-1.06-.47-1.45-.85-.3-.26-.51-.6-.81-.89-1.23-1.23-3.36-1.45-4.77-.47-.51-.77-.85-1.57-1.45-2.21-.6-.64-1.23-1.28-2-1.74-1.11-.68-2.55-.89-3.7-.3-.34.17-.64.43-1.02.55-1.53.55-3.28-1.23-4.72-.47-.3.17-.55.43-.85.64-.81.55-1.92.51-2.89.55s-2.13.38-2.51,1.32c-.17.43-.17.89-.3,1.32-.64,1.66-3.45,1.53-4,3.19-.21.6-.04,1.28-.21,1.87-.51,1.45-2.85,1.74-3.11,3.23-.13.77.38,1.53.13,2.26-.3,1.02-1.74,1.23-2.21,2.17-.55,1.15.55,2.43.51,3.7-.09,1.32-1.4,2.34-1.32,3.66.09,1.4,1.74,2.26,2.09,3.62.17.77-.09,1.49-.17,2.26s-.04,1.66.6,2.09c.34.21.72.3,1.11.47.77.3,1.32.94,1.53,1.7.13.47.13.98.38,1.4.68,1.11,2.38.6,3.57,1.11.77.34,1.23,1.06,1.83,1.62.68.64,1.32,1.36,1.96,2,.85.81,1.66.98,2.72,1.23,1.23.34,2.38.6,3.57.68h0Z"/>
          <path class="cls-26" d="m37.83,85.01c.64.64,1.49,1.11,2.21,1.66.64.51,1.19,1.19,1.96,1.49.64.3,1.32.3,2.04.3,1.79,0,3.32-.94,5.11-.94.85,0,1.66.21,2.51.3,2,.3,4.09.13,5.87-.77.43-.21.89-.51,1.11-.94.26-.55.04-1.23.09-1.87.09-.81.6-1.57.47-2.38-.13-1.06-1.32-1.79-1.57-2.85-.21-.85.21-1.7.55-2.55.09-.21.17-.47,0-.6-.09-.09-.21-.13-.34-.13-.98-.17-2.04-.38-2.98-.81-.6-.3-1.11-.68-1.79-.89-1.57-.55-3.28-.77-4.94-.72-1.87.04-3.75.55-5.62.55-1.96.04-4.09-.3-5.96.55.17,1.45-1.23,2.77-.94,4.21.17.81.85,1.45,1.11,2.26.34,1.02,0,2.17.38,3.19.21.34.43.64.72.94h0Z"/>
          <path class="cls-29" d="m56.09,56.71c.34,0,.68.04.98.13.34.09.64.26.89.43.55.38,1.02.94,1.23,1.57.13.34.17.64.3.94s.34.51.6.72c.26.21.51.38.81.6.26.21.55.43.77.68s.38.6.51.89.17.68.17,1.02,0,.68.04.98c.04.17.04.3.13.47.04.13.13.3.21.43.17.26.34.55.55.81s.38.51.6.81.38.6.47.89c.13.34.21.68.17,1.06,0,.09-.04.17-.04.26-.04.09-.04.17-.09.26-.04.17-.13.3-.17.47-.04.17-.04.3-.04.43s.04.3.09.43c.13.3.3.55.51.81s.38.55.55.85c.09.17.13.34.17.51.04.17,0,.38-.04.55l-.04.13-.04.13-.13.26c-.09.17-.17.3-.3.43-.21.26-.43.51-.6.77s-.34.55-.34.85c-.04.3.04.64.13.94.09.34.17.64.13,1.02,0,.17-.09.34-.17.51-.09.17-.21.3-.34.38-.26.21-.55.38-.81.6-.13.09-.21.21-.3.38-.04.13-.09.3-.13.47-.04.34.04.64,0,.98s-.17.64-.43.89c-.21.26-.51.43-.85.51.34-.09.6-.3.81-.55.21-.26.34-.55.38-.89.04-.34-.04-.64-.04-.98,0-.17.04-.34.09-.51.09-.17.17-.3.3-.43.26-.26.55-.43.77-.64.13-.09.21-.21.3-.34s.13-.26.13-.43c0-.3-.09-.64-.17-.94-.04-.17-.09-.34-.13-.51s-.04-.34-.04-.51v-.13s0-.09.04-.13c.04-.09.04-.17.09-.26l.04-.13.04-.13c.04-.09.09-.17.13-.21.17-.3.43-.55.6-.81.09-.13.17-.26.26-.38.04-.09.09-.13.09-.21l.04-.09.04-.09c.04-.13.04-.3,0-.43s-.09-.3-.13-.43c-.13-.3-.34-.55-.51-.81s-.38-.55-.55-.89c-.09-.17-.13-.34-.13-.51s0-.38.04-.55.13-.34.17-.47c.04-.17.09-.3.09-.43.04-.3-.04-.6-.13-.89-.13-.3-.26-.6-.47-.85-.34-.51-.81-1.02-1.15-1.66-.09-.17-.17-.3-.21-.47s-.09-.34-.13-.51c-.04-.34-.04-.68-.04-1.02s-.04-.64-.13-.94-.26-.6-.43-.81c-.21-.26-.47-.47-.72-.64s-.55-.38-.81-.6c-.26-.21-.47-.51-.64-.81-.13-.34-.17-.64-.26-.98-.13-1.28-1.4-2.21-2.77-2.26h0Z"/>
          <path class="cls-11" d="m55.24,53.52c1.19-.68,2.6-1.49,4.13-1.36.77.09,1.4.43,1.74.98.09.13.13.26.17.43.09.17.13.34.21.47.17.21.43.38.64.47.3.13.6.21.89.34.34.13.72.26,1.06.43,1.02.51,1.53,1.28,1.49,2.3v.13c0,.21,0,.38.04.51.09.13.26.26.43.34h0c.85.51,1.62,1.11,2.34,1.74,1.15,1.06,1.49,2.13,1.15,3.57,0,.04,0,.09-.04.09-.04.17-.09.34-.04.47.04.17.13.3.26.47s.21.34.34.47c.38.55.81,1.06,1.06,1.7.3.77.38,1.87-.26,2.6-.17.21-.43.38-.64.55-.3.21-.6.43-.72.72-.26.47-.17,1.06.26,1.87.04.04.04.09.09.17.3.6.64,1.28.55,1.96-.13.98-1.02,1.53-1.83,2.09"/>
          <path class="cls-11" d="m31.45,81.69c-.51-.3-1.06-.51-1.57-.68-.47-.17-.94-.34-1.4-.6-1.02-.51-1.96-1.57-1.74-2.77.04-.3.17-.6.3-.89.17-.47.38-.89.21-1.32-.13-.3-.38-.47-.72-.68-1.06-.68-2.21-1.66-2.04-2.94.09-.64.47-1.11.81-1.57.13-.17.26-.34.38-.51.43-.64.55-1.36.38-2.26-.17-.77-.21-1.28.51-2,.17-.17.38-.3.6-.43.43-.26.85-.51.89-.98.04-.3-.09-.6-.26-.94-.04-.04-.04-.09-.09-.17-.43-.89-.64-2.17.09-3.11.47-.6,1.15-.85,1.83-1.11.26-.09.55-.21.81-.34.38-.21.64-.43.77-.64.13-.34.09-.72,0-1.11s-.13-.77-.04-1.15c.17-.77.68-1.36,1.49-1.7.38-.17.81-.3,1.19-.43.3-.09.6-.17.85-.26.47-.17.77-.43.94-.68.13-.26.13-.55.13-.89,0-.3,0-.6.09-.89.34-.98,1.53-1.19,2.55-1.11.13,0,.26.04.43.04.77.09,1.57.17,2.17-.21.09-.09.21-.13.3-.21.17-.13.34-.3.55-.38.77-.34,1.53.17,2.17.64.17.13.38.26.55.34,1.11.64,2.55.6,3.57-.17"/>
          <path class="cls-21" d="m60.05,135.4h-23.62s-8.34,17.36-8.17,21.88l17.49,9.41c1.45,1.11,3.45,1.11,4.94,0l17.87-9.41c.21-4.47-8.51-21.88-8.51-21.88h0Z"/>
          <path class="cls-31" d="m65.45,94.72l-17.19-5.49h-.04l-17.19,5.49c-.98,5.7.94,14.56.94,14.56.68,7.02,2.34,13.45,3.45,17.07.64,2.17.98,4.38.98,6.64v2.43h23.66l.04-2.43c0-2.26.34-4.51.98-6.64,1.11-3.62,2.81-10,3.45-17.07,0,0,1.92-8.85.94-14.56h0Z"/>
          <path class="cls-21" d="m36.43,134.93c0-6.51,5.28-11.83,11.79-11.83s11.83,5.32,11.83,11.83-5.32,11.83-11.83,11.83-11.79-5.28-11.79-11.83h0Z"/>
          <path class="cls-31" d="m25.49,99.31s-1.96,12.3-3.62,31.49c-.17,1.96,1.28,3.75,3.28,4.04h0c2.3.38,4.09-1.36,4.47-3.57,2.85-16.81,6.77-30.3,6.77-30.3l-10.9-1.66h0Z"/>
          <circle class="cls-31" cx="30.94" cy="100.16" r="5.53"/>
          <circle class="cls-31" cx="25.7" cy="131.02" r="3.92"/>
          <g>
            <path class="cls-31" d="m21.96,129.74l-2.51,4.81c-.6,1.11-1.11,2.26-1.57,3.45-.72,1.92-1.36,3.92-1.87,5.92l-3.49,13.36,5.02.89s1.32-3.36,3.49-7.19c3.62-6.43,8.98-15.32,8.38-18.64l-7.45-2.6h0Z"/>
            <circle class="cls-31" cx="14.89" cy="158.38" r="2.64"/>
          </g>
          <g id="Layer_2-9" data-name="Layer 2-9">
            <g id="Scene1_2-7" data-name="Scene1 2-7">
              <g id="Hand-7">
                <circle class="cls-31" cx="15.02" cy="158.3" r="2.64"/>
              </g>
            </g>
          </g>
          <g>
            <path class="cls-32" d="m13.79,168.09c1.62.51,3.87-.89,3.92,1.19-1.36.43-3.57.6-5.4-.09l1.49-1.11Z"/>
            <path class="cls-32" d="m14.55,169.45c2.04.81,4.6-.64,4.51,1.96-1.79.38-4.26.34-6.51-.77l2-1.19Z"/>
            <path class="cls-30" d="m15.49,170.6c1.96.94,5.19-.38,4.89,2.21-1.83.26-4.85.09-6.98-1.15l2.09-1.06h0Z"/>
            <path class="cls-31" d="m17.02,157.92l-.34,8c-1.28,1.45-1.62,3.32-.72,5.75,2.26,1.15,4.64,1.23,4.13,2.98-1.83.17-4.55-.34-6.64-1.7l-2.64-6.21c.09-3.11.72-6.17,1.57-8.77l4.64-.04h0Z"/>
            <path class="cls-30" d="m13.45,172.94s-.51-1.15-.89-2.6c-.34-1.45-.6-2.64-.55-2.64s.38,1.15.77,2.6c.34,1.45.72,2.64.68,2.64Z"/>
            <path class="cls-31" d="m16.55,165.92c1.19,1.06.64,1.53,1.06,3.49.6,2.81,2.55,2.51,2.81,1.83.26-.72-.72-4.94-.72-4.94-.77-2.85-.21-5.87-2.64-8.34-1.4,1.66-.55,4.85-.51,7.96h0Z"/>
          </g>
          <circle class="cls-21" cx="37.7" cy="158.98" r="9.58"/>
          <ellipse class="cls-31" cx="40.68" cy="114.35" rx="8.98" ry="7.87" transform="translate(-79.8 99.71) rotate(-63.49)"/>
          <ellipse class="cls-31" cx="55.77" cy="114.31" rx="7.83" ry="8.98" transform="translate(-45.16 36.91) rotate(-26.51)"/>
          <circle class="cls-21" cx="59.2" cy="158.98" r="9.58"/>
          <path class="cls-31" d="m70.09,99.31s1.96,12.3,3.62,31.49c.17,1.96-1.28,3.75-3.28,4.04h0c-2.3.38-4.09-1.36-4.47-3.57-2.85-16.81-6.77-30.3-6.77-30.3l10.9-1.66h0Z"/>
          <circle class="cls-31" cx="64.6" cy="100.16" r="5.53"/>
          <g>
            <circle class="cls-31" cx="70.22" cy="130.72" r="3.92"/>
            <circle class="cls-31" cx="93.29" cy="148.98" r="2.64"/>
            <g id="Layer_2-10" data-name="Layer 2-10">
              <g id="Scene1_2-8" data-name="Scene1 2-8">
                <g id="Hand-8">
                  <circle class="cls-31" cx="93.16" cy="148.98" r="2.64"/>
                </g>
              </g>
            </g>
            <g>
              <path class="cls-32" d="m99.16,156.81c-1.19,1.23-3.79,1.15-2.81,2.98,1.4-.34,3.4-1.28,4.64-2.81l-1.83-.17Z"/>
              <path class="cls-32" d="m99.2,158.38c-1.36,1.7-4.34,1.74-2.89,3.96,1.74-.55,3.83-1.87,5.23-3.92l-2.34-.04h0Z"/>
              <path class="cls-30" d="m98.95,159.83c-1.23,1.83-4.72,2.26-3.11,4.38,1.7-.68,4.21-2.34,5.49-4.51l-2.38.13h0Z"/>
              <path class="cls-31" d="m91.24,149.66l4.34,6.72c1.83.6,3.06,2.09,3.49,4.6-1.36,2.13-3.4,3.4-2.04,4.64,1.66-.77,3.75-2.55,4.89-4.77l-.81-6.72c-1.66-2.64-3.7-5.02-5.75-6.77l-4.13,2.3h0Z"/>
              <path class="cls-30" d="m101.88,160.85s-.13-1.28-.55-2.68-.81-2.6-.85-2.55c-.04,0,.26,1.19.64,2.64.38,1.45.72,2.6.77,2.6h0Z"/>
              <path class="cls-31" d="m95.67,156.34c-.51,1.53.21,1.66.81,3.53.89,2.72-.94,3.45-1.49,2.98-.55-.51-1.87-4.64-1.87-4.64-.77-2.85-2.77-5.19-1.92-8.55,2.09.77,2.94,4,4.47,6.68h0Z"/>
            </g>
          </g>
          <circle class="cls-31" cx="48.09" cy="94.16" r="6.47"/>
          <polygon class="cls-31" points="54.47 93.14 41.71 93.14 41.71 93.14 42 91.23 42.22 89.65 42.64 86.67 42.98 84.54 43.02 84.12 43.11 83.48 43.58 80.42 52.64 80.42 53.11 83.95 53.2 84.5 53.28 84.93 53.32 85.35 53.41 85.78 54.43 92.97 54.43 92.97 54.47 93.14"/>
          <circle class="cls-31" cx="48.09" cy="80.42" r="4.51"/>
          <path class="cls-30" d="m53.41,85.78l-.72,1.19c-.38.6-.77,1.15-1.23,1.62-1.57,1.66-3.7,2.6-5.92,2.6h-3.57l.26-1.62.43-2.94.34-2.17,10.3.43.04.38.09.51h0Z"/>
          <g>
            <path class="cls-31" d="m58.73,68.16c0-6.13-5.06-11.07-11.19-10.81-5.36.26-9.75,4.51-10.17,9.87-.13,1.45.04,2.89.47,4.17h0s.98,8.3,1.11,8.98c.43,2.17,6.21,6.3,7.96,7.32.72.43,1.62.43,2.34,0,1.74-.98,7.58-5.11,7.96-7.32.13-.68,1.11-8.98,1.11-8.98h0c.26-.98.43-2.09.43-3.23h0Z"/>
            <path class="cls-31" d="m58.22,71.27s3.83-.98,2.98,2.55c-1.02,4.26-4.04,3.75-4.04,3.75l1.06-6.3Z"/>
            <path class="cls-31" d="m38.13,71.39s-4.13-1.11-3.28,2.47c1.02,4.26,3.96,3.75,3.96,3.75l-.68-6.21h0Z"/>
            <ellipse class="cls-13" cx="43.28" cy="72.37" rx=".98" ry="1.36"/>
            <path class="cls-13" d="m44.22,71.52c-.94-.34-1.83-.51-2.77-.13.68-.89,2.13-.68,2.77.13h0Z"/>
            <ellipse class="cls-13" cx="52.9" cy="72.37" rx=".98" ry="1.36"/>
            <path class="cls-13" d="m54.69,71.52c-.94-.34-1.83-.51-2.77-.13.68-.89,2.13-.68,2.77.13h0Z"/>
          </g>
          <path class="cls-13" d="m39.83,69.86c-.09,0-.17-.09-.09-.17.38-.43,1.32-1.28,2.43-1.45,1.06-.21,2.77-.09,3.62-.04.43.04.77.38.77.81h0c0,.34-.21.51-.43.55-.13.04-.3.04-.43.04-.6-.09-3.11-.43-3.57-.3-.38.09-1.7.43-2.3.55h0Z"/>
          <path class="cls-13" d="m56.35,69.86c.09,0,.17-.09.09-.17-.38-.43-1.32-1.28-2.43-1.45-1.06-.21-2.77-.09-3.62-.04-.43.04-.77.38-.77.81h0c0,.34.21.51.43.55.13.04.3.04.43.04.6-.09,3.11-.43,3.57-.3.38.09,1.7.43,2.3.55h0Z"/>
          <g>
            <path class="cls-15" d="m44.39,80.63h7.41s-1.96,1.92-3.7,1.92-3.7-1.92-3.7-1.92Z"/>
            <path class="cls-30" d="m48.09,80.08c-.98-1.02-3.7.55-3.7.55,0,0,2.34.47,3.7.47s3.7-.47,3.7-.47c0,0-2.72-1.53-3.7-.55Z"/>
            <path class="cls-30" d="m51.79,80.63l-.77.17s-1.36,1.32-2.89,1.32c-1.7,0-3.02-1.32-3.02-1.32l-.72-.13c.72,1.79,2.04,2.6,2.89,2.89.51.21,1.11.21,1.62,0,.85-.38,2.17-1.15,2.89-2.94h0Z"/>
          </g>
          <path class="cls-2" d="m50.05,76.67s-.13.6-1.4.85c0,0-.04,0-.09.04-.34.21-.72.21-1.06,0-.04-.04-.09-.04-.09-.04-1.32-.26-1.4-.85-1.4-.85"/>
          <path class="cls-13" d="m53.37,57.9h.04c1.06.21,2,.72,2.89,1.28.81.51,1.66.72,2.21,1.53.68,1.06,1.02,2.43,1.32,3.53.38,1.45.81,2.94.64,4.43-.17,1.32-.85,2.55-1.83,3.4-.3.26-.72.68-1.11.21-.3-.38-.13-.72.04-1.11.13-.26.13-.55.26-.81.13-.3.38-.64.3-.98-.04-.34-.34-.55-.55-.85-.26-.34-.34-.77-.3-1.19.04-.38.21-.85-.04-1.15-.21-.26-.64-.21-.94-.38-.38-.21-.51-.64-.64-1.02s-.34-.81-.77-.89c-.21-.04-.47,0-.68-.04-.34-.13-.51-.51-.72-.77-.26-.34-.72-.51-1.15-.47-.17,0-.3.04-.47,0-.55-.09-.64-.94-1.11-1.19-.38-.21-.89,0-1.23-.21-.3-.17-.38-.6-.64-.81s-.64-.26-.94-.38c-.3-.17-.72-.64-.64-1.02s.64-.6.94-.72c.72-.21,1.45-.3,2.17-.34,1.02-.13,2-.21,2.94-.04h0Z"/>
          <path class="cls-13" d="m30.85,68.92v-.09c.17-1.7.85-3.32,1.62-4.81.68-1.36.94-2.77,2.17-3.75,1.57-1.23,3.7-1.96,5.45-2.64,2.21-.85,4.55-1.74,6.98-1.62,2.13.09,4.17,1.02,5.75,2.47.47.47,1.19,1.02.51,1.7-.55.51-1.15.3-1.74.09-.43-.17-.89-.17-1.36-.34-.51-.21-1.06-.51-1.62-.34-.51.13-.85.64-1.28.98-.51.43-1.19.68-1.87.64-.64,0-1.4-.21-1.87.21-.38.38-.26,1.06-.47,1.57-.26.6-.94.89-1.53,1.15-.6.26-1.23.68-1.36,1.32-.04.38.09.77,0,1.11-.13.55-.72.85-1.15,1.28-.47.47-.72,1.23-.6,1.92.04.26.13.47.09.72-.09.89-1.36,1.11-1.74,1.96-.26.64.13,1.4-.17,2-.26.51-.89.68-1.23,1.15-.34.47-.3,1.06-.51,1.57s-.89,1.23-1.49,1.15c-.6-.04-1.06-.89-1.28-1.4-.47-1.11-.68-2.26-.85-3.45-.3-1.4-.55-2.98-.43-4.55h0Z"/>
          <path class="cls-29" d="m53.92,56.11c-.13-.26-.3-.51-.51-.68s-.47-.34-.77-.43c-.55-.17-1.19-.04-1.62.3-.26.17-.43.38-.64.6-.13.09-.26.21-.38.26s-.3.09-.47.09c-.6.04-1.19.04-1.79,0-.3,0-.6-.04-.89-.04s-.6-.04-.89-.09c-.3,0-.6,0-.85.04s-.55.13-.77.3c-.21.13-.43.34-.51.6-.13.26-.17.51-.26.81-.04.17-.09.3-.17.43s-.17.3-.34.38c-.26.21-.55.34-.85.43s-.55.17-.81.26c-.13.04-.26.13-.34.21-.04.04-.09.09-.13.13t-.04.09s-.04.04-.04.09c-.13.21-.17.47-.17.77s.04.55.04.85,0,.64-.13.94c-.04.17-.13.3-.26.43s-.26.21-.38.3c-.55.34-1.15.38-1.62.68-.26.13-.43.34-.47.6-.09.26-.04.55-.04.85v.47c0,.17-.04.3-.09.47-.13.3-.3.55-.51.77s-.43.43-.68.6c-.21.21-.43.38-.6.64-.17.21-.26.51-.26.81s.09.6.3.77c-.26-.17-.38-.47-.38-.77s.09-.6.26-.85c.34-.51.81-.85,1.19-1.28.17-.21.38-.43.47-.72.09-.26.09-.55.09-.85-.04-.3-.04-.6.04-.94.04-.17.13-.3.21-.43s.21-.21.38-.34c.26-.17.55-.26.85-.38.26-.09.55-.21.77-.34.13-.09.21-.17.3-.26s.13-.21.17-.34c.09-.26.09-.51.09-.81s-.04-.6-.04-.89c0-.17,0-.3.04-.47s.09-.34.17-.47c.04-.04.04-.09.09-.09t.09-.09c.04-.09.13-.13.17-.17.13-.09.26-.17.43-.21.3-.13.6-.21.85-.26s.55-.17.72-.34c.09-.09.17-.17.26-.3.04-.13.09-.26.13-.38.09-.26.13-.6.26-.85.13-.3.38-.55.64-.72.26-.17.6-.26.89-.3s.6-.04.89-.04.6.04.89.09c.3.04.6.04.89.09.6.04,1.19.04,1.74.04.13,0,.26-.04.38-.09.13-.04.26-.13.34-.21.21-.17.43-.43.68-.6.51-.34,1.19-.43,1.74-.21.3.09.55.26.77.47.21.13.38.38.47.64h0Z"/>
          <path class="cls-29" d="m36.9,58.03c-.3.04-.55.21-.77.38s-.43.43-.51.64c-.13.26-.17.55-.17.81,0,.3,0,.6-.04.85,0,.17-.04.3-.09.43-.04.13-.09.3-.17.43-.13.26-.34.51-.51.72-.38.43-.85.81-1.23,1.23-.17.21-.34.43-.47.68-.13.26-.17.51-.17.77s.09.55.13.81c.04.3.13.6.13.89s-.09.64-.21.89c-.13.3-.26.55-.43.81s-.34.47-.51.72-.34.47-.47.72-.26.51-.34.77-.13.51-.09.81v.09l.04.09s.04.13.04.17c.04.13.09.26.17.34.13.21.34.43.51.68.17.21.38.47.51.77.04.17.09.3.13.47s0,.3,0,.47c-.04.3-.09.6-.17.89s-.17.55-.21.85c-.04.26-.09.55-.04.81s.13.51.3.72c.17.21.43.38.64.51.26.13.51.26.77.47.13.09.21.21.34.34.09.13.17.26.21.43.09.3.13.6.17.85.04.13.04.3.09.43.04.13.13.26.21.38s.21.21.34.26.26.09.43.04c-.13.04-.3.04-.43-.04-.13-.04-.26-.17-.34-.26-.09-.13-.17-.26-.26-.38s-.09-.3-.13-.43c-.04-.3-.09-.55-.21-.85-.04-.13-.13-.26-.21-.34-.09-.09-.17-.21-.3-.26-.21-.17-.47-.3-.72-.43s-.51-.3-.72-.51-.34-.55-.38-.85,0-.6.04-.89.13-.6.21-.85.13-.55.13-.81v-.43c0-.13-.04-.26-.09-.38-.09-.26-.26-.47-.47-.68-.17-.21-.38-.43-.55-.68-.09-.13-.17-.26-.21-.43-.04-.09-.04-.17-.09-.21l-.04-.13v-.13c-.04-.3,0-.64.09-.94s.21-.55.38-.81c.13-.26.34-.51.51-.72.17-.21.34-.47.51-.68.17-.21.3-.47.38-.72.09-.26.17-.51.17-.77.04-.51-.21-1.06-.21-1.7,0-.3.09-.64.21-.89s.34-.51.51-.72c.43-.43.85-.81,1.23-1.19.21-.21.38-.43.51-.68.04-.13.13-.26.17-.38.04-.13.09-.26.09-.43.04-.3.04-.55.09-.85.04-.3.09-.6.26-.85.13-.26.34-.47.6-.64.13-.3.43-.38.72-.47h0Z"/>
          <g>
            <g>
              <path class="cls-21" d="m38.09,100.29s-.17.51-.47,1.45q-.21.64,0,0c-.26.85-.68,2.13-1.15,3.7-1.06,3.53-2.55,8.68-4.13,14.85-.09.34-.17.72-.3,1.11-.3,1.15-.6,2.34-.89,3.53-.26,1.11-1.7,7.45-1.92,8.51-.04.26-.09.47-.13.72-.04.13-.04.21-.09.34-.04.26-.13.51-.21.77l-.04.04c-.09.21-.17.43-.3.64h0c-.85,1.62-2.47,2.64-4.34,2.43-.13,0-.21-.04-.34-.04-2.3-.47-3.87-2.55-3.57-4.77.13-.85.21-1.7.34-2.55.09-.51.13-.98.17-1.45,2.38-18.17,4.64-30,4.94-31.49,0-.04.04-.09.04-.17l.68.13h.04l5.23,1.02,1.06.21,4.98.98h.04l.34.04h0Z"/>
              <circle class="cls-21" cx="31.49" cy="98.96" r="5.92" transform="translate(-9.6 3.58) rotate(-5.66)"/>
            </g>
            <path class="cls-21" d="m29.02,131.23s2.47,4.04-2.6,10.77c-.21.3-.51.51-.89.43l-8.09-1.62c-.34-.09-.55-.38-.51-.72.3-2.04,2.17-8.64,3.96-11.79l8.13,2.94h0Z"/>
          </g>
          <g>
            <path class="cls-21" d="m49.11,110.46v29.71s-18.6,4.17-17.45-2.26c.21-1.23.55-2.47.77-3.62.43-2.3.72-4.38.68-5.79,0-.6-.04-1.32-.04-2.13-.04-.94-.09-2.04-.13-3.19-.04-.47-.04-.98-.09-1.49-.04-.85-.09-1.7-.13-2.64-.09-1.79-.21-3.66-.34-5.58-.09-1.7-.21-3.49-.34-5.19-.09-1.23-.17-2.43-.21-3.57-.04-.3-.04-.64-.09-.94-.13-1.74-.21-3.36-.34-4.77,0-.17-.04-.38-.04-.55-.21-2.98-.34-5.02-.38-5.4v-.04h0s4.47-.13,7.58-1.23c.51-.17,1.02-.38,1.45-.64.77-.43,2.13-.64,2.13-.64.04.3.98,13.11,6.98,19.96h0Z"/>
            <path class="cls-21" d="m46.85,110.46l2.04,29.88s16.26,4,15.41-2.43c-.17-1.23-.51-2.43-.72-3.57-.43-2.3-.72-4.38-.68-5.79,0-.6.04-1.32.04-2.13.04-.94.09-2.04.13-3.19.04-.47.04-.98.09-1.49.04-.85.09-1.7.13-2.64.09-1.79.21-3.66.34-5.58.09-1.7.21-3.49.34-5.19.09-1.23.17-2.43.21-3.57.04-.3.04-.64.04-.94.13-1.74.21-3.36.34-4.77,0-.17.04-.38.04-.55.21-2.98.34-5.02.38-5.4v-.04h0s-4.47-.13-7.58-1.23c-.51-.17-1.02-.38-1.45-.64-.77-.43-2.13-.64-2.13-.64-.04.26-.98,13.07-6.98,19.92h0Z"/>
            <path class="cls-20" d="m46.51,155.62h2.6v-44.51c-4.51-5.36-6.98-20.48-6.98-20.48,0,0-1.45.97-2.21,1.41h0c.94,5.36,3.06,15.25,6.55,19.42l.04,44.16h0Z"/>
            <path class="cls-20" d="m49.45,156.43h-2.6v-45.07c4.51-5.43,6.98-20.73,6.98-20.73,0,0,1.45.98,2.21,1.42h0c-.94,5.43-3.06,15.44-6.55,19.66l-.04,44.71h0Z"/>
            <path class="cls-15" d="m48.47,110.8c0,.38-.3.68-.68.68s-.68-.3-.68-.68.3-.68.68-.68.68.3.68.68Z"/>
            <circle class="cls-15" cx="47.79" cy="117.14" r=".68"/>
            <circle class="cls-15" cx="47.79" cy="123.53" r=".68"/>
            <circle class="cls-15" cx="47.79" cy="129.87" r=".68"/>
          </g>
          <path class="cls-33" d="m40.17,95.69l-3.15.89s2.94-3.79,4.17-3.7,2.04,3.11,2.04,3.11l-.51-.21c-.81-.3-1.7-.3-2.55-.09h0Z"/>
          <path class="cls-20" d="m42.13,90.63c-.64-.3-1.92-.34-2.55,0-.89.51-1.74,1.45-3.15,2.81-1.19,1.19-3.87,2.64-3.87,2.64,1.28,1.23,3.66.77,4.34.55,2.09-.6,2.85-3.11,4.68-2.72.81.17,1.7,2.04,1.7,2.04l-1.15-5.32h0Z"/>
          <path class="cls-33" d="m55.79,95.69l3.15.89s-2.94-3.79-4.17-3.7c-1.23.04-2.04,3.11-2.04,3.11l.51-.21c.81-.3,1.7-.3,2.55-.09h0Z"/>
          <path class="cls-20" d="m53.79,90.63c.64-.3,1.92-.34,2.55,0,.89.51,1.74,1.45,3.15,2.81,1.19,1.19,3.87,2.64,3.87,2.64-1.28,1.23-3.66.77-4.34.55-2.09-.6-2.85-3.11-4.68-2.72-.81.17-1.7,2.04-1.7,2.04l1.15-5.32h0Z"/>
          <g>
            <path class="cls-21" d="m57.75,100.29s.17.51.47,1.45q.21.64,0,0c.26.85.68,2.13,1.15,3.7,1.06,3.53,2.55,8.68,4.13,14.85.09.34.17.72.26,1.11.3,1.15.6,2.34.89,3.53.26,1.11,1.53,7.53,1.74,8.6.04.26.55,1.49.64,1.7l.04.04c.09.21.17.43.3.64h0c.85,1.62,2.47,2.64,4.34,2.43.13,0,.21-.04.34-.04,2.3-.47,3.87-2.55,3.57-4.77-.13-.85-.21-1.7-.34-2.55-.04-.51-.13-.98-.17-1.45-2.38-18.17-4.64-30-4.94-31.49,0-.04-.04-.09-.04-.17l-.68.13h-.04l-5.23,1.02-1.06.21-4.98.98h-.04l-.34.09h0Z"/>
            <circle class="cls-21" cx="64.35" cy="98.97" r="5.92"/>
          </g>
          <path class="cls-35" d="m66.74,131.3s-2.11,4.09,2.99,10.73c.23.28.55.5.89.41l8.09-1.69c.33-.06.55-.37.49-.7-.32-2.04-2.36-7.91-4.19-10.99l-8.28,2.25Z"/>
        </g>
        <g>
          <g>
            <path class="cls-6" d="m195.9,63.82s1.19,4.04,4.17,5.87c4.64,2.89,5.66,5.58,4.43,9.45-3.06,9.83-.55,9.58-.55,9.58"/>
            <path class="cls-29" d="m201.86,79.91c-1.57,6.51-2.38,8.43-.21,12.51,0,0-2.6.98-6.13,1.66-3.92.77-8.94,1.15-12.77-.51-.38-.17-.77-.38-1.15-.6-.17.09-.34.17-.51.26-3.66,1.87-8.64,1.62-12.68.94-3.87-.68-6.85-1.79-6.85-1.79,2.17-4.13,1.36-6.04-.21-12.51-.94-3.92.72-6.6,2.21-8.13,1.83-1.87,3.02-4.77,3.4-7.36.55-3.75-.13-6.17-.13-6.17l14.81,8.64,14.77-8.6s-.68,2.38-.13,6.13c.38,2.6,1.57,5.49,3.4,7.36,1.45,1.57,3.15,4.26,2.17,8.17h0Z"/>
            <path class="cls-13" d="m195.51,94.04v.09c-3.92.77-8.94,1.15-12.77-.51v-24.68l8.72-.26s6.17,6.89,2.72,12.77c-3.45,5.83.94,11.36,1.32,12.6h0Z"/>
            <path class="cls-13" d="m181.64,71.95l-.47,21.36c-3.66,1.87-8.64,1.62-12.68.94.94.17,2.68-8.04,1.19-13.36-1.49-5.36,1.74-10.13,1.74-10.13l10.21,1.19h0Z"/>
            <circle class="cls-22" cx="181.51" cy="88.25" r="6.6"/>
            <polygon class="cls-22" points="187.98 86.93 175 87.06 175.34 81.78 175.89 75.48 176.15 72.55 186.45 72.55 186.83 75.91 186.87 76.55 187.98 86.93"/>
            <circle class="cls-14" cx="181.3" cy="72.55" r="5.15"/>
            <path class="cls-31" d="m186.83,75.91l-10.94-.43-.55,6.3h3.4c2.98,0,5.75-1.49,7.36-3.96l.81-1.23-.09-.68h0Z"/>
            <path class="cls-22" d="m193.17,58.33c-.72-18.09-27.71-13.79-22.98,3.62h0c1.11,10.13.98,11.24,9.92,17.66,2.94,1.83,10.47-6.43,11.28-8.89.13-.72,1.19-8.81,1.19-8.81h0c.43-1.11.6-2.34.6-3.57h0Z"/>
            <path class="cls-31" d="m179.81,71.91l-2.72-.26c.6,1.11,1.7,1.79,2.64,2.17,1.06.47,2.26.47,3.32,0,.94-.43,2.04-1.11,2.64-2.17l-2.72.26c-1.02.09-2.09.09-3.15,0h0Z"/>
            <path class="cls-30" d="m177.09,71.65c2,1.15,4.3,1.02,4.3,1.02,0,0,2.3.09,4.3-1.02l-3.32-.34h-.34l-.64.13-.6-.13c-.13-.04-.26-.04-.34,0l-3.36.34h0Z"/>
            <path class="cls-29" d="m172.02,60.37c-.13.04-.17-.09-.09-.17.47-.47,1.49-1.45,2.77-1.66,1.23-.21,3.15-.13,4.13-.04.51.04.89.43.89.94h0c0,.38-.26.55-.47.64-.17.04-.34.09-.51.04-.68-.09-3.53-.51-4.04-.34-.51.04-2,.43-2.68.6h0Z"/>
            <path class="cls-29" d="m190.83,60.37c.13.04.17-.09.09-.17-.47-.47-1.49-1.45-2.77-1.66-1.23-.21-3.15-.13-4.13-.04-.51.04-.89.43-.89.94h0c0,.38.26.55.47.64.17.04.34.09.51.04.68-.09,3.53-.51,4.04-.34.51.04,2,.43,2.68.6h0Z"/>
            <path class="cls-8" d="m183.3,67.65s-1.32,1.28-1.87,1.28-1.92-1.28-1.92-1.28"/>
            <g>
              <ellipse class="cls-13" cx="175.94" cy="62.71" rx="1.11" ry="1.57"/>
              <path class="cls-13" d="m177.04,61.74c-1.06-.38-2.09-.6-3.15-.13.77-1.02,2.43-.77,3.15.13h0Z"/>
              <ellipse class="cls-13" cx="186.92" cy="62.71" rx="1.11" ry="1.57"/>
              <path class="cls-13" d="m188.92,61.74c-1.06-.38-2.09-.6-3.15-.13.77-1.02,2.43-.77,3.15.13h0Z"/>
            </g>
            <path class="cls-15" d="m177.68,71.95s1.45.94,2.94,1.23c.51.13,1.06.13,1.57,0,1.49-.34,2.94-1.23,2.94-1.23-2,.55-5.49.55-7.45,0h0Z"/>
            <line class="cls-8" x1="180.75" y1="63.05" x2="180.28" y2="66.84"/>
            <path class="cls-29" d="m196.24,64.37c-1.23-.21-2.47-1.23-3.62-2.64-2.17-2.64-4.04-6.6-4.98-9.36-1.36-4-5.58-4.34-6-4.38h-.04v-4.89c4.81.13,8.34,3.23,8.34,3.23,9.11,6.04,6.3,18.05,6.3,18.05h0Z"/>
            <path class="cls-29" d="m181.64,43.09v4.94s-4.04-1.36-6.13,1.66l-.34,3.57c-3.49,8.94-6.64,10.85-8.17,11.11,0,0-.21-.94-.34-2.43h0c-.3-3.83.09-11.28,6.64-15.62.04,0,3.57-3.11,8.34-3.23h0Z"/>
            <path class="cls-13" d="m192.62,61.74h0c-2.17-2.64-4.04-6.6-4.98-9.36-1.36-4-5.58-4.34-6-4.38h0s2.55-3.28,5.02-.47c.51.6.89,1.32,1.11,2.13.6,2.21,2.51,8.72,4.85,12.09Z"/>
            <path class="cls-13" d="m170.96,61.35c2.17-2.64,3.75-6.21,4.68-8.94,1.36-4,5.58-4.34,6-4.38h0s-2.55-3.28-5.02-.47c-.51.6-.89,1.32-1.11,2.13-.6,2.21-4.55,11.66-4.55,11.66Z"/>
            <path class="cls-6" d="m173.34,47.05s-12.21,10.64-6.72,20.6"/>
            <line class="cls-7" x1="181.64" y1="43.73" x2="181.64" y2="47.05"/>
            <path class="cls-22" d="m192.62,61.74s4.21-1.06,3.28,2.81c-1.15,4.68-4.43,4.13-4.43,4.13l1.15-6.94Z"/>
            <path class="cls-22" d="m175.34,85.61s-1.49,2.3-4.51,2.89h4.51v-2.89Z"/>
            <path class="cls-22" d="m187.47,85.61s1.49,2.3,4.51,2.89h-4.51v-2.89Z"/>
            <path class="cls-22" d="m170.57,61.86s-4.55-1.19-3.57,2.68c1.15,4.68,4.34,4.13,4.34,4.13l-.77-6.81Z"/>
          </g>
          <g>
            <path class="cls-22" d="m196.37,132.6h-30.64s-6.47,18.81-6.3,23.71l18.94,10.21c1.57,1.19,3.75,1.19,5.32,0l19.36-10.21c.26-4.89-6.68-23.71-6.68-23.71h0Z"/>
            <path class="cls-22" d="m199.68,88.51l-18.43-.81-18.81.81c-1.06,6.21,1.02,15.79,1.02,15.79.72,7.62,2.55,14.56,3.75,18.47.72,2.34-.51,7.06-.51,7.06l-.94,2.81h30.64l-.98-3.49s-1.15-4-.43-6.34c1.19-3.87,3.02-10.85,3.75-18.47-.04-.09,2-9.66.94-15.83h0Z"/>
            <path class="cls-22" d="m166.45,132.04c0-8.09,6.55-14.64,14.6-14.64s14.64,6.55,14.64,14.64-6.6,14.64-14.64,14.64-14.6-6.55-14.6-14.64h0Z"/>
            <ellipse class="cls-22" cx="172.23" cy="109.69" rx="10.68" ry="9.36" transform="translate(-2.81 214.85) rotate(-63.49)"/>
            <ellipse class="cls-22" cx="190.17" cy="109.7" rx="9.36" ry="10.68" transform="translate(-28.97 96.42) rotate(-26.51)"/>
            <circle class="cls-22" cx="192.92" cy="158.09" r="10.34"/>
            <circle class="cls-22" cx="169.64" cy="158.09" r="10.34"/>
            <g>
              <g>
                <path class="cls-22" d="m157.59,93.31s-2.38,13.28-4.68,34.09c-.21,2.13,1.28,4.09,3.49,4.47h0c2.51.47,4.47-1.36,4.94-3.75,3.49-18.17,8.04-32.69,8.04-32.69l-11.79-2.13h0Z"/>
                <circle class="cls-22" cx="163.47" cy="94.38" r="5.96"/>
                <circle class="cls-22" cx="157.08" cy="127.62" r="4.26"/>
                <path class="cls-22" d="m153,126.34l-1.7,5.62c-.38,1.32-.72,2.64-.94,4-.38,2.21-.64,4.43-.81,6.68l-.98,14.94,5.49-.09s.72-3.83,2.26-8.38c2.55-7.58,6.43-18.09,5.11-21.53l-8.43-1.23h0Z"/>
              </g>
              <g id="Layer_2-2" data-name="Layer 2-2">
                <g id="Scene1_2" data-name="Scene1 2">
                  <g id="Hand">
                    <circle class="cls-22" cx="151.42" cy="158.05" r="2.89"/>
                  </g>
                </g>
              </g>
              <g>
                <path class="cls-31" d="m150.32,170.35c2.04.6,4.81-1.11,4.89,1.49-1.7.51-4.51.77-6.77-.13l1.87-1.36h0Z"/>
                <path class="cls-31" d="m151.25,172.09c2.55,1.02,5.75-.81,5.62,2.47-2.26.47-5.32.43-8.13-.94l2.51-1.53h0Z"/>
                <path class="cls-18" d="m152.49,173.5c2.47,1.19,6.51-.51,6.13,2.77-2.3.34-6.04.13-8.72-1.45l2.6-1.32h0Z"/>
                <path class="cls-22" d="m154.27,157.66l-.34,10c-1.62,1.79-2,4.17-.89,7.15,2.81,1.45,5.83,1.53,5.15,3.75-2.3.21-5.66-.43-8.26-2.09l-3.32-7.79c.13-3.87.89-7.75,1.96-10.94l5.7-.09h0Z"/>
                <path class="cls-18" d="m149.89,176.47c-.09,0-.64-1.45-1.11-3.23-.47-1.79-.77-3.28-.68-3.32.09,0,.51,1.45.94,3.23.47,1.83.89,3.28.85,3.32Z"/>
                <path class="cls-22" d="m153.64,167.66c1.49,1.32.81,1.92,1.32,4.34.77,3.53,3.19,3.15,3.49,2.26.3-.89-.89-6.17-.89-6.17-.94-3.57-.3-7.32-3.32-10.43-1.7,2.13-.6,6.13-.6,10Z"/>
              </g>
            </g>
            <g>
              <g>
                <path class="cls-22" d="m205.05,93.31s2.38,13.28,4.68,34.09c.21,2.13-1.28,4.09-3.49,4.47h0c-2.51.47-4.47-1.36-4.94-3.75-3.49-18.17-8.04-32.69-8.04-32.69l11.79-2.13h0Z"/>
                <circle class="cls-22" cx="199.17" cy="94.38" r="5.96"/>
                <circle class="cls-22" cx="205.56" cy="127.62" r="4.26"/>
                <path class="cls-22" d="m209.64,126.34l1.7,5.62c.38,1.32.72,2.64.94,4,.38,2.21.64,4.43.81,6.68l.98,14.94-5.49-.09s-.72-3.83-2.26-8.38c-2.55-7.58-6.43-18.09-5.11-21.53l8.43-1.23h0Z"/>
              </g>
              <g id="Layer_2-3" data-name="Layer 2-3">
                <g id="Scene1_2-2" data-name="Scene1 2-2">
                  <g id="Hand-2">
                    <circle class="cls-22" cx="211.22" cy="158.05" r="2.89"/>
                  </g>
                </g>
              </g>
              <g>
                <path class="cls-31" d="m212.32,170.35c-2.04.6-4.81-1.11-4.89,1.49,1.7.51,4.51.77,6.77-.13l-1.87-1.36h0Z"/>
                <path class="cls-31" d="m211.39,172.09c-2.55,1.02-5.75-.81-5.62,2.47,2.26.47,5.32.43,8.13-.94l-2.51-1.53h0Z"/>
                <path class="cls-18" d="m210.15,173.5c-2.47,1.19-6.51-.51-6.13,2.77,2.3.34,6.04.13,8.72-1.45l-2.6-1.32h0Z"/>
                <path class="cls-22" d="m208.37,157.66l.34,10c1.62,1.79,2,4.17.89,7.15-2.81,1.45-5.83,1.53-5.15,3.75,2.3.21,5.66-.43,8.26-2.09l3.32-7.79c-.13-3.87-.89-7.75-1.96-10.94l-5.7-.09h0Z"/>
                <path class="cls-18" d="m212.75,176.47c.09,0,.64-1.45,1.11-3.23s.77-3.28.68-3.32c-.09,0-.51,1.45-.94,3.23-.47,1.83-.94,3.28-.85,3.32Z"/>
                <path class="cls-22" d="m209.01,167.66c-1.49,1.32-.81,1.92-1.32,4.34-.77,3.53-3.19,3.15-3.49,2.26-.3-.89.89-6.17.89-6.17.94-3.57.3-7.32,3.32-10.43,1.7,2.13.6,6.13.6,10Z"/>
              </g>
            </g>
          </g>
          <g>
            <path class="cls-17" d="m203.9,153.07c-1.02-6.43-4.98-11.02-5.92-16.43-.17-1.02-1.45-10.81.68-20.77-.04-.09-.04-.17-.09-.26,1.57-2.89,1.66-6.68-.09-10.13-.21-.38-.38-.77-.64-1.11.94-4.81,2.94-9.75,3.87-15.36-.55-.3-1.19-.55-2.09-.64-6.3,1.45-30.6,1.36-35.11-.04-1.23,0-2.43-.04-3.19.38.98,5.11,2.21,10.9,2.94,15.87-.17.3-.34.6-.51.89-1.79,3.53-1.62,7.49.09,10.38h0c2.17,8.21,1.4,18.64.85,19.53-3.62,5.79-3.83,10.68-5.66,17.49-1.06,4.04-4.6,31.88-4.6,37.88,7.02,5.49,50.22,6.17,56.94-1.74.04-5.96-6.81-31.83-7.49-35.96h0Z"/>
            <path class="cls-36" d="m210.47,97.26c-2.09-3.02-2.64-4.85-8.72-8.04-1.23-.64-2.47-.77-3.87-.6-7.41.98-25.28.81-32.13-.09-1.53-.21-3.75-.17-5.11.51-6.17,3.28-7.15,5.96-8.98,9.58,1.36,3.87,7.36,4.68,9.28,11.96,2.17,8.21-.72,19.15,4.17,22.3,0,1.11-.77,2.77-1.32,3.66-2.77,4.64-5.4,8.94-6.38,16.17,8.68,5.75,40.6,5.19,47.88-.26-.94-4.85-4.26-11.19-7.06-15.79-.55-.89-.72-2.3-.72-3.4,5.4-2.3,2.21-12.81,4.3-22.77,1.02-4.85,6.17-9.02,8.68-13.24h0Z"/>
            <path class="cls-15" d="m164.23,136.38l33.75.04s-.04-.26-.04-.3c-.09-.38-.13-1.49-.34-3.11l-32.39-.04s-.09,1.28-.38,2.34c0,0-.6.98-.6,1.06Z"/>
            <path class="cls-37" d="m164.23,136.38l33.75.04s-.04-.26-.04-.3c-.09-.38-.13-1.49-.34-3.11l-32.39-.04s-.09,1.28-.38,2.34c0,0-.6.98-.6,1.06Z"/>
          </g>
          <path class="cls-28" d="m193.73,60.63c0-.17-.09-.26-.09-.26-.3-.21-1.36-.6-1.36-.6-1.7-.72-4.47-.72-4.47-.72-2.68,0-5.11,1.36-5.11,1.36-.34.17-1.19.21-1.32.21-.17,0-.98-.04-1.32-.21,0,0-2.43-1.36-5.11-1.36,0,0-2.77,0-4.43.72,0,0-1.06.43-1.36.6,0,0-.09.04-.09.26,0,0-.04.43.09.51l.21.34.13.17.6,1.79s.6,2.04,2.34,3.02c0,0,1.11.68,2.64.64,0,0,1.74.04,3.19-1.11,0,0,1.11-.94,1.62-2.3l.51-1.32s.13-.72.94-.72.94.72.94.72l.51,1.32c.51,1.36,1.62,2.3,1.62,2.3,1.45,1.15,3.19,1.11,3.19,1.11,1.53.09,2.64-.64,2.64-.64,1.74-.98,2.34-3.02,2.34-3.02l.6-1.79.13-.17.21-.34c.21-.13.21-.55.21-.51h0Zm-13.92,1.36c-.3,2.6-2.21,4.85-4.77,4.72-3.06.09-4.64-2.68-4.68-5.28-.04-1.83,2.21-1.74,4.3-1.92,2.43,0,5.23.85,5.15,2.47h0Zm7.92,4.72c-2.55.13-4.47-2.13-4.77-4.72-.09-1.62,2.72-2.47,5.15-2.47,2.13.17,4.34.09,4.34,1.92-.09,2.64-1.66,5.4-4.72,5.28h0Z"/>
        </g>
        <g>
          <path class="cls-13" d="m107.03,50.68c.13-2,.13-4.04.09-6.09-.04-1.53.04-4-1.83-4.55-.68-.17-1.28-.34-1.83-.77-.51-.38-.94-.89-1.49-1.19-1.02-.55-2.38.09-3.45-.38-.43-.17-.72-.51-1.15-.72-1.19-.6-2.6.04-3.92.09-1.53.04-3.11-.68-4.6-.17-.94.34-1.7,1.19-2.68,1.32-.47.09-.98,0-1.45.13-.94.3-1.36,1.4-2.21,1.83-.43.21-.89.26-1.32.51-.47.3-.72.85-.89,1.4-1.19,3.4-1.02,7.02-.64,10.6.47,4.81,1.06,10.64,4.51,14.43,3.87,4.21,11.11,4,15.45.34,5.23-4.43,6.98-10.47,7.41-16.77h0Z"/>
          <path class="cls-31" d="m107.8,84.35l-14.17-6.55-13.07,6.55-16.26,9.11s5.11,10.38,8.17,20.81c1.74,5.96,2.77,10.17,4.26,14.85h33.79c1.49-4.68,2.51-8.89,4.26-14.85,3.06-10.43,8.17-20.81,8.17-20.81l-15.15-9.11h0Z"/>
          <circle class="cls-31" cx="93.67" cy="131.03" r="17.58"/>
          <g>
            <path class="cls-31" d="m101.16,84.47v.21c0,4.17-3.36,7.53-7.53,7.53s-7.53-3.36-7.49-7.53v-.21h0v-.09c.04-.64.13-1.23.3-1.79.04-.09.04-.17.09-.26l.34-1.83,1.06-5.87.13-.68h11.28l.21,1.11.13.85.3,1.66.85,4.81c.21.64.34,1.36.38,2.04l-.04.04h0Z"/>
            <path class="cls-31" d="m99.33,73.92c0,3.11-2.55,5.62-5.66,5.62s-5.62-2.51-5.62-5.66h0c0-.47.04-.94.17-1.36.6-2.47,2.85-4.3,5.49-4.3s5.11,2.04,5.53,4.68c.04.38.09.68.09,1.02h0Z"/>
            <path class="cls-30" d="m99.67,75.88c-2.09,2.89-5.45,4.6-9.02,4.6h-3.79l1.06-5.87.13-.68h0c0-.47.04-.94.17-1.36l11.02.43c.04.3.09.64.09.98l.21,1.11.13.81h0Z"/>
          </g>
          <circle class="cls-31" cx="83.37" cy="153.08" r="10.13"/>
          <circle class="cls-31" cx="103.62" cy="153.08" r="10.13"/>
          <g>
            <circle class="cls-14" cx="93.16" cy="70.17" r="5.66"/>
            <path class="cls-31" d="m106.22,54.56c0,.6-.04,1.15-.13,1.7,0,.13-.04.3-.04.43-.04.3-.09.55-.17.85-.04.13-.09.3-.09.43-.04.21-.09.38-.17.55,0,0-1.15,8.85-1.32,9.66-.51,2.64-5.02,8.64-9.62,9.75-.98.26-1.83.3-2.81,0-4.04-1.28-9.11-7.11-9.62-9.75-.17-.81-1.32-9.66-1.32-9.66h0c-.04-.17-.09-.3-.13-.47-.04-.13-.09-.3-.13-.43-.09-.3-.13-.64-.21-.94,0-.13-.04-.3-.04-.43-.13-.89-.13-1.83-.09-2.77.51-6.51,5.83-11.66,12.3-11.92,7.49-.34,13.58,5.62,13.58,12.98h0Z"/>
            <path class="cls-13" d="m82.98,56c-.09.04-.17-.13-.09-.21.43-.51,1.45-1.57,2.64-1.83,1.19-.26,3.02-.13,3.96-.04.47.04.85.47.85,1.02v.04c0,.43-.26.64-.47.72-.17.09-.34.09-.47.04-.68-.13-3.4-.55-3.87-.38-.47.09-1.92.47-2.55.64h0Z"/>
            <path class="cls-13" d="m102.9,56c.09.04.17-.13.09-.21-.43-.51-1.45-1.57-2.64-1.83-1.19-.26-3.02-.13-3.96-.04-.47.04-.85.47-.85,1.02v.04c0,.43.26.64.47.72.17.09.34.09.47.04.68-.13,3.4-.55,3.87-.38.51.09,1.92.47,2.55.64h0Z"/>
            <g>
              <ellipse class="cls-13" cx="87.28" cy="59.36" rx="1.19" ry="1.7"/>
              <path class="cls-13" d="m88.52,58.34c-.98-.51-1.92-.6-2.89-.13.64-1.06,2.34-.98,2.89.13h0Z"/>
              <ellipse class="cls-13" cx="99.33" cy="59.36" rx="1.19" ry="1.7"/>
              <path class="cls-13" d="m98.13,58.34c.55-1.06,2.26-1.19,2.89-.13-1.02-.47-1.92-.43-2.89.13h0Z"/>
            </g>
            <path class="cls-15" d="m89.03,68.3s1.28,1.66,3.32,2.13c.72.17,1.45.17,2.13,0,2.04-.47,3.32-2.17,3.32-2.17h-.04s-2.55.04-4.38.04c-1.79.04-4.38,0-4.34,0h0Z"/>
            <path class="cls-31" d="m105.62,58.34s4.64-1.19,3.62,3.06c-1.23,5.11-4.85,4.51-4.85,4.51l1.23-7.58h0Z"/>
            <path class="cls-31" d="m81.41,58.47s-4.98-1.32-3.96,2.98c1.23,5.11,4.77,4.55,4.77,4.55l-.81-7.53h0Z"/>
            <path class="cls-5" d="m95.37,64.81s-1.45,1.4-2.09,1.4-2.13-1.4-2.13-1.4"/>
          </g>
          <g>
            <path class="cls-31" d="m62.51,97.58s-.85,9.11-.17,20.26c.34,5.83-1.06,12.17-1.83,17.62-.47,3.49,2.6,7.28,6.6,7.02,0,0,5.15,0,6.04-5.87.43-2.77-.26-6.04.21-9.28,1.92-12.77,4.94-27.2,4.94-27.2l-15.79-2.55h0Z"/>
            <path class="cls-31" d="m69.36,152.61c-1.57,4.21-4.89,19.92-4.89,19.92,0,.04-.89,3.19-.89,3.23l-6.55-1.06s.13-3.7.43-5.75c.09-.55.17-1.19.26-1.87h0v-.09c.43-3.15.89-7.45,1.28-12,.51-6.68.64-14.56,1.66-20.34l12.51,2c.3,2.09-.81,8.04-3.79,15.96h0Z"/>
            <circle class="cls-31" cx="70.3" cy="99.07" r="8"/>
            <circle class="cls-31" cx="66.85" cy="136.14" r="6.34"/>
            <g id="Layer_2-4" data-name="Layer 2-4">
              <g id="Scene1_2-3" data-name="Scene1 2-3">
                <g id="Hand-3">
                  <circle class="cls-31" cx="60.77" cy="173.98" r="3.36"/>
                </g>
              </g>
            </g>
            <g>
              <path class="cls-32" d="m58.85,187.21c2.04.6,4.81-1.11,4.89,1.45-1.7.51-4.47.77-6.77-.09l1.87-1.36h0Z"/>
              <path class="cls-32" d="m59.79,188.96c2.55,1.02,5.75-.81,5.62,2.47-2.26.47-5.32.43-8.09-.94l2.47-1.53h0Z"/>
              <path class="cls-30" d="m60.98,190.32c2.47,1.19,6.51-.51,6.09,2.77-2.3.34-6,.13-8.72-1.45l2.64-1.32Z"/>
              <path class="cls-31" d="m62.9,174.57l-.47,9.96c-1.62,1.79-2,4.13-.89,7.15,2.81,1.45,5.79,1.53,5.15,3.75-2.3.21-5.66-.43-8.26-2.09l-3.32-7.75c.13-3.87.85-7.7,1.96-10.9l5.83-.13h0Z"/>
              <path class="cls-30" d="m58.43,193.3c-.09,0-.64-1.45-1.11-3.23s-.77-3.28-.68-3.32c.09,0,.47,1.45.94,3.23.47,1.79.89,3.32.85,3.32h0Z"/>
              <path class="cls-31" d="m62.3,184.53c1.49,1.32.81,1.92,1.32,4.34.77,3.49,3.19,3.15,3.49,2.26.3-.89-.89-6.13-.89-6.13-.94-3.53-.26-7.32-3.28-10.43-1.79,2.09-.68,6.09-.64,9.96h0Z"/>
            </g>
          </g>
          <g>
            <path class="cls-31" d="m125.2,97.58s.85,9.11.17,20.26c-.34,5.83,1.06,12.17,1.83,17.62.47,3.49-2.6,7.28-6.6,7.02,0,0-5.15,0-6.04-5.87-.43-2.77.26-6.04-.21-9.28-1.92-12.77-4.94-27.2-4.94-27.2l15.79-2.55h0Z"/>
            <path class="cls-31" d="m118.35,152.61c1.57,4.21,4.89,19.92,4.89,19.92,0,.04.89,3.19.89,3.23l6.55-1.06s-.13-3.7-.43-5.75c-.09-.55-.17-1.19-.26-1.87h0v-.09c-.43-3.15-.89-7.45-1.28-12-.51-6.68-.64-14.56-1.66-20.34l-12.51,2c-.3,2.09.81,8.04,3.79,15.96h0Z"/>
            <circle class="cls-31" cx="117.41" cy="99.07" r="8"/>
            <circle class="cls-31" cx="120.86" cy="136.14" r="6.34"/>
            <g id="Layer_2-5" data-name="Layer 2-5">
              <g id="Scene1_2-4" data-name="Scene1 2-4">
                <g id="Hand-4">
                  <circle class="cls-31" cx="126.95" cy="173.98" r="3.36"/>
                </g>
              </g>
            </g>
            <g>
              <path class="cls-32" d="m128.86,187.21c-2.04.6-4.81-1.11-4.89,1.45,1.7.51,4.47.77,6.77-.09l-1.87-1.36h0Z"/>
              <path class="cls-32" d="m127.93,188.96c-2.55,1.02-5.75-.81-5.62,2.47,2.26.47,5.32.43,8.09-.94l-2.47-1.53h0Z"/>
              <path class="cls-30" d="m126.73,190.32c-2.47,1.19-6.51-.51-6.09,2.77,2.3.34,6,.13,8.72-1.45l-2.64-1.32Z"/>
              <path class="cls-31" d="m124.82,174.57l.47,9.96c1.62,1.79,2,4.13.89,7.15-2.81,1.45-5.79,1.53-5.15,3.75,2.3.21,5.66-.43,8.26-2.09l3.32-7.75c-.13-3.87-.85-7.7-1.96-10.9l-5.83-.13h0Z"/>
              <path class="cls-30" d="m129.29,193.3c.09,0,.64-1.45,1.11-3.23.47-1.79.77-3.28.68-3.32-.09,0-.47,1.45-.94,3.23-.47,1.79-.89,3.32-.85,3.32h0Z"/>
              <path class="cls-31" d="m125.41,184.53c-1.49,1.32-.81,1.92-1.32,4.34-.77,3.49-3.19,3.15-3.49,2.26-.3-.89.89-6.13.89-6.13.94-3.53.26-7.32,3.28-10.43,1.79,2.09.68,6.09.64,9.96h0Z"/>
            </g>
          </g>
          <path class="cls-13" d="m83.11,48.81c-.68.38-1.45.26-1.45-.77,0-1.28,1.02-3.06,1.92-3.87,1.49-1.36,3.4-2.13,5.32-2.47,2.72-.47,6.09-.68,8.81-.04,2.13.47,4.09,1.7,5.66,3.28.47.47,1.53,1.19,1.79,1.79.34.81-.47,1.83-1.28,1.83-1.02,0-2-1.06-2.85-.6-.17.09-.34.26-.47.34-1.15.72-2.64-1.06-3.92-.6-.43.17-.72.6-1.19.64-.68.13-1.28-.55-2-.64-.77-.09-1.45.51-2.21.55-1.19.09-2.34-1.28-3.45-.77-.47.21-.77.72-1.28.85-.38.09-.81-.09-1.19-.17-.94-.13-1.45.21-2.21.64h0Z"/>
          <path class="cls-10" d="m79.92,45.45c.17-1.4.51-2.81.98-4.13.21-.6.51-1.23,1.15-1.53.17-.09.34-.09.55-.13s.38-.09.51-.13c.3-.13.47-.43.64-.77.04-.09.13-.21.17-.3.68-1.02,1.96-1.62,3.19-1.49.09,0,.13,0,.21.04.21.04.43.04.64,0,.26-.09.51-.3.72-.51.09-.09.13-.13.21-.17,1.06-.94,2.68-1.19,3.96-.6.51.26.98.6,1.4.94.64.51,1.23.98,2,1.06.89.13,1.74-.17,2.51-.51.3-.13.64-.3,1.02-.34,1.15-.13,2.13.77,2.6,1.32.17.21.34.43.47.64.43.55.81,1.11,1.36,1.45.13.09.26.17.43.26.26.17.55.3.77.51"/>
          <path class="cls-32" d="m84.39,46c.09-.26.26-.51.47-.77.21-.21.47-.38.77-.51.26-.13.6-.21.89-.21s.64.09.89.09h.38c.13-.04.26-.09.34-.13.21-.13.43-.34.64-.55.09-.09.21-.21.34-.3s.26-.17.43-.26c.17-.04.34-.09.51-.09s.34.04.47.04c.3.09.55.17.85.21.26.04.55,0,.81-.04.55-.09,1.11-.34,1.7-.47,1.19-.34,2.47-.13,3.45.51-1.06-.51-2.3-.6-3.36-.26-.55.17-1.11.43-1.7.55-.3.09-.64.09-.94.04-.34-.04-.6-.13-.89-.21-.26-.04-.55-.09-.77,0s-.43.26-.64.47-.43.43-.68.6c-.13.09-.3.13-.47.17s-.34,0-.47,0c-.3-.04-.6-.13-.85-.17-.26,0-.55.04-.81.13-.26.09-.51.21-.72.43s-.51.43-.64.72h0Z"/>
          <path class="cls-13" d="m81.79,48.68s.51,2.17.21,3.32c-.3,1.15-1.32,4.04-.38,4.81.98.77.26,2.98-.09,3.11,0,0,.13-.72-.55-1.4l-.6-.85s-1.28-7.45,1.4-8.98h0Z"/>
          <path class="cls-13" d="m104.6,48.26s-1.32.89-.85,3.23c.47,2.34,1.28,2.94,1.02,4.17-.26,1.23-.6,2.55.26,3.53,0,0,.09-.43.55-.89.51-.43,2.21-7.41-.98-10.04h0Z"/>
          <g>
            <path class="cls-13" d="m116.82,169.93h-46.73c.26-1.57.77-9.11,1.32-12.77l.09-.55c.13-.98.3-1.96.47-2.98l.17-1.02h42.73v.04c.21,1.53.47,3.06.68,4.55.55,3.7,1.06,11.24,1.28,12.73h0Z"/>
            <path class="cls-1" d="m109.46,157.93l.43,3.11c.34,2.51,1.92,4.72,4.17,5.87l1.11.55"/>
            <path class="cls-1" d="m77.32,157.93l-.43,3.11c-.34,2.51-1.92,4.72-4.17,5.87l-1.11.55"/>
          </g>
          <g>
            <g>
              <path class="cls-17" d="m60.21,97.75s-.94,10.21-.21,22.68c.38,6.55-1.19,13.66-2.04,19.75-.55,3.92,2.94,8.13,7.41,7.87,0,0,6.47.04,7.45-6.51.47-3.11,5.06-40.9,5.06-40.9l-17.66-2.89h0Z"/>
              <circle class="cls-17" cx="68.98" cy="99.37" r="8.94"/>
              <path class="cls-17" d="m58.21,138.44c-1.19,6.85-1.36,16.81-2.21,24.68-.85,8.04,0,9.36,0,9.36l8.34.21c2.43-6.55,2.55-6.85,3.96-12.34,2.47-9.7,4.85-16.43,4.47-18.94l-14.56-2.98h0Z"/>
              <circle class="cls-17" cx="65.32" cy="140.87" r="7.49"/>
              <path class="cls-19" d="m65.32,170.83c.04-.26-.09-.47-.34-.51l-9.28-1.02c-.17,0-.26.09-.26.26l.34,4.64,8.51,1.11,1.02-4.47h0Z"/>
            </g>
            <g>
              <path class="cls-17" d="m127.37,97.75s.94,10.21.21,22.68c-.38,6.55,1.19,13.66,2.04,19.75.55,3.92-2.94,8.13-7.41,7.87,0,0-6.47.04-7.45-6.51-.47-3.11-5.06-40.9-5.06-40.9l17.66-2.89h0Z"/>
              <circle class="cls-17" cx="118.61" cy="99.37" r="8.94"/>
              <path class="cls-17" d="m129.37,138.44c1.19,6.85,1.36,16.81,2.21,24.68.85,8.04,0,9.36,0,9.36l-8.34.21c-2.43-6.55-2.55-6.85-3.96-12.34-2.47-9.7-4.85-16.43-4.47-18.94l14.56-2.98h0Z"/>
              <circle class="cls-17" cx="122.27" cy="140.87" r="7.49"/>
              <path class="cls-19" d="m122.27,170.83c-.04-.26.09-.47.34-.51l9.28-1.02c.17,0,.26.09.26.26l-.34,4.64-8.51,1.11-1.02-4.47h0Z"/>
            </g>
            <path class="cls-17" d="m113.88,134.74c-.13,2.04-.17,3.57-.13,4.26.13,1.45,1.53,9.58,2.34,15.24.38,2.6-9.66,3.57-19.79,3.79-1.49.04-2.98.04-4.47,0h0c-10.38-.17-21.02-1.15-20.64-3.79.81-5.66,2.38-13.79,2.51-15.24.04-.64,0-2-.09-3.79h0c-.34-7.49-1.62-22.56-1.62-22.56.04-1.53-.09-3.15-.3-4.77-.43-2.98-1.15-5.96-1.96-8.6-1.32-4.38-2.85-7.79-3.19-8.55l-.09-.17,16.34-7.53h0l.47-.21c.38-.17.85-.13,1.23.13l6.72,6.04c1.4,1.28,3.53,1.28,4.94.04l7.15-6.21c.21-.17.47-.26.72-.26.17,0,.34.04.51.13l.55.26,15.7,7.75h0l.3.17s-1.7,3.57-3.19,8.38c-.81,2.64-1.57,5.66-2,8.68-.21,1.62-.34,3.19-.3,4.72.09,0-1.28,14.43-1.74,22.09h0Z"/>
          </g>
          <path class="cls-17" d="m105.11,82.99c-1.62,1.79-8.38,9.24-11.49,9.24-3.49,0-10.81-9.15-10.81-9.15h0l.47-.21c.38-.17.85-.13,1.23.13l6.72,6.04c1.4,1.28,3.53,1.28,4.94.04l7.15-6.21c.21-.17.47-.26.72-.26.17,0,.34.04.51.13l.55.26h0Z"/>
        </g>
        <rect class="cls-15" y="155.33" width="289.38" height="56.78"/>
        <g>
          <path class="cls-31" d="m16,143.91l-3.49,13.36,5.02.89s1.32-3.36,3.49-7.19"/>
          <circle class="cls-31" cx="14.89" cy="158.38" r="2.64"/>
        </g>
        <g id="Layer_2-9-2" data-name="Layer 2-9">
          <g id="Scene1_2-7-2" data-name="Scene1 2-7">
            <g id="Hand-7-2" data-name="Hand-7">
              <circle class="cls-31" cx="15.02" cy="158.3" r="2.64"/>
            </g>
          </g>
        </g>
        <g>
          <path class="cls-32" d="m13.79,168.09c1.62.51,3.87-.89,3.92,1.19-1.36.43-3.57.6-5.4-.09l1.49-1.11Z"/>
          <path class="cls-32" d="m14.55,169.45c2.04.81,4.6-.64,4.51,1.96-1.79.38-4.26.34-6.51-.77l2-1.19Z"/>
          <path class="cls-30" d="m15.49,170.6c1.96.94,5.19-.38,4.89,2.21-1.83.26-4.85.09-6.98-1.15l2.09-1.06h0Z"/>
          <path class="cls-31" d="m17.02,157.92l-.34,8c-1.28,1.45-1.62,3.32-.72,5.75,2.26,1.15,4.64,1.23,4.13,2.98-1.83.17-4.55-.34-6.64-1.7l-2.64-6.21c.09-3.11.72-6.17,1.57-8.77l4.64-.04h0Z"/>
          <path class="cls-30" d="m13.45,172.94s-.51-1.15-.89-2.6c-.34-1.45-.6-2.64-.55-2.64s.38,1.15.77,2.6c.34,1.45.72,2.64.68,2.64Z"/>
          <path class="cls-31" d="m16.55,165.92c1.19,1.06.64,1.53,1.06,3.49.6,2.81,2.55,2.51,2.81,1.83.26-.72-.72-4.94-.72-4.94-.77-2.85-.21-5.87-2.64-8.34-1.4,1.66-.55,4.85-.51,7.96h0Z"/>
        </g>
      </g>
    </g>
  </g>
</svg>