<?xml version="1.0" encoding="UTF-8"?>
<svg id="Layer_2" data-name="Layer 2" xmlns="http://www.w3.org/2000/svg" viewBox="0 0 196.38 156.1">
  <defs>
    <style>
      .cls-1 {
        stroke-linejoin: round;
      }

      .cls-1, .cls-2, .cls-3, .cls-4, .cls-5, .cls-6 {
        stroke-linecap: round;
      }

      .cls-1, .cls-2, .cls-4, .cls-5, .cls-6 {
        fill: none;
      }

      .cls-1, .cls-4 {
        stroke: #1a1a1a;
      }

      .cls-2 {
        stroke: #6d6c6f;
        stroke-width: .72px;
      }

      .cls-2, .cls-3, .cls-4, .cls-5, .cls-7, .cls-6 {
        stroke-miterlimit: 10;
      }

      .cls-3 {
        stroke-width: 1.04px;
      }

      .cls-3, .cls-8 {
        fill: #d9d9da;
      }

      .cls-3, .cls-6 {
        stroke: #a1a3a5;
      }

      .cls-9 {
        fill: #e9b69b;
      }

      .cls-10, .cls-7 {
        fill: #fff;
      }

      .cls-11 {
        fill: #f1f1f1;
      }

      .cls-12 {
        fill: #b5b5b7;
      }

      .cls-13 {
        fill: #919194;
      }

      .cls-14 {
        fill: #a6a6a9;
      }

      .cls-15 {
        fill: #d0d1d1;
      }

      .cls-16 {
        fill: #1a1a1a;
      }

      .cls-17 {
        fill: #545455;
      }

      .cls-18 {
        fill: #6d6c6f;
      }

      .cls-19 {
        fill: #808083;
      }

      .cls-20 {
        fill: gray;
      }

      .cls-21 {
        fill: #2e2a2b;
      }

      .cls-5 {
        stroke: #909294;
      }

      .cls-7 {
        stroke: #ba0c2f;
        stroke-width: 1.5px;
      }

      .cls-6 {
        stroke-width: 1.14px;
      }
    </style>
  </defs>
  <g id="Content">
    <g>
      <rect class="cls-11" x="0" width="196.38" height="156.1" rx="32.49" ry="32.49"/>
      <g>
        <g>
          <g>
            <path class="cls-12" d="m112.94,36.41c0-9.2-7.6-16.62-16.81-16.21-8.04.36-14.64,6.77-15.29,14.86-.18,2.2.08,4.31.7,6.27h0s1.44,11.01,1.63,12.02c.61,3.28,9.32,10.64,11.95,12.13,1.08.61,2.41.61,3.49,0,2.63-1.49,11.34-8.85,11.95-12.13.19-1,1.63-12.02,1.63-12.02h0c.49-1.55.75-3.2.75-4.92Z"/>
            <path class="cls-17" d="m84.02,39.18c-.15.04-.25-.14-.15-.26.62-.65,2.04-1.97,3.76-2.28,1.68-.31,4.33-.17,5.63-.07.67.05,1.2.6,1.21,1.27,0,0,0,.02,0,.03,0,.53-.34.77-.64.88-.22.08-.45.09-.68.06-.95-.14-4.85-.68-5.55-.49-.61.16-2.64.64-3.58.87Z"/>
            <path class="cls-17" d="m109.73,39.18c.15.04.25-.14.15-.26-.62-.65-2.04-1.97-3.76-2.28s-4.33-.17-5.63-.07c-.67.05-1.2.6-1.21,1.27,0,0,0,.02,0,.03,0,.53.34.77.64.88.22.08.45.09.68.06.95-.14,4.85-.68,5.55-.49.61.16,2.64.64,3.58.87Z"/>
            <g>
              <ellipse class="cls-16" cx="89.37" cy="42.41" rx="1.5" ry="2.14"/>
              <path class="cls-16" d="m90.88,41.09c-1.68-.16-2.68-.44-4.28-.19.73-1.79,3.57-1.46,4.28.19h0Z"/>
              <ellipse class="cls-16" cx="104.35" cy="42.41" rx="1.5" ry="2.14"/>
              <path class="cls-16" d="m107.12,41.09c-1.68-.16-2.68-.44-4.28-.19.73-1.79,3.57-1.46,4.28.19h0Z"/>
            </g>
            <path class="cls-12" d="m112.18,41.09s5.77-1.48,4.48,3.84c-1.54,6.38-6.05,5.62-6.05,5.62l1.57-9.46Z"/>
            <path class="cls-12" d="m82.02,41.24s-6.2-1.64-4.91,3.68c1.54,6.38,5.96,5.65,5.96,5.65l-1.05-9.33Z"/>
            <path class="cls-21" d="m82.79,39.64v1.62l.03.05.12.1.33.34c.22.19.35.98.35.98l.37,1.65c.24.92.46,1.19.46,1.19.26.42.89.54.89.54,1.78.52,4.4.46,4.4.46,2.13,0,3.67-.36,3.67-.36.64-.15.94-.73.94-.73.09-.13.56-1.02.56-1.02.36-.75.86-2.27.86-2.27.08-.23.23-.4.23-.4.16-.25.9-.22.9-.22,0,0,.74-.03.9.22,0,0,.15.18.23.4,0,0,.5,1.51.86,2.27,0,0,.47.89.56,1.02,0,0,.3.57.94.73,0,0,1.54.37,3.67.36,0,0,2.61.06,4.39-.46,0,0,.63-.12.89-.54,0,0,.23-.26.46-1.19l.36-1.65s.14-.79.35-.98l.33-.34.12-.1.03-.05v-1.62s0-.16-.35-.19l-3.42-.22s-3.02-.07-4.55.06c0,0-2.57.25-3.23.33,0,0-.9.15-1.42.14l-1.13.02-1.14-.02c-.52,0-1.42-.14-1.42-.14-.66-.08-3.24-.33-3.24-.33-1.52-.14-4.55-.06-4.55-.06l-3.43.22c-.36.04-.35.19-.35.19Zm16.19,1.01s.18-.34,1.07-.51c0,0,4.81-1.02,8.95-.11,0,0,.46.06.65.41,0,0,.11.12.1.42,0,0-.05,1.89-.18,2.57,0,0-.24,1.32-.44,1.69,0,0-.14.33-.28.43,0,0-.19.18-.81.31,0,0-1,.27-2.07.33,0,0-3.01.26-5.17-.26,0,0-.59-.2-.76-.42,0,0-.31-.36-.55-.97,0,0-.65-1.83-.75-2.66,0,0-.14-.83.23-1.21Zm-14.92.2c0-.29.1-.42.1-.42.19-.35.65-.41.65-.41,4.15-.91,8.96.11,8.96.11.89.18,1.07.51,1.07.51.37.38.23,1.21.23,1.21-.1.84-.75,2.66-.75,2.66-.23.61-.55.97-.55.97-.17.22-.76.42-.76.42-2.16.51-5.18.26-5.18.26-1.07-.05-2.07-.33-2.07-.33-.62-.14-.81-.31-.81-.31-.14-.1-.28-.43-.28-.43-.2-.36-.44-1.69-.44-1.69-.14-.68-.18-2.57-.18-2.57Z"/>
          </g>
          <path class="cls-16" d="m111.03,49.94c-.16,2.02-1.24,3.84-2.29,5.57-.77,1.27-1.59,2.59-2.88,3.31-1.04.58-4.35,1.74-5.99.57-1.68-1.21-1.75-2.93-1.75-2.93h-2.45s-.07,1.72-1.75,2.93c-1.63,1.18-4.95.02-5.99-.57-1.29-.72-2.12-2.05-2.88-3.31-1.05-1.73-2.13-3.55-2.29-5.57-.69,4.32-.85,10.88.36,13.03l.18-.63c.22,1.44.92,2.81,1.96,3.83,0-.24,0-.48,0-.72.79,1.4,1.44,2.78,2.92,3.8-.01-.3-.03-.6-.04-.9.7,1.18,1.62,2.06,2.95,2.96,0-.15,0-.29,0-.44.51.71,1.17,1.49,2.16,2.06.06-.18-.04-.35.02-.53.83,1.06,3.65,2.28,3.65,2.28,0,0,2.82-1.22,3.65-2.28.06.18-.04.35.02.53.99-.57,1.64-1.35,2.16-2.06,0,.15,0,.29,0,.44,1.33-.9,2.24-1.78,2.95-2.96-.01.3-.03.6-.04.9,1.48-1.02,2.13-2.4,2.92-3.8,0,.24,0,.48,0,.72,1.04-1.02,1.74-2.39,1.96-3.83l.18.63c1.21-2.15,1.04-8.71.36-13.03Z"/>
          <path class="cls-10" d="m91.56,53.95s1.55,2.05,4.03,2.6c.86.19,1.75.19,2.6,0,2.48-.55,4.06-2.64,4.06-2.64-.07.02,0,0-.07.01,0,0-3.1.07-5.32.06s-5.35-.04-5.31-.03.04.01,0,0Z"/>
          <path class="cls-16" d="m107.12,50.85c-.83.42-1.82.39-2.72.17-.9-.22-1.75-.62-2.63-.91-.88-.29-1.83-.48-2.74-.26-.59.14-1.13.45-1.64.77-.19.12-.39.27-.54.44-.15-.17-.35-.32-.54-.44-.51-.32-1.05-.63-1.64-.77-.9-.22-1.85-.03-2.74.26-.88.29-1.73.69-2.63.91-.9.22-1.89.25-2.72-.17.3.83,1.23,1.39,2.1,1.27-.26.14-.55.21-.84.2.65.48,1.49.68,2.28.56-.17.19-.4.33-.64.39.75.33,1.65.26,2.34-.16-.03.21-.2.39-.41.43,1.63.24,3.33-.05,4.78-.83.24-.13.49-.3.66-.51.17.21.42.38.66.51,1.45.78,3.15,1.07,4.78.83-.21-.04-.38-.22-.41-.43.69.43,1.6.49,2.34.16-.25-.06-.48-.19-.64-.39.8.12,1.64-.08,2.28-.56-.29.01-.59-.06-.84-.2.88.12,1.8-.44,2.1-1.27Z"/>
          <path class="cls-6" d="m99.44,49.16s-1.79,1.73-2.58,1.73-2.62-1.73-2.62-1.73"/>
          <line class="cls-6" x1="95.92" y1="42.89" x2="95.31" y2="48.07"/>
        </g>
        <g>
          <path class="cls-16" d="m33.75,60.2c1.64.11,3.32.1,4.96-.1.55-.07,1.14-.11,1.65-.34.13-.06,1.42-1,1.25-1.11.47.3,1.2.53,1.74.33.57-.21.75-.84,1.39-.98.51-.11.95.08,1.5-.08.73-.22,1.31-.54,2.1-.56.85-.02,1.84.14,2.42-.48.6-.64.5-1.92,1.34-2.18.4-.13.86.06,1.24-.12.91-.42.14-2,.81-2.74.26-.29.68-.38.96-.63.83-.75.05-2.17.42-3.22.22-.64.85-1.06,1.11-1.69.56-1.38-.91-3.02-.27-4.36.19-.39.53-.69.77-1.04.47-.68.58-1.59.28-2.36-.33-.86-1.13-1.52-1.26-2.43-.07-.49.06-.98.08-1.48.07-1.26-.6-2.53-1.68-3.18-.85-.52-2.02-.79-2.32-1.74-.07-.22-.08-.45-.13-.67-.24-.95-1.24-1.45-2.13-1.86-.48-.22-.97-.45-1.36-.8-.27-.25-.49-.55-.75-.82-1.13-1.15-3.1-1.34-4.43-.43-.47-.69-.78-1.45-1.34-2.07-.54-.61-1.13-1.19-1.84-1.61-1.03-.61-2.37-.85-3.43-.28-.32.17-.6.4-.94.52-1.42.51-3.04-1.14-4.37-.45-.29.15-.52.4-.79.59-.77.52-1.76.46-2.68.52-.92.06-1.97.37-2.32,1.22-.16.39-.14.83-.29,1.22-.59,1.52-3.2,1.41-3.72,2.96-.18.56-.02,1.18-.21,1.74-.45,1.36-2.65,1.6-2.88,3.01-.11.7.34,1.42.14,2.1-.28.93-1.6,1.16-2.03,2.03-.52,1.05.52,2.24.45,3.42-.07,1.22-1.32,2.17-1.24,3.39.09,1.31,1.63,2.07,1.93,3.35.16.69-.07,1.4-.18,2.1-.11.7-.04,1.53.53,1.95.3.22.68.28,1.03.42.69.27,1.23.88,1.43,1.6.12.44.13.92.37,1.31.64,1.01,2.22.56,3.32,1.03.71.31,1.15.98,1.7,1.49.64.59,1.21,1.24,1.83,1.85.79.76,1.53.9,2.54,1.13,1.1.25,2.16.49,3.3.57Z"/>
          <g>
            <path class="cls-19" d="m52.17,46.05c0,.69-.05,1.37-.14,2.04-.02.17-.05.34-.07.51-.06.34-.12.67-.2,1-.04.17-.08.35-.13.51-.06.23-.12.46-.19.68,0,0-1.39,10.61-1.57,11.57-.59,3.16-6,10.35-11.51,11.68-1.17.28-2.22.36-3.36,0-4.86-1.52-10.92-8.52-11.51-11.68-.18-.96-1.57-11.57-1.57-11.57h0c-.06-.18-.11-.37-.16-.56-.05-.17-.09-.34-.13-.5-.09-.38-.17-.76-.23-1.15-.03-.17-.05-.34-.07-.51-.14-1.07-.17-2.18-.08-3.32.63-7.8,6.99-13.97,14.73-14.31,8.87-.4,16.19,6.74,16.19,15.61Z"/>
            <path class="cls-16" d="m24.3,47.79c-.13.03-.21-.14-.12-.25.52-.63,1.71-1.9,3.16-2.2s3.63-.16,4.73-.06c.56.05,1.01.58,1.01,1.22,0,0,0,.02,0,.03,0,.51-.28.74-.54.85-.18.07-.38.09-.58.06-.8-.13-4.07-.65-4.66-.48-.51.15-2.22.62-3,.83Z"/>
            <path class="cls-16" d="m48.21,47.79c.13.03.21-.14.12-.25-.52-.63-1.71-1.9-3.16-2.2s-3.63-.16-4.73-.06c-.56.05-1.01.58-1.01,1.22,0,0,0,.02,0,.03,0,.51.28.74.54.85.18.07.38.09.58.06.8-.13,4.07-.65,4.66-.48.51.15,2.22.62,3,.83Z"/>
            <g>
              <ellipse class="cls-16" cx="29.48" cy="51.83" rx="1.45" ry="2.06"/>
              <path class="cls-16" d="m30.93,50.56c-1.44-.28-2.12-.32-3.49-.18.48-1.65,3.17-1.46,3.49.18h0Z"/>
              <ellipse class="cls-16" cx="43.9" cy="51.83" rx="1.45" ry="2.06"/>
              <path class="cls-16" d="m42.45,50.56c.32-1.64,3-1.83,3.49-.18-1.37-.14-2.04-.1-3.49.18h0Z"/>
            </g>
            <path class="cls-10" d="m31.54,62.52s1.53,2.02,3.97,2.56c.85.19,1.72.19,2.57,0,2.44-.54,4-2.6,4-2.6-.06.02,0,0-.07.01,0,0-3.05.07-5.24.06-2.14,0-5.27-.04-5.23-.03s.04.01,0,0Z"/>
            <path class="cls-19" d="m51.44,50.56s5.56-1.42,4.32,3.7c-1.49,6.14-5.83,5.42-5.83,5.42l1.51-9.11Z"/>
            <path class="cls-19" d="m22.4,50.71s-5.97-1.58-4.73,3.55c1.49,6.14,5.74,5.44,5.74,5.44l-1.01-8.99Z"/>
            <path class="cls-4" d="m39.17,58.33s-1.72,1.66-2.48,1.66-2.53-1.66-2.53-1.66"/>
          </g>
          <path class="cls-16" d="m24.45,39.15c-.84.47-1.74.32-1.74-.92,0-1.52,1.23-3.66,2.29-4.63,1.8-1.64,4.07-2.55,6.4-2.97,3.25-.54,7.31-.8,10.56-.07,2.53.57,4.89,2.06,6.8,3.9.57.55,1.82,1.44,2.12,2.16.41.95-.55,2.21-1.54,2.2-1.2,0-2.38-1.28-3.43-.7-.21.12-.38.3-.59.43-1.4.86-3.16-1.3-4.69-.7-.51.2-.89.69-1.43.79-.84.16-1.56-.67-2.41-.78-.91-.11-1.72.62-2.63.68-1.45.09-2.81-1.52-4.13-.93-.56.25-.93.85-1.53,1-.47.11-.94-.08-1.41-.18-1.13-.24-1.76.19-2.64.69,0,0-.01,0-.02,0Z"/>
          <path class="cls-1" d="m27.55,24.72c1.16-1.25,2.46-2.36,3.88-3.31.64-.43,1.4-.84,2.19-.65.22.05.42.15.62.24.21.1.4.2.61.23.38.06.76-.1,1.16-.27.13-.05.26-.11.39-.16,1.38-.5,3.05-.18,4.14.81.06.05.12.11.18.17.19.18.37.36.59.45.32.13.68.08,1.07.03.11-.01.22-.03.32-.04,1.69-.17,3.44.75,4.27,2.23.33.6.53,1.27.71,1.92.27.93.52,1.81,1.16,2.45.78.78,1.81,1.07,2.81,1.27.4.08.86.17,1.25.39,1.22.67,1.5,2.24,1.56,3.12.02.32.03.64.03.95.01.84.03,1.63.3,2.37.07.18.15.35.23.53.16.33.32.67.38,1.06"/>
          <path class="cls-1" d="m20.19,31.26c.66-.88.8-1.94.86-2.96.02-.41.05-.87.21-1.3.49-1.31,2-1.8,2.86-1.98.31-.07.63-.12.94-.17.83-.13,1.61-.26,2.3-.64.16-.09.32-.19.49-.3.31-.2.62-.41.99-.53"/>
          <path class="cls-16" d="m22.88,38.99s.64,2.59.27,3.97c-.37,1.38-1.6,4.88-.43,5.78,1.17.91.31,3.56-.12,3.71,0,0,.13-.85-.67-1.67l-.72-1.02s-1.52-8.96,1.67-10.78Z"/>
          <path class="cls-16" d="m50.24,38.5s-1.58,1.06-1,3.9,1.53,3.5,1.24,4.99c-.29,1.5-.7,3.05.29,4.23,0,0,.11-.5.68-1.06.56-.56,2.61-8.92-1.2-12.06Z"/>
        </g>
        <g>
          <path class="cls-16" d="m180.38,60.17c1.53-2.17-.12-3.83-.12-3.83,1.38-2.21-.72-3.69-.72-3.69,1.76-2.3-.26-4.95-.26-4.95,1.09-2.76-1.59-4.79-1.59-4.79.1-4.05-2.99-7.88-2.99-7.88l-9.81-9.3h-10.38l-9.22,9.3s-2.9,3.83-2.81,7.88c0,0-2.53,2.03-1.5,4.79,0,0-1.9,2.65-.25,4.95,0,0-1.97,1.48-.67,3.69,0,0-1.54,1.66-.11,3.83,0,0-1.75,1.6.25,3.56,0,0-.87,2.62.69,3.5,0,0-.56,2.55,2,2.63,0,0,.69,2.7,2.4,2.11,0,0,1.4,1.53,3.15.8,0,0,1.23,1.09,2.99.36,0,0,1.28.77,2.54-.4,0,0,.49.58,1.47.58s1.4-.56,1.4-.56c0,0,.17.58,1.37.58s1.43-.59,1.43-.59c0,0,.4.57,1.59.57s1.54-.55,1.54-.55c0,0,.29.49,1.34.49s1.43-.6,1.43-.6c1.34,1.17,2.64.48,2.64.48,1.86.73,3.18-.36,3.18-.36,1.86.73,3.35-.8,3.35-.8,1.82.58,2.55-2.11,2.55-2.11,2.72-.07,2.12-2.63,2.12-2.63,1.66-.88.73-3.5.73-3.5,2.12-1.97.27-3.56.27-3.56Z"/>
          <ellipse class="cls-16" cx="159.82" cy="39.06" rx="15.65" ry="16.31"/>
          <g>
            <path class="cls-13" d="m173.78,42.76c0,1.44-.23,2.82-.64,4.12,0,0-1.14,7.15-1.32,8.17,0,.02,0,.03,0,.04-.39,2.07-.95,3.71-2.1,5.63h0c-.37.63-.81,1.28-1.32,1.99-.79,1.09-1.14,1.54-2.19,2.63-.94.97-2.12,1.99-4.48,2.43-.42.08-1.44.12-2.32.07-.25,0-.47-.03-.67-.07-2.36-.44-3.55-1.46-4.48-2.43-1.05-1.09-1.4-1.54-2.19-2.63-2.09-2.9-2.91-4.88-3.42-7.63-.16-.84-1.38-8.22-1.38-8.22h0c-.41-1.3-.64-2.68-.64-4.12,0-7.5,6.08-13.58,13.58-13.58,4.4,0,8.3,2.09,10.78,5.32.3.39.58.8.84,1.22,1.25,2.05,1.96,4.46,1.96,7.03Z"/>
            <path class="cls-13" d="m173.14,46.88s4.88-1.25,3.79,3.24c-1.3,5.39-5.11,4.75-5.11,4.75l1.32-8Z"/>
            <path class="cls-16" d="m149.34,45.27c-.13.03-.21-.12-.12-.22.52-.55,1.72-1.67,3.18-1.93s3.65-.14,4.76-.06c.57.04,1.02.51,1.02,1.07,0,0,0,.02,0,.02,0,.45-.29.65-.54.74-.18.07-.38.08-.58.05-.8-.12-4.1-.57-4.69-.42-.52.13-2.23.54-3.02.73Z"/>
            <path class="cls-16" d="m171.06,45.27c.13.03.21-.12.12-.22-.52-.55-1.72-1.67-3.18-1.93s-3.65-.14-4.76-.06c-.57.04-1.02.51-1.02,1.07,0,0,0,.02,0,.02,0,.45.29.65.54.74.18.07.38.08.58.05.8-.12,4.1-.57,4.69-.42.52.13,2.23.54,3.02.73Z"/>
            <path class="cls-13" d="m147.24,46.88s-4.83-1.25-3.74,3.24c1.3,5.39,5.11,4.75,5.11,4.75l-1.37-8Z"/>
            <g>
              <ellipse class="cls-16" cx="153.83" cy="48.09" rx="1.28" ry="1.81"/>
              <path class="cls-16" d="m155.11,46.96c-1.44-.11-2.27-.35-3.64-.16.61-1.54,3.05-1.26,3.64.16h0Z"/>
              <ellipse class="cls-16" cx="166.55" cy="48.09" rx="1.28" ry="1.81"/>
              <path class="cls-16" d="m168.91,46.96c-1.44-.11-2.27-.35-3.64-.16.61-1.54,3.05-1.26,3.64.16h0Z"/>
            </g>
            <g>
              <path class="cls-10" d="m156.27,58.51h7.54s-1.42,2.52-3.72,2.52-3.82-2.52-3.82-2.52Z"/>
              <path class="cls-18" d="m160.09,57.81c-1.27-1.32-4.87.71-4.87.71,0,0,3.07.84,4.87.84s4.87-.84,4.87-.84c0,0-3.59-2.03-4.87-.71Z"/>
              <path class="cls-18" d="m164.96,58.51l-1.48.35-1.45.84c-1.2.7-2.68.7-3.88.02l-1.56-.88-1.37-.33c.94,2.37,2.67,3.4,3.8,3.83.69.26,1.45.26,2.14,0,1.12-.43,2.85-1.46,3.79-3.83Z"/>
            </g>
            <path class="cls-2" d="m162.69,53.6s-.15.4-1.86.57c0,0-.03.01-.09.03-.43.14-.96.14-1.39,0-.06-.02-.09-.03-.09-.03-1.72-.16-1.86-.57-1.86-.57"/>
          </g>
          <path class="cls-16" d="m160.84,28.36c.04-.06-4.88.33-4.86.37-2.7-.15-14.56,5.12-8.74,20.25,0,0,.91-5.79,1.22-6.36.31-.57-.95-.5-.95-.5,0,0,1.02-2.11,1.74-2.41.72-.3-.43-1.26-.43-1.26,0,0,1.52-1.38,2.06-1.51,0,0,.21-.38.18-.8s-.3-.73-.3-.73c0,0,1.78-.25,2.14-.58,0,0,.52-.28-.49-.76,0,0,1.11.41,2.32.07,1.21-.34-.11-1.21-.11-1.21,0,0,1.77.67,2.13.47.21-.12.34-.75.4-1.25.41.57,1.05,1.25,1.79,1.28.73.02,1.52-.78,2.07-1.47.11.56.28,1.26.52,1.38.4.21,2.27-.68,2.27-.68,0,0-1.36,1.09-.04,1.39s2.5-.23,2.5-.23c-1.05.61-.48.9-.48.9.41.35,2.35.53,2.35.53,0,0-.27.36-.27.85,0,.49.25.91.25.91.59.11,2.33,1.6,2.33,1.6,0,0-1.18,1.17-.38,1.47.8.3,2.05,2.65,2.05,2.65,0,0-1.36,0-.99.64.37.63,2.03,5.61,2.03,5.61,5.11-17.3-9.01-20.97-12.3-20.62Z"/>
          <path class="cls-18" d="m144.23,38.66s4.05-11.05,15.45-11.05,15.66,10.1,15.66,10.1c0,0-4.02-7.64-15.55-7.64s-15.55,8.6-15.55,8.6Z"/>
        </g>
        <g>
          <g>
            <polygon class="cls-20" points="73.31 141.03 54.62 141.02 51.62 119.77 73.31 119.77 73.31 141.03"/>
            <path class="cls-16" d="m54.62,114.23v26.79s-4.44-.16-9.18-.02c-.21,0-.43.01-.64.02-4.97.18-9.11-7.22-4.89-14.09,4.23-6.87,4.89-12.7,4.89-12.7h9.83Z"/>
            <path class="cls-16" d="m54.62,119.01v22.02s-4.44-.16-9.18-.02c-3.8-6.18,1.71-22.77,1.71-22.77l7.47.78Z"/>
            <path class="cls-8" d="m74.16,106.95c0,1.44-.23,2.82-.64,4.12,0,0-1.14,7.15-1.32,8.17,0,.02,0,.03,0,.04-.39,2.07-.95,3.71-2.1,5.63h0c-.37.63-.81,1.28-1.32,1.99-.79,1.09-1.13,1.54-2.18,2.63-.94.97-2.12,1.99-4.48,2.43-.42.08-1.44.12-2.32.07-.25,0-.47-.03-.67-.07-2.36-.44-3.55-1.46-4.48-2.43-1.05-1.09-1.4-1.54-2.19-2.63-2.09-2.9-2.91-4.88-3.42-7.62-.16-.84-1.37-8.21-1.37-8.21h0c-.41-1.3-.64-2.68-.64-4.12,0-7.5,6.08-13.58,13.58-13.58,4.39,0,8.3,2.09,10.78,5.32.3.39.58.8.84,1.22,1.24,2.05,1.96,4.46,1.96,7.03Z"/>
            <path class="cls-16" d="m39.25,129.63c-.15,0-.28-.11-.3-.26-1.21-8.62,5.28-13.53,5.35-13.58.13-.1.33-.07.42.06.1.13.07.33-.06.43-.06.05-6.27,4.76-5.11,13.01.02.17-.09.32-.26.34-.01,0-.03,0-.04,0Z"/>
            <path class="cls-8" d="m73.52,111.07s4.87-1.25,3.79,3.24c-1.3,5.39-5.11,4.75-5.11,4.75l1.32-7.99Z"/>
            <path class="cls-17" d="m49.74,109.46c-.13.03-.21-.12-.12-.22.52-.55,1.72-1.67,3.17-1.93s3.65-.14,4.76-.06c.57.04,1.01.51,1.02,1.07,0,0,0,.02,0,.02,0,.45-.29.65-.54.74-.18.07-.38.08-.58.05-.8-.12-4.09-.57-4.69-.42-.52.13-2.23.54-3.02.73Z"/>
            <path class="cls-17" d="m71.45,109.46c.13.03.21-.12.12-.22-.52-.55-1.72-1.67-3.17-1.93s-3.65-.14-4.76-.06c-.57.04-1.01.51-1.02,1.07,0,0,0,.02,0,.02,0,.45.29.65.54.74.18.07.38.08.58.05.8-.12,4.09-.57,4.69-.42.52.13,2.23.54,3.02.73Z"/>
            <path class="cls-13" d="m58.64,122.78l-3.13-.28c.71,1.25,1.97,2.04,3.04,2.52,1.22.54,2.63.54,3.85,0,1.07-.47,2.33-1.26,3.04-2.52l-3.13.28c-1.22.11-2.45.11-3.67,0Z"/>
            <path class="cls-19" d="m60.48,122.19c-2.6,0-4.96.31-4.96.31,2.29,1.32,4.96,1.2,4.96,1.2,0,0,2.67.12,4.96-1.2,0,0-2.37-.31-4.96-.31Z"/>
            <path class="cls-3" d="m62.53,118.39c0,.43-.99.78-2.2.78s-2.19-.35-2.19-.78"/>
            <path class="cls-16" d="m54.17,98.32s-6,3.93-6.53,12.74l-2.8.11s.7,0,0-8.09c-.7-8.1,7.4-11.17,7.4-11.17l1.94,6.42Z"/>
            <path class="cls-8" d="m47.64,111.07s-4.82-1.25-3.74,3.24c1.3,5.39,5.11,4.75,5.11,4.75l-1.37-7.99Z"/>
            <path class="cls-16" d="m54.17,98.32s-6,3.93-6.53,12.74c-2.66-12.32,6.53-12.74,6.53-12.74Z"/>
            <path class="cls-16" d="m69.58,105.31c-4.44-11.76-15.1-7.12-15.41-6.99.18-.15,5.07-4.1,9.27-2.1,4.28,2.04,6.13,6.22,6.14,9.09Z"/>
            <path class="cls-16" d="m90.11,132.82s-.06,0-.09-.01c-.16-.05-.25-.22-.2-.38,0-.01.45-1.54,0-3.82-.42-2.11-1.71-5.31-5.51-8.61-7.51-6.52-10.1-19.78-10.13-19.92-.03-.16.08-.32.24-.36.16-.03.32.08.36.24.02.13,2.58,13.19,9.93,19.57,7.58,6.58,5.77,12.8,5.69,13.07-.04.13-.16.21-.29.21Z"/>
            <g>
              <ellipse class="cls-16" cx="54.23" cy="112.27" rx="1.28" ry="1.81"/>
              <path class="cls-16" d="m55.5,111.15c-1.44-.11-2.26-.35-3.63-.16.61-1.54,3.04-1.26,3.63.16h0Z"/>
              <ellipse class="cls-16" cx="66.93" cy="112.27" rx="1.28" ry="1.81"/>
              <path class="cls-16" d="m69.29,111.15c-1.44-.11-2.26-.35-3.63-.16.61-1.54,3.04-1.26,3.63.16h0Z"/>
            </g>
          </g>
          <path class="cls-16" d="m80.21,141.08l-14.88-.08s8.74-14.5,5.39-31.58c-.3-1.55-.69-2.91-1.14-4.11h0c-4.44-11.77-15.1-7.12-15.41-6.99,0,0,0,0,0,0l-1.94-6.42s9.16-9.51,20.25.83c0,0,4.4,4.18,5.28,13.69.58,6.29,4.88,13.15,9.82,20.96,3.54,5.59-.77,13.69-7.38,13.69Z"/>
        </g>
        <g>
          <circle class="cls-7" cx="135.4" cy="113.51" r="35.14"/>
          <g>
            <g>
              <circle class="cls-9" cx="134.93" cy="128.3" r="7.06"/>
              <path class="cls-15" d="m151.21,108.83c0,.72-.05,1.42-.14,2.12-.02.17-.05.35-.07.53-.06.35-.13.69-.21,1.04-.04.18-.08.36-.13.53-.06.24-.13.48-.2.71,0,0-1.44,13.54-1.63,14.54-.61,3.28-9.33,9.46-11.96,10.95-1.08.61-2.41.61-3.49,0-2.63-1.49-11.35-7.67-11.97-10.95-.19-1-1.63-14.54-1.63-14.54h0c-.06-.19-.12-.39-.17-.58-.05-.17-.1-.35-.14-.52-.1-.39-.17-.79-.24-1.19-.03-.17-.05-.35-.07-.53-.15-1.12-.18-2.27-.08-3.45.66-8.1,7.26-14.51,15.31-14.87,9.22-.41,16.83,7.01,16.83,16.22Z"/>
              <path class="cls-14" d="m122.24,110.63c-.13.04-.22-.14-.13-.26.54-.65,1.78-1.97,3.28-2.29s3.78-.17,4.92-.07c.58.05,1.05.6,1.05,1.27,0,0,0,.02,0,.03,0,.53-.3.77-.56.88-.19.08-.4.09-.6.06-.83-.14-4.23-.68-4.84-.49-.53.16-2.31.64-3.12.87Z"/>
              <path class="cls-14" d="m147.09,110.63c.13.04.22-.14.13-.26-.54-.65-1.78-1.97-3.28-2.29-1.47-.31-3.78-.17-4.92-.07-.58.05-1.05.6-1.05,1.27,0,0,0,.02,0,.03,0,.53.3.77.56.88.19.08.4.09.6.06.83-.14,4.23-.68,4.84-.49.53.16,2.31.64,3.12.87Z"/>
              <g>
                <ellipse class="cls-16" cx="127.62" cy="114.83" rx="1.51" ry="2.14"/>
                <path class="cls-16" d="m129.12,113.51c-1.48-.32-2.21-.36-3.62-.19.53-1.68,3.25-1.51,3.62.19h0Z"/>
                <ellipse class="cls-16" cx="142.61" cy="114.83" rx="1.51" ry="2.14"/>
                <path class="cls-16" d="m141.1,113.51c.37-1.7,3.1-1.86,3.62-.19-1.41-.17-2.14-.13-3.62.19h0Z"/>
              </g>
              <path class="cls-10" d="m129.76,126.92s1.59,2.1,4.13,2.66c.88.19,1.79.19,2.67,0,2.54-.56,4.15-2.71,4.15-2.71-.07.02,0,0-.07.02,0,0-3.17.08-5.44.07-2.22,0-5.47-.04-5.44-.03s.04.01,0,0Z"/>
              <line class="cls-5" x1="134.73" y1="110.64" x2="133.56" y2="120.5"/>
              <path class="cls-15" d="m150.43,112.89s6.55-1.68,5.09,4.36c-1.75,7.23-6.86,6.38-6.86,6.38l1.78-10.74Z"/>
              <path class="cls-15" d="m120.01,113.07s-7.03-1.86-5.57,4.18c1.75,7.23,6.76,6.41,6.76,6.41l-1.19-10.59Z"/>
            </g>
            <path class="cls-16" d="m148.33,113.55c-.3.32-.87.19-.95-.24,0,0,0,0,0,0-.42-2.39-2.5-4.21-5.01-4.21s-4.78,1.99-5.06,4.54c-.01.11-.1.2-.21.22-.06-.01-.12-.04-.16-.09-.38-.58-1.09-.97-1.92-.97s-1.53.39-1.91.96c-.04.06-.1.1-.17.11-.11-.02-.19-.11-.21-.22-.27-2.55-2.43-4.54-5.06-4.54s-4.59,1.82-5.01,4.21c0,0,0,0,0,0-.08.43-.65.56-.95.24-.4-.43-1.08-1.39-1.11-1.41v.78l1.1,1.54c.11.16.29.25.48.25h0c.23,0,.44.16.48.39.43,2.37,2.51,4.17,5,4.17s4.62-1.84,5.02-4.26c.03-.18.18-.3.36-.3h.28c.15,0,.29-.1.32-.25.13-.55.69-.96,1.36-.96s1.22.41,1.36.96h0c.04.15.17.25.32.25h.28c.18,0,.33.13.36.3.4,2.41,2.49,4.26,5.02,4.26s4.58-1.8,5-4.17c.04-.23.25-.39.48-.39h0c.22,0,.42-.1.54-.28l1.08-1.51v-.54s-.73.75-1.14,1.18Zm-20.64,4.9c-2.36,0-4.28-1.91-4.28-4.28s1.91-4.28,4.28-4.28,4.28,1.91,4.28,4.28-1.91,4.28-4.28,4.28Zm14.67,0c-2.36,0-4.28-1.91-4.28-4.28s1.91-4.28,4.28-4.28,4.28,1.91,4.28,4.28-1.91,4.28-4.28,4.28Z"/>
            <path class="cls-5" d="m126.97,103.67s7.14,3.11,15.53,0"/>
            <path class="cls-5" d="m129.74,102.11s4.78,2.08,10.38,0"/>
            <path class="cls-20" d="m152.12,97.78c-.36-1.28-1.59-2.11-2.41-2.52-.45-.23-.78-.34-.78-.34,0-.34-.08-.67-.23-.99-1.14-2.44-6.21-4.18-6.21-4.18-9.9-3.66-18.98,2.31-20.1,3.34-.96.89-3.22,1.95-3.84,2.23-.1.05-.16.07-.16.07.45,1.51,1.05,2.07,1.05,2.07,0,0,0,.02-.01.03-2.6,5.02.31,15.26.31,15.26,2.52,2.44,1.79-8.45,2.35-11.07.19-.89.44-1.55.69-2.05.51-.98,1.02-1.3,1.02-1.3,7.72,3.84,17.64.63,20.98.71.26,0,.48.03.66.08,2.43.72,2.98,9.95,3.06,12.17.01.46.07.84.16,1.18.23.89,1.42,1.06,1.88.27l.09-.15c1.01-4.42,2.07-12.83,1.5-14.82Z"/>
            <path class="cls-14" d="m144.15,127.91c-.43-.81-1.47-3.1-2.63-4.18-2.05-1.93-5.31-1.98-6.49-.92-1.18-1.06-4.44-1-6.49.92-1.15,1.08-2.2,3.37-2.63,4.18-.61,1.14-1.62,1.27-1.62,1.27,0,0,.44.33,1.25.23s2.03-.29,2.58-1.32c.39-.72.82-.79.82-.79-.28.22-.45.84-.45.84.45-.33,1.8-.3,2.65-.54.84-.24,1.23-.9,1.23-.9-.04.26-.19.71-.19.71,1.37.14,2.85-.81,2.85-.81,0,0,1.49.95,2.85.81,0,0-.15-.45-.19-.71,0,0,.38.66,1.23.9.84.24,2.19.21,2.65.54,0,0-.17-.62-.45-.84,0,0,.43.07.82.79.56,1.03,1.77,1.22,2.58,1.32s1.25-.23,1.25-.23c0,0-1.01-.14-1.62-1.27Z"/>
            <path class="cls-5" d="m137.29,121.78c0,.44-1.02.81-2.26.81s-2.26-.36-2.26-.81"/>
          </g>
        </g>
      </g>
    </g>
  </g>
</svg>