<?xml version="1.0" encoding="UTF-8"?>
<svg id="Layer_2" data-name="Layer 2" xmlns="http://www.w3.org/2000/svg" viewBox="0 0 238.76 221.5">
  <defs>
    <style>
      .cls-1 {
        stroke-width: 6.77px;
      }

      .cls-1, .cls-2, .cls-3, .cls-4, .cls-5, .cls-6, .cls-7, .cls-8 {
        stroke-linecap: round;
        stroke-linejoin: round;
      }

      .cls-1, .cls-3 {
        stroke: #939597;
      }

      .cls-1, .cls-3, .cls-7, .cls-8 {
        fill: none;
      }

      .cls-9, .cls-4 {
        fill: #a59a6e;
      }

      .cls-10 {
        fill: #dc4647;
      }

      .cls-11, .cls-5 {
        fill: #aa2734;
      }

      .cls-2 {
        fill: #54565a;
        stroke-width: 1.66px;
      }

      .cls-2, .cls-4, .cls-5, .cls-6, .cls-8 {
        stroke: #000;
      }

      .cls-3, .cls-7 {
        stroke-width: 7px;
      }

      .cls-4, .cls-5, .cls-6, .cls-8 {
        stroke-width: 1.5px;
      }

      .cls-6 {
        fill: #fff;
      }

      .cls-7 {
        stroke: #59595b;
      }
    </style>
  </defs>
  <g id="Content">
    <g>
      <g>
        <path class="cls-6" d="m196.3,81.89c-.47-3.26-.47-6.47-.47-6.47,0-4.52,2.72-7.77,6.08-7.77s6.08,3.25,6.08,7.77c0,0-.06,3.87-.46,6.55"/>
        <g>
          <g>
            <polyline class="cls-6" points="210.07 82.84 204.22 80.36 204.22 77.58 199.53 77.58 199.53 80.36 193.68 82.84"/>
            <polygon class="cls-6" points="201.88 82.26 204.22 80.36 204.22 77.58 199.53 77.58 199.53 80.36 201.88 82.26"/>
            <polygon class="cls-6" points="201.88 82.26 200.22 83.62 198.68 80.71 199.53 79.96 201.88 82.26"/>
            <polygon class="cls-6" points="201.88 82.26 203.53 83.62 205.07 80.71 204.22 79.96 201.88 82.26"/>
            <polyline class="cls-8" points="202.95 83.14 202.45 84.21 201.88 84.21 201.3 84.21 200.8 83.14"/>
            <polyline class="cls-8" points="201.3 84.21 200.8 87.96 201.88 89.14 202.95 87.96 202.45 84.21"/>
          </g>
          <path class="cls-6" d="m205.72,73.06c0,2.76,0-.99,0,1.76-.1,2.21-1.81,4.35-3.83,4.34-2.01-.01-3.68-2.15-3.78-4.34,0-2.76,0,.56,0-2.2"/>
          <path class="cls-6" d="m198.11,72.57s1.67-.91,2.18-2.47c0,0,1.63,2.66,5.44,2.91"/>
        </g>
      </g>
      <g>
        <path class="cls-6" d="m24.77,73.81c-.47-3.26-.47-6.47-.47-6.47,0-4.52,2.72-7.77,6.08-7.77s6.08,3.25,6.08,7.77c0,0-.06,3.87-.46,6.55"/>
        <g>
          <path class="cls-6" d="m38.94,75.65c-.11-.58-.52-1.06-1.1-1.3l-5.5-1.85v-2.74h-3.92v2.74l-5.5,1.85c-.58.23-.99.72-1.1,1.3"/>
          <path class="cls-6" d="m34.19,64.97c0,2.76,0-.99,0,1.76-.1,2.21-1.81,4.35-3.83,4.34-2.01-.01-3.68-2.15-3.78-4.34,0-2.76,0,.56,0-2.2"/>
          <path class="cls-6" d="m25.75,73.5s1.47,2.03,4.63,2.03,4.63-2.03,4.63-2.03"/>
          <path class="cls-6" d="m26.57,64.49s1.67-.91,2.18-2.47c0,0,1.63,2.66,5.44,2.91"/>
        </g>
      </g>
      <g>
        <path class="cls-6" d="m223.83,108.05c-.47-3.26-.47-6.47-.47-6.47,0-4.52,2.72-7.77,6.08-7.77s6.08,3.25,6.08,7.77c0,0-.06,3.87-.46,6.55"/>
        <g>
          <path class="cls-6" d="m238.01,109.88c-.11-.58-.52-1.06-1.1-1.3l-5.5-1.85v-2.74h-3.92v2.74l-5.5,1.85c-.58.23-.99.72-1.1,1.3"/>
          <path class="cls-6" d="m233.25,99.21c0,2.76,0-.99,0,1.76-.1,2.21-1.81,4.35-3.83,4.34-2.01-.01-3.68-2.15-3.78-4.34,0-2.76,0,.56,0-2.2"/>
          <path class="cls-6" d="m224.81,107.73s1.47,2.03,4.63,2.03,4.63-2.03,4.63-2.03"/>
          <path class="cls-6" d="m225.64,98.72s1.67-.91,2.18-2.47c0,0,1.63,2.66,5.44,2.91"/>
        </g>
      </g>
      <g>
        <path class="cls-6" d="m76.17,46.54c0,2.83-2.3,5.13-5.13,5.13s-5.13-2.3-5.13-5.13,2.3-5.17,5.13-5.17,5.13,2.34,5.13,5.17Z"/>
        <g>
          <path class="cls-6" d="m79.6,57.36c-.11-.58-.52-1.06-1.1-1.3l-5.5-1.85v-2.74h-3.92v2.74l-5.5,1.85c-.58.23-.99.72-1.1,1.3"/>
          <path class="cls-6" d="m74.85,46.2c0,2.76,0-.5,0,2.25-.1,2.21-1.81,4.35-3.83,4.34-2.01-.01-3.68-2.15-3.78-4.34,0-2.76,0,.56,0-2.2l3.51-.04c.87,0,1.62-.58,1.87-1.41l.09-.31.02.12c.2.99,1.11,1.68,2.12,1.58h0Z"/>
          <path class="cls-6" d="m66.41,55.21s1.47,2.03,4.63,2.03,4.63-2.03,4.63-2.03"/>
        </g>
      </g>
      <g>
        <polygon class="cls-9" points="156.48 90.5 145.71 88.64 145.71 80.46 152.35 81.03 154.13 87.02 156.48 90.5"/>
        <g>
          <path class="cls-4" d="m148.72,79.33c1.26-.46,2.96.12,4.18,2.13.91,1.51.95,4.37,1.14,4.95.37,1.16,1.62,2.48,4.18,1.94,0,0-.2,1.91-1.65,2.19"/>
          <path class="cls-4" d="m151.84,69.49c0,4.56-3.7,8.26-8.26,8.26s-8.26-3.7-8.26-8.26,3.7-8.33,8.26-8.33,8.26,3.77,8.26,8.33Z"/>
          <g>
            <path class="cls-6" d="m161.16,93.99c-.23-1.19-1.07-2.19-2.25-2.67l-11.3-3.79v-5.64h-8.06v5.64l-11.3,3.79c-1.18.48-2.03,1.48-2.25,2.67"/>
            <path class="cls-6" d="m151.4,71.08c0,5.66,0-1.04,0,4.62-.21,4.54-3.71,8.94-7.87,8.91-4.12-.03-7.56-4.42-7.77-8.91,0-5.66,0,1.15,0-4.51l7.21-.08c1.78-.02,3.33-1.19,3.84-2.9l.19-.63.05.24c.4,2.04,2.28,3.44,4.35,3.25h0Z"/>
            <path class="cls-6" d="m134.07,89.58s3.01,4.16,9.51,4.16,9.51-4.16,9.51-4.16"/>
          </g>
        </g>
      </g>
      <g>
        <path class="cls-6" d="m141.62,21.86s-.87.11-1.3.72c-.75,1.05-.68,2.69-.13,5.16"/>
        <g>
          <path class="cls-6" d="m153.92,38.01c-.12-.66-.56-1.22-1.18-1.49l-5.88-2.12v-3.16h-4.27v3.16l-5.88,2.12c-.62.27-1.06.83-1.18,1.49"/>
          <path class="cls-6" d="m149.29,26.45v2.42c0,2.52-2.04,4.56-4.56,4.56h0c-2.52,0-4.56-2.04-4.56-4.56v-2.42"/>
          <path class="cls-8" d="m141.62,35.01s.98,1.52,3.11,1.52,3.11-1.52,3.11-1.52"/>
        </g>
        <path class="cls-6" d="m147.83,24.64s.51,1.5,1.46,2.63c0,0,.49-1.93,0-3.29"/>
        <path class="cls-6" d="m140.16,26.95s.31-1.04.63-1.36.79-.66,1.08-1.16c.25-.42.3-.66.3-1.11"/>
        <path class="cls-6" d="m142.18,23.31s.72.69,2.03,1.04c0,0,3.94,1.53,5.98-1.29,0,0-.51.14-1.39-.46-1.05-.71-2.04-1.81-3.46-2.06-1.95-.34-3.43.48-3.72,1.3"/>
      </g>
      <g>
        <path class="cls-5" d="m149.15,124.87c0-1.78,1.83-2.66,1.93-3.24v-.09c.11-.61-.13-1.19-.56-1.56.67-.22,1.16-.83,1.18-1.57v-.11c.01-.76-.48-1.41-1.16-1.64.54-.46.75-1.22.48-1.91l-.03-.09c-.27-.69-.94-1.09-1.64-1.07.34-.61.28-1.4-.21-1.95,0,0-.06-.07-.07-.08-.5-.55-1.27-.7-1.92-.43.1-.69-.23-1.4-.88-1.75l-.13-.06c-.64-.32-1.39-.19-1.89.27-.13-.67-.66-1.23-1.37-1.36l-.09-.02c-.69-.12-1.35.19-1.71.73-.27-.59-.86-.99-1.55-.99h-.09c-.71,0-1.31.44-1.55,1.05-.39-.57-1.11-.86-1.82-.68l-.09.02c-.76.2-1.27.88-1.28,1.62-.71-.4-1.63-.24-2.16.41-.01.01-.08.1-.09.11-.23.3-.34.65-.35,1-.51-.2-1.1-.16-1.59.17-.01,0-.09.06-.1.07-.7.5-.91,1.43-.52,2.17-.76-.02-1.46.49-1.67,1.25l-.02.08c-.19.72.1,1.45.67,1.85-.61.27-1.03.9-1.01,1.61v.11c.03.7.48,1.28,1.09,1.51-.54.37-.85,1.05-.74,1.73.15.93,2.12,1.9,2.19,2.84"/>
        <g>
          <path class="cls-6" d="m158.65,145.51c-.24-1.36-1.15-2.51-2.42-3.07l-12.07-4.36v-6.48h-8.78v6.48l-12.07,4.36c-1.27.55-2.18,1.7-2.42,3.07"/>
          <path class="cls-6" d="m149.15,119.19v7.55c0,5.18-4.2,9.37-9.37,9.37h0c-5.18,0-9.37-4.2-9.37-9.37v-7.55"/>
          <path class="cls-8" d="m133.39,139.34s2.02,3.12,6.38,3.12,6.38-3.12,6.38-3.12"/>
        </g>
        <path class="cls-6" d="m147.89,119.57s-.12-.03-.13-.03c-.79-.19-1.35-.78-1.48-1.48-.57.46-1.39.61-2.13.32-.72-.27-1.19-.89-1.26-1.57-.52.41-1.26.56-1.96.34-.58-.19-1.03-.61-1.24-1.11-.29.38-.74.65-1.28.74-.67.11-1.35-.1-1.81-.51-.11.6-.54,1.14-1.19,1.4-.63.25-1.34.19-1.9-.12.04.58-.22,1.16-.74,1.55,0,0-.66.28-1.38.16"/>
      </g>
      <g>
        <path class="cls-6" d="m16.52,108.31c.01-.36-.2-.67-.51-.8.29-.18.45-.52.39-.87v-.04c-.07-.35-.34-.62-.67-.69.24-.23.33-.59.21-.92l-.02-.06c-.14-.34-.46-.53-.8-.52.2-.28.21-.67,0-.97l-.02-.03c-.21-.3-.57-.43-.91-.34.13-.32.05-.71-.22-.95,0,0-.02-.02-.02-.02-.27-.24-.65-.28-.95-.13.04-.34-.12-.69-.44-.86l-.04-.02c-.32-.17-.71-.12-.97.11-.04-.34-.3-.64-.65-.73,0,0-.04,0-.04-.01-.36-.08-.71.08-.89.38-.12-.32-.44-.56-.81-.55h-.07c-.37.02-.66.26-.77.59-.21-.28-.58-.41-.93-.3l-.05.02c-.35.11-.57.43-.58.77-.27-.22-.67-.25-.98-.06l-.03.02c-.31.19-.46.55-.39.89-.31-.14-.69-.07-.95.18l-.03.03c-.25.26-.31.63-.17.94-.33-.06-.68.08-.87.39l-.03.05c-.19.31-.15.68.06.95-.34,0-.66.22-.78.56l-.02.05c-.12.34,0,.7.26.92-.33.08-.59.35-.65.7v.05c-.05.36.13.69.43.84-.31.14-.51.46-.49.82v.05c.03.36.28.64.6.74-.27.2-.41.56-.32.9v.05c.11.35.42.58.76.6-.23.26-.28.64-.11.96l.03.05c.17.32.52.47.85.42-.17.31-.14.7.11.97l.02.03c.24.27.61.36.93.24-.09.33.03.69.33.9l.04.03c.3.21.68.19.96,0,0,.35.2.68.54.81l.05.02c.34.13.71.01.93-.25.08.34.37.61.74.65h.06s.03,0,.05,0c.35.01.65-.19.78-.5.17.31.52.49.89.43,0,0,.04,0,.05,0,.36-.06.62-.35.67-.69.24.25.62.34.95.2l.06-.03c.33-.15.51-.49.48-.83.3.18.68.17.97-.06l.03-.03c.29-.23.38-.6.26-.93.33.11.71,0,.94-.28l.03-.03c.22-.28.23-.66.06-.95.34.03.68-.16.83-.48l.02-.03c.16-.32.09-.7-.14-.95.33-.05.62-.29.7-.63v-.05c.1-.35-.05-.7-.34-.88.32-.11.56-.41.57-.77v-.07s0,0,0,0Z"/>
        <g>
          <path class="cls-6" d="m17.87,117.05c-.11-.58-.52-1.06-1.1-1.3l-5.5-1.85v-2.74h-3.92v2.74l-5.5,1.85c-.58.23-.99.72-1.1,1.3"/>
          <path class="cls-6" d="m13.12,106.38c0,2.76,0-.99,0,1.76-.1,2.21-1.81,4.35-3.83,4.34-2.01-.01-3.68-2.15-3.78-4.34,0-2.76,0,.56,0-2.2"/>
          <path class="cls-6" d="m4.68,114.9s1.47,2.03,4.63,2.03,4.63-2.03,4.63-2.03"/>
          <path class="cls-6" d="m5.5,105.9s1.67-.91,2.18-2.47c0,0,1.63,2.66,5.44,2.91"/>
        </g>
      </g>
      <g>
        <path class="cls-6" d="m112.49,182.93c.01-.36-.2-.67-.51-.8.29-.18.45-.52.39-.87v-.04c-.07-.35-.34-.62-.67-.69.24-.23.33-.59.21-.92l-.02-.06c-.14-.34-.46-.53-.8-.52.2-.28.21-.67,0-.97l-.02-.03c-.21-.3-.57-.43-.91-.34.13-.32.05-.71-.22-.95,0,0-.02-.02-.02-.02-.27-.24-.65-.28-.95-.13.04-.34-.12-.69-.44-.86l-.04-.02c-.32-.17-.71-.12-.97.11-.04-.34-.3-.64-.65-.73,0,0-.04,0-.04-.01-.36-.08-.71.08-.89.38-.12-.32-.44-.56-.81-.55h-.07c-.37.02-.66.26-.77.59-.21-.28-.58-.41-.93-.3l-.05.02c-.35.11-.57.43-.58.77-.27-.22-.67-.25-.98-.06l-.03.02c-.31.19-.46.55-.39.89-.31-.14-.69-.07-.95.18l-.03.03c-.25.26-.31.63-.17.94-.33-.06-.68.08-.87.39l-.03.05c-.19.31-.15.68.06.95-.34,0-.66.22-.78.56l-.02.05c-.12.34,0,.7.26.92-.33.08-.59.35-.65.7v.05c-.05.36.13.69.43.84-.31.14-.51.46-.49.82v.05c.03.36.28.64.6.74-.27.2-.41.56-.32.9v.05c.11.35.42.58.76.6-.23.26-.28.64-.11.96l.03.05c.17.32.52.47.85.42-.17.31-.14.7.11.97l.02.03c.24.27.61.36.93.24-.09.33.03.69.33.9l.04.03c.3.21.68.19.96,0,0,.35.2.68.54.81l.05.02c.34.13.71.01.93-.25.08.34.37.61.74.65h.06s.03,0,.05,0c.35.01.65-.19.78-.5.17.31.52.49.89.43,0,0,.04,0,.05,0,.36-.06.62-.35.67-.69.24.25.62.34.95.2l.06-.03c.33-.15.51-.49.48-.83.3.18.68.17.97-.06l.03-.03c.29-.23.38-.6.26-.93.33.11.71,0,.94-.28l.03-.03c.22-.28.23-.66.06-.95.34.03.68-.16.83-.48l.02-.03c.16-.32.09-.7-.14-.95.33-.05.62-.29.7-.63v-.05c.1-.35-.05-.7-.34-.88.32-.11.56-.41.57-.77v-.07s0,0,0,0Z"/>
        <g>
          <path class="cls-6" d="m113.85,191.68c-.11-.58-.52-1.06-1.1-1.3l-5.5-1.85v-2.74h-3.92v2.74l-5.5,1.85c-.58.23-.99.72-1.1,1.3"/>
          <path class="cls-6" d="m109.09,181.01c0,2.76,0-.99,0,1.76-.1,2.21-1.81,4.35-3.83,4.34-2.01-.01-3.68-2.15-3.78-4.34,0-2.76,0,.56,0-2.2"/>
          <path class="cls-6" d="m100.65,189.53s1.47,2.03,4.63,2.03,4.63-2.03,4.63-2.03"/>
          <path class="cls-6" d="m101.48,180.52s1.67-.91,2.18-2.47c0,0,1.63,2.66,5.44,2.91"/>
        </g>
      </g>
      <g>
        <path class="cls-2" d="m113.04,100.62c.02-.73-.41-1.37-1.04-1.65.59-.37.93-1.06.8-1.79v-.08c-.14-.73-.7-1.27-1.38-1.41.5-.47.69-1.21.42-1.89l-.05-.11c-.28-.69-.95-1.08-1.65-1.06.41-.58.43-1.38,0-2l-.04-.06c-.43-.62-1.18-.88-1.87-.7.26-.66.1-1.45-.46-1.96,0,0-.04-.03-.04-.04-.55-.5-1.33-.58-1.96-.26.09-.7-.25-1.41-.9-1.76l-.08-.04c-.67-.36-1.46-.24-1.99.24-.09-.71-.61-1.32-1.34-1.49,0,0-.09-.02-.09-.02-.74-.17-1.45.17-1.82.79-.25-.67-.9-1.15-1.65-1.13h-.14c-.75.04-1.36.54-1.57,1.22-.43-.57-1.18-.84-1.91-.62l-.11.03c-.72.23-1.16.87-1.19,1.58-.56-.45-1.37-.52-2.01-.12l-.06.04c-.64.39-.94,1.13-.8,1.82-.64-.28-1.42-.15-1.94.38l-.06.06c-.52.53-.63,1.3-.34,1.94-.68-.12-1.4.17-1.79.79l-.06.09c-.39.64-.31,1.4.13,1.95-.7.01-1.35.45-1.6,1.14l-.04.11c-.25.7-.01,1.44.53,1.89-.68.16-1.22.72-1.33,1.45l-.02.11c-.1.74.28,1.41.9,1.73-.63.29-1.05.95-1.01,1.68v.11c.06.74.57,1.32,1.24,1.52-.56.41-.84,1.14-.65,1.86l.03.11c.2.72.82,1.18,1.52,1.23-.47.53-.58,1.31-.24,1.97l.05.1c.36.66,1.06.98,1.75.87-.35.63-.28,1.43.22,2l.05.05c.49.56,1.25.74,1.91.5-.18.68.07,1.42.67,1.86l.09.06c.62.43,1.4.4,1.98-.02-.02.72.41,1.4,1.11,1.67l.11.04c.71.26,1.46.03,1.91-.52.17.7.76,1.25,1.52,1.32h.11s.07.02.1.02c.71.02,1.33-.4,1.61-1.02.35.63,1.07,1.01,1.82.89,0,0,.09-.01.09-.02.75-.13,1.28-.72,1.38-1.42.49.52,1.27.7,1.96.4l.12-.05c.68-.32,1.05-1.01.99-1.71.61.37,1.41.34,1.99-.13l.07-.06c.59-.47.77-1.23.53-1.91.68.23,1.46.02,1.93-.58l.05-.07c.45-.58.48-1.36.13-1.96.69.06,1.39-.32,1.7-.99l.03-.07c.32-.66.18-1.43-.29-1.94.68-.1,1.26-.59,1.44-1.3l.03-.11c.17-.72-.14-1.43-.72-1.82.66-.23,1.14-.84,1.18-1.57v-.15s0-.02,0-.02Z"/>
        <g>
          <g>
            <polyline class="cls-6" points="114.99 116.76 102.98 111.65 102.98 105.94 93.35 105.94 93.35 111.65 81.34 116.76"/>
            <polygon class="cls-6" points="98.17 115.55 102.98 111.65 102.98 105.94 93.35 105.94 93.35 111.65 98.17 115.55"/>
            <polygon class="cls-6" points="98.17 115.55 94.76 118.35 91.61 112.37 93.35 110.84 98.17 115.55"/>
            <polygon class="cls-6" points="98.17 115.55 101.57 118.35 104.72 112.37 102.98 110.84 98.17 115.55"/>
            <polyline class="cls-8" points="100.38 117.37 99.34 119.56 98.17 119.56 96.99 119.56 95.95 117.37"/>
            <polyline class="cls-8" points="96.99 119.56 95.95 127.27 98.17 129.7 100.38 127.27 99.34 119.56"/>
          </g>
          <path class="cls-6" d="m106.06,96.54c0,5.66,0-1.9,0,3.76-.21,4.54-3.71,8.94-7.87,8.91-4.12-.03-7.56-4.42-7.77-8.91,0-5.66,0,1.01,0-4.65"/>
          <path class="cls-6" d="m90.43,95.67s3.43-1.87,4.47-5.08c0,0,3.35,5.47,11.17,5.97"/>
        </g>
      </g>
      <g>
        <path class="cls-6" d="m205.36,123.49c0-.91-1.15-4.35-1.5-5.15-.91-2.11-2.81-3.44-5-3.44s-4.18,1.39-5.07,3.6c-.31.76-1.44,4.09-1.44,5,0,1.53,1.08,2.87,3.07,3.58.14.05,1.74.5,3.33.52,1.59.02,3.17-.4,3.27-.43,2.16-.69,3.34-2.07,3.34-3.67Z"/>
        <g>
          <path class="cls-6" d="m207.42,131.29c-.11-.58-.52-1.06-1.1-1.3l-5.5-1.85v-2.74h-3.92v2.74l-5.5,1.85c-.58.23-.99.72-1.1,1.3"/>
          <path class="cls-6" d="m202.66,120.13c0,2.76,0-.5,0,2.25-.1,2.21-1.81,4.35-3.83,4.34-2.01-.01-3.68-2.15-3.78-4.34,0-2.76,0,.56,0-2.2"/>
          <path class="cls-6" d="m194.22,129.14s1.47,2.03,4.63,2.03,4.63-2.03,4.63-2.03"/>
          <path class="cls-6" d="m195.05,120.13s3.33-.91,3.83-2.47c0,0,.91,1.9,3.78,2.47"/>
        </g>
      </g>
      <g>
        <path class="cls-6" d="m150.08,210.89c0-.91-1.15-4.35-1.5-5.15-.91-2.11-2.81-3.44-5-3.44s-4.18,1.39-5.07,3.6c-.31.76-1.44,4.09-1.44,5,0,1.53,1.08,2.87,3.07,3.58.14.05,1.74.5,3.33.52,1.59.02,3.17-.4,3.27-.43,2.16-.69,3.34-2.07,3.34-3.67Z"/>
        <g>
          <path class="cls-6" d="m152.14,218.69c-.11-.58-.52-1.06-1.1-1.3l-5.5-1.85v-2.74h-3.92v2.74l-5.5,1.85c-.58.23-.99.72-1.1,1.3"/>
          <path class="cls-6" d="m147.39,207.53c0,2.76,0-.5,0,2.25-.1,2.21-1.81,4.35-3.83,4.34-2.01-.01-3.68-2.15-3.78-4.34,0-2.76,0,.56,0-2.2"/>
          <path class="cls-6" d="m138.95,216.54s1.47,2.03,4.63,2.03,4.63-2.03,4.63-2.03"/>
          <path class="cls-6" d="m139.77,207.53s3.33-.91,3.83-2.47c0,0,.91,1.9,3.78,2.47"/>
        </g>
      </g>
      <g>
        <path class="cls-6" d="m46.25,29.1c0-.91-1.15-4.35-1.5-5.15-.91-2.11-2.81-3.44-5-3.44s-4.18,1.39-5.07,3.6c-.31.76-1.44,4.09-1.44,5,0,1.53,1.08,2.87,3.07,3.58.14.05,1.74.5,3.33.52,1.59.02,3.17-.4,3.27-.43,2.16-.69,3.34-2.07,3.34-3.67Z"/>
        <g>
          <path class="cls-6" d="m48.31,36.9c-.11-.58-.52-1.06-1.1-1.3l-5.5-1.85v-2.74h-3.92v2.74l-5.5,1.85c-.58.23-.99.72-1.1,1.3"/>
          <path class="cls-6" d="m43.56,25.74c0,2.76,0-.5,0,2.25-.1,2.21-1.81,4.35-3.83,4.34-2.01-.01-3.68-2.15-3.78-4.34,0-2.76,0,.56,0-2.2"/>
          <path class="cls-6" d="m35.12,34.75s1.47,2.03,4.63,2.03,4.63-2.03,4.63-2.03"/>
          <path class="cls-6" d="m35.94,25.74s3.33-.91,3.83-2.47c0,0,.91,1.9,3.78,2.47"/>
        </g>
      </g>
      <g>
        <path class="cls-6" d="m179.26,9.35c0-.91-1.15-4.35-1.5-5.15-.91-2.11-2.81-3.44-5-3.44s-4.18,1.39-5.07,3.6c-.31.76-1.44,4.09-1.44,5,0,1.53,1.08,2.87,3.07,3.58.14.05,1.74.5,3.33.52,1.59.02,3.17-.4,3.27-.43,2.16-.69,3.34-2.07,3.34-3.67Z"/>
        <g>
          <path class="cls-6" d="m181.32,17.15c-.11-.58-.52-1.06-1.1-1.3l-5.5-1.85v-2.74h-3.92v2.74l-5.5,1.85c-.58.23-.99.72-1.1,1.3"/>
          <path class="cls-6" d="m176.56,5.99c0,2.76,0-.5,0,2.25-.1,2.21-1.81,4.35-3.83,4.34-2.01-.01-3.68-2.15-3.78-4.34,0-2.76,0,.56,0-2.2"/>
          <path class="cls-6" d="m168.12,15s1.47,2.03,4.63,2.03,4.63-2.03,4.63-2.03"/>
          <path class="cls-6" d="m168.95,5.99s3.33-.91,3.83-2.47c0,0,.91,1.9,3.78,2.47"/>
        </g>
      </g>
      <g>
        <path class="cls-6" d="m56.45,98.28l.18-2.8c.25-2.59-1.37-4.89-4.16-4.89h-1.16c-2.79,0-4.41,2.3-4.16,4.89l.18,2.8h9.13Z"/>
        <g>
          <path class="cls-6" d="m61.07,108.03c-.12-.66-.56-1.22-1.18-1.49l-5.88-2.12v-3.16h-4.27v3.16l-5.88,2.12c-.62.27-1.06.83-1.18,1.49"/>
          <path class="cls-6" d="m56.45,95.22v3.67c0,2.52-2.04,4.56-4.56,4.56h0c-2.52,0-4.56-2.04-4.56-4.56v-3.67"/>
          <path class="cls-8" d="m48.78,105.02s.98,1.52,3.11,1.52,3.11-1.52,3.11-1.52"/>
        </g>
        <path class="cls-6" d="m47.33,96.55c0-1.07.44-2.14,1.06-2.71.72-.66,1.36-.88,1.9-.9.3-.01,2.92-.02,3.24,0,.53.03,1.16.26,1.85.9.62.57,1.06,1.64,1.06,2.71"/>
      </g>
      <g>
        <path class="cls-6" d="m99.24,13.17l.18-2.8c.25-2.59-1.37-4.89-4.16-4.89h-1.16c-2.79,0-4.41,2.3-4.16,4.89l.18,2.8h9.13Z"/>
        <g>
          <path class="cls-6" d="m103.87,22.92c-.12-.66-.56-1.22-1.18-1.49l-5.88-2.12v-3.16h-4.27v3.16l-5.88,2.12c-.62.27-1.06.83-1.18,1.49"/>
          <path class="cls-6" d="m99.24,10.12v3.67c0,2.52-2.04,4.56-4.56,4.56h0c-2.52,0-4.56-2.04-4.56-4.56v-3.67"/>
          <path class="cls-8" d="m91.57,19.92s.98,1.52,3.11,1.52,3.11-1.52,3.11-1.52"/>
        </g>
        <path class="cls-6" d="m90.13,11.45c0-1.07.44-2.14,1.06-2.71.72-.66,1.36-.88,1.9-.9.3-.01,2.92-.02,3.24,0,.53.03,1.16.26,1.85.9.62.57,1.06,1.64,1.06,2.71"/>
      </g>
      <g>
        <path class="cls-6" d="m228.5,155.9l.18-2.8c.25-2.59-1.37-4.89-4.16-4.89h-1.16c-2.79,0-4.41,2.3-4.16,4.89l.18,2.8h9.13Z"/>
        <g>
          <path class="cls-6" d="m233.12,165.65c-.12-.66-.56-1.22-1.18-1.49l-5.88-2.12v-3.16h-4.27v3.16l-5.88,2.12c-.62.27-1.06.83-1.18,1.49"/>
          <path class="cls-6" d="m228.5,152.84v3.67c0,2.52-2.04,4.56-4.56,4.56h0c-2.52,0-4.56-2.04-4.56-4.56v-3.67"/>
          <path class="cls-8" d="m220.83,162.64s.98,1.52,3.11,1.52,3.11-1.52,3.11-1.52"/>
        </g>
        <path class="cls-6" d="m219.38,154.17c0-1.07.44-2.14,1.06-2.71.72-.66,1.36-.88,1.9-.9.3-.01,2.92-.02,3.24,0,.53.03,1.16.26,1.85.9.62.57,1.06,1.64,1.06,2.71"/>
      </g>
      <g>
        <path class="cls-6" d="m41.07,146.96l.18-2.8c.25-2.59-1.37-4.89-4.16-4.89h-1.16c-2.79,0-4.41,2.3-4.16,4.89l.18,2.8h9.13Z"/>
        <g>
          <g>
            <polyline class="cls-6" points="44.63 155.3 38.78 152.82 38.78 150.04 34.09 150.04 34.09 152.82 28.24 155.3"/>
            <polygon class="cls-6" points="36.44 154.72 38.78 152.82 38.78 150.04 34.09 150.04 34.09 152.82 36.44 154.72"/>
            <polygon class="cls-6" points="36.44 154.72 34.78 156.08 33.24 153.17 34.09 152.42 36.44 154.72"/>
            <polygon class="cls-6" points="36.44 154.72 38.09 156.08 39.63 153.17 38.78 152.42 36.44 154.72"/>
            <polyline class="cls-8" points="37.51 155.6 37.01 156.67 36.44 156.67 35.86 156.67 35.36 155.6"/>
            <polyline class="cls-8" points="35.86 156.67 35.36 160.42 36.43 161.6 37.51 160.42 37.01 156.67"/>
          </g>
          <path class="cls-6" d="m41.07,143.91v3.67c0,2.52-2.04,4.56-4.56,4.56h0c-2.52,0-4.56-2.04-4.56-4.56v-3.67"/>
        </g>
        <path class="cls-6" d="m31.96,145.24c0-1.07.44-2.14,1.06-2.71.72-.66,1.36-.88,1.9-.9.3-.01,2.92-.02,3.24,0,.53.03,1.16.26,1.85.9.62.57,1.06,1.64,1.06,2.71"/>
      </g>
      <g>
        <path class="cls-6" d="m201.94,31.96l.18-2.8c.25-2.59-1.37-4.89-4.16-4.89h-1.16c-2.79,0-4.41,2.3-4.16,4.89l.18,2.8h9.13Z"/>
        <g>
          <g>
            <polyline class="cls-6" points="205.5 40.3 199.65 37.81 199.65 35.03 194.97 35.03 194.97 37.81 189.12 40.3"/>
            <polygon class="cls-6" points="197.31 39.71 199.65 37.81 199.65 35.03 194.97 35.03 194.97 37.81 197.31 39.71"/>
            <polygon class="cls-6" points="197.31 39.71 195.65 41.07 194.12 38.16 194.97 37.42 197.31 39.71"/>
            <polygon class="cls-6" points="197.31 39.71 198.97 41.07 200.5 38.16 199.65 37.42 197.31 39.71"/>
            <polyline class="cls-8" points="198.39 40.6 197.88 41.66 197.31 41.66 196.74 41.66 196.23 40.6"/>
            <polyline class="cls-8" points="196.74 41.66 196.23 45.42 197.31 46.6 198.39 45.42 197.88 41.66"/>
          </g>
          <path class="cls-6" d="m201.94,28.9v3.67c0,2.52-2.04,4.56-4.56,4.56h0c-2.52,0-4.56-2.04-4.56-4.56v-3.67"/>
        </g>
        <path class="cls-6" d="m192.83,30.23c0-1.07.44-2.14,1.06-2.71.72-.66,1.36-.88,1.9-.9.3-.01,2.92-.02,3.24,0,.53.03,1.16.26,1.85.9.62.57,1.06,1.64,1.06,2.71"/>
      </g>
      <g>
        <g>
          <path class="cls-6" d="m178.37,174.83s-.02-1.29.33-2.43c.34-1.08-.36-4.4-4.16-4.72-2.34-.2-3.55.37-3.87,1.27,0,0-.87.11-1.3.72-.75,1.05-.68,2.69-.13,5.16"/>
          <g>
            <path class="cls-6" d="m182.97,185.11c-.12-.66-.56-1.22-1.18-1.49l-5.88-2.12v-3.16h-4.27v3.16l-5.88,2.12c-.62.27-1.06.83-1.18,1.49"/>
            <path class="cls-6" d="m178.34,173.55v2.42c0,2.52-2.04,4.56-4.56,4.56h0c-2.52,0-4.56-2.04-4.56-4.56v-2.42"/>
            <path class="cls-8" d="m170.67,182.1s.98,1.52,3.11,1.52,3.11-1.52,3.11-1.52"/>
          </g>
          <path class="cls-6" d="m169.22,174.05s.31-1.04.63-1.36.79-.66,1.08-1.16c.25-.42.3-.66.3-1.11"/>
          <path class="cls-6" d="m171.23,170.41s.72.69,2.03,1.04c1.42.39,3.47.45,4.06.77.74.4,1.02,1.2,1.02,2.1"/>
        </g>
        <line class="cls-8" x1="170.67" y1="168.95" x2="171.23" y2="170.41"/>
      </g>
      <g>
        <line class="cls-3" x1="85.37" y1="148.53" x2="27.22" y2="205.76"/>
        <path class="cls-7" d="m188.24,105.92c0,33.28-26.98,60.26-60.26,60.26-16.64,0-31.7-6.74-42.61-17.65-10.91-10.91-17.65-25.97-17.65-42.61,0-33.29,26.98-60.26,60.26-60.26s60.26,26.98,60.26,60.26Z"/>
        <rect class="cls-11" x="32.21" y="155.85" width="22.14" height="67.74" transform="translate(-60.27 354.47) rotate(-135)"/>
        <polygon class="cls-10" points="53.58 163.77 69.24 179.43 75.05 173.59 59.39 157.93 53.58 163.77"/>
        <path class="cls-1" d="m186.23,105.92c0,32.17-26.08,58.25-58.25,58.25-16.08,0-30.64-6.52-41.19-17.06-10.54-10.54-17.06-25.1-17.06-41.19,0-32.18,26.08-58.25,58.25-58.25s58.25,26.08,58.25,58.25Z"/>
      </g>
    </g>
  </g>
</svg>