<?xml version="1.0" encoding="UTF-8"?>
<svg id="Layer_2" data-name="Layer 2" xmlns="http://www.w3.org/2000/svg" viewBox="0 0 106.5 106.5">
  <defs>
    <style>
      .cls-1 {
        fill: #ba0c2f;
      }

      .cls-1, .cls-2 {
        stroke: #1a1a1a;
        stroke-linecap: round;
        stroke-linejoin: round;
        stroke-width: 1.5px;
      }

      .cls-2 {
        fill: #fff;
      }
    </style>
  </defs>
  <g id="Content">
    <g>
      <circle class="cls-2" cx="53.25" cy="53.25" r="52.5"/>
      <g id="Layer_2-2" data-name="Layer 2">
        <g id="Layer_3" data-name="Layer 3">
          <path class="cls-2" d="m39.84,53.53l2.21-1.2c2.18-1.15,3.94-2.98,5-5.21l4.31-8.96c.69-1.43.99-3,.88-4.58l-.31-4.16c-.17-2.13,1.42-4,3.55-4.17.48-.04.97.01,1.43.15,1.71.65,3,2.07,3.49,3.84,2.53,6.73.57,15.04.57,15.04h14.02s5.05.38,4.81,4.59c-.24,4.21-3.61,3.85-3.61,3.85,0,0,4.61.49,4.45,4.28,0,1.96-1.56,3.56-3.51,3.61-.09,0-.16.09-.15.18,0,.05.04.1.08.13,1.64.99,2.38,2.99,1.77,4.81-.58,1.72-2.29,2.81-4.1,2.6-.15,0-.27.13-.27.28,0,.08.03.15.09.2,1.46,1.01,1.86,2.99.9,4.49-1.46,2.24-3.67,2.18-8.42,2.21h-15.02c-2.4-.01-4.77-.48-7-1.38l-2.41-.97"/>
          <rect class="cls-1" x="25.87" y="48.72" width="16.8" height="27.9"/>
        </g>
      </g>
    </g>
  </g>
</svg>