<?xml version="1.0" encoding="UTF-8"?>
<svg id="Layer_2" data-name="Layer 2" xmlns="http://www.w3.org/2000/svg" viewBox="0 0 278.83 206.95">
  <defs>
    <style>
      .cls-1, .cls-2 {
        fill: #a59a6e;
      }

      .cls-3 {
        fill: #aa2734;
      }

      .cls-4 {
        fill: #54565a;
      }

      .cls-4, .cls-2, .cls-5, .cls-6 {
        stroke: #000;
        stroke-linecap: round;
        stroke-linejoin: round;
        stroke-width: 1.5px;
      }

      .cls-5 {
        fill: #fff;
      }

      .cls-6 {
        fill: none;
      }
    </style>
  </defs>
  <g id="Content">
    <g>
      <g>
        <path class="cls-3" d="m136.89,1.5c11.27,0,20.45,9.08,20.55,20.37.1,10.85-8.22,19.81-18.87,20.67-.5.04-1,.07-1.5.07-.07,0-.14,0-.21,0-.56,0-1.11-.03-1.66-.07-10.48-.85-18.77-9.58-18.87-20.3-.1-11.35,9.02-20.64,20.37-20.75.06,0,.13,0,.19,0m0-1.5h-.2c-12.16.11-21.97,10.1-21.86,22.26.11,11.49,8.81,20.85,20.25,21.78.61.05,1.21.08,1.78.08h.23c.55,0,1.1-.03,1.62-.08,11.45-.93,20.34-10.67,20.24-22.18-.11-12.05-10-21.86-22.05-21.86h0Z"/>
        <g>
          <path class="cls-4" d="m149.52,21.37c.02-.62-.35-1.17-.89-1.4.5-.31.79-.9.68-1.52v-.07c-.12-.62-.59-1.08-1.17-1.2.42-.4.58-1.03.36-1.61l-.04-.1c-.24-.58-.81-.92-1.4-.9.35-.5.37-1.17,0-1.7l-.04-.05c-.36-.53-1-.75-1.59-.6.22-.56.08-1.23-.39-1.66,0,0-.03-.03-.03-.03-.47-.42-1.13-.49-1.66-.22.08-.59-.21-1.2-.77-1.5l-.07-.04c-.56-.3-1.24-.2-1.69.2-.07-.6-.52-1.12-1.14-1.27,0,0-.07-.02-.08-.02-.63-.14-1.23.15-1.55.67-.21-.57-.76-.98-1.41-.96h-.12c-.64.03-1.16.46-1.34,1.03-.36-.49-1-.71-1.62-.53l-.09.03c-.61.19-.99.74-1.01,1.34-.48-.38-1.16-.44-1.71-.1l-.05.03c-.54.33-.8.96-.68,1.55-.55-.24-1.21-.13-1.65.32l-.05.05c-.44.45-.54,1.11-.29,1.65-.58-.1-1.19.14-1.52.67l-.05.08c-.33.54-.26,1.19.11,1.66-.59.01-1.15.38-1.36.97l-.03.09c-.21.6,0,1.22.45,1.6-.57.13-1.04.61-1.13,1.23v.1c-.1.63.23,1.2.75,1.47-.54.25-.89.81-.86,1.43v.09c.05.63.48,1.12,1.05,1.29-.48.35-.71.97-.55,1.58l.03.09c.17.61.7,1,1.29,1.05-.4.45-.5,1.11-.2,1.67l.04.08c.3.56.9.83,1.49.74-.29.53-.24,1.22.19,1.7l.04.05c.41.48,1.06.63,1.62.42-.15.58.06,1.21.57,1.58l.08.05c.53.37,1.19.34,1.68-.01-.02.61.35,1.19.95,1.42l.1.04c.6.22,1.24.02,1.62-.44.14.59.65,1.06,1.29,1.13h.1s.06.01.09.01c.6.02,1.13-.34,1.37-.86.29.54.91.86,1.55.76,0,0,.07-.01.08-.01.64-.11,1.08-.61,1.17-1.21.41.44,1.08.6,1.66.34l.1-.05c.58-.27.89-.86.84-1.45.52.31,1.19.29,1.69-.11l.06-.05c.5-.4.66-1.05.45-1.62.58.19,1.24.01,1.64-.49l.05-.06c.39-.49.41-1.16.11-1.66.59.05,1.18-.27,1.45-.84l.03-.06c.27-.56.15-1.22-.25-1.65.58-.08,1.07-.5,1.23-1.1l.02-.09c.15-.61-.12-1.21-.61-1.54.56-.19.97-.71,1-1.34v-.13s0-.02,0-.02Z"/>
          <g>
            <g>
              <polyline class="cls-5" points="152.06 35.54 140.97 30.74 140.97 25.89 132.8 25.89 132.8 30.74 121.68 35.61"/>
              <polygon class="cls-5" points="136.88 34.05 140.97 30.74 140.97 25.89 132.8 25.89 132.8 30.74 136.88 34.05"/>
              <polygon class="cls-5" points="136.88 34.05 134 36.42 131.32 31.35 132.8 30.05 136.88 34.05"/>
              <polygon class="cls-5" points="136.88 34.05 139.77 36.42 142.45 31.35 140.97 30.05 136.88 34.05"/>
              <polyline class="cls-6" points="138.77 35.59 137.89 37.45 136.88 37.45 135.88 37.45 135 35.59"/>
              <line class="cls-6" x1="138.57" y1="42.55" x2="137.89" y2="37.45"/>
              <line class="cls-6" x1="135.88" y1="37.45" x2="135.2" y2="42.55"/>
            </g>
            <path class="cls-5" d="m143.59,17.9c0,4.8,0-1.61,0,3.2-.18,3.85-3.15,7.59-6.68,7.57-3.5-.02-6.42-3.75-6.6-7.57,0-4.8,0,.87,0-3.94"/>
            <path class="cls-5" d="m130.31,17.17s2.91-1.58,3.79-4.31c0,0,2.85,4.64,9.49,5.07"/>
          </g>
        </g>
      </g>
      <g>
        <path class="cls-3" d="m61.05,19.74c11.27,0,20.45,9.08,20.55,20.37.1,10.85-8.22,19.81-18.87,20.67-.5.04-1,.07-1.5.07-.07,0-.14,0-.21,0-.56,0-1.11-.03-1.66-.07-10.48-.85-18.77-9.58-18.87-20.3-.1-11.35,9.02-20.64,20.37-20.75.06,0,.13,0,.19,0m0-1.5v1.5-1.5h-.2c-12.16.11-21.97,10.1-21.86,22.26.11,11.49,8.81,20.85,20.25,21.78.6.05,1.2.08,1.78.08h.23c.55,0,1.1-.03,1.62-.08,11.45-.93,20.34-10.67,20.24-22.18-.11-12.05-10-21.86-22.05-21.86h0Z"/>
        <g>
          <path class="cls-4" d="m73.68,39.62c.02-.62-.35-1.17-.89-1.4.5-.31.79-.9.68-1.52v-.07c-.12-.62-.59-1.08-1.17-1.2.42-.4.58-1.03.36-1.61l-.04-.1c-.24-.58-.81-.92-1.4-.9.35-.5.37-1.17,0-1.7l-.04-.05c-.36-.53-1-.75-1.59-.6.22-.56.08-1.23-.39-1.66,0,0-.03-.03-.03-.03-.47-.42-1.13-.49-1.66-.22.08-.59-.21-1.2-.77-1.5l-.07-.04c-.56-.3-1.24-.2-1.69.2-.07-.6-.52-1.12-1.14-1.27,0,0-.07-.02-.08-.02-.63-.14-1.23.15-1.55.67-.21-.57-.76-.98-1.41-.96h-.12c-.64.03-1.16.46-1.34,1.03-.36-.49-1-.71-1.62-.53l-.09.03c-.61.19-.99.74-1.01,1.34-.48-.38-1.16-.44-1.71-.1l-.05.03c-.54.33-.8.96-.68,1.55-.55-.24-1.21-.13-1.65.32l-.05.05c-.44.45-.54,1.11-.29,1.65-.58-.1-1.19.14-1.52.67l-.05.08c-.33.54-.26,1.19.11,1.66-.59.01-1.15.38-1.36.97l-.03.09c-.21.6,0,1.22.45,1.6-.57.13-1.04.61-1.13,1.23v.1c-.1.63.23,1.2.75,1.47-.54.25-.89.81-.86,1.43v.09c.05.63.48,1.12,1.05,1.29-.48.35-.71.97-.55,1.58l.03.09c.17.61.7,1,1.29,1.05-.4.45-.5,1.11-.2,1.67l.04.08c.3.56.9.83,1.49.74-.29.53-.24,1.22.19,1.7l.04.05c.41.48,1.06.63,1.62.42-.15.58.06,1.21.57,1.58l.08.05c.53.37,1.19.34,1.68-.01-.02.61.35,1.19.95,1.42l.1.04c.6.22,1.24.02,1.62-.44.14.59.65,1.06,1.29,1.13h.1s.06.01.09.01c.6.02,1.13-.34,1.37-.86.29.54.91.86,1.55.76,0,0,.07-.01.08-.01.64-.11,1.08-.61,1.17-1.21.41.44,1.08.6,1.66.34l.1-.05c.58-.27.89-.86.84-1.45.52.31,1.19.29,1.69-.11l.06-.05c.5-.4.66-1.05.45-1.62.58.19,1.24.01,1.64-.49l.05-.06c.39-.49.41-1.16.11-1.66.59.05,1.18-.27,1.45-.84l.03-.06c.27-.56.15-1.22-.25-1.65.58-.08,1.07-.5,1.23-1.1l.02-.09c.15-.61-.12-1.21-.61-1.54.56-.19.97-.71,1-1.34v-.13s0-.02,0-.02Z"/>
          <g>
            <g>
              <polyline class="cls-5" points="76.23 53.79 65.14 48.98 65.14 44.13 56.96 44.13 56.96 48.98 45.84 53.85"/>
              <polygon class="cls-5" points="61.05 52.29 65.14 48.98 65.14 44.13 56.96 44.13 56.96 48.98 61.05 52.29"/>
              <polygon class="cls-5" points="61.05 52.29 58.16 54.67 55.48 49.59 56.96 48.29 61.05 52.29"/>
              <polygon class="cls-5" points="61.05 52.29 63.94 54.67 66.62 49.59 65.14 48.29 61.05 52.29"/>
              <polyline class="cls-6" points="62.93 53.84 62.05 55.7 61.05 55.7 60.05 55.7 59.17 53.84"/>
              <line class="cls-6" x1="62.74" y1="60.79" x2="62.05" y2="55.7"/>
              <line class="cls-6" x1="60.05" y1="55.7" x2="59.36" y2="60.79"/>
            </g>
            <path class="cls-5" d="m67.76,36.14c0,4.8,0-1.61,0,3.2-.18,3.85-3.15,7.59-6.68,7.57-3.5-.02-6.42-3.75-6.6-7.57,0-4.8,0,.87,0-3.94"/>
            <path class="cls-5" d="m54.48,35.41s2.91-1.58,3.79-4.31c0,0,2.85,4.64,9.49,5.07"/>
          </g>
        </g>
      </g>
      <g>
        <path class="cls-3" d="m221.29,112.55c11.27,0,20.45,9.08,20.55,20.37.1,10.85-8.22,19.81-18.87,20.67-.5.04-1,.07-1.5.07-.07,0-.14,0-.21,0-.56,0-1.11-.03-1.66-.07-10.48-.85-18.77-9.58-18.87-20.3-.1-11.35,9.02-20.64,20.37-20.75.06,0,.13,0,.19,0m0-1.5h-.2c-12.16.11-21.97,10.1-21.86,22.26.11,11.49,8.81,20.85,20.25,21.78.6.05,1.2.08,1.78.08h.23c.55,0,1.1-.03,1.62-.08,11.45-.93,20.34-10.67,20.24-22.18-.11-12.05-10-21.86-22.05-21.86h0Z"/>
        <g>
          <path class="cls-4" d="m233.92,132.42c.02-.62-.35-1.17-.89-1.4.5-.31.79-.9.68-1.52v-.07c-.12-.62-.59-1.08-1.17-1.2.42-.4.58-1.03.36-1.61l-.04-.1c-.24-.58-.81-.92-1.4-.9.35-.5.37-1.17,0-1.7l-.04-.05c-.36-.53-1-.75-1.59-.6.22-.56.08-1.23-.39-1.66,0,0-.03-.03-.03-.03-.47-.42-1.13-.49-1.66-.22.08-.59-.21-1.2-.77-1.5l-.07-.04c-.56-.3-1.24-.2-1.69.2-.07-.6-.52-1.12-1.14-1.27,0,0-.07-.02-.08-.02-.63-.14-1.23.15-1.55.67-.21-.57-.76-.98-1.41-.96h-.12c-.64.03-1.16.46-1.34,1.03-.36-.49-1-.71-1.62-.53l-.09.03c-.61.19-.99.74-1.01,1.34-.48-.38-1.16-.44-1.71-.1l-.05.03c-.54.33-.8.96-.68,1.55-.55-.24-1.21-.13-1.65.32l-.05.05c-.44.45-.54,1.11-.29,1.65-.58-.1-1.19.14-1.52.67l-.05.08c-.33.54-.26,1.19.11,1.66-.59.01-1.15.38-1.36.97l-.03.09c-.21.6,0,1.22.45,1.6-.57.13-1.04.61-1.13,1.23v.1c-.1.63.23,1.2.75,1.47-.54.25-.89.81-.86,1.43v.09c.05.63.48,1.12,1.05,1.29-.48.35-.71.97-.55,1.58l.03.09c.17.61.7,1,1.29,1.05-.4.45-.5,1.11-.2,1.67l.04.08c.3.56.9.83,1.49.74-.29.53-.24,1.22.19,1.7l.04.05c.41.48,1.06.63,1.62.42-.15.58.06,1.21.57,1.58l.08.05c.53.37,1.19.34,1.68-.01-.02.61.35,1.19.95,1.42l.1.04c.6.22,1.24.02,1.62-.44.14.59.65,1.06,1.29,1.13h.1s.06.01.09.01c.6.02,1.13-.34,1.37-.86.29.54.91.86,1.55.76,0,0,.07-.01.08-.01.64-.11,1.08-.61,1.17-1.21.41.44,1.08.6,1.66.34l.1-.05c.58-.27.89-.86.84-1.45.52.31,1.19.29,1.69-.11l.06-.05c.5-.4.66-1.05.45-1.62.58.19,1.24.01,1.64-.49l.05-.06c.39-.49.41-1.16.11-1.66.59.05,1.18-.27,1.45-.84l.03-.06c.27-.56.15-1.22-.25-1.65.58-.08,1.07-.5,1.23-1.1l.02-.09c.15-.61-.12-1.21-.61-1.54.56-.19.97-.71,1-1.34v-.13s0-.02,0-.02Z"/>
          <g>
            <g>
              <polyline class="cls-5" points="236.46 146.59 225.37 141.79 225.37 136.94 217.2 136.94 217.2 141.79 206.08 146.66"/>
              <polygon class="cls-5" points="221.29 145.1 225.37 141.79 225.37 136.94 217.2 136.94 217.2 141.79 221.29 145.1"/>
              <polygon class="cls-5" points="221.29 145.1 218.4 147.47 215.72 142.4 217.2 141.1 221.29 145.1"/>
              <polygon class="cls-5" points="221.29 145.1 224.17 147.47 226.85 142.4 225.37 141.1 221.29 145.1"/>
              <polyline class="cls-6" points="223.17 146.64 222.29 148.5 221.29 148.5 220.28 148.5 219.4 146.64"/>
              <line class="cls-6" x1="222.97" y1="153.6" x2="222.29" y2="148.5"/>
              <line class="cls-6" x1="220.28" y1="148.5" x2="219.6" y2="153.6"/>
            </g>
            <path class="cls-5" d="m227.99,128.95c0,4.8,0-1.61,0,3.2-.18,3.85-3.15,7.59-6.68,7.57-3.5-.02-6.42-3.75-6.6-7.57,0-4.8,0,.87,0-3.94"/>
            <path class="cls-5" d="m214.71,128.22s2.91-1.58,3.79-4.31c0,0,2.85,4.64,9.49,5.07"/>
          </g>
        </g>
      </g>
      <g>
        <path class="cls-3" d="m135.89,132.55c11.27,0,20.45,9.08,20.55,20.37.1,10.85-8.22,19.81-18.87,20.67-.5.04-1,.07-1.5.07-.07,0-.14,0-.21,0-.56,0-1.11-.03-1.66-.07-10.48-.85-18.77-9.58-18.87-20.3-.1-11.35,9.02-20.64,20.37-20.75.06,0,.13,0,.19,0m0-1.5v1.5-1.5h-.2c-12.16.11-21.97,10.1-21.86,22.26.11,11.49,8.81,20.85,20.25,21.78.61.05,1.21.08,1.78.08h.23c.55,0,1.1-.03,1.62-.08,11.45-.93,20.34-10.67,20.24-22.18-.11-12.05-10-21.86-22.05-21.86h0Z"/>
        <g>
          <path class="cls-4" d="m148.52,152.42c.02-.62-.35-1.17-.89-1.4.5-.31.79-.9.68-1.52v-.07c-.12-.62-.59-1.08-1.17-1.2.42-.4.58-1.03.36-1.61l-.04-.1c-.24-.58-.81-.92-1.4-.9.35-.5.37-1.17,0-1.7l-.04-.05c-.36-.53-1-.75-1.59-.6.22-.56.08-1.23-.39-1.66,0,0-.03-.03-.03-.03-.47-.42-1.13-.49-1.66-.22.08-.59-.21-1.2-.77-1.5l-.07-.04c-.56-.3-1.24-.2-1.69.2-.07-.6-.52-1.12-1.14-1.27,0,0-.07-.02-.08-.02-.63-.14-1.23.15-1.55.67-.21-.57-.76-.98-1.41-.96h-.12c-.64.03-1.16.46-1.34,1.03-.36-.49-1-.71-1.62-.53l-.09.03c-.61.19-.99.74-1.01,1.34-.48-.38-1.16-.44-1.71-.1l-.05.03c-.54.33-.8.96-.68,1.55-.55-.24-1.21-.13-1.65.32l-.05.05c-.44.45-.54,1.11-.29,1.65-.58-.1-1.19.14-1.52.67l-.05.08c-.33.54-.26,1.19.11,1.66-.59.01-1.15.38-1.36.97l-.03.09c-.21.6,0,1.22.45,1.6-.57.13-1.04.61-1.13,1.23v.1c-.1.63.23,1.2.75,1.47-.54.25-.89.81-.86,1.43v.09c.05.63.48,1.12,1.05,1.29-.48.35-.71.97-.55,1.58l.03.09c.17.61.7,1,1.29,1.05-.4.45-.5,1.11-.2,1.67l.04.08c.3.56.9.83,1.49.74-.29.53-.24,1.22.19,1.7l.04.05c.41.48,1.06.63,1.62.42-.15.58.06,1.21.57,1.58l.08.05c.53.37,1.19.34,1.68-.01-.02.61.35,1.19.95,1.42l.1.04c.6.22,1.24.02,1.62-.44.14.59.65,1.06,1.29,1.13h.1s.06.01.09.01c.6.02,1.13-.34,1.37-.86.29.54.91.86,1.55.76,0,0,.07-.01.08-.01.64-.11,1.08-.61,1.17-1.21.41.44,1.08.6,1.66.34l.1-.05c.58-.27.89-.86.84-1.45.52.31,1.19.29,1.69-.11l.06-.05c.5-.4.66-1.05.45-1.62.58.19,1.24.01,1.64-.49l.05-.06c.39-.49.41-1.16.11-1.66.59.05,1.18-.27,1.45-.84l.03-.06c.27-.56.15-1.22-.25-1.65.58-.08,1.07-.5,1.23-1.1l.02-.09c.15-.61-.12-1.21-.61-1.54.56-.19.97-.71,1-1.34v-.13s0-.02,0-.02Z"/>
          <g>
            <g>
              <polyline class="cls-5" points="151.06 166.59 139.97 161.79 139.97 156.94 131.8 156.94 131.8 161.79 120.68 166.66"/>
              <polygon class="cls-5" points="135.88 165.1 139.97 161.79 139.97 156.94 131.8 156.94 131.8 161.79 135.88 165.1"/>
              <polygon class="cls-5" points="135.88 165.1 133 167.47 130.31 162.4 131.8 161.1 135.88 165.1"/>
              <polygon class="cls-5" points="135.88 165.1 138.77 167.47 141.45 162.4 139.97 161.1 135.88 165.1"/>
              <polyline class="cls-6" points="137.76 166.65 136.88 168.5 135.88 168.5 134.88 168.5 134 166.65"/>
              <line class="cls-6" x1="137.57" y1="173.6" x2="136.88" y2="168.5"/>
              <line class="cls-6" x1="134.88" y1="168.5" x2="134.2" y2="173.6"/>
            </g>
            <path class="cls-5" d="m142.59,148.95c0,4.8,0-1.61,0,3.2-.18,3.85-3.15,7.59-6.68,7.57-3.5-.02-6.42-3.75-6.6-7.57,0-4.8,0,.87,0-3.94"/>
            <path class="cls-5" d="m129.31,148.22s2.91-1.58,3.79-4.31c0,0,2.85,4.64,9.49,5.07"/>
          </g>
        </g>
      </g>
      <g>
        <line class="cls-6" x1="152.06" y1="52.54" x2="201.06" y2="113.77"/>
        <polygon points="193.17 113.72 193.39 112.24 200.7 113.32 201.25 105.95 202.75 106.06 202.08 115.04 193.17 113.72"/>
      </g>
      <g>
        <line class="cls-6" x1="136.87" y1="55.61" x2="136.21" y2="122.82"/>
        <polygon points="130.13 117.79 131.24 116.78 136.22 122.24 141.31 116.87 142.4 117.91 136.2 124.45 130.13 117.79"/>
      </g>
      <g>
        <line class="cls-6" x1="124.56" y1="52.29" x2="86.72" y2="108.83"/>
        <polygon points="84.39 101.29 85.87 101.05 87.04 108.35 94.24 106.65 94.58 108.11 85.82 110.18 84.39 101.29"/>
      </g>
      <g>
        <line class="cls-6" x1="111.22" y1="43.11" x2="93.25" y2="43.11"/>
        <polygon points="98.22 36.97 99.24 38.07 93.82 43.11 99.24 48.14 98.22 49.24 91.62 43.11 98.22 36.97"/>
      </g>
      <g>
        <line class="cls-6" x1="161.43" y1="43.11" x2="180.35" y2="43.11"/>
        <polygon points="175.38 49.24 174.35 48.14 179.77 43.11 174.35 38.07 175.38 36.97 181.97 43.11 175.38 49.24"/>
      </g>
      <g>
        <polygon class="cls-1" points="126.38 203.48 117.99 202.03 117.99 195.66 123.16 196.1 124.55 200.77 126.38 203.48"/>
        <path class="cls-2" d="m120.33,194.78c.98-.36,2.31.09,3.25,1.66.71,1.18.74,3.4.89,3.85.29.9,1.27,1.93,3.25,1.51,0,0-.16,1.49-1.29,1.71"/>
        <path class="cls-2" d="m122.76,187.11c0,3.56-2.88,6.44-6.44,6.44s-6.44-2.88-6.44-6.44,2.88-6.49,6.44-6.49,6.44,2.94,6.44,6.49Z"/>
        <g>
          <path class="cls-5" d="m130.03,206.2c-.18-.92-.83-1.7-1.76-2.08l-8.8-2.96v-4.39h-6.28v4.39l-8.8,2.96c-.92.37-1.58,1.15-1.76,2.08"/>
          <path class="cls-5" d="m122.42,188.35c0,4.41,0-.81,0,3.6-.16,3.53-2.89,6.97-6.13,6.95-3.21-.02-5.89-3.44-6.05-6.95,0-4.41,0,.89,0-3.51l5.62-.06c1.38-.02,2.6-.93,2.99-2.26l.15-.49.04.19c.31,1.59,1.78,2.68,3.39,2.54h0Z"/>
          <path class="cls-5" d="m108.91,202.76s2.35,3.24,7.41,3.24,7.41-3.24,7.41-3.24"/>
        </g>
      </g>
      <g>
        <polygon class="cls-1" points="165.79 203.14 157.4 201.68 157.4 195.31 162.58 195.75 163.96 200.42 165.79 203.14"/>
        <path class="cls-2" d="m159.74,194.43c.98-.36,2.31.09,3.25,1.66.71,1.18.74,3.4.89,3.85.29.9,1.27,1.93,3.25,1.51,0,0-.16,1.49-1.29,1.71"/>
        <path class="cls-2" d="m162.18,186.76c0,3.56-2.88,6.44-6.44,6.44s-6.44-2.88-6.44-6.44,2.88-6.49,6.44-6.49,6.44,2.94,6.44,6.49Z"/>
        <g>
          <path class="cls-5" d="m169.44,205.86c-.18-.92-.83-1.7-1.76-2.08l-8.8-2.96v-4.39h-6.28v4.39l-8.8,2.96c-.92.37-1.58,1.15-1.76,2.08"/>
          <path class="cls-5" d="m161.84,188c0,4.41,0-.81,0,3.6-.16,3.53-2.89,6.97-6.13,6.95-3.21-.02-5.89-3.44-6.05-6.95,0-4.41,0,.89,0-3.51l5.62-.06c1.38-.02,2.6-.93,2.99-2.26l.15-.49.04.19c.31,1.59,1.78,2.68,3.39,2.54h0Z"/>
          <path class="cls-5" d="m148.33,202.42s2.35,3.24,7.41,3.24,7.41-3.24,7.41-3.24"/>
        </g>
      </g>
      <g>
        <polygon class="cls-1" points="69.53 186.54 61.14 185.09 61.14 178.71 66.31 179.16 67.7 183.82 69.53 186.54"/>
        <path class="cls-2" d="m63.48,177.84c.98-.36,2.31.09,3.25,1.66.71,1.18.74,3.4.89,3.85.29.9,1.27,1.93,3.25,1.51,0,0-.16,1.49-1.29,1.71"/>
        <path class="cls-2" d="m65.92,170.17c0,3.56-2.88,6.44-6.44,6.44s-6.44-2.88-6.44-6.44,2.88-6.49,6.44-6.49,6.44,2.94,6.44,6.49Z"/>
        <g>
          <path class="cls-5" d="m73.18,189.26c-.18-.92-.83-1.7-1.76-2.08l-8.8-2.96v-4.39h-6.28v4.39l-8.8,2.96c-.92.37-1.58,1.15-1.76,2.08"/>
          <path class="cls-5" d="m65.58,171.4c0,4.41,0-.81,0,3.6-.16,3.53-2.89,6.97-6.13,6.95-3.21-.02-5.89-3.44-6.05-6.95,0-4.41,0,.89,0-3.51l5.62-.06c1.38-.02,2.6-.93,2.99-2.26l.15-.49.04.19c.31,1.59,1.78,2.68,3.39,2.54h0Z"/>
          <path class="cls-5" d="m52.07,185.82s2.35,3.24,7.41,3.24,7.41-3.24,7.41-3.24"/>
        </g>
      </g>
      <g>
        <polygon class="cls-1" points="24.5 59.06 16.11 57.61 16.11 51.24 21.28 51.68 22.67 56.35 24.5 59.06"/>
        <path class="cls-2" d="m18.45,50.36c.98-.36,2.31.09,3.25,1.66.71,1.18.74,3.4.89,3.85.29.9,1.27,1.93,3.25,1.51,0,0-.16,1.49-1.29,1.71"/>
        <path class="cls-2" d="m20.89,42.69c0,3.56-2.88,6.44-6.44,6.44s-6.44-2.88-6.44-6.44,2.88-6.49,6.44-6.49,6.44,2.94,6.44,6.49Z"/>
        <g>
          <path class="cls-5" d="m28.15,61.79c-.18-.92-.83-1.7-1.76-2.08l-8.8-2.96v-4.39h-6.28v4.39l-8.8,2.96c-.92.37-1.58,1.15-1.76,2.08"/>
          <path class="cls-5" d="m20.54,43.93c0,4.41,0-.81,0,3.6-.16,3.53-2.89,6.97-6.13,6.95-3.21-.02-5.89-3.44-6.05-6.95,0-4.41,0,.89,0-3.51l5.62-.06c1.38-.02,2.6-.93,2.99-2.26l.15-.49.04.19c.31,1.59,1.78,2.68,3.39,2.54h0Z"/>
          <path class="cls-5" d="m7.04,58.35s2.35,3.24,7.41,3.24,7.41-3.24,7.41-3.24"/>
        </g>
      </g>
      <g>
        <g>
          <polygon class="cls-1" points="77.36 146.59 68.97 145.13 68.97 138.76 74.15 139.2 75.53 143.87 77.36 146.59"/>
          <path class="cls-2" d="m71.32,137.88c.98-.36,2.31.09,3.25,1.66.71,1.18.74,3.4.89,3.85.29.9,1.27,1.93,3.25,1.51,0,0-.16,1.49-1.29,1.71"/>
          <path class="cls-2" d="m73.75,130.21c0,3.56-2.88,6.44-6.44,6.44s-6.44-2.88-6.44-6.44,2.88-6.49,6.44-6.49,6.44,2.94,6.44,6.49Z"/>
          <g>
            <path class="cls-5" d="m81.02,149.31c-.18-.92-.83-1.7-1.76-2.08l-8.8-2.96v-4.39h-6.28v4.39l-8.8,2.96c-.92.37-1.58,1.15-1.76,2.08"/>
            <path class="cls-5" d="m73.41,131.45c0,4.41,0-.81,0,3.6-.16,3.53-2.89,6.97-6.13,6.95-3.21-.02-5.89-3.44-6.05-6.95,0-4.41,0,.89,0-3.51l5.62-.06c1.38-.02,2.6-.93,2.99-2.26l.15-.49.04.19c.31,1.59,1.78,2.68,3.39,2.54h0Z"/>
            <path class="cls-5" d="m59.9,145.87s2.35,3.24,7.41,3.24,7.41-3.24,7.41-3.24"/>
          </g>
        </g>
        <path class="cls-3" d="m67.32,113.34c11.27,0,20.45,9.08,20.55,20.37.1,10.85-8.22,19.81-18.87,20.67-.5.04-1,.07-1.5.07-.07,0-.14,0-.21,0-.56,0-1.11-.03-1.66-.07-10.48-.85-18.77-9.58-18.87-20.3-.1-11.35,9.02-20.64,20.37-20.75.06,0,.13,0,.19,0m0-1.5h-.2c-12.16.11-21.97,10.1-21.86,22.26.11,11.49,8.81,20.85,20.25,21.78.61.05,1.21.08,1.78.08h.23c.55,0,1.09-.03,1.61-.08,11.45-.93,20.34-10.67,20.24-22.18-.11-12.05-10-21.86-22.05-21.86h0Z"/>
      </g>
      <g>
        <g>
          <polygon class="cls-1" points="219.25 60.82 210.86 59.36 210.86 52.99 216.03 53.44 217.42 58.1 219.25 60.82"/>
          <path class="cls-2" d="m213.2,52.11c.98-.36,2.31.09,3.25,1.66.71,1.18.74,3.4.89,3.85.29.9,1.27,1.93,3.25,1.51,0,0-.16,1.49-1.29,1.71"/>
          <path class="cls-2" d="m215.63,44.44c0,3.56-2.88,6.44-6.44,6.44s-6.44-2.88-6.44-6.44,2.88-6.49,6.44-6.49,6.44,2.94,6.44,6.49Z"/>
          <g>
            <path class="cls-5" d="m222.9,63.54c-.18-.92-.83-1.7-1.76-2.08l-8.8-2.96v-4.39h-6.28v4.39l-8.8,2.96c-.92.37-1.58,1.15-1.76,2.08"/>
            <path class="cls-5" d="m215.29,45.68c0,4.41,0-.81,0,3.6-.16,3.53-2.89,6.97-6.13,6.95-3.21-.02-5.89-3.44-6.05-6.95,0-4.41,0,.89,0-3.51l5.62-.06c1.38-.02,2.6-.93,2.99-2.26l.15-.49.04.19c.31,1.59,1.78,2.68,3.39,2.54h0Z"/>
            <path class="cls-5" d="m201.78,60.1s2.35,3.24,7.41,3.24,7.41-3.24,7.41-3.24"/>
          </g>
        </g>
        <path class="cls-3" d="m209.2,27.57c11.27,0,20.45,9.08,20.55,20.37.1,10.85-8.22,19.81-18.87,20.67-.5.04-1,.07-1.5.07-.07,0-.14,0-.21,0-.56,0-1.11-.03-1.66-.07-10.48-.85-18.77-9.58-18.87-20.3-.1-11.35,9.02-20.64,20.37-20.75.06,0,.13,0,.19,0m0-1.5h-.2c-12.16.11-21.97,10.1-21.86,22.26.11,11.49,8.81,20.85,20.25,21.78.6.05,1.2.08,1.78.08h.23c.55,0,1.1-.03,1.62-.08,11.45-.93,20.34-10.67,20.24-22.18-.11-12.05-10-21.86-22.05-21.86h0Z"/>
      </g>
      <g>
        <path class="cls-4" d="m52.38,79.35c.02-.62-.35-1.17-.89-1.4.5-.31.79-.9.68-1.52v-.07c-.12-.62-.59-1.08-1.17-1.2.42-.4.58-1.03.36-1.61l-.04-.1c-.24-.58-.81-.92-1.4-.9.35-.5.37-1.17,0-1.7l-.04-.05c-.36-.53-1-.75-1.59-.6.22-.56.08-1.23-.39-1.66,0,0-.03-.03-.03-.03-.47-.42-1.13-.49-1.66-.22.08-.59-.21-1.2-.77-1.5l-.07-.04c-.56-.3-1.24-.2-1.69.2-.07-.6-.52-1.12-1.14-1.27,0,0-.07-.02-.08-.02-.63-.14-1.23.15-1.55.67-.21-.57-.76-.98-1.41-.96h-.12c-.64.03-1.16.46-1.34,1.03-.36-.49-1-.71-1.62-.53l-.09.03c-.61.19-.99.74-1.01,1.34-.48-.38-1.16-.44-1.71-.1l-.05.03c-.54.33-.8.96-.68,1.55-.55-.24-1.21-.13-1.65.32l-.05.05c-.44.45-.54,1.11-.29,1.65-.58-.1-1.19.14-1.52.67l-.05.08c-.33.54-.26,1.19.11,1.66-.59.01-1.15.38-1.36.97l-.03.09c-.21.6,0,1.22.45,1.6-.57.13-1.04.61-1.13,1.23v.1c-.1.63.23,1.2.75,1.47-.54.25-.89.81-.86,1.43v.09c.05.63.48,1.12,1.05,1.29-.48.35-.71.97-.55,1.58l.03.09c.17.61.7,1,1.29,1.05-.4.45-.5,1.11-.2,1.67l.04.08c.3.56.9.83,1.49.74-.29.53-.24,1.22.19,1.7l.04.05c.41.48,1.06.63,1.62.42-.15.58.06,1.21.57,1.58l.08.05c.53.37,1.19.34,1.68-.01-.02.61.35,1.19.95,1.42l.1.04c.6.22,1.24.02,1.62-.44.14.59.65,1.06,1.29,1.13h.1s.06.01.09.01c.6.02,1.13-.34,1.37-.86.29.54.91.86,1.55.76,0,0,.07-.01.08-.01.64-.11,1.08-.61,1.17-1.21.41.44,1.08.6,1.66.34l.1-.05c.58-.27.89-.86.84-1.45.52.31,1.19.29,1.69-.11l.06-.05c.5-.4.66-1.05.45-1.62.58.19,1.24.01,1.64-.49l.05-.06c.39-.49.41-1.16.11-1.66.59.05,1.18-.27,1.45-.84l.03-.06c.27-.56.15-1.22-.25-1.65.58-.08,1.07-.5,1.23-1.1l.02-.09c.15-.61-.12-1.21-.61-1.54.56-.19.97-.71,1-1.34v-.13s0-.02,0-.02Z"/>
        <g>
          <g>
            <polyline class="cls-5" points="54.92 93.52 43.83 88.72 43.83 83.87 35.66 83.87 35.66 88.72 24.54 93.59"/>
            <polygon class="cls-5" points="39.75 92.03 43.83 88.72 43.83 83.87 35.66 83.87 35.66 88.72 39.75 92.03"/>
            <polygon class="cls-5" points="39.75 92.03 36.86 94.41 34.18 89.33 35.66 88.03 39.75 92.03"/>
            <polygon class="cls-5" points="39.75 92.03 42.64 94.41 45.32 89.33 43.83 88.03 39.75 92.03"/>
            <polyline class="cls-6" points="41.63 93.58 40.75 95.44 39.75 95.44 38.75 95.44 37.87 93.58"/>
            <line class="cls-6" x1="41.43" y1="100.53" x2="40.75" y2="95.44"/>
            <line class="cls-6" x1="38.75" y1="95.44" x2="38.06" y2="100.53"/>
          </g>
          <path class="cls-5" d="m46.45,75.88c0,4.8,0-1.61,0,3.2-.18,3.85-3.15,7.59-6.68,7.57-3.5-.02-6.42-3.75-6.6-7.57,0-4.8,0,.87,0-3.94"/>
          <path class="cls-5" d="m33.18,75.15s2.91-1.58,3.79-4.31c0,0,2.85,4.64,9.49,5.07"/>
        </g>
      </g>
      <g>
        <polygon class="cls-1" points="252.65 89.1 244.26 87.65 244.26 81.27 249.43 81.72 250.82 86.38 252.65 89.1"/>
        <path class="cls-2" d="m246.6,80.4c.98-.36,2.31.09,3.25,1.66.71,1.18.74,3.4.89,3.85.29.9,1.27,1.93,3.25,1.51,0,0-.16,1.49-1.29,1.71"/>
        <path class="cls-2" d="m249.04,72.73c0,3.56-2.88,6.44-6.44,6.44s-6.44-2.88-6.44-6.44,2.88-6.49,6.44-6.49,6.44,2.94,6.44,6.49Z"/>
        <g>
          <path class="cls-5" d="m256.3,91.82c-.18-.92-.83-1.7-1.76-2.08l-8.8-2.96v-4.39h-6.28v4.39l-8.8,2.96c-.92.37-1.58,1.15-1.76,2.08"/>
          <path class="cls-5" d="m248.69,73.96c0,4.41,0-.81,0,3.6-.16,3.53-2.89,6.97-6.13,6.95-3.21-.02-5.89-3.44-6.05-6.95,0-4.41,0,.89,0-3.51l5.62-.06c1.38-.02,2.6-.93,2.99-2.26l.15-.49.04.19c.31,1.59,1.78,2.68,3.39,2.54h0Z"/>
          <path class="cls-5" d="m235.18,88.38s2.35,3.24,7.41,3.24,7.41-3.24,7.41-3.24"/>
        </g>
      </g>
      <g>
        <path class="cls-4" d="m270.44,43.64c.02-.62-.35-1.17-.89-1.4.5-.31.79-.9.68-1.52v-.07c-.12-.62-.59-1.08-1.17-1.2.42-.4.58-1.03.36-1.61l-.04-.1c-.24-.58-.81-.92-1.4-.9.35-.5.37-1.17,0-1.7l-.04-.05c-.36-.53-1-.75-1.59-.6.22-.56.08-1.23-.39-1.66,0,0-.03-.03-.03-.03-.47-.42-1.13-.49-1.66-.22.08-.59-.21-1.2-.77-1.5l-.07-.04c-.56-.3-1.24-.2-1.69.2-.07-.6-.52-1.12-1.14-1.27,0,0-.07-.02-.08-.02-.63-.14-1.23.15-1.55.67-.21-.57-.76-.98-1.41-.96h-.12c-.64.03-1.16.46-1.34,1.03-.36-.49-1-.71-1.62-.53l-.09.03c-.61.19-.99.74-1.01,1.34-.48-.38-1.16-.44-1.71-.1l-.05.03c-.54.33-.8.96-.68,1.55-.55-.24-1.21-.13-1.65.32l-.05.05c-.44.45-.54,1.11-.29,1.65-.58-.1-1.19.14-1.52.67l-.05.08c-.33.54-.26,1.19.11,1.66-.59.01-1.15.38-1.36.97l-.03.09c-.21.6,0,1.22.45,1.6-.57.13-1.04.61-1.13,1.23v.1c-.1.63.23,1.2.75,1.47-.54.25-.89.81-.86,1.43v.09c.05.63.48,1.12,1.05,1.29-.48.35-.71.97-.55,1.58l.03.09c.17.61.7,1,1.29,1.05-.4.45-.5,1.11-.2,1.67l.04.08c.3.56.9.83,1.49.74-.29.53-.24,1.22.19,1.7l.04.05c.41.48,1.06.63,1.62.42-.15.58.06,1.21.57,1.58l.08.05c.53.37,1.19.34,1.68-.01-.02.61.35,1.19.95,1.42l.1.04c.6.22,1.24.02,1.62-.44.14.59.65,1.06,1.29,1.13h.1s.06.01.09.01c.6.02,1.13-.34,1.37-.86.29.54.91.86,1.55.76,0,0,.07-.01.08-.01.64-.11,1.08-.61,1.17-1.21.41.44,1.08.6,1.66.34l.1-.05c.58-.27.89-.86.84-1.45.52.31,1.19.29,1.69-.11l.06-.05c.5-.4.66-1.05.45-1.62.58.19,1.24.01,1.64-.49l.05-.06c.39-.49.41-1.16.11-1.66.59.05,1.18-.27,1.45-.84l.03-.06c.27-.56.15-1.22-.25-1.65.58-.08,1.07-.5,1.23-1.1l.02-.09c.15-.61-.12-1.21-.61-1.54.56-.19.97-.71,1-1.34v-.13s0-.02,0-.02Z"/>
        <g>
          <g>
            <polyline class="cls-5" points="272.98 57.81 261.89 53 261.89 48.15 253.72 48.15 253.72 53 242.6 57.88"/>
            <polygon class="cls-5" points="257.81 56.31 261.89 53 261.89 48.15 253.72 48.15 253.72 53 257.81 56.31"/>
            <polygon class="cls-5" points="257.81 56.31 254.92 58.69 252.24 53.61 253.72 52.32 257.81 56.31"/>
            <polygon class="cls-5" points="257.81 56.31 260.69 58.69 263.37 53.61 261.89 52.32 257.81 56.31"/>
            <polyline class="cls-6" points="259.69 57.86 258.81 59.72 257.81 59.72 256.8 59.72 255.92 57.86"/>
            <line class="cls-6" x1="259.49" y1="64.81" x2="258.81" y2="59.72"/>
            <line class="cls-6" x1="256.8" y1="59.72" x2="256.12" y2="64.81"/>
          </g>
          <path class="cls-5" d="m264.51,40.17c0,4.8,0-1.61,0,3.2-.18,3.85-3.15,7.59-6.68,7.57-3.5-.02-6.42-3.75-6.6-7.57,0-4.8,0,.87,0-3.94"/>
          <path class="cls-5" d="m251.23,39.44s2.91-1.58,3.79-4.31c0,0,2.85,4.64,9.49,5.07"/>
        </g>
      </g>
      <g>
        <path class="cls-4" d="m275.54,152.12c.02-.62-.35-1.17-.89-1.4.5-.31.79-.9.68-1.52v-.07c-.12-.62-.59-1.08-1.17-1.2.42-.4.58-1.03.36-1.61l-.04-.1c-.24-.58-.81-.92-1.4-.9.35-.5.37-1.17,0-1.7l-.04-.05c-.36-.53-1-.75-1.59-.6.22-.56.08-1.23-.39-1.66,0,0-.03-.03-.03-.03-.47-.42-1.13-.49-1.66-.22.08-.59-.21-1.2-.77-1.5l-.07-.04c-.56-.3-1.24-.2-1.69.2-.07-.6-.52-1.12-1.14-1.27,0,0-.07-.02-.08-.02-.63-.14-1.23.15-1.55.67-.21-.57-.76-.98-1.41-.96h-.12c-.64.03-1.16.46-1.34,1.03-.36-.49-1-.71-1.62-.53l-.09.03c-.61.19-.99.74-1.01,1.34-.48-.38-1.16-.44-1.71-.1l-.05.03c-.54.33-.8.96-.68,1.55-.55-.24-1.21-.13-1.65.32l-.05.05c-.44.45-.54,1.11-.29,1.65-.58-.1-1.19.14-1.52.67l-.05.08c-.33.54-.26,1.19.11,1.66-.59.01-1.15.38-1.36.97l-.03.09c-.21.6,0,1.22.45,1.6-.57.13-1.04.61-1.13,1.23v.1c-.1.63.23,1.2.75,1.47-.54.25-.89.81-.86,1.43v.09c.05.63.48,1.12,1.05,1.29-.48.35-.71.97-.55,1.58l.03.09c.17.61.7,1,1.29,1.05-.4.45-.5,1.11-.2,1.67l.04.08c.3.56.9.83,1.49.74-.29.53-.24,1.22.19,1.7l.04.05c.41.48,1.06.63,1.62.42-.15.58.06,1.21.57,1.58l.08.05c.53.37,1.19.34,1.68-.01-.02.61.35,1.19.95,1.42l.1.04c.6.22,1.24.02,1.62-.44.14.59.65,1.06,1.29,1.13h.1s.06.01.09.01c.6.02,1.13-.34,1.37-.86.29.54.91.86,1.55.76,0,0,.07-.01.08-.01.64-.11,1.08-.61,1.17-1.21.41.44,1.08.6,1.66.34l.1-.05c.58-.27.89-.86.84-1.45.52.31,1.19.29,1.69-.11l.06-.05c.5-.4.66-1.05.45-1.62.58.19,1.24.01,1.64-.49l.05-.06c.39-.49.41-1.16.11-1.66.59.05,1.18-.27,1.45-.84l.03-.06c.27-.56.15-1.22-.25-1.65.58-.08,1.07-.5,1.23-1.1l.02-.09c.15-.61-.12-1.21-.61-1.54.56-.19.97-.71,1-1.34v-.13s0-.02,0-.02Z"/>
        <g>
          <g>
            <polyline class="cls-5" points="278.08 166.29 266.99 161.48 266.99 156.63 258.82 156.63 258.82 161.48 247.7 166.36"/>
            <polygon class="cls-5" points="262.91 164.8 266.99 161.48 266.99 156.63 258.82 156.63 258.82 161.48 262.91 164.8"/>
            <polygon class="cls-5" points="262.91 164.8 260.02 167.17 257.34 162.09 258.82 160.8 262.91 164.8"/>
            <polygon class="cls-5" points="262.91 164.8 265.8 167.17 268.48 162.09 266.99 160.8 262.91 164.8"/>
            <polyline class="cls-6" points="264.79 166.34 263.91 168.2 262.91 168.2 261.91 168.2 261.03 166.34"/>
            <line class="cls-6" x1="264.59" y1="173.29" x2="263.91" y2="168.2"/>
            <line class="cls-6" x1="261.91" y1="168.2" x2="261.22" y2="173.29"/>
          </g>
          <path class="cls-5" d="m269.61,148.65c0,4.8,0-1.61,0,3.2-.18,3.85-3.15,7.59-6.68,7.57-3.5-.02-6.42-3.75-6.6-7.57,0-4.8,0,.87,0-3.94"/>
          <path class="cls-5" d="m256.33,147.92s2.91-1.58,3.79-4.31c0,0,2.85,4.64,9.49,5.07"/>
        </g>
      </g>
      <g>
        <path class="cls-4" d="m233.92,178.34c.02-.62-.35-1.17-.89-1.4.5-.31.79-.9.68-1.52v-.07c-.12-.62-.59-1.08-1.17-1.2.42-.4.58-1.03.36-1.61l-.04-.1c-.24-.58-.81-.92-1.4-.9.35-.5.37-1.17,0-1.7l-.04-.05c-.36-.53-1-.75-1.59-.6.22-.56.08-1.23-.39-1.66,0,0-.03-.03-.03-.03-.47-.42-1.13-.49-1.66-.22.08-.59-.21-1.2-.77-1.5l-.07-.04c-.56-.3-1.24-.2-1.69.2-.07-.6-.52-1.12-1.14-1.27,0,0-.07-.02-.08-.02-.63-.14-1.23.15-1.55.67-.21-.57-.76-.98-1.41-.96h-.12c-.64.03-1.16.46-1.34,1.03-.36-.49-1-.71-1.62-.53l-.09.03c-.61.19-.99.74-1.01,1.34-.48-.38-1.16-.44-1.71-.1l-.05.03c-.54.33-.8.96-.68,1.55-.55-.24-1.21-.13-1.65.32l-.05.05c-.44.45-.54,1.11-.29,1.65-.58-.1-1.19.14-1.52.67l-.05.08c-.33.54-.26,1.19.11,1.66-.59.01-1.15.38-1.36.97l-.03.09c-.21.6,0,1.22.45,1.6-.57.13-1.04.61-1.13,1.23v.1c-.1.63.23,1.2.75,1.47-.54.25-.89.81-.86,1.43v.09c.05.63.48,1.12,1.05,1.29-.48.35-.71.97-.55,1.58l.03.09c.17.61.7,1,1.29,1.05-.4.45-.5,1.11-.2,1.67l.04.08c.3.56.9.83,1.49.74-.29.53-.24,1.22.19,1.7l.04.05c.41.48,1.06.63,1.62.42-.15.58.06,1.21.57,1.58l.08.05c.53.37,1.19.34,1.68-.01-.02.61.35,1.19.95,1.42l.1.04c.6.22,1.24.02,1.62-.44.14.59.65,1.06,1.29,1.13h.1s.06.01.09.01c.6.02,1.13-.34,1.37-.86.29.54.91.86,1.55.76,0,0,.07-.01.08-.01.64-.11,1.08-.61,1.17-1.21.41.44,1.08.6,1.66.34l.1-.05c.58-.27.89-.86.84-1.45.52.31,1.19.29,1.69-.11l.06-.05c.5-.4.66-1.05.45-1.62.58.19,1.24.01,1.64-.49l.05-.06c.39-.49.41-1.16.11-1.66.59.05,1.18-.27,1.45-.84l.03-.06c.27-.56.15-1.22-.25-1.65.58-.08,1.07-.5,1.23-1.1l.02-.09c.15-.61-.12-1.21-.61-1.54.56-.19.97-.71,1-1.34v-.13s0-.02,0-.02Z"/>
        <g>
          <g>
            <polyline class="cls-5" points="236.46 192.51 225.37 187.71 225.37 182.86 217.2 182.86 217.2 187.71 206.08 192.58"/>
            <polygon class="cls-5" points="221.29 191.02 225.37 187.71 225.37 182.86 217.2 182.86 217.2 187.71 221.29 191.02"/>
            <polygon class="cls-5" points="221.29 191.02 218.4 193.39 215.72 188.32 217.2 187.02 221.29 191.02"/>
            <polygon class="cls-5" points="221.29 191.02 224.17 193.39 226.85 188.32 225.37 187.02 221.29 191.02"/>
            <polyline class="cls-6" points="223.17 192.56 222.29 194.42 221.29 194.42 220.28 194.42 219.4 192.56"/>
            <line class="cls-6" x1="222.97" y1="199.52" x2="222.29" y2="194.42"/>
            <line class="cls-6" x1="220.28" y1="194.42" x2="219.6" y2="199.52"/>
          </g>
          <path class="cls-5" d="m227.99,174.87c0,4.8,0-1.61,0,3.2-.18,3.85-3.15,7.59-6.68,7.57-3.5-.02-6.42-3.75-6.6-7.57,0-4.8,0,.87,0-3.94"/>
          <path class="cls-5" d="m214.71,174.14s2.91-1.58,3.79-4.31c0,0,2.85,4.64,9.49,5.07"/>
        </g>
      </g>
      <g>
        <path class="cls-4" d="m33.89,154.36c.02-.62-.35-1.17-.89-1.4.5-.31.79-.9.68-1.52v-.07c-.12-.62-.59-1.08-1.17-1.2.42-.4.58-1.03.36-1.61l-.04-.1c-.24-.58-.81-.92-1.4-.9.35-.5.37-1.17,0-1.7l-.04-.05c-.36-.53-1-.75-1.59-.6.22-.56.08-1.23-.39-1.66,0,0-.03-.03-.03-.03-.47-.42-1.13-.49-1.66-.22.08-.59-.21-1.2-.77-1.5l-.07-.04c-.56-.3-1.24-.2-1.69.2-.07-.6-.52-1.12-1.14-1.27,0,0-.07-.02-.08-.02-.63-.14-1.23.15-1.55.67-.21-.57-.76-.98-1.41-.96h-.12c-.64.03-1.16.46-1.34,1.03-.36-.49-1-.71-1.62-.53l-.09.03c-.61.19-.99.74-1.01,1.34-.48-.38-1.16-.44-1.71-.1l-.05.03c-.54.33-.8.96-.68,1.55-.55-.24-1.21-.13-1.65.32l-.05.05c-.44.45-.54,1.11-.29,1.65-.58-.1-1.19.14-1.52.67l-.05.08c-.33.54-.26,1.19.11,1.66-.59.01-1.15.38-1.36.97l-.03.09c-.21.6,0,1.22.45,1.6-.57.13-1.04.61-1.13,1.23v.1c-.1.63.23,1.2.75,1.47-.54.25-.89.81-.86,1.43v.09c.05.63.48,1.12,1.05,1.29-.48.35-.71.97-.55,1.58l.03.09c.17.61.7,1,1.29,1.05-.4.45-.5,1.11-.2,1.67l.04.08c.3.56.9.83,1.49.74-.29.53-.24,1.22.19,1.7l.04.05c.41.48,1.06.63,1.62.42-.15.58.06,1.21.57,1.58l.08.05c.53.37,1.19.34,1.68-.01-.02.61.35,1.19.95,1.42l.1.04c.6.22,1.24.02,1.62-.44.14.59.65,1.06,1.29,1.13h.1s.06.01.09.01c.6.02,1.13-.34,1.37-.86.29.54.91.86,1.55.76,0,0,.07-.01.08-.01.64-.11,1.08-.61,1.17-1.21.41.44,1.08.6,1.66.34l.1-.05c.58-.27.89-.86.84-1.45.52.31,1.19.29,1.69-.11l.06-.05c.5-.4.66-1.05.45-1.62.58.19,1.24.01,1.64-.49l.05-.06c.39-.49.41-1.16.11-1.66.59.05,1.18-.27,1.45-.84l.03-.06c.27-.56.15-1.22-.25-1.65.58-.08,1.07-.5,1.23-1.1l.02-.09c.15-.61-.12-1.21-.61-1.54.56-.19.97-.71,1-1.34v-.13s0-.02,0-.02Z"/>
        <g>
          <g>
            <polyline class="cls-5" points="36.44 168.53 25.35 163.72 25.35 158.87 17.17 158.87 17.17 163.72 6.05 168.6"/>
            <polygon class="cls-5" points="21.26 167.03 25.35 163.72 25.35 158.87 17.17 158.87 17.17 163.72 21.26 167.03"/>
            <polygon class="cls-5" points="21.26 167.03 18.37 169.41 15.69 164.33 17.17 163.03 21.26 167.03"/>
            <polygon class="cls-5" points="21.26 167.03 24.15 169.41 26.83 164.33 25.35 163.03 21.26 167.03"/>
            <polyline class="cls-6" points="23.14 168.58 22.26 170.44 21.26 170.44 20.26 170.44 19.38 168.58"/>
            <line class="cls-6" x1="22.95" y1="175.53" x2="22.26" y2="170.44"/>
            <line class="cls-6" x1="20.26" y1="170.44" x2="19.58" y2="175.53"/>
          </g>
          <path class="cls-5" d="m27.97,150.88c0,4.8,0-1.61,0,3.2-.18,3.85-3.15,7.59-6.68,7.57-3.5-.02-6.42-3.75-6.6-7.57,0-4.8,0,.87,0-3.94"/>
          <path class="cls-5" d="m14.69,150.15s2.91-1.58,3.79-4.31c0,0,2.85,4.64,9.49,5.07"/>
        </g>
      </g>
    </g>
  </g>
</svg>