<?xml version="1.0" encoding="UTF-8"?>
<svg id="Layer_2" data-name="Layer 2" xmlns="http://www.w3.org/2000/svg" viewBox="0 0 207.95 178.15">
  <defs>
    <style>
      .cls-1, .cls-2 {
        fill: #a59a6e;
      }

      .cls-3 {
        fill: #aa2734;
      }

      .cls-4 {
        fill: #54565a;
      }

      .cls-4, .cls-2, .cls-5, .cls-6 {
        stroke: #000;
        stroke-linecap: round;
        stroke-linejoin: round;
        stroke-width: 1.5px;
      }

      .cls-5 {
        fill: #fff;
      }

      .cls-6 {
        fill: none;
      }
    </style>
  </defs>
  <g id="Content">
    <g>
      <g>
        <g>
          <path class="cls-3" d="m96.12,1.5c11.18,0,20.29,9.01,20.39,20.22.1,10.77-8.16,19.66-18.72,20.51-.49.04-.99.07-1.49.07-.07,0-.14,0-.21,0-.55,0-1.1-.03-1.65-.07-10.4-.84-18.62-9.5-18.72-20.14-.1-11.27,8.95-20.48,20.21-20.59.06,0,.13,0,.19,0m0-1.5h-.2c-12.07.11-21.81,10.03-21.7,22.1.1,11.41,8.75,20.7,20.1,21.62.6.05,1.19.07,1.77.07h.23c.55,0,1.09-.03,1.6-.08,11.36-.92,20.19-10.59,20.09-22.02-.11-11.97-9.93-21.7-21.89-21.7h0Z"/>
          <g>
            <path class="cls-4" d="m108.66,21.22c.02-.62-.35-1.16-.88-1.39.5-.31.78-.9.67-1.51v-.07c-.12-.61-.59-1.07-1.16-1.19.42-.4.58-1.02.36-1.59l-.04-.1c-.24-.58-.8-.91-1.39-.9.34-.49.36-1.17,0-1.69l-.04-.05c-.36-.52-.99-.74-1.57-.59.22-.56.08-1.22-.38-1.65,0,0-.03-.03-.03-.03-.47-.42-1.12-.49-1.65-.22.08-.59-.21-1.19-.76-1.49l-.07-.04c-.56-.3-1.23-.2-1.68.2-.07-.6-.51-1.11-1.13-1.26,0,0-.07-.02-.08-.02-.62-.14-1.22.15-1.53.66-.21-.56-.76-.97-1.39-.95h-.12c-.63.03-1.15.45-1.32,1.02-.36-.48-1-.71-1.61-.52l-.09.03c-.6.19-.98.74-1,1.33-.47-.38-1.15-.44-1.7-.1l-.05.03c-.54.33-.79.95-.68,1.53-.54-.24-1.2-.13-1.64.32l-.05.05c-.44.45-.53,1.1-.29,1.63-.58-.1-1.18.14-1.51.67l-.05.08c-.33.54-.26,1.18.11,1.64-.59.01-1.14.38-1.35.96l-.03.09c-.21.59,0,1.21.45,1.59-.57.13-1.03.6-1.12,1.22v.1c-.09.62.23,1.19.74,1.46-.53.25-.89.8-.85,1.42v.09c.05.63.48,1.12,1.04,1.28-.47.35-.71.96-.55,1.57l.03.09c.17.6.69,1,1.28,1.04-.39.44-.49,1.1-.2,1.66l.04.08c.3.55.89.82,1.48.73-.29.53-.24,1.21.19,1.69l.04.05c.41.47,1.05.62,1.61.42-.15.57.06,1.2.57,1.56l.08.05c.52.36,1.18.33,1.66-.01-.02.6.34,1.18.94,1.41l.1.04c.6.22,1.23.02,1.61-.44.14.59.64,1.05,1.28,1.12h.1s.06.01.09.01c.6.02,1.12-.33,1.36-.86.29.53.9.85,1.53.75,0,0,.07-.01.08-.01.63-.11,1.07-.6,1.17-1.2.41.44,1.07.59,1.65.34l.1-.05c.57-.27.89-.85.83-1.44.51.31,1.18.29,1.68-.11l.06-.05c.5-.4.65-1.04.45-1.61.57.19,1.23.01,1.62-.49l.05-.06c.38-.49.4-1.15.11-1.65.59.05,1.17-.27,1.44-.84l.03-.06c.27-.56.15-1.21-.24-1.64.57-.08,1.07-.5,1.22-1.1l.02-.09c.14-.61-.12-1.2-.6-1.53.55-.19.96-.7.99-1.32v-.13s0-.02,0-.02Z"/>
            <g>
              <g>
                <polyline class="cls-5" points="111.18 35.28 100.18 30.51 100.18 25.7 92.07 25.7 92.07 30.51 81.03 35.35"/>
                <polygon class="cls-5" points="96.12 33.8 100.18 30.51 100.18 25.7 92.07 25.7 92.07 30.51 96.12 33.8"/>
                <polygon class="cls-5" points="96.12 33.8 93.26 36.15 90.6 31.12 92.07 29.83 96.12 33.8"/>
                <polygon class="cls-5" points="96.12 33.8 98.99 36.15 101.65 31.12 100.18 29.83 96.12 33.8"/>
                <polyline class="cls-6" points="97.99 35.33 97.11 37.17 96.12 37.17 95.13 37.17 94.26 35.33"/>
                <line class="cls-6" x1="97.8" y1="42.23" x2="97.11" y2="37.17"/>
                <line class="cls-6" x1="95.13" y1="37.17" x2="94.45" y2="42.23"/>
              </g>
              <path class="cls-5" d="m102.78,17.77c0,4.77,0-1.6,0,3.17-.17,3.82-3.13,7.53-6.63,7.51-3.47-.02-6.37-3.72-6.54-7.51,0-4.77,0,.86,0-3.91"/>
              <path class="cls-5" d="m89.6,17.05s2.89-1.57,3.76-4.28c0,0,2.82,4.61,9.41,5.03"/>
            </g>
          </g>
        </g>
        <g>
          <path class="cls-3" d="m186.06,93.65c11.18,0,20.29,9.01,20.39,20.22.1,10.77-8.16,19.66-18.72,20.51-.49.04-.99.07-1.49.07-.07,0-.14,0-.21,0-.55,0-1.1-.03-1.65-.07-10.4-.84-18.62-9.5-18.72-20.14-.1-11.27,8.95-20.48,20.21-20.59.06,0,.13,0,.19,0m0-1.5h-.2c-12.07.11-21.81,10.03-21.7,22.1.1,11.41,8.75,20.7,20.1,21.62.6.05,1.19.07,1.77.07h.23c.55,0,1.09-.03,1.6-.08,11.36-.92,20.19-10.59,20.09-22.02-.11-11.97-9.93-21.7-21.89-21.7h0Z"/>
          <g>
            <path class="cls-4" d="m198.59,113.37c.02-.62-.35-1.16-.88-1.39.5-.31.78-.9.67-1.51v-.07c-.12-.61-.59-1.07-1.16-1.19.42-.4.58-1.02.36-1.59l-.04-.1c-.24-.58-.8-.91-1.39-.9.34-.49.36-1.17,0-1.69l-.04-.05c-.36-.52-.99-.74-1.57-.59.22-.56.08-1.22-.38-1.65,0,0-.03-.03-.03-.03-.47-.42-1.12-.49-1.65-.22.08-.59-.21-1.19-.76-1.49l-.07-.04c-.56-.3-1.23-.2-1.68.2-.07-.6-.51-1.11-1.13-1.26,0,0-.07-.02-.08-.02-.62-.14-1.22.15-1.53.66-.21-.56-.76-.97-1.39-.95h-.12c-.63.03-1.15.45-1.32,1.02-.36-.48-1-.71-1.61-.52l-.09.03c-.6.19-.98.74-1,1.33-.47-.38-1.15-.44-1.7-.1l-.05.03c-.54.33-.79.95-.68,1.53-.54-.24-1.2-.13-1.64.32l-.05.05c-.44.45-.53,1.1-.29,1.63-.58-.1-1.18.14-1.51.67l-.05.08c-.33.54-.26,1.18.11,1.64-.59.01-1.14.38-1.35.96l-.03.09c-.21.59,0,1.21.45,1.59-.57.13-1.03.6-1.12,1.22v.1c-.09.62.23,1.19.74,1.46-.53.25-.89.8-.85,1.42v.09c.05.63.48,1.12,1.04,1.28-.47.35-.71.96-.55,1.57l.03.09c.17.6.69,1,1.28,1.04-.39.44-.49,1.1-.2,1.66l.04.08c.3.55.89.82,1.48.73-.29.53-.24,1.21.19,1.69l.04.05c.41.47,1.05.62,1.61.42-.15.57.06,1.2.57,1.56l.08.05c.52.36,1.18.33,1.66-.01-.02.6.34,1.18.94,1.41l.1.04c.6.22,1.23.02,1.61-.44.14.59.64,1.05,1.28,1.12h.1s.06.01.09.01c.6.02,1.12-.33,1.36-.86.29.53.9.85,1.53.75,0,0,.07-.01.08-.01.63-.11,1.07-.6,1.17-1.2.41.44,1.07.59,1.65.34l.1-.05c.57-.27.89-.85.83-1.44.51.31,1.18.29,1.68-.11l.06-.05c.5-.4.65-1.04.45-1.61.57.19,1.23.01,1.62-.49l.05-.06c.38-.49.4-1.15.11-1.65.59.05,1.17-.27,1.44-.84l.03-.06c.27-.56.15-1.21-.24-1.64.57-.08,1.07-.5,1.22-1.1l.02-.09c.14-.61-.12-1.2-.6-1.53.55-.19.96-.7.99-1.32v-.13s0-.02,0-.02Z"/>
            <g>
              <g>
                <polyline class="cls-5" points="201.11 127.43 190.11 122.66 190.11 117.85 182 117.85 182 122.66 170.97 127.5"/>
                <polygon class="cls-5" points="186.06 125.95 190.11 122.66 190.11 117.85 182 117.85 182 122.66 186.06 125.95"/>
                <polygon class="cls-5" points="186.06 125.95 183.19 128.3 180.53 123.27 182 121.98 186.06 125.95"/>
                <polygon class="cls-5" points="186.06 125.95 188.92 128.3 191.58 123.27 190.11 121.98 186.06 125.95"/>
                <polyline class="cls-6" points="187.92 127.48 187.05 129.33 186.06 129.33 185.06 129.33 184.19 127.48"/>
                <line class="cls-6" x1="187.73" y1="134.38" x2="187.05" y2="129.33"/>
                <line class="cls-6" x1="185.06" y1="129.33" x2="184.38" y2="134.38"/>
              </g>
              <path class="cls-5" d="m192.71,109.92c0,4.77,0-1.6,0,3.17-.17,3.82-3.13,7.53-6.63,7.51-3.47-.02-6.37-3.72-6.54-7.51,0-4.77,0,.86,0-3.91"/>
              <path class="cls-5" d="m179.53,109.2s2.89-1.57,3.76-4.28c0,0,2.82,4.61,9.41,5.03"/>
            </g>
          </g>
        </g>
        <g>
          <path class="cls-3" d="m72.34,82.56c11.18,0,20.29,9.01,20.39,20.22.1,10.77-8.16,19.66-18.72,20.51-.49.04-.99.07-1.49.07-.07,0-.14,0-.21,0-.56,0-1.11-.03-1.65-.07-10.4-.84-18.62-9.5-18.72-20.14-.1-11.27,8.95-20.48,20.21-20.58.06,0,.13,0,.19,0m0-1.5h-.2c-12.07.11-21.81,10.03-21.7,22.1.1,11.41,8.75,20.7,20.1,21.62.6.05,1.2.07,1.77.07h.22c.55,0,1.09-.03,1.6-.08,11.36-.92,20.19-10.59,20.09-22.02-.11-11.97-9.93-21.7-21.89-21.7h0Z"/>
          <g>
            <path class="cls-4" d="m84.87,102.28c.02-.62-.35-1.16-.88-1.39.5-.31.78-.9.67-1.51v-.07c-.12-.61-.59-1.07-1.16-1.19.42-.4.58-1.02.36-1.59l-.04-.1c-.24-.58-.8-.91-1.39-.9.34-.49.36-1.17,0-1.69l-.04-.05c-.36-.52-.99-.74-1.57-.59.22-.56.08-1.22-.38-1.65,0,0-.03-.03-.03-.03-.47-.42-1.12-.49-1.65-.22.08-.59-.21-1.19-.76-1.49l-.07-.04c-.56-.3-1.23-.2-1.68.2-.07-.6-.51-1.11-1.13-1.26,0,0-.07-.02-.08-.02-.62-.14-1.22.15-1.53.66-.21-.56-.76-.97-1.39-.95h-.12c-.63.03-1.15.45-1.32,1.02-.36-.48-1-.71-1.61-.52l-.09.03c-.6.19-.98.74-1,1.33-.47-.38-1.15-.44-1.7-.1l-.05.03c-.54.33-.79.95-.68,1.53-.54-.24-1.2-.13-1.64.32l-.05.05c-.44.45-.53,1.1-.29,1.63-.58-.1-1.18.14-1.51.67l-.05.08c-.33.54-.26,1.18.11,1.64-.59.01-1.14.38-1.35.96l-.03.09c-.21.59,0,1.21.45,1.59-.57.13-1.03.6-1.12,1.22v.1c-.09.62.23,1.19.74,1.46-.53.25-.89.8-.85,1.42v.09c.05.63.48,1.12,1.04,1.28-.47.35-.71.96-.55,1.57l.03.09c.17.6.69,1,1.28,1.04-.39.44-.49,1.1-.2,1.66l.04.08c.3.55.89.82,1.48.73-.29.53-.24,1.21.19,1.69l.04.05c.41.47,1.05.62,1.61.42-.15.57.06,1.2.57,1.56l.08.05c.52.36,1.18.33,1.66-.01-.02.6.34,1.18.94,1.41l.1.04c.6.22,1.23.02,1.61-.44.14.59.64,1.05,1.28,1.12h.1s.06.01.09.01c.6.02,1.12-.33,1.36-.86.29.53.9.85,1.53.75,0,0,.07-.01.08-.01.63-.11,1.07-.6,1.17-1.2.41.44,1.07.59,1.65.34l.1-.05c.57-.27.89-.85.83-1.44.51.31,1.18.29,1.68-.11l.06-.05c.5-.4.65-1.04.45-1.61.57.19,1.23.01,1.62-.49l.05-.06c.38-.49.4-1.15.11-1.65.59.05,1.17-.27,1.44-.84l.03-.06c.27-.56.15-1.21-.24-1.64.57-.08,1.07-.5,1.22-1.1l.02-.09c.14-.61-.12-1.2-.6-1.53.55-.19.96-.7.99-1.32v-.13s0-.02,0-.02Z"/>
            <g>
              <g>
                <polyline class="cls-5" points="87.39 116.34 76.39 111.57 76.39 106.76 68.28 106.76 68.28 111.57 57.25 116.41"/>
                <polygon class="cls-5" points="72.33 114.86 76.39 111.57 76.39 106.76 68.28 106.76 68.28 111.57 72.33 114.86"/>
                <polygon class="cls-5" points="72.33 114.86 69.47 117.21 66.81 112.18 68.28 110.89 72.33 114.86"/>
                <polygon class="cls-5" points="72.33 114.86 75.2 117.21 77.86 112.18 76.39 110.89 72.33 114.86"/>
                <polyline class="cls-6" points="74.2 116.39 73.33 118.23 72.33 118.23 71.34 118.23 70.47 116.39"/>
                <line class="cls-6" x1="74.01" y1="123.29" x2="73.33" y2="118.24"/>
                <line class="cls-6" x1="71.34" y1="118.24" x2="70.66" y2="123.29"/>
              </g>
              <path class="cls-5" d="m78.99,98.83c0,4.77,0-1.6,0,3.17-.17,3.82-3.13,7.53-6.63,7.51-3.47-.02-6.37-3.72-6.54-7.51,0-4.77,0,.86,0-3.91"/>
              <path class="cls-5" d="m65.81,98.11s2.89-1.57,3.76-4.28c0,0,2.82,4.61,9.41,5.03"/>
            </g>
          </g>
        </g>
        <g>
          <line class="cls-6" x1="106.24" y1="51.55" x2="115.43" y2="71.07"/>
          <polygon points="107.76 69.19 108.32 67.79 115.18 70.55 117.43 63.51 118.86 63.96 116.12 72.55 107.76 69.19"/>
        </g>
        <g>
          <line class="cls-6" x1="88.68" y1="51.55" x2="79.5" y2="71.07"/>
          <polygon points="76.06 63.96 77.49 63.51 79.74 70.55 86.61 67.79 87.16 69.19 78.8 72.54 76.06 63.96"/>
        </g>
        <g>
          <line class="cls-6" x1="70.66" y1="42.78" x2="54.39" y2="56.95"/>
          <polygon points="54.11 49.06 55.61 49.22 54.83 56.57 62.22 56.81 62.17 58.31 53.17 58.02 54.11 49.06"/>
        </g>
        <g>
          <line class="cls-6" x1="120.48" y1="42.78" x2="136.75" y2="56.95"/>
          <polygon points="128.97 58.31 128.92 56.81 136.31 56.57 135.53 49.22 137.02 49.06 137.97 58.02 128.97 58.31"/>
        </g>
        <g>
          <polygon class="cls-1" points="180.8 75.24 172.48 73.8 172.48 67.48 177.61 67.92 178.99 72.55 180.8 75.24"/>
          <path class="cls-2" d="m174.8,66.61c.97-.36,2.29.09,3.23,1.65.7,1.17.74,3.38.88,3.82.29.9,1.26,1.91,3.23,1.5,0,0-.16,1.48-1.28,1.7"/>
          <path class="cls-2" d="m177.22,59c0,3.53-2.86,6.39-6.39,6.39s-6.39-2.86-6.39-6.39,2.86-6.44,6.39-6.44,6.39,2.91,6.39,6.44Z"/>
          <g>
            <path class="cls-5" d="m184.42,77.95c-.17-.92-.83-1.69-1.74-2.06l-8.74-2.93v-4.36h-6.23v4.36l-8.74,2.93c-.91.37-1.57,1.15-1.74,2.06"/>
            <path class="cls-5" d="m176.88,60.23c0,4.38,0-.8,0,3.57-.16,3.51-2.87,6.91-6.09,6.89-3.19-.02-5.85-3.42-6.01-6.89,0-4.38,0,.89,0-3.49l5.57-.06c1.37-.02,2.58-.92,2.97-2.24l.15-.49.04.19c.31,1.58,1.76,2.66,3.36,2.52h0Z"/>
            <path class="cls-5" d="m163.47,74.53s2.33,3.22,7.36,3.22,7.36-3.22,7.36-3.22"/>
          </g>
        </g>
        <g>
          <polygon class="cls-1" points="28.24 149.73 19.92 148.29 19.92 141.97 25.05 142.41 26.43 147.04 28.24 149.73"/>
          <path class="cls-2" d="m22.24,141.1c.97-.36,2.29.09,3.23,1.65.7,1.17.74,3.38.88,3.82.29.9,1.26,1.91,3.23,1.5,0,0-.16,1.48-1.28,1.7"/>
          <path class="cls-2" d="m24.66,133.49c0,3.53-2.86,6.39-6.39,6.39s-6.39-2.86-6.39-6.39,2.86-6.44,6.39-6.44,6.39,2.91,6.39,6.44Z"/>
          <g>
            <path class="cls-5" d="m31.87,152.43c-.17-.92-.83-1.69-1.74-2.06l-8.74-2.93v-4.36h-6.23v4.36l-8.74,2.93c-.91.37-1.57,1.15-1.74,2.06"/>
            <path class="cls-5" d="m24.32,134.72c0,4.38,0-.8,0,3.57-.16,3.51-2.87,6.91-6.09,6.89-3.19-.02-5.85-3.42-6.01-6.89,0-4.38,0,.89,0-3.49l5.57-.06c1.37-.02,2.58-.92,2.97-2.24l.15-.49.04.19c.31,1.58,1.76,2.66,3.36,2.52h0Z"/>
            <path class="cls-5" d="m10.92,149.02s2.33,3.22,7.36,3.22,7.36-3.22,7.36-3.22"/>
          </g>
        </g>
        <g>
          <g>
            <polygon class="cls-1" points="31.87 87.86 23.54 86.42 23.54 80.1 28.68 80.54 30.05 85.17 31.87 87.86"/>
            <path class="cls-2" d="m25.87,79.23c.97-.36,2.29.09,3.23,1.65.7,1.17.74,3.38.88,3.82.29.9,1.26,1.91,3.23,1.5,0,0-.16,1.48-1.28,1.7"/>
            <path class="cls-2" d="m28.28,71.62c0,3.53-2.86,6.39-6.39,6.39s-6.39-2.86-6.39-6.39,2.86-6.44,6.39-6.44,6.39,2.91,6.39,6.44Z"/>
            <g>
              <path class="cls-5" d="m35.49,90.56c-.17-.92-.83-1.69-1.74-2.06l-8.74-2.93v-4.36h-6.23v4.36l-8.74,2.93c-.91.37-1.57,1.15-1.74,2.06"/>
              <path class="cls-5" d="m27.94,72.85c0,4.38,0-.8,0,3.57-.16,3.51-2.87,6.91-6.09,6.89-3.19-.02-5.85-3.42-6.01-6.89,0-4.38,0,.89,0-3.49l5.57-.06c1.37-.02,2.58-.92,2.97-2.24l.15-.49.04.19c.31,1.58,1.76,2.66,3.36,2.52h0Z"/>
              <path class="cls-5" d="m14.54,87.15s2.33,3.22,7.36,3.22,7.36-3.22,7.36-3.22"/>
            </g>
          </g>
          <path class="cls-3" d="m21.9,54.87c11.18,0,20.29,9.01,20.39,20.22.1,10.77-8.16,19.66-18.72,20.51-.49.04-.99.07-1.49.07-.07,0-.14,0-.21,0-.55,0-1.1-.03-1.65-.07-10.4-.84-18.62-9.5-18.72-20.14-.1-11.27,8.95-20.48,20.21-20.59.06,0,.13,0,.19,0m0-1.5h-.2C9.63,53.49-.11,63.4,0,75.47c.1,11.41,8.75,20.7,20.1,21.62.6.05,1.19.07,1.77.07h.23c.55,0,1.09-.03,1.6-.08,11.36-.92,20.19-10.59,20.09-22.02-.11-11.97-9.93-21.7-21.89-21.7h0Z"/>
        </g>
        <g>
          <g>
            <polygon class="cls-1" points="149.06 157.46 140.73 156.02 140.73 149.7 145.87 150.13 147.24 154.77 149.06 157.46"/>
            <path class="cls-2" d="m143.06,148.82c.97-.36,2.29.09,3.23,1.65.7,1.17.74,3.38.88,3.82.29.9,1.26,1.91,3.23,1.5,0,0-.16,1.48-1.28,1.7"/>
            <path class="cls-2" d="m145.47,141.21c0,3.53-2.86,6.39-6.39,6.39s-6.39-2.86-6.39-6.39,2.86-6.44,6.39-6.44,6.39,2.91,6.39,6.44Z"/>
            <g>
              <path class="cls-5" d="m152.68,160.16c-.17-.92-.83-1.69-1.74-2.06l-8.74-2.93v-4.36h-6.23v4.36l-8.74,2.93c-.91.37-1.57,1.15-1.74,2.06"/>
              <path class="cls-5" d="m145.13,142.44c0,4.38,0-.8,0,3.57-.16,3.51-2.87,6.91-6.09,6.89-3.19-.02-5.85-3.42-6.01-6.89,0-4.38,0,.89,0-3.49l5.57-.06c1.37-.02,2.58-.92,2.97-2.24l.15-.49.04.19c.31,1.58,1.76,2.66,3.36,2.52h0Z"/>
              <path class="cls-5" d="m131.73,156.75s2.33,3.22,7.36,3.22,7.36-3.22,7.36-3.22"/>
            </g>
          </g>
          <path class="cls-3" d="m139.09,124.47c11.18,0,20.29,9.01,20.39,20.22.1,10.77-8.16,19.66-18.72,20.51-.49.04-.99.07-1.49.07-.07,0-.14,0-.21,0-.55,0-1.1-.03-1.65-.07-10.4-.84-18.62-9.5-18.72-20.14-.1-11.27,8.95-20.48,20.21-20.59.06,0,.13,0,.19,0m0-1.5h-.2c-12.07.11-21.81,10.03-21.7,22.1.1,11.41,8.75,20.7,20.1,21.62.6.05,1.19.07,1.77.07h.23c.55,0,1.09-.03,1.6-.08,11.36-.92,20.19-10.59,20.09-22.02-.11-11.97-9.93-21.7-21.89-21.7h0Z"/>
        </g>
      </g>
      <g>
        <path class="cls-4" d="m143.6,94.43c.02-.62-.35-1.16-.88-1.39.5-.31.78-.9.67-1.51v-.07c-.12-.61-.59-1.07-1.16-1.19.42-.4.58-1.02.36-1.59l-.04-.1c-.24-.58-.8-.91-1.39-.9.34-.49.36-1.17,0-1.69l-.04-.05c-.36-.52-.99-.74-1.57-.59.22-.56.08-1.22-.38-1.65,0,0-.03-.03-.03-.03-.47-.42-1.12-.49-1.65-.22.08-.59-.21-1.19-.76-1.49l-.07-.04c-.56-.3-1.23-.2-1.68.2-.07-.6-.51-1.11-1.13-1.26,0,0-.07-.02-.08-.02-.62-.14-1.22.15-1.53.66-.21-.56-.76-.97-1.39-.95h-.12c-.63.03-1.15.45-1.32,1.02-.36-.48-1-.71-1.61-.52l-.09.03c-.6.19-.98.74-1,1.33-.47-.38-1.15-.44-1.7-.1l-.05.03c-.54.33-.79.95-.68,1.53-.54-.24-1.2-.13-1.64.32l-.05.05c-.44.45-.53,1.1-.29,1.63-.58-.1-1.18.14-1.51.67l-.05.08c-.33.54-.26,1.18.11,1.64-.59.01-1.14.38-1.35.96l-.03.09c-.21.59,0,1.21.45,1.59-.57.13-1.03.6-1.12,1.22v.1c-.09.62.23,1.19.74,1.46-.53.25-.89.8-.85,1.42v.09c.05.63.48,1.12,1.04,1.28-.47.35-.71.96-.55,1.57l.03.09c.17.6.69,1,1.28,1.04-.39.44-.49,1.1-.2,1.66l.04.08c.3.55.89.82,1.48.73-.29.53-.24,1.21.19,1.69l.04.05c.41.47,1.05.62,1.61.42-.15.57.06,1.2.57,1.56l.08.05c.52.36,1.18.33,1.66-.01-.02.6.34,1.18.94,1.41l.1.04c.6.22,1.23.02,1.61-.44.14.59.64,1.05,1.28,1.12h.1s.06.01.09.01c.6.02,1.12-.33,1.36-.86.29.53.9.85,1.53.75,0,0,.07-.01.08-.01.63-.11,1.07-.6,1.17-1.2.41.44,1.07.59,1.65.34l.1-.05c.57-.27.89-.85.83-1.44.51.31,1.18.29,1.68-.11l.06-.05c.5-.4.65-1.04.45-1.61.57.19,1.23.01,1.62-.49l.05-.06c.38-.49.4-1.15.11-1.65.59.05,1.17-.27,1.44-.84l.03-.06c.27-.56.15-1.21-.24-1.64.57-.08,1.07-.5,1.22-1.1l.02-.09c.14-.61-.12-1.2-.6-1.53.55-.19.96-.7.99-1.32v-.13s0-.02,0-.02Z"/>
        <g>
          <g>
            <polyline class="cls-5" points="146.13 108.49 135.12 103.72 135.12 98.91 127.01 98.91 127.01 103.72 115.98 108.56"/>
            <polygon class="cls-5" points="131.07 107.01 135.12 103.72 135.12 98.91 127.01 98.91 127.01 103.72 131.07 107.01"/>
            <polygon class="cls-5" points="131.07 107.01 128.2 109.37 125.54 104.33 127.01 103.04 131.07 107.01"/>
            <polygon class="cls-5" points="131.07 107.01 133.93 109.37 136.59 104.33 135.12 103.04 131.07 107.01"/>
            <polyline class="cls-6" points="132.93 108.54 132.06 110.39 131.07 110.39 130.08 110.39 129.2 108.54"/>
            <line class="cls-6" x1="132.74" y1="115.44" x2="132.06" y2="110.39"/>
            <line class="cls-6" x1="130.08" y1="110.39" x2="129.39" y2="115.44"/>
          </g>
          <path class="cls-5" d="m137.72,90.99c0,4.77,0-1.6,0,3.17-.17,3.82-3.13,7.53-6.63,7.51-3.47-.02-6.37-3.72-6.54-7.51,0-4.77,0,.86,0-3.91"/>
          <path class="cls-5" d="m124.55,90.26s2.89-1.57,3.76-4.28c0,0,2.82,4.61,9.41,5.03"/>
        </g>
      </g>
      <g>
        <path class="cls-4" d="m88.27,156.38c.02-.62-.35-1.16-.88-1.39.5-.31.78-.9.67-1.51v-.07c-.12-.61-.59-1.07-1.16-1.19.42-.4.58-1.02.36-1.59l-.04-.1c-.24-.58-.8-.91-1.39-.9.34-.49.36-1.17,0-1.69l-.04-.05c-.36-.52-.99-.74-1.57-.59.22-.56.08-1.22-.38-1.65,0,0-.03-.03-.03-.03-.47-.42-1.12-.49-1.65-.22.08-.59-.21-1.19-.76-1.49l-.07-.04c-.56-.3-1.23-.2-1.68.2-.07-.6-.51-1.11-1.13-1.26,0,0-.07-.02-.08-.02-.62-.14-1.22.15-1.53.66-.21-.56-.76-.97-1.39-.95h-.12c-.63.03-1.15.45-1.32,1.02-.36-.48-1-.71-1.61-.52l-.09.03c-.6.19-.98.74-1,1.33-.47-.38-1.15-.44-1.7-.1l-.05.03c-.54.33-.79.95-.68,1.53-.54-.24-1.2-.13-1.64.32l-.05.05c-.44.45-.53,1.1-.29,1.63-.58-.1-1.18.14-1.51.67l-.05.08c-.33.54-.26,1.18.11,1.64-.59.01-1.14.38-1.35.96l-.03.09c-.21.59,0,1.21.45,1.59-.57.13-1.03.6-1.12,1.22v.1c-.09.62.23,1.19.74,1.46-.53.25-.89.8-.85,1.42v.09c.05.63.48,1.12,1.04,1.28-.47.35-.71.96-.55,1.57l.03.09c.17.6.69,1,1.28,1.04-.39.44-.49,1.1-.2,1.66l.04.08c.3.55.89.82,1.48.73-.29.53-.24,1.21.19,1.69l.04.05c.41.47,1.05.62,1.61.42-.15.57.06,1.2.57,1.56l.08.05c.52.36,1.18.33,1.66-.01-.02.6.34,1.18.94,1.41l.1.04c.6.22,1.23.02,1.61-.44.14.59.64,1.05,1.28,1.12h.1s.06.01.09.01c.6.02,1.12-.33,1.36-.86.29.53.9.85,1.53.75,0,0,.07-.01.08-.01.63-.11,1.07-.6,1.17-1.2.41.44,1.07.59,1.65.34l.1-.05c.57-.27.89-.85.83-1.44.51.31,1.18.29,1.68-.11l.06-.05c.5-.4.65-1.04.45-1.61.57.19,1.23.01,1.62-.49l.05-.06c.38-.49.4-1.15.11-1.65.59.05,1.17-.27,1.44-.84l.03-.06c.27-.56.15-1.21-.24-1.64.57-.08,1.07-.5,1.22-1.1l.02-.09c.14-.61-.12-1.2-.6-1.53.55-.19.96-.7.99-1.32v-.13s0-.02,0-.02Z"/>
        <g>
          <g>
            <polyline class="cls-5" points="90.8 170.44 79.8 165.68 79.8 160.86 71.68 160.86 71.68 165.68 60.65 170.51"/>
            <polygon class="cls-5" points="75.74 168.96 79.8 165.68 79.8 160.86 71.68 160.86 71.68 165.68 75.74 168.96"/>
            <polygon class="cls-5" points="75.74 168.96 72.87 171.32 70.21 166.28 71.68 164.99 75.74 168.96"/>
            <polygon class="cls-5" points="75.74 168.96 78.61 171.32 81.27 166.28 79.8 164.99 75.74 168.96"/>
            <polyline class="cls-6" points="77.61 170.5 76.73 172.34 75.74 172.34 74.75 172.34 73.87 170.5"/>
            <line class="cls-6" x1="77.41" y1="177.4" x2="76.73" y2="172.34"/>
            <line class="cls-6" x1="74.75" y1="172.34" x2="74.07" y2="177.4"/>
          </g>
          <path class="cls-5" d="m82.39,152.94c0,4.77,0-1.6,0,3.17-.17,3.82-3.13,7.53-6.63,7.51-3.47-.02-6.37-3.72-6.54-7.51,0-4.77,0,.86,0-3.91"/>
          <path class="cls-5" d="m69.22,152.22s2.89-1.57,3.76-4.28c0,0,2.82,4.61,9.41,5.03"/>
        </g>
      </g>
    </g>
  </g>
</svg>