<?xml version="1.0" encoding="UTF-8"?>
<svg id="Layer_2" data-name="Layer 2" xmlns="http://www.w3.org/2000/svg" viewBox="0 0 402.89 374.21">
  <defs>
    <style>
      .cls-1 {
        stroke-width: 6.77px;
      }

      .cls-1, .cls-2, .cls-3, .cls-4, .cls-5, .cls-6, .cls-7, .cls-8 {
        stroke-linecap: round;
        stroke-linejoin: round;
      }

      .cls-1, .cls-3 {
        stroke: #939597;
      }

      .cls-1, .cls-3, .cls-7, .cls-8 {
        fill: none;
      }

      .cls-9, .cls-4 {
        fill: #a59a6e;
      }

      .cls-10 {
        fill: #dc4647;
      }

      .cls-11, .cls-5 {
        fill: #aa2734;
      }

      .cls-2 {
        fill: #54565a;
        stroke-width: 1.66px;
      }

      .cls-2, .cls-4, .cls-5, .cls-6, .cls-8 {
        stroke: #000;
      }

      .cls-3, .cls-7 {
        stroke-width: 7px;
      }

      .cls-4, .cls-5, .cls-6, .cls-8 {
        stroke-width: 1.5px;
      }

      .cls-6 {
        fill: #fff;
      }

      .cls-7 {
        stroke: #59595b;
      }
    </style>
  </defs>
  <g id="Content">
    <g>
      <g>
        <path class="cls-6" d="m331.58,138.02c-.79-5.51-.79-10.95-.79-10.95,0-7.65,4.61-13.15,10.29-13.15s10.29,5.5,10.29,13.15c0,0-.1,6.54-.78,11.09"/>
        <g>
          <g>
            <polyline class="cls-6" points="354.87 139.63 344.97 135.43 344.97 130.72 337.04 130.72 337.04 135.43 327.15 139.63"/>
            <polygon class="cls-6" points="341.01 138.64 344.97 135.43 344.97 130.72 337.04 130.72 337.04 135.43 341.01 138.64"/>
            <polygon class="cls-6" points="341.01 138.64 338.21 140.94 335.61 136.02 337.04 134.76 341.01 138.64"/>
            <polygon class="cls-6" points="341.01 138.64 343.81 140.94 346.41 136.02 344.97 134.76 341.01 138.64"/>
            <polyline class="cls-8" points="342.83 140.14 341.98 141.94 341.01 141.94 340.04 141.94 339.18 140.14"/>
            <polyline class="cls-8" points="340.04 141.94 339.18 148.29 341.01 150.29 342.83 148.29 341.98 141.94"/>
          </g>
          <path class="cls-6" d="m347.52,123.08c0,4.66,0-1.68,0,2.98-.17,3.74-3.06,7.37-6.48,7.34-3.39-.02-6.23-3.64-6.4-7.34,0-4.66,0,.95,0-3.72"/>
          <path class="cls-6" d="m334.64,122.25s2.82-1.54,3.68-4.18c0,0,2.76,4.5,9.2,4.91"/>
        </g>
      </g>
      <g>
        <path class="cls-6" d="m41.38,124.35c-.79-5.51-.79-10.95-.79-10.95,0-7.65,4.61-13.15,10.29-13.15s10.29,5.5,10.29,13.15c0,0-.1,6.54-.78,11.09"/>
        <g>
          <path class="cls-6" d="m65.36,127.46c-.19-.98-.88-1.8-1.86-2.2l-9.31-3.12v-4.64h-6.64v4.64l-9.31,3.12c-.97.4-1.67,1.22-1.86,2.2"/>
          <path class="cls-6" d="m57.32,109.4c0,4.66,0-1.68,0,2.98-.17,3.74-3.06,7.37-6.48,7.34-3.39-.02-6.23-3.64-6.4-7.34,0-4.66,0,.95,0-3.72"/>
          <path class="cls-6" d="m43.04,123.82s2.48,3.43,7.84,3.43,7.84-3.43,7.84-3.43"/>
          <path class="cls-6" d="m44.44,108.58s2.82-1.54,3.68-4.18c0,0,2.76,4.5,9.2,4.91"/>
        </g>
      </g>
      <g>
        <path class="cls-6" d="m378.16,182.27c-.79-5.51-.79-10.95-.79-10.95,0-7.65,4.61-13.15,10.29-13.15s10.29,5.5,10.29,13.15c0,0-.1,6.54-.78,11.09"/>
        <g>
          <path class="cls-6" d="m402.14,185.38c-.19-.98-.88-1.8-1.86-2.2l-9.31-3.12v-4.64h-6.64v4.64l-9.31,3.12c-.97.4-1.67,1.22-1.86,2.2"/>
          <path class="cls-6" d="m394.09,167.33c0,4.66,0-1.68,0,2.98-.17,3.74-3.06,7.37-6.48,7.34-3.39-.02-6.23-3.64-6.4-7.34,0-4.66,0,.95,0-3.72"/>
          <path class="cls-6" d="m379.82,181.74s2.48,3.43,7.84,3.43,7.84-3.43,7.84-3.43"/>
          <path class="cls-6" d="m381.21,166.5s2.82-1.54,3.68-4.18c0,0,2.76,4.5,9.2,4.91"/>
        </g>
      </g>
      <g>
        <path class="cls-6" d="m128.35,78.22c0,4.79-3.88,8.68-8.68,8.68s-8.68-3.88-8.68-8.68,3.88-8.75,8.68-8.75,8.68,3.96,8.68,8.75Z"/>
        <g>
          <path class="cls-6" d="m134.15,96.52c-.19-.98-.88-1.8-1.86-2.2l-9.31-3.12v-4.64h-6.64v4.64l-9.31,3.12c-.97.4-1.67,1.22-1.86,2.2"/>
          <path class="cls-6" d="m126.11,77.64c0,4.66,0-.85,0,3.81-.17,3.74-3.06,7.37-6.48,7.34-3.39-.02-6.23-3.64-6.4-7.34,0-4.66,0,.95,0-3.72l5.94-.07c1.46-.02,2.75-.98,3.17-2.39l.16-.52.04.2c.33,1.68,1.88,2.84,3.58,2.68h0Z"/>
          <path class="cls-6" d="m111.83,92.89s2.48,3.43,7.84,3.43,7.84-3.43,7.84-3.43"/>
        </g>
      </g>
      <g>
        <polygon class="cls-9" points="264.2 152.58 245.99 149.43 245.99 135.6 257.22 136.56 260.23 146.7 264.2 152.58"/>
        <g>
          <path class="cls-4" d="m251.07,133.69c2.13-.78,5.02.2,7.06,3.6,1.54,2.56,1.61,7.39,1.93,8.37.63,1.96,2.75,4.19,7.06,3.27,0,0-.34,3.24-2.79,3.71"/>
          <path class="cls-4" d="m256.36,117.04c0,7.72-6.26,13.98-13.98,13.98s-13.98-6.26-13.98-13.98,6.26-14.09,13.98-14.09,13.98,6.38,13.98,14.09Z"/>
          <g>
            <path class="cls-6" d="m272.13,158.5c-.38-2-1.81-3.7-3.81-4.51l-19.12-6.42v-9.54h-13.63v9.54l-19.12,6.42c-2,.81-3.43,2.51-3.81,4.51"/>
            <path class="cls-6" d="m255.62,119.73c0,9.57,0-1.75,0,7.82-.35,7.67-6.28,15.13-13.32,15.08-6.97-.05-12.8-7.47-13.14-15.08,0-9.57,0,1.94,0-7.63l12.2-.13c3.01-.03,5.64-2.02,6.5-4.9l.32-1.07.08.41c.68,3.45,3.86,5.82,7.36,5.5h0Z"/>
            <path class="cls-6" d="m226.29,151.03s5.09,7.04,16.1,7.04,16.1-7.04,16.1-7.04"/>
          </g>
        </g>
      </g>
      <g>
        <path class="cls-6" d="m239.07,36.46s-1.47.19-2.2,1.22c-1.27,1.78-1.15,4.55-.23,8.73"/>
        <g>
          <path class="cls-6" d="m259.87,63.79c-.2-1.12-.95-2.07-1.99-2.53l-9.94-3.59v-5.34h-7.23v5.34l-9.94,3.59c-1.05.46-1.79,1.4-1.99,2.53"/>
          <path class="cls-6" d="m252.04,44.23v4.1c0,4.26-3.46,7.72-7.72,7.72h0c-4.26,0-7.72-3.46-7.72-7.72v-4.1"/>
          <path class="cls-8" d="m239.07,58.71s1.66,2.57,5.26,2.57,5.26-2.57,5.26-2.57"/>
        </g>
        <path class="cls-6" d="m249.58,41.16s.86,2.54,2.47,4.45c0,0,.83-3.26,0-5.57"/>
        <path class="cls-6" d="m236.6,45.08s.53-1.75,1.07-2.3,1.33-1.12,1.83-1.97c.42-.72.51-1.11.51-1.89"/>
        <path class="cls-6" d="m240.02,38.92s1.22,1.17,3.43,1.77c0,0,6.67,2.6,10.11-2.18,0,0-.86.23-2.34-.77-1.77-1.2-3.45-3.06-5.85-3.49-3.3-.58-5.8.8-6.29,2.21"/>
      </g>
      <g>
        <path class="cls-5" d="m251.8,210.73c0-3.01,3.1-4.5,3.26-5.49l.03-.16c.16-1.03-.24-2.01-.97-2.64,1.13-.36,1.96-1.41,1.99-2.66v-.19c.02-1.29-.8-2.39-1.96-2.77.91-.77,1.27-2.07.81-3.24l-.06-.15c-.46-1.16-1.59-1.84-2.77-1.82.58-1.04.47-2.37-.36-3.31,0,0-.11-.12-.12-.13-.84-.93-2.15-1.19-3.25-.73.17-1.17-.4-2.37-1.5-2.95l-.21-.11c-1.09-.53-2.35-.32-3.2.45-.22-1.14-1.11-2.08-2.32-2.29l-.15-.03c-1.16-.2-2.28.32-2.9,1.24-.46-.99-1.46-1.68-2.62-1.68h-.14c-1.2,0-2.21.74-2.63,1.78-.66-.96-1.88-1.46-3.08-1.15l-.15.04c-1.29.33-2.14,1.48-2.16,2.75-1.2-.68-2.75-.41-3.65.69-.02.02-.13.16-.15.19-.39.51-.58,1.1-.59,1.7-.86-.34-1.87-.27-2.69.29-.02.01-.16.11-.18.12-1.18.84-1.53,2.41-.89,3.66-1.29-.03-2.47.83-2.83,2.12l-.04.14c-.33,1.21.16,2.45,1.14,3.13-1.04.46-1.74,1.51-1.71,2.72v.18c.06,1.18.81,2.16,1.85,2.56-.91.63-1.43,1.77-1.25,2.92.25,1.57,3.58,3.22,3.71,4.81"/>
        <g>
          <path class="cls-6" d="m267.88,245.65c-.41-2.31-1.95-4.25-4.09-5.19l-20.42-7.38v-10.97h-14.85v10.97l-20.42,7.38c-2.15.94-3.68,2.88-4.09,5.19"/>
          <path class="cls-6" d="m251.8,201.13v12.78c0,8.76-7.1,15.86-15.86,15.86h0c-8.76,0-15.86-7.1-15.86-15.86v-12.78"/>
          <path class="cls-8" d="m225.15,235.21s3.41,5.28,10.79,5.28,10.79-5.28,10.79-5.28"/>
        </g>
        <path class="cls-6" d="m249.68,201.77s-.2-.05-.21-.05c-1.34-.32-2.28-1.33-2.5-2.51-.96.78-2.35,1.03-3.6.54-1.21-.46-2.01-1.51-2.14-2.65-.89.7-2.13.95-3.31.57-.99-.32-1.74-1.03-2.1-1.88-.5.64-1.26,1.11-2.16,1.26-1.14.19-2.29-.17-3.07-.87-.19,1.02-.91,1.93-2.01,2.36-1.07.42-2.27.31-3.21-.21.06.97-.37,1.96-1.26,2.62,0,0-1.11.48-2.34.28"/>
      </g>
      <g>
        <path class="cls-6" d="m27.42,182.71c.02-.6-.34-1.13-.86-1.36.49-.3.76-.88.66-1.47v-.07c-.12-.6-.58-1.04-1.14-1.16.41-.39.57-1,.35-1.56l-.04-.09c-.23-.57-.78-.89-1.36-.88.34-.48.36-1.14,0-1.65l-.03-.05c-.35-.51-.97-.72-1.54-.58.22-.54.08-1.2-.38-1.61,0,0-.03-.03-.03-.03-.45-.41-1.1-.48-1.61-.22.08-.57-.2-1.16-.74-1.45l-.06-.03c-.55-.3-1.2-.2-1.64.19-.07-.58-.5-1.09-1.1-1.23,0,0-.07-.02-.08-.02-.61-.14-1.19.14-1.5.65-.21-.55-.74-.95-1.36-.93h-.11c-.62.03-1.12.44-1.3,1-.35-.47-.97-.69-1.57-.51l-.09.03c-.59.19-.96.72-.98,1.3-.46-.37-1.13-.43-1.66-.1l-.05.03c-.53.32-.77.93-.66,1.5-.53-.23-1.17-.13-1.6.31l-.05.05c-.43.44-.52,1.07-.28,1.6-.56-.1-1.16.14-1.48.65l-.05.08c-.32.52-.25,1.16.1,1.61-.58.01-1.11.37-1.32.94l-.03.09c-.2.58,0,1.19.44,1.55-.56.13-1.01.59-1.09,1.19v.09c-.09.61.22,1.16.73,1.43-.52.24-.87.78-.83,1.39v.09c.05.61.47,1.09,1.02,1.25-.46.34-.69.94-.53,1.53l.03.09c.17.59.68.97,1.26,1.02-.38.43-.48,1.08-.19,1.62l.04.08c.29.54.87.8,1.44.72-.29.52-.23,1.18.18,1.65l.04.04c.4.46,1.03.61,1.57.41-.15.56.06,1.17.55,1.53l.07.05c.51.36,1.15.33,1.63-.01-.02.59.34,1.15.92,1.38l.09.04c.58.22,1.2.02,1.57-.43.14.58.63,1.03,1.25,1.09h.09s.06.01.08.01c.59.02,1.1-.33,1.33-.84.28.52.88.84,1.5.73,0,0,.07-.01.08-.01.62-.11,1.05-.59,1.14-1.17.4.43,1.05.58,1.61.33l.1-.05c.56-.26.87-.83.82-1.41.5.3,1.16.28,1.64-.1l.06-.05c.49-.39.64-1.02.44-1.57.56.19,1.2.01,1.59-.48l.04-.06c.37-.48.4-1.12.1-1.61.57.05,1.14-.27,1.4-.82l.03-.06c.26-.55.15-1.18-.24-1.6.56-.08,1.04-.49,1.19-1.07l.02-.09c.14-.6-.11-1.18-.59-1.5.54-.19.94-.69.97-1.3v-.12s0-.02,0-.02Z"/>
        <g>
          <path class="cls-6" d="m29.72,197.51c-.19-.98-.88-1.8-1.86-2.2l-9.31-3.12v-4.64h-6.64v4.64l-9.31,3.12c-.97.4-1.67,1.22-1.86,2.2"/>
          <path class="cls-6" d="m21.68,179.46c0,4.66,0-1.68,0,2.98-.17,3.74-3.06,7.37-6.48,7.34-3.39-.02-6.23-3.64-6.4-7.34,0-4.66,0,.95,0-3.72"/>
          <path class="cls-6" d="m7.4,193.87s2.48,3.43,7.84,3.43,7.84-3.43,7.84-3.43"/>
          <path class="cls-6" d="m8.79,178.63s2.82-1.54,3.68-4.18c0,0,2.76,4.5,9.2,4.91"/>
        </g>
      </g>
      <g>
        <path class="cls-6" d="m189.79,308.95c.02-.6-.34-1.13-.86-1.36.49-.3.76-.88.66-1.47v-.07c-.12-.6-.58-1.04-1.14-1.16.41-.39.57-1,.35-1.56l-.04-.09c-.23-.57-.78-.89-1.36-.88.34-.48.36-1.14,0-1.65l-.03-.05c-.35-.51-.97-.72-1.54-.58.22-.54.08-1.2-.38-1.61,0,0-.03-.03-.03-.03-.45-.41-1.1-.48-1.61-.22.08-.57-.2-1.16-.74-1.45l-.06-.03c-.55-.3-1.2-.2-1.64.19-.07-.58-.5-1.09-1.1-1.23,0,0-.07-.02-.08-.02-.61-.14-1.19.14-1.5.65-.21-.55-.74-.95-1.36-.93h-.11c-.62.03-1.12.44-1.3,1-.35-.47-.97-.69-1.57-.51l-.09.03c-.59.19-.96.72-.98,1.3-.46-.37-1.13-.43-1.66-.1l-.05.03c-.53.32-.77.93-.66,1.5-.53-.23-1.17-.13-1.6.31l-.05.05c-.43.44-.52,1.07-.28,1.6-.56-.1-1.16.14-1.48.65l-.05.08c-.32.52-.25,1.16.1,1.61-.58.01-1.11.37-1.32.94l-.03.09c-.2.58,0,1.19.44,1.55-.56.13-1.01.59-1.09,1.19v.09c-.09.61.22,1.16.73,1.43-.52.24-.87.78-.83,1.39v.09c.05.61.47,1.09,1.02,1.25-.46.34-.69.94-.53,1.53l.03.09c.17.59.68.97,1.26,1.02-.38.43-.48,1.08-.19,1.62l.04.08c.29.54.87.8,1.44.72-.29.52-.23,1.18.18,1.65l.04.04c.4.46,1.03.61,1.57.41-.15.56.06,1.17.55,1.53l.07.05c.51.36,1.15.33,1.63-.01-.02.59.34,1.15.92,1.38l.09.04c.58.22,1.2.02,1.57-.43.14.58.63,1.03,1.25,1.09h.09s.06.01.08.01c.59.02,1.1-.33,1.33-.84.28.52.88.84,1.5.73,0,0,.07-.01.08-.01.62-.11,1.05-.59,1.14-1.17.4.43,1.05.58,1.61.33l.1-.05c.56-.26.87-.83.82-1.41.5.3,1.16.28,1.64-.1l.06-.05c.49-.39.64-1.02.44-1.57.56.19,1.2.01,1.59-.48l.04-.06c.37-.48.4-1.12.1-1.61.57.05,1.14-.27,1.4-.82l.03-.06c.26-.55.15-1.18-.24-1.6.56-.08,1.04-.49,1.19-1.07l.02-.09c.14-.6-.11-1.18-.59-1.5.54-.19.94-.69.97-1.3v-.12s0-.02,0-.02Z"/>
        <g>
          <path class="cls-6" d="m192.08,323.75c-.19-.98-.88-1.8-1.86-2.2l-9.31-3.12v-4.64h-6.64v4.64l-9.31,3.12c-.97.4-1.67,1.22-1.86,2.2"/>
          <path class="cls-6" d="m184.04,305.7c0,4.66,0-1.68,0,2.98-.17,3.74-3.06,7.37-6.48,7.34-3.39-.02-6.23-3.64-6.4-7.34,0-4.66,0,.95,0-3.72"/>
          <path class="cls-6" d="m169.76,320.12s2.48,3.43,7.84,3.43,7.84-3.43,7.84-3.43"/>
          <path class="cls-6" d="m171.16,304.88s2.82-1.54,3.68-4.18c0,0,2.76,4.5,9.2,4.91"/>
        </g>
      </g>
      <g>
        <path class="cls-2" d="m190.72,169.71c.04-1.24-.7-2.33-1.77-2.79,1-.62,1.57-1.8,1.35-3.03l-.02-.14c-.21-1.23-1.16-2.14-2.31-2.38.84-.8,1.16-2.05.72-3.2l-.08-.19c-.48-1.17-1.6-1.83-2.78-1.8.69-.99.73-2.34,0-3.38l-.07-.1c-.72-1.05-2-1.48-3.16-1.19.44-1.12.17-2.46-.77-3.31,0,0-.06-.06-.07-.06-.93-.84-2.26-.98-3.31-.44.15-1.18-.42-2.38-1.53-2.98l-.13-.07c-1.13-.61-2.47-.41-3.37.4-.15-1.2-1.03-2.23-2.27-2.52-.01,0-.14-.03-.16-.04-1.25-.28-2.45.29-3.08,1.33-.43-1.13-1.52-1.95-2.8-1.9h-.23c-1.27.06-2.3.91-2.66,2.06-.72-.97-2-1.42-3.22-1.05l-.18.06c-1.21.39-1.97,1.48-2.01,2.68-.95-.76-2.31-.88-3.41-.2l-.11.07c-1.08.66-1.58,1.91-1.36,3.08-1.09-.48-2.41-.26-3.29.64l-.1.11c-.88.89-1.07,2.2-.58,3.28-1.16-.2-2.37.28-3.03,1.34l-.1.16c-.65,1.08-.52,2.37.21,3.3-1.18.02-2.28.76-2.71,1.93l-.06.18c-.42,1.19-.02,2.44.89,3.19-1.14.27-2.06,1.21-2.25,2.45l-.03.19c-.16,1.25.48,2.38,1.52,2.93-1.07.49-1.78,1.6-1.71,2.85v.19c.1,1.26.96,2.24,2.1,2.57-.95.7-1.42,1.94-1.09,3.14l.05.18c.35,1.21,1.39,2,2.58,2.09-.79.89-.99,2.22-.4,3.33l.09.16c.6,1.11,1.8,1.65,2.97,1.47-.59,1.06-.48,2.42.37,3.38l.08.09c.82.95,2.12,1.25,3.23.84-.3,1.15.12,2.41,1.14,3.14l.15.11c1.05.73,2.37.67,3.34-.03-.03,1.21.69,2.37,1.88,2.83l.19.07c1.2.44,2.47.05,3.23-.88.29,1.18,1.29,2.11,2.57,2.24l.19.02c.06,0,.12,0,.17.01,1.21.04,2.25-.67,2.72-1.72.58,1.07,1.81,1.72,3.08,1.51.01,0,.15-.02.16-.03,1.27-.22,2.16-1.21,2.34-2.41.83.88,2.15,1.19,3.32.68l.21-.09c1.15-.53,1.78-1.71,1.68-2.9,1.03.63,2.38.58,3.37-.21l.12-.1c1-.8,1.31-2.09.9-3.22,1.15.39,2.47.03,3.26-.99l.09-.12c.77-.98.81-2.3.22-3.32,1.18.1,2.35-.55,2.88-1.68l.06-.12c.54-1.12.31-2.42-.49-3.28,1.15-.17,2.14-1,2.44-2.2l.05-.19c.29-1.22-.23-2.42-1.21-3.07,1.11-.38,1.93-1.41,1.99-2.66v-.25s0-.03,0-.03Z"/>
        <g>
          <g>
            <polyline class="cls-6" points="194.01 197.01 173.7 188.37 173.7 178.71 157.41 178.71 157.41 188.37 137.1 197.01"/>
            <polygon class="cls-6" points="165.56 194.97 173.7 188.37 173.7 178.71 157.41 178.71 157.41 188.37 165.56 194.97"/>
            <polygon class="cls-6" points="165.56 194.97 159.8 199.7 154.46 189.59 157.41 187 165.56 194.97"/>
            <polygon class="cls-6" points="165.56 194.97 171.31 199.7 176.65 189.59 173.7 187 165.56 194.97"/>
            <polyline class="cls-8" points="169.3 198.05 167.55 201.75 165.56 201.75 163.56 201.75 161.81 198.05"/>
            <polyline class="cls-8" points="163.56 201.75 161.81 214.79 165.55 218.9 169.3 214.79 167.55 201.75"/>
          </g>
          <path class="cls-6" d="m178.92,162.8c0,9.57,0-3.22,0,6.36-.35,7.67-6.28,15.13-13.32,15.08-6.97-.05-12.8-7.47-13.14-15.08,0-9.57,0,1.71,0-7.86"/>
          <path class="cls-6" d="m152.46,161.34s5.8-3.16,7.56-8.59c0,0,5.67,9.25,18.9,10.09"/>
        </g>
      </g>
      <g>
        <path class="cls-6" d="m346.9,208.4c0-1.54-1.95-7.36-2.54-8.72-1.55-3.58-4.75-5.82-8.46-5.82s-7.07,2.36-8.57,6.09c-.52,1.29-2.43,6.91-2.43,8.46,0,2.59,1.82,4.85,5.19,6.06.24.09,2.95.85,5.63.88s5.36-.67,5.53-.73c3.66-1.16,5.65-3.5,5.65-6.21Z"/>
        <g>
          <path class="cls-6" d="m350.38,221.59c-.19-.98-.88-1.8-1.86-2.2l-9.31-3.12v-4.64h-6.64v4.64l-9.31,3.12c-.97.4-1.67,1.22-1.86,2.2"/>
          <path class="cls-6" d="m342.34,202.71c0,4.66,0-.85,0,3.81-.17,3.74-3.06,7.37-6.48,7.34-3.39-.02-6.23-3.64-6.4-7.34,0-4.66,0,.95,0-3.72"/>
          <path class="cls-6" d="m328.06,217.95s2.48,3.43,7.84,3.43,7.84-3.43,7.84-3.43"/>
          <path class="cls-6" d="m329.46,202.71s5.63-1.54,6.49-4.18c0,0,1.53,3.21,6.4,4.18"/>
        </g>
      </g>
      <g>
        <path class="cls-6" d="m253.39,356.25c0-1.54-1.95-7.36-2.54-8.72-1.55-3.58-4.75-5.82-8.46-5.82s-7.07,2.36-8.57,6.09c-.52,1.29-2.43,6.91-2.43,8.46,0,2.59,1.82,4.85,5.19,6.06.24.09,2.95.85,5.63.88,2.69.03,5.36-.67,5.53-.73,3.66-1.16,5.65-3.5,5.65-6.21Z"/>
        <g>
          <path class="cls-6" d="m256.87,369.45c-.19-.98-.88-1.8-1.86-2.2l-9.31-3.12v-4.64h-6.64v4.64l-9.31,3.12c-.97.4-1.67,1.22-1.86,2.2"/>
          <path class="cls-6" d="m248.83,350.57c0,4.66,0-.85,0,3.81-.17,3.74-3.06,7.37-6.48,7.34-3.39-.02-6.23-3.64-6.4-7.34,0-4.66,0,.95,0-3.72"/>
          <path class="cls-6" d="m234.55,365.81s2.48,3.43,7.84,3.43,7.84-3.43,7.84-3.43"/>
          <path class="cls-6" d="m235.95,350.57s5.63-1.54,6.49-4.18c0,0,1.53,3.21,6.4,4.18"/>
        </g>
      </g>
      <g>
        <path class="cls-6" d="m77.73,48.71c0-1.54-1.95-7.36-2.54-8.72-1.55-3.58-4.75-5.82-8.46-5.82s-7.07,2.36-8.57,6.09c-.52,1.29-2.43,6.91-2.43,8.46,0,2.59,1.82,4.85,5.19,6.06.24.09,2.95.85,5.63.88,2.69.03,5.36-.67,5.53-.73,3.66-1.16,5.65-3.5,5.65-6.21Z"/>
        <g>
          <path class="cls-6" d="m81.22,61.9c-.19-.98-.88-1.8-1.86-2.2l-9.31-3.12v-4.64h-6.64v4.64l-9.31,3.12c-.97.4-1.67,1.22-1.86,2.2"/>
          <path class="cls-6" d="m73.17,43.03c0,4.66,0-.85,0,3.81-.17,3.74-3.06,7.37-6.48,7.34-3.39-.02-6.23-3.64-6.4-7.34,0-4.66,0,.95,0-3.72"/>
          <path class="cls-6" d="m58.9,58.27s2.48,3.43,7.84,3.43,7.84-3.43,7.84-3.43"/>
          <path class="cls-6" d="m60.29,43.03s5.63-1.54,6.49-4.18c0,0,1.53,3.21,6.4,4.18"/>
        </g>
      </g>
      <g>
        <path class="cls-6" d="m302.74,15.29c0-1.54-1.95-7.36-2.54-8.72-1.55-3.58-4.75-5.82-8.46-5.82s-7.07,2.36-8.57,6.09c-.52,1.29-2.43,6.91-2.43,8.46,0,2.59,1.82,4.85,5.19,6.06.24.09,2.95.85,5.63.88,2.69.03,5.36-.67,5.53-.73,3.66-1.16,5.65-3.5,5.65-6.21Z"/>
        <g>
          <path class="cls-6" d="m306.22,28.49c-.19-.98-.88-1.8-1.86-2.2l-9.31-3.12v-4.64h-6.64v4.64l-9.31,3.12c-.97.4-1.67,1.22-1.86,2.2"/>
          <path class="cls-6" d="m298.18,9.61c0,4.66,0-.85,0,3.81-.17,3.74-3.06,7.37-6.48,7.34-3.39-.02-6.23-3.64-6.4-7.34,0-4.66,0,.95,0-3.72"/>
          <path class="cls-6" d="m283.9,24.85s2.48,3.43,7.84,3.43,7.84-3.43,7.84-3.43"/>
          <path class="cls-6" d="m285.3,9.61s5.63-1.54,6.49-4.18c0,0,1.53,3.21,6.4,4.18"/>
        </g>
      </g>
      <g>
        <path class="cls-6" d="m94.98,165.74l.31-4.74c.43-4.39-2.32-8.27-7.04-8.27h-1.97c-4.72,0-7.47,3.89-7.04,8.27l.31,4.74h15.44Z"/>
        <g>
          <path class="cls-6" d="m102.81,182.23c-.2-1.12-.95-2.07-1.99-2.53l-9.94-3.59v-5.34h-7.23v5.34l-9.94,3.59c-1.05.46-1.79,1.4-1.99,2.53"/>
          <path class="cls-6" d="m94.98,160.57v6.21c0,4.26-3.46,7.72-7.72,7.72h0c-4.26,0-7.72-3.46-7.72-7.72v-6.21"/>
          <path class="cls-8" d="m82,177.15s1.66,2.57,5.26,2.57,5.26-2.57,5.26-2.57"/>
        </g>
        <path class="cls-6" d="m79.56,162.82c0-1.8.75-3.62,1.79-4.58,1.21-1.11,2.3-1.49,3.21-1.53.5-.02,4.95-.03,5.48,0,.89.05,1.96.44,3.13,1.52,1.05.96,1.79,2.78,1.79,4.58"/>
      </g>
      <g>
        <path class="cls-6" d="m167.38,21.77l.31-4.74c.43-4.39-2.32-8.27-7.04-8.27h-1.97c-4.72,0-7.47,3.89-7.04,8.27l.31,4.74h15.44Z"/>
        <g>
          <path class="cls-6" d="m175.21,38.26c-.2-1.12-.95-2.07-1.99-2.53l-9.94-3.59v-5.34h-7.23v5.34l-9.94,3.59c-1.05.46-1.79,1.4-1.99,2.53"/>
          <path class="cls-6" d="m167.38,16.6v6.21c0,4.26-3.46,7.72-7.72,7.72h0c-4.26,0-7.72-3.46-7.72-7.72v-6.21"/>
          <path class="cls-8" d="m154.4,33.18s1.66,2.57,5.26,2.57,5.26-2.57,5.26-2.57"/>
        </g>
        <path class="cls-6" d="m151.96,18.85c0-1.8.75-3.62,1.79-4.58,1.21-1.11,2.3-1.49,3.21-1.53.5-.02,4.95-.03,5.48,0,.89.05,1.96.44,3.13,1.52,1.05.96,1.79,2.78,1.79,4.58"/>
      </g>
      <g>
        <path class="cls-6" d="m386.05,263.23l.31-4.74c.43-4.39-2.32-8.27-7.04-8.27h-1.97c-4.72,0-7.47,3.89-7.04,8.27l.31,4.74h15.44Z"/>
        <g>
          <path class="cls-6" d="m393.87,279.72c-.2-1.12-.95-2.07-1.99-2.53l-9.94-3.59v-5.34h-7.23v5.34l-9.94,3.59c-1.05.46-1.79,1.4-1.99,2.53"/>
          <path class="cls-6" d="m386.05,258.06v6.21c0,4.26-3.46,7.72-7.72,7.72h0c-4.26,0-7.72-3.46-7.72-7.72v-6.21"/>
          <path class="cls-8" d="m373.07,274.64s1.66,2.57,5.26,2.57,5.26-2.57,5.26-2.57"/>
        </g>
        <path class="cls-6" d="m370.63,260.31c0-1.8.75-3.62,1.79-4.58,1.21-1.11,2.3-1.49,3.21-1.53.5-.02,4.95-.03,5.48,0,.89.05,1.96.44,3.13,1.52,1.05.96,1.79,2.78,1.79,4.58"/>
      </g>
      <g>
        <path class="cls-6" d="m68.96,248.11l.31-4.74c.43-4.39-2.32-8.27-7.04-8.27h-1.97c-4.72,0-7.47,3.89-7.04,8.27l.31,4.74h15.44Z"/>
        <g>
          <g>
            <polyline class="cls-6" points="74.98 262.22 65.09 258.01 65.09 253.31 57.16 253.31 57.16 258.01 47.26 262.22"/>
            <polygon class="cls-6" points="61.12 261.22 65.09 258.01 65.09 253.31 57.16 253.31 57.16 258.01 61.12 261.22"/>
            <polygon class="cls-6" points="61.12 261.22 58.32 263.53 55.72 258.6 57.16 257.34 61.12 261.22"/>
            <polygon class="cls-6" points="61.12 261.22 63.92 263.53 66.52 258.6 65.09 257.34 61.12 261.22"/>
            <polyline class="cls-8" points="62.95 262.72 62.09 264.53 61.12 264.53 60.15 264.53 59.3 262.72"/>
            <polyline class="cls-8" points="60.15 264.53 59.3 270.88 61.12 272.87 62.95 270.88 62.09 264.53"/>
          </g>
          <path class="cls-6" d="m68.96,242.94v6.21c0,4.26-3.46,7.72-7.72,7.72h0c-4.26,0-7.72-3.46-7.72-7.72v-6.21"/>
        </g>
        <path class="cls-6" d="m53.54,245.19c0-1.8.75-3.62,1.79-4.58,1.21-1.11,2.3-1.49,3.21-1.53.5-.02,4.95-.03,5.48,0,.89.05,1.96.44,3.13,1.52,1.05.96,1.79,2.78,1.79,4.58"/>
      </g>
      <g>
        <path class="cls-6" d="m341.12,53.55l.31-4.74c.43-4.39-2.32-8.27-7.04-8.27h-1.97c-4.72,0-7.47,3.89-7.04,8.27l.31,4.74h15.44Z"/>
        <g>
          <g>
            <polyline class="cls-6" points="347.14 67.65 337.25 63.45 337.25 58.74 329.32 58.74 329.32 63.45 319.43 67.65"/>
            <polygon class="cls-6" points="333.28 66.66 337.25 63.45 337.25 58.74 329.32 58.74 329.32 63.45 333.28 66.66"/>
            <polygon class="cls-6" points="333.28 66.66 330.48 68.97 327.88 64.04 329.32 62.78 333.28 66.66"/>
            <polygon class="cls-6" points="333.28 66.66 336.09 68.97 338.69 64.04 337.25 62.78 333.28 66.66"/>
            <polyline class="cls-8" points="335.11 68.16 334.26 69.96 333.28 69.96 332.31 69.96 331.46 68.16"/>
            <polyline class="cls-8" points="332.31 69.97 331.46 76.31 333.28 78.31 335.11 76.31 334.25 69.97"/>
          </g>
          <path class="cls-6" d="m341.12,48.38v6.21c0,4.26-3.46,7.72-7.72,7.72h0c-4.26,0-7.72-3.46-7.72-7.72v-6.21"/>
        </g>
        <path class="cls-6" d="m325.71,50.63c0-1.8.75-3.62,1.79-4.58,1.21-1.11,2.3-1.49,3.21-1.53.5-.02,4.95-.03,5.48,0,.89.05,1.96.44,3.13,1.52,1.05.96,1.79,2.78,1.79,4.58"/>
      </g>
      <g>
        <g>
          <path class="cls-6" d="m301.24,295.26s-.04-2.18.57-4.11c.57-1.82-.6-7.45-7.04-7.99-3.97-.33-6.01.62-6.54,2.15,0,0-1.47.19-2.2,1.22-1.27,1.78-1.15,4.55-.23,8.73"/>
          <g>
            <path class="cls-6" d="m309.03,312.64c-.2-1.12-.95-2.07-1.99-2.53l-9.94-3.59v-5.34h-7.23v5.34l-9.94,3.59c-1.05.46-1.79,1.4-1.99,2.53"/>
            <path class="cls-6" d="m301.2,293.08v4.1c0,4.26-3.46,7.72-7.72,7.72h0c-4.26,0-7.72-3.46-7.72-7.72v-4.1"/>
            <path class="cls-8" d="m288.22,307.56s1.66,2.57,5.26,2.57,5.26-2.57,5.26-2.57"/>
          </g>
          <path class="cls-6" d="m285.76,293.93s.53-1.75,1.07-2.3,1.33-1.12,1.83-1.97c.42-.72.51-1.11.51-1.89"/>
          <path class="cls-6" d="m289.17,287.77s1.22,1.17,3.43,1.77c2.41.65,5.86.76,6.87,1.31,1.25.67,1.72,2.04,1.72,3.55"/>
        </g>
        <line class="cls-8" x1="288.22" y1="285.31" x2="289.17" y2="287.77"/>
      </g>
      <g>
        <line class="cls-3" x1="143.91" y1="250.76" x2="45.53" y2="347.58"/>
        <path class="cls-7" d="m317.95,178.67c0,56.31-45.64,101.95-101.95,101.95-28.15,0-53.63-11.41-72.09-29.86-18.45-18.45-29.86-43.93-29.86-72.09,0-56.32,45.65-101.95,101.95-101.95s101.95,45.64,101.95,101.95Z"/>
        <rect class="cls-11" x="53.97" y="263.14" width="37.46" height="114.6" transform="translate(-102.49 598.42) rotate(-135)"/>
        <polygon class="cls-10" points="90.13 276.54 116.61 303.03 126.44 293.15 99.96 266.67 90.13 276.54"/>
        <path class="cls-1" d="m314.54,178.67c0,54.43-44.11,98.54-98.55,98.54-27.21,0-51.84-11.03-69.68-28.86-17.83-17.83-28.86-42.46-28.86-69.68,0-54.44,44.13-98.55,98.54-98.55s98.55,44.11,98.55,98.55Z"/>
      </g>
    </g>
  </g>
</svg>