<svg xmlns="http://www.w3.org/2000/svg" xmlns:xlink="http://www.w3.org/1999/xlink" viewBox="0 0 353.7 965.74"><defs><style>.cls-1,.cls-13,.cls-14,.cls-9{fill:none;}.cls-2{fill:url(#linear-gradient);}.cls-3{fill:url(#linear-gradient-2);}.cls-4{fill:#fff;}.cls-5{clip-path:url(#clip-path);}.cls-6{fill:#4e221f;}.cls-7{fill:#a46a56;}.cls-8{fill:#8c4e42;}.cls-9{stroke:#d53744;stroke-width:0.3px;}.cls-13,.cls-14,.cls-9{stroke-miterlimit:10;}.cls-10{fill:#d53744;}.cls-11{fill:#f86759;}.cls-12{fill:url(#linear-gradient-3);}.cls-13{stroke:#fff;}.cls-13,.cls-14{stroke-width:2.17px;}.cls-14{stroke:#f86759;}.cls-15{fill:#351816;}.cls-16{fill:#895747;}.cls-17{fill:#212b5c;}</style><linearGradient id="linear-gradient" x1="-25.85" y1="352.86" x2="349.26" y2="356.85" gradientUnits="userSpaceOnUse"><stop offset="0.23" stop-color="#98b4ff"/><stop offset="1" stop-color="#6b94ff"/></linearGradient><linearGradient id="linear-gradient-2" x1="-23.96" y1="174.71" x2="351.15" y2="178.7" xlink:href="#linear-gradient"/><clipPath id="clip-path"><circle id="SVGID" class="cls-1" cx="176.85" cy="176.85" r="142.54"/></clipPath><linearGradient id="linear-gradient-3" x1="78.1" y1="303.05" x2="278.73" y2="303.05" gradientUnits="userSpaceOnUse"><stop offset="0" stop-color="#fa958b"/><stop offset="1" stop-color="#f86759"/></linearGradient></defs><g id="Layer_2" data-name="Layer 2"><g id="Design"><path class="cls-2" d="M84.71,319.29H269a0,0,0,0,1,0,0V371a20,20,0,0,1-20,20H104.66a20,20,0,0,1-20-20V319.29A0,0,0,0,1,84.71,319.29Z"/><circle class="cls-3" cx="176.85" cy="176.85" r="176.85"/><circle class="cls-4" cx="176.85" cy="176.85" r="142.54"/><g class="cls-5"><ellipse class="cls-6" cx="178.26" cy="75.42" rx="29.18" ry="23.49"/><path class="cls-6" d="M220.46,96.94c0,16.46.74,62-42.13,61.92-42.05-.06-42-45.58-42-62s18.87-32.47,42.09-32.43S220.49,80.48,220.46,96.94Z"/><path class="cls-6" d="M178,181l-5.32-18.78s.66-95.89.36-95.78c-1.31.43-31.48.87-42,32.06-7.41,22-.66,42.82,13.12,61.51C161.36,183.37,169.44,180.52,178,181Z"/><path class="cls-6" d="M178.86,181l5.32-18.78s-.67-95.89-.37-95.78c1.32.43,31.49.87,42,32.06,7.42,22,.66,42.82-13.12,61.51C195.47,183.37,187.4,180.52,178.86,181Z"/><path class="cls-7" d="M263.79,218.34l-85.36-29.76h0L93.05,218.34s37.53,115.9,37.53,164.59h95.68C226.26,334.24,263.79,218.34,263.79,218.34Z"/><path class="cls-7" d="M162.94,705.56s9.5,38.62,9.5,66.09c0,64.15-12.76,63.61-12.76,148.59H144.12s-16-114.5-19.66-157.06c-2.35-27.4,1.08-57.62,1.08-57.62Z"/><path class="cls-7" d="M193.9,705.56s-9.5,38.62-9.5,66.09c0,64.15,12.76,63.61,12.76,148.59h15.56s16-114.5,19.67-157.06c2.34-27.4-1.09-57.62-1.09-57.62Z"/><path class="cls-7" d="M78.1,239.12s0,57.06,6.21,143.88h31c0-77,6.21-143.88,6.21-143.88Z"/><path class="cls-7" d="M84.22,383,70.42,492l18.81-3.29s26-95.41,26-105.67Z"/><path class="cls-7" d="M278.73,239.12s0,57.06-6.22,143.88h-31c0-77-6.22-143.88-6.22-143.88Z"/><path class="cls-7" d="M226.26,382.93c5.9,10.13,33.47,60.35,33.47,96.78,0,0-37.67,33.52-81.3,33.52h0c-43.63,0-81.3-33.52-81.3-33.52,0-34,25.59-82.86,33.47-96.78Z"/><path class="cls-7" d="M172.44,479.71a37.67,37.67,0,0,0-75.33,0,.43.43,0,0,0,0,.05c0,53.68-12.54,77,28.42,225.8h37.4c0-60.1,12.69-113.07,12.69-179C175.63,497.14,172.44,485.23,172.44,479.71Z"/><circle class="cls-7" cx="134.78" cy="479.71" r="37.66"/><path class="cls-7" d="M184.4,479.71a37.67,37.67,0,0,1,75.33,0v.05c0,53.68,12.53,77-28.43,225.8H193.9c0-60.1-12.69-113.07-12.69-179C181.21,497.14,184.4,485.23,184.4,479.71Z"/><circle class="cls-7" cx="222.06" cy="479.71" r="37.66"/><circle class="cls-7" cx="99.8" cy="239.12" r="21.7"/><circle class="cls-7" cx="257.03" cy="239.12" r="21.7"/><circle class="cls-7" cx="178.42" cy="382.93" r="47.84"/><circle class="cls-7" cx="99.7" cy="383" r="15.49"/><circle class="cls-7" cx="257.03" cy="383" r="15.49"/><circle class="cls-7" cx="80.5" cy="493.7" r="10.08"/><path class="cls-7" d="M272.51,383l13.8,109-18.81-3.29s-26-95.41-26-105.67Z"/><circle class="cls-7" cx="276.23" cy="493.7" r="10.08"/><circle class="cls-7" cx="144.24" cy="705.56" r="18.7"/><circle class="cls-7" cx="212.6" cy="705.56" r="18.7"/><circle class="cls-7" cx="151.9" cy="920.24" r="7.78"/><circle class="cls-7" cx="204.94" cy="920.24" r="7.78"/><path class="cls-7" d="M237.1,946.05S226.87,929.92,217,923.91a15,15,0,0,1-4.16-3.67h0l-15.33,1.9h0s-5.2,11.49-6.36,17.43c-.86,4.45,1.71,6.14,4.67,9.1a102.17,102.17,0,0,0,6.41,11.71c5.17,5.64,13.84,7.33,34.44,2.62C247.53,960.52,237.1,946.05,237.1,946.05Z"/><path class="cls-7" d="M120.23,946.05s10.23-16.13,20.08-22.14a14.91,14.91,0,0,0,4.16-3.67h0l15.33,1.9h0s5.2,11.49,6.36,17.43c.86,4.45-1.71,6.14-4.67,9.1a102.17,102.17,0,0,1-6.41,11.71c-5.17,5.64-13.84,7.33-34.44,2.62C109.8,960.52,120.23,946.05,120.23,946.05Z"/><circle class="cls-7" cx="178.43" cy="198.93" r="20.73"/><polygon class="cls-7" points="198.88 195.69 192.99 154.88 163.97 154.83 157.95 195.7 198.88 195.69"/><path class="cls-8" d="M160.33,179.56s11.51,21.56,38.55,16.13l-2.34-16.2C191.05,183.7,165.78,183.73,160.33,179.56Z"/><circle class="cls-9" cx="178.48" cy="154.85" r="14.51"/><path class="cls-10" d="M186.38,152.72a2,2,0,0,1-.93,2.18,2.92,2.92,0,0,1-2.48.19,1.75,1.75,0,0,0-1.15,0,4.08,4.08,0,0,0-1,.64,3.75,3.75,0,0,1-4.77,0,4.08,4.08,0,0,0-1-.64,1.72,1.72,0,0,0-1.14,0,2.94,2.94,0,0,1-2.49-.2,2,2,0,0,1-.92-2.18,2,2,0,0,0,1,2.06,2.75,2.75,0,0,0,2.33.1,1.82,1.82,0,0,1,1.3-.05,4.22,4.22,0,0,1,1.09.66,3.39,3.39,0,0,0,2.22.78,3.33,3.33,0,0,0,2.23-.77,4.43,4.43,0,0,1,1.09-.67,1.93,1.93,0,0,1,1.3.06,2.72,2.72,0,0,0,2.33-.09A2,2,0,0,0,186.38,152.72Z"/><path class="cls-10" d="M189.73,165.09a38.59,38.59,0,0,1-5.32,3.09,13.39,13.39,0,0,1-12,0,36,36,0,0,1-5.3-3.11c1.84.92,3.55,2,5.42,2.85a13.28,13.28,0,0,0,11.75,0C186.17,167.13,187.9,166,189.73,165.09Z"/><path class="cls-10" d="M193.17,163.73a4.62,4.62,0,0,1-3.27,1.84,13.34,13.34,0,0,1-3.83-.28c-2.55-.79-5.07.39-7.64.36s-5.09-1.16-7.64-.38a13,13,0,0,1-3.84.27,4.65,4.65,0,0,1-3.27-1.85l0,0a4.51,4.51,0,0,0,3.26,1.71,13,13,0,0,0,3.78-.31c.64-.11,1.27-.24,1.93-.3a8,8,0,0,1,2,.16,17.07,17.07,0,0,0,7.57,0,8.51,8.51,0,0,1,2-.15,17.07,17.07,0,0,1,1.92.3,13.47,13.47,0,0,0,3.78.32,4.52,4.52,0,0,0,3.27-1.7Z"/><path class="cls-11" d="M261.93,477.21a3.07,3.07,0,0,1-.08-.67c-.32-35.5-25.71-79.27-33.34-92.3a3.48,3.48,0,0,0-3-1.73H130.9a3.48,3.48,0,0,0-3,1.73c-7.63,13-33,56.8-33.34,92.3a3.07,3.07,0,0,1-.08.67c-.79,3.63-2.82,22.41-1,56.23,2.07,39.56,6.2,78,11.86,117.15C117,731.8,116,814.34,129,895.58c.27,1.72,13.37,4.41,15.1,4.41h15.32c1.93,0,12.57-1.57,12.57-3.51V766.6c0-23.12-3.1-55.94-5.28-65.37a26.23,26.23,0,0,1-.65-4.75,3.68,3.68,0,0,1,0-.67,21.22,21.22,0,0,0,.27-3.31v-.09S171.8,587.24,178,543.6l0-.16a.88.88,0,0,0,0,.16c0,.26.07.53.11.81v.24l0-.12,0,.12v-.24c0-.28.07-.55.11-.81,0-.05,0-.11,0-.16l0,.16C184.6,587.24,190,692.41,190,692.41s0,.06,0,.09a22.51,22.51,0,0,0,.27,3.31,3,3,0,0,1,0,.67,27.14,27.14,0,0,1-.65,4.75c-2.18,9.43-5.28,42.25-5.28,65.37V896.48C184.4,898.42,195,900,197,900h15.32c1.73,0,14.83-2.69,15.1-4.41,13-81.24,12-163.78,23.72-245C256.77,611.44,260.9,573,263,533.44,264.74,499.62,262.72,480.84,261.93,477.21Z"/><path class="cls-12" d="M263.74,218.49l.05-.15-30.7-10.7c-1.89,16.91-18.21,46.79-54.12,47.15l-.34,0v0l-.22,0-.21,0,0,0a3.16,3.16,0,0,1-.32,0c-35.9-.36-52.22-30.24-54.12-47.15L93,218.34l0,.15a21.7,21.7,0,0,0-15,20.63s0,57.06,6.21,143.88h31c0-28.91.87-56.38,2-79.43,1.56,6.33,3.06,12.7,4.46,19h-.16c2.71,18.27,9.49,60.44,9.49,60.44s31.52,17.61,47.19,15.23c15.7,2.31,47.11-15.24,47.11-15.24s6.91-39.06,9.08-57.37c1.59-7.29,3.33-14.71,5.14-22.06,1.09,23.05,2,50.52,2,79.43h31c6.22-86.82,6.22-143.88,6.22-143.88A21.7,21.7,0,0,0,263.74,218.49Z"/><ellipse class="cls-13" cx="227.87" cy="402" rx="2.47" ry="2.31"/><path class="cls-14" d="M179.82,414v46.26s.15,17-11.61,17"/><path class="cls-8" d="M146.06,138.57c2.11,8.13,1.57,15.31-1.22,16s-9-9.6-11.14-17.73.7-11,3.48-11.71C141.54,124,143.94,130.44,146.06,138.57Z"/><path class="cls-8" d="M210.65,138.57c-2.12,8.13-1.58,15.31,1.21,16s9-9.6,11.14-17.73-.7-11-3.48-11.71C215.16,124,212.76,130.44,210.65,138.57Z"/><path class="cls-7" d="M218,115.58C216.56,99,211.09,79,178.52,78.93h-.34c-32.57.09-38,20-39.45,36.65-.7,8.26,1.06,16.44,3,24.42,2.61,10.6,4.84,22,10.82,31.3,5.38,8.37,15.44,15.92,25.77,15.93h0c10.33,0,20.39-7.56,25.77-15.93,6-9.32,8.21-20.7,10.82-31.3C216.91,132,218.67,123.84,218,115.58Z"/><path class="cls-15" d="M205.47,126c-2.75-.56-5.37-1.42-8.19-1.55a46,46,0,0,0-6.84.21c-1.26.13-4.48.11-3.94-2a3.22,3.22,0,0,1,1.86-1.85,9.2,9.2,0,0,1,4.16-.72,19,19,0,0,1,9.89,2.78l.22.13a37,37,0,0,1,3.31,2.32S206.91,126.24,205.47,126Z"/><ellipse class="cls-15" cx="162.24" cy="132.32" rx="3" ry="3.62"/><ellipse class="cls-15" cx="194.48" cy="132.32" rx="3" ry="3.62"/><path class="cls-15" d="M151.25,126c2.75-.56,5.37-1.42,8.19-1.55a46,46,0,0,1,6.84.21c1.26.13,4.48.11,3.94-2a3.22,3.22,0,0,0-1.86-1.85,9.2,9.2,0,0,0-4.16-.72,19,19,0,0,0-9.9,2.78l-.21.13a37,37,0,0,0-3.31,2.32S149.81,126.24,151.25,126Z"/><path class="cls-16" d="M186.43,152.75c.35,1.27-1,3.08-3.37,2.26-1.93-.68-2.12,1.42-4.53,1.42h-.12c-2.41,0-2.6-2.1-4.52-1.43-2.34.81-3.72-1-3.37-2.27l7.72-17.5Z"/><path class="cls-4" d="M166.06,163.43s5.56,6.65,13.07,6.69h0c7.51,0,13.07-6.69,13.07-6.69C188,164.7,170.3,164.7,166.06,163.43Z"/><path class="cls-6" d="M135.47,122.11,146,112.23h61.45l12.57,7.48s3.7-46.68-43-46.09C132.47,74.2,135.47,122.11,135.47,122.11Z"/></g><path class="cls-17" d="M154.47,361.28a5.77,5.77,0,0,1-2.13,4.7,9.19,9.19,0,0,1-6,1.75,14.22,14.22,0,0,1-6.27-1.33V362c1.06.45,2.15.87,3.27,1.25a10.26,10.26,0,0,0,3.37.58,3.64,3.64,0,0,0,2.46-.67,2.17,2.17,0,0,0,.73-1.69,2,2,0,0,0-.57-1.43,6.42,6.42,0,0,0-1.54-1.1c-.64-.34-1.37-.7-2.2-1.1-.52-.24-1.07-.54-1.67-.88a8.87,8.87,0,0,1-1.72-1.27,6.06,6.06,0,0,1-1.35-1.85,5.91,5.91,0,0,1-.53-2.6,5.64,5.64,0,0,1,2-4.63A8.34,8.34,0,0,1,147.8,345a13,13,0,0,1,3.29.4,23.23,23.23,0,0,1,3.29,1.15l-1.52,3.66a26.44,26.44,0,0,0-2.73-1,9.39,9.39,0,0,0-2.48-.34,3.06,3.06,0,0,0-2.05.62,2.06,2.06,0,0,0-.71,1.61,2.13,2.13,0,0,0,1.05,1.87,31.58,31.58,0,0,0,3.13,1.67,17.8,17.8,0,0,1,2.9,1.67,6.3,6.3,0,0,1,1.85,2.05A6,6,0,0,1,154.47,361.28Z"/><path class="cls-17" d="M173.5,358.93a9,9,0,0,1-2.21,6.51,8,8,0,0,1-6,2.29,8.53,8.53,0,0,1-4.2-1,7.21,7.21,0,0,1-2.9-3,10,10,0,0,1-1.06-4.79,9,9,0,0,1,2.2-6.48,8.05,8.05,0,0,1,6-2.26,8.53,8.53,0,0,1,4.22,1,7.3,7.3,0,0,1,2.88,3A10,10,0,0,1,173.5,358.93Zm-11.68,0a7.06,7.06,0,0,0,.82,3.79,3.4,3.4,0,0,0,5.33,0,7.06,7.06,0,0,0,.82-3.79,6.94,6.94,0,0,0-.82-3.77,3,3,0,0,0-2.68-1.26,2.92,2.92,0,0,0-2.65,1.26A6.94,6.94,0,0,0,161.82,358.93Z"/><path class="cls-17" d="M186.68,354h-4v13.45h-4.62V354h-2.54v-2.24l2.54-1.23v-1.25a6.45,6.45,0,0,1,.73-3.36,4,4,0,0,1,2.07-1.69,9.24,9.24,0,0,1,3.18-.49,13.24,13.24,0,0,1,2.45.21,10.16,10.16,0,0,1,1.8.5l-1.18,3.38c-.35-.11-.74-.2-1.16-.3a6.88,6.88,0,0,0-1.41-.14,1.67,1.67,0,0,0-1.41.59,2.4,2.4,0,0,0-.45,1.49v1.06h4Z"/><path class="cls-17" d="M191.64,343.86a3.15,3.15,0,0,1,1.76.48,2.48,2.48,0,0,1,0,3.55,3.09,3.09,0,0,1-1.76.5,3.12,3.12,0,0,1-1.79-.5,2.55,2.55,0,0,1,0-3.55A3.19,3.19,0,0,1,191.64,343.86Zm2.29,6.64v16.92h-4.62V350.5Z"/><path class="cls-17" d="M205.71,350.15a8.11,8.11,0,0,1,5.22,1.48,5.46,5.46,0,0,1,1.82,4.51v11.28h-3.23l-.9-2.29h-.12a7.15,7.15,0,0,1-2.29,2,7.44,7.44,0,0,1-3.32.62,5.47,5.47,0,0,1-3.75-1.3,5.13,5.13,0,0,1-1.49-4.06,4.45,4.45,0,0,1,1.89-4,11.11,11.11,0,0,1,5.67-1.43l2.95-.09v-.74a2.49,2.49,0,0,0-.7-2,2.82,2.82,0,0,0-1.94-.62,8.18,8.18,0,0,0-2.41.36,20.53,20.53,0,0,0-2.36.88l-1.52-3.13a14.37,14.37,0,0,1,3-1.1A14.15,14.15,0,0,1,205.71,350.15Zm2.45,9.43-1.8.06a5,5,0,0,0-3.1.81,2.43,2.43,0,0,0-.87,1.95,1.74,1.74,0,0,0,.62,1.5,2.7,2.7,0,0,0,1.62.45,3.72,3.72,0,0,0,2.51-.88,3.13,3.13,0,0,0,1-2.5Z"/></g></g></svg>