<svg xmlns="http://www.w3.org/2000/svg" xmlns:xlink="http://www.w3.org/1999/xlink" viewBox="0 0 353.6 975.63"><defs><style>.cls-1,.cls-23{fill:none;}.cls-2{fill:url(#linear-gradient);}.cls-3{fill:url(#linear-gradient-2);}.cls-4{fill:#fff;}.cls-5{clip-path:url(#clip-path);}.cls-6{fill:#2de498;}.cls-7{fill:#8c4e42;}.cls-8{fill:#734036;}.cls-9{fill:#c78168;}.cls-10{fill:#66708f;}.cls-11{fill:#012560;}.cls-12{fill:url(#linear-gradient-3);}.cls-13{fill:#b7c6ef;}.cls-14{fill:url(#linear-gradient-4);}.cls-15{fill:url(#linear-gradient-5);}.cls-16{fill:#cdd7f4;}.cls-17{fill:url(#linear-gradient-6);}.cls-18{fill:url(#linear-gradient-7);}.cls-19{fill:#024a99;}.cls-20{fill:#4a7cb5;}.cls-21{fill:#6cecb7;}.cls-22{opacity:0.3;}.cls-23{stroke:#6b94ff;stroke-miterlimit:10;stroke-width:1.06px;}.cls-24{fill:#2a1b1a;}.cls-25{fill:#351816;}.cls-26{fill:#212b5c;}</style><linearGradient id="linear-gradient" x1="-5.92" y1="355.08" x2="349.55" y2="355.08" gradientUnits="userSpaceOnUse"><stop offset="0.23" stop-color="#98b4ff"/><stop offset="1" stop-color="#6b94ff"/></linearGradient><linearGradient id="linear-gradient-2" x1="-5.92" y1="176.8" x2="349.55" y2="176.8" xlink:href="#linear-gradient"/><clipPath id="clip-path"><circle class="cls-1" cx="176.8" cy="176.8" r="142.5"/></clipPath><linearGradient id="linear-gradient-3" x1="37.98" y1="308.22" x2="298.96" y2="311.81" gradientUnits="userSpaceOnUse"><stop offset="0" stop-color="#6cecb7"/><stop offset="1" stop-color="#2de498"/></linearGradient><linearGradient id="linear-gradient-4" x1="38.91" y1="240.31" x2="299.89" y2="243.9" xlink:href="#linear-gradient-3"/><linearGradient id="linear-gradient-5" x1="37.93" y1="311.49" x2="298.91" y2="315.08" xlink:href="#linear-gradient-3"/><linearGradient id="linear-gradient-6" x1="38.88" y1="242.77" x2="299.86" y2="246.37" xlink:href="#linear-gradient-3"/><linearGradient id="linear-gradient-7" x1="37.76" y1="324.19" x2="298.74" y2="327.78" xlink:href="#linear-gradient-3"/></defs><g id="Layer_2" data-name="Layer 2"><g id="Design"><path class="cls-2" d="M84.66,319.24H268.94a0,0,0,0,1,0,0V371a20,20,0,0,1-20,20H104.61a20,20,0,0,1-20-20V319.24A0,0,0,0,1,84.66,319.24Z"/><circle class="cls-3" cx="176.8" cy="176.8" r="176.8"/><circle class="cls-4" cx="176.8" cy="176.8" r="142.5"/><g class="cls-5"><path class="cls-6" d="M203.27,197.37l5.57,2,2.14-9.67s1.2-4.5-10.18-4.62H155.9c-11.38.12-11.29,4.62-11.29,4.62l3.25,9.67,5.57-2Z"/><path class="cls-7" d="M96.14,950s13.33-21,26.16-28.84a19.74,19.74,0,0,0,5.43-4.79h0l20,2.48h0s6.78,15,8.29,22.71c1.12,5.8-2.23,8-6.08,11.85-2.53,6.08-8.36,15.27-8.36,15.27-6.73,7.35-18,9.54-44.88,3.4C82.54,968.83,96.14,950,96.14,950Z"/><path class="cls-7" d="M259.7,950s-13.33-21-26.16-28.84a19.56,19.56,0,0,1-5.42-4.79h0l-20,2.48h0s-6.78,15-8.29,22.71c-1.13,5.8,2.23,8,6.08,11.85,2.52,6.08,8.36,15.27,8.36,15.27,6.73,7.35,18,9.54,44.87,3.4C273.3,968.83,259.7,950,259.7,950Z"/><path class="cls-7" d="M149.18,689.61s16,50.76,16,80.16c0,68.68-14,89.47-17.51,149.06l-20-2.48S111.88,810,108,764.43c-2.5-29.33,1.16-74.82,1.16-74.82Z"/><path class="cls-7" d="M206.66,689.61s-16,50.76-16,80.16c0,68.68,14,89.47,17.51,149.06l20-2.48S244,810,247.86,764.43c2.51-29.33-1.16-74.82-1.16-74.82Z"/><path class="cls-7" d="M165.76,477.34a32.57,32.57,0,0,0-32.57-32.57c-17.68,0-32.29,14.16-32.54,31.68-.36,24.91-29.79,49.51,8.49,213.16h40c12.26-62.37,23-104.06,23-140.67C172.19,508.92,166,498.51,165.76,477.34Z"/><path class="cls-7" d="M190.11,477.34a32.57,32.57,0,0,1,32.56-32.57c17.69,0,32.29,14.16,32.55,31.68.36,24.91,29.79,49.51-8.5,213.16h-40c-12.25-62.37-23-104.06-23-140.67C183.68,508.92,189.84,498.51,190.11,477.34Z"/><path class="cls-7" d="M233.53,383.21s19.37,56,21.69,93.24c0,0-32.57,35.49-77.3,35.49s-77.29-35.49-77.29-35.49c2.31-37.21,21.68-93.24,21.68-93.24Z"/><circle class="cls-7" cx="133.19" cy="477.34" r="32.56"/><circle class="cls-7" cx="222.67" cy="477.34" r="32.56"/><circle class="cls-7" cx="68.18" cy="501.45" r="10.61"/><circle class="cls-7" cx="287.7" cy="501.45" r="10.61"/><line class="cls-7" x1="99.49" y1="274.64" x2="256.32" y2="274.64"/><path class="cls-7" d="M62.76,239.39S51,337.57,55,384.17l32.45-3.32C99.69,341.71,114,247.75,114,247.75Z"/><path class="cls-7" d="M55.22,385.56c-7.78,44.68,2.19,115.61,2.19,115.61l19.1-6.28c10.58-61.23,12.54-103.34,11-114Z"/><path class="cls-7" d="M293.11,239.39s11.79,98.18,7.71,144.78l-32.45-3.32c-12.2-39.14-26.45-133.1-26.45-133.1Z"/><circle class="cls-7" cx="284.53" cy="383.21" r="16.31"/><path class="cls-7" d="M300.66,385.56c7.78,44.68-2.19,115.61-2.19,115.61l-19.1-6.28c-10.58-61.23-12.54-103.34-11-114Z"/><path class="cls-7" d="M177.92,186.82,81.19,218.61s41.12,115.84,41.12,164.6H233.53c0-48.76,41.12-164.6,41.12-164.6l-96.73-31.79"/><circle class="cls-7" cx="88.43" cy="243.46" r="25.87"/><circle class="cls-7" cx="267.43" cy="243.46" r="25.87"/><circle class="cls-7" cx="178.32" cy="195.08" r="26.76"/><circle class="cls-7" cx="177.92" cy="382.35" r="55.61"/><circle class="cls-7" cx="71.35" cy="383.21" r="16.31"/><path class="cls-7" d="M205.08,194.36l-.05-.3a27.13,27.13,0,0,0-1.29-7.31l-5.28-29.91-40.16-.06-5.37,29.88a26.9,26.9,0,0,0-1.31,7.33l-.06.3h0c0,.25,0,.5,0,.75a26.76,26.76,0,1,0,53.52.07c0-.25,0-.5,0-.75Z"/><path class="cls-8" d="M155.64,171.61l-.09.49c2.91,4.72,18.17,26.39,49.41,21.05a27,27,0,0,0-1.22-6.4l-2.53-14.35C191,176.59,163.33,176.34,155.64,171.61Z"/><circle class="cls-7" cx="178.38" cy="156.81" r="20.08"/><circle class="cls-9" cx="129.16" cy="689.61" r="20.02"/><circle class="cls-9" cx="226.68" cy="689.61" r="20.02"/><circle class="cls-9" cx="137.37" cy="911.72" r="8.33"/><circle class="cls-9" cx="218.48" cy="911.72" r="8.33"/><path class="cls-10" d="M259.7,950s-13.33-21-26.16-28.84a19.56,19.56,0,0,1-5.42-4.79h0l-20,2.48h0s-6.78,15-8.29,22.71c-1.13,5.8,2.23,8,6.08,11.85,2.52,6.08,8.36,15.27,8.36,15.27,6.73,7.35,18,9.54,44.87,3.4C273.3,968.83,259.7,950,259.7,950Z"/><path class="cls-10" d="M96.14,950s13.33-21,26.16-28.84a19.74,19.74,0,0,0,5.43-4.79h0l20,2.48h0s6.78,15,8.29,22.71c1.12,5.8-2.23,8-6.08,11.85-2.53,6.08-8.36,15.27-8.36,15.27-6.73,7.35-18,9.54-44.88,3.4C82.54,968.83,96.14,950,96.14,950Z"/><path class="cls-11" d="M260.34,490.77c-8.68-42.19-12.18-57.46-13.33-62.26a2.49,2.49,0,0,0-2.48-1.9L113.2,429.22a2.44,2.44,0,0,0-2.09,1.21C108.43,434.94,99,453,91.63,494.26,81,553.49,95,667.16,100.63,722c5.15,50.58,20.27,184.29,21.14,191.92a2.52,2.52,0,0,0,.16.67c5.55,14.49,25.45,9.06,31.11,7.17a2.47,2.47,0,0,0,1.68-2.11c5.6-51.35,15.05-63.37,14.83-137.53-.08-27.07-4.77-58.62-5.25-61.77a1.8,1.8,0,0,1,0-.52c3.49-55.87,11-161.15,11.33-165.81a1.75,1.75,0,0,1,0-.33h0a2.5,2.5,0,0,1,4.94.31c3.56,41.47,12.53,147.88,12.35,163,0,.07,0,.12,0,.19-.18,2-3.22,37.23-3.22,64.92,0,66.06,9.37,77,12.82,133.53a2.5,2.5,0,0,0,1.32,2.07c5.06,2.67,24.38,11.84,33.1,1.36a2.51,2.51,0,0,0,.55-1.44l12.48-205c0-.11,0-.2,0-.31C251,707.27,277.25,573,260.34,490.77Z"/><path class="cls-12" d="M293.11,239.39s11.79,98.18,7.71,144.78l-32.45-3.32c-12.2-39.14-26.45-133.1-26.45-133.1Z"/><path class="cls-13" d="M300.66,385.56c7.78,44.68-2.19,115.61-2.19,115.61l-19.1-6.28c-10.58-61.23-12.54-103.34-11-114Z"/><circle class="cls-14" cx="267.43" cy="243.46" r="25.87"/><circle class="cls-13" cx="283.03" cy="383.21" r="16.31"/><path class="cls-15" d="M62.76,239.39S51,337.57,55,384.17l32.45-3.32C99.69,341.71,114,247.75,114,247.75Z"/><path class="cls-16" d="M55.22,385.56c-7.78,44.68,2.19,115.61,2.19,115.61l19.1-6.28c10.58-61.23,12.54-103.34,11-114Z"/><circle class="cls-17" cx="88.43" cy="243.46" r="25.87"/><circle class="cls-16" cx="71.35" cy="383.21" r="16.31"/><path class="cls-18" d="M245.75,333.8c.85-11.39,1.74-21.68,2.63-31,11.78-43.38,26.27-84.2,26.27-84.2L265,215.42l.19-.2c-21.54-7.22-51.94-17.77-51.94-17.77l-1.81.37L205,195.73l-7.22,4.87-9.9,2-9.44,9.92-10.59-9.92-10.36-2.13-7-4.7-6.14,2-1.83-.38L89.4,215.22s0,.23.1.66l-8.31,2.73s8,22.58,17,52c4.58,28.1,9.84,58.8,12.8,70.91,2.32,9.48,1.55,26.89-2.47,41.28-4.49,16.09-10,51.4-3.48,55.18a131.72,131.72,0,0,0,56.33,18.26c28.54,2.67,75.4-4.11,86.3-10.43,6.52-3.78,4.17-46.92-.32-63C241.34,361.37,245.75,333.8,245.75,333.8Z"/><polygon class="cls-19" points="161.25 407.26 173.72 222.47 180.84 222.47 193.31 407.26 177.58 421.86 161.25 407.26"/><polygon class="cls-20" points="162.45 204.1 173.39 228.55 181.17 228.55 192.11 204.1 162.45 204.1"/><path class="cls-21" d="M211,189l6.21,10.38-25.58,19.89c-4.19-.91-10.79-15.19-10.79-15.19S202.35,201.17,211,189Z"/><path class="cls-21" d="M144.82,189l-6.21,10.38,25.58,19.89c4.19-.91,10.79-15.19,10.79-15.19S153.46,201.17,144.82,189Z"/><g class="cls-22"><path class="cls-23" d="M180.91,476.41v43.16s.14,15.9-10.83,15.9"/><path class="cls-23" d="M219,460.71s.93,21.84,36.6,28.3"/><ellipse class="cls-23" cx="170.96" cy="474.7" rx="3.04" ry="3.87"/><path class="cls-23" d="M131.34,465.73s-.92,21.83-36.59,28.29"/></g><path class="cls-7" d="M297.78,504.75l-20.23-5.95-13.1,26.51-2.3,7.59,5.51,6.08c.24-1.46,4.15-.8,3.41,3.45,6.76,1.54,14.23,3.32,21,4.86Z"/><rect class="cls-7" x="267.37" y="544.13" width="9.46" height="14.93" transform="translate(254.44 -63.21) rotate(24.61)"/><path class="cls-7" d="M259.66,578h0a4.91,4.91,0,0,1-2.23-4.25l.07-1.41a16.45,16.45,0,0,1,2.28-7.67l4.92-8.23,7.4,5.89Z"/><circle class="cls-7" cx="268.52" cy="559.16" r="4.85"/><circle class="cls-7" cx="275.59" cy="543.77" r="4.8"/><rect class="cls-7" x="259.87" y="534.19" width="9.46" height="10.21" transform="translate(321.7 1137.29) rotate(-159.32)"/><path class="cls-7" d="M259.86,560.41h0A5.51,5.51,0,0,0,264,558.3l.7-1a11.68,11.68,0,0,0,2.16-6.23l.25-7.64-9.38,1.27Z"/><circle class="cls-7" cx="262.64" cy="544.12" r="4.85"/><circle class="cls-7" cx="266.87" cy="533.53" r="4.8"/><rect class="cls-7" x="275.57" y="547.39" width="9.46" height="14.93" transform="translate(208.73 -62.65) rotate(20.19)"/><path class="cls-7" d="M269.79,580.94h0a4.93,4.93,0,0,1-2.35-4.18l0-1.41a16.37,16.37,0,0,1,2.06-7.73l4.66-8.38,7.58,5.66Z"/><circle class="cls-7" cx="277.61" cy="562.24" r="4.85"/><circle class="cls-7" cx="283.17" cy="546.79" r="4.8"/><rect class="cls-7" x="270.42" y="547.78" width="9.46" height="16.28" transform="translate(244.14 -63.59) rotate(23.47)"/><path class="cls-7" d="M263.9,582.34h0a4.72,4.72,0,0,1-2.33-4.3l.07-1.53A19.82,19.82,0,0,1,264,568l5.11-9.47,7.73,5.45Z"/><circle class="cls-7" cx="272.15" cy="561.93" r="4.85"/><circle class="cls-7" cx="278.75" cy="547.41" r="4.8"/><rect class="cls-7" x="281.19" y="545.5" width="8.8" height="14.93" transform="translate(186.78 -61.5) rotate(18.18)"/><path class="cls-7" d="M277.34,573.87h0a4.92,4.92,0,0,1-2.22-3.72l0-1.17a11.6,11.6,0,0,1,1.47-6.2l3.7-6.46,6.82,5.51Z"/><circle class="cls-7" cx="287.8" cy="546.07" r="4.39"/><circle class="cls-7" cx="283.44" cy="559.51" r="4.39"/><path class="cls-7" d="M57.52,503.75l20.24-5.94,13.1,26.5,2.3,7.59L87.65,538c-.24-1.45-4.15-.8-3.41,3.46-6.76,1.54-14.23,3.32-21,4.86Z"/><rect class="cls-7" x="78.48" y="543.13" width="9.46" height="14.93" transform="translate(388.16 1016.52) rotate(155.39)"/><path class="cls-7" d="M95.65,577h0a4.9,4.9,0,0,0,2.23-4.24l-.07-1.41a16.45,16.45,0,0,0-2.28-7.67l-4.92-8.23-7.4,5.88Z"/><circle class="cls-7" cx="86.79" cy="558.16" r="4.85"/><circle class="cls-7" cx="79.72" cy="542.78" r="4.8"/><rect class="cls-7" x="85.98" y="533.2" width="9.46" height="10.21" transform="translate(-184.26 66.72) rotate(-20.68)"/><path class="cls-7" d="M95.45,559.42h0a5.55,5.55,0,0,1-4.14-2.12l-.7-1a11.71,11.71,0,0,1-2.16-6.23l-.25-7.65,9.38,1.27Z"/><circle class="cls-7" cx="92.67" cy="543.13" r="4.85"/><circle class="cls-7" cx="88.44" cy="532.53" r="4.8"/><rect class="cls-7" x="70.28" y="546.4" width="9.46" height="14.93" transform="translate(336.58 1047.8) rotate(159.81)"/><path class="cls-7" d="M85.52,580h0a4.93,4.93,0,0,0,2.35-4.18l0-1.41a16.34,16.34,0,0,0-2.06-7.73l-4.66-8.38-7.58,5.66Z"/><circle class="cls-7" cx="77.7" cy="561.25" r="4.85"/><circle class="cls-7" cx="72.14" cy="545.8" r="4.8"/><rect class="cls-7" x="75.43" y="546.78" width="9.46" height="16.28" transform="translate(374.67 1032.02) rotate(156.53)"/><path class="cls-7" d="M91.41,581.35h0A4.73,4.73,0,0,0,93.74,577l-.07-1.53A19.78,19.78,0,0,0,91.3,567l-5.11-9.47-7.73,5.44Z"/><circle class="cls-7" cx="83.16" cy="560.94" r="4.85"/><circle class="cls-7" cx="76.56" cy="546.42" r="4.8"/><rect class="cls-7" x="65.32" y="544.51" width="8.8" height="14.93" transform="translate(308.18 1054.64) rotate(161.82)"/><path class="cls-7" d="M78,572.88h0a4.93,4.93,0,0,0,2.22-3.72l0-1.17a11.58,11.58,0,0,0-1.47-6.2l-3.7-6.47-6.82,5.51Z"/><circle class="cls-7" cx="67.51" cy="545.08" r="4.39"/><circle class="cls-7" cx="71.87" cy="558.51" r="4.39"/><path class="cls-24" d="M219.32,95.25c0,2.26-.52,5.07-.36,8.21.12,2.54.92,5.28,1,8.18,0,2.64-.65,5.39-.8,8.19s.24,5.51-.21,8.23-1.71,5.22-2.56,7.81-1.35,5.4-2.73,7.75-3.55,4.1-5.54,6.06-3.65,4-6.16,5.43c-2.24,1.25-5,1.7-7.82,2.53-2.44.72-5,1.92-7.9,2.27-2.54.31-5.3-.2-8.23-.2s-5.68.49-8.2.16c-2.91-.37-5.42-1.59-7.85-2.34-2.79-.86-5.54-1.34-7.75-2.62-2.48-1.44-4.21-3.64-6.06-5.5s-4.1-3.76-5.45-6.09-1.84-5.14-2.7-7.74-2.12-5.08-2.57-7.77-.09-5.51-.25-8.2-.89-5.52-.87-8.15c0-2.89.8-5.62.92-8.15.13-3.13-.39-5.92-.39-8.18,0-1.77.86-3.47,1.24-5.21s.28-3.62,1-5.27,2.1-2.88,3.07-4.4,1.47-3.3,2.65-4.66,2.88-2.11,4.23-3.3,2.32-2.77,3.81-3.78,3.33-1.31,4.93-2.13,2.93-2.12,4.61-2.74,3.55-.48,5.29-.9,3.35-1.37,5.13-1.58,3.56.36,5.36.36,3.61-.55,5.35-.35,3.42,1.19,5.13,1.6,3.64.3,5.29.91,3,2,4.6,2.76,3.47,1.16,4.93,2.14,2.48,2.63,3.8,3.79,3.08,2,4.22,3.31,1.71,3.19,2.64,4.67,2.38,2.79,3.06,4.4.6,3.56,1,5.28S219.32,93.47,219.32,95.25Z"/><path class="cls-8" d="M146,137c2.06,7.95,1.53,15-1.19,15.68S136,143.25,133.9,135.3s.69-10.71,3.4-11.45C141.56,122.68,143.9,129,146,137Z"/><path class="cls-8" d="M209.7,137c-2.06,7.95-1.53,15,1.19,15.68s8.82-9.39,10.88-17.34-.69-10.71-3.4-11.45C214.11,122.68,211.77,129,209.7,137Z"/><path class="cls-7" d="M216.7,114.48c-1.38-16.22-6.73-35.74-38.57-35.83h-.33c-31.84.09-37.19,19.61-38.57,35.83-.69,8.08,1,16.08,3,23.88,2.55,10.36,4.73,21.49,10.58,30.6,5.26,8.18,15.09,15.56,25.2,15.58h0c10.11,0,19.94-7.4,25.19-15.58,5.86-9.11,8-20.24,10.59-30.6C215.67,130.56,217.39,122.56,216.7,114.48Z"/><path class="cls-24" d="M217.38,96.19,208.7,79.73l-28.78-6.79h-3.3l-28.78,6.79-8.67,16.46s-2.6,20.85.21,27.6a25.27,25.27,0,0,0,9.4-16.7s-.4-7,2.23-12.22a9.82,9.82,0,0,1,10.5-4.9c5.51.94,17.32,2.19,33.86-.23A9.59,9.59,0,0,1,205,93.91c3.22,5.34,2.77,13.18,2.77,13.18,1.58,11.35,8.78,16.7,8.78,16.7C219.36,117,217.38,96.19,217.38,96.19Z"/><path class="cls-24" d="M204.18,124.67a52.39,52.39,0,0,0-7.92-1.5,45.73,45.73,0,0,0-6.62.2c-1.22.13-4.33.11-3.81-1.93a3.08,3.08,0,0,1,1.8-1.79,8.89,8.89,0,0,1,4-.7,18.38,18.38,0,0,1,9.57,2.69l.21.13a34.67,34.67,0,0,1,3.21,2.24S205.58,125,204.18,124.67Z"/><ellipse class="cls-25" cx="162.36" cy="130.83" rx="2.9" ry="3.5"/><ellipse class="cls-25" cx="193.55" cy="130.83" rx="2.9" ry="3.5"/><path class="cls-24" d="M151.73,124.67c2.66-.54,5.19-1.37,7.91-1.5a45.82,45.82,0,0,1,6.63.2c1.21.13,4.33.11,3.81-1.93a3.11,3.11,0,0,0-1.8-1.79,8.91,8.91,0,0,0-4-.7,18.38,18.38,0,0,0-9.58,2.69l-.21.13a34.52,34.52,0,0,0-3.2,2.24S150.33,125,151.73,124.67Z"/><path class="cls-8" d="M185.76,150.59c.34,1.24-1,3-3.26,2.19-1.87-.65-2.05,1.38-4.38,1.38H178c-2.33,0-2.51-2-4.37-1.39-2.26.78-3.6-1-3.26-2.2l7.47-16.92Z"/><path class="cls-4" d="M164.14,161.55s6.06,7.25,14.24,7.29h0c8.19,0,14.25-7.29,14.25-7.29C188,162.93,168.77,162.93,164.14,161.55Z"/></g><path class="cls-26" d="M115.31,345.24h6.89a14.28,14.28,0,0,1,6.68,1.24,4.55,4.55,0,0,1,2.27,4.37,5.54,5.54,0,0,1-.88,3.19,3.63,3.63,0,0,1-2.53,1.58v.16a6.74,6.74,0,0,1,2,.79,3.77,3.77,0,0,1,1.45,1.6,6.28,6.28,0,0,1,.52,2.79,5.67,5.67,0,0,1-2.18,4.71,9.47,9.47,0,0,1-5.94,1.7h-8.28ZM120,354h2.73a4.72,4.72,0,0,0,2.84-.63,2.3,2.3,0,0,0,.79-1.91,2,2,0,0,0-.93-1.83,6,6,0,0,0-3-.56H120Zm0,3.72v5.77h3.07a4.21,4.21,0,0,0,3-.82,2.93,2.93,0,0,0,.84-2.19,2.55,2.55,0,0,0-.86-2,4.68,4.68,0,0,0-3.08-.76Z"/><path class="cls-26" d="M151.15,358.88a9,9,0,0,1-2.22,6.51,8,8,0,0,1-6,2.29,8.53,8.53,0,0,1-4.2-1,7.27,7.27,0,0,1-2.9-3,10.06,10.06,0,0,1-1.05-4.79,8.91,8.91,0,0,1,2.2-6.48,8,8,0,0,1,6.05-2.26,8.49,8.49,0,0,1,4.21,1,7.29,7.29,0,0,1,2.89,3A9.88,9.88,0,0,1,151.15,358.88Zm-11.69,0a7.22,7.22,0,0,0,.82,3.8A3,3,0,0,0,143,364a2.93,2.93,0,0,0,2.65-1.28,7.22,7.22,0,0,0,.82-3.8,7,7,0,0,0-.82-3.77,3,3,0,0,0-2.69-1.25,3,3,0,0,0-2.65,1.25A7,7,0,0,0,139.46,358.88Z"/><path class="cls-26" d="M164.57,350.14a6.3,6.3,0,0,1,4.37,1.47q1.65,1.47,1.65,4.73v11H166v-9.89a4.75,4.75,0,0,0-.65-2.74,2.38,2.38,0,0,0-2.08-.91,3,3,0,0,0-2.88,1.44,8.86,8.86,0,0,0-.78,4.14v8H155V350.45h3.54l.62,2.17h.24a4.65,4.65,0,0,1,2.22-1.89A7.56,7.56,0,0,1,164.57,350.14Z"/><path class="cls-26" d="M180.82,350.14a5.65,5.65,0,0,1,4.89,2.48h.13l.37-2.17h3.91V367.4a7,7,0,0,1-2.14,5.52q-2.14,1.89-6.33,1.89a24.56,24.56,0,0,1-3.33-.21,14.16,14.16,0,0,1-3-.78v-3.69a16.82,16.82,0,0,0,6.6,1.3q3.57,0,3.57-3.84v-.34c0-.33,0-.69,0-1.07s.05-.72.09-1h-.12a5.19,5.19,0,0,1-2.08,1.92,6.08,6.08,0,0,1-2.73.59,5.48,5.48,0,0,1-4.69-2.31,13,13,0,0,1,0-12.91A5.64,5.64,0,0,1,180.82,350.14Zm1.45,3.75q-3.26,0-3.25,5.11t3.31,5.06a3.23,3.23,0,0,0,2.62-1,5.52,5.52,0,0,0,.86-3.52V359a6.88,6.88,0,0,0-.84-3.9A3.08,3.08,0,0,0,182.27,353.89Z"/><path class="cls-26" d="M201.9,350.11a8.11,8.11,0,0,1,5.22,1.47,5.45,5.45,0,0,1,1.81,4.51v11.28h-3.22l-.9-2.29h-.12a7.17,7.17,0,0,1-2.3,2,7.25,7.25,0,0,1-3.32.62,5.51,5.51,0,0,1-3.75-1.3,5.12,5.12,0,0,1-1.48-4.06,4.45,4.45,0,0,1,1.89-4,11,11,0,0,1,5.67-1.42l2.94-.1v-.74a2.49,2.49,0,0,0-.69-1.95,2.79,2.79,0,0,0-1.94-.62,8.24,8.24,0,0,0-2.42.35,18.77,18.77,0,0,0-2.35.89l-1.52-3.14a14.49,14.49,0,0,1,3-1.1A14.8,14.8,0,0,1,201.9,350.11Zm2.44,9.42-1.79.06a5,5,0,0,0-3.1.81,2.43,2.43,0,0,0-.87,2,1.74,1.74,0,0,0,.62,1.5,2.67,2.67,0,0,0,1.61.45,3.7,3.7,0,0,0,2.51-.88,3.13,3.13,0,0,0,1-2.5Z"/><path class="cls-26" d="M223.29,350.14a6.33,6.33,0,0,1,4.37,1.47q1.64,1.47,1.64,4.73v11h-4.62v-9.89a4.75,4.75,0,0,0-.65-2.74,2.37,2.37,0,0,0-2.08-.91,3,3,0,0,0-2.88,1.44,8.86,8.86,0,0,0-.78,4.14v8h-4.61V350.45h3.53l.62,2.17h.25a4.58,4.58,0,0,1,2.21-1.89A7.57,7.57,0,0,1,223.29,350.14Z"/><path class="cls-26" d="M236.37,343.81a3.15,3.15,0,0,1,1.76.48,2.48,2.48,0,0,1,0,3.55,3.09,3.09,0,0,1-1.76.5,3.12,3.12,0,0,1-1.79-.5,2.55,2.55,0,0,1,0-3.55A3.19,3.19,0,0,1,236.37,343.81Zm2.29,6.64v16.92H234V350.45Z"/></g></g></svg>