<?xml version="1.0" encoding="UTF-8"?>
<svg xmlns="http://www.w3.org/2000/svg" xmlns:xlink="http://www.w3.org/1999/xlink" viewBox="0 0 290.84 169.79">
  <defs>
    <style>
      .cls-1, .cls-2, .cls-3, .cls-4 {
        fill: none;
      }

      .cls-5 {
        clip-path: url(#clippath);
      }

      .cls-2 {
        stroke: #5a595c;
      }

      .cls-2, .cls-3 {
        stroke-miterlimit: 10;
      }

      .cls-2, .cls-3, .cls-4, .cls-6 {
        stroke-linecap: round;
      }

      .cls-2, .cls-4 {
        stroke-width: .84px;
      }

      .cls-7 {
        fill: #e9b69b;
      }

      .cls-8 {
        fill: #fff;
      }

      .cls-9 {
        fill: #f1f1f1;
      }

      .cls-10 {
        fill: #ba0c2f;
      }

      .cls-11 {
        fill: #b9ad86;
      }

      .cls-12 {
        fill: #a89968;
      }

      .cls-13 {
        fill: #a6a6a9;
      }

      .cls-14, .cls-6 {
        fill: #d0d1d1;
      }

      .cls-15 {
        fill: #d66d82;
      }

      .cls-16 {
        fill: #434243;
      }

      .cls-17 {
        fill: #1a1a1a;
      }

      .cls-18 {
        fill: #6d6e71;
      }

      .cls-19 {
        fill: #808082;
      }

      .cls-20 {
        fill: #5a595c;
      }

      .cls-21 {
        clip-path: url(#clippath-1);
      }

      .cls-22 {
        fill: #6e4758;
        mix-blend-mode: multiply;
        opacity: .4;
      }

      .cls-3 {
        stroke: #909294;
        stroke-width: .81px;
      }

      .cls-23 {
        isolation: isolate;
      }

      .cls-4 {
        stroke: #1a1a1a;
      }

      .cls-4, .cls-6 {
        stroke-linejoin: round;
      }

      .cls-6 {
        stroke: #989898;
        stroke-width: .75px;
      }
    </style>
    <clipPath id="clippath">
      <path class="cls-1" d="m0,0h290.84v163.32H2.73C1.22,163.32,0,162.09,0,160.59V0H0Z" transform="translate(290.84 163.32) rotate(-180)"/>
    </clipPath>
    <clipPath id="clippath-1">
      <rect class="cls-1" x="43.75" y="7.28" width="197.99" height="156.49" rx="32.67" ry="32.67"/>
    </clipPath>
  </defs>
  <g class="cls-23">
    <g id="Layer_2" data-name="Layer 2">
      <g id="Content">
        <g>
          <g class="cls-5">
            <rect class="cls-9" x="43.75" y="7.28" width="197.99" height="156.49" rx="32.67" ry="32.67"/>
            <g class="cls-21">
              <g>
                <path class="cls-11" d="m88.45,100.37s29.81,30.39,35.99,32.37l7.91-10.83c-2.53-1.62-28.33-35.44-28.33-35.44l-15.57,13.9Z"/>
                <circle class="cls-11" cx="127.5" cy="125.55" r="7.96"/>
                <circle class="cls-11" cx="96.3" cy="93.21" r="10.44"/>
                <g>
                  <g>
                    <path class="cls-14" d="m194.02,84.94s-6.67,14-18.48,34.96c-1.21,2.14-3.94,2.96-6.25,1.86h0c-2.63-1.25-3.25-4.26-2.07-6.81,8.93-19.31,14.39-35.92,14.39-35.92l12.41,5.91Z"/>
                    <circle class="cls-14" cx="187.81" cy="81.98" r="6.87"/>
                    <circle class="cls-14" cx="171.48" cy="117.38" r="4.91"/>
                  </g>
                  <g>
                    <path class="cls-14" d="m167.04,117.45l-1.03-6.67c-.24-1.55-.39-3.12-.44-4.69-.08-2.58-.03-5.16.16-7.73l1.28-17.17,6.26.99s.08-.56,1.09,4.85c1.69,9.03,4.52,26.71,2.48,30.44l-9.81-.03Z"/>
                    <circle class="cls-14" cx="170.28" cy="80.84" r="3.29"/>
                  </g>
                </g>
                <g>
                  <path class="cls-17" d="m175.28,62.71c4.37-7.4,8.18-13.9,8.7-19.86,1.65-20.8,18.92-19.29,22.61-13.76,0,0,7.17,2.91,6.55,10.59-.42,5.15.04,10.66.04,10.66,0,0,.58,5.53,4.33,12.04,3.47,6.04.56,12.51-3.39,13.28-.15.03-8.48,1.87-16.75,1.86-8.17,0-17.09-2-17.4-2.09-4.75-1.4-7.46-8-4.68-12.71Z"/>
                  <path class="cls-17" d="m206.59,29.09s4.23,4.49,3.77,11.64c-.47,7.16-.23,12.42,1.93,18.72,2.16,6.3.43,13.8-3.22,15.36-3.65,1.56-4.76,2.7-11.7,2.7-6.94,0-13.74-1.36-13.74-1.36,0,0-6.45-3.72-.71-19.88,3.06-8.61,2.45-13.81,4.47-19.49,2.73-7.69,8.86-11.34,19.2-7.69Z"/>
                  <path class="cls-17" d="m218.09,65s-.04,0-.06,0c-.25-.03-.42-.26-.39-.51,1.01-7.73-4.41-12.14-4.46-12.18-.2-.16-.23-.44-.07-.64.15-.2.44-.23.64-.07.24.19,5.88,4.76,4.8,13.01-.03.23-.22.39-.45.39Z"/>
                  <path class="cls-17" d="m173.05,68.03c-.2,0-.38-.13-.43-.33-.07-.25-1.7-6.23,5.09-12.54,6.47-6.01,8.72-18.33,8.74-18.45.04-.25.28-.42.53-.37.25.04.41.28.37.53-.09.52-2.32,12.75-9.02,18.96-6.35,5.9-4.9,11.39-4.83,11.62.07.24-.07.49-.31.56-.04.01-.08.02-.13.02Z"/>
                </g>
                <path class="cls-14" d="m216.31,131.14c0-9.03-7.31-16.34-16.32-16.34-9.01,0-16.36,7.32-16.36,16.35,0,9.03,7.35,16.34,16.36,16.34,9.01,0,16.32-7.32,16.32-16.34Z"/>
                <g>
                  <g>
                    <circle class="cls-14" cx="198.88" cy="79.51" r="8.06"/>
                    <polygon class="cls-14" points="190.93 78.25 206.84 78.25 206.2 73.86 205.93 72.04 205.66 70.18 205.18 66.98 205.06 66.16 204.67 63.53 204.5 62.36 193.22 62.38 192.99 63.96 192.7 65.95 192.58 66.76 192.48 67.45 192.33 68.5 190.93 78.25"/>
                    <circle class="cls-14" cx="198.88" cy="62.37" r="5.64"/>
                    <path class="cls-13" d="m192.7,65.95l.21.31c1.93,2.95,5.05,5.61,8.58,5.61l4.45.16-.27-1.86-.48-3.2-.12-.82-.39-2.63-11.68.43-.29,2Z"/>
                  </g>
                  <path class="cls-14" d="m179.44,95.28c.7-1.39,1.59-2.61,2.62-3.63.63-.63,1.05-1.44,1.21-2.32.64-3.6,2.35-12.55,2.35-12.55.35-.62,12.8-5.44,12.8-5.44l18.16,3.59c.07.01,3.69,19.11,3.46,19.69-.36.9-1.31,3.01-1.68,3.91-.68,1.61-1.32,3.24-1.97,4.87-1.01,2.54-2.05,5.17-3.2,7.72-1.49,3.32,2.53,16.94,3.45,21.33l-18.5,14.84-13.69-9.21s-2.04-3.48-.49-10.16c.59-2.54.17-7.84-.45-11.55-.26-1.61-.42-3.22-.45-4.85,0-.23,0-.48-.01-.73-4.91-2.85-6.54-9.65-3.61-15.51Z"/>
                  <g>
                    <path class="cls-10" d="m179.33,95.13c.71-1.42,1.62-2.66,2.66-3.69.64-.64,1.07-1.46,1.23-2.36.65-3.66,2.39-12.75,2.39-12.75.35-.63,16.13-7.9,16.13-7.9l15.31,6.62s-3.02,4.47-2.29,9.2c.8,5.17,5.4,10.06,5.28,10.37-.37.92-.77,2.9-1.15,3.81-.69,1.64-1.34,3.29-2,4.95-1.02,2.58-2.08,5.26-3.25,7.85-1.52,3.37,2.57,17.22,3.51,21.68l-18.8,15.08-13.91-9.36s-2.07-3.54-.5-10.32c.6-2.58.17-7.97-.45-11.74-.27-1.63-.43-3.28-.46-4.93,0-.24,0-.48-.01-.74-4.99-2.89-6.64-9.8-3.67-15.77Z"/>
                    <path class="cls-15" d="m205.36,66.51l1.32,5.11-7.9,5.08-2.43-5.8s7.78-4.87,9.01-4.39Z"/>
                    <path class="cls-15" d="m192.15,67.41l-1.95,6.55,2.03,2.23,4.11-5.28s-3.06-3.93-4.2-3.49Z"/>
                  </g>
                </g>
                <g>
                  <path class="cls-14" d="m184.03,127.78h31.48s11.59,12.5,9.05,32.7l-24.97,5.8s-2.51,1.04-5.42,0l-17.09-7.62c-.2-5.63,6.95-30.88,6.95-30.88Z"/>
                  <path class="cls-17" d="m184.03,127.78l31.83-.17s12.68,14.08,9.97,35.63c-1.02,1.05-13.2,13.07-29.98,9.89-11.58-2.2-18.16-10.28-19.85-12.51.92-5.76,2.56-12.48,8.03-32.85Z"/>
                </g>
                <g>
                  <circle class="cls-17" cx="212.78" cy="161.97" r="11.93"/>
                  <path class="cls-17" d="m225.83,163.24s1.24,28.29-7.41,58.28c-.83,2.86-3.46,4.83-6.45,4.83h-7.71c-3.3,0-5.93-2.76-5.78-6.05l1.16-25.1c.04-.89.06-1.79.04-2.68l1.08-29.27h25.06Z"/>
                </g>
                <g>
                  <circle class="cls-17" cx="187.81" cy="162.37" r="11.93"/>
                  <path class="cls-17" d="m200.76,163.24s1.24,28.29-7.41,58.28c-.83,2.86-3.46,4.83-6.45,4.83h-7.71c-3.3,0-5.93-2.76-5.78-6.05l1.16-25.1c.04-.89.06-1.79.04-2.68l1.38-31.89,24.76,2.62Z"/>
                </g>
                <g>
                  <path class="cls-17" d="m208.43,49.65c2.53,10.12,2.54,19.42-.89,25.63,0,0,4.92-.51,7.17-3.2,2.03-2.43,2.36-7.32,1.32-10.4-2.19-6.5-2.53-12.03-2.53-12.03h-5.08Z"/>
                  <path class="cls-14" d="m186.38,43.21c0,.51.03,1.01.09,1.5.02.21.06.42.09.62.1.61.24,1.2.42,1.77,0,0,.14,3.84.29,6.15.05.75.1,1.34.14,1.58,0,.01,0,.03,0,.04.37,1.96.9,3.51,1.99,5.33.35.6.77,1.21,1.25,1.88.75,1.04,1.08,1.46,2.07,2.49.88.92,2.02,1.82,4.24,2.3.2.04.68.05,1.19.05,1.32-.01,2.6-.39,3.72-1.1,1.97-1.25,3.95-3.09,4.5-3.85,1.98-2.75,3.32-4.5,3.81-7.1,0-.05.02-.11.04-.21.21-1.19.98-5.83,1.2-7.19l.02-.14.04-.23c.58-1.82.77-3.82.45-5.9-.89-5.79-5.71-10.29-11.54-10.8-4.63-.41-8.8,1.64-11.37,4.99-.29.37-.55.76-.79,1.16-1.18,1.94-1.86,4.22-1.86,6.65Z"/>
                  <path class="cls-14" d="m189.34,47.11s-4.57-1.18-3.54,3.07c1.23,5.1,4.84,4.5,4.84,4.5l-1.3-7.57Z"/>
                  <g>
                    <ellipse class="cls-17" cx="202.21" cy="48.31" rx="1.21" ry="1.72"/>
                    <path class="cls-17" d="m201,47.25c.64-1.23,2.78-1.5,3.44-.15-1.25-.3-2.14-.06-3.44.15h0Z"/>
                  </g>
                  <g>
                    <ellipse class="cls-17" cx="190.38" cy="48.26" rx="1.21" ry="1.72"/>
                    <path class="cls-17" d="m188.15,47.2c.64-1.23,2.78-1.5,3.44-.15-1.25-.3-2.14-.06-3.44.15h0Z"/>
                  </g>
                  <path class="cls-3" d="m194.33,53.96c0,.41.75.74,1.66.74s1.66-.34,1.66-.74"/>
                  <path class="cls-19" d="m198.52,58.24l2.96-.27c-.67,1.19-1.86,1.93-2.88,2.38-1.16.51-2.49.51-3.64,0-1.02-.45-2.21-1.2-2.88-2.38l2.96.27c1.16.1,2.32.1,3.48,0Z"/>
                  <path class="cls-18" d="m196.78,57.69c2.46,0,4.7.29,4.7.29-2.17,1.25-4.7,1.14-4.7,1.14,0,0-2.53.11-4.7-1.14,0,0,2.24-.29,4.7-.29Z"/>
                  <path class="cls-16" d="m206.68,44.78c.12,0,.18-.15.08-.22-.57-.43-1.87-1.29-3.26-1.31-1.37-.02-3.43.44-4.45.69-.52.13-.87.63-.78,1.16,0,0,0,.02,0,.02.07.42.37.56.62.61.18.03.37.01.55-.04.73-.23,3.73-1.17,4.31-1.12.5.05,2.17.16,2.93.21Z"/>
                  <path class="cls-16" d="m186.56,44.03c.05.2.11.4.18.6.78-.31,1.83-.72,2.21-.87.54-.22,3.68-.23,4.45-.22.19,0,.37-.04.54-.12.23-.12.47-.35.41-.77v-.02c-.08-.53-.57-.91-1.1-.88-1.04.07-3.16.25-4.45.68-.94.31-1.71,1.01-2.23,1.6Z"/>
                  <path class="cls-17" d="m208.26,36.48h0c.03.1.59,1.7.93,6.95.06,1.04.12,2.22.17,3.56.12.58.27.77.5.77.33,0,.82-.4,1.63-.65l1.6,1.53s-.26-.24.63-7.86c1.06-9.12-4.46-10.38-4.46-10.38l-1,6.08Z"/>
                  <path class="cls-14" d="m211.49,47.11s4.57-1.18,3.54,3.07c-1.23,5.1-4.84,4.5-4.84,4.5l1.3-7.57Z"/>
                  <path class="cls-20" d="m182.77,76.97l5.38-.04c-2.72-6.26-4.16-15.14-1.69-32.06-.6-12.45,16.44-14.89,21.8-8.39l1-6.07s-9.12-12.03-20.74.03c0,0-4.75,3.93-5.58,12.93-.55,5.95-2.48,13.24-7.15,20.63-3.35,5.29.73,12.97,6.99,12.97Z"/>
                  <path class="cls-17" d="m208.26,36.48c.03.1.59,1.7.93,6.95l.06.46c2.13-6.27-.85-7.36-.99-7.4Z"/>
                  <path class="cls-17" d="m184.49,77.89l5.38-.04c-2.72-6.26-5.36-13.81-2.89-30.74-.02-.4-.02-.79,0-1.17h0c.07-1.87.54-3.54,1.29-5.01,0,0,0,0,0-.01h0c3.02-5.86,10.62-8.45,15.96-6.95h0c1.61.45,3.02,1.28,4.02,2.5l1-6.07s-9.12-12.03-20.74.03c0,0-4.75,3.93-5.58,12.93-.55,5.95-2.92,12.35-7.6,19.74-3.35,5.29.17,13.86,9.16,14.78Z"/>
                  <path class="cls-17" d="m188.27,40.93h0c3.02-5.86,10.62-8.45,15.96-6.95-.27-.1-12.93-4.76-15.96,6.95Z"/>
                </g>
                <g>
                  <g>
                    <path class="cls-14" d="m219.65,77.47s10.99,10.93,26.84,29.04c1.62,1.85,1.48,4.7-.32,6.51h0c-2.05,2.06-5.1,1.65-7.11-.31-15.26-14.83-29.1-25.5-29.1-25.5l9.7-9.75Z"/>
                    <circle class="cls-14" cx="214.8" cy="82.35" r="6.87"/>
                    <circle class="cls-14" cx="242.76" cy="109.5" r="4.91"/>
                  </g>
                  <g>
                    <path class="cls-14" d="m247.51,110.66l-2.15,6.4c-.5,1.49-1.09,2.95-1.76,4.37-1.11,2.33-2.34,4.59-3.69,6.79l-9.02,14.67-5.11-3.75s1.88-4.07,3.47-9.35c2.64-8.8,6.03-21.27,9.56-23.65l8.7,4.53Z"/>
                    <circle class="cls-14" cx="227.83" cy="141.71" r="3.29"/>
                  </g>
                  <path class="cls-14" d="m228.42,139.61l-2.31-1.23-3.51,1.61c-2.37.13-3.83-.89-4.95-.65-1.12.25-3.19-.22-3.19-.22-.4,1.84,2.1,2.69,2.1,2.69-.16.03-.32.05-.47.08-.39.07-.78.13-1.17.2-.5.09-.99.16-1.49.25-.48.09-.96.15-1.44.25-.37.07-.74.14-1.1.26-.37.13-.69.34-1.03.55-.41.26-2.45,2.01-2.81,2.26-.17.11-.52.34-.52.34,0,.52.16,1.02.54,1.34.69.58,1.75.15,2.26-.15.38-.23.85-.63,1.19-.92.29-.25.18-.29.79-.45.36-.1.73-.11,1.1-.16.8-.12,1.6-.23,2.39-.34.18-.02.36-.05.55-.08,0,0-3.3,2.02-4.28,2.76-.74.55-2.2,3.69-2.2,3.69-1.06,2.25,1.81,1.85,1.81,1.85-.07.2-.16.53-.07.76.08.19.26.29.42.35.28.12.57.12.86.1.52-.03,1.04-.16,1.48-.47.12-.09.24-.19.35-.29.11-.1.21-.21.31-.32.13-.14.25-.28.38-.43.38-.46.76-.91,1.08-1.42.04-.06.11-.25.18-.28,0,0,2.69-1.22,2.69-1.22-.73.87-1.04,2.92-2,4.17-.14.19-.28.39-.38.63-.09.21-.17.52-.04.75.12.23.37.21.56.21.62,0,1.18-.22,1.7-.58.26-.18.5-.4.72-.66.16-.18.3-.38.43-.6.05-.09.11-.18.16-.3.95-2.51,2.46-4.16,5.32-3.85,4.13.45,4.85-5.72,4.85-5.72l-1.26-4.76Z"/>
                </g>
                <path class="cls-17" d="m68.97,153.28c6.35.37,11.32,5.59,11.39,11.95.07,6.81-.9,14.64-1.11,17.55-.82,11.66-5.38,46.35-5.39,46.58-.19,2.74-2.07,4.92-4.17,6.36-1.62,1.21-4.06,1.62-5.99,1.48-.01,0-.02,0-.04,0-.01,0-.02,0-.03,0-.25-.02-.5-.05-.74-.09-.07-.01-.14-.02-.21-.04-4.12-.76-7.82-4.12-7.48-8.25-.94-8.04-1.51-44.14-.75-51.38.43-4.44,1.32-8.35,1.75-12.79.4-6.66,6.11-11.74,12.77-11.35Z"/>
                <path class="cls-17" d="m92.31,150.44c6.35-.39,11.91,4.2,12.73,10.5.88,6.75.85,14.64.99,17.56.57,11.67.18,46.66.19,46.89.13,2.74-1.47,5.13-3.38,6.81-1.47,1.4-3.84,2.09-5.77,2.18-.01,0-.02,0-.04,0-.01,0-.02,0-.03,0-.25,0-.5,0-.75,0-.07,0-.14,0-.22-.01-4.18-.26-8.26-3.16-8.41-7.3-1.89-7.87-6.76-43.65-6.87-50.93-.1-4.46.31-8.45.21-12.91-.4-6.66,4.67-12.38,11.32-12.79Z"/>
                <g>
                  <path class="cls-19" d="m61.09,82.08l17.58-6.24,12.07,5.54,3.85,2.61c-2.7,2.55-3.38,5.32-2.61,9.97.79,4.81.25,8.58-1.25,13.19-2.18,6.69-3.04,12.7-2.34,19.7.2,1.96.98,3.74,2.13,5.28l-28.75.46c-1.71-4.86-3.81-8.26-5.13-18.73-1.42-11.25-4.74-28.41-4.74-28.41l9.19-3.37Z"/>
                  <g>
                    <path class="cls-19" d="m70.8,82.51c0,.07,0,.14,0,.22.08,4.33,3.86,7.78,8.43,7.7,4.57-.08,8.21-3.66,8.13-7.99,0-.07-.02-.15-.02-.22h.01s-.02-.09-.02-.09c-.04-.65-2.34-15.54-2.34-15.54h0s-12.43.21-12.43.21c0,0-1.74,14.86-1.75,15.61v.09s0,0,0,0Z"/>
                    <path class="cls-18" d="m72.56,66.81c.06,3.25,2.89,5.84,6.32,5.78,3.43-.06,6.16-2.74,6.1-5.99h0c0-.5-.08-.97-.21-1.42-.72-2.55-3.2-4.42-6.12-4.37-3.07.05-5.58,2.21-6.03,4.99-.06.33-.08.67-.07,1.01Z"/>
                    <path class="cls-18" d="m72.14,70.38c2.35,2.97,6.38,5.25,10.33,5.19l3.89-.06s-1.45-9.88-1.58-10.33l-12.14.62c-.06.33-.49,4.58-.49,4.58Z"/>
                  </g>
                  <polygon class="cls-12" points="102.3 148.96 100.67 134.8 57.02 135.5 56.68 149.69 102.3 148.96"/>
                  <path class="cls-12" d="m66.65,79.51l17.04,6.36,6.44-5.26,12.02,4.84s1.88,13.23.9,25.2c-.56,6.76-2.39,24.14-2.39,24.14l-43.65.7s-.26-4.54-1.65-10.46c-1.12-4.78-3.34-10.45-3.96-15.4-1.51-11.92-2.89-22.98-2.89-22.98l18.13-7.15Z"/>
                  <path class="cls-22" d="m53.57,144.39c-.12.11-.2.18-.22.2.05-.07.13-.14.22-.2Z"/>
                  <path class="cls-22" d="m62.27,143.03l.33-.02c-.1,0-.21.02-.33.02Z"/>
                </g>
                <path class="cls-17" d="m56.3,161.47c-1.34,9.82,6.51,18.64,16.41,19.18,2.52.14,14.1.09,17.05-.24,9.55-1.04,16.72-10,15.2-19.49-.23-1.41-2.61-11.98-2.61-11.98l-43.83.74s-1.79,8.7-2.21,11.78Z"/>
                <g>
                  <path class="cls-19" d="m86.36,160.69h0c.43-.83,1.22-1.41,2.14-1.58l2.6-.46c2.16-1.32,2.82-3.11,3.95-3.57,1.13-.46,2.66-2.13,2.66-2.13,1.47,1.38-.21,3.64-.21,3.64.16-.07.31-.14.47-.22.38-.18.76-.36,1.15-.53.49-.23.97-.46,1.46-.68.47-.21.94-.45,1.42-.66.37-.16.74-.33,1.12-.44.4-.12.81-.13,1.23-.14.52-.02,3.37.28,3.84.27.22,0,.67-.01.67-.01.32.46.48.99.34,1.51-.25.92-1.45,1.2-2.08,1.24-.47.03-1.13-.04-1.61-.09-.41-.04-.33-.15-.97.08-.37.13-.7.35-1.05.52-.61.3-1.23.59-1.83.9-.33.18-.68.35-1.02.52,0,0,4.12-.23,5.44-.18.98.04,4.18,1.91,4.18,1.91,2.3,1.33-.46,2.73-.46,2.73.19.13.46.37.52.62.05.21-.06.41-.15.56-.17.28-.43.45-.69.61-.48.29-1.01.49-1.59.48-.16,0-.32-.02-.48-.05-.16-.02-.31-.06-.47-.09-.2-.04-.39-.1-.59-.15-.61-.17-1.22-.34-1.81-.6-.07-.03-.25-.15-.32-.14,0,0-3.11.56-3.11.56,1.17.32,2.69,1.93,4.29,2.45.24.08.49.17.71.32.21.14.46.35.49.64.03.28-.2.41-.37.53-.54.38-1.18.52-1.84.52-.34,0-.69-.05-1.03-.14-.25-.06-.5-.15-.74-.27-.1-.05-.21-.09-.32-.16-2.36-1.62-4.68-2.16-7.01-.15-3.35,2.9-7.73-2.08-7.73-2.08l-1.34-3.72c-.28-.78-.23-1.65.16-2.39Z"/>
                  <circle class="cls-11" cx="53.36" cy="95.96" r="10.44"/>
                  <path class="cls-11" d="m42.99,97.14s6.95,45.02,10.72,50.31l11.55-6.78c-1.05-2.81-1.48-45.35-1.48-45.35l-20.79,1.82Z"/>
                  <path class="cls-11" d="m91.97,157.26l-5.17,9.44s-28.28-12.17-32.54-18.79l10.55-11.5c2.2.6,27.1,20.83,27.16,20.85Z"/>
                  <circle class="cls-11" cx="59.36" cy="142.14" r="7.95"/>
                </g>
                <g>
                  <path class="cls-17" d="m66.12,41.98c-.19-2.19-.23-4.42-.22-6.63.01-1.69-.14-4.38,1.92-4.98.74-.22,1.36-.38,1.98-.88.54-.44.99-.98,1.6-1.33,1.1-.64,2.59.06,3.74-.48.45-.21.8-.59,1.23-.82,1.27-.69,2.81-.02,4.25.02,1.68.04,3.39-.82,4.97-.28,1.03.35,1.85,1.25,2.93,1.4.52.07,1.07-.04,1.57.11,1.02.29,1.51,1.48,2.46,1.95.46.22,1,.26,1.43.54.52.33.79.93,1,1.51,1.37,3.71,1.22,7.63.91,11.54-.43,5.26-.95,11.62-4.64,15.77-4.15,4.67-12.02,4.54-16.8.66-5.77-4.68-7.75-11.21-8.33-18.09Z"/>
                  <g>
                    <circle class="cls-7" cx="83.71" cy="62.94" r="6.17"/>
                    <path class="cls-19" d="m67.06,46.22c.01.63.06,1.24.16,1.85.02.15.05.31.07.46.06.3.12.6.2.9.04.16.08.31.12.46.05.21.12.41.19.62,0,0,1.42,9.61,1.6,10.48.58,2.86,6.67,9.29,11.7,10.41,1.06.24,2.02.29,3.05-.05,4.39-1.46,8.71-7.89,9.2-10.76.15-.88,1.25-10.52,1.25-10.52h0c.05-.17.1-.34.14-.51.04-.15.08-.31.11-.46.08-.34.14-.69.19-1.04.02-.15.04-.31.06-.46.11-.98.12-1.98.02-3.01-.69-7.07-6.56-12.57-13.59-12.76-8.06-.22-14.59,6.37-14.46,14.41Z"/>
                    <path class="cls-17" d="m94.54,47.33c.11.03.19-.13.11-.23-.48-.56-1.59-1.7-2.9-1.95s-3.3-.09-4.3.01c-.51.05-.91.54-.9,1.13,0,0,0,.02,0,.03,0,.46.27.67.5.76.17.06.35.07.52.04.72-.13,3.68-.65,4.22-.5.47.13,2.03.53,2.74.71Z"/>
                    <path class="cls-17" d="m72.84,47.69c-.11.03-.19-.12-.12-.22.46-.58,1.53-1.75,2.83-2.04,1.28-.29,3.29-.2,4.29-.13.51.04.92.51.94,1.1,0,0,0,.02,0,.03,0,.46-.25.68-.48.78-.17.07-.35.08-.52.06-.73-.11-3.7-.53-4.24-.36-.46.15-2.01.6-2.71.8Z"/>
                    <g>
                      <ellipse class="cls-17" cx="89.9" cy="51.08" rx="1.32" ry="1.87" transform="translate(-.85 1.52) rotate(-.97)"/>
                      <path class="cls-17" d="m88.57,49.94c.31-1.45,2.66-1.66,3.16-.22-1.22-.16-1.89-.11-3.16.22h0Z"/>
                      <ellipse class="cls-17" cx="76.81" cy="51.3" rx="1.32" ry="1.87" transform="translate(-.85 1.3) rotate(-.97)"/>
                      <path class="cls-17" d="m78.11,50.12c-1.28-.28-1.95-.31-3.17-.11.46-1.45,2.81-1.32,3.17.11h0Z"/>
                    </g>
                    <path class="cls-8" d="m88.19,60.82s-1.36,1.86-3.56,2.38c-.76.18-1.56.2-2.33.04-2.23-.45-3.67-2.3-3.67-2.3.06.02,0,0,.06.01,0,0,2.77.02,4.75-.02,1.94-.04,4.78-.12,4.75-.11s-.03,0,0,0Z"/>
                    <path class="cls-19" d="m67.79,50.29s-5.07-1.21-3.86,3.42c1.44,5.55,5.37,4.83,5.37,4.83l-1.51-8.25Z"/>
                    <path class="cls-19" d="m94.16,49.99s5.39-1.52,4.35,3.15c-1.26,5.6-5.12,5.03-5.12,5.03l.78-8.17Z"/>
                    <path class="cls-2" d="m81.2,57.13s1.59,1.48,2.28,1.47,2.27-1.55,2.27-1.55"/>
                  </g>
                  <path class="cls-17" d="m92.12,39.53c.77.42,1.59.27,1.56-.86-.03-1.38-1.17-3.3-2.15-4.16-1.66-1.46-3.74-2.25-5.85-2.6-2.96-.44-6.65-.62-9.58.1-2.28.55-4.41,1.94-6.11,3.65-.51.51-1.63,1.33-1.89,1.99-.35.87.53,2,1.43,1.98,1.09-.02,2.14-1.2,3.1-.68.19.1.35.27.54.38,1.28.76,2.85-1.23,4.24-.71.47.17.82.61,1.31.7.77.13,1.4-.63,2.17-.74.82-.12,1.57.54,2.4.57,1.31.06,2.53-1.42,3.74-.9.51.22.86.76,1.4.88.42.1.85-.09,1.28-.18,1.03-.23,1.6.14,2.41.59,0,0,0,0,.01,0Z"/>
                  <path class="cls-4" d="m95.5,35.79c-.21-1.53-.59-3.04-1.15-4.49-.25-.65-.6-1.35-1.28-1.63-.19-.08-.39-.11-.59-.14-.21-.03-.4-.07-.57-.15-.31-.15-.51-.47-.72-.8-.07-.11-.14-.21-.21-.32-.77-1.1-2.17-1.72-3.5-1.56-.07,0-.15.02-.22.03-.24.04-.47.07-.67.03-.3-.07-.55-.3-.81-.54-.07-.07-.15-.13-.22-.2-1.17-1-2.95-1.24-4.34-.57-.56.27-1.05.67-1.53,1.05-.69.55-1.33,1.07-2.14,1.21-.98.17-1.9-.15-2.75-.52-.34-.15-.73-.32-1.14-.37-1.26-.14-2.28.88-2.78,1.5-.18.22-.35.46-.52.69-.45.61-.87,1.2-1.46,1.6-.14.1-.29.18-.45.27-.29.17-.59.34-.84.58"/>
                  <path class="cls-17" d="m93.55,39.36s-.54,2.36-.18,3.6,1.53,4.4.48,5.24c-1.05.84-.23,3.24.16,3.37,0,0-.13-.77.58-1.52l.64-.94s1.24-8.15-1.68-9.76Z"/>
                  <path class="cls-17" d="m68.7,39.33s1.45.94.97,3.52c-.48,2.58-1.33,3.2-1.05,4.55.28,1.35.68,2.76-.2,3.84,0,0-.11-.46-.63-.96-.52-.5-2.5-8.06.9-10.96Z"/>
                </g>
                <g>
                  <path class="cls-19" d="m136.46,93.71s-2.23-7.18-1.23-12.43c0,0,2.93,1.44,3.85-.35.74-1.4,5.82-1.88,8.62,1.27,1.31,1.44,1.44,3.81.44,5.69-1.14,2.1-3.06,5.25-4.86,7.4l-6.83-1.58h0Z"/>
                  <g>
                    <ellipse class="cls-19" cx="137.07" cy="81.72" rx="1.88" ry="1.93" transform="translate(26.37 196.66) rotate(-76.88)"/>
                    <path class="cls-19" d="m139,77.47s-.35,1.14-.04,4.42l-3.72-.74s1.4-4.16,2.28-6.92c.18-.53.83-.57,1.14-.13h0c.48.79.66,1.71.48,2.58l-.13.79h0Z"/>
                  </g>
                  <g>
                    <g>
                      <path class="cls-19" d="m152.26,75.98c.04-.44-.35-.79-.79-.61h0c-.88.26-1.49.96-1.71,1.84-.22.88-.48,2.1-.7,3.33l2.5.57.7-5.12h0Z"/>
                      <circle class="cls-19" cx="150.34" cy="80.89" r="1.27" transform="translate(37.43 208.94) rotate(-76.88)"/>
                    </g>
                    <g>
                      <g>
                        <circle class="cls-19" cx="147.4" cy="85.7" r="1.44"/>
                        <path class="cls-19" d="m151.43,81.59l-2.76,4.9-2.54-1.44s1.62-2.54,3.2-4.9l2.1,1.44h0Z"/>
                      </g>
                      <circle class="cls-19" cx="150.34" cy="80.89" r="1.27" transform="translate(37.43 208.94) rotate(-76.88)"/>
                    </g>
                  </g>
                  <g>
                    <g>
                      <path class="cls-19" d="m149.2,68.23c.09-.39-.31-.79-.7-.66h0c-.88.22-1.53.92-1.75,1.75-.57,2.28-1.49,6.52-1.88,8.06l2.5.7,1.84-9.85h0Z"/>
                      <circle class="cls-19" cx="146.04" cy="77.82" r="1.27" transform="translate(37.11 202.38) rotate(-76.88)"/>
                    </g>
                    <g>
                      <g>
                        <circle class="cls-19" cx="143.06" cy="82.59" r="1.44"/>
                        <path class="cls-19" d="m147.14,78.52l-2.85,4.86-2.5-1.49s1.66-2.5,3.28-4.86l2.06,1.49h0Z"/>
                      </g>
                      <circle class="cls-19" cx="146.04" cy="77.82" r="1.27" transform="translate(37.11 202.38) rotate(-76.88)"/>
                    </g>
                  </g>
                  <g>
                    <g>
                      <path class="cls-19" d="m142.24,76.73l2.5.57,1.27-9.28c.04-.44-.35-.74-.74-.61l-.31.09c-.66.22-1.14.74-1.27,1.4-.39,2.06-1.09,6.17-1.44,7.84h0Z"/>
                      <circle class="cls-19" cx="143.46" cy="77.07" r="1.27" transform="translate(35.84 199.29) rotate(-76.88)"/>
                    </g>
                    <g>
                      <g>
                        <circle class="cls-19" cx="140.31" cy="81.71" r="1.44"/>
                        <path class="cls-19" d="m144.56,77.82l-3.02,4.73-2.45-1.62s1.75-2.45,3.46-4.73l2.01,1.62h0Z"/>
                      </g>
                      <circle class="cls-19" cx="143.46" cy="77.07" r="1.27" transform="translate(35.84 199.29) rotate(-76.88)"/>
                    </g>
                  </g>
                  <g>
                    <g>
                      <circle class="cls-19" cx="148.76" cy="78.47" r="1.27" transform="translate(38.57 205.53) rotate(-76.88)"/>
                      <g>
                        <g>
                          <circle class="cls-19" cx="145.78" cy="83.25" r="1.44"/>
                          <path class="cls-19" d="m149.9,79.18l-2.85,4.86-2.5-1.49s1.66-2.5,3.28-4.86l2.06,1.49h0Z"/>
                        </g>
                        <circle class="cls-19" cx="148.76" cy="78.47" r="1.27" transform="translate(38.57 205.53) rotate(-76.88)"/>
                      </g>
                    </g>
                    <path class="cls-19" d="m151.74,71.21c.09-.39-.26-.74-.66-.66h0c-.92.22-1.62.88-1.88,1.75-.48,1.66-1.18,4.25-1.62,5.69l2.45.79,1.71-7.57h0Z"/>
                  </g>
                </g>
                <path class="cls-11" d="m127.63,127.24l-7.82-4.5c.1-2.28,14.41-30.99,14.43-31.05l10.34,2.98s-5.71,30.25-11.24,35.85l-5.7-3.28"/>
                <g>
                  <path class="cls-14" d="m177.77,69.17c.5-1.04,2.6-2.82,3.43-2.77.96.06,4.87-.14,5.6-.21,1.01-.1,1.53-.63,1.73-.96.33-.56.27-1.39-.66-1.68-.33-.1-6.53-.27-6.98-.16-.85.21-5,1.63-5.88,2.22-1.26.84-2.33,2.22-3.71,4.02-.21.28-4.22,6.92-4.22,9.17,0,2.33.56,3.42,1.67,3.8,1.43.5,3.62-.75,3.93-.96,1.36-.9,3.66-2.86,3.64-4.93.55-2.54.77-5.05,1.45-7.54Z"/>
                  <path class="cls-14" d="m177.77,69.17c.5-1.04,2.6-2.82,3.43-2.77.96.06,4.87-.14,5.6-.21,1.01-.1,1.53-.63,1.73-.96.33-.56.27-1.39-.66-1.68-.33-.1-6.53-.27-6.98-.16"/>
                  <path class="cls-6" d="m175.34,67.35l5.16-1.23c.99-.31,2.06.17,2.49,1.12l1.19,2.3c.35.78.18,1.69-.42,2.3l-2.55,2.56c-.51.52-1.36.6-1.9.11-.58-.52-.6-1.41-.06-1.96l1.88-2.41-.14-.32c-.22.24-3,2.13-4.07,2.26"/>
                  <path class="cls-14" d="m182.44,70.58s-.91-.01-1.31-.44l-.14-.32s.32-.52.15-1.3"/>
                  <path class="cls-6" d="m175,69.02l5.64.1c1.03.13,1.81,1.01,1.8,2.05l.14,2.59c0,.85-.53,1.62-1.33,1.92l-3.38,1.28c-.68.26-1.49-.02-1.78-.69-.31-.71.03-1.53.75-1.81l2.71-1.42v-.35c-.3.13-1.8.47-2.83.15"/>
                  <path class="cls-14" d="m174.97,71.34l4.59,1.13c.86.23,1.41,1.05,1.29,1.93l-.18,2.2c-.1.72-.63,1.3-1.34,1.47l-3,.7c-.6.14-1.25-.18-1.42-.78-.18-.64.2-1.29.84-1.44l2.44-.89.04-.29c-.27.07-2.13,0-2.96-.39"/>
                  <path class="cls-14" d="m178.95,76.57s-.65-.42-.74-.91l.04-.29s.47-.23.69-.87"/>
                  <path class="cls-6" d="m175.28,74.98c.83.39,2.69.46,2.96.39l-.04.29-2.44.89c-.64.15-1.02.8-.84,1.44.17.6.82.92,1.42.78l3-.7c.71-.17,1.24-.75,1.34-1.47l.18-2.2c.12-.88-.43-1.71-1.29-1.93l-4.59-1.13"/>
                </g>
              </g>
            </g>
            <g>
              <g>
                <path class="cls-14" d="m219.65,77.47s10.99,10.93,26.84,29.04c1.62,1.85,1.48,4.7-.32,6.51h0c-2.05,2.06-5.1,1.65-7.11-.31-15.26-14.83-29.1-25.5-29.1-25.5l9.7-9.75Z"/>
                <circle class="cls-14" cx="214.8" cy="82.35" r="6.87"/>
                <circle class="cls-14" cx="242.76" cy="109.5" r="4.91"/>
              </g>
              <g>
                <path class="cls-14" d="m247.51,110.66l-2.15,6.4c-.5,1.49-1.09,2.95-1.76,4.37-1.11,2.33-2.34,4.59-3.69,6.79l-9.02,14.67-5.11-3.75s1.88-4.07,3.47-9.35c2.64-8.8,6.03-21.27,9.56-23.65l8.7,4.53Z"/>
                <circle class="cls-14" cx="227.83" cy="141.71" r="3.29"/>
              </g>
              <path class="cls-14" d="m228.42,139.61l-2.31-1.23-3.51,1.61c-2.37.13-3.83-.89-4.95-.65-1.12.25-3.19-.22-3.19-.22-.4,1.84,2.1,2.69,2.1,2.69-.16.03-.32.05-.47.08-.39.07-.78.13-1.17.2-.5.09-.99.16-1.49.25-.48.09-.96.15-1.44.25-.37.07-.74.14-1.1.26-.37.13-.69.34-1.03.55-.41.26-2.45,2.01-2.81,2.26-.17.11-.52.34-.52.34,0,.52.16,1.02.54,1.34.69.58,1.75.15,2.26-.15.38-.23.85-.63,1.19-.92.29-.25.18-.29.79-.45.36-.1.73-.11,1.1-.16.8-.12,1.6-.23,2.39-.34.18-.02.36-.05.55-.08,0,0-3.3,2.02-4.28,2.76-.74.55-2.2,3.69-2.2,3.69-1.06,2.25,1.81,1.85,1.81,1.85-.07.2-.16.53-.07.76.08.19.26.29.42.35.28.12.57.12.86.1.52-.03,1.04-.16,1.48-.47.12-.09.24-.19.35-.29.11-.1.21-.21.31-.32.13-.14.25-.28.38-.43.38-.46.76-.91,1.08-1.42.04-.06.11-.25.18-.28,0,0,2.69-1.22,2.69-1.22-.73.87-1.04,2.92-2,4.17-.14.19-.28.39-.38.63-.09.21-.17.52-.04.75.12.23.37.21.56.21.62,0,1.18-.22,1.7-.58.26-.18.5-.4.72-.66.16-.18.3-.38.43-.6.05-.09.11-.18.16-.3.95-2.51,2.46-4.16,5.32-3.85,4.13.45,4.85-5.72,4.85-5.72l-1.26-4.76Z"/>
            </g>
          </g>
          <g>
            <path class="cls-19" d="m86.36,160.69h0c.43-.83,1.22-1.41,2.14-1.58l2.6-.46c2.16-1.32,2.82-3.11,3.95-3.57,1.13-.46,2.66-2.13,2.66-2.13,1.47,1.38-.21,3.64-.21,3.64.16-.07.31-.14.47-.22.38-.18.76-.36,1.15-.53.49-.23.97-.46,1.46-.68.47-.21.94-.45,1.42-.66.37-.16.74-.33,1.12-.44.4-.12.81-.13,1.23-.14.52-.02,3.37.28,3.84.27.22,0,.67-.01.67-.01.32.46.48.99.34,1.51-.25.92-1.45,1.2-2.08,1.24-.47.03-1.13-.04-1.61-.09-.41-.04-.33-.15-.97.08-.37.13-.7.35-1.05.52-.61.3-1.23.59-1.83.9-.33.18-.68.35-1.02.52,0,0,4.12-.23,5.44-.18.98.04,4.18,1.91,4.18,1.91,2.3,1.33-.46,2.73-.46,2.73.19.13.46.37.52.62.05.21-.06.41-.15.56-.17.28-.43.45-.69.61-.48.29-1.01.49-1.59.48-.16,0-.32-.02-.48-.05-.16-.02-.31-.06-.47-.09-.2-.04-.39-.1-.59-.15-.61-.17-1.22-.34-1.81-.6-.07-.03-.25-.15-.32-.14,0,0-3.11.56-3.11.56,1.17.32,2.69,1.93,4.29,2.45.24.08.49.17.71.32.21.14.46.35.49.64.03.28-.2.41-.37.53-.54.38-1.18.52-1.84.52-.34,0-.69-.05-1.03-.14-.25-.06-.5-.15-.74-.27-.1-.05-.21-.09-.32-.16-2.36-1.62-4.68-2.16-7.01-.15-3.35,2.9-7.73-2.08-7.73-2.08l-1.34-3.72c-.28-.78-.23-1.65.16-2.39Z"/>
            <circle class="cls-11" cx="53.36" cy="95.96" r="10.44"/>
            <path class="cls-11" d="m42.99,97.14s6.95,45.02,10.72,50.31l11.55-6.78c-1.05-2.81-1.48-45.35-1.48-45.35l-20.79,1.82Z"/>
            <path class="cls-11" d="m91.97,157.26l-5.17,9.44s-28.28-12.17-32.54-18.79l10.55-11.5c2.2.6,27.1,20.83,27.16,20.85Z"/>
            <circle class="cls-11" cx="59.36" cy="142.14" r="7.95"/>
          </g>
        </g>
      </g>
    </g>
  </g>
</svg>