<?xml version="1.0" encoding="UTF-8"?>
<svg id="Layer_2" data-name="Layer 2" xmlns="http://www.w3.org/2000/svg" viewBox="0 0 106.5 106.5">
  <defs>
    <style>
      .cls-1, .cls-2 {
        fill: none;
        stroke-miterlimit: 10;
      }

      .cls-1, .cls-2, .cls-3, .cls-4 {
        stroke-linecap: round;
        stroke-width: 1.5px;
      }

      .cls-1, .cls-3, .cls-4 {
        stroke: #1a1a1a;
      }

      .cls-2 {
        stroke: #1b4579;
      }

      .cls-3 {
        fill: #ba0c2f;
      }

      .cls-3, .cls-4 {
        stroke-linejoin: round;
      }

      .cls-4 {
        fill: #fff;
      }
    </style>
  </defs>
  <g id="Content">
    <g>
      <circle class="cls-4" cx="53.25" cy="53.25" r="52.5"/>
      <g id="Layer_29" data-name="Layer 29">
        <g>
          <path class="cls-2" d="m58.04,78.24c0,2.64-2.14,4.79-4.79,4.79s-4.79-2.14-4.79-4.79v-.83h9.59v.83Z"/>
          <rect class="cls-2" x="46.68" y="72.8" width="13.12" height="4.68"/>
          <rect class="cls-2" x="46.68" y="68.05" width="13.12" height="4.68"/>
          <polyline class="cls-1" points="56.15 73.73 57.26 55.14 53.17 56.26 49.24 55.14 50.35 73.73"/>
          <path class="cls-1" d="m58.04,78.24c0,2.64-2.14,4.79-4.79,4.79s-4.79-2.14-4.79-4.79v-.83h9.59v.83Z"/>
          <g>
            <line class="cls-1" x1="53.25" y1="27.26" x2="53.25" y2="23.47"/>
            <line class="cls-1" x1="42.51" y1="30.14" x2="40.61" y2="26.85"/>
            <line class="cls-1" x1="34.65" y1="38" x2="31.37" y2="36.1"/>
            <line class="cls-1" x1="71.85" y1="38" x2="75.13" y2="36.1"/>
            <line class="cls-1" x1="63.98" y1="30.14" x2="65.88" y2="26.85"/>
          </g>
          <path class="cls-1" d="m43.72,63.67c-5.01-3-8.18-8.66-8.18-14.93,0-9.78,7.93-17.71,17.71-17.71s17.71,7.93,17.71,17.71c0,6.27-3.17,11.93-8.18,14.93-1.81,1.08-2.97,1.53-2.97,4.38v9.36h-13.12v-9.36c0-2.85-1.16-3.3-2.97-4.38h0Z"/>
          <line class="cls-2" x1="46.68" y1="68.05" x2="59.81" y2="68.05"/>
          <rect class="cls-3" x="46.53" y="67.89" width="13.43" height="9.63"/>
        </g>
      </g>
    </g>
  </g>
</svg>