<?xml version="1.0" encoding="UTF-8"?>
<svg id="Layer_2" data-name="Layer 2" xmlns="http://www.w3.org/2000/svg" xmlns:xlink="http://www.w3.org/1999/xlink" viewBox="0 0 272.76 163.78">
  <defs>
    <style>
      .cls-1, .cls-2, .cls-3, .cls-4 {
        fill: none;
      }

      .cls-2, .cls-5 {
        stroke-linejoin: round;
      }

      .cls-2, .cls-5, .cls-3, .cls-4 {
        stroke-linecap: round;
      }

      .cls-2, .cls-3 {
        stroke: #5a595c;
      }

      .cls-6 {
        clip-path: url(#clippath);
      }

      .cls-5 {
        fill: #f2f2f2;
        stroke: #666;
      }

      .cls-7 {
        fill: #fff;
      }

      .cls-8 {
        fill: #f1f1f1;
      }

      .cls-9 {
        fill: #ba0c2f;
      }

      .cls-10 {
        fill: #919194;
      }

      .cls-11 {
        fill: #b9ad86;
      }

      .cls-12 {
        fill: #a89968;
      }

      .cls-13 {
        fill: #a6a6a9;
      }

      .cls-14 {
        fill: #d0d1d1;
      }

      .cls-15 {
        fill: #d66d82;
      }

      .cls-16 {
        fill: #1a1a1a;
      }

      .cls-17 {
        fill: #a27ea5;
      }

      .cls-18 {
        fill: #6d6e71;
      }

      .cls-19 {
        fill: #808083;
      }

      .cls-20 {
        fill: #808082;
      }

      .cls-21 {
        fill: #5a595c;
      }

      .cls-3, .cls-4 {
        stroke-miterlimit: 10;
      }

      .cls-4 {
        stroke: #909294;
      }

      .cls-22 {
        clip-path: url(#clippath-1);
      }
    </style>
    <clipPath id="clippath">
      <path class="cls-1" d="m2.57,0h270.19v154.04H0V2.57C0,1.15,1.15,0,2.57,0Z"/>
    </clipPath>
    <clipPath id="clippath-1">
      <rect class="cls-1" x="35.53" y="-.4" width="195.9" height="154.84" rx="32.32" ry="32.32"/>
    </clipPath>
  </defs>
  <g id="Content">
    <g>
      <polygon class="cls-12" points="235.88 87.63 229.74 85.59 227.2 89.26 227.2 92.1 235.88 87.63"/>
      <g class="cls-6">
        <rect class="cls-8" x="35.53" y="-.4" width="195.9" height="154.84" rx="32.32" ry="32.32"/>
        <g class="cls-22">
          <g>
            <g>
              <path class="cls-16" d="m56.03,44.46s-6.61,5.65-4.25,14.11"/>
              <path class="cls-16" d="m67.23,47.02v22.47s-4.51-.16-9.33-.02c-3.87-6.28,1.74-23.24,1.74-23.24l7.59.79Z"/>
              <path class="cls-16" d="m87.86,70.86l-11.41-.17-.19-36.18h10.02c.59,6.39,2.61,14.84,7.63,22.78,3.59,5.68.67,13.57-6.05,13.57Z"/>
              <path class="cls-16" d="m60.33,42.39c-2.72,10.86-3.68,20.36,0,27.03,0,0-2.46.03-5.1.17-.12,0-.24.01-.36.02-2.76.18-5.06-7.34-2.71-14.32,2.35-6.98,2.71-12.91,2.71-12.91h5.45Z"/>
              <g>
                <circle class="cls-14" cx="70.57" cy="74.43" r="8.65"/>
                <polygon class="cls-14" points="79.11 73.08 62.03 73.09 62.72 68.37 63.01 66.42 63.3 64.43 63.81 60.99 63.94 60.11 64.36 57.29 64.54 56.03 76.65 56.05 76.9 57.75 77.21 59.89 77.33 60.76 77.44 61.49 77.6 62.62 79.11 73.08"/>
                <circle class="cls-14" cx="70.57" cy="56.05" r="6.06"/>
                <path class="cls-13" d="m77.21,59.89l-.22.34c-2.07,3.17-5.42,6.02-9.21,6.02l-4.77.17.29-1.99.51-3.44.13-.88.42-2.83,12.54.46.31,2.14Z"/>
              </g>
              <g>
                <path class="cls-14" d="m93.12,76.45s5.22,15.8,11.61,40.82c.65,2.56-.86,5.22-3.47,6.08h0c-2.97.98-5.68-.9-6.66-3.74-7.41-21.6-15.5-38.53-15.5-38.53l14.01-4.63Z"/>
                <circle class="cls-14" cx="86.12" cy="78.76" r="7.38"/>
                <circle class="cls-14" cx="99.72" cy="118.33" r="5.27"/>
                <g>
                  <path class="cls-14" d="m97.99,111.75l7.24.04c1.69,0,3.37.11,5.05.33,2.74.35,5.47.84,8.16,1.48l17.99,4.26-2.11,6.47s-4.79-.55-10.7-.39c-9.86.27-23.71,1-27.32-1.8l1.69-10.39Z"/>
                  <circle class="cls-14" cx="136.25" cy="121.38" r="3.53"/>
                </g>
              </g>
              <g>
                <polygon class="cls-5" points="155.76 81.19 154.78 79.77 116.66 79.33 102.85 127.25 104.02 128.57 118.53 82.29 155.76 81.19"/>
                <polygon class="cls-5" points="155.76 81.14 117.54 81.14 104.02 128.52 142.14 128.52 155.76 81.14"/>
                <path class="cls-14" d="m136.1,112.27h.25s8.89-.18,9.79-.22l-2.91-.81s-6.48,1.05-6.92-.53v-.25c0-.82.88-1.49,1.54-1.6,0,0,.04,0,.04,0,0,0,4.76-1.1,5.78-1.05,1.02.04,4.6,1.04,4.6,1.04.7,0,1.12.72,1.12,1.62v.25c0,.42,0,.8-.2,1.08,0,0,.06,0,.06,0-.13.22.03.75.03.75h-.1c.43.23.65.61.65,1.15v.25c0,.63-.32,1.29-.86,1.63,0,0,.05,0,.04.01-.54.48-.23.77-.23.77h.01c.14.15.26.31.32.5.21.64,0,1.38-.43,1.82-.2.21-.48.35-.74.42-.6.31-.64.81-.59,1.14.04.11.08.21.08.3,0,.43-.17.87-.46,1.15-.43.41-1.02.59-1.57.62-.4.02-.8-.03-1.2-.02-1.48.02-2.96.01-4.45,0-.36,0-.83,0-1.19,0-.54,0-1.39-.84-1.39-1.61v-.22c0-.78.96-1.21,1.5-1.21h-1.05c-.69,0-1.75-.92-1.75-1.81v-.25c0-.89,1.17-1.43,1.86-1.43h-1.64c-.83,0-1.97-.56-1.97-1.46v-.6c0-.89,1.15-1.43,1.97-1.43Z"/>
              </g>
              <g>
                <path class="cls-14" d="m95.26,163.38c0-7.07-5.73-12.8-12.8-12.8s-12.8,5.73-12.8,12.8c0,0,0,5.49,0,5.49,0,14.68-.25,26.68,10.01,58.1.41,1.24.7,2.35.91,3.32.03.15-.11,3.96-.07,4.1h15.48c-.11-1.17-.68-6.61-.72-8.53-.16-7.91.51-34.62.51-41.05,0-10-.51-19.56-.51-21.44Z"/>
                <circle class="cls-14" cx="82.46" cy="163.38" r="12.8"/>
              </g>
              <path class="cls-14" d="m52.35,129.86c0-9.69,7.84-17.54,17.51-17.54s17.56,7.86,17.56,17.55-7.89,17.53-17.56,17.53-17.51-7.85-17.51-17.54Z"/>
              <g>
                <path class="cls-14" d="m68.46,162.95c0-7.07-5.73-12.8-12.8-12.8s-12.8,5.73-12.8,12.8c0,0,0,5.49,0,5.49,0,14.68-.25,26.68,10.01,58.1.41,1.24.7,2.35.91,3.32.03.15-.11,3.96-.07,4.1h15.48c-.11-1.17-.68-6.61-.72-8.53-.16-7.91.51-34.62.51-41.05,0-10-.51-19.56-.51-21.44Z"/>
                <circle class="cls-14" cx="55.66" cy="162.95" r="12.8"/>
              </g>
              <path class="cls-14" d="m86.56,126.25h-33.83s-12.44,13.42-9.71,35.1l26.8,6.22s2.7,1.11,5.81,0l18.35-8.18c.22-6.04-7.42-33.14-7.42-33.14Z"/>
              <path class="cls-14" d="m83.99,35.48c0,.55-.03,1.09-.09,1.61-.03.23-.06.45-.1.67-.11.65-.26,1.29-.46,1.9,0,0-.15,4.13-.31,6.6-.05.81-.1,1.44-.15,1.7,0,.01,0,.03,0,.04-.4,2.11-.96,3.77-2.14,5.72-.38.64-.82,1.3-1.34,2.02-.8,1.11-1.15,1.57-2.22,2.67-.95.98-2.17,1.95-4.55,2.47-.22.05-.73.06-1.28.05-1.41-.01-2.79-.42-3.99-1.18-2.11-1.34-4.24-3.32-4.83-4.13-2.12-2.95-3.57-4.83-4.09-7.62,0-.05-.02-.12-.04-.22-.23-1.27-1.05-6.26-1.29-7.72l-.03-.15-.04-.25c-.62-1.96-.83-4.1-.48-6.34.96-6.21,6.13-11.04,12.39-11.59,4.97-.44,9.45,1.76,12.2,5.36.31.4.59.81.85,1.24,1.26,2.08,1.99,4.53,1.99,7.14Z"/>
              <path class="cls-14" d="m80.81,39.66s4.9-1.27,3.8,3.3c-1.33,5.47-5.19,4.83-5.19,4.83l1.39-8.12Z"/>
              <g>
                <ellipse class="cls-16" cx="67" cy="40.95" rx="1.3" ry="1.84"/>
                <path class="cls-16" d="m68.3,39.81c-1.46-.12-2.31-.37-3.69-.16.63-1.55,3.09-1.27,3.69.16h0Z"/>
              </g>
              <g>
                <ellipse class="cls-16" cx="79.7" cy="40.9" rx="1.3" ry="1.84"/>
                <path class="cls-16" d="m82.1,39.76c-1.46-.12-2.31-.37-3.69-.16.63-1.55,3.09-1.27,3.69.16h0Z"/>
              </g>
              <path class="cls-4" d="m75.46,47.01c0,.44-.8.8-1.79.8s-1.78-.36-1.78-.8"/>
              <path class="cls-20" d="m70.96,51.61l-3.18-.29c.72,1.27,2,2.08,3.09,2.56,1.24.55,2.67.55,3.91,0,1.09-.48,2.37-1.28,3.09-2.56l-3.18.29c-1.24.11-2.49.11-3.73,0Z"/>
              <path class="cls-18" d="m72.82,51.02c-2.64,0-5.05.32-5.05.32,2.33,1.34,5.05,1.22,5.05,1.22,0,0,2.71.12,5.05-1.22,0,0-2.41-.32-5.05-.32Z"/>
              <path class="cls-16" d="m62.33,37.9c-.13.03-.22-.12-.13-.22.53-.56,1.75-1.69,3.23-1.96,1.44-.26,3.71-.14,4.84-.06.57.04,1.03.51,1.04,1.09,0,0,0,.02,0,.03,0,.46-.29.66-.55.75-.19.07-.39.08-.59.05-.82-.12-4.16-.58-4.76-.42-.53.14-2.27.55-3.07.74Z"/>
              <path class="cls-16" d="m83.9,37.09c-.03.23-.06.45-.1.67-.87-.21-2.06-.49-2.48-.6-.6-.16-3.95.31-4.76.42-.2.03-.4.02-.59-.05-.26-.09-.55-.3-.55-.75v-.03c0-.58.46-1.05,1.04-1.09,1.12-.08,3.39-.2,4.83.06,1.05.19,1.97.82,2.61,1.37Z"/>
              <path class="cls-16" d="m60.51,28.25h0c-.03.11-.63,1.83-1,7.46-.07,1.12-.13,2.38-.18,3.82-.13.62-.29.83-.53.83-.35,0-.88-.43-1.75-.69l-1.72,1.64s.28-.26-.68-8.44c-1.14-9.79,4.79-11.14,4.79-11.14l1.07,6.52Z"/>
              <path class="cls-14" d="m57.04,39.66s-4.9-1.27-3.8,3.3c1.33,5.47,5.19,4.83,5.19,4.83l-1.39-8.12Z"/>
              <path class="cls-21" d="m87.87,71.71l-5.77-.05c2.92-6.72,4.47-16.25,1.81-34.41.64-13.37-17.65-15.98-23.4-9.01l-1.07-6.52s9.79-12.92,22.26.03c0,0,5.1,4.22,5.99,13.88.59,6.39,2.66,14.21,7.68,22.14,3.59,5.68-.78,13.92-7.5,13.92Z"/>
              <path class="cls-2" d="m85.3,31.93s2.27,13.46,8.53,20.21c6.25,6.75,4.79,13.03,4.79,13.03"/>
              <path class="cls-16" d="m60.5,28.26c-.03.11-.63,1.82-1,7.46l-.06.49c-2.29-6.73.91-7.9,1.06-7.95Z"/>
              <path class="cls-14" d="m91.44,91.36c-.75-1.5-1.71-2.81-2.81-3.9-.68-.68-1.13-1.55-1.29-2.49-.68-3.87-2.53-13.47-2.53-13.47-.37-.66-13.74-5.84-13.74-5.84l-19.49,3.85c-.07.01-3.96,20.51-3.71,21.14.39.97,1.4,3.23,1.81,4.19.72,1.73,1.42,3.48,2.11,5.22,1.08,2.73,2.2,5.55,3.43,8.29,1.6,3.56-2.72,18.18-3.71,22.9l19.86,15.92,14.69-9.89s2.19-3.74.53-10.9c-.63-2.72-.18-8.41.48-12.39.28-1.72.45-3.46.48-5.21,0-.25,0-.51.01-.78,5.27-3.06,7.02-10.35,3.88-16.65Z"/>
              <g>
                <path class="cls-14" d="m48,71.5s-11.74,11.8-28.65,31.31c-1.73,2-1.56,5.05.38,6.99h0c2.21,2.2,5.48,1.74,7.63-.37,16.29-16,31.1-27.53,31.1-27.53l-10.46-10.41Z"/>
                <circle class="cls-14" cx="53.23" cy="76.71" r="7.38"/>
                <circle class="cls-14" cx="23.36" cy="106.01" r="5.27"/>
              </g>
              <g>
                <path class="cls-9" d="m91.55,91.2c-.76-1.52-1.73-2.85-2.85-3.96-.69-.69-1.15-1.57-1.32-2.53-.69-3.93-2.57-13.69-2.57-13.69-.38-.67-13.96-5.93-13.96-5.93l-19.78,4.56s3.24,4.8,2.46,9.88c-.86,5.55-5.8,10.8-5.67,11.13.39.98.83,3.11,1.24,4.09.74,1.76,1.44,3.54,2.14,5.31,1.1,2.77,2.24,5.64,3.49,8.43,1.63,3.62-2.76,18.48-3.77,23.27l20.18,16.19,14.93-10.05s2.22-3.8.54-11.08c-.64-2.77-.18-8.55.49-12.6.29-1.75.46-3.52.49-5.29,0-.25,0-.52.02-.8,5.35-3.11,7.13-10.52,3.94-16.92Z"/>
                <path class="cls-15" d="m63.05,61.05l-3.88,8.37,11.54-4.31s-6.33-4.57-7.65-4.06Z"/>
                <path class="cls-15" d="m77.8,61.45l3.48,7.97-10.53-4.28s5.84-4.16,7.05-3.69Z"/>
              </g>
              <g>
                <path class="cls-16" d="m68.55,164.31s-1.33,30.36,7.96,62.55c.89,3.08,3.72,5.18,6.92,5.18h8.28c3.54,0,6.37-2.96,6.2-6.5l-1.24-26.94c-.04-.96-.06-1.92-.05-2.88l-1.48-34.22-26.58,2.81Z"/>
                <path class="cls-16" d="m86.97,126.85h-34.95s-13.28,14.32-10.36,37.46h26.9l26.58-2.81c.23-6.45-8.16-34.65-8.16-34.65Z"/>
              </g>
              <path class="cls-16" d="m86.02,72.7l-5.77-.05c2.92-6.72,5.75-14.83,3.1-32.99.02-.43.02-.84,0-1.25h0c-.08-2.01-.58-3.8-1.39-5.37,0,0,0,0,0-.01h0c-3.24-6.29-11.4-9.07-17.13-7.46h0c-1.73.49-3.24,1.38-4.32,2.69l-1.07-6.52s9.79-12.92,22.26.03c0,0,5.1,4.22,5.99,13.88.59,6.39,2.66,14.21,7.68,22.14,3.59,5.68-2.63,14.91-9.35,14.91Z"/>
              <g>
                <path class="cls-14" d="m18.87,108.65l4.04,6.01c.94,1.4,1.96,2.75,3.06,4.02,1.81,2.09,3.73,4.09,5.75,5.98l13.5,12.63,4.23-5.34s-3.1-3.68-6.24-8.7c-5.23-8.36-12.28-20.3-16.61-21.76l-7.72,7.16Z"/>
                <circle class="cls-14" cx="48.05" cy="135.2" r="3.53"/>
              </g>
              <path class="cls-14" d="m46.84,133.2l2.04-1.93,4.09.67c2.49-.54,3.71-2.01,4.94-2.08,1.23-.06,3.24-1.13,3.24-1.13.94,1.8-1.41,3.38-1.41,3.38.17-.02.34-.03.51-.05.42-.04.84-.09,1.27-.13.54-.05,1.08-.11,1.61-.16.52-.05,1.04-.11,1.56-.15.4-.03.81-.07,1.21-.05.42.02.81.15,1.22.28.5.15,3.11,1.39,3.55,1.54.21.07.64.21.64.21.15.54.13,1.1-.18,1.54-.55.79-1.77.65-2.38.48-.46-.13-1.06-.41-1.49-.62-.38-.18-.26-.25-.95-.24-.4,0-.79.1-1.18.14-.86.1-1.72.21-2.58.32-.2.03-.39.05-.59.08,0,0,3.99,1.15,5.22,1.64.92.36,3.33,3.2,3.33,3.2,1.74,2.03-1.35,2.43-1.35,2.43.13.19.31.5.28.76-.03.21-.19.37-.33.48-.26.21-.56.28-.86.35-.55.11-1.13.13-1.67-.07-.15-.06-.3-.13-.44-.2-.14-.08-.28-.16-.42-.24-.17-.11-.34-.22-.51-.34-.52-.36-1.04-.73-1.52-1.17-.06-.05-.18-.23-.26-.24,0,0-3.13-.5-3.13-.5,1,.69,1.91,2.73,3.26,3.75.2.16.41.33.57.54.15.2.32.49.25.77-.06.27-.33.33-.52.38-.64.18-1.29.1-1.92-.11-.33-.11-.64-.27-.93-.47-.22-.14-.42-.31-.62-.5-.08-.08-.17-.16-.25-.26-1.7-2.32-3.73-3.6-6.6-2.47-4.14,1.64-6.64-4.55-6.64-4.55l-.05-5.29Z"/>
            </g>
            <g>
              <g>
                <g>
                  <path class="cls-20" d="m187.06,94.15s-2.52,15.97-4.72,40.96c-.22,2.56,1.65,4.87,4.28,5.28h0c3,.47,5.31-1.75,5.8-4.63,3.71-21.88,8.81-39.38,8.81-39.38l-14.16-2.24Z"/>
                  <circle class="cls-10" cx="194.14" cy="95.27" r="7.17"/>
                  <circle class="cls-10" cx="187.32" cy="135.34" r="5.12"/>
                </g>
                <path class="cls-11" d="m195.74,120.01c2.13-10.11,4.53-19.82,5.53-23.46.21-.52.36-1.06.45-1.61.3-1.91-.16-3.83-1.3-5.4-1.14-1.57-2.82-2.6-4.73-2.9-.38-.06-.76-.09-1.14-.09-3.59,0-6.59,2.57-7.15,6.12-.02.12-5.48,25.05-5.48,25.05l6.8,1.95,7.02.33Z"/>
              </g>
              <g>
                <g>
                  <g>
                    <path class="cls-10" d="m194.24,172.19c0-6.87,5.57-12.44,12.44-12.44,6.87,0,12.44,5.57,12.44,12.44,0,0,0,5.33,0,5.34,0,14.27.24,25.92-9.73,56.45-.39,1.21-.68,2.28-.88,3.23-.03.14.11,3.84.07,3.99h-15.04c.11-1.13.2-41.92.2-48.17,0-9.72.5-19,.5-20.83Z"/>
                    <circle class="cls-10" cx="206.68" cy="172.19" r="12.44"/>
                  </g>
                  <g>
                    <path class="cls-10" d="m216.09,172.75c0-6.87,5.57-12.44,12.44-12.44,6.87,0,12.44,5.57,12.44,12.44,0,0,0,5.33,0,5.34,0,14.27.24,25.92-9.73,56.45-.39,1.21-.68,2.28-.88,3.23-.03.14.11,3.84.07,3.99h-15.04c.11-1.13.2-41.92.2-48.17,0-9.72.5-19,.5-20.83Z"/>
                    <circle class="cls-10" cx="228.53" cy="172.75" r="12.44"/>
                  </g>
                  <g>
                    <path class="cls-10" d="m230.18,141.54h-30.71s-10.83,22.58-10.6,28.46l22.75,12.23c1.91,1.43,4.5,1.43,6.41,0l21.09-10.94c.24-5.87-8.94-29.75-8.94-29.75Z"/>
                    <path class="cls-10" d="m199.44,140.93c0-8.49,6.87-15.37,15.35-15.37s15.39,6.89,15.39,15.38-6.92,15.37-15.39,15.37-15.35-6.88-15.35-15.37Z"/>
                  </g>
                  <g>
                    <path class="cls-16" d="m208.19,84.35c2.3.15,4.66.14,6.95-.14.77-.09,1.6-.16,2.32-.48.18-.08,1.99-1.41,1.75-1.56.65.42,1.68.75,2.45.46.8-.29,1.06-1.18,1.94-1.37.72-.15,1.34.12,2.11-.12,1.02-.31,1.84-.75,2.94-.78,1.19-.03,2.58.2,3.39-.67.85-.9.71-2.69,1.89-3.07.56-.18,1.21.08,1.74-.16,1.27-.59.2-2.8,1.14-3.85.36-.4.95-.53,1.35-.89,1.16-1.05.06-3.04.58-4.52.31-.9,1.2-1.49,1.55-2.37.78-1.94-1.28-4.23-.38-6.12.26-.55.74-.96,1.09-1.46.66-.95.81-2.23.39-3.31-.47-1.2-1.58-2.13-1.77-3.41-.1-.69.08-1.38.11-2.07.09-1.77-.85-3.55-2.36-4.47-1.19-.73-2.84-1.11-3.26-2.44-.1-.3-.11-.63-.19-.94-.34-1.33-1.74-2.04-2.99-2.61-.68-.31-1.36-.63-1.91-1.13-.38-.35-.69-.78-1.05-1.15-1.59-1.61-4.35-1.88-6.22-.61-.66-.97-1.1-2.03-1.88-2.91-.76-.85-1.59-1.66-2.58-2.25-1.45-.86-3.33-1.19-4.82-.4-.44.24-.84.56-1.31.73-1.99.71-4.26-1.61-6.14-.63-.41.21-.73.56-1.11.82-1.08.72-2.47.64-3.77.73-1.29.08-2.77.51-3.26,1.71-.22.54-.2,1.16-.41,1.71-.82,2.14-4.5,1.98-5.22,4.15-.26.78-.03,1.66-.29,2.44-.64,1.9-3.72,2.25-4.04,4.23-.16.98.48,1.99.19,2.94-.4,1.31-2.24,1.62-2.85,2.85-.74,1.48.73,3.15.63,4.8-.1,1.71-1.85,3.05-1.74,4.76.12,1.83,2.29,2.91,2.72,4.7.23.97-.1,1.97-.25,2.95-.15.98-.05,2.15.75,2.73.42.31.96.39,1.44.59.97.39,1.73,1.24,2.01,2.24.17.62.18,1.3.52,1.84.9,1.42,3.12.78,4.67,1.44,1,.43,1.61,1.38,2.38,2.09.9.83,1.69,1.74,2.57,2.59,1.11,1.07,2.15,1.26,3.56,1.58,1.55.35,3.03.69,4.63.8Z"/>
                    <path class="cls-16" d="m238.96,66.24c-.16,0-.32-.08-.42-.23-.15-.23-.09-.54.14-.69.98-.64,1.99-1.31,2.15-2.34.11-.75-.28-1.51-.67-2.24l-.07-.13c-.67-1.3-.78-2.25-.38-3,.26-.48.69-.79,1.1-1.09.28-.2.55-.4.76-.64.71-.82.59-2.03.25-2.88-.31-.77-.81-1.46-1.31-2.13-.16-.22-.31-.42-.46-.63-.17-.24-.34-.5-.39-.82-.04-.28.02-.56.08-.8h.52s-.49-.12-.49-.12c.38-1.71,0-2.92-1.36-4.2-.89-.84-1.88-1.58-2.93-2.21-.26-.15-.56-.33-.73-.64-.16-.31-.15-.64-.14-.94v-.17c.04-1.12-.52-1.97-1.65-2.54-.41-.21-.87-.36-1.31-.51-.42-.14-.83-.29-1.22-.46-.34-.15-.76-.38-1.04-.77-.17-.23-.27-.48-.36-.72-.06-.16-.12-.32-.21-.46-.33-.58-1.02-.97-1.86-1.04-1.85-.17-3.56.82-5.06,1.69-.24.14-.55.06-.68-.18-.14-.24-.06-.54.18-.68,1.63-.95,3.48-2.02,5.66-1.82,1.16.11,2.15.68,2.64,1.55.11.19.19.39.26.58.08.21.15.38.24.51.15.2.43.35.66.45.35.16.73.29,1.1.42.49.17.98.34,1.45.57,1.46.73,2.25,1.96,2.21,3.45v.19c-.01.16-.02.36,0,.42.04.06.23.18.35.25,1.13.67,2.18,1.46,3.12,2.35,1.6,1.51,2.11,3.1,1.65,5.14,0,0-.03.13-.03.14-.04.16-.08.32-.06.42.02.11.14.29.22.4.14.2.29.4.43.6.54.73,1.09,1.48,1.44,2.36.45,1.13.58,2.75-.42,3.91-.28.33-.63.58-.93.8-.35.25-.65.47-.8.75-.23.43-.11,1.09.35,1.98l.11.21c.41.79.93,1.78.77,2.85-.22,1.48-1.54,2.34-2.59,3.03-.08.06-.18.08-.27.08Z"/>
                    <path class="cls-16" d="m190.76,72.18c-.09,0-.18-.02-.26-.07-.6-.36-1.3-.61-1.98-.86-.63-.23-1.28-.47-1.9-.8-1.47-.78-2.83-2.35-2.54-4.11.07-.45.24-.86.4-1.25.22-.54.41-.99.27-1.32-.1-.24-.4-.45-.74-.68-1.48-.99-3.15-2.38-2.9-4.32.12-.95.68-1.66,1.17-2.28.17-.22.33-.42.47-.63.5-.75.62-1.52.4-2.52-.23-1.04-.33-1.98.81-3.05.27-.25.59-.45.88-.63.56-.35.9-.59.96-.92.04-.25-.12-.57-.29-.92l-.1-.2c-.61-1.31-.89-3.19.19-4.55.69-.87,1.71-1.25,2.62-1.59.35-.13.7-.26,1.02-.41.4-.19.64-.39.72-.59.12-.3.05-.7-.03-1.16-.09-.52-.19-1.09-.04-1.69.28-1.16,1.02-2.03,2.19-2.57.54-.25,1.1-.41,1.64-.57.36-.1.73-.21,1.08-.34.5-.19.81-.4.93-.65.11-.22.11-.54.1-.91,0-.42-.01-.89.15-1.36.53-1.52,2.32-1.93,3.82-1.79.18.02.37.04.55.06.96.1,1.86.2,2.5-.22.11-.07.22-.16.33-.26.24-.2.5-.42.85-.57,1.26-.54,2.4.25,3.31.88.23.16.45.31.67.44,1.24.74,2.93.67,4.11-.18.22-.16.53-.11.7.11.16.22.11.54-.11.7-1.49,1.07-3.63,1.16-5.2.23-.24-.14-.48-.31-.73-.48-.78-.54-1.6-1.11-2.35-.78-.21.09-.4.24-.59.41-.15.13-.29.24-.43.33-.94.61-2.11.49-3.15.38-.18-.02-.36-.04-.54-.05-1.12-.1-2.44.15-2.79,1.13-.11.3-.1.65-.1,1.01,0,.46.01.93-.2,1.37-.24.49-.71.85-1.47,1.14-.37.14-.77.26-1.15.37-.51.15-1.03.3-1.5.52-.89.41-1.43,1.04-1.64,1.9-.1.4-.02.82.06,1.27.1.56.2,1.14-.03,1.71-.18.45-.58.82-1.22,1.12-.35.17-.73.31-1.1.45-.86.32-1.67.62-2.19,1.27-.79,1-.56,2.47-.07,3.51l.09.19c.23.47.47.96.38,1.52-.13.81-.81,1.24-1.41,1.61-.26.16-.53.33-.72.51-.78.73-.71,1.23-.52,2.11.28,1.25.1,2.33-.55,3.29-.16.23-.33.45-.51.69-.46.58-.88,1.11-.97,1.79-.18,1.4,1.22,2.53,2.47,3.36.46.31.9.63,1.11,1.13.3.71.01,1.41-.26,2.08-.14.35-.29.7-.34,1.04-.2,1.27.87,2.45,2.02,3.06.56.3,1.18.52,1.78.74.73.26,1.47.54,2.15.94.24.14.31.45.17.69-.09.16-.26.24-.43.24Z"/>
                  </g>
                  <g>
                    <path class="cls-20" d="m235.6,88.13l-26.36-6.63-16.95,7.05c2.33,7.12,1.93,15.09,1.93,15.09.42,4.53,2.41,16.29,3.74,23.61,1.35,7.43,1.48,14.31,1.48,14.31h30.74s-1.17-7.93-.59-16.2c1.01-14.35,6.82-32.51,6.01-37.23Z"/>
                    <g>
                      <circle class="cls-20" cx="212.37" cy="87.9" r="8.41"/>
                      <polygon class="cls-20" points="220.66 86.59 204.07 86.59 204.06 86.59 204.44 84.1 204.74 82.02 205.31 78.18 205.72 75.37 205.8 74.84 205.92 73.99 206.51 70.02 218.27 70.04 218.93 74.62 219.04 75.33 219.13 75.92 219.2 76.42 219.28 77 220.63 86.35 220.63 86.36 220.66 86.59"/>
                      <circle class="cls-19" cx="212.37" cy="70.04" r="5.88"/>
                      <path class="cls-18" d="m219.28,77l-.94,1.58c-.47.78-1.02,1.5-1.63,2.13-2.05,2.15-4.8,3.39-7.71,3.39h-4.57l.31-2.08.56-3.83,1.34-9.03,11.48-.33,1.07,7.6.08.57Z"/>
                    </g>
                    <path class="cls-17" d="m221.83,81.14s0,0-.01,0c-.02.01-.01.01.01,0Z"/>
                  </g>
                  <g>
                    <g>
                      <circle class="cls-16" cx="210.65" cy="52.92" r="19.61"/>
                      <g>
                        <path class="cls-20" d="m224.53,54.09c0-7.97-6.58-14.39-14.56-14.04-6.96.31-12.68,5.86-13.24,12.87-.15,1.9.27,4.72.27,4.72,0,0,1.59,11.53,1.75,12.39.53,2.84,5.83,8.2,8.11,9.5.94.53,3.11.32,4.14,0,3-.93,10.94-6.65,11.47-9.5.16-.87,1.41-11.69,1.41-11.69h0c.42-1.34.65-2.77.65-4.26Z"/>
                        <path class="cls-20" d="m223.88,58.14s5.56-1.28,4.44,3.33c-1.34,5.52-5.8,4.87-5.8,4.87l1.36-8.2Z"/>
                        <path class="cls-20" d="m199.44,58.28s-5.37-1.42-4.25,3.19c1.34,5.52,5.16,4.89,5.16,4.89l-.91-8.08Z"/>
                      </g>
                      <path class="cls-16" d="m217.01,40.78s.05,0,.07.01c1.36.26,2.61.92,3.77,1.65,1.04.66,2.17.94,2.87,2.02.89,1.36,1.32,3.14,1.73,4.58.53,1.85,1.07,3.8.81,5.74-.23,1.71-1.12,3.31-2.4,4.46-.4.36-.92.9-1.43.28-.39-.47-.17-.95.05-1.42.16-.34.19-.71.35-1.06.19-.41.49-.81.4-1.29-.08-.43-.46-.74-.72-1.1-.32-.44-.47-1.01-.4-1.55.06-.52.29-1.12-.06-1.52-.3-.34-.84-.29-1.23-.51-.47-.26-.65-.83-.83-1.33-.18-.51-.46-1.06-.98-1.19-.3-.07-.62.02-.9-.07-.45-.15-.64-.66-.94-1.02-.36-.43-.94-.67-1.5-.62-.2.02-.39.07-.59.03-.71-.13-.81-1.19-1.45-1.53-.49-.26-1.15,0-1.61-.3-.39-.24-.49-.77-.84-1.07-.34-.3-.84-.31-1.24-.51-.41-.2-.92-.8-.83-1.3.09-.48.81-.8,1.23-.93.92-.28,1.88-.37,2.84-.46,1.27-.11,2.55-.23,3.8,0Z"/>
                      <path class="cls-16" d="m200.3,40.46c2.58-1.69,5.91-2.25,9.05-2.09,2.76.13,5.43,1.32,7.45,3.2.63.59,1.56,1.34.65,2.24-.7.69-1.49.41-2.27.12-.57-.21-1.17-.2-1.75-.42-.68-.25-1.36-.66-2.11-.46-.68.19-1.12.83-1.65,1.3-.66.57-1.54.88-2.41.86-.84-.03-1.83-.3-2.42.31-.5.52-.35,1.38-.64,2.04-.34.79-1.23,1.16-2.01,1.51-.78.35-1.63.88-1.76,1.73-.07.48.12.98,0,1.45-.17.73-.96,1.11-1.49,1.65-.64.64-.94,1.59-.79,2.47.05.31.16.62.13.94-.11,1.15-1.79,1.46-2.24,2.53-.34.82.16,1.83-.25,2.62-.33.65-1.16.9-1.59,1.49-.18.25-3.42-4.44-2.4-9.31,1.35-6.46,2.32-10.13,8.48-14.15Z"/>
                    </g>
                    <g>
                      <ellipse class="cls-16" cx="202.18" cy="59.56" rx="1.26" ry="1.79"/>
                      <path class="cls-16" d="m203.44,58.46c-1.43-.1-2.23-.34-3.59-.16.59-1.53,3.01-1.25,3.59.16h0Z"/>
                      <ellipse class="cls-16" cx="214.72" cy="59.56" rx="1.26" ry="1.79"/>
                      <path class="cls-16" d="m217.05,58.46c-1.43-.1-2.23-.34-3.59-.16.59-1.53,3.01-1.25,3.59.16h0Z"/>
                      <path class="cls-16" d="m197.74,56.3c-.12.03-.21-.12-.12-.21.51-.54,1.7-1.64,3.13-1.9,1.4-.25,3.61-.14,4.7-.06.56.04,1,.5,1.01,1.06,0,0,0,.02,0,.02,0,.44-.28.64-.54.73-.18.06-.38.08-.57.05-.79-.11-4.04-.56-4.63-.41-.51.13-2.21.54-2.98.72Z"/>
                      <path class="cls-16" d="m219.18,56.3c.12.03.21-.12.12-.21-.51-.54-1.7-1.64-3.13-1.9-1.4-.25-3.61-.14-4.7-.06-.56.04-1,.5-1.01,1.06,0,0,0,.02,0,.02,0,.44.28.64.54.73.18.06.38.08.57.05.79-.11,4.04-.56,4.63-.41.51.13,2.21.54,2.98.72Z"/>
                      <g>
                        <path class="cls-7" d="m204.68,70.29h7.44s-1.4,2.48-3.67,2.48-3.77-2.48-3.77-2.48Z"/>
                        <path class="cls-18" d="m208.45,69.59c-1.26-1.3-4.8.7-4.8.7,0,0,3.03.83,4.8.83s4.8-.83,4.8-.83c0,0-3.55-2-4.8-.7Z"/>
                        <path class="cls-18" d="m213.25,70.29l-1.46.35-1.43.83c-1.18.69-2.64.7-3.83.02l-1.54-.87-1.35-.33c.93,2.34,2.64,3.35,3.75,3.78.68.26,1.43.26,2.11,0,1.11-.43,2.82-1.44,3.74-3.78Z"/>
                      </g>
                      <path class="cls-3" d="m211.01,65.18s-.15.77-1.84,1.09c0,0-.03.02-.09.06-.42.26-.95.26-1.37,0-.06-.03-.09-.06-.09-.06-1.7-.31-1.84-1.09-1.84-1.09"/>
                    </g>
                  </g>
                </g>
                <g>
                  <path class="cls-12" d="m245.97,218.04s.02,0,.03-.01l-.03-.03c-.12-7.32-5.93-54.61-6.84-59.02-2.42-11.76-6.39-17.15-9.56-21.41v-2.76c0-2.77.4-5.49,1.2-8.1.76-2.5,1.45-5.87,2.05-8.63,1.66-3.06,1.76-7.13-.07-10.81-.18-.36-.37-.7-.57-1.03l4.9-18.27-13.22-4.29-.04.56c-.42,6.15-5.54,10.96-11.65,10.97-6.11,0-11.22-4.82-11.65-10.97l-.04-.56-8.91,3.41s2.7,14.6,2.57,14.97c-3.18,8.84-.28,14.08,1.58,16.01.6,2.76,1.29,6.13,2.05,8.63.8,2.61,1.2,5.33,1.2,8.1v2.76c-3.17,4.26-7.15,9.65-9.56,21.41-.91,4.42-6.74,51.9-6.84,59.07h.15l-.03.04c7.11,3.15,18.61,5.2,31.59,5.2s24.59-2.07,31.69-5.24h.02s0,0,0,0Z"/>
                  <path class="cls-12" d="m228.6,138.31c-3.27,1.62-8.46,2.66-14.31,2.66s-10.96-1.03-14.23-2.62"/>
                </g>
                <g>
                  <g>
                    <g>
                      <path class="cls-20" d="m235.08,130.83l-6.88,2.13c-1.54.55-3.06,1.19-4.52,1.92-2.4,1.2-4.74,2.53-7.01,3.98l-15.12,9.69,2.95,6.15s5.61-2.75,11-4.82c8.94-3.44,21.43-7.26,24.22-10.3l-4.64-8.75Z"/>
                      <circle class="cls-10" cx="202.85" cy="151.72" r="3.43"/>
                    </g>
                    <circle class="cls-10" cx="236.3" cy="135.81" r="5.12"/>
                    <g>
                      <g>
                        <path class="cls-20" d="m201.9,148.41s-6.68-2.74-12.07-1.84c0,0,1.33,3.07-.52,4-1.45.73-2.04,5.91,1.08,8.84,1.45,1.36,3.83,1.57,5.78.56,2.16-1.12,5.95-3.37,8.16-5.16l-2.44-6.4Z"/>
                        <g>
                          <ellipse class="cls-20" cx="190.2" cy="148.48" rx="1.94" ry="1.95" transform="translate(-26.3 41.94) rotate(-11.78)"/>
                          <path class="cls-20" d="m185.82,150.36s1.16-.32,4.5.07l-.65-3.82s-4.27,1.33-7.09,2.16c-.52.15-.61.85-.15,1.14h0c.78.49,1.71.69,2.62.56l.77-.11Z"/>
                        </g>
                        <g>
                          <g>
                            <path class="cls-20" d="m184.5,163.78c-.44.05-.77-.38-.63-.79h0c.3-.86,1.03-1.51,1.92-1.7s2.16-.43,3.4-.65l.54,2.57-5.24.57Z"/>
                            <ellipse class="cls-20" cx="189.57" cy="161.9" rx="1.31" ry="1.31" transform="translate(-29.05 42.1) rotate(-11.78)"/>
                          </g>
                          <g>
                            <g>
                              <ellipse class="cls-20" cx="194.54" cy="159.04" rx="1.49" ry="1.49" transform="translate(-28.37 43.05) rotate(-11.78)"/>
                              <path class="cls-20" d="m190.21,163.06l5.05-2.71-1.44-2.62s-2.61,1.58-5.07,3.14l1.46,2.19Z"/>
                            </g>
                            <ellipse class="cls-20" cx="189.57" cy="161.9" rx="1.31" ry="1.31" transform="translate(-29.05 42.1) rotate(-11.78)"/>
                          </g>
                        </g>
                        <g>
                          <g>
                            <path class="cls-20" d="m176.13,160.55c-.43.07-.78-.33-.66-.75h0c.26-.87.96-1.54,1.85-1.73,2.32-.51,6.68-1.38,8.26-1.75l.67,2.54-10.12,1.69Z"/>
                            <ellipse class="cls-20" cx="186.02" cy="157.56" rx="1.31" ry="1.31" transform="translate(-28.24 41.28) rotate(-11.78)"/>
                          </g>
                          <g>
                            <g>
                              <ellipse class="cls-20" cx="190.94" cy="154.62" rx="1.49" ry="1.49" transform="translate(-27.54 42.22) rotate(-11.78)"/>
                              <path class="cls-20" d="m186.68,158.71l5-2.8-1.48-2.59s-2.58,1.63-5.02,3.23l1.5,2.16Z"/>
                            </g>
                            <ellipse class="cls-20" cx="186.02" cy="157.56" rx="1.31" ry="1.31" transform="translate(-28.24 41.28) rotate(-11.78)"/>
                          </g>
                        </g>
                        <g>
                          <g>
                            <path class="cls-20" d="m184.95,153.66l.54,2.57-9.49,1.07c-.43.05-.76-.37-.62-.78l.11-.33c.23-.65.79-1.13,1.47-1.25,2.07-.36,6.32-.98,7.99-1.28Z"/>
                            <ellipse class="cls-20" cx="185.33" cy="154.91" rx="1.31" ry="1.31" transform="translate(-27.72 41.08) rotate(-11.78)"/>
                          </g>
                          <g>
                            <g>
                              <ellipse class="cls-20" cx="190.14" cy="151.8" rx="1.49" ry="1.49" transform="translate(-26.98 42) rotate(-11.78)"/>
                              <path class="cls-20" d="m186.03,156.04l4.9-2.97-1.57-2.54s-2.52,1.72-4.9,3.4l1.57,2.11Z"/>
                            </g>
                            <ellipse class="cls-20" cx="185.33" cy="154.91" rx="1.31" ry="1.31" transform="translate(-27.72 41.08) rotate(-11.78)"/>
                          </g>
                        </g>
                        <g>
                          <g>
                            <ellipse class="cls-20" cx="186.63" cy="160.35" rx="1.31" ry="1.31" transform="translate(-28.8 41.46) rotate(-11.78)"/>
                            <g>
                              <g>
                                <ellipse class="cls-20" cx="191.55" cy="157.41" rx="1.49" ry="1.49" transform="translate(-28.09 42.41) rotate(-11.78)"/>
                                <path class="cls-20" d="m187.29,161.5l5-2.8-1.48-2.59s-2.58,1.63-5.02,3.23l1.5,2.16Z"/>
                              </g>
                              <ellipse class="cls-20" cx="186.63" cy="160.35" rx="1.31" ry="1.31" transform="translate(-28.8 41.46) rotate(-11.78)"/>
                            </g>
                          </g>
                          <path class="cls-20" d="m179.13,163.21c-.4.08-.75-.29-.65-.69h0c.23-.91.94-1.63,1.84-1.88,1.7-.46,4.37-1.12,5.83-1.52l.76,2.52-7.78,1.57Z"/>
                        </g>
                      </g>
                      <circle class="cls-20" cx="202.87" cy="151.71" r="3.43"/>
                    </g>
                  </g>
                  <g>
                    <path class="cls-20" d="m227.38,95.59s.9,16.14,4.01,41.04c.32,2.55,2.63,4.41,5.29,4.26h0c3.03-.17,4.82-2.83,4.69-5.75-.98-22.17.32-40.35.32-40.35l-14.31.8Z"/>
                    <circle class="cls-10" cx="234.53" cy="95.2" r="7.17"/>
                    <circle class="cls-20" cx="236.3" cy="135.81" r="5.12"/>
                  </g>
                </g>
                <path class="cls-11" d="m228.66,120.81c-.3-10.48-.94-20.6-1.29-24.42-.12-.56-.17-1.13-.16-1.69.04-1.96.85-3.79,2.27-5.15,1.42-1.36,3.28-2.08,5.25-2.04.39,0,.78.05,1.15.12,3.58.65,6.12,3.76,6.04,7.4,0,.12.95,25.99.95,25.99l-7.14.72-7.07-.93Z"/>
              </g>
              <g>
                <g>
                  <path class="cls-20" d="m187.18,130.21l-7.17.63c-1.63.21-3.24.52-4.83.93-2.6.67-5.17,1.48-7.69,2.42l-16.82,6.29,1.59,6.63s6.06-1.51,11.77-2.4c9.47-1.48,22.48-2.59,25.84-4.97l-2.69-9.53Z"/>
                  <circle class="cls-20" cx="151.27" cy="143.85" r="3.43"/>
                </g>
                <circle class="cls-20" cx="187.32" cy="135.34" r="5.12"/>
                <g>
                  <g>
                    <path class="cls-20" d="m151.04,140.42s-5.95-4.09-11.41-4.34c0,0,.65,3.28-1.35,3.8-1.57.4-3.24,5.34-.8,8.87,1.13,1.63,3.41,2.34,5.53,1.76,2.34-.64,6.53-2.05,9.06-3.32l-1.04-6.77Z"/>
                    <g>
                      <ellipse class="cls-20" cx="139.59" cy="138.02" rx="1.95" ry="1.94" transform="translate(.64 276.7) rotate(-89.62)"/>
                      <path class="cls-20" d="m134.9,138.94s1.2-.07,4.39,1.01l.17-3.87s-4.45.4-7.38.62c-.54.04-.78.7-.39,1.09h0c.66.65,1.52,1.03,2.44,1.1l.77.05Z"/>
                    </g>
                    <g>
                      <g>
                        <path class="cls-20" d="m130.79,151.78c-.44-.05-.67-.53-.44-.91h0c.48-.78,1.32-1.26,2.24-1.25s2.2.04,3.46.08l-.02,2.63-5.24-.55Z"/>
                        <ellipse class="cls-20" cx="136.15" cy="151" rx="1.31" ry="1.31" transform="translate(-15.75 286.15) rotate(-89.62)"/>
                      </g>
                      <g>
                        <g>
                          <ellipse class="cls-20" cx="141.61" cy="149.26" rx="1.49" ry="1.49" transform="translate(-8.59 289.88) rotate(-89.62)"/>
                          <path class="cls-20" d="m136.53,152.28l5.51-1.58-.85-2.86s-2.88,1-5.62,2l.96,2.45Z"/>
                        </g>
                        <ellipse class="cls-20" cx="136.15" cy="151" rx="1.31" ry="1.31" transform="translate(-15.75 286.15) rotate(-89.62)"/>
                      </g>
                    </g>
                    <g>
                      <g>
                        <path class="cls-20" d="m123.29,146.86c-.43-.02-.69-.49-.49-.87h0c.43-.8,1.26-1.3,2.17-1.3,2.37-.01,6.82.06,8.45.03l.12,2.63-10.25-.48Z"/>
                        <ellipse class="cls-20" cx="133.59" cy="146.02" rx="1.31" ry="1.31" transform="translate(-13.31 278.64) rotate(-89.62)"/>
                      </g>
                      <g>
                        <g>
                          <ellipse class="cls-20" cx="139.02" cy="144.18" rx="1.49" ry="1.49" transform="translate(-6.08 282.24) rotate(-89.62)"/>
                          <path class="cls-20" d="m133.99,147.28l5.48-1.68-.9-2.85s-2.86,1.05-5.58,2.1l1.01,2.43Z"/>
                        </g>
                        <ellipse class="cls-20" cx="133.59" cy="146.02" rx="1.31" ry="1.31" transform="translate(-13.31 278.64) rotate(-89.62)"/>
                      </g>
                    </g>
                    <g>
                      <g>
                        <path class="cls-20" d="m133.36,141.98l-.02,2.63-9.5-.95c-.43-.04-.67-.52-.44-.89l.18-.29c.36-.59,1.01-.94,1.7-.91,2.1.08,6.39.37,8.08.43Z"/>
                        <ellipse class="cls-20" cx="133.47" cy="143.29" rx="1.31" ry="1.31" transform="translate(-10.7 275.81) rotate(-89.62)"/>
                      </g>
                      <g>
                        <g>
                          <ellipse class="cls-20" cx="138.83" cy="141.26" rx="1.49" ry="1.49" transform="translate(-3.34 279.15) rotate(-89.62)"/>
                          <path class="cls-20" d="m133.91,144.54l5.42-1.87-1-2.81s-2.83,1.15-5.51,2.29l1.09,2.39Z"/>
                        </g>
                        <ellipse class="cls-20" cx="133.47" cy="143.29" rx="1.31" ry="1.31" transform="translate(-10.7 275.81) rotate(-89.62)"/>
                      </g>
                    </g>
                    <g>
                      <g>
                        <ellipse class="cls-20" cx="133.6" cy="148.87" rx="1.31" ry="1.31" transform="translate(-16.15 281.48) rotate(-89.62)"/>
                        <g>
                          <g>
                            <ellipse class="cls-20" cx="139.03" cy="147.03" rx="1.49" ry="1.49" transform="translate(-8.92 285.08) rotate(-89.62)"/>
                            <path class="cls-20" d="m134,150.13l5.48-1.68-.9-2.85s-2.86,1.05-5.58,2.1l1.01,2.43Z"/>
                          </g>
                          <ellipse class="cls-20" cx="133.6" cy="148.87" rx="1.31" ry="1.31" transform="translate(-16.15 281.48) rotate(-89.62)"/>
                        </g>
                      </g>
                      <path class="cls-20" d="m125.66,150.09c-.41,0-.67-.44-.49-.81h0c.42-.84,1.26-1.4,2.2-1.45,1.76-.09,4.51-.18,6.02-.26l.21,2.62-7.93-.11Z"/>
                    </g>
                  </g>
                  <circle class="cls-20" cx="151.29" cy="143.84" r="3.43"/>
                </g>
              </g>
            </g>
          </g>
        </g>
        <g>
          <g>
            <path class="cls-10" d="m194.24,172.19c0-6.87,5.57-12.44,12.44-12.44,6.87,0,12.44,5.57,12.44,12.44,0,0,0,5.33,0,5.34,0,14.27.24,25.92-9.73,56.45-.39,1.21-.68,2.28-.88,3.23-.03.14.11,3.84.07,3.99h-15.04c.11-1.13.2-41.92.2-48.17,0-9.72.5-19,.5-20.83Z"/>
            <circle class="cls-10" cx="206.68" cy="172.19" r="12.44"/>
          </g>
          <g>
            <path class="cls-10" d="m216.09,172.75c0-6.87,5.57-12.44,12.44-12.44,6.87,0,12.44,5.57,12.44,12.44,0,0,0,5.33,0,5.34,0,14.27.24,25.92-9.73,56.45-.39,1.21-.68,2.28-.88,3.23-.03.14.11,3.84.07,3.99h-15.04c.11-1.13.2-41.92.2-48.17,0-9.72.5-19,.5-20.83Z"/>
            <circle class="cls-10" cx="228.53" cy="172.75" r="12.44"/>
          </g>
          <g>
            <path class="cls-16" d="m208.19,84.35c2.3.15,4.66.14,6.95-.14.77-.09,1.6-.16,2.32-.48.18-.08,1.99-1.41,1.75-1.56.65.42,1.68.75,2.45.46.8-.29,1.06-1.18,1.94-1.37.72-.15,1.34.12,2.11-.12,1.02-.31,1.84-.75,2.94-.78,1.19-.03,2.58.2,3.39-.67.85-.9.71-2.69,1.89-3.07.56-.18,1.21.08,1.74-.16,1.27-.59.2-2.8,1.14-3.85.36-.4.95-.53,1.35-.89,1.16-1.05.06-3.04.58-4.52.31-.9,1.2-1.49,1.55-2.37.78-1.94-1.28-4.23-.38-6.12.26-.55.74-.96,1.09-1.46.66-.95.81-2.23.39-3.31-.47-1.2-1.58-2.13-1.77-3.41-.1-.69.08-1.38.11-2.07.09-1.77-.85-3.55-2.36-4.47-1.19-.73-2.84-1.11-3.26-2.44-.1-.3-.11-.63-.19-.94-.34-1.33-1.74-2.04-2.99-2.61-.68-.31-1.36-.63-1.91-1.13-.38-.35-.69-.78-1.05-1.15-1.59-1.61-4.35-1.88-6.22-.61-.66-.97-1.1-2.03-1.88-2.91-.76-.85-1.59-1.66-2.58-2.25-1.45-.86-3.33-1.19-4.82-.4-.44.24-.84.56-1.31.73-1.99.71-4.26-1.61-6.14-.63-.41.21-.73.56-1.11.82-1.08.72-2.47.64-3.77.73-1.29.08-2.77.51-3.26,1.71-.22.54-.2,1.16-.41,1.71-.82,2.14-4.5,1.98-5.22,4.15-.26.78-.03,1.66-.29,2.44-.64,1.9-3.72,2.25-4.04,4.23-.16.98.48,1.99.19,2.94-.4,1.31-2.24,1.62-2.85,2.85-.74,1.48.73,3.15.63,4.8-.1,1.71-1.85,3.05-1.74,4.76.12,1.83,2.29,2.91,2.72,4.7.23.97-.1,1.97-.25,2.95-.15.98-.05,2.15.75,2.73.42.31.96.39,1.44.59.97.39,1.73,1.24,2.01,2.24.17.62.18,1.3.52,1.84.9,1.42,3.12.78,4.67,1.44,1,.43,1.61,1.38,2.38,2.09.9.83,1.69,1.74,2.57,2.59,1.11,1.07,2.15,1.26,3.56,1.58,1.55.35,3.03.69,4.63.8Z"/>
            <path class="cls-16" d="m238.96,66.24c-.16,0-.32-.08-.42-.23-.15-.23-.09-.54.14-.69.98-.64,1.99-1.31,2.15-2.34.11-.75-.28-1.51-.67-2.24l-.07-.13c-.67-1.3-.78-2.25-.38-3,.26-.48.69-.79,1.1-1.09.28-.2.55-.4.76-.64.71-.82.59-2.03.25-2.88-.31-.77-.81-1.46-1.31-2.13-.16-.22-.31-.42-.46-.63-.17-.24-.34-.5-.39-.82-.04-.28.02-.56.08-.8h.52s-.49-.12-.49-.12c.38-1.71,0-2.92-1.36-4.2-.89-.84-1.88-1.58-2.93-2.21-.26-.15-.56-.33-.73-.64-.16-.31-.15-.64-.14-.94v-.17c.04-1.12-.52-1.97-1.65-2.54-.41-.21-.87-.36-1.31-.51-.42-.14-.83-.29-1.22-.46-.34-.15-.76-.38-1.04-.77-.17-.23-.27-.48-.36-.72-.06-.16-.12-.32-.21-.46-.33-.58-1.02-.97-1.86-1.04-1.85-.17-3.56.82-5.06,1.69-.24.14-.55.06-.68-.18-.14-.24-.06-.54.18-.68,1.63-.95,3.48-2.02,5.66-1.82,1.16.11,2.15.68,2.64,1.55.11.19.19.39.26.58.08.21.15.38.24.51.15.2.43.35.66.45.35.16.73.29,1.1.42.49.17.98.34,1.45.57,1.46.73,2.25,1.96,2.21,3.45v.19c-.01.16-.02.36,0,.42.04.06.23.18.35.25,1.13.67,2.18,1.46,3.12,2.35,1.6,1.51,2.11,3.1,1.65,5.14,0,0-.03.13-.03.14-.04.16-.08.32-.06.42.02.11.14.29.22.4.14.2.29.4.43.6.54.73,1.09,1.48,1.44,2.36.45,1.13.58,2.75-.42,3.91-.28.33-.63.58-.93.8-.35.25-.65.47-.8.75-.23.43-.11,1.09.35,1.98l.11.21c.41.79.93,1.78.77,2.85-.22,1.48-1.54,2.34-2.59,3.03-.08.06-.18.08-.27.08Z"/>
            <path class="cls-16" d="m190.76,72.18c-.09,0-.18-.02-.26-.07-.6-.36-1.3-.61-1.98-.86-.63-.23-1.28-.47-1.9-.8-1.47-.78-2.83-2.35-2.54-4.11.07-.45.24-.86.4-1.25.22-.54.41-.99.27-1.32-.1-.24-.4-.45-.74-.68-1.48-.99-3.15-2.38-2.9-4.32.12-.95.68-1.66,1.17-2.28.17-.22.33-.42.47-.63.5-.75.62-1.52.4-2.52-.23-1.04-.33-1.98.81-3.05.27-.25.59-.45.88-.63.56-.35.9-.59.96-.92.04-.25-.12-.57-.29-.92l-.1-.2c-.61-1.31-.89-3.19.19-4.55.69-.87,1.71-1.25,2.62-1.59.35-.13.7-.26,1.02-.41.4-.19.64-.39.72-.59.12-.3.05-.7-.03-1.16-.09-.52-.19-1.09-.04-1.69.28-1.16,1.02-2.03,2.19-2.57.54-.25,1.1-.41,1.64-.57.36-.1.73-.21,1.08-.34.5-.19.81-.4.93-.65.11-.22.11-.54.1-.91,0-.42-.01-.89.15-1.36.53-1.52,2.32-1.93,3.82-1.79.18.02.37.04.55.06.96.1,1.86.2,2.5-.22.11-.07.22-.16.33-.26.24-.2.5-.42.85-.57,1.26-.54,2.4.25,3.31.88.23.16.45.31.67.44,1.24.74,2.93.67,4.11-.18.22-.16.53-.11.7.11.16.22.11.54-.11.7-1.49,1.07-3.63,1.16-5.2.23-.24-.14-.48-.31-.73-.48-.78-.54-1.6-1.11-2.35-.78-.21.09-.4.24-.59.41-.15.13-.29.24-.43.33-.94.61-2.11.49-3.15.38-.18-.02-.36-.04-.54-.05-1.12-.1-2.44.15-2.79,1.13-.11.3-.1.65-.1,1.01,0,.46.01.93-.2,1.37-.24.49-.71.85-1.47,1.14-.37.14-.77.26-1.15.37-.51.15-1.03.3-1.5.52-.89.41-1.43,1.04-1.64,1.9-.1.4-.02.82.06,1.27.1.56.2,1.14-.03,1.71-.18.45-.58.82-1.22,1.12-.35.17-.73.31-1.1.45-.86.32-1.67.62-2.19,1.27-.79,1-.56,2.47-.07,3.51l.09.19c.23.47.47.96.38,1.52-.13.81-.81,1.24-1.41,1.61-.26.16-.53.33-.72.51-.78.73-.71,1.23-.52,2.11.28,1.25.1,2.33-.55,3.29-.16.23-.33.45-.51.69-.46.58-.88,1.11-.97,1.79-.18,1.4,1.22,2.53,2.47,3.36.46.31.9.63,1.11,1.13.3.71.01,1.41-.26,2.08-.14.35-.29.7-.34,1.04-.2,1.27.87,2.45,2.02,3.06.56.3,1.18.52,1.78.74.73.26,1.47.54,2.15.94.24.14.31.45.17.69-.09.16-.26.24-.43.24Z"/>
          </g>
          <g>
            <g>
              <circle class="cls-20" cx="212.37" cy="87.9" r="8.41"/>
              <polygon class="cls-20" points="220.66 86.59 204.07 86.59 204.06 86.59 204.44 84.1 204.74 82.02 205.31 78.18 205.72 75.37 205.8 74.84 205.92 73.99 206.51 70.02 218.27 70.04 218.93 74.62 219.04 75.33 219.13 75.92 219.2 76.42 219.28 77 220.63 86.35 220.63 86.36 220.66 86.59"/>
              <circle class="cls-19" cx="212.37" cy="70.04" r="5.88"/>
              <path class="cls-18" d="m219.28,77l-.94,1.58c-.47.78-1.02,1.5-1.63,2.13-2.05,2.15-4.8,3.39-7.71,3.39h-4.57l.31-2.08.56-3.83,1.34-9.03,11.48-.33,1.07,7.6.08.57Z"/>
            </g>
            <path class="cls-17" d="m221.83,81.14s0,0-.01,0c-.02.01-.01.01.01,0Z"/>
          </g>
          <g>
            <g>
              <circle class="cls-16" cx="210.65" cy="52.92" r="19.61"/>
              <g>
                <path class="cls-20" d="m224.53,54.09c0-7.97-6.58-14.39-14.56-14.04-6.96.31-12.68,5.86-13.24,12.87-.15,1.9.27,4.72.27,4.72,0,0,1.59,11.53,1.75,12.39.53,2.84,5.83,8.2,8.11,9.5.94.53,3.11.32,4.14,0,3-.93,10.94-6.65,11.47-9.5.16-.87,1.41-11.69,1.41-11.69h0c.42-1.34.65-2.77.65-4.26Z"/>
                <path class="cls-20" d="m223.88,58.14s5.56-1.28,4.44,3.33c-1.34,5.52-5.8,4.87-5.8,4.87l1.36-8.2Z"/>
                <path class="cls-20" d="m199.44,58.28s-5.37-1.42-4.25,3.19c1.34,5.52,5.16,4.89,5.16,4.89l-.91-8.08Z"/>
              </g>
              <path class="cls-16" d="m217.01,40.78s.05,0,.07.01c1.36.26,2.61.92,3.77,1.65,1.04.66,2.17.94,2.87,2.02.89,1.36,1.32,3.14,1.73,4.58.53,1.85,1.07,3.8.81,5.74-.23,1.71-1.12,3.31-2.4,4.46-.4.36-.92.9-1.43.28-.39-.47-.17-.95.05-1.42.16-.34.19-.71.35-1.06.19-.41.49-.81.4-1.29-.08-.43-.46-.74-.72-1.1-.32-.44-.47-1.01-.4-1.55.06-.52.29-1.12-.06-1.52-.3-.34-.84-.29-1.23-.51-.47-.26-.65-.83-.83-1.33-.18-.51-.46-1.06-.98-1.19-.3-.07-.62.02-.9-.07-.45-.15-.64-.66-.94-1.02-.36-.43-.94-.67-1.5-.62-.2.02-.39.07-.59.03-.71-.13-.81-1.19-1.45-1.53-.49-.26-1.15,0-1.61-.3-.39-.24-.49-.77-.84-1.07-.34-.3-.84-.31-1.24-.51-.41-.2-.92-.8-.83-1.3.09-.48.81-.8,1.23-.93.92-.28,1.88-.37,2.84-.46,1.27-.11,2.55-.23,3.8,0Z"/>
              <path class="cls-16" d="m200.3,40.46c2.58-1.69,5.91-2.25,9.05-2.09,2.76.13,5.43,1.32,7.45,3.2.63.59,1.56,1.34.65,2.24-.7.69-1.49.41-2.27.12-.57-.21-1.17-.2-1.75-.42-.68-.25-1.36-.66-2.11-.46-.68.19-1.12.83-1.65,1.3-.66.57-1.54.88-2.41.86-.84-.03-1.83-.3-2.42.31-.5.52-.35,1.38-.64,2.04-.34.79-1.23,1.16-2.01,1.51-.78.35-1.63.88-1.76,1.73-.07.48.12.98,0,1.45-.17.73-.96,1.11-1.49,1.65-.64.64-.94,1.59-.79,2.47.05.31.16.62.13.94-.11,1.15-1.79,1.46-2.24,2.53-.34.82.16,1.83-.25,2.62-.33.65-1.16.9-1.59,1.49-.18.25-3.42-4.44-2.4-9.31,1.35-6.46,2.32-10.13,8.48-14.15Z"/>
            </g>
            <g>
              <ellipse class="cls-16" cx="202.18" cy="59.56" rx="1.26" ry="1.79"/>
              <path class="cls-16" d="m203.44,58.46c-1.43-.1-2.23-.34-3.59-.16.59-1.53,3.01-1.25,3.59.16h0Z"/>
              <ellipse class="cls-16" cx="214.72" cy="59.56" rx="1.26" ry="1.79"/>
              <path class="cls-16" d="m217.05,58.46c-1.43-.1-2.23-.34-3.59-.16.59-1.53,3.01-1.25,3.59.16h0Z"/>
              <path class="cls-16" d="m197.74,56.3c-.12.03-.21-.12-.12-.21.51-.54,1.7-1.64,3.13-1.9,1.4-.25,3.61-.14,4.7-.06.56.04,1,.5,1.01,1.06,0,0,0,.02,0,.02,0,.44-.28.64-.54.73-.18.06-.38.08-.57.05-.79-.11-4.04-.56-4.63-.41-.51.13-2.21.54-2.98.72Z"/>
              <path class="cls-16" d="m219.18,56.3c.12.03.21-.12.12-.21-.51-.54-1.7-1.64-3.13-1.9-1.4-.25-3.61-.14-4.7-.06-.56.04-1,.5-1.01,1.06,0,0,0,.02,0,.02,0,.44.28.64.54.73.18.06.38.08.57.05.79-.11,4.04-.56,4.63-.41.51.13,2.21.54,2.98.72Z"/>
              <g>
                <path class="cls-7" d="m204.68,70.29h7.44s-1.4,2.48-3.67,2.48-3.77-2.48-3.77-2.48Z"/>
                <path class="cls-18" d="m208.45,69.59c-1.26-1.3-4.8.7-4.8.7,0,0,3.03.83,4.8.83s4.8-.83,4.8-.83c0,0-3.55-2-4.8-.7Z"/>
                <path class="cls-18" d="m213.25,70.29l-1.46.35-1.43.83c-1.18.69-2.64.7-3.83.02l-1.54-.87-1.35-.33c.93,2.34,2.64,3.35,3.75,3.78.68.26,1.43.26,2.11,0,1.11-.43,2.82-1.44,3.74-3.78Z"/>
              </g>
              <path class="cls-3" d="m211.01,65.18s-.15.77-1.84,1.09c0,0-.03.02-.09.06-.42.26-.95.26-1.37,0-.06-.03-.09-.06-.09-.06-1.7-.31-1.84-1.09-1.84-1.09"/>
            </g>
          </g>
        </g>
      </g>
      <g>
        <g>
          <g>
            <path class="cls-20" d="m235.08,130.83l-6.88,2.13c-1.54.55-3.06,1.19-4.52,1.92-2.4,1.2-4.74,2.53-7.01,3.98l-15.12,9.69,2.95,6.15s5.61-2.75,11-4.82c8.94-3.44,21.43-7.26,24.22-10.3l-4.64-8.75Z"/>
            <circle class="cls-10" cx="202.85" cy="151.72" r="3.43"/>
          </g>
          <circle class="cls-10" cx="236.3" cy="135.81" r="5.12"/>
          <g>
            <g>
              <path class="cls-20" d="m201.9,148.41s-6.68-2.74-12.07-1.84c0,0,1.33,3.07-.52,4-1.45.73-2.04,5.91,1.08,8.84,1.45,1.36,3.83,1.57,5.78.56,2.16-1.12,5.95-3.37,8.16-5.16l-2.44-6.4Z"/>
              <g>
                <ellipse class="cls-20" cx="190.2" cy="148.48" rx="1.94" ry="1.95" transform="translate(-26.3 41.94) rotate(-11.78)"/>
                <path class="cls-20" d="m185.82,150.36s1.16-.32,4.5.07l-.65-3.82s-4.27,1.33-7.09,2.16c-.52.15-.61.85-.15,1.14h0c.78.49,1.71.69,2.62.56l.77-.11Z"/>
              </g>
              <g>
                <g>
                  <path class="cls-20" d="m184.5,163.78c-.44.05-.77-.38-.63-.79h0c.3-.86,1.03-1.51,1.92-1.7s2.16-.43,3.4-.65l.54,2.57-5.24.57Z"/>
                  <ellipse class="cls-20" cx="189.57" cy="161.9" rx="1.31" ry="1.31" transform="translate(-29.05 42.1) rotate(-11.78)"/>
                </g>
                <g>
                  <g>
                    <ellipse class="cls-20" cx="194.54" cy="159.04" rx="1.49" ry="1.49" transform="translate(-28.37 43.05) rotate(-11.78)"/>
                    <path class="cls-20" d="m190.21,163.06l5.05-2.71-1.44-2.62s-2.61,1.58-5.07,3.14l1.46,2.19Z"/>
                  </g>
                  <ellipse class="cls-20" cx="189.57" cy="161.9" rx="1.31" ry="1.31" transform="translate(-29.05 42.1) rotate(-11.78)"/>
                </g>
              </g>
              <g>
                <g>
                  <path class="cls-20" d="m176.13,160.55c-.43.07-.78-.33-.66-.75h0c.26-.87.96-1.54,1.85-1.73,2.32-.51,6.68-1.38,8.26-1.75l.67,2.54-10.12,1.69Z"/>
                  <ellipse class="cls-20" cx="186.02" cy="157.56" rx="1.31" ry="1.31" transform="translate(-28.24 41.28) rotate(-11.78)"/>
                </g>
                <g>
                  <g>
                    <ellipse class="cls-20" cx="190.94" cy="154.62" rx="1.49" ry="1.49" transform="translate(-27.54 42.22) rotate(-11.78)"/>
                    <path class="cls-20" d="m186.68,158.71l5-2.8-1.48-2.59s-2.58,1.63-5.02,3.23l1.5,2.16Z"/>
                  </g>
                  <ellipse class="cls-20" cx="186.02" cy="157.56" rx="1.31" ry="1.31" transform="translate(-28.24 41.28) rotate(-11.78)"/>
                </g>
              </g>
              <g>
                <g>
                  <path class="cls-20" d="m184.95,153.66l.54,2.57-9.49,1.07c-.43.05-.76-.37-.62-.78l.11-.33c.23-.65.79-1.13,1.47-1.25,2.07-.36,6.32-.98,7.99-1.28Z"/>
                  <ellipse class="cls-20" cx="185.33" cy="154.91" rx="1.31" ry="1.31" transform="translate(-27.72 41.08) rotate(-11.78)"/>
                </g>
                <g>
                  <g>
                    <ellipse class="cls-20" cx="190.14" cy="151.8" rx="1.49" ry="1.49" transform="translate(-26.98 42) rotate(-11.78)"/>
                    <path class="cls-20" d="m186.03,156.04l4.9-2.97-1.57-2.54s-2.52,1.72-4.9,3.4l1.57,2.11Z"/>
                  </g>
                  <ellipse class="cls-20" cx="185.33" cy="154.91" rx="1.31" ry="1.31" transform="translate(-27.72 41.08) rotate(-11.78)"/>
                </g>
              </g>
              <g>
                <g>
                  <ellipse class="cls-20" cx="186.63" cy="160.35" rx="1.31" ry="1.31" transform="translate(-28.8 41.46) rotate(-11.78)"/>
                  <g>
                    <g>
                      <ellipse class="cls-20" cx="191.55" cy="157.41" rx="1.49" ry="1.49" transform="translate(-28.09 42.41) rotate(-11.78)"/>
                      <path class="cls-20" d="m187.29,161.5l5-2.8-1.48-2.59s-2.58,1.63-5.02,3.23l1.5,2.16Z"/>
                    </g>
                    <ellipse class="cls-20" cx="186.63" cy="160.35" rx="1.31" ry="1.31" transform="translate(-28.8 41.46) rotate(-11.78)"/>
                  </g>
                </g>
                <path class="cls-20" d="m179.13,163.21c-.4.08-.75-.29-.65-.69h0c.23-.91.94-1.63,1.84-1.88,1.7-.46,4.37-1.12,5.83-1.52l.76,2.52-7.78,1.57Z"/>
              </g>
            </g>
            <circle class="cls-20" cx="202.87" cy="151.71" r="3.43"/>
          </g>
        </g>
        <g>
          <path class="cls-20" d="m227.38,95.59s.9,16.14,4.01,41.04c.32,2.55,2.63,4.41,5.29,4.26h0c3.03-.17,4.82-2.83,4.69-5.75-.98-22.17.32-40.35.32-40.35l-14.31.8Z"/>
          <circle class="cls-10" cx="234.53" cy="95.2" r="7.17"/>
          <circle class="cls-20" cx="236.3" cy="135.81" r="5.12"/>
        </g>
      </g>
      <path class="cls-11" d="m228.66,120.81c-.3-10.48-.94-20.6-1.29-24.42-.12-.56-.17-1.13-.16-1.69.04-1.96.85-3.79,2.27-5.15,1.42-1.36,3.28-2.08,5.25-2.04.39,0,.78.05,1.15.12,3.58.65,6.12,3.76,6.04,7.4,0,.12.95,25.99.95,25.99l-7.14.72-7.07-.93Z"/>
      <g>
        <path class="cls-14" d="m48,71.5s-11.74,11.8-28.65,31.31c-1.73,2-1.56,5.05.38,6.99h0c2.21,2.2,5.48,1.74,7.63-.37,16.29-16,31.1-27.53,31.1-27.53l-10.46-10.41Z"/>
        <circle class="cls-14" cx="53.23" cy="76.71" r="7.38"/>
        <circle class="cls-14" cx="23.36" cy="106.01" r="5.27"/>
      </g>
      <g>
        <path class="cls-14" d="m18.87,108.65l4.04,6.01c.94,1.4,1.96,2.75,3.06,4.02,1.81,2.09,3.73,4.09,5.75,5.98l13.5,12.63,4.23-5.34s-3.1-3.68-6.24-8.7c-5.23-8.36-12.28-20.3-16.61-21.76l-7.72,7.16Z"/>
        <circle class="cls-14" cx="48.05" cy="135.2" r="3.53"/>
      </g>
    </g>
  </g>
</svg>