<?xml version="1.0" encoding="UTF-8"?>
<svg xmlns="http://www.w3.org/2000/svg" xmlns:xlink="http://www.w3.org/1999/xlink" viewBox="0 0 307.75 171.76">
  <defs>
    <style>
      .cls-1, .cls-2, .cls-3, .cls-4 {
        fill: none;
      }

      .cls-5, .cls-2 {
        stroke: #666;
        stroke-linejoin: round;
      }

      .cls-5, .cls-2, .cls-3, .cls-6, .cls-7, .cls-4 {
        stroke-linecap: round;
      }

      .cls-5, .cls-8 {
        fill: #fff;
      }

      .cls-9 {
        clip-path: url(#clippath);
      }

      .cls-10 {
        fill: #f1f1f1;
      }

      .cls-11 {
        fill: #919193;
      }

      .cls-12 {
        fill: #b4b4b6;
      }

      .cls-13 {
        fill: #ba0c2f;
      }

      .cls-14 {
        fill: #babbbd;
      }

      .cls-15 {
        fill: #b9ad86;
      }

      .cls-16 {
        fill: #a89968;
      }

      .cls-17 {
        fill: #a6a6a9;
      }

      .cls-18, .cls-7, .cls-19 {
        fill: #d8d9d9;
      }

      .cls-20, .cls-6 {
        fill: #d0d1d1;
      }

      .cls-21 {
        fill: #d1d2d2;
      }

      .cls-22 {
        fill: #d66d82;
      }

      .cls-23 {
        fill: #c7af8b;
      }

      .cls-24 {
        fill: #c7bd9e;
      }

      .cls-25 {
        fill: #1a1a1a;
      }

      .cls-26 {
        fill: #6d6e71;
      }

      .cls-27 {
        fill: #808285;
      }

      .cls-28 {
        fill: #808083;
      }

      .cls-29 {
        fill: #808082;
      }

      .cls-30 {
        fill: #59595b;
      }

      .cls-31 {
        fill: #313131;
      }

      .cls-3, .cls-6 {
        stroke: #909294;
      }

      .cls-3, .cls-6, .cls-7, .cls-4 {
        stroke-miterlimit: 10;
      }

      .cls-7 {
        stroke: #a0a2a4;
      }

      .cls-32 {
        clip-path: url(#clippath-1);
      }

      .cls-33 {
        fill: #784559;
        mix-blend-mode: multiply;
        opacity: .4;
      }

      .cls-34 {
        isolation: isolate;
      }

      .cls-4 {
        stroke: #5b5a5d;
        stroke-width: .65px;
      }

      .cls-19 {
        opacity: .25;
      }
    </style>
    <clipPath id="clippath">
      <path class="cls-1" d="m8.41,0h299.34v171.76H0V8.41C0,3.77,3.77,0,8.41,0Z"/>
    </clipPath>
    <clipPath id="clippath-1">
      <rect class="cls-1" x="46.99" y="17.22" width="203.6" height="154.11" rx="32.87" ry="32.87"/>
    </clipPath>
  </defs>
  <g class="cls-34">
    <g id="Layer_2" data-name="Layer 2">
      <g id="Content">
        <g>
          <g class="cls-9">
            <rect class="cls-10" x="46.99" y="17.22" width="203.6" height="154.11" rx="32.87" ry="32.87"/>
            <g class="cls-32">
              <g>
                <g>
                  <g>
                    <polygon class="cls-5" points="205.43 193.16 208.31 193.76 219.34 143.27 215.3 142.44 205.43 193.16"/>
                    <polygon class="cls-5" points="241.08 193.16 238.2 193.76 227.17 143.27 231.2 142.44 241.08 193.16"/>
                    <polygon class="cls-5" points="233.09 193.16 235.97 193.76 247 143.27 242.97 142.44 233.09 193.16"/>
                    <polygon class="cls-5" points="268.74 193.16 265.86 193.76 254.83 143.27 258.86 142.44 268.74 193.16"/>
                    <g>
                      <path class="cls-8" d="m260.36,132.83c.77,4.78-3.57,9.26-9.65,9.95l-11.68,1.33c-6.08.69-11.71-3.52-12.52-9.36s-.29-15.47,1.16-21.41l3.58-14.64c1.45-5.94,7.13-11.98,12.62-13.42s11.79-2.62,14.01-2.62,3.68,4.99,3.24,11.09l-1.37,19.3c-.43,6.1-.16,15,.61,19.79Z"/>
                      <path class="cls-2" d="m260.36,132.83c.77,4.78-3.57,9.26-9.65,9.95l-11.68,1.33c-6.08.69-11.71-3.52-12.52-9.36s-.29-15.47,1.16-21.41l3.58-14.64c1.45-5.94,7.13-11.98,12.62-13.42s11.79-2.62,14.01-2.62,3.68,4.99,3.24,11.09l-1.37,19.3c-.43,6.1-.16,15,.61,19.79Z"/>
                    </g>
                    <g>
                      <path class="cls-8" d="m256.1,134.75c.81,5.84-3.53,10.61-9.64,10.61h-11.11c-6.11,0-11.78-4.78-12.59-10.61s-.43-15.51.85-21.49l4.22-19.74c1.28-5.98,7.32-10.87,13.44-10.87h5.2c6.11,0,10.76,4.99,10.33,11.09l-1.37,19.3c-.43,6.1-.12,15.87.69,21.7Z"/>
                      <path class="cls-2" d="m256.1,134.75c.81,5.84-3.53,10.61-9.64,10.61h-11.11c-6.11,0-11.78-4.78-12.59-10.61s-.43-15.51.85-21.49l4.22-19.74c1.28-5.98,7.32-10.87,13.44-10.87h5.2c6.11,0,10.76,4.99,10.33,11.09l-1.37,19.3c-.43,6.1-.12,15.87.69,21.7Z"/>
                    </g>
                    <rect class="cls-5" x="203.77" y="137.98" width="57.99" height="7.19" rx="1.14" ry="1.14"/>
                    <rect class="cls-5" x="225.04" y="137.98" width="36.72" height="7.19" rx="1.2" ry="1.2"/>
                  </g>
                  <g>
                    <path class="cls-20" d="m196.57,69.99s.37-4.86-1.02-8.04c0,0-1.64,1.33-2.5.33-.67-.78-3.96-.35-5.28,2.04-.61,1.1-.38,2.6.55,3.65,1.02,1.16,2.69,2.88,4.13,3.97l4.11-1.94Z"/>
                    <g>
                      <ellipse class="cls-20" cx="194.48" cy="62.5" rx="1.24" ry="1.23" transform="translate(-7.77 91.19) rotate(-25.89)"/>
                      <path class="cls-20" d="m192.64,60.09s.38.66.66,2.78l2.25-.99s-1.48-2.42-2.43-4.03c-.18-.3-.62-.25-.73.08h0c-.18.56-.16,1.16.06,1.7l.19.46Z"/>
                    </g>
                    <g>
                      <g>
                        <path class="cls-20" d="m184.04,61.05c-.1-.26.11-.53.39-.51h0c.58.05,1.09.4,1.34.92s.6,1.26.93,2l-1.5.73-1.16-3.14Z"/>
                        <ellipse class="cls-20" cx="185.99" cy="63.89" rx=".83" ry=".83" transform="translate(-9.23 87.62) rotate(-25.89)"/>
                      </g>
                      <g>
                        <g>
                          <ellipse class="cls-20" cx="188.51" cy="66.51" rx=".95" ry=".94" transform="translate(-10.12 88.99) rotate(-25.89)"/>
                          <path class="cls-20" d="m185.37,64.46l2.45,2.69,1.39-1.29s-1.38-1.36-2.72-2.64l-1.12,1.24Z"/>
                        </g>
                        <ellipse class="cls-20" cx="185.99" cy="63.89" rx=".83" ry=".83" transform="translate(-9.23 87.62) rotate(-25.89)"/>
                      </g>
                    </g>
                    <g>
                      <g>
                        <path class="cls-20" d="m184.86,55.7c-.11-.25.08-.53.36-.52h0c.58.02,1.1.35,1.35.87.67,1.35,1.88,3.9,2.36,4.82l-1.46.81-2.61-5.98Z"/>
                        <ellipse class="cls-20" cx="188.24" cy="61.33" rx=".83" ry=".83" transform="translate(-7.89 88.35) rotate(-25.89)"/>
                      </g>
                      <g>
                        <g>
                          <ellipse class="cls-20" cx="190.81" cy="63.91" rx=".95" ry=".94" transform="translate(-8.75 89.73) rotate(-25.89)"/>
                          <path class="cls-20" d="m187.63,61.91l2.5,2.65,1.37-1.31s-1.4-1.34-2.77-2.59l-1.1,1.26Z"/>
                        </g>
                        <ellipse class="cls-20" cx="188.24" cy="61.33" rx=".83" ry=".83" transform="translate(-7.89 88.35) rotate(-25.89)"/>
                      </g>
                    </g>
                    <g>
                      <g>
                        <path class="cls-20" d="m190.48,60.07l-1.5.73-2.13-5.68c-.1-.26.11-.53.39-.5l.22.02c.44.04.82.31,1,.71.54,1.22,1.59,3.74,2.03,4.72Z"/>
                        <ellipse class="cls-20" cx="189.76" cy="60.49" rx=".83" ry=".83" transform="translate(-7.37 88.93) rotate(-25.89)"/>
                      </g>
                      <g>
                        <g>
                          <ellipse class="cls-20" cx="192.42" cy="62.98" rx=".95" ry=".94" transform="translate(-8.19 90.34) rotate(-25.89)"/>
                          <path class="cls-20" d="m189.17,61.1l2.59,2.56,1.32-1.36s-1.45-1.29-2.85-2.49l-1.06,1.29Z"/>
                        </g>
                        <ellipse class="cls-20" cx="189.76" cy="60.49" rx=".83" ry=".83" transform="translate(-7.37 88.93) rotate(-25.89)"/>
                      </g>
                    </g>
                    <g>
                      <g>
                        <ellipse class="cls-20" cx="186.62" cy="62.14" rx=".83" ry=".83" transform="translate(-8.4 87.72) rotate(-25.89)"/>
                        <g>
                          <g>
                            <ellipse class="cls-20" cx="189.19" cy="64.71" rx=".95" ry=".94" transform="translate(-9.27 89.1) rotate(-25.89)"/>
                            <path class="cls-20" d="m186.01,62.72l2.5,2.65,1.37-1.31s-1.4-1.34-2.77-2.59l-1.1,1.26Z"/>
                          </g>
                          <ellipse class="cls-20" cx="186.62" cy="62.14" rx=".83" ry=".83" transform="translate(-8.4 87.72) rotate(-25.89)"/>
                        </g>
                      </g>
                      <path class="cls-20" d="m183.69,57.96c-.11-.24.06-.51.32-.51h0c.6,0,1.15.32,1.44.85.55.98,1.37,2.52,1.84,3.36l-1.43.86-2.17-4.55Z"/>
                    </g>
                  </g>
                  <circle class="cls-20" cx="194.88" cy="71.44" r="2.48"/>
                  <g>
                    <path class="cls-31" d="m194.67,132.09s-1.96,32.78-.77,48.46l9.79,1.35c1.65-6.56,3.48-21.28,3.82-26.43.65-9.72-.98-23.39-.98-23.39h-11.86Z"/>
                    <path class="cls-31" d="m235.66,116.52c-10.98-.25-36.88,9.06-36.88,9.06l.72,12.53c7.41,1.31,16.34.35,21.59.41,4.32.04,11.6-.35,15.16-.45l-.59-21.54Z"/>
                    <circle class="cls-31" cx="235.99" cy="127.23" r="10.77"/>
                    <circle class="cls-31" cx="200.9" cy="131.49" r="6.26"/>
                  </g>
                  <g>
                    <path class="cls-31" d="m209.87,131.95s5.14,34.52,8.16,49.96l8-.37c.87-6.71,1.6-22.01,2.05-26.62.93-9.7-5.66-22.53-5.66-22.53l-12.54-.43Z"/>
                    <path class="cls-31" d="m246.77,117.05c-9.69-.29-32.52,8.93-32.52,8.93l.68,12.53c6.55,1.34,14.42.41,19.06.48,3.82.06,8.63-.43,11.77-.52l1.01-21.42Z"/>
                    <circle class="cls-31" cx="242.09" cy="127.8" r="10.77"/>
                    <circle class="cls-31" cx="216.12" cy="131.95" r="6.26"/>
                  </g>
                  <path class="cls-20" d="m249.33,68.98l-7.9-4.57-10.68,3.38-6.94,3.47s-2.08,11.1,0,18.2c1.2,4.07,1.34,11.85,1.34,11.85h23.97c1.01-3.19,2.27-5.44,2.97-12.29.76-7.37,2.62-18.28,2.62-18.28l-5.39-1.77Z"/>
                  <circle class="cls-20" cx="237.14" cy="101.32" r="11.99"/>
                  <g>
                    <path class="cls-20" d="m243.03,69.45c0,.05,0,.1,0,.15,0,3.04-2.47,5.51-5.52,5.5-3.04,0-5.5-2.47-5.5-5.52,0-.05,0-.1,0-.16h0v-.06c.03-.46.1-.9.22-1.32.02-.06.04-.13.06-.19l.24-1.33.77-4.3.09-.51h0s8.27,0,8.27,0l.15.82.11.61.21,1.21.62,3.51c.16.48.24.98.26,1.51v.06s0,0,0,0Z"/>
                    <path class="cls-20" d="m241.68,61.72c0,2.28-1.86,4.13-4.14,4.13-2.28,0-4.13-1.85-4.13-4.14h0c0-.35.04-.68.12-1,.45-1.8,2.08-3.14,4.02-3.13,2.04,0,3.74,1.49,4.07,3.43.04.23.06.47.06.71Z"/>
                    <path class="cls-17" d="m241.93,63.15c-1.53,2.12-3.98,3.38-6.6,3.38h-2.79l.77-4.3.09-.51h0c0-.35.04-.68.12-1l8.09.3c.04.23.06.47.06.71l.15.82.11.61Z"/>
                  </g>
                  <path class="cls-20" d="m257.68,72.34s4.79,4.09,9.81,9.92c2.63,3.05,6.46,5.13,9.03,8.43l-5.35,6.04c-1.54-1.17-3.08-2.79-4.88-4.16-7.08-5.4-15.16-11.38-15.16-11.38l6.56-8.85Z"/>
                  <path class="cls-20" d="m264.31,99.68c-1.56,2.68-12.19,13.01-12.22,13.03l2.83,4.24s10.39-8.54,12.67-10.72c3.33-3.19,7.02-7.52,9.67-10.58l-6.07-4.97c-1.26.76-3.95,3.96-6.88,8.99Z"/>
                  <circle class="cls-20" cx="253.49" cy="76.05" r="5.5"/>
                  <circle class="cls-20" cx="273.36" cy="93.7" r="4.37"/>
                  <path class="cls-16" d="m253.38,110.7l4.86,4.95s17.54-15.14,19.02-19.99l-8.56-5.29c-1.26.76-15.3,20.3-15.33,20.33Z"/>
                  <path class="cls-16" d="m224.36,117.78s1.4,10.48,28.02,2.95l-.29-17.57h-27.03l-.71,14.61Z"/>
                  <path class="cls-16" d="m245.51,66.68l-10.48,2.64-4.05-1.68-7.36,3.68s-.73,11.48,0,19.29c.42,4.41,1.42,12.56,1.42,12.56h27.03s2.44-5.54,3.19-12.8c.8-7.81,1.1-19.59,1.1-19.59l-10.87-4.1Z"/>
                  <path class="cls-31" d="m227.29,47.78s-3.02,4.7,1.17,6.79l1.45,2.38,18.41-6.72c1.08-2.15-.95-7.21-1.79-7.3l-19.24,4.84Z"/>
                  <circle class="cls-16" cx="254.72" cy="77.2" r="6.73"/>
                  <g>
                    <g>
                      <path class="cls-15" d="m236.66,69.96v46.55c-.97.02-1.94.02-2.92,0v-.46s-.21-46.1-.21-46.1l1.3-1.29.1-.1h.32l.09.09,1.31,1.3Z"/>
                      <g>
                        <path class="cls-24" d="m235.67,73.14c0,.3-.24.54-.54.54s-.54-.24-.54-.54.24-.54.54-.54.54.24.54.54Z"/>
                        <path class="cls-24" d="m235.67,80.11c0,.3-.24.54-.54.54s-.54-.24-.54-.54.24-.54.54-.54.54.24.54.54Z"/>
                        <path class="cls-24" d="m235.67,87.09c0,.3-.24.54-.54.54s-.54-.24-.54-.54.24-.54.54-.54.54.24.54.54Z"/>
                        <path class="cls-24" d="m235.67,94.07c0,.3-.24.54-.54.54s-.54-.24-.54-.54.24-.54.54-.54.54.24.54.54Z"/>
                        <path class="cls-24" d="m235.67,101.05c0,.3-.24.54-.54.54s-.54-.24-.54-.54.24-.54.54-.54.54.24.54.54Z"/>
                        <path class="cls-24" d="m235.67,108.03c0,.3-.24.54-.54.54s-.54-.24-.54-.54.24-.54.54-.54.54.24.54.54Z"/>
                      </g>
                    </g>
                    <g>
                      <polygon class="cls-24" points="232.88 64.99 230.57 67.62 232.23 72.87 235.1 68.46 232.88 64.99"/>
                      <polygon class="cls-24" points="241.89 63.27 245.51 66.68 237.63 73.82 235.1 68.46 241.89 63.27"/>
                    </g>
                  </g>
                  <g>
                    <path class="cls-14" d="m230.07,49.84s-3.27-.84-2.54,2.18c.87,3.61,3.43,3.19,3.43,3.19l-.89-5.36Z"/>
                    <path class="cls-20" d="m228.96,50.2s-.41,4.21-.02,6.21c.37,1.86,4.02,6.4,5.52,7.24.62.35,1.29.17,1.98,0,3.09-.78,7.55-5.02,7.89-6.87.1-.56,2.02-6.8,2.02-6.8h0c.03-.11.49-2.36.4-3.55-.35-4.59-4.11-8.21-8.66-8.42-5.22-.23-9.52,3.97-9.52,9.18,0,.06,0,.17,0,.31,0,.16,0,.36,0,.58,0,.79.38,2.03.41,2.11Z"/>
                    <path class="cls-20" d="m246.06,49.93s3.51-.93,2.78,2.09c-.87,3.61-4.14,3.37-4.14,3.37l1.36-5.46Z"/>
                    <path class="cls-8" d="m237.72,56.88s-1.05,1.19-2.41,1.51c-.47.11-.96.11-1.43,0-1.36-.32-2.02-1.53-2.02-1.53.04.01,0,0,.04,0,0,0,1.7.04,2.91.04,1.19,0,2.93-.02,2.91-.02s-.02,0,0,0Z"/>
                    <line class="cls-3" x1="234.39" y1="47.86" x2="233.88" y2="53.67"/>
                    <path class="cls-31" d="m231.81,55.5l.99-.25c1.29-.32,2.62-.32,3.91,0l.99.25c.65.16,1.15.84,1.15,1.63,0,.99-.56,1.83-.56,1.83.19-1.52-1.16-2.05-1.16-2.05h-2.37s-2.9,0-2.9,0c0,0-.83.54-.64,2.05,0,0-.56-.84-.56-1.83,0-.79.5-1.46,1.15-1.63Z"/>
                    <path class="cls-6" d="m233.11,54.42s.93.98,1.34.98,1.36-.98,1.36-.98"/>
                    <path class="cls-31" d="m242.14,48.21c.07.02.12-.08.07-.15-.3-.37-1.01-1.12-1.86-1.29s-2.14-.09-2.78-.04c-.33.03-.59.34-.6.72,0,0,0,.01,0,.02,0,.3.17.44.32.5.11.04.22.05.34.03.47-.08,2.39-.38,2.74-.28.3.09,1.31.36,1.77.49Z"/>
                    <path class="cls-31" d="m228.54,48.09c.49-.13,1.08-.3,1.3-.36.35-.1,2.27.2,2.74.28.11.02.23.01.34-.03.15-.06.32-.2.32-.5v-.02c0-.38-.27-.69-.6-.72-.65-.06-1.95-.14-2.78.04-.51.11-.96.42-1.31.73,0,.16,0,.36,0,.58Z"/>
                    <g>
                      <ellipse class="cls-31" cx="238.93" cy="50.59" rx=".85" ry="1.21"/>
                      <path class="cls-31" d="m238.08,49.84c0-.55.45-.93.97-.97.53-.04,1.04.32,1.08.86-.28.05-.47.06-.62.09-.53.08-.67.06-1.43.02h0Z"/>
                      <ellipse class="cls-31" cx="230.97" cy="50.59" rx=".85" ry="1.21"/>
                      <path class="cls-31" d="m231.83,49.84c-.75.04-.89.06-1.43-.02-.16-.02-.34-.03-.62-.09.04-.54.55-.9,1.08-.86.52.04.97.42.97.97h0Z"/>
                    </g>
                    <path class="cls-31" d="m228.75,54.4v-.42s.41,3.98,1.98,5.4c.81.73,1.48.88,2.23.45.45-.26.92-.42,1.43-.45h.03c.5.03.99.21,1.45.47.76.43,2.53.52,4.02-.52,1.74-1.22,5.17-5.35,5.17-5.35,0,0-.73,3.78-1.03,4.49-.83,2.01-2.59,3.31-4.22,4.43-2.57,1.78-5.17,1.68-5.17,1.68,0,0-1.61-.07-3.45-2.44-1.03-1.32-1.72-2.88-2.08-4.52-.2-.92-.37-2.04-.37-3.23Z"/>
                  </g>
                  <g>
                    <path class="cls-31" d="m242.85,48.94c-.05-.18-.99-.3-1.84-.28-.85.02-1.63-.08-3.16.1,0,0-1.25.17-1.79.28-1.81.38-2.5.2-4.06-.15,0,0-.01,0-.02,0-.96-.21-1.69-.21-2.54-.23-.85-.02-1.57.17-1.61.34-.05.18-.08.79.11.89.2.11.36.05.62,1.05.26,1.01.19,1.8,1.45,2.25,1.12.39,1.84.27,2.61-.41.77-.69,1.3-2.52,1.41-2.84.04-.11.38-.15.67-.13.22.02.62.19.64.4l.03.26c.03.28.07.55.13.82.12.49.36,1.15.89,1.63.77.69,2.81.75,4.06.27,1.26-.47,1.41-1.3,1.67-2.3.26-1.01.42-.95.62-1.05.2-.11.16-.72.11-.89Zm-9.53,1.63c-.13.72-.42,1.67-1.06,2.11-.64.44-.92.46-1.64.38-1.07-.12-1.37-.76-1.55-1.44-.18-.67-.31-1.7-.11-2.15.2-.46,1.35-.55,2.25-.47.9.08.97.18,1.58.47.05.02.67.37.54,1.09Zm8.14,1.06c-.18.67-.51,1.18-1.55,1.44-1.04.26-2.48.06-3.11-.38-.64-.44-.93-1.39-1.06-2.11-.13-.72.49-1.07.54-1.09.6-.29,2.89-.4,3.79-.47.9-.08,1.32.02,1.51.47.2.46.07,1.48-.11,2.15Z"/>
                    <path class="cls-31" d="m242.3,49.03s2.86-.47,3.49-.46c.32,0,.5.16.61.31.1.14.13.31.09.48v.05c-.27.04-.51-.07-.69-.26-.04-.05-.1-.08-.18-.06-.26.05-3.43.65-3.43.65l.12-.71Z"/>
                  </g>
                  <path class="cls-31" d="m245.06,39.06c-1.28-1.97-4.15-2.06-4.18-2.06,0,0-2.37-2.27-6.74-2.21,0,0-7.81-1.28-7.14,7.19,0,0-1.58.75-1.18,4,.28,2.3,2.73,2.11,2.73,2.11,0,0,.14-.17.49-2.24.04-.21.08-.44.12-.7.04-.26.07-.52.09-.79.12-1.96,1.32-3.06,3.09-3.61,0,0,.01,0,.02,0,.31-.1.64-.18.98-.24.7-.13,1.45-.2,2.25-.23.05,0,1.06-.02,1.61-.03.07,0,.13,0,.18,0,0,0,.1,0,.27.01.7.06,2.09.36,3.16,1.14,0,0-.38,4.52,2.06,6.8h0c.95,2.29,2.94,3.49,3.26,3.58,0,0,3.28-6.08-1.06-12.74Z"/>
                  <path class="cls-31" d="m232.34,40.76c-1.77.55-2.98,1.65-3.1,3.61-.02.27-.05.53-.09.79-.04.25-.08.48-.12.7-.11-.84-.28-3.34.02-5.28.4-2.63,3.02-2.48,3.29.18Z"/>
                  <path class="cls-31" d="m240.87,41.1c-.02.12-.04.22-.08.31-1.07-.78-2.46-1.08-3.16-1.14-.17-.01-.27-.01-.27-.01-.05,0-.11,0-.18,0,1.07-1.02,2.06-.95,2.71-.7.63.24,1.06.87.97,1.54Z"/>
                  <path class="cls-16" d="m259.1,72.11s15.28,15.83,17.85,19.13l-6.32,5.89c-1.54-1.17-19.52-14.76-19.52-14.76l7.99-10.26Z"/>
                  <circle class="cls-16" cx="272.6" cy="93.7" r="5.13"/>
                  <path class="cls-20" d="m255.21,113.33l-1.2-1.13-2.41.39c-1.46-.31-2.18-1.18-2.9-1.22-.72-.04-1.9-.67-1.9-.67-.55,1.06.83,1.99.83,1.99-.1,0-.2-.02-.3-.03-.25-.02-.5-.05-.74-.07-.32-.03-.63-.07-.95-.09-.31-.03-.61-.07-.92-.09-.24-.02-.47-.04-.71-.03-.25.01-.48.09-.72.16-.3.09-1.83.82-2.09.9-.12.04-.37.12-.37.12-.09.32-.08.65.1.91.32.47,1.04.38,1.4.28.27-.08.62-.24.88-.36.22-.1.16-.15.56-.14.23,0,.46.06.7.08.5.06,1.01.12,1.51.19.11.02.23.03.34.05,0,0-2.34.68-3.07.96-.54.21-1.96,1.88-1.96,1.88-1.02,1.19.79,1.43.79,1.43-.08.11-.18.3-.17.45.02.13.11.22.19.28.15.12.33.17.5.2.32.07.66.08.98-.04.09-.03.18-.07.26-.12.08-.04.16-.09.24-.14.1-.06.2-.13.3-.2.31-.21.61-.43.89-.69.03-.03.11-.13.15-.14,0,0,1.84-.3,1.84-.3-.59.4-1.12,1.6-1.92,2.21-.12.09-.24.19-.33.32-.09.12-.19.29-.15.45.04.16.19.19.31.22.37.11.76.06,1.13-.07.19-.07.37-.16.55-.28.13-.08.25-.18.36-.29.05-.05.1-.09.15-.15,1-1.37,2.19-2.12,3.88-1.45,2.44.96,3.9-2.67,3.9-2.67l.03-3.11Z"/>
                  <circle class="cls-16" cx="225.8" cy="77.54" r="6.73"/>
                  <path class="cls-16" d="m230.81,81.41s-17.21,13.71-20.74,15.96l-5.26-6.85c1.31-1.42,16.54-18.03,16.54-18.03l9.45,8.92Z"/>
                  <path class="cls-16" d="m197.32,69.37l-6.11,3.28s9.62,21.08,13.86,23.86l7.47-6.73c-.37-1.42-15.21-20.37-15.22-20.4Z"/>
                  <circle class="cls-16" cx="208.25" cy="92.58" r="5.13"/>
                  <path class="cls-33" d="m254.33,108.94c.08.07.12.11.14.13-.03-.04-.08-.09-.14-.13Z"/>
                  <path class="cls-33" d="m248.93,108.15h-.21c.06,0,.13,0,.21,0Z"/>
                </g>
                <g>
                  <polygon class="cls-5" points="175.42 193.16 172.54 193.76 161.5 143.27 165.54 142.44 175.42 193.16"/>
                  <polygon class="cls-5" points="112.1 193.16 114.98 193.76 126.01 143.27 121.98 142.44 112.1 193.16"/>
                  <polygon class="cls-5" points="175.42 193.16 172.54 193.76 161.5 143.27 165.54 142.44 175.42 193.16"/>
                  <polygon class="cls-5" points="112.1 193.16 114.98 193.76 126.01 143.27 121.98 142.44 112.1 193.16"/>
                  <polygon class="cls-5" points="166.95 193.16 164.06 193.76 153.03 143.27 157.07 142.44 166.95 193.16"/>
                  <polygon class="cls-5" points="120.38 193.16 123.26 193.76 134.29 143.27 130.26 142.44 120.38 193.16"/>
                  <path class="cls-5" d="m160.84,106.82v-15.14c0-4.53-4.57-8.2-10.22-8.2h-15.13c-5.64,0-10.21,3.67-10.21,8.2v15.14s.23,28.13-2.27,32.56h40.1c-2.5-4.43-2.27-32.56-2.27-32.56Z"/>
                  <rect class="cls-5" x="119.09" y="137.98" width="47.94" height="7.19" rx="1.2" ry="1.2" transform="translate(286.12 283.14) rotate(-180)"/>
                  <g>
                    <g>
                      <circle class="cls-29" cx="140.57" cy="80.24" r="6.85" transform="translate(18.93 187.01) rotate(-70.99)"/>
                      <polygon class="cls-29" points="133.77 79.55 147.27 78.79 146.51 75.1 144.53 65.43 134.96 65.98 134.63 69.73 134.58 70.32 134.5 71.21 133.77 79.55"/>
                      <circle class="cls-21" cx="139.76" cy="65.71" r="4.79" transform="translate(32.11 176.44) rotate(-70.99)"/>
                      <path class="cls-26" d="m143.18,74.68l2.59-3.1-.86-4.25-10.34,2.99-.08.89-.34,3.83c1.13.65,2.45,1.17,3.73,1.48.39.1.79.14,1.19.15,1.59.01,3.07-.77,4.09-1.98Z"/>
                    </g>
                    <g>
                      <path class="cls-31" d="m145.48,51.57c-.3-1.44-.69-2.88-1.13-4.3-.33-1.08-.75-2.84-2.18-2.84-.52,0-.94.02-1.44-.19-.43-.18-.82-.44-1.28-.55-.83-.2-1.65.53-2.49.4-.33-.05-.62-.23-.95-.29-.94-.2-1.8.52-2.72.82-1.07.34-2.33.12-3.24.77-.59.42-.95,1.15-1.61,1.46-.32.15-.69.18-.99.37-.59.38-.68,1.24-1.2,1.72-.25.23-.59.36-.81.62-.27.31-.33.75-.35,1.16-.17,2.64.67,5.14,1.62,7.58,1.28,3.29,2.83,7.28,5.99,9.25,3.55,2.21,8.56.63,10.89-2.77,2.8-4.1,2.82-8.67,1.88-13.2Z"/>
                      <path class="cls-25" d="m127.02,52.91s1,2.19.91,3.48-.59,4.62.6,5.22c1.19.6.88,3.11.53,3.32,0,0-.03-.78-.87-1.37l-.81-.78s-2.86-7.7-.35-9.88Z"/>
                      <g>
                        <g>
                          <path class="cls-30" d="m129.14,61.47s-3.59-.04-2.07,2.9c1.82,3.52,4.35,2.43,4.35,2.43l-2.28-5.32Z"/>
                          <path class="cls-29" d="m128.08,62.12s.64,4.46,1.56,6.44c.85,1.83,5.79,5.6,7.54,6.09.73.2,1.38-.15,2.05-.5,3-1.59,6.54-7.11,6.42-9.12-.04-.61.36-7.55.36-7.55h0c0-.12-.09-2.57-.49-3.77-1.53-4.66-6.34-7.46-11.1-6.51-5.46,1.08-8.84,6.52-7.52,11.92.02.07.04.18.08.32.04.17.09.38.14.61.19.82.91,2,.97,2.08Z"/>
                          <path class="cls-29" d="m145.71,57.5s3.4-1.85,3.41,1.45c.01,3.96-3.43,4.54-3.43,4.54l.02-6Z"/>
                        </g>
                        <g>
                          <path class="cls-4" d="m133.39,65.35s1.25.73,1.7.62,1.25-1.34,1.25-1.34"/>
                          <g>
                            <path class="cls-25" d="m140.91,57.9c.08.02.12-.09.07-.15-.33-.36-1.1-1.09-1.98-1.22-.86-.13-2.2.03-2.87.12-.34.05-.59.38-.57.77,0,0,0,.01,0,.02.02.31.2.44.35.49.11.04.23.04.35.01.48-.11,2.44-.53,2.8-.44.32.08,1.36.3,1.85.4Z"/>
                            <ellipse class="cls-25" cx="138.37" cy="60" rx=".88" ry="1.27" transform="translate(-10.31 34.69) rotate(-13.78)"/>
                            <path class="cls-25" d="m136.79,59c.7-.71,1.96-.76,2.6.04-1,.16-1.62.23-2.6-.04h0Z"/>
                            <path class="cls-4" d="m134.77,57.51s.01,1.11.79,1.43"/>
                          </g>
                          <path class="cls-8" d="m133.51,68.63s.96.52,2.21.56c.43.01.87-.06,1.27-.21,1.17-.44,1.85-1.23,1.85-1.23-.03.01-1.6.05-2.68.22-1.06.17-2.63.66-2.65.66Z"/>
                          <g>
                            <path class="cls-31" d="m131.36,58.39c-.16-.36-.53-.55-.86-.44-.64.21-1.9.66-2.62,1.17-.33.23-.58.56-.78.9,0,.01,0,.02,0,.03.05.22.14.46.24.7.36-.29.74-.59.9-.72.29-.24,2.23-.73,2.71-.85.12-.03.22-.08.31-.17.12-.12.22-.31.1-.6,0,0,0-.01,0-.02Z"/>
                            <ellipse class="cls-25" cx="129.98" cy="61.95" rx=".88" ry="1.27" transform="translate(-10.38 29.83) rotate(-12.59)"/>
                            <path class="cls-25" d="m130.96,60.35c-.76.68-1.35.9-2.31,1.2.22-1,1.38-1.52,2.31-1.2h0Z"/>
                          </g>
                          <path class="cls-4" d="m132.16,58.19s.29,1.07-.38,1.59"/>
                        </g>
                      </g>
                      <path class="cls-31" d="m142.38,47.28s-1.15,1.27-.05,3.6c1.1,2.32,2.07,2.69,2.14,4.05.07,1.36-.19,3.65.92,4.45,0,0-.05-1.32.58-1.92.52-.49.39-8.3-3.59-10.17Z"/>
                      <path class="cls-31" d="m143.28,52.05c.57.5,1.23.63,1.34-.22.14-1.05-.69-2.86-1.57-3.74-1.45-1.51-3.46-2.44-5.45-2.76-2.77-.47-6.18-.11-8.39,1.16-1.73.96-2.88,2.62-3.43,4.33-.18.51-.6,1.46-.53,1.97.11.68,1.02,1.07,1.55.77.65-.37.99-1.48,1.78-1.4.16.02.3.09.46.12,1.02.2,1.66-1.54,2.8-1.4.37.05.7.31,1.07.31.57,0,.93-.63,1.51-.77.62-.15,1.26.3,1.89.32,1,.03,1.9-1.03,2.9-.53.42.21.7.66,1.12.83.34.13.68.06,1.03.06.83,0,1.29.42,1.89.95,0,0,0,0,.01,0Z"/>
                    </g>
                  </g>
                  <polygon class="cls-31" points="161.95 133.66 129.1 133.66 129.1 118.11 160.28 118.05 161.95 133.66"/>
                  <path class="cls-31" d="m161.26,129.09l-11.8-1.82c-.29-.04-.48-.3-.41-.56h0c.09-.32-.22-.61-.58-.56l-3.02.47c-.06,0-.12,0-.17,0l-3.02-.47c-.36-.06-.67.24-.58.56h0c.07.26-.12.51-.41.56l-11.8,1.82c-.3.05-.49.31-.4.57l3.04,9.36c.08.24.37,2.07.64,2l4.97-1.35c4.98-1.36,10.31-1.36,15.29,0l4.97,1.35c.27.07.56-1.76.64-2l3.04-9.36c.08-.26-.1-.53-.4-.57Z"/>
                  <g>
                    <path class="cls-29" d="m145.61,75.19l-5.53,4.47-5.72-2.48-13.66,9.11s4.63.16,7.52,7.4c1.66,4.14,2.19,2.05,3.56,5.29l24.13-2.29c.74-3.44,1.65-1.49,2.5-5.87,1.48-7.65,4.48-11.34,4.48-11.34l-17.28-4.29Z"/>
                    <path class="cls-13" d="m162.65,120.66c.61,1.77-9.08,4.17-16.35,4.58-7.22.41-18.01-1.63-17.91-3.54.21-4.09-.38-15.26-.39-16.3,0-.45-3.36-12.29-3.36-12.29-.08-1.11,2.83-1.58,2.57-2.71-.49-2.09-1.94-.94-2.69-2.77-1.25-3.03-6.04-.63-6.04-.63l12.88-9,.33-.19c.27-.16.29-.09.56.08l6.94,4.16c1.09.8,2.6.67,3.53-.31l6.46-6.28c.14-.13.31-.2.49-.22.13-.01.26,0,.38.05l.4.15,12.25,3.73s-2.12.09-2.86,3.64c-.41,1.94-.91,2.43-.99,4.61-.05,1.15,0,1.07.14,2.17,0,0,1.28,24.03,3.69,31.04Z"/>
                  </g>
                  <g>
                    <g>
                      <path class="cls-29" d="m166.59,83.67s3.79,24.73,4.87,28.51c.69,2.44-1.14,5.42-3.99,5.65,0,0-3.66.52-4.87-3.56-.58-1.93-7.09-27.09-7.09-27.09l11.07-3.52Z"/>
                      <circle class="cls-23" cx="161.19" cy="85.48" r="5.72" transform="translate(-21.19 80.31) rotate(-26.31)"/>
                    </g>
                    <g>
                      <path class="cls-13" d="m170.55,99.92c0-.09-.02-.17-.03-.26-.71-8.95-2.61-15.99-2.61-15.99l-12.4,3.68s2.14,9.83,4.04,16.92l10.99-4.35Z"/>
                      <circle class="cls-13" cx="161.69" cy="85.65" r="6.53" transform="translate(-21.06 76.55) rotate(-25.06)"/>
                    </g>
                  </g>
                  <g>
                    <g>
                      <path class="cls-27" d="m116.66,92.62s4.44,20.74,4.92,24.65c.31,2.51,3.33,4.55,6.05,3.65,0,0,3.57-.94,3.11-5.17-.22-2-1.3-4.13-1.56-6.47-1.04-9.21-1.1-17.79-1.1-17.79l-11.41,1.13Z"/>
                      <circle class="cls-23" cx="122.34" cy="92.18" r="5.72" transform="translate(27.25 212.28) rotate(-88.63)"/>
                    </g>
                    <g>
                      <path class="cls-13" d="m118.92,108.82c-.03-.08-3.48-15.69-3.48-15.69l12.56-1.29s.81,7.69,1.82,14.95l-10.89,2.03Z"/>
                      <circle class="cls-13" cx="121.95" cy="92.53" r="6.53" transform="translate(27.18 212.75) rotate(-88.94)"/>
                    </g>
                  </g>
                  <g>
                    <g>
                      <g>
                        <path class="cls-29" d="m157.64,123.52s.93,4.74,1.26,10.5c.15,2.56-.41,6.14-.41,8.23,0,6.13,1.76,10.71,2.08,14.61.42,5.08.87,9.9.13,16.04-.23,1.93-.49,3.33,1.9,4.66,1.04.56,4.12.25,4.57-2.52,0-.01-.13-8.02.41-13.73.63-6.63,2.42-13.83,2.8-18.37.56-6.71-2.68-19.42-2.68-19.42h-10.08Z"/>
                        <circle class="cls-21" cx="163.87" cy="174.47" r="3.34"/>
                      </g>
                      <g>
                        <circle class="cls-31" cx="162.92" cy="125.44" r="6.08"/>
                        <path class="cls-31" d="m168.72,172.6h-8.94s-3.14-26.11-2.95-31.28c.2-5.23,0-15.6,0-15.6h12.17s2.08,10.7,2.2,15.8c.18,7.95-2.48,31.08-2.48,31.08Z"/>
                      </g>
                    </g>
                    <g>
                      <g>
                        <path class="cls-29" d="m132.95,123.52s-.93,4.74-1.26,10.5c-.15,2.56.41,6.14.41,8.23,0,6.13-1.76,10.71-2.08,14.61-.42,5.08-.87,9.9-.13,16.04.23,1.93.49,3.33-1.9,4.66-1.04.56-4.12.25-4.57-2.52,0-.01.13-8.02-.41-13.73-.63-6.63-2.42-13.83-2.8-18.37-.56-6.71,2.68-19.42,2.68-19.42h10.08Z"/>
                        <circle class="cls-21" cx="126.71" cy="174.47" r="3.34"/>
                      </g>
                      <g>
                        <circle class="cls-31" cx="127.67" cy="125.44" r="6.08"/>
                        <path class="cls-31" d="m121.87,172.6h8.94s3.14-26.11,2.95-31.28c-.2-5.23,0-15.6,0-15.6h-12.17s-2.08,10.7-2.2,15.8c-.18,7.95,2.48,31.08,2.48,31.08Z"/>
                      </g>
                    </g>
                  </g>
                  <g>
                    <g>
                      <g>
                        <path class="cls-29" d="m171.8,102.36c2.61-1.9,9.18-8.08,9.21-8.12l4.49,3.37s-12.7,15.91-15.6,18.97l-6.69-6.15c.65-1.39,3.68-4.51,8.59-8.08Z"/>
                        <circle class="cls-29" cx="166.79" cy="113.22" r="4.55" transform="translate(23.7 255.21) rotate(-78.95)"/>
                        <g id="Layer_2-2" data-name="Layer 2">
                          <g id="Scene1_2" data-name="Scene1 2">
                            <g id="Hand">
                              <circle class="cls-29" cx="182.66" cy="96.44" r="2.72" transform="translate(53.17 257.37) rotate(-79.01)"/>
                            </g>
                          </g>
                        </g>
                        <g>
                          <path class="cls-29" d="m181.49,95.12l4.75-6.52c1.89-.5,3.2-1.9,3.8-4.42-1.25-2.23-3.22-3.63-1.8-4.81,1.63.89,3.63,2.8,4.63,5.1l-1.23,6.71c-1.82,2.56-4.03,4.82-6.2,6.49l-3.96-2.54Z"/>
                          <path class="cls-29" d="m186.35,88.66c-.42-1.56.31-1.64,1.04-3.51,1.06-2.71-.74-3.54-1.33-3.08-.6.46-2.14,4.54-2.14,4.54-.96,2.81-3.09,5.07-2.43,8.5,2.12-.66,3.15-3.84,4.86-6.45Z"/>
                        </g>
                      </g>
                      <path class="cls-29" d="m186.35,88.66c-.42-1.56.31-1.64,1.04-3.51,1.06-2.71-.74-3.54-1.33-3.08-.6.46-2.14,4.54-2.14,4.54-.96,2.81-3.47,4.95-2.81,8.38,2.12-.66,3.54-3.73,5.25-6.34Z"/>
                      <path class="cls-27" d="m181.49,95.12l4.75-6.52c1.89-.5,3.2-1.9,3.8-4.42-1.25-2.23-3.22-3.63-1.8-4.81,1.63.89,3.63,2.8,4.63,5.1l-1.23,6.71c-1.82,2.56-4.03,4.82-6.2,6.49l-3.96-2.54Z"/>
                      <g>
                        <path class="cls-27" d="m189.47,85.96c-1.03-1.95-3.97-2.52-2.15-4.46,1.64.88,3.48,2.55,4.5,4.84l-2.35-.38Z"/>
                        <path class="cls-27" d="m189.77,84.88c-.88-2.02-4.26-3.11-2.3-4.91,1.57,1,3.76,3.1,4.61,5.46l-2.31-.55Z"/>
                      </g>
                      <path class="cls-29" d="m189.1,86.55c-1.1-1.33-2.68-1.73-2-3.43,1.4.41,2.61,1.26,3.75,2.85l-1.76.58Z"/>
                      <path class="cls-26" d="m187.27,83.17c1.53.51,2.96,1.43,3.97,2.72-.36,1.04-.8,2.05-1.3,3.05.11-1.04.28-2.07.52-3.08l.06.33c-.84-1.17-1.98-2.18-3.26-3.01h0Z"/>
                      <path class="cls-29" d="m189.12,85.73c-.05.06-2.16,3.77-2.16,3.77l2.24.32s1.24-3.51,1.11-3.56-1.26-.73-1.29-.66"/>
                      <path class="cls-26" d="m191.93,84.44c-.84-1.13-1.85-1.85-2.62-3.04,0,0,.06-.07.06-.07,1.28.5,2.48,1.7,2.57,3.12h0Z"/>
                      <path class="cls-26" d="m191.37,85.26c-.81-.99-1.72-1.58-2.45-2.65,0,0,.05-.08.05-.08,1.2.34,2.34,1.43,2.4,2.72h0Z"/>
                      <path class="cls-26" d="m186.29,88.58c-1.01.58-1.88.93-2.84,1.52.43-1.01,1.74-1.99,2.84-1.52h0Z"/>
                    </g>
                    <g>
                      <path class="cls-22" d="m184.39,99.63s-3.52-1.83-4.84-4.27l-1.98,1.75s1.72,3.16,5.31,4.63l1.52-2.11Z"/>
                      <path class="cls-22" d="m182.5,101.59l1.81-2.25c.32-.4.91-.49,1.31-.21h0c.4.28.47.84.15,1.23l-1.81,2.25c-.32.4-.91.49-1.31.21h0c-.4-.28-.47-.84-.15-1.23Z"/>
                    </g>
                  </g>
                  <g>
                    <g>
                      <path class="cls-27" d="m137.31,112.43c2.12-2.43,8.2-7.32,8.24-7.34l-3.73-4.44s-15.55,9.8-18.86,12.42l5.54,7.21c1.44-.53,4.82-3.27,8.8-7.84Z"/>
                      <circle class="cls-29" cx="126.05" cy="116.46" r="4.55" transform="translate(-21.41 204.26) rotate(-73.51)"/>
                      <g id="Layer_2-3" data-name="Layer 2">
                        <g id="Scene1_2-2" data-name="Scene1 2">
                          <g id="Hand-2" data-name="Hand">
                            <circle class="cls-29" cx="143.77" cy="102.73" r="2.66" transform="translate(4.57 211.58) rotate(-73.57)"/>
                          </g>
                        </g>
                      </g>
                    </g>
                    <g>
                      <g>
                        <path class="cls-29" d="m144.88,105.61c2.49-1.91,2.75-1.66,3.61-1.9,2.64-.76,5.02-2.82,5.02-2.82l5.02-3.71c.3-.27.36-.72.15-1.06-.24-.4-.76-.52-1.16-.28l-4.54,2.92,6.11-4.61c.35-.31.42-.83.15-1.21h0c-.28-.39-.81-.5-1.22-.25l-6.16,4.27,6.55-5.23c.41-.28.51-.84.23-1.24-.28-.4-.83-.51-1.24-.23-.77.45-5.86,4.2-6.64,4.65.93-.66,4.59-3.54,5.14-4.27.2-.3.65-.83.21-1.33-.35-.4-.87-.19-1.45.2-1.17.96-3.97,2.9-4.52,3.29l-2.11,1.51v-.03c.21-.76,1.11-1.82,1.11-1.82,0,0,1.12-1.03.91-2.2-.1-.58-.4-.73-.67-.74-.28,0-.54.18-.64.44l-.17.42c-.15.33-.39.62-.68.84-1.08.82-1.94,1.85-3.03,3.38-1.57,2.21-1.26,3.6-1.55,4.25-.45,1.03-.37,1-1.76,1.91l3.32,4.83Z"/>
                        <line class="cls-29" x1="146.03" y1="95.8" x2="148.03" y2="94.28"/>
                        <path class="cls-29" d="m148.04,94.29c-.74.4-1.41.92-2,1.52.89-.47,2-1.52,2-1.52Z"/>
                      </g>
                      <g id="Layer_2-4" data-name="Layer 2">
                        <g id="Scene1_2-3" data-name="Scene1 2">
                          <g id="Hand-3" data-name="Hand">
                            <circle class="cls-29" cx="143.27" cy="103.16" r="2.94" transform="translate(3.74 211.33) rotate(-73.54)"/>
                          </g>
                        </g>
                      </g>
                    </g>
                  </g>
                </g>
                <g>
                  <path class="cls-20" d="m66.91,54.74s-.05-.09-.06-.13c-.11-.21-.16-.43-.15-.68,0-.24.04-.47.15-.68.07-.22.19-.41.36-.57.12-.12.26-.21.4-.31.01-.42.02-.86.03-1.33.03-1.56-.06-2.93-.27-4.11-1.05-6.12-5.11-7.39-10.39-7.5-6.3-.13-10.19,2.92-10.36,11.18-.04,1.77-.32,5.74,4.08,7.68,1.02.44,2.22.79,3.62.95,1.03.13,2.17.17,3.43.11,1.02-.05,2.13-.17,3.33-.38,4.88.66,6.02,1.35,6.39-2.93-.3-.33-.57-.67-.7-1.04.06-.09.1-.19.15-.28Z"/>
                  <g>
                    <polygon class="cls-5" points="91.39 193.16 88.51 193.76 77.48 143.27 81.51 142.44 91.39 193.16"/>
                    <polygon class="cls-5" points="55.74 193.16 58.62 193.76 69.65 143.27 65.62 142.44 55.74 193.16"/>
                    <polygon class="cls-5" points="63.73 193.16 60.85 193.76 49.81 143.27 53.85 142.44 63.73 193.16"/>
                    <polygon class="cls-5" points="28.07 193.16 30.96 193.76 41.99 143.27 37.95 142.44 28.07 193.16"/>
                    <g>
                      <path class="cls-8" d="m36.46,132.83c-.77,4.78,3.57,9.26,9.65,9.95l11.68,1.33c6.08.69,11.71-3.52,12.52-9.36s.29-15.47-1.16-21.41l-3.58-14.64c-1.45-5.94-5.13-11.98-8.18-13.42s-9.35-2.62-14.01-2.62-8.12,4.99-7.68,11.09l1.37,19.3c.43,6.1.16,15-.61,19.79Z"/>
                      <path class="cls-2" d="m36.46,132.83c-.77,4.78,3.57,9.26,9.65,9.95l11.68,1.33c6.08.69,11.71-3.52,12.52-9.36s.29-15.47-1.16-21.41l-3.58-14.64c-1.45-5.94-5.13-11.98-8.18-13.42s-9.35-2.62-14.01-2.62-8.12,4.99-7.68,11.09l1.37,19.3c.43,6.1.16,15-.61,19.79Z"/>
                    </g>
                    <g>
                      <path class="cls-8" d="m40.71,134.75c-.81,5.84,3.53,10.61,9.64,10.61h11.11c6.11,0,11.78-4.78,12.59-10.61s.43-15.51-.85-21.49l-4.22-19.74c-1.28-5.98-7.32-10.87-13.44-10.87h-5.2c-6.11,0-10.76,4.99-10.33,11.09l1.37,19.3c.43,6.1.12,15.87-.69,21.7Z"/>
                      <path class="cls-2" d="m40.71,134.75c-.81,5.84,3.53,10.61,9.64,10.61h11.11c6.11,0,11.78-4.78,12.59-10.61s.43-15.51-.85-21.49l-4.22-19.74c-1.28-5.98-7.32-10.87-13.44-10.87h-5.2c-6.11,0-10.76,4.99-10.33,11.09l1.37,19.3c.43,6.1.12,15.87-.69,21.7Z"/>
                    </g>
                    <rect class="cls-5" x="35.06" y="137.98" width="57.99" height="7.19" rx="1.14" ry="1.14" transform="translate(128.11 283.14) rotate(180)"/>
                    <rect class="cls-5" x="35.06" y="137.98" width="36.72" height="7.19" rx="1.2" ry="1.2" transform="translate(106.84 283.14) rotate(-180)"/>
                  </g>
                  <g>
                    <path class="cls-31" d="m104.06,132.09s1.96,32.78.77,48.46l-9.79,1.35c-1.65-6.56-3.48-21.28-3.82-26.43-.65-9.72.98-23.39.98-23.39h11.86Z"/>
                    <path class="cls-31" d="m63.06,116.52c10.98-.25,36.88,9.06,36.88,9.06l-.72,12.53c-7.41,1.31-16.34.35-21.59.41-4.32.04-11.6-.35-15.16-.45l.59-21.54Z"/>
                    <circle class="cls-31" cx="62.73" cy="127.23" r="10.77"/>
                    <circle class="cls-31" cx="97.82" cy="131.49" r="6.26"/>
                  </g>
                  <g>
                    <path class="cls-31" d="m88.85,131.95s-5.14,34.52-8.16,49.96l-8-.37c-.87-6.71-1.6-22.01-2.05-26.62-.93-9.7,5.66-22.53,5.66-22.53l12.54-.43Z"/>
                    <path class="cls-31" d="m51.96,117.05c9.69-.29,32.52,8.93,32.52,8.93l-.68,12.53c-6.55,1.34-14.42.41-19.06.48-3.82.06-8.63-.43-11.77-.52l-1.01-21.42Z"/>
                    <circle class="cls-31" cx="56.63" cy="127.8" r="10.77"/>
                    <circle class="cls-31" cx="82.6" cy="131.95" r="6.26"/>
                  </g>
                  <g>
                    <g>
                      <g>
                        <g>
                          <path class="cls-20" d="m94.31,90.97l2.24-4.53c.49-.98.93-1.99,1.3-3.02.61-1.69,1.13-3.42,1.56-5.17l2.68-11.3-4.36-1.38s-.94,3.23-2.79,6.61c-3.07,5.63-7.59,13.44-7.04,16.36l6.4,2.42Z"/>
                          <g>
                            <path class="cls-20" d="m97.68,65.74s-.93-4.84.11-8.19c0,0,1.8,1.14,2.55.05.59-.86,3.93-.8,5.53,1.44.74,1.04.67,2.57-.14,3.73-.9,1.28-2.37,3.2-3.7,4.45l-4.35-1.48Z"/>
                            <g>
                              <ellipse class="cls-20" cx="98.93" cy="57.99" rx="1.24" ry="1.25" transform="translate(11.36 132.04) rotate(-70.59)"/>
                              <path class="cls-20" d="m100.5,55.36s-.3.71-.34,2.87l-2.37-.74s1.21-2.6,1.98-4.32c.14-.32.6-.32.74,0h0c.25.54.29,1.15.13,1.71l-.14.48Z"/>
                            </g>
                            <g>
                              <g>
                                <path class="cls-20" d="m109.25,55.35c.07-.27-.18-.52-.45-.47h0c-.58.12-1.05.53-1.24,1.08s-.46,1.33-.7,2.11l1.59.56.81-3.28Z"/>
                                <ellipse class="cls-20" cx="107.62" cy="58.42" rx=".84" ry=".84" transform="translate(16.76 140.51) rotate(-70.59)"/>
                              </g>
                              <g>
                                <g>
                                  <ellipse class="cls-20" cx="105.38" cy="61.34" rx=".95" ry=".96" transform="translate(12.51 140.35) rotate(-70.59)"/>
                                  <path class="cls-20" d="m108.3,58.93l-2.15,2.98-1.54-1.14s1.23-1.52,2.43-2.96l1.27,1.11Z"/>
                                </g>
                                <ellipse class="cls-20" cx="107.62" cy="58.42" rx=".84" ry=".84" transform="translate(16.76 140.51) rotate(-70.59)"/>
                              </g>
                            </g>
                            <g>
                              <g>
                                <path class="cls-20" d="m107.81,50.07c.08-.27-.14-.53-.42-.48h0c-.58.09-1.06.48-1.26,1.03-.52,1.43-1.45,4.13-1.82,5.11l1.56.64,1.94-6.29Z"/>
                                <ellipse class="cls-20" cx="105.06" cy="56.11" rx=".84" ry=".84" transform="translate(17.23 136.56) rotate(-70.59)"/>
                              </g>
                              <g>
                                <g>
                                  <ellipse class="cls-20" cx="102.77" cy="58.99" rx=".95" ry=".96" transform="translate(12.99 136.32) rotate(-70.59)"/>
                                  <path class="cls-20" d="m105.74,56.63l-2.21,2.94-1.52-1.16s1.26-1.5,2.48-2.91l1.25,1.14Z"/>
                                </g>
                                <ellipse class="cls-20" cx="105.06" cy="56.11" rx=".84" ry=".84" transform="translate(17.23 136.56) rotate(-70.59)"/>
                              </g>
                            </g>
                            <g>
                              <g>
                                <path class="cls-20" d="m102.67,55.09l1.59.56,1.49-5.95c.07-.27-.17-.52-.44-.46l-.22.04c-.44.09-.79.41-.92.83-.41,1.29-1.17,3.94-1.5,4.97Z"/>
                                <ellipse class="cls-20" cx="103.44" cy="55.44" rx=".84" ry=".84" transform="translate(16.78 134.58) rotate(-70.59)"/>
                              </g>
                              <g>
                                <g>
                                  <ellipse class="cls-20" cx="101.05" cy="58.24" rx=".95" ry=".96" transform="translate(12.54 134.2) rotate(-70.59)"/>
                                  <path class="cls-20" d="m104.1,55.98l-2.31,2.86-1.48-1.22s1.31-1.46,2.58-2.83l1.21,1.18Z"/>
                                </g>
                                <ellipse class="cls-20" cx="103.44" cy="55.44" rx=".84" ry=".84" transform="translate(16.78 134.58) rotate(-70.59)"/>
                              </g>
                            </g>
                            <g>
                              <g>
                                <ellipse class="cls-20" cx="106.79" cy="56.74" rx=".84" ry=".84" transform="translate(17.79 138.6) rotate(-70.59)"/>
                                <g>
                                  <g>
                                    <ellipse class="cls-20" cx="104.49" cy="59.61" rx=".95" ry=".96" transform="translate(13.55 138.36) rotate(-70.59)"/>
                                    <path class="cls-20" d="m107.46,57.25l-2.21,2.94-1.52-1.16s1.26-1.5,2.48-2.91l1.25,1.14Z"/>
                                  </g>
                                  <ellipse class="cls-20" cx="106.79" cy="56.74" rx=".84" ry=".84" transform="translate(17.79 138.6) rotate(-70.59)"/>
                                </g>
                              </g>
                              <path class="cls-20" d="m109.25,52.2c.09-.25-.12-.5-.38-.47h0c-.6.07-1.12.46-1.35,1.01-.44,1.04-1.09,2.68-1.46,3.58l1.54.7,1.66-4.81Z"/>
                            </g>
                          </g>
                        </g>
                        <circle class="cls-20" cx="91.17" cy="89.62" r="3.43" transform="translate(-35.24 108.7) rotate(-53.09)"/>
                      </g>
                      <g>
                        <path class="cls-20" d="m63.13,83.93s10.41,4.01,26.46,9.01l2.12-6.53c-13.79-5.54-25.1-11.43-25.1-11.43l-3.48,8.95Z"/>
                        <circle class="cls-20" cx="64.86" cy="79.46" r="4.8" transform="translate(-37.67 76.81) rotate(-49.29)"/>
                        <ellipse class="cls-20" cx="90.8" cy="89.72" rx="3.44" ry="3.43" transform="translate(-36.29 101.65) rotate(-50.02)"/>
                      </g>
                    </g>
                    <path class="cls-24" d="m82.7,81.75c-7.16-3.17-12.75-5.95-14.84-7.01-.29-.18-.59-.34-.92-.47l-.76-.39-.05.14c-.24-.06-.49-.1-.74-.12-2.48-.24-4.84,1.22-5.74,3.54-1.02,2.62.08,5.56,2.47,6.9l-.02.06.74.29c.09.03,6.72,4.65,18.3,8.43l1.56-11.36Z"/>
                  </g>
                  <path class="cls-20" d="m70.68,98.42c-.46,1.06-.89,1.66-.89,1.76l-17.17-1.3c-3.1-7.88-4.46-21.07.97-30.23h9.7c3.45,2.14,11.92,23.22,7.39,29.77Z"/>
                  <ellipse class="cls-18" cx="66.28" cy="91.09" rx="7.52" ry="8.58" transform="translate(-29.49 31.78) rotate(-22.19)"/>
                  <g>
                    <circle class="cls-20" cx="58.66" cy="72.21" r="5.3"/>
                    <polygon class="cls-20" points="63.85 71.15 53.39 71.61 53.39 71.61 54.14 64.39 54.27 63.07 54.46 61.17 54.47 61.09 61.88 60.78 61.89 60.78 63.03 66.81 63.26 68.01 63.8 70.88 63.8 70.91 63.82 70.97 63.85 71.15"/>
                  </g>
                  <path class="cls-12" d="m63.26,68.01h-.49c-.29.01-.58.01-.87,0-1.39-.08-2.73-.45-4-1.05-.7-.32-1.37-.72-2.01-1.16-.62-.42-1.2-.9-1.75-1.4l.14-1.32.19-1.91v-.08s7.41-.31,7.41-.31h.01l1.14,6.02.23,1.2Z"/>
                  <path class="cls-20" d="m68.43,57.99c-1.85.77-1.01,1.21-.95,1.69.03.19-.08.39-.56.62-.01.06-.03.12-.03.19-.03.11-.05.23-.07.34-.06.38-.14.75-.29,1.09-.08.2-.2.39-.36.56-.17.68-.31,1.44-.51,2.14-.32,1.08-1.36,1.22-2.33,1.11-1.63-.18-3.26-.37-4.84-.8-1.71-.47-3.17-1.27-4.52-2.41-.66-.56-2.33-1.62-2.33-2.59.04-.23-.4.07-.38-.15.08-.53.12-1.06.07-1.57-.07-.64-.3-1.25-.86-1.82-4.62-5.14.25-15.71,6.87-16.22,3.97-.7,8.18.73,9.66,4.51.75,1.92,1.31,6.09.7,8.1-.1.33-.25.77-.39,1.09-.27.61-.18,1.32.28,1.81.76.81,1.71,1.54.84,2.32Z"/>
                  <path class="cls-11" d="m66.73,60.3c.26.11.51,1.1-.15,1.59-.27.2-2.47-.92-2.94-1.67h0s0,0,0,0h.02s0,0,0,0c0,0,2.64.04,3.08.09Z"/>
                  <path class="cls-28" d="m67.55,59.93l-.45.72c-.07.11-.18.17-.31.18-.52.02-1.97,0-3.16-.61h0s0,0,.01,0h0c.19-.03,3.62-.53,3.84-.54.04,0,.1.18.06.25Z"/>
                  <ellipse class="cls-31" cx="64.16" cy="53.87" rx=".57" ry="1.13" transform="translate(-2.28 2.84) rotate(-2.49)"/>
                  <path class="cls-31" d="m64.82,52.99c-.98.39-.8.22-1.83.29-.27-1.14,1.64-1.39,1.83-.29h0Z"/>
                  <path class="cls-31" d="m68.29,53.34c-1.03.22-.83.08-1.85-.02-.08-1.17,1.85-1.1,1.85.02h0Z"/>
                  <path class="cls-31" d="m67.03,52.74c-.26.01-.46.37-.51.84,0,0,.01,0,.02,0,.09.05.16.11.21.19.07.07.11.16.14.26.04.13.07.26.11.39.02.06.04.12.07.18.01.03.02.06.04.08,0,.01.03.02.03.03.03.06.05.12.08.18,0,.02,0,.04.01.06.26-.11.44-.57.42-1.13-.03-.62-.3-1.12-.61-1.1Z"/>
                  <path class="cls-31" d="m61.27,51.35c-.07,0-.09-.1-.03-.15.33-.28,1.07-.82,1.82-.81s1.81.33,2.33.5c.27.09.43.42.35.77,0,0,0,.01,0,.02-.06.27-.23.36-.37.39-.1.02-.2,0-.29-.04-.38-.16-1.92-.81-2.23-.78-.27.02-1.17.08-1.58.1Z"/>
                  <path class="cls-31" d="m69.2,52.67s.08-.07.06-.13c-.12-.36-.42-1.1-.87-1.32s-1.16-.24-1.53-.23c-.19,0-.37.27-.41.62,0,0,0,.01,0,.02-.04.28.04.41.12.48.05.05.12.06.18.05.27-.04,1.36-.18,1.54-.06.16.1.67.43.91.58Z"/>
                  <path class="cls-7" d="m66.34,57.36s-.49.56.14.92"/>
                  <path class="cls-16" d="m70.83,83.76c-.18-.59-.38-1.19-.59-1.81-1.32-3.89-2.92-7.51-4.13-9.96.02.03-1.51-.13-1.61-.15-.93-.2-1.84-.49-2.76-.76-3.03-.91-5.42-2.64-7.85-4.62-.21.36-.41.72-.6,1.09-.09.16-.37.51-.37.7-5.77,9.75-4.71,23.36-1.94,30.64-.55,4.58-2.45,17.75-3.96,21.67,5.59,2.56,17.46-1.21,27.5-1.21.1-.37-1.4-11.37-2.23-21.23,2.42-2.42,3.21-6.45,1.69-10.17-.7-1.72-1.81-3.15-3.15-4.19Z"/>
                  <g>
                    <g>
                      <g>
                        <path class="cls-20" d="m67.55,99.35l4.85-1.44c1.05-.32,2.12-.58,3.2-.77,1.77-.31,3.56-.53,5.36-.65l11.63-.74.89,4.19s-3.67.74-7.31,1.98c-6.07,2.07-15.44,5.03-18.6,4.1l-.02-6.67Z"/>
                        <circle class="cls-18" cx="68.36" cy="102.68" r="3.43" transform="translate(-50.74 70.58) rotate(-41.26)"/>
                      </g>
                      <g>
                        <path class="cls-20" d="m53.75,78.59s4.21,10.33,11.57,25.44l6.21-2.93c-5.41-13.84-8.88-26.11-8.88-26.11l-8.9,3.6Z"/>
                        <circle class="cls-18" cx="58.2" cy="76.79" r="4.8" transform="translate(-3.23 2.56) rotate(-2.45)"/>
                        <ellipse class="cls-20" cx="68.5" cy="102.7" rx="3.44" ry="3.43" transform="translate(-5.8 4.12) rotate(-3.3)"/>
                      </g>
                    </g>
                    <path class="cls-24" d="m63.69,75.74c-.07-.35-.17-.7-.31-1.05-1.03-2.55-3.82-3.99-6.5-3.34-.27.06-.53.15-.79.25-2.86,1.16-4.24,4.42-3.09,7.28,0,0,0,0,0,0h0c.03.08,5.64,17.83,5.64,17.83l11.88-5.56s-6.13-13.01-6.84-15.43Z"/>
                  </g>
                  <circle class="cls-20" cx="93.04" cy="97.84" r="2.15"/>
                  <g>
                    <path class="cls-20" d="m100.38,98.87c.4-1.32-.72-3.11.95-3.18.34,1.11.49,2.91-.07,4.37l-.88-1.2Z"/>
                    <path class="cls-20" d="m101.5,98.25c.65-1.64-.53-3.73,1.6-3.63.32,1.46.26,3.44-.61,5.26l-.99-1.63Z"/>
                    <path class="cls-20" d="m102.4,97.48c.77-1.59-.32-4.21,1.79-3.95.21,1.48.07,3.9-.93,5.65l-.87-1.69Z"/>
                    <path class="cls-20" d="m92.17,96.31l6.46.22c1.17,1.04,2.68,1.29,4.63.59.94-1.82,1-3.76,2.42-3.33.13,1.49-.26,3.66-1.36,5.35l-5.03,2.15c-2.51-.08-5-.57-7.07-1.28l-.05-3.7Z"/>
                    <path class="cls-20" d="m104.32,99.14s-.93.42-2.1.71c-1.17.29-2.13.49-2.14.45-.01-.04.93-.32,2.1-.61,1.17-.29,2.13-.6,2.14-.55Z"/>
                    <path class="cls-20" d="m98.63,96.71c.86-.97,1.24-.52,2.8-.85,2.28-.49,2.04-2.06,1.47-2.25-.57-.2-3.98.58-3.98.58-2.3.6-4.75.18-6.75,2.14,1.38,1.12,3.96.41,6.46.39Z"/>
                  </g>
                  <polygon class="cls-19" points="62.67 51.71 65.37 52.06 65.22 55.94 63 56.16 62.67 51.71"/>
                  <polygon class="cls-19" points="66.95 52.32 68.78 52.63 68.68 55.97 67.17 56.16 66.95 52.32"/>
                  <path class="cls-31" d="m36.96,68.75s1.77,4.67,6.19,4.93c4.42.25,8.59-7.71,3.73-15.85-4.87-8.15-.78-12.51-.78-12.51,0,0-2.44-1.18-5.61.95-3.17,2.13-3.91,8.51-1.07,13.08,2.84,4.57,4.12,10.48-2.45,9.41Z"/>
                  <path class="cls-31" d="m60.61,43.45s.45,6.22-4.61,8.26c0,0-.7.4,0,3.13,0,0,1.36,6.19-2.24,7.47,0,0-1.55-.99-3.52-2.34,0,0-3.23-.93-5.52-6.57-1.43-3.82-.79-8.1,1.7-11.34.09-.11.18-.22.28-.32,1.01-1.01,5.16-6.04,12.79-3.93.12.04.23.07.34.12,1.05.42,6.12,2.63,7.76,7.34-.02,0-2.7.35-6.96-1.81Z"/>
                  <path class="cls-31" d="m58.02,49s.66,3.16-.5,5.17c0,0-.9-1.63-2.42-1.74s-.13-1.59-.13-1.59l3.05-1.84Z"/>
                  <path class="cls-31" d="m53.16,63.38c.53-1.11.33-2.43-.51-3.32l-3.47-.63s3.8,2.26,3.98,3.96Z"/>
                  <path class="cls-11" d="m68.83,52.34c-.09-.18-2.14-.45-2.24-.4-.04.5-.05.99-.03,1.49-.03-.03-.06-.06-.09-.09-.25-.2-.63-.16-.83.09,0,0,.05-1.55-.02-1.64s-3.21-.65-3.33-.59c-.08.04-.06.8-.06.8l-7.08.53c.01.21.02.42.02.63,2.64-.12,6.65-.3,7.04-.3,0,0-.02,3.29.26,3.6.18.2,2.77.03,3.03-.23.15-.14.16-2.2.15-2.2.04-.06.09-.12.15-.16.22-.15.53-.1.68.12.07.13.46.64.75,1.03-.03-.98-.09-2.46-.05-2.47.08-.04,1.21.08,1.25.15.01.02,0,3.09-.03,3.11-.02.02-.59.07-.59.07l.42.46s.51-.07.56-.12c.05-.05.14-3.68.05-3.86Zm-3.68,1.9s.04,0,.06-.01c-.01.82-.01,1.57-.06,1.6-.05.04-1.96.16-2,.09-.04-.07-.17-3.95-.1-3.97.1-.05,2.11.27,2.16.34.01.02.01.49.01,1.08-.02,0-.04-.01-.07-.02-.18.04-.32.18-.36.36-.05.25.11.49.36.54Z"/>
                  <path class="cls-20" d="m56.4,57.7c-1.15.14-3.11-2.27-2.95-4.03.12-1.32,1.65-2.01,2.95-1.11,0,0,1.33,1.11.95,2.56,0,0,.81,2.35-.95,2.58Z"/>
                </g>
              </g>
            </g>
          </g>
          <g>
            <g>
              <g>
                <path class="cls-8" d="m260.36,132.83c.77,4.78-3.57,9.26-9.65,9.95l-11.68,1.33c-6.08.69-11.71-3.52-12.52-9.36s-.29-15.47,1.16-21.41l3.58-14.64c1.45-5.94,7.13-11.98,12.62-13.42s11.79-2.62,14.01-2.62,3.68,4.99,3.24,11.09l-1.37,19.3c-.43,6.1-.16,15,.61,19.79Z"/>
                <path class="cls-2" d="m260.36,132.83c.77,4.78-3.57,9.26-9.65,9.95l-11.68,1.33c-6.08.69-11.71-3.52-12.52-9.36s-.29-15.47,1.16-21.41l3.58-14.64c1.45-5.94,7.13-11.98,12.62-13.42s11.79-2.62,14.01-2.62,3.68,4.99,3.24,11.09l-1.37,19.3c-.43,6.1-.16,15,.61,19.79Z"/>
              </g>
              <g>
                <path class="cls-8" d="m256.1,134.75c.81,5.84-3.53,10.61-9.64,10.61h-11.11c-6.11,0-11.78-4.78-12.59-10.61s-.43-15.51.85-21.49l4.22-19.74c1.28-5.98,7.32-10.87,13.44-10.87h5.2c6.11,0,10.76,4.99,10.33,11.09l-1.37,19.3c-.43,6.1-.12,15.87.69,21.7Z"/>
                <path class="cls-2" d="m256.1,134.75c.81,5.84-3.53,10.61-9.64,10.61h-11.11c-6.11,0-11.78-4.78-12.59-10.61s-.43-15.51.85-21.49l4.22-19.74c1.28-5.98,7.32-10.87,13.44-10.87h5.2c6.11,0,10.76,4.99,10.33,11.09l-1.37,19.3c-.43,6.1-.12,15.87.69,21.7Z"/>
              </g>
              <rect class="cls-5" x="203.77" y="137.98" width="57.99" height="7.19" rx="1.14" ry="1.14"/>
              <rect class="cls-5" x="225.04" y="137.98" width="36.72" height="7.19" rx="1.2" ry="1.2"/>
            </g>
            <g>
              <path class="cls-20" d="m196.57,69.99s.37-4.86-1.02-8.04c0,0-1.64,1.33-2.5.33-.67-.78-3.96-.35-5.28,2.04-.61,1.1-.38,2.6.55,3.65,1.02,1.16,2.69,2.88,4.13,3.97l4.11-1.94Z"/>
              <g>
                <ellipse class="cls-20" cx="194.48" cy="62.5" rx="1.24" ry="1.23" transform="translate(-7.77 91.19) rotate(-25.89)"/>
                <path class="cls-20" d="m192.64,60.09s.38.66.66,2.78l2.25-.99s-1.48-2.42-2.43-4.03c-.18-.3-.62-.25-.73.08h0c-.18.56-.16,1.16.06,1.7l.19.46Z"/>
              </g>
              <g>
                <g>
                  <path class="cls-20" d="m184.04,61.05c-.1-.26.11-.53.39-.51h0c.58.05,1.09.4,1.34.92s.6,1.26.93,2l-1.5.73-1.16-3.14Z"/>
                  <ellipse class="cls-20" cx="185.99" cy="63.89" rx=".83" ry=".83" transform="translate(-9.23 87.62) rotate(-25.89)"/>
                </g>
                <g>
                  <g>
                    <ellipse class="cls-20" cx="188.51" cy="66.51" rx=".95" ry=".94" transform="translate(-10.12 88.99) rotate(-25.89)"/>
                    <path class="cls-20" d="m185.37,64.46l2.45,2.69,1.39-1.29s-1.38-1.36-2.72-2.64l-1.12,1.24Z"/>
                  </g>
                  <ellipse class="cls-20" cx="185.99" cy="63.89" rx=".83" ry=".83" transform="translate(-9.23 87.62) rotate(-25.89)"/>
                </g>
              </g>
              <g>
                <g>
                  <path class="cls-20" d="m184.86,55.7c-.11-.25.08-.53.36-.52h0c.58.02,1.1.35,1.35.87.67,1.35,1.88,3.9,2.36,4.82l-1.46.81-2.61-5.98Z"/>
                  <ellipse class="cls-20" cx="188.24" cy="61.33" rx=".83" ry=".83" transform="translate(-7.89 88.35) rotate(-25.89)"/>
                </g>
                <g>
                  <g>
                    <ellipse class="cls-20" cx="190.81" cy="63.91" rx=".95" ry=".94" transform="translate(-8.75 89.73) rotate(-25.89)"/>
                    <path class="cls-20" d="m187.63,61.91l2.5,2.65,1.37-1.31s-1.4-1.34-2.77-2.59l-1.1,1.26Z"/>
                  </g>
                  <ellipse class="cls-20" cx="188.24" cy="61.33" rx=".83" ry=".83" transform="translate(-7.89 88.35) rotate(-25.89)"/>
                </g>
              </g>
              <g>
                <g>
                  <path class="cls-20" d="m190.48,60.07l-1.5.73-2.13-5.68c-.1-.26.11-.53.39-.5l.22.02c.44.04.82.31,1,.71.54,1.22,1.59,3.74,2.03,4.72Z"/>
                  <ellipse class="cls-20" cx="189.76" cy="60.49" rx=".83" ry=".83" transform="translate(-7.37 88.93) rotate(-25.89)"/>
                </g>
                <g>
                  <g>
                    <ellipse class="cls-20" cx="192.42" cy="62.98" rx=".95" ry=".94" transform="translate(-8.19 90.34) rotate(-25.89)"/>
                    <path class="cls-20" d="m189.17,61.1l2.59,2.56,1.32-1.36s-1.45-1.29-2.85-2.49l-1.06,1.29Z"/>
                  </g>
                  <ellipse class="cls-20" cx="189.76" cy="60.49" rx=".83" ry=".83" transform="translate(-7.37 88.93) rotate(-25.89)"/>
                </g>
              </g>
              <g>
                <g>
                  <ellipse class="cls-20" cx="186.62" cy="62.14" rx=".83" ry=".83" transform="translate(-8.4 87.72) rotate(-25.89)"/>
                  <g>
                    <g>
                      <ellipse class="cls-20" cx="189.19" cy="64.71" rx=".95" ry=".94" transform="translate(-9.27 89.1) rotate(-25.89)"/>
                      <path class="cls-20" d="m186.01,62.72l2.5,2.65,1.37-1.31s-1.4-1.34-2.77-2.59l-1.1,1.26Z"/>
                    </g>
                    <ellipse class="cls-20" cx="186.62" cy="62.14" rx=".83" ry=".83" transform="translate(-8.4 87.72) rotate(-25.89)"/>
                  </g>
                </g>
                <path class="cls-20" d="m183.69,57.96c-.11-.24.06-.51.32-.51h0c.6,0,1.15.32,1.44.85.55.98,1.37,2.52,1.84,3.36l-1.43.86-2.17-4.55Z"/>
              </g>
            </g>
            <circle class="cls-20" cx="194.88" cy="71.44" r="2.48"/>
            <g>
              <path class="cls-31" d="m207.51,155.48c.65-9.72-.98-23.39-.98-23.39h-11.86"/>
              <path class="cls-31" d="m235.66,116.52c-10.98-.25-36.88,9.06-36.88,9.06l.72,12.53c7.41,1.31,16.34.35,21.59.41,4.32.04,11.6-.35,15.16-.45l-.59-21.54Z"/>
              <circle class="cls-31" cx="235.99" cy="127.23" r="10.77"/>
              <circle class="cls-31" cx="200.9" cy="131.49" r="6.26"/>
            </g>
            <g>
              <path class="cls-31" d="m228.08,154.91c.93-9.7-5.66-22.53-5.66-22.53l-12.54-.43"/>
              <path class="cls-31" d="m246.77,117.05c-9.69-.29-32.52,8.93-32.52,8.93l.68,12.53c6.55,1.34,14.42.41,19.06.48,3.82.06,8.63-.43,11.77-.52l1.01-21.42Z"/>
              <circle class="cls-31" cx="242.09" cy="127.8" r="10.77"/>
              <circle class="cls-31" cx="216.12" cy="131.95" r="6.26"/>
            </g>
            <path class="cls-20" d="m249.33,68.98l-7.9-4.57-10.68,3.38-6.94,3.47s-2.08,11.1,0,18.2c1.2,4.07,1.34,11.85,1.34,11.85h23.97c1.01-3.19,2.27-5.44,2.97-12.29.76-7.37,2.62-18.28,2.62-18.28l-5.39-1.77Z"/>
            <circle class="cls-20" cx="237.14" cy="101.32" r="11.99"/>
            <g>
              <path class="cls-20" d="m243.03,69.45c0,.05,0,.1,0,.15,0,3.04-2.47,5.51-5.52,5.5-3.04,0-5.5-2.47-5.5-5.52,0-.05,0-.1,0-.16h0v-.06c.03-.46.1-.9.22-1.32.02-.06.04-.13.06-.19l.24-1.33.77-4.3.09-.51h0s8.27,0,8.27,0l.15.82.11.61.21,1.21.62,3.51c.16.48.24.98.26,1.51v.06s0,0,0,0Z"/>
              <path class="cls-20" d="m241.68,61.72c0,2.28-1.86,4.13-4.14,4.13-2.28,0-4.13-1.85-4.13-4.14h0c0-.35.04-.68.12-1,.45-1.8,2.08-3.14,4.02-3.13,2.04,0,3.74,1.49,4.07,3.43.04.23.06.47.06.71Z"/>
              <path class="cls-17" d="m241.93,63.15c-1.53,2.12-3.98,3.38-6.6,3.38h-2.79l.77-4.3.09-.51h0c0-.35.04-.68.12-1l8.09.3c.04.23.06.47.06.71l.15.82.11.61Z"/>
            </g>
            <path class="cls-20" d="m257.68,72.34s4.79,4.09,9.81,9.92c2.63,3.05,6.46,5.13,9.03,8.43l-5.35,6.04c-1.54-1.17-3.08-2.79-4.88-4.16-7.08-5.4-15.16-11.38-15.16-11.38l6.56-8.85Z"/>
            <path class="cls-20" d="m264.31,99.68c-1.56,2.68-12.19,13.01-12.22,13.03l2.83,4.24s10.39-8.54,12.67-10.72c3.33-3.19,7.02-7.52,9.67-10.58l-6.07-4.97c-1.26.76-3.95,3.96-6.88,8.99Z"/>
            <circle class="cls-20" cx="253.49" cy="76.05" r="5.5"/>
            <circle class="cls-20" cx="273.36" cy="93.7" r="4.37"/>
            <path class="cls-16" d="m253.38,110.7l4.86,4.95s17.54-15.14,19.02-19.99l-8.56-5.29c-1.26.76-15.3,20.3-15.33,20.33Z"/>
            <path class="cls-16" d="m224.36,117.78s1.4,10.48,28.02,2.95l-.29-17.57h-27.03l-.71,14.61Z"/>
            <path class="cls-16" d="m245.51,66.68l-10.48,2.64-4.05-1.68-7.36,3.68s-.73,11.48,0,19.29c.42,4.41,1.42,12.56,1.42,12.56h27.03s2.44-5.54,3.19-12.8c.8-7.81,1.1-19.59,1.1-19.59l-10.87-4.1Z"/>
            <path class="cls-31" d="m227.29,47.78s-3.02,4.7,1.17,6.79l1.45,2.38,18.41-6.72c1.08-2.15-.95-7.21-1.79-7.3l-19.24,4.84Z"/>
            <circle class="cls-16" cx="254.72" cy="77.2" r="6.73"/>
            <g>
              <g>
                <path class="cls-15" d="m236.66,69.96v46.55c-.97.02-1.94.02-2.92,0v-.46s-.21-46.1-.21-46.1l1.3-1.29.1-.1h.32l.09.09,1.31,1.3Z"/>
                <g>
                  <path class="cls-24" d="m235.67,73.14c0,.3-.24.54-.54.54s-.54-.24-.54-.54.24-.54.54-.54.54.24.54.54Z"/>
                  <path class="cls-24" d="m235.67,80.11c0,.3-.24.54-.54.54s-.54-.24-.54-.54.24-.54.54-.54.54.24.54.54Z"/>
                  <path class="cls-24" d="m235.67,87.09c0,.3-.24.54-.54.54s-.54-.24-.54-.54.24-.54.54-.54.54.24.54.54Z"/>
                  <path class="cls-24" d="m235.67,94.07c0,.3-.24.54-.54.54s-.54-.24-.54-.54.24-.54.54-.54.54.24.54.54Z"/>
                  <path class="cls-24" d="m235.67,101.05c0,.3-.24.54-.54.54s-.54-.24-.54-.54.24-.54.54-.54.54.24.54.54Z"/>
                  <path class="cls-24" d="m235.67,108.03c0,.3-.24.54-.54.54s-.54-.24-.54-.54.24-.54.54-.54.54.24.54.54Z"/>
                </g>
              </g>
              <g>
                <polygon class="cls-24" points="232.88 64.99 230.57 67.62 232.23 72.87 235.1 68.46 232.88 64.99"/>
                <polygon class="cls-24" points="241.89 63.27 245.51 66.68 237.63 73.82 235.1 68.46 241.89 63.27"/>
              </g>
            </g>
            <g>
              <path class="cls-14" d="m230.07,49.84s-3.27-.84-2.54,2.18c.87,3.61,3.43,3.19,3.43,3.19l-.89-5.36Z"/>
              <path class="cls-20" d="m228.96,50.2s-.41,4.21-.02,6.21c.37,1.86,4.02,6.4,5.52,7.24.62.35,1.29.17,1.98,0,3.09-.78,7.55-5.02,7.89-6.87.1-.56,2.02-6.8,2.02-6.8h0c.03-.11.49-2.36.4-3.55-.35-4.59-4.11-8.21-8.66-8.42-5.22-.23-9.52,3.97-9.52,9.18,0,.06,0,.17,0,.31,0,.16,0,.36,0,.58,0,.79.38,2.03.41,2.11Z"/>
              <path class="cls-20" d="m246.06,49.93s3.51-.93,2.78,2.09c-.87,3.61-4.14,3.37-4.14,3.37l1.36-5.46Z"/>
              <path class="cls-8" d="m237.72,56.88s-1.05,1.19-2.41,1.51c-.47.11-.96.11-1.43,0-1.36-.32-2.02-1.53-2.02-1.53.04.01,0,0,.04,0,0,0,1.7.04,2.91.04,1.19,0,2.93-.02,2.91-.02s-.02,0,0,0Z"/>
              <line class="cls-3" x1="234.39" y1="47.86" x2="233.88" y2="53.67"/>
              <path class="cls-31" d="m231.81,55.5l.99-.25c1.29-.32,2.62-.32,3.91,0l.99.25c.65.16,1.15.84,1.15,1.63,0,.99-.56,1.83-.56,1.83.19-1.52-1.16-2.05-1.16-2.05h-2.37s-2.9,0-2.9,0c0,0-.83.54-.64,2.05,0,0-.56-.84-.56-1.83,0-.79.5-1.46,1.15-1.63Z"/>
              <path class="cls-6" d="m233.11,54.42s.93.98,1.34.98,1.36-.98,1.36-.98"/>
              <path class="cls-31" d="m242.14,48.21c.07.02.12-.08.07-.15-.3-.37-1.01-1.12-1.86-1.29s-2.14-.09-2.78-.04c-.33.03-.59.34-.6.72,0,0,0,.01,0,.02,0,.3.17.44.32.5.11.04.22.05.34.03.47-.08,2.39-.38,2.74-.28.3.09,1.31.36,1.77.49Z"/>
              <path class="cls-31" d="m228.54,48.09c.49-.13,1.08-.3,1.3-.36.35-.1,2.27.2,2.74.28.11.02.23.01.34-.03.15-.06.32-.2.32-.5v-.02c0-.38-.27-.69-.6-.72-.65-.06-1.95-.14-2.78.04-.51.11-.96.42-1.31.73,0,.16,0,.36,0,.58Z"/>
              <g>
                <ellipse class="cls-31" cx="238.93" cy="50.59" rx=".85" ry="1.21"/>
                <path class="cls-31" d="m238.08,49.84c0-.55.45-.93.97-.97.53-.04,1.04.32,1.08.86-.28.05-.47.06-.62.09-.53.08-.67.06-1.43.02h0Z"/>
                <ellipse class="cls-31" cx="230.97" cy="50.59" rx=".85" ry="1.21"/>
                <path class="cls-31" d="m231.83,49.84c-.75.04-.89.06-1.43-.02-.16-.02-.34-.03-.62-.09.04-.54.55-.9,1.08-.86.52.04.97.42.97.97h0Z"/>
              </g>
              <path class="cls-31" d="m228.75,54.4v-.42s.41,3.98,1.98,5.4c.81.73,1.48.88,2.23.45.45-.26.92-.42,1.43-.45h.03c.5.03.99.21,1.45.47.76.43,2.53.52,4.02-.52,1.74-1.22,5.17-5.35,5.17-5.35,0,0-.73,3.78-1.03,4.49-.83,2.01-2.59,3.31-4.22,4.43-2.57,1.78-5.17,1.68-5.17,1.68,0,0-1.61-.07-3.45-2.44-1.03-1.32-1.72-2.88-2.08-4.52-.2-.92-.37-2.04-.37-3.23Z"/>
            </g>
            <g>
              <path class="cls-31" d="m242.85,48.94c-.05-.18-.99-.3-1.84-.28-.85.02-1.63-.08-3.16.1,0,0-1.25.17-1.79.28-1.81.38-2.5.2-4.06-.15,0,0-.01,0-.02,0-.96-.21-1.69-.21-2.54-.23-.85-.02-1.57.17-1.61.34-.05.18-.08.79.11.89.2.11.36.05.62,1.05.26,1.01.19,1.8,1.45,2.25,1.12.39,1.84.27,2.61-.41.77-.69,1.3-2.52,1.41-2.84.04-.11.38-.15.67-.13.22.02.62.19.64.4l.03.26c.03.28.07.55.13.82.12.49.36,1.15.89,1.63.77.69,2.81.75,4.06.27,1.26-.47,1.41-1.3,1.67-2.3.26-1.01.42-.95.62-1.05.2-.11.16-.72.11-.89Zm-9.53,1.63c-.13.72-.42,1.67-1.06,2.11-.64.44-.92.46-1.64.38-1.07-.12-1.37-.76-1.55-1.44-.18-.67-.31-1.7-.11-2.15.2-.46,1.35-.55,2.25-.47.9.08.97.18,1.58.47.05.02.67.37.54,1.09Zm8.14,1.06c-.18.67-.51,1.18-1.55,1.44-1.04.26-2.48.06-3.11-.38-.64-.44-.93-1.39-1.06-2.11-.13-.72.49-1.07.54-1.09.6-.29,2.89-.4,3.79-.47.9-.08,1.32.02,1.51.47.2.46.07,1.48-.11,2.15Z"/>
              <path class="cls-31" d="m242.3,49.03s2.86-.47,3.49-.46c.32,0,.5.16.61.31.1.14.13.31.09.48v.05c-.27.04-.51-.07-.69-.26-.04-.05-.1-.08-.18-.06-.26.05-3.43.65-3.43.65l.12-.71Z"/>
            </g>
            <path class="cls-31" d="m245.06,39.06c-1.28-1.97-4.15-2.06-4.18-2.06,0,0-2.37-2.27-6.74-2.21,0,0-7.81-1.28-7.14,7.19,0,0-1.58.75-1.18,4,.28,2.3,2.73,2.11,2.73,2.11,0,0,.14-.17.49-2.24.04-.21.08-.44.12-.7.04-.26.07-.52.09-.79.12-1.96,1.32-3.06,3.09-3.61,0,0,.01,0,.02,0,.31-.1.64-.18.98-.24.7-.13,1.45-.2,2.25-.23.05,0,1.06-.02,1.61-.03.07,0,.13,0,.18,0,0,0,.1,0,.27.01.7.06,2.09.36,3.16,1.14,0,0-.38,4.52,2.06,6.8h0c.95,2.29,2.94,3.49,3.26,3.58,0,0,3.28-6.08-1.06-12.74Z"/>
            <path class="cls-31" d="m232.34,40.76c-1.77.55-2.98,1.65-3.1,3.61-.02.27-.05.53-.09.79-.04.25-.08.48-.12.7-.11-.84-.28-3.34.02-5.28.4-2.63,3.02-2.48,3.29.18Z"/>
            <path class="cls-31" d="m240.87,41.1c-.02.12-.04.22-.08.31-1.07-.78-2.46-1.08-3.16-1.14-.17-.01-.27-.01-.27-.01-.05,0-.11,0-.18,0,1.07-1.02,2.06-.95,2.71-.7.63.24,1.06.87.97,1.54Z"/>
            <path class="cls-16" d="m259.1,72.11s15.28,15.83,17.85,19.13l-6.32,5.89c-1.54-1.17-19.52-14.76-19.52-14.76l7.99-10.26Z"/>
            <circle class="cls-16" cx="272.6" cy="93.7" r="5.13"/>
            <path class="cls-20" d="m255.21,113.33l-1.2-1.13-2.41.39c-1.46-.31-2.18-1.18-2.9-1.22-.72-.04-1.9-.67-1.9-.67-.55,1.06.83,1.99.83,1.99-.1,0-.2-.02-.3-.03-.25-.02-.5-.05-.74-.07-.32-.03-.63-.07-.95-.09-.31-.03-.61-.07-.92-.09-.24-.02-.47-.04-.71-.03-.25.01-.48.09-.72.16-.3.09-1.83.82-2.09.9-.12.04-.37.12-.37.12-.09.32-.08.65.1.91.32.47,1.04.38,1.4.28.27-.08.62-.24.88-.36.22-.1.16-.15.56-.14.23,0,.46.06.7.08.5.06,1.01.12,1.51.19.11.02.23.03.34.05,0,0-2.34.68-3.07.96-.54.21-1.96,1.88-1.96,1.88-1.02,1.19.79,1.43.79,1.43-.08.11-.18.3-.17.45.02.13.11.22.19.28.15.12.33.17.5.2.32.07.66.08.98-.04.09-.03.18-.07.26-.12.08-.04.16-.09.24-.14.1-.06.2-.13.3-.2.31-.21.61-.43.89-.69.03-.03.11-.13.15-.14,0,0,1.84-.3,1.84-.3-.59.4-1.12,1.6-1.92,2.21-.12.09-.24.19-.33.32-.09.12-.19.29-.15.45.04.16.19.19.31.22.37.11.76.06,1.13-.07.19-.07.37-.16.55-.28.13-.08.25-.18.36-.29.05-.05.1-.09.15-.15,1-1.37,2.19-2.12,3.88-1.45,2.44.96,3.9-2.67,3.9-2.67l.03-3.11Z"/>
            <circle class="cls-16" cx="225.8" cy="77.54" r="6.73"/>
            <path class="cls-16" d="m230.81,81.41s-17.21,13.71-20.74,15.96l-5.26-6.85c1.31-1.42,16.54-18.03,16.54-18.03l9.45,8.92Z"/>
            <path class="cls-16" d="m197.32,69.37l-6.11,3.28s9.62,21.08,13.86,23.86l7.47-6.73c-.37-1.42-15.21-20.37-15.22-20.4Z"/>
            <circle class="cls-16" cx="208.25" cy="92.58" r="5.13"/>
            <path class="cls-33" d="m254.33,108.94c.08.07.12.11.14.13-.03-.04-.08-.09-.14-.13Z"/>
            <path class="cls-33" d="m248.93,108.15h-.21c.06,0,.13,0,.21,0Z"/>
          </g>
          <g>
            <path class="cls-20" d="m66.91,54.74s-.05-.09-.06-.13c-.11-.21-.16-.43-.15-.68,0-.24.04-.47.15-.68.07-.22.19-.41.36-.57.12-.12.26-.21.4-.31.01-.42.02-.86.03-1.33.03-1.56-.06-2.93-.27-4.11-1.05-6.12-5.11-7.39-10.39-7.5-6.3-.13-10.19,2.92-10.36,11.18-.04,1.77-.32,5.74,4.08,7.68,1.02.44,2.22.79,3.62.95,1.03.13,2.17.17,3.43.11,1.02-.05,2.13-.17,3.33-.38,4.88.66,6.02,1.35,6.39-2.93-.3-.33-.57-.67-.7-1.04.06-.09.1-.19.15-.28Z"/>
            <g>
              <g>
                <path class="cls-8" d="m36.46,132.83c-.77,4.78,3.57,9.26,9.65,9.95l11.68,1.33c6.08.69,11.71-3.52,12.52-9.36s.29-15.47-1.16-21.41l-3.58-14.64c-1.45-5.94-5.13-11.98-8.18-13.42s-9.35-2.62-14.01-2.62-8.12,4.99-7.68,11.09l1.37,19.3c.43,6.1.16,15-.61,19.79Z"/>
                <path class="cls-2" d="m36.46,132.83c-.77,4.78,3.57,9.26,9.65,9.95l11.68,1.33c6.08.69,11.71-3.52,12.52-9.36s.29-15.47-1.16-21.41l-3.58-14.64c-1.45-5.94-5.13-11.98-8.18-13.42s-9.35-2.62-14.01-2.62-8.12,4.99-7.68,11.09l1.37,19.3c.43,6.1.16,15-.61,19.79Z"/>
              </g>
              <g>
                <path class="cls-8" d="m40.71,134.75c-.81,5.84,3.53,10.61,9.64,10.61h11.11c6.11,0,11.78-4.78,12.59-10.61s.43-15.51-.85-21.49l-4.22-19.74c-1.28-5.98-7.32-10.87-13.44-10.87h-5.2c-6.11,0-10.76,4.99-10.33,11.09l1.37,19.3c.43,6.1.12,15.87-.69,21.7Z"/>
                <path class="cls-2" d="m40.71,134.75c-.81,5.84,3.53,10.61,9.64,10.61h11.11c6.11,0,11.78-4.78,12.59-10.61s.43-15.51-.85-21.49l-4.22-19.74c-1.28-5.98-7.32-10.87-13.44-10.87h-5.2c-6.11,0-10.76,4.99-10.33,11.09l1.37,19.3c.43,6.1.12,15.87-.69,21.7Z"/>
              </g>
              <rect class="cls-5" x="35.06" y="137.98" width="57.99" height="7.19" rx="1.14" ry="1.14" transform="translate(128.11 283.14) rotate(180)"/>
              <rect class="cls-5" x="35.06" y="137.98" width="36.72" height="7.19" rx="1.2" ry="1.2" transform="translate(106.84 283.14) rotate(-180)"/>
            </g>
            <g>
              <path class="cls-31" d="m91.22,155.48c-.65-9.72.98-23.39.98-23.39h11.86"/>
              <path class="cls-31" d="m63.06,116.52c10.98-.25,36.88,9.06,36.88,9.06l-.72,12.53c-7.41,1.31-16.34.35-21.59.41-4.32.04-11.6-.35-15.16-.45l.59-21.54Z"/>
              <circle class="cls-31" cx="62.73" cy="127.23" r="10.77"/>
              <circle class="cls-31" cx="97.82" cy="131.49" r="6.26"/>
            </g>
            <g>
              <path class="cls-31" d="m88.85,131.95l-12.54.43s-6.59,12.83-5.66,22.53l13.55,6.88,4.66-30.05"/>
              <path class="cls-31" d="m51.96,117.05c9.69-.29,32.52,8.93,32.52,8.93l-.68,12.53c-6.55,1.34-14.42.41-19.06.48-3.82.06-8.63-.43-11.77-.52l-1.01-21.42Z"/>
              <circle class="cls-31" cx="56.63" cy="127.8" r="10.77"/>
              <circle class="cls-31" cx="82.6" cy="131.95" r="6.26"/>
            </g>
            <g>
              <g>
                <g>
                  <g>
                    <path class="cls-20" d="m94.31,90.97l2.24-4.53c.49-.98.93-1.99,1.3-3.02.61-1.69,1.13-3.42,1.56-5.17l2.68-11.3-4.36-1.38s-.94,3.23-2.79,6.61c-3.07,5.63-7.59,13.44-7.04,16.36l6.4,2.42Z"/>
                    <g>
                      <path class="cls-20" d="m97.68,65.74s-.93-4.84.11-8.19c0,0,1.8,1.14,2.55.05.59-.86,3.93-.8,5.53,1.44.74,1.04.67,2.57-.14,3.73-.9,1.28-2.37,3.2-3.7,4.45l-4.35-1.48Z"/>
                      <g>
                        <ellipse class="cls-20" cx="98.93" cy="57.99" rx="1.24" ry="1.25" transform="translate(11.36 132.04) rotate(-70.59)"/>
                        <path class="cls-20" d="m100.5,55.36s-.3.71-.34,2.87l-2.37-.74s1.21-2.6,1.98-4.32c.14-.32.6-.32.74,0h0c.25.54.29,1.15.13,1.71l-.14.48Z"/>
                      </g>
                      <g>
                        <g>
                          <path class="cls-20" d="m109.25,55.35c.07-.27-.18-.52-.45-.47h0c-.58.12-1.05.53-1.24,1.08s-.46,1.33-.7,2.11l1.59.56.81-3.28Z"/>
                          <ellipse class="cls-20" cx="107.62" cy="58.42" rx=".84" ry=".84" transform="translate(16.76 140.51) rotate(-70.59)"/>
                        </g>
                        <g>
                          <g>
                            <ellipse class="cls-20" cx="105.38" cy="61.34" rx=".95" ry=".96" transform="translate(12.51 140.35) rotate(-70.59)"/>
                            <path class="cls-20" d="m108.3,58.93l-2.15,2.98-1.54-1.14s1.23-1.52,2.43-2.96l1.27,1.11Z"/>
                          </g>
                          <ellipse class="cls-20" cx="107.62" cy="58.42" rx=".84" ry=".84" transform="translate(16.76 140.51) rotate(-70.59)"/>
                        </g>
                      </g>
                      <g>
                        <g>
                          <path class="cls-20" d="m107.81,50.07c.08-.27-.14-.53-.42-.48h0c-.58.09-1.06.48-1.26,1.03-.52,1.43-1.45,4.13-1.82,5.11l1.56.64,1.94-6.29Z"/>
                          <ellipse class="cls-20" cx="105.06" cy="56.11" rx=".84" ry=".84" transform="translate(17.23 136.56) rotate(-70.59)"/>
                        </g>
                        <g>
                          <g>
                            <ellipse class="cls-20" cx="102.77" cy="58.99" rx=".95" ry=".96" transform="translate(12.99 136.32) rotate(-70.59)"/>
                            <path class="cls-20" d="m105.74,56.63l-2.21,2.94-1.52-1.16s1.26-1.5,2.48-2.91l1.25,1.14Z"/>
                          </g>
                          <ellipse class="cls-20" cx="105.06" cy="56.11" rx=".84" ry=".84" transform="translate(17.23 136.56) rotate(-70.59)"/>
                        </g>
                      </g>
                      <g>
                        <g>
                          <path class="cls-20" d="m102.67,55.09l1.59.56,1.49-5.95c.07-.27-.17-.52-.44-.46l-.22.04c-.44.09-.79.41-.92.83-.41,1.29-1.17,3.94-1.5,4.97Z"/>
                          <ellipse class="cls-20" cx="103.44" cy="55.44" rx=".84" ry=".84" transform="translate(16.78 134.58) rotate(-70.59)"/>
                        </g>
                        <g>
                          <g>
                            <ellipse class="cls-20" cx="101.05" cy="58.24" rx=".95" ry=".96" transform="translate(12.54 134.2) rotate(-70.59)"/>
                            <path class="cls-20" d="m104.1,55.98l-2.31,2.86-1.48-1.22s1.31-1.46,2.58-2.83l1.21,1.18Z"/>
                          </g>
                          <ellipse class="cls-20" cx="103.44" cy="55.44" rx=".84" ry=".84" transform="translate(16.78 134.58) rotate(-70.59)"/>
                        </g>
                      </g>
                      <g>
                        <g>
                          <ellipse class="cls-20" cx="106.79" cy="56.74" rx=".84" ry=".84" transform="translate(17.79 138.6) rotate(-70.59)"/>
                          <g>
                            <g>
                              <ellipse class="cls-20" cx="104.49" cy="59.61" rx=".95" ry=".96" transform="translate(13.55 138.36) rotate(-70.59)"/>
                              <path class="cls-20" d="m107.46,57.25l-2.21,2.94-1.52-1.16s1.26-1.5,2.48-2.91l1.25,1.14Z"/>
                            </g>
                            <ellipse class="cls-20" cx="106.79" cy="56.74" rx=".84" ry=".84" transform="translate(17.79 138.6) rotate(-70.59)"/>
                          </g>
                        </g>
                        <path class="cls-20" d="m109.25,52.2c.09-.25-.12-.5-.38-.47h0c-.6.07-1.12.46-1.35,1.01-.44,1.04-1.09,2.68-1.46,3.58l1.54.7,1.66-4.81Z"/>
                      </g>
                    </g>
                  </g>
                  <circle class="cls-20" cx="91.17" cy="89.62" r="3.43" transform="translate(-35.24 108.7) rotate(-53.09)"/>
                </g>
                <g>
                  <path class="cls-20" d="m63.13,83.93s10.41,4.01,26.46,9.01l2.12-6.53c-13.79-5.54-25.1-11.43-25.1-11.43l-3.48,8.95Z"/>
                  <circle class="cls-20" cx="64.86" cy="79.46" r="4.8" transform="translate(-37.67 76.81) rotate(-49.29)"/>
                  <ellipse class="cls-20" cx="90.8" cy="89.72" rx="3.44" ry="3.43" transform="translate(-36.29 101.65) rotate(-50.02)"/>
                </g>
              </g>
              <path class="cls-24" d="m82.7,81.75c-7.16-3.17-12.75-5.95-14.84-7.01-.29-.18-.59-.34-.92-.47l-.76-.39-.05.14c-.24-.06-.49-.1-.74-.12-2.48-.24-4.84,1.22-5.74,3.54-1.02,2.62.08,5.56,2.47,6.9l-.02.06.74.29c.09.03,6.72,4.65,18.3,8.43l1.56-11.36Z"/>
            </g>
            <path class="cls-20" d="m70.68,98.42c-.46,1.06-.89,1.66-.89,1.76l-17.17-1.3c-3.1-7.88-4.46-21.07.97-30.23h9.7c3.45,2.14,11.92,23.22,7.39,29.77Z"/>
            <ellipse class="cls-18" cx="66.28" cy="91.09" rx="7.52" ry="8.58" transform="translate(-29.49 31.78) rotate(-22.19)"/>
            <g>
              <circle class="cls-20" cx="58.66" cy="72.21" r="5.3"/>
              <polygon class="cls-20" points="63.85 71.15 53.39 71.61 53.39 71.61 54.14 64.39 54.27 63.07 54.46 61.17 54.47 61.09 61.88 60.78 61.89 60.78 63.03 66.81 63.26 68.01 63.8 70.88 63.8 70.91 63.82 70.97 63.85 71.15"/>
            </g>
            <path class="cls-12" d="m63.26,68.01h-.49c-.29.01-.58.01-.87,0-1.39-.08-2.73-.45-4-1.05-.7-.32-1.37-.72-2.01-1.16-.62-.42-1.2-.9-1.75-1.4l.14-1.32.19-1.91v-.08s7.41-.31,7.41-.31h.01l1.14,6.02.23,1.2Z"/>
            <path class="cls-20" d="m68.43,57.99c-1.85.77-1.01,1.21-.95,1.69.03.19-.08.39-.56.62-.01.06-.03.12-.03.19-.03.11-.05.23-.07.34-.06.38-.14.75-.29,1.09-.08.2-.2.39-.36.56-.17.68-.31,1.44-.51,2.14-.32,1.08-1.36,1.22-2.33,1.11-1.63-.18-3.26-.37-4.84-.8-1.71-.47-3.17-1.27-4.52-2.41-.66-.56-2.33-1.62-2.33-2.59.04-.23-.4.07-.38-.15.08-.53.12-1.06.07-1.57-.07-.64-.3-1.25-.86-1.82-4.62-5.14.25-15.71,6.87-16.22,3.97-.7,8.18.73,9.66,4.51.75,1.92,1.31,6.09.7,8.1-.1.33-.25.77-.39,1.09-.27.61-.18,1.32.28,1.81.76.81,1.71,1.54.84,2.32Z"/>
            <path class="cls-11" d="m66.73,60.3c.26.11.51,1.1-.15,1.59-.27.2-2.47-.92-2.94-1.67h0s0,0,0,0h.02s0,0,0,0c0,0,2.64.04,3.08.09Z"/>
            <path class="cls-28" d="m67.55,59.93l-.45.72c-.07.11-.18.17-.31.18-.52.02-1.97,0-3.16-.61h0s0,0,.01,0h0c.19-.03,3.62-.53,3.84-.54.04,0,.1.18.06.25Z"/>
            <ellipse class="cls-31" cx="64.16" cy="53.87" rx=".57" ry="1.13" transform="translate(-2.28 2.84) rotate(-2.49)"/>
            <path class="cls-31" d="m64.82,52.99c-.98.39-.8.22-1.83.29-.27-1.14,1.64-1.39,1.83-.29h0Z"/>
            <path class="cls-31" d="m68.29,53.34c-1.03.22-.83.08-1.85-.02-.08-1.17,1.85-1.1,1.85.02h0Z"/>
            <path class="cls-31" d="m67.03,52.74c-.26.01-.46.37-.51.84,0,0,.01,0,.02,0,.09.05.16.11.21.19.07.07.11.16.14.26.04.13.07.26.11.39.02.06.04.12.07.18.01.03.02.06.04.08,0,.01.03.02.03.03.03.06.05.12.08.18,0,.02,0,.04.01.06.26-.11.44-.57.42-1.13-.03-.62-.3-1.12-.61-1.1Z"/>
            <path class="cls-31" d="m61.27,51.35c-.07,0-.09-.1-.03-.15.33-.28,1.07-.82,1.82-.81s1.81.33,2.33.5c.27.09.43.42.35.77,0,0,0,.01,0,.02-.06.27-.23.36-.37.39-.1.02-.2,0-.29-.04-.38-.16-1.92-.81-2.23-.78-.27.02-1.17.08-1.58.1Z"/>
            <path class="cls-31" d="m69.2,52.67s.08-.07.06-.13c-.12-.36-.42-1.1-.87-1.32s-1.16-.24-1.53-.23c-.19,0-.37.27-.41.62,0,0,0,.01,0,.02-.04.28.04.41.12.48.05.05.12.06.18.05.27-.04,1.36-.18,1.54-.06.16.1.67.43.91.58Z"/>
            <path class="cls-7" d="m66.34,57.36s-.49.56.14.92"/>
            <path class="cls-16" d="m70.83,83.76c-.18-.59-.38-1.19-.59-1.81-1.32-3.89-2.92-7.51-4.13-9.96.02.03-1.51-.13-1.61-.15-.93-.2-1.84-.49-2.76-.76-3.03-.91-5.42-2.64-7.85-4.62-.21.36-.41.72-.6,1.09-.09.16-.37.51-.37.7-5.77,9.75-4.71,23.36-1.94,30.64-.55,4.58-2.45,17.75-3.96,21.67,5.59,2.56,17.46-1.21,27.5-1.21.1-.37-1.4-11.37-2.23-21.23,2.42-2.42,3.21-6.45,1.69-10.17-.7-1.72-1.81-3.15-3.15-4.19Z"/>
            <g>
              <g>
                <g>
                  <path class="cls-20" d="m67.55,99.35l4.85-1.44c1.05-.32,2.12-.58,3.2-.77,1.77-.31,3.56-.53,5.36-.65l11.63-.74.89,4.19s-3.67.74-7.31,1.98c-6.07,2.07-15.44,5.03-18.6,4.1l-.02-6.67Z"/>
                  <circle class="cls-18" cx="68.36" cy="102.68" r="3.43" transform="translate(-50.74 70.58) rotate(-41.26)"/>
                </g>
                <g>
                  <path class="cls-20" d="m53.75,78.59s4.21,10.33,11.57,25.44l6.21-2.93c-5.41-13.84-8.88-26.11-8.88-26.11l-8.9,3.6Z"/>
                  <circle class="cls-18" cx="58.2" cy="76.79" r="4.8" transform="translate(-3.23 2.56) rotate(-2.45)"/>
                  <ellipse class="cls-20" cx="68.5" cy="102.7" rx="3.44" ry="3.43" transform="translate(-5.8 4.12) rotate(-3.3)"/>
                </g>
              </g>
              <path class="cls-24" d="m63.69,75.74c-.07-.35-.17-.7-.31-1.05-1.03-2.55-3.82-3.99-6.5-3.34-.27.06-.53.15-.79.25-2.86,1.16-4.24,4.42-3.09,7.28,0,0,0,0,0,0h0c.03.08,5.64,17.83,5.64,17.83l11.88-5.56s-6.13-13.01-6.84-15.43Z"/>
            </g>
            <circle class="cls-20" cx="93.04" cy="97.84" r="2.15"/>
            <g>
              <path class="cls-20" d="m100.38,98.87c.4-1.32-.72-3.11.95-3.18.34,1.11.49,2.91-.07,4.37l-.88-1.2Z"/>
              <path class="cls-20" d="m101.5,98.25c.65-1.64-.53-3.73,1.6-3.63.32,1.46.26,3.44-.61,5.26l-.99-1.63Z"/>
              <path class="cls-20" d="m102.4,97.48c.77-1.59-.32-4.21,1.79-3.95.21,1.48.07,3.9-.93,5.65l-.87-1.69Z"/>
              <path class="cls-20" d="m92.17,96.31l6.46.22c1.17,1.04,2.68,1.29,4.63.59.94-1.82,1-3.76,2.42-3.33.13,1.49-.26,3.66-1.36,5.35l-5.03,2.15c-2.51-.08-5-.57-7.07-1.28l-.05-3.7Z"/>
              <path class="cls-20" d="m104.32,99.14s-.93.42-2.1.71c-1.17.29-2.13.49-2.14.45-.01-.04.93-.32,2.1-.61,1.17-.29,2.13-.6,2.14-.55Z"/>
              <path class="cls-20" d="m98.63,96.71c.86-.97,1.24-.52,2.8-.85,2.28-.49,2.04-2.06,1.47-2.25-.57-.2-3.98.58-3.98.58-2.3.6-4.75.18-6.75,2.14,1.38,1.12,3.96.41,6.46.39Z"/>
            </g>
            <polygon class="cls-19" points="62.67 51.71 65.37 52.06 65.22 55.94 63 56.16 62.67 51.71"/>
            <polygon class="cls-19" points="66.95 52.32 68.78 52.63 68.68 55.97 67.17 56.16 66.95 52.32"/>
            <path class="cls-31" d="m36.96,68.75s1.77,4.67,6.19,4.93c4.42.25,8.59-7.71,3.73-15.85-4.87-8.15-.78-12.51-.78-12.51,0,0-2.44-1.18-5.61.95-3.17,2.13-3.91,8.51-1.07,13.08,2.84,4.57,4.12,10.48-2.45,9.41Z"/>
            <path class="cls-31" d="m60.61,43.45s.45,6.22-4.61,8.26c0,0-.7.4,0,3.13,0,0,1.36,6.19-2.24,7.47,0,0-1.55-.99-3.52-2.34,0,0-3.23-.93-5.52-6.57-1.43-3.82-.79-8.1,1.7-11.34.09-.11.18-.22.28-.32,1.01-1.01,5.16-6.04,12.79-3.93.12.04.23.07.34.12,1.05.42,6.12,2.63,7.76,7.34-.02,0-2.7.35-6.96-1.81Z"/>
            <path class="cls-31" d="m58.02,49s.66,3.16-.5,5.17c0,0-.9-1.63-2.42-1.74s-.13-1.59-.13-1.59l3.05-1.84Z"/>
            <path class="cls-31" d="m53.16,63.38c.53-1.11.33-2.43-.51-3.32l-3.47-.63s3.8,2.26,3.98,3.96Z"/>
            <path class="cls-11" d="m68.83,52.34c-.09-.18-2.14-.45-2.24-.4-.04.5-.05.99-.03,1.49-.03-.03-.06-.06-.09-.09-.25-.2-.63-.16-.83.09,0,0,.05-1.55-.02-1.64s-3.21-.65-3.33-.59c-.08.04-.06.8-.06.8l-7.08.53c.01.21.02.42.02.63,2.64-.12,6.65-.3,7.04-.3,0,0-.02,3.29.26,3.6.18.2,2.77.03,3.03-.23.15-.14.16-2.2.15-2.2.04-.06.09-.12.15-.16.22-.15.53-.1.68.12.07.13.46.64.75,1.03-.03-.98-.09-2.46-.05-2.47.08-.04,1.21.08,1.25.15.01.02,0,3.09-.03,3.11-.02.02-.59.07-.59.07l.42.46s.51-.07.56-.12c.05-.05.14-3.68.05-3.86Zm-3.68,1.9s.04,0,.06-.01c-.01.82-.01,1.57-.06,1.6-.05.04-1.96.16-2,.09-.04-.07-.17-3.95-.1-3.97.1-.05,2.11.27,2.16.34.01.02.01.49.01,1.08-.02,0-.04-.01-.07-.02-.18.04-.32.18-.36.36-.05.25.11.49.36.54Z"/>
            <path class="cls-20" d="m56.4,57.7c-1.15.14-3.11-2.27-2.95-4.03.12-1.32,1.65-2.01,2.95-1.11,0,0,1.33,1.11.95,2.56,0,0,.81,2.35-.95,2.58Z"/>
          </g>
          <polygon class="cls-31" points="209.86 131.74 214.53 161.78 227.58 161.78 222.38 141.57 216.12 134.55 209.86 131.74"/>
        </g>
      </g>
    </g>
  </g>
</svg>