<?xml version="1.0" encoding="UTF-8"?>
<svg id="Layer_2" data-name="Layer 2" xmlns="http://www.w3.org/2000/svg" viewBox="0 0 261.55 233.24">
  <defs>
    <style>
      .cls-1, .cls-2 {
        fill: #a59a6e;
      }

      .cls-3 {
        fill: #aa2734;
      }

      .cls-4 {
        fill: #54565a;
      }

      .cls-4, .cls-2, .cls-5, .cls-6 {
        stroke: #000;
        stroke-linecap: round;
        stroke-linejoin: round;
        stroke-width: 1.5px;
      }

      .cls-5 {
        fill: #fff;
      }

      .cls-6 {
        fill: none;
      }
    </style>
  </defs>
  <g id="Content">
    <g>
      <g>
        <path class="cls-3" d="m130.87,1.5c11.29,0,20.5,9.11,20.6,20.42.1,10.88-8.24,19.86-18.91,20.72-.5.04-1,.07-1.5.07-.07,0-.14,0-.21,0-.56,0-1.12-.03-1.66-.07-10.51-.85-18.82-9.6-18.92-20.35-.1-11.38,9.04-20.69,20.42-20.8.06,0,.13,0,.19,0m0-1.5h-.2c-12.19.11-22.02,10.12-21.91,22.31.11,11.52,8.83,20.9,20.29,21.83.61.05,1.21.08,1.79.08h.23c.55,0,1.1-.03,1.62-.08,11.47-.93,20.39-10.69,20.28-22.23-.11-12.08-10.02-21.91-22.1-21.91h0Z"/>
        <g>
          <path class="cls-4" d="m143.52,21.42c.02-.62-.35-1.17-.89-1.41.5-.31.79-.91.68-1.52v-.07c-.12-.62-.59-1.08-1.17-1.2.42-.4.58-1.03.36-1.61l-.04-.1c-.24-.59-.81-.92-1.4-.9.35-.5.37-1.18,0-1.7l-.04-.05c-.36-.53-1-.75-1.59-.6.22-.56.08-1.24-.39-1.67,0,0-.03-.03-.03-.03-.47-.42-1.14-.49-1.67-.22.08-.59-.21-1.2-.77-1.5l-.07-.04c-.57-.3-1.24-.2-1.69.2-.07-.6-.52-1.12-1.14-1.27,0,0-.07-.02-.08-.02-.63-.14-1.23.15-1.55.67-.22-.57-.76-.98-1.41-.96h-.12c-.64.03-1.16.46-1.34,1.04-.36-.49-1.01-.72-1.62-.53l-.09.03c-.61.2-.99.74-1.01,1.35-.48-.38-1.16-.44-1.71-.1l-.05.03c-.54.33-.8.96-.68,1.55-.55-.24-1.21-.13-1.66.32l-.05.05c-.44.45-.54,1.11-.29,1.65-.58-.1-1.19.14-1.53.67l-.05.08c-.33.54-.26,1.19.11,1.66-.59.01-1.15.38-1.37.97l-.03.09c-.21.6,0,1.23.45,1.6-.58.14-1.04.61-1.13,1.23v.1c-.1.63.23,1.2.75,1.48-.54.25-.89.81-.86,1.43v.09c.05.63.48,1.13,1.05,1.29-.48.35-.71.97-.55,1.58l.03.09c.17.61.7,1.01,1.3,1.05-.4.45-.5,1.11-.2,1.68l.04.08c.3.56.9.83,1.49.74-.3.53-.24,1.22.19,1.7l.04.05c.41.48,1.07.63,1.63.42-.15.58.06,1.21.57,1.58l.08.05c.53.37,1.19.34,1.68-.01-.02.61.35,1.19.95,1.42l.1.04c.6.22,1.24.02,1.63-.44.14.59.65,1.06,1.29,1.13h.1s.06.01.09.01c.61.02,1.13-.34,1.37-.87.29.54.91.86,1.55.76,0,0,.07-.01.08-.01.64-.11,1.09-.61,1.18-1.21.42.44,1.08.6,1.67.34l.1-.05c.58-.27.89-.86.84-1.46.52.31,1.2.29,1.7-.11l.06-.05c.5-.4.66-1.05.45-1.62.58.19,1.24.01,1.64-.5l.05-.06c.39-.5.41-1.16.11-1.67.59.05,1.18-.28,1.45-.85l.03-.06c.27-.57.15-1.22-.25-1.65.58-.08,1.08-.51,1.23-1.11l.02-.09c.15-.62-.12-1.22-.61-1.55.56-.19.97-.71,1-1.34v-.13s0-.02,0-.02Z"/>
          <g>
            <g>
              <polyline class="cls-5" points="146.08 35.62 134.96 30.81 134.96 25.95 126.77 25.95 126.77 30.81 115.62 35.69"/>
              <polygon class="cls-5" points="130.86 34.13 134.96 30.81 134.96 25.95 126.77 25.95 126.77 30.81 130.86 34.13"/>
              <polygon class="cls-5" points="130.86 34.13 127.97 36.51 125.28 31.42 126.77 30.12 130.86 34.13"/>
              <polygon class="cls-5" points="130.86 34.13 133.76 36.51 136.45 31.42 134.96 30.12 130.86 34.13"/>
              <polyline class="cls-6" points="132.75 35.68 131.87 37.54 130.86 37.54 129.86 37.54 128.98 35.68"/>
              <line class="cls-6" x1="132.55" y1="42.65" x2="131.87" y2="37.54"/>
              <line class="cls-6" x1="129.86" y1="37.54" x2="129.17" y2="42.65"/>
            </g>
            <path class="cls-5" d="m137.59,17.94c0,4.82,0-1.61,0,3.2-.18,3.86-3.16,7.61-6.7,7.59-3.51-.02-6.44-3.76-6.61-7.59,0-4.82,0,.87,0-3.95"/>
            <path class="cls-5" d="m124.27,17.21s2.92-1.59,3.8-4.32c0,0,2.85,4.65,9.51,5.08"/>
          </g>
        </g>
      </g>
      <g>
        <g>
          <path class="cls-3" d="m80.84,93.95c11.29,0,20.5,9.11,20.6,20.42.1,10.88-8.24,19.86-18.91,20.72-.5.04-1,.07-1.5.07-.07,0-.14,0-.21,0-.56,0-1.12-.03-1.66-.07-10.51-.85-18.82-9.6-18.91-20.35-.1-11.38,9.04-20.69,20.42-20.8.06,0,.13,0,.19,0m0-1.5h-.2c-12.19.11-22.02,10.12-21.91,22.31.11,11.52,8.83,20.9,20.29,21.83.61.05,1.21.08,1.79.08h.23c.55,0,1.1-.03,1.62-.08,11.47-.93,20.39-10.69,20.28-22.23-.11-12.08-10.02-21.91-22.1-21.91h0Z"/>
          <g>
            <path class="cls-4" d="m93.5,113.86c.02-.62-.35-1.17-.89-1.41.5-.31.79-.91.68-1.52v-.07c-.12-.62-.59-1.08-1.17-1.2.42-.4.58-1.03.36-1.61l-.04-.1c-.24-.59-.81-.92-1.4-.9.35-.5.37-1.18,0-1.7l-.04-.05c-.36-.53-1-.75-1.59-.6.22-.56.08-1.24-.39-1.67,0,0-.03-.03-.03-.03-.47-.42-1.14-.49-1.67-.22.08-.59-.21-1.2-.77-1.5l-.07-.04c-.57-.3-1.24-.2-1.69.2-.07-.6-.52-1.12-1.14-1.27,0,0-.07-.02-.08-.02-.63-.14-1.23.15-1.55.67-.22-.57-.76-.98-1.41-.96h-.12c-.64.03-1.16.46-1.34,1.04-.36-.49-1.01-.72-1.62-.53l-.09.03c-.61.2-.99.74-1.01,1.35-.48-.38-1.16-.44-1.71-.1l-.05.03c-.54.33-.8.96-.68,1.55-.55-.24-1.21-.13-1.66.32l-.05.05c-.44.45-.54,1.11-.29,1.65-.58-.1-1.19.14-1.53.67l-.05.08c-.33.54-.26,1.19.11,1.66-.59.01-1.15.38-1.37.97l-.03.09c-.21.6,0,1.23.45,1.6-.58.14-1.04.61-1.13,1.23v.1c-.1.63.23,1.2.75,1.48-.54.25-.89.81-.86,1.43v.09c.05.63.48,1.13,1.05,1.29-.48.35-.71.97-.55,1.58l.03.09c.17.61.7,1.01,1.3,1.05-.4.45-.5,1.11-.2,1.68l.04.08c.3.56.9.83,1.49.74-.3.53-.24,1.22.19,1.7l.04.05c.41.48,1.07.63,1.63.42-.15.58.06,1.21.57,1.58l.08.05c.53.37,1.19.34,1.68-.01-.02.61.35,1.19.95,1.42l.1.04c.6.22,1.24.02,1.63-.44.14.59.65,1.06,1.29,1.13h.1s.06.01.09.01c.61.02,1.13-.34,1.37-.87.29.54.91.86,1.55.76,0,0,.07-.01.08-.01.64-.11,1.09-.61,1.18-1.21.42.44,1.08.6,1.67.34l.1-.05c.58-.27.89-.86.84-1.46.52.31,1.2.29,1.7-.11l.06-.05c.5-.4.66-1.05.45-1.62.58.19,1.24.01,1.64-.5l.05-.06c.39-.5.41-1.16.11-1.67.59.05,1.18-.28,1.45-.85l.03-.06c.27-.57.15-1.22-.25-1.65.58-.08,1.08-.51,1.23-1.11l.02-.09c.15-.62-.12-1.22-.61-1.55.56-.19.97-.71,1-1.34v-.13s0-.02,0-.02Z"/>
            <g>
              <g>
                <polyline class="cls-5" points="96.05 128.07 84.93 123.25 84.93 118.39 76.74 118.39 76.74 123.25 65.59 128.14"/>
                <polygon class="cls-5" points="80.84 126.57 84.93 123.25 84.93 118.39 76.74 118.39 76.74 123.25 80.84 126.57"/>
                <polygon class="cls-5" points="80.84 126.57 77.94 128.95 75.25 123.86 76.74 122.56 80.84 126.57"/>
                <polygon class="cls-5" points="80.84 126.57 83.73 128.95 86.42 123.86 84.93 122.56 80.84 126.57"/>
                <polyline class="cls-6" points="82.72 128.12 81.84 129.98 80.84 129.98 79.83 129.98 78.95 128.12"/>
                <line class="cls-6" x1="82.53" y1="135.09" x2="81.84" y2="129.99"/>
                <line class="cls-6" x1="79.83" y1="129.99" x2="79.15" y2="135.09"/>
              </g>
              <path class="cls-5" d="m87.56,110.38c0,4.82,0-1.61,0,3.2-.18,3.86-3.16,7.61-6.7,7.59-3.51-.02-6.44-3.76-6.61-7.59,0-4.82,0,.87,0-3.95"/>
              <path class="cls-5" d="m74.25,109.65s2.92-1.59,3.8-4.32c0,0,2.85,4.65,9.51,5.08"/>
            </g>
          </g>
        </g>
        <g>
          <path class="cls-3" d="m50.86,48.67c11.29,0,20.5,9.11,20.6,20.42.1,10.88-8.24,19.86-18.91,20.72-.5.04-1,.07-1.5.07-.07,0-.14,0-.21,0-.56,0-1.12-.03-1.66-.07-10.51-.85-18.82-9.6-18.91-20.35-.1-11.38,9.04-20.69,20.42-20.8.06,0,.13,0,.19,0m0-1.5h-.2c-12.19.11-22.02,10.12-21.91,22.31.11,11.52,8.83,20.9,20.29,21.83.61.05,1.21.08,1.79.08h.23c.55,0,1.1-.03,1.62-.08,11.47-.93,20.39-10.69,20.28-22.23-.11-12.08-10.02-21.91-22.1-21.91h0Z"/>
          <g>
            <path class="cls-4" d="m63.52,68.59c.02-.62-.35-1.17-.89-1.41.5-.31.79-.91.68-1.52v-.07c-.12-.62-.59-1.08-1.17-1.2.42-.4.58-1.03.36-1.61l-.04-.1c-.24-.59-.81-.92-1.4-.9.35-.5.37-1.18,0-1.7l-.04-.05c-.36-.53-1-.75-1.59-.6.22-.56.08-1.24-.39-1.67,0,0-.03-.03-.03-.03-.47-.42-1.14-.49-1.67-.22.08-.59-.21-1.2-.77-1.5l-.07-.04c-.57-.3-1.24-.2-1.69.2-.07-.6-.52-1.12-1.14-1.27,0,0-.07-.02-.08-.02-.63-.14-1.23.15-1.55.67-.22-.57-.76-.98-1.41-.96h-.12c-.64.03-1.16.46-1.34,1.04-.36-.49-1.01-.72-1.62-.53l-.09.03c-.61.2-.99.74-1.01,1.35-.48-.38-1.16-.44-1.71-.1l-.05.03c-.54.33-.8.96-.68,1.55-.55-.24-1.21-.13-1.66.32l-.05.05c-.44.45-.54,1.11-.29,1.65-.58-.1-1.19.14-1.53.67l-.05.08c-.33.54-.26,1.19.11,1.66-.59.01-1.15.38-1.37.97l-.03.09c-.21.6,0,1.23.45,1.6-.58.14-1.04.61-1.13,1.23v.1c-.1.63.23,1.2.75,1.48-.54.25-.89.81-.86,1.43v.09c.05.63.48,1.13,1.05,1.29-.48.35-.71.97-.55,1.58l.03.09c.17.61.7,1.01,1.3,1.05-.4.45-.5,1.11-.2,1.68l.04.08c.3.56.9.83,1.49.74-.3.53-.24,1.22.19,1.7l.04.05c.41.48,1.07.63,1.63.42-.15.58.06,1.21.57,1.58l.08.05c.53.37,1.19.34,1.68-.01-.02.61.35,1.19.95,1.42l.1.04c.6.22,1.24.02,1.63-.44.14.59.65,1.06,1.29,1.13h.1s.06.01.09.01c.61.02,1.13-.34,1.37-.87.29.54.91.86,1.55.76,0,0,.07-.01.08-.01.64-.11,1.09-.61,1.18-1.21.42.44,1.08.6,1.67.34l.1-.05c.58-.27.89-.86.84-1.46.52.31,1.2.29,1.7-.11l.06-.05c.5-.4.66-1.05.45-1.62.58.19,1.24.01,1.64-.5l.05-.06c.39-.5.41-1.16.11-1.67.59.05,1.18-.28,1.45-.85l.03-.06c.27-.57.15-1.22-.25-1.65.58-.08,1.08-.51,1.23-1.11l.02-.09c.15-.62-.12-1.22-.61-1.55.56-.19.97-.71,1-1.34v-.13s0-.02,0-.02Z"/>
            <g>
              <g>
                <polyline class="cls-5" points="66.07 82.79 54.96 77.98 54.96 73.12 46.76 73.12 46.76 77.98 35.62 82.86"/>
                <polygon class="cls-5" points="50.86 81.3 54.96 77.98 54.96 73.12 46.76 73.12 46.76 77.98 50.86 81.3"/>
                <polygon class="cls-5" points="50.86 81.3 47.96 83.68 45.28 78.59 46.76 77.29 50.86 81.3"/>
                <polygon class="cls-5" points="50.86 81.3 53.76 83.68 56.44 78.59 54.96 77.29 50.86 81.3"/>
                <polyline class="cls-6" points="52.75 82.85 51.86 84.71 50.86 84.71 49.86 84.71 48.97 82.85"/>
                <line class="cls-6" x1="52.55" y1="89.82" x2="51.86" y2="84.71"/>
                <line class="cls-6" x1="49.86" y1="84.71" x2="49.17" y2="89.82"/>
              </g>
              <path class="cls-5" d="m57.58,65.11c0,4.82,0-1.61,0,3.2-.18,3.86-3.16,7.61-6.7,7.59-3.51-.02-6.44-3.76-6.61-7.59,0-4.82,0,.87,0-3.95"/>
              <path class="cls-5" d="m44.27,64.38s2.92-1.59,3.8-4.32c0,0,2.85,4.65,9.51,5.08"/>
            </g>
          </g>
        </g>
        <g>
          <path class="cls-3" d="m22.11,94.8c11.29,0,20.5,9.11,20.6,20.42.1,10.88-8.24,19.86-18.91,20.72-.5.04-1,.07-1.5.07-.07,0-.14,0-.21,0-.56,0-1.12-.03-1.66-.07-10.51-.85-18.82-9.6-18.92-20.35-.1-11.38,9.04-20.69,20.42-20.8.06,0,.13,0,.19,0m0-1.5h-.2C9.72,93.41-.11,103.42,0,115.61c.11,11.52,8.83,20.9,20.29,21.83.61.05,1.21.08,1.79.08h.23c.55,0,1.1-.03,1.62-.08,11.47-.93,20.39-10.69,20.28-22.23-.11-12.08-10.02-21.91-22.1-21.91h0Z"/>
          <g>
            <path class="cls-4" d="m34.77,114.72c.02-.62-.35-1.17-.89-1.41.5-.31.79-.91.68-1.52v-.07c-.12-.62-.59-1.08-1.17-1.2.42-.4.58-1.03.36-1.61l-.04-.1c-.24-.59-.81-.92-1.4-.9.35-.5.37-1.18,0-1.7l-.04-.05c-.36-.53-1-.75-1.59-.6.22-.56.08-1.24-.39-1.67,0,0-.03-.03-.03-.03-.47-.42-1.14-.49-1.67-.22.08-.59-.21-1.2-.77-1.5l-.07-.04c-.57-.3-1.24-.2-1.69.2-.07-.6-.52-1.12-1.14-1.27,0,0-.07-.02-.08-.02-.63-.14-1.23.15-1.55.67-.22-.57-.76-.98-1.41-.96h-.12c-.64.03-1.16.46-1.34,1.04-.36-.49-1.01-.72-1.62-.53l-.09.03c-.61.2-.99.74-1.01,1.35-.48-.38-1.16-.44-1.71-.1l-.05.03c-.54.33-.8.96-.68,1.55-.55-.24-1.21-.13-1.66.32l-.05.05c-.44.45-.54,1.11-.29,1.65-.58-.1-1.19.14-1.53.67l-.05.08c-.33.54-.26,1.19.11,1.66-.59.01-1.15.38-1.37.97l-.03.09c-.21.6,0,1.23.45,1.6-.58.14-1.04.61-1.13,1.23v.1c-.1.63.23,1.2.75,1.48-.54.25-.89.81-.86,1.43v.09c.05.63.48,1.13,1.05,1.29-.48.35-.71.97-.55,1.58l.03.09c.17.61.7,1.01,1.3,1.05-.4.45-.5,1.11-.2,1.68l.04.08c.3.56.9.83,1.49.74-.3.53-.24,1.22.19,1.7l.04.05c.41.48,1.07.63,1.63.42-.15.58.06,1.21.57,1.58l.08.05c.53.37,1.19.34,1.68-.01-.02.61.35,1.19.95,1.42l.1.04c.6.22,1.24.02,1.63-.44.14.59.65,1.06,1.29,1.13h.1s.06.01.09.01c.61.02,1.13-.34,1.37-.87.29.54.91.86,1.55.76,0,0,.07-.01.08-.01.64-.11,1.09-.61,1.18-1.21.42.44,1.08.6,1.67.34l.1-.05c.58-.27.89-.86.84-1.46.52.31,1.2.29,1.7-.11l.06-.05c.5-.4.66-1.05.45-1.62.58.19,1.24.01,1.64-.5l.05-.06c.39-.5.41-1.16.11-1.67.59.05,1.18-.28,1.45-.85l.03-.06c.27-.57.15-1.22-.25-1.65.58-.08,1.08-.51,1.23-1.11l.02-.09c.15-.62-.12-1.22-.61-1.55.56-.19.97-.71,1-1.34v-.13s0-.02,0-.02Z"/>
            <g>
              <g>
                <polyline class="cls-5" points="37.32 128.92 26.2 124.1 26.2 119.24 18.01 119.24 18.01 124.1 6.86 128.99"/>
                <polygon class="cls-5" points="22.11 127.43 26.2 124.1 26.2 119.24 18.01 119.24 18.01 124.1 22.11 127.43"/>
                <polygon class="cls-5" points="22.11 127.43 19.21 129.81 16.52 124.72 18.01 123.42 22.11 127.43"/>
                <polygon class="cls-5" points="22.11 127.43 25 129.81 27.69 124.72 26.2 123.42 22.11 127.43"/>
                <polyline class="cls-6" points="23.99 128.97 23.11 130.84 22.11 130.84 21.1 130.84 20.22 128.97"/>
                <line class="cls-6" x1="23.8" y1="135.94" x2="23.11" y2="130.84"/>
                <line class="cls-6" x1="21.1" y1="130.84" x2="20.42" y2="135.94"/>
              </g>
              <path class="cls-5" d="m28.83,111.24c0,4.82,0-1.61,0,3.2-.18,3.86-3.16,7.61-6.7,7.59-3.51-.02-6.44-3.76-6.61-7.59,0-4.82,0,.87,0-3.95"/>
              <path class="cls-5" d="m15.52,110.51s2.92-1.59,3.8-4.32c0,0,2.85,4.65,9.51,5.08"/>
            </g>
          </g>
        </g>
      </g>
      <g>
        <line class="cls-6" x1="141.09" y1="52.07" x2="152.69" y2="181.68"/>
        <polygon points="146.14 177.28 147.14 176.16 152.64 181.11 157.17 175.26 158.35 176.18 152.83 183.3 146.14 177.28"/>
      </g>
      <g>
        <line class="cls-6" x1="123.35" y1="52.07" x2="102.48" y2="181.7"/>
        <polygon points="97.21 175.81 98.46 174.98 102.57 181.13 108.4 176.58 109.33 177.76 102.22 183.3 97.21 175.81"/>
      </g>
      <g>
        <line class="cls-6" x1="105.14" y1="43.21" x2="81.7" y2="52.8"/>
        <polygon points="83.98 45.24 85.34 45.87 82.23 52.58 89.16 55.19 88.63 56.6 80.2 53.42 83.98 45.24"/>
      </g>
      <g>
        <line class="cls-6" x1="155.47" y1="43.21" x2="178.66" y2="52.24"/>
        <polygon points="171.8 56.15 171.25 54.76 178.12 52.03 174.9 45.37 176.25 44.72 180.17 52.83 171.8 56.15"/>
      </g>
      <g>
        <g>
          <polygon class="cls-1" points="82.31 181.64 73.9 180.19 73.9 173.8 79.08 174.24 80.47 178.92 82.31 181.64"/>
          <path class="cls-2" d="m76.24,172.92c.98-.36,2.32.09,3.26,1.66.71,1.18.74,3.41.89,3.86.29.91,1.27,1.93,3.26,1.51,0,0-.16,1.49-1.29,1.71"/>
          <path class="cls-2" d="m78.69,165.23c0,3.56-2.89,6.45-6.45,6.45s-6.45-2.89-6.45-6.45,2.89-6.51,6.45-6.51,6.45,2.94,6.45,6.51Z"/>
          <g>
            <path class="cls-5" d="m85.97,184.37c-.18-.93-.84-1.71-1.76-2.08l-8.83-2.96v-4.4h-6.29v4.4l-8.83,2.96c-.92.38-1.58,1.16-1.76,2.08"/>
            <path class="cls-5" d="m78.34,166.47c0,4.42,0-.81,0,3.61-.16,3.54-2.9,6.98-6.15,6.96-3.22-.02-5.91-3.45-6.07-6.96,0-4.42,0,.9,0-3.52l5.63-.06c1.39-.02,2.6-.93,3-2.26l.15-.49.04.19c.31,1.59,1.78,2.69,3.4,2.54h0Z"/>
            <path class="cls-5" d="m64.8,180.92s2.35,3.25,7.43,3.25,7.43-3.25,7.43-3.25"/>
          </g>
        </g>
        <g>
          <polygon class="cls-1" points="59.44 225.49 51.03 224.04 51.03 217.65 56.22 218.09 57.61 222.77 59.44 225.49"/>
          <path class="cls-2" d="m53.38,216.77c.98-.36,2.32.09,3.26,1.66.71,1.18.74,3.41.89,3.86.29.91,1.27,1.93,3.26,1.51,0,0-.16,1.49-1.29,1.71"/>
          <path class="cls-2" d="m55.82,209.08c0,3.56-2.89,6.45-6.45,6.45s-6.45-2.89-6.45-6.45,2.89-6.51,6.45-6.51,6.45,2.94,6.45,6.51Z"/>
          <g>
            <path class="cls-5" d="m63.1,228.22c-.18-.93-.84-1.71-1.76-2.08l-8.83-2.96v-4.4h-6.29v4.4l-8.83,2.96c-.92.38-1.58,1.16-1.76,2.08"/>
            <path class="cls-5" d="m55.48,210.32c0,4.42,0-.81,0,3.61-.16,3.54-2.9,6.98-6.15,6.96-3.22-.02-5.91-3.45-6.07-6.96,0-4.42,0,.9,0-3.52l5.63-.06c1.39-.02,2.6-.93,3-2.26l.15-.49.04.19c.31,1.59,1.78,2.69,3.4,2.54h0Z"/>
            <path class="cls-5" d="m41.94,224.77s2.35,3.25,7.43,3.25,7.43-3.25,7.43-3.25"/>
          </g>
        </g>
        <g>
          <polygon class="cls-1" points="104.58 225.46 96.17 224.01 96.17 217.62 101.35 218.06 102.74 222.74 104.58 225.46"/>
          <path class="cls-2" d="m98.52,216.74c.98-.36,2.32.09,3.26,1.66.71,1.18.74,3.41.89,3.86.29.91,1.27,1.93,3.26,1.51,0,0-.16,1.49-1.29,1.71"/>
          <path class="cls-2" d="m100.96,209.05c0,3.56-2.89,6.45-6.45,6.45s-6.45-2.89-6.45-6.45,2.89-6.51,6.45-6.51,6.45,2.94,6.45,6.51Z"/>
          <g>
            <path class="cls-5" d="m108.24,228.19c-.18-.93-.84-1.71-1.76-2.08l-8.83-2.96v-4.4h-6.29v4.4l-8.83,2.96c-.92.38-1.58,1.16-1.76,2.08"/>
            <path class="cls-5" d="m100.61,210.29c0,4.42,0-.81,0,3.61-.16,3.54-2.9,6.98-6.15,6.96-3.22-.02-5.91-3.45-6.07-6.96,0-4.42,0,.9,0-3.52l5.63-.06c1.39-.02,2.6-.93,3-2.26l.15-.49.04.19c.31,1.59,1.78,2.69,3.4,2.54h0Z"/>
            <path class="cls-5" d="m87.07,224.74s2.35,3.25,7.43,3.25,7.43-3.25,7.43-3.25"/>
          </g>
        </g>
      </g>
      <g>
        <g>
          <g>
            <polygon class="cls-1" points="218.51 85.44 210.1 83.98 210.1 77.6 215.29 78.04 216.68 82.72 218.51 85.44"/>
            <path class="cls-2" d="m212.45,76.71c.98-.36,2.32.09,3.26,1.66.71,1.18.74,3.41.89,3.86.29.91,1.27,1.93,3.26,1.51,0,0-.16,1.49-1.29,1.71"/>
            <path class="cls-2" d="m214.89,69.03c0,3.56-2.89,6.45-6.45,6.45s-6.45-2.89-6.45-6.45,2.89-6.51,6.45-6.51,6.45,2.94,6.45,6.51Z"/>
            <g>
              <path class="cls-5" d="m222.17,88.17c-.18-.93-.84-1.71-1.76-2.08l-8.83-2.96v-4.4h-6.29v4.4l-8.83,2.96c-.92.38-1.58,1.16-1.76,2.08"/>
              <path class="cls-5" d="m214.55,70.27c0,4.42,0-.81,0,3.61-.16,3.54-2.9,6.98-6.15,6.96-3.22-.02-5.91-3.45-6.07-6.96,0-4.42,0,.9,0-3.52l5.63-.06c1.39-.02,2.6-.93,3-2.26l.15-.49.04.19c.31,1.59,1.78,2.69,3.4,2.54h0Z"/>
              <path class="cls-5" d="m201.01,84.72s2.35,3.25,7.43,3.25,7.43-3.25,7.43-3.25"/>
            </g>
          </g>
          <path class="cls-3" d="m208.44,52.11c11.29,0,20.5,9.11,20.6,20.42.1,10.88-8.24,19.86-18.91,20.72-.5.04-1,.07-1.5.07-.07,0-.14,0-.21,0-.56,0-1.12-.03-1.66-.07-10.51-.85-18.82-9.6-18.91-20.35-.1-11.38,9.04-20.69,20.42-20.8.06,0,.13,0,.19,0m0-1.5h-.2c-12.19.11-22.02,10.12-21.91,22.31.11,11.52,8.83,20.9,20.29,21.83.61.05,1.21.08,1.79.08h.23c.55,0,1.1-.03,1.62-.08,11.47-.93,20.39-10.69,20.28-22.23-.11-12.08-10.02-21.91-22.1-21.91h0Z"/>
        </g>
        <g>
          <g>
            <polygon class="cls-1" points="189.5 129.59 181.09 128.14 181.09 121.75 186.27 122.2 187.66 126.88 189.5 129.59"/>
            <path class="cls-2" d="m183.43,120.87c.98-.36,2.32.09,3.26,1.66.71,1.18.74,3.41.89,3.86.29.91,1.27,1.93,3.26,1.51,0,0-.16,1.49-1.29,1.71"/>
            <path class="cls-2" d="m185.88,113.18c0,3.56-2.89,6.45-6.45,6.45s-6.45-2.89-6.45-6.45,2.89-6.51,6.45-6.51,6.45,2.94,6.45,6.51Z"/>
            <g>
              <path class="cls-5" d="m193.16,132.32c-.18-.93-.84-1.71-1.76-2.08l-8.83-2.96v-4.4h-6.29v4.4l-8.83,2.96c-.92.38-1.58,1.16-1.76,2.08"/>
              <path class="cls-5" d="m185.53,114.42c0,4.42,0-.81,0,3.61-.16,3.54-2.9,6.98-6.15,6.96-3.22-.02-5.91-3.45-6.07-6.96,0-4.42,0,.9,0-3.52l5.63-.06c1.39-.02,2.6-.93,3-2.26l.15-.49.04.19c.31,1.59,1.78,2.69,3.4,2.54h0Z"/>
              <path class="cls-5" d="m171.99,128.88s2.35,3.25,7.43,3.25,7.43-3.25,7.43-3.25"/>
            </g>
          </g>
          <path class="cls-3" d="m179.43,96.27c11.3,0,20.5,9.11,20.6,20.42.1,10.88-8.24,19.86-18.91,20.72-.5.04-1,.07-1.5.07-.07,0-.14,0-.21,0-.56,0-1.12-.03-1.66-.07-10.51-.85-18.82-9.6-18.91-20.35-.1-11.38,9.04-20.69,20.42-20.8.06,0,.13,0,.19,0m0-1.5v1.5-1.5h-.2c-12.19.11-22.02,10.12-21.91,22.31.11,11.52,8.83,20.9,20.29,21.83.61.05,1.21.08,1.79.08h.23c.55,0,1.1-.03,1.62-.08,11.47-.93,20.39-10.69,20.28-22.23-.11-12.08-10.02-21.91-22.1-21.91h0Z"/>
        </g>
        <g>
          <g>
            <polygon class="cls-1" points="249.51 129.59 241.1 128.14 241.1 121.75 246.29 122.2 247.68 126.88 249.51 129.59"/>
            <path class="cls-2" d="m243.45,120.87c.98-.36,2.32.09,3.26,1.66.71,1.18.74,3.41.89,3.86.29.91,1.27,1.93,3.26,1.51,0,0-.16,1.49-1.29,1.71"/>
            <path class="cls-2" d="m245.89,113.18c0,3.56-2.89,6.45-6.45,6.45s-6.45-2.89-6.45-6.45,2.89-6.51,6.45-6.51,6.45,2.94,6.45,6.51Z"/>
            <g>
              <path class="cls-5" d="m253.17,132.32c-.18-.93-.84-1.71-1.76-2.08l-8.83-2.96v-4.4h-6.29v4.4l-8.83,2.96c-.92.38-1.58,1.16-1.76,2.08"/>
              <path class="cls-5" d="m245.55,114.42c0,4.42,0-.81,0,3.61-.16,3.54-2.9,6.98-6.15,6.96-3.22-.02-5.91-3.45-6.07-6.96,0-4.42,0,.9,0-3.52l5.63-.06c1.39-.02,2.6-.93,3-2.26l.15-.49.04.19c.31,1.59,1.78,2.69,3.4,2.54h0Z"/>
              <path class="cls-5" d="m232.01,128.88s2.35,3.25,7.43,3.25,7.43-3.25,7.43-3.25"/>
            </g>
          </g>
          <path class="cls-3" d="m239.44,96.27c11.3,0,20.5,9.11,20.6,20.42.1,10.88-8.24,19.86-18.91,20.72-.5.04-1,.07-1.5.07-.07,0-.14,0-.21,0-.56,0-1.12-.03-1.66-.07-10.51-.85-18.82-9.6-18.91-20.35-.1-11.38,9.04-20.69,20.42-20.8.06,0,.13,0,.19,0m0-1.5v1.5-1.5h-.2c-12.19.11-22.02,10.12-21.91,22.31.11,11.52,8.83,20.9,20.29,21.83.61.05,1.21.08,1.79.08h.23c.55,0,1.1-.03,1.62-.08,11.47-.93,20.39-10.69,20.28-22.23-.11-12.08-10.02-21.91-22.1-21.91h0Z"/>
        </g>
      </g>
      <g>
        <g>
          <path class="cls-4" d="m168.29,211.27c.02-.62-.35-1.17-.89-1.41.5-.31.79-.91.68-1.52v-.07c-.12-.62-.59-1.08-1.17-1.2.42-.4.58-1.03.36-1.61l-.04-.1c-.24-.59-.81-.92-1.4-.9.35-.5.37-1.18,0-1.7l-.04-.05c-.36-.53-1-.75-1.59-.6.22-.56.08-1.24-.39-1.67,0,0-.03-.03-.03-.03-.47-.42-1.14-.49-1.67-.22.08-.59-.21-1.2-.77-1.5l-.07-.04c-.57-.3-1.24-.2-1.69.2-.07-.6-.52-1.12-1.14-1.27,0,0-.07-.02-.08-.02-.63-.14-1.23.15-1.55.67-.22-.57-.76-.98-1.41-.96h-.12c-.64.03-1.16.46-1.34,1.04-.36-.49-1.01-.72-1.62-.53l-.09.03c-.61.2-.99.74-1.01,1.35-.48-.38-1.16-.44-1.71-.1l-.05.03c-.54.33-.8.96-.68,1.55-.55-.24-1.21-.13-1.66.32l-.05.05c-.44.45-.54,1.11-.29,1.65-.58-.1-1.19.14-1.53.67l-.05.08c-.33.54-.26,1.19.11,1.66-.59.01-1.15.38-1.37.97l-.03.09c-.21.6,0,1.23.45,1.6-.58.14-1.04.61-1.13,1.23v.1c-.1.63.23,1.2.75,1.48-.54.25-.89.81-.86,1.43v.09c.05.63.48,1.13,1.05,1.29-.48.35-.71.97-.55,1.58l.03.09c.17.61.7,1.01,1.3,1.05-.4.45-.5,1.11-.2,1.68l.04.08c.3.56.9.83,1.49.74-.3.53-.24,1.22.19,1.7l.04.05c.41.48,1.07.63,1.63.42-.15.58.06,1.21.57,1.58l.08.05c.53.37,1.19.34,1.68-.01-.02.61.35,1.19.95,1.42l.1.04c.6.22,1.24.02,1.63-.44.14.59.65,1.06,1.29,1.13h.1s.06.01.09.01c.61.02,1.13-.34,1.37-.87.29.54.91.86,1.55.76,0,0,.07-.01.08-.01.64-.11,1.09-.61,1.18-1.21.42.44,1.08.6,1.67.34l.1-.05c.58-.27.89-.86.84-1.46.52.31,1.2.29,1.7-.11l.06-.05c.5-.4.66-1.05.45-1.62.58.19,1.24.01,1.64-.5l.05-.06c.39-.5.41-1.16.11-1.67.59.05,1.18-.28,1.45-.85l.03-.06c.27-.57.15-1.22-.25-1.65.58-.08,1.08-.51,1.23-1.11l.02-.09c.15-.62-.12-1.22-.61-1.55.56-.19.97-.71,1-1.34v-.13s0-.02,0-.02Z"/>
          <g>
            <g>
              <polyline class="cls-5" points="170.84 225.47 159.72 220.65 159.72 215.79 151.53 215.79 151.53 220.65 140.38 225.54"/>
              <polygon class="cls-5" points="155.63 223.97 159.72 220.65 159.72 215.79 151.53 215.79 151.53 220.65 155.63 223.97"/>
              <polygon class="cls-5" points="155.63 223.97 152.73 226.35 150.04 221.27 151.53 219.97 155.63 223.97"/>
              <polygon class="cls-5" points="155.63 223.97 158.52 226.35 161.21 221.27 159.72 219.97 155.63 223.97"/>
              <polyline class="cls-6" points="157.51 225.52 156.63 227.39 155.63 227.39 154.62 227.39 153.74 225.52"/>
              <line class="cls-6" x1="157.32" y1="232.49" x2="156.63" y2="227.39"/>
              <line class="cls-6" x1="154.62" y1="227.39" x2="153.93" y2="232.49"/>
            </g>
            <path class="cls-5" d="m162.35,207.79c0,4.82,0-1.61,0,3.2-.18,3.86-3.16,7.61-6.7,7.59-3.51-.02-6.44-3.76-6.61-7.59,0-4.82,0,.87,0-3.95"/>
            <path class="cls-5" d="m149.04,207.06s2.92-1.59,3.8-4.32c0,0,2.85,4.65,9.51,5.08"/>
          </g>
        </g>
        <g>
          <path class="cls-4" d="m220.66,210.98c.02-.62-.35-1.17-.89-1.41.5-.31.79-.91.68-1.52v-.07c-.12-.62-.59-1.08-1.17-1.2.42-.4.58-1.03.36-1.61l-.04-.1c-.24-.59-.81-.92-1.4-.9.35-.5.37-1.18,0-1.7l-.04-.05c-.36-.53-1-.75-1.59-.6.22-.56.08-1.24-.39-1.67,0,0-.03-.03-.03-.03-.47-.42-1.14-.49-1.67-.22.08-.59-.21-1.2-.77-1.5l-.07-.04c-.57-.3-1.24-.2-1.69.2-.07-.6-.52-1.12-1.14-1.27,0,0-.07-.02-.08-.02-.63-.14-1.23.15-1.55.67-.22-.57-.76-.98-1.41-.96h-.12c-.64.03-1.16.46-1.34,1.04-.36-.49-1.01-.72-1.62-.53l-.09.03c-.61.2-.99.74-1.01,1.35-.48-.38-1.16-.44-1.71-.1l-.05.03c-.54.33-.8.96-.68,1.55-.55-.24-1.21-.13-1.66.32l-.05.05c-.44.45-.54,1.11-.29,1.65-.58-.1-1.19.14-1.53.67l-.05.08c-.33.54-.26,1.19.11,1.66-.59.01-1.15.38-1.37.97l-.03.09c-.21.6,0,1.23.45,1.6-.58.14-1.04.61-1.13,1.23v.1c-.1.63.23,1.2.75,1.48-.54.25-.89.81-.86,1.43v.09c.05.63.48,1.13,1.05,1.29-.48.35-.71.97-.55,1.58l.03.09c.17.61.7,1.01,1.3,1.05-.4.45-.5,1.11-.2,1.68l.04.08c.3.56.9.83,1.49.74-.3.53-.24,1.22.19,1.7l.04.05c.41.48,1.07.63,1.63.42-.15.58.06,1.21.57,1.58l.08.05c.53.37,1.19.34,1.68-.01-.02.61.35,1.19.95,1.42l.1.04c.6.22,1.24.02,1.63-.44.14.59.65,1.06,1.29,1.13h.1s.06.01.09.01c.61.02,1.13-.34,1.37-.87.29.54.91.86,1.55.76,0,0,.07-.01.08-.01.64-.11,1.09-.61,1.18-1.21.42.44,1.08.6,1.67.34l.1-.05c.58-.27.89-.86.84-1.46.52.31,1.2.29,1.7-.11l.06-.05c.5-.4.66-1.05.45-1.62.58.19,1.24.01,1.64-.5l.05-.06c.39-.5.41-1.16.11-1.67.59.05,1.18-.28,1.45-.85l.03-.06c.27-.57.15-1.22-.25-1.65.58-.08,1.08-.51,1.23-1.11l.02-.09c.15-.62-.12-1.22-.61-1.55.56-.19.97-.71,1-1.34v-.13s0-.02,0-.02Z"/>
          <g>
            <g>
              <polyline class="cls-5" points="223.21 225.19 212.1 220.37 212.1 215.51 203.9 215.51 203.9 220.37 192.76 225.26"/>
              <polygon class="cls-5" points="208 223.69 212.1 220.37 212.1 215.51 203.9 215.51 203.9 220.37 208 223.69"/>
              <polygon class="cls-5" points="208 223.69 205.11 226.07 202.42 220.98 203.9 219.68 208 223.69"/>
              <polygon class="cls-5" points="208 223.69 210.9 226.07 213.58 220.98 212.1 219.68 208 223.69"/>
              <polyline class="cls-6" points="209.89 225.24 209 227.1 208 227.1 207 227.1 206.12 225.24"/>
              <line class="cls-6" x1="209.69" y1="232.21" x2="209.01" y2="227.1"/>
              <line class="cls-6" x1="207" y1="227.1" x2="206.31" y2="232.21"/>
            </g>
            <path class="cls-5" d="m214.72,207.5c0,4.82,0-1.61,0,3.2-.18,3.86-3.16,7.61-6.7,7.59-3.51-.02-6.44-3.76-6.61-7.59,0-4.82,0,.87,0-3.95"/>
            <path class="cls-5" d="m201.41,206.77s2.92-1.59,3.8-4.32c0,0,2.85,4.65,9.51,5.08"/>
          </g>
        </g>
        <g>
          <path class="cls-4" d="m192.76,171.41c.02-.62-.35-1.17-.89-1.41.5-.31.79-.91.68-1.52v-.07c-.12-.62-.59-1.08-1.17-1.2.42-.4.58-1.03.36-1.61l-.04-.1c-.24-.59-.81-.92-1.4-.9.35-.5.37-1.18,0-1.7l-.04-.05c-.36-.53-1-.75-1.59-.6.22-.56.08-1.24-.39-1.67,0,0-.03-.03-.03-.03-.47-.42-1.14-.49-1.67-.22.08-.59-.21-1.2-.77-1.5l-.07-.04c-.57-.3-1.24-.2-1.69.2-.07-.6-.52-1.12-1.14-1.27,0,0-.07-.02-.08-.02-.63-.14-1.23.15-1.55.67-.22-.57-.76-.98-1.41-.96h-.12c-.64.03-1.16.46-1.34,1.04-.36-.49-1.01-.72-1.62-.53l-.09.03c-.61.2-.99.74-1.01,1.35-.48-.38-1.16-.44-1.71-.1l-.05.03c-.54.33-.8.96-.68,1.55-.55-.24-1.21-.13-1.66.32l-.05.05c-.44.45-.54,1.11-.29,1.65-.58-.1-1.19.14-1.53.67l-.05.08c-.33.54-.26,1.19.11,1.66-.59.01-1.15.38-1.37.97l-.03.09c-.21.6,0,1.23.45,1.6-.58.14-1.04.61-1.13,1.23v.1c-.1.63.23,1.2.75,1.48-.54.25-.89.81-.86,1.43v.09c.05.63.48,1.13,1.05,1.29-.48.35-.71.97-.55,1.58l.03.09c.17.61.7,1.01,1.3,1.05-.4.45-.5,1.11-.2,1.68l.04.08c.3.56.9.83,1.49.74-.3.53-.24,1.22.19,1.7l.04.05c.41.48,1.07.63,1.63.42-.15.58.06,1.21.57,1.58l.08.05c.53.37,1.19.34,1.68-.01-.02.61.35,1.19.95,1.42l.1.04c.6.22,1.24.02,1.63-.44.14.59.65,1.06,1.29,1.13h.1s.06.01.09.01c.61.02,1.13-.34,1.37-.87.29.54.91.86,1.55.76,0,0,.07-.01.08-.01.64-.11,1.09-.61,1.18-1.21.42.44,1.08.6,1.67.34l.1-.05c.58-.27.89-.86.84-1.46.52.31,1.2.29,1.7-.11l.06-.05c.5-.4.66-1.05.45-1.62.58.19,1.24.01,1.64-.5l.05-.06c.39-.5.41-1.16.11-1.67.59.05,1.18-.28,1.45-.85l.03-.06c.27-.57.15-1.22-.25-1.65.58-.08,1.08-.51,1.23-1.11l.02-.09c.15-.62-.12-1.22-.61-1.55.56-.19.97-.71,1-1.34v-.13s0-.02,0-.02Z"/>
          <g>
            <g>
              <polyline class="cls-5" points="195.31 185.61 184.19 180.8 184.19 175.94 176 175.94 176 180.8 164.85 185.68"/>
              <polygon class="cls-5" points="180.1 184.12 184.19 180.8 184.19 175.94 176 175.94 176 180.8 180.1 184.12"/>
              <polygon class="cls-5" points="180.1 184.12 177.2 186.5 174.51 181.41 176 180.11 180.1 184.12"/>
              <polygon class="cls-5" points="180.1 184.12 182.99 186.5 185.68 181.41 184.19 180.11 180.1 184.12"/>
              <polyline class="cls-6" points="181.98 185.67 181.1 187.53 180.1 187.53 179.09 187.53 178.21 185.67"/>
              <line class="cls-6" x1="181.79" y1="192.64" x2="181.1" y2="187.53"/>
              <line class="cls-6" x1="179.09" y1="187.53" x2="178.4" y2="192.64"/>
            </g>
            <path class="cls-5" d="m186.82,167.93c0,4.82,0-1.61,0,3.2-.18,3.86-3.16,7.61-6.7,7.59-3.51-.02-6.44-3.76-6.61-7.59,0-4.82,0,.87,0-3.95"/>
            <path class="cls-5" d="m173.51,167.2s2.92-1.59,3.8-4.32c0,0,2.85,4.65,9.51,5.08"/>
          </g>
        </g>
      </g>
    </g>
  </g>
</svg>