<?xml version="1.0" encoding="UTF-8"?>
<svg id="Layer_2" data-name="Layer 2" xmlns="http://www.w3.org/2000/svg" viewBox="0 0 277.15 193.52">
  <defs>
    <style>
      .cls-1, .cls-2 {
        fill: #a59a6e;
      }

      .cls-3 {
        fill: #aa2734;
      }

      .cls-4 {
        fill: #54565a;
      }

      .cls-4, .cls-2, .cls-5, .cls-6 {
        stroke: #000;
        stroke-linecap: round;
        stroke-linejoin: round;
        stroke-width: 1.5px;
      }

      .cls-5 {
        fill: #fff;
      }

      .cls-6 {
        fill: none;
      }
    </style>
  </defs>
  <g id="Content">
    <g>
      <g>
        <path class="cls-3" d="m137.9,1.5c11.18,0,20.3,9.02,20.4,20.22.1,10.77-8.16,19.66-18.73,20.52-.49.04-.99.07-1.49.07-.07,0-.14,0-.21,0-.55,0-1.1-.03-1.65-.07-10.41-.84-18.63-9.51-18.73-20.15-.1-11.27,8.95-20.49,20.22-20.59.06,0,.13,0,.19,0m0-1.5v1.5V0h-.2c-12.08.11-21.81,10.03-21.7,22.1.1,11.41,8.75,20.71,20.11,21.63.6.05,1.2.07,1.77.07h.23c.55,0,1.09-.03,1.6-.08,11.37-.92,20.2-10.6,20.1-22.03-.11-11.97-9.93-21.71-21.9-21.71h0Z"/>
        <g>
          <path class="cls-4" d="m150.44,21.22c.02-.62-.35-1.16-.88-1.39.5-.31.78-.9.67-1.51v-.07c-.12-.61-.59-1.07-1.16-1.19.42-.4.58-1.02.36-1.59l-.04-.1c-.24-.58-.8-.91-1.39-.9.34-.49.36-1.17,0-1.69l-.04-.05c-.36-.52-.99-.74-1.57-.59.22-.56.08-1.22-.38-1.65,0,0-.03-.03-.03-.03-.47-.42-1.12-.49-1.65-.22.08-.59-.21-1.19-.76-1.49l-.07-.04c-.56-.3-1.23-.2-1.68.2-.07-.6-.51-1.11-1.13-1.26,0,0-.07-.02-.08-.02-.62-.14-1.22.15-1.53.66-.21-.56-.76-.97-1.39-.95h-.12c-.63.03-1.15.45-1.33,1.03-.36-.48-1-.71-1.61-.52l-.09.03c-.6.19-.98.74-1,1.33-.47-.38-1.15-.44-1.7-.1l-.05.03c-.54.33-.79.95-.68,1.53-.54-.24-1.2-.13-1.64.32l-.05.05c-.44.45-.53,1.1-.29,1.63-.58-.1-1.18.14-1.51.67l-.05.08c-.33.54-.26,1.18.11,1.64-.59.01-1.14.38-1.35.96l-.03.09c-.21.59,0,1.21.45,1.59-.57.13-1.03.6-1.12,1.22v.1c-.09.62.23,1.19.74,1.46-.53.25-.89.8-.85,1.42v.09c.05.63.48,1.12,1.04,1.28-.47.35-.71.96-.55,1.57l.03.09c.17.6.69,1,1.28,1.04-.39.44-.49,1.1-.2,1.66l.04.08c.3.55.89.82,1.48.73-.29.53-.24,1.21.19,1.69l.04.05c.41.47,1.05.62,1.61.42-.15.57.06,1.2.57,1.56l.08.05c.52.36,1.18.33,1.66-.01-.02.6.34,1.18.94,1.41l.1.04c.6.22,1.23.02,1.61-.44.14.59.64,1.05,1.28,1.12h.1s.06.01.09.01c.6.02,1.12-.33,1.36-.86.29.53.9.85,1.53.75,0,0,.07-.01.08-.01.63-.11,1.07-.6,1.17-1.2.41.44,1.07.59,1.65.34l.1-.05c.57-.27.89-.85.83-1.44.51.31,1.18.29,1.68-.11l.06-.05c.5-.4.65-1.04.45-1.61.57.19,1.23.01,1.62-.49l.05-.06c.38-.49.4-1.15.11-1.65.59.05,1.17-.27,1.44-.84l.03-.06c.27-.56.15-1.21-.24-1.64.57-.08,1.07-.5,1.22-1.1l.02-.09c.14-.61-.12-1.2-.6-1.53.55-.19.96-.7.99-1.33v-.13s0-.02,0-.02Z"/>
          <g>
            <g>
              <polyline class="cls-5" points="152.96 35.29 141.96 30.52 141.96 25.7 133.84 25.7 133.84 30.52 122.81 35.35"/>
              <polygon class="cls-5" points="137.9 33.8 141.96 30.52 141.96 25.7 133.84 25.7 133.84 30.52 137.9 33.8"/>
              <polygon class="cls-5" points="137.9 33.8 135.03 36.16 132.37 31.12 133.84 29.83 137.9 33.8"/>
              <polygon class="cls-5" points="137.9 33.8 140.77 36.16 143.43 31.12 141.96 29.83 137.9 33.8"/>
              <polyline class="cls-6" points="139.77 35.34 138.89 37.18 137.9 37.18 136.91 37.18 136.03 35.34"/>
              <line class="cls-6" x1="139.57" y1="42.24" x2="138.89" y2="37.18"/>
              <line class="cls-6" x1="136.91" y1="37.18" x2="136.23" y2="42.24"/>
            </g>
            <path class="cls-5" d="m144.56,17.78c0,4.77,0-1.6,0,3.17-.17,3.82-3.13,7.54-6.63,7.51-3.47-.02-6.37-3.72-6.55-7.51,0-4.77,0,.86,0-3.91"/>
            <path class="cls-5" d="m131.38,17.05s2.89-1.57,3.77-4.28c0,0,2.82,4.61,9.41,5.03"/>
          </g>
        </g>
      </g>
      <g>
        <line class="cls-6" x1="112.43" y1="42.79" x2="82.28" y2="58.6"/>
        <polygon points="83.83 50.86 85.25 51.36 82.79 58.34 89.93 60.28 89.53 61.73 80.84 59.36 83.83 50.86"/>
      </g>
      <g>
        <line class="cls-6" x1="162.26" y1="42.79" x2="192.52" y2="58.61"/>
        <polygon points="185.28 61.74 184.88 60.29 192.01 58.34 189.54 51.37 190.96 50.87 193.97 59.36 185.28 61.74"/>
      </g>
      <g>
        <line class="cls-6" x1="137.98" y1="49.88" x2="137.93" y2="67.89"/>
        <polygon points="131.81 62.9 132.91 61.88 137.93 67.32 142.98 61.91 144.07 62.94 137.92 69.52 131.81 62.9"/>
      </g>
      <g>
        <line class="cls-6" x1="232.44" y1="124.16" x2="220.38" y2="142.7"/>
        <polygon points="217.95 135.18 219.43 134.93 220.69 142.21 227.87 140.42 228.23 141.88 219.49 144.06 217.95 135.18"/>
      </g>
      <g>
        <line class="cls-6" x1="64.89" y1="122.03" x2="70.91" y2="142.5"/>
        <polygon points="63.62 139.46 64.39 138.17 70.74 141.95 74.05 135.33 75.39 136 71.36 144.06 63.62 139.46"/>
      </g>
      <g>
        <line class="cls-6" x1="150.63" y1="124.16" x2="142.66" y2="140.73"/>
        <polygon points="139.29 133.59 140.72 133.14 142.91 140.21 149.8 137.51 150.34 138.91 141.96 142.19 139.29 133.59"/>
      </g>
      <g>
        <path class="cls-3" d="m163.56,76.59c11.18,0,20.3,9.02,20.4,20.22.1,10.77-8.16,19.66-18.73,20.52-.49.04-.99.07-1.49.07-.07,0-.14,0-.21,0-.55,0-1.1-.03-1.65-.07-10.41-.84-18.63-9.51-18.73-20.15-.1-11.27,8.95-20.49,20.22-20.59.06,0,.13,0,.19,0m0-1.5v1.5-1.5h-.2c-12.08.11-21.81,10.03-21.7,22.1.1,11.41,8.75,20.71,20.11,21.63.6.05,1.19.07,1.77.07h.23c.55,0,1.09-.03,1.6-.08,11.37-.92,20.2-10.6,20.1-22.03-.11-11.97-9.93-21.71-21.9-21.71h0Z"/>
        <g>
          <path class="cls-4" d="m176.1,96.31c.02-.62-.35-1.16-.88-1.39.5-.31.78-.9.67-1.51v-.07c-.12-.61-.59-1.07-1.16-1.19.42-.4.58-1.02.36-1.59l-.04-.1c-.24-.58-.8-.91-1.39-.9.34-.49.36-1.17,0-1.69l-.04-.05c-.36-.52-.99-.74-1.57-.59.22-.56.08-1.22-.38-1.65,0,0-.03-.03-.03-.03-.47-.42-1.12-.49-1.65-.22.08-.59-.21-1.19-.76-1.49l-.07-.04c-.56-.3-1.23-.2-1.68.2-.07-.6-.51-1.11-1.13-1.26,0,0-.07-.02-.08-.02-.62-.14-1.22.15-1.53.66-.21-.56-.76-.97-1.39-.95h-.12c-.63.03-1.15.45-1.33,1.03-.36-.48-1-.71-1.61-.52l-.09.03c-.6.19-.98.74-1,1.33-.47-.38-1.15-.44-1.7-.1l-.05.03c-.54.33-.79.95-.68,1.53-.54-.24-1.2-.13-1.64.32l-.05.05c-.44.45-.53,1.1-.29,1.63-.58-.1-1.18.14-1.51.67l-.05.08c-.33.54-.26,1.18.11,1.64-.59.01-1.14.38-1.35.96l-.03.09c-.21.59,0,1.21.45,1.59-.57.13-1.03.6-1.12,1.22v.1c-.09.62.23,1.19.74,1.46-.53.25-.89.8-.85,1.42v.09c.05.63.48,1.12,1.04,1.28-.47.35-.71.96-.55,1.57l.03.09c.17.6.69,1,1.28,1.04-.39.44-.49,1.1-.2,1.66l.04.08c.3.55.89.82,1.48.73-.29.53-.24,1.21.19,1.69l.04.05c.41.47,1.05.62,1.61.42-.15.57.06,1.2.57,1.56l.08.05c.52.36,1.18.33,1.66-.01-.02.6.34,1.18.94,1.41l.1.04c.6.22,1.23.02,1.61-.44.14.59.64,1.05,1.28,1.12h.1s.06.01.09.01c.6.02,1.12-.33,1.36-.86.29.53.9.85,1.53.75,0,0,.07-.01.08-.01.63-.11,1.07-.6,1.17-1.2.41.44,1.07.59,1.65.34l.1-.05c.57-.27.89-.85.83-1.44.51.31,1.18.29,1.68-.11l.06-.05c.5-.4.65-1.04.45-1.61.57.19,1.23.01,1.62-.49l.05-.06c.38-.49.4-1.15.11-1.65.59.05,1.17-.27,1.44-.84l.03-.06c.27-.56.15-1.21-.24-1.64.57-.08,1.07-.5,1.22-1.1l.02-.09c.14-.61-.12-1.2-.6-1.53.55-.19.96-.7.99-1.33v-.13s0-.02,0-.02Z"/>
          <g>
            <g>
              <polyline class="cls-5" points="178.62 110.38 167.62 105.61 167.62 100.8 159.5 100.8 159.5 105.61 148.47 110.45"/>
              <polygon class="cls-5" points="163.56 108.9 167.62 105.61 167.62 100.8 159.5 100.8 159.5 105.61 163.56 108.9"/>
              <polygon class="cls-5" points="163.56 108.9 160.69 111.25 158.03 106.22 159.5 104.93 163.56 108.9"/>
              <polygon class="cls-5" points="163.56 108.9 166.43 111.25 169.09 106.22 167.62 104.93 163.56 108.9"/>
              <polyline class="cls-6" points="165.43 110.43 164.55 112.27 163.56 112.27 162.57 112.27 161.69 110.43"/>
              <line class="cls-6" x1="165.24" y1="117.33" x2="164.55" y2="112.27"/>
              <line class="cls-6" x1="162.57" y1="112.27" x2="161.89" y2="117.33"/>
            </g>
            <path class="cls-5" d="m170.22,92.87c0,4.77,0-1.6,0,3.17-.17,3.82-3.13,7.54-6.63,7.51-3.47-.02-6.37-3.72-6.55-7.51,0-4.77,0,.86,0-3.91"/>
            <path class="cls-5" d="m157.04,92.14s2.89-1.57,3.77-4.28c0,0,2.82,4.61,9.41,5.03"/>
          </g>
        </g>
      </g>
      <g>
        <path class="cls-3" d="m139.66,151.21c11.18,0,20.3,9.02,20.4,20.22.1,10.77-8.16,19.66-18.73,20.52-.49.04-.99.07-1.49.07-.07,0-.14,0-.21,0-.55,0-1.1-.03-1.65-.07-10.41-.84-18.63-9.51-18.73-20.15-.1-11.27,8.95-20.49,20.22-20.59.06,0,.13,0,.19,0m0-1.5v1.5-1.5h-.2c-12.08.11-21.81,10.03-21.7,22.1.1,11.41,8.75,20.71,20.11,21.63.6.05,1.2.07,1.77.07h.23c.55,0,1.09-.03,1.6-.08,11.37-.92,20.2-10.6,20.1-22.03-.11-11.97-9.93-21.71-21.9-21.71h0Z"/>
        <g>
          <path class="cls-4" d="m152.19,170.93c.02-.62-.35-1.16-.88-1.39.5-.31.78-.9.67-1.51v-.07c-.12-.61-.59-1.07-1.16-1.19.42-.4.58-1.02.36-1.59l-.04-.1c-.24-.58-.8-.91-1.39-.9.34-.49.36-1.17,0-1.69l-.04-.05c-.36-.52-.99-.74-1.57-.59.22-.56.08-1.22-.38-1.65,0,0-.03-.03-.03-.03-.47-.42-1.12-.49-1.65-.22.08-.59-.21-1.19-.76-1.49l-.07-.04c-.56-.3-1.23-.2-1.68.2-.07-.6-.51-1.11-1.13-1.26,0,0-.07-.02-.08-.02-.62-.14-1.22.15-1.53.66-.21-.56-.76-.97-1.39-.95h-.12c-.63.03-1.15.45-1.33,1.03-.36-.48-1-.71-1.61-.52l-.09.03c-.6.19-.98.74-1,1.33-.47-.38-1.15-.44-1.7-.1l-.05.03c-.54.33-.79.95-.68,1.53-.54-.24-1.2-.13-1.64.32l-.05.05c-.44.45-.53,1.1-.29,1.63-.58-.1-1.18.14-1.51.67l-.05.08c-.33.54-.26,1.18.11,1.64-.59.01-1.14.38-1.35.96l-.03.09c-.21.59,0,1.21.45,1.59-.57.13-1.03.6-1.12,1.22v.1c-.09.62.23,1.19.74,1.46-.53.25-.89.8-.85,1.42v.09c.05.63.48,1.12,1.04,1.28-.47.35-.71.96-.55,1.57l.03.09c.17.6.69,1,1.28,1.04-.39.44-.49,1.1-.2,1.66l.04.08c.3.55.89.82,1.48.73-.29.53-.24,1.21.19,1.69l.04.05c.41.47,1.05.62,1.61.42-.15.57.06,1.2.57,1.56l.08.05c.52.36,1.18.33,1.66-.01-.02.6.34,1.18.94,1.41l.1.04c.6.22,1.23.02,1.61-.44.14.59.64,1.05,1.28,1.12h.1s.06.01.09.01c.6.02,1.12-.33,1.36-.86.29.53.9.85,1.53.75,0,0,.07-.01.08-.01.63-.11,1.07-.6,1.17-1.2.41.44,1.07.59,1.65.34l.1-.05c.57-.27.89-.85.83-1.44.51.31,1.18.29,1.68-.11l.06-.05c.5-.4.65-1.04.45-1.61.57.19,1.23.01,1.62-.49l.05-.06c.38-.49.4-1.15.11-1.65.59.05,1.17-.27,1.44-.84l.03-.06c.27-.56.15-1.21-.24-1.64.57-.08,1.07-.5,1.22-1.1l.02-.09c.14-.61-.12-1.2-.6-1.53.55-.19.96-.7.99-1.33v-.13s0-.02,0-.02Z"/>
          <g>
            <g>
              <polyline class="cls-5" points="154.72 185 143.71 180.23 143.71 175.42 135.6 175.42 135.6 180.23 124.56 185.07"/>
              <polygon class="cls-5" points="139.66 183.52 143.71 180.23 143.71 175.42 135.6 175.42 135.6 180.23 139.66 183.52"/>
              <polygon class="cls-5" points="139.66 183.52 136.79 185.87 134.13 180.84 135.6 179.55 139.66 183.52"/>
              <polygon class="cls-5" points="139.66 183.52 142.52 185.87 145.18 180.84 143.71 179.55 139.66 183.52"/>
              <polyline class="cls-6" points="141.52 185.05 140.65 186.89 139.66 186.89 138.66 186.89 137.79 185.05"/>
              <line class="cls-6" x1="141.33" y1="191.95" x2="140.65" y2="186.9"/>
              <line class="cls-6" x1="138.66" y1="186.9" x2="137.98" y2="191.95"/>
            </g>
            <path class="cls-5" d="m146.31,167.49c0,4.77,0-1.6,0,3.17-.17,3.82-3.13,7.54-6.63,7.51-3.47-.02-6.37-3.72-6.55-7.51,0-4.77,0,.86,0-3.91"/>
            <path class="cls-5" d="m133.13,166.77s2.89-1.57,3.77-4.28c0,0,2.82,4.61,9.41,5.03"/>
          </g>
        </g>
      </g>
      <g>
        <polygon class="cls-1" points="24.32 106.35 15.99 104.91 15.99 98.58 21.13 99.02 22.5 103.65 24.32 106.35"/>
        <path class="cls-2" d="m18.32,97.71c.97-.36,2.29.09,3.23,1.65.7,1.17.74,3.38.88,3.82.29.9,1.26,1.92,3.23,1.5,0,0-.16,1.48-1.28,1.7"/>
        <path class="cls-2" d="m20.74,90.1c0,3.53-2.86,6.39-6.39,6.39s-6.39-2.86-6.39-6.39,2.86-6.44,6.39-6.44,6.39,2.91,6.39,6.44Z"/>
        <g>
          <path class="cls-5" d="m27.94,109.05c-.17-.92-.83-1.69-1.74-2.06l-8.74-2.93v-4.36h-6.23v4.36l-8.74,2.93c-.91.37-1.57,1.15-1.74,2.06"/>
          <path class="cls-5" d="m20.39,91.33c0,4.38,0-.8,0,3.57-.16,3.51-2.87,6.92-6.09,6.89-3.19-.02-5.85-3.42-6.01-6.89,0-4.38,0,.89,0-3.49l5.58-.06c1.37-.02,2.58-.92,2.97-2.24l.15-.49.04.19c.31,1.58,1.76,2.66,3.36,2.52h0Z"/>
          <path class="cls-5" d="m6.99,105.63s2.33,3.22,7.36,3.22,7.36-3.22,7.36-3.22"/>
        </g>
      </g>
      <g>
        <polygon class="cls-1" points="219.91 106.35 211.58 104.91 211.58 98.58 216.72 99.02 218.1 103.65 219.91 106.35"/>
        <path class="cls-2" d="m213.91,97.71c.97-.36,2.29.09,3.23,1.65.7,1.17.74,3.38.88,3.82.29.9,1.26,1.92,3.23,1.5,0,0-.16,1.48-1.28,1.7"/>
        <path class="cls-2" d="m216.33,90.1c0,3.53-2.86,6.39-6.39,6.39s-6.39-2.86-6.39-6.39,2.86-6.44,6.39-6.44,6.39,2.91,6.39,6.44Z"/>
        <g>
          <path class="cls-5" d="m223.54,109.05c-.17-.92-.83-1.69-1.74-2.06l-8.74-2.93v-4.36h-6.23v4.36l-8.74,2.93c-.91.37-1.57,1.15-1.74,2.06"/>
          <path class="cls-5" d="m215.99,91.33c0,4.38,0-.8,0,3.57-.16,3.51-2.87,6.92-6.09,6.89-3.19-.02-5.85-3.42-6.01-6.89,0-4.38,0,.89,0-3.49l5.58-.06c1.37-.02,2.58-.92,2.97-2.24l.15-.49.04.19c.31,1.58,1.76,2.66,3.36,2.52h0Z"/>
          <path class="cls-5" d="m202.58,105.63s2.33,3.22,7.36,3.22,7.36-3.22,7.36-3.22"/>
        </g>
      </g>
      <g>
        <g>
          <polygon class="cls-1" points="265.22 108.91 256.89 107.47 256.89 101.14 262.03 101.58 263.4 106.21 265.22 108.91"/>
          <path class="cls-2" d="m259.22,100.27c.97-.36,2.29.09,3.23,1.65.7,1.17.74,3.38.88,3.82.29.9,1.26,1.92,3.23,1.5,0,0-.16,1.48-1.28,1.7"/>
          <path class="cls-2" d="m261.64,92.66c0,3.53-2.86,6.39-6.39,6.39s-6.39-2.86-6.39-6.39,2.86-6.44,6.39-6.44,6.39,2.91,6.39,6.44Z"/>
          <g>
            <path class="cls-5" d="m268.85,111.61c-.17-.92-.83-1.69-1.74-2.06l-8.74-2.93v-4.36h-6.23v4.36l-8.74,2.93c-.91.37-1.57,1.15-1.74,2.06"/>
            <path class="cls-5" d="m261.3,93.89c0,4.38,0-.8,0,3.57-.16,3.51-2.87,6.92-6.09,6.89-3.19-.02-5.85-3.42-6.01-6.89,0-4.38,0,.89,0-3.49l5.58-.06c1.37-.02,2.58-.92,2.97-2.24l.15-.49.04.19c.31,1.58,1.76,2.66,3.36,2.52h0Z"/>
            <path class="cls-5" d="m247.89,108.19s2.33,3.22,7.36,3.22,7.36-3.22,7.36-3.22"/>
          </g>
        </g>
        <path class="cls-3" d="m255.25,75.91c11.18,0,20.3,9.02,20.4,20.22.1,10.77-8.16,19.66-18.73,20.52-.49.04-.99.07-1.49.07-.07,0-.14,0-.21,0-.55,0-1.1-.03-1.65-.07-10.41-.84-18.63-9.51-18.73-20.15-.1-11.27,8.95-20.49,20.22-20.59.06,0,.13,0,.19,0m0-1.5h-.2c-12.08.11-21.81,10.03-21.7,22.1.1,11.41,8.75,20.71,20.11,21.63.6.05,1.2.07,1.77.07h.23c.55,0,1.09-.03,1.6-.08,11.37-.92,20.2-10.6,20.09-22.03-.11-11.97-9.93-21.71-21.9-21.71h0Z"/>
      </g>
      <g>
        <g>
          <polygon class="cls-1" points="74.69 108.91 66.37 107.47 66.37 101.14 71.5 101.58 72.88 106.21 74.69 108.91"/>
          <path class="cls-2" d="m68.69,100.27c.97-.36,2.29.09,3.23,1.65.7,1.17.74,3.38.88,3.82.29.9,1.26,1.92,3.23,1.5,0,0-.16,1.48-1.28,1.7"/>
          <path class="cls-2" d="m71.11,92.66c0,3.53-2.86,6.39-6.39,6.39s-6.39-2.86-6.39-6.39,2.86-6.44,6.39-6.44,6.39,2.91,6.39,6.44Z"/>
          <g>
            <path class="cls-5" d="m78.32,111.61c-.17-.92-.83-1.69-1.74-2.06l-8.74-2.93v-4.36h-6.23v4.36l-8.74,2.93c-.91.37-1.57,1.15-1.74,2.06"/>
            <path class="cls-5" d="m70.77,93.89c0,4.38,0-.8,0,3.57-.16,3.51-2.87,6.92-6.09,6.89-3.19-.02-5.85-3.42-6.01-6.89,0-4.38,0,.89,0-3.49l5.58-.06c1.37-.02,2.58-.92,2.97-2.24l.15-.49.04.19c.31,1.58,1.76,2.66,3.36,2.52h0Z"/>
            <path class="cls-5" d="m57.36,108.19s2.33,3.22,7.36,3.22,7.36-3.22,7.36-3.22"/>
          </g>
        </g>
        <path class="cls-3" d="m64.72,75.91c11.18,0,20.3,9.02,20.4,20.22.1,10.77-8.16,19.66-18.73,20.52-.49.04-.99.07-1.49.07-.07,0-.14,0-.21,0-.55,0-1.1-.03-1.65-.07-10.41-.84-18.63-9.51-18.73-20.15-.1-11.27,8.95-20.49,20.22-20.59.06,0,.13,0,.19,0m0-1.5h-.2c-12.08.11-21.81,10.03-21.7,22.1.1,11.41,8.75,20.71,20.11,21.63.6.05,1.19.07,1.77.07h.23c.55,0,1.09-.03,1.6-.08,11.37-.92,20.2-10.6,20.09-22.03-.11-11.97-9.93-21.71-21.9-21.71h0Z"/>
      </g>
      <g>
        <g>
          <polygon class="cls-1" points="82.5 183.32 74.17 181.88 74.17 175.55 79.31 175.99 80.68 180.62 82.5 183.32"/>
          <path class="cls-2" d="m76.5,174.68c.97-.36,2.29.09,3.23,1.65.7,1.17.74,3.38.88,3.82.29.9,1.26,1.92,3.23,1.5,0,0-.16,1.48-1.28,1.7"/>
          <path class="cls-2" d="m78.91,167.07c0,3.53-2.86,6.39-6.39,6.39s-6.39-2.86-6.39-6.39,2.86-6.44,6.39-6.44,6.39,2.91,6.39,6.44Z"/>
          <g>
            <path class="cls-5" d="m86.12,186.02c-.17-.92-.83-1.69-1.74-2.06l-8.74-2.93v-4.36h-6.23v4.36l-8.74,2.93c-.91.37-1.57,1.15-1.74,2.06"/>
            <path class="cls-5" d="m78.57,168.3c0,4.38,0-.8,0,3.57-.16,3.51-2.87,6.92-6.09,6.89-3.19-.02-5.85-3.42-6.01-6.89,0-4.38,0,.89,0-3.49l5.58-.06c1.37-.02,2.58-.92,2.97-2.24l.15-.49.04.19c.31,1.58,1.76,2.66,3.36,2.52h0Z"/>
            <path class="cls-5" d="m65.17,182.6s2.33,3.22,7.36,3.22,7.36-3.22,7.36-3.22"/>
          </g>
        </g>
        <path class="cls-3" d="m72.53,150.32c11.18,0,20.3,9.02,20.4,20.22.1,10.77-8.16,19.66-18.73,20.52-.49.04-.99.07-1.49.07-.07,0-.14,0-.21,0-.55,0-1.1-.03-1.65-.07-10.41-.84-18.63-9.51-18.73-20.15-.1-11.27,8.95-20.49,20.22-20.59.06,0,.13,0,.19,0m0-1.5v1.5-1.5h-.2c-12.08.11-21.81,10.03-21.7,22.1.1,11.41,8.75,20.71,20.11,21.63.6.05,1.19.07,1.77.07h.23c.55,0,1.09-.03,1.6-.08,11.37-.92,20.2-10.6,20.1-22.03-.11-11.97-9.93-21.71-21.9-21.71h0Z"/>
      </g>
      <g>
        <g>
          <polygon class="cls-1" points="213.07 183.32 204.74 181.88 204.74 175.55 209.88 175.99 211.25 180.62 213.07 183.32"/>
          <path class="cls-2" d="m207.07,174.68c.97-.36,2.29.09,3.23,1.65.7,1.17.74,3.38.88,3.82.29.9,1.26,1.92,3.23,1.5,0,0-.16,1.48-1.28,1.7"/>
          <path class="cls-2" d="m209.49,167.07c0,3.53-2.86,6.39-6.39,6.39s-6.39-2.86-6.39-6.39,2.86-6.44,6.39-6.44,6.39,2.91,6.39,6.44Z"/>
          <g>
            <path class="cls-5" d="m216.69,186.02c-.17-.92-.83-1.69-1.74-2.06l-8.74-2.93v-4.36h-6.23v4.36l-8.74,2.93c-.91.37-1.57,1.15-1.74,2.06"/>
            <path class="cls-5" d="m209.14,168.3c0,4.38,0-.8,0,3.57-.16,3.51-2.87,6.92-6.09,6.89-3.19-.02-5.85-3.42-6.01-6.89,0-4.38,0,.89,0-3.49l5.58-.06c1.37-.02,2.58-.92,2.97-2.24l.15-.49.04.19c.31,1.58,1.76,2.66,3.36,2.52h0Z"/>
            <path class="cls-5" d="m195.74,182.6s2.33,3.22,7.36,3.22,7.36-3.22,7.36-3.22"/>
          </g>
        </g>
        <path class="cls-3" d="m203.1,150.32c11.18,0,20.3,9.02,20.4,20.22.1,10.77-8.16,19.66-18.73,20.52-.49.04-.99.07-1.49.07-.07,0-.14,0-.21,0-.55,0-1.1-.03-1.65-.07-10.41-.84-18.63-9.51-18.73-20.15-.1-11.27,8.95-20.49,20.22-20.59.06,0,.13,0,.19,0m0-1.5v1.5-1.5h-.2c-12.08.11-21.81,10.03-21.7,22.1.1,11.41,8.75,20.71,20.11,21.63.6.05,1.2.07,1.77.07h.23c.55,0,1.09-.03,1.6-.08,11.37-.92,20.2-10.6,20.1-22.03-.11-11.97-9.93-21.71-21.9-21.71h0Z"/>
      </g>
      <g>
        <path class="cls-4" d="m127.58,94.19c.02-.62-.35-1.16-.88-1.39.5-.31.78-.9.67-1.51v-.07c-.12-.61-.59-1.07-1.16-1.19.42-.4.58-1.02.36-1.59l-.04-.1c-.24-.58-.8-.91-1.39-.9.34-.49.36-1.17,0-1.69l-.04-.05c-.36-.52-.99-.74-1.57-.59.22-.56.08-1.22-.38-1.65,0,0-.03-.03-.03-.03-.47-.42-1.12-.49-1.65-.22.08-.59-.21-1.19-.76-1.49l-.07-.04c-.56-.3-1.23-.2-1.68.2-.07-.6-.51-1.11-1.13-1.26,0,0-.07-.02-.08-.02-.62-.14-1.22.15-1.53.66-.21-.56-.76-.97-1.39-.95h-.12c-.63.03-1.15.45-1.33,1.03-.36-.48-1-.71-1.61-.52l-.09.03c-.6.19-.98.74-1,1.33-.47-.38-1.15-.44-1.7-.1l-.05.03c-.54.33-.79.95-.68,1.53-.54-.24-1.2-.13-1.64.32l-.05.05c-.44.45-.53,1.1-.29,1.63-.58-.1-1.18.14-1.51.67l-.05.08c-.33.54-.26,1.18.11,1.64-.59.01-1.14.38-1.35.96l-.03.09c-.21.59,0,1.21.45,1.59-.57.13-1.03.6-1.12,1.22v.1c-.09.62.23,1.19.74,1.46-.53.25-.89.8-.85,1.42v.09c.05.63.48,1.12,1.04,1.28-.47.35-.71.96-.55,1.57l.03.09c.17.6.69,1,1.28,1.04-.39.44-.49,1.1-.2,1.66l.04.08c.3.55.89.82,1.48.73-.29.53-.24,1.21.19,1.69l.04.05c.41.47,1.05.62,1.61.42-.15.57.06,1.2.57,1.56l.08.05c.52.36,1.18.33,1.66-.01-.02.6.34,1.18.94,1.41l.1.04c.6.22,1.23.02,1.61-.44.14.59.64,1.05,1.28,1.12h.1s.06.01.09.01c.6.02,1.12-.33,1.36-.86.29.53.9.85,1.53.75,0,0,.07-.01.08-.01.63-.11,1.07-.6,1.17-1.2.41.44,1.07.59,1.65.34l.1-.05c.57-.27.89-.85.83-1.44.51.31,1.18.29,1.68-.11l.06-.05c.5-.4.65-1.04.45-1.61.57.19,1.23.01,1.62-.49l.05-.06c.38-.49.4-1.15.11-1.65.59.05,1.17-.27,1.44-.84l.03-.06c.27-.56.15-1.21-.24-1.64.57-.08,1.07-.5,1.22-1.1l.02-.09c.14-.61-.12-1.2-.6-1.53.55-.19.96-.7.99-1.33v-.13s0-.02,0-.02Z"/>
        <g>
          <g>
            <polyline class="cls-5" points="130.11 108.25 119.1 103.48 119.1 98.67 110.99 98.67 110.99 103.48 99.95 108.32"/>
            <polygon class="cls-5" points="115.05 106.77 119.1 103.48 119.1 98.67 110.99 98.67 110.99 103.48 115.05 106.77"/>
            <polygon class="cls-5" points="115.05 106.77 112.18 109.13 109.52 104.09 110.99 102.8 115.05 106.77"/>
            <polygon class="cls-5" points="115.05 106.77 117.91 109.13 120.57 104.09 119.1 102.8 115.05 106.77"/>
            <polyline class="cls-6" points="116.91 108.3 116.04 110.15 115.05 110.15 114.05 110.15 113.18 108.3"/>
            <line class="cls-6" x1="116.72" y1="115.2" x2="116.04" y2="110.15"/>
            <line class="cls-6" x1="114.05" y1="110.15" x2="113.37" y2="115.2"/>
          </g>
          <path class="cls-5" d="m121.7,90.74c0,4.77,0-1.6,0,3.17-.17,3.82-3.13,7.54-6.63,7.51-3.47-.02-6.37-3.72-6.55-7.51,0-4.77,0,.86,0-3.91"/>
          <path class="cls-5" d="m108.52,90.02s2.89-1.57,3.77-4.28c0,0,2.82,4.61,9.41,5.03"/>
        </g>
      </g>
    </g>
  </g>
</svg>