<?xml version="1.0" encoding="UTF-8"?>
<svg id="Layer_2" data-name="Layer 2" xmlns="http://www.w3.org/2000/svg" xmlns:xlink="http://www.w3.org/1999/xlink" viewBox="0 0 308.46 173.05">
  <defs>
    <style>
      .cls-1, .cls-2, .cls-3 {
        fill: none;
      }

      .cls-4, .cls-2, .cls-3, .cls-5 {
        stroke-linecap: round;
      }

      .cls-4, .cls-2, .cls-5 {
        stroke: #666;
        stroke-linejoin: round;
      }

      .cls-4, .cls-6 {
        fill: #fff;
      }

      .cls-3 {
        stroke: #6d6c6f;
        stroke-miterlimit: 10;
        stroke-width: .72px;
      }

      .cls-7 {
        clip-path: url(#clippath);
      }

      .cls-5, .cls-8 {
        fill: #f2f2f2;
      }

      .cls-9 {
        fill: #f1f1f1;
      }

      .cls-10 {
        fill: #ba0c2f;
      }

      .cls-11 {
        fill: #919194;
      }

      .cls-12 {
        fill: #bdc2bf;
      }

      .cls-13 {
        fill: #d66d82;
      }

      .cls-14 {
        fill: #1a1a1a;
      }

      .cls-15 {
        fill: #6d6c6f;
      }

      .cls-16 {
        fill: #808082;
      }

      .cls-17 {
        clip-path: url(#clippath-1);
      }
    </style>
    <clipPath id="clippath">
      <polyline class="cls-1" points="8.9 0 308.46 0 308.46 173.05 0 173.05"/>
    </clipPath>
    <clipPath id="clippath-1">
      <rect class="cls-1" x="48.75" y="15.2" width="199.71" height="157.85" rx="32.95" ry="32.95"/>
    </clipPath>
  </defs>
  <g id="Content">
    <g>
      <g class="cls-7">
        <rect class="cls-9" x="48.75" y="15.2" width="199.71" height="157.85" rx="32.95" ry="32.95"/>
        <g class="cls-17">
          <g>
            <g>
              <rect class="cls-4" x="121.77" y="76.29" width="7.87" height="67.82" transform="translate(-4.56 5.43) rotate(-2.43)"/>
              <rect class="cls-4" x="135.81" y="106.25" width="67.82" height="7.87" transform="translate(52.43 275.08) rotate(-87.57)"/>
              <rect class="cls-4" x="115.55" y="162.98" width="4.52" height="56.18"/>
              <rect class="cls-4" x="125.83" y="159.29" width="3.91" height="51.74"/>
              <rect class="cls-4" x="163.58" y="159.29" width="3.91" height="51.74"/>
              <rect class="cls-4" x="173.76" y="162.98" width="4.52" height="56.18"/>
              <polygon class="cls-4" points="150.36 161.92 182.39 156.91 172.26 143.49 123.15 143.49 111.01 156.96 145.04 161.92 145.1 162.75 147.7 162.34 150.31 162.75 150.36 161.92"/>
              <rect class="cls-4" x="110.45" y="155.24" width="72.54" height="11.43" rx="3.66" ry="3.66"/>
              <rect class="cls-4" x="117.81" y="73.6" width="60.47" height="9.29" rx="2.59" ry="2.59"/>
            </g>
            <ellipse class="cls-14" cx="147.66" cy="144.26" rx="23.93" ry="11.63"/>
            <polygon class="cls-14" points="128.86 155.39 123.62 145.01 134.38 147.46 140.05 149.7 140.1 153.82 128.86 155.39"/>
            <polygon class="cls-14" points="144.16 147.94 146.77 164.72 130.34 166.16 123.98 145.99 144.16 147.94"/>
            <polygon class="cls-14" points="144.84 221.07 134.74 219.55 130.34 166.16 146.9 166.1 144.84 221.07"/>
            <circle class="cls-14" cx="138.62" cy="166.16" r="8.28" transform="translate(-45.92 279.17) rotate(-81.65)"/>
            <polygon class="cls-14" points="171.23 145.99 164.87 166.16 148.44 164.72 151.05 147.94 171.23 145.99"/>
            <polygon class="cls-14" points="148.31 166.1 164.87 166.16 160.47 219.55 150.36 221.07 148.31 166.1"/>
            <circle class="cls-14" cx="156.59" cy="166.16" r="8.28" transform="translate(-22.48 24.52) rotate(-8.35)"/>
            <path class="cls-14" d="m164.41,69.02c1.32-1.87-.1-3.31-.1-3.31,1.19-1.91-.62-3.18-.62-3.18,1.51-1.98-.23-4.26-.23-4.26.94-2.38-1.37-4.13-1.37-4.13.09-3.49-2.57-6.79-2.57-6.79l-8.46-8.02h-8.95l-7.95,8.02s-2.5,3.3-2.42,6.79c0,0-2.18,1.75-1.29,4.13,0,0-1.63,2.28-.21,4.26,0,0-1.7,1.27-.58,3.18,0,0-1.33,1.43-.09,3.31,0,0-1.51,1.38.22,3.07,0,0-.75,2.26.59,3.01,0,0-.48,2.2,1.72,2.26,0,0,.59,2.33,2.07,1.82,0,0,1.21,1.32,2.71.69,0,0,1.06.94,2.57.31,0,0,1.1.67,2.19-.34,0,0,.42.5,1.27.5s1.21-.48,1.21-.48c0,0,.14.5,1.18.5s1.23-.51,1.23-.51c0,0,.34.49,1.37.49s1.33-.48,1.33-.48c0,0,.25.43,1.15.43s1.23-.52,1.23-.52c1.15,1.01,2.27.41,2.27.41,1.61.63,2.74-.31,2.74-.31,1.6.63,2.89-.69,2.89-.69,1.57.5,2.2-1.82,2.2-1.82,2.35-.06,1.83-2.26,1.83-2.26,1.43-.75.63-3.01.63-3.01,1.83-1.69.23-3.07.23-3.07Z"/>
            <path class="cls-11" d="m154.28,77.47l-7.02-1.24-7.02,1.24c-.28.09-7.77,2.3-12.58,3.05,0,0,6.41,17.44,19.61,18.39,13.18-.95,19.31-17.85,19.31-17.85l-2.39-1.09c-5.24-1.11-9.66-2.42-9.92-2.5Z"/>
            <ellipse class="cls-10" cx="134" cy="102.73" rx="6.57" ry="8.47"/>
            <ellipse class="cls-10" cx="161.34" cy="103.46" rx="6.57" ry="8.47"/>
            <path class="cls-10" d="m132.29,79.58s3.38,8.86,14.37,11.05c0,0,10.36,1.16,15.8-11.05,0,0,4.37.95,7.74,1.91,0,0-9.76,45.96-4.23,54.92,1.69,2.75-41.73,3.97-39.23.85,5.99-7.48,1.05-52.02-.74-55.71-.15-.29-.03-.65.26-.8.05-.03.11-.05.17-.06l5.87-1.11Z"/>
            <rect class="cls-4" x="63.71" y="139.55" width="4.96" height="80.22"/>
            <rect class="cls-4" x="87.18" y="118.25" width="4.96" height="90.49"/>
            <rect class="cls-4" x="238.48" y="139.05" width="4.96" height="80.22"/>
            <rect class="cls-4" x="215.02" y="117.75" width="4.96" height="90.49"/>
            <rect class="cls-4" x="55.96" y="136.48" width="193.26" height="5.91"/>
            <polygon class="cls-6" points="249.22 136.48 55.96 136.48 87.98 115.72 205.79 116.04 217.71 116.04 249.22 136.48"/>
            <path class="cls-8" d="m115.88,131.54l26.47.28.35.76h2.32l-1.05-2.33-5.28-2.24-5.8.98s-2-6.87-2.31-6.87h-6.02l-8.69,9.42Z"/>
            <path class="cls-8" d="m173.27,131.54l-26.47.28-.31.82-2.25-.06.92-2.33,5.28-2.24,5.8.98s2.8-6.84,3.11-6.84h5.19l8.74,9.39Z"/>
            <path class="cls-5" d="m170.39,128.65s-4.52-3.74-6.6-6.93c0,0-9.68-.11-13.14-1.91-3.46-1.8-6.13,1.37-6.2,2.31-.07.94,0,8.43,0,8.43l2.88-2.23,7.5.95,5.19.5,5.41.29,4.4-.29.58-1.11Z"/>
            <path class="cls-5" d="m118.8,128.65s4.51-3.74,6.6-6.93c0,0,9.68-.11,13.14-1.91,3.46-1.8,6.13,1.37,6.2,2.31s0,8.43,0,8.43l-2.87-2.22-7.51.93-5.19.5-5.41.29-4.4-.29-.57-1.11Z"/>
            <path class="cls-2" d="m143.73,122.74c-1.37-.91-3.03-1.29-4.66-1.05-.81.11-1.62.28-2.41.5-.8.2-1.59.45-2.39.69-1.6.48-3.23.84-4.88,1.06-.83.11-1.66.18-2.49.21-.5,0-1-.04-1.5-.1"/>
            <path class="cls-2" d="m143.73,124.37c-1.37-.91-3.03-1.29-4.66-1.05-.81.11-1.62.28-2.41.5-.8.2-1.59.45-2.39.69-1.6.48-3.23.84-4.88,1.06-.83.11-1.66.18-2.49.21-.5,0-1.52-.23-2.02-.29"/>
            <path class="cls-2" d="m143.73,126c-1.37-.91-3.03-1.29-4.66-1.05-.81.11-1.62.28-2.41.5-.8.2-1.59.45-2.39.69-1.6.48-3.23.84-4.88,1.06-.83.11-1.66.18-2.49.21-.5,0-2.3,0-2.79-.07"/>
            <path class="cls-2" d="m164.36,124.06c-.5.06-1,.09-1.5.1-.84-.03-1.67-.1-2.49-.21-1.65-.23-3.28-.58-4.88-1.06-.8-.23-1.59-.48-2.39-.69-.79-.22-1.6-.39-2.41-.5-1.63-.24-3.29.13-4.66,1.05"/>
            <path class="cls-2" d="m164.87,125.49c-.5.06-1.52.29-2.02.29-.84-.03-1.67-.1-2.49-.21-1.65-.23-3.28-.58-4.88-1.06-.8-.23-1.59-.48-2.39-.69-.79-.22-1.6-.39-2.41-.5-1.63-.24-3.29.13-4.66,1.05"/>
            <path class="cls-2" d="m165.65,127.34c-.5.06-2.29.06-2.79.07-.84-.03-1.67-.1-2.49-.21-1.65-.23-3.28-.58-4.88-1.06-.8-.23-1.59-.48-2.39-.69-.79-.22-1.6-.39-2.41-.5-1.63-.24-3.29.13-4.66,1.05"/>
            <path class="cls-5" d="m171.79,129.73c-.96-.92-1.4-1.07-1.4-1.07-4.05.81-8.24.71-12.25-.31-7-1.78-9.26-2.7-12.34-.61-.55.37-.93.85-1.2,1.35-.27-.5-.65-.98-1.2-1.35-3.08-2.09-5.35-1.17-12.34.61-4.01,1.02-8.19,1.12-12.25.31,0,0-.45.15-1.39,1.07-1.03,1-1.16,1.8-1.16,1.8.02-.1.4-.35,1.36-.49.81-.12,2.64.16,5.49.33,2.85.13,5.7-.08,8.5-.63.21-.03,7.93-1.42,7.93-1.42,3.26-.27,3.63,3.26,3.63,3.26h2.85s.38-3.54,3.63-3.26c0,0,7.72,1.39,7.93,1.42,2.8.55,5.65.76,8.5.63,2.85-.17,4.68-.45,5.49-.33.96.14,1.35.39,1.36.49,0,0-.13-.8-1.15-1.8Z"/>
            <polyline class="cls-2" points="115.88 131.71 142.35 131.99 142.62 132.67 146.56 132.67 146.81 131.99 173.27 131.71"/>
            <circle class="cls-12" cx="184.64" cy="115.48" r="4.85"/>
            <line class="cls-1" x1="162.39" y1="118.74" x2="183.39" y2="115.94"/>
            <path class="cls-11" d="m161.98,116.7l20.57-5.01c2.79-.68,5.73.63,6.56,2.93.83,2.3-.93,4.98-3.73,5.66-.53.06-1.07.08-1.61.06l-20.98.45c-1.4.04-2.57-.86-2.62-2.01-.04-.97.74-1.81,1.82-2.07Z"/>
            <path class="cls-11" d="m155.71,117.2c-.45.31-2.83.66-3.55.76-.31.04-1.8,0-2.18,0-1.12.07-2.18.64-2.16,1.46.02.82.94,1.36,2.23,1.33.3-.01.6-.05.9-.1,1.09-.13,3.17.51,4.92.82,2.93.51,4.85-.11,5.88-.65"/>
            <path class="cls-11" d="m154.68,118.48l-5.53.76-4.88,2.07c-.43.24-1.27.19-1.61-.17-.44-.47-.08-1.2.41-1.57,0,0,4.58-2.64,5.19-2.8l5.5-1.45c.67-.19,1.37-.23,2.06-.13.38.05,5.09.51,5.09.51,1.82.46,8.48-.8,8.48-.8l-.39,5.66s-6.76.03-7.46.38"/>
            <path class="cls-11" d="m154.38,116.59l-5.32,1.22c-.51.14-4.15,2.14-4.15,2.14-.63.36-.73.94-.36,1.35.31.31.82.37,1.38.15l3.66-1.51,5.49-.39"/>
            <path class="cls-11" d="m155.23,118.21l-3.55.48c-.51.14-4.04,1.25-4.04,1.25-.83.31-.73.94-.36,1.35.31.31.61.28,1.39.15l3.56-.61,3.6.5"/>
            <g id="forearm">
              <polygon class="cls-11" points="129.83 112.86 108.05 109.07 106.88 118.7 130.36 119.86 129.83 112.86"/>
              <circle class="cls-11" cx="107.3" cy="113.87" r="4.85"/>
            </g>
            <g id="hand">
              <path class="cls-11" d="m131.38,110.69s2.97,1.36,3.78,1.47,1.75.5,1.99,1.57.34,2.17.56,2.64.66,1.1.23,1.47-1.58.36-2.34-.73c-.43-.59-.73-1.26-.87-1.97,0,0-1.68.09-2.46-.2"/>
              <path class="cls-11" d="m132.28,114.92l.16.07c.16.05.32.1.48.13.26.05.52.09.78.12.15.02.31.02.49.03s.41,0,.43.02v.05s0,.04,0,.06c.02.07.03.15.05.22.04.15.09.31.15.45.12.32.27.63.45.92.19.34.45.64.76.88.35.27.78.41,1.22.41.24,0,.48-.06.69-.17.12-.07.23-.16.31-.28.07-.13.11-.27.1-.41-.02-.24-.1-.46-.22-.67-.1-.19-.23-.38-.31-.54-.14-.4-.26-.81-.34-1.22-.1-.42-.21-.84-.35-1.25,0,0,.05.31.12.82.03.26.07.58.12.94.03.18.05.37.1.58.03.11.06.22.1.32.05.11.09.2.14.31.19.38.39.86.07,1.01-.19.1-.4.14-.61.12-.23-.02-.45-.08-.65-.2-.43-.27-.77-.64-.99-1.09-.13-.22-.25-.45-.34-.69-.05-.12-.1-.24-.14-.36-.02-.06-.04-.12-.06-.18s-.05-.23-.07-.35l-.8.05c-.21,0-.42.02-.61.02-.4.02-.8-.01-1.19-.09Z"/>
              <polygon class="cls-13" points="137.64 121.66 137.64 123.15 136.61 122.08 129.76 105.23 130.79 104.81 137.64 121.66"/>
              <line class="cls-11" x1="136.61" y1="122.08" x2="137.64" y2="121.66"/>
              <path class="cls-11" d="m124.87,119.19s1.98,1.86,2.47,2.22,2.24.2,2.61.08c.41-.1.7-.46.71-.88.03-.51-.53-.99-1.04-.99s-1.4-.25-1.61-.47-1.34-1.53-1.34-1.53"/>
              <path class="cls-11" d="m132.43,111.98c-1.05-1.99-2.26-1.57-2.75-1.28s-.8.76-1.35,1.04-1.38.34-1.83.83-.21,1.07-.41,1.62c-.21.55-.97.8-1,1.8-.04,1-.24.87-.55,1.38-.18.38-.19.82-.05,1.22.14.29.33.55.57.77"/>
              <path class="cls-11" d="m126.7,117.61l.65.88.35.45.2.26c.04.05.09.1.14.13.05.04.11.07.17.1.24.12.49.21.74.28.14.04.28.07.42.09.07,0,.15.02.23.02.06,0,.12.01.18.02.24.07.45.23.59.45.06.1.09.22.08.33,0,.13-.05.25-.12.36-.08.11-.18.19-.31.24-.06.03-.13.05-.2.07l-.24.05c-.34.05-.69.08-1.04.08-.34.03-.69,0-1.02-.1l-.09-.05-.11-.08-.22-.17-.45-.35c-.61-.48-1.2-.97-1.83-1.44,0,0,.32.34.88.92.28.28.61.61,1,.98l.31.28c.05.05.11.09.17.14.07.06.14.1.22.13.31.11.63.17.96.18.33.02.66,0,.99-.02.18-.01.35-.04.52-.07.2-.04.39-.12.55-.24.18-.13.31-.31.38-.52.03-.1.05-.2.06-.31.01-.11,0-.23-.03-.34-.13-.42-.46-.74-.87-.87-.1-.03-.2-.05-.31-.05h-.25c-.17-.01-.33-.04-.49-.07-.16-.05-.33-.11-.48-.18-.07-.02-.14-.05-.21-.09-.03-.01-.06-.03-.09-.05-.03-.02-.05-.05-.08-.07-.46-.48-.92-.95-1.37-1.38Z"/>
              <path class="cls-11" d="m126.09,117.93s2.18,2.59,2.69,3.08,2.56.53,3.01.44c.48-.06.86-.44.93-.92.1-.59-.48-1.22-1.07-1.28s-1.58-.48-1.8-.76-1.93-2.83-1.93-2.83"/>
              <path class="cls-11" d="m127.95,115.63l.71,1.18.83,1.34c.08.13.16.26.25.4.12.14.27.26.43.35.32.18.66.33,1.02.43.1.03.2.06.31.07.05,0,.1.02.15.03s.08,0,.11.03c.16.05.31.13.43.24.27.21.39.55.31.88-.1.35-.4.6-.76.63-.43.04-.87.04-1.3,0-.45-.02-.89-.1-1.31-.25-.05-.02-.09-.04-.13-.07-.04-.03-.08-.06-.12-.09-.09-.08-.17-.16-.25-.25l-.5-.52-2.03-2.11s.36.48.98,1.26c.31.39.68.85,1.12,1.37.11.13.22.26.34.39.06.07.13.14.21.2.08.07.17.12.27.16.37.15.77.25,1.17.29.42.05.83.08,1.25.07.5.04.99-.18,1.31-.57.07-.11.13-.23.17-.35.04-.13.06-.26.07-.39,0-.27-.1-.53-.27-.75-.16-.21-.36-.38-.59-.49-.12-.06-.25-.1-.38-.12-.13-.02-.2-.03-.31-.05-.41-.09-.81-.24-1.18-.44-.08-.04-.15-.1-.22-.16-.06-.07-.13-.17-.19-.26l-.38-.52c-.53-.68-1.03-1.35-1.53-1.96Z"/>
              <path class="cls-11" d="m127.59,115.89c.53.48,1.01,1.02,1.43,1.59.37.58.8,1.13,1.28,1.63.91.84,1.88,1.62,2.9,2.34.45.27,1.24-.02,1.66-.27s.52-1.14,0-1.66-2.7-2.55-2.7-2.55l-2.5-3.24"/>
              <path class="cls-11" d="m129.69,113.7l.96,1.38,1.12,1.57.16.23.09.12s.03.05.05.07l.05.05.43.43.92.92c.33.32.67.65,1.01.99.08.08.19.18.25.25.07.08.12.16.16.26.08.19.1.41.06.61-.02.1-.06.19-.11.27-.06.08-.14.14-.23.17-.22.12-.46.2-.7.25-.21.06-.44.04-.64-.06-.22-.13-.45-.31-.67-.47-.45-.34-.9-.69-1.35-1.06-.23-.18-.45-.37-.67-.56-.22-.19-.42-.39-.61-.61-.4-.44-.73-.92-1.11-1.39-.4-.45-.83-.87-1.3-1.24,0,0,.13.13.36.37.33.34.64.71.92,1.09.38.62.81,1.21,1.28,1.76.65.63,1.33,1.24,2.04,1.8.19.15.39.31.59.46.1.08.21.15.32.22.14.08.29.13.45.15.29.02.58-.02.85-.12.13-.04.26-.1.39-.16l.19-.1c.08-.05.15-.1.21-.17.2-.26.3-.59.27-.92-.02-.32-.14-.63-.35-.87-.41-.4-.8-.75-1.2-1.13l-1.2-1.1-.31-.27-.08-.07h-.02l-.03-.04-.13-.16-.5-.61c-.67-.81-1.32-1.59-1.95-2.32Z"/>
              <path class="cls-11" d="m132.43,111.98l1.86,3.05,1.98,2.76s1.29,1.65,1.39,2.24.03.92-.24,1.14-.86.56-1.66-.17c-1.32-1.28-2.56-2.63-3.73-4.04-.55-.76-2.35-3.18-2.35-3.18"/>
              <path class="cls-11" d="m129.71,113.77l.88,1.28,1.01,1.47c.2.28.4.59.65.92s.51.61.79.95c.56.65,1.19,1.35,1.88,2.07.17.18.35.36.53.55.19.2.41.38.66.52.28.16.61.21.93.13.16-.04.3-.11.44-.2.15-.09.28-.22.36-.37.13-.31.15-.65.07-.97l-.02-.11-.03-.13c-.03-.08-.06-.15-.09-.22-.06-.13-.13-.27-.21-.39-.31-.5-.65-.98-1.01-1.44-.7-.93-1.42-1.9-2.15-2.85-.64-.99-1.31-1.99-1.99-2.97,0,0,.68,1.18,1.78,3.11.64.93,1.39,2.05,2.26,3.25.21.31.43.61.61.93.1.16.19.33.27.49.08.15.13.32.14.5.02.17.01.34-.03.5-.05.14-.14.21-.31.31-.29.17-.66.15-.94-.05-.32-.24-.62-.51-.89-.81l-.88-.92c-.59-.61-1.17-1.22-1.72-1.83-.28-.31-.53-.61-.78-.95l-.75-.96c-.48-.62-.97-1.23-1.44-1.81Z"/>
            </g>
            <path class="cls-11" d="m189.03,113.42l-11.32-23.06c-1.22-2.63-4.34-3.77-6.97-2.55h0c-2.63,1.22-3.77,4.34-2.55,6.97,0,0,0,0,0,0l12.12,22.91c1.22,2.63,4.6,1.95,5.04,1.58h0c2.64-1.22,4.32-3.97,3.68-5.86Z"/>
            <path class="cls-10" d="m181.04,95.94s-3.08-6.95-7.29-12.26l-11.98,8.12,7.22,10.93,12.04-6.78Z"/>
            <circle class="cls-10" cx="168.55" cy="88.14" r="6.86"/>
            <path class="cls-11" d="m118.84,87.84s-14.06,20.41-15.86,23.8c-2.65,5.01,4.98,8.59,6.86,6.07,6.16-8.33,17.93-21.2,17.93-21.2l-8.92-8.66Z"/>
            <path class="cls-10" d="m114.49,93.51s4.21-7.91,8.85-11.57l10.37,10.94-8.36,8.77-10.86-8.14Z"/>
            <circle class="cls-10" cx="127.37" cy="87.48" r="6.86"/>
            <path class="cls-4" d="m213.68,119.09l-14.71,4.64-4.96,7.97-6.28-7.15c-2.03-2.75,0-5.49,0-5.49l25.96.02"/>
            <polygon class="cls-5" points="197.36 131.7 222.16 131.7 222.16 126.55 194.01 126.22 193.11 128.96 194.01 131.7 197.36 131.7"/>
            <polygon class="cls-4" points="222.92 126.22 213.68 119.09 187.72 119.09 194.01 126.22 222.92 126.22"/>
            <ellipse class="cls-14" cx="146.69" cy="50.82" rx="13.49" ry="14.06"/>
            <polygon class="cls-11" points="153.86 82.32 139.9 82.45 140.28 76.79 140.87 70.03 141.15 66.87 152.24 66.89 152.61 70.47 152.69 71.17 153.86 82.32"/>
            <path class="cls-16" d="m152.74,71.04l-12-.45-.61,6.9h3.72c3.25,0,6.28-1.64,8.06-4.36l.9-1.37-.08-.72Z"/>
            <g>
              <path class="cls-11" d="m158.72,54.01c0,1.24-.19,2.43-.55,3.55,0,0-.98,6.17-1.14,7.05,0,.01,0,.03,0,.04-.34,1.79-.82,3.2-1.81,4.86h0c-.32.54-.7,1.11-1.14,1.72-.68.94-.98,1.33-1.88,2.27-.81.84-1.83,1.71-3.87,2.09-.36.07-1.24.11-2,.06-.21,0-.4-.03-.58-.06-2.04-.38-3.06-1.26-3.87-2.09-.91-.94-1.21-1.32-1.89-2.27-1.81-2.5-2.51-4.21-2.95-6.58-.14-.72-1.19-7.09-1.19-7.09h0c-.36-1.12-.55-2.31-.55-3.55,0-6.47,5.24-11.71,11.71-11.71,3.79,0,7.16,1.8,9.3,4.59.26.34.5.69.72,1.06,1.07,1.77,1.69,3.84,1.69,6.06Z"/>
              <path class="cls-11" d="m158.17,57.56s4.2-1.08,3.27,2.8c-1.12,4.65-4.41,4.1-4.41,4.1l1.14-6.89Z"/>
              <path class="cls-14" d="m137.66,56.17c-.11.03-.18-.11-.11-.19.45-.48,1.49-1.44,2.74-1.66s3.15-.12,4.1-.05c.49.04.88.44.88.93,0,0,0,.01,0,.02,0,.39-.25.56-.47.64-.16.06-.33.07-.5.04-.69-.1-3.53-.49-4.04-.36-.45.12-1.93.47-2.6.63Z"/>
              <path class="cls-14" d="m156.38,56.17c.11.03.18-.11.11-.19-.45-.48-1.49-1.44-2.74-1.66s-3.15-.12-4.1-.05c-.49.04-.88.44-.88.93,0,0,0,.01,0,.02,0,.39.25.56.47.64.16.06.33.07.5.04.69-.1,3.53-.49,4.04-.36.45.12,1.93.47,2.6.63Z"/>
              <path class="cls-11" d="m135.84,57.56s-4.16-1.08-3.22,2.8c1.12,4.65,4.41,4.1,4.41,4.1l-1.18-6.89Z"/>
              <g>
                <ellipse class="cls-14" cx="141.53" cy="58.6" rx="1.1" ry="1.56"/>
                <path class="cls-14" d="m142.63,57.63c-1.29,0-1.92-.21-3.13-.14.45-1.41,2.7-1.18,3.13.14h0Z"/>
                <ellipse class="cls-14" cx="152.49" cy="58.6" rx="1.1" ry="1.56"/>
                <path class="cls-14" d="m154.52,57.63c-1.29,0-1.92-.21-3.13-.14.45-1.41,2.7-1.18,3.13.14h0Z"/>
              </g>
              <g>
                <path class="cls-6" d="m143.63,67.59h6.5s-1.23,2.17-3.2,2.17-3.29-2.17-3.29-2.17Z"/>
                <path class="cls-15" d="m146.92,66.98c-1.1-1.14-4.2.61-4.2.61,0,0,2.65.72,4.2.72s4.2-.72,4.2-.72c0,0-3.1-1.75-4.2-.61Z"/>
                <path class="cls-15" d="m151.12,67.59l-1.27.3-1.25.73c-1.03.6-2.31.61-3.35.02l-1.34-.76-1.18-.29c.81,2.05,2.3,2.93,3.27,3.3.59.23,1.25.23,1.85,0,.97-.37,2.46-1.26,3.27-3.3Z"/>
              </g>
              <path class="cls-3" d="m149.16,63.36s-.13.35-1.61.49c0,0-.03.01-.08.03-.37.12-.83.12-1.2,0-.05-.02-.08-.03-.08-.03-1.48-.14-1.61-.49-1.61-.49"/>
            </g>
            <path class="cls-14" d="m147.57,41.59c.03-.05-4.21.28-4.19.32-2.33-.13-12.55,4.42-7.53,17.45,0,0,.78-4.99,1.05-5.48.27-.49-.82-.43-.82-.43,0,0,.88-1.82,1.5-2.08.62-.26-.37-1.08-.37-1.08,0,0,1.31-1.19,1.77-1.3,0,0,.18-.33.16-.69s-.26-.63-.26-.63c0,0,1.54-.22,1.84-.5,0,0,.44-.24-.42-.66,0,0,.96.35,2,.06,1.04-.29-.1-1.04-.1-1.04,0,0,1.52.58,1.84.41.18-.1.29-.65.35-1.08.35.49.91,1.08,1.54,1.1.63.02,1.31-.67,1.78-1.26.09.48.24,1.08.44,1.19.35.18,1.95-.58,1.95-.58,0,0-1.17.94-.03,1.2,1.14.27,2.15-.2,2.15-.2-.91.53-.41.78-.41.78.35.3,2.02.46,2.02.46,0,0-.23.31-.23.74,0,.42.22.78.22.78.51.09,2.01,1.38,2.01,1.38,0,0-1.02,1.01-.32,1.26.69.26,1.77,2.29,1.77,2.29,0,0-1.17,0-.85.55.32.55,1.75,4.84,1.75,4.84,4.41-14.92-7.77-18.07-10.6-17.78Z"/>
            <path class="cls-15" d="m133.24,50.47s3.49-9.53,13.32-9.53,13.5,8.7,13.5,8.7c0,0-3.47-6.59-13.41-6.59s-13.41,7.41-13.41,7.41Z"/>
            <path class="cls-4" d="m222.92,126.21h-28.91s-2.03,2.75,0,5.49h28.91v-5.48"/>
            <path class="cls-4" d="m211.22,114.11l-14.71,4.64-4.96,7.97-6.28-7.15c-2.03-2.75,0-5.49,0-5.49l25.96.02"/>
            <polygon class="cls-4" points="220.45 121.24 211.22 114.11 185.26 114.11 191.54 121.24 220.45 121.24"/>
            <path class="cls-4" d="m220.45,121.25h-28.91s-2.03,2.75,0,5.48h28.91v-5.48"/>
          </g>
        </g>
      </g>
      <polyline class="cls-4" points="249.22 136.48 217.71 116.04 214.07 116.09"/>
      <polygon class="cls-6" points="65.65 138.21 47.13 136.48 62.3 126.1 73.39 126.1 65.65 138.21"/>
      <polyline class="cls-4" points="46.29 136.48 78.32 115.72 87.98 115.72 102.99 115.72"/>
      <path class="cls-11" d="m107.3,118.72c-2.68,0-4.85-2.17-4.85-4.85"/>
      <rect class="cls-4" x="46.29" y="136.48" width="202.93" height="5.91"/>
    </g>
  </g>
</svg>