<?xml version="1.0" encoding="UTF-8"?>
<svg xmlns="http://www.w3.org/2000/svg" viewBox="0 0 301.01 292.08">
  <defs>
    <style>
      .cls-1 {
        stroke-width: 1.5px;
      }

      .cls-1, .cls-2, .cls-3, .cls-4 {
        fill: none;
      }

      .cls-1, .cls-2, .cls-3, .cls-4, .cls-5 {
        stroke-linecap: round;
        stroke-miterlimit: 10;
      }

      .cls-1, .cls-4 {
        stroke: #fff;
      }

      .cls-6 {
        fill: #f7b39a;
      }

      .cls-7 {
        fill: #006a52;
      }

      .cls-8 {
        fill: #e9b69b;
      }

      .cls-9 {
        fill: #fff;
      }

      .cls-10 {
        fill: #f1f1f1;
      }

      .cls-11 {
        fill: #9a6596;
      }

      .cls-12 {
        fill: #a15c27;
      }

      .cls-13 {
        fill: #ba0c2f;
      }

      .cls-14 {
        fill: #909294;
      }

      .cls-15 {
        fill: #b9ad86;
      }

      .cls-16 {
        fill: #a89968;
      }

      .cls-17, .cls-18 {
        fill: #a6a6a9;
      }

      .cls-19, .cls-5, .cls-20 {
        fill: #d0d1d1;
      }

      .cls-21 {
        fill: #d66d82;
      }

      .cls-22 {
        fill: #c7af8b;
      }

      .cls-23 {
        fill: #434243;
      }

      .cls-24, .cls-25 {
        fill: #1a1a1a;
      }

      .cls-26 {
        fill: #6d6e71;
      }

      .cls-27 {
        fill: #808082;
      }

      .cls-28 {
        fill: #5a595c;
      }

      .cls-29 {
        fill: #606062;
      }

      .cls-30 {
        fill: #062d4d;
        mix-blend-mode: multiply;
      }

      .cls-2 {
        stroke: #5a595c;
      }

      .cls-3, .cls-5 {
        stroke: #909294;
      }

      .cls-25 {
        fill-rule: evenodd;
      }

      .cls-31 {
        isolation: isolate;
      }

      .cls-18, .cls-20 {
        opacity: .5;
      }
    </style>
  </defs>
  <g class="cls-31">
    <g id="Layer_2" data-name="Layer 2">
      <g id="Content">
        <g>
          <rect class="cls-10" x="49.09" width="198.6" height="156.97" rx="32.77" ry="32.77"/>
          <g>
            <path class="cls-30" d="m241.31,76.07c.64.66,1.54,1.12,2.27,1.71.66.53,1.22,1.2,1.99,1.54.65.28,1.37.3,2.08.3,1.83,0,3.42-.97,5.25-.97.87,0,1.72.2,2.58.32,2.03.28,4.17.12,6.03-.76.45-.22.91-.5,1.13-.96.27-.58.06-1.27.11-1.91.07-.83.6-1.61.5-2.44-.14-1.11-1.34-1.83-1.6-2.92-.21-.88.23-1.77.58-2.61.08-.2.15-.46,0-.62-.09-.09-.22-.12-.35-.15-1-.18-2.11-.39-3.04-.82-.62-.29-1.15-.69-1.82-.93-1.61-.58-3.35-.8-5.06-.76-1.94.05-3.82.55-5.77.58-2.03.03-4.18-.29-6.09.56.16,1.49-1.26,2.85-.97,4.31.17.85.87,1.49,1.15,2.3.36,1.04,0,2.23.39,3.26.14.37.37.69.64.96Z"/>
            <path d="m275.62,57.71c-.27-.67-.69-1.25-1.1-1.81l-.03-.03c-.11-.15-.22-.3-.33-.45-.1-.14-.19-.28-.21-.4-.02-.11.02-.25.05-.4l.02-.1c.35-1.56-.02-2.72-1.24-3.88-.73-.69-1.55-1.31-2.43-1.83-.14-.09-.29-.17-.35-.27-.05-.1-.04-.26-.04-.43v-.14c.03-1.11-.53-2-1.63-2.55-.37-.18-.75-.31-1.12-.44-.3-.1-.61-.21-.89-.34-.2-.09-.45-.22-.59-.42-.09-.12-.15-.27-.21-.44-.06-.14-.11-.29-.2-.44-.35-.63-1.08-1.05-1.93-1.12-1.64-.15-3.05.66-4.3,1.39-.44-.7-.78-1.44-1.34-2.07-.6-.67-1.25-1.31-2.03-1.78-1.14-.68-2.63-.94-3.8-.31-.35.19-.66.45-1.04.58-.96.34-2-.2-3-.51-.05-.03-.1-.07-.15-.1-.68-.47-1.53-1.06-2.43-.68-.25.11-.44.27-.62.41-.1.08-.19.16-.28.22-.56.37-1.34.28-2.12.2-.14-.01-.28-.03-.41-.04-1.11-.1-2.43.19-2.81,1.29-.12.34-.11.69-.11,1,0,.3,0,.59-.1.81-.12.24-.39.44-.84.61-.27.1-.57.19-.86.27-.42.12-.85.25-1.26.44-.87.4-1.42,1.04-1.63,1.9-.11.44-.03.85.04,1.26.07.39.13.73.01,1.01-.08.21-.3.4-.66.57-.26.12-.54.23-.82.33-.72.27-1.47.54-1.98,1.19-.79,1.01-.58,2.41-.12,3.39l.08.16c.15.3.29.59.25.84-.06.37-.42.6-.84.86-.23.14-.46.29-.66.47-.83.78-.76,1.41-.58,2.23.18.83.07,1.51-.34,2.14-.11.17-.24.33-.38.51-.39.49-.79,1-.88,1.7-.18,1.43,1.08,2.47,2.2,3.22.03.02.07.05.1.07.2.24.41.48.6.72.04.3-.09.64-.25,1.02-.12.3-.25.61-.31.95-.15.93.33,1.78,1.01,2.41.03.54.2,1.06.63,1.37.33.24.76.31,1.14.46.76.3,1.37.98,1.59,1.77.14.49.14,1.02.41,1.45.71,1.12,2.46.62,3.68,1.14.79.34,1.27,1.09,1.88,1.65.71.65,1.33,1.37,2.03,2.04.87.84,1.69.99,2.81,1.25,1.22.28,2.39.55,3.65.63,1.82.12,3.68.11,5.48-.11.61-.07,1.26-.12,1.83-.38.14-.06,1.57-1.11,1.38-1.23.51.34,1.33.59,1.93.37.63-.23.83-.93,1.53-1.08.57-.12,1.06.09,1.66-.09.8-.25,1.45-.59,2.32-.62.94-.02,2.03.16,2.67-.53.67-.71.56-2.12,1.49-2.42.44-.14.95.07,1.38-.13,1.01-.46.16-2.21.9-3.03.29-.32.75-.42,1.07-.7.92-.83.05-2.4.46-3.56.2-.58.7-1,1.03-1.51.58-.44,1.08-.97,1.19-1.73.12-.79-.25-1.5-.59-2.13l-.09-.16c-.37-.71-.47-1.25-.31-1.65.14-.17.28-.34.42-.51.1-.08.2-.16.31-.24.24-.17.49-.35.7-.6.73-.85.63-2.04.3-2.88Zm-47.84,4.85c.07-.59.44-1.05.8-1.5.14-.18.28-.35.4-.53.48-.73.61-1.5.4-2.45-.16-.72-.22-1.2.46-1.84.09-.09.2-.16.31-.24-.19.16-.35.35-.46.57-.58,1.16.57,2.48.5,3.78-.08,1.35-1.46,2.4-1.37,3.75.02.26.09.5.19.73-.74-.61-1.36-1.36-1.24-2.26Zm2.34,6c.05-.29.17-.58.28-.86.09-.22.18-.44.24-.67.15.24.27.49.33.77.18.76-.08,1.55-.2,2.33-.01.07-.02.15-.03.22-.45-.51-.73-1.13-.63-1.79Zm15.07-28.37c-.85.57-1.95.51-2.97.58-1.02.07-2.18.41-2.57,1.35-.18.43-.16.92-.32,1.35-.65,1.69-3.54,1.56-4.11,3.27-.2.62-.03,1.31-.23,1.93-.5,1.5-2.93,1.77-3.19,3.33-.13.77.38,1.57.15,2.32-.13.41-.43.7-.79.96.16-.17.27-.36.31-.61.06-.38-.11-.74-.28-1.08l-.07-.15c-.41-.87-.6-2.1.08-2.96.44-.56,1.13-.81,1.81-1.06.27-.1.58-.21.85-.35.46-.22.74-.48.86-.78.16-.39.08-.82,0-1.24-.06-.36-.13-.73-.04-1.09.18-.73.65-1.28,1.4-1.63.39-.18.8-.3,1.22-.42.29-.08.59-.17.88-.28.55-.21.89-.47,1.06-.81.15-.31.15-.66.14-.99,0-.29,0-.59.09-.86.31-.88,1.44-1.1,2.4-1.02.13.01.27.03.43.04.83.09,1.68.18,2.36-.27.11-.07.21-.16.32-.25.16-.13.32-.27.52-.35.47-.2.94-.04,1.4.23-.28,0-.56.05-.83.19-.32.17-.58.44-.88.65Zm28.65,23.6l.09.17c.3.58.64,1.23.54,1.89-.06.37-.24.68-.48.96.18-1.31-.87-2.78-.53-4.05.06.31.19.66.38,1.04Zm1.18-3.45c-.07.08-.16.16-.24.23.2-.61.2-1.29-.04-1.9-.37-.95-1.25-1.68-1.4-2.69-.08-.54.06-1.09.09-1.63.07-1.39-.67-2.8-1.86-3.52-.94-.57-2.24-.87-2.57-1.93-.08-.24-.09-.5-.15-.74-.27-1.05-1.37-1.61-2.36-2.06-.53-.24-1.07-.49-1.5-.89-.3-.28-.54-.61-.83-.9-.92-.94-2.34-1.3-3.62-1.02.88-.43,1.82-.76,2.83-.66.72.07,1.33.41,1.62.92.07.12.12.26.18.39.07.18.14.37.26.52.2.27.51.43.75.55.3.14.62.25.93.35.36.12.72.25,1.06.42.95.48,1.44,1.23,1.41,2.17v.14c-.02.22-.03.45.08.64.11.2.31.32.51.43.84.5,1.63,1.09,2.35,1.77,1.11,1.04,1.44,2.09,1.13,3.49l-.02.1c-.04.18-.09.37-.06.56.03.21.15.39.27.57.11.15.22.31.33.46l.03.04c.4.54.8,1.09,1.05,1.72.29.73.38,1.76-.23,2.47Z"/>
            <g>
              <path class="cls-27" d="m264.11,127.76h-24.22s-8.54,17.81-8.36,22.44l17.94,9.65c1.51,1.13,3.55,1.13,5.05,0l18.33-9.65c.19-4.63-8.75-22.44-8.75-22.44Z"/>
              <path class="cls-27" d="m269.64,86.02l-17.63-5.61h0s-.02,0-.02,0h-.02s0,0,0,0l-17.63,5.61c-1,5.86.95,14.94.95,14.94.68,7.21,2.42,13.79,3.55,17.48.67,2.21,1.01,4.51,1.01,6.82v2.5h24.24s.02-2.5.02-2.5c0-2.32.34-4.62,1.01-6.82,1.12-3.69,2.87-10.27,3.55-17.48,0,0,1.95-9.07.95-14.94Z"/>
              <path class="cls-27" d="m239.87,127.27c0-6.69,5.42-12.12,12.1-12.12s12.14,5.43,12.14,12.13-5.45,12.12-12.14,12.12-12.1-5.43-12.1-12.12Z"/>
              <g>
                <path class="cls-27" d="m228.68,90.74s-1.99,12.59-3.72,32.3c-.18,2.02,1.3,3.84,3.37,4.16h0c2.36.37,4.18-1.38,4.57-3.65,2.93-17.25,6.94-31.05,6.94-31.05l-11.17-1.76Z"/>
                <circle class="cls-27" cx="234.26" cy="91.62" r="5.65"/>
                <circle class="cls-27" cx="228.88" cy="123.22" r="4.03"/>
                <g>
                  <path class="cls-27" d="m225.05,121.94l-2.57,4.91c-.6,1.15-1.13,2.32-1.59,3.53-.75,1.98-1.39,4-1.93,6.06l-3.58,13.7,5.14.9s1.35-3.44,3.58-7.38c3.72-6.57,9.19-15.68,8.6-19.13l-7.64-2.59Z"/>
                  <circle class="cls-27" cx="217.83" cy="151.29" r="2.7"/>
                </g>
                <g id="Layer_2-2" data-name="Layer 2">
                  <g id="Scene1_2" data-name="Scene1 2">
                    <g id="Hand">
                      <circle class="cls-27" cx="217.92" cy="151.2" r="2.69"/>
                    </g>
                  </g>
                </g>
                <g>
                  <path class="cls-28" d="m216.66,161.23c1.68.5,3.95-.91,4.03,1.21-1.41.44-3.69.62-5.55-.09l1.52-1.12Z"/>
                  <path class="cls-28" d="m217.44,162.66c2.09.83,4.74-.68,4.61,2.03-1.85.4-4.37.33-6.67-.77l2.06-1.26Z"/>
                  <path class="cls-26" d="m218.42,163.8c2.02.98,5.34-.41,5.02,2.28-1.87.26-4.96.09-7.17-1.18l2.15-1.1Z"/>
                  <path class="cls-27" d="m219.99,150.81l-.37,8.2c-1.32,1.48-1.64,3.41-.74,5.88,2.31,1.19,4.77,1.27,4.22,3.07-1.89.16-4.65-.33-6.79-1.73l-2.73-6.38c.1-3.19.72-6.35,1.62-8.98l4.79-.07Z"/>
                  <path class="cls-26" d="m216.31,166.24c-.06.01-.53-1.18-.9-2.66-.37-1.49-.63-2.7-.57-2.71.06-.01.4,1.18.77,2.66.37,1.49.76,2.7.7,2.71Z"/>
                  <path class="cls-27" d="m219.49,159.01c1.23,1.09.66,1.57,1.08,3.56.62,2.89,2.61,2.59,2.86,1.86.25-.73-.73-5.05-.73-5.05-.77-2.92-.23-6.03-2.71-8.57-1.42,1.75-.52,5.03-.5,8.2Z"/>
                </g>
              </g>
              <g>
                <path class="cls-27" d="m250.91,206.33s.33,17.42.1,24.57c-.23,7.08-1.4,11.2-1.59,18.28-.13,4.8.32,12.58.32,12.58l-5.5.59s-5.74-20.74-6.68-31.82c-.61-7.13,2.15-24.21,2.15-24.21h11.21Z"/>
                <g>
                  <path class="cls-27" d="m251.01,151.92c0-5.42-4.39-9.81-9.81-9.81s-9.81,4.39-9.81,9.81c0,0,0,4.2,0,4.21,0,11.25-.19,20.44,7.67,44.51.31.95.54,1.8.7,2.54.02.11-.09,3.03-.06,3.14h11.86c-.08-.89-.52-5.06-.55-6.53-.12-6.06.39-26.52.39-31.45,0-7.66-.39-14.99-.39-16.42Z"/>
                  <circle class="cls-27" cx="241.2" cy="151.92" r="9.81"/>
                </g>
                <circle class="cls-27" cx="245.63" cy="206.26" r="5.93"/>
                <circle class="cls-27" cx="247.03" cy="262.52" r="2.84"/>
                <path class="cls-27" d="m251.71,272.39s.52-7.14-1.84-9.87h-4.69c-.57,0-.95-.16-.95-.16,0,0-1.54,2.26-1.71,2.8-.22.71-.44,1.91-.65,2.79-.59,2.44-1.22,3.89-1.22,4.91,0,0-.25.64-.39,1.32-.06.27-.14.53-.29.76-.05.08-.09.17-.11.27-.11.55.3,1.03.83,1.03.07,0,.13,0,.2-.02.16-.04.33,0,.44.12.17.16.39.26.64.26.13,0,.25-.03.36-.08.22-.09.46-.04.64.11.24.21.55.33.89.33.28,0,.53-.08.75-.22.24-.16.55-.12.77.07.23.21.53.33.86.33s.63-.12.86-.33.58-.23.81-.02c.4.37.94.6,1.52.6,1.27,0,2.29-1.05,2.24-2.33,0-.12-.02-.25-.05-.37-.06-.26-.06-.53-.03-.79,0-.05.01-.1.01-.15l.09-1.37Z"/>
              </g>
              <ellipse class="cls-27" cx="244.23" cy="106.1" rx="9.2" ry="8.05" transform="translate(40.28 277.31) rotate(-63.49)"/>
              <ellipse class="cls-27" cx="259.7" cy="106.1" rx="8.05" ry="9.2" transform="translate(-20.06 127.06) rotate(-26.51)"/>
              <g>
                <path class="cls-27" d="m253.53,206.33s-.33,17.42-.1,24.57c.23,7.08,1.4,11.2,1.59,18.28.13,4.8-.32,12.58-.32,12.58l5.5.59s5.74-20.74,6.68-31.82c.61-7.13-2.15-24.21-2.15-24.21h-11.21Z"/>
                <g>
                  <path class="cls-27" d="m253.43,151.92c0-5.42,4.39-9.81,9.81-9.81,5.42,0,9.81,4.39,9.81,9.81,0,0,0,4.2,0,4.21,0,11.25.19,20.44-7.67,44.51-.31.95-.54,1.8-.7,2.54-.02.11.09,3.03.06,3.14h-11.86c.08-.89.52-5.06.55-6.53.12-6.06-.39-26.52-.39-31.45,0-7.66.39-14.99.39-16.42Z"/>
                  <circle class="cls-27" cx="263.24" cy="151.92" r="9.81"/>
                </g>
                <circle class="cls-27" cx="258.81" cy="206.26" r="5.93"/>
                <circle class="cls-27" cx="257.41" cy="262.52" r="2.84"/>
                <path class="cls-27" d="m252.75,272.39s-.52-7.14,1.84-9.87h4.69c.57,0,.95-.16.95-.16,0,0,1.54,2.26,1.71,2.8.22.71.44,1.91.65,2.79.59,2.44,1.22,3.89,1.22,4.91,0,0,.25.64.39,1.32.06.27.14.53.29.76.05.08.09.17.11.27.11.55-.3,1.03-.83,1.03-.07,0-.13,0-.2-.02-.16-.04-.33,0-.44.12-.17.16-.39.26-.64.26-.13,0-.25-.03-.36-.08-.22-.09-.46-.04-.64.11-.24.21-.55.33-.89.33-.28,0-.53-.08-.75-.22-.24-.16-.55-.12-.77.07-.23.21-.53.33-.86.33s-.63-.12-.86-.33-.58-.23-.81-.02c-.4.37-.94.6-1.52.6-1.27,0-2.29-1.05-2.24-2.33,0-.12.02-.25.05-.37.06-.26.06-.53.03-.79,0-.05-.01-.1-.01-.15l-.09-1.37Z"/>
              </g>
              <g>
                <path class="cls-27" d="m274.37,90.74s1.99,12.59,3.72,32.3c.18,2.02-1.3,3.84-3.37,4.16h0c-2.36.37-4.18-1.38-4.57-3.65-2.93-17.25-6.94-31.05-6.94-31.05l11.17-1.76Z"/>
                <circle class="cls-27" cx="268.79" cy="91.62" r="5.65"/>
                <circle class="cls-27" cx="274.17" cy="123.22" r="4.03"/>
                <g>
                  <path class="cls-27" d="m278,121.94l2.57,4.91c.6,1.15,1.13,2.32,1.59,3.53.75,1.98,1.39,4,1.93,6.06l3.58,13.7-5.14.9s-1.35-3.44-3.58-7.38c-3.72-6.57-9.19-15.68-8.6-19.13l7.64-2.59Z"/>
                  <circle class="cls-27" cx="285.22" cy="151.29" r="2.7"/>
                </g>
                <g id="Layer_2-3" data-name="Layer 2">
                  <g id="Scene1_2-2" data-name="Scene1 2">
                    <g id="Hand-2" data-name="Hand">
                      <circle class="cls-27" cx="285.13" cy="151.2" r="2.69"/>
                    </g>
                  </g>
                </g>
                <g>
                  <path class="cls-28" d="m286.39,161.23c-1.68.5-3.95-.91-4.03,1.21,1.41.44,3.69.62,5.55-.09l-1.52-1.12Z"/>
                  <path class="cls-28" d="m285.61,162.66c-2.09.83-4.74-.68-4.61,2.03,1.85.4,4.37.33,6.67-.77l-2.06-1.26Z"/>
                  <path class="cls-26" d="m284.63,163.8c-2.02.98-5.34-.41-5.02,2.28,1.87.26,4.96.09,7.17-1.18l-2.15-1.1Z"/>
                  <path class="cls-27" d="m283.06,150.81l.37,8.2c1.32,1.48,1.64,3.41.74,5.88-2.31,1.19-4.77,1.27-4.22,3.07,1.89.16,4.65-.33,6.79-1.73l2.73-6.38c-.1-3.19-.72-6.35-1.62-8.98l-4.79-.07Z"/>
                  <path class="cls-26" d="m286.74,166.24c.06.01.53-1.18.9-2.66.37-1.49.63-2.7.57-2.71-.06-.01-.4,1.18-.77,2.66-.37,1.49-.76,2.7-.7,2.71Z"/>
                  <path class="cls-27" d="m283.56,159.01c-1.23,1.09-.66,1.57-1.08,3.56-.62,2.89-2.61,2.59-2.86,1.86-.25-.73.73-5.05.73-5.05.77-2.92.23-6.03,2.71-8.57,1.42,1.75.52,5.03.5,8.2Z"/>
                </g>
              </g>
            </g>
            <circle class="cls-27" cx="251.84" cy="85.46" r="6.63"/>
            <polygon class="cls-27" points="258.38 84.42 245.29 84.43 245.29 84.43 245.58 82.46 245.82 80.82 246.26 77.79 246.59 75.58 246.65 75.16 246.75 74.49 247.21 71.36 256.49 71.37 257.01 74.98 257.09 75.55 257.16 76.01 257.22 76.41 257.28 76.86 258.35 84.24 258.35 84.24 258.38 84.42"/>
            <circle class="cls-27" cx="251.84" cy="71.37" r="4.64"/>
            <path class="cls-26" d="m257.28,76.86l-.74,1.24c-.37.62-.8,1.18-1.28,1.68-1.61,1.7-3.78,2.67-6.08,2.67h-3.6l.24-1.64.44-3.02.33-2.22,10.57.43.06.4.06.45Z"/>
            <g>
              <path class="cls-27" d="m262.75,58.8c0-6.28-5.19-11.35-11.48-11.07-5.49.24-10,4.62-10.44,10.15-.12,1.5.06,2.95.48,4.28h0s.98,8.53,1.11,9.22c.42,2.24,6.36,6.47,8.16,7.49.74.42,1.64.42,2.38,0,1.8-1.02,7.74-5.25,8.16-7.49.13-.68,1.11-9.22,1.11-9.22h0c.33-1.06.52-2.19.52-3.36Z"/>
              <path class="cls-27" d="m262.24,61.99s3.94-1.01,3.06,2.62c-1.05,4.35-4.13,3.84-4.13,3.84l1.07-6.46Z"/>
              <path class="cls-27" d="m241.64,62.1s-4.23-1.12-3.35,2.52c1.05,4.35,4.07,3.86,4.07,3.86l-.72-6.37Z"/>
              <ellipse cx="246.89" cy="63.11" rx=".99" ry="1.41"/>
              <path d="m247.88,62.24c-1.2.06-1.71-.13-2.83-.12.36-1.34,2.48-1.13,2.83.12h0Z"/>
              <ellipse cx="256.78" cy="63.11" rx=".99" ry="1.41"/>
              <path d="m258.62,62.24c-1.2.06-1.71-.13-2.83-.12.36-1.34,2.48-1.13,2.83.12h0Z"/>
            </g>
            <path d="m243.39,60.54c-.1.02-.17-.1-.1-.17.4-.43,1.34-1.3,2.47-1.5s2.84-.11,3.71-.04c.44.03.79.39.79.84,0,0,0,.01,0,.02,0,.35-.22.51-.42.58-.14.05-.3.06-.45.04-.63-.09-3.19-.45-3.65-.32-.4.1-1.74.42-2.35.57Z"/>
            <path d="m260.3,60.54c.1.02.17-.1.1-.17-.4-.43-1.34-1.3-2.47-1.5s-2.84-.11-3.71-.04c-.44.03-.79.39-.79.84,0,0,0,.01,0,.02,0,.35.22.51.42.58.14.05.3.06.45.04.63-.09,3.19-.45,3.65-.32.4.1,1.74.42,2.35.57Z"/>
            <g>
              <path class="cls-9" d="m248.86,71.57h5.87s-1.11,1.96-2.89,1.96-2.97-1.96-2.97-1.96Z"/>
              <path class="cls-26" d="m251.83,71.02c-.99-1.03-3.79.55-3.79.55,0,0,2.39.65,3.79.65s3.79-.65,3.79-.65c0,0-2.8-1.58-3.79-.55Z"/>
              <path class="cls-26" d="m255.62,71.57l-1.15.27-1.13.66c-.93.54-2.08.55-3.02.02l-1.21-.69-1.06-.26c.73,1.85,2.08,2.64,2.95,2.98.54.21,1.13.21,1.67,0,.87-.34,2.22-1.13,2.95-2.98Z"/>
            </g>
            <path class="cls-2" d="m253.86,67.54s-.11.61-1.45.86c0,0-.03.02-.07.05-.33.21-.75.21-1.08,0-.04-.03-.07-.05-.07-.05-1.34-.25-1.45-.86-1.45-.86"/>
            <path d="m257.26,48.3s.04,0,.06.01c1.08.2,2.06.72,2.97,1.3.82.52,1.71.74,2.27,1.59.7,1.08,1.04,2.48,1.37,3.61.42,1.46.85,2.99.64,4.53-.18,1.35-.88,2.61-1.89,3.51-.32.29-.73.71-1.12.22-.31-.37-.14-.75.04-1.12.13-.27.15-.56.28-.84.15-.32.38-.64.32-1.02-.06-.34-.36-.58-.56-.87-.25-.35-.37-.79-.32-1.22.05-.41.23-.89-.05-1.2-.23-.27-.66-.23-.97-.4-.37-.2-.51-.65-.65-1.05-.14-.4-.36-.84-.77-.94-.23-.05-.49.02-.71-.06-.35-.12-.51-.52-.74-.8-.28-.34-.74-.53-1.18-.49-.15.01-.31.05-.46.02-.56-.1-.64-.94-1.14-1.21-.39-.2-.9,0-1.27-.24-.3-.19-.39-.61-.66-.84-.27-.23-.66-.25-.98-.4-.32-.16-.73-.63-.65-1.02.07-.38.64-.63.97-.73.72-.22,1.49-.29,2.24-.36,1-.09,2.01-.18,3,0Z"/>
            <path d="m234.18,59.59s0-.06,0-.09c.18-1.75.86-3.38,1.66-4.93.71-1.38.94-2.83,2.22-3.84,1.62-1.27,3.81-2.02,5.57-2.69,2.27-.87,4.66-1.77,7.13-1.65,2.17.11,4.28,1.04,5.87,2.52.5.46,1.23,1.06.51,1.76-.55.54-1.18.32-1.79.09-.45-.17-.92-.16-1.38-.33-.53-.2-1.08-.52-1.66-.36-.54.15-.88.66-1.3,1.02-.52.45-1.21.7-1.9.68-.66-.02-1.45-.24-1.91.24-.39.41-.28,1.09-.5,1.61-.27.62-.97.91-1.59,1.19-.62.28-1.29.69-1.39,1.36-.05.38.09.77,0,1.15-.13.58-.75.88-1.17,1.3-.5.5-.74,1.25-.62,1.95.04.25.13.49.1.74-.09.91-1.41,1.15-1.77,1.99-.27.64.12,1.44-.2,2.06-.26.51-.91.71-1.25,1.17-.33.46-.3,1.09-.51,1.62-.21.53-.91,1.25-1.54,1.18-.61-.06-1.09-.94-1.3-1.45-.46-1.12-.68-2.33-.89-3.53-.28-1.58-.57-3.18-.42-4.78Z"/>
            <path class="cls-13" d="m273.7,134.49c.23.3.54.53.92.45l8.3-1.65c.34-.07.56-.38.51-.72-.32-2.09-2.24-8.87-4.07-12.07h-.04c-2.16-16.17-4.18-27.23-4.77-30.36-.01-.3-.04-.61-.1-.92-.57-2.9-3.14-4.91-5.99-4.87-1.38-.08-4.66-.36-7.1-1.23-.54-.18-1.04-.4-1.47-.66-.77-.45-2.19-.65-2.19-.65-.02.17-.86,11.62-5.97,18.87-5.11-7.24-5.95-18.7-5.97-18.87,0,0-1.42.19-2.19.65-.43.25-.93.47-1.47.66-2.47.88-5.8,1.15-7.15,1.23-2.88-.06-5.48,1.95-6.05,4.87-.06.31-.09.62-.1.92-.59,3.13-2.61,14.2-4.77,30.38h-.04c-1.83,3.18-3.75,9.97-4.07,12.06-.05.34.17.66.51.72l8.3,1.65c.37.07.69-.15.92-.45,3.4-4.53,3.47-7.89,3.12-9.64.47-2.11,1.57-6.95,1.8-7.9.3-1.25.6-2.46.9-3.64.09-.38.19-.75.28-1.12.11-.44.22-.87.33-1.3,0,.06,0,.12,0,.17.05.93.1,1.82.14,2.69.03.52.05,1.02.08,1.5.06,1.19.1,2.3.14,3.28.03.82.05,1.55.06,2.18.02,1.44-.27,3.55-.71,5.92-.22,1.18-.54,2.45-.77,3.71-9.19,26.51-14.8,71.96-15.09,76.63,5.24,2.21,11.1,3.89,17.37,4.91,2.09.34,8.18,1.23,14.28,1.23s12.18-.89,14.28-1.23c6.28-1.02,12.13-2.7,17.37-4.91-.3-4.67-3.01-33.8-14.78-76.68-.17-1.26-.54-2.49-.76-3.66-.44-2.37-.73-4.48-.71-5.92,0-.62.03-1.35.06-2.18.03-.98.08-2.08.14-3.28.02-.49.05-.99.08-1.5.04-.81.08-1.66.13-2.53.08.32.16.64.25.97.09.37.19.74.28,1.12.3,1.18.6,2.39.9,3.64.22.93,1.15,5.67,1.59,7.86-.27,1.75-.1,5.12,3.32,9.68Z"/>
            <path class="cls-21" d="m263.51,84.71c-1.41-1.41-2.29-2.38-3.21-2.89-.62-.35-1.96-.31-2.6,0h0s0,0,0,0c0,0,0,.02-.01.06l-1.11,5.33c-.99,4.16-2.62,9.79-4.85,13.36-2.22-3.55-3.85-9.13-4.84-13.28l-1.14-5.47s0,0,0,0h0s0,0,0,0c-.64-.31-1.98-.35-2.6,0-.92.52-1.8,1.49-3.21,2.89-1.22,1.21-3.99,2.71-3.99,2.71,1.31,1.27,3.73.79,4.43.59.05-.01.1-.04.15-.05-.01.01-.02.03-.02.03l3.22-.93c.16-.05.33-.08.49-.11,1.16,5.36,3.12,12.26,6.01,15.56v43.86h2.99v-43.86c2.89-3.3,4.85-10.2,6.01-15.56.17.03.33.06.49.11l3.22.93s0-.01-.02-.03c.05.02.1.04.15.05.7.2,3.12.68,4.43-.59,0,0-2.77-1.49-3.99-2.71Z"/>
            <path class="cls-11" d="m255.76,81.01s0,0-.01,0c-.02,0,0,0,.01,0Z"/>
            <g>
              <path class="cls-9" d="m252.25,102.51c0,.39-.32.71-.71.71s-.71-.32-.71-.71.32-.71.71-.71.71.32.71.71Z"/>
              <circle class="cls-9" cx="251.53" cy="109.03" r=".71"/>
              <circle class="cls-9" cx="251.53" cy="115.56" r=".71"/>
              <circle class="cls-9" cx="251.53" cy="122.08" r=".71"/>
            </g>
            <g>
              <path d="m251.77,273.01c.01-.56.08-2.03.04-2.85-.09-1.74-.19-5.43-.7-5.64-.1.34-1.28,6.5-6.3,6.27-3.45-.16-2.08-5.43-2.27-5.93-.37.44-2.93,8.05-3.16,8.84,0-.02,0-.03,0-.01-.22.85-.4,1.88-.4,2.83,0,.5,1.86,2.05,4.1,2.05,2.63,0,5.21-.68,6.9-1.48,1.11-.53,1.75-.88,1.77-1.27.04-.18.14-1.77.02-2.1,0-.27.01-.52.02-.71Z"/>
              <path class="cls-9" d="m249.33,273.84c.06,0,.13-.01.18-.03.16-.07.21-.2.11-.31-.06-.06-1.56-1.58-4.89-1.65-3.07-.07-4.03,1.07-4.07,1.11-.09.11-.03.25.14.3.17.06.38.02.46-.09.03-.04.81-.93,3.44-.88,2.96.06,4.28,1.39,4.33,1.44.07.07.18.1.29.1Z"/>
            </g>
            <g>
              <path d="m252.44,273.01c-.01-.56-.08-2.03-.04-2.85.09-1.74.19-5.43.7-5.64.1.34,1.28,6.5,6.3,6.27,3.45-.16,2.08-5.43,2.27-5.93.37.44,2.93,8.05,3.16,8.84,0-.02,0-.03,0-.01.22.85.4,1.88.4,2.83,0,.5-1.86,2.05-4.1,2.05-2.63,0-5.21-.68-6.9-1.48-1.11-.53-1.75-.88-1.77-1.27-.04-.18-.14-1.77-.02-2.1,0-.27-.01-.52-.02-.71Z"/>
              <path class="cls-9" d="m254.89,273.84c-.06,0-.13-.01-.18-.03-.16-.07-.21-.2-.11-.31.06-.06,1.56-1.58,4.89-1.65,3.07-.07,4.03,1.07,4.07,1.11.09.11.03.25-.14.3-.17.06-.38.02-.46-.09-.03-.04-.81-.93-3.44-.88-2.96.06-4.28,1.39-4.33,1.44-.07.07-.18.1-.29.1Z"/>
            </g>
          </g>
          <g>
            <polygon class="cls-22" points="41.26 51.89 56.01 51.89 48.86 59.1 48.41 59.1 41.26 51.89"/>
            <path class="cls-19" d="m67.64,122.17c-.53-2.83-1.22-5.36-1.61-8.01-1.12-7.65-.68-16.08-.68-16.08H31.9s.47,8.58-.68,16.08c-.4,2.64-1.08,5.18-1.61,8.01-.52,2.77-.59,5.92-.24,8.02,0,0,6.22,14.53,19.43,14.53s19.08-14.53,19.08-14.53c.34-2.1.27-5.25-.24-8.02Z"/>
            <path class="cls-19" d="m61.96,58.54l-13.34-6.32-12.34,6.18-15.32,8.59s4.82,9.79,7.71,19.63c1.65,5.63,2.61,9.59,4.01,14.01h31.9c1.39-4.42,2.35-8.38,4.01-14.01,2.89-9.83,7.71-19.63,7.71-19.63l-14.32-8.45Z"/>
            <circle class="cls-19" cx="48.63" cy="102.45" r="16.59"/>
            <g>
              <path class="cls-19" d="m55.71,58.51c0,.07.01.13.01.2,0,3.92-3.19,7.09-7.11,7.09-3.92,0-7.09-3.19-7.09-7.11,0-.07.01-.13.01-.2h-.01v-.08c.04-.59.13-1.16.29-1.71.02-.08.05-.16.08-.24l.31-1.72.99-5.54.12-.66h0s10.65.01,10.65.01l.19,1.05.14.79.28,1.56.8,4.52c.2.62.31,1.26.34,1.94v.08s0,0,0,0Z"/>
              <path class="cls-19" d="m53.97,48.56c0,2.94-2.39,5.32-5.33,5.32-2.94,0-5.32-2.39-5.32-5.33h0c0-.45.06-.88.16-1.29.58-2.32,2.67-4.04,5.18-4.04,2.63,0,4.81,1.91,5.24,4.42.05.3.08.6.08.91Z"/>
              <path class="cls-17" d="m54.29,50.4c-1.97,2.72-5.13,4.35-8.5,4.35h-3.59l.99-5.54.12-.66h0c0-.45.06-.88.16-1.29l10.41.39c.05.3.08.6.08.91l.19,1.05.14.79Z"/>
            </g>
            <g>
              <path class="cls-19" d="m43.8,190.82s-1.22,6.23-1.66,13.82c-.2,3.37.54,8.07.54,10.83,0,8.06-2.32,14.09-2.74,19.22-.55,6.69-1.14,13.02-.17,21.1.31,2.54.65,4.38-2.5,6.13-1.37.74-5.42.33-6.02-3.32,0-.02.17-10.55-.55-18.06-.83-8.72-3.19-18.19-3.69-24.17-.74-8.83,3.52-25.55,3.52-25.55h13.26Z"/>
              <path class="cls-19" d="m45.03,128.15c0-5.31-4.31-9.41-9.61-9.61-.13,0-.26,0-.38,0-2.94,0-5.44,2.17-6,5.06-.91,4.71-3.16,11.25-3.15,26.66,0,5.97,3.75,15.41,4.27,25.3.24,4.5.7,9.88.39,15.27h13.26c1.98-10.1,1.67-18.38,1.94-25.56.22-5.92,1.19-11.09,1.19-15.97,0-11.82-1.82-14.89-1.9-21.14Z"/>
              <path class="cls-19" d="m33.89,258.56c-.83.77-2.33,2.27-3.31,3.81-.31.48-.65.93-1.05,1.33-1,.98-2.52,3.19-2.95,4.87,0,0-1.88,3.09-.8,3.69,0,0,1.5,1.29,2.99.75,0,0,1.74.4,2.63-.1,0,0,1.44.45,2.44,0,0,0,3.04,1.4,5.03.25s1.49-4.68,1.49-4.68l-.59-8.88c-.08-1.18-.94-2.19-2.11-2.36-.56-.08-1.26-.03-2.09.28-.63.23-1.19.59-1.68,1.05Z"/>
              <circle class="cls-19" cx="38.94" cy="123.23" r="9.55"/>
              <circle class="cls-20" cx="37.38" cy="190.01" r="6.73"/>
              <circle class="cls-20" cx="35.6" cy="257.86" r="4.39"/>
            </g>
            <g>
              <path class="cls-19" d="m53.17,190.82s1.22,6.23,1.66,13.82c.2,3.37-.54,8.07-.54,10.83,0,8.06,2.32,14.09,2.74,19.22.55,6.69,1.14,13.02.17,21.1-.31,2.54-.65,4.38,2.5,6.13,1.37.74,5.42.33,6.02-3.32,0-.02-.17-10.55.55-18.06.83-8.72,3.19-18.19,3.69-24.17.74-8.83-3.52-25.55-3.52-25.55h-13.26Z"/>
              <path class="cls-19" d="m51.94,128.15c0-5.31,4.31-9.41,9.61-9.61.13,0,.26,0,.38,0,2.94,0,5.44,2.17,6,5.06.91,4.71,3.16,11.25,3.15,26.66,0,5.97-3.75,15.41-4.27,25.3-.24,4.5-.7,9.88-.39,15.27h-13.26c-1.98-10.1-1.67-18.38-1.94-25.56-.22-5.92-1.19-11.09-1.19-15.97,0-11.82,1.82-14.89,1.9-21.14Z"/>
              <circle class="cls-19" cx="58.03" cy="123.23" r="9.55"/>
              <circle class="cls-20" cx="59.6" cy="190.01" r="6.73"/>
              <circle class="cls-20" cx="61.38" cy="257.86" r="4.39"/>
              <path class="cls-19" d="m63.08,258.56c.83.77,2.33,2.27,3.31,3.81.31.48.65.93,1.05,1.33,1,.98,2.52,3.19,2.95,4.87,0,0,1.88,3.09.8,3.69,0,0-1.5,1.29-2.99.75,0,0-1.74.4-2.63-.1,0,0-1.44.45-2.44,0,0,0-3.04,1.4-5.03.25s-1.49-4.68-1.49-4.68l.59-8.88c.08-1.18.94-2.19,2.11-2.36.56-.08,1.26-.03,2.09.28.63.23,1.19.59,1.68,1.05Z"/>
            </g>
            <path class="cls-28" d="m59.99,35.99c-.55-.16-3.36-1.95-3.68-5.86-.31-3.91-3.99-4.69-3.99-4.69,0,0-.36-.02-1.23-.03-.59,0-1.42-.01-2.53,0-.57,0-1.22.01-1.95.03-.07,0-.13,0-.19,0-4.08.11-5.58,1.27-5.81,4.89-.02.32-.06.63-.11.94-.51,3.27-2.46,5.97-2.46,5.97,0,0-2.33-2.24-3.02-4.93-1.65-6.51,3.84-9.45,3.84-9.45,4.46-9.85,11.5-3.91,11.5-3.91,5.24-.08,4.82,3.75,4.82,3.75,0,0,3.47-1.41,4.8,1.09,1.33,2.5,0,12.2,0,12.2Z"/>
            <path d="m34.56,29.11s-4.27,5.54.9,8.12l1.79,2.94,23.66-5.63c.1-1.05-.67-2.58-1.71-2.69l-24.64-2.75Z"/>
            <circle class="cls-6" cx="48.19" cy="44.74" r="4.87"/>
            <path class="cls-19" d="m59.4,31.33c0,.5-.03.98-.1,1.46-.01.12-.03.24-.05.36-.04.24-.09.48-.14.71-.03.12-.06.25-.09.37-.04.16-.09.33-.14.49,0,0-1,7.6-1.12,8.29-.42,2.26-6.43,7.34-8.25,8.37-.75.42-1.66.42-2.41,0-1.82-1.03-7.83-6.11-8.25-8.37-.13-.69-1.12-8.29-1.12-8.29h0c-.04-.13-.08-.27-.12-.4-.04-.12-.07-.24-.09-.36-.07-.27-.12-.54-.16-.82-.02-.12-.04-.24-.05-.36-.1-.77-.12-1.56-.06-2.38.45-5.59,5.01-10.01,10.55-10.25,6.36-.28,11.6,4.83,11.6,11.18Z"/>
            <path d="m39.43,32.57c-.09.02-.15-.1-.09-.18.37-.45,1.23-1.36,2.26-1.58s2.6-.11,3.39-.05c.4.03.72.41.73.88,0,0,0,.01,0,.02,0,.37-.2.53-.39.61-.13.05-.27.06-.41.04-.57-.09-2.92-.47-3.34-.34-.37.11-1.59.44-2.15.6Z"/>
            <path d="m56.56,32.57c.09.02.15-.1.09-.18-.37-.45-1.23-1.36-2.26-1.58s-2.6-.11-3.39-.05c-.4.03-.72.41-.73.88,0,0,0,.01,0,.02,0,.37.2.53.39.61.13.05.27.06.41.04.57-.09,2.92-.47,3.34-.34.37.11,1.59.44,2.15.6Z"/>
            <g>
              <ellipse cx="43.14" cy="35.46" rx="1.04" ry="1.47"/>
              <path d="m44.18,34.55c-1.15-.04-1.45-.07-2.5-.13.21-1.35,2.41-1.21,2.5.13h0Z"/>
              <ellipse cx="53.48" cy="35.46" rx="1.04" ry="1.47"/>
              <path d="m52.44,34.55c.08-1.34,2.29-1.48,2.5-.13-1.05.06-1.35.09-2.5.13h0Z"/>
            </g>
            <path class="cls-9" d="m44.62,43.13s1.09,1.45,2.84,1.83c.61.13,1.23.13,1.84,0,1.75-.39,2.86-1.87,2.86-1.87-.05.01,0,0-.05.01,0,0-2.19.05-3.75.05s-3.77-.03-3.75-.02.03,0,0,0Z"/>
            <line class="cls-3" x1="48.05" y1="32.57" x2="47.24" y2="39.37"/>
            <path class="cls-19" d="m58.88,34.55s3.98-1.02,3.09,2.65c-1.07,4.4-4.17,3.88-4.17,3.88l1.08-6.53Z"/>
            <path d="m52.62,41.44l-1.43-.3c-1.86-.39-3.78-.39-5.64,0l-1.43.3c-.95.2-1.67,1.02-1.67,1.98,0,1.2.81,2.23.81,2.23-.27-1.85,1.36-2.5,1.36-2.5h7.5s1.63.65,1.36,2.5c0,0,.81-1.03.81-2.23,0-.97-.72-1.78-1.67-1.98Z"/>
            <path class="cls-19" d="m38.07,34.66s-4.28-1.13-3.39,2.54c1.07,4.4,4.11,3.9,4.11,3.9l-.72-6.44Z"/>
            <path class="cls-5" d="m50.09,40.12s-1.23,1.19-1.78,1.19-1.81-1.19-1.81-1.19"/>
            <path d="m58.63,33.17c-.95-.01-1.49-.45-2.52-.79-1.05-.34-2.06-.53-3.56-.26s-2.24,1.1-2.49,1.12c-.26.01-.94-.31-1.63-.31s-1.38.32-1.64.31c-.26-.02-1-.85-2.5-1.12s-2.5-.09-3.55.26c-1.02.34-1.57.77-2.49.79-.01,0-.62-.02-.89-.03.04.28.1.55.16.82.03.12.06.24.09.36.14,0,.31,0,.32,0,.13,0,.84-.01.9.3.07.34.29,1.89,1.06,2.85.77.96,1.61,1.6,3.07,1.67,1.6.07,2.69-.6,3.27-1.27.83-.94,1.17-2.4,1.26-3.09,0,0-.36-.19-.22-.58.11-.31.44-.38,1.14-.38s1.02.07,1.13.38c.14.4-.22.58-.22.58.08.69.43,2.15,1.25,3.09.59.67,1.67,1.34,3.28,1.27,1.46-.07,2.3-.71,3.07-1.67.77-.96,1-2.51,1.07-2.85.06-.29.5-.35.62-.36.01,0,.24-.01.39-.02.03-.12.06-.24.09-.37.05-.24.1-.47.14-.71-.18,0-.62.02-.63.02Zm-12.27,3.73c-.48,1.03-1.41,1.62-2.35,1.76-.83.13-1.55.2-2.63-.38-1.02-.55-1.64-1.6-1.81-2.83-.17-1.23.55-2.22,1.3-2.65.84-.48,2.53-.61,3.61-.31,1.08.3,1.88,1.03,2.1,1.64.22.62.27,1.73-.22,2.76Zm10.91-1.45c-.16,1.23-.79,2.27-1.81,2.83-1.08.59-1.79.51-2.63.38-.94-.14-1.86-.73-2.34-1.76-.48-1.03-.43-2.15-.22-2.76.22-.61,1.01-1.35,2.09-1.64,1.08-.3,2.78-.17,3.61.31.74.43,1.46,1.41,1.29,2.65Z"/>
            <path d="m58.2,41.93l-.16-2.34s-.98,5.03-3.43,6.52c-2.1,1.27-3.09,1.14-4.16.61-.64-.32-1.33-.53-2.05-.57h-.02s-.02,0-.02,0c-.71.04-1.4.26-2.05.57-1.07.53-2.06.65-4.16-.61-2.46-1.48-3.61-5.98-3.61-5.98v1.81c-.08,1.41.31,2.81,1.13,3.97l.64.91c4.21,5.93,8.06,5.7,8.06,5.7,0,0,3.85.23,8.06-5.7l.64-.91c.82-1.15,1.21-2.56,1.12-3.97Z"/>
            <path d="m60.35,33.44c-.56-.16-3.47-2.01-3.79-6.04-.32-4.03-4.11-4.84-4.11-4.84,0,0-.37-.02-1.26-.03-.61,0-1.46-.01-2.61,0-.59,0-1.26.02-2.01.03-.07,0-.13,0-.2,0-4.2.11-5.75,1.31-5.99,5.04-.02.33-.06.65-.11.97-.53,3.37-2.53,6.15-2.53,6.15,0,0-2.4-2.31-3.11-5.08-1.7-6.71,3.95-9.74,3.95-9.74,4.6-10.16,11.85-4.03,11.85-4.03,5.4-.08,4.97,3.87,4.97,3.87,0,0,3.57-1.45,4.94,1.13,1.37,2.58,0,12.58,0,12.58Z"/>
            <g>
              <path class="cls-19" d="m19.05,70.89s-.81,8.68-.16,19.31c.34,5.56-1.02,11.6-1.74,16.78-.46,3.33,2.5,6.93,6.29,6.7,0,0,4.91.01,5.76-5.58.4-2.65-.26-5.75.21-8.85,1.82-12.19,4.7-25.91,4.7-25.91l-15.05-2.46Z"/>
              <path class="cls-19" d="m25.6,123.36c-1.5,4.02-4.65,18.98-4.65,18.98,0,.05-.84,3.05-.85,3.1l-6.25-1.03s.13-3.52.4-5.49c.07-.54.15-1.14.24-1.8h0s0-.05,0-.07c.39-3.02.87-7.11,1.2-11.46.49-6.36.61-13.88,1.57-19.4l11.94,1.91c.29,2.01-.77,7.7-3.6,15.25Z"/>
              <circle class="cls-19" cx="26.49" cy="72.28" r="7.61"/>
              <circle class="cls-19" cx="23.19" cy="107.64" r="6.04"/>
              <g id="Layer_2-4" data-name="Layer 2">
                <g id="Scene1_2-3" data-name="Scene1 2">
                  <g id="Hand-3" data-name="Hand">
                    <circle class="cls-19" cx="17.41" cy="143.72" r="3.2"/>
                  </g>
                </g>
              </g>
              <g>
                <path class="cls-14" d="m15.68,156.66c2.04.61,4.8-1.1,4.9,1.47-1.72.53-4.49.75-6.75-.11l1.85-1.36Z"/>
                <path class="cls-14" d="m16.63,158.4c2.54,1.01,5.76-.82,5.61,2.46-2.25.49-5.32.41-8.12-.94l2.51-1.53Z"/>
                <path class="cls-14" d="m17.83,159.79c2.46,1.19,6.5-.5,6.1,2.77-2.28.32-6.03.11-8.72-1.43l2.62-1.34Z"/>
                <path class="cls-19" d="m19.74,143.99l-.45,9.97c-1.61,1.8-2,4.14-.91,7.16,2.81,1.44,5.8,1.55,5.14,3.73-2.29.19-5.66-.41-8.26-2.1l-3.31-7.76c.13-3.88.87-7.72,1.97-10.92l5.82-.08Z"/>
                <path class="cls-19" d="m19.13,153.96c1.5,1.33.8,1.91,1.32,4.33.76,3.51,3.18,3.15,3.48,2.27.3-.88-.89-6.14-.89-6.14-.93-3.55-.27-7.33-3.3-10.42-1.73,2.13-.63,6.12-.61,9.97Z"/>
              </g>
            </g>
            <g>
              <path class="cls-19" d="m78.31,70.89s.81,8.68.16,19.31c-.34,5.56,1.02,11.6,1.74,16.78.46,3.33-2.5,6.93-6.29,6.7,0,0-4.91.01-5.76-5.58-.4-2.65.26-5.75-.21-8.85-1.82-12.19-4.7-25.91-4.7-25.91l15.05-2.46Z"/>
              <path class="cls-19" d="m71.76,123.36c1.5,4.02,4.65,18.98,4.65,18.98,0,.05.84,3.05.85,3.1l6.25-1.03s-.13-3.52-.4-5.49c-.07-.54-.15-1.14-.24-1.8h0s0-.05,0-.07c-.39-3.02-.87-7.11-1.2-11.46-.49-6.36-.61-13.88-1.57-19.4l-11.94,1.91c-.29,2.01.77,7.7,3.6,15.25Z"/>
              <circle class="cls-19" cx="70.87" cy="72.28" r="7.61"/>
              <circle class="cls-19" cx="74.17" cy="107.64" r="6.04"/>
              <g id="Layer_2-5" data-name="Layer 2">
                <g id="Scene1_2-4" data-name="Scene1 2">
                  <g id="Hand-4" data-name="Hand">
                    <circle class="cls-19" cx="79.95" cy="143.72" r="3.2"/>
                  </g>
                </g>
              </g>
              <g>
                <path class="cls-14" d="m81.68,156.66c-2.04.61-4.8-1.1-4.9,1.47,1.72.53,4.49.75,6.75-.11l-1.85-1.36Z"/>
                <path class="cls-14" d="m80.73,158.4c-2.54,1.01-5.76-.82-5.61,2.46,2.25.49,5.32.41,8.12-.94l-2.51-1.53Z"/>
                <path class="cls-14" d="m79.53,159.79c-2.46,1.19-6.5-.5-6.1,2.77,2.28.32,6.03.11,8.72-1.43l-2.62-1.34Z"/>
                <path class="cls-19" d="m77.62,143.99l.45,9.97c1.61,1.8,2,4.14.91,7.16-2.81,1.44-5.8,1.55-5.14,3.73,2.29.19,5.66-.41,8.26-2.1l3.31-7.76c-.13-3.88-.87-7.72-1.97-10.92l-5.82-.08Z"/>
                <path class="cls-19" d="m78.23,153.96c-1.5,1.33-.8,1.91-1.32,4.33-.76,3.51-3.18,3.15-3.48,2.27-.3-.88.89-6.14.89-6.14.93-3.55.27-7.33,3.3-10.42,1.73,2.13.63,6.12.61,9.97Z"/>
              </g>
            </g>
            <path d="m68.28,190.32c0-.11,0-.21,0-.32,0-.2,3.62-31.46,3.62-41.96,0-4.96-1.93-17.01-1.93-17.01h0c-.23-1.53-.67-4.45-1.16-7.73-.21-1.39-.42-2.85-.63-4.3,0-.02,0-.04,0-.06H28.79l-.14.95c-.14.95-.28,1.9-.42,2.82l-.08.51c-.49,3.3-.93,6.25-1.17,7.82h0s-1.87,12.04-1.87,17c0,10.5,3.62,41.75,3.62,41.96,0,.11,0,.21,0,.32-.33,1.7-2.72,14.39-2.86,20.68-.24,10.51,3.27,44.61,3.27,44.61h11.8s4.15-38.05,3.89-44.88c-.26-6.91,0-20.61,0-20.61h-.17l1.78-32.74,1.02-10.14c.37.1.75.15,1.15.15.31,0,.61-.03.91-.09l1.01,10.07,1.78,32.74h-.17s.26,13.69,0,20.61c-.25,6.82,3.89,44.88,3.89,44.88h11.8s3.51-34.1,3.28-44.61c-.14-6.29-2.54-18.98-2.86-20.68Z"/>
            <g>
              <path d="m42.54,273.5s-.08,0-.22.02c.08-.3.18-.9.04-1.61-.07-.73-.45-1.92-.82-3.37-.37-1.46-.61-4.43-.61-4.43-.02-.15-.05-.29-.08-.43h0s0,0,0,0c-.53-2.88-1.59-4.64-1.73-4.86-.01-.02-.02-.03-.02-.03h-.03s-5.46-.08-5.46-.08h0l-2.85-.04h-.11s-2.42,5.44-2.42,5.44c0,0-.03.08-.08.22h0c-.29.78-1.3,3.47-2.1,5.19-.62,1.35-.71,2.71-.61,3.85-.11-.01-.22-.02-.33-.03l-.19,1.67c3.31.37,6.63.48,9.49.48,4.74,0,8.22-.32,8.28-.32l-.16-1.67Z"/>
              <g>
                <path class="cls-4" d="m36.67,263.6s-2.24-1.08-4.18.17"/>
                <path class="cls-4" d="m36.78,262.52s-2.46-1.08-4.58.17"/>
                <path class="cls-4" d="m37.1,261.44s-2.8-1.08-5.22.17"/>
                <path class="cls-4" d="m37.39,260.22s-3.12-1.08-5.8.17"/>
                <path class="cls-4" d="m37.67,258.99s-3.42-1.08-6.37.17"/>
              </g>
            </g>
            <g>
              <path d="m54.45,273.5s.08,0,.22.02c-.08-.3-.18-.9-.04-1.61.07-.73.45-1.92.82-3.37.37-1.46.61-4.43.61-4.43.02-.15.05-.29.08-.43h0s0,0,0,0c.53-2.88,1.59-4.64,1.73-4.86.01-.02.02-.03.02-.03h.03s5.46-.08,5.46-.08h0l2.85-.04h.11s2.42,5.44,2.42,5.44c0,0,.03.08.08.22h0c.29.78,1.3,3.47,2.1,5.19.62,1.35.71,2.71.61,3.85.11-.01.22-.02.33-.03l.19,1.67c-3.31.37-6.63.48-9.49.48-4.74,0-8.22-.32-8.28-.32l.16-1.67Z"/>
              <g>
                <path class="cls-4" d="m60.32,263.6s2.24-1.08,4.18.17"/>
                <path class="cls-4" d="m60.21,262.52s2.46-1.08,4.58.17"/>
                <path class="cls-4" d="m59.89,261.44s2.8-1.08,5.22.17"/>
                <path class="cls-4" d="m59.6,260.22s3.12-1.08,5.8.17"/>
                <path class="cls-4" d="m59.32,258.99s3.42-1.08,6.37.17"/>
              </g>
            </g>
            <path class="cls-16" d="m83.12,135.07c0-1.27-.07-3.07-.34-5.61-.66-6.29-.87-14.03-1.65-20.02.02-.8-.1-1.58-.35-2.31,0-.01,0-.03,0-.04h0s-.02-.06-.03-.09c-.79-5.13-1.93-10.88-1.61-16.22.5-8.18.19-15.27-.03-18.58.01-.17.03-.34.03-.52,0-3.76-2.56-6.91-6.03-7.83l-15.23-7.58h0l-.13-.06-8.76,3.02-.24.08h-.27l-.2-.07-8.8-3.04-.07.03-15.61,7.48s.02.05.07.15c-3.43.95-5.94,4.08-5.94,7.81,0,.18.02.35.03.52-.21,3.32-.52,10.41-.03,18.58.32,5.35-.82,11.1-1.61,16.22-.01.03-.02.06-.03.09h0s0,.02,0,.04c-.24.73-.37,1.51-.35,2.31-.78,6-.99,13.74-1.65,20.02-.27,2.54-.35,4.34-.34,5.61-.12,0-.21.1-.21.23l.29,4.19,7.7.99.99-4.03c.03-.14-.02-.27-.12-.36,1.49-4.02,1.73-4.81,2.83-9.15,2.14-8.44,4.2-14.39,4.07-16.87.01-.06.02-.12.03-.19.09-.62.37-2.77.74-5.74.08,1.63.11,2.87.06,3.44-.1,1.3-1.53,8.69-2.28,13.82-.35,2.38,9.27,3.28,18.69,3.42h0c1.35.02,2.7.02,4.04,0,9.2-.18,18.29-1.06,17.95-3.41-.74-5.12-2.02-12.51-2.12-13.82-.05-.61,0-2.02.11-3.85.4,3.18.7,5.5.8,6.15,0,.07.02.13.03.19-.13,2.47,1.93,8.43,4.07,16.87,1.1,4.33,1.34,5.13,2.83,9.15-.1.09-.15.22-.12.36l.99,4.03,7.7-.99.29-4.19c0-.12-.09-.22-.21-.23Z"/>
            <g>
              <polygon class="cls-15" points="56.01 51.89 48.86 59.1 55.02 65.19 58.59 57.93 56.01 51.89"/>
              <path class="cls-15" d="m48.86,59.1h-.45,0s-7.15-7.21-7.15-7.21l-2.58,6.04,3.57,7.26,6.14-6.07-.12.12-1.8,1.78.29,63.8h0c1.35.02,2.7.02,4.04,0v-63.8l-1.81-1.79-.13-.13Z"/>
            </g>
            <g>
              <path class="cls-9" d="m49.42,65.42c0,.41-.33.74-.74.74s-.74-.33-.74-.74.33-.74.74-.74.74.33.74.74Z"/>
              <path class="cls-9" d="m49.42,75.08c0,.41-.33.74-.74.74s-.74-.33-.74-.74.33-.74.74-.74.74.33.74.74Z"/>
              <path class="cls-9" d="m49.42,84.73c0,.41-.33.74-.74.74s-.74-.33-.74-.74.33-.74.74-.74.74.33.74.74Z"/>
              <path class="cls-9" d="m49.42,94.39c0,.41-.33.74-.74.74s-.74-.33-.74-.74.33-.74.74-.74.74.33.74.74Z"/>
              <path class="cls-9" d="m49.42,104.05c0,.41-.33.74-.74.74s-.74-.33-.74-.74.33-.75.74-.75.74.33.74.75Z"/>
              <path class="cls-9" d="m49.42,113.71c0,.41-.33.74-.74.74s-.74-.33-.74-.74.33-.75.74-.75.74.33.74.75Z"/>
            </g>
          </g>
          <g>
            <path class="cls-17" d="m126.87,75.82l-21.66-4.25-21.45,4.24c-.4,2.35-1.16,5.09-.03,7.71,2.95,6.83,4.2,14.28,3.84,21.71-.3,6.27-.74,11.84-.74,11.84h36.74s-.43-5.57-.74-11.84c-.36-7.43.89-14.88,3.84-21.71,1.13-2.62.59-5.35.19-7.7Z"/>
            <path class="cls-17" d="m123.58,117.07h-36.74s-6.95,17.45-6.77,22.02l21.11,11.98c2.5,1.42,5.56,1.42,8.06,0l20.72-11.81c.19-4.58-6.37-22.18-6.37-22.18Z"/>
            <path class="cls-17" d="m86.87,116.59c0-10.13,8.2-18.34,18.31-18.34s18.36,8.22,18.36,18.35-8.25,18.33-18.36,18.33-18.31-8.21-18.31-18.34Z"/>
            <ellipse class="cls-17" cx="95.27" cy="98.46" rx="12.84" ry="11.24" transform="translate(-35.36 139.77) rotate(-63.49)"/>
            <ellipse class="cls-17" cx="115.45" cy="98.46" rx="11.24" ry="12.84" transform="translate(-31.81 61.87) rotate(-26.51)"/>
            <g>
              <path class="cls-19" d="m102.92,194.74l-4.38,64.61h-5.95s-5.67-23.92-6.61-36.7c-.6-8.23-.46-27.91-.46-27.91h17.4Z"/>
              <g>
                <path class="cls-17" d="m104.39,140.96h-24.5s-2.78,24.37,4.99,48.16c.31.94.6,5.51.63,5.62h17.4s.43-5,.41-6.46c-.12-5.99,1.45-26.22,1.45-31.09,0-7.58-.39-14.81-.39-16.23Z"/>
                <circle class="cls-17" cx="92.14" cy="140.96" r="12.25"/>
              </g>
              <circle class="cls-17" cx="94.22" cy="194.67" r="8.7"/>
              <circle class="cls-19" cx="95.6" cy="259.35" r="3.05"/>
              <path class="cls-19" d="m100.13,268.86s.78-6.77-1.59-9.51h-5.95s-2.11,4.18-2.33,5.06c-.59,2.45-1.22,3.9-1.22,4.93,0,0-.25.64-.39,1.32-.06.27-.38.93-.4,1.03-.11.55.3,1.03.83,1.03.07,0,.52-.01.64.1.17.16.39.26.64.26.13,0,.25-.03.37-.08.22-.09.46-.04.64.11.24.21.55.33.9.33.28,0,.53-.08.75-.22.24-.16.56-.12.77.07.23.21.53.33.87.33s.63-.12.86-.33.58-.23.81-.02c.4.37.94.6,1.53.6,1.27,0,2.29-1.05,2.24-2.34,0-.13.03-2.68.03-2.68Z"/>
            </g>
            <g>
              <path class="cls-19" d="m107.07,194.74l4.38,64.61h5.95s5.67-23.92,6.61-36.7c.6-8.23.46-27.91.46-27.91h-17.4Z"/>
              <g>
                <path class="cls-17" d="m105.6,140.96h24.5s2.78,24.37-4.99,48.16c-.31.94-.6,5.51-.63,5.62h-17.4s-.43-5-.41-6.46c.12-5.99-1.45-26.22-1.45-31.09,0-7.58.39-14.81.39-16.23Z"/>
                <circle class="cls-17" cx="117.85" cy="140.96" r="12.25"/>
              </g>
              <circle class="cls-17" cx="115.77" cy="194.67" r="8.7"/>
              <circle class="cls-19" cx="114.39" cy="259.35" r="3.05"/>
              <path class="cls-19" d="m109.86,268.86s-.78-6.77,1.59-9.51h5.95s2.11,4.18,2.33,5.06c.59,2.45,1.22,3.9,1.22,4.93,0,0,.25.64.39,1.32.06.27.38.93.4,1.03.11.55-.3,1.03-.83,1.03-.07,0-.52-.01-.64.1-.17.16-.39.26-.64.26-.13,0-.25-.03-.37-.08-.22-.09-.46-.04-.64.11-.24.21-.55.33-.9.33-.28,0-.53-.08-.75-.22-.24-.16-.56-.12-.77.07-.23.21-.53.33-.87.33s-.63-.12-.86-.33-.58-.23-.81-.02c-.4.37-.94.6-1.53.6-1.27,0-2.29-1.05-2.24-2.34,0-.13-.03-2.68-.03-2.68Z"/>
            </g>
            <g>
              <g id="Layer_2-6" data-name="Layer 2">
                <g id="Scene1_2-5" data-name="Scene1 2">
                  <g id="Hand-5" data-name="Hand">
                    <circle class="cls-19" cx="72.51" cy="142.21" r="2.7"/>
                  </g>
                </g>
              </g>
              <g>
                <g>
                  <path class="cls-19" d="m78.31,81.63s-2.34,12.59-4.48,32.06h10.22c5.87-12.7,8.25-29.7,8.25-29.7l-13.99-2.37Z"/>
                  <circle class="cls-19" cx="85.32" cy="82.74" r="7.1"/>
                  <circle class="cls-19" cx="78.85" cy="113.73" r="5.02"/>
                  <path class="cls-19" d="m73.83,113.69l-1.41,4.09c-.37,1.22-.67,2.47-.89,3.73-.36,2.06-.61,4.15-.75,6.24l-.93,13.97,5.15-.08s.67-3.59,2.1-7.83c2.39-7.07,7.9-16.3,6.94-20.11h-10.22Z"/>
                </g>
                <g>
                  <path class="cls-19" d="m71.54,153.33c1.84.55,4.33-1,4.42,1.32-1.55.48-4.04.68-6.09-.1l1.67-1.22Z"/>
                  <path class="cls-19" d="m72.39,154.9c2.29.91,5.19-.74,5.06,2.22-2.03.44-4.8.37-7.32-.84l2.26-1.38Z"/>
                  <path class="cls-19" d="m73.47,156.15c2.22,1.07,5.86-.45,5.5,2.5-2.05.29-5.44.1-7.86-1.29l2.36-1.21Z"/>
                  <path class="cls-19" d="m75.09,141.91l-.3,8.99c-1.45,1.62-1.8,3.74-.82,6.45,2.53,1.3,5.23,1.4,4.63,3.37-2.07.17-5.1-.37-7.45-1.89l-2.99-7c.11-3.5.79-6.96,1.78-9.85l5.15-.07Z"/>
                  <path class="cls-19" d="m74.54,150.9c1.35,1.2.72,1.72,1.19,3.9.68,3.17,2.86,2.84,3.14,2.04.27-.8-.8-5.54-.8-5.54-.84-3.2-.25-6.61-2.97-9.4-1.56,1.92-.57,5.51-.55,8.99Z"/>
                </g>
              </g>
            </g>
            <g>
              <g id="Layer_2-7" data-name="Layer 2">
                <g id="Scene1_2-6" data-name="Scene1 2">
                  <g id="Hand-6" data-name="Hand">
                    <circle class="cls-19" cx="138.08" cy="142.21" r="2.7"/>
                  </g>
                </g>
              </g>
              <g>
                <g>
                  <path class="cls-19" d="m132.28,81.63s2.34,12.59,4.48,32.06h-10.22c-5.87-12.7-8.25-29.7-8.25-29.7l13.99-2.37Z"/>
                  <circle class="cls-19" cx="125.27" cy="82.74" r="7.1"/>
                  <circle class="cls-19" cx="131.74" cy="113.73" r="5.02"/>
                  <path class="cls-19" d="m136.76,113.69l1.41,4.09c.37,1.22.67,2.47.89,3.73.36,2.06.61,4.15.75,6.24l.93,13.97-5.15-.08s-.67-3.59-2.1-7.83c-2.39-7.07-7.9-16.3-6.94-20.11h10.22Z"/>
                </g>
                <g>
                  <path class="cls-19" d="m139.05,153.33c-1.84.55-4.33-1-4.42,1.32,1.55.48,4.04.68,6.09-.1l-1.67-1.22Z"/>
                  <path class="cls-19" d="m138.2,154.9c-2.29.91-5.19-.74-5.06,2.22,2.03.44,4.8.37,7.32-.84l-2.26-1.38Z"/>
                  <path class="cls-19" d="m137.12,156.15c-2.22,1.07-5.86-.45-5.5,2.5,2.05.29,5.44.1,7.86-1.29l-2.36-1.21Z"/>
                  <path class="cls-19" d="m135.5,141.91l.3,8.99c1.45,1.62,1.8,3.74.82,6.45-2.53,1.3-5.23,1.4-4.63,3.37,2.07.17,5.1-.37,7.45-1.89l2.99-7c-.11-3.5-.79-6.96-1.78-9.85l-5.15-.07Z"/>
                  <path class="cls-19" d="m136.05,150.9c-1.35,1.2-.72,1.72-1.19,3.9-.68,3.17-2.86,2.84-3.14,2.04-.27-.8.8-5.54.8-5.54.84-3.2.25-6.61,2.97-9.4,1.56,1.92.57,5.51.55,8.99Z"/>
                </g>
              </g>
            </g>
            <g>
              <circle class="cls-19" cx="105.42" cy="78" r="8.37"/>
              <polygon class="cls-19" points="113.68 76.95 97.16 76.96 97.15 76.96 99.58 60.46 111.3 60.48 113.65 76.72 113.65 76.73 113.68 76.95"/>
              <circle class="cls-17" cx="105.42" cy="60.48" r="5.86"/>
              <path class="cls-17" d="m112.16,66.37l-.45.75c-.49.82-1.07,1.57-1.7,2.23-2.14,2.26-5.03,3.56-8.08,3.56h-4.17l.08-.51.56-3.81.42-2.8.08-.53.12-.84.09-.63,12.76.52.11.72.1.71.09.58v.05Z"/>
            </g>
            <path class="cls-12" d="m137.45,35.02s.07,0,.19,0c-.12,0-.19,0-.19,0Z"/>
            <path class="cls-12" d="m137.65,35.01s.02,0,.03,0c0,0,0,0,0,0-.01,0-.02,0-.03,0Z"/>
            <g>
              <path class="cls-13" d="m80.3,76.86c-1.09.67-3.07,4.54-4.38,10.13-1.3,5.59-4.08,15.2-5.21,17.31,0,0,2,1.64,3.74,2.86,1.74,1.23,14.16,1.57,14.77,1.36.61-.2,3.56-17.72,3.74-22.63.17-4.91-9.58-10.92-12.66-9.04Z"/>
              <path class="cls-13" d="m129.95,76.86c1.09.67,3.07,4.54,4.38,10.13,1.3,5.59,4.08,15.2,5.21,17.31,0,0-2,1.64-3.74,2.86-1.74,1.23-14.16,1.57-14.77,1.36-.61-.2-3.56-17.72-3.74-22.63-.17-4.91,9.58-10.92,12.66-9.04Z"/>
              <path class="cls-13" d="m128.84,211.14c-1.05,2.34-12.22,3.36-23.24,3.39-11.03-.03-22.2-1.05-23.25-3.39-1.93-4.31-6.76-51.59-4.85-62.84,1.18-6.95,3.48-14.94,5.06-20.03,0-.01,0-.03.01-.04.56-1.8,1.02-3.24,1.32-4.13.03-.11.07-.21.1-.3.16-.46.24-.72.24-.72.1.02.2.05.3.07,4.17.97,8.39,1.57,12.5,1.91.05,0,.09,0,.14.01.71.06,1.41.11,2.11.15.06,0,.12,0,.18.01.87.05,1.74.09,2.6.12.2,0,.41.02.61.02.56.02,1.12.03,1.68.04.1,0,.2,0,.3,0h.19s.02,0,.03,0c.25,0,.49,0,.73,0,.11,0,.21,0,.32,0,.32,0,.64,0,.97-.01.43,0,.88-.01,1.32-.02.23,0,.46-.01.7-.02.06,0,.12,0,.19,0,1.7-.06,3.45-.16,5.21-.31h0c3.78-.32,7.65-.86,11.49-1.7.37-.08.75-.17,1.13-.25.01,0,.02,0,.03,0,0,0,.06.18.17.51h0c.26.79.8,2.4,1.47,4.55,0,.02.01.03.02.04,1.58,5.09,3.89,13.12,5.08,20.11,1.92,11.25-2.92,58.53-4.85,62.84Z"/>
              <path class="cls-13" d="m127,123.12c.03.17.03.34.02.51h0c-.05.46-.26.9-.61,1.33-.63.78-1.72,1.5-3.13,2.15-.03.02-.06.03-.1.05-3.19,1.46-7.93,2.58-12.51,3.26-.75.11-1.49.21-2.22.29,0,0-.01,0-.02,0-.61.08-1.21.14-1.8.19-.39.04-.77.07-1.15.1-.02,0-.03,0-.05,0-.05,0-.09,0-.14-.01-.11,0-.23-.02-.34-.03-.5-.04-1.02-.09-1.54-.15-.59-.06-1.2-.13-1.81-.21-.16-.02-.32-.04-.48-.06-1.12-.15-2.26-.33-3.38-.54-3.7-.67-7.3-1.62-9.91-2.79-1.8-.81-3.14-1.72-3.7-2.72-.07-.12-.13-.24-.17-.37-.04-.1-.07-.2-.09-.3-.05-.23-.06-.48-.02-.72.63-3.94,2.67-5.81,3.11-12.13.03-.46.06-.94.07-1.45.22-7.7-6.86-31.82-5.06-33.09,1.8-1.27,15.36-3.35,15.36-3.35,0,0-.92,12.89,8.09,12.89s8.09-12.89,8.09-12.89c0,0,13.57,2.08,15.36,3.35,1.8,1.27-5.28,25.39-5.06,33.09.02.59.05,1.15.09,1.67,0,.05,0,.1.01.15.5,6.02,2.46,7.89,3.08,11.75h0Z"/>
              <g>
                <path class="cls-16" d="m107.09,121.16c-.39.32-.88.65-1.5.98-.38.21-.82.42-1.3.64-.14.06-.28.12-.43.19-.16.06-.33.13-.5.2-.36.14-.74.28-1.16.42-.07.02-.14.05-.22.07-.73.24-1.55.49-2.42.73-.82.23-1.69.46-2.59.69-3.01.77-6.35,1.51-9.23,2.12-2.15.45-4.05.82-5.39,1.08.63-2.04,1.15-3.61,1.43-4.47-.05-.23-.06-.48-.02-.72.63-3.94,2.67-5.81,3.11-12.13,4.82,2.33,9.53,4.01,13.32,5.17,2.14.65,3.99,1.14,5.39,1.48.86.21,1.55.37,2.04.47h0c.53.11.81.17.81.17,0,0,.66,1.29-1.36,2.92Z"/>
                <path class="cls-16" d="m128.6,128.14c-.4-.08-.83-.16-1.3-.25-1.13-.22-2.45-.48-3.87-.78-.08-.02-.15-.03-.23-.05-2.83-.59-6.01-1.29-8.9-2.02h0c-1.97-.5-3.79-1-5.26-1.49-.03-.01-.06-.02-.09-.03-.28-.09-.54-.19-.79-.28-.04-.02-.07-.03-.11-.04-.05-.01-.09-.03-.13-.05-.16-.06-.31-.12-.46-.18-.09-.03-.17-.07-.26-.11-.05-.02-.11-.04-.16-.06h-.02c-.52-.23-.98-.45-1.38-.67,0,0-.02,0-.02-.01-.38-.21-.72-.41-1.01-.61-1.11-.76-1.62-1.47-1.83-2.03-.3-.76-.04-1.26-.04-1.26,0,0,1.07-.2,2.88-.63,0,0,.02,0,.02,0h0c.62-.14,1.33-.32,2.11-.53.27-.07.55-.15.84-.23.03,0,.06-.02.09-.02,3.95-1.08,9.46-2.85,15.17-5.5.5,6.02,2.46,7.89,3.08,11.75h0s.02,0,.03,0c0,0,.06.18.17.51h0c.26.79.8,2.4,1.47,4.55Z"/>
                <path class="cls-16" d="m102.15,119.99s-2.98,11.4-4.16,18.24c-1.17,6.84-2.61,24.89-2.28,25.48.33.59,9.88,9.9,10.73,9.12.85-.78-.06-46.78-.58-50.3-.52-3.52-3.71-2.54-3.71-2.54Z"/>
                <path class="cls-16" d="m104.51,120.68s1.61,16.81,2.53,25.48c.92,8.67,2.11,33.24,2.2,33.79.09.55,7.84-7.99,8.43-10.07.59-2.09-1.95-25.87-2.8-28.67-.85-2.8-6.32-21.11-7.1-21.37-.78-.26-3.26.85-3.26.85Z"/>
              </g>
              <ellipse class="cls-13" cx="95.27" cy="98.46" rx="12.84" ry="11.24" transform="translate(-35.36 139.77) rotate(-63.49)"/>
              <ellipse class="cls-13" cx="115.45" cy="98.46" rx="11.24" ry="12.84" transform="translate(-31.81 61.87) rotate(-26.51)"/>
              <g>
                <path class="cls-24" d="m87.56,274.01c-.02.57.89,1.22,1.74,1.48.43.13,1.92.52,3.25.49,2.92-.06,6.07-.72,7.67-1.81.28-.19.54-2.49.6-3.51.04-.63-.06-2.33-.07-3.27-.01-1.99-1.03-6.93-1.09-8.36,0-.08-.2-.27-.26-.31-.07-.04-.63-.79-2.96-.93-2.96-.18-4.08.88-4.11.99-.39,1.54-2.5,5.59-3.81,9.53-.4,1.21-.39,1.88-.61,2.65-.04.15-.3,1.96-.35,3.05Zm5.09-14.26s1.03-1.04,3.73-.89c1.71.11,2.11.39,2.57.79-.17.98.13,4.55-3.44,4.41-3.79-.15-2.85-3.84-2.86-4.31Z"/>
                <path class="cls-24" d="m91.54,275.75c-2.23-.09-3.8-2.01-3.84-2.28-.02-.58.25-2.73.2-2.54-.26.96-.49,2.13-.53,3.21-.02.57,1.82,2.41,4.12,2.5,2.7.11,5.38-.56,7.15-1.41,1.16-.56,1.83-.93,1.87-1.38.05-.21.37-2.08.25-2.43,0,.07-.26,1.11-.41,1.76-.08.35-4.02,2.77-8.8,2.58Z"/>
                <path class="cls-9" d="m99.52,273.23c.08,0,.17-.02.24-.07.21-.15.29-.47.17-.73-.08-.16-1.89-3.83-6.24-4.17-4.01-.31-5.37,2.32-5.42,2.43-.13.26-.06.58.16.73.21.15.49.06.62-.2.04-.08,1.14-2.17,4.58-1.9,3.86.3,5.47,3.5,5.53,3.64.08.16.22.26.37.26Z"/>
              </g>
              <g>
                <path class="cls-24" d="m122.25,270.96c-.22-.77-.21-1.45-.61-2.65-1.31-3.94-3.41-7.98-3.81-9.53-.03-.11-1.15-1.17-4.11-.99-2.33.15-2.89.89-2.96.93-.06.04-.26.22-.26.31-.06,1.42-1.08,6.37-1.09,8.36,0,.94-.11,2.63-.07,3.27.06,1.02.33,3.32.6,3.51,1.59,1.09,4.75,1.75,7.67,1.81,1.33.03,2.82-.36,3.25-.49.85-.26,1.76-.91,1.74-1.48-.04-1.08-.3-2.9-.35-3.05Zm-7.6-6.91c-3.57.14-3.27-3.42-3.44-4.41.46-.39.86-.68,2.57-.79,2.71-.16,3.73.84,3.73.89-.02.47.92,4.16-2.86,4.31Z"/>
                <path d="m118.61,275.75c2.23-.09,3.8-2.01,3.84-2.28.02-.58-.25-2.73-.2-2.54.26.96.49,2.13.53,3.21.02.57-1.82,2.41-4.12,2.5-2.7.11-5.38-.56-7.15-1.41-1.16-.56-1.83-.93-1.87-1.38-.05-.21-.37-2.08-.25-2.43,0,.07.26,1.11.41,1.76.08.35,4.02,2.77,8.8,2.58Z"/>
                <path class="cls-9" d="m110.63,273.23c-.08,0-.17-.02-.24-.07-.21-.15-.29-.47-.17-.73.08-.16,1.89-3.83,6.24-4.17,4.01-.31,5.37,2.32,5.42,2.43.13.26.06.58-.16.73-.21.15-.49.06-.62-.2-.04-.08-1.14-2.17-4.58-1.9-3.86.3-5.47,3.5-5.53,3.64-.08.16-.22.26-.37.26Z"/>
              </g>
            </g>
            <g>
              <g>
                <g>
                  <path class="cls-25" d="m106.19,36.15c1.4-.8,2.87-1.5,4.38-2.02,3.43-1.17,7.08-1.71,10.04,1.16,1.58,1.53,2.87,6.19,1.58,9.85-4.11,11.71,2.85,11.27,4.45,18.03"/>
                  <g>
                    <path class="cls-25" d="m103.62,36.71c.41,0,1.26-.81,1.62-1.01,1.27-.73,2.6-1.36,3.97-1.83,3.11-1.07,6.9-1.37,9.32,1.48,1.31,1.54,2.09,3.64,2.04,5.73-.14,6.3-.03,12.99,1.43,19.12.31,1.31.7,2.62,1.31,3.8,3.35,6.44,6.04,9.28,5.86,14.98,0,0-11.57,1.81-15.21-4.2-2.69-4.44-3.15-9.55-1.65-13.74,1.5-4.19,4.95-15.24,2.88-18.54-2.71-5.95-11.56-5.79-11.57-5.79Z"/>
                    <path class="cls-24" d="m124.61,66.68c-2.79-4.06-3.97-6.84-4.17-10.79-.2-3.95.55-12.96-.39-16.55-.94-3.59-3.04-5.54-5.89-5.91-2.48-.33-6.48,2.06-7.71,2.87,4.47-1.12,12.51-.88,12.58,5.43.03,3.08-.97,6.21-1.77,9.12-.68,2.48-1.4,4.95-1.91,7.48-.46,2.29-1.01,4.71-.48,7.05.43,1.86,1.6,3.67,2.78,5.05,1.21,1.4,2.68,2.54,4.3,3.28,1.14.52,2.34.86,3.48,1.37,1.45.66,2.71,1.45,3.74,2.78.11-2.29.06-4.44-4.57-11.18Z"/>
                  </g>
                </g>
                <g>
                  <path class="cls-19" d="m117.59,46.37c0-6.83-5.64-12.33-12.47-12.03-5.96.27-10.86,5.02-11.35,11.03-.13,1.63.06,3.2.52,4.65h0s1.07,8.17,1.21,8.92c.45,2.44,6.45,8.13,8.41,9.24.8.46,2.79.46,3.6,0,1.95-1.11,7.87-6.8,8.33-9.24.14-.74,1.21-8.92,1.21-8.92h0c.36-1.15.56-2.38.56-3.65Z"/>
                  <path class="cls-19" d="m116.98,49.75s4.28-1.1,3.33,2.85c-1.15,4.73-4.49,4.17-4.49,4.17l1.16-7.02Z"/>
                  <ellipse cx="100.3" cy="50.97" rx="1.08" ry="1.53"/>
                  <path d="m101.38,50.02c-1.32.09-1.85-.11-3.08-.13.37-1.48,2.72-1.26,3.08.13h0Z"/>
                  <ellipse cx="111.06" cy="50.97" rx="1.08" ry="1.53"/>
                  <path d="m113.05,50.02c-1.32.09-1.85-.11-3.08-.13.37-1.48,2.72-1.26,3.08.13h0Z"/>
                  <path class="cls-27" d="m104.25,60.22l-2.44-.22c.55.98,1.53,1.6,2.37,1.97.95.42,2.05.42,3.01,0,.84-.37,1.82-.99,2.37-1.97l-2.44.22c-.95.09-1.91.09-2.87,0Z"/>
                  <path class="cls-26" d="m105.68,59.77c-2.03,0-3.88.24-3.88.24,1.79,1.03,3.88.94,3.88.94,0,0,2.08.09,3.88-.94,0,0-1.85-.24-3.88-.24Z"/>
                  <path class="cls-3" d="m107.28,56.8c0,.34-.77.61-1.72.61s-1.71-.28-1.71-.61"/>
                </g>
                <path d="m96.5,48.18c-.11.03-.18-.1-.11-.18.44-.47,1.46-1.41,2.69-1.63,1.2-.22,3.09-.12,4.03-.05.48.04.86.43.86.91,0,0,0,.01,0,.02,0,.38-.24.55-.46.63-.16.06-.33.06-.49.04-.68-.1-3.46-.48-3.97-.35-.44.11-1.89.46-2.56.62Z"/>
                <path d="m114.88,48.18c.11.03.18-.1.11-.18-.44-.47-1.46-1.41-2.69-1.63s-3.09-.12-4.03-.05c-.48.04-.86.43-.86.91,0,0,0,.01,0,.02,0,.38.24.55.46.63.16.06.33.06.49.04.68-.1,3.46-.48,3.97-.35.44.11,1.89.46,2.56.62Z"/>
                <path class="cls-24" d="m108.04,37.98s7.56-3.04,9.24,10.68c0,0,.7-3.47.26-6.13-.59-3.56-2.49-6.49-5.19-6.28-.95.07-4.31,1.74-4.31,1.74Z"/>
                <path class="cls-24" d="m107.4,38.16s8.18-2.65,9.85,11.07c0,0,.73-2.61.29-5.27-.59-3.56-3.95-6.85-6.65-6.64-.95.07-3.49.85-3.49.85Z"/>
                <g>
                  <path class="cls-24" d="m86.47,53.63s-7.31,2.47-5.96,8.56c1.35,6.1,2.68,4.87,1.74,9.85"/>
                  <g>
                    <path class="cls-24" d="m101.21,38.23c-3.09.82-6.34,6.21-6.4,6.46,0,0,2.59-10.09,7.95-10.84,5.36-.74,1.56,5.1,1.56,5.1,0,0-1.54-1.14-3.12-.72Z"/>
                    <path class="cls-25" d="m104.33,38.96s4.19-.99,6.22-1.79c2.03-.8,5.82-3.17,3.96-6.22-1.85-3.05-7.78-4.87-13.52-1.57-3.23,1.85-6.57,3.88-9,6.74-2.49,2.93-3.38,6.73-3.99,10.42-.68,4.1-1.36,8.06-4.12,11.38-1.01,1.21-1.72,2.24-1.86,3.85-.29,3.32,1.47,6.83.1,10.04-1.19,2.79-.82,5.2,1.71,7.73,2.53,2.54,5.41,6,2.07,5.91-3.34-.09-5.23-2.22-4.71-4.68,0,0-5.86,8.41,7.55,9.02,0,0,13.85-.91,13.07-12.07s-3.41-13.56-5.06-17.35c-1.66-3.79-1.48-3.91-1.78-5.3-.3-1.39-.61-2.95-.36-5.12,0,0,1.06-1.46,1.56-3.71.64-2.83.87-6.7,2.2-8.1,2.39-2.52,5.69-5.44,6.24-3.08.55,2.37-.31,3.94-.27,3.91Z"/>
                    <path class="cls-25" d="m104.33,38.96s7.09-5.4,5.39-7.87c-1.7-2.47-5.66-2.22-9.3-1.39.14-.11.37-.22.51-.3.46-.26.94-.49,1.42-.7,1.46-.64,3.04-1.08,4.64-1.16,1.23-.06,2.35.15,3.51.51,1.07.33,2.08,1.35,2.59,2.33,1.59,3.09-1.75,5.31-4.13,6.47-1.11.54-3.47,1.71-4.63,2.11Z"/>
                    <path class="cls-24" d="m96.16,76.31c-3.26-2.88-.06-3.63,1.19-8.5,1.25-4.88-1.09-8.95-1.26-8.98,0,0,2.45,5.78-2.45,11.54-3.88,4.57,1.55,6.45,3.61,8.97,3.01,3.69,1.11,5.04.56,6.29.03-.07.33-.19.4-.24.33-.22.63-.47.89-.76.68-.75,1.02-1.73.95-2.74-.14-2.11-2.44-4.31-3.88-5.58Z"/>
                    <path class="cls-24" d="m93.83,78.13c-7.36-2.27-8.21-5-2.71-10.7s4.15-11.4,3.47-14.18c0,0-.87,8.77-5.79,12.46-4.92,3.7-9.9,7.48-4.69,11.95,2.21,1.89,10.15,5.29,7.43,8.17-3.81,4.04-11.09,1.25-11.59-1.92-.15.67-.13.74-.15,1.11-.02.59.13,1.17.33,1.72.18.51.44,1,.76,1.44.7.97,1.71,1.71,2.85,2.1,1.59.54,3.32.38,4.94.1,1.15-.2,2.29-.48,3.38-.86,2.09-.73,4.24-1.9,5.37-3.86.48-.83.73-1.78.75-2.73.06-2.56-2.12-4.1-4.37-4.79Z"/>
                  </g>
                </g>
              </g>
              <path class="cls-17" d="m94.6,49.94s-4.6-1.21-3.64,2.73c1.15,4.73,4.42,4.19,4.42,4.19l-.78-6.93Z"/>
              <path class="cls-25" d="m92.81,53.63s2.56-2.35,3.08-6.42l-1.34-2.58s-2.59,5.74-1.74,9Z"/>
              <path class="cls-24" d="m100.41,32.69c-7.21,4.26-7.41,12.18-10.04,18.84-2.62,6.67-7.21,6.96-7.59,7.87,0,0,6.99-1.24,9.03-3.77,2.04-2.53,1.91-9.76,3.29-12.71.62-1.31,1.22-3.55,2.14-4.67,1.08-1.32,2.05-2.42,3.4-3.46.84-.65,1.97-1.33,3.12-1.37.54-.02.88.46,1.06.91.24.57.25,1.18.19,1.79-.06.62-.49,2.26-.69,2.85.12-.14.86-2.08.95-2.36.22-.69.38-1.41.47-2.13.09-.68.11-1.37-.08-2.03-.19-.6-.63-1.03-1.27-1.12-1.06-.15-2.2.4-3.11.87-.3.16-.6.32-.9.5Z"/>
            </g>
          </g>
          <g>
            <path class="cls-16" d="m213.76,78.98c-4.85.29-9.35,2.05-12,3.29-.16.07-.3.14-.44.21-1.2.58-1.92,1.01-1.99,1.05.07-.22,2.96-8.72,10.51-10.7.51-.13-21.55-.13-21.04,0,7.55,1.98,10.44,10.49,10.52,10.7-.07-.04-.79-.47-1.99-1.05-.14-.07-.29-.14-.44-.21-2.65-1.24-7.15-3-12-3.29-7.64-.46-4.79-5.56-2.01-6.1,0,0-.77-1.85.29-3.87h0c1.27-2.43,5.16-5.09,16.15-5.09s14.88,2.66,16.15,5.09h0c1.06,2.02.29,3.87.29,3.87,2.78.54,5.64,5.64-2.01,6.1Z"/>
            <path class="cls-27" d="m199.32,69.36l-24.48,7.85s2.68,11.24,5.43,20.58c1.57,5.35,1.04,14.55,1.04,14.55h36s-.7-9.2.87-14.55c2.75-9.34,6.37-20.38,6.37-20.38l-25.22-8.05Z"/>
            <path class="cls-17" d="m217.36,137.92c-.5-2.69-.06-25.58-.06-25.58h-36s.44,22.89-.06,25.58c-.49,2.63-.56,5.62-.23,7.62,0,0,5.91,13.8,18.45,13.8s18.13-13.8,18.13-13.8c.33-2,.26-4.99-.23-7.62Z"/>
            <circle class="cls-17" cx="199.3" cy="112.83" r="18"/>
            <g>
              <path class="cls-27" d="m195.55,193.48s-1.11,21.67-1.11,24.4c0,7.98-2.29,13.95-2.71,19.03-.54,6.62-1.13,12.89-.16,20.89.3,2.51.64,4.33-2.47,6.07-1.36.74-5.37.33-5.96-3.29,0-.02.17-10.44-.54-17.88-.82-8.63-3.15-18.01-3.65-23.93-.73-8.75,3.49-25.29,3.49-25.29h13.12Z"/>
              <path class="cls-17" d="m196.77,131.43c0-5.26-4.27-9.31-9.52-9.52-.13,0-.25,0-.38,0-2.91,0-5.38,2.15-5.94,5.01-.9,4.67-3.13,11.14-3.12,26.39,0,5.91,4.92,34.83,4.61,40.16h13.12c1.96-10,3.1-36.28,3.1-41.11,0-11.7-1.8-14.74-1.88-20.93Z"/>
              <path class="cls-17" d="m185.74,260.53c-.82.77-2.31,2.25-3.28,3.77-.3.47-.64.92-1.04,1.32-.99.97-2.84,2.97-3.27,4.63,0,0-2.48,2.27-2.04,3.35s.85,1.03,1.59.49c0,0,1.49,1.28,2.96.74,0,0,1.72.39,2.61-.1,0,0,1.43.44,2.41,0,0,0,3.01,1.38,4.98.25,1.97-1.13,1.48-4.63,1.48-4.63l-.59-8.79c-.08-1.17-.93-2.17-2.09-2.34-.56-.08-1.24-.03-2.07.28-.62.23-1.18.58-1.66,1.03Z"/>
              <circle class="cls-17" cx="190.74" cy="126.57" r="9.45"/>
              <circle class="cls-18" cx="189.19" cy="192.67" r="6.66"/>
              <circle class="cls-18" cx="187.43" cy="259.84" r="4.35"/>
            </g>
            <g>
              <path class="cls-27" d="m202.75,193.32s1.12,21.71,1.12,24.45c0,7.99,2.3,13.97,2.72,19.06.54,6.63,1.13,12.92.17,20.93-.3,2.52-.64,4.34,2.48,6.08,1.36.74,5.38.33,5.97-3.29,0-.02-.17-10.46.54-17.91.82-8.65,3.16-18.04,3.66-23.97.73-8.76-3.49-25.34-3.49-25.34h-13.15Z"/>
              <path class="cls-17" d="m201.53,131.16c0-5.27,4.27-9.33,9.54-9.54.13,0,.26,0,.38,0,2.92,0,5.39,2.16,5.95,5.02.9,4.67,3.13,11.16,3.13,26.44,0,5.92-4.93,34.89-4.62,40.24h-13.15c-1.97-10.02-3.1-36.35-3.1-41.19,0-11.72,1.8-14.77,1.88-20.97Z"/>
              <path class="cls-17" d="m212.58,260.5c.82.77,2.31,2.25,3.28,3.77.3.48.64.92,1.04,1.32.99.97,2.84,2.97,3.27,4.64,0,0,1.61,1.3,1.56,2.62-.05,1.17-.37,1.77-1.11,1.23,0,0-1.49,1.28-2.97.74,0,0-1.72.39-2.61-.1,0,0-1.43.44-2.42,0,0,0-3.01,1.39-4.99.25-1.97-1.14-1.48-4.64-1.48-4.64l.59-8.81c.08-1.17.93-2.18,2.09-2.34.56-.08,1.25-.03,2.07.28.62.23,1.18.59,1.67,1.04Z"/>
              <circle class="cls-17" cx="207.57" cy="126.28" r="9.47"/>
              <circle class="cls-18" cx="209.13" cy="192.51" r="6.67"/>
              <circle class="cls-18" cx="210.89" cy="259.81" r="4.36"/>
            </g>
            <path class="cls-7" d="m229.25,82.96s.77,8.3.16,18.47c-.32,5.32.98,11.1,1.67,16.05.44,3.19-2.39,6.63-6.02,6.41,0,0-4.7,0-5.51-5.34-.38-2.53.24-5.5-.2-8.46-1.74-11.66-4.49-24.79-4.49-24.79l14.4-2.35Z"/>
            <path class="cls-7" d="m222.98,133.16c1.44,3.84,4.45,18.16,4.45,18.16,0,.05.8,2.92.81,2.97l5.98-.98s-.13-3.37-.38-5.25c-.07-.52-.14-1.1-.23-1.72h0s0-.05,0-.07c-.37-2.89-.83-6.8-1.15-10.97-.47-6.09-.58-13.28-1.5-18.56l-11.42,1.83c-.28,1.93.74,7.37,3.44,14.59Z"/>
            <circle class="cls-7" cx="222.13" cy="84.29" r="7.28"/>
            <circle class="cls-7" cx="225.28" cy="118.12" r="5.78"/>
            <g id="Layer_2-8" data-name="Layer 2">
              <g id="Scene1_2-7" data-name="Scene1 2">
                <g id="Hand-7" data-name="Hand">
                  <circle class="cls-27" cx="231.16" cy="153.53" r="3.06"/>
                </g>
              </g>
            </g>
            <g>
              <path class="cls-29" d="m232.07,166.36c-2.13.64-4.99-1.15-5.1,1.52,1.79.55,4.66.78,7.02-.11l-1.93-1.41Z"/>
              <path class="cls-29" d="m231.09,168.17c-2.64,1.05-5.99-.86-5.83,2.56,2.34.51,5.53.42,8.44-.97l-2.61-1.59Z"/>
              <path class="cls-29" d="m229.84,169.61c-2.56,1.24-6.76-.52-6.35,2.88,2.37.33,6.27.12,9.07-1.49l-2.72-1.39Z"/>
              <path class="cls-27" d="m227.98,153.18l.35,10.37c1.67,1.87,2.08,4.31.94,7.44-2.92,1.5-6.03,1.61-5.34,3.88,2.38.2,5.88-.42,8.59-2.18l3.45-8.07c-.13-4.04-.91-8.03-2.05-11.36l-5.94-.08Z"/>
              <path class="cls-27" d="m228.61,163.55c-1.56,1.38-.83,1.99-1.37,4.5-.79,3.66-3.3,3.28-3.62,2.36-.31-.92.93-6.39.93-6.39.97-3.69.29-7.63,3.43-10.84,1.8,2.21.65,6.36.63,10.37Z"/>
            </g>
            <g>
              <path class="cls-15" d="m229.75,82.58s1.25,32.61,2.01,38.07c.49,3.52-2.63,7.31-6.64,7.07,0,0-5.18.01-6.08-5.89-.42-2.79-5.17-36.66-5.17-36.66l15.88-2.59Z"/>
              <path class="cls-15" d="m225.33,153.18l10.31-1s-2.99-26.54-4.01-32.36l-12.59,2.02s6.28,31.29,6.29,31.34Z"/>
              <circle class="cls-15" cx="221.9" cy="84.05" r="8.02"/>
              <circle class="cls-15" cx="225.38" cy="121.35" r="6.38"/>
            </g>
            <g>
              <path class="cls-7" d="m168.96,82.96s-.77,8.3-.16,18.47c.32,5.32-.98,11.1-1.67,16.05-.44,3.19,2.39,6.63,6.02,6.41,0,0,4.7,0,5.51-5.34.38-2.53-.24-5.5.2-8.46,1.74-11.66,4.49-24.79,4.49-24.79l-14.4-2.35Z"/>
              <path class="cls-7" d="m175.23,133.16c-1.44,3.84-4.45,18.16-4.45,18.16,0,.05-.8,2.92-.81,2.97l-5.98-.98s.13-3.37.38-5.25c.07-.52.14-1.1.23-1.72h0s0-.05,0-.07c.37-2.89.83-6.8,1.15-10.97.47-6.09.58-13.28,1.5-18.56l11.42,1.83c.28,1.93-.74,7.37-3.44,14.59Z"/>
              <circle class="cls-7" cx="172.93" cy="118.12" r="5.78"/>
              <g id="Layer_2-9" data-name="Layer 2">
                <g id="Scene1_2-8" data-name="Scene1 2">
                  <g id="Hand-8" data-name="Hand">
                    <circle class="cls-27" cx="167.05" cy="153.53" r="3.06"/>
                  </g>
                </g>
              </g>
              <g>
                <path class="cls-29" d="m166.14,166.36c2.13.64,4.99-1.15,5.1,1.52-1.79.55-4.66.78-7.02-.11l1.93-1.41Z"/>
                <path class="cls-29" d="m167.12,168.17c2.64,1.05,5.99-.86,5.83,2.56-2.34.51-5.53.42-8.44-.97l2.61-1.59Z"/>
                <path class="cls-29" d="m168.37,169.61c2.56,1.24,6.76-.52,6.35,2.88-2.37.33-6.27.12-9.07-1.49l2.72-1.39Z"/>
                <path class="cls-27" d="m170.23,153.18l-.35,10.37c-1.67,1.87-2.08,4.31-.94,7.44,2.92,1.5,6.03,1.61,5.34,3.88-2.38.2-5.88-.42-8.59-2.18l-3.45-8.07c.13-4.04.91-8.03,2.05-11.36l5.94-.08Z"/>
                <path class="cls-27" d="m169.6,163.55c1.56,1.38.83,1.99,1.37,4.5.79,3.66,3.3,3.28,3.62,2.36.31-.92-.93-6.39-.93-6.39-.97-3.69-.29-7.63-3.43-10.84-1.8,2.21-.65,6.36-.63,10.37Z"/>
              </g>
              <g>
                <path class="cls-15" d="m168.46,82.58s-1.25,32.61-2.01,38.07c-.49,3.52,2.63,7.31,6.64,7.07,0,0,5.18.01,6.08-5.89.42-2.79,5.17-36.66,5.17-36.66l-15.88-2.59Z"/>
                <path class="cls-15" d="m172.88,153.18l-10.31-1s2.99-26.54,4.01-32.36l12.59,2.02s-6.28,31.29-6.29,31.34Z"/>
                <circle class="cls-15" cx="176.31" cy="84.05" r="8.02"/>
                <circle class="cls-15" cx="172.83" cy="121.35" r="6.38"/>
              </g>
            </g>
            <g>
              <path class="cls-27" d="m206.99,75.65c0,.07.01.14.01.21,0,4.24-3.45,7.67-7.69,7.67-4.24,0-7.67-3.45-7.67-7.69,0-.07.01-.15.01-.22h-.01l.02-.08c.03-.64.13-1.26.29-1.85.03-.09.06-.18.08-.26l.33-1.86,1.08-6,.13-.71h0s11.53.01,11.53.01l.2,1.14.15.85.3,1.69.87,4.9c.22.67.34,1.37.37,2.1l.02.09h-.01Z"/>
              <path class="cls-27" d="m205.1,64.88c0,3.18-2.59,5.76-5.77,5.75-3.18,0-5.76-2.58-5.76-5.76h0c0-.49.06-.95.17-1.39.62-2.51,2.89-4.37,5.6-4.37,2.84,0,5.21,2.07,5.67,4.78.06.32.08.65.08.99Z"/>
              <path class="cls-27" d="m205.45,66.87c-2.13,2.95-5.55,4.7-9.2,4.7h-3.88l1.08-6,.13-.71h0c0-.49.06-.95.17-1.39l11.27.42c.06.32.08.65.08.99l.2,1.14.15.85Z"/>
            </g>
            <path class="cls-24" d="m177.87,138.91s-1.99,11.95-1.99,16.88c0,10.42,3.85,41.45,3.85,41.65,0,2.45,1.22,4.63,3.13,6.04,1.47,1.18,3.3,1.7,5.14,1.69.01,0,.02,0,.03,0,.01,0,.02,0,.03,0,.24,0,.48-.01.72-.03.07,0,.14-.01.21-.02,3.99-.41,7.74-3.17,7.69-6.87l1.94-33.19,1.3-12.03.27-13.86-22.32-.26Z"/>
            <path class="cls-24" d="m220.26,138.9s2.05,11.97,2.05,16.89c0,10.42-3.84,41.45-3.84,41.65,0,2.45-1.22,4.63-3.12,6.04-1.46,1.18-3.29,1.7-5.13,1.69-.01,0-.02,0-.03,0-.01,0-.02,0-.03,0-.24,0-.48-.01-.72-.03-.07,0-.14-.01-.21-.02-3.98-.41-7.73-3.17-7.68-6.87l-1.94-33.19-1.29-11.99-.58-13.9,22.51-.27Z"/>
            <path class="cls-23" d="m220.44,139.17h-42.75c.22-1.47.68-4.55,1.2-8.02l.08-.5c.13-.92.28-1.86.41-2.8l.14-.94h39.1s0,.04,0,.06c.21,1.43.42,2.88.63,4.26.51,3.47.97,6.53,1.19,7.95Z"/>
            <path class="cls-24" d="m179.74,197.44l-.72,8.53c-.1,1.19.7,2.28,1.88,2.54,2.71.61,7.8,1.35,13.26.14,1.45-.32,2.49-1.59,2.53-3.06l.18-6.96c0-.18-.17-.31-.34-.24-1.78.68-10.09,3.47-16.79-.95Z"/>
            <path class="cls-24" d="m218.5,197.44l.72,8.53c.1,1.19-.7,2.28-1.88,2.54-2.72.61-7.81,1.35-13.29.14-1.45-.32-2.49-1.59-2.53-3.06l-.18-6.94c0-.19.18-.32.35-.25,1.82.69,10.11,3.45,16.81-.96Z"/>
            <g>
              <path class="cls-24" d="m211.71,37.2c-.03-1.39.06-3.6-1.65-4.07-.56-.15-1.03-.27-1.5-.59-.16-.19-.32-.39-.48-.6-.14-.19-.29-.38-.44-.56-.44-.53-1.36-1.4-2.47-1.26-.36.05-.69.2-.98.33-.22.1-.45.2-.68.28-.18-.13-.35-.26-.54-.36-.68-.36-1.46-.24-2.24-.1-.13-.1-.26-.2-.39-.3-.41-.32-.83-.64-1.31-.87-1.21-.56-2.76-.33-3.76.56-.06.05-.11.1-.18.17-.19.19-.38.36-.58.41-.14.03-.31,0-.49-.02-.06,0-.12-.02-.18-.02-1.16-.12-2.38.45-3.03,1.41-.06.09-.12.18-.17.28-.16.27-.3.49-.51.6-.11.06-.26.09-.42.11-.17.03-.34.06-.52.14-.59.25-.89.82-1.1,1.38-.16.25-.28.54-.38.82-1.08,3.07-.9,6.3-.59,9.51.43,4.32.94,9.55,4.04,12.92,3.48,3.78,9.95,3.57,13.84.31,4.68-3.93,6.22-9.33,6.61-15.01.12-1.81.13-3.64.09-5.46Zm-22.92-3.66c.14-.2.32-.37.54-.46.14-.06.29-.09.44-.11.14-.02.28-.06.41-.11-.15.14-.31.27-.5.36-.28.14-.61.2-.9.32Zm6.59-3.27c-.84.3-1.51,1.06-2.39,1.2-.43.07-.88-.01-1.29.11-.28.09-.51.26-.72.46.05-.07.09-.15.14-.22.58-.86,1.66-1.36,2.69-1.25.06,0,.11.01.18.02.2.03.41.06.62,0,.3-.07.52-.29.76-.52.05-.05.1-.1.16-.14.89-.8,2.28-1,3.37-.5.45.2.85.52,1.24.82.04.03.08.06.12.09-.26.04-.52.08-.77.09-1.38.05-2.8-.63-4.1-.16Zm8.62.75s-.07-.04-.1-.06c.15-.06.3-.12.45-.19.27-.12.57-.26.88-.3.87-.11,1.62.53,2.04,1.01-.06-.04-.11-.08-.18-.12-.92-.51-2.13.09-3.09-.34Z"/>
              <g>
                <circle class="cls-8" cx="199.2" cy="60.16" r="5.08"/>
                <path class="cls-27" d="m210.9,46.17c0,.52-.03,1.02-.1,1.52-.02.13-.03.25-.05.38-.04.25-.09.5-.15.75-.03.13-.06.26-.1.38-.04.17-.09.34-.14.51,0,0-1.04,7.93-1.17,8.65-.44,2.36-4.48,7.74-8.6,8.73-.87.21-1.66.27-2.51,0-3.64-1.14-8.16-6.37-8.6-8.73-.13-.72-1.17-8.65-1.17-8.65h0c-.05-.14-.08-.28-.12-.42-.04-.13-.07-.25-.1-.38-.07-.28-.13-.57-.17-.86-.02-.13-.04-.25-.05-.38-.11-.8-.13-1.63-.06-2.48.47-5.83,5.22-10.44,11.01-10.7,6.63-.3,12.1,5.04,12.1,11.67Z"/>
                <path class="cls-24" d="m190.07,47.46c-.09.03-.16-.1-.09-.18.39-.47,1.28-1.42,2.36-1.64,1.05-.22,2.71-.12,3.54-.05.42.04.75.43.76.92,0,0,0,.01,0,.02,0,.38-.21.55-.4.63-.14.06-.29.06-.43.04-.6-.1-3.04-.49-3.48-.36-.38.11-1.66.46-2.24.62Z"/>
                <path class="cls-24" d="m207.94,47.46c.09.03.16-.1.09-.18-.39-.47-1.28-1.42-2.36-1.64s-2.71-.12-3.54-.05c-.42.04-.75.43-.76.92,0,0,0,.01,0,.02,0,.38.21.55.4.63.14.06.29.06.43.04.6-.1,3.04-.49,3.48-.36.38.11,1.66.46,2.24.62Z"/>
                <g>
                  <ellipse class="cls-24" cx="193.94" cy="50.48" rx="1.08" ry="1.54"/>
                  <path class="cls-24" d="m195.02,49.53c-.89-.47-1.71-.52-2.61-.14.58-.94,2.11-.84,2.61.14h0Z"/>
                  <ellipse class="cls-24" cx="204.71" cy="50.48" rx="1.08" ry="1.54"/>
                  <path class="cls-24" d="m203.63,49.53c.49-.97,2.03-1.07,2.61-.14-.9-.39-1.72-.34-2.61.14h0Z"/>
                </g>
                <path class="cls-9" d="m195.48,58.48s1.14,1.51,2.97,1.91c.63.14,1.29.14,1.92,0,1.83-.4,2.99-1.95,2.99-1.95-.05.01,0,0-.05.01,0,0-2.28.05-3.91.05-1.6,0-3.94-.03-3.91-.02s.03,0,0,0Z"/>
                <path class="cls-27" d="m210.35,49.53s4.15-1.06,3.23,2.76c-1.11,4.59-4.35,4.05-4.35,4.05l1.13-6.81Z"/>
                <path class="cls-27" d="m188.64,49.64s-4.46-1.18-3.53,2.65c1.11,4.59,4.29,4.07,4.29,4.07l-.75-6.72Z"/>
                <path class="cls-2" d="m201.18,55.34s-1.29,1.24-1.85,1.24-1.89-1.24-1.89-1.24"/>
              </g>
              <path class="cls-24" d="m190.18,41.01c-.63.35-1.3.24-1.3-.69,0-1.14.92-2.74,1.71-3.46,1.35-1.22,3.05-1.91,4.78-2.22,2.43-.4,5.46-.6,7.89-.05,1.89.42,3.66,1.54,5.08,2.92.43.41,1.36,1.08,1.59,1.61.3.71-.41,1.65-1.15,1.65-.9,0-1.78-.96-2.56-.52-.16.09-.28.23-.44.32-1.05.64-2.36-.97-3.5-.52-.38.15-.66.51-1.07.59-.63.12-1.16-.5-1.8-.58-.68-.08-1.29.46-1.97.5-1.08.07-2.1-1.13-3.09-.69-.42.19-.7.64-1.14.75-.35.09-.7-.06-1.06-.13-.85-.18-1.31.14-1.98.52,0,0,0,0-.01,0Z"/>
              <path class="cls-24" d="m191.33,38.47c.1-.25.25-.47.43-.67.19-.19.42-.35.67-.46.25-.11.52-.17.8-.18.28-.01.55.07.8.09.12.01.24.02.35,0,.11-.03.21-.07.31-.13.2-.13.37-.32.56-.51.09-.1.2-.19.31-.28.11-.09.24-.16.39-.22.14-.06.3-.07.45-.07.15,0,.29.03.42.06.27.06.51.15.75.17.24.03.49,0,.74-.04.5-.1.98-.31,1.51-.44,1.05-.29,2.21-.1,3.1.47-.95-.45-2.05-.53-3.03-.22-.49.15-.98.37-1.51.5-.27.06-.55.09-.84.06-.29-.03-.54-.12-.79-.17-.24-.06-.48-.08-.69,0-.21.07-.4.24-.58.41-.19.18-.38.38-.63.53-.13.07-.27.13-.42.15-.15.02-.3.01-.43-.01-.28-.05-.52-.13-.77-.13-.25,0-.5.03-.74.11-.24.08-.47.21-.67.37-.2.17-.37.37-.5.6Z"/>
              <path class="cls-24" d="m189,40.89s.47,1.93.2,2.96c-.28,1.03-1.2,3.64-.32,4.32.88.68.23,2.66-.09,2.78,0,0,.1-.64-.5-1.25l-.54-.76s-1.13-6.7,1.25-8.05Z"/>
              <path class="cls-24" d="m209.46,40.52s-1.18.8-.75,2.91c.43,2.12,1.14,2.62.93,3.73-.21,1.12-.52,2.28.21,3.16,0,0,.08-.38.51-.79.42-.42,1.95-6.67-.9-9.01Z"/>
              <path class="cls-24" d="m209.58,57.63l-.17-2.44s-1.02,5.24-3.59,6.78c-2.19,1.32-3.22,1.18-4.34.64-.67-.33-1.39-.56-2.14-.6h-.02s-.02,0-.02,0c-.74.04-1.47.27-2.14.6-1.12.55-2.15.68-4.34-.64-2.57-1.54-3.7-6.53-3.7-6.53l-.05,2.19c-.1,1.47.31,2.93,1.17,4.13l.67.94c4.4,6.17,8.42,5.93,8.42,5.93,0,0,4.02.24,8.42-5.93l.67-.94c.86-1.2,1.27-2.66,1.17-4.13Z"/>
            </g>
            <path class="cls-16" d="m220.02,103.65c-1.05,9.29-.29,20.61,1.21,34.17.02.14.03.28.05.43.01.13.03.25.04.38.29,2.59.61,5.27.94,8.02,0,0-.07.02-.22.07-1.25.37-8.01,2.15-22.38,2.19-.17,0-.33,0-.5,0h-.13c-.17,0-.34,0-.5,0-14.37-.04-21.13-1.82-22.38-2.19-.15-.04-.22-.07-.22-.07.33-2.76.65-5.43.94-8.02.01-.13.03-.25.04-.38.02-.14.03-.28.05-.43,1.5-13.56,2.26-24.88,1.21-34.17,0,0-4.3-26.73-.6-27.86l8.91-2.73,12.81,10.48,12.57-10.42,9.67,2.98c.8,7.97-.57,17.27-1.53,27.56Z"/>
            <g>
              <path class="cls-15" d="m188.82,72.8c7.62,1.71,10.44,10.49,10.52,10.7-.07-.04-.79-.47-1.99-1.05-.14-.07-.29-.14-.44-.21-2.65-1.24-7.15-3-12-3.29-7.64-.46-4.79-5.56-2.01-6.1,0,0,3.14-.68,5.93-.05Z"/>
              <path class="cls-15" d="m209.86,72.8c-7.62,1.71-10.44,10.49-10.52,10.7.07-.04.79-.47,1.99-1.05.14-.07.29-.14.44-.21,2.65-1.24,7.15-3,12-3.29,7.64-.46,4.79-5.56,2.01-6.1,0,0-3.14-.68-5.93-.05Z"/>
            </g>
            <path class="cls-16" d="m221.27,138.24c-.02-.14-.03-.28-.05-.43-.75-.14-1.9-.45-3.2-1.18-2.09-1.17-5-3.67-7.01-8.94h-23.84c-2.01,5.28-4.92,7.78-7.01,8.94-1.3.73-2.45,1.04-3.2,1.18-.02.14-.03.28-.05.43-.01.13-.03.25-.04.38.79-.12,2.11-.44,3.62-1.28,1.41-.78,2.71-1.86,3.86-3.2,1.33-1.56,2.46-3.47,3.36-5.7h22.76c.9,2.23,2.03,4.15,3.36,5.7,1.15,1.34,2.44,2.41,3.86,3.2,1.51.84,2.83,1.16,3.62,1.28-.01-.13-.03-.25-.04-.38Z"/>
            <g>
              <path d="m193.35,271.76l-.15-.19c-.24-.57-.54-2.57-.6-3.47-.22-3.65-.26-5.39-.3-7.94-.01-.72-.05-1.53-.09-2.49-.02-.4-.47-.65-.81-.42-.34.23-.74.55-1.08,1-.16-.48.35-1.4-2.99-1.44-2.99-.03-2.91.99-3.03,1.44,0,0-.26-.52-.36-.7-.19-.34-.7-.27-.78.11-.46,2.25-1.9,5.62-2.39,6.53-.75,1.4-2.03,2.18-3.81,5.82-.55,1.13-.55,1.81-.73,2.16-.17.22-.31.53-.36.81-.07.41-.1.83-.11,1.26-.28.47,0,1.03,0,1.13,0,.75,1.29,1.41,2.4,1.71.56.15,2.78.51,4.5.41,3.79-.23,6.69-.62,9.04-1.1,1.2-.25,1.66-1.59,1.69-2.44,0,0,0,0,0,0,.05-.57,0-1.28-.06-2.19Z"/>
              <path class="cls-1" d="m184.31,258.79s-1.01,6.54-3.07,8.98"/>
              <path class="cls-1" d="m190.15,258.79s-2.13,5.85-1.91,9.25"/>
              <path class="cls-1" d="m183.91,260.83s2.98-1.23,5.52.17"/>
              <path class="cls-1" d="m183.18,263.11s2.98-1.23,5.52.17"/>
              <path class="cls-1" d="m182.52,265.32s2.98-1.23,5.52.17"/>
            </g>
            <g>
              <path d="m204.82,271.76l.15-.19c.24-.57.54-2.57.6-3.47.22-3.65.26-5.39.3-7.94.01-.72.05-1.53.09-2.49.02-.4.47-.65.81-.42.34.23.74.55,1.08,1,.16-.48-.35-1.4,2.99-1.44,2.99-.03,2.91.99,3.03,1.44,0,0,.26-.52.36-.7.19-.34.7-.27.78.11.46,2.25,1.9,5.62,2.39,6.53.75,1.4,2.03,2.18,3.81,5.82.55,1.13.55,1.81.73,2.16.17.22.31.53.36.81.07.41.1.83.11,1.26.28.47,0,1.03,0,1.13,0,.75-1.29,1.41-2.4,1.71-.56.15-2.78.51-4.5.41-3.79-.23-6.69-.62-9.04-1.1-1.2-.25-1.66-1.59-1.69-2.44,0,0,0,0,0,0-.05-.57,0-1.28.06-2.19Z"/>
              <path class="cls-1" d="m213.87,258.79s1.01,6.54,3.07,8.98"/>
              <path class="cls-1" d="m208.02,258.79s2.13,5.85,1.91,9.25"/>
              <path class="cls-1" d="m214.26,260.83s-2.98-1.23-5.52.17"/>
              <path class="cls-1" d="m214.99,263.11s-2.98-1.23-5.52.17"/>
              <path class="cls-1" d="m215.65,265.32s-2.98-1.23-5.52.17"/>
            </g>
          </g>
          <rect class="cls-9" y="157.38" width="301.01" height="134.69"/>
          <g>
            <path class="cls-19" d="m19.05,70.89s-.81,8.68-.16,19.31c.34,5.56-1.02,11.6-1.74,16.78-.46,3.33,2.5,6.93,6.29,6.7,0,0,4.91.01,5.76-5.58.4-2.65-.26-5.75.21-8.85,1.82-12.19,4.7-25.91,4.7-25.91l-15.05-2.46Z"/>
            <path class="cls-19" d="m25.6,123.36c-1.5,4.02-4.65,18.98-4.65,18.98,0,.05-.84,3.05-.85,3.1l-6.25-1.03s.13-3.52.4-5.49c.07-.54.15-1.14.24-1.8h0s0-.05,0-.07c.39-3.02.87-7.11,1.2-11.46.49-6.36.61-13.88,1.57-19.4l11.94,1.91c.29,2.01-.77,7.7-3.6,15.25Z"/>
            <circle class="cls-19" cx="26.49" cy="72.28" r="7.61"/>
            <circle class="cls-19" cx="23.19" cy="107.64" r="6.04"/>
            <g id="Layer_2-10" data-name="Layer 2">
              <g id="Scene1_2-9" data-name="Scene1 2">
                <g id="Hand-9" data-name="Hand">
                  <circle class="cls-19" cx="17.41" cy="143.72" r="3.2"/>
                </g>
              </g>
            </g>
            <g>
              <path class="cls-14" d="m15.68,156.66c2.04.61,4.8-1.1,4.9,1.47-1.72.53-4.49.75-6.75-.11l1.85-1.36Z"/>
              <path class="cls-14" d="m16.63,158.4c2.54,1.01,5.76-.82,5.61,2.46-2.25.49-5.32.41-8.12-.94l2.51-1.53Z"/>
              <path class="cls-14" d="m17.83,159.79c2.46,1.19,6.5-.5,6.1,2.77-2.28.32-6.03.11-8.72-1.43l2.62-1.34Z"/>
              <path class="cls-19" d="m19.74,143.99l-.45,9.97c-1.61,1.8-2,4.14-.91,7.16,2.81,1.44,5.8,1.55,5.14,3.73-2.29.19-5.66-.41-8.26-2.1l-3.31-7.76c.13-3.88.87-7.72,1.97-10.92l5.82-.08Z"/>
              <path class="cls-19" d="m19.13,153.96c1.5,1.33.8,1.91,1.32,4.33.76,3.51,3.18,3.15,3.48,2.27.3-.88-.89-6.14-.89-6.14-.93-3.55-.27-7.33-3.3-10.42-1.73,2.13-.63,6.12-.61,9.97Z"/>
            </g>
          </g>
          <path class="cls-16" d="m39.47,56.2l-.07.03-15.61,7.48s.02.05.07.15c-3.43.95-5.94,4.08-5.94,7.81,0,.18.02.35.03.52-.21,3.32-.52,10.41-.03,18.58.32,5.35-.82,11.1-1.61,16.22-.01.03-.02.06-.03.09h0s0,.02,0,.04c-.24.73-.37,1.51-.35,2.31-.78,6-.99,13.74-1.65,20.02-.27,2.54-.35,4.34-.34,5.61-.12,0-.21.1-.21.23l.29,4.19,7.7.99.99-4.03c.03-.14-.02-.27-.12-.36,1.49-4.02,1.73-4.81,2.83-9.15,2.14-8.44,4.2-14.39,4.07-16.87.01-.06.02-.12.03-.19.09-.62.37-2.77.74-5.74.08,1.63.11,2.87.06,3.44-.1,1.3-1.53,8.69-2.28,13.82"/>
          <g>
            <g id="Layer_2-11" data-name="Layer 2">
              <g id="Scene1_2-10" data-name="Scene1 2">
                <g id="Hand-10" data-name="Hand">
                  <circle class="cls-19" cx="72.51" cy="142.21" r="2.7"/>
                </g>
              </g>
            </g>
            <g>
              <g>
                <circle class="cls-19" cx="78.85" cy="113.73" r="5.02"/>
                <path class="cls-19" d="m73.83,113.69l-1.41,4.09c-.37,1.22-.67,2.47-.89,3.73-.36,2.06-.61,4.15-.75,6.24l-.93,13.97,5.15-.08s.67-3.59,2.1-7.83c2.39-7.07,7.9-16.3,6.94-20.11h-10.22Z"/>
              </g>
              <g>
                <path class="cls-19" d="m71.54,153.33c1.84.55,4.33-1,4.42,1.32-1.55.48-4.04.68-6.09-.1l1.67-1.22Z"/>
                <path class="cls-19" d="m72.39,154.9c2.29.91,5.19-.74,5.06,2.22-2.03.44-4.8.37-7.32-.84l2.26-1.38Z"/>
                <path class="cls-19" d="m73.47,156.15c2.22,1.07,5.86-.45,5.5,2.5-2.05.29-5.44.1-7.86-1.29l2.36-1.21Z"/>
                <path class="cls-19" d="m75.09,141.91l-.3,8.99c-1.45,1.62-1.8,3.74-.82,6.45,2.53,1.3,5.23,1.4,4.63,3.37-2.07.17-5.1-.37-7.45-1.89l-2.99-7c.11-3.5.79-6.96,1.78-9.85l5.15-.07Z"/>
                <path class="cls-19" d="m74.54,150.9c1.35,1.2.72,1.72,1.19,3.9.68,3.17,2.86,2.84,3.14,2.04.27-.8-.8-5.54-.8-5.54-.84-3.2-.25-6.61-2.97-9.4-1.56,1.92-.57,5.51-.55,8.99Z"/>
              </g>
            </g>
          </g>
          <g>
            <g id="Layer_2-12" data-name="Layer 2">
              <g id="Scene1_2-11" data-name="Scene1 2">
                <g id="Hand-11" data-name="Hand">
                  <circle class="cls-19" cx="138.08" cy="142.21" r="2.7"/>
                </g>
              </g>
            </g>
            <g>
              <g>
                <circle class="cls-19" cx="131.74" cy="113.73" r="5.02"/>
                <path class="cls-19" d="m136.76,113.69l1.41,4.09c.37,1.22.67,2.47.89,3.73.36,2.06.61,4.15.75,6.24l.93,13.97-5.15-.08s-.67-3.59-2.1-7.83c-2.39-7.07-7.9-16.3-6.94-20.11h10.22Z"/>
              </g>
              <g>
                <path class="cls-19" d="m139.05,153.33c-1.84.55-4.33-1-4.42,1.32,1.55.48,4.04.68,6.09-.1l-1.67-1.22Z"/>
                <path class="cls-19" d="m138.2,154.9c-2.29.91-5.19-.74-5.06,2.22,2.03.44,4.8.37,7.32-.84l-2.26-1.38Z"/>
                <path class="cls-19" d="m137.12,156.15c-2.22,1.07-5.86-.45-5.5,2.5,2.05.29,5.44.1,7.86-1.29l-2.36-1.21Z"/>
                <path class="cls-19" d="m135.5,141.91l.3,8.99c1.45,1.62,1.8,3.74.82,6.45-2.53,1.3-5.23,1.4-4.63,3.37,2.07.17,5.1-.37,7.45-1.89l2.99-7c-.11-3.5-.79-6.96-1.78-9.85l-5.15-.07Z"/>
                <path class="cls-19" d="m136.05,150.9c-1.35,1.2-.72,1.72-1.19,3.9-.68,3.17-2.86,2.84-3.14,2.04-.27-.8.8-5.54.8-5.54.84-3.2.25-6.61,2.97-9.4,1.56,1.92.57,5.51.55,8.99Z"/>
              </g>
            </g>
          </g>
          <g id="Layer_2-13" data-name="Layer 2">
            <g id="Scene1_2-12" data-name="Scene1 2">
              <g id="Hand-12" data-name="Hand">
                <circle class="cls-27" cx="231.16" cy="153.53" r="3.06"/>
              </g>
            </g>
          </g>
          <path class="cls-15" d="m225.33,153.18l10.31-1s-2.99-26.54-4.01-32.36l-9.16,7.03s2.85,26.27,2.86,26.33Z"/>
          <g>
            <circle class="cls-27" cx="285.22" cy="151.29" r="2.7"/>
            <g id="Layer_2-14" data-name="Layer 2">
              <g id="Scene1_2-13" data-name="Scene1 2">
                <g id="Hand-13" data-name="Hand">
                  <circle class="cls-27" cx="285.13" cy="151.2" r="2.69"/>
                </g>
              </g>
            </g>
            <g>
              <path class="cls-28" d="m286.39,161.23c-1.68.5-3.95-.91-4.03,1.21,1.41.44,3.69.62,5.55-.09l-1.52-1.12Z"/>
              <path class="cls-28" d="m285.61,162.66c-2.09.83-4.74-.68-4.61,2.03,1.85.4,4.37.33,6.67-.77l-2.06-1.26Z"/>
              <path class="cls-26" d="m284.63,163.8c-2.02.98-5.34-.41-5.02,2.28,1.87.26,4.96.09,7.17-1.18l-2.15-1.1Z"/>
              <path class="cls-27" d="m283.06,150.81l.37,8.2c1.32,1.48,1.64,3.41.74,5.88-2.31,1.19-4.77,1.27-4.22,3.07,1.89.16,4.65-.33,6.79-1.73l2.73-6.38c-.1-3.19-.72-6.35-1.62-8.98l-4.79-.07Z"/>
              <path class="cls-26" d="m286.74,166.24c.06.01.53-1.18.9-2.66.37-1.49.63-2.7.57-2.71-.06-.01-.4,1.18-.77,2.66-.37,1.49-.76,2.7-.7,2.71Z"/>
              <path class="cls-27" d="m283.56,159.01c-1.23,1.09-.66,1.57-1.08,3.56-.62,2.89-2.61,2.59-2.86,1.86-.25-.73.73-5.05.73-5.05.77-2.92.23-6.03,2.71-8.57,1.42,1.75.52,5.03.5,8.2Z"/>
            </g>
          </g>
        </g>
      </g>
    </g>
  </g>
</svg>