<?xml version="1.0" encoding="UTF-8"?>
<svg id="Layer_2" data-name="Layer 2" xmlns="http://www.w3.org/2000/svg" viewBox="0 0 273.7 314.54">
  <defs>
    <style>
      .cls-1 {
        stroke: #6d6c6f;
        stroke-width: .72px;
      }

      .cls-1, .cls-2, .cls-3, .cls-4, .cls-5, .cls-6, .cls-7 {
        stroke-linecap: round;
      }

      .cls-1, .cls-3, .cls-4, .cls-5, .cls-7 {
        stroke-miterlimit: 10;
      }

      .cls-1, .cls-3, .cls-4, .cls-6, .cls-7 {
        fill: none;
      }

      .cls-8 {
        fill: #010101;
      }

      .cls-9 {
        fill: #e6e7e8;
      }

      .cls-10 {
        fill: #fff;
      }

      .cls-11 {
        fill: #f1f1f1;
      }

      .cls-12 {
        fill: #9a6596;
      }

      .cls-13 {
        fill: #ba0c2f;
      }

      .cls-14 {
        fill: #909294;
      }

      .cls-15 {
        fill: #b3b3b3;
      }

      .cls-16 {
        fill: #babbbd;
      }

      .cls-17 {
        fill: #b9ad86;
      }

      .cls-18 {
        fill: #a89968;
      }

      .cls-19 {
        fill: #a6a6a9;
      }

      .cls-20, .cls-5, .cls-21 {
        fill: #d0d1d1;
      }

      .cls-22 {
        fill: #cc7d85;
      }

      .cls-23 {
        fill: #a8a9ac;
      }

      .cls-24 {
        fill: #1a1a1a;
      }

      .cls-25 {
        fill: #6d6c6f;
      }

      .cls-26 {
        fill: #6e6f72;
      }

      .cls-27 {
        fill: #9b6596;
      }

      .cls-28 {
        fill: #6d6e71;
      }

      .cls-29 {
        fill: #808082;
      }

      .cls-30 {
        fill: #59595b;
      }

      .cls-31 {
        fill: #25c3da;
      }

      .cls-32 {
        fill: #5a595c;
      }

      .cls-2 {
        fill: #f2f2f2;
        stroke: #666;
        stroke-width: 1.5px;
      }

      .cls-2, .cls-6 {
        stroke-linejoin: round;
      }

      .cls-3, .cls-5 {
        stroke: #909294;
      }

      .cls-4 {
        stroke: #fff;
      }

      .cls-6 {
        stroke: #010101;
      }

      .cls-6, .cls-7 {
        stroke-width: .78px;
      }

      .cls-7 {
        stroke: #5b5a5d;
      }

      .cls-33 {
        opacity: .6;
      }

      .cls-21 {
        opacity: .5;
      }
    </style>
  </defs>
  <g id="Content">
    <g>
      <rect class="cls-11" x="34.88" width="197.07" height="155.76" rx="32.51" ry="32.51"/>
      <g>
        <g>
          <g>
            <path class="cls-8" d="m44.83,84.55c-2.1-.41-4.21-.99-6.2-1.78-.67-.27-1.4-.52-1.96-.99-.14-.11-1.45-1.74-1.2-1.82-.69.23-1.69.27-2.31-.17-.65-.45-.67-1.31-1.42-1.69-.61-.31-1.23-.21-1.86-.61-.84-.52-1.47-1.11-2.45-1.4-1.06-.31-2.36-.44-2.88-1.41-.55-1.01,0-2.58-.96-3.2-.46-.29-1.1-.21-1.53-.56-1-.83.49-2.56-.11-3.72-.23-.45-.73-.7-1-1.12-.79-1.22.67-2.74.55-4.19-.07-.88-.72-1.62-.83-2.5-.24-1.93,2.15-3.49,1.8-5.4-.1-.56-.43-1.04-.63-1.57-.37-1.01-.2-2.2.44-3.07.71-.97,1.92-1.54,2.4-2.64.26-.59.26-1.26.39-1.89.34-1.61,1.61-2.98,3.18-3.45,1.24-.37,2.81-.32,3.5-1.41.16-.25.25-.54.39-.79.62-1.11,2.05-1.42,3.3-1.63.68-.11,1.37-.24,1.98-.56.43-.22.8-.53,1.21-.78,1.81-1.07,4.35-.65,5.72.94.82-.71,1.47-1.56,2.38-2.16.89-.58,1.82-1.11,2.85-1.41,1.5-.43,3.27-.27,4.41.79.34.32.62.71,1,.97,1.61,1.11,4.21-.43,5.65.9.32.29.52.68.8,1,.79.91,2.06,1.17,3.2,1.55,1.14.38,2.36,1.12,2.52,2.31.07.54-.1,1.09-.04,1.63.23,2.11,3.56,2.84,3.69,4.96.05.76-.37,1.5-.32,2.26.12,1.86,2.8,2.9,2.62,4.75-.09.92-.91,1.67-.87,2.59.05,1.27,1.63,1.99,1.88,3.23.31,1.5-1.4,2.65-1.71,4.15-.32,1.55.93,3.18.42,4.68-.54,1.62-2.75,2.07-3.55,3.57-.44.81-.38,1.79-.48,2.7-.1.92-.46,1.94-1.32,2.27-.45.17-.95.12-1.43.18-.96.12-1.85.7-2.34,1.53-.3.51-.47,1.12-.9,1.52-1.14,1.06-2.99-.04-4.53.18-1,.15-1.77.85-2.63,1.31-1.01.53-1.93,1.16-2.92,1.71-1.25.7-2.23.62-3.57.57-1.47-.06-2.88-.1-4.34-.39Z"/>
            <path class="cls-6" d="m44.48,37.16c-1.19-1.19-2.54-2.54-4.39-2.85-.92-.16-1.79.08-2.32.63-.13.13-.24.28-.34.42-.13.18-.26.35-.41.47-.27.21-.63.3-.91.35-.37.06-.76.09-1.14.12-.45.03-.92.06-1.37.16-1.32.28-2.17,1.04-2.45,2.22-.01.05-.02.11-.04.16-.05.23-.1.45-.23.59-.13.14-.36.21-.58.27h-.01c-1.13.32-2.22.77-3.25,1.33-1.66.9-2.39,2.05-2.46,3.83,0,.04,0,.08,0,.12,0,.21-.01.4-.08.56-.08.18-.24.33-.42.48-.18.15-.37.3-.55.45-.62.5-1.27,1.02-1.76,1.68-.59.8-1.04,2.04-.51,3.12.15.32.38.59.59.85.28.34.54.66.64,1.05.14.6-.15,1.3-.89,2.11-.05.05-.1.11-.15.16-.54.59-1.16,1.26-1.25,2.12-.13,1.17.73,2.13,1.49,2.97"/>
            <path class="cls-6" d="m63.48,77.34c.67-.19,1.38-.25,2.07-.32.6-.05,1.23-.11,1.83-.25,1.34-.31,2.76-1.26,2.9-2.67.04-.37-.01-.75-.06-1.12-.08-.6-.15-1.17.17-1.59.23-.29.61-.44,1.04-.59,1.44-.49,3.11-1.26,3.32-2.81.1-.76-.19-1.43-.47-2.08-.11-.24-.21-.47-.29-.71-.31-.91-.22-1.77.27-2.72.43-.82.66-1.44.02-2.47-.15-.25-.37-.48-.58-.7-.42-.45-.82-.87-.76-1.42.04-.37.31-.68.59-1.01.04-.05.09-.1.13-.15.77-.92,1.4-2.36.84-3.64-.36-.83-1.1-1.35-1.81-1.85-.29-.2-.59-.41-.85-.64-.41-.35-.62-.67-.66-1-.05-.43.14-.84.34-1.28.19-.41.39-.84.4-1.32.02-.96-.38-1.79-1.19-2.46-.4-.33-.85-.6-1.28-.86-.31-.18-.62-.37-.91-.58-.51-.37-.79-.71-.87-1.09-.07-.34.03-.69.14-1.06.1-.35.2-.71.17-1.09-.09-1.22-1.41-1.89-2.61-2.1-.16-.03-.33-.05-.5-.08-.92-.14-1.88-.29-2.47-.94-.1-.11-.18-.23-.27-.36-.15-.21-.31-.43-.53-.61-.8-.62-1.83-.25-2.74.07-.26.09-.5.18-.74.25-1.46.42-3.16-.11-4.13-1.29"/>
          </g>
          <g>
            <path class="cls-29" d="m13.74,92.23s-2.32,14.7-4.35,37.71c-.21,2.35,1.52,4.48,3.94,4.86h0c2.76.44,4.89-1.61,5.34-4.26,3.42-20.14,8.11-36.25,8.11-36.25l-13.04-2.06Z"/>
            <circle class="cls-29" cx="20.26" cy="93.26" r="6.6"/>
            <circle class="cls-29" cx="13.98" cy="130.15" r="4.71"/>
          </g>
          <g>
            <path class="cls-29" d="m55.11,135.45h-28.27s-9.97,20.79-9.75,26.2l20.94,11.26c1.76,1.31,4.14,1.31,5.9,0l21.4-11.26c.22-5.41-10.22-26.2-10.22-26.2Z"/>
            <g>
              <path class="cls-29" d="m40.45,227.26s-.37,20.26-.64,28.61c-.27,8.26-1.63,13.07-1.86,21.34-.15,5.61.38,14.69.38,14.69l-6.43.69s-6.7-24.21-7.8-37.15c-.71-8.33,2.51-28.26,2.51-28.26l13.84.08Z"/>
              <g>
                <path class="cls-29" d="m39.81,163.66c0-6.33-5.13-11.45-11.45-11.45s-11.45,5.13-11.45,11.45c0,0,0,4.91,0,4.91,0,13.13-.22,23.87,8.96,51.97.36,1.11.63,2.1.81,2.97.03.13-.1,3.54-.07,3.67h13.85c-.1-1.04.25-5.68.21-7.4-.14-7.08-.86-54.45-.86-56.13Z"/>
                <circle class="cls-29" cx="28.36" cy="163.66" r="11.45"/>
              </g>
              <circle class="cls-29" cx="33.53" cy="227.1" r="6.92"/>
              <circle class="cls-29" cx="35.17" cy="292.78" r="3.31"/>
              <path class="cls-29" d="m40.63,304.3s.61-8.33-2.15-11.53h-5.48c-.66,0-1.11-.19-1.11-.19,0,0-1.8,2.63-1.99,3.27-.25.83-.52,2.23-.76,3.26-.69,2.85-1.42,4.54-1.42,5.74,0,0-.29.75-.46,1.54-.07.31-.17.62-.34.88-.06.1-.11.2-.13.31-.13.64.35,1.2.96,1.2.08,0,.16,0,.23-.03.18-.04.38.01.52.14.19.19.45.3.74.3.15,0,.3-.03.43-.09.25-.11.54-.04.75.13.28.24.65.38,1.04.38.32,0,.62-.09.87-.26.28-.18.65-.14.89.08.27.24.62.39,1.01.39s.74-.14,1.01-.38.68-.27.95-.02c.47.43,1.09.7,1.78.7,1.48,0,2.67-1.23,2.61-2.72,0-.15-.02-.29-.05-.43-.07-.3-.07-.61-.03-.92,0-.06.01-.12.02-.18l.11-1.6Z"/>
            </g>
            <g>
              <path class="cls-29" d="m42.11,227.14s.27,20.37.54,28.72c.27,8.26,1.63,13.07,1.86,21.34.15,5.61-.38,14.69-.38,14.69l6.43.69s6.7-24.21,7.8-37.15c.71-8.33-2.51-28.26-2.51-28.26l-13.74-.03Z"/>
              <g>
                <path class="cls-29" d="m42.64,163.66c0-6.33,5.13-11.45,11.45-11.45s11.45,5.13,11.45,11.45c0,0,0,4.91,0,4.91,0,13.13.22,23.87-8.96,51.97-.36,1.11-.63,2.1-.81,2.97-.03.13.1,3.54.07,3.67h-13.85c.1-1.04-.29-5.69-.25-7.4.14-7.08.89-54.44.89-56.12Z"/>
                <circle class="cls-29" cx="54.1" cy="163.66" r="11.45"/>
              </g>
              <circle class="cls-29" cx="48.92" cy="227.1" r="6.92"/>
              <circle class="cls-29" cx="47.28" cy="292.78" r="3.31"/>
              <path class="cls-29" d="m41.84,304.3s-.61-8.33,2.15-11.53h5.48c.66,0,1.11-.19,1.11-.19,0,0,1.8,2.63,1.99,3.27.25.83.52,2.23.76,3.26.69,2.85,1.42,4.54,1.42,5.74,0,0,.29.75.46,1.54.07.31.17.62.34.88.06.1.11.2.13.31.13.64-.35,1.2-.96,1.2-.08,0-.16,0-.23-.03-.18-.04-.38.01-.52.14-.19.19-.45.3-.74.3-.15,0-.3-.03-.43-.09-.25-.11-.54-.04-.75.13-.28.24-.65.38-1.04.38-.32,0-.62-.09-.87-.26-.28-.18-.65-.14-.89.08-.27.24-.62.39-1.01.39s-.74-.14-1.01-.38-.68-.27-.95-.02c-.47.43-1.09.7-1.78.7-1.48,0-2.67-1.23-2.61-2.72,0-.15.02-.29.05-.43.07-.3.07-.61.03-.92,0-.06-.01-.12-.02-.18l-.11-1.6Z"/>
            </g>
          </g>
          <g>
            <path class="cls-29" d="m61.57,86.72l-20.58-6.55h0s-.02,0-.02,0h-.02s0,0,0,0l-20.58,6.55c-1.17,6.84,1.11,17.44,1.11,17.44.79,8.41,2.83,16.11,4.14,20.41.79,2.58,1.18,5.26,1.18,7.97v2.92h28.3s.03-2.92.03-2.92c0-2.7.39-5.39,1.18-7.97,1.31-4.3,3.35-11.99,4.14-20.41,0,0,2.28-10.59,1.11-17.44Z"/>
            <path class="cls-29" d="m26.81,134.88c0-7.82,6.33-14.15,14.13-14.15s14.17,6.34,14.17,14.16-6.37,14.15-14.17,14.15-14.13-6.34-14.13-14.15Z"/>
            <ellipse class="cls-29" cx="31.9" cy="110.17" rx="10.74" ry="9.4" transform="translate(-80.93 89.54) rotate(-63.49)"/>
            <ellipse class="cls-29" cx="49.96" cy="110.17" rx="9.4" ry="10.74" transform="translate(-43.92 33.88) rotate(-26.51)"/>
          </g>
          <path class="cls-13" d="m71.85,213.13l-.03-.03c-.12-7.09-5.75-52.89-6.62-57.16-2.34-11.39-6.19-16.61-9.26-20.74v-2.67c0-2.68.39-5.32,1.16-7.84.71-2.31,1.34-5.38,1.9-7.98,1.5-1.87,2.46-4.63,2.46-7.72,0-2.9-.84-5.51-2.19-7.36l3.83-15.3-10.67-3.08-.04.54c-.41,5.95-5.36,10.61-11.28,10.62-5.92,0-10.87-4.67-11.28-10.62l-.04-.54-10.67,3.08,3.95,15.78c-1.24,1.84-2.01,4.35-2.01,7.12s.81,5.42,2.11,7.27c.57,2.64,1.23,5.83,1.95,8.2.77,2.53,1.16,5.17,1.16,7.84v2.67c-3.07,4.13-3.14,9.42-5.48,20.81-.88,4.28-10.31,50.19-10.41,57.13l3.92.08-1.25.37c6.88,3.05,15.46,4.63,28.03,4.63s23.81-2,30.69-5.07h.02s.02-.02.03-.02Z"/>
          <g>
            <g>
              <circle class="cls-29" cx="40.93" cy="85.26" r="7.8" transform="translate(-27.84 20.34) rotate(-21.01)"/>
              <polygon class="cls-29" points="33.24 84.02 48.64 84.06 48.64 84.06 48.3 81.74 48.02 79.81 47.51 76.25 47.13 73.64 47.06 73.15 46.95 72.36 46.41 68.68 35.49 68.67 34.87 72.91 34.77 73.58 34.69 74.12 34.62 74.59 34.55 75.12 33.27 83.8 33.27 83.81 33.24 84.02"/>
            </g>
            <path class="cls-27" d="m32.17,78.96s0,0,.01,0c.02.01.01,0-.01,0Z"/>
          </g>
          <path class="cls-26" d="m48.07,80.06l-.3-1.86-.26-3.51-.38-2.61-.07-.49-.11-.79-.53-3.69-10.72-.22-.73,5.57c2.26,4,6.05,8.94,7.68,10.08.82.58,2.68,1.38,3.66,1.18.6-.12,2.16-.89,2.16-.89l-.4-2.76Z"/>
          <g>
            <g>
              <circle class="cls-8" cx="50.51" cy="56.19" r="18.2" transform="translate(-1.73 1.61) rotate(-1.79)"/>
              <g>
                <path class="cls-29" d="m37.91,53.29c2.26-7.04,9.89-10.85,16.84-8.27,6.06,2.25,9.54,8.77,8.05,15.13-.4,1.73-1.57,4.1-1.57,4.1,0,0-4.67,9.73-5.06,10.45-1.27,2.36-7.48,5.59-9.86,6.09-.98.2-2.84-.6-3.66-1.18-2.38-1.67-7.78-8.98-7.44-11.64.1-.81,2.07-10.73,2.07-10.73h0c0-1.31.21-2.64.63-3.95Z"/>
                <path class="cls-29" d="m37.34,57.05s-4.55-2.71-4.87,1.68c-.38,5.26,3.74,5.95,3.74,5.95l1.13-7.63Z"/>
              </g>
              <path class="cls-8" d="m48.33,43.66s-.04,0-.07,0c-1.28-.16-2.56.07-3.8.39-1.1.29-2.18.21-3.11.97-1.17.95-2.06,2.4-2.83,3.55-.99,1.49-2.03,3.05-2.34,4.84-.28,1.57.05,3.24.85,4.62.25.43.56,1.05,1.18.66.48-.31.42-.79.36-1.27-.05-.35.03-.68-.01-1.04-.05-.41-.2-.86.01-1.25.19-.36.61-.52.94-.77.41-.3.7-.76.79-1.25.09-.48.06-1.07.48-1.33.36-.21.82-.02,1.23-.1.49-.09.81-.55,1.11-.94.3-.4.71-.81,1.2-.77.28.02.54.19.82.19.44,0,.75-.4,1.12-.63.44-.28,1.02-.33,1.5-.13.17.07.33.17.51.19.66.09,1.06-.82,1.71-.94.51-.09,1.01.32,1.51.19.41-.11.65-.54,1.04-.71.38-.16.83-.04,1.24-.1.41-.06,1.04-.45,1.1-.91.05-.45-.49-.94-.83-1.17-.73-.51-1.56-.86-2.38-1.21-1.09-.46-2.19-.92-3.36-1.08Z"/>
              <path class="cls-8" d="m64.72,48.16c-1.8-2.22-4.58-3.66-7.4-4.42-2.47-.66-5.18-.37-7.49.71-.73.34-1.76.75-1.21,1.79.42.81,1.2.79,1.98.75.56-.03,1.09.15,1.66.13.67-.03,1.39-.2,2,.19.55.36.75,1.05,1.09,1.61.42.69,1.11,1.22,1.89,1.44.75.22,1.71.25,2.05.95.29.6-.08,1.31-.01,1.98.08.79.76,1.37,1.35,1.9.59.53,1.2,1.24,1.06,2.03-.08.45-.38.83-.42,1.28-.06.7.53,1.26.85,1.88.38.74.38,1.67,0,2.41-.14.26-.32.5-.38.79-.23,1.05,1.17,1.8,1.26,2.87.07.82-.66,1.57-.52,2.38.11.67.77,1.12.98,1.76.09.27,4.28-2.96,4.76-7.55.64-6.09.82-9.61-3.48-14.9Z"/>
            </g>
            <g>
              <ellipse class="cls-8" cx="57.17" cy="65.25" rx="1.66" ry="1.17" transform="translate(-24.62 94.19) rotate(-68.26)"/>
              <path class="cls-8" d="m56.47,63.87c1.01-.9,3.06-.36,3.15,1.1-1.04-.7-1.9-.8-3.15-1.1h0Z"/>
              <ellipse class="cls-8" cx="47.18" cy="61.72" rx="1.66" ry="1.17" transform="translate(-26.01 87.77) rotate(-72.2)"/>
              <path class="cls-8" d="m45.43,60.08c.95-.97,3.03-.57,3.22.88-1.08-.63-1.95-.67-3.22-.88h0Z"/>
              <path class="cls-8" d="m63.72,65.34c.09.07.22-.02.19-.13-.23-.66-.82-2.04-1.93-2.8-1.09-.75-3-1.49-3.96-1.83-.49-.18-1.04.04-1.26.51,0,0,0,.01,0,.02-.17.38,0,.65.18.82.13.12.29.21.47.26.72.21,3.64,1.06,4.07,1.41.38.31,1.66,1.29,2.25,1.74Z"/>
              <path class="cls-8" d="m44.16,57.58c-.12,0-.15-.17-.05-.22.61-.34,1.97-.97,3.31-.79,1.31.17,3.23.9,4.17,1.28.48.2.74.73.59,1.22,0,0,0,.01,0,.02-.13.39-.43.49-.68.49-.18,0-.36-.04-.52-.12-.67-.33-3.41-1.65-3.97-1.68-.49-.03-2.1-.15-2.84-.21Z"/>
              <path class="cls-7" d="m49.13,67.29s-.09.73,1.32,1.48c0,0,.02.03.06.08.3.35.77.5,1.21.39.06-.01.1-.03.1-.03,1.59.2,1.94-.44,1.94-.44"/>
              <path class="cls-26" d="m51.17,73.41l2.75.77c-1.08,1.25-2.33,1.55-3.46,1.67-1.27.13-2.47-.25-3.34-1.07s-1.67-1.72-1.82-3.36l2.68.98c1.02.47,2.09.81,3.19,1.02Z"/>
              <path class="cls-30" d="m49.79,72.23c2.25.72,4.12,1.96,4.12,1.96-2.54.58-4.68-.21-4.68-.21,0,0-2.4-.68-3.93-2.55,0,0,2.24.08,4.49.8Z"/>
            </g>
          </g>
          <g>
            <g>
              <path class="cls-29" d="m68.35,92.2s5.12,15.26,11.41,39.45c.64,2.47-.82,5.06-3.34,5.92h0c-2.87.97-5.51-.82-6.47-3.57-7.27-20.86-15.17-37.19-15.17-37.19l13.56-4.6Z"/>
              <ellipse class="cls-29" cx="61.58" cy="94.5" rx="7.17" ry="7.13" transform="translate(-48.16 68.43) rotate(-43.55)"/>
            </g>
            <g>
              <path class="cls-13" d="m74.85,139c-2.66,0-5.01-1.81-5.99-4.62-7.16-20.55-15.04-36.91-15.12-37.07l15.72-5.48c.05.15,5.2,15.58,11.44,39.52.79,3.05-1,6.27-4.09,7.32-.65.22-1.3.33-1.96.33Z"/>
              <path class="cls-13" d="m61.54,102.82c-3.56,0-6.72-2.27-7.85-5.64-1.46-4.34.9-9.07,5.24-10.55.87-.3,1.77-.44,2.68-.44,3.56,0,6.72,2.27,7.85,5.64,1.46,4.34-.9,9.07-5.24,10.55-.87.3-1.77.44-2.68.44h0Z"/>
              <path class="cls-13" d="m74.96,139.09c-.09,0-.19,0-.29,0-3.46-.16-6.15-3.1-6-6.56.12-2.69,1.94-5.01,4.52-5.76.57-.16,1.15-.25,1.75-.25.09,0,.19,0,.29,0,3.46.16,6.15,3.1,6,6.56-.15,3.37-2.9,6-6.27,6h0Z"/>
            </g>
          </g>
          <g>
            <path class="cls-13" d="m16.78,86.54l15.17-3.76,1.55,9s3.78,17.72,4.41,31.67c1.33,29.64-2.11,104.59-2.11,104.59,0,0-20.57-2.15-27.28-6.54,0,0,7.9-73.76,12.11-102.72,4.2-28.96-3.84-32.23-3.84-32.23Z"/>
            <path class="cls-13" d="m20.54,105.56s12.69,11.97,11.52,49.95c-1.25,40.86-3.08,67.07-3.08,67.07"/>
            <path class="cls-13" d="m30.94,184.52l-6.03-1.57c-4.91-1.5-8.11-6.21-7.71-11.32l1.3-16.6,13.38,5.37"/>
            <path class="cls-9" d="m10.06,218.09s10.48,4.7,24.92,5.36"/>
          </g>
          <g>
            <path class="cls-13" d="m64.46,86.66l-14.4-4.17-1.2,9.28s-3.78,17.72-4.41,31.67c-1.33,29.64,2.11,104.59,2.11,104.59,0,0,20.57-2.15,27.28-6.54,0,0-7.9-73.76-12.11-102.72-4.2-28.96,2.72-32.11,2.72-32.11Z"/>
            <path class="cls-13" d="m61.83,105.56s-12.69,11.97-11.52,49.95c1.25,40.86,3.08,67.07,3.08,67.07"/>
            <path class="cls-13" d="m51.43,184.52l6.03-1.57c4.91-1.5,8.11-6.21,7.71-11.32l-1.3-16.6-13.38,5.37"/>
            <path class="cls-9" d="m72.31,218.09s-10.76,4.64-25.2,5.31"/>
          </g>
          <polygon class="cls-22" points="49.87 82.3 58.8 84.66 58.94 92.55 51.22 93.94 54.46 98.36 45.53 109.35 48.76 89.7 49.87 82.3"/>
          <g>
            <g>
              <g>
                <path class="cls-9" d="m13.4,93.1s-1.99,11.33-4.25,36.21c-.23,2.54,1.63,4.86,4.26,5.29h0c2.99.49,5.3-1.71,5.8-4.58,3.76-21.77,8.32-34.61,8.32-34.61l-14.13-2.32Z"/>
                <ellipse class="cls-9" cx="20.47" cy="94.26" rx="7.13" ry="7.17" transform="translate(-69.05 58.33) rotate(-55.87)"/>
              </g>
              <g>
                <path class="cls-13" d="m15.21,135.77c2.62-.44,4.65-2.61,5.15-5.54,3.7-21.45,8.24-34.3,8.29-34.48l-16.4-2.84c-.03.16-2.03,11.65-4.26,36.29-.28,3.14,2.01,6.02,5.23,6.55.67.11,1.34.11,1.99,0Z"/>
                <path class="cls-13" d="m21.86,102.46c3.52-.58,6.26-3.34,6.82-6.85.73-4.52-2.37-8.8-6.9-9.55-.91-.15-1.82-.15-2.72,0-3.52.58-6.26,3.34-6.82,6.85-.73,4.52,2.37,8.8,6.9,9.55.91.15,1.82.15,2.72,0h0Z"/>
                <path class="cls-13" d="m15.12,135.87c.09-.02.19-.03.28-.05,3.39-.72,5.56-4.06,4.84-7.45-.56-2.64-2.73-4.62-5.4-4.94-.59-.07-1.18-.06-1.76.04-.09.02-.19.03-.28.05-3.39.72-5.56,4.06-4.84,7.45.7,3.3,3.85,5.45,7.17,4.9h0Z"/>
              </g>
            </g>
            <g>
              <polygon class="cls-23" points="60.5 135.73 60.28 135.12 61.11 134.68 61.85 135.02 60.5 135.73"/>
              <rect class="cls-2" x="41.59" y="108.48" width="9.59" height="1.58" rx=".79" ry=".79" transform="translate(16.49 -5.61) rotate(8.42)"/>
              <path class="cls-2" d="m43.61,108.06l-1.07-.16c-.43-.06-.83.23-.9.67h0c-.06.43.23.83.67.9l1.13.17.18-1.57Z"/>
              <g>
                <g>
                  <path class="cls-29" d="m15.34,134.64l7.05-1.49c1.53-.31,3.05-.71,4.53-1.21,2.43-.81,4.82-1.75,7.16-2.82l16.82-8.44-5.24-3.95s-3.33,1.13-8.74,2.05c-9.01,1.53-21.74,3.36-24.52,6.55l2.94,9.3Z"/>
                  <circle class="cls-29" cx="14.09" cy="129.92" r="4.88" transform="translate(-93.99 56.45) rotate(-49.6)"/>
                </g>
                <g>
                  <g>
                    <g>
                      <ellipse class="cls-29" cx="56.02" cy="106.27" rx="1.2" ry="1.2" transform="translate(-58.67 70.53) rotate(-44.9)"/>
                      <g>
                        <g>
                          <ellipse class="cls-29" cx="51.29" cy="108.52" rx="1.36" ry="1.37" transform="translate(-61.64 67.85) rotate(-44.9)"/>
                          <path class="cls-29" d="m56.56,107.36l-4.67,2.38-1.22-2.44s2.55-1.13,5-2.17l.88,2.24Z"/>
                        </g>
                        <ellipse class="cls-29" cx="56.02" cy="106.27" rx="1.2" ry="1.2" transform="translate(-58.67 70.53) rotate(-44.9)"/>
                      </g>
                    </g>
                    <g>
                      <path class="cls-29" d="m62.05,110.6c.26.27.15.72-.2.84h0c-.82.28-1.72.1-2.36-.48-1.2-1.07-3.04-2.79-4.07-3.71l1.55-1.84,5.08,5.19Z"/>
                      <ellipse class="cls-29" cx="56.11" cy="106.27" rx="1.2" ry="1.2" transform="translate(-58.79 71.05) rotate(-45.13)"/>
                    </g>
                  </g>
                  <g>
                    <g>
                      <ellipse class="cls-29" cx="56.68" cy="108.61" rx="1.2" ry="1.2" transform="translate(-51.35 50.84) rotate(-34.3)"/>
                      <g>
                        <g>
                          <ellipse class="cls-29" cx="51.62" cy="109.97" rx="1.36" ry="1.37" transform="translate(-53 48.22) rotate(-34.3)"/>
                          <path class="cls-29" d="m57.02,109.78l-5.02,1.51-.76-2.62s2.71-.66,5.31-1.24l.47,2.36Z"/>
                        </g>
                        <ellipse class="cls-29" cx="56.68" cy="108.61" rx="1.2" ry="1.2" transform="translate(-51.35 50.84) rotate(-34.3)"/>
                      </g>
                    </g>
                    <g>
                      <path class="cls-29" d="m61.83,113.95c.21.31.02.74-.35.79h0c-.85.12-1.71-.22-2.23-.89-.99-1.27-2.49-3.29-3.34-4.38l1.86-1.53,4.06,6.01Z"/>
                      <ellipse class="cls-29" cx="56.77" cy="108.62" rx="1.2" ry="1.2" transform="translate(-52.05 52.22) rotate(-35.01)"/>
                    </g>
                  </g>
                  <g>
                    <g>
                      <ellipse class="cls-29" cx="57.14" cy="110.97" rx="1.2" ry="1.2" transform="translate(-40.42 33.11) rotate(-24.16)"/>
                      <g>
                        <g>
                          <ellipse class="cls-29" cx="51.92" cy="111.4" rx="1.36" ry="1.37" transform="translate(-41.05 31.01) rotate(-24.16)"/>
                          <path class="cls-29" d="m57.27,112.18l-5.21.58-.28-2.72s2.78-.16,5.45-.27l.04,2.4Z"/>
                        </g>
                        <ellipse class="cls-29" cx="57.14" cy="110.97" rx="1.2" ry="1.2" transform="translate(-40.42 33.11) rotate(-24.16)"/>
                      </g>
                    </g>
                    <g>
                      <path class="cls-29" d="m61.25,117.14c.15.34-.11.73-.49.72h0c-.86-.03-1.64-.52-2.04-1.28-.74-1.43-1.86-3.69-2.5-4.91l2.1-1.17,2.92,6.65Z"/>
                      <ellipse class="cls-29" cx="57.23" cy="110.99" rx="1.2" ry="1.2" transform="translate(-40.87 33.72) rotate(-24.5)"/>
                    </g>
                  </g>
                  <g>
                    <g>
                      <ellipse class="cls-29" cx="56.66" cy="113.37" rx="1.15" ry="1.16" transform="translate(-41.44 33.13) rotate(-24.16)"/>
                      <g>
                        <g>
                          <ellipse class="cls-29" cx="52.57" cy="113.81" rx="1.31" ry="1.32" transform="translate(-41.98 31.49) rotate(-24.16)"/>
                          <path class="cls-29" d="m56.78,114.53l-4.08.59-.27-2.62s1.74-.18,4.31-.29l.04,2.31Z"/>
                        </g>
                        <ellipse class="cls-29" cx="56.66" cy="113.37" rx="1.15" ry="1.16" transform="translate(-41.44 33.13) rotate(-24.16)"/>
                      </g>
                    </g>
                    <g>
                      <path class="cls-29" d="m59.44,117.52c.15.33-.11.7-.47.69h0c-.83-.03-1.58-.5-1.96-1.23-.72-1.38-.61-1.76-1.23-2.94l2.02-1.13,1.63,4.61Z"/>
                      <ellipse class="cls-29" cx="56.74" cy="113.39" rx="1.16" ry="1.15" transform="translate(-41.91 33.73) rotate(-24.5)"/>
                    </g>
                  </g>
                  <path class="cls-29" d="m46.42,116.04l1.85,2.96c.78,1.25,2.63,1.14,3.26-.18l1.91-4.02-1.07-6.71c-.45-1.02-1.87-1.08-2.4-.1l-3.55,8.05Z"/>
                </g>
                <polygon class="cls-29" points="45.66 116.74 47.22 114.56 50.1 119.81 36.59 127.7 42.28 120.49 45.66 116.74"/>
              </g>
            </g>
            <path class="cls-13" d="m37.33,114.57c-1.48.39-22.77,7.05-25.55,9.86-.03.01-.07.02-.1.04-3.01,1.33-4.37,4.85-3.05,7.86.95,2.16,3.09,3.55,5.45,3.55.17,0,.34-.01.51-.03v.04s.58-.12.58-.12c.09-.02.19-.04.28-.06l7.15-1.51c1.6-.33,3.17-.74,4.66-1.24,2.46-.82,4.91-1.78,7.27-2.86l.05-.02,6.96-3.85-4.2-11.67Z"/>
            <path class="cls-13" d="m35.87,127.66l-.05.02c-2.63,1.2-5.35,2.27-8.09,3.18-1.66.55-3.41,1.02-5.19,1.38l-7.96,1.68c-.1.02-.21.05-.31.07,0,0-.91.26-1.32.19-2.05-.34-3.37-.8-4.59-2.03.02.06.04.11.07.17.95,2.16,3.02,3.59,5.38,3.66.25,0,1.17-.07,1.47-.15l7.11-1.64c1.6-.33,3.17-.74,4.66-1.24,2.46-.82,4.91-1.78,7.27-2.86l.05-.02,6.96-3.85-.48-1.33-4.97,2.75Z"/>
            <g>
              <g>
                <polygon class="cls-2" points="61.83 137.87 32.38 137.87 65.42 105.52 95.27 106.44 61.83 137.87"/>
                <path class="cls-2" d="m81.63,108.69l-11.14-.56c-.58-.03-.81-.77-.35-1.12l3.42-2.61c.12-.09.26-.13.41-.13l11.69.56c.6.03.82.81.31,1.15l-3.98,2.61c-.11.07-.24.11-.37.1Z"/>
                <rect class="cls-2" x="75.47" y="104.05" width="8.92" height="1.83" rx=".92" ry=".92" transform="translate(6.2 -4.44) rotate(3.31)"/>
              </g>
              <path class="cls-15" d="m59.53,142.96s-4.58.57-1.94-7.87c2.64-8.44,7.41,1.08,7.41,1.08l.42,5.79-5.89,1Z"/>
              <g>
                <g>
                  <path class="cls-29" d="m60.93,130.84s-4.17-5.18-8.53-7.04c0,0-.39,2.86-2.17,2.67-1.4-.15-4.25,3.36-3.34,6.96.42,1.67,2.06,2.94,3.96,3.11,2.1.19,6.12.56,8.57.29l1.51-5.99Z"/>
                  <g>
                    <ellipse class="cls-29" cx="51.85" cy="125.37" rx="1.69" ry="1.68" transform="translate(-83.78 128.23) rotate(-68.74)"/>
                    <path class="cls-29" d="m47.77,124.69s1,.31,3.25,2.15l1.31-3.09s-3.74-1.02-6.19-1.73c-.45-.13-.85.34-.65.76h0c.34.72.92,1.3,1.65,1.63l.61.28Z"/>
                  </g>
                  <g>
                    <g>
                      <path class="cls-29" d="m40.12,133.69c-.34-.17-.39-.64-.09-.87h0c.63-.49,1.46-.62,2.2-.34s1.77.7,2.79,1.12l-.81,2.13-4.09-2.04Z"/>
                      <ellipse class="cls-29" cx="44.71" cy="134.68" rx="1.14" ry="1.13" transform="translate(-97.02 127.51) rotate(-68.74)"/>
                    </g>
                    <g>
                      <g>
                        <ellipse class="cls-29" cx="49.67" cy="134.92" rx="1.3" ry="1.29" transform="translate(-94.08 132.29) rotate(-68.74)"/>
                        <path class="cls-29" d="m44.63,135.83l4.95.38.18-2.58s-2.64-.06-5.17-.08l.04,2.28Z"/>
                      </g>
                      <ellipse class="cls-29" cx="44.71" cy="134.68" rx="1.14" ry="1.13" transform="translate(-97.02 127.51) rotate(-68.74)"/>
                    </g>
                  </g>
                  <g>
                    <g>
                      <path class="cls-29" d="m35.93,127.6c-.35-.15-.42-.61-.13-.85h0c.59-.52,1.42-.67,2.16-.4,1.93.71,5.52,2.11,6.85,2.59l-.7,2.17-8.18-3.5Z"/>
                      <ellipse class="cls-29" cx="44.56" cy="130.04" rx="1.14" ry="1.13" transform="translate(-92.79 124.41) rotate(-68.74)"/>
                    </g>
                    <g>
                      <g>
                        <ellipse class="cls-29" cx="49.52" cy="130.19" rx="1.3" ry="1.29" transform="translate(-89.76 129.13) rotate(-68.74)"/>
                        <path class="cls-29" d="m44.5,131.18l4.96.3.13-2.59s-2.64-.02-5.17.01l.08,2.28Z"/>
                      </g>
                      <ellipse class="cls-29" cx="44.56" cy="130.04" rx="1.14" ry="1.13" transform="translate(-92.79 124.41) rotate(-68.74)"/>
                    </g>
                  </g>
                  <g>
                    <g>
                      <path class="cls-29" d="m45.6,126.69l-.81,2.13-7.43-3.66c-.34-.17-.38-.63-.09-.86l.24-.18c.47-.37,1.11-.46,1.66-.23,1.68.7,5.07,2.24,6.43,2.8Z"/>
                      <ellipse class="cls-29" cx="45.29" cy="127.78" rx="1.14" ry="1.13" transform="translate(-90.22 123.65) rotate(-68.74)"/>
                    </g>
                    <g>
                      <g>
                        <ellipse class="cls-29" cx="50.26" cy="127.76" rx="1.3" ry="1.29" transform="translate(-87.03 128.27) rotate(-68.74)"/>
                        <path class="cls-29" d="m45.27,128.93l4.97.12.04-2.59s-2.64.08-5.17.19l.16,2.27Z"/>
                      </g>
                      <ellipse class="cls-29" cx="45.29" cy="127.78" rx="1.14" ry="1.13" transform="translate(-90.22 123.65) rotate(-68.74)"/>
                    </g>
                  </g>
                  <g>
                    <g>
                      <ellipse class="cls-29" cx="43.7" cy="132.36" rx="1.14" ry="1.13" transform="translate(-95.5 125.09) rotate(-68.74)"/>
                      <g>
                        <g>
                          <ellipse class="cls-29" cx="48.67" cy="132.51" rx="1.3" ry="1.29" transform="translate(-92.47 129.81) rotate(-68.74)"/>
                          <path class="cls-29" d="m43.64,133.51l4.96.3.13-2.59s-2.64-.02-5.17.01l.08,2.28Z"/>
                        </g>
                        <ellipse class="cls-29" cx="43.7" cy="132.36" rx="1.14" ry="1.13" transform="translate(-95.5 125.09) rotate(-68.74)"/>
                      </g>
                    </g>
                    <path class="cls-29" d="m36.88,130.94c-.33-.13-.41-.56-.15-.81h0c.6-.56,1.45-.75,2.22-.51,1.46.46,3.72,1.22,4.96,1.62l-.62,2.19-6.41-2.49Z"/>
                  </g>
                </g>
                <circle class="cls-29" cx="59.33" cy="133.62" r="3.24" transform="translate(-41.19 27.46) rotate(-19.5)"/>
              </g>
              <path class="cls-13" d="m60.14,129.92s1.47,2.32,1.31,7.12c-.21,6.52-2.33,5.91-2.33,5.91,0,0,12.65.34,16.04-1.91,3.39-2.25,5.68-4.24,5.94-6.84.26-2.61-3.47-7.76-3.47-7.76l-8.4,1.55-9.09,1.94Z"/>
            </g>
          </g>
          <polygon class="cls-22" points="32.4 82.42 23.63 84.26 23.14 90.77 31.08 93.01 27.83 97.42 36.56 109.45 33.6 89.7 32.4 82.42"/>
        </g>
        <g>
          <path d="m40.81,305.37c.02-.65.1-2.38.05-3.34-.1-2.04-.23-6.36-.82-6.6-.11.4-1.5,7.61-7.37,7.34-4.04-.19-2.44-6.36-2.66-6.94-.43.52-3.44,9.42-3.7,10.35,0-.03,0-.04,0-.02-.26,1-.47,2.2-.47,3.32,0,.59,2.18,2.4,4.8,2.4,3.08,0,6.1-.79,8.08-1.73,1.3-.62,2.04-1.03,2.07-1.49.05-.22.16-2.07.02-2.46,0-.31.01-.6.02-.83Z"/>
          <path class="cls-10" d="m37.95,306.34c.07,0,.15-.01.22-.04.19-.08.24-.24.12-.36-.07-.08-1.83-1.85-5.73-1.94-3.6-.08-4.72,1.25-4.76,1.3-.11.13-.03.29.17.36.2.07.44.02.54-.11.04-.04.94-1.09,4.03-1.02,3.46.07,5.01,1.62,5.08,1.69.08.08.21.12.34.12Z"/>
        </g>
        <g>
          <path d="m41.6,305.37c-.02-.65-.1-2.38-.05-3.34.1-2.04.23-6.36.82-6.6.11.4,1.5,7.61,7.37,7.34,4.04-.19,2.44-6.36,2.66-6.94.43.52,3.44,9.42,3.7,10.35,0-.03,0-.04,0-.02.26,1,.47,2.2.47,3.32,0,.59-2.18,2.4-4.8,2.4-3.08,0-6.1-.79-8.08-1.73-1.3-.62-2.04-1.03-2.07-1.49-.05-.22-.16-2.07-.02-2.46,0-.31-.01-.6-.02-.83Z"/>
          <path class="cls-10" d="m44.46,306.34c-.07,0-.15-.01-.22-.04-.19-.08-.24-.24-.12-.36.07-.08,1.83-1.85,5.73-1.94,3.6-.08,4.72,1.25,4.76,1.3.11.13.03.29-.17.36-.2.07-.44.02-.54-.11-.04-.04-.94-1.09-4.03-1.02-3.46.07-5.01,1.62-5.08,1.69-.08.08-.21.12-.34.12Z"/>
        </g>
      </g>
      <g>
        <polygon class="cls-31" points="211.86 59.3 227.8 59.3 220.07 67.09 219.59 67.09 211.86 59.3"/>
        <path class="cls-20" d="m240.36,135.25c-.57-3.06-1.32-5.79-1.74-8.65-1.21-8.27-.73-17.38-.73-17.38h-36.14s.51,9.27-.73,17.38c-.44,2.86-1.17,5.59-1.74,8.65-.56,2.99-.63,6.4-.26,8.67,0,0,6.72,15.7,20.99,15.7s20.62-15.7,20.62-15.7c.37-2.27.29-5.68-.26-8.67Z"/>
        <g>
          <g>
            <path class="cls-20" d="m227.94,68.58c0,.07.01.15.01.22,0,4.36-3.54,7.89-7.9,7.88-4.35,0-7.88-3.54-7.88-7.9,0-.07.01-.15.01-.22h-.01l.02-.09c.03-.66.13-1.29.3-1.9.03-.09.06-.18.09-.27l.34-1.91,1.11-6.16.13-.73h0s11.84.01,11.84.01l.21,1.17.15.88.31,1.74.89,5.03c.22.68.35,1.4.38,2.16l.02.09h-.01Z"/>
            <path class="cls-20" d="m225.74,56.15c0,3.17-2.58,5.75-5.76,5.74-3.17,0-5.75-2.58-5.75-5.75h0c0-.49.06-.95.17-1.39.62-2.51,2.89-4.36,5.59-4.36,2.84,0,5.2,2.07,5.66,4.78.06.32.08.65.08.99Z"/>
            <path class="cls-19" d="m226.1,58.14c-2.12,2.94-5.54,4.7-9.18,4.7h-3.87l1.07-5.99.13-.71h0c0-.49.06-.95.17-1.39l11.25.42c.06.32.08.65.08.99l.2,1.14.15.85Z"/>
          </g>
          <path d="m206.3,37.72s-4.02,6.27,1.56,9.06l1.93,3.18,24.56-8.96c1.44-2.87-1.26-9.62-2.39-9.73l-25.66,6.46Z"/>
          <g>
            <path class="cls-16" d="m210.01,40.47s-4.36-1.12-3.39,2.9c1.17,4.82,4.57,4.25,4.57,4.25l-1.18-7.15Z"/>
            <path class="cls-20" d="m208.53,40.95s-.55,5.62-.03,8.29c.49,2.47,5.37,8.53,7.36,9.66.82.46,1.72.23,2.64,0,4.12-1.04,10.07-6.69,10.53-9.17.14-.75,2.69-9.07,2.69-9.07h0c.05-.14.65-3.15.53-4.74-.47-6.12-5.48-10.96-11.55-11.23-6.96-.31-12.7,5.29-12.7,12.25,0,.09,0,.23,0,.41,0,.22,0,.49,0,.78-.01,1.06.51,2.71.55,2.82Z"/>
            <path class="cls-20" d="m231.35,40.59s4.68-1.24,3.71,2.78c-1.17,4.82-5.52,4.5-5.52,4.5l1.81-7.28Z"/>
            <path class="cls-10" d="m220.21,49.86s-1.4,1.58-3.21,2.01c-.63.15-1.28.15-1.9,0-1.81-.42-2.7-2.04-2.7-2.04.05.01,0,0,.05.01,0,0,2.27.06,3.89.05,1.59,0,3.91-.03,3.88-.03s-.03,0,0,0Z"/>
            <line class="cls-3" x1="215.58" y1="37.19" x2="214.9" y2="44.94"/>
            <path d="m212.34,48.01l1.32-.33c1.72-.43,3.49-.43,5.21,0l1.32.33c.87.22,1.54,1.11,1.54,2.17,0,1.31-.75,2.44-.75,2.44.25-2.02-1.55-2.74-1.55-2.74h-3.17s-3.87,0-3.87,0c0,0-1.1.71-.85,2.74,0,0-.75-1.12-.75-2.44,0-1.06.67-1.95,1.54-2.17Z"/>
            <path class="cls-5" d="m214.07,46.57s1.24,1.3,1.78,1.3,1.82-1.3,1.82-1.3"/>
            <path d="m226.12,38.3c.1.03.17-.11.1-.19-.41-.49-1.35-1.49-2.48-1.73-1.11-.23-2.85-.13-3.71-.05-.44.04-.79.45-.8.96,0,0,0,.01,0,.02,0,.4.22.58.42.66.14.06.3.07.45.04.63-.1,3.19-.51,3.66-.37.4.12,1.74.49,2.36.65Z"/>
            <path d="m207.97,38.13c.65-.18,1.45-.4,1.74-.49.46-.14,3.03.27,3.66.37.15.03.31.02.45-.04.2-.08.42-.26.42-.66v-.02c0-.51-.35-.92-.79-.96-.86-.08-2.61-.18-3.71.05-.68.14-1.28.56-1.75.98,0,.22,0,.49,0,.78Z"/>
            <g>
              <ellipse cx="221.83" cy="41.47" rx="1.14" ry="1.61"/>
              <path d="m220.69,40.47c.07-1.5,2.53-1.65,2.73-.14-1.16.09-1.46.13-2.73.14h0Z"/>
              <ellipse cx="211.22" cy="41.47" rx="1.14" ry="1.61"/>
              <path d="m212.35,40.47c-1.28-.01-1.58-.05-2.73-.14.21-1.51,2.67-1.35,2.73.14h0Z"/>
            </g>
            <path d="m208.25,46.54v-.56s.54,5.31,2.64,7.2c1.08.97,1.97,1.18,2.98.6.6-.34,1.23-.56,1.9-.6h.04c.67.04,1.32.28,1.93.63,1.01.58,3.38.69,5.36-.7,2.32-1.62,6.9-7.14,6.9-7.14,0,0-.98,5.05-1.37,5.99-1.11,2.68-3.46,4.41-5.63,5.91-3.42,2.37-6.89,2.24-6.89,2.24,0,0-2.14-.1-4.6-3.25-1.38-1.76-2.3-3.84-2.77-6.02-.27-1.22-.49-2.72-.49-4.31Z"/>
          </g>
          <g>
            <path d="m227.06,39.27c-.07-.23-1.32-.4-2.45-.38-1.13.02-2.17-.1-4.22.13,0,0-1.66.23-2.39.38-2.41.51-3.33.26-5.42-.2,0,0-.02,0-.03,0-1.28-.29-2.26-.29-3.39-.31-1.13-.02-2.09.22-2.15.46-.07.23-.11,1.05.15,1.19.26.14.48.06.83,1.41.35,1.34.25,2.4,1.94,2.99,1.5.52,2.46.37,3.48-.55,1.02-.92,1.73-3.36,1.89-3.79.05-.15.51-.2.89-.18.29.02.82.25.85.54l.03.35c.03.37.09.73.18,1.09.16.65.48,1.54,1.19,2.17,1.02.92,3.74,1,5.42.37,1.68-.63,1.88-1.73,2.23-3.07.35-1.34.57-1.26.83-1.41.26-.14.22-.96.15-1.19Zm-12.71,2.18c-.17.97-.57,2.23-1.41,2.82-.85.59-1.23.62-2.19.51-1.42-.16-1.83-1.02-2.07-1.92-.24-.9-.41-2.26-.15-2.87.26-.61,1.81-.73,3-.63,1.2.1,1.3.24,2.1.63.06.03.89.49.72,1.46Zm10.85,1.42c-.24.9-.67,1.57-2.07,1.92-1.39.35-3.31.08-4.15-.51-.85-.59-1.24-1.85-1.41-2.82-.17-.97.66-1.43.72-1.46.8-.39,3.86-.53,5.05-.63,1.2-.1,1.76.02,2.02.63.26.61.09,1.98-.15,2.87Z"/>
            <path d="m226.32,39.39s3.82-.63,4.65-.61c.42,0,.67.21.81.41.13.18.17.42.12.64v.06c-.36.06-.68-.09-.92-.35-.06-.06-.14-.1-.24-.08-.35.06-4.58.87-4.58.87l.16-.94Z"/>
          </g>
          <path d="m230,26.09c-1.71-2.63-5.54-2.75-5.58-2.75,0,0-3.16-3.03-8.99-2.95,0,0-10.42-1.7-9.53,9.59,0,0-2.1,1-1.58,5.33.37,3.07,3.65,2.82,3.65,2.82,0,0,.19-.22.65-2.98.05-.28.1-.59.15-.93.06-.34.1-.69.12-1.05.16-2.62,1.77-4.08,4.12-4.81,0,0,.01,0,.02,0,.42-.13.85-.23,1.31-.32.93-.18,1.94-.27,3-.3.06,0,1.41-.02,2.15-.04.09,0,.17,0,.23,0,0,0,.13,0,.36.01.94.08,2.79.48,4.22,1.52,0,0-.51,6.03,2.75,9.07h0c1.27,3.06,3.93,4.66,4.35,4.78,0,0,4.38-8.11-1.41-16.99Z"/>
          <path d="m213.04,28.35c-2.36.73-3.97,2.2-4.14,4.82-.02.35-.06.7-.12,1.05-.05.34-.11.64-.15.93-.15-1.12-.37-4.45.02-7.04.54-3.51,4.03-3.31,4.39.24Z"/>
          <path d="m224.42,28.81c-.02.15-.06.29-.11.41-1.43-1.04-3.28-1.44-4.22-1.52-.23-.01-.36-.01-.36-.01-.07,0-.15,0-.23,0,1.43-1.36,2.75-1.27,3.61-.94.84.32,1.42,1.16,1.3,2.05Z"/>
        </g>
        <circle class="cls-20" cx="219.82" cy="113.93" r="17.92"/>
        <g>
          <path class="cls-20" d="m214.61,209.43s-1.32,6.73-1.8,14.93c-.21,3.64.58,8.72.58,11.71,0,8.71-2.51,15.22-2.96,20.77-.59,7.22-1.23,14.07-.18,22.8.33,2.74.7,4.73-2.7,6.62-1.48.8-5.86.36-6.5-3.59,0-.02.18-11.4-.59-19.52-.9-9.42-3.44-19.66-3.98-26.12-.8-9.55,3.81-27.61,3.81-27.61h14.33Z"/>
          <path class="cls-20" d="m215.94,141.7c0-5.74-4.66-10.16-10.39-10.39-.14,0-.28,0-.41,0-3.18,0-5.88,2.35-6.48,5.47-.98,5.09-3.41,12.16-3.41,28.81,0,6.45,4.05,16.65,4.61,27.34.26,4.86.76,10.68.42,16.5h14.33c2.14-10.91,1.81-19.86,2.1-27.62.24-6.4,1.28-11.98,1.28-17.26,0-12.77-1.97-16.09-2.05-22.85Z"/>
          <path class="cls-20" d="m203.9,282.62c-.9.84-2.52,2.46-3.58,4.11-.33.52-.7,1.01-1.14,1.44-1.08,1.06-2.72,3.45-3.19,5.26,0,0-2.03,3.34-.87,3.99,0,0,1.63,1.4,3.23.81,0,0,1.88.43,2.84-.11,0,0,1.56.48,2.64,0,0,0,3.28,1.51,5.43.27s1.61-5.06,1.61-5.06l-.64-9.6c-.08-1.27-1.02-2.37-2.28-2.55-.61-.09-1.36-.03-2.26.3-.68.25-1.29.64-1.82,1.13Z"/>
          <circle class="cls-20" cx="209.35" cy="136.39" r="10.31"/>
          <circle class="cls-21" cx="207.66" cy="208.55" r="7.27"/>
          <circle class="cls-21" cx="205.74" cy="281.87" r="4.75"/>
        </g>
        <g>
          <path class="cls-20" d="m224.73,209.43s1.32,6.73,1.8,14.93c.21,3.64-.58,8.72-.58,11.71,0,8.71,2.51,15.22,2.96,20.77.59,7.22,1.23,14.07.18,22.8-.33,2.74-.7,4.73,2.7,6.62,1.48.8,5.86.36,6.5-3.59,0-.02-.18-11.4.59-19.52.9-9.42,3.44-19.66,3.98-26.12.8-9.55-3.81-27.61-3.81-27.61h-14.33Z"/>
          <path class="cls-20" d="m223.4,141.7c0-5.74,4.66-10.16,10.39-10.39.14,0,.28,0,.41,0,3.18,0,5.88,2.35,6.48,5.47.98,5.09,3.41,12.16,3.41,28.81,0,6.45-4.05,16.65-4.61,27.34-.26,4.86-.76,10.68-.42,16.5h-14.33c-2.14-10.91-1.81-19.86-2.1-27.62-.24-6.4-1.28-11.98-1.28-17.26,0-12.77,1.97-16.09,2.05-22.85Z"/>
          <circle class="cls-20" cx="229.98" cy="136.39" r="10.31"/>
          <circle class="cls-21" cx="231.67" cy="208.55" r="7.27"/>
          <circle class="cls-21" cx="233.59" cy="281.87" r="4.75"/>
          <path class="cls-20" d="m235.44,282.62c.9.84,2.52,2.46,3.58,4.11.33.52.7,1.01,1.14,1.44,1.08,1.06,2.72,3.45,3.19,5.26,0,0,2.03,3.34.87,3.99,0,0-1.63,1.4-3.23.81,0,0-1.88.43-2.84-.11,0,0-1.56.48-2.64,0,0,0-3.28,1.51-5.43.27-2.15-1.24-1.61-5.06-1.61-5.06l.64-9.6c.08-1.27,1.02-2.37,2.28-2.55.61-.09,1.36-.03,2.26.3.68.25,1.29.64,1.82,1.13Z"/>
        </g>
        <g>
          <path class="cls-20" d="m187.86,79.83s-.87,9.38-.18,20.87c.36,6.01-1.1,12.54-1.88,18.13-.5,3.6,2.7,7.49,6.8,7.24,0,0,5.31.01,6.23-6.03.43-2.86-.28-6.22.22-9.56,1.97-13.17,5.08-27.99,5.08-27.99l-16.26-2.66Z"/>
          <path class="cls-20" d="m194.93,136.52c-1.62,4.34-5.03,20.51-5.03,20.51,0,.06-.91,3.29-.91,3.35l-6.76-1.11s.14-3.81.43-5.93c.08-.58.16-1.24.26-1.94h0s0-.05,0-.08c.42-3.26.94-7.68,1.3-12.39.53-6.88.65-15,1.69-20.96l12.9,2.07c.32,2.18-.83,8.32-3.89,16.48Z"/>
          <circle class="cls-20" cx="195.9" cy="81.33" r="8.22"/>
          <circle class="cls-20" cx="192.33" cy="119.54" r="6.53"/>
          <g id="Layer_2-2" data-name="Layer 2">
            <g id="Scene1_2" data-name="Scene1 2">
              <g id="Hand">
                <circle class="cls-20" cx="186.08" cy="158.53" r="3.46"/>
              </g>
            </g>
          </g>
          <g>
            <path class="cls-14" d="m184.22,172.51c2.21.66,5.19-1.19,5.3,1.58-1.86.57-4.85.81-7.3-.12l2-1.47Z"/>
            <path class="cls-14" d="m185.25,174.39c2.74,1.09,6.22-.89,6.06,2.66-2.43.53-5.75.44-8.77-1.01l2.71-1.65Z"/>
            <path class="cls-14" d="m186.54,175.89c2.66,1.29,7.02-.54,6.6,2.99-2.46.35-6.51.12-9.42-1.55l2.83-1.45Z"/>
            <path class="cls-20" d="m188.6,158.82l-.49,10.78c-1.73,1.94-2.16,4.48-.98,7.73,3.04,1.56,6.27,1.67,5.55,4.04-2.48.21-6.11-.44-8.92-2.27l-3.58-8.38c.14-4.19.94-8.35,2.13-11.8l6.29-.09Z"/>
            <path class="cls-20" d="m187.95,169.59c1.62,1.43.86,2.06,1.42,4.67.82,3.8,3.43,3.4,3.76,2.45.33-.95-.96-6.64-.96-6.64-1.01-3.84-.3-7.92-3.56-11.26-1.87,2.3-.68,6.61-.66,10.78Z"/>
          </g>
        </g>
        <g>
          <path class="cls-20" d="m251.9,79.83s.87,9.38.18,20.87c-.36,6.01,1.1,12.54,1.88,18.13.5,3.6-2.7,7.49-6.8,7.24,0,0-5.31.01-6.23-6.03-.43-2.86.28-6.22-.22-9.56-1.97-13.17-5.08-27.99-5.08-27.99l16.26-2.66Z"/>
          <path class="cls-20" d="m244.82,136.52c1.62,4.34,5.03,20.51,5.03,20.51,0,.06.91,3.29.91,3.35l6.76-1.11s-.14-3.81-.43-5.93c-.08-.58-.16-1.24-.26-1.94h0s0-.05,0-.08c-.42-3.26-.94-7.68-1.3-12.39-.53-6.88-.65-15-1.69-20.96l-12.9,2.07c-.32,2.18.83,8.32,3.89,16.48Z"/>
          <circle class="cls-20" cx="243.85" cy="81.33" r="8.22"/>
          <circle class="cls-20" cx="247.42" cy="119.54" r="6.53"/>
          <g id="Layer_2-3" data-name="Layer 2">
            <g id="Scene1_2-2" data-name="Scene1 2">
              <g id="Hand-2" data-name="Hand">
                <circle class="cls-20" cx="253.67" cy="158.53" r="3.46"/>
              </g>
            </g>
          </g>
          <g>
            <path class="cls-14" d="m255.53,172.51c-2.21.66-5.19-1.19-5.3,1.58,1.86.57,4.85.81,7.3-.12l-2-1.47Z"/>
            <path class="cls-14" d="m254.51,174.39c-2.74,1.09-6.22-.89-6.06,2.66,2.43.53,5.75.44,8.77-1.01l-2.71-1.65Z"/>
            <path class="cls-14" d="m253.21,175.89c-2.66,1.29-7.02-.54-6.6,2.99,2.46.35,6.51.12,9.42-1.55l-2.83-1.45Z"/>
            <path class="cls-20" d="m251.15,158.82l.49,10.78c1.73,1.94,2.16,4.48.98,7.73-3.04,1.56-6.27,1.67-5.55,4.04,2.48.21,6.11-.44,8.92-2.27l3.58-8.38c-.14-4.19-.94-8.35-2.13-11.8l-6.29-.09Z"/>
            <path class="cls-20" d="m251.8,169.59c-1.62,1.43-.86,2.06-1.42,4.67-.82,3.8-3.43,3.4-3.76,2.45-.33-.95.96-6.64.96-6.64,1.01-3.84.3-7.92,3.56-11.26,1.87,2.3.68,6.61.66,10.78Z"/>
          </g>
        </g>
        <path d="m241.05,208.89c0-.11.01-.23.01-.34,0-.22,3.91-33.99,3.91-45.34,0-5.36-2.09-18.38-2.09-18.38h0c-.25-1.65-.72-4.81-1.25-8.36-.22-1.51-.46-3.08-.69-4.64,0-.02,0-.04,0-.06h-42.55l-.15,1.03c-.15,1.02-.3,2.05-.45,3.05l-.08.55c-.53,3.57-1.01,6.75-1.26,8.45h0s-2.02,13.01-2.02,18.37c0,11.35,3.91,45.12,3.91,45.34,0,.11,0,.23,0,.34-.35,1.84-2.94,15.55-3.09,22.34-.26,11.35,3.54,48.21,3.54,48.21h12.76s4.48-41.12,4.21-48.49c-.28-7.47,0-22.27,0-22.27h-.19l1.93-35.38,1.1-10.95c.4.11.81.17,1.24.17.34,0,.66-.03.98-.1l1.09,10.88,1.93,35.38h-.19s.28,14.8,0,22.27c-.28,7.37,4.21,48.49,4.21,48.49h12.76s3.8-36.85,3.54-48.21c-.15-6.79-2.74-20.51-3.1-22.34Z"/>
        <g>
          <path d="m213.24,298.77s-.09,0-.24.02c.08-.32.2-.97.05-1.74-.08-.79-.49-2.08-.89-3.64-.4-1.57-.65-4.79-.65-4.79-.03-.16-.05-.31-.08-.46h0s0,0,0,0c-.58-3.11-1.71-5.01-1.86-5.26-.01-.02-.02-.03-.02-.03h-.04s-5.9-.09-5.9-.09h0l-3.08-.05h-.12s-2.62,5.88-2.62,5.88c0,0-.03.09-.09.24h0c-.31.84-1.41,3.75-2.27,5.61-.67,1.46-.77,2.93-.66,4.16-.12-.01-.24-.02-.35-.04l-.2,1.8c3.57.4,7.16.52,10.25.52,5.12,0,8.88-.34,8.94-.35l-.17-1.8Z"/>
          <g>
            <path class="cls-4" d="m206.9,288.07s-2.43-1.16-4.51.18"/>
            <path class="cls-4" d="m207.01,286.9s-2.66-1.16-4.95.18"/>
            <path class="cls-4" d="m207.36,285.74s-3.03-1.16-5.64.18"/>
            <path class="cls-4" d="m207.67,284.41s-3.37-1.16-6.27.18"/>
            <path class="cls-4" d="m207.98,283.09s-3.7-1.16-6.88.18"/>
          </g>
        </g>
        <g>
          <path d="m226.11,298.77s.09,0,.24.02c-.08-.32-.2-.97-.05-1.74.08-.79.49-2.08.89-3.64.4-1.57.65-4.79.65-4.79.03-.16.05-.31.08-.46h0s0,0,0,0c.58-3.11,1.71-5.01,1.86-5.26.01-.02.02-.03.02-.03h.04s5.9-.09,5.9-.09h0l3.08-.05h.12s2.62,5.88,2.62,5.88c0,0,.03.09.09.24h0c.31.84,1.41,3.75,2.27,5.61.67,1.46.77,2.93.66,4.16.12-.01.24-.02.35-.04l.2,1.8c-3.57.4-7.16.52-10.25.52-5.12,0-8.88-.34-8.94-.35l.17-1.8Z"/>
          <g>
            <path class="cls-4" d="m232.45,288.07s2.43-1.16,4.51.18"/>
            <path class="cls-4" d="m232.33,286.9s2.66-1.16,4.95.18"/>
            <path class="cls-4" d="m231.99,285.74s3.03-1.16,5.64.18"/>
            <path class="cls-4" d="m231.67,284.41s3.37-1.16,6.27.18"/>
            <path class="cls-4" d="m231.37,283.09s3.7-1.16,6.88.18"/>
          </g>
        </g>
        <path class="cls-13" d="m257.09,149.18c0-1.37-.08-3.32-.36-6.06-.71-6.79-.94-15.16-1.78-21.64.02-.87-.11-1.71-.37-2.49,0-.01,0-.03,0-.04h0s-.02-.07-.03-.1c-.85-5.54-2.09-11.76-1.74-17.53.54-8.84.2-16.5-.03-20.08.01-.19.03-.37.03-.56,0-4.06-2.77-7.47-6.52-8.46l-16.46-8.19h0l-.14-.07-9.47,3.27-.26.09h-.3l-.22-.07-9.51-3.28-.07.04-16.87,8.09s.03.06.07.16c-3.7,1.03-6.42,4.41-6.42,8.44,0,.19.02.37.03.56-.23,3.58-.56,11.25-.03,20.08.35,5.78-.88,11.99-1.74,17.53-.01.03-.02.07-.03.1h0s0,.03,0,.04c-.26.79-.4,1.63-.37,2.5-.84,6.48-1.07,14.84-1.78,21.64-.29,2.74-.37,4.69-.36,6.06-.13,0-.23.11-.22.25l.32,4.53,8.32,1.07,1.07-4.35c.04-.15-.02-.29-.13-.39,1.61-4.34,1.87-5.2,3.06-9.88,2.31-9.12,4.54-15.55,4.4-18.22.01-.07.03-.13.04-.2.1-.67.4-3,.8-6.21.08,1.76.12,3.1.07,3.71-.11,1.4-1.65,9.39-2.46,14.93-.38,2.58,10.02,3.55,20.2,3.7h0c1.45.02,2.92.02,4.36,0,9.94-.19,19.76-1.15,19.39-3.69-.8-5.53-2.19-13.52-2.29-14.93-.05-.66,0-2.18.12-4.16.43,3.44.75,5.95.86,6.65.01.07.03.14.04.2-.14,2.67,2.09,9.1,4.4,18.22,1.19,4.68,1.45,5.54,3.06,9.88-.11.09-.17.24-.13.39l1.07,4.35,8.32-1.07.32-4.53c0-.13-.09-.24-.22-.25Z"/>
        <g>
          <polygon class="cls-10" points="227.8 59.3 220.07 67.09 226.72 73.67 230.58 65.83 227.8 59.3"/>
          <path class="cls-10" d="m220.07,67.09h-.48,0s-7.73-7.79-7.73-7.79l-2.79,6.53,3.86,7.85,6.63-6.56-.14.14-1.94,1.92.31,68.94h0c1.45.02,2.92.02,4.36,0v-68.94l-1.96-1.94-.14-.14Z"/>
        </g>
        <g class="cls-33">
          <polygon class="cls-13" points="227.8 59.3 220.07 67.09 226.72 73.67 230.58 65.83 227.8 59.3"/>
          <path class="cls-13" d="m220.07,67.09h-.48,0s-7.73-7.79-7.73-7.79l-2.79,6.53,3.86,7.85,6.63-6.56-.14.14-1.94,1.92.31,68.94h0c1.45.02,2.92.02,4.36,0v-68.94l-1.96-1.94-.14-.14Z"/>
        </g>
        <g>
          <path class="cls-10" d="m220.89,76.94c0,.44-.36.8-.8.8s-.8-.36-.8-.8.36-.8.8-.8.8.36.8.8Z"/>
          <path class="cls-10" d="m220.89,87.37c0,.44-.36.8-.8.8s-.8-.36-.8-.8.36-.8.8-.8.8.36.8.8Z"/>
          <path class="cls-10" d="m220.89,97.81c0,.44-.36.8-.8.8s-.8-.36-.8-.8.36-.8.8-.8.8.36.8.8Z"/>
          <path class="cls-10" d="m220.89,108.24c0,.44-.36.8-.8.8s-.8-.36-.8-.8.36-.8.8-.8.8.36.8.8Z"/>
          <path class="cls-10" d="m220.89,118.68c0,.44-.36.8-.8.8s-.8-.36-.8-.8.36-.81.8-.81.8.36.8.81Z"/>
          <path class="cls-10" d="m220.89,129.12c0,.44-.36.8-.8.8s-.8-.36-.8-.8.36-.81.8-.81.8.36.8.81Z"/>
        </g>
      </g>
      <g>
        <path class="cls-24" d="m168.06,66.25c1.35-1.92-.1-3.38-.1-3.38,1.22-1.95-.63-3.26-.63-3.26,1.55-2.03-.23-4.36-.23-4.36.97-2.43-1.4-4.23-1.4-4.23.09-3.57-2.63-6.95-2.63-6.95l-8.66-8.2h-9.16l-8.14,8.2s-2.56,3.38-2.48,6.95c0,0-2.23,1.79-1.32,4.23,0,0-1.67,2.34-.22,4.36,0,0-1.74,1.3-.6,3.26,0,0-1.36,1.47-.1,3.38,0,0-1.54,1.41.22,3.14,0,0-.77,2.31.61,3.09,0,0-.5,2.25,1.76,2.32,0,0,.61,2.38,2.12,1.87,0,0,1.24,1.35,2.78.71,0,0,1.09.96,2.63.32,0,0,1.13.68,2.24-.35,0,0,.43.51,1.3.51s1.24-.5,1.24-.5c0,0,.15.51,1.21.51s1.26-.52,1.26-.52c0,0,.35.5,1.4.5s1.36-.49,1.36-.49c0,0,.25.44,1.18.44s1.26-.53,1.26-.53c1.18,1.03,2.33.42,2.33.42,1.65.64,2.8-.32,2.8-.32,1.64.64,2.96-.71,2.96-.71,1.61.51,2.25-1.87,2.25-1.87,2.4-.06,1.87-2.32,1.87-2.32,1.46-.77.64-3.09.64-3.09,1.87-1.73.23-3.14.23-3.14Z"/>
        <g>
          <path class="cls-29" d="m164.41,126.42h-26.17s-9.23,19.24-9.03,24.25l19.38,10.42c1.63,1.22,3.83,1.22,5.46,0l19.81-10.42c.2-5-9.46-24.25-9.46-24.25Z"/>
          <path class="cls-29" d="m170.39,81.32l-19.05-6.06h0s-.02,0-.02,0h-.02s0,0,0,0l-19.05,6.06c-1.08,6.33,1.03,16.14,1.03,16.14.73,7.79,2.62,14.91,3.83,18.89.73,2.38,1.09,4.87,1.09,7.37v2.71h26.19s.02-2.71.02-2.71c0-2.5.37-4.99,1.09-7.37,1.22-3.98,3.1-11.1,3.83-18.89,0,0,2.11-9.8,1.03-16.14Z"/>
          <path class="cls-29" d="m138.22,125.89c0-7.23,5.86-13.1,13.08-13.1s13.12,5.87,13.12,13.1-5.89,13.09-13.12,13.09-13.08-5.86-13.08-13.1Z"/>
          <g>
            <path class="cls-29" d="m126.12,86.42s-2.15,13.61-4.02,34.9c-.19,2.18,1.4,4.15,3.65,4.5h0c2.55.4,4.52-1.49,4.94-3.95,3.16-18.64,7.5-33.55,7.5-33.55l-12.07-1.91Z"/>
            <circle class="cls-29" cx="132.15" cy="87.37" r="6.11"/>
            <circle class="cls-29" cx="126.34" cy="121.52" r="4.36"/>
            <g>
              <path class="cls-29" d="m122.2,120.13l-2.78,5.31c-.65,1.24-1.23,2.51-1.72,3.82-.81,2.14-1.51,4.33-2.09,6.54l-3.87,14.81,5.55.97s1.46-3.71,3.87-7.98c4.02-7.1,9.93-16.95,9.29-20.67l-8.26-2.8Z"/>
              <circle class="cls-29" cx="114.39" cy="151.85" r="2.92"/>
            </g>
            <g id="Layer_2-4" data-name="Layer 2">
              <g id="Scene1_2-3" data-name="Scene1 2">
                <g id="Hand-3" data-name="Hand">
                  <circle class="cls-29" cx="114.5" cy="151.75" r="2.91"/>
                </g>
              </g>
            </g>
            <g>
              <path class="cls-32" d="m113.13,162.59c1.82.54,4.27-.98,4.35,1.3-1.53.47-3.98.67-6-.1l1.65-1.21Z"/>
              <path class="cls-32" d="m113.98,164.14c2.26.89,5.12-.73,4.98,2.19-2,.43-4.72.36-7.21-.83l2.23-1.36Z"/>
              <path class="cls-28" d="m115.04,165.37c2.18,1.06,5.77-.44,5.42,2.46-2.02.29-5.36.1-7.75-1.27l2.32-1.19Z"/>
              <path class="cls-29" d="m116.74,151.33l-.4,8.86c-1.43,1.6-1.77,3.68-.8,6.36,2.5,1.28,5.15,1.38,4.56,3.32-2.04.17-5.03-.36-7.34-1.86l-2.94-6.89c.11-3.45.78-6.86,1.75-9.7l5.17-.07Z"/>
              <path class="cls-28" d="m112.76,168c-.06.01-.57-1.27-.97-2.88-.4-1.6-.68-2.92-.62-2.93.06-.01.43,1.27.84,2.88.4,1.6.82,2.92.76,2.93Z"/>
              <path class="cls-29" d="m116.2,160.19c1.33,1.18.71,1.7,1.17,3.84.67,3.12,2.82,2.8,3.09,2.01.27-.78-.79-5.46-.79-5.46-.83-3.16-.24-6.51-2.93-9.26-1.54,1.89-.56,5.43-.54,8.86Z"/>
            </g>
          </g>
          <g>
            <path class="cls-29" d="m150.14,211.32s.35,18.83.1,26.55c-.25,7.65-1.51,12.1-1.72,19.75-.14,5.19.35,13.6.35,13.6l-5.95.64s-6.2-22.41-7.22-34.39c-.66-7.71,2.32-26.16,2.32-26.16h12.11Z"/>
            <g>
              <path class="cls-29" d="m150.25,152.53c0-5.85-4.75-10.6-10.6-10.6s-10.6,4.75-10.6,10.6c0,0,0,4.54,0,4.55,0,12.16-.21,22.09,8.29,48.1.34,1.03.58,1.94.75,2.75.03.12-.09,3.27-.06,3.4h12.81c-.09-.97-.56-5.47-.59-7.06-.13-6.55.42-28.66.42-33.99,0-8.28-.42-16.19-.42-17.75Z"/>
              <circle class="cls-29" cx="139.65" cy="152.53" r="10.6"/>
            </g>
            <circle class="cls-29" cx="144.44" cy="211.24" r="6.41"/>
            <circle class="cls-29" cx="145.96" cy="272.04" r="3.07"/>
            <path class="cls-29" d="m151.01,282.7s.57-7.71-1.99-10.67h-5.07c-.62,0-1.03-.17-1.03-.17,0,0-1.66,2.44-1.84,3.03-.23.77-.48,2.06-.71,3.01-.64,2.64-1.31,4.2-1.31,5.31,0,0-.26.69-.42,1.42-.06.29-.15.57-.31.82-.06.09-.1.19-.12.29-.12.59.32,1.11.89,1.11.07,0,.14,0,.21-.03.17-.04.35.01.48.13.18.17.42.28.69.28.14,0,.27-.03.39-.08.23-.1.5-.04.69.12.26.22.6.36.97.36.3,0,.58-.09.81-.24.26-.17.6-.13.83.07.25.22.57.36.93.36s.68-.13.93-.35.63-.25.88-.02c.43.4,1.01.65,1.65.65,1.37,0,2.47-1.14,2.42-2.52,0-.13-.02-.27-.05-.4-.06-.28-.06-.57-.03-.85,0-.05.01-.11.02-.16l.1-1.48Z"/>
          </g>
          <ellipse class="cls-29" cx="142.93" cy="103.02" rx="9.94" ry="8.7" transform="translate(-13.05 184.94) rotate(-63.49)"/>
          <ellipse class="cls-29" cx="159.64" cy="103.02" rx="8.7" ry="9.94" transform="translate(-29.2 82.08) rotate(-26.51)"/>
          <g>
            <path class="cls-29" d="m152.98,211.32s-.35,18.83-.1,26.55c.25,7.65,1.51,12.1,1.72,19.75.14,5.19-.35,13.6-.35,13.6l5.95.64s6.2-22.41,7.22-34.39c.66-7.71-2.32-26.16-2.32-26.16h-12.11Z"/>
            <g>
              <path class="cls-29" d="m152.87,152.53c0-5.85,4.75-10.6,10.6-10.6,5.85,0,10.6,4.75,10.6,10.6,0,0,0,4.54,0,4.55,0,12.16.21,22.09-8.29,48.1-.34,1.03-.58,1.94-.75,2.75-.03.12.09,3.27.06,3.4h-12.81c.09-.97.56-5.47.59-7.06.13-6.55-.42-28.66-.42-33.99,0-8.28.42-16.19.42-17.75Z"/>
              <circle class="cls-29" cx="163.47" cy="152.53" r="10.6"/>
            </g>
            <circle class="cls-29" cx="158.68" cy="211.24" r="6.41"/>
            <circle class="cls-29" cx="157.17" cy="272.04" r="3.07"/>
            <path class="cls-29" d="m152.13,282.7s-.57-7.71,1.99-10.67h5.07c.62,0,1.03-.17,1.03-.17,0,0,1.66,2.44,1.84,3.03.23.77.48,2.06.71,3.01.64,2.64,1.31,4.2,1.31,5.31,0,0,.26.69.42,1.42.06.29.15.57.31.82.06.09.1.19.12.29.12.59-.32,1.11-.89,1.11-.07,0-.14,0-.21-.03-.17-.04-.35.01-.48.13-.18.17-.42.28-.69.28-.14,0-.27-.03-.39-.08-.23-.1-.5-.04-.69.12-.26.22-.6.36-.97.36-.3,0-.58-.09-.81-.24-.26-.17-.6-.13-.83.07-.25.22-.57.36-.93.36s-.68-.13-.93-.35-.63-.25-.88-.02c-.43.4-1.01.65-1.65.65-1.37,0-2.47-1.14-2.42-2.52,0-.13.02-.27.05-.4.06-.28.06-.57.03-.85,0-.05-.01-.11-.02-.16l-.1-1.48Z"/>
          </g>
          <g>
            <path class="cls-29" d="m175.5,86.42s2.15,13.61,4.02,34.9c.19,2.18-1.4,4.15-3.65,4.5h0c-2.55.4-4.52-1.49-4.94-3.95-3.16-18.64-7.5-33.55-7.5-33.55l12.07-1.91Z"/>
            <circle class="cls-29" cx="169.47" cy="87.37" r="6.11"/>
            <circle class="cls-29" cx="175.28" cy="121.52" r="4.36"/>
            <g>
              <path class="cls-29" d="m179.42,120.13l2.78,5.31c.65,1.24,1.23,2.51,1.72,3.82.81,2.14,1.51,4.33,2.09,6.54l3.87,14.81-5.55.97s-1.46-3.71-3.87-7.98c-4.02-7.1-9.93-16.95-9.29-20.67l8.26-2.8Z"/>
              <circle class="cls-29" cx="187.23" cy="151.85" r="2.92"/>
            </g>
            <g id="Layer_2-5" data-name="Layer 2">
              <g id="Scene1_2-4" data-name="Scene1 2">
                <g id="Hand-4" data-name="Hand">
                  <circle class="cls-29" cx="187.12" cy="151.75" r="2.91"/>
                </g>
              </g>
            </g>
            <g>
              <path class="cls-32" d="m188.49,162.59c-1.82.54-4.27-.98-4.35,1.3,1.53.47,3.98.67,6-.1l-1.65-1.21Z"/>
              <path class="cls-32" d="m187.65,164.14c-2.26.89-5.12-.73-4.98,2.19,2,.43,4.72.36,7.21-.83l-2.23-1.36Z"/>
              <path class="cls-28" d="m186.58,165.37c-2.18,1.06-5.77-.44-5.42,2.46,2.02.29,5.36.1,7.75-1.27l-2.32-1.19Z"/>
              <path class="cls-29" d="m184.88,151.33l.4,8.86c1.43,1.6,1.77,3.68.8,6.36-2.5,1.28-5.15,1.38-4.56,3.32,2.04.17,5.03-.36,7.34-1.86l2.94-6.89c-.11-3.45-.78-6.86-1.75-9.7l-5.17-.07Z"/>
              <path class="cls-28" d="m188.86,168c.06.01.57-1.27.97-2.88.4-1.6.68-2.92.62-2.93-.06-.01-.43,1.27-.84,2.88-.4,1.6-.82,2.92-.76,2.93Z"/>
              <path class="cls-29" d="m185.42,160.19c-1.33,1.18-.71,1.7-1.17,3.84-.67,3.12-2.82,2.8-3.09,2.01-.27-.78.79-5.46.79-5.46.83-3.16.24-6.51,2.93-9.26,1.54,1.89.56,5.43.54,8.86Z"/>
            </g>
          </g>
        </g>
        <circle class="cls-29" cx="151.15" cy="80.71" r="7.16"/>
        <path class="cls-18" d="m174.77,133.69c.25.33.59.57.99.49l8.97-1.78c.36-.07.61-.41.55-.78-.35-2.25-2.42-9.59-4.39-13.04h-.04c-2.34-17.47-4.51-29.42-5.15-32.81-.01-.33-.04-.66-.11-.99-.62-3.14-3.39-5.3-6.48-5.27-1.49-.09-5.03-.39-7.67-1.33-.58-.2-1.12-.44-1.59-.71-.84-.49-2.37-.7-2.37-.7-.02.19-.93,12.56-6.45,20.39-5.52-7.83-6.43-20.2-6.45-20.39,0,0-1.53.21-2.36.7-.46.27-1.01.51-1.59.71-2.67.95-6.26,1.25-7.72,1.33-3.11-.07-5.92,2.1-6.54,5.26-.07.33-.1.67-.11.99-.64,3.39-2.82,15.34-5.15,32.82l-.04-.02c-1.98,3.45-4.05,10.79-4.39,13.04-.06.37.19.71.55.78l8.97,1.78c.4.08.74-.16.99-.49,3.67-4.9,3.75-8.52,3.37-10.42.51-2.28,1.69-7.51,1.94-8.54.32-1.35.65-2.66.97-3.93.1-.41.2-.81.3-1.21.12-.47.24-.94.36-1.41,0,.06,0,.13.01.19.06,1,.11,1.97.15,2.9.03.56.06,1.1.08,1.63.06,1.29.11,2.48.15,3.54.03.89.05,1.68.06,2.35.02,1.55-.29,3.83-.77,6.39-.24,1.27-.59,2.64-.83,4.01-9.93,28.65-15.99,77.76-16.31,82.8,5.66,2.39,11.99,4.2,18.77,5.3,2.26.37,8.84,1.32,15.43,1.32s13.17-.96,15.43-1.32c6.78-1.1,13.11-2.92,18.77-5.3-.32-5.04-3.25-36.52-15.97-82.86-.18-1.36-.58-2.69-.82-3.95-.48-2.56-.79-4.84-.77-6.39,0-.67.03-1.46.06-2.35.04-1.05.09-2.25.15-3.54.02-.53.05-1.07.08-1.63.04-.88.09-1.79.14-2.73.09.35.18.69.27,1.05.1.4.21.8.3,1.21.32,1.28.65,2.59.97,3.93.24,1,1.25,6.12,1.72,8.5-.29,1.89-.1,5.53,3.59,10.46Z"/>
        <path class="cls-10" d="m163.76,79.9c-1.52-1.52-2.48-2.57-3.47-3.13-.67-.37-2.12-.33-2.81,0h0s0,0,0,0c0,0,0,.03-.01.07l-1.2,5.76c-1.07,4.5-2.83,10.58-5.25,14.44-2.4-3.84-4.15-9.86-5.23-14.35l-1.23-5.91s0,0,0,0h0s0,0,0,0c-.69-.33-2.14-.37-2.81,0-1,.56-1.95,1.61-3.47,3.13-1.32,1.31-4.31,2.93-4.31,2.93,1.42,1.37,4.03.86,4.79.64.06-.02.11-.04.16-.06-.01.02-.02.03-.02.03l3.48-1.01c.17-.05.35-.09.53-.12,1.25,5.79,3.38,13.25,6.49,16.81v47.39h3.23v-47.39c3.12-3.57,5.24-11.02,6.49-16.82.18.03.36.07.53.12l3.48,1.01s0-.01-.02-.03c.05.02.1.04.16.06.75.22,3.37.74,4.79-.64,0,0-2.99-1.61-4.31-2.93Z"/>
        <path class="cls-12" d="m155.39,75.9s0,0-.01,0c-.02,0,0,0,.01,0Z"/>
        <g>
          <path d="m151.08,283.37c.02-.6.09-2.2.05-3.08-.09-1.88-.21-5.87-.76-6.09-.1.36-1.39,7.03-6.8,6.77-3.73-.17-2.25-5.87-2.46-6.4-.4.48-3.17,8.69-3.42,9.55,0-.02,0-.03,0-.02-.24.92-.43,2.03-.43,3.06,0,.54,2.01,2.21,4.43,2.21,2.84,0,5.63-.73,7.45-1.6,1.2-.57,1.89-.95,1.91-1.38.05-.2.15-1.91.02-2.27,0-.29.01-.56.02-.77Z"/>
          <path class="cls-10" d="m148.44,284.27c.07,0,.14-.01.2-.04.17-.07.22-.22.12-.34-.07-.07-1.69-1.71-5.29-1.79-3.32-.07-4.35,1.15-4.4,1.2-.1.12-.03.27.15.33.18.06.41.02.5-.1.03-.04.87-1.01,3.72-.95,3.2.07,4.62,1.5,4.68,1.56.07.07.19.11.31.11Z"/>
        </g>
        <g>
          <path d="m151.8,283.37c-.02-.6-.09-2.2-.05-3.08.09-1.88.21-5.87.76-6.09.1.36,1.39,7.03,6.8,6.77,3.73-.17,2.25-5.87,2.46-6.4.4.48,3.17,8.69,3.42,9.55,0-.02,0-.03,0-.02.24.92.43,2.03.43,3.06,0,.54-2.01,2.21-4.43,2.21-2.84,0-5.63-.73-7.45-1.6-1.2-.57-1.89-.95-1.91-1.38-.05-.2-.15-1.91-.02-2.27,0-.29-.01-.56-.02-.77Z"/>
          <path class="cls-10" d="m154.44,284.27c-.07,0-.14-.01-.2-.04-.17-.07-.22-.22-.12-.34.07-.07,1.69-1.71,5.29-1.79,3.32-.07,4.35,1.15,4.4,1.2.1.12.03.27-.15.33-.18.06-.41.02-.5-.1-.03-.04-.87-1.01-3.72-.95-3.2.07-4.62,1.5-4.68,1.56-.07.07-.19.11-.31.11Z"/>
        </g>
        <path class="cls-17" d="m163.76,79.9c-1.52-1.52-2.48-2.57-3.47-3.13-.67-.37-2.12-.33-2.81,0h0s0,0,0,0c0,0,0,.03-.01.07l-1.2,5.76c-1.07,4.5-2.83,10.58-5.25,14.44-2.4-3.84-4.15-9.86-5.23-14.35l-1.23-5.91s0,0,0,0h0s0,0,0,0c-.69-.33-2.14-.37-2.81,0-1,.56-1.95,1.61-3.47,3.13-1.32,1.31-4.31,2.93-4.31,2.93,1.42,1.37,4.03.86,4.79.64.06-.02.11-.04.16-.06-.01.02-.02.03-.02.03l3.48-1.01c.17-.05.35-.09.53-.12,1.25,5.79,3.38,13.25,6.49,16.81v47.39h3.23v-47.39c3.12-3.57,5.24-11.02,6.49-16.82.18.03.36.07.53.12l3.48,1.01s0-.01-.02-.03c.05.02.1.04.16.06.75.22,3.37.74,4.79-.64,0,0-2.99-1.61-4.31-2.93Z"/>
        <g>
          <path class="cls-10" d="m151.8,102.15c0,.43-.35.77-.77.77s-.77-.35-.77-.77.35-.77.77-.77.77.35.77.77Z"/>
          <circle class="cls-10" cx="151.03" cy="109.2" r=".77"/>
          <circle class="cls-10" cx="151.03" cy="116.25" r=".77"/>
          <circle class="cls-10" cx="151.03" cy="123.3" r=".77"/>
        </g>
        <polygon class="cls-29" points="156.89 79.59 145.2 78.79 144.8 77.9 144.57 76.78 144.65 75.69 145.13 72.43 145.48 70.03 145.55 69.58 145.65 68.86 146.15 65.48 156.18 65.49 156.74 69.39 156.83 70 156.9 70.5 156.96 70.93 157.03 71.42 157.47 76.78 157.11 78.7 156.89 79.59"/>
        <circle class="cls-29" cx="151.15" cy="65.49" r="5.01"/>
        <path class="cls-28" d="m157.03,71.42l-.8,1.34c-.4.67-.87,1.28-1.38,1.82-1.74,1.83-4.09,2.89-6.57,2.89l-3.71-.69.08-1.08.48-3.27.35-2.39,11.42.46.06.43.07.49Z"/>
        <g>
          <ellipse class="cls-24" cx="150.61" cy="49.08" rx="13.8" ry="14.39"/>
          <g>
            <path class="cls-29" d="m162.98,52.34c0,1.27-.2,2.49-.56,3.63,0,0-1.01,6.31-1.17,7.21,0,.01,0,.03,0,.04-.34,1.83-.84,3.27-1.85,4.97h0c-.33.55-.71,1.13-1.17,1.76-.7.96-1,1.36-1.93,2.32-.83.86-1.87,1.75-3.96,2.14-.37.07-1.27.11-2.05.06-.22,0-.41-.03-.59-.06-2.08-.39-3.13-1.29-3.96-2.14-.93-.96-1.23-1.36-1.93-2.32-1.85-2.56-2.56-4.31-3.02-6.73-.14-.74-1.21-7.25-1.21-7.25h0c-.36-1.15-.56-2.37-.56-3.63,0-6.62,5.37-11.98,11.98-11.98,3.88,0,7.33,1.84,9.51,4.7.27.35.51.71.74,1.08,1.1,1.81,1.73,3.93,1.73,6.21Z"/>
            <path class="cls-29" d="m162.41,55.98s4.3-1.1,3.34,2.86c-1.15,4.75-4.51,4.19-4.51,4.19l1.17-7.05Z"/>
            <path class="cls-24" d="m140.07,54.55c-.11.03-.19-.11-.11-.19.46-.49,1.52-1.47,2.8-1.7,1.25-.23,3.22-.12,4.2-.05.5.04.9.45.9.95,0,0,0,.01,0,.02,0,.4-.25.57-.48.65-.16.06-.34.07-.51.04-.71-.1-3.61-.5-4.14-.37-.46.12-1.97.48-2.67.64Z"/>
            <path class="cls-24" d="m159.23,54.55c.11.03.19-.11.11-.19-.46-.49-1.52-1.47-2.8-1.7-1.25-.23-3.22-.12-4.2-.05-.5.04-.9.45-.9.95,0,0,0,.01,0,.02,0,.4.25.57.48.65.16.06.34.07.51.04.71-.1,3.61-.5,4.14-.37.46.12,1.97.48,2.67.64Z"/>
            <g>
              <ellipse class="cls-24" cx="144.03" cy="57.04" rx="1.13" ry="1.6"/>
              <path class="cls-24" d="m145.15,56.05c-1.31-.02-1.97-.23-3.21-.14.48-1.43,2.75-1.19,3.21.14h0Z"/>
              <ellipse class="cls-24" cx="155.25" cy="57.04" rx="1.13" ry="1.6"/>
              <path class="cls-24" d="m157.33,56.05c-1.31-.02-1.97-.23-3.21-.14.48-1.43,2.75-1.19,3.21.14h0Z"/>
            </g>
            <g>
              <path class="cls-10" d="m146.08,66.06h6.65s-1.26,2.22-3.28,2.22-3.37-2.22-3.37-2.22Z"/>
              <path class="cls-25" d="m149.45,65.44c-1.12-1.17-4.29.62-4.29.62,0,0,2.71.74,4.29.74s4.29-.74,4.29-.74c0,0-3.17-1.79-4.29-.62Z"/>
              <path class="cls-25" d="m153.74,66.06l-1.3.31-1.28.75c-1.06.61-2.36.62-3.42.02l-1.37-.78-1.21-.29c.83,2.09,2.36,3,3.35,3.38.61.23,1.28.23,1.89,0,.99-.38,2.52-1.29,3.35-3.38Z"/>
            </g>
            <path class="cls-1" d="m151.51,61.6s-.13.36-1.65.5c0,0-.03.01-.08.03-.38.12-.85.12-1.22,0-.05-.02-.08-.03-.08-.03-1.52-.14-1.65-.5-1.65-.5"/>
          </g>
          <path class="cls-24" d="m151.52,39.64c.04-.06-4.31.29-4.29.33-2.38-.13-12.84,4.52-7.71,17.86,0,0,.8-5.11,1.07-5.61.27-.5-.84-.44-.84-.44,0,0,.9-1.86,1.53-2.13.64-.27-.38-1.11-.38-1.11,0,0,1.34-1.22,1.82-1.33,0,0,.18-.33.16-.71s-.26-.64-.26-.64c0,0,1.57-.22,1.89-.51,0,0,.45-.25-.43-.67,0,0,.98.36,2.05.07,1.06-.3-.1-1.07-.1-1.07,0,0,1.56.6,1.88.42.19-.11.3-.67.35-1.11.36.5.93,1.11,1.58,1.13.64.02,1.34-.69,1.82-1.29.09.5.25,1.11.45,1.22.36.18,2-.6,2-.6,0,0-1.2.96-.03,1.23s2.2-.2,2.2-.2c-.93.54-.42.8-.42.8.36.31,2.07.47,2.07.47,0,0-.24.32-.24.75,0,.43.22.8.22.8.52.1,2.05,1.41,2.05,1.41,0,0-1.04,1.03-.33,1.29.71.26,1.81,2.34,1.81,2.34,0,0-1.2,0-.87.56.33.56,1.79,4.95,1.79,4.95,4.51-15.27-7.95-18.5-10.85-18.19Z"/>
          <path class="cls-25" d="m136.86,48.72s3.58-9.75,13.63-9.75,13.82,8.91,13.82,8.91c0,0-3.55-6.74-13.72-6.74s-13.72,7.59-13.72,7.59Z"/>
        </g>
      </g>
      <rect class="cls-10" y="156.08" width="273.7" height="158.46"/>
      <g>
        <circle class="cls-29" cx="114.39" cy="151.85" r="2.92"/>
        <g id="Layer_2-6" data-name="Layer 2">
          <g id="Scene1_2-5" data-name="Scene1 2">
            <g id="Hand-5" data-name="Hand">
              <circle class="cls-29" cx="114.5" cy="151.75" r="2.91"/>
            </g>
          </g>
        </g>
        <g>
          <path class="cls-32" d="m113.13,162.59c1.82.54,4.27-.98,4.35,1.3-1.53.47-3.98.67-6-.1l1.65-1.21Z"/>
          <path class="cls-32" d="m113.98,164.14c2.26.89,5.12-.73,4.98,2.19-2,.43-4.72.36-7.21-.83l2.23-1.36Z"/>
          <path class="cls-28" d="m115.04,165.37c2.18,1.06,5.77-.44,5.42,2.46-2.02.29-5.36.1-7.75-1.27l2.32-1.19Z"/>
          <path class="cls-29" d="m116.74,151.33l-.4,8.86c-1.43,1.6-1.77,3.68-.8,6.36,2.5,1.28,5.15,1.38,4.56,3.32-2.04.17-5.03-.36-7.34-1.86l-2.94-6.89c.11-3.45.78-6.86,1.75-9.7l5.17-.07Z"/>
          <path class="cls-28" d="m112.76,168c-.06.01-.57-1.27-.97-2.88-.4-1.6-.68-2.92-.62-2.93.06-.01.43,1.27.84,2.88.4,1.6.82,2.92.76,2.93Z"/>
          <path class="cls-29" d="m116.2,160.19c1.33,1.18.71,1.7,1.17,3.84.67,3.12,2.82,2.8,3.09,2.01.27-.78-.79-5.46-.79-5.46-.83-3.16-.24-6.51-2.93-9.26-1.54,1.89-.56,5.43-.54,8.86Z"/>
        </g>
      </g>
      <g>
        <path class="cls-20" d="m249.2,154.96c0,.06,1.23,4.85,1.23,4.91l7.09-.59s.09-1.17-.2-3.3"/>
        <g id="Layer_2-7" data-name="Layer 2">
          <g id="Scene1_2-6" data-name="Scene1 2">
            <g id="Hand-6" data-name="Hand">
              <circle class="cls-20" cx="253.67" cy="158.53" r="3.46"/>
            </g>
          </g>
        </g>
        <g>
          <path class="cls-14" d="m255.53,172.51c-2.21.66-5.19-1.19-5.3,1.58,1.86.57,4.85.81,7.3-.12l-2-1.47Z"/>
          <path class="cls-14" d="m254.51,174.39c-2.74,1.09-6.22-.89-6.06,2.66,2.43.53,5.75.44,8.77-1.01l-2.71-1.65Z"/>
          <path class="cls-14" d="m253.21,175.89c-2.66,1.29-7.02-.54-6.6,2.99,2.46.35,6.51.12,9.42-1.55l-2.83-1.45Z"/>
          <path class="cls-20" d="m251.15,158.82l.49,10.78c1.73,1.94,2.16,4.48.98,7.73-3.04,1.56-6.27,1.67-5.55,4.04,2.48.21,6.11-.44,8.92-2.27l3.58-8.38c-.14-4.19-.94-8.35-2.13-11.8l-6.29-.09Z"/>
          <path class="cls-20" d="m251.8,169.59c-1.62,1.43-.86,2.06-1.42,4.67-.82,3.8-3.43,3.4-3.76,2.45-.33-.95.96-6.64.96-6.64,1.01-3.84.3-7.92,3.56-11.26,1.87,2.3.68,6.61.66,10.78Z"/>
        </g>
      </g>
    </g>
  </g>
</svg>