<svg xmlns="http://www.w3.org/2000/svg" viewBox="0 0 46.26 9.24"><defs><style>.cls-1{fill:#212b5c;}</style></defs><title>Back</title><g id="Layer_2" data-name="Layer 2"><g id="Content"><path class="cls-1" d="M20.13.55h2.51A5.09,5.09,0,0,1,25.11,1,1.74,1.74,0,0,1,26,2.69a2,2,0,0,1-.4,1.25,1.84,1.84,0,0,1-1.15.63v.06a3.34,3.34,0,0,1,.92.32,1.6,1.6,0,0,1,.65.64,2.11,2.11,0,0,1,.24,1.08,2.15,2.15,0,0,1-.81,1.81,3.48,3.48,0,0,1-2.21.64H20.13Zm1.29,3.58h1.43a2.17,2.17,0,0,0,1.39-.33,1.19,1.19,0,0,0,.38-1,1,1,0,0,0-.47-.91,2.8,2.8,0,0,0-1.44-.29H21.42Zm0,1V8H23a2,2,0,0,0,1.44-.41,1.43,1.43,0,0,0,.42-1.08,1.27,1.27,0,0,0-.43-1,2.32,2.32,0,0,0-1.52-.38Z"/><path class="cls-1" d="M30.36,2.53a2.66,2.66,0,0,1,1.82.54,2.08,2.08,0,0,1,.61,1.67V9.12h-.9l-.25-.9h-.05a2.93,2.93,0,0,1-.88.77,2.7,2.7,0,0,1-1.28.25A2.22,2.22,0,0,1,28,8.77a1.8,1.8,0,0,1-.58-1.49,1.7,1.7,0,0,1,.75-1.5,4.34,4.34,0,0,1,2.29-.56l1.1,0V4.82a1.33,1.33,0,0,0-.32-1,1.35,1.35,0,0,0-.92-.29,3.29,3.29,0,0,0-.94.14,6.2,6.2,0,0,0-.88.35l-.41-.92a5.6,5.6,0,0,1,1.05-.41A5.08,5.08,0,0,1,30.36,2.53ZM31.53,6l-.87,0a2.83,2.83,0,0,0-1.53.37,1.05,1.05,0,0,0-.42.89A.86.86,0,0,0,29,8a1.27,1.27,0,0,0,.78.23A1.86,1.86,0,0,0,31,7.84a1.56,1.56,0,0,0,.5-1.26Z"/><path class="cls-1" d="M37.35,9.24a3,3,0,0,1-2.16-.8,3.36,3.36,0,0,1-.82-2.51A4.1,4.1,0,0,1,34.77,4a2.5,2.5,0,0,1,1.09-1.09,3.38,3.38,0,0,1,1.58-.36,4.76,4.76,0,0,1,1,.11,3.55,3.55,0,0,1,.78.26l-.38,1c-.22-.08-.46-.16-.71-.23a3.12,3.12,0,0,0-.72-.1c-1.17,0-1.75.77-1.75,2.31a2.78,2.78,0,0,0,.43,1.68,1.5,1.5,0,0,0,1.27.57,3.43,3.43,0,0,0,.95-.12,3.54,3.54,0,0,0,.77-.31v1.1a2.42,2.42,0,0,1-.76.3A4,4,0,0,1,37.35,9.24Z"/><path class="cls-1" d="M41.88,0V4.56c0,.16,0,.35,0,.58s0,.42,0,.6h0l.37-.48a5.82,5.82,0,0,1,.41-.48l2-2.13H46.1L43.49,5.42l2.77,3.7h-1.5L42.63,6.23l-.75.62V9.12H40.62V0Z"/><polygon class="cls-1" points="2.62 3.88 4.56 1.62 3.42 0.64 0 4.63 3.42 8.62 4.56 7.64 2.62 5.38 10.49 5.38 10.49 3.88 2.62 3.88"/></g></g></svg>