<?xml version="1.0" encoding="UTF-8"?>
<svg id="Layer_2" data-name="Layer 2" xmlns="http://www.w3.org/2000/svg" viewBox="0 0 168.91 134.26">
  <defs>
    <style>
      .cls-1 {
        stroke-linejoin: round;
      }

      .cls-1, .cls-2, .cls-3, .cls-4, .cls-5, .cls-6 {
        stroke-linecap: round;
      }

      .cls-1, .cls-2, .cls-4, .cls-5, .cls-6 {
        fill: none;
      }

      .cls-1, .cls-4 {
        stroke: #1a1a1a;
      }

      .cls-2 {
        stroke: #6d6c6f;
        stroke-width: .72px;
      }

      .cls-2, .cls-3, .cls-4, .cls-5, .cls-7, .cls-6 {
        stroke-miterlimit: 10;
      }

      .cls-3 {
        stroke-width: 1.04px;
      }

      .cls-3, .cls-8 {
        fill: #d9d9da;
      }

      .cls-3, .cls-6 {
        stroke: #a1a3a5;
      }

      .cls-9 {
        fill: #e9b69b;
      }

      .cls-10, .cls-7 {
        fill: #fff;
      }

      .cls-11 {
        fill: #f1f1f1;
      }

      .cls-12 {
        fill: #b5b5b7;
      }

      .cls-13 {
        fill: #919194;
      }

      .cls-14 {
        fill: #a6a6a9;
      }

      .cls-15 {
        fill: #d0d1d1;
      }

      .cls-16 {
        fill: #1a1a1a;
      }

      .cls-17 {
        fill: #545455;
      }

      .cls-18 {
        fill: #6d6c6f;
      }

      .cls-19 {
        fill: #808083;
      }

      .cls-20 {
        fill: gray;
      }

      .cls-21 {
        fill: #2e2a2b;
      }

      .cls-5 {
        stroke: #909294;
      }

      .cls-7 {
        stroke: #ba0c2f;
        stroke-width: 1.5px;
      }

      .cls-6 {
        stroke-width: 1.14px;
      }
    </style>
  </defs>
  <g id="Content">
    <g>
      <rect class="cls-11" x="0" width="168.91" height="134.26" rx="27.95" ry="27.95"/>
      <g>
        <g>
          <g>
            <path class="cls-12" d="m97.14,31.32c0-7.92-6.53-14.29-14.46-13.94-6.91.31-12.59,5.82-13.15,12.78-.15,1.89.07,3.71.6,5.39h0s1.24,9.47,1.4,10.33c.53,2.82,8.02,9.15,10.28,10.43.93.53,2.07.53,3,0,2.26-1.28,9.75-7.61,10.28-10.43.16-.86,1.4-10.33,1.4-10.33h0c.42-1.33.65-2.75.65-4.23Z"/>
            <path class="cls-17" d="m72.27,33.7c-.13.03-.22-.12-.13-.22.53-.56,1.76-1.7,3.23-1.96s3.72-.14,4.85-.06c.58.04,1.03.52,1.04,1.09,0,0,0,.02,0,.03,0,.46-.29.66-.55.76-.19.07-.39.08-.59.05-.82-.12-4.17-.58-4.77-.42-.53.14-2.27.55-3.08.74Z"/>
            <path class="cls-17" d="m94.38,33.7c.13.03.22-.12.13-.22-.53-.56-1.76-1.7-3.23-1.96s-3.72-.14-4.85-.06c-.58.04-1.03.52-1.04,1.09,0,0,0,.02,0,.03,0,.46.29.66.55.76.19.07.39.08.59.05.82-.12,4.17-.58,4.77-.42.53.14,2.27.55,3.08.74Z"/>
            <g>
              <ellipse class="cls-16" cx="76.87" cy="36.47" rx="1.29" ry="1.84"/>
              <path class="cls-16" d="m78.16,35.34c-1.51-.03-2.26-.27-3.68-.16.55-1.64,3.15-1.36,3.68.16h0Z"/>
              <ellipse class="cls-16" cx="89.75" cy="36.47" rx="1.29" ry="1.84"/>
              <path class="cls-16" d="m92.14,35.34c-1.5-.03-2.26-.27-3.68-.16.55-1.64,3.15-1.36,3.68.16h0Z"/>
            </g>
            <path class="cls-12" d="m96.49,35.34s4.96-1.27,3.86,3.3c-1.33,5.48-5.2,4.84-5.2,4.84l1.35-8.14Z"/>
            <path class="cls-12" d="m70.55,35.47s-5.33-1.41-4.22,3.17c1.33,5.48,5.12,4.86,5.12,4.86l-.9-8.03Z"/>
            <path class="cls-21" d="m71.21,34.09v1.39l.03.04.1.08.29.29c.19.16.3.84.3.84l.31,1.42c.21.79.4,1.02.4,1.02.22.36.77.47.77.47,1.53.45,3.78.4,3.78.4,1.83,0,3.16-.31,3.16-.31.55-.13.81-.62.81-.62.07-.11.48-.88.48-.88.31-.65.74-1.95.74-1.95.07-.19.2-.35.2-.35.14-.21.78-.19.78-.19,0,0,.64-.02.78.19,0,0,.13.15.2.35,0,0,.43,1.3.74,1.95,0,0,.41.77.48.88,0,0,.26.49.81.62,0,0,1.33.32,3.16.31,0,0,2.25.05,3.78-.4,0,0,.55-.1.77-.47,0,0,.19-.22.4-1.02l.31-1.42s.12-.68.3-.84l.29-.29.1-.08.03-.04v-1.39s0-.13-.3-.17l-2.94-.19s-2.6-.06-3.91.05c0,0-2.21.22-2.78.29,0,0-.77.13-1.22.12l-.98.02-.98-.02c-.45,0-1.22-.12-1.22-.12-.57-.07-2.78-.29-2.78-.29-1.31-.12-3.91-.05-3.91-.05l-2.95.19c-.31.03-.3.17-.3.17Zm13.92.87s.15-.29.92-.44c0,0,4.14-.88,7.7-.09,0,0,.39.05.56.35,0,0,.09.11.09.36,0,0-.04,1.63-.15,2.21,0,0-.2,1.14-.38,1.45,0,0-.12.28-.24.37,0,0-.16.15-.7.27,0,0-.86.24-1.78.28,0,0-2.59.22-4.45-.22,0,0-.5-.17-.65-.36,0,0-.27-.31-.47-.84,0,0-.56-1.57-.65-2.29,0,0-.12-.71.2-1.04Zm-12.83.17c0-.25.09-.36.09-.36.16-.3.56-.35.56-.35,3.57-.79,7.71.09,7.71.09.77.15.92.44.92.44.31.33.2,1.04.2,1.04-.08.72-.65,2.29-.65,2.29-.2.53-.47.84-.47.84-.15.19-.65.36-.65.36-1.86.44-4.45.22-4.45.22-.92-.05-1.78-.28-1.78-.28-.53-.12-.7-.27-.7-.27-.12-.09-.24-.37-.24-.37-.17-.31-.38-1.45-.38-1.45-.12-.58-.16-2.21-.16-2.21Z"/>
          </g>
          <path class="cls-16" d="m95.5,42.95c-.14,1.74-1.06,3.3-1.97,4.79-.66,1.09-1.37,2.23-2.48,2.85-.89.5-3.75,1.5-5.15.49-1.44-1.04-1.5-2.52-1.5-2.52h-2.11s-.06,1.48-1.5,2.52c-1.4,1.01-4.25.02-5.15-.49-1.11-.62-1.82-1.76-2.48-2.85-.9-1.49-1.83-3.06-1.97-4.79-.59,3.71-.73,9.36.31,11.21l.15-.54c.19,1.24.79,2.41,1.68,3.29,0-.21,0-.41,0-.62.68,1.2,1.24,2.39,2.51,3.27-.01-.26-.03-.52-.04-.78.61,1.02,1.39,1.77,2.53,2.55,0-.13,0-.25,0-.38.44.61,1,1.28,1.85,1.77.05-.16-.04-.3.02-.46.71.91,3.14,1.96,3.14,1.96,0,0,2.43-1.05,3.14-1.96.05.16-.04.3.02.46.85-.49,1.41-1.16,1.85-1.77,0,.13,0,.25,0,.38,1.14-.78,1.93-1.53,2.53-2.55-.01.26-.03.52-.04.78,1.27-.88,1.83-2.07,2.51-3.27,0,.21,0,.41,0,.62.9-.88,1.5-2.05,1.68-3.29l.15.54c1.04-1.85.9-7.5.31-11.21Z"/>
          <path class="cls-10" d="m78.75,46.4s1.33,1.76,3.47,2.23c.74.16,1.5.16,2.24,0,2.13-.47,3.49-2.27,3.49-2.27-.06.02,0,0-.06.01,0,0-2.67.06-4.57.06-1.87,0-4.6-.04-4.57-.03s.03,0,0,0Z"/>
          <path class="cls-16" d="m92.14,43.73c-.71.36-1.56.34-2.34.14-.78-.19-1.5-.53-2.26-.78-.76-.25-1.58-.41-2.35-.23-.51.12-.97.38-1.41.66-.17.11-.34.23-.46.38-.13-.15-.3-.27-.46-.38-.44-.28-.9-.54-1.41-.66-.78-.19-1.6-.03-2.35.23-.76.25-1.49.59-2.26.78-.78.19-1.63.22-2.34-.14.26.71,1.05,1.19,1.81,1.09-.22.12-.47.18-.72.17.56.41,1.28.59,1.97.48-.14.17-.34.28-.55.33.64.28,1.42.23,2.02-.14-.02.18-.18.34-.35.37,1.4.21,2.86-.04,4.11-.71.21-.11.42-.26.57-.44.15.18.36.33.57.44,1.25.67,2.71.92,4.11.71-.18-.03-.33-.19-.35-.37.6.37,1.37.42,2.02.14-.21-.05-.41-.17-.55-.33.68.11,1.41-.07,1.97-.48-.25,0-.5-.05-.72-.17.75.1,1.55-.38,1.81-1.09Z"/>
          <path class="cls-6" d="m85.53,42.28s-1.54,1.48-2.22,1.48-2.26-1.48-2.26-1.48"/>
          <line class="cls-6" x1="82.5" y1="36.89" x2="81.97" y2="41.34"/>
        </g>
        <g>
          <path class="cls-16" d="m29.03,51.78c1.41.09,2.86.09,4.26-.09.47-.06.98-.1,1.42-.3.11-.05,1.22-.86,1.07-.96.4.26,1.03.46,1.5.28.49-.18.65-.73,1.19-.84.44-.09.82.07,1.29-.07.62-.19,1.13-.46,1.8-.48.73-.02,1.58.12,2.08-.41.52-.55.43-1.65,1.16-1.88.34-.11.74.05,1.07-.1.78-.36.12-1.72.7-2.36.22-.25.58-.32.83-.55.71-.64.04-1.86.36-2.77.19-.55.73-.91.95-1.45.48-1.19-.78-2.59-.23-3.75.16-.34.45-.59.67-.9.41-.58.5-1.37.24-2.03-.29-.74-.97-1.31-1.09-2.09-.06-.42.05-.85.07-1.27.06-1.08-.52-2.17-1.45-2.74-.73-.45-1.74-.68-2-1.5-.06-.19-.07-.38-.12-.57-.21-.81-1.07-1.25-1.83-1.6-.41-.19-.83-.38-1.17-.69-.23-.21-.42-.48-.64-.7-.97-.99-2.67-1.15-3.81-.37-.4-.59-.67-1.24-1.15-1.78-.47-.52-.97-1.02-1.58-1.38-.89-.53-2.04-.73-2.95-.24-.27.15-.51.35-.8.45-1.22.44-2.61-.98-3.76-.38-.25.13-.45.35-.68.5-.66.44-1.52.4-2.31.45-.79.05-1.7.31-2,1.05-.14.33-.12.71-.25,1.05-.51,1.31-2.75,1.21-3.2,2.54-.16.48-.02,1.02-.18,1.5-.39,1.17-2.28,1.38-2.48,2.59-.1.6.3,1.22.12,1.8-.24.8-1.37.99-1.75,1.74-.45.9.45,1.93.39,2.94-.06,1.05-1.13,1.87-1.06,2.91.07,1.12,1.4,1.78,1.66,2.88.14.59-.06,1.21-.15,1.81-.09.6-.03,1.31.46,1.67.26.19.59.24.88.36.59.24,1.06.76,1.23,1.37.11.38.11.79.32,1.13.55.87,1.91.48,2.86.88.61.26.99.85,1.46,1.28.55.51,1.04,1.07,1.58,1.59.68.65,1.32.77,2.18.97.95.21,1.85.43,2.84.49Z"/>
          <g>
            <path class="cls-19" d="m44.87,39.61c0,.6-.04,1.18-.12,1.75-.02.14-.04.29-.06.44-.05.29-.1.57-.17.86-.03.15-.07.3-.11.44-.05.2-.1.39-.17.59,0,0-1.2,9.12-1.35,9.95-.51,2.72-5.16,8.91-9.9,10.05-1,.24-1.91.31-2.89,0-4.18-1.31-9.39-7.33-9.9-10.05-.15-.83-1.35-9.95-1.35-9.95h0c-.05-.16-.1-.32-.14-.48-.04-.14-.08-.29-.11-.43-.08-.32-.14-.65-.2-.98-.02-.14-.04-.29-.06-.44-.12-.92-.15-1.88-.07-2.85.54-6.71,6.01-12.01,12.67-12.31,7.63-.34,13.92,5.8,13.92,13.43Z"/>
            <path class="cls-16" d="m20.9,41.1c-.11.03-.18-.12-.11-.21.44-.54,1.47-1.63,2.71-1.89s3.12-.14,4.07-.06c.48.04.87.5.87,1.05,0,0,0,.02,0,.02,0,.44-.24.64-.46.73-.16.06-.33.07-.49.05-.69-.11-3.5-.56-4.01-.41-.44.13-1.91.53-2.58.72Z"/>
            <path class="cls-16" d="m41.46,41.1c.11.03.18-.12.11-.21-.44-.54-1.47-1.63-2.71-1.89s-3.12-.14-4.07-.06c-.48.04-.87.5-.87,1.05,0,0,0,.02,0,.02,0,.44.24.64.46.73.16.06.33.07.49.05.69-.11,3.5-.56,4.01-.41.44.13,1.91.53,2.58.72Z"/>
            <g>
              <ellipse class="cls-16" cx="25.35" cy="44.58" rx="1.25" ry="1.77"/>
              <path class="cls-16" d="m26.6,43.48c-1.31-.14-1.78-.18-3-.16.33-1.52,2.81-1.36,3,.16h0Z"/>
              <ellipse class="cls-16" cx="37.76" cy="44.58" rx="1.25" ry="1.77"/>
              <path class="cls-16" d="m36.51,43.48c.19-1.51,2.66-1.68,3-.16-1.22-.02-1.69.01-3,.16h0Z"/>
            </g>
            <path class="cls-10" d="m27.13,53.78s1.31,1.74,3.41,2.2c.73.16,1.48.16,2.21,0,2.1-.47,3.44-2.24,3.44-2.24-.06.02,0,0-.06.01,0,0-2.63.06-4.5.05-1.84,0-4.53-.04-4.5-.03s.03,0,0,0Z"/>
            <path class="cls-19" d="m44.25,43.48s4.78-1.22,3.71,3.18c-1.28,5.28-5.01,4.66-5.01,4.66l1.3-7.84Z"/>
            <path class="cls-19" d="m19.26,43.61s-5.13-1.35-4.07,3.05c1.28,5.28,4.93,4.68,4.93,4.68l-.87-7.73Z"/>
            <path class="cls-4" d="m33.69,50.17s-1.48,1.43-2.13,1.43-2.17-1.43-2.17-1.43"/>
          </g>
          <path class="cls-16" d="m21.03,33.68c-.72.41-1.5.28-1.49-.79,0-1.31,1.05-3.15,1.97-3.98,1.55-1.41,3.5-2.19,5.5-2.55,2.8-.47,6.29-.69,9.08-.06,2.17.49,4.21,1.77,5.85,3.36.49.48,1.56,1.24,1.83,1.85.35.82-.47,1.9-1.32,1.9-1.03,0-2.04-1.1-2.95-.6-.18.1-.33.26-.51.37-1.2.74-2.72-1.12-4.03-.6-.44.17-.76.59-1.23.68-.72.14-1.34-.58-2.07-.67-.78-.1-1.48.53-2.27.58-1.24.07-2.42-1.31-3.55-.8-.48.22-.8.73-1.31.86-.4.1-.81-.07-1.22-.15-.98-.2-1.51.16-2.27.59,0,0,0,0-.01,0Z"/>
          <path class="cls-1" d="m23.7,21.26c1-1.08,2.12-2.03,3.34-2.85.55-.37,1.2-.72,1.88-.56.19.05.36.13.53.21.18.09.35.17.52.19.32.05.65-.09.99-.23.11-.05.22-.09.33-.13,1.19-.43,2.62-.15,3.56.7.05.05.1.1.15.15.17.16.32.31.51.39.27.11.59.07.92.03.09-.01.19-.02.28-.03,1.45-.14,2.96.65,3.67,1.92.29.51.45,1.09.61,1.65.23.8.45,1.56,1,2.11.67.67,1.55.92,2.41,1.09.34.07.74.15,1.08.34,1.05.58,1.29,1.93,1.34,2.68.02.27.02.55.03.82.01.72.02,1.4.26,2.04.06.15.13.3.2.45.13.29.27.58.33.91"/>
          <path class="cls-1" d="m17.37,26.89c.57-.76.69-1.67.74-2.54.02-.35.04-.75.18-1.12.42-1.12,1.72-1.55,2.46-1.71.27-.06.54-.1.8-.14.71-.11,1.38-.22,1.98-.55.14-.08.28-.17.42-.26.26-.17.54-.35.85-.45"/>
          <path class="cls-16" d="m19.68,33.54s.55,2.23.23,3.41c-.32,1.19-1.38,4.19-.37,4.97,1.01.78.27,3.06-.1,3.2,0,0,.11-.73-.57-1.43l-.62-.88s-1.31-7.71,1.44-9.27Z"/>
          <path class="cls-16" d="m43.22,33.11s-1.36.92-.86,3.35,1.31,3.01,1.07,4.3c-.25,1.29-.6,2.63.25,3.64,0,0,.1-.43.58-.91s2.24-7.68-1.03-10.37Z"/>
        </g>
        <g>
          <path class="cls-16" d="m155.14,51.75c1.31-1.87-.1-3.3-.1-3.3,1.18-1.9-.62-3.18-.62-3.18,1.51-1.98-.23-4.25-.23-4.25.94-2.37-1.37-4.12-1.37-4.12.09-3.48-2.57-6.77-2.57-6.77l-8.44-8h-8.93l-7.93,8s-2.49,3.29-2.41,6.77c0,0-2.17,1.75-1.29,4.12,0,0-1.63,2.28-.21,4.25,0,0-1.69,1.27-.58,3.18,0,0-1.33,1.43-.09,3.3,0,0-1.5,1.37.21,3.06,0,0-.75,2.25.59,3.01,0,0-.48,2.2,1.72,2.26,0,0,.59,2.32,2.06,1.82,0,0,1.21,1.32,2.71.69,0,0,1.06.94,2.57.31,0,0,1.1.67,2.18-.34,0,0,.42.5,1.27.5s1.21-.48,1.21-.48c0,0,.14.5,1.18.5s1.23-.5,1.23-.5c0,0,.34.49,1.36.49s1.32-.48,1.32-.48c0,0,.25.42,1.15.42s1.23-.52,1.23-.52c1.15,1.01,2.27.41,2.27.41,1.6.63,2.73-.31,2.73-.31,1.6.63,2.88-.69,2.88-.69,1.57.5,2.2-1.82,2.2-1.82,2.34-.06,1.83-2.26,1.83-2.26,1.43-.75.63-3.01.63-3.01,1.83-1.69.23-3.06.23-3.06Z"/>
          <ellipse class="cls-16" cx="137.46" cy="33.6" rx="13.46" ry="14.03"/>
          <g>
            <path class="cls-13" d="m149.47,36.78c0,1.24-.19,2.43-.55,3.54,0,0-.98,6.15-1.14,7.03,0,.01,0,.03,0,.04-.34,1.78-.82,3.19-1.81,4.85h0c-.32.54-.7,1.1-1.14,1.72-.68.94-.98,1.32-1.88,2.26-.81.83-1.83,1.71-3.86,2.09-.36.07-1.24.11-2,.06-.21,0-.4-.03-.58-.06-2.03-.38-3.05-1.25-3.86-2.09-.9-.94-1.2-1.32-1.88-2.26-1.8-2.5-2.5-4.2-2.94-6.56-.14-.72-1.18-7.07-1.18-7.07h0c-.35-1.12-.55-2.31-.55-3.54,0-6.45,5.23-11.68,11.68-11.68,3.78,0,7.14,1.8,9.28,4.58.26.34.5.69.72,1.05,1.07,1.76,1.69,3.83,1.69,6.05Z"/>
            <path class="cls-13" d="m148.92,40.32s4.19-1.07,3.26,2.79c-1.12,4.63-4.4,4.09-4.4,4.09l1.14-6.88Z"/>
            <path class="cls-16" d="m128.45,38.93c-.11.03-.18-.11-.11-.19.45-.47,1.48-1.43,2.73-1.66s3.14-.12,4.1-.05c.49.04.87.44.88.92,0,0,0,.01,0,.02,0,.39-.25.56-.47.64-.16.06-.33.07-.5.04-.69-.1-3.52-.49-4.03-.36-.44.12-1.92.47-2.6.63Z"/>
            <path class="cls-16" d="m147.13,38.93c.11.03.18-.11.11-.19-.45-.47-1.48-1.43-2.73-1.66s-3.14-.12-4.1-.05c-.49.04-.87.44-.88.92,0,0,0,.01,0,.02,0,.39.25.56.47.64.16.06.33.07.5.04.69-.1,3.52-.49,4.03-.36.44.12,1.92.47,2.6.63Z"/>
            <path class="cls-13" d="m126.64,40.32s-4.15-1.07-3.22,2.79c1.12,4.63,4.4,4.09,4.4,4.09l-1.18-6.88Z"/>
            <g>
              <ellipse class="cls-16" cx="132.31" cy="41.36" rx="1.1" ry="1.56"/>
              <path class="cls-16" d="m133.41,40.39c-1.29,0-1.91-.21-3.13-.14.45-1.41,2.69-1.18,3.13.14h0Z"/>
              <ellipse class="cls-16" cx="143.25" cy="41.36" rx="1.1" ry="1.56"/>
              <path class="cls-16" d="m145.28,40.39c-1.29,0-1.91-.21-3.13-.14.45-1.41,2.69-1.18,3.13.14h0Z"/>
            </g>
            <g>
              <path class="cls-10" d="m134.41,50.33h6.48s-1.22,2.16-3.2,2.16-3.29-2.16-3.29-2.16Z"/>
              <path class="cls-18" d="m137.69,49.72c-1.09-1.14-4.19.61-4.19.61,0,0,2.64.72,4.19.72s4.19-.72,4.19-.72c0,0-3.09-1.74-4.19-.61Z"/>
              <path class="cls-18" d="m141.88,50.33l-1.27.3-1.25.73c-1.03.6-2.3.61-3.34.02l-1.34-.76-1.18-.29c.81,2.04,2.3,2.92,3.27,3.29.59.23,1.25.23,1.84,0,.97-.37,2.45-1.25,3.26-3.29Z"/>
            </g>
            <path class="cls-2" d="m139.93,46.1s-.13.35-1.6.49c0,0-.03.01-.08.03-.37.12-.83.12-1.19,0-.05-.02-.08-.03-.08-.03-1.48-.14-1.6-.49-1.6-.49"/>
          </g>
          <path class="cls-16" d="m138.34,24.39c.03-.05-4.2.28-4.18.32-2.32-.13-12.52,4.41-7.51,17.41,0,0,.78-4.98,1.05-5.47.27-.49-.81-.43-.81-.43,0,0,.87-1.82,1.5-2.08.62-.26-.37-1.08-.37-1.08,0,0,1.3-1.19,1.77-1.3,0,0,.18-.32.16-.69s-.25-.63-.25-.63c0,0,1.53-.22,1.84-.5,0,0,.44-.24-.42-.66,0,0,.96.35,1.99.06,1.04-.29-.1-1.04-.1-1.04,0,0,1.52.58,1.83.41.18-.1.29-.65.34-1.08.35.49.91,1.08,1.54,1.1.62.02,1.31-.67,1.78-1.26.09.48.24,1.08.44,1.19.35.18,1.95-.58,1.95-.58,0,0-1.17.93-.03,1.2s2.15-.2,2.15-.2c-.91.53-.41.78-.41.78.35.3,2.02.45,2.02.45,0,0-.23.31-.23.73,0,.42.22.78.22.78.51.09,2,1.37,2,1.37,0,0-1.01,1-.32,1.26.69.26,1.76,2.28,1.76,2.28,0,0-1.17,0-.85.55.32.54,1.75,4.82,1.75,4.82,4.4-14.88-7.75-18.03-10.58-17.73Z"/>
          <path class="cls-18" d="m124.05,33.25s3.49-9.51,13.29-9.51,13.47,8.68,13.47,8.68c0,0-3.46-6.57-13.38-6.57s-13.38,7.4-13.38,7.4Z"/>
        </g>
        <g>
          <g>
            <polygon class="cls-20" points="63.05 121.3 46.98 121.3 44.4 103.02 63.05 103.02 63.05 121.3"/>
            <path class="cls-16" d="m46.98,98.25v23.04s-3.82-.14-7.9-.02c-.18,0-.37.01-.55.02-4.28.15-7.84-6.21-4.2-12.12,3.64-5.91,4.2-10.93,4.2-10.93h8.45Z"/>
            <path class="cls-16" d="m46.98,102.36v18.94s-3.82-.14-7.9-.02c-3.27-5.31,1.47-19.59,1.47-19.59l6.43.67Z"/>
            <path class="cls-8" d="m63.78,91.99c0,1.23-.19,2.42-.55,3.54,0,0-.98,6.15-1.14,7.03,0,.01,0,.03,0,.04-.34,1.78-.81,3.19-1.81,4.84h0c-.32.54-.7,1.1-1.14,1.71-.68.94-.98,1.32-1.88,2.26-.81.83-1.83,1.71-3.86,2.09-.36.07-1.24.11-2,.06-.21,0-.4-.03-.58-.06-2.03-.38-3.05-1.25-3.86-2.09-.9-.94-1.2-1.32-1.88-2.26-1.8-2.49-2.5-4.2-2.94-6.56-.14-.72-1.18-7.06-1.18-7.06h0c-.35-1.12-.55-2.31-.55-3.54,0-6.45,5.23-11.68,11.68-11.68,3.78,0,7.14,1.79,9.27,4.58.26.34.5.69.72,1.05,1.07,1.76,1.69,3.83,1.69,6.05Z"/>
            <path class="cls-16" d="m33.76,111.49c-.13,0-.24-.09-.26-.23-1.04-7.41,4.54-11.64,4.6-11.68.12-.09.28-.06.37.05.09.12.06.28-.05.37-.05.04-5.39,4.09-4.39,11.19.02.14-.08.27-.22.3-.01,0-.02,0-.04,0Z"/>
            <path class="cls-8" d="m63.24,95.53s4.19-1.07,3.26,2.79c-1.12,4.63-4.39,4.08-4.39,4.08l1.14-6.87Z"/>
            <path class="cls-17" d="m42.78,94.14c-.11.03-.18-.11-.11-.19.45-.47,1.48-1.43,2.73-1.66,1.22-.22,3.14-.12,4.09-.05.49.04.87.44.88.92,0,0,0,.01,0,.02,0,.39-.25.56-.47.64-.16.06-.33.07-.5.04-.69-.1-3.52-.49-4.03-.36-.44.12-1.92.47-2.6.63Z"/>
            <path class="cls-17" d="m61.45,94.14c.11.03.18-.11.11-.19-.45-.47-1.48-1.43-2.73-1.66s-3.14-.12-4.09-.05c-.49.04-.87.44-.88.92,0,0,0,.01,0,.02,0,.39.25.56.47.64.16.06.33.07.5.04.69-.1,3.52-.49,4.03-.36.44.12,1.92.47,2.6.63Z"/>
            <path class="cls-13" d="m50.44,105.6l-2.69-.24c.61,1.08,1.69,1.76,2.61,2.16,1.05.46,2.26.46,3.31,0,.92-.41,2.01-1.09,2.61-2.16l-2.69.24c-1.05.09-2.11.09-3.16,0Z"/>
            <path class="cls-19" d="m52.02,105.1c-2.23,0-4.27.27-4.27.27,1.97,1.13,4.27,1.03,4.27,1.03,0,0,2.3.1,4.27-1.03,0,0-2.04-.27-4.27-.27Z"/>
            <path class="cls-3" d="m53.78,101.83c0,.37-.85.67-1.89.67s-1.89-.3-1.89-.67"/>
            <path class="cls-16" d="m46.59,84.57s-5.16,3.38-5.62,10.96l-2.41.09s.61,0,0-6.96c-.61-6.97,6.36-9.61,6.36-9.61l1.67,5.52Z"/>
            <path class="cls-8" d="m40.97,95.53s-4.15-1.07-3.21,2.79c1.12,4.63,4.39,4.08,4.39,4.08l-1.18-6.87Z"/>
            <path class="cls-16" d="m46.59,84.57s-5.16,3.38-5.62,10.96c-2.28-10.6,5.62-10.96,5.62-10.96Z"/>
            <path class="cls-16" d="m59.85,90.58c-3.81-10.12-12.99-6.12-13.25-6.01.16-.13,4.36-3.53,7.97-1.81,3.68,1.75,5.28,5.35,5.28,7.82Z"/>
            <path class="cls-16" d="m77.51,114.24s-.05,0-.08-.01c-.14-.04-.22-.19-.17-.33,0-.01.39-1.32,0-3.28-.36-1.81-1.47-4.57-4.74-7.41-6.46-5.61-8.69-17.02-8.71-17.13-.03-.14.07-.28.21-.31.14-.03.28.07.31.21.02.11,2.21,11.34,8.54,16.83,6.52,5.66,4.96,11.01,4.9,11.24-.03.11-.14.18-.25.18Z"/>
            <g>
              <ellipse class="cls-16" cx="46.64" cy="96.57" rx="1.1" ry="1.56"/>
              <path class="cls-16" d="m47.74,95.6c-1.29,0-1.91-.21-3.13-.14.45-1.41,2.69-1.18,3.13.14h0Z"/>
              <ellipse class="cls-16" cx="57.57" cy="96.57" rx="1.1" ry="1.56"/>
              <path class="cls-16" d="m59.6,95.6c-1.29,0-1.91-.21-3.13-.14.45-1.41,2.69-1.18,3.13.14h0Z"/>
            </g>
          </g>
          <path class="cls-16" d="m68.99,121.34l-12.8-.07s7.52-12.48,4.64-27.17c-.26-1.34-.59-2.51-.98-3.53h0c-3.81-10.12-12.99-6.13-13.25-6.01,0,0,0,0,0,0l-1.67-5.52s7.87-8.18,17.42.71c0,0,3.79,3.59,4.54,11.77.5,5.41,4.2,11.31,8.45,18.03,3.04,4.81-.66,11.78-6.35,11.78Z"/>
        </g>
        <g>
          <circle class="cls-7" cx="116.46" cy="97.63" r="30.22"/>
          <g>
            <g>
              <circle class="cls-9" cx="116.06" cy="110.35" r="6.07"/>
              <path class="cls-15" d="m130.05,93.61c0,.62-.04,1.22-.12,1.82-.02.15-.04.3-.06.45-.05.3-.11.6-.18.89-.04.15-.07.31-.11.46-.05.2-.11.41-.17.61,0,0-1.24,11.65-1.4,12.51-.53,2.83-8.02,8.14-10.29,9.42-.93.53-2.07.53-3,0-2.27-1.28-9.76-6.59-10.29-9.42-.16-.86-1.4-12.51-1.4-12.51h0c-.05-.16-.1-.33-.15-.5-.05-.15-.08-.3-.12-.45-.08-.34-.15-.68-.2-1.02-.02-.15-.05-.3-.06-.45-.13-.96-.15-1.95-.07-2.97.56-6.97,6.25-12.48,13.17-12.79,7.93-.35,14.47,6.03,14.47,13.95Z"/>
              <path class="cls-14" d="m105.14,95.16c-.11.03-.19-.12-.11-.22.46-.56,1.53-1.7,2.82-1.97s3.25-.14,4.23-.06c.5.04.9.52.91,1.09,0,0,0,.02,0,.03,0,.46-.25.66-.48.76-.16.07-.34.08-.51.05-.71-.12-3.64-.58-4.17-.42-.46.14-1.99.55-2.68.74Z"/>
              <path class="cls-14" d="m126.51,95.16c.11.03.19-.12.11-.22-.46-.56-1.53-1.7-2.82-1.97-1.26-.26-3.25-.14-4.23-.06-.5.04-.9.52-.91,1.09,0,0,0,.02,0,.03,0,.46.25.66.48.76.16.07.34.08.51.05.71-.12,3.64-.58,4.17-.42.46.14,1.99.55,2.68.74Z"/>
              <g>
                <ellipse class="cls-16" cx="109.76" cy="98.77" rx="1.3" ry="1.84"/>
                <path class="cls-16" d="m111.06,97.63c-1.34-.18-1.86-.21-3.12-.16.37-1.55,2.9-1.38,3.12.16h0Z"/>
                <ellipse class="cls-16" cx="122.66" cy="98.77" rx="1.3" ry="1.84"/>
                <path class="cls-16" d="m121.36,97.63c.22-1.54,2.75-1.72,3.12-.16-1.25-.05-1.77-.01-3.12.16h0Z"/>
              </g>
              <path class="cls-10" d="m111.61,109.16s1.37,1.8,3.55,2.29c.76.17,1.54.17,2.29,0,2.18-.48,3.57-2.33,3.57-2.33-.06.02,0,0-.06.01,0,0-2.73.06-4.68.06s-4.71-.04-4.67-.03.03,0,0,0Z"/>
              <line class="cls-5" x1="115.88" y1="95.16" x2="114.87" y2="103.64"/>
              <path class="cls-15" d="m129.38,97.1s5.63-1.44,4.37,3.75c-1.51,6.22-5.9,5.49-5.9,5.49l1.53-9.24Z"/>
              <path class="cls-15" d="m103.22,97.25s-6.05-1.6-4.79,3.59c1.51,6.22,5.81,5.51,5.81,5.51l-1.02-9.11Z"/>
            </g>
            <path class="cls-16" d="m127.58,97.67c-.26.27-.75.16-.82-.21,0,0,0,0,0,0-.36-2.06-2.15-3.62-4.31-3.62s-4.12,1.71-4.35,3.9c-.01.1-.08.17-.18.19-.05,0-.1-.04-.13-.08-.33-.5-.94-.84-1.65-.84s-1.31.33-1.64.82c-.03.05-.09.08-.14.09-.09-.02-.17-.09-.18-.19-.23-2.19-2.09-3.9-4.35-3.9s-3.95,1.56-4.31,3.62c0,0,0,0,0,0-.07.37-.56.48-.82.2-.34-.37-.93-1.2-.95-1.21v.67l.95,1.32c.1.13.25.21.42.21h0c.2,0,.38.14.41.33.37,2.04,2.16,3.59,4.3,3.59s3.98-1.58,4.32-3.66c.02-.15.16-.26.31-.26h.24c.13,0,.25-.09.28-.22.11-.47.59-.82,1.17-.82s1.05.35,1.17.82h0c.03.13.15.22.28.22h.24c.15,0,.28.11.31.26.34,2.08,2.14,3.66,4.32,3.66s3.93-1.55,4.3-3.59c.04-.2.21-.33.41-.33h0c.19,0,.36-.09.47-.24l.93-1.3v-.47s-.63.65-.98,1.02Zm-17.75,4.22c-2.03,0-3.68-1.65-3.68-3.68s1.65-3.68,3.68-3.68,3.68,1.65,3.68,3.68-1.65,3.68-3.68,3.68Zm12.62,0c-2.03,0-3.68-1.65-3.68-3.68s1.65-3.68,3.68-3.68,3.68,1.65,3.68,3.68-1.65,3.68-3.68,3.68Z"/>
            <path class="cls-5" d="m109.21,89.17s6.14,2.67,13.36,0"/>
            <path class="cls-5" d="m111.59,87.82s4.11,1.79,8.93,0"/>
            <path class="cls-20" d="m130.84,84.1c-.31-1.1-1.37-1.81-2.07-2.17-.39-.19-.67-.29-.67-.29,0-.29-.07-.58-.2-.85-.98-2.1-5.34-3.6-5.34-3.6-8.51-3.15-16.33,1.98-17.29,2.88-.83.76-2.77,1.68-3.3,1.92-.09.04-.14.06-.14.06.39,1.3.9,1.78.9,1.78,0,0,0,.02-.01.03-2.24,4.32.26,13.12.26,13.12,2.17,2.1,1.54-7.26,2.02-9.52.16-.76.38-1.33.6-1.76.44-.85.88-1.12.88-1.12,6.64,3.3,15.17.54,18.04.61.22,0,.41.03.57.07,2.09.62,2.56,8.56,2.63,10.47.01.39.06.72.14,1.01.2.77,1.22.91,1.62.23l.08-.13c.87-3.8,1.78-11.03,1.29-12.75Z"/>
            <path class="cls-14" d="m123.99,110.02c-.37-.7-1.27-2.66-2.26-3.6-1.77-1.66-4.57-1.71-5.58-.79-1.02-.91-3.82-.86-5.58.79-.99.93-1.89,2.9-2.26,3.6-.52.98-1.39,1.1-1.39,1.1,0,0,.37.28,1.08.2s1.74-.25,2.22-1.14c.34-.62.7-.68.7-.68-.24.19-.39.72-.39.72.39-.28,1.55-.26,2.28-.46.73-.21,1.06-.77,1.06-.77-.04.22-.16.61-.16.61,1.18.12,2.46-.7,2.46-.7,0,0,1.28.82,2.46.7,0,0-.13-.39-.16-.61,0,0,.33.56,1.06.77.73.21,1.89.18,2.28.46,0,0-.15-.53-.39-.72,0,0,.37.06.7.68.48.89,1.52,1.05,2.22,1.14s1.08-.2,1.08-.2c0,0-.87-.12-1.39-1.1Z"/>
            <path class="cls-5" d="m118.09,104.75c0,.38-.87.69-1.95.69s-1.94-.31-1.94-.69"/>
          </g>
        </g>
      </g>
    </g>
  </g>
</svg>