<?xml version="1.0" encoding="UTF-8"?>
<svg id="Layer_2" data-name="Layer 2" xmlns="http://www.w3.org/2000/svg" viewBox="0 0 223.1 155.9">
  <defs>
    <style>
      .cls-1, .cls-2 {
        fill: #a59a6e;
      }

      .cls-3 {
        fill: #aa2734;
      }

      .cls-4 {
        fill: #54565a;
      }

      .cls-4, .cls-2, .cls-5, .cls-6 {
        stroke: #000;
        stroke-linecap: round;
        stroke-linejoin: round;
        stroke-width: 1.5px;
      }

      .cls-5 {
        fill: #fff;
      }

      .cls-6 {
        fill: none;
      }
    </style>
  </defs>
  <g id="Content">
    <g>
      <g>
        <path class="cls-3" d="m112.69,1.5c8.46,0,15.35,6.82,15.43,15.29.07,8.14-6.17,14.87-14.16,15.52-.37.03-.75.05-1.13.05-.05,0-.11,0-.16,0-.42,0-.84-.02-1.25-.05-7.87-.64-14.09-7.19-14.16-15.24-.08-8.52,6.77-15.49,15.29-15.57.05,0,.09,0,.14,0m0-1.5h-.16c-9.33.09-16.86,7.75-16.78,17.09.08,8.82,6.76,16.01,15.54,16.72.46.04.92.06,1.37.06h.18c.42,0,.84-.02,1.24-.06,8.78-.71,15.61-8.19,15.53-17.02-.08-9.25-7.68-16.78-16.93-16.78h0Z"/>
        <g>
          <path class="cls-4" d="m122.17,16.42c.01-.47-.26-.88-.67-1.05.38-.23.59-.68.51-1.14v-.05c-.09-.46-.45-.81-.88-.9.32-.3.44-.77.27-1.21l-.03-.07c-.18-.44-.6-.69-1.05-.68.26-.37.28-.88,0-1.28l-.03-.04c-.27-.39-.75-.56-1.19-.45.17-.42.06-.93-.29-1.25,0,0-.02-.02-.02-.02-.35-.32-.85-.37-1.25-.17.06-.44-.16-.9-.58-1.12l-.05-.03c-.42-.23-.93-.15-1.27.15-.06-.45-.39-.84-.85-.95,0,0-.05-.01-.06-.01-.47-.11-.92.11-1.16.5-.16-.42-.57-.73-1.05-.72h-.09c-.48.02-.87.34-1,.78-.27-.36-.75-.54-1.21-.4l-.07.02c-.46.15-.74.56-.76,1.01-.36-.29-.87-.33-1.28-.08l-.04.02c-.41.25-.6.72-.51,1.16-.41-.18-.91-.1-1.24.24l-.04.04c-.33.34-.4.83-.22,1.24-.44-.08-.89.11-1.14.5l-.04.06c-.25.41-.2.89.08,1.24-.44,0-.86.29-1.02.73l-.02.07c-.16.45,0,.92.34,1.2-.43.1-.78.46-.85.92v.07c-.07.47.17.9.56,1.11-.4.19-.67.6-.64,1.07v.07c.04.47.36.84.79.97-.36.26-.54.73-.41,1.18l.02.07c.13.46.53.75.97.79-.3.34-.37.83-.15,1.25l.03.06c.23.42.68.62,1.12.56-.22.4-.18.91.14,1.27l.03.03c.31.36.8.47,1.22.32-.11.43.04.91.43,1.18l.06.04c.39.28.89.25,1.26-.01-.01.46.26.89.71,1.07l.07.03c.45.17.93.02,1.22-.33.11.44.49.79.97.84h.07s.04.01.07.01c.45.01.85-.25,1.03-.65.22.4.68.65,1.16.57,0,0,.06,0,.06,0,.48-.08.81-.46.88-.91.31.33.81.45,1.25.26l.08-.03c.43-.2.67-.64.63-1.09.39.24.9.22,1.27-.08l.05-.04c.38-.3.49-.79.34-1.21.43.15.93.01,1.23-.37l.03-.04c.29-.37.31-.87.08-1.25.44.04.88-.21,1.09-.63l.02-.04c.2-.42.12-.91-.19-1.24.43-.06.81-.38.92-.83l.02-.07c.11-.46-.09-.91-.46-1.16.42-.14.73-.53.75-1v-.1s0-.01,0-.01Z"/>
          <g>
            <g>
              <polyline class="cls-5" points="124.08 27.05 115.76 23.44 115.76 19.81 109.62 19.81 109.62 23.44 101.27 27.1"/>
              <polygon class="cls-5" points="112.69 25.93 115.76 23.44 115.76 19.81 109.62 19.81 109.62 23.44 112.69 25.93"/>
              <polygon class="cls-5" points="112.69 25.93 110.52 27.71 108.51 23.9 109.62 22.93 112.69 25.93"/>
              <polygon class="cls-5" points="112.69 25.93 114.86 27.71 116.87 23.9 115.76 22.93 112.69 25.93"/>
              <polyline class="cls-6" points="114.1 27.09 113.44 28.49 112.69 28.49 111.94 28.49 111.28 27.09"/>
              <line class="cls-6" x1="113.95" y1="32.31" x2="113.44" y2="28.49"/>
              <line class="cls-6" x1="111.94" y1="28.49" x2="111.42" y2="32.31"/>
            </g>
            <path class="cls-5" d="m117.72,13.81c0,3.61,0-1.21,0,2.4-.13,2.89-2.37,5.7-5.02,5.68-2.63-.02-4.82-2.82-4.95-5.68,0-3.61,0,.65,0-2.96"/>
            <path class="cls-5" d="m107.75,13.26s2.18-1.19,2.85-3.24c0,0,2.14,3.49,7.12,3.8"/>
          </g>
        </g>
      </g>
      <g>
        <path class="cls-3" d="m46.01,22.7c8.46,0,15.35,6.82,15.43,15.29.07,8.14-6.17,14.87-14.16,15.52-.37.03-.75.05-1.13.05-.05,0-.11,0-.16,0-.42,0-.84-.02-1.25-.05-7.87-.64-14.09-7.19-14.16-15.24-.08-8.52,6.77-15.49,15.29-15.57.05,0,.09,0,.14,0m0-1.5h-.16c-9.33.09-16.86,7.75-16.78,17.09.08,8.82,6.76,16.01,15.54,16.72.46.04.92.06,1.37.06h.18c.42,0,.84-.02,1.24-.06,8.78-.71,15.61-8.19,15.53-17.02-.08-9.25-7.68-16.78-16.93-16.78h0Z"/>
        <g>
          <path class="cls-4" d="m55.49,37.61c.01-.47-.26-.88-.67-1.05.38-.23.59-.68.51-1.14v-.05c-.09-.46-.45-.81-.88-.9.32-.3.44-.77.27-1.21l-.03-.07c-.18-.44-.6-.69-1.05-.68.26-.37.28-.88,0-1.28l-.03-.04c-.27-.39-.75-.56-1.19-.45.17-.42.06-.93-.29-1.25,0,0-.02-.02-.02-.02-.35-.32-.85-.37-1.25-.17.06-.44-.16-.9-.58-1.12l-.05-.03c-.42-.23-.93-.15-1.27.15-.06-.45-.39-.84-.85-.95,0,0-.05-.01-.06-.01-.47-.11-.92.11-1.16.5-.16-.42-.57-.73-1.05-.72h-.09c-.48.02-.87.34-1,.78-.27-.36-.75-.54-1.21-.4l-.07.02c-.46.15-.74.56-.76,1.01-.36-.29-.87-.33-1.28-.08l-.04.02c-.41.25-.6.72-.51,1.16-.41-.18-.91-.1-1.24.24l-.04.04c-.33.34-.4.83-.22,1.24-.44-.08-.89.11-1.14.5l-.04.06c-.25.41-.2.89.08,1.24-.44,0-.86.29-1.02.73l-.02.07c-.16.45,0,.92.34,1.2-.43.1-.78.46-.85.92v.07c-.07.47.17.9.56,1.11-.4.19-.67.6-.64,1.07v.07c.04.47.36.84.79.97-.36.26-.54.73-.41,1.18l.02.07c.13.46.53.75.97.79-.3.34-.37.83-.15,1.25l.03.06c.23.42.68.62,1.12.56-.22.4-.18.91.14,1.27l.03.03c.31.36.8.47,1.22.32-.11.43.04.91.43,1.18l.06.04c.39.28.89.25,1.26-.01-.01.46.26.89.71,1.07l.07.03c.45.17.93.02,1.22-.33.11.44.49.79.97.84h.07s.04.01.07.01c.45.01.85-.25,1.03-.65.22.4.68.65,1.16.57,0,0,.06,0,.06,0,.48-.08.81-.46.88-.91.31.33.81.45,1.25.26l.08-.03c.43-.2.67-.64.63-1.09.39.24.9.22,1.27-.08l.05-.04c.38-.3.49-.79.34-1.21.43.15.93.01,1.23-.37l.03-.04c.29-.37.31-.87.08-1.25.44.04.88-.21,1.09-.63l.02-.04c.2-.42.12-.91-.19-1.24.43-.06.81-.38.92-.83l.02-.07c.11-.46-.09-.91-.46-1.16.42-.14.73-.53.75-1v-.1s0-.01,0-.01Z"/>
          <g>
            <g>
              <polyline class="cls-5" points="57.4 48.25 49.08 44.64 49.08 41 42.94 41 42.94 44.64 34.6 48.3"/>
              <polygon class="cls-5" points="46.01 47.13 49.08 44.64 49.08 41 42.94 41 42.94 44.64 46.01 47.13"/>
              <polygon class="cls-5" points="46.01 47.13 43.84 48.91 41.83 45.1 42.94 44.13 46.01 47.13"/>
              <polygon class="cls-5" points="46.01 47.13 48.18 48.91 50.19 45.1 49.08 44.13 46.01 47.13"/>
              <polyline class="cls-6" points="47.42 48.29 46.76 49.68 46.01 49.68 45.26 49.68 44.6 48.29"/>
              <line class="cls-6" x1="47.28" y1="53.51" x2="46.76" y2="49.69"/>
              <line class="cls-6" x1="45.26" y1="49.69" x2="44.75" y2="53.51"/>
            </g>
            <path class="cls-5" d="m51.05,35.01c0,3.61,0-1.21,0,2.4-.13,2.89-2.37,5.7-5.02,5.68-2.63-.02-4.82-2.82-4.95-5.68,0-3.61,0,.65,0-2.96"/>
            <path class="cls-5" d="m41.08,34.46s2.18-1.19,2.85-3.24c0,0,2.14,3.49,7.12,3.8"/>
          </g>
        </g>
      </g>
      <g>
        <path class="cls-3" d="m177.54,84.85c8.46,0,15.35,6.82,15.43,15.29.07,8.14-6.17,14.87-14.16,15.52-.37.03-.75.05-1.13.05-.05,0-.11,0-.16,0-.42,0-.83-.02-1.24-.05-7.87-.64-14.09-7.19-14.16-15.24-.08-8.52,6.77-15.49,15.29-15.57.05,0,.09,0,.14,0m0-1.5h-.16c-9.33.09-16.86,7.75-16.78,17.09.08,8.82,6.76,16.01,15.54,16.72.46.04.92.06,1.37.06h.18c.42,0,.84-.02,1.24-.06,8.78-.71,15.61-8.19,15.53-17.02-.08-9.25-7.68-16.78-16.93-16.78h0Z"/>
        <g>
          <path class="cls-4" d="m187.02,99.77c.01-.47-.26-.88-.67-1.05.38-.23.59-.68.51-1.14v-.05c-.09-.46-.45-.81-.88-.9.32-.3.44-.77.27-1.21l-.03-.07c-.18-.44-.6-.69-1.05-.68.26-.37.28-.88,0-1.28l-.03-.04c-.27-.39-.75-.56-1.19-.45.17-.42.06-.93-.29-1.25,0,0-.02-.02-.02-.02-.35-.32-.85-.37-1.25-.17.06-.44-.16-.9-.58-1.12l-.05-.03c-.42-.23-.93-.15-1.27.15-.06-.45-.39-.84-.85-.95,0,0-.05-.01-.06-.01-.47-.11-.92.11-1.16.5-.16-.42-.57-.73-1.05-.72h-.09c-.48.02-.87.34-1,.78-.27-.36-.75-.54-1.21-.4l-.07.02c-.46.15-.74.56-.76,1.01-.36-.29-.87-.33-1.28-.08l-.04.02c-.41.25-.6.72-.51,1.16-.41-.18-.91-.1-1.24.24l-.04.04c-.33.34-.4.83-.22,1.24-.44-.08-.89.11-1.14.5l-.04.06c-.25.41-.2.89.08,1.24-.44,0-.86.29-1.02.73l-.02.07c-.16.45,0,.92.34,1.2-.43.1-.78.46-.85.92v.07c-.07.47.17.9.56,1.11-.4.19-.67.6-.64,1.07v.07c.04.47.36.84.79.97-.36.26-.54.73-.41,1.18l.02.07c.13.46.53.75.97.79-.3.34-.37.83-.15,1.25l.03.06c.23.42.68.62,1.12.56-.22.4-.18.91.14,1.27l.03.03c.31.36.8.47,1.22.32-.11.43.04.91.43,1.18l.06.04c.39.28.89.25,1.26-.01-.01.46.26.89.71,1.07l.07.03c.45.17.93.02,1.22-.33.11.44.49.79.97.84h.07s.04.01.07.01c.45.01.85-.25,1.03-.65.22.4.68.65,1.16.57,0,0,.06,0,.06,0,.48-.08.81-.46.88-.91.31.33.81.45,1.25.26l.08-.03c.43-.2.67-.64.63-1.09.39.24.9.22,1.27-.08l.05-.04c.38-.3.49-.79.34-1.21.43.15.93.01,1.23-.37l.03-.04c.29-.37.31-.87.08-1.25.44.04.88-.21,1.09-.63l.02-.04c.2-.42.12-.91-.19-1.24.43-.06.81-.38.92-.83l.02-.07c.11-.46-.09-.91-.46-1.16.42-.14.73-.53.75-1v-.1s0-.01,0-.01Z"/>
          <g>
            <g>
              <polyline class="cls-5" points="188.93 110.4 180.61 106.8 180.61 103.16 174.47 103.16 174.47 106.8 166.12 110.46"/>
              <polygon class="cls-5" points="177.54 109.28 180.61 106.8 180.61 103.16 174.47 103.16 174.47 106.8 177.54 109.28"/>
              <polygon class="cls-5" points="177.54 109.28 175.37 111.06 173.36 107.26 174.47 106.28 177.54 109.28"/>
              <polygon class="cls-5" points="177.54 109.28 179.71 111.06 181.72 107.26 180.61 106.28 177.54 109.28"/>
              <polyline class="cls-6" points="178.95 110.44 178.29 111.84 177.54 111.84 176.79 111.84 176.13 110.44"/>
              <line class="cls-6" x1="178.81" y1="115.66" x2="178.29" y2="111.84"/>
              <line class="cls-6" x1="176.79" y1="111.84" x2="176.27" y2="115.66"/>
            </g>
            <path class="cls-5" d="m182.57,97.16c0,3.61,0-1.21,0,2.4-.13,2.89-2.37,5.7-5.02,5.68-2.63-.02-4.82-2.82-4.95-5.68,0-3.61,0,.65,0-2.96"/>
            <path class="cls-5" d="m172.61,96.61s2.18-1.19,2.85-3.24c0,0,2.14,3.49,7.12,3.8"/>
          </g>
        </g>
      </g>
      <g>
        <path class="cls-3" d="m111.94,99.86c8.46,0,15.35,6.82,15.43,15.29.07,8.14-6.17,14.87-14.16,15.52-.37.03-.75.05-1.13.05-.05,0-.11,0-.16,0-.42,0-.84-.02-1.25-.05-7.87-.64-14.09-7.19-14.16-15.24-.08-8.52,6.77-15.49,15.29-15.57.05,0,.09,0,.14,0m0-1.5h-.16c-9.33.09-16.86,7.75-16.78,17.09.08,8.82,6.76,16.01,15.54,16.72.46.04.92.06,1.37.06h.18c.42,0,.84-.02,1.24-.06,8.78-.71,15.61-8.19,15.53-17.02-.08-9.25-7.68-16.78-16.93-16.78h0Z"/>
        <g>
          <path class="cls-4" d="m121.42,114.78c.01-.47-.26-.88-.67-1.05.38-.23.59-.68.51-1.14v-.05c-.09-.46-.45-.81-.88-.9.32-.3.44-.77.27-1.21l-.03-.07c-.18-.44-.6-.69-1.05-.68.26-.37.28-.88,0-1.28l-.03-.04c-.27-.39-.75-.56-1.19-.45.17-.42.06-.93-.29-1.25,0,0-.02-.02-.02-.02-.35-.32-.85-.37-1.25-.17.06-.44-.16-.9-.58-1.12l-.05-.03c-.42-.23-.93-.15-1.27.15-.06-.45-.39-.84-.85-.95,0,0-.05-.01-.06-.01-.47-.11-.92.11-1.16.5-.16-.42-.57-.73-1.05-.72h-.09c-.48.02-.87.34-1,.78-.27-.36-.75-.54-1.21-.4l-.07.02c-.46.15-.74.56-.76,1.01-.36-.29-.87-.33-1.28-.08l-.04.02c-.41.25-.6.72-.51,1.16-.41-.18-.91-.1-1.24.24l-.04.04c-.33.34-.4.83-.22,1.24-.44-.08-.89.11-1.14.5l-.04.06c-.25.41-.2.89.08,1.24-.44,0-.86.29-1.02.73l-.02.07c-.16.45,0,.92.34,1.2-.43.1-.78.46-.85.92v.07c-.07.47.17.9.56,1.11-.4.19-.67.6-.64,1.07v.07c.04.47.36.84.79.97-.36.26-.54.73-.41,1.18l.02.07c.13.46.53.75.97.79-.3.34-.37.83-.15,1.25l.03.06c.23.42.68.62,1.12.56-.22.4-.18.91.14,1.27l.03.03c.31.36.8.47,1.22.32-.11.43.04.91.43,1.18l.06.04c.39.28.89.25,1.26-.01-.01.46.26.89.71,1.07l.07.03c.45.17.93.02,1.22-.33.11.44.49.79.97.84h.07s.04.01.07.01c.45.01.85-.25,1.03-.65.22.4.68.65,1.16.57,0,0,.06,0,.06,0,.48-.08.81-.46.88-.91.31.33.81.45,1.25.26l.08-.03c.43-.2.67-.64.63-1.09.39.24.9.22,1.27-.08l.05-.04c.38-.3.49-.79.34-1.21.43.15.93.01,1.23-.37l.03-.04c.29-.37.31-.87.08-1.25.44.04.88-.21,1.09-.63l.02-.04c.2-.42.12-.91-.19-1.24.43-.06.81-.38.92-.83l.02-.07c.11-.46-.09-.91-.46-1.16.42-.14.73-.53.75-1v-.1s0-.01,0-.01Z"/>
          <g>
            <g>
              <polyline class="cls-5" points="123.33 125.42 115 121.81 115 118.17 108.87 118.17 108.87 121.81 100.52 125.47"/>
              <polygon class="cls-5" points="111.94 124.3 115 121.81 115 118.17 108.87 118.17 108.87 121.81 111.94 124.3"/>
              <polygon class="cls-5" points="111.94 124.3 109.77 126.08 107.76 122.27 108.87 121.29 111.94 124.3"/>
              <polygon class="cls-5" points="111.94 124.3 114.11 126.08 116.12 122.27 115 121.29 111.94 124.3"/>
              <polyline class="cls-6" points="113.35 125.46 112.69 126.85 111.94 126.85 111.19 126.85 110.52 125.46"/>
              <line class="cls-6" x1="113.2" y1="130.67" x2="112.69" y2="126.85"/>
              <line class="cls-6" x1="111.19" y1="126.85" x2="110.67" y2="130.67"/>
            </g>
            <path class="cls-5" d="m116.97,112.17c0,3.61,0-1.21,0,2.4-.13,2.89-2.37,5.7-5.02,5.68-2.63-.02-4.82-2.82-4.95-5.68,0-3.61,0,.65,0-2.96"/>
            <path class="cls-5" d="m107,111.63s2.18-1.19,2.85-3.24c0,0,2.14,3.49,7.12,3.8"/>
          </g>
        </g>
      </g>
      <g>
        <line class="cls-6" x1="124.08" y1="39.81" x2="160.61" y2="85.45"/>
        <polygon points="152.71 85.41 152.93 83.92 160.24 85 160.79 77.63 162.29 77.74 161.62 86.72 152.71 85.41"/>
      </g>
      <g>
        <line class="cls-6" x1="112.68" y1="42.11" x2="112.19" y2="92.15"/>
        <polygon points="106.1 87.12 107.21 86.11 112.19 91.58 117.28 86.21 118.37 87.24 112.17 93.78 106.1 87.12"/>
      </g>
      <g>
        <line class="cls-6" x1="103.44" y1="39.62" x2="75.26" y2="81.72"/>
        <polygon points="72.93 74.18 74.41 73.94 75.58 81.24 82.78 79.54 83.12 81 74.36 83.07 72.93 74.18"/>
      </g>
      <g>
        <line class="cls-6" x1="93.43" y1="32.73" x2="72.7" y2="38.34"/>
        <polygon points="75.89 31.12 77.17 31.92 73.25 38.19 79.8 41.64 79.1 42.96 71.13 38.77 75.89 31.12"/>
      </g>
      <g>
        <line class="cls-6" x1="131.11" y1="32.73" x2="148.73" y2="39.07"/>
        <polygon points="141.97 43.16 141.38 41.78 148.18 38.88 144.79 32.3 146.13 31.62 150.26 39.62 141.97 43.16"/>
      </g>
      <g>
        <polygon class="cls-1" points="104.8 153.1 98.5 152.01 98.5 147.23 102.39 147.56 103.43 151.07 104.8 153.1"/>
        <path class="cls-2" d="m100.26,146.57c.73-.27,1.73.07,2.44,1.25.53.89.56,2.55.67,2.89.22.68.95,1.45,2.44,1.13,0,0-.12,1.12-.96,1.28"/>
        <path class="cls-2" d="m102.09,140.81c0,2.67-2.16,4.83-4.83,4.83s-4.83-2.16-4.83-4.83,2.16-4.87,4.83-4.87,4.83,2.2,4.83,4.87Z"/>
        <g>
          <path class="cls-5" d="m107.54,155.15c-.13-.69-.63-1.28-1.32-1.56l-6.61-2.22v-3.3h-4.71v3.3l-6.61,2.22c-.69.28-1.19.87-1.32,1.56"/>
          <path class="cls-5" d="m101.83,141.74c0,3.31,0-.61,0,2.7-.12,2.65-2.17,5.23-4.6,5.21-2.41-.02-4.42-2.58-4.54-5.21,0-3.31,0,.67,0-2.64l4.22-.05c1.04-.01,1.95-.7,2.25-1.69l.11-.37.03.14c.24,1.19,1.33,2.01,2.54,1.9h0Z"/>
          <path class="cls-5" d="m91.69,152.56s1.76,2.43,5.56,2.43,5.56-2.43,5.56-2.43"/>
        </g>
      </g>
      <g>
        <polygon class="cls-1" points="134.39 152.84 128.09 151.75 128.09 146.97 131.97 147.3 133.01 150.81 134.39 152.84"/>
        <path class="cls-2" d="m129.85,146.31c.73-.27,1.73.07,2.44,1.25.53.89.56,2.55.67,2.89.22.68.95,1.45,2.44,1.13,0,0-.12,1.12-.96,1.28"/>
        <path class="cls-2" d="m131.68,140.56c0,2.67-2.16,4.83-4.83,4.83s-4.83-2.16-4.83-4.83,2.16-4.87,4.83-4.87,4.83,2.2,4.83,4.87Z"/>
        <g>
          <path class="cls-5" d="m137.13,154.89c-.13-.69-.63-1.28-1.32-1.56l-6.61-2.22v-3.3h-4.71v3.3l-6.61,2.22c-.69.28-1.19.87-1.32,1.56"/>
          <path class="cls-5" d="m131.42,141.48c0,3.31,0-.61,0,2.7-.12,2.65-2.17,5.23-4.6,5.21-2.41-.02-4.42-2.58-4.54-5.21,0-3.31,0,.67,0-2.64l4.22-.05c1.04-.01,1.95-.7,2.25-1.69l.11-.37.03.14c.24,1.19,1.33,2.01,2.54,1.9h0Z"/>
          <path class="cls-5" d="m121.28,152.31s1.76,2.43,5.56,2.43,5.56-2.43,5.56-2.43"/>
        </g>
      </g>
      <g>
        <polygon class="cls-1" points="59.88 140.39 53.58 139.3 53.58 134.51 57.47 134.85 58.51 138.35 59.88 140.39"/>
        <path class="cls-2" d="m55.34,133.85c.73-.27,1.73.07,2.44,1.25.53.89.56,2.55.67,2.89.22.68.95,1.45,2.44,1.13,0,0-.12,1.12-.96,1.28"/>
        <path class="cls-2" d="m57.17,128.1c0,2.67-2.16,4.83-4.83,4.83s-4.83-2.16-4.83-4.83,2.16-4.87,4.83-4.87,4.83,2.2,4.83,4.87Z"/>
        <g>
          <path class="cls-5" d="m62.62,142.43c-.13-.69-.63-1.28-1.32-1.56l-6.61-2.22v-3.3h-4.71v3.3l-6.61,2.22c-.69.28-1.19.87-1.32,1.56"/>
          <path class="cls-5" d="m56.91,129.03c0,3.31,0-.61,0,2.7-.12,2.65-2.17,5.23-4.6,5.21-2.41-.02-4.42-2.58-4.54-5.21,0-3.31,0,.67,0-2.64l4.22-.05c1.04-.01,1.95-.7,2.25-1.69l.11-.37.03.14c.24,1.19,1.33,2.01,2.54,1.9h0Z"/>
          <path class="cls-5" d="m46.78,139.85s1.76,2.43,5.56,2.43,5.56-2.43,5.56-2.43"/>
        </g>
      </g>
      <g>
        <polygon class="cls-1" points="18.58 52.21 12.28 51.12 12.28 46.34 16.16 46.67 17.2 50.18 18.58 52.21"/>
        <path class="cls-2" d="m14.04,45.68c.73-.27,1.73.07,2.44,1.25.53.89.56,2.55.67,2.89.22.68.95,1.45,2.44,1.13,0,0-.12,1.12-.96,1.28"/>
        <path class="cls-2" d="m15.86,39.92c0,2.67-2.16,4.83-4.83,4.83s-4.83-2.16-4.83-4.83,2.16-4.87,4.83-4.87,4.83,2.2,4.83,4.87Z"/>
        <g>
          <path class="cls-5" d="m21.32,54.26c-.13-.69-.63-1.28-1.32-1.56l-6.61-2.22v-3.3h-4.71v3.3l-6.61,2.22c-.69.28-1.19.87-1.32,1.56"/>
          <path class="cls-5" d="m15.61,40.85c0,3.31,0-.61,0,2.7-.12,2.65-2.17,5.23-4.6,5.21-2.41-.02-4.42-2.58-4.54-5.21,0-3.31,0,.67,0-2.64l4.22-.05c1.04-.01,1.95-.7,2.25-1.69l.11-.37.03.14c.24,1.19,1.33,2.01,2.54,1.9h0Z"/>
          <path class="cls-5" d="m5.47,51.67s1.76,2.43,5.56,2.43,5.56-2.43,5.56-2.43"/>
        </g>
      </g>
      <g>
        <g>
          <polygon class="cls-1" points="65.76 110.4 59.46 109.31 59.46 104.53 63.35 104.86 64.39 108.36 65.76 110.4"/>
          <path class="cls-2" d="m61.22,103.87c.73-.27,1.73.07,2.44,1.25.53.89.56,2.55.67,2.89.22.68.95,1.45,2.44,1.13,0,0-.12,1.12-.96,1.28"/>
          <path class="cls-2" d="m63.05,98.11c0,2.67-2.16,4.83-4.83,4.83s-4.83-2.16-4.83-4.83,2.16-4.87,4.83-4.87,4.83,2.2,4.83,4.87Z"/>
          <g>
            <path class="cls-5" d="m68.5,112.44c-.13-.69-.63-1.28-1.32-1.56l-6.61-2.22v-3.3h-4.71v3.3l-6.61,2.22c-.69.28-1.19.87-1.32,1.56"/>
            <path class="cls-5" d="m62.79,99.04c0,3.31,0-.61,0,2.7-.12,2.65-2.17,5.23-4.6,5.21-2.41-.02-4.42-2.58-4.54-5.21,0-3.31,0,.67,0-2.64l4.22-.05c1.04-.01,1.95-.7,2.25-1.69l.11-.37.03.14c.24,1.19,1.33,2.01,2.54,1.9h0Z"/>
            <path class="cls-5" d="m52.65,109.86s1.76,2.43,5.56,2.43,5.56-2.43,5.56-2.43"/>
          </g>
        </g>
        <path class="cls-3" d="m58.22,85.44c8.46,0,15.35,6.82,15.43,15.29.07,8.14-6.17,14.87-14.16,15.52-.37.03-.75.05-1.13.05-.05,0-.1,0-.16,0-.42,0-.84-.02-1.25-.05-7.87-.64-14.09-7.19-14.16-15.24-.08-8.52,6.77-15.49,15.29-15.57.05,0,.09,0,.14,0m0-1.5h-.16c-9.33.09-16.86,7.75-16.78,17.09.08,8.82,6.76,16.01,15.54,16.72.46.04.93.06,1.37.06h.17c.42,0,.84-.02,1.24-.06,8.78-.71,15.61-8.19,15.53-17.02-.08-9.25-7.68-16.78-16.93-16.78h0Z"/>
      </g>
      <g>
        <g>
          <polygon class="cls-1" points="182.01 54.28 175.72 53.19 175.72 48.41 179.6 48.74 180.64 52.24 182.01 54.28"/>
          <path class="cls-2" d="m177.47,47.75c.73-.27,1.73.07,2.44,1.25.53.89.56,2.55.67,2.89.22.68.95,1.45,2.44,1.13,0,0-.12,1.12-.96,1.28"/>
          <path class="cls-2" d="m179.3,41.99c0,2.67-2.16,4.83-4.83,4.83s-4.83-2.16-4.83-4.83,2.16-4.87,4.83-4.87,4.83,2.2,4.83,4.87Z"/>
          <g>
            <path class="cls-5" d="m184.75,56.32c-.13-.69-.63-1.28-1.32-1.56l-6.61-2.22v-3.3h-4.71v3.3l-6.61,2.22c-.69.28-1.19.87-1.32,1.56"/>
            <path class="cls-5" d="m179.04,42.92c0,3.31,0-.61,0,2.7-.12,2.65-2.17,5.23-4.6,5.21-2.41-.02-4.42-2.58-4.54-5.21,0-3.31,0,.67,0-2.64l4.22-.05c1.04-.01,1.95-.7,2.25-1.69l.11-.37.03.14c.24,1.19,1.33,2.01,2.54,1.9h0Z"/>
            <path class="cls-5" d="m168.91,53.74s1.76,2.43,5.56,2.43,5.56-2.43,5.56-2.43"/>
          </g>
        </g>
        <path class="cls-3" d="m174.47,29.32c8.46,0,15.35,6.82,15.43,15.29.07,8.14-6.17,14.87-14.16,15.52-.37.03-.75.05-1.13.05-.05,0-.11,0-.16,0-.42,0-.83-.02-1.24-.05-7.87-.64-14.09-7.19-14.16-15.24-.08-8.52,6.77-15.49,15.29-15.57.05,0,.09,0,.14,0m0-1.5h-.16c-9.33.09-16.86,7.75-16.78,17.09.08,8.82,6.76,16.01,15.54,16.72.46.04.92.06,1.37.06h.18c.42,0,.84-.02,1.24-.06,8.78-.71,15.61-8.19,15.53-17.02-.08-9.25-7.68-16.78-16.93-16.78h0Z"/>
      </g>
      <g>
        <path class="cls-4" d="m39.5,67.44c.01-.47-.26-.88-.67-1.05.38-.23.59-.68.51-1.14v-.05c-.09-.46-.45-.81-.88-.9.32-.3.44-.77.27-1.21l-.03-.07c-.18-.44-.6-.69-1.05-.68.26-.37.28-.88,0-1.28l-.03-.04c-.27-.39-.75-.56-1.19-.45.17-.42.06-.93-.29-1.25,0,0-.02-.02-.02-.02-.35-.32-.85-.37-1.25-.17.06-.44-.16-.9-.58-1.12l-.05-.03c-.42-.23-.93-.15-1.27.15-.06-.45-.39-.84-.85-.95,0,0-.05-.01-.06-.01-.47-.11-.92.11-1.16.5-.16-.42-.57-.73-1.05-.72h-.09c-.48.02-.87.34-1,.78-.27-.36-.75-.54-1.21-.4l-.07.02c-.46.15-.74.56-.76,1.01-.36-.29-.87-.33-1.28-.08l-.04.02c-.41.25-.6.72-.51,1.16-.41-.18-.91-.1-1.24.24l-.04.04c-.33.34-.4.83-.22,1.24-.44-.08-.89.11-1.14.5l-.04.06c-.25.41-.2.89.08,1.24-.44,0-.86.29-1.02.73l-.02.07c-.16.45,0,.92.34,1.2-.43.1-.78.46-.85.92v.07c-.07.47.17.9.56,1.11-.4.19-.67.6-.64,1.07v.07c.04.47.36.84.79.97-.36.26-.54.73-.41,1.18l.02.07c.13.46.53.75.97.79-.3.34-.37.83-.15,1.25l.03.06c.23.42.68.62,1.12.56-.22.4-.18.91.14,1.27l.03.03c.31.36.8.47,1.22.32-.11.43.04.91.43,1.18l.06.04c.39.28.89.25,1.26-.01-.01.46.26.89.71,1.07l.07.03c.45.17.93.02,1.22-.33.11.44.49.79.97.84h.07s.04.01.07.01c.45.01.85-.25,1.03-.65.22.4.68.65,1.16.57,0,0,.06,0,.06,0,.48-.08.81-.46.88-.91.31.33.81.45,1.25.26l.08-.03c.43-.2.67-.64.63-1.09.39.24.9.22,1.27-.08l.05-.04c.38-.3.49-.79.34-1.21.43.15.93.01,1.23-.37l.03-.04c.29-.37.31-.87.08-1.25.44.04.88-.21,1.09-.63l.02-.04c.2-.42.12-.91-.19-1.24.43-.06.81-.38.92-.83l.02-.07c.11-.46-.09-.91-.46-1.16.42-.14.73-.53.75-1v-.1s0-.01,0-.01Z"/>
        <g>
          <g>
            <polyline class="cls-5" points="41.41 78.08 33.09 74.47 33.09 70.83 26.95 70.83 26.95 74.47 18.61 78.13"/>
            <polygon class="cls-5" points="30.02 76.96 33.09 74.47 33.09 70.83 26.95 70.83 26.95 74.47 30.02 76.96"/>
            <polygon class="cls-5" points="30.02 76.96 27.85 78.74 25.84 74.93 26.95 73.96 30.02 76.96"/>
            <polygon class="cls-5" points="30.02 76.96 32.19 78.74 34.2 74.93 33.09 73.96 30.02 76.96"/>
            <polyline class="cls-6" points="31.43 78.12 30.77 79.51 30.02 79.51 29.27 79.51 28.61 78.12"/>
            <line class="cls-6" x1="31.29" y1="83.34" x2="30.77" y2="79.51"/>
            <line class="cls-6" x1="29.27" y1="79.51" x2="28.75" y2="83.34"/>
          </g>
          <path class="cls-5" d="m35.05,64.84c0,3.61,0-1.21,0,2.4-.13,2.89-2.37,5.7-5.02,5.68-2.63-.02-4.82-2.82-4.95-5.68,0-3.61,0,.65,0-2.96"/>
          <path class="cls-5" d="m25.09,64.29s2.18-1.19,2.85-3.24c0,0,2.14,3.49,7.12,3.8"/>
        </g>
      </g>
      <g>
        <polygon class="cls-1" points="207.08 75.51 200.79 74.42 200.79 69.63 204.67 69.97 205.71 73.47 207.08 75.51"/>
        <path class="cls-2" d="m202.54,68.97c.73-.27,1.73.07,2.44,1.25.53.89.56,2.55.67,2.89.22.68.95,1.45,2.44,1.13,0,0-.12,1.12-.96,1.28"/>
        <path class="cls-2" d="m204.37,63.22c0,2.67-2.16,4.83-4.83,4.83s-4.83-2.16-4.83-4.83,2.16-4.87,4.83-4.87,4.83,2.2,4.83,4.87Z"/>
        <g>
          <path class="cls-5" d="m209.82,77.55c-.13-.69-.63-1.28-1.32-1.56l-6.61-2.22v-3.3h-4.71v3.3l-6.61,2.22c-.69.28-1.19.87-1.32,1.56"/>
          <path class="cls-5" d="m204.11,64.15c0,3.31,0-.61,0,2.7-.12,2.65-2.17,5.23-4.6,5.21-2.41-.02-4.42-2.58-4.54-5.21,0-3.31,0,.67,0-2.64l4.22-.05c1.04-.01,1.95-.7,2.25-1.69l.11-.37.03.14c.24,1.19,1.33,2.01,2.54,1.9h0Z"/>
          <path class="cls-5" d="m193.98,74.97s1.76,2.43,5.56,2.43,5.56-2.43,5.56-2.43"/>
        </g>
      </g>
      <g>
        <path class="cls-4" d="m220.44,41.38c.01-.47-.26-.88-.67-1.05.38-.23.59-.68.51-1.14v-.05c-.09-.46-.45-.81-.88-.9.32-.3.44-.77.27-1.21l-.03-.07c-.18-.44-.6-.69-1.05-.68.26-.37.28-.88,0-1.28l-.03-.04c-.27-.39-.75-.56-1.19-.45.17-.42.06-.93-.29-1.25,0,0-.02-.02-.02-.02-.35-.32-.85-.37-1.25-.17.06-.44-.16-.9-.58-1.12l-.05-.03c-.42-.23-.93-.15-1.27.15-.06-.45-.39-.84-.85-.95,0,0-.05-.01-.06-.01-.47-.11-.92.11-1.16.5-.16-.42-.57-.73-1.05-.72h-.09c-.48.02-.87.34-1,.78-.27-.36-.75-.54-1.21-.4l-.07.02c-.46.15-.74.56-.76,1.01-.36-.29-.87-.33-1.28-.08l-.04.02c-.41.25-.6.72-.51,1.16-.41-.18-.91-.1-1.24.24l-.04.04c-.33.34-.4.83-.22,1.24-.44-.08-.89.11-1.14.5l-.04.06c-.25.41-.2.89.08,1.24-.44,0-.86.29-1.02.73l-.02.07c-.16.45,0,.92.34,1.2-.43.1-.78.46-.85.92v.07c-.07.47.17.9.56,1.11-.4.19-.67.6-.64,1.07v.07c.04.47.36.84.79.97-.36.26-.54.73-.41,1.18l.02.07c.13.46.53.75.97.79-.3.34-.37.83-.15,1.25l.03.06c.23.42.68.62,1.12.56-.22.4-.18.91.14,1.27l.03.03c.31.36.8.47,1.22.32-.11.43.04.91.43,1.18l.06.04c.39.28.89.25,1.26-.01-.01.46.26.89.71,1.07l.07.03c.45.17.93.02,1.22-.33.11.44.49.79.97.84h.07s.04.01.07.01c.45.01.85-.25,1.03-.65.22.4.68.65,1.16.57,0,0,.06,0,.06,0,.48-.08.81-.46.88-.91.31.33.81.45,1.25.26l.08-.03c.43-.2.67-.64.63-1.09.39.24.9.22,1.27-.08l.05-.04c.38-.3.49-.79.34-1.21.43.15.93.01,1.23-.37l.03-.04c.29-.37.31-.87.08-1.25.44.04.88-.21,1.09-.63l.02-.04c.2-.42.12-.91-.19-1.24.43-.06.81-.38.92-.83l.02-.07c.11-.46-.09-.91-.46-1.16.42-.14.73-.53.75-1v-.1s0-.01,0-.01Z"/>
        <g>
          <g>
            <polyline class="cls-5" points="222.35 52.02 214.02 48.41 214.02 44.77 207.89 44.77 207.89 48.41 199.54 52.07"/>
            <polygon class="cls-5" points="210.95 50.9 214.02 48.41 214.02 44.77 207.89 44.77 207.89 48.41 210.95 50.9"/>
            <polygon class="cls-5" points="210.95 50.9 208.79 52.68 206.77 48.87 207.89 47.9 210.95 50.9"/>
            <polygon class="cls-5" points="210.95 50.9 213.12 52.68 215.13 48.87 214.02 47.9 210.95 50.9"/>
            <polyline class="cls-6" points="212.37 52.06 211.71 53.45 210.95 53.45 210.2 53.45 209.54 52.06"/>
            <line class="cls-6" x1="212.22" y1="57.28" x2="211.71" y2="53.45"/>
            <line class="cls-6" x1="210.2" y1="53.45" x2="209.69" y2="57.28"/>
          </g>
          <path class="cls-5" d="m215.99,38.78c0,3.61,0-1.21,0,2.4-.13,2.89-2.37,5.7-5.02,5.68-2.63-.02-4.82-2.82-4.95-5.68,0-3.61,0,.65,0-2.96"/>
          <path class="cls-5" d="m206.02,38.23s2.18-1.19,2.85-3.24c0,0,2.14,3.49,7.12,3.8"/>
        </g>
      </g>
      <g>
        <path class="cls-4" d="m218.26,114.55c.01-.47-.26-.88-.67-1.05.38-.23.59-.68.51-1.14v-.05c-.09-.46-.45-.81-.88-.9.32-.3.44-.77.27-1.21l-.03-.07c-.18-.44-.6-.69-1.05-.68.26-.37.28-.88,0-1.28l-.03-.04c-.27-.39-.75-.56-1.19-.45.17-.42.06-.93-.29-1.25,0,0-.02-.02-.02-.02-.35-.32-.85-.37-1.25-.17.06-.44-.16-.9-.58-1.12l-.05-.03c-.42-.23-.93-.15-1.27.15-.06-.45-.39-.84-.85-.95,0,0-.05-.01-.06-.01-.47-.11-.92.11-1.16.5-.16-.42-.57-.73-1.05-.72h-.09c-.48.02-.87.34-1,.78-.27-.36-.75-.54-1.21-.4l-.07.02c-.46.15-.74.56-.76,1.01-.36-.29-.87-.33-1.28-.08l-.04.02c-.41.25-.6.72-.51,1.16-.41-.18-.91-.1-1.24.24l-.04.04c-.33.34-.4.83-.22,1.24-.44-.08-.89.11-1.14.5l-.04.06c-.25.41-.2.89.08,1.24-.44,0-.86.29-1.02.73l-.02.07c-.16.45,0,.92.34,1.2-.43.1-.78.46-.85.92v.07c-.07.47.17.9.56,1.11-.4.19-.67.6-.64,1.07v.07c.04.47.36.84.79.97-.36.26-.54.73-.41,1.18l.02.07c.13.46.53.75.97.79-.3.34-.37.83-.15,1.25l.03.06c.23.42.68.62,1.12.56-.22.4-.18.91.14,1.27l.03.03c.31.36.8.47,1.22.32-.11.43.04.91.43,1.18l.06.04c.39.28.89.25,1.26-.01-.01.46.26.89.71,1.07l.07.03c.45.17.93.02,1.22-.33.11.44.49.79.97.84h.07s.04.01.07.01c.45.01.85-.25,1.03-.65.22.4.68.65,1.16.57,0,0,.06,0,.06,0,.48-.08.81-.46.88-.91.31.33.81.45,1.25.26l.08-.03c.43-.2.67-.64.63-1.09.39.24.9.22,1.27-.08l.05-.04c.38-.3.49-.79.34-1.21.43.15.93.01,1.23-.37l.03-.04c.29-.37.31-.87.08-1.25.44.04.88-.21,1.09-.63l.02-.04c.2-.42.12-.91-.19-1.24.43-.06.81-.38.92-.83l.02-.07c.11-.46-.09-.91-.46-1.16.42-.14.73-.53.75-1v-.1s0-.01,0-.01Z"/>
        <g>
          <g>
            <polyline class="cls-5" points="220.17 125.19 211.85 121.58 211.85 117.94 205.71 117.94 205.71 121.58 197.36 125.24"/>
            <polygon class="cls-5" points="208.78 124.07 211.85 121.58 211.85 117.94 205.71 117.94 205.71 121.58 208.78 124.07"/>
            <polygon class="cls-5" points="208.78 124.07 206.61 125.85 204.6 122.04 205.71 121.06 208.78 124.07"/>
            <polygon class="cls-5" points="208.78 124.07 210.95 125.85 212.96 122.04 211.85 121.06 208.78 124.07"/>
            <polyline class="cls-6" points="210.19 125.23 209.53 126.62 208.78 126.62 208.03 126.62 207.37 125.23"/>
            <line class="cls-6" x1="210.05" y1="130.45" x2="209.53" y2="126.62"/>
            <line class="cls-6" x1="208.03" y1="126.62" x2="207.51" y2="130.45"/>
          </g>
          <path class="cls-5" d="m213.81,111.95c0,3.61,0-1.21,0,2.4-.13,2.89-2.37,5.7-5.02,5.68-2.63-.02-4.82-2.82-4.95-5.68,0-3.61,0,.65,0-2.96"/>
          <path class="cls-5" d="m203.85,111.4s2.18-1.19,2.85-3.24c0,0,2.14,3.49,7.12,3.8"/>
        </g>
      </g>
      <g>
        <path class="cls-4" d="m187.02,134.23c.01-.47-.26-.88-.67-1.05.38-.23.59-.68.51-1.14v-.05c-.09-.46-.45-.81-.88-.9.32-.3.44-.77.27-1.21l-.03-.07c-.18-.44-.6-.69-1.05-.68.26-.37.28-.88,0-1.28l-.03-.04c-.27-.39-.75-.56-1.19-.45.17-.42.06-.93-.29-1.25,0,0-.02-.02-.02-.02-.35-.32-.85-.37-1.25-.17.06-.44-.16-.9-.58-1.12l-.05-.03c-.42-.23-.93-.15-1.27.15-.06-.45-.39-.84-.85-.95,0,0-.05-.01-.06-.01-.47-.11-.92.11-1.16.5-.16-.42-.57-.73-1.05-.72h-.09c-.48.02-.87.34-1,.78-.27-.36-.75-.54-1.21-.4l-.07.02c-.46.15-.74.56-.76,1.01-.36-.29-.87-.33-1.28-.08l-.04.02c-.41.25-.6.72-.51,1.16-.41-.18-.91-.1-1.24.24l-.04.04c-.33.34-.4.83-.22,1.24-.44-.08-.89.11-1.14.5l-.04.06c-.25.41-.2.89.08,1.24-.44,0-.86.29-1.02.73l-.02.07c-.16.45,0,.92.34,1.2-.43.1-.78.46-.85.92v.07c-.07.47.17.9.56,1.11-.4.19-.67.6-.64,1.07v.07c.04.47.36.84.79.97-.36.26-.54.73-.41,1.18l.02.07c.13.46.53.75.97.79-.3.34-.37.83-.15,1.25l.03.06c.23.42.68.62,1.12.56-.22.4-.18.91.14,1.27l.03.03c.31.36.8.47,1.22.32-.11.43.04.91.43,1.18l.06.04c.39.28.89.25,1.26-.01-.01.46.26.89.71,1.07l.07.03c.45.17.93.02,1.22-.33.11.44.49.79.97.84h.07s.04.01.07.01c.45.01.85-.25,1.03-.65.22.4.68.65,1.16.57,0,0,.06,0,.06,0,.48-.08.81-.46.88-.91.31.33.81.45,1.25.26l.08-.03c.43-.2.67-.64.63-1.09.39.24.9.22,1.27-.08l.05-.04c.38-.3.49-.79.34-1.21.43.15.93.01,1.23-.37l.03-.04c.29-.37.31-.87.08-1.25.44.04.88-.21,1.09-.63l.02-.04c.2-.42.12-.91-.19-1.24.43-.06.81-.38.92-.83l.02-.07c.11-.46-.09-.91-.46-1.16.42-.14.73-.53.75-1v-.1s0-.01,0-.01Z"/>
        <g>
          <g>
            <polyline class="cls-5" points="188.93 144.87 180.61 141.26 180.61 137.62 174.47 137.62 174.47 141.26 166.12 144.92"/>
            <polygon class="cls-5" points="177.54 143.75 180.61 141.26 180.61 137.62 174.47 137.62 174.47 141.26 177.54 143.75"/>
            <polygon class="cls-5" points="177.54 143.75 175.37 145.53 173.36 141.72 174.47 140.75 177.54 143.75"/>
            <polygon class="cls-5" points="177.54 143.75 179.71 145.53 181.72 141.72 180.61 140.75 177.54 143.75"/>
            <polyline class="cls-6" points="178.95 144.91 178.29 146.3 177.54 146.3 176.79 146.3 176.13 144.91"/>
            <line class="cls-6" x1="178.81" y1="150.13" x2="178.29" y2="146.31"/>
            <line class="cls-6" x1="176.79" y1="146.31" x2="176.27" y2="150.13"/>
          </g>
          <path class="cls-5" d="m182.57,131.63c0,3.61,0-1.21,0,2.4-.13,2.89-2.37,5.7-5.02,5.68-2.63-.02-4.82-2.82-4.95-5.68,0-3.61,0,.65,0-2.96"/>
          <path class="cls-5" d="m172.61,131.08s2.18-1.19,2.85-3.24c0,0,2.14,3.49,7.12,3.8"/>
        </g>
      </g>
      <g>
        <path class="cls-4" d="m33.13,116.23c.01-.47-.26-.88-.67-1.05.38-.23.59-.68.51-1.14v-.05c-.09-.46-.45-.81-.88-.9.32-.3.44-.77.27-1.21l-.03-.07c-.18-.44-.6-.69-1.05-.68.26-.37.28-.88,0-1.28l-.03-.04c-.27-.39-.75-.56-1.19-.45.17-.42.06-.93-.29-1.25,0,0-.02-.02-.02-.02-.35-.32-.85-.37-1.25-.17.06-.44-.16-.9-.58-1.12l-.05-.03c-.42-.23-.93-.15-1.27.15-.06-.45-.39-.84-.85-.95,0,0-.05-.01-.06-.01-.47-.11-.92.11-1.16.5-.16-.42-.57-.73-1.05-.72h-.09c-.48.02-.87.34-1,.78-.27-.36-.75-.54-1.21-.4l-.07.02c-.46.15-.74.56-.76,1.01-.36-.29-.87-.33-1.28-.08l-.04.02c-.41.25-.6.72-.51,1.16-.41-.18-.91-.1-1.24.24l-.04.04c-.33.34-.4.83-.22,1.24-.44-.08-.89.11-1.14.5l-.04.06c-.25.41-.2.89.08,1.24-.44,0-.86.29-1.02.73l-.02.07c-.16.45,0,.92.34,1.2-.43.1-.78.46-.85.92v.07c-.07.47.17.9.56,1.11-.4.19-.67.6-.64,1.07v.07c.04.47.36.84.79.97-.36.26-.54.73-.41,1.18l.02.07c.13.46.53.75.97.79-.3.34-.37.83-.15,1.25l.03.06c.23.42.68.62,1.12.56-.22.4-.18.91.14,1.27l.03.03c.31.36.8.47,1.22.32-.11.43.04.91.43,1.18l.06.04c.39.28.89.25,1.26-.01-.01.46.26.89.71,1.07l.07.03c.45.17.93.02,1.22-.33.11.44.49.79.97.84h.07s.04.01.07.01c.45.01.85-.25,1.03-.65.22.4.68.65,1.16.57,0,0,.06,0,.06,0,.48-.08.81-.46.88-.91.31.33.81.45,1.25.26l.08-.03c.43-.2.67-.64.63-1.09.39.24.9.22,1.27-.08l.05-.04c.38-.3.49-.79.34-1.21.43.15.93.01,1.23-.37l.03-.04c.29-.37.31-.87.08-1.25.44.04.88-.21,1.09-.63l.02-.04c.2-.42.12-.91-.19-1.24.43-.06.81-.38.92-.83l.02-.07c.11-.46-.09-.91-.46-1.16.42-.14.73-.53.75-1v-.1s0-.01,0-.01Z"/>
        <g>
          <g>
            <polyline class="cls-5" points="35.04 126.87 26.72 123.26 26.72 119.62 20.58 119.62 20.58 123.26 12.24 126.92"/>
            <polygon class="cls-5" points="23.65 125.75 26.72 123.26 26.72 119.62 20.58 119.62 20.58 123.26 23.65 125.75"/>
            <polygon class="cls-5" points="23.65 125.75 21.48 127.53 19.47 123.72 20.58 122.74 23.65 125.75"/>
            <polygon class="cls-5" points="23.65 125.75 25.82 127.53 27.83 123.72 26.72 122.74 23.65 125.75"/>
            <polyline class="cls-6" points="25.06 126.91 24.4 128.3 23.65 128.3 22.9 128.3 22.24 126.91"/>
            <line class="cls-6" x1="24.92" y1="132.13" x2="24.4" y2="128.3"/>
            <line class="cls-6" x1="22.9" y1="128.3" x2="22.39" y2="132.13"/>
          </g>
          <path class="cls-5" d="m28.69,113.62c0,3.61,0-1.21,0,2.4-.13,2.89-2.37,5.7-5.02,5.68-2.63-.02-4.82-2.82-4.95-5.68,0-3.61,0,.65,0-2.96"/>
          <path class="cls-5" d="m18.72,113.08s2.18-1.19,2.85-3.24c0,0,2.14,3.49,7.12,3.8"/>
        </g>
      </g>
    </g>
  </g>
</svg>