<?xml version="1.0" encoding="UTF-8"?>
<svg id="Layer_2" data-name="Layer 2" xmlns="http://www.w3.org/2000/svg" viewBox="0 0 247.97 328.53">
  <defs>
    <style>
      .cls-1, .cls-2 {
        fill: #a59a6e;
      }

      .cls-3 {
        fill: #aa2734;
      }

      .cls-4 {
        fill: #54565a;
      }

      .cls-4, .cls-2, .cls-5, .cls-6 {
        stroke: #000;
        stroke-linecap: round;
        stroke-linejoin: round;
        stroke-width: 1.5px;
      }

      .cls-5 {
        fill: #fff;
      }

      .cls-6 {
        fill: none;
      }
    </style>
  </defs>
  <g id="Content">
    <g>
      <g>
        <path class="cls-3" d="m120.23,1.5c10.74,0,19.5,8.66,19.6,19.42.09,10.34-7.84,18.89-17.99,19.71-.47.04-.95.06-1.43.07-.07,0-.14,0-.2,0-.53,0-1.06-.02-1.58-.07-10-.81-17.9-9.13-17.99-19.35-.1-10.82,8.6-19.68,19.42-19.78.06,0,.12,0,.18,0m0-1.5h-.19c-11.63.11-21.01,9.66-20.91,21.29.1,10.99,8.43,19.95,19.37,20.84.58.05,1.15.07,1.7.07h.22c.53,0,1.05-.03,1.55-.07,10.95-.89,19.46-10.21,19.36-21.22-.1-11.53-9.57-20.91-21.1-20.91h0Z"/>
        <g>
          <path class="cls-4" d="m132.27,20.45c.02-.59-.33-1.11-.85-1.34.48-.3.75-.86.65-1.45v-.07c-.11-.59-.57-1.03-1.12-1.14.4-.38.56-.98.34-1.53l-.04-.09c-.23-.56-.77-.88-1.33-.86.33-.47.35-1.12,0-1.62l-.03-.05c-.34-.5-.96-.71-1.51-.57.21-.54.08-1.18-.37-1.58,0,0-.03-.03-.03-.03-.45-.4-1.08-.47-1.59-.21.07-.56-.2-1.14-.73-1.43l-.06-.03c-.54-.29-1.18-.19-1.61.19-.07-.57-.49-1.07-1.08-1.21,0,0-.07-.02-.07-.02-.6-.13-1.17.14-1.47.64-.2-.54-.73-.93-1.34-.91h-.11c-.61.03-1.1.44-1.27.98-.35-.46-.96-.68-1.54-.5l-.09.03c-.58.19-.94.71-.96,1.28-.45-.36-1.11-.42-1.63-.1l-.05.03c-.52.32-.76.91-.65,1.47-.52-.23-1.15-.12-1.57.31l-.05.05c-.42.43-.51,1.05-.28,1.57-.55-.1-1.14.14-1.45.64l-.05.08c-.31.51-.25,1.14.1,1.58-.57.01-1.09.36-1.3.93l-.03.09c-.2.57,0,1.17.43,1.53-.55.13-.99.58-1.07,1.17v.09c-.09.6.22,1.14.72,1.4-.51.24-.85.77-.82,1.36v.09c.05.6.46,1.07,1,1.23-.45.34-.68.93-.52,1.5l.02.09c.17.58.67.96,1.23,1-.38.43-.47,1.06-.19,1.59l.04.08c.29.53.86.79,1.42.71-.28.51-.23,1.16.18,1.62l.04.04c.39.45,1.01.6,1.55.4-.14.55.06,1.15.54,1.5l.07.05c.5.35,1.13.32,1.6-.01-.02.58.33,1.13.9,1.35l.09.03c.57.21,1.18.02,1.55-.42.14.57.62,1.01,1.23,1.07h.09s.06.01.08.01c.58.02,1.08-.32,1.3-.82.28.51.87.82,1.47.72,0,0,.07-.01.08-.01.61-.11,1.03-.58,1.12-1.15.4.42,1.03.57,1.59.33l.1-.04c.55-.26.85-.82.8-1.39.49.3,1.14.28,1.61-.1l.06-.05c.48-.38.63-1,.43-1.54.55.19,1.18.01,1.56-.47l.04-.06c.37-.47.39-1.1.1-1.59.56.05,1.12-.26,1.38-.8l.03-.06c.26-.54.15-1.16-.24-1.57.55-.08,1.02-.48,1.17-1.05l.02-.09c.14-.59-.11-1.16-.58-1.47.53-.18.93-.68.95-1.27v-.12s0-.02,0-.02Z"/>
          <g>
            <g>
              <polyline class="cls-5" points="134.69 33.96 124.12 29.37 124.12 24.75 116.33 24.75 116.33 29.37 105.73 34.02"/>
              <polygon class="cls-5" points="120.23 32.53 124.12 29.37 124.12 24.75 116.33 24.75 116.33 29.37 120.23 32.53"/>
              <polygon class="cls-5" points="120.23 32.53 117.47 34.79 114.92 29.96 116.33 28.72 120.23 32.53"/>
              <polygon class="cls-5" points="120.23 32.53 122.98 34.79 125.54 29.96 124.12 28.72 120.23 32.53"/>
              <polyline class="cls-6" points="122.02 34.01 121.18 35.78 120.23 35.78 119.27 35.78 118.43 34.01"/>
              <line class="cls-6" x1="121.83" y1="40.63" x2="121.18" y2="35.78"/>
              <line class="cls-6" x1="119.27" y1="35.78" x2="118.62" y2="40.63"/>
            </g>
            <path class="cls-5" d="m126.62,17.13c0,4.58,0-1.53,0,3.05-.17,3.67-3.01,7.24-6.37,7.22-3.33-.02-6.12-3.58-6.29-7.22,0-4.58,0,.83,0-3.76"/>
            <path class="cls-5" d="m113.96,16.44s2.77-1.51,3.62-4.11c0,0,2.71,4.43,9.04,4.83"/>
          </g>
        </g>
      </g>
      <g>
        <g>
          <path class="cls-3" d="m76.96,174.15c10.74,0,19.5,8.66,19.6,19.42.09,10.34-7.84,18.89-17.99,19.71-.47.04-.95.06-1.43.07-.07,0-.14,0-.2,0-.53,0-1.06-.02-1.58-.07-10-.81-17.9-9.13-17.99-19.35-.1-10.82,8.6-19.68,19.42-19.78.06,0,.12,0,.18,0m0-1.5h-.19c-11.63.11-21.01,9.66-20.91,21.29.1,10.99,8.43,19.95,19.37,20.84.58.05,1.15.07,1.71.07h.22c.53,0,1.05-.03,1.55-.07,10.95-.89,19.46-10.21,19.36-21.22-.1-11.53-9.57-20.91-21.1-20.91h0Z"/>
          <g>
            <path class="cls-4" d="m89,193.1c.02-.59-.33-1.11-.85-1.34.48-.3.75-.86.65-1.45v-.07c-.11-.59-.57-1.03-1.12-1.14.4-.38.56-.98.34-1.53l-.04-.09c-.23-.56-.77-.88-1.33-.86.33-.47.35-1.12,0-1.62l-.03-.05c-.34-.5-.96-.71-1.51-.57.21-.54.08-1.18-.37-1.58,0,0-.03-.03-.03-.03-.45-.4-1.08-.47-1.59-.21.07-.56-.2-1.14-.73-1.43l-.06-.03c-.54-.29-1.18-.19-1.61.19-.07-.57-.49-1.07-1.08-1.21,0,0-.07-.02-.07-.02-.6-.13-1.17.14-1.47.64-.2-.54-.73-.93-1.34-.91h-.11c-.61.03-1.1.44-1.27.98-.35-.46-.96-.68-1.54-.5l-.09.03c-.58.19-.94.71-.96,1.28-.45-.36-1.11-.42-1.63-.1l-.05.03c-.52.32-.76.91-.65,1.47-.52-.23-1.15-.12-1.57.31l-.05.05c-.42.43-.51,1.05-.28,1.57-.55-.1-1.14.14-1.45.64l-.05.08c-.31.51-.25,1.14.1,1.58-.57.01-1.09.36-1.3.93l-.03.09c-.2.57,0,1.17.43,1.53-.55.13-.99.58-1.07,1.17v.09c-.09.6.22,1.14.72,1.4-.51.24-.85.77-.82,1.36v.09c.05.6.46,1.07,1,1.23-.45.34-.68.93-.52,1.5l.02.09c.17.58.67.96,1.23,1-.38.43-.47,1.06-.19,1.59l.04.08c.29.53.86.79,1.42.71-.28.51-.23,1.16.18,1.62l.04.04c.39.45,1.01.6,1.55.4-.14.55.06,1.15.54,1.5l.07.05c.5.35,1.13.32,1.6-.01-.02.58.33,1.13.9,1.35l.09.03c.57.21,1.18.02,1.55-.42.14.57.62,1.01,1.23,1.07h.09s.06.01.08.01c.58.02,1.08-.32,1.3-.82.28.51.87.82,1.47.72,0,0,.07-.01.08-.01.61-.11,1.03-.58,1.12-1.15.4.42,1.03.57,1.59.33l.1-.04c.55-.26.85-.82.8-1.39.49.3,1.14.28,1.61-.1l.06-.05c.48-.38.63-1,.43-1.54.55.19,1.18.01,1.56-.47l.04-.06c.37-.47.39-1.1.1-1.59.56.05,1.12-.26,1.38-.8l.03-.06c.26-.54.15-1.16-.24-1.57.55-.08,1.02-.48,1.17-1.05l.02-.09c.14-.59-.11-1.16-.58-1.47.53-.18.93-.68.95-1.27v-.12s0-.02,0-.02Z"/>
            <g>
              <g>
                <polyline class="cls-5" points="91.42 206.61 80.85 202.02 80.85 197.4 73.06 197.4 73.06 202.02 62.46 206.67"/>
                <polygon class="cls-5" points="76.96 205.18 80.85 202.02 80.85 197.4 73.06 197.4 73.06 202.02 76.96 205.18"/>
                <polygon class="cls-5" points="76.96 205.18 74.2 207.44 71.65 202.61 73.06 201.37 76.96 205.18"/>
                <polygon class="cls-5" points="76.96 205.18 79.71 207.44 82.26 202.61 80.85 201.37 76.96 205.18"/>
                <polyline class="cls-6" points="78.75 206.66 77.91 208.43 76.96 208.43 76 208.43 75.16 206.66"/>
                <line class="cls-6" x1="78.56" y1="213.28" x2="77.91" y2="208.43"/>
                <line class="cls-6" x1="76" y1="208.43" x2="75.35" y2="213.28"/>
              </g>
              <path class="cls-5" d="m83.35,189.79c0,4.58,0-1.53,0,3.05-.17,3.67-3.01,7.24-6.37,7.22-3.33-.02-6.12-3.58-6.29-7.22,0-4.58,0,.83,0-3.76"/>
              <path class="cls-5" d="m70.69,189.09s2.77-1.51,3.62-4.11c0,0,2.71,4.43,9.04,4.83"/>
            </g>
          </g>
        </g>
        <g>
          <path class="cls-3" d="m48.45,131.09c10.74,0,19.5,8.66,19.6,19.42.09,10.34-7.84,18.89-17.99,19.71-.47.04-.95.06-1.43.07-.07,0-.14,0-.2,0-.53,0-1.06-.02-1.58-.07-10-.81-17.9-9.13-17.99-19.35-.1-10.82,8.6-19.68,19.42-19.78.06,0,.12,0,.18,0m0-1.5h-.19c-11.63.11-21.01,9.66-20.91,21.29.1,10.99,8.43,19.95,19.37,20.84.58.05,1.15.07,1.7.07h.22c.53,0,1.05-.03,1.55-.07,10.95-.89,19.46-10.21,19.36-21.22-.1-11.53-9.57-20.91-21.1-20.91h0Z"/>
          <g>
            <path class="cls-4" d="m60.49,150.03c.02-.59-.33-1.11-.85-1.34.48-.3.75-.86.65-1.45v-.07c-.11-.59-.57-1.03-1.12-1.14.4-.38.56-.98.34-1.53l-.04-.09c-.23-.56-.77-.88-1.33-.86.33-.47.35-1.12,0-1.62l-.03-.05c-.34-.5-.96-.71-1.51-.57.21-.54.08-1.18-.37-1.58,0,0-.03-.03-.03-.03-.45-.4-1.08-.47-1.59-.21.07-.56-.2-1.14-.73-1.43l-.06-.03c-.54-.29-1.18-.19-1.61.19-.07-.57-.49-1.07-1.08-1.21,0,0-.07-.02-.07-.02-.6-.13-1.17.14-1.47.64-.2-.54-.73-.93-1.34-.91h-.11c-.61.03-1.1.44-1.27.98-.35-.46-.96-.68-1.54-.5l-.09.03c-.58.19-.94.71-.96,1.28-.45-.36-1.11-.42-1.63-.1l-.05.03c-.52.32-.76.91-.65,1.47-.52-.23-1.15-.12-1.57.31l-.05.05c-.42.43-.51,1.05-.28,1.57-.55-.1-1.14.14-1.45.64l-.05.08c-.31.51-.25,1.14.1,1.58-.57.01-1.09.36-1.3.93l-.03.09c-.2.57,0,1.17.43,1.53-.55.13-.99.58-1.07,1.17v.09c-.09.6.22,1.14.72,1.4-.51.24-.85.77-.82,1.36v.09c.05.6.46,1.07,1,1.23-.45.34-.68.93-.52,1.5l.02.09c.17.58.67.96,1.23,1-.38.43-.47,1.06-.19,1.59l.04.08c.29.53.86.79,1.42.71-.28.51-.23,1.16.18,1.62l.04.04c.39.45,1.01.6,1.55.4-.14.55.06,1.15.54,1.5l.07.05c.5.35,1.13.32,1.6-.01-.02.58.33,1.13.9,1.35l.09.03c.57.21,1.18.02,1.55-.42.14.57.62,1.01,1.23,1.07h.09s.06.01.08.01c.58.02,1.08-.32,1.3-.82.28.51.87.82,1.47.72,0,0,.07-.01.08-.01.61-.11,1.03-.58,1.12-1.15.4.42,1.03.57,1.59.33l.1-.04c.55-.26.85-.82.8-1.39.49.3,1.14.28,1.61-.1l.06-.05c.48-.38.63-1,.43-1.54.55.19,1.18.01,1.56-.47l.04-.06c.37-.47.39-1.1.1-1.59.56.05,1.12-.26,1.38-.8l.03-.06c.26-.54.15-1.16-.24-1.57.55-.08,1.02-.48,1.17-1.05l.02-.09c.14-.59-.11-1.16-.58-1.47.53-.18.93-.68.95-1.27v-.12s0-.02,0-.02Z"/>
            <g>
              <g>
                <polyline class="cls-5" points="62.91 163.54 52.34 158.96 52.34 154.34 44.55 154.34 44.55 158.96 33.95 163.61"/>
                <polygon class="cls-5" points="48.44 162.12 52.34 158.96 52.34 154.34 44.55 154.34 44.55 158.96 48.44 162.12"/>
                <polygon class="cls-5" points="48.44 162.12 45.69 164.38 43.14 159.54 44.55 158.31 48.44 162.12"/>
                <polygon class="cls-5" points="48.44 162.12 51.2 164.38 53.75 159.54 52.34 158.31 48.44 162.12"/>
                <polyline class="cls-6" points="50.24 163.59 49.4 165.37 48.44 165.37 47.49 165.37 46.65 163.59"/>
                <line class="cls-6" x1="50.05" y1="170.22" x2="49.4" y2="165.37"/>
                <line class="cls-6" x1="47.49" y1="165.37" x2="46.84" y2="170.22"/>
              </g>
              <path class="cls-5" d="m54.84,146.72c0,4.58,0-1.53,0,3.05-.17,3.67-3.01,7.24-6.37,7.22-3.33-.02-6.12-3.58-6.29-7.22,0-4.58,0,.83,0-3.76"/>
              <path class="cls-5" d="m42.18,146.03s2.77-1.51,3.62-4.11c0,0,2.71,4.43,9.04,4.83"/>
            </g>
          </g>
        </g>
        <g>
          <path class="cls-3" d="m21.1,174.96c10.74,0,19.5,8.66,19.6,19.42.09,10.34-7.84,18.89-17.99,19.71-.47.04-.95.06-1.43.07-.07,0-.14,0-.21,0-.53,0-1.06-.02-1.58-.07-10-.81-17.9-9.13-17.99-19.35-.1-10.82,8.6-19.68,19.42-19.78.06,0,.12,0,.18,0m0-1.5h-.19C9.27,173.57-.1,183.12,0,194.75c.1,10.99,8.43,19.95,19.37,20.84.58.05,1.15.07,1.7.07h.22c.53,0,1.05-.03,1.55-.07,10.95-.89,19.46-10.21,19.36-21.22-.1-11.53-9.57-20.91-21.1-20.91h0Z"/>
          <g>
            <path class="cls-4" d="m33.14,193.91c.02-.59-.33-1.11-.85-1.34.48-.3.75-.86.65-1.45v-.07c-.11-.59-.57-1.03-1.12-1.14.4-.38.56-.98.34-1.53l-.04-.09c-.23-.56-.77-.88-1.33-.86.33-.47.35-1.12,0-1.62l-.03-.05c-.34-.5-.96-.71-1.51-.57.21-.54.08-1.18-.37-1.58,0,0-.03-.03-.03-.03-.45-.4-1.08-.47-1.59-.21.07-.56-.2-1.14-.73-1.43l-.06-.03c-.54-.29-1.18-.19-1.61.19-.07-.57-.49-1.07-1.08-1.21,0,0-.07-.02-.07-.02-.6-.13-1.17.14-1.47.64-.2-.54-.73-.93-1.34-.91h-.11c-.61.03-1.1.44-1.27.98-.35-.46-.96-.68-1.54-.5l-.09.03c-.58.19-.94.71-.96,1.28-.45-.36-1.11-.42-1.63-.1l-.05.03c-.52.32-.76.91-.65,1.47-.52-.23-1.15-.12-1.57.31l-.05.05c-.42.43-.51,1.05-.28,1.57-.55-.1-1.14.14-1.45.64l-.05.08c-.31.51-.25,1.14.1,1.58-.57.01-1.09.36-1.3.93l-.03.09c-.2.57,0,1.17.43,1.53-.55.13-.99.58-1.07,1.17v.09c-.09.6.22,1.14.72,1.4-.51.24-.85.77-.82,1.36v.09c.05.6.46,1.07,1,1.23-.45.34-.68.93-.52,1.5l.02.09c.17.58.67.96,1.23,1-.38.43-.47,1.06-.19,1.59l.04.08c.29.53.86.79,1.42.71-.28.51-.23,1.16.18,1.62l.04.04c.39.45,1.01.6,1.55.4-.14.55.06,1.15.54,1.5l.07.05c.5.35,1.13.32,1.6-.01-.02.58.33,1.13.9,1.35l.09.03c.57.21,1.18.02,1.55-.42.14.57.62,1.01,1.23,1.07h.09s.06.01.08.01c.58.02,1.08-.32,1.3-.82.28.51.87.82,1.47.72,0,0,.07-.01.08-.01.61-.11,1.03-.58,1.12-1.15.4.42,1.03.57,1.59.33l.1-.04c.55-.26.85-.82.8-1.39.49.3,1.14.28,1.61-.1l.06-.05c.48-.38.63-1,.43-1.54.55.19,1.18.01,1.56-.47l.04-.06c.37-.47.39-1.1.1-1.59.56.05,1.12-.26,1.38-.8l.03-.06c.26-.54.15-1.16-.24-1.57.55-.08,1.02-.48,1.17-1.05l.02-.09c.14-.59-.11-1.16-.58-1.47.53-.18.93-.68.95-1.27v-.12s0-.02,0-.02Z"/>
            <g>
              <g>
                <polyline class="cls-5" points="35.57 207.42 25 202.83 25 198.21 17.2 198.21 17.2 202.83 6.6 207.48"/>
                <polygon class="cls-5" points="21.1 205.99 25 202.83 25 198.21 17.2 198.21 17.2 202.83 21.1 205.99"/>
                <polygon class="cls-5" points="21.1 205.99 18.34 208.26 15.79 203.42 17.2 202.18 21.1 205.99"/>
                <polygon class="cls-5" points="21.1 205.99 23.85 208.26 26.41 203.42 25 202.18 21.1 205.99"/>
                <polyline class="cls-6" points="22.89 207.47 22.05 209.24 21.1 209.24 20.14 209.24 19.31 207.47"/>
                <line class="cls-6" x1="22.71" y1="214.1" x2="22.05" y2="209.24"/>
                <line class="cls-6" x1="20.14" y1="209.24" x2="19.49" y2="214.1"/>
              </g>
              <path class="cls-5" d="m27.49,190.6c0,4.58,0-1.53,0,3.05-.17,3.67-3.01,7.24-6.37,7.22-3.33-.02-6.12-3.58-6.29-7.22,0-4.58,0,.83,0-3.76"/>
              <path class="cls-5" d="m14.83,189.9s2.77-1.51,3.62-4.11c0,0,2.71,4.43,9.04,4.83"/>
            </g>
          </g>
        </g>
      </g>
      <g>
        <line class="cls-6" x1="125.54" y1="49.59" x2="148.25" y2="271.04"/>
        <polygon points="141.64 266.72 142.63 265.59 148.19 270.47 152.65 264.57 153.85 265.47 148.42 272.66 141.64 266.72"/>
      </g>
      <g>
        <line class="cls-6" x1="113.08" y1="49.59" x2="102.08" y2="271.86"/>
        <polygon points="96.2 266.59 97.35 265.62 102.11 271.28 107.41 266.12 108.45 267.2 102 273.48 96.2 266.59"/>
      </g>
      <g>
        <line class="cls-6" x1="95.76" y1="41.17" x2="61.63" y2="116.17"/>
        <polygon points="58.1 109.1 59.53 108.63 61.87 115.64 68.69 112.8 69.27 114.18 60.95 117.65 58.1 109.1"/>
      </g>
      <g>
        <line class="cls-6" x1="142.94" y1="41.17" x2="179.93" y2="116.19"/>
        <polygon points="172.23 114.44 172.77 113.04 179.68 115.67 181.8 108.59 183.24 109.02 180.65 117.65 172.23 114.44"/>
      </g>
      <g>
        <g>
          <polygon class="cls-1" points="66.72 279.29 58.72 277.91 58.72 271.83 63.65 272.25 64.98 276.7 66.72 279.29"/>
          <path class="cls-2" d="m60.95,270.99c.93-.34,2.2.09,3.1,1.58.68,1.12.71,3.24.85,3.67.28.86,1.21,1.84,3.1,1.44,0,0-.15,1.42-1.23,1.63"/>
          <path class="cls-2" d="m63.28,263.68c0,3.39-2.75,6.14-6.14,6.14s-6.14-2.75-6.14-6.14,2.75-6.19,6.14-6.19,6.14,2.8,6.14,6.19Z"/>
          <g>
            <path class="cls-5" d="m70.2,281.89c-.17-.88-.8-1.62-1.67-1.98l-8.39-2.82v-4.19h-5.99v4.19l-8.39,2.82c-.88.36-1.51,1.1-1.67,1.98"/>
            <path class="cls-5" d="m62.95,264.86c0,4.2,0-.77,0,3.43-.15,3.37-2.76,6.64-5.85,6.62-3.06-.02-5.62-3.28-5.77-6.62,0-4.2,0,.85,0-3.35l5.36-.06c1.32-.01,2.48-.89,2.86-2.15l.14-.47.04.18c.3,1.51,1.69,2.56,3.23,2.42h0Z"/>
            <path class="cls-5" d="m50.07,278.61s2.24,3.09,7.07,3.09,7.07-3.09,7.07-3.09"/>
          </g>
        </g>
        <g>
          <polygon class="cls-1" points="44.97 320.99 36.97 319.61 36.97 313.53 41.91 313.96 43.23 318.41 44.97 320.99"/>
          <path class="cls-2" d="m39.21,312.7c.93-.34,2.2.09,3.1,1.58.68,1.12.71,3.24.85,3.67.28.86,1.21,1.84,3.1,1.44,0,0-.15,1.42-1.23,1.63"/>
          <path class="cls-2" d="m41.53,305.38c0,3.39-2.75,6.14-6.14,6.14s-6.14-2.75-6.14-6.14,2.75-6.19,6.14-6.19,6.14,2.8,6.14,6.19Z"/>
          <g>
            <path class="cls-5" d="m48.46,323.59c-.17-.88-.8-1.62-1.67-1.98l-8.39-2.82v-4.19h-5.99v4.19l-8.39,2.82c-.88.36-1.51,1.1-1.67,1.98"/>
            <path class="cls-5" d="m41.2,306.56c0,4.2,0-.77,0,3.43-.15,3.37-2.76,6.64-5.85,6.62-3.06-.02-5.62-3.28-5.77-6.62,0-4.2,0,.85,0-3.35l5.36-.06c1.32-.01,2.48-.89,2.86-2.15l.14-.47.04.18c.3,1.51,1.69,2.56,3.23,2.42h0Z"/>
            <path class="cls-5" d="m28.33,320.31s2.24,3.09,7.07,3.09,7.07-3.09,7.07-3.09"/>
          </g>
        </g>
        <g>
          <polygon class="cls-1" points="87.9 320.96 79.9 319.58 79.9 313.51 84.83 313.93 86.16 318.38 87.9 320.96"/>
          <path class="cls-2" d="m82.14,312.67c.93-.34,2.2.09,3.1,1.58.68,1.12.71,3.24.85,3.67.28.86,1.21,1.84,3.1,1.44,0,0-.15,1.42-1.23,1.63"/>
          <path class="cls-2" d="m84.46,305.36c0,3.39-2.75,6.14-6.14,6.14s-6.14-2.75-6.14-6.14,2.75-6.19,6.14-6.19,6.14,2.8,6.14,6.19Z"/>
          <g>
            <path class="cls-5" d="m91.38,323.56c-.17-.88-.8-1.62-1.67-1.98l-8.39-2.82v-4.19h-5.99v4.19l-8.39,2.82c-.88.36-1.51,1.1-1.67,1.98"/>
            <path class="cls-5" d="m84.13,306.54c0,4.2,0-.77,0,3.43-.15,3.37-2.76,6.64-5.85,6.62-3.06-.02-5.62-3.28-5.77-6.62,0-4.2,0,.85,0-3.35l5.36-.06c1.32-.01,2.48-.89,2.86-2.15l.14-.47.04.18c.3,1.51,1.69,2.56,3.23,2.42h0Z"/>
            <path class="cls-5" d="m71.25,320.28s2.24,3.09,7.07,3.09,7.07-3.09,7.07-3.09"/>
          </g>
        </g>
      </g>
      <g>
        <g>
          <g>
            <polygon class="cls-1" points="206.96 166.98 198.97 165.6 198.97 159.53 203.9 159.95 205.22 164.4 206.96 166.98"/>
            <path class="cls-2" d="m201.2,158.69c.93-.34,2.2.09,3.1,1.58.68,1.12.71,3.24.85,3.67.28.86,1.21,1.84,3.1,1.44,0,0-.15,1.42-1.23,1.63"/>
            <path class="cls-2" d="m203.52,151.38c0,3.39-2.75,6.14-6.14,6.14s-6.14-2.75-6.14-6.14,2.75-6.19,6.14-6.19,6.14,2.8,6.14,6.19Z"/>
            <g>
              <path class="cls-5" d="m210.45,169.58c-.17-.88-.8-1.62-1.67-1.98l-8.39-2.82v-4.19h-5.99v4.19l-8.39,2.82c-.88.36-1.51,1.1-1.67,1.98"/>
              <path class="cls-5" d="m203.19,152.56c0,4.2,0-.77,0,3.43-.15,3.37-2.76,6.64-5.85,6.62-3.06-.02-5.62-3.28-5.77-6.62,0-4.2,0,.85,0-3.35l5.36-.06c1.32-.01,2.48-.89,2.86-2.15l.14-.47.04.18c.3,1.51,1.69,2.56,3.23,2.42h0Z"/>
              <path class="cls-5" d="m190.32,166.3s2.24,3.09,7.07,3.09,7.07-3.09,7.07-3.09"/>
            </g>
          </g>
          <path class="cls-3" d="m197.39,135.29c10.74,0,19.5,8.66,19.6,19.42.09,10.34-7.84,18.89-17.99,19.71-.47.04-.95.06-1.43.07-.07,0-.14,0-.2,0-.53,0-1.06-.02-1.58-.07-10-.81-17.9-9.13-17.99-19.35-.1-10.82,8.6-19.68,19.42-19.78.06,0,.12,0,.18,0m0-1.5h-.19c-11.63.11-21.01,9.66-20.91,21.29.1,10.99,8.43,19.95,19.37,20.84.58.05,1.15.07,1.7.07h.22c.53,0,1.05-.03,1.55-.07,10.95-.89,19.46-10.21,19.36-21.22-.1-11.53-9.57-20.91-21.1-20.91h0Z"/>
        </g>
        <g>
          <g>
            <polygon class="cls-1" points="179.37 208.98 171.37 207.6 171.37 201.52 176.3 201.94 177.63 206.4 179.37 208.98"/>
            <path class="cls-2" d="m173.6,200.69c.93-.34,2.2.09,3.1,1.58.68,1.12.71,3.24.85,3.67.28.86,1.21,1.84,3.1,1.44,0,0-.15,1.42-1.23,1.63"/>
            <path class="cls-2" d="m175.93,193.37c0,3.39-2.75,6.14-6.14,6.14s-6.14-2.75-6.14-6.14,2.75-6.19,6.14-6.19,6.14,2.8,6.14,6.19Z"/>
            <g>
              <path class="cls-5" d="m182.85,211.58c-.17-.88-.8-1.62-1.67-1.98l-8.39-2.82v-4.19h-5.99v4.19l-8.39,2.82c-.88.36-1.51,1.1-1.67,1.98"/>
              <path class="cls-5" d="m175.6,194.55c0,4.2,0-.77,0,3.43-.15,3.37-2.76,6.64-5.85,6.62-3.06-.02-5.62-3.28-5.77-6.62,0-4.2,0,.85,0-3.35l5.36-.06c1.32-.01,2.48-.89,2.86-2.15l.14-.47.04.18c.3,1.51,1.69,2.56,3.23,2.42h0Z"/>
              <path class="cls-5" d="m162.72,208.3s2.24,3.09,7.07,3.09,7.07-3.09,7.07-3.09"/>
            </g>
          </g>
          <path class="cls-3" d="m169.79,177.29c10.74,0,19.5,8.66,19.6,19.42.09,10.34-7.84,18.89-17.99,19.71-.47.04-.95.06-1.43.07-.07,0-.14,0-.21,0-.53,0-1.06-.02-1.58-.07-10-.81-17.9-9.13-17.99-19.35-.1-10.82,8.6-19.68,19.42-19.78.06,0,.12,0,.18,0m0-1.5h-.19c-11.63.11-21.01,9.66-20.91,21.29.1,10.99,8.43,19.95,19.37,20.84.58.05,1.15.07,1.7.07h.22c.53,0,1.05-.03,1.55-.07,10.95-.89,19.46-10.21,19.36-21.22-.1-11.53-9.57-20.91-21.1-20.91h0Z"/>
        </g>
        <g>
          <g>
            <polygon class="cls-1" points="236.45 208.98 228.45 207.6 228.45 201.52 233.38 201.94 234.7 206.4 236.45 208.98"/>
            <path class="cls-2" d="m230.68,200.69c.93-.34,2.2.09,3.1,1.58.68,1.12.71,3.24.85,3.67.28.86,1.21,1.84,3.1,1.44,0,0-.15,1.42-1.23,1.63"/>
            <path class="cls-2" d="m233.01,193.37c0,3.39-2.75,6.14-6.14,6.14s-6.14-2.75-6.14-6.14,2.75-6.19,6.14-6.19,6.14,2.8,6.14,6.19Z"/>
            <g>
              <path class="cls-5" d="m239.93,211.58c-.17-.88-.8-1.62-1.67-1.98l-8.39-2.82v-4.19h-5.99v4.19l-8.39,2.82c-.88.36-1.51,1.1-1.67,1.98"/>
              <path class="cls-5" d="m232.68,194.55c0,4.2,0-.77,0,3.43-.15,3.37-2.76,6.64-5.85,6.62-3.06-.02-5.62-3.28-5.77-6.62,0-4.2,0,.85,0-3.35l5.36-.06c1.32-.01,2.48-.89,2.86-2.15l.14-.47.04.18c.3,1.51,1.69,2.56,3.23,2.42h0Z"/>
              <path class="cls-5" d="m219.8,208.3s2.24,3.09,7.07,3.09,7.07-3.09,7.07-3.09"/>
            </g>
          </g>
          <path class="cls-3" d="m226.87,177.29c10.74,0,19.5,8.66,19.6,19.42.09,10.34-7.84,18.89-17.99,19.71-.47.04-.95.06-1.43.07-.07,0-.14,0-.21,0-.53,0-1.06-.02-1.58-.07-10-.81-17.9-9.13-17.99-19.35-.1-10.82,8.6-19.68,19.42-19.78.06,0,.12,0,.18,0m0-1.5h-.19c-11.63.11-21.01,9.66-20.91,21.29.1,10.99,8.43,19.95,19.37,20.84.58.05,1.15.07,1.7.07h.22c.53,0,1.05-.03,1.55-.07,10.95-.89,19.46-10.21,19.36-21.22-.1-11.53-9.57-20.91-21.1-20.91h0Z"/>
        </g>
      </g>
      <g>
        <g>
          <path class="cls-4" d="m176.09,307.59c.02-.59-.33-1.11-.85-1.34.48-.3.75-.86.65-1.45v-.07c-.11-.59-.57-1.03-1.12-1.14.4-.38.56-.98.34-1.53l-.04-.09c-.23-.56-.77-.88-1.33-.86.33-.47.35-1.12,0-1.62l-.03-.05c-.34-.5-.96-.71-1.51-.57.21-.54.08-1.18-.37-1.58,0,0-.03-.03-.03-.03-.45-.4-1.08-.47-1.59-.21.07-.56-.2-1.14-.73-1.43l-.06-.03c-.54-.29-1.18-.19-1.61.19-.07-.57-.49-1.07-1.08-1.21,0,0-.07-.02-.07-.02-.6-.13-1.17.14-1.47.64-.2-.54-.73-.93-1.34-.91h-.11c-.61.03-1.1.44-1.27.98-.35-.46-.96-.68-1.54-.5l-.09.03c-.58.19-.94.71-.96,1.28-.45-.36-1.11-.42-1.63-.1l-.05.03c-.52.32-.76.91-.65,1.47-.52-.23-1.15-.12-1.57.31l-.05.05c-.42.43-.51,1.05-.28,1.57-.55-.1-1.14.14-1.45.64l-.05.08c-.31.51-.25,1.14.1,1.58-.57.01-1.09.36-1.3.93l-.03.09c-.2.57,0,1.17.43,1.53-.55.13-.99.58-1.07,1.17v.09c-.09.6.22,1.14.72,1.4-.51.24-.85.77-.82,1.36v.09c.05.6.46,1.07,1,1.23-.45.34-.68.93-.52,1.5l.02.09c.17.58.67.96,1.23,1-.38.43-.47,1.06-.19,1.59l.04.08c.29.53.86.79,1.42.71-.28.51-.23,1.16.18,1.62l.04.04c.39.45,1.01.6,1.55.4-.14.55.06,1.15.54,1.5l.07.05c.5.35,1.13.32,1.6-.01-.02.58.33,1.13.9,1.35l.09.03c.57.21,1.18.02,1.55-.42.14.57.62,1.01,1.23,1.07h.09s.06.01.08.01c.58.02,1.08-.32,1.3-.82.28.51.87.82,1.47.72,0,0,.07-.01.08-.01.61-.11,1.03-.58,1.12-1.15.4.42,1.03.57,1.59.33l.1-.04c.55-.26.85-.82.8-1.39.49.3,1.14.28,1.61-.1l.06-.05c.48-.38.63-1,.43-1.54.55.19,1.18.01,1.56-.47l.04-.06c.37-.47.39-1.1.1-1.59.56.05,1.12-.26,1.38-.8l.03-.06c.26-.54.15-1.16-.24-1.57.55-.08,1.02-.48,1.17-1.05l.02-.09c.14-.59-.11-1.16-.58-1.47.53-.18.93-.68.95-1.27v-.12s0-.02,0-.02Z"/>
          <g>
            <g>
              <polyline class="cls-5" points="178.52 321.1 167.95 316.52 167.95 311.89 160.15 311.89 160.15 316.52 149.55 321.16"/>
              <polygon class="cls-5" points="164.05 319.67 167.95 316.52 167.95 311.89 160.15 311.89 160.15 316.52 164.05 319.67"/>
              <polygon class="cls-5" points="164.05 319.67 161.29 321.94 158.74 317.1 160.15 315.86 164.05 319.67"/>
              <polygon class="cls-5" points="164.05 319.67 166.8 321.94 169.36 317.1 167.95 315.86 164.05 319.67"/>
              <polyline class="cls-6" points="165.84 321.15 165 322.92 164.05 322.92 163.09 322.92 162.26 321.15"/>
              <line class="cls-6" x1="165.66" y1="327.78" x2="165" y2="322.92"/>
              <line class="cls-6" x1="163.09" y1="322.92" x2="162.44" y2="327.78"/>
            </g>
            <path class="cls-5" d="m170.44,304.28c0,4.58,0-1.53,0,3.05-.17,3.67-3.01,7.24-6.37,7.22-3.33-.02-6.12-3.58-6.29-7.22,0-4.58,0,.83,0-3.76"/>
            <path class="cls-5" d="m157.78,303.58s2.77-1.51,3.62-4.11c0,0,2.71,4.43,9.04,4.83"/>
          </g>
        </g>
        <g>
          <path class="cls-4" d="m225.91,307.32c.02-.59-.33-1.11-.85-1.34.48-.3.75-.86.65-1.45v-.07c-.11-.59-.57-1.03-1.12-1.14.4-.38.56-.98.34-1.53l-.04-.09c-.23-.56-.77-.88-1.33-.86.33-.47.35-1.12,0-1.62l-.03-.05c-.34-.5-.96-.71-1.51-.57.21-.54.08-1.18-.37-1.58,0,0-.03-.03-.03-.03-.45-.4-1.08-.47-1.59-.21.07-.56-.2-1.14-.73-1.43l-.06-.03c-.54-.29-1.18-.19-1.61.19-.07-.57-.49-1.07-1.08-1.21,0,0-.07-.02-.07-.02-.6-.13-1.17.14-1.47.64-.2-.54-.73-.93-1.34-.91h-.11c-.61.03-1.1.44-1.27.98-.35-.46-.96-.68-1.54-.5l-.09.03c-.58.19-.94.71-.96,1.28-.45-.36-1.11-.42-1.63-.1l-.05.03c-.52.32-.76.91-.65,1.47-.52-.23-1.15-.12-1.57.31l-.05.05c-.42.43-.51,1.05-.28,1.57-.55-.1-1.14.14-1.45.64l-.05.08c-.31.51-.25,1.14.1,1.58-.57.01-1.09.36-1.3.93l-.03.09c-.2.57,0,1.17.43,1.53-.55.13-.99.58-1.07,1.17v.09c-.09.6.22,1.14.72,1.4-.51.24-.85.77-.82,1.36v.09c.05.6.46,1.07,1,1.23-.45.34-.68.93-.52,1.5l.02.09c.17.58.67.96,1.23,1-.38.43-.47,1.06-.19,1.59l.04.08c.29.53.86.79,1.42.71-.28.51-.23,1.16.18,1.62l.04.04c.39.45,1.01.6,1.55.4-.14.55.06,1.15.54,1.5l.07.05c.5.35,1.13.32,1.6-.01-.02.58.33,1.13.9,1.35l.09.03c.57.21,1.18.02,1.55-.42.14.57.62,1.01,1.23,1.07h.09s.06.01.08.01c.58.02,1.08-.32,1.3-.82.28.51.87.82,1.47.72,0,0,.07-.01.08-.01.61-.11,1.03-.58,1.12-1.15.4.42,1.03.57,1.59.33l.1-.04c.55-.26.85-.82.8-1.39.49.3,1.14.28,1.61-.1l.06-.05c.48-.38.63-1,.43-1.54.55.19,1.18.01,1.56-.47l.04-.06c.37-.47.39-1.1.1-1.59.56.05,1.12-.26,1.38-.8l.03-.06c.26-.54.15-1.16-.24-1.57.55-.08,1.02-.48,1.17-1.05l.02-.09c.14-.59-.11-1.16-.58-1.47.53-.18.93-.68.95-1.27v-.12s0-.02,0-.02Z"/>
          <g>
            <g>
              <polyline class="cls-5" points="228.33 320.83 217.76 316.25 217.76 311.62 209.97 311.62 209.97 316.25 199.36 320.89"/>
              <polygon class="cls-5" points="213.86 319.4 217.76 316.25 217.76 311.62 209.97 311.62 209.97 316.25 213.86 319.4"/>
              <polygon class="cls-5" points="213.86 319.4 211.11 321.67 208.55 316.83 209.97 315.59 213.86 319.4"/>
              <polygon class="cls-5" points="213.86 319.4 216.62 321.67 219.17 316.83 217.76 315.59 213.86 319.4"/>
              <polyline class="cls-6" points="215.66 320.88 214.82 322.65 213.86 322.65 212.91 322.65 212.07 320.88"/>
              <line class="cls-6" x1="215.47" y1="327.51" x2="214.82" y2="322.65"/>
              <line class="cls-6" x1="212.91" y1="322.65" x2="212.25" y2="327.51"/>
            </g>
            <path class="cls-5" d="m220.26,304.01c0,4.58,0-1.53,0,3.05-.17,3.67-3.01,7.24-6.37,7.22-3.33-.02-6.12-3.58-6.29-7.22,0-4.58,0,.83,0-3.76"/>
            <path class="cls-5" d="m207.6,303.31s2.77-1.51,3.62-4.11c0,0,2.71,4.43,9.04,4.83"/>
          </g>
        </g>
        <g>
          <path class="cls-4" d="m199.36,269.68c.02-.59-.33-1.11-.85-1.34.48-.3.75-.86.65-1.45v-.07c-.11-.59-.57-1.03-1.12-1.14.4-.38.56-.98.34-1.53l-.04-.09c-.23-.56-.77-.88-1.33-.86.33-.47.35-1.12,0-1.62l-.03-.05c-.34-.5-.96-.71-1.51-.57.21-.54.08-1.18-.37-1.58,0,0-.03-.03-.03-.03-.45-.4-1.08-.47-1.59-.21.07-.56-.2-1.14-.73-1.43l-.06-.03c-.54-.29-1.18-.19-1.61.19-.07-.57-.49-1.07-1.08-1.21,0,0-.07-.02-.07-.02-.6-.13-1.17.14-1.47.64-.2-.54-.73-.93-1.34-.91h-.11c-.61.03-1.1.44-1.27.98-.35-.46-.96-.68-1.54-.5l-.09.03c-.58.19-.94.71-.96,1.28-.45-.36-1.11-.42-1.63-.1l-.05.03c-.52.32-.76.91-.65,1.47-.52-.23-1.15-.12-1.57.31l-.05.05c-.42.43-.51,1.05-.28,1.57-.55-.1-1.14.14-1.45.64l-.05.08c-.31.51-.25,1.14.1,1.58-.57.01-1.09.36-1.3.93l-.03.09c-.2.57,0,1.17.43,1.53-.55.13-.99.58-1.07,1.17v.09c-.09.6.22,1.14.72,1.4-.51.24-.85.77-.82,1.36v.09c.05.6.46,1.07,1,1.23-.45.34-.68.93-.52,1.5l.02.09c.17.58.67.96,1.23,1-.38.43-.47,1.06-.19,1.59l.04.08c.29.53.86.79,1.42.71-.28.51-.23,1.16.18,1.62l.04.04c.39.45,1.01.6,1.55.4-.14.55.06,1.15.54,1.5l.07.05c.5.35,1.13.32,1.6-.01-.02.58.33,1.13.9,1.35l.09.03c.57.21,1.18.02,1.55-.42.14.57.62,1.01,1.23,1.07h.09s.06.01.08.01c.58.02,1.08-.32,1.3-.82.28.51.87.82,1.47.72,0,0,.07-.01.08-.01.61-.11,1.03-.58,1.12-1.15.4.42,1.03.57,1.59.33l.1-.04c.55-.26.85-.82.8-1.39.49.3,1.14.28,1.61-.1l.06-.05c.48-.38.63-1,.43-1.54.55.19,1.18.01,1.56-.47l.04-.06c.37-.47.39-1.1.1-1.59.56.05,1.12-.26,1.38-.8l.03-.06c.26-.54.15-1.16-.24-1.57.55-.08,1.02-.48,1.17-1.05l.02-.09c.14-.59-.11-1.16-.58-1.47.53-.18.93-.68.95-1.27v-.12s0-.02,0-.02Z"/>
          <g>
            <g>
              <polyline class="cls-5" points="201.79 283.19 191.22 278.61 191.22 273.99 183.42 273.99 183.42 278.61 172.82 283.26"/>
              <polygon class="cls-5" points="187.32 281.77 191.22 278.61 191.22 273.99 183.42 273.99 183.42 278.61 187.32 281.77"/>
              <polygon class="cls-5" points="187.32 281.77 184.57 284.03 182.01 279.19 183.42 277.95 187.32 281.77"/>
              <polygon class="cls-5" points="187.32 281.77 190.08 284.03 192.63 279.19 191.22 277.95 187.32 281.77"/>
              <polyline class="cls-6" points="189.11 283.24 188.28 285.01 187.32 285.01 186.37 285.01 185.53 283.24"/>
              <line class="cls-6" x1="188.93" y1="289.87" x2="188.28" y2="285.01"/>
              <line class="cls-6" x1="186.37" y1="285.01" x2="185.71" y2="289.87"/>
            </g>
            <path class="cls-5" d="m193.72,266.37c0,4.58,0-1.53,0,3.05-.17,3.67-3.01,7.24-6.37,7.22-3.33-.02-6.12-3.58-6.29-7.22,0-4.58,0,.83,0-3.76"/>
            <path class="cls-5" d="m181.06,265.68s2.77-1.51,3.62-4.11c0,0,2.71,4.43,9.04,4.83"/>
          </g>
        </g>
      </g>
    </g>
  </g>
</svg>