<?xml version="1.0" encoding="UTF-8"?>
<svg id="Layer_2" data-name="Layer 2" xmlns="http://www.w3.org/2000/svg" viewBox="0 0 155.97 124.88">
  <defs>
    <style>
      .cls-1, .cls-2 {
        fill: #a59a6e;
      }

      .cls-3 {
        fill: #aa2734;
      }

      .cls-4 {
        fill: #54565a;
      }

      .cls-4, .cls-2, .cls-5, .cls-6 {
        stroke: #000;
        stroke-linecap: round;
        stroke-linejoin: round;
        stroke-width: 1.5px;
      }

      .cls-5 {
        fill: #fff;
      }

      .cls-6 {
        fill: none;
      }
    </style>
  </defs>
  <g id="Content">
    <g>
      <g>
        <path class="cls-3" d="m78.11,1.5c8.46,0,15.35,6.82,15.43,15.29.07,8.14-6.17,14.87-14.16,15.52-.37.03-.75.05-1.13.05-.05,0-.11,0-.16,0-.42,0-.84-.02-1.25-.05-7.87-.64-14.09-7.19-14.16-15.24-.08-8.52,6.77-15.49,15.29-15.57.05,0,.09,0,.14,0m0-1.5h-.16c-9.33.09-16.86,7.75-16.78,17.09.08,8.82,6.76,16.01,15.54,16.72.46.04.92.06,1.37.06h.18c.42,0,.84-.02,1.24-.06,8.78-.71,15.61-8.19,15.53-17.02-.08-9.25-7.68-16.78-16.93-16.78h0Z"/>
        <g>
          <path class="cls-4" d="m87.59,16.42c.01-.47-.26-.88-.67-1.05.38-.23.59-.68.51-1.14v-.05c-.09-.46-.45-.81-.88-.9.32-.3.44-.77.27-1.21l-.03-.07c-.18-.44-.6-.69-1.05-.68.26-.37.28-.88,0-1.28l-.03-.04c-.27-.39-.75-.56-1.19-.45.17-.42.06-.93-.29-1.25,0,0-.02-.02-.02-.02-.35-.32-.85-.37-1.25-.17.06-.44-.16-.9-.58-1.12l-.05-.03c-.42-.23-.93-.15-1.27.15-.06-.45-.39-.84-.85-.95,0,0-.05-.01-.06-.01-.47-.11-.92.11-1.16.5-.16-.42-.57-.73-1.05-.72h-.09c-.48.02-.87.34-1,.78-.27-.36-.75-.54-1.21-.4l-.07.02c-.46.15-.74.56-.76,1.01-.36-.29-.87-.33-1.28-.08l-.04.02c-.41.25-.6.72-.51,1.16-.41-.18-.91-.1-1.24.24l-.04.04c-.33.34-.4.83-.22,1.24-.44-.08-.89.11-1.14.5l-.04.06c-.25.41-.2.89.08,1.24-.44,0-.86.29-1.02.73l-.02.07c-.16.45,0,.92.34,1.2-.43.1-.78.46-.85.92v.07c-.07.47.17.9.56,1.11-.4.19-.67.6-.64,1.07v.07c.04.47.36.84.79.97-.36.26-.54.73-.41,1.18l.02.07c.13.46.53.75.97.79-.3.34-.37.83-.15,1.25l.03.06c.23.42.68.62,1.12.56-.22.4-.18.91.14,1.27l.03.03c.31.36.8.47,1.22.32-.11.43.04.91.43,1.18l.06.04c.39.28.89.25,1.26-.01-.01.46.26.89.71,1.07l.07.03c.45.17.93.02,1.22-.33.11.44.49.79.97.84h.07s.04.01.07.01c.45.01.85-.25,1.03-.65.22.4.68.65,1.16.57,0,0,.06,0,.06,0,.48-.08.81-.46.88-.91.31.33.81.45,1.25.26l.08-.03c.43-.2.67-.64.63-1.09.39.24.9.22,1.27-.08l.05-.04c.38-.3.49-.79.34-1.21.43.15.93.01,1.23-.37l.03-.04c.29-.37.31-.87.08-1.25.44.04.88-.21,1.09-.63l.02-.04c.2-.42.12-.91-.19-1.24.43-.06.81-.38.92-.83l.02-.07c.11-.46-.09-.91-.46-1.16.42-.14.73-.53.75-1v-.1s0-.01,0-.01Z"/>
          <g>
            <g>
              <polyline class="cls-5" points="89.5 27.05 81.18 23.44 81.18 19.81 75.04 19.81 75.04 23.44 66.7 27.1"/>
              <polygon class="cls-5" points="78.11 25.93 81.18 23.44 81.18 19.81 75.04 19.81 75.04 23.44 78.11 25.93"/>
              <polygon class="cls-5" points="78.11 25.93 75.94 27.71 73.93 23.9 75.04 22.93 78.11 25.93"/>
              <polygon class="cls-5" points="78.11 25.93 80.28 27.71 82.29 23.9 81.18 22.93 78.11 25.93"/>
              <polyline class="cls-6" points="79.52 27.09 78.86 28.49 78.11 28.49 77.36 28.49 76.7 27.09"/>
              <line class="cls-6" x1="79.38" y1="32.31" x2="78.86" y2="28.49"/>
              <line class="cls-6" x1="77.36" y1="28.49" x2="76.84" y2="32.31"/>
            </g>
            <path class="cls-5" d="m83.15,13.81c0,3.61,0-1.21,0,2.4-.13,2.89-2.37,5.7-5.02,5.68-2.63-.02-4.82-2.82-4.95-5.68,0-3.61,0,.65,0-2.96"/>
            <path class="cls-5" d="m73.18,13.26s2.18-1.19,2.85-3.24c0,0,2.14,3.49,7.12,3.8"/>
          </g>
        </g>
      </g>
      <g>
        <path class="cls-3" d="m55.26,62.76c8.46,0,15.35,6.82,15.43,15.29.07,8.14-6.17,14.87-14.16,15.52-.37.03-.75.05-1.13.05-.05,0-.11,0-.16,0-.42,0-.84-.02-1.25-.05-7.87-.64-14.09-7.19-14.16-15.24-.08-8.52,6.77-15.49,15.29-15.57.05,0,.1,0,.14,0m0-1.5v1.5-1.5h-.16c-9.33.09-16.86,7.75-16.78,17.09.08,8.82,6.76,16.01,15.54,16.72.46.04.92.06,1.37.06h.18c.42,0,.84-.02,1.24-.06,8.79-.71,15.61-8.19,15.53-17.02-.08-9.25-7.68-16.78-16.93-16.78h0Z"/>
        <g>
          <path class="cls-4" d="m64.74,77.67c.01-.47-.26-.88-.67-1.05.38-.23.59-.68.51-1.14v-.05c-.09-.46-.45-.81-.88-.9.32-.3.44-.77.27-1.21l-.03-.07c-.18-.44-.6-.69-1.05-.68.26-.37.28-.88,0-1.28l-.03-.04c-.27-.39-.75-.56-1.19-.45.17-.42.06-.93-.29-1.25,0,0-.02-.02-.02-.02-.35-.32-.85-.37-1.25-.17.06-.44-.16-.9-.58-1.12l-.05-.03c-.42-.23-.93-.15-1.27.15-.06-.45-.39-.84-.85-.95,0,0-.05-.01-.06-.01-.47-.11-.92.11-1.16.5-.16-.42-.57-.73-1.05-.72h-.09c-.48.02-.87.34-1,.78-.27-.36-.75-.54-1.21-.4l-.07.02c-.46.15-.74.56-.76,1.01-.36-.29-.87-.33-1.28-.08l-.04.02c-.41.25-.6.72-.51,1.16-.41-.18-.91-.1-1.24.24l-.04.04c-.33.34-.4.83-.22,1.24-.44-.08-.89.11-1.14.5l-.04.06c-.25.41-.2.89.08,1.24-.44,0-.86.29-1.02.73l-.02.07c-.16.45,0,.92.34,1.2-.43.1-.78.46-.85.92v.07c-.07.47.17.9.56,1.11-.4.19-.67.6-.64,1.07v.07c.04.47.36.84.79.97-.36.26-.54.73-.41,1.18l.02.07c.13.46.53.75.97.79-.3.34-.37.83-.15,1.25l.03.06c.23.42.68.62,1.12.56-.22.4-.18.91.14,1.27l.03.03c.31.36.8.47,1.22.32-.11.43.04.91.43,1.18l.06.04c.39.28.89.25,1.26-.01-.01.46.26.89.71,1.07l.07.03c.45.17.93.02,1.22-.33.11.44.49.79.97.84h.07s.04.01.07.01c.45.01.85-.25,1.03-.65.22.4.68.65,1.16.57,0,0,.06,0,.06,0,.48-.08.81-.46.88-.91.31.33.81.45,1.25.26l.08-.03c.43-.2.67-.64.63-1.09.39.24.9.22,1.27-.08l.05-.04c.38-.3.49-.79.34-1.21.43.15.93.01,1.23-.37l.03-.04c.29-.37.31-.87.08-1.25.44.04.88-.21,1.09-.63l.02-.04c.2-.42.12-.91-.19-1.24.43-.06.81-.38.92-.83l.02-.07c.11-.46-.09-.91-.46-1.16.42-.14.73-.53.75-1v-.1s0-.01,0-.01Z"/>
          <g>
            <g>
              <polyline class="cls-5" points="66.65 88.31 58.33 84.7 58.33 81.06 52.19 81.06 52.19 84.7 43.85 88.36"/>
              <polygon class="cls-5" points="55.26 87.19 58.33 84.7 58.33 81.06 52.19 81.06 52.19 84.7 55.26 87.19"/>
              <polygon class="cls-5" points="55.26 87.19 53.09 88.97 51.08 85.16 52.19 84.18 55.26 87.19"/>
              <polygon class="cls-5" points="55.26 87.19 57.43 88.97 59.44 85.16 58.33 84.18 55.26 87.19"/>
              <polyline class="cls-6" points="56.67 88.35 56.01 89.74 55.26 89.74 54.51 89.74 53.85 88.35"/>
              <line class="cls-6" x1="56.53" y1="93.57" x2="56.01" y2="89.74"/>
              <line class="cls-6" x1="54.51" y1="89.74" x2="54" y2="93.57"/>
            </g>
            <path class="cls-5" d="m60.3,75.06c0,3.61,0-1.21,0,2.4-.13,2.89-2.37,5.7-5.02,5.68-2.63-.02-4.82-2.82-4.95-5.68,0-3.61,0,.65,0-2.96"/>
            <path class="cls-5" d="m50.33,74.52s2.18-1.19,2.85-3.24c0,0,2.14,3.49,7.12,3.8"/>
          </g>
        </g>
      </g>
      <g>
        <path class="cls-3" d="m108.72,92.51c8.46,0,15.35,6.82,15.43,15.29.07,8.14-6.17,14.87-14.16,15.52-.37.03-.75.05-1.13.05-.05,0-.11,0-.16,0-.42,0-.83-.02-1.24-.05-7.87-.64-14.09-7.19-14.16-15.24-.08-8.52,6.77-15.49,15.29-15.57.05,0,.1,0,.14,0m0-1.5v1.5-1.5h-.16c-9.33.09-16.86,7.75-16.78,17.09.08,8.82,6.76,16.01,15.54,16.72.46.04.92.06,1.37.06h.18c.42,0,.84-.02,1.24-.06,8.78-.71,15.61-8.19,15.53-17.02-.08-9.25-7.68-16.78-16.93-16.78h0Z"/>
        <g>
          <path class="cls-4" d="m118.2,107.43c.01-.47-.26-.88-.67-1.05.38-.23.59-.68.51-1.14v-.05c-.09-.46-.45-.81-.88-.9.32-.3.44-.77.27-1.21l-.03-.07c-.18-.44-.6-.69-1.05-.68.26-.37.28-.88,0-1.28l-.03-.04c-.27-.39-.75-.56-1.19-.45.17-.42.06-.93-.29-1.25,0,0-.02-.02-.02-.02-.35-.32-.85-.37-1.25-.17.06-.44-.16-.9-.58-1.12l-.05-.03c-.42-.23-.93-.15-1.27.15-.06-.45-.39-.84-.85-.95,0,0-.05-.01-.06-.01-.47-.11-.92.11-1.16.5-.16-.42-.57-.73-1.05-.72h-.09c-.48.02-.87.34-1,.78-.27-.36-.75-.54-1.21-.4l-.07.02c-.46.15-.74.56-.76,1.01-.36-.29-.87-.33-1.28-.08l-.04.02c-.41.25-.6.72-.51,1.16-.41-.18-.91-.1-1.24.24l-.04.04c-.33.34-.4.83-.22,1.24-.44-.08-.89.11-1.14.5l-.04.06c-.25.41-.2.89.08,1.24-.44,0-.86.29-1.02.73l-.02.07c-.16.45,0,.92.34,1.2-.43.1-.78.46-.85.92v.07c-.07.47.17.9.56,1.11-.4.19-.67.6-.64,1.07v.07c.04.47.36.84.79.97-.36.26-.54.73-.41,1.18l.02.07c.13.46.53.75.97.79-.3.34-.37.83-.15,1.25l.03.06c.23.42.68.62,1.12.56-.22.4-.18.91.14,1.27l.03.03c.31.36.8.47,1.22.32-.11.43.04.91.43,1.18l.06.04c.39.28.89.25,1.26-.01-.01.46.26.89.71,1.07l.07.03c.45.17.93.02,1.22-.33.11.44.49.79.97.84h.07s.04.01.07.01c.45.01.85-.25,1.03-.65.22.4.68.65,1.16.57,0,0,.06,0,.06,0,.48-.08.81-.46.88-.91.31.33.81.45,1.25.26l.08-.03c.43-.2.67-.64.63-1.09.39.24.9.22,1.27-.08l.05-.04c.38-.3.49-.79.34-1.21.43.15.93.01,1.23-.37l.03-.04c.29-.37.31-.87.08-1.25.44.04.88-.21,1.09-.63l.02-.04c.2-.42.12-.91-.19-1.24.43-.06.81-.38.92-.83l.02-.07c.11-.46-.09-.91-.46-1.16.42-.14.73-.53.75-1v-.1s0-.01,0-.01Z"/>
          <g>
            <g>
              <polyline class="cls-5" points="120.11 118.06 111.78 114.46 111.78 110.82 105.65 110.82 105.65 114.46 97.3 118.12"/>
              <polygon class="cls-5" points="108.72 116.94 111.78 114.46 111.78 110.82 105.65 110.82 105.65 114.46 108.72 116.94"/>
              <polygon class="cls-5" points="108.72 116.94 106.55 118.73 104.54 114.92 105.65 113.94 108.72 116.94"/>
              <polygon class="cls-5" points="108.72 116.94 110.88 118.73 112.9 114.92 111.78 113.94 108.72 116.94"/>
              <polyline class="cls-6" points="110.13 118.1 109.47 119.5 108.72 119.5 107.96 119.5 107.3 118.1"/>
              <line class="cls-6" x1="109.98" y1="123.32" x2="109.47" y2="119.5"/>
              <line class="cls-6" x1="107.96" y1="119.5" x2="107.45" y2="123.32"/>
            </g>
            <path class="cls-5" d="m113.75,104.82c0,3.61,0-1.21,0,2.4-.13,2.89-2.37,5.7-5.02,5.68-2.63-.02-4.82-2.82-4.95-5.68,0-3.61,0,.65,0-2.96"/>
            <path class="cls-5" d="m103.78,104.27s2.18-1.19,2.85-3.24c0,0,2.14,3.49,7.12,3.8"/>
          </g>
        </g>
      </g>
      <g>
        <path class="cls-3" d="m16.93,86.58c8.46,0,15.35,6.82,15.43,15.29.07,8.14-6.17,14.87-14.16,15.52-.37.03-.75.05-1.13.05-.05,0-.11,0-.16,0-.42,0-.83-.02-1.24-.05-7.87-.64-14.09-7.19-14.16-15.24-.08-8.52,6.77-15.49,15.29-15.57.05,0,.09,0,.14,0m0-1.5v1.5-1.5h-.16C7.44,85.16-.08,92.83,0,102.16c.08,8.82,6.76,16.01,15.54,16.72.46.04.92.06,1.37.06h.18c.42,0,.84-.02,1.24-.06,8.78-.71,15.61-8.19,15.53-17.02-.08-9.25-7.68-16.78-16.93-16.78h0Z"/>
        <g>
          <path class="cls-4" d="m26.41,101.49c.01-.47-.26-.88-.67-1.05.38-.23.59-.68.51-1.14v-.05c-.09-.46-.45-.81-.88-.9.32-.3.44-.77.27-1.21l-.03-.07c-.18-.44-.6-.69-1.05-.68.26-.37.28-.88,0-1.28l-.03-.04c-.27-.39-.75-.56-1.19-.45.17-.42.06-.93-.29-1.25,0,0-.02-.02-.02-.02-.35-.32-.85-.37-1.25-.17.06-.44-.16-.9-.58-1.12l-.05-.03c-.42-.23-.93-.15-1.27.15-.06-.45-.39-.84-.85-.95,0,0-.05-.01-.06-.01-.47-.11-.92.11-1.16.5-.16-.42-.57-.73-1.05-.72h-.09c-.48.02-.87.34-1,.78-.27-.36-.75-.54-1.21-.4l-.07.02c-.46.15-.74.56-.76,1.01-.36-.29-.87-.33-1.28-.08l-.04.02c-.41.25-.6.72-.51,1.16-.41-.18-.91-.1-1.24.24l-.04.04c-.33.34-.4.83-.22,1.24-.44-.08-.89.11-1.14.5l-.04.06c-.25.41-.2.89.08,1.24-.44,0-.86.29-1.02.73l-.02.07c-.16.45,0,.92.34,1.2-.43.1-.78.46-.85.92v.07c-.07.47.17.9.56,1.11-.4.19-.67.6-.64,1.07v.07c.04.47.36.84.79.97-.36.26-.54.73-.41,1.18l.02.07c.13.46.53.75.97.79-.3.34-.37.83-.15,1.25l.03.06c.23.42.68.62,1.12.56-.22.4-.18.91.14,1.27l.03.03c.31.36.8.47,1.22.32-.11.43.04.91.43,1.18l.06.04c.39.28.89.25,1.26-.01-.01.46.26.89.71,1.07l.07.03c.45.17.93.02,1.22-.33.11.44.49.79.97.84h.07s.04.01.07.01c.45.01.85-.25,1.03-.65.22.4.68.65,1.16.57,0,0,.06,0,.06,0,.48-.08.81-.46.88-.91.31.33.81.45,1.25.26l.08-.03c.43-.2.67-.64.63-1.09.39.24.9.22,1.27-.08l.05-.04c.38-.3.49-.79.34-1.21.43.15.93.01,1.23-.37l.03-.04c.29-.37.31-.87.08-1.25.44.04.88-.21,1.09-.63l.02-.04c.2-.42.12-.91-.19-1.24.43-.06.81-.38.92-.83l.02-.07c.11-.46-.09-.91-.46-1.16.42-.14.73-.53.75-1v-.1s0-.01,0-.01Z"/>
          <g>
            <g>
              <polyline class="cls-5" points="28.32 112.13 20 108.52 20 104.88 13.86 104.88 13.86 108.52 5.52 112.18"/>
              <polygon class="cls-5" points="16.93 111.01 20 108.52 20 104.88 13.86 104.88 13.86 108.52 16.93 111.01"/>
              <polygon class="cls-5" points="16.93 111.01 14.76 112.79 12.75 108.98 13.86 108 16.93 111.01"/>
              <polygon class="cls-5" points="16.93 111.01 19.1 112.79 21.11 108.98 20 108 16.93 111.01"/>
              <polyline class="cls-6" points="18.34 112.17 17.68 113.56 16.93 113.56 16.18 113.56 15.52 112.17"/>
              <line class="cls-6" x1="18.2" y1="117.39" x2="17.68" y2="113.56"/>
              <line class="cls-6" x1="16.18" y1="113.56" x2="15.66" y2="117.39"/>
            </g>
            <path class="cls-5" d="m21.96,98.89c0,3.61,0-1.21,0,2.4-.13,2.89-2.37,5.7-5.02,5.68-2.63-.02-4.82-2.82-4.95-5.68,0-3.61,0,.65,0-2.96"/>
            <path class="cls-5" d="m12,98.34s2.18-1.19,2.85-3.24c0,0,2.14,3.49,7.12,3.8"/>
          </g>
        </g>
      </g>
      <g>
        <line class="cls-6" x1="85.77" y1="39.36" x2="92.55" y2="53.77"/>
        <polygon points="84.88 51.89 85.44 50.49 92.3 53.25 94.55 46.2 95.98 46.66 93.24 55.24 84.88 51.89"/>
      </g>
      <g>
        <line class="cls-6" x1="72.48" y1="39.36" x2="65.7" y2="53.77"/>
        <polygon points="62.27 46.66 63.7 46.2 65.95 53.25 72.81 50.49 73.37 51.88 65.01 55.24 62.27 46.66"/>
      </g>
      <g>
        <line class="cls-6" x1="58.85" y1="32.73" x2="46.84" y2="43.19"/>
        <polygon points="46.56 35.3 48.06 35.45 47.28 42.81 54.67 43.05 54.62 44.55 45.62 44.25 46.56 35.3"/>
      </g>
      <g>
        <line class="cls-6" x1="96.54" y1="32.73" x2="108.54" y2="43.19"/>
        <polygon points="100.77 44.55 100.72 43.05 108.11 42.81 107.33 35.45 108.82 35.3 109.77 44.26 100.77 44.55"/>
      </g>
      <g>
        <polygon class="cls-1" points="142.17 57.28 135.87 56.2 135.87 51.41 139.75 51.74 140.79 55.25 142.17 57.28"/>
        <path class="cls-2" d="m137.63,50.75c.73-.27,1.73.07,2.44,1.25.53.89.56,2.55.67,2.89.22.68.95,1.45,2.44,1.13,0,0-.12,1.12-.96,1.28"/>
        <path class="cls-2" d="m139.46,45c0,2.67-2.16,4.83-4.83,4.83s-4.83-2.16-4.83-4.83,2.16-4.87,4.83-4.87,4.83,2.2,4.83,4.87Z"/>
        <g>
          <path class="cls-5" d="m144.91,59.33c-.13-.69-.63-1.28-1.32-1.56l-6.61-2.22v-3.3h-4.71v3.3l-6.61,2.22c-.69.28-1.19.87-1.32,1.56"/>
          <path class="cls-5" d="m139.2,45.93c0,3.31,0-.61,0,2.7-.12,2.65-2.17,5.23-4.6,5.21-2.41-.02-4.42-2.58-4.54-5.21,0-3.31,0,.67,0-2.64l4.22-.05c1.04-.01,1.95-.7,2.25-1.69l.11-.37.03.14c.24,1.19,1.33,2.01,2.54,1.9h0Z"/>
          <path class="cls-5" d="m129.06,56.75s1.76,2.43,5.56,2.43,5.56-2.43,5.56-2.43"/>
        </g>
      </g>
      <g>
        <polygon class="cls-1" points="106.3 78.84 100 77.75 100 72.97 103.89 73.3 104.93 76.8 106.3 78.84"/>
        <path class="cls-2" d="m101.76,72.31c.73-.27,1.73.07,2.44,1.25.53.89.56,2.55.67,2.89.22.68.95,1.45,2.44,1.13,0,0-.12,1.12-.96,1.28"/>
        <path class="cls-2" d="m103.59,66.55c0,2.67-2.16,4.83-4.83,4.83s-4.83-2.16-4.83-4.83,2.16-4.87,4.83-4.87,4.83,2.2,4.83,4.87Z"/>
        <g>
          <path class="cls-5" d="m109.04,80.88c-.13-.69-.63-1.28-1.32-1.56l-6.61-2.22v-3.3h-4.71v3.3l-6.61,2.22c-.69.28-1.19.87-1.32,1.56"/>
          <path class="cls-5" d="m103.33,67.48c0,3.31,0-.61,0,2.7-.12,2.65-2.17,5.23-4.6,5.21-2.41-.02-4.42-2.58-4.54-5.21,0-3.31,0,.67,0-2.64l4.22-.05c1.04-.01,1.95-.7,2.25-1.69l.11-.37.03.14c.24,1.19,1.33,2.01,2.54,1.9h0Z"/>
          <path class="cls-5" d="m93.19,78.3s1.76,2.43,5.56,2.43,5.56-2.43,5.56-2.43"/>
        </g>
      </g>
      <g>
        <polygon class="cls-1" points="78.23 118.38 71.94 117.29 71.94 112.5 75.82 112.84 76.86 116.34 78.23 118.38"/>
        <path class="cls-2" d="m73.7,111.84c.73-.27,1.73.07,2.44,1.25.53.89.56,2.55.67,2.89.22.68.95,1.45,2.44,1.13,0,0-.12,1.12-.96,1.28"/>
        <path class="cls-2" d="m75.52,106.09c0,2.67-2.16,4.83-4.83,4.83s-4.83-2.16-4.83-4.83,2.16-4.87,4.83-4.87,4.83,2.2,4.83,4.87Z"/>
        <g>
          <path class="cls-5" d="m80.98,120.42c-.13-.69-.63-1.28-1.32-1.56l-6.61-2.22v-3.3h-4.71v3.3l-6.61,2.22c-.69.28-1.19.87-1.32,1.56"/>
          <path class="cls-5" d="m75.27,107.02c0,3.31,0-.61,0,2.7-.12,2.65-2.17,5.23-4.6,5.21-2.41-.02-4.42-2.58-4.54-5.21,0-3.31,0,.67,0-2.64l4.22-.05c1.04-.01,1.95-.7,2.25-1.69l.11-.37.03.14c.24,1.19,1.33,2.01,2.54,1.9h0Z"/>
          <path class="cls-5" d="m65.13,117.84s1.76,2.43,5.56,2.43,5.56-2.43,5.56-2.43"/>
        </g>
      </g>
      <g>
        <polygon class="cls-1" points="152.48 96.6 146.18 95.51 146.18 90.73 150.07 91.06 151.11 94.57 152.48 96.6"/>
        <path class="cls-2" d="m147.94,90.07c.73-.27,1.73.07,2.44,1.25.53.89.56,2.55.67,2.89.22.68.95,1.45,2.44,1.13,0,0-.12,1.12-.96,1.28"/>
        <path class="cls-2" d="m149.77,84.31c0,2.67-2.16,4.83-4.83,4.83s-4.83-2.16-4.83-4.83,2.16-4.87,4.83-4.87,4.83,2.2,4.83,4.87Z"/>
        <g>
          <path class="cls-5" d="m155.22,98.65c-.13-.69-.63-1.28-1.32-1.56l-6.61-2.22v-3.3h-4.71v3.3l-6.61,2.22c-.69.28-1.19.87-1.32,1.56"/>
          <path class="cls-5" d="m149.51,85.24c0,3.31,0-.61,0,2.7-.12,2.65-2.17,5.23-4.6,5.21-2.41-.02-4.42-2.58-4.54-5.21,0-3.31,0,.67,0-2.64l4.22-.05c1.04-.01,1.95-.7,2.25-1.69l.11-.37.03.14c.24,1.19,1.33,2.01,2.54,1.9h0Z"/>
          <path class="cls-5" d="m139.37,96.06s1.76,2.43,5.56,2.43,5.56-2.43,5.56-2.43"/>
        </g>
      </g>
      <g>
        <polygon class="cls-1" points="34.75 60.94 28.46 59.85 28.46 55.06 32.34 55.4 33.38 58.9 34.75 60.94"/>
        <path class="cls-2" d="m30.22,54.4c.73-.27,1.73.07,2.44,1.25.53.89.56,2.55.67,2.89.22.68.95,1.45,2.44,1.13,0,0-.12,1.12-.96,1.28"/>
        <path class="cls-2" d="m32.04,48.65c0,2.67-2.16,4.83-4.83,4.83s-4.83-2.16-4.83-4.83,2.16-4.87,4.83-4.87,4.83,2.2,4.83,4.87Z"/>
        <g>
          <path class="cls-5" d="m37.5,62.98c-.13-.69-.63-1.28-1.32-1.56l-6.61-2.22v-3.3h-4.71v3.3l-6.61,2.22c-.69.28-1.19.87-1.32,1.56"/>
          <path class="cls-5" d="m31.79,49.58c0,3.31,0-.61,0,2.7-.12,2.65-2.17,5.23-4.6,5.21-2.41-.02-4.42-2.58-4.54-5.21,0-3.31,0,.67,0-2.64l4.22-.05c1.04-.01,1.95-.7,2.25-1.69l.11-.37.03.14c.24,1.19,1.33,2.01,2.54,1.9h0Z"/>
          <path class="cls-5" d="m21.65,60.4s1.76,2.43,5.56,2.43,5.56-2.43,5.56-2.43"/>
        </g>
      </g>
    </g>
  </g>
</svg>