<?xml version="1.0" encoding="UTF-8"?>
<svg id="Layer_2" data-name="Layer 2" xmlns="http://www.w3.org/2000/svg" viewBox="0 0 213.35 333.98">
  <defs>
    <style>
      .cls-1, .cls-2 {
        fill: #a59a6e;
      }

      .cls-3 {
        fill: #aa2734;
      }

      .cls-4 {
        fill: #54565a;
      }

      .cls-4, .cls-2, .cls-5, .cls-6 {
        stroke: #000;
        stroke-linecap: round;
        stroke-linejoin: round;
        stroke-width: 1.5px;
      }

      .cls-5 {
        fill: #fff;
      }

      .cls-6 {
        fill: none;
      }
    </style>
  </defs>
  <g id="Content">
    <g>
      <g>
        <path class="cls-3" d="m100.32,1.5c11.36,0,20.63,9.16,20.73,20.55.1,10.94-8.29,19.98-19.03,20.85-.5.04-1.01.07-1.51.07-.07,0-.14,0-.21,0-.56,0-1.12-.03-1.68-.07-10.57-.86-18.93-9.66-19.03-20.47-.1-11.45,9.09-20.82,20.54-20.92.06,0,.13,0,.19,0m0-1.5h-.2c-12.26.12-22.14,10.18-22.03,22.44.11,11.58,8.88,21.02,20.41,21.96.61.05,1.21.08,1.8.08h.23c.56,0,1.11-.03,1.63-.08,11.54-.93,20.5-10.76,20.4-22.36-.11-12.15-10.08-22.04-22.23-22.04h0Z"/>
        <g>
          <path class="cls-4" d="m113.06,21.54c.02-.63-.35-1.18-.89-1.41.5-.31.79-.91.68-1.53v-.07c-.12-.62-.6-1.09-1.18-1.21.42-.4.59-1.04.36-1.62l-.04-.1c-.24-.59-.81-.93-1.41-.91.35-.5.37-1.18,0-1.71l-.04-.05c-.36-.53-1.01-.75-1.6-.6.22-.57.08-1.24-.39-1.68,0,0-.03-.03-.03-.03-.47-.43-1.14-.5-1.68-.22.08-.6-.21-1.21-.77-1.51l-.07-.04c-.57-.31-1.25-.21-1.7.2-.07-.61-.52-1.13-1.15-1.28,0,0-.07-.02-.08-.02-.63-.14-1.24.15-1.56.67-.22-.57-.77-.99-1.42-.96h-.12c-.64.03-1.17.46-1.35,1.04-.37-.49-1.01-.72-1.63-.53l-.09.03c-.61.2-1,.75-1.02,1.36-.48-.38-1.17-.45-1.72-.1l-.05.03c-.55.33-.8.96-.69,1.56-.55-.24-1.22-.13-1.67.32l-.05.05c-.44.45-.54,1.12-.29,1.66-.59-.1-1.2.14-1.54.68l-.05.08c-.33.54-.26,1.2.11,1.67-.6.01-1.16.38-1.37.98l-.03.09c-.21.6-.01,1.23.45,1.61-.58.14-1.04.61-1.14,1.24v.1c-.1.63.23,1.21.76,1.48-.54.25-.9.81-.86,1.44v.09c.05.64.49,1.13,1.06,1.3-.48.36-.72.98-.55,1.59l.03.09c.18.61.71,1.01,1.3,1.06-.4.45-.5,1.12-.2,1.69l.04.08c.3.56.91.84,1.5.75-.3.54-.24,1.23.19,1.71l.04.05c.42.48,1.07.63,1.64.43-.15.58.06,1.22.58,1.59l.08.05c.53.37,1.2.34,1.69-.01-.02.61.35,1.2.95,1.43l.1.04c.61.22,1.25.02,1.64-.44.14.6.65,1.07,1.3,1.13h.1s.06.01.09.01c.61.02,1.14-.34,1.38-.87.3.54.92.87,1.56.76,0,0,.07-.01.08-.01.64-.11,1.09-.61,1.18-1.22.42.44,1.09.6,1.68.35l.1-.05c.58-.27.9-.86.85-1.47.52.32,1.2.29,1.71-.11l.06-.05c.51-.4.66-1.06.46-1.63.58.2,1.25.01,1.65-.5l.05-.06c.39-.5.41-1.17.11-1.68.6.05,1.19-.28,1.46-.85l.03-.06c.27-.57.16-1.23-.25-1.66.58-.08,1.08-.51,1.24-1.11l.02-.09c.15-.62-.12-1.22-.61-1.56.56-.19.98-.72,1.01-1.35v-.13s0-.02,0-.02Z"/>
          <g>
            <g>
              <polyline class="cls-5" points="115.62 35.83 104.44 30.99 104.44 26.1 96.2 26.1 96.2 30.99 84.98 35.9"/>
              <polygon class="cls-5" points="100.32 34.33 104.44 30.99 104.44 26.1 96.2 26.1 96.2 30.99 100.32 34.33"/>
              <polygon class="cls-5" points="100.32 34.33 97.4 36.72 94.7 31.6 96.2 30.29 100.32 34.33"/>
              <polygon class="cls-5" points="100.32 34.33 103.23 36.72 105.93 31.6 104.44 30.29 100.32 34.33"/>
              <polyline class="cls-6" points="102.22 35.89 101.33 37.76 100.32 37.76 99.31 37.76 98.42 35.89"/>
              <line class="cls-6" x1="102.02" y1="42.9" x2="101.33" y2="37.76"/>
              <line class="cls-6" x1="99.31" y1="37.76" x2="98.62" y2="42.9"/>
            </g>
            <path class="cls-5" d="m107.08,18.04c0,4.85,0-1.62,0,3.22-.18,3.88-3.18,7.66-6.74,7.63-3.53-.02-6.48-3.78-6.65-7.63,0-4.85,0,.87,0-3.97"/>
            <path class="cls-5" d="m93.69,17.3s2.93-1.6,3.83-4.35c0,0,2.87,4.68,9.57,5.11"/>
          </g>
        </g>
      </g>
      <g>
        <path class="cls-3" d="m74.38,192.79c11.36,0,20.63,9.16,20.73,20.55.1,10.94-8.29,19.98-19.03,20.85-.5.04-1.01.07-1.51.07-.07,0-.14,0-.22,0-.56,0-1.12-.03-1.67-.07-10.57-.86-18.93-9.66-19.03-20.47-.1-11.45,9.09-20.82,20.54-20.92.06,0,.13,0,.19,0m0-1.5h-.2c-12.26.12-22.14,10.18-22.03,22.44.11,11.58,8.88,21.02,20.41,21.96.61.05,1.21.08,1.79.08h.23c.55,0,1.1-.03,1.63-.08,11.54-.93,20.5-10.76,20.4-22.36-.11-12.15-10.08-22.03-22.23-22.03h0Z"/>
        <g>
          <path class="cls-4" d="m87.12,212.83c.02-.63-.35-1.18-.89-1.41.5-.31.79-.91.68-1.53v-.07c-.12-.62-.6-1.09-1.18-1.21.42-.4.59-1.04.36-1.62l-.04-.1c-.24-.59-.81-.93-1.41-.91.35-.5.37-1.18,0-1.71l-.04-.05c-.36-.53-1.01-.75-1.6-.6.22-.57.08-1.24-.39-1.68,0,0-.03-.03-.03-.03-.47-.43-1.14-.5-1.68-.22.08-.6-.21-1.21-.77-1.51l-.07-.04c-.57-.31-1.25-.21-1.7.2-.07-.61-.52-1.13-1.15-1.28,0,0-.07-.02-.08-.02-.63-.14-1.24.15-1.56.67-.22-.57-.77-.99-1.42-.96h-.12c-.64.03-1.17.46-1.35,1.04-.37-.49-1.01-.72-1.63-.53l-.09.03c-.61.2-1,.75-1.02,1.36-.48-.38-1.17-.45-1.72-.1l-.05.03c-.55.33-.8.96-.69,1.56-.55-.24-1.22-.13-1.67.32l-.05.05c-.44.45-.54,1.12-.29,1.66-.59-.1-1.2.14-1.54.68l-.05.08c-.33.54-.26,1.2.11,1.67-.6.01-1.16.38-1.37.98l-.03.09c-.21.6-.01,1.23.45,1.61-.58.14-1.04.61-1.14,1.24v.1c-.1.63.23,1.21.76,1.48-.54.25-.9.81-.86,1.44v.09c.05.64.49,1.13,1.06,1.3-.48.36-.72.98-.55,1.59l.03.09c.18.61.71,1.01,1.3,1.06-.4.45-.5,1.12-.2,1.69l.04.08c.3.56.91.84,1.5.75-.3.54-.24,1.23.19,1.71l.04.05c.42.48,1.07.63,1.64.43-.15.58.06,1.22.58,1.59l.08.05c.53.37,1.2.34,1.69-.01-.02.61.35,1.2.95,1.43l.1.04c.61.22,1.25.02,1.64-.44.14.6.65,1.07,1.3,1.13h.1s.06.01.09.01c.61.02,1.14-.34,1.38-.87.3.54.92.87,1.56.76,0,0,.07-.01.08-.01.64-.11,1.09-.61,1.18-1.22.42.44,1.09.6,1.68.35l.1-.05c.58-.27.9-.86.85-1.47.52.32,1.2.29,1.71-.11l.06-.05c.51-.4.66-1.06.46-1.63.58.2,1.25.01,1.65-.5l.05-.06c.39-.5.41-1.17.11-1.68.6.05,1.19-.28,1.46-.85l.03-.06c.27-.57.16-1.23-.25-1.66.58-.08,1.08-.51,1.24-1.11l.02-.09c.15-.62-.12-1.22-.61-1.56.56-.19.98-.72,1.01-1.35v-.13s0-.02,0-.02Z"/>
          <g>
            <g>
              <polyline class="cls-5" points="89.68 227.12 78.5 222.28 78.5 217.39 70.26 217.39 70.26 222.28 59.04 227.19"/>
              <polygon class="cls-5" points="74.38 225.62 78.5 222.28 78.5 217.39 70.26 217.39 70.26 222.28 74.38 225.62"/>
              <polygon class="cls-5" points="74.38 225.62 71.46 228.01 68.76 222.89 70.26 221.58 74.38 225.62"/>
              <polygon class="cls-5" points="74.38 225.62 77.29 228.01 79.99 222.89 78.5 221.58 74.38 225.62"/>
              <polyline class="cls-6" points="76.27 227.18 75.39 229.05 74.38 229.05 73.37 229.05 72.48 227.18"/>
              <line class="cls-6" x1="76.08" y1="234.19" x2="75.39" y2="229.05"/>
              <line class="cls-6" x1="73.37" y1="229.05" x2="72.68" y2="234.19"/>
            </g>
            <path class="cls-5" d="m81.14,209.33c0,4.85,0-1.62,0,3.22-.18,3.88-3.18,7.66-6.74,7.63-3.53-.02-6.48-3.78-6.65-7.63,0-4.85,0,.87,0-3.97"/>
            <path class="cls-5" d="m67.75,208.6s2.93-1.6,3.83-4.35c0,0,2.87,4.68,9.57,5.11"/>
          </g>
        </g>
      </g>
      <g>
        <path class="cls-3" d="m154.18,291.01c11.36,0,20.63,9.16,20.73,20.55.1,10.94-8.29,19.98-19.03,20.85-.5.04-1.01.07-1.51.07-.07,0-.14,0-.22,0-.56,0-1.12-.03-1.67-.07-10.57-.86-18.93-9.66-19.03-20.47-.1-11.45,9.09-20.82,20.54-20.92.06,0,.13,0,.19,0m0-1.5h-.2c-12.26.12-22.14,10.18-22.03,22.44.11,11.58,8.88,21.02,20.41,21.96.61.05,1.21.08,1.79.08h.23c.55,0,1.1-.03,1.63-.08,11.54-.93,20.5-10.76,20.4-22.36-.11-12.15-10.08-22.03-22.23-22.03h0Z"/>
        <g>
          <path class="cls-4" d="m166.92,311.05c.02-.63-.35-1.18-.89-1.41.5-.31.79-.91.68-1.53v-.07c-.12-.62-.6-1.09-1.18-1.21.42-.4.59-1.04.36-1.62l-.04-.1c-.24-.59-.81-.93-1.41-.91.35-.5.37-1.18,0-1.71l-.04-.05c-.36-.53-1.01-.75-1.6-.6.22-.57.08-1.24-.39-1.68,0,0-.03-.03-.03-.03-.47-.43-1.14-.5-1.68-.22.08-.6-.21-1.21-.77-1.51l-.07-.04c-.57-.31-1.25-.21-1.7.2-.07-.61-.52-1.13-1.15-1.28,0,0-.07-.02-.08-.02-.63-.14-1.24.15-1.56.67-.22-.57-.77-.99-1.42-.96h-.12c-.64.03-1.17.46-1.35,1.04-.37-.49-1.01-.72-1.63-.53l-.09.03c-.61.2-1,.75-1.02,1.36-.48-.38-1.17-.45-1.72-.1l-.05.03c-.55.33-.8.96-.69,1.56-.55-.24-1.22-.13-1.67.32l-.05.05c-.44.45-.54,1.12-.29,1.66-.59-.1-1.2.14-1.54.68l-.05.08c-.33.54-.26,1.2.11,1.67-.6.01-1.16.38-1.37.98l-.03.09c-.21.6-.01,1.23.45,1.61-.58.14-1.04.61-1.14,1.24v.1c-.1.63.23,1.21.76,1.48-.54.25-.9.81-.86,1.44v.09c.05.64.49,1.13,1.06,1.3-.48.36-.72.98-.55,1.59l.03.09c.18.61.71,1.01,1.3,1.06-.4.45-.5,1.12-.2,1.69l.04.08c.3.56.91.84,1.5.75-.3.54-.24,1.23.19,1.71l.04.05c.42.48,1.07.63,1.64.43-.15.58.06,1.22.58,1.59l.08.05c.53.37,1.2.34,1.69-.01-.02.61.35,1.2.95,1.43l.1.04c.61.22,1.25.02,1.64-.44.14.6.65,1.07,1.3,1.13h.1s.06.01.09.01c.61.02,1.14-.34,1.38-.87.3.54.92.87,1.56.76,0,0,.07-.01.08-.01.64-.11,1.09-.61,1.18-1.22.42.44,1.09.6,1.68.35l.1-.05c.58-.27.9-.86.85-1.47.52.32,1.2.29,1.71-.11l.06-.05c.51-.4.66-1.06.46-1.63.58.2,1.25.01,1.65-.5l.05-.06c.39-.5.41-1.17.11-1.68.6.05,1.19-.28,1.46-.85l.03-.06c.27-.57.16-1.23-.25-1.66.58-.08,1.08-.51,1.24-1.11l.02-.09c.15-.62-.12-1.22-.61-1.56.56-.19.98-.72,1.01-1.35v-.13s0-.02,0-.02Z"/>
          <g>
            <g>
              <polyline class="cls-5" points="169.49 325.35 158.3 320.5 158.3 315.61 150.06 315.61 150.06 320.5 138.84 325.41"/>
              <polygon class="cls-5" points="154.18 323.84 158.3 320.5 158.3 315.61 150.06 315.61 150.06 320.5 154.18 323.84"/>
              <polygon class="cls-5" points="154.18 323.84 151.27 326.23 148.56 321.12 150.06 319.81 154.18 323.84"/>
              <polygon class="cls-5" points="154.18 323.84 157.09 326.23 159.8 321.12 158.3 319.81 154.18 323.84"/>
              <polyline class="cls-6" points="156.08 325.4 155.19 327.27 154.18 327.27 153.17 327.27 152.28 325.4"/>
              <line class="cls-6" x1="155.88" y1="332.41" x2="155.19" y2="327.27"/>
              <line class="cls-6" x1="153.17" y1="327.27" x2="152.48" y2="332.41"/>
            </g>
            <path class="cls-5" d="m160.94,307.55c0,4.85,0-1.62,0,3.22-.18,3.88-3.18,7.66-6.74,7.63-3.53-.02-6.48-3.78-6.65-7.63,0-4.85,0,.87,0-3.97"/>
            <path class="cls-5" d="m147.55,306.82s2.93-1.6,3.83-4.35c0,0,2.87,4.68,9.57,5.11"/>
          </g>
        </g>
      </g>
      <g>
        <path class="cls-3" d="m22.24,287.7c11.36,0,20.63,9.16,20.73,20.55.1,10.94-8.29,19.98-19.03,20.85-.5.04-1.01.07-1.51.07-.07,0-.14,0-.21,0-.56,0-1.12-.03-1.68-.07-10.57-.86-18.93-9.66-19.03-20.47-.1-11.45,9.09-20.82,20.54-20.92.06,0,.13,0,.19,0m0-1.5h-.2C9.77,286.31-.11,296.38,0,308.63c.11,11.58,8.88,21.02,20.41,21.96.61.05,1.21.08,1.8.08h.23c.55,0,1.1-.03,1.63-.08,11.54-.93,20.5-10.76,20.4-22.36-.11-12.15-10.08-22.04-22.23-22.04h0Z"/>
        <g>
          <path class="cls-4" d="m34.97,307.74c.02-.63-.35-1.18-.89-1.41.5-.31.79-.91.68-1.53v-.07c-.12-.62-.6-1.09-1.18-1.21.42-.4.59-1.04.36-1.62l-.04-.1c-.24-.59-.81-.93-1.41-.91.35-.5.37-1.18,0-1.71l-.04-.05c-.36-.53-1.01-.75-1.6-.6.22-.57.08-1.24-.39-1.68,0,0-.03-.03-.03-.03-.47-.43-1.14-.5-1.68-.22.08-.6-.21-1.21-.77-1.51l-.07-.04c-.57-.31-1.25-.21-1.7.2-.07-.61-.52-1.13-1.15-1.28,0,0-.07-.02-.08-.02-.63-.14-1.24.15-1.56.67-.22-.57-.77-.99-1.42-.96h-.12c-.64.03-1.17.46-1.35,1.04-.37-.49-1.01-.72-1.63-.53l-.09.03c-.61.2-1,.75-1.02,1.36-.48-.38-1.17-.45-1.72-.1l-.05.03c-.55.33-.8.96-.69,1.56-.55-.24-1.22-.13-1.67.32l-.05.05c-.44.45-.54,1.12-.29,1.66-.59-.1-1.2.14-1.54.68l-.05.08c-.33.54-.26,1.2.11,1.67-.6.01-1.16.38-1.37.98l-.03.09c-.21.6-.01,1.23.45,1.61-.58.14-1.04.61-1.14,1.24v.1c-.1.63.23,1.21.76,1.48-.54.25-.9.81-.86,1.44v.09c.05.64.49,1.13,1.06,1.3-.48.36-.72.98-.55,1.59l.03.09c.18.61.71,1.01,1.3,1.06-.4.45-.5,1.12-.2,1.69l.04.08c.3.56.91.84,1.5.75-.3.54-.24,1.23.19,1.71l.04.05c.42.48,1.07.63,1.64.43-.15.58.06,1.22.58,1.59l.08.05c.53.37,1.2.34,1.69-.01-.02.61.35,1.2.95,1.43l.1.04c.61.22,1.25.02,1.64-.44.14.6.65,1.07,1.3,1.13h.1s.06.01.09.01c.61.02,1.14-.34,1.38-.87.3.54.92.87,1.56.76,0,0,.07-.01.08-.01.64-.11,1.09-.61,1.18-1.22.42.44,1.09.6,1.68.35l.1-.05c.58-.27.9-.86.85-1.47.52.32,1.2.29,1.71-.11l.06-.05c.51-.4.66-1.06.46-1.63.58.2,1.25.01,1.65-.5l.05-.06c.39-.5.41-1.17.11-1.68.6.05,1.19-.28,1.46-.85l.03-.06c.27-.57.16-1.23-.25-1.66.58-.08,1.08-.51,1.24-1.11l.02-.09c.15-.62-.12-1.22-.61-1.56.56-.19.98-.72,1.01-1.35v-.13s0-.02,0-.02Z"/>
          <g>
            <g>
              <polyline class="cls-5" points="37.54 322.03 26.36 317.18 26.36 312.29 18.11 312.29 18.11 317.18 6.9 322.1"/>
              <polygon class="cls-5" points="22.23 320.52 26.36 317.18 26.36 312.29 18.11 312.29 18.11 317.18 22.23 320.52"/>
              <polygon class="cls-5" points="22.23 320.52 19.32 322.92 16.62 317.8 18.11 316.49 22.23 320.52"/>
              <polygon class="cls-5" points="22.23 320.52 25.15 322.92 27.85 317.8 26.36 316.49 22.23 320.52"/>
              <polyline class="cls-6" points="24.13 322.08 23.24 323.96 22.23 323.96 21.22 323.96 20.34 322.08"/>
              <line class="cls-6" x1="23.93" y1="329.09" x2="23.24" y2="323.96"/>
              <line class="cls-6" x1="21.22" y1="323.96" x2="20.53" y2="329.09"/>
            </g>
            <path class="cls-5" d="m29,304.24c0,4.85,0-1.62,0,3.22-.18,3.88-3.18,7.66-6.74,7.63-3.53-.02-6.48-3.78-6.65-7.63,0-4.85,0,.87,0-3.97"/>
            <path class="cls-5" d="m15.6,303.5s2.93-1.6,3.83-4.35c0,0,2.87,4.68,9.57,5.11"/>
          </g>
        </g>
      </g>
      <g>
        <line class="cls-6" x1="110.6" y1="52.38" x2="136.49" y2="183.37"/>
        <polygon points="129.51 179.69 130.39 178.47 136.38 182.81 140.27 176.52 141.55 177.31 136.81 184.97 129.51 179.69"/>
      </g>
      <g>
        <line class="cls-6" x1="92.76" y1="52.38" x2="77.38" y2="178.91"/>
        <polygon points="71.89 173.24 73.11 172.36 77.45 178.34 83.1 173.57 84.07 174.72 77.18 180.53 71.89 173.24"/>
      </g>
      <g>
        <line class="cls-6" x1="74.44" y1="43.46" x2="23.03" y2="147.58"/>
        <polygon points="19.73 140.41 21.17 139.98 23.29 147.07 30.2 144.44 30.73 145.84 22.31 149.04 19.73 140.41"/>
      </g>
      <g>
        <line class="cls-6" x1="125.07" y1="43.46" x2="186.98" y2="141.48"/>
        <polygon points="179.14 140.55 179.52 139.1 186.67 140.99 188.04 133.72 189.51 134 187.85 142.85 179.14 140.55"/>
      </g>
      <g>
        <polygon class="cls-1" points="208.92 182.54 200.45 181.07 200.45 174.65 205.67 175.09 207.07 179.8 208.92 182.54"/>
        <path class="cls-2" d="m202.82,173.76c.99-.36,2.33.09,3.28,1.67.71,1.19.75,3.43.9,3.89.29.91,1.28,1.95,3.28,1.52,0,0-.16,1.5-1.3,1.72"/>
        <path class="cls-2" d="m205.27,166.03c0,3.59-2.91,6.49-6.49,6.49s-6.49-2.91-6.49-6.49,2.91-6.55,6.49-6.55,6.49,2.96,6.49,6.55Z"/>
        <g>
          <path class="cls-5" d="m212.6,185.28c-.18-.93-.84-1.72-1.77-2.1l-8.88-2.98v-4.43h-6.33v4.43l-8.88,2.98c-.93.38-1.59,1.16-1.77,2.1"/>
          <path class="cls-5" d="m204.93,167.27c0,4.45,0-.81,0,3.63-.16,3.57-2.92,7.03-6.19,7-3.24-.02-5.94-3.47-6.11-7,0-4.45,0,.9,0-3.54l5.67-.06c1.4-.02,2.62-.94,3.02-2.28l.15-.5.04.19c.32,1.6,1.79,2.71,3.42,2.56h0Z"/>
          <path class="cls-5" d="m191.31,181.81s2.37,3.27,7.48,3.27,7.48-3.27,7.48-3.27"/>
        </g>
      </g>
      <g>
        <polygon class="cls-1" points="153.43 224.74 144.97 223.28 144.97 216.85 150.19 217.3 151.59 222.01 153.43 224.74"/>
        <path class="cls-2" d="m147.34,215.97c.99-.36,2.33.09,3.28,1.67.71,1.19.75,3.43.9,3.89.29.91,1.28,1.95,3.28,1.52,0,0-.16,1.5-1.3,1.72"/>
        <path class="cls-2" d="m149.79,208.23c0,3.59-2.91,6.49-6.49,6.49s-6.49-2.91-6.49-6.49,2.91-6.55,6.49-6.55,6.49,2.96,6.49,6.55Z"/>
        <g>
          <path class="cls-5" d="m157.12,227.49c-.18-.93-.84-1.72-1.77-2.1l-8.88-2.98v-4.43h-6.33v4.43l-8.88,2.98c-.93.38-1.59,1.16-1.77,2.1"/>
          <path class="cls-5" d="m149.45,209.48c0,4.45,0-.81,0,3.63-.16,3.57-2.92,7.03-6.19,7-3.24-.02-5.94-3.47-6.11-7,0-4.45,0,.9,0-3.54l5.67-.06c1.4-.02,2.62-.94,3.02-2.28l.15-.5.04.19c.32,1.6,1.79,2.71,3.42,2.56h0Z"/>
          <path class="cls-5" d="m135.82,224.02s2.37,3.27,7.48,3.27,7.48-3.27,7.48-3.27"/>
        </g>
      </g>
      <g>
        <polygon class="cls-1" points="100.48 309.22 92.02 307.76 92.02 301.33 97.24 301.78 98.64 306.49 100.48 309.22"/>
        <path class="cls-2" d="m94.39,300.45c.99-.36,2.33.09,3.28,1.67.71,1.19.75,3.43.9,3.89.29.91,1.28,1.95,3.28,1.52,0,0-.16,1.5-1.3,1.72"/>
        <path class="cls-2" d="m96.84,292.71c0,3.59-2.91,6.49-6.49,6.49s-6.49-2.91-6.49-6.49,2.91-6.55,6.49-6.55,6.49,2.96,6.49,6.55Z"/>
        <g>
          <path class="cls-5" d="m104.17,311.97c-.18-.93-.84-1.72-1.77-2.1l-8.88-2.98v-4.43h-6.33v4.43l-8.88,2.98c-.93.38-1.59,1.16-1.77,2.1"/>
          <path class="cls-5" d="m96.5,293.96c0,4.45,0-.81,0,3.63-.16,3.57-2.92,7.03-6.19,7-3.24-.02-5.94-3.47-6.11-7,0-4.45,0,.9,0-3.54l5.67-.06c1.4-.02,2.62-.94,3.02-2.28l.15-.5.04.19c.32,1.6,1.79,2.71,3.42,2.56h0Z"/>
          <path class="cls-5" d="m82.87,308.5s2.37,3.27,7.48,3.27,7.48-3.27,7.48-3.27"/>
        </g>
      </g>
      <g>
        <polygon class="cls-1" points="204.13 264.24 195.67 262.77 195.67 256.35 200.88 256.79 202.28 261.5 204.13 264.24"/>
        <path class="cls-2" d="m198.03,255.46c.99-.36,2.33.09,3.28,1.67.71,1.19.75,3.43.9,3.89.29.91,1.28,1.95,3.28,1.52,0,0-.16,1.5-1.3,1.72"/>
        <path class="cls-2" d="m200.49,247.73c0,3.59-2.91,6.49-6.49,6.49s-6.49-2.91-6.49-6.49,2.91-6.55,6.49-6.55,6.49,2.96,6.49,6.55Z"/>
        <g>
          <path class="cls-5" d="m207.81,266.98c-.18-.93-.84-1.72-1.77-2.1l-8.88-2.98v-4.43h-6.33v4.43l-8.88,2.98c-.93.38-1.59,1.16-1.77,2.1"/>
          <path class="cls-5" d="m200.14,248.97c0,4.45,0-.81,0,3.63-.16,3.57-2.92,7.03-6.19,7-3.24-.02-5.94-3.47-6.11-7,0-4.45,0,.9,0-3.54l5.67-.06c1.4-.02,2.62-.94,3.02-2.28l.15-.5.04.19c.32,1.6,1.79,2.71,3.42,2.56h0Z"/>
          <path class="cls-5" d="m186.52,263.51s2.37,3.27,7.48,3.27,7.48-3.27,7.48-3.27"/>
        </g>
      </g>
      <g>
        <polygon class="cls-1" points="26.22 192.86 17.76 191.4 17.76 184.97 22.98 185.41 24.38 190.12 26.22 192.86"/>
        <path class="cls-2" d="m20.12,184.08c.99-.36,2.33.09,3.28,1.67.71,1.19.75,3.43.9,3.89.29.91,1.28,1.95,3.28,1.52,0,0-.16,1.5-1.3,1.72"/>
        <path class="cls-2" d="m22.58,176.35c0,3.59-2.91,6.49-6.49,6.49s-6.49-2.91-6.49-6.49,2.91-6.55,6.49-6.55,6.49,2.96,6.49,6.55Z"/>
        <g>
          <path class="cls-5" d="m29.9,195.61c-.18-.93-.84-1.72-1.77-2.1l-8.88-2.98v-4.43h-6.33v4.43l-8.88,2.98c-.93.38-1.59,1.16-1.77,2.1"/>
          <path class="cls-5" d="m22.23,177.6c0,4.45,0-.81,0,3.63-.16,3.57-2.92,7.03-6.19,7-3.24-.02-5.94-3.47-6.11-7,0-4.45,0,.9,0-3.54l5.67-.06c1.4-.02,2.62-.94,3.02-2.28l.15-.5.04.19c.32,1.6,1.79,2.71,3.42,2.56h0Z"/>
          <path class="cls-5" d="m8.61,192.13s2.37,3.27,7.48,3.27,7.48-3.27,7.48-3.27"/>
        </g>
      </g>
    </g>
  </g>
</svg>