<?xml version="1.0" encoding="UTF-8"?>
<svg id="Layer_2" data-name="Layer 2" xmlns="http://www.w3.org/2000/svg" viewBox="0 0 234.59 269.6">
  <defs>
    <style>
      .cls-1 {
        stroke: #6d6c6f;
        stroke-width: .72px;
      }

      .cls-1, .cls-2, .cls-3, .cls-4, .cls-5, .cls-6, .cls-7 {
        stroke-linecap: round;
      }

      .cls-1, .cls-3, .cls-4, .cls-5, .cls-7 {
        stroke-miterlimit: 10;
      }

      .cls-1, .cls-3, .cls-4, .cls-6, .cls-7 {
        fill: none;
      }

      .cls-8 {
        fill: #010101;
      }

      .cls-9 {
        fill: #e6e7e8;
      }

      .cls-10 {
        fill: #fff;
      }

      .cls-11 {
        fill: #f1f1f1;
      }

      .cls-12 {
        fill: #9a6596;
      }

      .cls-13 {
        fill: #ba0c2f;
      }

      .cls-14 {
        fill: #909294;
      }

      .cls-15 {
        fill: #b3b3b3;
      }

      .cls-16 {
        fill: #babbbd;
      }

      .cls-17 {
        fill: #b9ad86;
      }

      .cls-18 {
        fill: #a89968;
      }

      .cls-19 {
        fill: #a6a6a9;
      }

      .cls-20, .cls-5, .cls-21 {
        fill: #d0d1d1;
      }

      .cls-22 {
        fill: #cc7d85;
      }

      .cls-23 {
        fill: #a8a9ac;
      }

      .cls-24 {
        fill: #1a1a1a;
      }

      .cls-25 {
        fill: #6d6c6f;
      }

      .cls-26 {
        fill: #6e6f72;
      }

      .cls-27 {
        fill: #9b6596;
      }

      .cls-28 {
        fill: #6d6e71;
      }

      .cls-29 {
        fill: #808082;
      }

      .cls-30 {
        fill: #59595b;
      }

      .cls-31 {
        fill: #25c3da;
      }

      .cls-32 {
        fill: #5a595c;
      }

      .cls-2 {
        fill: #f2f2f2;
        stroke: #666;
        stroke-width: 1.5px;
      }

      .cls-2, .cls-6 {
        stroke-linejoin: round;
      }

      .cls-3, .cls-5 {
        stroke: #909294;
      }

      .cls-4 {
        stroke: #fff;
      }

      .cls-6 {
        stroke: #010101;
      }

      .cls-6, .cls-7 {
        stroke-width: .78px;
      }

      .cls-7 {
        stroke: #5b5a5d;
      }

      .cls-33 {
        opacity: .6;
      }

      .cls-21 {
        opacity: .5;
      }
    </style>
  </defs>
  <g id="Content">
    <g>
      <rect class="cls-11" x="29.9" width="168.91" height="133.51" rx="27.87" ry="27.87"/>
      <g>
        <g>
          <g>
            <path class="cls-8" d="m38.43,72.47c-1.8-.35-3.61-.84-5.32-1.53-.57-.23-1.2-.45-1.68-.84-.12-.1-1.24-1.49-1.03-1.56-.59.19-1.45.23-1.98-.14-.56-.39-.57-1.13-1.21-1.45-.52-.27-1.05-.18-1.6-.52-.72-.45-1.26-.95-2.1-1.2-.91-.26-2.02-.37-2.47-1.21-.47-.87,0-2.21-.83-2.74-.39-.25-.95-.18-1.31-.48-.86-.71.42-2.2-.09-3.19-.2-.38-.62-.6-.86-.96-.68-1.04.57-2.35.47-3.59-.06-.75-.62-1.39-.71-2.14-.21-1.65,1.85-2.99,1.54-4.63-.09-.48-.37-.89-.54-1.35-.31-.87-.17-1.88.37-2.63.6-.83,1.65-1.32,2.06-2.26.22-.51.22-1.08.33-1.62.29-1.38,1.38-2.55,2.73-2.95,1.07-.32,2.41-.27,3-1.21.14-.21.21-.46.34-.68.53-.95,1.76-1.21,2.83-1.39.58-.1,1.17-.2,1.7-.48.37-.19.69-.46,1.04-.67,1.55-.92,3.73-.56,4.91.8.7-.61,1.26-1.34,2.04-1.85.76-.5,1.56-.95,2.44-1.21,1.29-.37,2.8-.23,3.78.68.29.27.53.61.86.83,1.38.95,3.61-.36,4.85.77.27.25.45.58.69.86.68.78,1.77,1,2.75,1.33.98.33,2.02.96,2.16,1.98.06.46-.08.94-.03,1.4.2,1.81,3.05,2.44,3.16,4.26.04.65-.31,1.28-.27,1.94.1,1.59,2.4,2.49,2.24,4.08-.08.79-.78,1.43-.75,2.22.04,1.09,1.39,1.7,1.61,2.77.26,1.28-1.2,2.27-1.47,3.56-.27,1.33.8,2.72.36,4.01-.47,1.38-2.36,1.77-3.05,3.06-.37.7-.33,1.53-.41,2.32-.08.79-.4,1.66-1.13,1.95-.39.15-.82.11-1.23.16-.82.1-1.59.6-2,1.31-.26.44-.4.96-.77,1.31-.98.91-2.56-.04-3.88.16-.86.13-1.52.73-2.26,1.12-.86.45-1.66.99-2.51,1.47-1.07.6-1.91.53-3.06.49-1.26-.05-2.47-.08-3.72-.33Z"/>
            <path class="cls-6" d="m38.12,31.85c-1.02-1.02-2.18-2.18-3.76-2.45-.79-.13-1.53.07-1.99.54-.11.11-.2.24-.29.36-.11.15-.22.3-.35.41-.23.18-.54.26-.78.3-.32.06-.65.08-.98.1-.39.03-.78.06-1.18.14-1.13.24-1.86.9-2.1,1.91-.01.05-.02.09-.03.14-.04.2-.08.39-.2.51-.12.12-.31.18-.5.23h-.01c-.97.28-1.9.66-2.79,1.14-1.42.77-2.05,1.75-2.11,3.28,0,.04,0,.07,0,.11,0,.18,0,.34-.07.48-.07.16-.21.28-.36.41-.15.13-.32.26-.47.39-.53.43-1.09.87-1.51,1.44-.51.68-.89,1.75-.44,2.68.13.27.32.5.51.73.24.29.47.57.54.9.12.52-.13,1.11-.76,1.81-.04.05-.08.09-.13.14-.46.51-.99,1.08-1.07,1.81-.11,1.01.63,1.83,1.27,2.55"/>
            <path class="cls-6" d="m54.41,66.29c.57-.16,1.18-.22,1.77-.27.52-.05,1.05-.09,1.57-.21,1.15-.26,2.36-1.08,2.49-2.29.03-.32-.01-.64-.05-.96-.07-.52-.13-1,.14-1.36.19-.25.52-.38.89-.51,1.23-.42,2.67-1.08,2.85-2.41.09-.65-.16-1.22-.4-1.78-.09-.21-.18-.41-.25-.61-.27-.78-.19-1.52.23-2.33.37-.71.56-1.24.02-2.12-.13-.21-.32-.41-.5-.6-.36-.39-.7-.75-.65-1.22.03-.32.26-.59.51-.87.04-.04.08-.09.11-.13.66-.79,1.2-2.02.72-3.12-.31-.71-.94-1.16-1.55-1.59-.25-.17-.5-.35-.73-.55-.35-.3-.53-.58-.57-.86-.05-.37.12-.72.29-1.1.16-.35.33-.72.34-1.13.02-.82-.33-1.53-1.02-2.11-.34-.28-.73-.51-1.1-.74-.26-.16-.53-.32-.78-.5-.44-.32-.68-.61-.74-.93-.06-.29.03-.59.12-.91.08-.3.17-.61.15-.93-.08-1.05-1.21-1.62-2.24-1.8-.14-.02-.29-.05-.43-.07-.79-.12-1.61-.25-2.11-.81-.08-.09-.16-.2-.24-.31-.13-.18-.26-.37-.45-.52-.69-.54-1.57-.22-2.35.06-.22.08-.43.15-.63.21-1.26.36-2.71-.1-3.54-1.11"/>
          </g>
          <g>
            <path class="cls-29" d="m11.78,79.05s-1.99,12.6-3.72,32.32c-.18,2.02,1.3,3.84,3.38,4.17h0c2.37.37,4.19-1.38,4.57-3.65,2.93-17.26,6.95-31.07,6.95-31.07l-11.17-1.76Z"/>
            <circle class="cls-29" cx="17.37" cy="79.94" r="5.66"/>
            <circle class="cls-29" cx="11.98" cy="111.56" r="4.04"/>
          </g>
          <g>
            <path class="cls-29" d="m47.24,116.09h-24.23s-8.55,17.82-8.36,22.45l17.95,9.65c1.51,1.13,3.55,1.13,5.06,0l18.35-9.65c.19-4.63-8.76-22.45-8.76-22.45Z"/>
            <g>
              <path class="cls-29" d="m34.67,194.79s-.32,17.36-.55,24.52-1.4,11.21-1.59,18.29c-.13,4.81.32,12.59.32,12.59l-5.51.59s-5.74-20.75-6.69-31.85c-.61-7.14,2.15-24.22,2.15-24.22l11.87.07Z"/>
              <g>
                <path class="cls-29" d="m34.12,140.27c0-5.42-4.39-9.82-9.82-9.82s-9.82,4.39-9.82,9.82c0,0,0,4.21,0,4.21,0,11.26-.19,20.46,7.68,44.54.31.95.54,1.8.7,2.55.02.11-.09,3.03-.06,3.14h11.87c-.08-.89.21-4.87.18-6.34-.12-6.07-.73-46.67-.73-48.11Z"/>
                <circle class="cls-29" cx="24.31" cy="140.27" r="9.82"/>
              </g>
              <circle class="cls-29" cx="28.74" cy="194.65" r="5.93"/>
              <circle class="cls-29" cx="30.15" cy="250.95" r="2.84"/>
              <path class="cls-29" d="m34.83,260.83s.52-7.14-1.84-9.88h-4.69c-.57,0-.95-.16-.95-.16,0,0-1.54,2.26-1.71,2.81-.22.71-.44,1.91-.66,2.79-.59,2.44-1.22,3.89-1.22,4.92,0,0-.25.64-.39,1.32-.06.27-.14.53-.29.76-.05.08-.09.17-.11.27-.11.55.3,1.03.83,1.03.07,0,.13,0,.2-.02.16-.04.33,0,.44.12.17.16.39.26.64.26.13,0,.25-.03.37-.08.22-.09.46-.04.64.11.24.21.55.33.89.33.28,0,.53-.08.75-.22.24-.16.55-.12.77.07.23.21.53.33.87.33s.63-.12.86-.33.58-.23.81-.02c.4.37.94.6,1.53.6,1.27,0,2.29-1.05,2.24-2.33,0-.12-.02-.25-.05-.37-.06-.26-.06-.53-.03-.79,0-.05.01-.1.01-.15l.09-1.37Z"/>
            </g>
            <g>
              <path class="cls-29" d="m36.1,194.69s.23,17.46.46,24.62c.23,7.08,1.4,11.21,1.59,18.29.13,4.81-.32,12.59-.32,12.59l5.51.59s5.74-20.75,6.69-31.85c.61-7.14-2.15-24.22-2.15-24.22l-11.77-.03Z"/>
              <g>
                <path class="cls-29" d="m36.55,140.27c0-5.42,4.39-9.82,9.82-9.82,5.42,0,9.82,4.39,9.82,9.82,0,0,0,4.21,0,4.21,0,11.26.19,20.46-7.68,44.54-.31.95-.54,1.8-.7,2.55-.02.11.09,3.03.06,3.14h-11.87c.08-.89-.24-4.88-.22-6.35.12-6.07.77-46.66.77-48.1Z"/>
                <circle class="cls-29" cx="46.37" cy="140.27" r="9.82"/>
              </g>
              <circle class="cls-29" cx="41.93" cy="194.65" r="5.93"/>
              <circle class="cls-29" cx="40.53" cy="250.95" r="2.84"/>
              <path class="cls-29" d="m35.86,260.83s-.52-7.14,1.84-9.88h4.69c.57,0,.95-.16.95-.16,0,0,1.54,2.26,1.71,2.81.22.71.44,1.91.66,2.79.59,2.44,1.22,3.89,1.22,4.92,0,0,.25.64.39,1.32.06.27.14.53.29.76.05.08.09.17.11.27.11.55-.3,1.03-.83,1.03-.07,0-.13,0-.2-.02-.16-.04-.33,0-.44.12-.17.16-.39.26-.64.26-.13,0-.25-.03-.37-.08-.22-.09-.46-.04-.64.11-.24.21-.55.33-.89.33-.28,0-.53-.08-.75-.22-.24-.16-.55-.12-.77.07-.23.21-.53.33-.87.33s-.63-.12-.86-.33-.58-.23-.81-.02c-.4.37-.94.6-1.53.6-1.27,0-2.29-1.05-2.24-2.33,0-.12.02-.25.05-.37.06-.26.06-.53.03-.79,0-.05-.01-.1-.01-.15l-.09-1.37Z"/>
            </g>
          </g>
          <g>
            <path class="cls-29" d="m52.77,74.33l-17.64-5.61h0s-.02,0-.02,0h-.02s0,0,0,0l-17.64,5.61c-1,5.87.95,14.95.95,14.95.68,7.21,2.42,13.8,3.55,17.49.67,2.21,1.01,4.51,1.01,6.83v2.51h24.25s.02-2.51.02-2.51c0-2.32.34-4.62,1.01-6.83,1.13-3.69,2.87-10.28,3.55-17.49,0,0,1.95-9.08.95-14.95Z"/>
            <path class="cls-29" d="m22.98,115.61c0-6.7,5.42-12.13,12.11-12.13s12.15,5.44,12.15,12.13-5.46,12.13-12.15,12.13-12.11-5.43-12.11-12.13Z"/>
            <ellipse class="cls-29" cx="27.34" cy="94.43" rx="9.2" ry="8.06" transform="translate(-69.36 76.75) rotate(-63.49)"/>
            <ellipse class="cls-29" cx="42.82" cy="94.43" rx="8.06" ry="9.2" transform="translate(-37.64 29.04) rotate(-26.51)"/>
          </g>
          <path class="cls-13" d="m61.58,182.68l-.03-.02c-.1-6.08-4.92-45.33-5.68-49-2.01-9.77-5.3-14.23-7.94-17.77v-2.29c0-2.3.33-4.56,1-6.72.6-1.98,1.15-4.61,1.63-6.84,1.29-1.6,2.11-3.97,2.11-6.62,0-2.49-.72-4.72-1.88-6.31l3.28-13.12-9.14-2.64-.03.46c-.35,5.1-4.6,9.1-9.67,9.11-5.07,0-9.32-4-9.67-9.11l-.03-.46-9.14,2.64,3.39,13.52c-1.07,1.57-1.72,3.72-1.72,6.1s.7,4.64,1.81,6.23c.49,2.26,1.05,4.99,1.67,7.03.66,2.17,1,4.43,1,6.72v2.29c-2.64,3.54-2.69,8.07-4.7,17.84-.75,3.67-8.84,43.02-8.92,48.97l3.36.07-1.07.32c5.9,2.61,13.25,3.97,24.03,3.97s20.41-1.71,26.31-4.35h.01s.02-.01.03-.02Z"/>
          <g>
            <g>
              <circle class="cls-29" cx="35.08" cy="73.08" r="6.69" transform="translate(-23.86 17.43) rotate(-21.01)"/>
              <polygon class="cls-29" points="28.49 72.01 41.69 72.05 41.69 72.05 41.4 70.06 41.16 68.41 40.72 65.36 40.4 63.12 40.34 62.7 40.24 62.02 39.78 58.86 30.42 58.86 29.89 62.49 29.8 63.06 29.73 63.53 29.68 63.93 29.61 64.39 28.52 71.82 28.52 71.83 28.49 72.01"/>
            </g>
            <path class="cls-27" d="m27.57,67.67s0,0,.01,0c.02,0,0,0-.01,0Z"/>
          </g>
          <path class="cls-26" d="m41.2,68.62l-.26-1.6-.22-3.01-.33-2.24-.06-.42-.1-.67-.46-3.16-9.19-.18-.62,4.77c1.94,3.43,5.19,7.66,6.59,8.64.7.49,2.3,1.18,3.14,1.01.51-.11,1.85-.77,1.85-.77l-.35-2.37Z"/>
          <g>
            <g>
              <circle class="cls-8" cx="43.29" cy="48.16" r="15.6" transform="translate(-1.48 1.38) rotate(-1.79)"/>
              <g>
                <path class="cls-29" d="m32.49,45.68c1.94-6.04,8.48-9.3,14.44-7.09,5.2,1.93,8.17,7.52,6.9,12.96-.35,1.48-1.35,3.51-1.35,3.51,0,0-4,8.34-4.34,8.96-1.09,2.02-6.41,4.79-8.45,5.22-.84.17-2.43-.51-3.14-1.01-2.04-1.43-6.67-7.7-6.38-9.98.09-.7,1.77-9.19,1.77-9.19h0c0-1.12.18-2.26.54-3.38Z"/>
                <path class="cls-29" d="m32,48.9s-3.9-2.32-4.17,1.44c-.33,4.51,3.21,5.1,3.21,5.1l.97-6.54Z"/>
              </g>
              <path class="cls-8" d="m41.42,37.42s-.04,0-.06,0c-1.1-.14-2.2.06-3.26.33-.95.24-1.87.18-2.67.83-1,.82-1.77,2.06-2.43,3.05-.85,1.27-1.74,2.61-2.01,4.15-.24,1.35.04,2.78.73,3.96.22.37.48.9,1.01.56.41-.26.36-.68.31-1.09-.04-.3.03-.59-.01-.89-.05-.35-.17-.73,0-1.07.17-.31.53-.45.81-.66.35-.26.6-.65.68-1.07.08-.41.05-.92.41-1.14.31-.18.7-.02,1.06-.09.42-.08.69-.47.95-.81.26-.34.6-.7,1.03-.66.24.02.46.17.7.16.37,0,.64-.34.96-.54.38-.24.87-.28,1.28-.11.14.06.28.15.44.17.57.07.9-.71,1.47-.81.43-.08.87.28,1.29.17.35-.09.56-.46.89-.6.33-.14.71-.03,1.06-.09.36-.05.89-.38.94-.78.05-.39-.42-.8-.71-1-.63-.44-1.34-.74-2.04-1.04-.93-.39-1.88-.79-2.88-.93Z"/>
              <path class="cls-8" d="m55.48,41.28c-1.55-1.9-3.93-3.14-6.34-3.79-2.12-.57-4.44-.32-6.42.61-.62.29-1.51.64-1.04,1.53.36.69,1.03.67,1.69.64.48-.02.93.13,1.42.11.57-.02,1.19-.17,1.71.17.47.31.64.9.93,1.38.36.59.95,1.04,1.62,1.24.64.18,1.46.22,1.76.82.25.52-.07,1.13-.01,1.7.07.68.65,1.17,1.16,1.63.51.46,1.02,1.06.91,1.74-.06.38-.33.71-.36,1.1-.05.6.45,1.08.73,1.61.33.64.32,1.43,0,2.07-.12.22-.27.43-.33.68-.2.9,1,1.54,1.08,2.46.06.7-.56,1.35-.45,2.04.1.57.66.96.84,1.51.08.23,3.67-2.53,4.08-6.47.55-5.22.7-8.24-2.98-12.77Z"/>
            </g>
            <g>
              <ellipse class="cls-8" cx="49" cy="55.93" rx="1.42" ry="1" transform="translate(-21.1 80.73) rotate(-68.26)"/>
              <path class="cls-8" d="m48.4,54.74c.85-.86,2.7-.36,2.7.94-1.04-.58-1.57-.58-2.7-.94h0Z"/>
              <ellipse class="cls-8" cx="40.44" cy="52.9" rx="1.42" ry="1" transform="translate(-22.3 75.23) rotate(-72.2)"/>
              <path class="cls-8" d="m38.94,51.5c.78-.92,2.67-.54,2.76.75-1.08-.51-1.61-.47-2.76-.75h0Z"/>
              <path class="cls-8" d="m54.62,56c.08.06.19-.02.16-.12-.2-.56-.7-1.75-1.65-2.4s-2.57-1.28-3.39-1.57c-.42-.15-.89.04-1.08.44,0,0,0,.01,0,.02-.14.32,0,.56.15.71.11.11.25.18.4.22.61.18,3.12.91,3.49,1.21.33.26,1.43,1.11,1.93,1.5Z"/>
              <path class="cls-8" d="m37.85,49.35c-.1,0-.13-.14-.04-.19.52-.29,1.69-.83,2.84-.68,1.12.15,2.76.77,3.57,1.1.41.17.64.62.5,1.05,0,0,0,.01,0,.02-.11.34-.37.42-.58.42-.15,0-.31-.04-.44-.1-.57-.28-2.92-1.41-3.41-1.44-.42-.02-1.8-.13-2.43-.18Z"/>
              <path class="cls-7" d="m42.11,57.68s-.08.62,1.13,1.27c0,0,.02.03.05.07.25.3.66.43,1.04.33.05-.01.08-.02.08-.02,1.36.17,1.66-.38,1.66-.38"/>
              <path class="cls-26" d="m43.86,62.93l2.36.66c-.92,1.08-2,1.33-2.96,1.43-1.09.11-2.12-.21-2.86-.92s-1.43-1.47-1.56-2.88l2.3.84c.87.4,1.79.69,2.73.88Z"/>
              <path class="cls-30" d="m42.68,61.91c1.93.62,3.53,1.68,3.53,1.68-2.18.5-4.01-.18-4.01-.18,0,0-2.06-.59-3.37-2.19,0,0,1.92.07,3.85.69Z"/>
            </g>
          </g>
          <g>
            <g>
              <path class="cls-29" d="m58.59,79.03s4.39,13.08,9.78,33.81c.55,2.12-.7,4.34-2.86,5.07h0c-2.46.84-4.72-.7-5.54-3.06-6.23-17.88-13-31.88-13-31.88l11.62-3.95Z"/>
              <ellipse class="cls-29" cx="52.78" cy="81" rx="6.14" ry="6.11" transform="translate(-41.28 58.66) rotate(-43.55)"/>
            </g>
            <g>
              <path class="cls-13" d="m64.16,119.14c-2.28,0-4.29-1.55-5.13-3.96-6.14-17.62-12.89-31.63-12.96-31.77l13.47-4.7c.04.13,4.46,13.35,9.8,33.88.68,2.62-.86,5.37-3.51,6.27-.55.19-1.12.28-1.68.28Z"/>
              <path class="cls-13" d="m52.75,88.13c-3.05,0-5.76-1.94-6.73-4.84-1.25-3.72.77-7.77,4.49-9.04.75-.25,1.52-.38,2.3-.38,3.05,0,5.76,1.94,6.73,4.84,1.25,3.72-.77,7.77-4.49,9.04-.75.25-1.52.38-2.3.38h0Z"/>
              <path class="cls-13" d="m64.25,119.22c-.08,0-.16,0-.25,0-2.97-.13-5.27-2.66-5.14-5.62.1-2.31,1.66-4.29,3.88-4.93.49-.14.99-.21,1.5-.21.08,0,.16,0,.25,0,2.97.13,5.27,2.66,5.14,5.62-.13,2.89-2.49,5.15-5.37,5.15h0Z"/>
            </g>
          </g>
          <g>
            <path class="cls-13" d="m14.38,74.17l13-3.23,1.33,7.71s3.24,15.19,3.78,27.14c1.14,25.41-1.81,89.64-1.81,89.64,0,0-17.63-1.84-23.39-5.6,0,0,6.77-63.22,10.38-88.04,3.6-24.83-3.29-27.63-3.29-27.63Z"/>
            <path class="cls-13" d="m17.6,90.48s10.87,10.26,9.88,42.81c-1.07,35.03-2.64,57.49-2.64,57.49"/>
            <path class="cls-13" d="m26.52,158.16l-5.17-1.35c-4.21-1.29-6.95-5.32-6.61-9.7l1.12-14.23,11.47,4.61"/>
            <path class="cls-9" d="m8.62,186.93s8.98,4.02,21.36,4.6"/>
          </g>
          <g>
            <path class="cls-13" d="m55.25,74.28l-12.34-3.58-1.03,7.96s-3.24,15.19-3.78,27.14c-1.14,25.41,1.81,89.64,1.81,89.64,0,0,17.63-1.84,23.39-5.6,0,0-6.77-63.22-10.38-88.04-3.6-24.83,2.33-27.52,2.33-27.52Z"/>
            <path class="cls-13" d="m52.99,90.48s-10.87,10.26-9.88,42.81c1.07,35.03,2.64,57.49,2.64,57.49"/>
            <path class="cls-13" d="m44.08,158.16l5.17-1.35c4.21-1.29,6.95-5.32,6.61-9.7l-1.12-14.23-11.47,4.61"/>
            <path class="cls-9" d="m61.98,186.93s-9.22,3.98-21.6,4.55"/>
          </g>
          <polygon class="cls-22" points="42.74 70.54 50.4 72.56 50.52 79.32 43.9 80.52 46.68 84.3 39.03 93.73 41.79 76.89 42.74 70.54"/>
          <g>
            <g>
              <g>
                <path class="cls-9" d="m11.49,79.8s-1.71,9.71-3.64,31.04c-.2,2.18,1.4,4.17,3.65,4.54h0c2.56.42,4.54-1.46,4.97-3.92,3.22-18.66,7.13-29.66,7.13-29.66l-12.11-1.99Z"/>
                <ellipse class="cls-9" cx="17.54" cy="80.8" rx="6.11" ry="6.14" transform="translate(-59.18 49.99) rotate(-55.87)"/>
              </g>
              <g>
                <path class="cls-13" d="m13.04,116.37c2.25-.37,3.98-2.24,4.42-4.74,3.17-18.38,7.06-29.4,7.11-29.55l-14.06-2.43c-.02.14-1.74,9.99-3.65,31.11-.24,2.69,1.73,5.16,4.48,5.61.58.09,1.15.1,1.7,0Z"/>
                <path class="cls-13" d="m18.74,87.82c3.01-.5,5.36-2.86,5.85-5.87.62-3.87-2.03-7.54-5.91-8.18-.78-.13-1.56-.13-2.33,0-3.01.5-5.36,2.86-5.85,5.87-.62,3.87,2.03,7.54,5.91,8.18.78.13,1.56.13,2.33,0h0Z"/>
                <path class="cls-13" d="m12.96,116.46c.08-.01.16-.03.24-.05,2.9-.62,4.77-3.48,4.15-6.39-.48-2.26-2.34-3.96-4.63-4.23-.5-.06-1.01-.05-1.51.04-.08.01-.16.03-.24.05-2.9.62-4.77,3.48-4.15,6.39.6,2.83,3.3,4.67,6.14,4.2h0Z"/>
              </g>
            </g>
            <g>
              <polygon class="cls-23" points="51.86 116.34 51.67 115.81 52.38 115.44 53.01 115.73 51.86 116.34"/>
              <rect class="cls-2" x="35.65" y="92.98" width="8.22" height="1.36" rx=".68" ry=".68" transform="translate(14.13 -4.81) rotate(8.42)"/>
              <path class="cls-2" d="m37.38,92.62l-.92-.14c-.37-.05-.72.2-.77.57h0c-.05.37.2.72.57.77l.97.14.15-1.35Z"/>
              <g>
                <g>
                  <path class="cls-29" d="m13.15,115.41l6.04-1.28c1.31-.27,2.61-.61,3.88-1.03,2.09-.7,4.13-1.5,6.14-2.41l14.42-7.24-4.49-3.38s-2.85.97-7.49,1.76c-7.73,1.31-18.63,2.88-21.02,5.62l2.52,7.97Z"/>
                  <circle class="cls-29" cx="12.07" cy="111.36" r="4.19" transform="translate(-80.56 48.38) rotate(-49.6)"/>
                </g>
                <g>
                  <g>
                    <g>
                      <ellipse class="cls-29" cx="48.02" cy="91.09" rx="1.03" ry="1.03" transform="translate(-50.29 60.46) rotate(-44.9)"/>
                      <g>
                        <g>
                          <ellipse class="cls-29" cx="43.96" cy="93.02" rx="1.17" ry="1.17" transform="translate(-52.83 58.15) rotate(-44.9)"/>
                          <path class="cls-29" d="m48.48,92.02l-4,2.04-1.04-2.1s2.18-.97,4.29-1.86l.76,1.92Z"/>
                        </g>
                        <ellipse class="cls-29" cx="48.02" cy="91.09" rx="1.03" ry="1.03" transform="translate(-50.29 60.46) rotate(-44.9)"/>
                      </g>
                    </g>
                    <g>
                      <path class="cls-29" d="m53.18,94.8c.23.23.13.62-.18.72h0c-.7.24-1.47.08-2.02-.41-1.03-.92-2.61-2.39-3.49-3.18l1.33-1.57,4.35,4.44Z"/>
                      <ellipse class="cls-29" cx="48.09" cy="91.08" rx="1.03" ry="1.03" transform="translate(-50.39 60.9) rotate(-45.13)"/>
                    </g>
                  </g>
                  <g>
                    <g>
                      <ellipse class="cls-29" cx="48.58" cy="93.09" rx="1.03" ry="1.03" transform="translate(-44.02 43.57) rotate(-34.3)"/>
                      <g>
                        <g>
                          <ellipse class="cls-29" cx="44.24" cy="94.26" rx="1.17" ry="1.17" transform="translate(-45.43 41.33) rotate(-34.3)"/>
                          <path class="cls-29" d="m48.87,94.09l-4.3,1.29-.65-2.25s2.32-.56,4.55-1.06l.4,2.02Z"/>
                        </g>
                        <ellipse class="cls-29" cx="48.58" cy="93.09" rx="1.03" ry="1.03" transform="translate(-44.02 43.57) rotate(-34.3)"/>
                      </g>
                    </g>
                    <g>
                      <path class="cls-29" d="m53,97.67c.18.27.02.63-.3.68h0c-.73.11-1.46-.18-1.91-.77-.85-1.09-2.13-2.82-2.86-3.76l1.59-1.31,3.48,5.16Z"/>
                      <ellipse class="cls-29" cx="48.66" cy="93.1" rx="1.03" ry="1.03" transform="translate(-44.61 44.76) rotate(-35.01)"/>
                    </g>
                  </g>
                  <g>
                    <g>
                      <ellipse class="cls-29" cx="48.98" cy="95.12" rx="1.03" ry="1.03" transform="translate(-34.64 28.38) rotate(-24.16)"/>
                      <g>
                        <g>
                          <ellipse class="cls-29" cx="44.5" cy="95.48" rx="1.17" ry="1.17" transform="translate(-35.18 26.58) rotate(-24.16)"/>
                          <path class="cls-29" d="m49.09,96.15l-4.46.5-.24-2.33s2.39-.14,4.67-.23l.03,2.06Z"/>
                        </g>
                        <ellipse class="cls-29" cx="48.98" cy="95.12" rx="1.03" ry="1.03" transform="translate(-34.64 28.38) rotate(-24.16)"/>
                      </g>
                    </g>
                    <g>
                      <path class="cls-29" d="m52.5,100.41c.13.3-.1.62-.42.61h0c-.74-.03-1.41-.44-1.75-1.1-.64-1.22-1.59-3.16-2.14-4.21l1.8-1,2.5,5.7Z"/>
                      <ellipse class="cls-29" cx="49.05" cy="95.14" rx="1.03" ry="1.03" transform="translate(-35.03 28.9) rotate(-24.5)"/>
                    </g>
                  </g>
                  <g>
                    <g>
                      <ellipse class="cls-29" cx="48.57" cy="97.17" rx=".99" ry=".99" transform="translate(-35.52 28.39) rotate(-24.16)"/>
                      <g>
                        <g>
                          <ellipse class="cls-29" cx="45.06" cy="97.55" rx="1.12" ry="1.13" transform="translate(-35.98 26.99) rotate(-24.16)"/>
                          <path class="cls-29" d="m48.67,98.17l-3.49.51-.23-2.24s1.49-.16,3.69-.25l.03,1.98Z"/>
                        </g>
                        <ellipse class="cls-29" cx="48.57" cy="97.17" rx=".99" ry=".99" transform="translate(-35.52 28.39) rotate(-24.16)"/>
                      </g>
                    </g>
                    <g>
                      <path class="cls-29" d="m50.95,100.73c.12.28-.09.6-.4.59h0c-.71-.03-1.35-.43-1.68-1.06-.61-1.18-.52-1.51-1.05-2.52l1.73-.97,1.4,3.95Z"/>
                      <ellipse class="cls-29" cx="48.63" cy="97.19" rx=".99" ry=".99" transform="translate(-35.92 28.91) rotate(-24.5)"/>
                    </g>
                  </g>
                  <path class="cls-29" d="m39.79,99.46l1.58,2.54c.67,1.07,2.25.98,2.79-.16l1.64-3.45-.92-5.75c-.38-.87-1.61-.92-2.06-.08l-3.04,6.9Z"/>
                </g>
                <polygon class="cls-29" points="39.14 100.06 40.47 98.19 42.94 102.69 31.36 109.46 36.24 103.27 39.14 100.06"/>
              </g>
            </g>
            <path class="cls-13" d="m32,98.2c-1.27.33-19.51,6.04-21.9,8.46-.03.01-.06.02-.09.03-2.58,1.14-3.75,4.16-2.61,6.73.82,1.85,2.65,3.04,4.67,3.04.15,0,.29-.01.43-.02v.03s.5-.1.5-.1c.08-.02.16-.03.24-.05l6.13-1.3c1.37-.28,2.72-.64,3.99-1.06,2.11-.7,4.2-1.53,6.23-2.45l.04-.02,5.97-3.3-3.6-10Z"/>
            <path class="cls-13" d="m30.74,109.42l-.05.02c-2.25,1.03-4.59,1.95-6.94,2.73-1.42.47-2.92.87-4.45,1.18l-6.82,1.44c-.09.02-.18.04-.27.06,0,0-.78.22-1.13.17-1.75-.29-2.89-.69-3.93-1.74.02.05.03.1.06.15.82,1.85,2.59,3.08,4.61,3.14.21,0,1-.06,1.26-.12l6.1-1.41c1.37-.28,2.72-.64,3.99-1.06,2.11-.7,4.2-1.53,6.23-2.45l.04-.02,5.97-3.3-.41-1.14-4.26,2.35Z"/>
            <g>
              <g>
                <polygon class="cls-2" points="53 118.18 27.75 118.18 56.08 90.44 81.66 91.24 53 118.18"/>
                <path class="cls-2" d="m69.97,93.16l-9.55-.48c-.5-.02-.69-.66-.3-.96l2.94-2.23c.1-.08.22-.11.35-.11l10.02.48c.52.02.7.7.27.98l-3.41,2.23c-.09.06-.21.09-.32.09Z"/>
                <rect class="cls-2" x="64.69" y="89.18" width="7.64" height="1.57" rx=".79" ry=".79" transform="translate(5.31 -3.81) rotate(3.31)"/>
              </g>
              <path class="cls-15" d="m51.02,122.53s-3.93.49-1.66-6.74c2.27-7.23,6.35.93,6.35.93l.36,4.96-5.05.86Z"/>
              <g>
                <g>
                  <path class="cls-29" d="m52.23,112.15s-3.58-4.44-7.31-6.03c0,0-.34,2.45-1.86,2.29-1.2-.13-3.65,2.88-2.86,5.96.36,1.43,1.77,2.52,3.39,2.67,1.8.16,5.25.48,7.34.25l1.3-5.14Z"/>
                  <g>
                    <ellipse class="cls-29" cx="44.44" cy="107.45" rx="1.45" ry="1.44" transform="translate(-71.81 109.91) rotate(-68.74)"/>
                    <path class="cls-29" d="m40.95,106.87s.85.26,2.79,1.84l1.13-2.65s-3.2-.88-5.3-1.49c-.39-.11-.73.29-.56.65h0c.29.62.79,1.12,1.42,1.4l.53.24Z"/>
                  </g>
                  <g>
                    <g>
                      <path class="cls-29" d="m34.39,114.59c-.29-.15-.33-.55-.07-.75h0c.54-.42,1.25-.53,1.88-.29s1.52.6,2.39.96l-.7,1.83-3.5-1.74Z"/>
                      <ellipse class="cls-29" cx="38.32" cy="115.44" rx=".98" ry=".97" transform="translate(-83.16 109.29) rotate(-68.74)"/>
                    </g>
                    <g>
                      <g>
                        <ellipse class="cls-29" cx="42.58" cy="115.65" rx="1.11" ry="1.1" transform="translate(-80.64 113.39) rotate(-68.74)"/>
                        <path class="cls-29" d="m38.26,116.43l4.24.33.15-2.21s-2.27-.05-4.43-.07l.04,1.95Z"/>
                      </g>
                      <ellipse class="cls-29" cx="38.32" cy="115.44" rx=".98" ry=".97" transform="translate(-83.16 109.29) rotate(-68.74)"/>
                    </g>
                  </g>
                  <g>
                    <g>
                      <path class="cls-29" d="m30.8,109.37c-.3-.13-.36-.52-.11-.73h0c.51-.44,1.22-.58,1.85-.34,1.66.61,4.73,1.81,5.87,2.22l-.6,1.86-7.01-3Z"/>
                      <ellipse class="cls-29" cx="38.19" cy="111.46" rx=".98" ry=".97" transform="translate(-79.53 106.63) rotate(-68.74)"/>
                    </g>
                    <g>
                      <g>
                        <ellipse class="cls-29" cx="42.45" cy="111.59" rx="1.11" ry="1.1" transform="translate(-76.94 110.68) rotate(-68.74)"/>
                        <path class="cls-29" d="m38.14,112.44l4.25.25.11-2.22s-2.27-.01-4.43,0l.07,1.95Z"/>
                      </g>
                      <ellipse class="cls-29" cx="38.19" cy="111.46" rx=".98" ry=".97" transform="translate(-79.53 106.63) rotate(-68.74)"/>
                    </g>
                  </g>
                  <g>
                    <g>
                      <path class="cls-29" d="m39.08,108.59l-.7,1.83-6.37-3.13c-.29-.14-.33-.54-.07-.74l.2-.16c.41-.32.95-.39,1.42-.19,1.44.6,4.35,1.92,5.51,2.4Z"/>
                      <ellipse class="cls-29" cx="38.82" cy="109.53" rx=".98" ry=".97" transform="translate(-77.33 105.98) rotate(-68.74)"/>
                    </g>
                    <g>
                      <g>
                        <ellipse class="cls-29" cx="43.08" cy="109.51" rx="1.11" ry="1.1" transform="translate(-74.6 109.94) rotate(-68.74)"/>
                        <path class="cls-29" d="m38.8,110.51l4.26.11.03-2.22s-2.27.07-4.43.17l.14,1.95Z"/>
                      </g>
                      <ellipse class="cls-29" cx="38.82" cy="109.53" rx=".98" ry=".97" transform="translate(-77.33 105.98) rotate(-68.74)"/>
                    </g>
                  </g>
                  <g>
                    <g>
                      <ellipse class="cls-29" cx="37.46" cy="113.45" rx=".98" ry=".97" transform="translate(-81.85 107.21) rotate(-68.74)"/>
                      <g>
                        <g>
                          <ellipse class="cls-29" cx="41.71" cy="113.58" rx="1.11" ry="1.1" transform="translate(-79.26 111.27) rotate(-68.74)"/>
                          <path class="cls-29" d="m37.41,114.43l4.25.25.11-2.22s-2.27-.01-4.43,0l.07,1.95Z"/>
                        </g>
                        <ellipse class="cls-29" cx="37.46" cy="113.45" rx=".98" ry=".97" transform="translate(-81.85 107.21) rotate(-68.74)"/>
                      </g>
                    </g>
                    <path class="cls-29" d="m31.61,112.23c-.28-.11-.35-.48-.13-.69h0c.51-.48,1.24-.65,1.91-.44,1.25.39,3.19,1.05,4.26,1.39l-.53,1.88-5.5-2.14Z"/>
                  </g>
                </g>
                <circle class="cls-29" cx="50.85" cy="114.53" r="2.78" transform="translate(-35.31 23.54) rotate(-19.5)"/>
              </g>
              <path class="cls-13" d="m51.55,111.36s1.26,1.98,1.12,6.11c-.18,5.59-2,5.07-2,5.07,0,0,10.84.29,13.75-1.64s4.87-3.63,5.1-5.87-2.97-6.66-2.97-6.66l-7.2,1.33-7.79,1.66Z"/>
            </g>
          </g>
          <polygon class="cls-22" points="27.77 70.64 20.25 72.22 19.84 77.8 26.64 79.72 23.85 83.5 31.34 93.81 28.8 76.89 27.77 70.64"/>
        </g>
        <g>
          <path d="m34.98,261.74c.01-.56.08-2.04.04-2.86-.09-1.75-.19-5.45-.7-5.66-.1.34-1.29,6.53-6.32,6.29-3.46-.16-2.09-5.45-2.28-5.95-.37.44-2.94,8.08-3.17,8.87,0-.02,0-.03,0-.01-.22.86-.4,1.89-.4,2.84,0,.5,1.87,2.06,4.11,2.06,2.64,0,5.23-.68,6.92-1.48,1.11-.53,1.75-.88,1.77-1.28.04-.18.14-1.77.02-2.11,0-.27.01-.52.02-.71Z"/>
          <path class="cls-10" d="m32.53,262.57c.06,0,.13-.01.18-.03.16-.07.21-.21.11-.31-.06-.06-1.57-1.59-4.91-1.66-3.08-.07-4.04,1.07-4.08,1.12-.09.11-.03.25.14.31.17.06.38.02.47-.09.03-.04.81-.94,3.45-.88,2.97.06,4.3,1.39,4.35,1.45.07.07.18.1.29.1Z"/>
        </g>
        <g>
          <path d="m35.65,261.74c-.01-.56-.08-2.04-.04-2.86.09-1.75.19-5.45.7-5.66.1.34,1.29,6.53,6.32,6.29,3.46-.16,2.09-5.45,2.28-5.95.37.44,2.94,8.08,3.17,8.87,0-.02,0-.03,0-.01.22.86.4,1.89.4,2.84,0,.5-1.87,2.06-4.11,2.06-2.64,0-5.23-.68-6.92-1.48-1.11-.53-1.75-.88-1.77-1.28-.04-.18-.14-1.77-.02-2.11,0-.27-.01-.52-.02-.71Z"/>
          <path class="cls-10" d="m38.11,262.57c-.06,0-.13-.01-.18-.03-.16-.07-.21-.21-.11-.31.06-.06,1.57-1.59,4.91-1.66,3.08-.07,4.04,1.07,4.08,1.12.09.11.03.25-.14.31-.17.06-.38.02-.47-.09-.03-.04-.81-.94-3.45-.88-2.97.06-4.3,1.39-4.35,1.45-.07.07-.18.1-.29.1Z"/>
        </g>
      </g>
      <g>
        <polygon class="cls-31" points="181.59 50.83 195.25 50.83 188.63 57.5 188.21 57.5 181.59 50.83"/>
        <path class="cls-20" d="m206.02,115.92c-.49-2.62-1.13-4.97-1.49-7.42-1.03-7.09-.63-14.9-.63-14.9h-30.98s.44,7.94-.63,14.9c-.37,2.45-1,4.8-1.49,7.42-.48,2.57-.54,5.48-.23,7.43,0,0,5.76,13.46,17.99,13.46s17.68-13.46,17.68-13.46c.32-1.95.25-4.87-.23-7.43Z"/>
        <g>
          <g>
            <path class="cls-20" d="m195.37,58.78c0,.06.01.12.01.19,0,3.74-3.04,6.76-6.77,6.76-3.73,0-6.76-3.04-6.75-6.77,0-.06.01-.13.01-.19h-.01v-.07c.04-.56.12-1.11.27-1.63.02-.08.05-.16.07-.23l.29-1.64.95-5.28.11-.63h0s10.15.01,10.15.01l.18,1,.13.75.26,1.49.76,4.31c.19.59.3,1.2.32,1.85v.08s0,0,0,0Z"/>
            <path class="cls-20" d="m193.49,48.13c0,2.72-2.21,4.93-4.93,4.92-2.72,0-4.93-2.21-4.93-4.93h0c0-.42.05-.81.15-1.19.53-2.15,2.48-3.74,4.79-3.74,2.43,0,4.46,1.77,4.85,4.09.05.28.07.56.07.84Z"/>
            <path class="cls-19" d="m193.79,49.84c-1.82,2.52-4.74,4.02-7.87,4.02h-3.32l.92-5.13.11-.61h0c0-.42.05-.81.15-1.19l9.64.36c.05.28.07.56.07.84l.17.98.13.73Z"/>
          </g>
          <path d="m176.82,32.33s-3.45,5.37,1.34,7.76l1.66,2.73,21.05-7.68c1.23-2.46-1.08-8.24-2.05-8.34l-22,5.53Z"/>
          <g>
            <path class="cls-16" d="m180.01,34.69s-3.74-.96-2.9,2.49c1,4.13,3.92,3.64,3.92,3.64l-1.01-6.13Z"/>
            <path class="cls-20" d="m178.73,35.1s-.47,4.82-.02,7.1c.42,2.12,4.6,7.31,6.31,8.28.7.4,1.48.2,2.26,0,3.53-.9,8.63-5.73,9.02-7.86.12-.64,2.31-7.78,2.31-7.78h0c.04-.12.56-2.7.45-4.06-.4-5.24-4.7-9.39-9.9-9.62-5.96-.26-10.89,4.53-10.89,10.5,0,.07,0,.2,0,.35,0,.19,0,.42,0,.67-.01.91.44,2.32.47,2.42Z"/>
            <path class="cls-20" d="m198.29,34.79s4.01-1.06,3.18,2.39c-1,4.13-4.73,3.86-4.73,3.86l1.55-6.24Z"/>
            <path class="cls-10" d="m188.75,42.74s-1.2,1.36-2.75,1.72c-.54.13-1.09.13-1.63,0-1.55-.36-2.31-1.75-2.31-1.75.04.01,0,0,.04,0,0,0,1.94.05,3.33.04s3.35-.03,3.33-.02-.02,0,0,0Z"/>
            <line class="cls-3" x1="184.78" y1="31.88" x2="184.2" y2="38.52"/>
            <path d="m182,41.15l1.13-.28c1.47-.37,2.99-.37,4.46,0l1.13.28c.75.19,1.32.96,1.32,1.86,0,1.13-.64,2.09-.64,2.09.21-1.73-1.33-2.35-1.33-2.35h-2.72s-3.31,0-3.31,0c0,0-.94.61-.73,2.35,0,0-.64-.96-.64-2.09,0-.91.57-1.67,1.32-1.86Z"/>
            <path class="cls-5" d="m183.48,39.92s1.06,1.12,1.53,1.12,1.56-1.12,1.56-1.12"/>
            <path d="m193.81,32.83c.08.02.14-.09.08-.17-.35-.42-1.15-1.28-2.12-1.48s-2.44-.11-3.18-.04c-.38.03-.68.39-.68.82,0,0,0,.01,0,.02,0,.34.19.5.36.57.12.05.26.06.39.04.54-.09,2.74-.44,3.13-.32.35.1,1.49.42,2.02.56Z"/>
            <path d="m178.26,32.68c.55-.15,1.24-.34,1.49-.42.4-.12,2.6.23,3.14.32.13.02.26.01.39-.04.17-.07.36-.23.36-.57v-.02c0-.43-.3-.79-.68-.82-.74-.06-2.24-.15-3.18.04-.58.12-1.1.48-1.5.84,0,.19,0,.42,0,.67Z"/>
            <g>
              <ellipse cx="190.14" cy="35.54" rx=".97" ry="1.38"/>
              <path d="m189.16,34.69c-.04-1.39,2.26-1.52,2.34-.12-1.04.17-1.17.22-2.34.12h0Z"/>
              <ellipse cx="181.04" cy="35.54" rx=".97" ry="1.38"/>
              <path d="m182.01,34.69c-1.17.1-1.31.05-2.34-.12.08-1.4,2.38-1.27,2.34.12h0Z"/>
            </g>
            <path d="m178.5,39.89v-.48s.47,4.55,2.27,6.18c.92.83,1.69,1.01,2.55.52.52-.3,1.05-.48,1.63-.51h.04c.58.04,1.13.24,1.65.54.86.49,2.9.59,4.59-.6,1.99-1.39,5.91-6.12,5.91-6.12,0,0-.84,4.33-1.17,5.14-.95,2.3-2.96,3.78-4.82,5.07-2.94,2.03-5.91,1.92-5.91,1.92,0,0-1.84-.08-3.95-2.79-1.18-1.51-1.97-3.29-2.38-5.16-.23-1.05-.42-2.33-.42-3.69Z"/>
          </g>
          <g>
            <path d="m194.62,33.66c-.06-.2-1.13-.34-2.1-.33-.97.02-1.86-.09-3.62.11,0,0-1.43.19-2.05.33-2.07.44-2.86.23-4.65-.17,0,0-.02,0-.02,0-1.1-.24-1.93-.24-2.9-.26-.97-.02-1.79.19-1.85.39-.06.2-.09.9.13,1.02.22.12.41.05.71,1.2.3,1.15.21,2.06,1.66,2.57,1.28.45,2.11.31,2.98-.47.88-.79,1.49-2.88,1.62-3.25.04-.13.44-.17.76-.15.25.02.71.21.73.46l.03.3c.03.31.08.63.15.93.14.56.41,1.32,1.02,1.86.88.79,3.21.86,4.64.31,1.44-.54,1.61-1.48,1.91-2.63.3-1.15.48-1.08.71-1.2.22-.12.19-.82.13-1.02Zm-10.9,1.87c-.15.83-.48,1.91-1.21,2.42-.73.51-1.05.53-1.88.44-1.22-.14-1.57-.87-1.77-1.64-.21-.77-.35-1.94-.13-2.46.22-.52,1.55-.63,2.57-.54,1.03.09,1.11.21,1.8.54.05.03.76.42.62,1.25Zm9.3,1.21c-.21.77-.58,1.34-1.77,1.64-1.19.3-2.83.07-3.56-.44-.73-.51-1.06-1.59-1.21-2.42-.15-.83.56-1.22.62-1.25.69-.33,3.3-.45,4.33-.54,1.03-.09,1.51.02,1.73.54.22.52.07,1.69-.13,2.46Z"/>
            <path d="m193.99,33.76s3.27-.54,3.98-.53c.36,0,.58.18.7.35.11.16.14.36.1.55v.05c-.3.05-.58-.08-.79-.3-.05-.05-.12-.09-.2-.07-.3.05-3.93.75-3.93.75l.13-.81Z"/>
          </g>
          <path d="m197.14,22.36c-1.47-2.25-4.75-2.36-4.78-2.36,0,0-2.7-2.6-7.71-2.52,0,0-8.93-1.46-8.17,8.22,0,0-1.8.86-1.35,4.57.32,2.63,3.12,2.41,3.12,2.41,0,0,.17-.19.56-2.56.04-.24.09-.51.13-.8.05-.29.08-.59.11-.9.14-2.24,1.51-3.49,3.53-4.12,0,0,.01,0,.02,0,.36-.11.73-.2,1.13-.27.8-.15,1.66-.23,2.57-.26.05,0,1.21-.02,1.85-.03.08,0,.14,0,.2,0,0,0,.11,0,.31.01.8.07,2.39.41,3.61,1.3,0,0-.44,5.16,2.36,7.78h0c1.09,2.62,3.36,3.99,3.73,4.1,0,0,3.75-6.95-1.21-14.56Z"/>
          <path d="m182.6,24.3c-2.02.63-3.4,1.88-3.55,4.13-.02.3-.05.6-.11.9-.05.29-.09.55-.13.8-.13-.96-.32-3.82.02-6.03.46-3.01,3.45-2.84,3.76.21Z"/>
          <path d="m192.35,24.7c-.02.13-.05.25-.09.35-1.22-.89-2.81-1.23-3.61-1.3-.2-.01-.31-.01-.31-.01-.06,0-.13,0-.2,0,1.22-1.16,2.35-1.09,3.1-.8.72.28,1.22.99,1.11,1.76Z"/>
        </g>
        <circle class="cls-20" cx="188.41" cy="97.65" r="15.36"/>
        <g>
          <path class="cls-20" d="m183.95,179.51s-1.13,5.77-1.54,12.8c-.18,3.12.5,7.48.5,10.03,0,7.46-2.15,13.05-2.54,17.8-.51,6.19-1.05,12.06-.15,19.54.28,2.35.6,4.05-2.32,5.68-1.27.69-5.02.31-5.57-3.07,0-.02.16-9.77-.51-16.73-.77-8.08-2.95-16.85-3.41-22.39-.69-8.18,3.26-23.67,3.26-23.67h12.28Z"/>
          <path class="cls-20" d="m185.09,121.46c0-4.92-3.99-8.71-8.9-8.9-.12,0-.24,0-.35,0-2.73,0-5.04,2.01-5.56,4.69-.84,4.37-2.93,10.42-2.92,24.69,0,5.53,3.47,14.27,3.95,23.43.22,4.16.65,9.15.36,14.15h12.28c1.84-9.35,1.55-17.02,1.8-23.68.21-5.48,1.1-10.27,1.1-14.79,0-10.95-1.68-13.79-1.76-19.58Z"/>
          <path class="cls-20" d="m174.77,242.25c-.77.72-2.16,2.11-3.07,3.52-.28.44-.6.86-.98,1.23-.92.91-2.33,2.96-2.73,4.51,0,0-1.74,2.86-.74,3.42,0,0,1.39,1.2,2.77.69,0,0,1.61.37,2.44-.09,0,0,1.34.41,2.26,0,0,0,2.81,1.29,4.66.23s1.38-4.34,1.38-4.34l-.55-8.22c-.07-1.09-.87-2.03-1.96-2.19-.52-.07-1.16-.02-1.94.26-.58.21-1.11.55-1.56.97Z"/>
          <circle class="cls-20" cx="179.44" cy="116.91" r="8.84"/>
          <circle class="cls-21" cx="177.99" cy="178.75" r="6.23"/>
          <circle class="cls-21" cx="176.35" cy="241.6" r="4.07"/>
        </g>
        <g>
          <path class="cls-20" d="m192.62,179.51s1.13,5.77,1.54,12.8c.18,3.12-.5,7.48-.5,10.03,0,7.46,2.15,13.05,2.54,17.8.51,6.19,1.05,12.06.15,19.54-.28,2.35-.6,4.05,2.32,5.68,1.27.69,5.02.31,5.57-3.07,0-.02-.16-9.77.51-16.73.77-8.08,2.95-16.85,3.41-22.39.69-8.18-3.26-23.67-3.26-23.67h-12.28Z"/>
          <path class="cls-20" d="m191.48,121.46c0-4.92,3.99-8.71,8.9-8.9.12,0,.24,0,.35,0,2.73,0,5.04,2.01,5.56,4.69.84,4.37,2.93,10.42,2.92,24.69,0,5.53-3.47,14.27-3.95,23.43-.22,4.16-.65,9.15-.36,14.15h-12.28c-1.84-9.35-1.55-17.02-1.8-23.68-.21-5.48-1.1-10.27-1.1-14.79,0-10.95,1.68-13.79,1.76-19.58Z"/>
          <circle class="cls-20" cx="197.12" cy="116.91" r="8.84"/>
          <circle class="cls-21" cx="198.57" cy="178.75" r="6.23"/>
          <circle class="cls-21" cx="200.22" cy="241.6" r="4.07"/>
          <path class="cls-20" d="m201.8,242.25c.77.72,2.16,2.11,3.07,3.52.28.44.6.86.98,1.23.92.91,2.33,2.96,2.73,4.51,0,0,1.74,2.86.74,3.42,0,0-1.39,1.2-2.77.69,0,0-1.61.37-2.44-.09,0,0-1.34.41-2.26,0,0,0-2.81,1.29-4.66.23-1.84-1.06-1.38-4.34-1.38-4.34l.55-8.22c.07-1.09.87-2.03,1.96-2.19.52-.07,1.16-.02,1.94.26.58.21,1.11.55,1.56.97Z"/>
        </g>
        <g>
          <path class="cls-20" d="m161.02,68.43s-.75,8.04-.15,17.88c.31,5.15-.95,10.74-1.61,15.54-.43,3.09,2.31,6.42,5.83,6.21,0,0,4.55,0,5.34-5.17.37-2.45-.24-5.33.19-8.19,1.69-11.29,4.35-24,4.35-24l-13.94-2.28Z"/>
          <path class="cls-20" d="m167.08,117.02c-1.39,3.72-4.31,17.58-4.31,17.58,0,.05-.78,2.82-.78,2.87l-5.79-.95s.12-3.26.37-5.08c.07-.5.14-1.06.22-1.66h0s0-.05,0-.07c.36-2.8.8-6.58,1.11-10.62.45-5.89.56-12.86,1.45-17.97l11.05,1.77c.27,1.87-.72,7.13-3.33,14.13Z"/>
          <circle class="cls-20" cx="167.91" cy="69.71" r="7.05"/>
          <circle class="cls-20" cx="164.85" cy="102.46" r="5.6"/>
          <g id="Layer_2-2" data-name="Layer 2">
            <g id="Scene1_2" data-name="Scene1 2">
              <g id="Hand">
                <circle class="cls-20" cx="159.5" cy="135.88" r="2.96"/>
              </g>
            </g>
          </g>
          <g>
            <path class="cls-14" d="m157.9,147.87c1.89.57,4.45-1.02,4.54,1.36-1.59.49-4.15.69-6.26-.1l1.72-1.26Z"/>
            <path class="cls-14" d="m158.78,149.48c2.35.93,5.33-.76,5.19,2.28-2.08.45-4.93.38-7.52-.87l2.32-1.42Z"/>
            <path class="cls-14" d="m159.89,150.76c2.28,1.1,6.02-.46,5.65,2.57-2.11.3-5.58.1-8.08-1.33l2.42-1.24Z"/>
            <path class="cls-20" d="m161.66,136.13l-.42,9.24c-1.49,1.67-1.85,3.84-.84,6.63,2.6,1.34,5.37,1.43,4.76,3.46-2.12.18-5.24-.38-7.65-1.94l-3.07-7.19c.12-3.59.81-7.15,1.83-10.12l5.39-.08Z"/>
            <path class="cls-20" d="m161.09,145.36c1.39,1.23.74,1.77,1.22,4.01.7,3.25,2.94,2.92,3.22,2.1.28-.82-.83-5.69-.83-5.69-.86-3.29-.25-6.79-3.05-9.65-1.6,1.97-.58,5.66-.56,9.24Z"/>
          </g>
        </g>
        <g>
          <path class="cls-20" d="m215.91,68.43s.75,8.04.15,17.88c-.31,5.15.95,10.74,1.61,15.54.43,3.09-2.31,6.42-5.83,6.21,0,0-4.55,0-5.34-5.17-.37-2.45.24-5.33-.19-8.19-1.69-11.29-4.35-24-4.35-24l13.94-2.28Z"/>
          <path class="cls-20" d="m209.84,117.02c1.39,3.72,4.31,17.58,4.31,17.58,0,.05.78,2.82.78,2.87l5.79-.95s-.12-3.26-.37-5.08c-.07-.5-.14-1.06-.22-1.66h0s0-.05,0-.07c-.36-2.8-.8-6.58-1.11-10.62-.45-5.89-.56-12.86-1.45-17.97l-11.05,1.77c-.27,1.87.72,7.13,3.33,14.13Z"/>
          <circle class="cls-20" cx="209.01" cy="69.71" r="7.05"/>
          <circle class="cls-20" cx="212.07" cy="102.46" r="5.6"/>
          <g id="Layer_2-3" data-name="Layer 2">
            <g id="Scene1_2-2" data-name="Scene1 2">
              <g id="Hand-2" data-name="Hand">
                <circle class="cls-20" cx="217.43" cy="135.88" r="2.96"/>
              </g>
            </g>
          </g>
          <g>
            <path class="cls-14" d="m219.02,147.87c-1.89.57-4.45-1.02-4.54,1.36,1.59.49,4.15.69,6.26-.1l-1.72-1.26Z"/>
            <path class="cls-14" d="m218.14,149.48c-2.35.93-5.33-.76-5.19,2.28,2.08.45,4.93.38,7.52-.87l-2.32-1.42Z"/>
            <path class="cls-14" d="m217.03,150.76c-2.28,1.1-6.02-.46-5.65,2.57,2.11.3,5.58.1,8.08-1.33l-2.42-1.24Z"/>
            <path class="cls-20" d="m215.26,136.13l.42,9.24c1.49,1.67,1.85,3.84.84,6.63-2.6,1.34-5.37,1.43-4.76,3.46,2.12.18,5.24-.38,7.65-1.94l3.07-7.19c-.12-3.59-.81-7.15-1.83-10.12l-5.39-.08Z"/>
            <path class="cls-20" d="m215.83,145.36c-1.39,1.23-.74,1.77-1.22,4.01-.7,3.25-2.94,2.92-3.22,2.1-.28-.82.83-5.69.83-5.69.86-3.29.25-6.79,3.05-9.65,1.6,1.97.58,5.66.56,9.24Z"/>
          </g>
        </g>
        <path d="m206.61,179.04c0-.1,0-.19,0-.29,0-.19,3.35-29.13,3.35-38.86,0-4.59-1.79-15.76-1.79-15.76h0c-.22-1.42-.62-4.12-1.07-7.16-.19-1.29-.39-2.64-.59-3.98,0-.02,0-.04,0-.05h-36.47l-.13.88c-.13.88-.26,1.76-.38,2.61l-.07.47c-.45,3.06-.86,5.79-1.08,7.24h0s-1.73,11.15-1.73,15.75c0,9.72,3.35,38.67,3.35,38.86,0,.1,0,.2,0,.29-.3,1.57-2.52,13.33-2.65,19.15-.22,9.73,3.03,41.32,3.03,41.32h10.93s3.84-35.24,3.61-41.57c-.24-6.4,0-19.09,0-19.09h-.16l1.65-30.32.94-9.39c.34.09.7.14,1.07.14.29,0,.57-.03.84-.09l.94,9.33,1.65,30.32h-.16s.24,12.68,0,19.09c-.24,6.32,3.61,41.57,3.61,41.57h10.93s3.25-31.59,3.03-41.32c-.13-5.82-2.35-17.58-2.65-19.15Z"/>
        <g>
          <path d="m182.77,256.09s-.08,0-.2.02c.07-.28.17-.83.04-1.49-.07-.68-.42-1.78-.76-3.12-.34-1.35-.56-4.1-.56-4.1-.02-.13-.05-.26-.07-.39h0s0,0,0,0c-.49-2.67-1.47-4.3-1.6-4.51,0-.02-.02-.02-.02-.02h-.03s-5.06-.08-5.06-.08h0l-2.64-.04h-.1s-2.25,5.04-2.25,5.04c0,0-.03.08-.08.21h0c-.27.72-1.21,3.21-1.94,4.81-.58,1.25-.66,2.51-.57,3.57-.1-.01-.2-.02-.3-.03l-.17,1.54c3.06.34,6.14.45,8.79.45,4.39,0,7.62-.29,7.67-.3l-.14-1.55Z"/>
          <g>
            <path class="cls-4" d="m177.34,246.91s-2.08-1-3.87.16"/>
            <path class="cls-4" d="m177.44,245.91s-2.28-1-4.24.16"/>
            <path class="cls-4" d="m177.73,244.91s-2.6-1-4.83.16"/>
            <path class="cls-4" d="m178,243.78s-2.89-1-5.37.16"/>
            <path class="cls-4" d="m178.27,242.64s-3.17-1-5.9.16"/>
          </g>
        </g>
        <g>
          <path d="m193.8,256.09s.08,0,.2.02c-.07-.28-.17-.83-.04-1.49.07-.68.42-1.78.76-3.12.34-1.35.56-4.1.56-4.1.02-.13.05-.26.07-.39h0s0,0,0,0c.49-2.67,1.47-4.3,1.6-4.51,0-.02.02-.02.02-.02h.03s5.06-.08,5.06-.08h0l2.64-.04h.1s2.25,5.04,2.25,5.04c0,0,.03.08.08.21h0c.27.72,1.21,3.21,1.94,4.81.58,1.25.66,2.51.57,3.57.1-.01.2-.02.3-.03l.17,1.54c-3.06.34-6.14.45-8.79.45-4.39,0-7.62-.29-7.67-.3l.14-1.55Z"/>
          <g>
            <path class="cls-4" d="m199.24,246.91s2.08-1,3.87.16"/>
            <path class="cls-4" d="m199.14,245.91s2.28-1,4.24.16"/>
            <path class="cls-4" d="m198.84,244.91s2.6-1,4.83.16"/>
            <path class="cls-4" d="m198.57,243.78s2.89-1,5.37.16"/>
            <path class="cls-4" d="m198.31,242.64s3.17-1,5.9.16"/>
          </g>
        </g>
        <path class="cls-13" d="m220.36,127.87c0-1.18-.07-2.84-.31-5.19-.61-5.82-.8-12.99-1.52-18.55.02-.74-.09-1.46-.32-2.14,0-.01,0-.02,0-.03h0s-.02-.06-.03-.08c-.73-4.75-1.79-10.08-1.49-15.03.46-7.57.17-14.14-.02-17.21.01-.16.02-.32.02-.48,0-3.48-2.37-6.4-5.59-7.25l-14.11-7.02h0l-.12-.06-8.12,2.8-.22.08h-.25l-.19-.06-8.15-2.81-.06.03-14.46,6.93s.02.05.06.14c-3.17.88-5.5,3.78-5.5,7.23,0,.16.01.32.02.48-.2,3.07-.48,9.64-.02,17.21.3,4.95-.76,10.28-1.49,15.03,0,.03-.02.06-.03.09h0s0,.02,0,.03c-.22.68-.34,1.4-.32,2.14-.72,5.56-.92,12.72-1.52,18.55-.25,2.35-.32,4.02-.31,5.19-.11,0-.2.1-.19.21l.27,3.88,7.13.92.92-3.73c.03-.13-.02-.25-.11-.33,1.38-3.72,1.6-4.46,2.62-8.47,1.98-7.82,3.89-13.33,3.77-15.62.01-.06.02-.11.03-.18.09-.58.34-2.57.69-5.32.07,1.51.1,2.66.06,3.18-.09,1.2-1.42,8.05-2.11,12.8-.32,2.21,8.59,3.04,17.31,3.17h0c1.25.02,2.5.02,3.74,0,8.52-.16,16.94-.99,16.62-3.16-.69-4.74-1.87-11.59-1.97-12.8-.05-.57,0-1.87.1-3.56.37,2.95.65,5.1.74,5.7,0,.06.02.12.03.18-.12,2.29,1.79,7.8,3.77,15.62,1.02,4.01,1.24,4.75,2.62,8.47-.09.08-.14.2-.11.33l.92,3.73,7.13-.92.27-3.88c0-.11-.08-.21-.19-.21Z"/>
        <g>
          <polygon class="cls-10" points="195.25 50.83 188.63 57.5 194.33 63.15 197.64 56.42 195.25 50.83"/>
          <path class="cls-10" d="m188.63,57.5h-.42,0s-6.62-6.68-6.62-6.68l-2.39,5.6,3.31,6.72,5.69-5.63-.12.12-1.66,1.65.27,59.09h0c1.25.02,2.5.02,3.74,0v-59.09l-1.68-1.66-.12-.12Z"/>
        </g>
        <g class="cls-33">
          <polygon class="cls-13" points="195.25 50.83 188.63 57.5 194.33 63.15 197.64 56.42 195.25 50.83"/>
          <path class="cls-13" d="m188.63,57.5h-.42,0s-6.62-6.68-6.62-6.68l-2.39,5.6,3.31,6.72,5.69-5.63-.12.12-1.66,1.65.27,59.09h0c1.25.02,2.5.02,3.74,0v-59.09l-1.68-1.66-.12-.12Z"/>
        </g>
        <g>
          <path class="cls-10" d="m189.33,65.94c0,.38-.31.69-.69.69s-.69-.31-.69-.69.31-.69.69-.69.69.31.69.69Z"/>
          <path class="cls-10" d="m189.33,74.89c0,.38-.31.69-.69.69s-.69-.31-.69-.69.31-.69.69-.69.69.31.69.69Z"/>
          <path class="cls-10" d="m189.33,83.83c0,.38-.31.69-.69.69s-.69-.31-.69-.69.31-.69.69-.69.69.31.69.69Z"/>
          <path class="cls-10" d="m189.33,92.78c0,.38-.31.69-.69.69s-.69-.31-.69-.69.31-.69.69-.69.69.31.69.69Z"/>
          <path class="cls-10" d="m189.33,101.72c0,.38-.31.69-.69.69s-.69-.31-.69-.69.31-.69.69-.69.69.31.69.69Z"/>
          <path class="cls-10" d="m189.33,110.67c0,.38-.31.69-.69.69s-.69-.31-.69-.69.31-.69.69-.69.69.31.69.69Z"/>
        </g>
      </g>
      <g>
        <path class="cls-24" d="m144.05,56.78c1.15-1.64-.09-2.9-.09-2.9,1.04-1.67-.54-2.79-.54-2.79,1.33-1.74-.2-3.74-.2-3.74.83-2.09-1.2-3.62-1.2-3.62.08-3.06-2.26-5.96-2.26-5.96l-7.42-7.03h-7.85l-6.97,7.03s-2.19,2.9-2.12,5.96c0,0-1.91,1.54-1.13,3.62,0,0-1.43,2-.19,3.74,0,0-1.49,1.12-.51,2.79,0,0-1.17,1.26-.08,2.9,0,0-1.32,1.21.19,2.69,0,0-.66,1.98.52,2.64,0,0-.42,1.93,1.51,1.99,0,0,.52,2.04,1.82,1.6,0,0,1.06,1.16,2.38.61,0,0,.93.83,2.26.28,0,0,.97.59,1.92-.3,0,0,.37.44,1.11.44s1.06-.43,1.06-.43c0,0,.13.44,1.04.44s1.08-.44,1.08-.44c0,0,.3.43,1.2.43s1.16-.42,1.16-.42c0,0,.22.37,1.01.37s1.08-.45,1.08-.45c1.01.89,2,.36,2,.36,1.41.55,2.4-.28,2.4-.28,1.4.55,2.53-.61,2.53-.61,1.38.44,1.93-1.6,1.93-1.6,2.06-.06,1.61-1.99,1.61-1.99,1.25-.66.55-2.64.55-2.64,1.61-1.49.2-2.69.2-2.69Z"/>
        <g>
          <path class="cls-29" d="m140.92,108.35h-22.43s-7.91,16.49-7.74,20.78l16.61,8.94c1.4,1.04,3.28,1.04,4.68,0l16.98-8.94c.17-4.29-8.1-20.78-8.1-20.78Z"/>
          <path class="cls-29" d="m146.04,69.7l-16.32-5.2h0s-.01,0-.01,0h-.01s0,0,0,0l-16.32,5.2c-.92,5.43.88,13.83.88,13.83.63,6.68,2.24,12.78,3.28,16.19.62,2.04.94,4.18.94,6.32v2.32h22.45s.02-2.32.02-2.32c0-2.14.31-4.28.94-6.32,1.04-3.41,2.66-9.51,3.28-16.19,0,0,1.81-8.4.88-13.83Z"/>
          <path class="cls-29" d="m118.47,107.9c0-6.2,5.02-11.23,11.21-11.23s11.24,5.03,11.24,11.23-5.05,11.22-11.24,11.22-11.21-5.03-11.21-11.23Z"/>
          <g>
            <path class="cls-29" d="m108.1,74.07s-1.84,11.66-3.45,29.92c-.16,1.87,1.2,3.55,3.12,3.86h0c2.19.35,3.88-1.28,4.23-3.38,2.71-15.98,6.43-28.76,6.43-28.76l-10.34-1.63Z"/>
            <circle class="cls-29" cx="113.27" cy="74.89" r="5.24"/>
            <circle class="cls-29" cx="108.29" cy="104.15" r="3.74"/>
            <g>
              <path class="cls-29" d="m104.74,102.97l-2.38,4.55c-.56,1.06-1.05,2.15-1.47,3.27-.69,1.84-1.29,3.71-1.79,5.61l-3.31,12.69,4.76.83s1.25-3.18,3.32-6.84c3.45-6.09,8.51-14.53,7.96-17.72l-7.08-2.4Z"/>
              <circle class="cls-29" cx="98.05" cy="130.15" r="2.5"/>
            </g>
            <g id="Layer_2-4" data-name="Layer 2">
              <g id="Scene1_2-3" data-name="Scene1 2">
                <g id="Hand-3" data-name="Hand">
                  <circle class="cls-29" cx="98.14" cy="130.07" r="2.49"/>
                </g>
              </g>
            </g>
            <g>
              <path class="cls-32" d="m96.97,139.36c1.56.47,3.66-.84,3.73,1.12-1.31.4-3.42.57-5.14-.08l1.41-1.03Z"/>
              <path class="cls-32" d="m97.69,140.69c1.93.77,4.39-.63,4.27,1.88-1.71.37-4.05.31-6.18-.71l1.91-1.16Z"/>
              <path class="cls-28" d="m98.6,141.74c1.87.91,4.95-.38,4.65,2.11-1.74.24-4.59.09-6.64-1.09l1.99-1.02Z"/>
              <path class="cls-29" d="m100.06,129.71l-.34,7.59c-1.22,1.37-1.52,3.16-.69,5.45,2.14,1.1,4.42,1.18,3.91,2.84-1.75.15-4.31-.31-6.29-1.6l-2.52-5.91c.1-2.96.67-5.88,1.5-8.32l4.43-.06Z"/>
              <path class="cls-28" d="m96.65,144c-.05.01-.49-1.09-.83-2.47-.34-1.38-.58-2.5-.53-2.51.05-.01.37,1.09.72,2.47.34,1.38.7,2.5.65,2.51Z"/>
              <path class="cls-29" d="m99.6,137.3c1.14,1.01.61,1.46,1,3.29.58,2.68,2.42,2.4,2.65,1.73.23-.67-.68-4.68-.68-4.68-.71-2.71-.21-5.58-2.51-7.94-1.32,1.62-.48,4.66-.46,7.59Z"/>
            </g>
          </g>
          <g>
            <path class="cls-29" d="m128.69,181.13s.3,16.14.09,22.76c-.21,6.56-1.3,10.37-1.47,16.93-.12,4.45.3,11.66.3,11.66l-5.1.55s-5.31-19.21-6.19-29.48c-.57-6.61,1.99-22.42,1.99-22.42h10.38Z"/>
            <g>
              <path class="cls-29" d="m128.78,130.73c0-5.02-4.07-9.09-9.09-9.09s-9.09,4.07-9.09,9.09c0,0,0,3.89,0,3.9,0,10.42-.18,18.93,7.1,41.23.29.88.5,1.66.65,2.36.02.11-.08,2.81-.05,2.91h10.98c-.08-.83-.48-4.69-.51-6.05-.11-5.62.36-24.57.36-29.13,0-7.1-.36-13.88-.36-15.21Z"/>
              <circle class="cls-29" cx="119.7" cy="130.73" r="9.09"/>
            </g>
            <circle class="cls-29" cx="123.8" cy="181.06" r="5.49"/>
            <circle class="cls-29" cx="125.1" cy="233.17" r="2.63"/>
            <path class="cls-29" d="m129.44,242.31s.49-6.61-1.7-9.14h-4.34c-.53,0-.88-.15-.88-.15,0,0-1.43,2.09-1.58,2.6-.2.66-.41,1.77-.61,2.58-.55,2.26-1.13,3.6-1.13,4.55,0,0-.23.59-.36,1.22-.05.25-.13.49-.27.7-.05.08-.08.16-.1.25-.11.51.28.95.77.95.06,0,.12,0,.18-.02.14-.04.3,0,.41.11.15.15.36.24.59.24.12,0,.23-.03.34-.07.2-.09.43-.04.59.11.22.19.51.31.83.31.26,0,.49-.08.69-.2.22-.14.51-.11.71.06.21.19.49.31.8.31s.59-.11.8-.3.54-.21.75-.02c.37.34.87.56,1.41.56,1.17,0,2.12-.97,2.07-2.16,0-.12-.02-.23-.04-.34-.05-.24-.06-.49-.02-.73,0-.05.01-.09.01-.14l.09-1.27Z"/>
          </g>
          <ellipse class="cls-29" cx="122.5" cy="88.3" rx="8.52" ry="7.46" transform="translate(-11.19 158.52) rotate(-63.49)"/>
          <ellipse class="cls-29" cx="136.83" cy="88.3" rx="7.46" ry="8.52" transform="translate(-25.03 70.35) rotate(-26.51)"/>
          <g>
            <path class="cls-29" d="m131.12,181.13s-.3,16.14-.09,22.76c.21,6.56,1.3,10.37,1.47,16.93.12,4.45-.3,11.66-.3,11.66l5.1.55s5.31-19.21,6.19-29.48c.57-6.61-1.99-22.42-1.99-22.42h-10.38Z"/>
            <g>
              <path class="cls-29" d="m131.03,130.73c0-5.02,4.07-9.09,9.09-9.09,5.02,0,9.09,4.07,9.09,9.09,0,0,0,3.89,0,3.9,0,10.42.18,18.93-7.1,41.23-.29.88-.5,1.66-.65,2.36-.02.11.08,2.81.05,2.91h-10.98c.08-.83.48-4.69.51-6.05.11-5.62-.36-24.57-.36-29.13,0-7.1.36-13.88.36-15.21Z"/>
              <circle class="cls-29" cx="140.12" cy="130.73" r="9.09"/>
            </g>
            <circle class="cls-29" cx="136.01" cy="181.06" r="5.49"/>
            <circle class="cls-29" cx="134.71" cy="233.17" r="2.63"/>
            <path class="cls-29" d="m130.39,242.31s-.49-6.61,1.7-9.14h4.34c.53,0,.88-.15.88-.15,0,0,1.43,2.09,1.58,2.6.2.66.41,1.77.61,2.58.55,2.26,1.13,3.6,1.13,4.55,0,0,.23.59.36,1.22.05.25.13.49.27.7.05.08.08.16.1.25.11.51-.28.95-.77.95-.06,0-.12,0-.18-.02-.14-.04-.3,0-.41.11-.15.15-.36.24-.59.24-.12,0-.23-.03-.34-.07-.2-.09-.43-.04-.59.11-.22.19-.51.31-.83.31-.26,0-.49-.08-.69-.2-.22-.14-.51-.11-.71.06-.21.19-.49.31-.8.31s-.59-.11-.8-.3-.54-.21-.75-.02c-.37.34-.87.56-1.41.56-1.17,0-2.12-.97-2.07-2.16,0-.12.02-.23.04-.34.05-.24.06-.49.02-.73,0-.05-.01-.09-.01-.14l-.09-1.27Z"/>
          </g>
          <g>
            <path class="cls-29" d="m150.43,74.07s1.84,11.66,3.45,29.92c.16,1.87-1.2,3.55-3.12,3.86h0c-2.19.35-3.88-1.28-4.23-3.38-2.71-15.98-6.43-28.76-6.43-28.76l10.34-1.63Z"/>
            <circle class="cls-29" cx="145.25" cy="74.89" r="5.24"/>
            <circle class="cls-29" cx="150.24" cy="104.15" r="3.74"/>
            <g>
              <path class="cls-29" d="m153.78,102.97l2.38,4.55c.56,1.06,1.05,2.15,1.47,3.27.69,1.84,1.29,3.71,1.79,5.61l3.31,12.69-4.76.83s-1.25-3.18-3.32-6.84c-3.45-6.09-8.51-14.53-7.96-17.72l7.08-2.4Z"/>
              <circle class="cls-29" cx="160.48" cy="130.15" r="2.5"/>
            </g>
            <g id="Layer_2-5" data-name="Layer 2">
              <g id="Scene1_2-4" data-name="Scene1 2">
                <g id="Hand-4" data-name="Hand">
                  <circle class="cls-29" cx="160.39" cy="130.07" r="2.49"/>
                </g>
              </g>
            </g>
            <g>
              <path class="cls-32" d="m161.56,139.36c-1.56.47-3.66-.84-3.73,1.12,1.31.4,3.42.57,5.14-.08l-1.41-1.03Z"/>
              <path class="cls-32" d="m160.84,140.69c-1.93.77-4.39-.63-4.27,1.88,1.71.37,4.05.31,6.18-.71l-1.91-1.16Z"/>
              <path class="cls-28" d="m159.92,141.74c-1.87.91-4.95-.38-4.65,2.11,1.74.24,4.59.09,6.64-1.09l-1.99-1.02Z"/>
              <path class="cls-29" d="m158.47,129.71l.34,7.59c1.22,1.37,1.52,3.16.69,5.45-2.14,1.1-4.42,1.18-3.91,2.84,1.75.15,4.31-.31,6.29-1.6l2.52-5.91c-.1-2.96-.67-5.88-1.5-8.32l-4.43-.06Z"/>
              <path class="cls-28" d="m161.88,144c.05.01.49-1.09.83-2.47.34-1.38.58-2.5.53-2.51-.05-.01-.37,1.09-.72,2.47-.34,1.38-.7,2.5-.65,2.51Z"/>
              <path class="cls-29" d="m158.93,137.3c-1.14,1.01-.61,1.46-1,3.29-.58,2.68-2.42,2.4-2.65,1.73-.23-.67.68-4.68.68-4.68.71-2.71.21-5.58,2.51-7.94,1.32,1.62.48,4.66.46,7.59Z"/>
            </g>
          </g>
        </g>
        <circle class="cls-29" cx="129.55" cy="69.18" r="6.14"/>
        <path class="cls-18" d="m149.8,114.59c.21.28.5.49.85.42l7.69-1.53c.31-.06.52-.35.47-.67-.3-1.93-2.07-8.22-3.77-11.18h-.04c-2-14.97-3.87-25.22-4.42-28.12-.01-.28-.04-.57-.09-.85-.53-2.69-2.9-4.54-5.55-4.51-1.27-.08-4.31-.34-6.58-1.14-.5-.17-.96-.37-1.36-.61-.72-.42-2.03-.6-2.03-.6-.02.16-.8,10.77-5.53,17.48-4.73-6.71-5.51-17.32-5.53-17.48,0,0-1.31.18-2.03.6-.4.23-.86.44-1.36.61-2.29.81-5.37,1.07-6.62,1.14-2.67-.06-5.07,1.8-5.61,4.51-.06.29-.08.57-.09.85-.55,2.9-2.41,13.15-4.42,28.13h-.04c-1.69,2.95-3.47,9.23-3.77,11.17-.05.31.16.61.47.67l7.69,1.53c.35.07.64-.14.85-.42,3.15-4.2,3.21-7.3,2.89-8.93.43-1.95,1.45-6.44,1.66-7.32.27-1.15.55-2.28.83-3.37.08-.35.17-.7.26-1.04.1-.41.21-.81.31-1.21,0,.05,0,.11,0,.16.05.86.09,1.69.13,2.49.02.48.05.94.07,1.39.05,1.11.09,2.13.13,3.03.02.76.05,1.44.05,2.01.02,1.33-.25,3.28-.66,5.48-.2,1.09-.5,2.26-.71,3.43-8.51,24.56-13.7,66.65-13.98,70.97,4.85,2.05,10.28,3.6,16.09,4.55,1.94.31,7.58,1.14,13.22,1.14s11.28-.82,13.22-1.14c5.81-.95,11.24-2.5,16.09-4.55-.28-4.32-2.78-31.3-13.69-71.02-.16-1.16-.5-2.31-.7-3.39-.41-2.2-.68-4.15-.66-5.48,0-.58.03-1.25.05-2.01.03-.9.07-1.93.13-3.03.02-.45.05-.91.07-1.39.04-.75.08-1.54.12-2.34.08.3.15.59.23.9.09.34.18.69.26,1.04.28,1.09.55,2.22.83,3.37.21.86,1.07,5.25,1.48,7.28-.25,1.62-.09,4.74,3.08,8.96Z"/>
        <path class="cls-10" d="m140.37,68.49c-1.31-1.3-2.12-2.2-2.98-2.68-.57-.32-1.82-.29-2.41,0h0s0,0,0,0c0,0,0,.02,0,.06l-1.03,4.94c-.92,3.85-2.43,9.07-4.5,12.37-2.05-3.29-3.56-8.45-4.48-12.3l-1.05-5.07s0,0,0,0h0s0,0,0,0c-.59-.29-1.84-.32-2.41,0-.85.48-1.67,1.38-2.98,2.68-1.13,1.13-3.69,2.51-3.69,2.51,1.21,1.18,3.46.73,4.1.55.05-.01.09-.03.14-.05-.01.01-.02.02-.02.02l2.98-.86c.15-.04.3-.07.45-.1,1.08,4.96,2.89,11.35,5.57,14.41v40.62h2.77v-40.62c2.67-3.06,4.49-9.45,5.57-14.41.15.03.31.06.46.1l2.98.86s0,0-.02-.02c.05.02.09.04.14.05.65.19,2.89.63,4.1-.55,0,0-2.56-1.38-3.69-2.51Z"/>
        <path class="cls-12" d="m133.19,65.06s0,0-.01,0c-.01,0,0,0,.01,0Z"/>
        <g>
          <path d="m129.49,242.89c.01-.51.08-1.88.04-2.64-.08-1.61-.18-5.03-.65-5.22-.09.31-1.19,6.02-5.83,5.81-3.2-.15-1.93-5.03-2.11-5.49-.34.41-2.72,7.45-2.93,8.19,0-.02,0-.03,0-.01-.2.79-.37,1.74-.37,2.62,0,.46,1.72,1.9,3.79,1.9,2.43,0,4.82-.63,6.39-1.37,1.03-.49,1.62-.81,1.64-1.18.04-.17.13-1.63.01-1.94,0-.25.01-.48.02-.66Z"/>
          <path class="cls-10" d="m127.23,243.65c.06,0,.12-.01.17-.03.15-.06.19-.19.1-.29-.06-.06-1.44-1.47-4.53-1.53-2.85-.06-3.73.99-3.77,1.03-.08.1-.02.23.13.28.15.05.35.02.43-.09.03-.03.75-.86,3.19-.81,2.74.06,3.96,1.28,4.01,1.34.06.06.16.1.27.1Z"/>
        </g>
        <g>
          <path d="m130.12,242.89c-.01-.51-.08-1.88-.04-2.64.08-1.61.18-5.03.65-5.22.09.31,1.19,6.02,5.83,5.81,3.2-.15,1.93-5.03,2.11-5.49.34.41,2.72,7.45,2.93,8.19,0-.02,0-.03,0-.01.2.79.37,1.74.37,2.62,0,.46-1.72,1.9-3.79,1.9-2.43,0-4.82-.63-6.39-1.37-1.03-.49-1.62-.81-1.64-1.18-.04-.17-.13-1.63-.01-1.94,0-.25-.01-.48-.02-.66Z"/>
          <path class="cls-10" d="m132.38,243.65c-.06,0-.12-.01-.17-.03-.15-.06-.19-.19-.1-.29.06-.06,1.44-1.47,4.53-1.53,2.85-.06,3.73.99,3.77,1.03.08.1.02.23-.13.28-.15.05-.35.02-.43-.09-.03-.03-.75-.86-3.19-.81-2.74.06-3.96,1.28-4.01,1.34-.06.06-.16.1-.27.1Z"/>
        </g>
        <path class="cls-17" d="m140.37,68.49c-1.31-1.3-2.12-2.2-2.98-2.68-.57-.32-1.82-.29-2.41,0h0s0,0,0,0c0,0,0,.02,0,.06l-1.03,4.94c-.92,3.85-2.43,9.07-4.5,12.37-2.05-3.29-3.56-8.45-4.48-12.3l-1.05-5.07s0,0,0,0h0s0,0,0,0c-.59-.29-1.84-.32-2.41,0-.85.48-1.67,1.38-2.98,2.68-1.13,1.13-3.69,2.51-3.69,2.51,1.21,1.18,3.46.73,4.1.55.05-.01.09-.03.14-.05-.01.01-.02.02-.02.02l2.98-.86c.15-.04.3-.07.45-.1,1.08,4.96,2.89,11.35,5.57,14.41v40.62h2.77v-40.62c2.67-3.06,4.49-9.45,5.57-14.41.15.03.31.06.46.1l2.98.86s0,0-.02-.02c.05.02.09.04.14.05.65.19,2.89.63,4.1-.55,0,0-2.56-1.38-3.69-2.51Z"/>
        <g>
          <path class="cls-10" d="m130.11,87.56c0,.36-.3.66-.66.66s-.66-.3-.66-.66.3-.66.66-.66.66.3.66.66Z"/>
          <circle class="cls-10" cx="129.45" cy="93.6" r=".66"/>
          <circle class="cls-10" cx="129.45" cy="99.64" r=".66"/>
          <circle class="cls-10" cx="129.45" cy="105.68" r=".66"/>
        </g>
        <polygon class="cls-29" points="134.48 68.22 124.45 67.53 124.11 66.77 123.91 65.81 123.98 64.88 124.39 62.08 124.7 60.03 124.75 59.64 124.84 59.02 125.27 56.12 133.86 56.13 134.34 59.48 134.42 60 134.48 60.42 134.54 60.79 134.6 61.21 134.98 65.81 134.66 67.46 134.48 68.22"/>
        <circle class="cls-29" cx="129.55" cy="56.13" r="4.3"/>
        <path class="cls-28" d="m134.6,61.21l-.69,1.15c-.34.57-.74,1.1-1.19,1.56-1.49,1.57-3.51,2.48-5.63,2.48l-3.18-.59.07-.93.41-2.8.3-2.05,9.79.4.05.37.06.42Z"/>
        <g>
          <ellipse class="cls-24" cx="129.1" cy="42.07" rx="11.83" ry="12.33"/>
          <g>
            <path class="cls-29" d="m139.69,44.86c0,1.09-.17,2.13-.48,3.11,0,0-.86,5.41-1,6.18,0,.01,0,.02,0,.03-.29,1.57-.72,2.8-1.59,4.26h0c-.28.48-.61.97-1,1.51-.6.83-.86,1.16-1.65,1.99-.71.73-1.61,1.5-3.39,1.84-.32.06-1.09.09-1.76.05-.19,0-.35-.02-.51-.05-1.79-.33-2.68-1.1-3.39-1.84-.8-.82-1.06-1.16-1.65-1.99-1.58-2.19-2.2-3.69-2.59-5.77-.12-.63-1.04-6.21-1.04-6.21h0c-.31-.98-.48-2.03-.48-3.11,0-5.67,4.6-10.27,10.27-10.27,3.32,0,6.28,1.58,8.15,4.03.23.3.44.61.63.93.94,1.55,1.48,3.37,1.48,5.32Z"/>
            <path class="cls-29" d="m139.21,47.98s3.69-.94,2.86,2.45c-.99,4.07-3.86,3.59-3.86,3.59l1-6.05Z"/>
            <path class="cls-24" d="m120.05,46.76c-.1.02-.16-.09-.09-.16.39-.42,1.3-1.26,2.4-1.46s2.76-.11,3.6-.04c.43.03.77.38.77.81,0,0,0,.01,0,.02,0,.34-.22.49-.41.56-.14.05-.29.06-.44.04-.61-.09-3.1-.43-3.55-.32-.39.1-1.69.41-2.28.55Z"/>
            <path class="cls-24" d="m136.48,46.76c.1.02.16-.09.09-.16-.39-.42-1.3-1.26-2.4-1.46s-2.76-.11-3.6-.04c-.43.03-.77.38-.77.81,0,0,0,.01,0,.02,0,.34.22.49.41.56.14.05.29.06.44.04.61-.09,3.1-.43,3.55-.32.39.1,1.69.41,2.28.55Z"/>
            <g>
              <ellipse class="cls-24" cx="123.45" cy="48.89" rx=".97" ry="1.37"/>
              <path class="cls-24" d="m124.42,48.04c-1.18.07-1.66-.11-2.75-.12.34-1.32,2.42-1.12,2.75.12h0Z"/>
              <ellipse class="cls-24" cx="133.07" cy="48.89" rx=".97" ry="1.37"/>
              <path class="cls-24" d="m134.85,48.04c-1.18.07-1.66-.11-2.75-.12.34-1.32,2.42-1.12,2.75.12h0Z"/>
            </g>
            <g>
              <path class="cls-10" d="m125.21,56.62h5.7s-1.08,1.9-2.81,1.9-2.89-1.9-2.89-1.9Z"/>
              <path class="cls-25" d="m128.1,56.09c-.96-1-3.68.53-3.68.53,0,0,2.32.63,3.68.63s3.68-.63,3.68-.63c0,0-2.72-1.53-3.68-.53Z"/>
              <path class="cls-25" d="m131.78,56.62l-1.12.27-1.1.64c-.91.53-2.02.53-2.93.02l-1.18-.67-1.03-.25c.71,1.79,2.02,2.57,2.87,2.9.52.2,1.1.2,1.62,0,.85-.33,2.16-1.1,2.87-2.9Z"/>
            </g>
            <path class="cls-1" d="m129.86,52.8s-.11.31-1.41.43c0,0-.03,0-.07.02-.32.1-.73.1-1.05,0-.04-.01-.07-.02-.07-.02-1.3-.12-1.41-.43-1.41-.43"/>
          </g>
          <path class="cls-24" d="m129.87,33.98s-3.69.25-3.67.28c-2.04-.12-11.01,3.87-6.61,15.31,0,0,.69-4.38.92-4.81.23-.43-.72-.38-.72-.38,0,0,.77-1.6,1.32-1.83.55-.23-.33-.95-.33-.95,0,0,1.15-1.05,1.56-1.14,0,0,.16-.29.14-.61s-.22-.55-.22-.55c0,0,1.35-.19,1.62-.44,0,0,.39-.21-.37-.58,0,0,.84.31,1.75.06.91-.25-.09-.92-.09-.92,0,0,1.34.51,1.61.36.16-.09.25-.57.3-.95.31.43.8.95,1.35.97.55.02,1.15-.59,1.56-1.11.08.43.21.95.39,1.04.3.16,1.71-.51,1.71-.51,0,0-1.03.82-.03,1.05s1.89-.17,1.89-.17c-.8.46-.36.68-.36.68.31.27,1.78.4,1.78.4,0,0-.2.27-.2.65,0,.37.19.69.19.69.45.08,1.76,1.21,1.76,1.21,0,0-.89.88-.28,1.11.61.23,1.55,2.01,1.55,2.01,0,0-1.03,0-.75.48.28.48,1.53,4.24,1.53,4.24,3.87-13.09-6.82-15.85-9.3-15.59Z"/>
          <path class="cls-25" d="m117.31,41.76s3.06-8.36,11.68-8.36,11.84,7.63,11.84,7.63c0,0-3.04-5.78-11.76-5.78s-11.76,6.5-11.76,6.5Z"/>
        </g>
      </g>
      <rect class="cls-10" x="0" y="133.78" width="234.59" height="135.82"/>
      <g>
        <circle class="cls-29" cx="98.05" cy="130.15" r="2.5"/>
        <g id="Layer_2-6" data-name="Layer 2">
          <g id="Scene1_2-5" data-name="Scene1 2">
            <g id="Hand-5" data-name="Hand">
              <circle class="cls-29" cx="98.14" cy="130.07" r="2.49"/>
            </g>
          </g>
        </g>
        <g>
          <path class="cls-32" d="m96.97,139.36c1.56.47,3.66-.84,3.73,1.12-1.31.4-3.42.57-5.14-.08l1.41-1.03Z"/>
          <path class="cls-32" d="m97.69,140.69c1.93.77,4.39-.63,4.27,1.88-1.71.37-4.05.31-6.18-.71l1.91-1.16Z"/>
          <path class="cls-28" d="m98.6,141.74c1.87.91,4.95-.38,4.65,2.11-1.74.24-4.59.09-6.64-1.09l1.99-1.02Z"/>
          <path class="cls-29" d="m100.06,129.71l-.34,7.59c-1.22,1.37-1.52,3.16-.69,5.45,2.14,1.1,4.42,1.18,3.91,2.84-1.75.15-4.31-.31-6.29-1.6l-2.52-5.91c.1-2.96.67-5.88,1.5-8.32l4.43-.06Z"/>
          <path class="cls-28" d="m96.65,144c-.05.01-.49-1.09-.83-2.47-.34-1.38-.58-2.5-.53-2.51.05-.01.37,1.09.72,2.47.34,1.38.7,2.5.65,2.51Z"/>
          <path class="cls-29" d="m99.6,137.3c1.14,1.01.61,1.46,1,3.29.58,2.68,2.42,2.4,2.65,1.73.23-.67-.68-4.68-.68-4.68-.71-2.71-.21-5.58-2.51-7.94-1.32,1.62-.48,4.66-.46,7.59Z"/>
        </g>
      </g>
      <g>
        <path class="cls-20" d="m213.59,132.82c0,.05,1.05,4.16,1.05,4.21l6.07-.51s.08-1.01-.17-2.83"/>
        <g id="Layer_2-7" data-name="Layer 2">
          <g id="Scene1_2-6" data-name="Scene1 2">
            <g id="Hand-6" data-name="Hand">
              <circle class="cls-20" cx="217.43" cy="135.88" r="2.96"/>
            </g>
          </g>
        </g>
        <g>
          <path class="cls-14" d="m219.02,147.87c-1.89.57-4.45-1.02-4.54,1.36,1.59.49,4.15.69,6.26-.1l-1.72-1.26Z"/>
          <path class="cls-14" d="m218.14,149.48c-2.35.93-5.33-.76-5.19,2.28,2.08.45,4.93.38,7.52-.87l-2.32-1.42Z"/>
          <path class="cls-14" d="m217.03,150.76c-2.28,1.1-6.02-.46-5.65,2.57,2.11.3,5.58.1,8.08-1.33l-2.42-1.24Z"/>
          <path class="cls-20" d="m215.26,136.13l.42,9.24c1.49,1.67,1.85,3.84.84,6.63-2.6,1.34-5.37,1.43-4.76,3.46,2.12.18,5.24-.38,7.65-1.94l3.07-7.19c-.12-3.59-.81-7.15-1.83-10.12l-5.39-.08Z"/>
          <path class="cls-20" d="m215.83,145.36c-1.39,1.23-.74,1.77-1.22,4.01-.7,3.25-2.94,2.92-3.22,2.1-.28-.82.83-5.69.83-5.69.86-3.29.25-6.79,3.05-9.65,1.6,1.97.58,5.66.56,9.24Z"/>
        </g>
      </g>
    </g>
  </g>
</svg>