<?xml version="1.0" encoding="UTF-8"?>
<svg id="Layer_2" data-name="Layer 2" xmlns="http://www.w3.org/2000/svg" viewBox="0 0 38.66 52.07">
  <defs>
    <style>
      .cls-1, .cls-2 {
        fill: none;
        stroke-miterlimit: 10;
      }

      .cls-1, .cls-2, .cls-3 {
        stroke-linecap: round;
        stroke-width: 1.5px;
      }

      .cls-1, .cls-3 {
        stroke: #1a1a1a;
      }

      .cls-2 {
        stroke: #1b4579;
      }

      .cls-3 {
        fill: #ba0c2f;
        stroke-linejoin: round;
      }
    </style>
  </defs>
  <g id="Content">
    <g id="Layer_29" data-name="Layer 29">
      <g>
        <path class="cls-2" d="m23.4,47.25c0,2.24-1.82,4.07-4.07,4.07s-4.07-1.82-4.07-4.07v-.7h8.14v.7Z"/>
        <rect class="cls-2" x="13.75" y="42.63" width="11.14" height="3.97"/>
        <rect class="cls-2" x="13.75" y="38.6" width="11.14" height="3.97"/>
        <polyline class="cls-1" points="21.79 43.42 22.73 27.64 19.26 28.59 15.92 27.64 16.87 43.42"/>
        <path class="cls-1" d="m23.4,47.25c0,2.24-1.82,4.07-4.07,4.07s-4.07-1.82-4.07-4.07v-.7h8.14v.7Z"/>
        <g>
          <line class="cls-1" x1="19.33" y1="3.97" x2="19.33" y2=".75"/>
          <line class="cls-1" x1="10.21" y1="6.41" x2="8.6" y2="3.62"/>
          <line class="cls-1" x1="3.54" y1="13.09" x2=".75" y2="11.48"/>
          <line class="cls-1" x1="35.12" y1="13.09" x2="37.91" y2="11.48"/>
          <line class="cls-1" x1="28.44" y1="6.41" x2="30.05" y2="3.62"/>
        </g>
        <path class="cls-1" d="m11.24,34.88c-4.25-2.55-6.94-7.35-6.94-12.67,0-8.3,6.73-15.04,15.04-15.04s15.04,6.73,15.04,15.04c0,5.32-2.69,10.13-6.94,12.67-1.54.92-2.52,1.3-2.52,3.72v7.94h-11.14v-7.94c0-2.42-.99-2.8-2.52-3.72h0Z"/>
        <line class="cls-2" x1="13.75" y1="38.6" x2="24.9" y2="38.6"/>
        <rect class="cls-3" x="13.63" y="38.46" width="11.4" height="8.18"/>
      </g>
    </g>
  </g>
</svg>