<?xml version="1.0" encoding="UTF-8"?>
<svg id="Layer_2" data-name="Layer 2" xmlns="http://www.w3.org/2000/svg" viewBox="0 0 48.11 45.23">
  <defs>
    <style>
      .cls-1 {
        fill: #ba0c2f;
      }

      .cls-1, .cls-2 {
        stroke: #1a1a1a;
        stroke-linecap: round;
        stroke-linejoin: round;
        stroke-width: 1.5px;
      }

      .cls-2 {
        fill: #fff;
      }
    </style>
  </defs>
  <g id="Content">
    <g id="Layer_2-2" data-name="Layer 2">
      <g id="Layer_3" data-name="Layer 3">
        <path class="cls-2" d="m12.64,24.83l1.88-1.02c1.86-.98,3.35-2.54,4.26-4.43l3.66-7.62c.58-1.21.84-2.56.75-3.9l-.27-3.54c-.15-1.81,1.21-3.4,3.02-3.55.41-.03.82.01,1.22.13,1.45.55,2.56,1.77,2.97,3.26,2.15,5.73.48,12.8.48,12.8h11.93s4.3.33,4.09,3.91c-.2,3.58-3.07,3.28-3.07,3.28,0,0,3.92.42,3.79,3.64,0,1.66-1.32,3.03-2.99,3.07-.08,0-.14.08-.13.15,0,.05.03.09.07.11,1.4.84,2.02,2.55,1.5,4.09-.5,1.47-1.95,2.39-3.49,2.21-.13,0-.23.11-.23.24,0,.06.03.13.08.17,1.24.86,1.58,2.55.77,3.82-1.24,1.9-3.12,1.85-7.16,1.88h-12.78c-2.04-.01-4.06-.41-5.96-1.18l-2.05-.83"/>
        <rect class="cls-1" x=".75" y="20.74" width="14.3" height="23.74"/>
      </g>
    </g>
  </g>
</svg>