<svg xmlns="http://www.w3.org/2000/svg" viewBox="0 0 46.91 8.68"><defs><style>.cls-1{fill:#212b5c;}</style></defs><title>Next</title><g id="Layer_2" data-name="Layer 2"><g id="Content"><polygon class="cls-1" points="43.49 0.09 42.35 1.06 44.29 3.33 36.42 3.33 36.42 4.83 44.29 4.83 42.35 7.09 43.49 8.06 46.91 4.08 43.49 0.09"/><path class="cls-1" d="M7.6,8.57H5.29L1.56,2.09H1.51c.08,1.14.11,2,.11,2.45v4H0V0H2.29L6,6.42h0C6,5.3,6,4.52,6,4.05V0H7.6Z"/><path class="cls-1" d="M12.58,8.68a3.38,3.38,0,0,1-2.47-.87,3.28,3.28,0,0,1-.89-2.47A3.64,3.64,0,0,1,10,2.79a2.94,2.94,0,0,1,2.28-.9,2.92,2.92,0,0,1,2.16.79,3,3,0,0,1,.77,2.19v.87H11a1.75,1.75,0,0,0,.45,1.19,1.59,1.59,0,0,0,1.18.42,5,5,0,0,0,1.12-.12,5.4,5.4,0,0,0,1.1-.39V8.22a4.08,4.08,0,0,1-1,.35A6.06,6.06,0,0,1,12.58,8.68Zm-.25-5.52a1.12,1.12,0,0,0-.89.36,1.66,1.66,0,0,0-.37,1h2.51a1.54,1.54,0,0,0-.35-1A1.16,1.16,0,0,0,12.33,3.16Z"/><path class="cls-1" d="M17.93,5.22,15.82,2h2L19.12,4.1,20.4,2h2L20.3,5.22l2.23,3.35h-2L19.12,6.32,17.74,8.57h-2Z"/><path class="cls-1" d="M26.29,7.26a3.79,3.79,0,0,0,1.12-.21V8.38a4,4,0,0,1-1.64.3,2,2,0,0,1-1.56-.54,2.33,2.33,0,0,1-.49-1.62V3.36h-.86V2.6l1-.6L24.36.62h1.15V2h1.83V3.36H25.51V6.52a.7.7,0,0,0,.21.56A.85.85,0,0,0,26.29,7.26Z"/></g></g></svg>