<!-- Generator: Adobe Illustrator 24.0.3, SVG Export Plug-In  -->
<svg version="1.1" xmlns="http://www.w3.org/2000/svg" xmlns:xlink="http://www.w3.org/1999/xlink" x="0px" y="0px" width="71.7px"
	 height="50.1px" viewBox="0 0 71.7 50.1" style="enable-background:new 0 0 71.7 50.1;" xml:space="preserve">
<style type="text/css">
	.st0{fill:#FFFFFF;}
</style>
<defs>
</defs>
<g>
	<g>
		<path class="st0" d="M10.7,46c0,2.7,1.9,2.9,3.7,3v1.1H0V49c1.9-0.1,3.9-0.2,3.9-3V25.4c0-2.8-2-2.9-3.9-3v-1.1h14.5v1.1
			c-1.9,0.1-3.7,0.3-3.7,3V46z"/>
		<path class="st0" d="M52.3,45.6V25.4c0-2.2,0.9-3.2,3.5-3.1c7.1,0.3,8.5,9.5,8.5,13.4c0,10.2-4,13.3-8.8,13.3
			C53.2,49.1,52.3,48.1,52.3,45.6z M56.6,50.1c10.6,0,15.2-6.8,15.2-14.8c0-6.6-4.3-14-16.1-14H42.1l-6.3,15.1l-6.3-15.1H15.6v1.1
			c3,0.2,3.7,0.8,3.7,3V46c0,2.2-0.8,2.8-3.7,3v1.1h13.3V49c-3-0.2-3.7-0.8-3.7-3l0-20.8l10.2,24.9h1.1l10.2-24.9l0,20.8
			c0,2.2-0.8,2.8-3.7,3v1.1L56.6,50.1z"/>
		<path class="st0" d="M35.8,23.2c-3.5,0-6.4-2.9-6.4-6.5c0-3.6,2.9-6.5,6.4-6.5c3.5,0,6.4,2.9,6.4,6.5
			C42.2,20.3,39.3,23.2,35.8,23.2z M35.8,10.5c-3.4,0-6.2,2.8-6.2,6.2c0,3.4,2.8,6.2,6.2,6.2c3.4,0,6.2-2.8,6.2-6.2
			C42,13.3,39.2,10.5,35.8,10.5z"/>
		<path class="st0" d="M20.3,10.9c-0.3,0.8-0.6,1.9-0.8,2.9c-0.2,1-0.2,2-0.2,3h9c0-0.5,0-1,0.1-1.4c0.1-0.5,0.2-1,0.4-1.4
			L20.3,10.9z M28,16.6h-8.5c0-1.9,0.3-3.7,0.9-5.4l8,2.9C28.1,14.9,28,15.7,28,16.6z"/>
		<path class="st0" d="M24.5,4.5c-0.6,0.6-1.4,1.4-2,2.3c-0.6,0.8-1.1,1.7-1.6,2.6l8.1,4.1c0.2-0.5,0.5-0.9,0.7-1.2
			c0.3-0.4,0.6-0.8,1-1.1L24.5,4.5z M28.9,13.1l-7.6-3.8c0.8-1.7,1.9-3.1,3.2-4.4l5.8,6.2C29.7,11.7,29.2,12.3,28.9,13.1z"/>
		<path class="st0" d="M31.1,0.7c-0.8,0.3-1.8,0.6-2.8,1.1c-0.9,0.5-1.8,1-2.6,1.6l5.4,7.3c0.4-0.3,0.8-0.6,1.2-0.8
			c0.4-0.2,0.9-0.4,1.4-0.5L31.1,0.7z M31.2,10.3l-5.1-6.9c1.5-1.1,3.1-1.9,4.8-2.5l2.5,8.2C32.6,9.5,31.9,9.8,31.2,10.3z"/>
		<path class="st0" d="M42.8,14c0.2,0.5,0.3,0.9,0.4,1.4c0.1,0.4,0.1,0.9,0.1,1.4h9c0-1-0.1-2-0.2-3c-0.2-1.1-0.5-2.1-0.8-2.9
			L42.8,14z M43.2,14.2l8-2.9c0.6,1.7,0.9,3.5,0.9,5.4h-8.5C43.6,15.7,43.4,14.9,43.2,14.2z"/>
		<path class="st0" d="M40.9,11.1c0.4,0.3,0.7,0.7,1,1.1c0.3,0.4,0.5,0.8,0.7,1.2l8.1-4.1c-0.4-0.9-1-1.8-1.6-2.6
			c-0.6-0.9-1.4-1.7-2-2.3L40.9,11.1z M41.2,11.1l5.8-6.2c1.3,1.2,2.4,2.7,3.2,4.4l-7.6,3.8C42.3,12.3,41.8,11.7,41.2,11.1z"/>
		<path class="st0" d="M37.8,9.4c0.5,0.1,0.9,0.3,1.4,0.5c0.4,0.2,0.8,0.5,1.2,0.8l5.4-7.3c-0.8-0.6-1.6-1.1-2.6-1.6
			c-1-0.5-2-0.9-2.8-1.1L37.8,9.4z M38.2,9.2L40.6,1c1.7,0.5,3.3,1.3,4.8,2.5l-5.1,6.9C39.7,9.8,38.9,9.5,38.2,9.2z"/>
		<path class="st0" d="M34.3,9.2l-1.6-9c1-0.2,2-0.3,3.1-0.3c1.1,0,2.1,0.1,3.1,0.3l-1.6,9c-0.5-0.1-1-0.1-1.5-0.1
			C35.3,9.1,34.8,9.2,34.3,9.2z M35.8,8.8c0.4,0,0.8,0,1.3,0.1l1.5-8.4c-0.9-0.2-1.8-0.2-2.8-0.2c-0.9,0-1.8,0.1-2.8,0.2l1.5,8.4
			C34.9,8.9,35.4,8.8,35.8,8.8z"/>
	</g>
</g>
</svg>
