<!-- Generator: Adobe Illustrator 24.2.3, SVG Export Plug-In  -->
<svg version="1.1" xmlns="http://www.w3.org/2000/svg" xmlns:xlink="http://www.w3.org/1999/xlink" x="0px" y="0px" width="112px"
	 height="112px" viewBox="0 0 112 112" style="overflow:visible;enable-background:new 0 0 112 112;" xml:space="preserve">
<style type="text/css">
	.st0{fill:#012560;}
	.st1{fill:#6B94FF;}
	.st2{fill:#FFFFFF;}
	.st3{fill:none;stroke:url(#SVGID_1_);stroke-width:2.41;stroke-linecap:square;stroke-miterlimit:10;}
	.st4{fill:#2DE498;}
	.st5{fill:none;stroke:url(#SVGID_2_);stroke-width:2.41;stroke-linecap:square;stroke-miterlimit:10;}
</style>
<defs>
</defs>
<g>
	<circle class="st0" cx="56" cy="56" r="56"/>
	<polygon class="st1" points="57.6,53.7 60.2,49.5 58.2,48.5 56,48.7 54,48.5 51.8,49.5 54.4,53.7 49.5,91.5 56,91.5 62.5,91.5 	"/>
	<polygon class="st2" points="33.4,91.5 28.1,81.5 83.8,81.5 78.6,91.5 	"/>
	<linearGradient id="SVGID_1_" gradientUnits="userSpaceOnUse" x1="56" y1="88.9898" x2="56" y2="10.953">
		<stop  offset="0" style="stop-color:#FFFFFF"/>
		<stop  offset="0.7505" style="stop-color:#6B94FF"/>
	</linearGradient>
	<path class="st3" d="M68.4,39.3l4.2,0.3c0,0,9.6,0.7,12.4,7.5c2.8,6.8,5.6,20.4,5.8,24.3c0.2,3.7,0,9.1-12,9.6l-45.7,0
		c-12-0.4-12.2-5.8-12-9.6c0.2-3.9,3-17.4,5.8-24.3s12.4-7.5,12.4-7.5l4.1-0.3 M46.2,44.1l-3.6,9l6,2.1l-4.4,9.6l2.2,22.8
		 M65.5,87.7l2.2-22.8l-4.4-9.6l6-2.1l-3.6-9 M69.4,33.1c0.8-9.2-1.6-20.9-13.4-20.9c-11.9,0-14,11.4-13.4,20.9
		c0.6,9,7.3,16.3,13.4,16.3S68.7,42.1,69.4,33.1z"/>
	<path class="st4" d="M77.5,92.1H34.5c-0.8,0-1.4-0.6-1.4-1.4V61.1c0-0.8,0.6-1.4,1.4-1.4h42.9c0.8,0,1.4,0.6,1.4,1.4v29.6
		C78.8,91.5,78.2,92.1,77.5,92.1z"/>
	<circle class="st0" cx="56" cy="75.9" r="3.5"/>
	<g>
		<path class="st1" d="M66,34c0.1-1.8-1.4-3.7-3.4-4c-1-0.1-1.8-0.1-2.7,0.1l-0.1,0c0,0-2.3,0.2-2.9,2.4c-0.7,0.1-1.4,0-2.1,0
			c0-0.1-0.1-0.2-0.1-0.3c-0.5-1.2-1.5-1.8-2.2-2C51.3,30,50.2,29.8,49,30c-2.6,0.4-3.9,2.6-3.3,5c0.6,2.5,3.6,3.9,5.8,2.4
			c1.3-0.8,2.2-1.9,2.8-3.3c0.2-0.5,0.5-0.7,0.9-0.7c0.3,0,0.6,0,0.9,0c0.5,0,0.9,0.3,1.1,0.8c0.7,1.5,1.9,2.9,3.2,3.5
			c0.6,0.3,1.2,0.4,1.8,0.4C64.7,37.8,66.1,35.6,66,34z"/>
	</g>
	<path class="st1" d="M56,10.9c-12.2,0-15,11.1-14.7,21.2c0.2,0,3.5,0.7,3.7-1.6c0.2-2.4,0.4-7,3.7-10.3c0.7,1.1,3.1,3.4,7.4,3.4
		c4.3,0,6.7-2.4,7.4-3.4c3.3,3.3,3.5,7.9,3.7,10.3c0.2,2.3,3.4,1.7,3.6,1.6C71.1,22.3,68,10.9,56,10.9z"/>
</g>
</svg>
