<!-- Generator: Adobe Illustrator 24.1.2, SVG Export Plug-In  -->
<svg version="1.1" xmlns="http://www.w3.org/2000/svg" xmlns:xlink="http://www.w3.org/1999/xlink" x="0px" y="0px" width="287.1px"
	 height="38.1px" viewBox="0 0 287.1 38.1" style="overflow:visible;enable-background:new 0 0 287.1 38.1;" xml:space="preserve">
<defs>
</defs>
<g>
	<g>
		<g>
			<path style="fill:#002137;stroke:#002137;stroke-width:0.1729;stroke-miterlimit:10;" d="M8.5,23.9c1.1,0,1.9,0.3,2.4,0.8
				c0.5,0.5,0.8,1.3,0.8,2.5v5.8h-1.4v-5.7c0-1.4-0.7-2.1-2-2.1c-1,0-1.7,0.3-2,0.8c-0.4,0.6-0.6,1.3-0.6,2.4v4.6H4.2V24h1.2
				l0.2,1.2h0.1c0.3-0.5,0.7-0.8,1.2-1C7.4,24,7.9,23.9,8.5,23.9z"/>
			<path style="fill:#002137;stroke:#002137;stroke-width:0.1729;stroke-miterlimit:10;" d="M22.3,33.1c-0.8,0-1.5-0.2-2.1-0.5
				c-0.6-0.3-1.1-0.8-1.4-1.5c-0.3-0.7-0.5-1.5-0.5-2.6c0-1.1,0.2-2,0.5-2.7c0.4-0.7,0.9-1.2,1.5-1.5c0.6-0.3,1.3-0.5,2.1-0.5
				c0.4,0,0.9,0,1.3,0.1c0.4,0.1,0.8,0.2,1,0.3l-0.4,1.2c-0.3-0.1-0.6-0.2-0.9-0.3c-0.4-0.1-0.7-0.1-1-0.1c-1.7,0-2.6,1.1-2.6,3.4
				c0,1.1,0.2,1.9,0.6,2.5c0.4,0.6,1.1,0.9,1.9,0.9c0.5,0,0.9,0,1.3-0.1c0.4-0.1,0.7-0.2,1-0.4v1.3c-0.3,0.2-0.6,0.3-1,0.4
				C23.2,33,22.8,33.1,22.3,33.1z"/>
			<path style="fill:#002137;stroke:#002137;stroke-width:0.1729;stroke-miterlimit:10;" d="M34.4,28.5c0,1.5-0.4,2.6-1.1,3.4
				c-0.7,0.8-1.8,1.2-3,1.2c-0.8,0-1.5-0.2-2.1-0.5c-0.6-0.4-1.1-0.9-1.5-1.6c-0.4-0.7-0.5-1.5-0.5-2.5c0-1.5,0.4-2.6,1.1-3.4
				c0.7-0.8,1.7-1.2,3-1.2c0.8,0,1.5,0.2,2.1,0.5c0.6,0.4,1.1,0.9,1.5,1.6C34.2,26.6,34.4,27.5,34.4,28.5z M27.7,28.5
				c0,1,0.2,1.9,0.6,2.5c0.4,0.6,1.1,0.9,2,0.9c0.9,0,1.6-0.3,2-0.9c0.4-0.6,0.6-1.4,0.6-2.5c0-1-0.2-1.9-0.6-2.5
				c-0.4-0.6-1.1-0.9-2-0.9c-0.9,0-1.6,0.3-2,0.9C27.9,26.6,27.7,27.4,27.7,28.5z"/>
			<path style="fill:#002137;stroke:#002137;stroke-width:0.1729;stroke-miterlimit:10;" d="M38.2,32.9h-1.5V20.3h1.5V32.9z"/>
			<path style="fill:#002137;stroke:#002137;stroke-width:0.1729;stroke-miterlimit:10;" d="M42.5,32.9H41V20.3h1.5V32.9z"/>
			<path style="fill:#002137;stroke:#002137;stroke-width:0.1729;stroke-miterlimit:10;" d="M48.6,23.9c1.1,0,1.9,0.2,2.4,0.7
				c0.5,0.5,0.8,1.2,0.8,2.3v6h-1.1l-0.3-1.3h-0.1c-0.4,0.5-0.8,0.8-1.2,1.1s-1,0.3-1.8,0.3c-0.8,0-1.5-0.2-2-0.6
				c-0.5-0.4-0.8-1.1-0.8-2c0-0.9,0.3-1.6,1-2c0.7-0.5,1.8-0.7,3.2-0.8l1.5,0V27c0-0.7-0.2-1.3-0.5-1.5c-0.3-0.3-0.8-0.4-1.4-0.4
				c-0.5,0-0.9,0.1-1.3,0.2c-0.4,0.1-0.8,0.3-1.2,0.5l-0.4-1.1c0.4-0.2,0.8-0.4,1.4-0.5C47.5,24,48.1,23.9,48.6,23.9z M50.4,28.6
				l-1.3,0c-1.1,0-1.9,0.2-2.3,0.5c-0.4,0.3-0.6,0.7-0.6,1.3c0,0.5,0.2,0.9,0.5,1.1c0.3,0.2,0.7,0.3,1.2,0.3c0.7,0,1.4-0.2,1.9-0.6
				c0.5-0.4,0.8-1.1,0.8-1.9V28.6z"/>
			<path style="fill:#002137;stroke:#002137;stroke-width:0.1729;stroke-miterlimit:10;" d="M56,20.3v3.1c0,0.4,0,0.7,0,1.1
				c0,0.3,0,0.6-0.1,0.8H56c0.3-0.4,0.6-0.7,1-0.9c0.4-0.3,1-0.4,1.7-0.4c1.1,0,2,0.4,2.7,1.2c0.7,0.8,1,1.9,1,3.4
				c0,1.5-0.3,2.7-1,3.4c-0.7,0.8-1.6,1.2-2.7,1.2c-0.7,0-1.3-0.1-1.7-0.4c-0.4-0.3-0.8-0.6-1-0.9h-0.1l-0.3,1.1h-1V20.3H56z
				 M58.5,25.1c-1,0-1.6,0.3-2,0.8c-0.4,0.5-0.5,1.4-0.5,2.5v0.1c0,1.1,0.2,1.9,0.5,2.5c0.4,0.6,1,0.9,2,0.9c0.8,0,1.4-0.3,1.8-0.9
				c0.4-0.6,0.6-1.4,0.6-2.5C60.9,26.2,60.1,25.1,58.5,25.1z"/>
			<path style="fill:#002137;stroke:#002137;stroke-width:0.1729;stroke-miterlimit:10;" d="M72.5,28.5c0,1.5-0.4,2.6-1.1,3.4
				c-0.7,0.8-1.8,1.2-3,1.2c-0.8,0-1.5-0.2-2.1-0.5c-0.6-0.4-1.1-0.9-1.5-1.6c-0.4-0.7-0.5-1.5-0.5-2.5c0-1.5,0.4-2.6,1.1-3.4
				c0.7-0.8,1.7-1.2,3-1.2c0.8,0,1.5,0.2,2.1,0.5c0.6,0.4,1.1,0.9,1.5,1.6C72.3,26.6,72.5,27.5,72.5,28.5z M65.8,28.5
				c0,1,0.2,1.9,0.6,2.5c0.4,0.6,1.1,0.9,2,0.9c0.9,0,1.6-0.3,2-0.9c0.4-0.6,0.6-1.4,0.6-2.5c0-1-0.2-1.9-0.6-2.5
				c-0.4-0.6-1.1-0.9-2-0.9c-0.9,0-1.6,0.3-2,0.9C66,26.6,65.8,27.4,65.8,28.5z"/>
			<path style="fill:#002137;stroke:#002137;stroke-width:0.1729;stroke-miterlimit:10;" d="M78.9,23.9c0.2,0,0.3,0,0.5,0
				c0.2,0,0.4,0,0.5,0.1l-0.2,1.3c-0.1,0-0.3-0.1-0.5-0.1c-0.2,0-0.3,0-0.5,0c-0.5,0-0.9,0.1-1.3,0.4c-0.4,0.2-0.7,0.6-1,1
				c-0.2,0.4-0.4,1-0.4,1.6v4.7h-1.5V24H76l0.2,1.6h0.1c0.3-0.5,0.6-0.9,1.1-1.3C77.8,24,78.3,23.9,78.9,23.9z"/>
			<path style="fill:#002137;stroke:#002137;stroke-width:0.1729;stroke-miterlimit:10;" d="M84.7,23.9c1.1,0,1.9,0.2,2.4,0.7
				c0.5,0.5,0.8,1.2,0.8,2.3v6h-1.1l-0.3-1.3h-0.1c-0.4,0.5-0.8,0.8-1.2,1.1c-0.4,0.2-1,0.3-1.8,0.3c-0.8,0-1.5-0.2-2-0.6
				c-0.5-0.4-0.8-1.1-0.8-2c0-0.9,0.3-1.6,1-2c0.7-0.5,1.8-0.7,3.2-0.8l1.5,0V27c0-0.7-0.2-1.3-0.5-1.5c-0.3-0.3-0.8-0.4-1.4-0.4
				c-0.5,0-0.9,0.1-1.3,0.2c-0.4,0.1-0.8,0.3-1.2,0.5l-0.4-1.1c0.4-0.2,0.8-0.4,1.4-0.5C83.5,24,84.1,23.9,84.7,23.9z M86.4,28.6
				l-1.3,0c-1.1,0-1.9,0.2-2.3,0.5c-0.4,0.3-0.6,0.7-0.6,1.3c0,0.5,0.2,0.9,0.5,1.1c0.3,0.2,0.7,0.3,1.2,0.3c0.7,0,1.4-0.2,1.9-0.6
				c0.5-0.4,0.8-1.1,0.8-1.9V28.6z"/>
			<path style="fill:#002137;stroke:#002137;stroke-width:0.1729;stroke-miterlimit:10;" d="M93.6,31.9c0.2,0,0.4,0,0.7,0
				c0.2,0,0.4-0.1,0.6-0.1v1.1c-0.2,0.1-0.4,0.1-0.7,0.2c-0.3,0-0.6,0.1-0.8,0.1c-0.5,0-0.9-0.1-1.3-0.2c-0.4-0.2-0.7-0.4-1-0.8
				c-0.2-0.4-0.4-1-0.4-1.7v-5.2h-1.3v-0.7l1.3-0.6l0.6-1.9h0.9v2h2.6v1.1h-2.6v5.1c0,0.5,0.1,0.9,0.4,1.2
				C92.8,31.8,93.2,31.9,93.6,31.9z"/>
			<path style="fill:#002137;stroke:#002137;stroke-width:0.1729;stroke-miterlimit:10;" d="M97.3,20.7c0.2,0,0.4,0.1,0.6,0.2
				c0.2,0.1,0.3,0.4,0.3,0.7c0,0.3-0.1,0.6-0.3,0.7c-0.2,0.1-0.4,0.2-0.6,0.2c-0.2,0-0.4-0.1-0.6-0.2c-0.2-0.1-0.2-0.4-0.2-0.7
				c0-0.3,0.1-0.6,0.2-0.7C96.9,20.8,97.1,20.7,97.3,20.7z M98,24v8.9h-1.5V24H98z"/>
			<path style="fill:#002137;stroke:#002137;stroke-width:0.1729;stroke-miterlimit:10;" d="M108.6,28.5c0,1.5-0.4,2.6-1.1,3.4
				c-0.7,0.8-1.8,1.2-3,1.2c-0.8,0-1.5-0.2-2.1-0.5c-0.6-0.4-1.1-0.9-1.5-1.6c-0.4-0.7-0.5-1.5-0.5-2.5c0-1.5,0.4-2.6,1.1-3.4
				c0.7-0.8,1.7-1.2,3-1.2c0.8,0,1.5,0.2,2.1,0.5c0.6,0.4,1.1,0.9,1.5,1.6C108.4,26.6,108.6,27.5,108.6,28.5z M101.9,28.5
				c0,1,0.2,1.9,0.6,2.5c0.4,0.6,1.1,0.9,2,0.9c0.9,0,1.6-0.3,2-0.9c0.4-0.6,0.6-1.4,0.6-2.5c0-1-0.2-1.9-0.6-2.5
				c-0.4-0.6-1.1-0.9-2-0.9s-1.6,0.3-2,0.9C102.1,26.6,101.9,27.4,101.9,28.5z"/>
			<path style="fill:#002137;stroke:#002137;stroke-width:0.1729;stroke-miterlimit:10;" d="M115.2,23.9c1.1,0,1.9,0.3,2.4,0.8
				c0.5,0.5,0.8,1.3,0.8,2.5v5.8h-1.4v-5.7c0-1.4-0.7-2.1-2-2.1c-1,0-1.7,0.3-2,0.8c-0.4,0.6-0.6,1.3-0.6,2.4v4.6h-1.5V24h1.2
				l0.2,1.2h0.1c0.3-0.5,0.7-0.8,1.2-1C114.1,24,114.6,23.9,115.2,23.9z"/>
			<path style="fill:#002137;stroke:#002137;stroke-width:0.1729;stroke-miterlimit:10;" d="M132.7,32.9l-1.5-5
				c-0.1-0.5-0.3-0.9-0.4-1.3c-0.1-0.4-0.2-0.8-0.2-1h-0.1c0,0.3-0.1,0.6-0.2,1c-0.1,0.4-0.2,0.9-0.4,1.3l-1.6,5h-1.7l-2.4-8.9h1.5
				l1.2,4.7c0.1,0.5,0.2,1,0.3,1.4c0.1,0.5,0.2,0.9,0.2,1.2h0.1c0-0.2,0.1-0.4,0.1-0.7s0.1-0.6,0.2-0.9c0.1-0.3,0.2-0.6,0.2-0.8
				l1.6-5h1.6l1.5,5c0.1,0.4,0.2,0.8,0.3,1.2c0.1,0.4,0.2,0.8,0.2,1.1h0.1c0-0.3,0.1-0.7,0.2-1.1c0.1-0.5,0.2-1,0.4-1.5l1.2-4.7h1.5
				l-2.5,8.9H132.7z"/>
			<path style="fill:#002137;stroke:#002137;stroke-width:0.1729;stroke-miterlimit:10;" d="M139.2,20.7c0.2,0,0.4,0.1,0.6,0.2
				c0.2,0.1,0.3,0.4,0.3,0.7c0,0.3-0.1,0.6-0.3,0.7c-0.2,0.1-0.4,0.2-0.6,0.2c-0.2,0-0.4-0.1-0.6-0.2c-0.2-0.1-0.2-0.4-0.2-0.7
				c0-0.3,0.1-0.6,0.2-0.7C138.8,20.8,139,20.7,139.2,20.7z M139.9,24v8.9h-1.5V24H139.9z"/>
			<path style="fill:#002137;stroke:#002137;stroke-width:0.1729;stroke-miterlimit:10;" d="M145.7,31.9c0.2,0,0.4,0,0.7,0
				c0.2,0,0.4-0.1,0.6-0.1v1.1c-0.2,0.1-0.4,0.1-0.7,0.2c-0.3,0-0.6,0.1-0.8,0.1c-0.5,0-0.9-0.1-1.3-0.2c-0.4-0.2-0.7-0.4-1-0.8
				c-0.2-0.4-0.4-1-0.4-1.7v-5.2h-1.3v-0.7l1.3-0.6l0.6-1.9h0.9v2h2.6v1.1h-2.6v5.1c0,0.5,0.1,0.9,0.4,1.2
				C145,31.8,145.3,31.9,145.7,31.9z"/>
			<path style="fill:#002137;stroke:#002137;stroke-width:0.1729;stroke-miterlimit:10;" d="M150.2,20.3V24c0,0.4,0,0.9-0.1,1.2h0.1
				c0.3-0.5,0.7-0.8,1.2-1c0.5-0.2,1-0.3,1.6-0.3c1.1,0,1.9,0.3,2.4,0.8c0.5,0.5,0.8,1.3,0.8,2.5v5.8h-1.4v-5.7c0-1.4-0.7-2.1-2-2.1
				c-1,0-1.7,0.3-2,0.8c-0.4,0.6-0.6,1.4-0.6,2.4v4.6h-1.5V20.3H150.2z"/>
		</g>
		<path style="fill:#002137;stroke:#002137;stroke-width:0.1729;stroke-miterlimit:10;" d="M1.5,33.1H0.1V20.9h1.5V33.1z"/>
	</g>
	<g>
		<path style="fill:#F90070;" d="M244.4,5.7L228.1,0l-16.4,5.7l16.4,5.6l13.7-4.7L228.5,2l0.8-0.3l13.2,4.6L244.4,5.7L244.4,5.7z
			 M242.4,8.3c0.4,0,0.7-0.3,0.7-0.7s-0.3-0.7-0.7-0.7c-0.4,0-0.7,0.3-0.7,0.7S242,8.3,242.4,8.3L242.4,8.3z M241.9,8.6l-0.3,0.6
			v4.9l0.2,0.2V9.5h0.2v5.2l0.2,0.2V9.5h0.2v5.4l0.2-0.2V9.5h0.2v4.9l0.2-0.2V9.2l-0.4-0.6H241.9L241.9,8.6z"/>
		<polygon style="fill:#F90070;" points="237.8,14 237.8,8.5 228.1,11.9 228.1,17.3 237.8,14 		"/>
		<polygon style="fill:#B00063;" points="218.4,14 218.4,8.5 228.1,11.9 228.1,17.3 218.4,14 		"/>
	</g>
	<g>
		<g>
			<g>
				<path style="fill:#F90070;" d="M263.9,33.6c-0.9,0-1.8-0.2-2.5-0.5c-0.8-0.3-1.4-0.8-2-1.4c-0.6-0.6-1-1.3-1.3-2.1
					c-0.3-0.8-0.5-1.7-0.5-2.6c0-0.9,0.2-1.7,0.5-2.5c0.3-0.8,0.7-1.5,1.3-2.1c0.5-0.6,1.2-1.1,1.9-1.4c0.8-0.4,1.6-0.5,2.4-0.5
					c0.9,0,1.8,0.2,2.6,0.5c0.7,0.4,1.4,0.8,1.9,1.5c0.5,0.6,0.9,1.3,1.1,2.1c0.3,0.8,0.4,1.6,0.4,2.5v0.8h-9.7
					c0.1,0.4,0.2,0.8,0.3,1.2c0.2,0.5,0.5,1,0.8,1.3c0.4,0.4,0.8,0.7,1.3,0.9c0.5,0.2,1.1,0.3,1.7,0.3c0.7,0,1.3-0.1,1.9-0.4
					c0.6-0.3,1.1-0.6,1.6-1.1l0.4-0.4l1.2,1.5l-0.3,0.3c-0.6,0.7-1.3,1.2-2.1,1.5C265.8,33.4,264.9,33.6,263.9,33.6z M254.5,33.6
					c-0.9,0-1.6-0.3-2.1-0.8c-0.4-0.5-0.7-1.2-0.7-2.2v-7.8h-1.9v-2.1h1.9v-3.2h2.2v3.2h2.4v2.1h-2.4v7.6c0,0.4,0.1,0.7,0.2,0.9
					c0.1,0.2,0.3,0.2,0.5,0.2c0.2,0,0.4,0,0.6-0.1c0.2-0.1,0.3-0.2,0.4-0.3l0.4-0.5l0.9,1.9l-0.2,0.2c-0.3,0.3-0.6,0.5-0.9,0.6
					C255.5,33.5,255,33.6,254.5,33.6z M233.6,33.6c-0.5,0-1.1-0.1-1.6-0.3c-0.5-0.2-1-0.5-1.5-0.8c-0.4-0.4-0.8-0.8-1-1.4
					c-0.3-0.6-0.4-1.2-0.4-1.9c0-0.7,0.1-1.3,0.4-1.9c0.3-0.5,0.6-1,1.1-1.4c0.4-0.4,0.9-0.6,1.5-0.8c0.5-0.2,1.1-0.3,1.6-0.3
					c1.4,0,2.5,0.4,3.5,1.1v-1.3c0-0.7-0.2-1.2-0.7-1.6c-0.5-0.4-1.2-0.6-1.9-0.6c-0.7,0-1.3,0.1-1.8,0.4c-0.5,0.2-1,0.6-1.5,1.2
					l-0.4,0.4l-1.3-1.6l0.3-0.3c0.7-0.7,1.4-1.2,2.1-1.6c0.8-0.4,1.7-0.5,2.7-0.5c0.6,0,1.2,0.1,1.8,0.2c0.6,0.2,1.1,0.4,1.5,0.8
					c0.4,0.4,0.8,0.8,1,1.3c0.2,0.5,0.4,1.2,0.4,1.9v8.7h-2.2v-0.8C236.1,33.2,234.9,33.6,233.6,33.6z M203.5,33.6
					c-1,0-1.9-0.2-2.7-0.5c-0.8-0.3-1.5-0.8-2.1-1.5l-0.3-0.3l1.4-1.7l0.4,0.4c0.3,0.4,0.8,0.8,1.4,1.1c0.6,0.3,1.3,0.5,2,0.5
					c0.9,0,1.5-0.2,2-0.6c0.4-0.4,0.7-0.8,0.7-1.3c0-0.4-0.1-0.7-0.4-0.9c-0.3-0.3-0.7-0.5-1.2-0.6c-0.5-0.2-1.1-0.3-1.7-0.5
					c-0.7-0.1-1.3-0.3-1.9-0.6c-0.6-0.3-1.1-0.6-1.5-1.1c-0.4-0.5-0.7-1.1-0.7-1.9c0-0.5,0.1-1,0.3-1.5c0.2-0.5,0.5-0.9,0.9-1.2
					c0.4-0.3,0.9-0.6,1.5-0.8c0.6-0.2,1.2-0.3,1.9-0.3c1.1,0,2,0.2,2.7,0.6c0.7,0.4,1.3,0.8,1.8,1.3l0.3,0.3l-1.3,1.7l-0.4-0.5
					c-0.3-0.4-0.7-0.7-1.2-1c-0.6-0.3-1.2-0.4-1.9-0.4c-0.8,0-1.4,0.2-1.9,0.5c-0.4,0.3-0.6,0.7-0.6,1.2c0,0.3,0.1,0.6,0.4,0.7
					c0.3,0.2,0.7,0.4,1.2,0.6c0.5,0.2,1,0.3,1.7,0.5c0.7,0.1,1.3,0.4,1.9,0.6c0.6,0.3,1.1,0.7,1.5,1.2c0.4,0.5,0.6,1.2,0.6,2.1
					c0,0.5-0.1,1-0.3,1.5c-0.2,0.5-0.5,0.9-1,1.3c-0.4,0.4-0.9,0.6-1.5,0.8C205,33.5,204.3,33.6,203.5,33.6z M226.7,33.3h-2.2v-8.6
					c0-0.7-0.2-1.3-0.5-1.7c-0.3-0.4-0.7-0.5-1.4-0.5c-0.3,0-0.5,0-0.8,0.1c-0.3,0.1-0.6,0.2-0.8,0.4c-0.3,0.2-0.5,0.4-0.7,0.6
					c-0.2,0.2-0.4,0.4-0.5,0.6v9.2h-2.2v-8.6c0-0.7-0.2-1.3-0.5-1.7c-0.3-0.4-0.7-0.5-1.4-0.5c-0.2,0-0.5,0-0.8,0.1
					c-0.3,0.1-0.6,0.2-0.8,0.4c-0.3,0.2-0.5,0.4-0.7,0.6c-0.2,0.2-0.4,0.4-0.5,0.6v9.1h-2.2V20.7h2.2v1c0.2-0.2,0.4-0.3,0.7-0.5
					c0.4-0.2,0.8-0.4,1.2-0.6c0.5-0.2,0.9-0.2,1.4-0.2c0.5,0,0.9,0.1,1.3,0.2c0.4,0.1,0.8,0.3,1,0.6c0.3,0.3,0.5,0.5,0.7,0.8
					c0,0,0.1,0.1,0.1,0.1c0.1-0.1,0.1-0.1,0.2-0.2c0.3-0.3,0.6-0.5,1-0.8c0.4-0.2,0.8-0.4,1.2-0.5c0.4-0.1,0.9-0.2,1.4-0.2
					c2.4,0,3.6,1.4,3.6,4V33.3z M274.3,33.3h-2.2V20.7h2.2V22c0.3-0.3,0.7-0.6,1-0.8c0.7-0.5,1.5-0.7,2.5-0.7h0.5v2.4l-0.6-0.2
					c-0.1,0-0.1,0-0.2,0h-0.3c-0.2,0-0.5,0.1-0.8,0.2c-0.3,0.1-0.6,0.2-0.9,0.4c-0.3,0.2-0.5,0.4-0.8,0.6c-0.2,0.2-0.3,0.4-0.4,0.5
					V33.3z M244,33.3h-2.2V20.7h2.2V22c0.3-0.3,0.7-0.6,1-0.8c0.7-0.5,1.5-0.7,2.5-0.7h0.5v2.4l-0.6-0.2c-0.1,0-0.1,0-0.2,0h-0.3
					c-0.2,0-0.5,0-0.8,0.2c-0.3,0.1-0.6,0.3-0.9,0.4c-0.3,0.2-0.5,0.4-0.8,0.6c-0.2,0.2-0.3,0.4-0.4,0.6V33.3z M234,26.8
					c-0.9,0-1.5,0.2-2,0.7c-0.5,0.5-0.7,1-0.7,1.7c0,0.7,0.2,1.3,0.7,1.7c0.5,0.5,1.2,0.7,2,0.7c0.6,0,1.2-0.1,1.8-0.4
					c0.5-0.2,0.9-0.5,1.3-0.9v-2.2c-0.4-0.4-0.8-0.7-1.3-1C235.3,27,234.7,26.8,234,26.8z M259.9,26h7.5c0-0.3-0.1-0.6-0.2-0.9
					c-0.2-0.5-0.4-0.9-0.7-1.3c-0.3-0.4-0.7-0.7-1.2-0.9c-0.5-0.2-1-0.4-1.7-0.4c-0.6,0-1.2,0.1-1.6,0.4c-0.5,0.2-0.9,0.6-1.2,0.9
					c-0.3,0.4-0.6,0.8-0.7,1.3C260,25.4,259.9,25.7,259.9,26z"/>
			</g>
		</g>
		<g>
			<g>
				<path style="fill:#002137;" d="M168.6,38.1c-0.5,0-0.9,0-1.4-0.1c-0.4-0.1-0.9-0.2-1.3-0.3c-0.4-0.1-0.8-0.3-1.2-0.6
					c-0.4-0.2-0.7-0.5-1.1-0.9l-0.3-0.3l1.3-1.7l0.4,0.4c0.5,0.6,1,0.9,1.5,1.1c0.5,0.2,1.2,0.3,2,0.3c0.5,0,1-0.1,1.4-0.2
					c0.4-0.1,0.8-0.3,1.1-0.6c0.3-0.3,0.6-0.6,0.7-1c0.2-0.4,0.3-0.9,0.3-1.5v-0.6c-0.3,0.3-0.6,0.5-1,0.7c-0.8,0.5-1.7,0.7-2.6,0.7
					c-0.8,0-1.6-0.2-2.3-0.5c-0.7-0.3-1.3-0.8-1.8-1.3c-0.5-0.6-0.9-1.3-1.1-2.1c-0.3-0.8-0.4-1.7-0.4-2.7c0-1,0.1-1.8,0.4-2.7
					c0.3-0.8,0.7-1.5,1.1-2.1c0.5-0.6,1.1-1,1.8-1.3c0.7-0.3,1.5-0.5,2.3-0.5c0.9,0,1.8,0.2,2.5,0.6c0.4,0.2,0.7,0.5,1.1,0.8v-1.1
					h2.2v12c0,1-0.2,1.8-0.5,2.5c-0.3,0.7-0.7,1.2-1.3,1.7c-0.5,0.4-1.2,0.7-1.8,0.9C170,38,169.3,38.1,168.6,38.1z M194.1,33.6
					c-0.9,0-1.6-0.3-2.1-0.8c-0.4-0.5-0.7-1.2-0.7-2.2v-7.8h-1.9v-2.1h1.9v-3.2h2.2v3.2h2.4v2.1h-2.4v7.6c0,0.4,0.1,0.7,0.2,0.9
					c0.1,0.2,0.3,0.2,0.5,0.2c0.2,0,0.4,0,0.6-0.1c0.2-0.1,0.3-0.2,0.4-0.3l0.4-0.5l0.9,1.9l-0.2,0.2c-0.3,0.3-0.6,0.5-0.9,0.6
					C195.1,33.5,194.6,33.6,194.1,33.6z M182.7,33.6c-0.9,0-1.8-0.2-2.5-0.5c-0.8-0.3-1.5-0.8-2-1.4c-0.6-0.6-1-1.3-1.3-2.1
					c-0.3-0.8-0.5-1.7-0.5-2.6c0-0.9,0.2-1.7,0.5-2.5c0.3-0.8,0.7-1.5,1.3-2.1c0.5-0.6,1.2-1.1,1.9-1.4c0.8-0.3,1.6-0.5,2.4-0.5
					c0.9,0,1.8,0.2,2.6,0.5c0.7,0.3,1.4,0.8,1.9,1.5c0.5,0.6,0.9,1.3,1.1,2.1c0.3,0.8,0.4,1.6,0.4,2.5v0.8h-9.7
					c0.1,0.4,0.2,0.8,0.3,1.2c0.2,0.5,0.5,1,0.8,1.3c0.4,0.4,0.8,0.7,1.3,0.9c0.5,0.2,1,0.3,1.7,0.3c0.7,0,1.3-0.1,1.9-0.4
					c0.6-0.3,1.1-0.6,1.6-1.1l0.4-0.4l1.2,1.5l-0.3,0.3c-0.6,0.7-1.3,1.2-2.1,1.5C184.6,33.4,183.7,33.6,182.7,33.6z M167.2,31.2
					c0.4,0.2,0.9,0.3,1.5,0.3c0.4,0,0.7-0.1,1.1-0.2c0.4-0.1,0.7-0.2,1-0.4c0.3-0.2,0.6-0.4,0.8-0.6c0.2-0.2,0.4-0.4,0.5-0.6v-5.4
					c-0.1-0.2-0.3-0.4-0.5-0.6c-0.2-0.2-0.5-0.4-0.8-0.6c-0.3-0.2-0.6-0.3-1-0.4c-0.9-0.3-1.8-0.2-2.6,0.2c-0.4,0.2-0.8,0.5-1.1,0.9
					c-0.3,0.4-0.5,0.9-0.7,1.4c-0.2,0.6-0.3,1.2-0.3,1.8c0,0.7,0.1,1.3,0.3,1.8c0.2,0.6,0.4,1,0.7,1.4
					C166.4,30.7,166.8,31,167.2,31.2z M178.7,26h7.5c0-0.3-0.1-0.6-0.2-0.9c-0.1-0.5-0.4-0.9-0.7-1.3c-0.3-0.4-0.7-0.7-1.2-0.9
					c-0.5-0.2-1-0.4-1.7-0.4c-0.6,0-1.2,0.1-1.6,0.4c-0.5,0.2-0.9,0.6-1.2,0.9c-0.3,0.4-0.6,0.8-0.7,1.3
					C178.8,25.4,178.8,25.7,178.7,26z"/>
			</g>
		</g>
	</g>
	<g>
		<path style="fill:#002137;" d="M282.3,24.1h-0.6v-2.9h-1v-0.5h2.5v0.5h-1V24.1z M285.1,24.1l-0.9-2.6h0l0,0.6v2h-0.6v-3.4h0.9
			l0.9,2.6l0.9-2.6h0.8v3.4h-0.6v-2l0-0.6h0l-1,2.6H285.1z"/>
	</g>
</g>
</svg>
