<!-- Generator: Adobe Illustrator 24.2.3, SVG Export Plug-In  -->
<svg version="1.1" xmlns="http://www.w3.org/2000/svg" xmlns:xlink="http://www.w3.org/1999/xlink" x="0px" y="0px" width="112px"
	 height="112px" viewBox="0 0 112 112" style="overflow:visible;enable-background:new 0 0 112 112;" xml:space="preserve">
<style type="text/css">
	.st0{fill:#012560;}
	.st1{fill:#012560;stroke:url(#SVGID_1_);stroke-width:2.2;stroke-linecap:square;stroke-miterlimit:10;}
	.st2{fill:#FFFFFF;}
	.st3{fill:none;stroke:url(#SVGID_2_);stroke-width:2.0748;stroke-linecap:square;stroke-miterlimit:10;}
	.st4{fill:#012560;stroke:url(#SVGID_3_);stroke-width:2.2;stroke-linecap:square;stroke-miterlimit:10;}
	.st5{fill:#2DE498;stroke:#2DE498;stroke-width:0.7638;stroke-miterlimit:10;}
	.st6{fill:#012560;stroke:#012560;stroke-width:0.7638;stroke-miterlimit:10;}
	.st7{fill:#012560;stroke:url(#SVGID_4_);stroke-width:2.2;stroke-linecap:square;stroke-miterlimit:10;}
	.st8{fill:none;stroke:url(#SVGID_5_);stroke-width:2.0748;stroke-linecap:square;stroke-miterlimit:10;}
	.st9{fill:#012560;stroke:url(#SVGID_6_);stroke-width:2.2;stroke-linecap:square;stroke-miterlimit:10;}
</style>
<defs>
</defs>
<g>
	<circle class="st0" cx="56" cy="56" r="56"/>
	<linearGradient id="SVGID_1_" gradientUnits="userSpaceOnUse" x1="50.5762" y1="64.7817" x2="94.3272" y2="64.7817">
		<stop  offset="0" style="stop-color:#FFFFFF"/>
		<stop  offset="1" style="stop-color:#6B94FF"/>
	</linearGradient>
	<polygon class="st1" points="92.9,45.7 62.5,45.7 52,83.8 82.4,83.8 	"/>
	<g>
		<g>
			
				<rect x="31.3" y="27.1" transform="matrix(0.7071 -0.7071 0.7071 0.7071 -15.1724 55.1153)" class="st2" width="55.3" height="37.6"/>
		</g>
		
			<linearGradient id="SVGID_2_" gradientUnits="userSpaceOnUse" x1="-3285.4055" y1="1346.2812" x2="-3285.4055" y2="1321.6951" gradientTransform="matrix(0.7071 -0.7071 0.7071 0.7071 1440.0282 -3221.7561)">
			<stop  offset="0" style="stop-color:#FFFFFF"/>
			<stop  offset="1" style="stop-color:#6B94FF"/>
		</linearGradient>
		<path class="st3" d="M61.5,27.4l15.9,15.9 M55.3,33.6l15.9,15.9 M49.1,39.8L65,55.7 M42.9,46l15.9,15.9"/>
	</g>
	<linearGradient id="SVGID_3_" gradientUnits="userSpaceOnUse" x1="20.4024" y1="60.5951" x2="83.518" y2="60.5951">
		<stop  offset="0" style="stop-color:#FFFFFF"/>
		<stop  offset="1" style="stop-color:#6B94FF"/>
	</linearGradient>
	<polygon class="st4" points="52,42.4 50.1,37.4 30.4,37.4 28.5,42.4 21.5,42.4 21.5,83.8 82.4,83.8 82.4,42.4 	"/>
	<g>
		<circle class="st5" cx="52" cy="62.7" r="10.9"/>
		<circle class="st6" cx="52" cy="59.4" r="2.4"/>
		<path class="st6" d="M56.3,67.1h-8.8v-2.3c0-1.4,1.2-2.6,2.6-2.6h3.6c1.4,0,2.6,1.2,2.6,2.6V67.1z"/>
	</g>
</g>
</svg>
