<!-- Generator: Adobe Illustrator 24.2.3, SVG Export Plug-In  -->
<svg version="1.1" xmlns="http://www.w3.org/2000/svg" xmlns:xlink="http://www.w3.org/1999/xlink" x="0px" y="0px" width="112px"
	 height="112px" viewBox="0 0 112 112" style="overflow:visible;enable-background:new 0 0 112 112;" xml:space="preserve">
<style type="text/css">
	.st0{fill:#012560;}
	.st1{fill:#2DE498;}
	.st2{fill:none;stroke:url(#SVGID_1_);stroke-width:2.2;stroke-linecap:square;stroke-linejoin:round;stroke-miterlimit:10;}
	.st3{fill:#012560;stroke:url(#SVGID_2_);stroke-width:2.2;stroke-linecap:square;stroke-linejoin:round;stroke-miterlimit:10;}
	.st4{fill:none;stroke:#FFFFFF;stroke-width:2.4745;stroke-linecap:square;stroke-linejoin:round;stroke-miterlimit:10;}
	.st5{fill:none;stroke:url(#SVGID_3_);stroke-width:2.2;stroke-linecap:square;stroke-linejoin:round;stroke-miterlimit:10;}
	.st6{fill:#012560;stroke:url(#SVGID_4_);stroke-width:2.2;stroke-linecap:square;stroke-linejoin:round;stroke-miterlimit:10;}
</style>
<defs>
</defs>
<g>
	<circle class="st0" cx="56" cy="56" r="56"/>
	<g>
		<polygon class="st1" points="55.2,41.8 47,42.6 43,46.3 40.1,50.3 40.1,56.2 43.9,61.4 47.2,62.1 50.9,61 54.6,62.7 54.2,65.6 
			57,70.3 55.8,73.8 58.3,78.7 59.1,80.5 60.7,80.9 64.7,79.7 69.2,75.9 69.7,73.6 72.3,71.2 72,65.9 74.3,61.4 76.1,60 77.5,54.8 
			74,56.3 70.6,52.1 66.5,44.7 60.9,44.3 60.1,46.4 55.6,43.8 		"/>
		<polygon class="st1" points="49.6,32.5 50.3,32.3 51.2,31.7 50.7,30.8 50.5,29.6 50.6,28.6 49.8,28.1 49,28.7 48.5,30.1 
			48.5,31.3 48.4,32.1 		"/>
		<path class="st1" d="M64.7,23.6l-0.8,2l-1,1.4l-1.1-0.9l-0.3-1l-2.8-0.7L57,25.3l-1.1,1.6l-1.5,1.3l-0.6,0.7l0.4,1.1l1.5-0.1
			l0.8,1l-0.7,1.5L54,32.3l-1.9,1.4l-1.2,0.4l-1.2,0.5L50,36l-0.7,0.3l-2.4-0.6l-1.5,2l0.2,1.3l1.8,0.8l1.8-0.1l0.8-1.8l1.4-0.3
			l0.7-1l1.5,0.9l1.5-0.7l1.7,1.1l1.3,2.3l1.4-1.2l1.3,0.7l1.8-1.1l2,2.1l2.9-0.7l0.7,2.7l-2.3,2l1.2,0.9l2.2-1l2,2.6l1.5,3l2.7,2.7
			l1.6-0.9l0.4-1l1.3-1l1.4-3.9l-1.8-0.4l-1.6,0.5l-1.2-0.5l-1.4-2.5l2.4,0.3l1.5-0.9l2.3,1l2.6,0l3.7,4.6l2.9,3.5
			C87.5,38.1,77.8,27.1,64.7,23.6z"/>
		<path class="st1" d="M28.8,75.7l-0.5-1.8l1.7-1l-0.4-4l1.6-2.8l-1.2-3l-3.5-2.7L26,57.5l-3.3-3.3l-0.2,0.1
			c-0.1,0.8-0.1,0.9-0.1,1.8C22.4,63.1,24.7,69.9,28.8,75.7z"/>
		<linearGradient id="SVGID_1_" gradientUnits="userSpaceOnUse" x1="21.3463" y1="56" x2="90.6537" y2="56">
			<stop  offset="0" style="stop-color:#FFFFFF"/>
			<stop  offset="1" style="stop-color:#6B94FF"/>
		</linearGradient>
		<circle class="st2" cx="56" cy="56" r="33.6"/>
	</g>
	<g>
		<linearGradient id="SVGID_2_" gradientUnits="userSpaceOnUse" x1="25.2291" y1="74.7804" x2="86.7709" y2="74.7804">
			<stop  offset="0" style="stop-color:#FFFFFF"/>
			<stop  offset="1" style="stop-color:#6B94FF"/>
		</linearGradient>
		<path class="st3" d="M73.5,72.4c6.7,0,12.2,5.5,12.2,12.2s-5.5,12.2-12.2,12.2c-6.7,0-12.2-5.5-12.2-12.2S66.8,72.4,73.5,72.4z
			 M27,80.5l10.7-23.8c1.1-2.4,3.5-3.9,6.2-3.9l0,0c3.8,0,6.8,3.1,6.8,6.8v25 M38.5,72.4c6.7,0,12.2,5.5,12.2,12.2
			s-5.5,12.2-12.2,12.2s-12.2-5.5-12.2-12.2S31.8,72.4,38.5,72.4z M85,80.5L74.3,56.7c-1.1-2.4-3.5-3.9-6.2-3.9l0,0
			c-3.8,0-6.8,3.1-6.8,6.8v25 M56,61L56,61c2.7,0,4.9,2.2,4.9,4.9v10c0,2.7-2.2,4.9-4.9,4.9l0,0c-2.7,0-4.9-2.2-4.9-4.9v-10
			C51.1,63.2,53.3,61,56,61z M56,70.7c2.7,0,5,2.2,5,5c0,2.7-2.2,5-5,5s-5-2.2-5-5C51,72.9,53.3,70.7,56,70.7z"/>
		<circle class="st0" cx="73.5" cy="84.6" r="10.9"/>
		<path class="st4" d="M38.5,77.2c-4.1,0-7.4,3.3-7.4,7.4c0,0,0,0,0,0"/>
		<path class="st4" d="M73.8,77.2c-4.1,0-7.4,3.3-7.4,7.4"/>
	</g>
</g>
</svg>
