<!-- Generator: Adobe Illustrator 24.2.3, SVG Export Plug-In  -->
<svg version="1.1" xmlns="http://www.w3.org/2000/svg" xmlns:xlink="http://www.w3.org/1999/xlink" x="0px" y="0px" width="112px"
	 height="112px" viewBox="0 0 112 112" style="overflow:visible;enable-background:new 0 0 112 112;" xml:space="preserve">
<style type="text/css">
	.st0{fill:#012560;}
	.st1{fill:#6B94FF;stroke:#6B94FF;stroke-width:2.2;stroke-linecap:square;stroke-miterlimit:10;}
	.st2{fill:#012560;stroke:url(#SVGID_1_);stroke-width:2.2;stroke-linecap:square;stroke-miterlimit:10;}
	.st3{fill:none;stroke:url(#SVGID_2_);stroke-width:2.2;stroke-miterlimit:10;}
	.st4{fill:#2DE498;}
	.st5{fill:#012560;stroke:url(#SVGID_3_);stroke-width:2.2;stroke-linecap:square;stroke-miterlimit:10;}
	.st6{fill:none;stroke:url(#SVGID_4_);stroke-width:2.2;stroke-miterlimit:10;}
</style>
<defs>
</defs>
<g>
	<circle class="st0" cx="56" cy="56" r="56"/>
	<g>
		<path class="st1" d="M79.8,59.6L44.5,94.9c-1.1,1.1-2.9,1.1-4,0L18,72.4c-1.1-1.1-1.1-2.9,0-4l35.3-35.3c0.6-0.6,1.4-0.9,2.2-0.8
			L75,34.7c1.7,0.2,3,1.5,3.2,3.2l2.4,19.4C80.7,58.2,80.4,59,79.8,59.6z"/>
		
			<linearGradient id="SVGID_1_" gradientUnits="userSpaceOnUse" x1="-4551.8228" y1="1500.8789" x2="-4551.8228" y2="1540.5352" gradientTransform="matrix(0.7071 -0.7071 0.7071 0.7071 2196.439 -4240.1724)">
			<stop  offset="0" style="stop-color:#FFFFFF"/>
			<stop  offset="1" style="stop-color:#6B94FF"/>
		</linearGradient>
		<path class="st2" d="M79.2,54.1L44.9,88.5c-1.1,1.1-2.9,1.1-4,0L18.4,66c-1.1-1.1-1.1-2.9,0-4l34.4-34.4c0.6-0.6,1.4-0.9,2.2-0.8
			l19.4,2.4c1.7,0.2,3,1.5,3.2,3.2L80,51.9C80.1,52.7,79.8,53.5,79.2,54.1z"/>
		
			<linearGradient id="SVGID_2_" gradientUnits="userSpaceOnUse" x1="-4532.4448" y1="1515.6123" x2="-4510.2705" y2="1537.7865" gradientTransform="matrix(0.7071 -0.7071 0.7071 0.7071 2196.439 -4240.1724)">
			<stop  offset="0" style="stop-color:#FFFFFF"/>
			<stop  offset="1" style="stop-color:#6B94FF"/>
		</linearGradient>
		<path class="st3" d="M71,41.4c-1.5,1.5-4,1.5-5.5,0s-1.5-4,0-5.5s4-1.5,5.5,0S72.5,39.9,71,41.4z M84.2,48.9
			c0.5-0.1,1-0.3,1.5-0.5c1.5-0.6,2.9-1.5,4.1-2.7c5-5,5-13,0-18s-13-5-18,0c-3,3-4.2,7.1-3.6,10.9"/>
		<polygon class="st4" points="50.3,60.7 49.1,64.7 46.7,61.3 42.6,61.4 45.1,58.1 43.7,54.2 47.6,55.5 50.9,53 50.9,57.1 
			54.2,59.5 		"/>
		<polygon class="st4" points="59.7,51.3 58.5,55.2 56.1,51.9 52,51.9 54.5,48.6 53.2,44.7 57.1,46.1 60.4,43.6 60.3,47.7 
			63.6,50.1 		"/>
		<polygon class="st4" points="40.8,70.2 39.6,74.1 37.2,70.8 33.1,70.8 35.6,67.5 34.3,63.6 38.2,65 41.4,62.5 41.4,66.6 44.7,69 
					"/>
	</g>
</g>
</svg>
