<!-- Generator: Adobe Illustrator 24.1.2, SVG Export Plug-In  -->
<svg version="1.1" xmlns="http://www.w3.org/2000/svg" xmlns:xlink="http://www.w3.org/1999/xlink" x="0px" y="0px" width="320.3px"
	 height="925.8px" viewBox="0 0 320.3 925.8" style="overflow:visible;enable-background:new 0 0 320.3 925.8;"
	 xml:space="preserve">
<defs>
</defs>
<g>
	<g>
		<g>
			<line style="fill:none;stroke:#009FE3;stroke-width:0.25;stroke-miterlimit:10;" x1="0.1" y1="920.1" x2="320.3" y2="920.1"/>
		</g>
		<g>
			<line style="fill:none;stroke:#009FE3;stroke-width:0.25;stroke-miterlimit:10;" x1="0.1" y1="912.1" x2="320.3" y2="912.1"/>
		</g>
		<g>
			<line style="fill:none;stroke:#009FE3;stroke-width:0.25;stroke-miterlimit:10;" x1="0.1" y1="904.1" x2="320.3" y2="904.1"/>
		</g>
		<g>
			<line style="fill:none;stroke:#009FE3;stroke-width:0.25;stroke-miterlimit:10;" x1="0.1" y1="896.1" x2="320.3" y2="896.1"/>
		</g>
		<g>
			<line style="fill:none;stroke:#009FE3;stroke-width:0.25;stroke-miterlimit:10;" x1="0.1" y1="888.1" x2="320.3" y2="888.1"/>
		</g>
		<g>
			<line style="fill:none;stroke:#009FE3;stroke-width:0.25;stroke-miterlimit:10;" x1="0.1" y1="880.1" x2="320.3" y2="880.1"/>
		</g>
		<g>
			<line style="fill:none;stroke:#009FE3;stroke-width:0.25;stroke-miterlimit:10;" x1="0.1" y1="872.1" x2="320.3" y2="872.1"/>
		</g>
		<g>
			<line style="fill:none;stroke:#009FE3;stroke-width:0.25;stroke-miterlimit:10;" x1="0.1" y1="864.1" x2="320.3" y2="864.1"/>
		</g>
		<g>
			<line style="fill:none;stroke:#009FE3;stroke-width:0.25;stroke-miterlimit:10;" x1="0.1" y1="856.1" x2="320.3" y2="856.1"/>
		</g>
		<g>
			<line style="fill:none;stroke:#009FE3;stroke-width:0.25;stroke-miterlimit:10;" x1="0.1" y1="848.1" x2="320.3" y2="848.1"/>
		</g>
		<g>
			<line style="fill:none;stroke:#009FE3;stroke-width:0.25;stroke-miterlimit:10;" x1="0.1" y1="840.1" x2="320.3" y2="840.1"/>
		</g>
		<g>
			<line style="fill:none;stroke:#009FE3;stroke-width:0.25;stroke-miterlimit:10;" x1="0.1" y1="832.1" x2="320.3" y2="832.1"/>
		</g>
		<g>
			<line style="fill:none;stroke:#009FE3;stroke-width:0.25;stroke-miterlimit:10;" x1="0.1" y1="824.1" x2="320.3" y2="824.1"/>
		</g>
		<g>
			<line style="fill:none;stroke:#009FE3;stroke-width:0.25;stroke-miterlimit:10;" x1="0.1" y1="816.1" x2="320.3" y2="816.1"/>
		</g>
		<g>
			<line style="fill:none;stroke:#009FE3;stroke-width:0.25;stroke-miterlimit:10;" x1="0.1" y1="808.1" x2="320.3" y2="808.1"/>
		</g>
		<g>
			<line style="fill:none;stroke:#009FE3;stroke-width:0.25;stroke-miterlimit:10;" x1="0.1" y1="800.1" x2="320.3" y2="800.1"/>
		</g>
		<g>
			<line style="fill:none;stroke:#009FE3;stroke-width:0.25;stroke-miterlimit:10;" x1="0.1" y1="792.1" x2="320.3" y2="792.1"/>
		</g>
		<g>
			<line style="fill:none;stroke:#009FE3;stroke-width:0.25;stroke-miterlimit:10;" x1="0.1" y1="784.1" x2="320.3" y2="784.1"/>
		</g>
		<g>
			<line style="fill:none;stroke:#009FE3;stroke-width:0.25;stroke-miterlimit:10;" x1="0.1" y1="776.1" x2="320.3" y2="776.1"/>
		</g>
		<g>
			<line style="fill:none;stroke:#009FE3;stroke-width:0.25;stroke-miterlimit:10;" x1="0.1" y1="768.1" x2="320.3" y2="768.1"/>
		</g>
		<g>
			<line style="fill:none;stroke:#009FE3;stroke-width:0.25;stroke-miterlimit:10;" x1="0.1" y1="760.1" x2="320.3" y2="760.1"/>
		</g>
		<g>
			<line style="fill:none;stroke:#009FE3;stroke-width:0.25;stroke-miterlimit:10;" x1="0.1" y1="752.1" x2="320.3" y2="752.1"/>
		</g>
		<g>
			<line style="fill:none;stroke:#009FE3;stroke-width:0.25;stroke-miterlimit:10;" x1="0.1" y1="744.1" x2="320.3" y2="744.1"/>
		</g>
		<g>
			<line style="fill:none;stroke:#009FE3;stroke-width:0.25;stroke-miterlimit:10;" x1="0.1" y1="736.1" x2="320.3" y2="736.1"/>
		</g>
		<g>
			<line style="fill:none;stroke:#009FE3;stroke-width:0.25;stroke-miterlimit:10;" x1="0.1" y1="728.1" x2="320.3" y2="728.1"/>
		</g>
		<g>
			<line style="fill:none;stroke:#009FE3;stroke-width:0.25;stroke-miterlimit:10;" x1="0.1" y1="720.1" x2="320.3" y2="720.1"/>
		</g>
		<g>
			<line style="fill:none;stroke:#009FE3;stroke-width:0.25;stroke-miterlimit:10;" x1="0.1" y1="712.1" x2="320.3" y2="712.1"/>
		</g>
		<g>
			<line style="fill:none;stroke:#009FE3;stroke-width:0.25;stroke-miterlimit:10;" x1="0.1" y1="704.1" x2="320.3" y2="704.1"/>
		</g>
		<g>
			<line style="fill:none;stroke:#009FE3;stroke-width:0.25;stroke-miterlimit:10;" x1="0.1" y1="696.1" x2="320.3" y2="696.1"/>
		</g>
		<g>
			<line style="fill:none;stroke:#009FE3;stroke-width:0.25;stroke-miterlimit:10;" x1="0.1" y1="688.1" x2="320.3" y2="688.1"/>
		</g>
		<g>
			<line style="fill:none;stroke:#009FE3;stroke-width:0.25;stroke-miterlimit:10;" x1="0.1" y1="680.1" x2="320.3" y2="680.1"/>
		</g>
		<g>
			<line style="fill:none;stroke:#009FE3;stroke-width:0.25;stroke-miterlimit:10;" x1="0.1" y1="672.1" x2="320.3" y2="672.1"/>
		</g>
		<g>
			<line style="fill:none;stroke:#009FE3;stroke-width:0.25;stroke-miterlimit:10;" x1="0.1" y1="664.1" x2="320.3" y2="664.1"/>
		</g>
		<g>
			<line style="fill:none;stroke:#009FE3;stroke-width:0.25;stroke-miterlimit:10;" x1="0.1" y1="656.1" x2="320.3" y2="656.1"/>
		</g>
		<g>
			<line style="fill:none;stroke:#009FE3;stroke-width:0.25;stroke-miterlimit:10;" x1="0.1" y1="648.1" x2="320.3" y2="648.1"/>
		</g>
		<g>
			<line style="fill:none;stroke:#009FE3;stroke-width:0.25;stroke-miterlimit:10;" x1="0.1" y1="640.1" x2="320.3" y2="640.1"/>
		</g>
		<g>
			<line style="fill:none;stroke:#009FE3;stroke-width:0.25;stroke-miterlimit:10;" x1="0.1" y1="632.1" x2="320.3" y2="632.1"/>
		</g>
		<g>
			<line style="fill:none;stroke:#009FE3;stroke-width:0.25;stroke-miterlimit:10;" x1="0.1" y1="624.1" x2="320.3" y2="624.1"/>
		</g>
		<g>
			<line style="fill:none;stroke:#009FE3;stroke-width:0.25;stroke-miterlimit:10;" x1="0.1" y1="616.1" x2="320.3" y2="616.1"/>
		</g>
		<g>
			<line style="fill:none;stroke:#009FE3;stroke-width:0.25;stroke-miterlimit:10;" x1="0.1" y1="608.1" x2="320.3" y2="608.1"/>
		</g>
		<g>
			<line style="fill:none;stroke:#009FE3;stroke-width:0.25;stroke-miterlimit:10;" x1="0.1" y1="600.1" x2="320.3" y2="600.1"/>
		</g>
		<g>
			<line style="fill:none;stroke:#009FE3;stroke-width:0.25;stroke-miterlimit:10;" x1="0.1" y1="592.1" x2="320.3" y2="592.1"/>
		</g>
		<g>
			<line style="fill:none;stroke:#009FE3;stroke-width:0.25;stroke-miterlimit:10;" x1="0.1" y1="584.1" x2="320.3" y2="584.1"/>
		</g>
		<g>
			<line style="fill:none;stroke:#009FE3;stroke-width:0.25;stroke-miterlimit:10;" x1="0.1" y1="576.1" x2="320.3" y2="576.1"/>
		</g>
		<g>
			<line style="fill:none;stroke:#009FE3;stroke-width:0.25;stroke-miterlimit:10;" x1="0.1" y1="568.1" x2="320.3" y2="568.1"/>
		</g>
		<g>
			<line style="fill:none;stroke:#009FE3;stroke-width:0.25;stroke-miterlimit:10;" x1="0.1" y1="560.1" x2="320.3" y2="560.1"/>
		</g>
		<g>
			<line style="fill:none;stroke:#009FE3;stroke-width:0.25;stroke-miterlimit:10;" x1="0.1" y1="552.1" x2="320.3" y2="552.1"/>
		</g>
		<g>
			<line style="fill:none;stroke:#009FE3;stroke-width:0.25;stroke-miterlimit:10;" x1="0.1" y1="544.1" x2="320.3" y2="544.1"/>
		</g>
		<g>
			<line style="fill:none;stroke:#009FE3;stroke-width:0.25;stroke-miterlimit:10;" x1="0.1" y1="536.1" x2="320.3" y2="536.1"/>
		</g>
		<g>
			<line style="fill:none;stroke:#009FE3;stroke-width:0.25;stroke-miterlimit:10;" x1="0.1" y1="528.1" x2="320.3" y2="528.1"/>
		</g>
		<g>
			<line style="fill:none;stroke:#009FE3;stroke-width:0.25;stroke-miterlimit:10;" x1="0.1" y1="520.1" x2="320.3" y2="520.1"/>
		</g>
		<g>
			<line style="fill:none;stroke:#009FE3;stroke-width:0.25;stroke-miterlimit:10;" x1="0.1" y1="512.1" x2="320.3" y2="512.1"/>
		</g>
		<g>
			<line style="fill:none;stroke:#009FE3;stroke-width:0.25;stroke-miterlimit:10;" x1="0.1" y1="504.1" x2="320.3" y2="504.1"/>
		</g>
		<g>
			<line style="fill:none;stroke:#009FE3;stroke-width:0.25;stroke-miterlimit:10;" x1="0.1" y1="496.1" x2="320.3" y2="496.1"/>
		</g>
		<g>
			<line style="fill:none;stroke:#009FE3;stroke-width:0.25;stroke-miterlimit:10;" x1="0.1" y1="488.1" x2="320.3" y2="488.1"/>
		</g>
		<g>
			<line style="fill:none;stroke:#009FE3;stroke-width:0.25;stroke-miterlimit:10;" x1="0.1" y1="480.1" x2="320.3" y2="480.1"/>
		</g>
		<g>
			<line style="fill:none;stroke:#009FE3;stroke-width:0.25;stroke-miterlimit:10;" x1="0.1" y1="472.1" x2="320.3" y2="472.1"/>
		</g>
		<g>
			<line style="fill:none;stroke:#009FE3;stroke-width:0.25;stroke-miterlimit:10;" x1="0.1" y1="464.1" x2="320.3" y2="464.1"/>
		</g>
		<g>
			<line style="fill:none;stroke:#009FE3;stroke-width:0.25;stroke-miterlimit:10;" x1="0.1" y1="456.1" x2="320.3" y2="456.1"/>
		</g>
		<g>
			<line style="fill:none;stroke:#009FE3;stroke-width:0.25;stroke-miterlimit:10;" x1="0.1" y1="448.1" x2="320.3" y2="448.1"/>
		</g>
		<g>
			<line style="fill:none;stroke:#009FE3;stroke-width:0.25;stroke-miterlimit:10;" x1="0.1" y1="440.1" x2="320.3" y2="440.1"/>
		</g>
		<g>
			<line style="fill:none;stroke:#009FE3;stroke-width:0.25;stroke-miterlimit:10;" x1="0.1" y1="432.1" x2="320.3" y2="432.1"/>
		</g>
		<g>
			<line style="fill:none;stroke:#009FE3;stroke-width:0.25;stroke-miterlimit:10;" x1="0.1" y1="424.1" x2="320.3" y2="424.1"/>
		</g>
		<g>
			<line style="fill:none;stroke:#009FE3;stroke-width:0.25;stroke-miterlimit:10;" x1="0.1" y1="416.1" x2="320.3" y2="416.1"/>
		</g>
		<g>
			<line style="fill:none;stroke:#009FE3;stroke-width:0.25;stroke-miterlimit:10;" x1="0.1" y1="408.1" x2="320.3" y2="408.1"/>
		</g>
		<g>
			<line style="fill:none;stroke:#009FE3;stroke-width:0.25;stroke-miterlimit:10;" x1="0.1" y1="400.1" x2="320.3" y2="400.1"/>
		</g>
		<g>
			<line style="fill:none;stroke:#009FE3;stroke-width:0.25;stroke-miterlimit:10;" x1="0.1" y1="392.1" x2="320.3" y2="392.1"/>
		</g>
		<g>
			<line style="fill:none;stroke:#009FE3;stroke-width:0.25;stroke-miterlimit:10;" x1="0.1" y1="384.1" x2="320.3" y2="384.1"/>
		</g>
		<g>
			<line style="fill:none;stroke:#009FE3;stroke-width:0.25;stroke-miterlimit:10;" x1="0.1" y1="376.1" x2="320.3" y2="376.1"/>
		</g>
		<g>
			<line style="fill:none;stroke:#009FE3;stroke-width:0.25;stroke-miterlimit:10;" x1="0.1" y1="368.1" x2="320.3" y2="368.1"/>
		</g>
		<g>
			<line style="fill:none;stroke:#009FE3;stroke-width:0.25;stroke-miterlimit:10;" x1="0.1" y1="360.1" x2="320.3" y2="360.1"/>
		</g>
		<g>
			<line style="fill:none;stroke:#009FE3;stroke-width:0.25;stroke-miterlimit:10;" x1="0.1" y1="352.1" x2="320.3" y2="352.1"/>
		</g>
		<g>
			<line style="fill:none;stroke:#009FE3;stroke-width:0.25;stroke-miterlimit:10;" x1="0.1" y1="344.1" x2="320.3" y2="344.1"/>
		</g>
		<g>
			<line style="fill:none;stroke:#009FE3;stroke-width:0.25;stroke-miterlimit:10;" x1="0.1" y1="336.1" x2="320.3" y2="336.1"/>
		</g>
		<g>
			<line style="fill:none;stroke:#009FE3;stroke-width:0.25;stroke-miterlimit:10;" x1="0.1" y1="328.1" x2="320.3" y2="328.1"/>
		</g>
		<g>
			<line style="fill:none;stroke:#009FE3;stroke-width:0.25;stroke-miterlimit:10;" x1="0.1" y1="320.1" x2="320.3" y2="320.1"/>
		</g>
		<g>
			<line style="fill:none;stroke:#009FE3;stroke-width:0.25;stroke-miterlimit:10;" x1="0.1" y1="312.1" x2="320.3" y2="312.1"/>
		</g>
		<g>
			<line style="fill:none;stroke:#009FE3;stroke-width:0.25;stroke-miterlimit:10;" x1="0.1" y1="304.1" x2="320.3" y2="304.1"/>
		</g>
		<g>
			<line style="fill:none;stroke:#009FE3;stroke-width:0.25;stroke-miterlimit:10;" x1="0.1" y1="296.1" x2="320.3" y2="296.1"/>
		</g>
		<g>
			<line style="fill:none;stroke:#009FE3;stroke-width:0.25;stroke-miterlimit:10;" x1="0.1" y1="288.1" x2="320.3" y2="288.1"/>
		</g>
		<g>
			<line style="fill:none;stroke:#009FE3;stroke-width:0.25;stroke-miterlimit:10;" x1="0.1" y1="280.1" x2="320.3" y2="280.1"/>
		</g>
		<g>
			<line style="fill:none;stroke:#009FE3;stroke-width:0.25;stroke-miterlimit:10;" x1="0.1" y1="272.1" x2="320.3" y2="272.1"/>
		</g>
		<g>
			<line style="fill:none;stroke:#009FE3;stroke-width:0.25;stroke-miterlimit:10;" x1="0.1" y1="264.1" x2="320.3" y2="264.1"/>
		</g>
		<g>
			<line style="fill:none;stroke:#009FE3;stroke-width:0.25;stroke-miterlimit:10;" x1="0.1" y1="256.1" x2="320.3" y2="256.1"/>
		</g>
		<g>
			<line style="fill:none;stroke:#009FE3;stroke-width:0.25;stroke-miterlimit:10;" x1="0.1" y1="248.1" x2="320.3" y2="248.1"/>
		</g>
		<g>
			<line style="fill:none;stroke:#009FE3;stroke-width:0.25;stroke-miterlimit:10;" x1="0.1" y1="240.1" x2="320.3" y2="240.1"/>
		</g>
		<g>
			<line style="fill:none;stroke:#009FE3;stroke-width:0.25;stroke-miterlimit:10;" x1="0.1" y1="232.1" x2="320.3" y2="232.1"/>
		</g>
		<g>
			<line style="fill:none;stroke:#009FE3;stroke-width:0.25;stroke-miterlimit:10;" x1="0.1" y1="224.1" x2="320.3" y2="224.1"/>
		</g>
		<g>
			<line style="fill:none;stroke:#009FE3;stroke-width:0.25;stroke-miterlimit:10;" x1="0.1" y1="216.1" x2="320.3" y2="216.1"/>
		</g>
		<g>
			<line style="fill:none;stroke:#009FE3;stroke-width:0.25;stroke-miterlimit:10;" x1="0.1" y1="208.1" x2="320.3" y2="208.1"/>
		</g>
		<g>
			<line style="fill:none;stroke:#009FE3;stroke-width:0.25;stroke-miterlimit:10;" x1="0.1" y1="200.1" x2="320.3" y2="200.1"/>
		</g>
		<g>
			<line style="fill:none;stroke:#009FE3;stroke-width:0.25;stroke-miterlimit:10;" x1="0.1" y1="192.1" x2="320.3" y2="192.1"/>
		</g>
		<g>
			<line style="fill:none;stroke:#009FE3;stroke-width:0.25;stroke-miterlimit:10;" x1="0.1" y1="184.1" x2="320.3" y2="184.1"/>
		</g>
		<g>
			<line style="fill:none;stroke:#009FE3;stroke-width:0.25;stroke-miterlimit:10;" x1="0.1" y1="176.1" x2="320.3" y2="176.1"/>
		</g>
		<g>
			<line style="fill:none;stroke:#009FE3;stroke-width:0.25;stroke-miterlimit:10;" x1="0.1" y1="168.1" x2="320.3" y2="168.1"/>
		</g>
		<g>
			<line style="fill:none;stroke:#009FE3;stroke-width:0.25;stroke-miterlimit:10;" x1="0.1" y1="160.1" x2="320.3" y2="160.1"/>
		</g>
		<g>
			<line style="fill:none;stroke:#009FE3;stroke-width:0.25;stroke-miterlimit:10;" x1="0.1" y1="152.1" x2="320.3" y2="152.1"/>
		</g>
		<g>
			<line style="fill:none;stroke:#009FE3;stroke-width:0.25;stroke-miterlimit:10;" x1="0.1" y1="144.1" x2="320.3" y2="144.1"/>
		</g>
		<g>
			<line style="fill:none;stroke:#009FE3;stroke-width:0.25;stroke-miterlimit:10;" x1="0.1" y1="136.1" x2="320.3" y2="136.1"/>
		</g>
		<g>
			<line style="fill:none;stroke:#009FE3;stroke-width:0.25;stroke-miterlimit:10;" x1="0.1" y1="128.1" x2="320.3" y2="128.1"/>
		</g>
		<g>
			<line style="fill:none;stroke:#009FE3;stroke-width:0.25;stroke-miterlimit:10;" x1="0.1" y1="120.1" x2="320.3" y2="120.1"/>
		</g>
		<g>
			<line style="fill:none;stroke:#009FE3;stroke-width:0.25;stroke-miterlimit:10;" x1="0.1" y1="112.1" x2="320.3" y2="112.1"/>
		</g>
		<g>
			<line style="fill:none;stroke:#009FE3;stroke-width:0.25;stroke-miterlimit:10;" x1="0.1" y1="104.1" x2="320.3" y2="104.1"/>
		</g>
		<g>
			<line style="fill:none;stroke:#009FE3;stroke-width:0.25;stroke-miterlimit:10;" x1="0.1" y1="96.1" x2="320.3" y2="96.1"/>
		</g>
		<g>
			<line style="fill:none;stroke:#009FE3;stroke-width:0.25;stroke-miterlimit:10;" x1="0.1" y1="88.1" x2="320.3" y2="88.1"/>
		</g>
		<g>
			<line style="fill:none;stroke:#009FE3;stroke-width:0.25;stroke-miterlimit:10;" x1="0.1" y1="80.1" x2="320.3" y2="80.1"/>
		</g>
		<g>
			<line style="fill:none;stroke:#009FE3;stroke-width:0.25;stroke-miterlimit:10;" x1="0.1" y1="72.1" x2="320.3" y2="72.1"/>
		</g>
		<g>
			<line style="fill:none;stroke:#009FE3;stroke-width:0.25;stroke-miterlimit:10;" x1="0.1" y1="64.1" x2="320.3" y2="64.1"/>
		</g>
		<g>
			<line style="fill:none;stroke:#009FE3;stroke-width:0.25;stroke-miterlimit:10;" x1="0.1" y1="56.1" x2="320.3" y2="56.1"/>
		</g>
		<g>
			<line style="fill:none;stroke:#009FE3;stroke-width:0.25;stroke-miterlimit:10;" x1="0.1" y1="48.1" x2="320.3" y2="48.1"/>
		</g>
		<g>
			<line style="fill:none;stroke:#009FE3;stroke-width:0.25;stroke-miterlimit:10;" x1="0.1" y1="40.1" x2="320.3" y2="40.1"/>
		</g>
		<g>
			<line style="fill:none;stroke:#009FE3;stroke-width:0.25;stroke-miterlimit:10;" x1="0.1" y1="32.1" x2="320.3" y2="32.1"/>
		</g>
		<g>
			<line style="fill:none;stroke:#009FE3;stroke-width:0.25;stroke-miterlimit:10;" x1="0.1" y1="24.1" x2="320.3" y2="24.1"/>
		</g>
		<g>
			<line style="fill:none;stroke:#009FE3;stroke-width:0.25;stroke-miterlimit:10;" x1="0.1" y1="16.1" x2="320.3" y2="16.1"/>
		</g>
		<g>
			<line style="fill:none;stroke:#009FE3;stroke-width:0.25;stroke-miterlimit:10;" x1="0.1" y1="8.1" x2="320.3" y2="8.1"/>
		</g>
		<g>
			<line style="fill:none;stroke:#009FE3;stroke-width:0.25;stroke-miterlimit:10;" x1="0.1" y1="0.1" x2="320.3" y2="0.1"/>
		</g>
	</g>
	<g>
		<g>
			<line style="fill:none;stroke:#009FE3;stroke-width:0.25;stroke-miterlimit:10;" x1="320.1" y1="0.1" x2="320.1" y2="920.4"/>
		</g>
		<g>
			<line style="fill:none;stroke:#009FE3;stroke-width:0.25;stroke-miterlimit:10;" x1="312.1" y1="0.1" x2="312.1" y2="920.4"/>
		</g>
		<g>
			<line style="fill:none;stroke:#009FE3;stroke-width:0.25;stroke-miterlimit:10;" x1="304.1" y1="0.1" x2="304.1" y2="920.4"/>
		</g>
		<g>
			<line style="fill:none;stroke:#009FE3;stroke-width:0.25;stroke-miterlimit:10;" x1="296.1" y1="0.1" x2="296.1" y2="920.4"/>
		</g>
		<g>
			<line style="fill:none;stroke:#009FE3;stroke-width:0.25;stroke-miterlimit:10;" x1="288.1" y1="0.1" x2="288.1" y2="920.4"/>
		</g>
		<g>
			<line style="fill:none;stroke:#009FE3;stroke-width:0.25;stroke-miterlimit:10;" x1="280.1" y1="0.1" x2="280.1" y2="920.4"/>
		</g>
		<g>
			<line style="fill:none;stroke:#009FE3;stroke-width:0.25;stroke-miterlimit:10;" x1="272.1" y1="0.1" x2="272.1" y2="920.4"/>
		</g>
		<g>
			<line style="fill:none;stroke:#009FE3;stroke-width:0.25;stroke-miterlimit:10;" x1="264.1" y1="0.1" x2="264.1" y2="920.4"/>
		</g>
		<g>
			<line style="fill:none;stroke:#009FE3;stroke-width:0.25;stroke-miterlimit:10;" x1="256.1" y1="0.1" x2="256.1" y2="920.4"/>
		</g>
		<g>
			<line style="fill:none;stroke:#009FE3;stroke-width:0.25;stroke-miterlimit:10;" x1="248.1" y1="0.1" x2="248.1" y2="920.4"/>
		</g>
		<g>
			<line style="fill:none;stroke:#009FE3;stroke-width:0.25;stroke-miterlimit:10;" x1="240.1" y1="0.1" x2="240.1" y2="920.4"/>
		</g>
		<g>
			<line style="fill:none;stroke:#009FE3;stroke-width:0.25;stroke-miterlimit:10;" x1="232.1" y1="0.1" x2="232.1" y2="920.4"/>
		</g>
		<g>
			<line style="fill:none;stroke:#009FE3;stroke-width:0.25;stroke-miterlimit:10;" x1="224.1" y1="0.1" x2="224.1" y2="920.4"/>
		</g>
		<g>
			<line style="fill:none;stroke:#009FE3;stroke-width:0.25;stroke-miterlimit:10;" x1="216.1" y1="0.1" x2="216.1" y2="920.4"/>
		</g>
		<g>
			<line style="fill:none;stroke:#009FE3;stroke-width:0.25;stroke-miterlimit:10;" x1="208.1" y1="0.1" x2="208.1" y2="920.4"/>
		</g>
		<g>
			<line style="fill:none;stroke:#009FE3;stroke-width:0.25;stroke-miterlimit:10;" x1="200.1" y1="0.1" x2="200.1" y2="920.4"/>
		</g>
		<g>
			<line style="fill:none;stroke:#009FE3;stroke-width:0.25;stroke-miterlimit:10;" x1="192.1" y1="0.1" x2="192.1" y2="920.4"/>
		</g>
		<g>
			<line style="fill:none;stroke:#009FE3;stroke-width:0.25;stroke-miterlimit:10;" x1="184.1" y1="0.1" x2="184.1" y2="920.4"/>
		</g>
		<g>
			<line style="fill:none;stroke:#009FE3;stroke-width:0.25;stroke-miterlimit:10;" x1="176.1" y1="0.1" x2="176.1" y2="920.4"/>
		</g>
		<g>
			<line style="fill:none;stroke:#009FE3;stroke-width:0.25;stroke-miterlimit:10;" x1="168.1" y1="0.1" x2="168.1" y2="920.4"/>
		</g>
		<g>
			<line style="fill:none;stroke:#009FE3;stroke-width:0.25;stroke-miterlimit:10;" x1="160.1" y1="0.1" x2="160.1" y2="920.4"/>
		</g>
		<g>
			<line style="fill:none;stroke:#009FE3;stroke-width:0.25;stroke-miterlimit:10;" x1="152.1" y1="0.1" x2="152.1" y2="920.4"/>
		</g>
		<g>
			<line style="fill:none;stroke:#009FE3;stroke-width:0.25;stroke-miterlimit:10;" x1="144.1" y1="0.1" x2="144.1" y2="920.4"/>
		</g>
		<g>
			<line style="fill:none;stroke:#009FE3;stroke-width:0.25;stroke-miterlimit:10;" x1="136.1" y1="0.1" x2="136.1" y2="920.4"/>
		</g>
		<g>
			<line style="fill:none;stroke:#009FE3;stroke-width:0.25;stroke-miterlimit:10;" x1="128.1" y1="0.1" x2="128.1" y2="920.4"/>
		</g>
		<g>
			<line style="fill:none;stroke:#009FE3;stroke-width:0.25;stroke-miterlimit:10;" x1="120.1" y1="0.1" x2="120.1" y2="920.4"/>
		</g>
		<g>
			<line style="fill:none;stroke:#009FE3;stroke-width:0.25;stroke-miterlimit:10;" x1="112.1" y1="0.1" x2="112.1" y2="920.4"/>
		</g>
		<g>
			<line style="fill:none;stroke:#009FE3;stroke-width:0.25;stroke-miterlimit:10;" x1="104.1" y1="0.1" x2="104.1" y2="920.4"/>
		</g>
		<g>
			<line style="fill:none;stroke:#009FE3;stroke-width:0.25;stroke-miterlimit:10;" x1="96.1" y1="0.1" x2="96.1" y2="920.4"/>
		</g>
		<g>
			<line style="fill:none;stroke:#009FE3;stroke-width:0.25;stroke-miterlimit:10;" x1="88.1" y1="0.1" x2="88.1" y2="920.4"/>
		</g>
		<g>
			<line style="fill:none;stroke:#009FE3;stroke-width:0.25;stroke-miterlimit:10;" x1="80.1" y1="0.1" x2="80.1" y2="920.4"/>
		</g>
		<g>
			<line style="fill:none;stroke:#009FE3;stroke-width:0.25;stroke-miterlimit:10;" x1="72.1" y1="0.1" x2="72.1" y2="920.4"/>
		</g>
		<g>
			<line style="fill:none;stroke:#009FE3;stroke-width:0.25;stroke-miterlimit:10;" x1="64.1" y1="0.1" x2="64.1" y2="920.4"/>
		</g>
		<g>
			<line style="fill:none;stroke:#009FE3;stroke-width:0.25;stroke-miterlimit:10;" x1="56.1" y1="0.1" x2="56.1" y2="920.4"/>
		</g>
		<g>
			<line style="fill:none;stroke:#009FE3;stroke-width:0.25;stroke-miterlimit:10;" x1="48.1" y1="0.1" x2="48.1" y2="920.4"/>
		</g>
		<g>
			<line style="fill:none;stroke:#009FE3;stroke-width:0.25;stroke-miterlimit:10;" x1="40.1" y1="0.1" x2="40.1" y2="920.4"/>
		</g>
		<g>
			<line style="fill:none;stroke:#009FE3;stroke-width:0.25;stroke-miterlimit:10;" x1="32.1" y1="0.1" x2="32.1" y2="920.4"/>
		</g>
		<g>
			<line style="fill:none;stroke:#009FE3;stroke-width:0.25;stroke-miterlimit:10;" x1="24.1" y1="0.1" x2="24.1" y2="920.4"/>
		</g>
		<g>
			<line style="fill:none;stroke:#009FE3;stroke-width:0.25;stroke-miterlimit:10;" x1="16.1" y1="0.1" x2="16.1" y2="920.4"/>
		</g>
		<g>
			<line style="fill:none;stroke:#009FE3;stroke-width:0.25;stroke-miterlimit:10;" x1="8.1" y1="0.1" x2="8.1" y2="920.4"/>
		</g>
		<g>
			<line style="fill:none;stroke:#009FE3;stroke-width:0.25;stroke-miterlimit:10;" x1="0.1" y1="0.1" x2="0.1" y2="920.4"/>
		</g>
	</g>
</g>
<g>
	<g>
		<g style="opacity:0.3;">
			<rect x="32.3" y="0.1" style="fill:#D8D8D8;" width="120" height="925.7"/>
		</g>
	</g>
	<g style="opacity:0.3;">
		<rect x="168.3" y="0.1" style="fill:#D8D8D8;" width="120" height="925.7"/>
	</g>
</g>
</svg>
