<!-- Generator: Adobe Illustrator 24.0.3, SVG Export Plug-In  -->
<svg version="1.1" xmlns="http://www.w3.org/2000/svg" xmlns:xlink="http://www.w3.org/1999/xlink" x="0px" y="0px"
	 width="196.95px" height="50px" viewBox="0 0 196.95 50" style="enable-background:new 0 0 196.95 50;" xml:space="preserve">
<style type="text/css">
	.st0{fill:#57335B;}
	.st1{fill:#FFFFFF;}
</style>
<defs>
</defs>
<path class="st0" d="M186.95,50H10C4.48,50,0,45.52,0,40l0-30C0,4.48,4.48,0,10,0l176.95,0c5.52,0,10,4.48,10,10v30
	C196.95,45.52,192.48,50,186.95,50z"/>
<g>
	<path class="st1" d="M50.11,24.26c0,1.88-0.54,3.32-1.61,4.32s-2.62,1.5-4.64,1.5h-3.23V18.65h3.59c1.86,0,3.31,0.49,4.34,1.48
		S50.11,22.49,50.11,24.26z M47.6,24.32c0-2.45-1.08-3.68-3.25-3.68h-1.29v7.44h1.04C46.43,28.08,47.6,26.82,47.6,24.32z"/>
	<path class="st1" d="M56.25,30.23c-1.41,0-2.5-0.39-3.3-1.16s-1.19-1.88-1.19-3.3c0-1.46,0.37-2.59,1.1-3.39s1.74-1.2,3.04-1.2
		c1.23,0,2.2,0.35,2.88,1.05s1.03,1.67,1.03,2.91v1.16h-5.63c0.03,0.68,0.23,1.21,0.6,1.59s0.9,0.57,1.58,0.57
		c0.53,0,1.02-0.05,1.49-0.16s0.96-0.28,1.47-0.52v1.84c-0.42,0.21-0.86,0.36-1.34,0.46S56.93,30.23,56.25,30.23z M55.91,22.87
		c-0.5,0-0.9,0.16-1.19,0.48s-0.45,0.77-0.49,1.36h3.34c-0.01-0.59-0.16-1.04-0.46-1.36S56.42,22.87,55.91,22.87z"/>
	<path class="st1" d="M66.61,21.18c1.03,0,1.84,0.4,2.42,1.21s0.88,1.91,0.88,3.31c0,1.44-0.3,2.56-0.9,3.35s-1.42,1.19-2.46,1.19
		c-1.03,0-1.83-0.37-2.41-1.12h-0.16l-0.4,0.96h-1.82V17.92h2.38v2.83c0,0.36-0.03,0.93-0.09,1.73h0.09
		C64.69,21.61,65.51,21.18,66.61,21.18z M65.84,23.08c-0.59,0-1.02,0.18-1.29,0.54s-0.41,0.96-0.42,1.79v0.26
		c0,0.94,0.14,1.61,0.42,2.02s0.72,0.61,1.32,0.61c0.49,0,0.88-0.23,1.17-0.68s0.43-1.11,0.43-1.96s-0.15-1.5-0.44-1.93
		S66.34,23.08,65.84,23.08z"/>
	<path class="st1" d="M75.55,28.33c0.42,0,0.92-0.09,1.5-0.27v1.77c-0.59,0.27-1.32,0.4-2.19,0.4c-0.95,0-1.65-0.24-2.08-0.72
		s-0.65-1.2-0.65-2.17v-4.21h-1.14v-1.01l1.31-0.8l0.69-1.84h1.52v1.86h2.45v1.79h-2.45v4.21c0,0.34,0.09,0.59,0.29,0.75
		S75.24,28.33,75.55,28.33z"/>
	<path class="st1" d="M87.77,30.23c-1.03,0-1.83-0.37-2.41-1.12h-0.12c0.08,0.73,0.12,1.15,0.12,1.27v3.54h-2.38V21.34h1.94
		l0.34,1.13h0.11c0.56-0.86,1.38-1.3,2.48-1.3c1.03,0,1.84,0.4,2.42,1.2s0.88,1.9,0.88,3.32c0,0.93-0.14,1.74-0.41,2.43
		s-0.66,1.21-1.17,1.57S88.45,30.23,87.77,30.23z M87.07,23.08c-0.59,0-1.02,0.18-1.29,0.54s-0.41,0.96-0.42,1.79v0.26
		c0,0.94,0.14,1.61,0.42,2.02s0.72,0.61,1.32,0.61c1.07,0,1.6-0.88,1.6-2.64c0-0.86-0.13-1.5-0.39-1.93S87.63,23.08,87.07,23.08z"/>
	<path class="st1" d="M97.97,21.18c0.32,0,0.59,0.02,0.8,0.07l-0.18,2.23c-0.19-0.05-0.43-0.08-0.7-0.08c-0.76,0-1.35,0.2-1.78,0.59
		s-0.64,0.94-0.64,1.64v4.45H93.1v-8.73h1.8l0.35,1.47h0.12c0.27-0.49,0.64-0.88,1.1-1.18S97.43,21.18,97.97,21.18z"/>
	<path class="st1" d="M108.3,25.69c0,1.42-0.38,2.53-1.12,3.34s-1.79,1.2-3.13,1.2c-0.84,0-1.58-0.18-2.22-0.55
		s-1.13-0.89-1.48-1.58s-0.52-1.49-0.52-2.41c0-1.43,0.37-2.54,1.12-3.33s1.79-1.19,3.14-1.19c0.84,0,1.58,0.18,2.22,0.55
		s1.13,0.89,1.48,1.57S108.3,24.78,108.3,25.69z M102.26,25.69c0,0.86,0.14,1.52,0.43,1.96s0.75,0.66,1.39,0.66
		c0.64,0,1.09-0.22,1.37-0.66s0.42-1.09,0.42-1.96c0-0.86-0.14-1.51-0.42-1.95s-0.74-0.65-1.38-0.65c-0.64,0-1.09,0.21-1.38,0.64
		S102.26,24.82,102.26,25.69z"/>
	<path class="st1" d="M112.35,30.08l-3.33-8.73h2.49l1.69,4.98c0.19,0.63,0.3,1.23,0.35,1.79h0.05c0.03-0.5,0.14-1.1,0.35-1.79
		l1.68-4.98h2.49l-3.33,8.73H112.35z"/>
	<path class="st1" d="M119.27,19.08c0-0.78,0.43-1.16,1.3-1.16s1.3,0.39,1.3,1.16c0,0.37-0.11,0.66-0.32,0.86s-0.54,0.31-0.97,0.31
		C119.7,20.26,119.27,19.87,119.27,19.08z M121.75,30.08h-2.38v-8.73h2.38V30.08z"/>
	<path class="st1" d="M127.02,30.23c-1.03,0-1.83-0.4-2.42-1.2s-0.88-1.9-0.88-3.31c0-1.43,0.3-2.55,0.89-3.35s1.42-1.2,2.46-1.2
		c1.1,0,1.94,0.43,2.52,1.28h0.08c-0.12-0.65-0.18-1.23-0.18-1.74v-2.8h2.39v12.16h-1.83l-0.46-1.13h-0.1
		C128.95,29.8,128.13,30.23,127.02,30.23z M127.86,28.33c0.61,0,1.06-0.18,1.34-0.53s0.44-0.96,0.46-1.8v-0.26
		c0-0.94-0.14-1.61-0.43-2.02s-0.76-0.61-1.41-0.61c-0.53,0-0.94,0.23-1.24,0.68s-0.44,1.11-0.44,1.96s0.15,1.5,0.45,1.93
		S127.3,28.33,127.86,28.33z"/>
	<path class="st1" d="M138.33,30.23c-1.41,0-2.5-0.39-3.3-1.16s-1.19-1.88-1.19-3.3c0-1.46,0.37-2.59,1.1-3.39s1.74-1.2,3.04-1.2
		c1.23,0,2.2,0.35,2.88,1.05s1.03,1.67,1.03,2.91v1.16h-5.63c0.03,0.68,0.23,1.21,0.6,1.59s0.9,0.57,1.58,0.57
		c0.53,0,1.02-0.05,1.49-0.16s0.96-0.28,1.47-0.52v1.84c-0.42,0.21-0.86,0.36-1.34,0.46S139.01,30.23,138.33,30.23z M138,22.87
		c-0.5,0-0.9,0.16-1.19,0.48s-0.45,0.77-0.49,1.36h3.34c-0.01-0.59-0.16-1.04-0.46-1.36S138.5,22.87,138,22.87z"/>
	<path class="st1" d="M148.71,21.18c0.32,0,0.59,0.02,0.8,0.07l-0.18,2.23c-0.19-0.05-0.43-0.08-0.7-0.08
		c-0.76,0-1.35,0.2-1.78,0.59s-0.64,0.94-0.64,1.64v4.45h-2.38v-8.73h1.8l0.35,1.47h0.12c0.27-0.49,0.64-0.88,1.1-1.18
		S148.17,21.18,148.71,21.18z"/>
	<path class="st1" d="M157.19,27.48c0,0.9-0.31,1.58-0.93,2.05s-1.55,0.7-2.79,0.7c-0.64,0-1.18-0.04-1.62-0.13
		s-0.87-0.21-1.26-0.38v-1.97c0.44,0.21,0.94,0.38,1.5,0.52s1.04,0.21,1.46,0.21c0.86,0,1.3-0.25,1.3-0.75
		c0-0.19-0.06-0.34-0.17-0.46s-0.31-0.25-0.59-0.4s-0.66-0.32-1.12-0.52c-0.67-0.28-1.17-0.54-1.48-0.78s-0.54-0.51-0.69-0.82
		s-0.21-0.69-0.21-1.14c0-0.78,0.3-1.38,0.9-1.8s1.45-0.64,2.56-0.64c1.05,0,2.08,0.23,3.07,0.69l-0.72,1.72
		c-0.44-0.19-0.85-0.34-1.23-0.46s-0.77-0.18-1.16-0.18c-0.7,0-1.05,0.19-1.05,0.57c0,0.21,0.11,0.4,0.34,0.55s0.72,0.39,1.49,0.7
		c0.68,0.28,1.18,0.53,1.5,0.77s0.55,0.52,0.7,0.83S157.19,27.05,157.19,27.48z"/>
</g>
</svg>
