<!-- Generator: Adobe Illustrator 24.2.3, SVG Export Plug-In  -->
<svg version="1.1" xmlns="http://www.w3.org/2000/svg" xmlns:xlink="http://www.w3.org/1999/xlink" x="0px" y="0px" width="112px"
	 height="112px" viewBox="0 0 112 112" style="overflow:visible;enable-background:new 0 0 112 112;" xml:space="preserve">
<style type="text/css">
	.st0{fill:#012560;}
	.st1{fill:none;stroke:url(#SVGID_1_);stroke-width:2.1;stroke-linecap:square;stroke-miterlimit:10;}
	.st2{fill:#6B94FF;}
	.st3{fill:none;stroke:#012560;stroke-width:1.7648;stroke-miterlimit:10;}
	.st4{fill:#2DE498;}
	.st5{fill:none;stroke:url(#SVGID_2_);stroke-width:2.1;stroke-linecap:square;stroke-miterlimit:10;}
	.st6{fill:#FFFFFF;}
	.st7{fill:#012560;stroke:url(#SVGID_3_);stroke-width:2.1;stroke-linecap:square;stroke-miterlimit:10;}
	.st8{fill:none;stroke:url(#SVGID_4_);stroke-width:2.1;stroke-linecap:square;stroke-miterlimit:10;}
	.st9{fill:none;stroke:url(#SVGID_5_);stroke-width:2.1;stroke-linecap:square;stroke-miterlimit:10;}
	.st10{fill:#012560;stroke:url(#SVGID_6_);stroke-width:2.1;stroke-linecap:square;stroke-miterlimit:10;}
</style>
<defs>
</defs>
<g>
	<circle class="st0" cx="56" cy="56" r="56"/>
	<g>
		<linearGradient id="SVGID_1_" gradientUnits="userSpaceOnUse" x1="31.9319" y1="67.9952" x2="31.9319" y2="20.8118">
			<stop  offset="0" style="stop-color:#FFFFFF"/>
			<stop  offset="1" style="stop-color:#6B94FF"/>
		</linearGradient>
		<path class="st1" d="M21.1,40c-0.6-1.3-0.8-2.5-0.8-3.3c0-2.3,1.9-6.3,4.9-10.8c2.8-4.2,6.8-4.1,6.8-4.1s4.1-0.1,6.8,4.1
			c2.9,4.5,4.9,8.5,4.9,10.8c0,0.8-0.2,2-0.8,3.3c0,0,6.2,0.4,8,4.9c1.8,4.4,3.6,13.3,3.8,15.8c0.1,2.4,0,5.9-7.8,6.2l-29.7,0
			c-7.8-0.3-8-3.8-7.8-6.2c0.1-2.5,2-11.4,3.8-15.8S21.1,40,21.1,40z"/>
		<path class="st2" d="M31.9,47.9c6.7-1.9,7.2-8.7,7.2-8.7l0-5.3c0-1.7-1.1-3.1-2.7-3.5c-2.1-0.5-4.5-0.5-4.5-0.5s-2.4,0-4.5,0.5
			c-1.6,0.4-2.7,1.9-2.7,3.5l0,5.3C24.7,39.2,25.2,46,31.9,47.9z"/>
		<line class="st3" x1="31.9" y1="47.9" x2="31.9" y2="45.5"/>
		<g id="ioS6LT_3_">
			<g>
				<path class="st0" d="M26.1,39.7c0,0,1.8,1.4,2.5,1.9c0,0,0.1,0,0.1,0c0.5,0,1,0,1.6,0c0,0,0.1,0,0.1,0c0.4-0.4,0.8-0.8,1.2-1.2
					c0,0,0.1,0,0.1,0c0.2,0,0.5,0,0.7,0c0,0,0.1,0,0.1,0c0.4,0.4,0.8,0.8,1.2,1.2c0,0,0.1,0,0.1,0c0.5,0,1,0,1.6,0c0,0,0.1,0,0.1,0
					c0.7-0.6,2.3-1.8,2.5-1.9c0,0-1.4,2.1-2,3.1c0,0.1-0.1,0.1-0.1,0.1c-0.9,0-1.9,0-2.8,0c-0.1,0-0.1,0-0.1-0.1
					c-0.3-0.3-0.5-0.5-0.8-0.8c-0.1,0.1-0.2,0.2-0.3,0.3c-0.2,0.2-0.4,0.4-0.5,0.5c0,0-0.1,0-0.1,0c-0.9,0-1.9,0-2.8,0
					c0,0-0.1,0-0.1,0C27.4,41.8,26.1,39.7,26.1,39.7z"/>
				<path class="st0" d="M26,34.7c0.1-0.1,0.1-0.2,0.2-0.3c0.3-0.4,0.7-0.7,1.1-0.9c0.5-0.2,1-0.3,1.5-0.2c0.6,0.1,1.1,0.4,1.5,0.8
					c0.2,0.2,0.3,0.4,0.5,0.6c0,0.1,0.1,0.1,0.1,0.2c0.2,0.3,0.1,0.6-0.1,0.9c-0.3,0.2-0.6,0.2-0.9-0.1c-0.1-0.1-0.1-0.2-0.2-0.3
					c-0.2-0.3-0.3-0.6-0.6-0.8c-0.2-0.3-0.5-0.4-0.9-0.5c-0.3,0-0.5,0-0.8,0C27,34.2,26.6,34.4,26,34.7C26.1,34.7,26.1,34.7,26,34.7
					C26,34.7,26,34.7,26,34.7z"/>
				<path class="st0" d="M37.8,34.7c-0.2-0.1-0.4-0.2-0.6-0.3c-0.4-0.2-0.8-0.3-1.2-0.4c-0.5-0.1-1,0.1-1.4,0.5
					c-0.3,0.3-0.4,0.6-0.6,0.9c-0.1,0.2-0.2,0.3-0.4,0.4c-0.3,0.1-0.5-0.1-0.7-0.3c-0.1-0.2-0.1-0.5,0-0.7c0.1-0.2,0.3-0.4,0.4-0.6
					c0.3-0.4,0.6-0.7,1.1-0.9c0.7-0.3,1.5-0.3,2.2,0.1c0.5,0.3,0.8,0.6,1.1,1.1C37.8,34.6,37.8,34.7,37.8,34.7
					C37.8,34.7,37.8,34.7,37.8,34.7z"/>
				<path class="st0" d="M26.5,36.5c0.9-0.9,2.6-0.8,3.4,0C29,37.3,27.3,37.4,26.5,36.5z"/>
				<path class="st0" d="M34,36.5c0.8-0.8,2.5-0.8,3.4,0C36.6,37.3,34.9,37.4,34,36.5z"/>
			</g>
		</g>
		<path class="st4" d="M45.9,74.2H18c-0.5,0-0.9-0.4-0.9-0.9V54c0-0.5,0.4-0.9,0.9-0.9h28c0.5,0,0.9,0.4,0.9,0.9v19.3
			C46.8,73.8,46.4,74.2,45.9,74.2z"/>
		<circle class="st0" cx="31.9" cy="63.7" r="2.3"/>
	</g>
	<g>
		<linearGradient id="SVGID_2_" gradientUnits="userSpaceOnUse" x1="80.1432" y1="67.9952" x2="80.1432" y2="20.8118">
			<stop  offset="0" style="stop-color:#FFFFFF"/>
			<stop  offset="1" style="stop-color:#6B94FF"/>
		</linearGradient>
		<path class="st5" d="M69.3,40c-0.6-1.3-0.8-2.5-0.8-3.3c0-2.3,1.9-6.3,4.9-10.8c2.8-4.2,6.8-4.1,6.8-4.1s4.1-0.1,6.8,4.1
			c2.9,4.5,4.9,8.5,4.9,10.8c0,0.8-0.2,2-0.8,3.3c0,0,6.2,0.4,8,4.9c1.8,4.4,3.6,13.3,3.8,15.8c0.1,2.4,0,5.9-7.8,6.2l-29.7,0
			c-7.8-0.3-8-3.8-7.8-6.2c0.1-2.5,2-11.4,3.8-15.8C63.1,40.5,69.3,40,69.3,40z"/>
		<path class="st2" d="M80.1,47.9c6.7-1.9,7.2-8.7,7.2-8.7l0-5.3c0-1.7-1.1-3.1-2.7-3.5c-2.1-0.5-4.5-0.5-4.5-0.5s-2.4,0-4.5,0.5
			c-1.6,0.4-2.7,1.9-2.7,3.5l0,5.3C72.9,39.2,73.4,46,80.1,47.9z"/>
		<line class="st3" x1="80.1" y1="47.9" x2="80.1" y2="45.5"/>
		<g id="ioS6LT_2_">
			<g>
				<path class="st0" d="M74.3,39.7c0,0,1.8,1.4,2.5,1.9c0,0,0.1,0,0.1,0c0.5,0,1,0,1.6,0c0,0,0.1,0,0.1,0c0.4-0.4,0.8-0.8,1.2-1.2
					c0,0,0.1,0,0.1,0c0.2,0,0.5,0,0.7,0c0,0,0.1,0,0.1,0c0.4,0.4,0.8,0.8,1.2,1.2c0,0,0.1,0,0.1,0c0.5,0,1,0,1.6,0c0,0,0.1,0,0.1,0
					c0.7-0.6,2.3-1.8,2.5-1.9c0,0-1.4,2.1-2,3.1c0,0.1-0.1,0.1-0.1,0.1c-0.9,0-1.9,0-2.8,0c-0.1,0-0.1,0-0.1-0.1
					c-0.3-0.3-0.5-0.5-0.8-0.8c-0.1,0.1-0.2,0.2-0.3,0.3c-0.2,0.2-0.4,0.4-0.5,0.5c0,0-0.1,0-0.1,0c-0.9,0-1.9,0-2.8,0
					c0,0-0.1,0-0.1,0C75.7,41.8,74.3,39.7,74.3,39.7z"/>
				<path class="st0" d="M74.3,34.7c0.1-0.1,0.1-0.2,0.2-0.3c0.3-0.4,0.7-0.7,1.1-0.9c0.5-0.2,1-0.3,1.5-0.2
					c0.6,0.1,1.1,0.4,1.5,0.8c0.2,0.2,0.3,0.4,0.5,0.6c0,0.1,0.1,0.1,0.1,0.2c0.2,0.3,0.1,0.6-0.1,0.9c-0.3,0.2-0.6,0.2-0.9-0.1
					c-0.1-0.1-0.1-0.2-0.2-0.3c-0.2-0.3-0.3-0.6-0.6-0.8c-0.2-0.3-0.5-0.4-0.9-0.5c-0.3,0-0.5,0-0.8,0
					C75.2,34.2,74.8,34.4,74.3,34.7C74.3,34.7,74.3,34.7,74.3,34.7C74.3,34.7,74.3,34.7,74.3,34.7z"/>
				<path class="st0" d="M86,34.7c-0.2-0.1-0.4-0.2-0.6-0.3c-0.4-0.2-0.8-0.3-1.2-0.4c-0.5-0.1-1,0.1-1.4,0.5
					c-0.3,0.3-0.4,0.6-0.6,0.9c-0.1,0.2-0.2,0.3-0.4,0.4c-0.3,0.1-0.5-0.1-0.7-0.3c-0.1-0.2-0.1-0.5,0-0.7c0.1-0.2,0.3-0.4,0.4-0.6
					c0.3-0.4,0.6-0.7,1.1-0.9c0.7-0.3,1.5-0.3,2.2,0.1c0.5,0.3,0.8,0.6,1.1,1.1C86,34.6,86,34.7,86,34.7C86,34.7,86,34.7,86,34.7z"
					/>
				<path class="st0" d="M74.7,36.5c0.9-0.9,2.6-0.8,3.4,0C77.2,37.3,75.5,37.4,74.7,36.5z"/>
				<path class="st0" d="M82.3,36.5c0.8-0.8,2.5-0.8,3.4,0C84.8,37.3,83.1,37.4,82.3,36.5z"/>
			</g>
		</g>
		<path class="st4" d="M94.1,74.2h-28c-0.5,0-0.9-0.4-0.9-0.9V54c0-0.5,0.4-0.9,0.9-0.9h28c0.5,0,0.9,0.4,0.9,0.9v19.3
			C95,73.8,94.6,74.2,94.1,74.2z"/>
		<circle class="st0" cx="80.1" cy="63.7" r="2.3"/>
	</g>
	<g>
		<polygon class="st6" points="37.3,90.8 32.8,82.6 79,82.6 74.7,90.8 		"/>
		<linearGradient id="SVGID_3_" gradientUnits="userSpaceOnUse" x1="56.0028" y1="83.1483" x2="56.0028" y2="23.6531">
			<stop  offset="0" style="stop-color:#FFFFFF"/>
			<stop  offset="1" style="stop-color:#6B94FF"/>
		</linearGradient>
		<path class="st7" d="M42.2,47.8c-0.7-1.7-1-3.2-1-4.2c0-2.9,2.5-8,6.2-13.7c3.5-5.4,8.7-5.2,8.7-5.2s5.2-0.2,8.7,5.2
			c3.7,5.7,6.2,10.8,6.2,13.7c0,1-0.3,2.6-1,4.2c0,0,7.9,0.5,10.2,6.2c2.3,5.7,4.6,16.9,4.8,20.1c0.2,3.1,0,7.6-10,7.9l-37.9,0
			c-10-0.4-10.1-4.8-10-7.9c0.2-3.2,2.5-14.5,4.8-20.1S42.2,47.8,42.2,47.8z"/>
		<path class="st2" d="M56,57.8c8.5-2.4,9.2-11.1,9.2-11.1l0-6.8c0-2.1-1.4-4-3.5-4.5C59,34.8,56,34.9,56,34.9s-3,0-5.7,0.6
			c-2.1,0.5-3.5,2.4-3.5,4.5l0,6.8C46.8,46.8,47.5,55.4,56,57.8z"/>
		<line class="st3" x1="56" y1="57.8" x2="56" y2="54.8"/>
		<g id="ioS6LT_1_">
			<g>
				<path class="st0" d="M48.5,47.4c0,0,2.4,1.8,3.1,2.4c0,0,0.1,0,0.1,0c0.7,0,1.3,0,2,0c0,0,0.1,0,0.1-0.1c0.5-0.5,1-1,1.5-1.5
					c0,0,0.1-0.1,0.2-0.1c0.3,0,0.6,0,0.9,0c0,0,0.1,0,0.1,0.1c0.5,0.5,1,1,1.5,1.5c0,0,0.1,0.1,0.1,0.1c0.7,0,1.3,0,2,0
					c0,0,0.1,0,0.1,0c0.9-0.7,3-2.3,3.1-2.4c0,0-1.8,2.7-2.6,4c0,0.1-0.1,0.1-0.2,0.1c-1.2,0-2.4,0-3.6,0c-0.1,0-0.1,0-0.2-0.1
					c-0.3-0.3-0.7-0.7-1-1c-0.1,0.1-0.2,0.2-0.3,0.3c-0.2,0.2-0.5,0.5-0.7,0.7c0,0-0.1,0-0.1,0c-1.2,0-2.4,0-3.6,0c0,0-0.1,0-0.1,0
					C50.3,50.1,48.5,47.4,48.5,47.4z"/>
				<path class="st0" d="M48.5,41.1c0.1-0.1,0.2-0.2,0.3-0.3c0.4-0.5,0.8-0.9,1.4-1.2c0.6-0.3,1.2-0.4,1.9-0.3
					c0.8,0.1,1.4,0.5,1.9,1c0.2,0.3,0.4,0.5,0.6,0.8c0.1,0.1,0.1,0.2,0.2,0.2c0.2,0.3,0.2,0.8-0.1,1.1c-0.3,0.3-0.8,0.2-1.1-0.1
					c-0.1-0.1-0.2-0.3-0.2-0.4c-0.2-0.4-0.4-0.7-0.7-1c-0.3-0.3-0.7-0.6-1.1-0.6c-0.3-0.1-0.7,0-1,0C49.8,40.4,49.2,40.7,48.5,41.1
					C48.6,41,48.5,41.1,48.5,41.1C48.5,41.1,48.5,41.1,48.5,41.1z"/>
				<path class="st0" d="M63.5,41.1c-0.2-0.1-0.5-0.3-0.7-0.4c-0.5-0.2-1-0.4-1.6-0.5c-0.7-0.1-1.3,0.2-1.7,0.7
					c-0.3,0.4-0.6,0.8-0.8,1.2c-0.1,0.2-0.3,0.4-0.6,0.4c-0.3,0.1-0.7-0.1-0.8-0.3c-0.2-0.3-0.2-0.6,0-0.9c0.2-0.2,0.3-0.5,0.5-0.7
					c0.4-0.5,0.8-0.9,1.4-1.1c0.9-0.4,1.9-0.4,2.8,0.1c0.6,0.3,1.1,0.8,1.5,1.4C63.4,41,63.5,41,63.5,41.1
					C63.5,41.1,63.5,41.1,63.5,41.1z"/>
				<path class="st0" d="M49,43.4c1.1-1.1,3.3-1,4.3,0C52.3,44.4,50.2,44.4,49,43.4z"/>
				<path class="st0" d="M58.7,43.4c1.1-1.1,3.2-1.1,4.3,0C62,44.4,59.8,44.5,58.7,43.4z"/>
			</g>
		</g>
		<path class="st4" d="M73.8,91.3H38.2c-0.6,0-1.1-0.5-1.1-1.1V65.6c0-0.6,0.5-1.1,1.1-1.1h35.6c0.6,0,1.1,0.5,1.1,1.1v24.6
			C74.9,90.8,74.4,91.3,73.8,91.3z"/>
		<circle class="st0" cx="56" cy="77.9" r="2.9"/>
	</g>
</g>
</svg>
