<!-- Generator: Adobe Illustrator 24.1.2, SVG Export Plug-In  -->
<svg version="1.1" xmlns="http://www.w3.org/2000/svg" xmlns:xlink="http://www.w3.org/1999/xlink" x="0px" y="0px"
	 width="1440.2px" height="920.2px" viewBox="0 0 1440.2 920.2" style="overflow:visible;enable-background:new 0 0 1440.2 920.2;"
	 xml:space="preserve">
<style type="text/css">
	.st0{opacity:0.3;}
	.st1{fill:#CCCCCC;}
	.st2{fill:none;stroke:#009FE3;stroke-width:0.25;stroke-miterlimit:10;}
</style>
<defs>
</defs>
<g>
	<g class="st0">
		<rect x="112.1" y="0" class="st1" width="72" height="903.7"/>
	</g>
	<g class="st0">
		<rect x="216.1" y="0" class="st1" width="72" height="903.7"/>
	</g>
	<g class="st0">
		<rect x="320.1" y="0" class="st1" width="72" height="903.7"/>
	</g>
	<g class="st0">
		<rect x="424.1" y="0" class="st1" width="72" height="903.7"/>
	</g>
	<g class="st0">
		<rect x="528.1" y="0" class="st1" width="72" height="903.7"/>
	</g>
	<g class="st0">
		<rect x="632.1" y="0" class="st1" width="72" height="903.7"/>
	</g>
	<g class="st0">
		<rect x="736.1" y="0" class="st1" width="72" height="903.7"/>
	</g>
	<g class="st0">
		<rect x="840.1" y="0" class="st1" width="72" height="903.7"/>
	</g>
	<g class="st0">
		<rect x="944.1" y="0" class="st1" width="72" height="903.7"/>
	</g>
	<g class="st0">
		<rect x="1048.1" y="0" class="st1" width="72" height="903.7"/>
	</g>
	<g class="st0">
		<rect x="1152.1" y="0" class="st1" width="72" height="903.7"/>
	</g>
	<g class="st0">
		<rect x="1256.1" y="0" class="st1" width="72" height="903.7"/>
	</g>
</g>
<g>
	<g>
		<line class="st2" x1="1440.1" y1="0" x2="1440.1" y2="920.2"/>
	</g>
	<g>
		<line class="st2" x1="1432.1" y1="0" x2="1432.1" y2="920.2"/>
	</g>
	<g>
		<line class="st2" x1="1424.1" y1="0" x2="1424.1" y2="920.2"/>
	</g>
	<g>
		<line class="st2" x1="1416.1" y1="0" x2="1416.1" y2="920.2"/>
	</g>
	<g>
		<line class="st2" x1="1408.1" y1="0" x2="1408.1" y2="920.2"/>
	</g>
	<g>
		<line class="st2" x1="1400.1" y1="0" x2="1400.1" y2="920.2"/>
	</g>
	<g>
		<line class="st2" x1="1392.1" y1="0" x2="1392.1" y2="920.2"/>
	</g>
	<g>
		<line class="st2" x1="1384.1" y1="0" x2="1384.1" y2="920.2"/>
	</g>
	<g>
		<line class="st2" x1="1376.1" y1="0" x2="1376.1" y2="920.2"/>
	</g>
	<g>
		<line class="st2" x1="1368.1" y1="0" x2="1368.1" y2="920.2"/>
	</g>
	<g>
		<line class="st2" x1="1360.1" y1="0" x2="1360.1" y2="920.2"/>
	</g>
	<g>
		<line class="st2" x1="1352.1" y1="0" x2="1352.1" y2="920.2"/>
	</g>
	<g>
		<line class="st2" x1="1344.1" y1="0" x2="1344.1" y2="920.2"/>
	</g>
	<g>
		<line class="st2" x1="1336.1" y1="0" x2="1336.1" y2="920.2"/>
	</g>
	<g>
		<line class="st2" x1="1328.1" y1="0" x2="1328.1" y2="920.2"/>
	</g>
	<g>
		<line class="st2" x1="1320.1" y1="0" x2="1320.1" y2="920.2"/>
	</g>
	<g>
		<line class="st2" x1="1312.1" y1="0" x2="1312.1" y2="920.2"/>
	</g>
	<g>
		<line class="st2" x1="1304.1" y1="0" x2="1304.1" y2="920.2"/>
	</g>
	<g>
		<line class="st2" x1="1296.1" y1="0" x2="1296.1" y2="920.2"/>
	</g>
	<g>
		<line class="st2" x1="1288.1" y1="0" x2="1288.1" y2="920.2"/>
	</g>
	<g>
		<line class="st2" x1="1280.1" y1="0" x2="1280.1" y2="920.2"/>
	</g>
	<g>
		<line class="st2" x1="1272.1" y1="0" x2="1272.1" y2="920.2"/>
	</g>
	<g>
		<line class="st2" x1="1264.1" y1="0" x2="1264.1" y2="920.2"/>
	</g>
	<g>
		<line class="st2" x1="1256.1" y1="0" x2="1256.1" y2="920.2"/>
	</g>
	<g>
		<line class="st2" x1="1248.1" y1="0" x2="1248.1" y2="920.2"/>
	</g>
	<g>
		<line class="st2" x1="1240.1" y1="0" x2="1240.1" y2="920.2"/>
	</g>
	<g>
		<line class="st2" x1="1232.1" y1="0" x2="1232.1" y2="920.2"/>
	</g>
	<g>
		<line class="st2" x1="1224.1" y1="0" x2="1224.1" y2="920.2"/>
	</g>
	<g>
		<line class="st2" x1="1216.1" y1="0" x2="1216.1" y2="920.2"/>
	</g>
	<g>
		<line class="st2" x1="1208.1" y1="0" x2="1208.1" y2="920.2"/>
	</g>
	<g>
		<line class="st2" x1="1200.1" y1="0" x2="1200.1" y2="920.2"/>
	</g>
	<g>
		<line class="st2" x1="1192.1" y1="0" x2="1192.1" y2="920.2"/>
	</g>
	<g>
		<line class="st2" x1="1184.1" y1="0" x2="1184.1" y2="920.2"/>
	</g>
	<g>
		<line class="st2" x1="1176.1" y1="0" x2="1176.1" y2="920.2"/>
	</g>
	<g>
		<line class="st2" x1="1168.1" y1="0" x2="1168.1" y2="920.2"/>
	</g>
	<g>
		<line class="st2" x1="1160.1" y1="0" x2="1160.1" y2="920.2"/>
	</g>
	<g>
		<line class="st2" x1="1152.1" y1="0" x2="1152.1" y2="920.2"/>
	</g>
	<g>
		<line class="st2" x1="1144.1" y1="0" x2="1144.1" y2="920.2"/>
	</g>
	<g>
		<line class="st2" x1="1136.1" y1="0" x2="1136.1" y2="920.2"/>
	</g>
	<g>
		<line class="st2" x1="1128.1" y1="0" x2="1128.1" y2="920.2"/>
	</g>
	<g>
		<line class="st2" x1="1120.1" y1="0" x2="1120.1" y2="920.2"/>
	</g>
	<g>
		<line class="st2" x1="1112.1" y1="0" x2="1112.1" y2="920.2"/>
	</g>
	<g>
		<line class="st2" x1="1104.1" y1="0" x2="1104.1" y2="920.2"/>
	</g>
	<g>
		<line class="st2" x1="1096.1" y1="0" x2="1096.1" y2="920.2"/>
	</g>
	<g>
		<line class="st2" x1="1088.1" y1="0" x2="1088.1" y2="920.2"/>
	</g>
	<g>
		<line class="st2" x1="1080.1" y1="0" x2="1080.1" y2="920.2"/>
	</g>
	<g>
		<line class="st2" x1="1072.1" y1="0" x2="1072.1" y2="920.2"/>
	</g>
	<g>
		<line class="st2" x1="1064.1" y1="0" x2="1064.1" y2="920.2"/>
	</g>
	<g>
		<line class="st2" x1="1056.1" y1="0" x2="1056.1" y2="920.2"/>
	</g>
	<g>
		<line class="st2" x1="1048.1" y1="0" x2="1048.1" y2="920.2"/>
	</g>
	<g>
		<line class="st2" x1="1040.1" y1="0" x2="1040.1" y2="920.2"/>
	</g>
	<g>
		<line class="st2" x1="1032.1" y1="0" x2="1032.1" y2="920.2"/>
	</g>
	<g>
		<line class="st2" x1="1024.1" y1="0" x2="1024.1" y2="920.2"/>
	</g>
	<g>
		<line class="st2" x1="1016.1" y1="0" x2="1016.1" y2="920.2"/>
	</g>
	<g>
		<line class="st2" x1="1008.1" y1="0" x2="1008.1" y2="920.2"/>
	</g>
	<g>
		<line class="st2" x1="1000.1" y1="0" x2="1000.1" y2="920.2"/>
	</g>
	<g>
		<line class="st2" x1="992.1" y1="0" x2="992.1" y2="920.2"/>
	</g>
	<g>
		<line class="st2" x1="984.1" y1="0" x2="984.1" y2="920.2"/>
	</g>
	<g>
		<line class="st2" x1="976.1" y1="0" x2="976.1" y2="920.2"/>
	</g>
	<g>
		<line class="st2" x1="968.1" y1="0" x2="968.1" y2="920.2"/>
	</g>
	<g>
		<line class="st2" x1="960.1" y1="0" x2="960.1" y2="920.2"/>
	</g>
	<g>
		<line class="st2" x1="952.1" y1="0" x2="952.1" y2="920.2"/>
	</g>
	<g>
		<line class="st2" x1="944.1" y1="0" x2="944.1" y2="920.2"/>
	</g>
	<g>
		<line class="st2" x1="936.1" y1="0" x2="936.1" y2="920.2"/>
	</g>
	<g>
		<line class="st2" x1="928.1" y1="0" x2="928.1" y2="920.2"/>
	</g>
	<g>
		<line class="st2" x1="920.1" y1="0" x2="920.1" y2="920.2"/>
	</g>
	<g>
		<line class="st2" x1="912.1" y1="0" x2="912.1" y2="920.2"/>
	</g>
	<g>
		<line class="st2" x1="904.1" y1="0" x2="904.1" y2="920.2"/>
	</g>
	<g>
		<line class="st2" x1="896.1" y1="0" x2="896.1" y2="920.2"/>
	</g>
	<g>
		<line class="st2" x1="888.1" y1="0" x2="888.1" y2="920.2"/>
	</g>
	<g>
		<line class="st2" x1="880.1" y1="0" x2="880.1" y2="920.2"/>
	</g>
	<g>
		<line class="st2" x1="872.1" y1="0" x2="872.1" y2="920.2"/>
	</g>
	<g>
		<line class="st2" x1="864.1" y1="0" x2="864.1" y2="920.2"/>
	</g>
	<g>
		<line class="st2" x1="856.1" y1="0" x2="856.1" y2="920.2"/>
	</g>
	<g>
		<line class="st2" x1="848.1" y1="0" x2="848.1" y2="920.2"/>
	</g>
	<g>
		<line class="st2" x1="840.1" y1="0" x2="840.1" y2="920.2"/>
	</g>
	<g>
		<line class="st2" x1="832.1" y1="0" x2="832.1" y2="920.2"/>
	</g>
	<g>
		<line class="st2" x1="824.1" y1="0" x2="824.1" y2="920.2"/>
	</g>
	<g>
		<line class="st2" x1="816.1" y1="0" x2="816.1" y2="920.2"/>
	</g>
	<g>
		<line class="st2" x1="808.1" y1="0" x2="808.1" y2="920.2"/>
	</g>
	<g>
		<line class="st2" x1="800.1" y1="0" x2="800.1" y2="920.2"/>
	</g>
	<g>
		<line class="st2" x1="792.1" y1="0" x2="792.1" y2="920.2"/>
	</g>
	<g>
		<line class="st2" x1="784.1" y1="0" x2="784.1" y2="920.2"/>
	</g>
	<g>
		<line class="st2" x1="776.1" y1="0" x2="776.1" y2="920.2"/>
	</g>
	<g>
		<line class="st2" x1="768.1" y1="0" x2="768.1" y2="920.2"/>
	</g>
	<g>
		<line class="st2" x1="760.1" y1="0" x2="760.1" y2="920.2"/>
	</g>
	<g>
		<line class="st2" x1="752.1" y1="0" x2="752.1" y2="920.2"/>
	</g>
	<g>
		<line class="st2" x1="744.1" y1="0" x2="744.1" y2="920.2"/>
	</g>
	<g>
		<line class="st2" x1="736.1" y1="0" x2="736.1" y2="920.2"/>
	</g>
	<g>
		<line class="st2" x1="728.1" y1="0" x2="728.1" y2="920.2"/>
	</g>
	<g>
		<line class="st2" x1="720.1" y1="0" x2="720.1" y2="920.2"/>
	</g>
	<g>
		<line class="st2" x1="712.1" y1="0" x2="712.1" y2="920.2"/>
	</g>
	<g>
		<line class="st2" x1="704.1" y1="0" x2="704.1" y2="920.2"/>
	</g>
	<g>
		<line class="st2" x1="696.1" y1="0" x2="696.1" y2="920.2"/>
	</g>
	<g>
		<line class="st2" x1="688.1" y1="0" x2="688.1" y2="920.2"/>
	</g>
	<g>
		<line class="st2" x1="680.1" y1="0" x2="680.1" y2="920.2"/>
	</g>
	<g>
		<line class="st2" x1="672.1" y1="0" x2="672.1" y2="920.2"/>
	</g>
	<g>
		<line class="st2" x1="664.1" y1="0" x2="664.1" y2="920.2"/>
	</g>
	<g>
		<line class="st2" x1="656.1" y1="0" x2="656.1" y2="920.2"/>
	</g>
	<g>
		<line class="st2" x1="648.1" y1="0" x2="648.1" y2="920.2"/>
	</g>
	<g>
		<line class="st2" x1="640.1" y1="0" x2="640.1" y2="920.2"/>
	</g>
	<g>
		<line class="st2" x1="632.1" y1="0" x2="632.1" y2="920.2"/>
	</g>
	<g>
		<line class="st2" x1="624.1" y1="0" x2="624.1" y2="920.2"/>
	</g>
	<g>
		<line class="st2" x1="616.1" y1="0" x2="616.1" y2="920.2"/>
	</g>
	<g>
		<line class="st2" x1="608.1" y1="0" x2="608.1" y2="920.2"/>
	</g>
	<g>
		<line class="st2" x1="600.1" y1="0" x2="600.1" y2="920.2"/>
	</g>
	<g>
		<line class="st2" x1="592.1" y1="0" x2="592.1" y2="920.2"/>
	</g>
	<g>
		<line class="st2" x1="584.1" y1="0" x2="584.1" y2="920.2"/>
	</g>
	<g>
		<line class="st2" x1="576.1" y1="0" x2="576.1" y2="920.2"/>
	</g>
	<g>
		<line class="st2" x1="568.1" y1="0" x2="568.1" y2="920.2"/>
	</g>
	<g>
		<line class="st2" x1="560.1" y1="0" x2="560.1" y2="920.2"/>
	</g>
	<g>
		<line class="st2" x1="552.1" y1="0" x2="552.1" y2="920.2"/>
	</g>
	<g>
		<line class="st2" x1="544.1" y1="0" x2="544.1" y2="920.2"/>
	</g>
	<g>
		<line class="st2" x1="536.1" y1="0" x2="536.1" y2="920.2"/>
	</g>
	<g>
		<line class="st2" x1="528.1" y1="0" x2="528.1" y2="920.2"/>
	</g>
	<g>
		<line class="st2" x1="520.1" y1="0" x2="520.1" y2="920.2"/>
	</g>
	<g>
		<line class="st2" x1="512.1" y1="0" x2="512.1" y2="920.2"/>
	</g>
	<g>
		<line class="st2" x1="504.1" y1="0" x2="504.1" y2="920.2"/>
	</g>
	<g>
		<line class="st2" x1="496.1" y1="0" x2="496.1" y2="920.2"/>
	</g>
	<g>
		<line class="st2" x1="488.1" y1="0" x2="488.1" y2="920.2"/>
	</g>
	<g>
		<line class="st2" x1="480.1" y1="0" x2="480.1" y2="920.2"/>
	</g>
	<g>
		<line class="st2" x1="472.1" y1="0" x2="472.1" y2="920.2"/>
	</g>
	<g>
		<line class="st2" x1="464.1" y1="0" x2="464.1" y2="920.2"/>
	</g>
	<g>
		<line class="st2" x1="456.1" y1="0" x2="456.1" y2="920.2"/>
	</g>
	<g>
		<line class="st2" x1="448.1" y1="0" x2="448.1" y2="920.2"/>
	</g>
	<g>
		<line class="st2" x1="440.1" y1="0" x2="440.1" y2="920.2"/>
	</g>
	<g>
		<line class="st2" x1="432.1" y1="0" x2="432.1" y2="920.2"/>
	</g>
	<g>
		<line class="st2" x1="424.1" y1="0" x2="424.1" y2="920.2"/>
	</g>
	<g>
		<line class="st2" x1="416.1" y1="0" x2="416.1" y2="920.2"/>
	</g>
	<g>
		<line class="st2" x1="408.1" y1="0" x2="408.1" y2="920.2"/>
	</g>
	<g>
		<line class="st2" x1="400.1" y1="0" x2="400.1" y2="920.2"/>
	</g>
	<g>
		<line class="st2" x1="392.1" y1="0" x2="392.1" y2="920.2"/>
	</g>
	<g>
		<line class="st2" x1="384.1" y1="0" x2="384.1" y2="920.2"/>
	</g>
	<g>
		<line class="st2" x1="376.1" y1="0" x2="376.1" y2="920.2"/>
	</g>
	<g>
		<line class="st2" x1="368.1" y1="0" x2="368.1" y2="920.2"/>
	</g>
	<g>
		<line class="st2" x1="360.1" y1="0" x2="360.1" y2="920.2"/>
	</g>
	<g>
		<line class="st2" x1="352.1" y1="0" x2="352.1" y2="920.2"/>
	</g>
	<g>
		<line class="st2" x1="344.1" y1="0" x2="344.1" y2="920.2"/>
	</g>
	<g>
		<line class="st2" x1="336.1" y1="0" x2="336.1" y2="920.2"/>
	</g>
	<g>
		<line class="st2" x1="328.1" y1="0" x2="328.1" y2="920.2"/>
	</g>
	<g>
		<line class="st2" x1="320.1" y1="0" x2="320.1" y2="920.2"/>
	</g>
	<g>
		<line class="st2" x1="312.1" y1="0" x2="312.1" y2="920.2"/>
	</g>
	<g>
		<line class="st2" x1="304.1" y1="0" x2="304.1" y2="920.2"/>
	</g>
	<g>
		<line class="st2" x1="296.1" y1="0" x2="296.1" y2="920.2"/>
	</g>
	<g>
		<line class="st2" x1="288.1" y1="0" x2="288.1" y2="920.2"/>
	</g>
	<g>
		<line class="st2" x1="280.1" y1="0" x2="280.1" y2="920.2"/>
	</g>
	<g>
		<line class="st2" x1="272.1" y1="0" x2="272.1" y2="920.2"/>
	</g>
	<g>
		<line class="st2" x1="264.1" y1="0" x2="264.1" y2="920.2"/>
	</g>
	<g>
		<line class="st2" x1="256.1" y1="0" x2="256.1" y2="920.2"/>
	</g>
	<g>
		<line class="st2" x1="248.1" y1="0" x2="248.1" y2="920.2"/>
	</g>
	<g>
		<line class="st2" x1="240.1" y1="0" x2="240.1" y2="920.2"/>
	</g>
	<g>
		<line class="st2" x1="232.1" y1="0" x2="232.1" y2="920.2"/>
	</g>
	<g>
		<line class="st2" x1="224.1" y1="0" x2="224.1" y2="920.2"/>
	</g>
	<g>
		<line class="st2" x1="216.1" y1="0" x2="216.1" y2="920.2"/>
	</g>
	<g>
		<line class="st2" x1="208.1" y1="0" x2="208.1" y2="920.2"/>
	</g>
	<g>
		<line class="st2" x1="200.1" y1="0" x2="200.1" y2="920.2"/>
	</g>
	<g>
		<line class="st2" x1="192.1" y1="0" x2="192.1" y2="920.2"/>
	</g>
	<g>
		<line class="st2" x1="184.1" y1="0" x2="184.1" y2="920.2"/>
	</g>
	<g>
		<line class="st2" x1="176.1" y1="0" x2="176.1" y2="920.2"/>
	</g>
	<g>
		<line class="st2" x1="168.1" y1="0" x2="168.1" y2="920.2"/>
	</g>
	<g>
		<line class="st2" x1="160.1" y1="0" x2="160.1" y2="920.2"/>
	</g>
	<g>
		<line class="st2" x1="152.1" y1="0" x2="152.1" y2="920.2"/>
	</g>
	<g>
		<line class="st2" x1="144.1" y1="0" x2="144.1" y2="920.2"/>
	</g>
	<g>
		<line class="st2" x1="136.1" y1="0" x2="136.1" y2="920.2"/>
	</g>
	<g>
		<line class="st2" x1="128.1" y1="0" x2="128.1" y2="920.2"/>
	</g>
	<g>
		<line class="st2" x1="120.1" y1="0" x2="120.1" y2="920.2"/>
	</g>
	<g>
		<line class="st2" x1="112.1" y1="0" x2="112.1" y2="920.2"/>
	</g>
	<g>
		<line class="st2" x1="104.1" y1="0" x2="104.1" y2="920.2"/>
	</g>
	<g>
		<line class="st2" x1="96.1" y1="0" x2="96.1" y2="920.2"/>
	</g>
	<g>
		<line class="st2" x1="88.1" y1="0" x2="88.1" y2="920.2"/>
	</g>
	<g>
		<line class="st2" x1="80.1" y1="0" x2="80.1" y2="920.2"/>
	</g>
	<g>
		<line class="st2" x1="72.1" y1="0" x2="72.1" y2="920.2"/>
	</g>
	<g>
		<line class="st2" x1="64.1" y1="0" x2="64.1" y2="920.2"/>
	</g>
	<g>
		<line class="st2" x1="56.1" y1="0" x2="56.1" y2="920.2"/>
	</g>
	<g>
		<line class="st2" x1="48.1" y1="0" x2="48.1" y2="920.2"/>
	</g>
	<g>
		<line class="st2" x1="40.1" y1="0" x2="40.1" y2="920.2"/>
	</g>
	<g>
		<line class="st2" x1="32.1" y1="0" x2="32.1" y2="920.2"/>
	</g>
	<g>
		<line class="st2" x1="24.1" y1="0" x2="24.1" y2="920.2"/>
	</g>
	<g>
		<line class="st2" x1="16.1" y1="0" x2="16.1" y2="920.2"/>
	</g>
	<g>
		<line class="st2" x1="8.1" y1="0" x2="8.1" y2="920.2"/>
	</g>
	<g>
		<line class="st2" x1="0.1" y1="0" x2="0.1" y2="920.2"/>
	</g>
</g>
</svg>
