<!-- Generator: Adobe Illustrator 24.2.3, SVG Export Plug-In  -->
<svg version="1.1" xmlns="http://www.w3.org/2000/svg" xmlns:xlink="http://www.w3.org/1999/xlink" x="0px" y="0px" width="112px"
	 height="112px" viewBox="0 0 112 112" style="overflow:visible;enable-background:new 0 0 112 112;" xml:space="preserve">
<style type="text/css">
	.st0{fill:#012560;}
	.st1{fill:#FFFFFF;}
	.st2{fill:none;stroke:url(#SVGID_1_);stroke-width:1.6879;stroke-linecap:square;stroke-miterlimit:10;}
	.st3{fill:#2DE498;}
	.st4{fill:#6B94FF;}
	.st5{fill:none;}
	.st6{fill:none;stroke:url(#SVGID_2_);stroke-width:1.6879;stroke-linecap:square;stroke-miterlimit:10;}
	.st7{fill:none;stroke:url(#SVGID_3_);stroke-width:2;stroke-linecap:square;stroke-miterlimit:10;}
	.st8{fill:none;stroke:#012560;stroke-width:1.2727;stroke-linecap:square;stroke-miterlimit:10;}
	.st9{fill:none;stroke:url(#SVGID_4_);stroke-width:1.6879;stroke-linecap:square;stroke-miterlimit:10;}
	.st10{fill:none;stroke:url(#SVGID_5_);stroke-width:1.6879;stroke-linecap:square;stroke-miterlimit:10;}
	.st11{fill:none;stroke:url(#SVGID_6_);stroke-width:2;stroke-linecap:square;stroke-miterlimit:10;}
</style>
<defs>
</defs>
<g>
	<circle class="st0" cx="56" cy="56" r="56"/>
	<g>
		<path class="st1" d="M39.2,69.9l1.4-14.1l-2.7-6l3.7-2L39.4,43c-3.7,3.7-7.7,3.9-12.1,0l-2.2,4.8l3.7,2l-2.7,6l1.4,14.1H39.2z"/>
		<polygon class="st0" points="34.4,48.8 36.2,46.1 34.8,45.3 33.3,45.5 32,45.3 30.5,46.1 32.3,48.8 29,74.1 33.3,74.1 37.7,74.1 
					"/>
		<linearGradient id="SVGID_1_" gradientUnits="userSpaceOnUse" x1="33.3341" y1="67.9144" x2="33.3341" y2="26.343">
			<stop  offset="0" style="stop-color:#FFFFFF"/>
			<stop  offset="1" style="stop-color:#6B94FF"/>
		</linearGradient>
		<path class="st2" d="M41.6,39.2l2.8,0.2c0,0,6.4,0.5,8.3,5s3.7,13.6,3.9,16.2c0.1,2.5,0,6.1-8,6.4H18.1c-8-0.3-8.2-3.9-8-6.4
			c0.1-2.6,2-11.7,3.9-16.2s8.3-5,8.3-5l2.7-0.2 M42.3,35.1c0.5-6.1-1.1-7.9-9-7.9c-8,0-9.4,1.5-9,7.9c0.4,6,4.9,10.9,9,10.9
			S41.8,41.1,42.3,35.1z"/>
		<path class="st3" d="M47.7,74.5H19c-0.5,0-0.9-0.4-0.9-0.9V53.8c0-0.5,0.4-0.9,0.9-0.9h28.7c0.5,0,0.9,0.4,0.9,0.9v19.8
			C48.6,74.1,48.2,74.5,47.7,74.5z"/>
		<circle class="st0" cx="33.3" cy="63.7" r="2.4"/>
		<ellipse class="st4" cx="33.2" cy="31.3" rx="16.9" ry="4.2"/>
		<path class="st4" d="M41.4,28.8C41.4,28.8,41.4,28.8,41.4,28.8c0-0.1,0-0.1,0-0.2c-0.3-1.1-1.8-6.5-2.4-8.1
			c-0.7-1.7-2.6-1.4-3.5-0.9c-1,0.6-1.7,0.7-2.3,0.7s-1.3-0.2-2.3-0.7c-0.9-0.5-2.7-0.9-3.5,0.9c-0.6,1.6-2.1,7-2.4,8.1
			c0,0.1,0,0.1,0,0.2c0,0,0,0,0,0c0,0.2-0.1,0.3-0.1,0.5c0,2.3,3.7,4.2,8.3,4.2c4.6,0,8.3-1.9,8.3-4.2
			C41.4,29.1,41.4,28.9,41.4,28.8z"/>
		<path class="st5" d="M41.4,26.7l0.6,2.6c0,2.3-4,4.1-8.9,4.1c-4.9,0-8.9-1.8-8.9-4.1l0.6-2.6"/>
	</g>
	<g>
		<path class="st1" d="M84.6,69.9L86,55.8l-2.7-6l3.7-2L84.8,43c-3.7,3.7-7.7,3.9-12.1,0l-2.2,4.8l3.7,2l-2.7,6l1.4,14.1H84.6z"/>
		<polygon class="st0" points="79.9,48.8 81.6,46.1 80.3,45.3 78.8,45.5 77.5,45.3 76,46.1 77.7,48.8 74.4,74.1 78.8,74.1 
			83.2,74.1 		"/>
		<linearGradient id="SVGID_2_" gradientUnits="userSpaceOnUse" x1="78.8153" y1="67.9144" x2="78.8153" y2="26.343">
			<stop  offset="0" style="stop-color:#FFFFFF"/>
			<stop  offset="1" style="stop-color:#6B94FF"/>
		</linearGradient>
		<path class="st6" d="M87.1,39.2l2.8,0.2c0,0,6.4,0.5,8.3,5s3.7,13.6,3.9,16.2c0.1,2.5,0,6.1-8,6.4H63.6c-8-0.3-8.2-3.9-8-6.4
			c0.1-2.6,2-11.7,3.9-16.2c1.9-4.6,8.3-5,8.3-5l2.7-0.2 M87.8,35.1c0.5-6.1-1.1-7.9-9-7.9c-8,0-9.4,1.5-9,7.9
			c0.4,6,4.9,10.9,9,10.9S87.3,41.1,87.8,35.1z"/>
		<path class="st3" d="M93.2,74.5H64.5c-0.5,0-0.9-0.4-0.9-0.9V53.8c0-0.5,0.4-0.9,0.9-0.9h28.7c0.5,0,0.9,0.4,0.9,0.9v19.8
			C94.1,74.1,93.7,74.5,93.2,74.5z"/>
		<circle class="st0" cx="78.8" cy="63.7" r="2.4"/>
		<ellipse class="st4" cx="78.7" cy="31.3" rx="16.9" ry="4.2"/>
		<path class="st4" d="M86.9,28.8C86.9,28.8,86.8,28.8,86.9,28.8c0-0.1,0-0.1,0-0.2c-0.3-1.1-1.8-6.5-2.4-8.1
			c-0.7-1.7-2.6-1.4-3.5-0.9c-1,0.6-1.7,0.7-2.3,0.7c-0.5,0-1.3-0.2-2.3-0.7c-0.9-0.5-2.7-0.9-3.5,0.9c-0.6,1.6-2.1,7-2.4,8.1
			c0,0.1,0,0.1,0,0.2c0,0,0,0,0,0c0,0.2-0.1,0.3-0.1,0.5c0,2.3,3.7,4.2,8.3,4.2c4.6,0,8.3-1.9,8.3-4.2
			C86.9,29.1,86.9,28.9,86.9,28.8z"/>
		<path class="st5" d="M86.9,26.7l0.6,2.6c0,2.3-4,4.1-8.9,4.1c-4.9,0-8.9-1.8-8.9-4.1l0.6-2.6"/>
	</g>
	<path class="st0" d="M66.2,48.1l3.5,0.3c0,0,7.9,0.6,10.2,6.2s4.6,16.8,4.8,19.9c0.2,3.1,0,7.5-9.9,7.9H37.2
		c-9.9-0.3-10-4.8-9.9-7.9c0.2-3.2,2.5-14.3,4.8-19.9c2.3-5.6,10.2-6.2,10.2-6.2l3.3-0.3"/>
	<polygon class="st1" points="63.8,87.8 65.6,69.1 62,61.2 66.9,58.4 64,52.1 47.9,52.1 45,58.4 49.9,61.2 46.3,69.1 48.1,87.8 	"/>
	<ellipse class="st0" cx="55.9" cy="44.9" rx="9.7" ry="11.4"/>
	<g>
		<polygon class="st0" points="57.3,59.9 59.5,56.5 57.8,55.6 56,55.8 54.3,55.6 52.5,56.5 54.7,59.9 50.6,91 56,91 61.4,91 		"/>
		<polygon class="st1" points="37.4,91 33.1,82.8 78.8,82.8 74.6,91 		"/>
		<linearGradient id="SVGID_3_" gradientUnits="userSpaceOnUse" x1="56.0015" y1="83.3177" x2="56.0015" y2="30.0151">
			<stop  offset="0" style="stop-color:#FFFFFF"/>
			<stop  offset="1" style="stop-color:#6B94FF"/>
		</linearGradient>
		<path class="st7" d="M66.2,48.1l3.5,0.3c0,0,7.9,0.6,10.2,6.2s4.6,16.8,4.8,19.9c0.2,3.1,0,7.5-9.9,7.9H37.2
			c-9.9-0.3-10-4.8-9.9-7.9c0.2-3.2,2.5-14.3,4.8-19.9c2.3-5.6,10.2-6.2,10.2-6.2l3.3-0.3 M67,43c0.6-7.5-1.3-12-11-12
			c-9.8,0-11.5,4.1-11,12c0.5,7.4,6,13.4,11,13.4S66.4,50.4,67,43z"/>
		<path class="st3" d="M73.6,91.5H38.4c-0.6,0-1.1-0.5-1.1-1.1V66c0-0.6,0.5-1.1,1.1-1.1h35.3c0.6,0,1.1,0.5,1.1,1.1v24.3
			C74.8,91,74.3,91.5,73.6,91.5z"/>
		<circle class="st0" cx="56" cy="78.2" r="2.9"/>
		<ellipse class="st4" cx="55.8" cy="38.4" rx="20.8" ry="5.1"/>
		<path class="st8" d="M55,33.3c-11.5,0-20.8,2.3-20.8,5.1"/>
		<path class="st8" d="M56.4,33.3c11.5,0,20.8,2.3,20.8,5.1"/>
		<path class="st4" d="M65.9,35.3C65.9,35.3,65.9,35.2,65.9,35.3c0-0.1,0-0.2-0.1-0.2c-0.4-1.3-2.2-8-3-9.9
			c-0.9-2.1-3.2-1.7-4.2-1.1c-1.2,0.7-2.1,0.9-2.8,0.9s-1.6-0.2-2.8-0.9c-1.1-0.6-3.4-1.1-4.2,1.1c-0.8,1.9-2.6,8.6-3,9.9
			c0,0.1,0,0.1-0.1,0.2c0,0,0,0,0,0c0,0.2-0.1,0.4-0.1,0.6c0,2.8,4.5,5.1,10.2,5.1c5.6,0,10.2-2.3,10.2-5.1
			C65.9,35.7,65.9,35.5,65.9,35.3z"/>
		<path class="st8" d="M64.5,28.3l2.1,7.5c0,2.8-4.9,5-10.9,5c-6,0-10.9-2.3-10.9-5l1.8-6.5"/>
	</g>
</g>
</svg>
