<!-- Generator: Adobe Illustrator 24.2.3, SVG Export Plug-In  -->
<svg version="1.1" xmlns="http://www.w3.org/2000/svg" xmlns:xlink="http://www.w3.org/1999/xlink" x="0px" y="0px" width="112px"
	 height="112px" viewBox="0 0 112 112" style="overflow:visible;enable-background:new 0 0 112 112;" xml:space="preserve">
<style type="text/css">
	.st0{fill:#012560;}
	.st1{fill:#6B94FF;}
	.st2{fill:#012560;stroke:url(#SVGID_1_);stroke-width:2.42;stroke-miterlimit:10;}
	.st3{fill:none;stroke:url(#SVGID_2_);stroke-width:2.42;stroke-miterlimit:10;}
	.st4{fill:none;stroke:url(#SVGID_3_);stroke-width:2.42;stroke-miterlimit:10;}
	.st5{fill:#2DE498;}
	.st6{fill:none;stroke:url(#SVGID_4_);stroke-width:2.42;stroke-miterlimit:10;}
	.st7{fill:#012560;stroke:url(#SVGID_5_);stroke-width:2.42;stroke-miterlimit:10;}
	.st8{fill:none;stroke:url(#SVGID_6_);stroke-width:2.42;stroke-miterlimit:10;}
	.st9{fill:none;stroke:url(#SVGID_7_);stroke-width:2.42;stroke-miterlimit:10;}
	.st10{fill:none;stroke:url(#SVGID_8_);stroke-width:2.42;stroke-miterlimit:10;}
</style>
<defs>
</defs>
<g>
	<circle class="st0" cx="56" cy="56" r="56"/>
	<g>
		<path class="st1" d="M56.1,80.3L56.1,80.3c-3.1,0-5.5,2.4-5.5,5.4v2c0,3,2.4,5.4,5.4,5.4h0.1c3,0,5.4-2.4,5.4-5.4v-2
			C61.6,82.7,59.1,80.3,56.1,80.3z"/>
		<linearGradient id="SVGID_1_" gradientUnits="userSpaceOnUse" x1="31.537" y1="53.7056" x2="80.463" y2="53.7056">
			<stop  offset="0" style="stop-color:#FFFFFF"/>
			<stop  offset="1" style="stop-color:#6B94FF"/>
		</linearGradient>
		<path class="st2" d="M79.3,44.3C79.3,31,68,20.3,54.5,21.1c-11.5,0.7-20.9,10-21.7,21.5c-0.5,7.8,2.7,14.8,8.1,19.4
			c3.7,3.1,5.9,7.6,5.9,12.4v9.2c0,1.5,1.2,2.7,2.7,2.7h13c1.5,0,2.7-1.2,2.7-2.7v-8.9c0-4.8,2-9.5,5.7-12.5
			C76,58,79.3,51.5,79.3,44.3z"/>
		<linearGradient id="SVGID_2_" gradientUnits="userSpaceOnUse" x1="44.0284" y1="73.9751" x2="67.9717" y2="73.9751">
			<stop  offset="0" style="stop-color:#F0F4FF"/>
			<stop  offset="4.857426e-02" style="stop-color:#EAF0FF"/>
			<stop  offset="0.1123" style="stop-color:#DAE4FF"/>
			<stop  offset="0.1351" style="stop-color:#D2DFFF"/>
			<stop  offset="0.3985" style="stop-color:#C0D2FF"/>
			<stop  offset="0.926" style="stop-color:#91B0FF"/>
			<stop  offset="0.9638" style="stop-color:#8DADFF"/>
			<stop  offset="1" style="stop-color:#6B94FF"/>
		</linearGradient>
		<line class="st3" x1="68" y1="74" x2="44" y2="74"/>
		<linearGradient id="SVGID_3_" gradientUnits="userSpaceOnUse" x1="44.0284" y1="80.1542" x2="67.9717" y2="80.1542">
			<stop  offset="0" style="stop-color:#F0F4FF"/>
			<stop  offset="4.857426e-02" style="stop-color:#EAF0FF"/>
			<stop  offset="0.1123" style="stop-color:#DAE4FF"/>
			<stop  offset="0.1351" style="stop-color:#D2DFFF"/>
			<stop  offset="0.3985" style="stop-color:#C0D2FF"/>
			<stop  offset="0.926" style="stop-color:#91B0FF"/>
			<stop  offset="0.9638" style="stop-color:#8DADFF"/>
			<stop  offset="1" style="stop-color:#6B94FF"/>
		</linearGradient>
		<line class="st4" x1="68" y1="80.2" x2="44" y2="80.2"/>
		<path class="st5" d="M62.2,44.3c0-3.4-2.8-6.2-6.2-6.2c-3.4,0-6.2,2.8-6.2,6.2c0,2.6,1.6,4.8,3.8,5.7v9.9h5V50
			C60.7,49,62.2,46.8,62.2,44.3z"/>
		<linearGradient id="SVGID_4_" gradientUnits="userSpaceOnUse" x1="56.0001" y1="44.4867" x2="98.8186" y2="44.4867">
			<stop  offset="0" style="stop-color:#FFFFFF"/>
			<stop  offset="1" style="stop-color:#6B94FF"/>
		</linearGradient>
		<path class="st6" d="M56,44.5h30.2 M97.6,44.5c0-3.9-2.5-7-5.7-7c-3.1,0-5.7,3.1-5.7,7s2.5,7,5.7,7C95.1,51.5,97.6,48.3,97.6,44.5
			z"/>
	</g>
</g>
</svg>
