<?xml version="1.0" encoding="UTF-8"?>
<svg id="Layer_2" data-name="Layer 2" xmlns="http://www.w3.org/2000/svg" xmlns:xlink="http://www.w3.org/1999/xlink" viewBox="0 0 235.18 287.11">
  <defs>
    <style>
      .cls-1, .cls-2, .cls-3, .cls-4 {
        fill: none;
      }

      .cls-5 {
        stroke: #313131;
      }

      .cls-5, .cls-2, .cls-6 {
        stroke-linejoin: round;
      }

      .cls-5, .cls-2, .cls-6, .cls-3, .cls-4 {
        stroke-linecap: round;
      }

      .cls-5, .cls-7 {
        fill: #fff;
      }

      .cls-2, .cls-3 {
        stroke: #5a595c;
      }

      .cls-8 {
        clip-path: url(#clippath);
      }

      .cls-6 {
        fill: #f2f2f2;
        stroke: #666;
      }

      .cls-9 {
        fill: #f1f1f1;
      }

      .cls-10 {
        fill: #ba0c2f;
      }

      .cls-11 {
        fill: #919194;
      }

      .cls-12 {
        fill: #b9ad86;
      }

      .cls-13 {
        fill: #a89968;
      }

      .cls-14 {
        fill: #a6a6a9;
      }

      .cls-15 {
        fill: #d0d1d1;
      }

      .cls-16 {
        fill: #d66d82;
      }

      .cls-17 {
        fill: #1a1a1a;
      }

      .cls-18 {
        fill: #a27ea5;
      }

      .cls-19 {
        fill: #545455;
      }

      .cls-20 {
        fill: #6d6e71;
      }

      .cls-21 {
        fill: #808083;
      }

      .cls-22 {
        fill: #808082;
      }

      .cls-23 {
        fill: #5a595c;
      }

      .cls-3, .cls-4 {
        stroke-miterlimit: 10;
      }

      .cls-4 {
        stroke: #909294;
      }

      .cls-24 {
        clip-path: url(#clippath-1);
      }
    </style>
    <clipPath id="clippath">
      <path class="cls-1" d="m2.22.34h232.97v132.81H0V2.56C0,1.34.99.34,2.22.34Z"/>
    </clipPath>
    <clipPath id="clippath-1">
      <rect class="cls-1" x="30.63" y="0" width="168.91" height="133.51" rx="27.87" ry="27.87"/>
    </clipPath>
  </defs>
  <g id="Content">
    <g>
      <polygon class="cls-13" points="203.38 75.9 198.09 74.14 195.9 77.31 195.9 79.75 203.38 75.9"/>
      <g class="cls-8">
        <rect class="cls-9" x="30.63" y="0" width="168.91" height="133.51" rx="27.87" ry="27.87"/>
        <g class="cls-24">
          <g>
            <g>
              <path class="cls-5" d="m57.05,160.38l-.03,1.45c-.02,1.46.93,2.76,2.34,3.17l1.39.41-1.43-.03c-1.46-.02-2.76.93-3.17,2.34l-.43,1.4.02-1.45c.03-1.46-.93-2.76-2.33-3.17l-1.39-.41,1.45.02c1.46.02,2.76-.93,3.17-2.33l.41-1.41Z"/>
              <path class="cls-5" d="m76.4,163.32l-.02,1.45c-.03,1.46.93,2.76,2.34,3.16l1.39.41-1.45-.02c-1.46-.02-2.76.93-3.17,2.34l-.4,1.39.02-1.45c.02-1.46-.93-2.76-2.34-3.17l-1.39-.4,1.45.02c1.46.02,2.76-.93,3.16-2.34l.41-1.39Z"/>
              <path class="cls-5" d="m54.23,178.97l-.02,1.45c-.02,1.46.93,2.76,2.33,3.17l1.39.41-1.45-.03c-1.46-.02-2.76.93-3.17,2.34l-.41,1.39.03-1.45c.02-1.46-.93-2.76-2.34-3.17l-1.39-.41,1.45.02c1.46.03,2.76-.93,3.17-2.33l.41-1.39Z"/>
              <path class="cls-5" d="m73.6,181.91l-.03,1.45c-.02,1.46.93,2.75,2.34,3.16l1.39.41-1.45-.02c-1.46-.02-2.76.93-3.17,2.34l-.41,1.39.03-1.45c.02-1.46-.93-2.75-2.34-3.16l-1.39-.41,1.45.02c1.46.02,2.76-.93,3.17-2.34l.41-1.39Z"/>
              <path class="cls-17" d="m48.31,38.68s-5.7,4.88-3.66,12.17"/>
              <path class="cls-17" d="m57.97,40.88v19.37s-3.89-.14-8.05-.02c-3.33-5.41,1.5-20.04,1.5-20.04l6.55.68Z"/>
              <path class="cls-17" d="m75.76,61.44l-9.84-.15-.17-31.2h8.64c.51,5.51,2.25,12.8,6.58,19.64,3.1,4.9.58,11.7-5.21,11.7Z"/>
              <path class="cls-17" d="m52.02,36.89c-2.34,9.36-3.17,17.56,0,23.31,0,0-2.13.03-4.39.15-.1,0-.2.01-.31.02-2.38.16-4.36-6.33-2.34-12.34,2.02-6.02,2.34-11.13,2.34-11.13h4.7Z"/>
              <g>
                <circle class="cls-15" cx="60.85" cy="64.52" r="7.46"/>
                <polygon class="cls-15" points="68.21 63.35 53.48 63.36 54.08 59.29 54.33 57.61 54.58 55.89 55.02 52.93 55.13 52.17 55.49 49.74 55.65 48.65 66.09 48.67 66.3 50.13 66.57 51.98 66.68 52.73 66.77 53.36 66.91 54.33 68.21 63.35"/>
                <circle class="cls-15" cx="60.85" cy="48.67" r="5.22"/>
                <path class="cls-14" d="m66.57,51.98l-.19.29c-1.78,2.73-4.67,5.19-7.94,5.19l-4.12.15.25-1.72.44-2.96.11-.76.36-2.44,10.81.4.27,1.85Z"/>
              </g>
              <g>
                <path class="cls-15" d="m80.29,66.26s4.5,13.62,10.01,35.2c.56,2.21-.74,4.5-2.99,5.24h0c-2.56.84-4.9-.77-5.74-3.22-6.39-18.63-13.36-33.22-13.36-33.22l12.08-3.99Z"/>
                <circle class="cls-15" cx="74.25" cy="68.25" r="6.36"/>
                <circle class="cls-15" cx="85.98" cy="102.37" r="4.54"/>
                <g>
                  <path class="cls-15" d="m84.49,96.7l6.24.03c1.46,0,2.91.1,4.35.28,2.37.3,4.72.73,7.04,1.28l15.51,3.67-1.82,5.58s-4.13-.47-9.23-.33c-8.5.23-20.44.86-23.55-1.55l1.46-8.96Z"/>
                  <circle class="cls-15" cx="117.48" cy="105" r="3.04"/>
                </g>
              </g>
              <g>
                <polygon class="cls-6" points="134.3 70.35 133.45 69.12 100.59 68.74 88.68 110.06 89.69 111.2 102.2 71.29 134.3 70.35"/>
                <polygon class="cls-6" points="134.3 70.31 101.35 70.31 89.69 111.15 122.56 111.15 134.3 70.31"/>
                <path class="cls-15" d="m117.35,97.14h.21s7.67-.15,8.44-.19l-2.51-.7s-5.59.91-5.96-.46v-.21c0-.71.75-1.29,1.33-1.38,0,0,.04,0,.04,0,0,0,4.1-.95,4.98-.91.88.04,3.97.89,3.97.89.6,0,.97.62.97,1.4v.21c0,.36,0,.69-.17.94,0,0,.05,0,.05,0-.11.19.02.64.02.64h-.09c.37.19.56.53.56.99v.21c0,.54-.27,1.11-.74,1.41,0,0,.04,0,.04.01-.46.41-.2.67-.2.67h.01c.12.13.22.27.27.43.18.55,0,1.19-.37,1.57-.18.18-.41.3-.64.37-.52.26-.55.7-.51.98.04.09.07.18.07.26,0,.37-.14.75-.4.99-.37.36-.88.5-1.35.53-.35.02-.69-.03-1.04-.02-1.28.02-2.56.01-3.83,0-.31,0-.71,0-1.02,0-.47,0-1.2-.72-1.2-1.39v-.19c0-.67.82-1.05,1.29-1.05h-.91c-.6,0-1.51-.79-1.51-1.56v-.21c0-.77,1.01-1.23,1.61-1.23h-1.41c-.71,0-1.7-.49-1.7-1.26v-.52c0-.77.99-1.23,1.7-1.23Z"/>
              </g>
              <g>
                <path class="cls-15" d="m82.03,202.44s.37,19.61.11,27.65-1.58,12.6-1.79,20.57c-.15,5.41.36,14.16.36,14.16l-6.19.67s-6.46-23.34-7.52-35.82c-.69-8.03,2.42-27.24,2.42-27.24h12.62Z"/>
                <g>
                  <path class="cls-15" d="m82.14,141.21c0-6.1-4.94-11.04-11.04-11.04s-11.04,4.94-11.04,11.04c0,0,0,4.73,0,4.74,0,12.66-.22,23.01,8.63,50.09.35,1.07.6,2.02.78,2.86.03.13-.1,3.41-.06,3.54h13.35c-.09-1.01-.59-5.7-.62-7.35-.14-6.82.44-29.85.44-35.4,0-8.63-.44-16.86-.44-18.48Z"/>
                  <circle class="cls-15" cx="71.1" cy="141.21" r="11.04"/>
                </g>
                <circle class="cls-15" cx="76.08" cy="202.36" r="6.67"/>
                <circle class="cls-15" cx="77.67" cy="265.68" r="3.2"/>
              </g>
              <path class="cls-15" d="m45.13,112.31c0-8.35,6.76-15.12,15.1-15.12s15.14,6.78,15.14,15.13-6.8,15.12-15.14,15.12-15.1-6.77-15.1-15.12Z"/>
              <g>
                <path class="cls-15" d="m58.89,203.24s-1.36,19.56-2.33,27.56c-.96,7.91-2.68,12.41-3.6,20.33-.62,5.37-.89,14.14-.89,14.14l-6.23.12s-4.37-23.82-4.34-36.34c.02-8.06,4.81-26.92,4.81-26.92l12.57,1.11Z"/>
                <g>
                  <path class="cls-15" d="m59.03,140.84c0-6.1-4.94-11.04-11.04-11.04s-11.04,4.94-11.04,11.04c0,0,0,4.73,0,4.74,0,12.66-.22,23.01,8.63,50.09.35,1.07.6,2.02.78,2.86.03.13-.1,3.41-.06,3.54h13.35c-.09-1.01-.59-5.7-.62-7.35-.14-6.82.44-29.85.44-35.4,0-8.63-.44-16.86-.44-18.48Z"/>
                  <circle class="cls-15" cx="47.99" cy="140.84" r="11.04"/>
                </g>
                <circle class="cls-15" cx="52.97" cy="202.64" r="6.67"/>
                <circle class="cls-15" cx="48.97" cy="265.85" r="3.2"/>
                <path class="cls-15" d="m53.74,277.1s.51-8.33-1.79-11.52h-4.57c-.55,0-.93-.19-.93-.19,0,0-1.5,2.63-1.66,3.27-.21.83-.74,1.54-.95,2.56-.58,2.85-.87,5.23-.87,6.43,0,0-.24.75-.38,1.54-.06.31-.14.62-.28.88-.05.1-.09.2-.11.31-.11.64.29,1.2.8,1.2.07,0,.13,0,.19-.03.15-.04.32.01.43.14.16.19.38.3.62.3.13,0,.25-.03.36-.09.21-.11.45-.04.62.13.23.24.54.38.87.38.27,0,.52-.09.73-.26.23-.18.54-.14.75.08.22.24.52.39.84.39s.62-.14.84-.38.57-.27.79-.02c.39.43.91.7,1.48.7,1.23,0,2.23-1.23,2.18-2.72,0-.15-.02-.29-.05-.43-.05-.3-.06-.61-.03-.92,0-.06.01-.12.01-.18l.09-1.6Z"/>
              </g>
              <path class="cls-15" d="m74.63,109.2h-29.17s-10.73,11.57-8.37,30.27l23.11,5.36s2.32.96,5.01,0l15.82-7.06c.19-5.21-6.4-28.57-6.4-28.57Z"/>
              <path class="cls-15" d="m72.42,30.93c0,.47-.03.94-.08,1.39-.02.19-.05.39-.08.58-.09.56-.22,1.11-.39,1.64,0,0-.13,3.56-.26,5.69-.04.7-.09,1.24-.13,1.46,0,.01,0,.03,0,.04-.34,1.82-.83,3.25-1.84,4.93-.33.55-.71,1.12-1.16,1.74-.69.96-1,1.35-1.92,2.31-.82.85-1.87,1.68-3.92,2.13-.19.04-.63.05-1.11.04-1.22-.01-2.41-.37-3.44-1.02-1.82-1.16-3.66-2.86-4.16-3.56-1.83-2.54-3.08-4.17-3.53-6.57,0-.04-.02-.11-.03-.19-.19-1.1-.91-5.39-1.11-6.66l-.02-.13-.04-.22c-.53-1.69-.71-3.54-.42-5.46.82-5.36,5.28-9.52,10.68-9.99,4.28-.38,8.15,1.52,10.52,4.62.26.34.51.7.73,1.07,1.09,1.8,1.72,3.9,1.72,6.16Z"/>
              <path class="cls-15" d="m69.68,34.54s4.23-1.09,3.27,2.84c-1.14,4.72-4.48,4.16-4.48,4.16l1.2-7Z"/>
              <g>
                <ellipse class="cls-17" cx="57.77" cy="35.65" rx="1.12" ry="1.59"/>
                <path class="cls-17" d="m58.89,34.67c-1.31-.02-1.95-.23-3.18-.14.47-1.43,2.73-1.19,3.18.14h0Z"/>
              </g>
              <g>
                <ellipse class="cls-17" cx="68.72" cy="35.6" rx="1.12" ry="1.59"/>
                <path class="cls-17" d="m70.78,34.62c-1.31-.02-1.95-.23-3.19-.14.47-1.43,2.73-1.19,3.19.14h0Z"/>
              </g>
              <path class="cls-4" d="m65.06,40.88c0,.38-.69.69-1.54.69s-1.54-.31-1.54-.69"/>
              <path class="cls-22" d="m61.18,44.84l-2.74-.25c.62,1.1,1.72,1.79,2.66,2.21,1.07.47,2.3.47,3.37,0,.94-.41,2.05-1.11,2.66-2.21l-2.74.25c-1.07.1-2.15.1-3.22,0Z"/>
              <path class="cls-20" d="m62.79,44.33c-2.27,0-4.35.27-4.35.27,2.01,1.16,4.35,1.05,4.35,1.05,0,0,2.34.1,4.35-1.05,0,0-2.08-.27-4.35-.27Z"/>
              <path class="cls-17" d="m53.74,33.02c-.11.03-.19-.11-.11-.19.46-.48,1.51-1.46,2.78-1.69s3.2-.12,4.17-.05c.5.04.89.44.89.94,0,0,0,.01,0,.02,0,.39-.25.57-.48.65-.16.06-.34.07-.51.04-.7-.1-3.59-.5-4.11-.36-.45.12-1.96.48-2.65.64Z"/>
              <path class="cls-17" d="m72.34,32.32c-.02.19-.05.39-.08.58-.75-.18-1.77-.43-2.14-.52-.52-.14-3.4.26-4.1.36-.17.03-.35.01-.51-.04-.23-.08-.48-.26-.48-.65v-.02c0-.5.4-.9.9-.94.97-.07,2.93-.18,4.17.05.9.17,1.7.71,2.25,1.18Z"/>
              <path class="cls-17" d="m52.17,24.7h0c-.03.1-.55,1.58-.86,6.43-.06.96-.11,2.05-.15,3.29-.11.53-.25.71-.46.71-.3,0-.76-.37-1.51-.6l-1.48,1.42s.24-.22-.58-7.28c-.98-8.44,4.13-9.61,4.13-9.61l.93,5.62Z"/>
              <path class="cls-15" d="m49.18,34.54s-4.23-1.09-3.27,2.84c1.14,4.72,4.48,4.16,4.48,4.16l-1.2-7Z"/>
              <path class="cls-23" d="m75.76,62.18l-4.98-.04c2.51-5.8,3.85-14.01,1.56-29.67.56-11.52-15.22-13.78-20.18-7.77l-.92-5.62s8.44-11.14,19.2.03c0,0,4.4,3.63,5.17,11.97.51,5.51,2.29,12.25,6.62,19.09,3.1,4.9-.68,12-6.47,12Z"/>
              <path class="cls-2" d="m73.55,27.87s1.96,11.6,7.35,17.42c5.39,5.82,4.13,11.24,4.13,11.24"/>
              <path class="cls-17" d="m52.17,24.71c-.03.09-.55,1.57-.86,6.43l-.06.42c-1.98-5.8.79-6.81.92-6.85Z"/>
              <path class="cls-15" d="m78.84,79.12c-.64-1.29-1.47-2.42-2.42-3.36-.59-.58-.97-1.33-1.12-2.15-.59-3.33-2.18-11.61-2.18-11.61-.32-.57-11.85-5.03-11.85-5.03l-16.81,3.32c-.06.01-3.42,17.68-3.2,18.23.33.83,1.21,2.79,1.56,3.62.62,1.49,1.22,3,1.82,4.5.93,2.35,1.9,4.79,2.96,7.15,1.38,3.07-2.34,15.68-3.2,19.74l17.12,13.73,12.67-8.52s1.89-3.22.46-9.4c-.54-2.35-.15-7.25.41-10.69.24-1.49.39-2.98.42-4.49,0-.21,0-.44.01-.68,4.54-2.64,6.05-8.93,3.34-14.36Z"/>
              <g>
                <path class="cls-17" d="m40.03,284.6c0,.58,1.03,1.2,1.97,1.43.47.12,2.12.45,3.57.37,3.19-.18,6.62-.97,8.31-2.14.3-.2.32-2.56.35-3.6.02-.64.09-2.36.05-3.31-.1-2.02-.22-6.29-.79-6.53-.11.39-1.45,7.54-7.08,7.26-3.88-.19-2.35-6.29-2.56-6.87-.42.52-3.35,9.48-3.56,10.27-.04.15-.25,2-.25,3.11Z"/>
                <path class="cls-17" d="m44.47,286.21c-2.45,0-4.25-1.89-4.3-2.17-.05-.59.16-2.78.11-2.59-.25.99-.45,2.18-.45,3.28,0,.58,2.09,2.37,4.61,2.37,2.96,0,5.86-.78,7.76-1.71,1.25-.61,1.96-1.02,1.99-1.48.05-.22.16-2.1.01-2.45,0,.07-.08,1.11-.22,1.77-.07.35-4.28,2.97-9.51,2.97Z"/>
                <path class="cls-7" d="m51.48,281.62c.07,0,.14-.01.21-.04.18-.08.23-.24.12-.36-.07-.08-1.76-1.83-5.51-1.92-3.46-.08-4.53,1.24-4.58,1.29-.1.13-.03.29.16.35.19.07.42.02.52-.11.04-.04.91-1.08,3.87-1.01,3.33.07,4.82,1.61,4.88,1.67.07.08.2.12.33.12Z"/>
              </g>
              <g>
                <path class="cls-15" d="m41.38,61.99s-10.12,10.17-24.7,27c-1.49,1.72-1.35,4.36.33,6.02h0c1.91,1.9,4.73,1.5,6.58-.32,14.05-13.8,26.81-23.73,26.81-23.73l-9.02-8.97Z"/>
                <circle class="cls-15" cx="45.89" cy="66.48" r="6.36"/>
                <circle class="cls-15" cx="20.14" cy="91.74" r="4.54"/>
              </g>
              <g>
                <path class="cls-10" d="m78.94,78.98c-.65-1.31-1.49-2.46-2.46-3.42-.6-.59-.99-1.35-1.13-2.18-.6-3.39-2.21-11.8-2.21-11.8-.33-.58-12.04-5.12-12.04-5.12l-17.05,3.93s2.79,4.14,2.12,8.51c-.74,4.79-5,9.31-4.89,9.6.34.85.72,2.68,1.07,3.53.64,1.52,1.24,3.05,1.85,4.58.95,2.39,1.93,4.87,3.01,7.26,1.4,3.12-2.38,15.93-3.25,20.06l17.4,13.96,12.87-8.66s1.92-3.28.46-9.55c-.55-2.39-.16-7.37.42-10.86.25-1.51.39-3.03.42-4.56,0-.22,0-.45.01-.69,4.61-2.68,6.15-9.07,3.4-14.59Z"/>
                <path class="cls-16" d="m54.37,52.98l-3.35,7.21,9.95-3.71s-5.46-3.94-6.6-3.5Z"/>
                <path class="cls-16" d="m67.08,53.33l3,6.87-9.08-3.69s5.03-3.58,6.08-3.18Z"/>
              </g>
              <g>
                <path class="cls-17" d="m59.11,142.02s-1.15,26.18,6.86,53.93c.76,2.65,3.21,4.47,5.96,4.47h7.14c3.05,0,5.49-2.55,5.35-5.6l-1.07-23.23c-.04-.83-.05-1.66-.04-2.48l-1.28-29.51-22.92,2.42Z"/>
                <path class="cls-17" d="m67.1,198.33s-6.12,31.85,2.47,57.45l13.15-.81.51-41.98c0-.75.04-1.49.09-2.24,1-4.24,1.81-11.32,1.08-16.53l-17.3,4.11Z"/>
                <path class="cls-17" d="m74.99,109.72h-30.14s-11.45,12.35-8.94,32.3h23.2l22.92-2.42c.2-5.56-7.04-29.88-7.04-29.88Z"/>
                <path class="cls-17" d="m35.91,142.02s-1.15,26.18,6.86,53.93c.76,2.65,3.21,4.47,5.96,4.47h7.14c3.05,0,5.49-2.55,5.35-5.6l-1.07-23.23c-.04-.83-.05-1.66-.04-2.48l-1-27.09h-23.2Z"/>
                <path class="cls-17" d="m43.7,197.86s-8.07,31.41-1.07,57.49h13.18l3.1-41.87c.06-.75.13-1.49.22-2.23,1.26-4.17,2.51-11.19,2.09-16.43l-17.52,3.04Z"/>
              </g>
              <path class="cls-17" d="m74.17,63.03l-4.98-.04c2.52-5.79,4.96-12.78,2.67-28.44.02-.37.02-.73,0-1.08h0c-.07-1.73-.5-3.28-1.2-4.63,0,0,0,0,0-.01h0c-2.79-5.43-9.83-7.82-14.77-6.43h0c-1.49.42-2.79,1.19-3.72,2.32l-.92-5.62s8.44-11.14,19.2.03c0,0,4.39,3.63,5.17,11.97.51,5.51,2.29,12.25,6.62,19.09,3.1,4.9-2.27,12.85-8.06,12.85Z"/>
              <g>
                <path class="cls-15" d="m16.27,94.03l3.48,5.18c.81,1.21,1.69,2.37,2.64,3.47,1.56,1.81,3.21,3.53,4.96,5.16l11.64,10.89,3.64-4.6s-2.68-3.18-5.38-7.5c-4.51-7.21-10.59-17.5-14.32-18.76l-6.66,6.17Z"/>
                <circle class="cls-15" cx="41.43" cy="116.92" r="3.04"/>
              </g>
              <path class="cls-15" d="m40.39,115.19l1.76-1.66,3.53.58c2.15-.46,3.2-1.74,4.26-1.79,1.06-.05,2.79-.98,2.79-.98.81,1.55-1.22,2.92-1.22,2.92.15-.01.29-.03.44-.04.36-.04.73-.07,1.09-.11.46-.04.93-.1,1.39-.14.45-.04.9-.1,1.35-.13.35-.03.7-.06,1.04-.04.36.02.7.13,1.05.24.43.13,2.68,1.2,3.06,1.33.18.06.55.18.55.18.13.47.11.95-.15,1.33-.47.68-1.53.56-2.05.42-.39-.11-.91-.35-1.29-.53-.32-.15-.23-.21-.82-.21-.34,0-.68.09-1.02.12-.74.09-1.48.18-2.22.28-.17.02-.34.04-.51.07,0,0,3.44.99,4.5,1.41.79.31,2.87,2.76,2.87,2.76,1.5,1.75-1.16,2.1-1.16,2.1.12.16.27.43.25.66-.02.18-.16.32-.28.42-.22.18-.48.25-.74.3-.47.1-.97.11-1.44-.06-.13-.05-.26-.11-.38-.18-.12-.07-.24-.14-.36-.21-.15-.09-.29-.19-.44-.29-.45-.31-.9-.63-1.31-1.01-.05-.05-.16-.19-.23-.2,0,0-2.7-.43-2.7-.43.87.59,1.64,2.35,2.81,3.24.17.13.35.28.49.47.13.17.28.42.22.66-.05.23-.28.28-.45.33-.55.16-1.11.09-1.65-.1-.28-.1-.55-.24-.8-.41-.19-.12-.36-.27-.53-.43-.07-.07-.14-.14-.21-.23-1.46-2-3.21-3.11-5.69-2.13-3.57,1.41-5.73-3.92-5.73-3.92l-.04-4.56Z"/>
              <path class="cls-15" d="m94.32,283.95c-.64.38-1.35.68-2.09.91-.65.21-1.34.35-2.03.44-.36.04-.72.07-1.07.08-1.23.04-2.45-.13-3.57-.52-2.16-.72-2.91-2.4-3.96-4.3-1.16-2.14-2.36-2.74-4.6-3.44-1.88-.59-3.97-1.48-4.69-3.51-.7-2.02.69-2.86,1.55-4.18.18-.26.51-1.07.51-1.08.61-1.23.34-1.1.09-2.41,0,0,6.05-1.43,6.06-1.41,2.77,3.79,6.19,8.28,8.47,12.23.69,1.27,1.64,2.5,2.71,3.37,1.35,1.08,2.59.82,4.12,1.29,4.17,1.11.26,3.03-1.52,2.53Z"/>
              <g>
                <polygon class="cls-17" points="75.4 285.68 77.12 285.68 77.57 276.39 74.95 275 71.96 274.6 75.4 285.68"/>
                <path class="cls-17" d="m99.35,284.9c-3.22,3.38-10.92,2.08-14.14,1.3-.74-.18-1.3-.55-1.75-1.04-1.55-1.66-1.92-4.72-3.94-6.49-.53-.46-1.13-.9-1.76-1.3-.08-.05-.15-.1-.23-.14-1.54-.95-3.2-1.69-4.3-2.14h0c-.69-.28-1.16-.45-1.25-.48-.01,0-.01,0-.01,0-.27-3.17.77-5.7,1.67-7.25.23-.4.64-.59,1.04-.58h0c.37.01.74.2.97.57.37.61.88,1.31,1.56,1.98,1.72,1.73,6.44,8.92,10.03,10.39,3.49,1.43,3.23-.73,3.22-.85h0c2.77,1.33,4.88,1.42,7.33,1.8,2.29.35,1.57,4.24,1.57,4.24Z"/>
              </g>
            </g>
            <g>
              <g>
                <g>
                  <path class="cls-22" d="m161.29,81.52s-2.17,13.77-4.07,35.32c-.19,2.2,1.42,4.2,3.69,4.55h0c2.59.41,4.58-1.51,5-3.99,3.2-18.86,7.59-33.95,7.59-33.95l-12.21-1.93Z"/>
                  <circle class="cls-11" cx="167.39" cy="82.48" r="6.18"/>
                  <circle class="cls-11" cx="161.51" cy="117.03" r="4.41"/>
                </g>
                <path class="cls-12" d="m168.77,103.81c1.84-8.72,3.9-17.09,4.77-20.23.18-.45.31-.92.39-1.39.26-1.65-.14-3.3-1.12-4.65-.98-1.35-2.43-2.24-4.08-2.5-.33-.05-.66-.08-.98-.08-3.09,0-5.69,2.22-6.17,5.28-.02.1-4.73,21.6-4.73,21.6l5.86,1.68,6.05.29Z"/>
              </g>
              <g>
                <g>
                  <g>
                    <g>
                      <path class="cls-11" d="m166.87,208.3s.83,18.57,1.09,26.39c.25,7.74.56,13.21.77,20.95.14,5.25.13,13.28.13,13.28l6.02.65s.45-6.42,2.05-13.45c1.76-7.75,4.71-17.89,5.26-24.25.67-7.8-2.35-23.57-2.35-23.57h-12.97Z"/>
                      <g>
                        <path class="cls-11" d="m167.48,148.81c0-5.92,4.8-10.73,10.73-10.73,5.92,0,10.73,4.8,10.73,10.73,0,0,0,4.6,0,4.6,0,12.3.21,22.35-8.39,48.67-.34,1.04-.59,1.97-.76,2.78-.03.12.09,3.31.06,3.44h-12.97c.09-.98.17-36.14.17-41.54,0-8.38.43-16.39.43-17.96Z"/>
                        <circle class="cls-11" cx="178.2" cy="148.81" r="10.73"/>
                      </g>
                      <circle class="cls-11" cx="173.36" cy="208.22" r="6.48"/>
                      <circle class="cls-11" cx="171.82" cy="269.74" r="3.1"/>
                    </g>
                    <g>
                      <path class="cls-11" d="m153.16,283.16c.38.22,1.34,1.04,3.61,1.26,1.57.15,3.17-.59,3.61-.76,2.03-.76,4.92-1.36,6.87-2.38s4.04-2.1,5.16-2.45c1.86-.58,3.53-1.06,4.24-3.07.7-2-1.59-4.91-1.63-6.36,0,0-6.31-.53-6.31-.52-.47,2.32-6.47,4.8-11.36,10.09-1.17,1.26-4.2,1.22-5.71,1.68-4.14,1.1-.26,3.01,1.51,2.5Z"/>
                      <g>
                        <polygon class="cls-17" points="174.42 284.06 172.72 284.06 171.87 277.3 175.45 276.42 176.91 277.17 174.42 284.06"/>
                        <path class="cls-19" d="m149.32,283.37c2.43,1.55,10.16,1.52,13.35.92,2.55-.48,4.74-2.55,6.82-3.92,2.51-1.65,4.55-2.44,7.42-3.21.52-1.25.55-2.38.44-3-.23-1.28-1.93-4.79-2.33-4.77-.47,0-6.33,7.26-13.69,9.55-1.25.39-3.3.05-3.19-.54,0,0-4.36,1.42-6.78,1.71-2.27.27-2.04,3.25-2.04,3.25Z"/>
                      </g>
                    </g>
                  </g>
                  <g>
                    <g>
                      <path class="cls-11" d="m185.71,208.78s.83,18.57,1.09,26.39c.25,7.74.56,13.21.77,20.95.14,5.25.13,13.28.13,13.28l6.02.65s.45-6.42,2.05-13.45c1.76-7.75,4.71-17.89,5.26-24.25.67-7.8-2.35-23.57-2.35-23.57h-12.97Z"/>
                      <g>
                        <path class="cls-11" d="m186.32,149.29c0-5.92,4.8-10.73,10.73-10.73,5.92,0,10.73,4.8,10.73,10.73,0,0,0,4.6,0,4.6,0,12.3.21,22.35-8.39,48.67-.34,1.04-.59,1.97-.76,2.78-.03.12.09,3.31.06,3.44h-12.97c.09-.98.17-36.14.17-41.54,0-8.38.43-16.39.43-17.96Z"/>
                        <circle class="cls-11" cx="197.04" cy="149.29" r="10.73"/>
                      </g>
                      <circle class="cls-11" cx="192.2" cy="208.71" r="6.48"/>
                      <circle class="cls-11" cx="190.66" cy="270.22" r="3.1"/>
                    </g>
                    <g>
                      <path class="cls-11" d="m172,283.64c.38.22,1.34,1.04,3.61,1.26,1.57.15,3.17-.59,3.61-.76,2.03-.76,4.92-1.36,6.87-2.38,2.01-1.05,4.04-2.1,5.16-2.45,1.86-.58,3.53-1.06,4.24-3.07.7-2-1.59-4.91-1.63-6.36,0,0-6.31-.53-6.31-.52-.47,2.32-6.47,4.8-11.36,10.09-1.17,1.26-4.2,1.22-5.71,1.68-4.14,1.1-.26,3.01,1.51,2.5Z"/>
                      <g>
                        <polygon class="cls-17" points="193.26 284.54 191.56 284.54 190.71 277.78 194.29 276.9 195.75 277.65 193.26 284.54"/>
                        <path class="cls-19" d="m168.16,283.86c2.43,1.55,10.16,1.52,13.35.92,2.55-.48,4.74-2.55,6.82-3.92,2.51-1.65,4.55-2.44,7.42-3.21.52-1.25.55-2.38.44-3-.23-1.28-1.93-4.79-2.33-4.77-.47,0-6.33,7.26-13.69,9.55-1.25.39-3.3.05-3.19-.54,0,0-4.36,1.42-6.78,1.71-2.27.27-2.04,3.25-2.04,3.25Z"/>
                      </g>
                    </g>
                  </g>
                  <g>
                    <path class="cls-11" d="m198.46,122.38h-26.48s-9.34,19.47-9.14,24.53l19.61,10.55c1.65,1.23,3.88,1.23,5.52,0l18.19-9.43c.21-5.06-7.71-25.65-7.71-25.65Z"/>
                    <path class="cls-11" d="m171.96,121.85c0-7.32,5.92-13.25,13.23-13.25s13.27,5.94,13.27,13.26-5.96,13.25-13.27,13.25-13.23-5.93-13.23-13.25Z"/>
                  </g>
                  <g>
                    <path class="cls-17" d="m179.51,73.07c1.98.13,4.02.12,6-.12.66-.08,1.38-.14,2-.42.15-.07,1.72-1.21,1.51-1.35.56.37,1.45.64,2.11.4.69-.25.91-1.02,1.68-1.18.62-.13,1.15.1,1.82-.1.88-.27,1.58-.65,2.54-.67,1.02-.02,2.22.17,2.92-.58.73-.78.61-2.32,1.63-2.64.48-.15,1.04.07,1.5-.14,1.1-.51.17-2.42.98-3.32.31-.35.82-.46,1.17-.77,1-.91.05-2.62.5-3.9.27-.77,1.03-1.29,1.34-2.05.67-1.67-1.1-3.65-.33-5.28.22-.47.64-.83.94-1.26.57-.82.7-1.93.34-2.86-.4-1.04-1.36-1.84-1.53-2.94-.09-.59.07-1.19.1-1.79.08-1.52-.73-3.06-2.03-3.85-1.03-.63-2.45-.96-2.81-2.11-.08-.26-.09-.54-.16-.81-.3-1.14-1.5-1.76-2.58-2.25-.58-.26-1.17-.54-1.65-.97-.33-.3-.59-.67-.9-.99-1.37-1.39-3.75-1.62-5.36-.52-.57-.84-.95-1.75-1.62-2.51-.66-.74-1.37-1.43-2.22-1.94-1.25-.74-2.87-1.03-4.15-.34-.38.2-.72.49-1.13.63-1.71.62-3.68-1.38-5.29-.54-.35.18-.63.49-.96.71-.93.62-2.13.56-3.25.63-1.11.07-2.39.44-2.81,1.48-.19.47-.17,1-.35,1.48-.71,1.84-3.88,1.7-4.5,3.58-.22.67-.03,1.43-.25,2.11-.55,1.64-3.21,1.94-3.48,3.65-.14.84.42,1.72.17,2.54-.34,1.13-1.93,1.4-2.46,2.45-.63,1.27.63,2.72.55,4.14-.08,1.47-1.59,2.63-1.5,4.1.1,1.58,1.98,2.51,2.34,4.05.2.83-.08,1.7-.21,2.54-.13.85-.05,1.85.65,2.35.36.26.83.34,1.24.5.83.33,1.49,1.07,1.74,1.93.15.53.15,1.12.45,1.58.77,1.22,2.69.67,4.02,1.24.86.37,1.39,1.19,2.05,1.8.78.71,1.46,1.5,2.22,2.23.95.92,1.85,1.09,3.07,1.36,1.34.3,2.61.6,3.99.69Z"/>
                    <path class="cls-17" d="m206.03,57.45c-.14,0-.28-.07-.36-.19-.13-.2-.07-.47.12-.6.85-.55,1.72-1.13,1.86-2.02.1-.65-.24-1.3-.57-1.93l-.06-.11c-.58-1.12-.67-1.94-.33-2.59.22-.42.59-.68.95-.94.25-.18.48-.34.66-.55.61-.71.51-1.75.21-2.49-.26-.66-.7-1.26-1.13-1.83-.14-.19-.27-.37-.39-.54-.15-.21-.29-.44-.33-.71-.04-.25.02-.48.07-.69h.45s-.42-.11-.42-.11c.33-1.47,0-2.52-1.17-3.62-.77-.72-1.62-1.37-2.53-1.9-.22-.13-.49-.29-.63-.55-.14-.26-.13-.55-.12-.81v-.14c.03-.97-.45-1.7-1.43-2.19-.36-.18-.75-.31-1.13-.44-.36-.12-.72-.25-1.05-.4-.29-.13-.65-.33-.9-.66-.14-.2-.23-.41-.31-.62-.05-.14-.11-.27-.18-.4-.28-.5-.88-.84-1.6-.9-1.6-.15-3.07.71-4.37,1.46-.21.12-.47.05-.59-.16-.12-.21-.05-.47.16-.59,1.41-.82,3-1.74,4.88-1.57,1,.09,1.85.59,2.27,1.33.09.16.16.33.23.5.07.18.13.33.21.44.13.18.37.3.57.39.3.14.63.25.95.36.43.15.85.29,1.25.49,1.26.63,1.94,1.69,1.91,2.98v.16c-.01.13-.02.31,0,.36.03.06.2.16.3.22.97.58,1.88,1.26,2.69,2.03,1.38,1.3,1.82,2.67,1.42,4.44,0,0-.03.12-.03.12-.03.14-.07.28-.06.36.02.1.12.25.19.35.12.17.25.35.37.51.47.63.94,1.27,1.24,2.04.39.97.5,2.37-.36,3.37-.25.29-.54.5-.81.69-.3.22-.56.41-.69.65-.2.37-.1.94.3,1.71l.09.18c.36.68.8,1.53.66,2.46-.19,1.28-1.33,2.02-2.23,2.61-.07.05-.15.07-.24.07Z"/>
                    <path class="cls-17" d="m164.48,62.58c-.08,0-.15-.02-.22-.06-.52-.31-1.12-.53-1.7-.74-.55-.2-1.11-.4-1.64-.69-1.27-.67-2.44-2.02-2.19-3.54.06-.39.21-.74.35-1.08.19-.46.35-.86.23-1.14-.09-.21-.34-.39-.64-.59-1.28-.85-2.71-2.05-2.5-3.72.11-.82.58-1.43,1.01-1.96.15-.19.29-.36.41-.54.43-.64.54-1.31.35-2.17-.2-.89-.28-1.71.7-2.63.23-.22.51-.39.76-.54.48-.3.78-.51.82-.79.03-.21-.1-.5-.25-.8l-.08-.17c-.53-1.13-.76-2.75.16-3.92.59-.75,1.48-1.08,2.26-1.37.3-.11.6-.22.88-.36.34-.16.55-.34.62-.51.1-.26.04-.6-.03-1-.08-.44-.16-.94-.04-1.46.25-1,.88-1.75,1.89-2.22.47-.22.95-.36,1.41-.49.31-.09.63-.18.93-.29.44-.16.7-.35.8-.56.1-.19.09-.47.09-.79,0-.36-.01-.76.13-1.17.46-1.31,2-1.66,3.29-1.55.16.01.32.03.48.05.83.09,1.6.17,2.16-.19.1-.06.19-.14.28-.22.21-.17.43-.36.73-.49,1.08-.47,2.07.21,2.86.76.2.14.39.27.58.38,1.07.64,2.53.58,3.54-.15.19-.14.46-.1.6.1.14.19.1.46-.1.6-1.28.93-3.13,1-4.49.2-.21-.12-.41-.26-.63-.42-.68-.47-1.38-.95-2.03-.68-.18.08-.34.21-.51.35-.13.11-.25.21-.37.29-.81.53-1.82.42-2.72.33-.16-.02-.31-.03-.46-.05-.97-.08-2.11.13-2.4.97-.09.26-.09.56-.08.87,0,.4.01.8-.18,1.18-.21.42-.61.74-1.27.98-.32.12-.66.22-.99.32-.44.13-.88.26-1.29.44-.77.36-1.24.89-1.42,1.64-.08.34-.02.71.05,1.1.09.49.17.98-.02,1.47-.16.39-.5.71-1.05.97-.3.14-.63.27-.95.39-.74.28-1.44.53-1.88,1.1-.68.87-.48,2.13-.06,3.02l.08.16c.2.41.4.83.33,1.31-.11.7-.7,1.07-1.22,1.39-.23.14-.46.28-.62.44-.67.63-.62,1.06-.45,1.82.24,1.08.08,2.01-.47,2.84-.13.2-.28.39-.44.59-.39.5-.76.96-.83,1.55-.15,1.21,1.06,2.18,2.13,2.9.4.27.77.54.95.97.26.62.01,1.22-.23,1.8-.12.3-.25.61-.3.9-.18,1.09.75,2.12,1.74,2.64.48.26,1.02.45,1.53.64.63.23,1.27.46,1.85.81.2.12.27.39.15.59-.08.14-.22.21-.37.21Z"/>
                  </g>
                  <g>
                    <path class="cls-22" d="m203.14,76.33l-22.73-5.72-14.61,6.08c2.01,6.14,1.66,13.01,1.66,13.01.37,3.91,2.08,14.05,3.22,20.36,1.16,6.41,1.28,12.34,1.28,12.34h26.5s-1.01-6.84-.51-13.97c.87-12.37,5.88-28.03,5.18-32.1Z"/>
                    <g>
                      <circle class="cls-22" cx="183.11" cy="76.14" r="7.25"/>
                      <polygon class="cls-22" points="190.26 75 175.95 75.01 175.95 75.01 176.27 72.85 176.53 71.06 177.02 67.75 177.38 65.33 177.44 64.87 177.55 64.14 178.05 60.72 188.2 60.73 188.77 64.68 188.86 65.3 188.94 65.8 189 66.24 189.07 66.73 190.23 74.8 190.23 74.8 190.26 75"/>
                      <circle class="cls-21" cx="183.11" cy="60.73" r="5.07"/>
                      <path class="cls-20" d="m189.07,66.73l-.81,1.36c-.4.68-.88,1.29-1.4,1.84-1.76,1.85-4.14,2.92-6.64,2.92h-3.94l.26-1.79.49-3.31,1.15-7.79,9.9-.28.93,6.55.07.49Z"/>
                    </g>
                    <path class="cls-18" d="m191.27,70.3s0,0-.01,0c-.02,0,0,0,.01,0Z"/>
                  </g>
                  <g>
                    <g>
                      <circle class="cls-17" cx="181.63" cy="45.97" r="16.91"/>
                      <g>
                        <path class="cls-22" d="m193.6,46.98c0-6.87-5.67-12.41-12.55-12.1-6,.27-10.93,5.05-11.42,11.09-.13,1.64.23,4.07.23,4.07,0,0,1.37,9.94,1.51,10.69.46,2.45,5.03,7.07,6.99,8.19.81.46,2.68.28,3.57,0,2.58-.8,9.43-5.74,9.89-8.19.14-.75,1.22-10.08,1.22-10.08h0c.36-1.16.56-2.39.56-3.67Z"/>
                        <path class="cls-22" d="m193.03,50.47s4.79-1.1,3.83,2.87c-1.15,4.76-5,4.2-5,4.2l1.17-7.07Z"/>
                        <path class="cls-22" d="m171.96,50.59s-4.63-1.22-3.67,2.75c1.15,4.76,4.45,4.22,4.45,4.22l-.78-6.97Z"/>
                      </g>
                      <path class="cls-17" d="m187.12,35.51s.04,0,.06.01c1.18.22,2.25.79,3.25,1.42.89.57,1.87.81,2.48,1.74.77,1.18,1.14,2.71,1.49,3.95.45,1.6.93,3.27.7,4.95-.2,1.47-.97,2.85-2.07,3.84-.35.31-.79.77-1.23.24-.34-.41-.15-.82.04-1.22.14-.29.16-.62.31-.92.16-.35.42-.7.35-1.11-.07-.37-.39-.64-.62-.95-.28-.38-.4-.87-.35-1.33.05-.45.25-.97-.05-1.31-.26-.29-.72-.25-1.06-.44-.41-.22-.56-.71-.71-1.15-.15-.44-.39-.92-.84-1.02-.26-.06-.53.02-.78-.06-.39-.13-.55-.57-.81-.88-.31-.37-.81-.58-1.29-.54-.17.01-.34.06-.51.03-.61-.11-.7-1.03-1.25-1.32-.42-.22-.99,0-1.39-.26-.33-.21-.43-.66-.72-.92-.29-.25-.72-.27-1.07-.44-.35-.17-.8-.69-.71-1.12.08-.41.7-.69,1.06-.8.79-.25,1.62-.32,2.45-.4,1.09-.1,2.2-.2,3.28,0Z"/>
                      <path class="cls-17" d="m172.71,35.23c2.23-1.45,5.1-1.94,7.8-1.8,2.38.12,4.69,1.14,6.42,2.76.55.51,1.35,1.16.56,1.93-.6.59-1.29.36-1.96.1-.49-.18-1-.18-1.51-.36-.58-.21-1.18-.57-1.82-.4-.59.16-.96.72-1.42,1.12-.57.49-1.33.76-2.08.74-.73-.02-1.58-.26-2.08.26-.43.45-.3,1.19-.55,1.76-.3.68-1.06,1-1.73,1.3-.68.3-1.41.76-1.51,1.49-.06.42.1.85,0,1.25-.15.63-.82.96-1.28,1.42-.55.55-.81,1.37-.68,2.13.05.27.14.53.11.81-.09.99-1.54,1.26-1.93,2.18-.3.71.13,1.58-.22,2.26-.29.56-1,.77-1.37,1.28-.16.22-2.95-3.83-2.07-8.03,1.16-5.57,2-8.73,7.31-12.2Z"/>
                    </g>
                    <g>
                      <ellipse class="cls-17" cx="174.32" cy="51.7" rx="1.09" ry="1.54"/>
                      <path class="cls-17" d="m175.41,50.74c-1.28,0-1.89-.2-3.09-.14.44-1.4,2.67-1.17,3.09.14h0Z"/>
                      <ellipse class="cls-17" cx="185.14" cy="51.7" rx="1.09" ry="1.54"/>
                      <path class="cls-17" d="m187.15,50.74c-1.28,0-1.89-.2-3.09-.14.44-1.4,2.67-1.17,3.09.14h0Z"/>
                      <path class="cls-17" d="m170.5,48.89c-.11.03-.18-.1-.11-.18.44-.47,1.47-1.42,2.7-1.64s3.11-.12,4.05-.05c.48.04.86.43.87.91,0,0,0,.01,0,.02,0,.38-.24.55-.46.63-.16.06-.33.06-.49.04-.68-.1-3.48-.49-3.99-.35-.44.11-1.9.46-2.57.62Z"/>
                      <path class="cls-17" d="m188.98,48.89c.11.03.18-.1.11-.18-.44-.47-1.47-1.42-2.7-1.64-1.21-.22-3.11-.12-4.05-.05-.48.04-.86.43-.87.91,0,0,0,.01,0,.02,0,.38.24.55.46.63.16.06.33.06.49.04.68-.1,3.48-.49,3.99-.35.44.11,1.9.46,2.57.62Z"/>
                      <g>
                        <path class="cls-7" d="m176.48,60.95h6.41s-1.21,2.14-3.16,2.14-3.25-2.14-3.25-2.14Z"/>
                        <path class="cls-20" d="m179.73,60.35c-1.08-1.12-4.14.6-4.14.6,0,0,2.62.71,4.14.71s4.14-.71,4.14-.71c0,0-3.06-1.73-4.14-.6Z"/>
                        <path class="cls-20" d="m183.87,60.95l-1.26.3-1.24.72c-1.02.59-2.28.6-3.3.02l-1.32-.75-1.16-.28c.8,2.02,2.27,2.89,3.23,3.26.59.23,1.23.22,1.82,0,.96-.37,2.43-1.24,3.23-3.26Z"/>
                      </g>
                      <path class="cls-3" d="m181.94,56.54s-.13.67-1.59.94c0,0-.03.02-.08.05-.36.22-.82.22-1.18,0-.05-.03-.08-.05-.08-.05-1.46-.27-1.59-.94-1.59-.94"/>
                    </g>
                  </g>
                </g>
                <g>
                  <path class="cls-13" d="m212.08,188.34s.02,0,.03-.01l-.03-.02c-.11-6.31-5.12-47.08-5.9-50.89-2.08-10.14-5.51-14.78-8.25-18.46v-2.38c0-2.38.35-4.73,1.03-6.98.66-2.16,1.25-5.07,1.77-7.44,1.43-2.64,1.52-6.15-.06-9.32-.15-.31-.32-.6-.49-.89l4.22-15.75-11.4-3.7-.03.48c-.37,5.3-4.78,9.45-10.04,9.46-5.27,0-9.68-4.16-10.04-9.46l-.03-.48-7.68,2.94s2.33,12.59,2.21,12.91c-2.75,7.63-.24,12.14,1.37,13.8.52,2.38,1.11,5.28,1.77,7.44.69,2.25,1.03,4.6,1.03,6.98v2.38c-2.74,3.68-6.16,8.32-8.25,18.46-.78,3.81-5.81,44.75-5.9,50.93h.13l-.03.04c6.13,2.72,16.05,4.48,27.24,4.48s21.2-1.78,27.32-4.52h.02s0,0,0,0Z"/>
                  <path class="cls-13" d="m197.1,119.59c-2.82,1.4-7.3,2.3-12.34,2.3s-9.45-.89-12.27-2.26"/>
                </g>
                <g>
                  <g>
                    <g>
                      <path class="cls-22" d="m202.7,113.14l-5.93,1.84c-1.33.48-2.64,1.03-3.9,1.66-2.07,1.04-4.09,2.18-6.04,3.43l-13.04,8.36,2.55,5.3s4.83-2.37,9.48-4.16c7.71-2.97,18.48-6.26,20.88-8.88l-4-7.54Z"/>
                      <circle class="cls-11" cx="174.9" cy="131.16" r="2.95"/>
                    </g>
                    <circle class="cls-11" cx="203.74" cy="117.44" r="4.41"/>
                    <g>
                      <g>
                        <path class="cls-22" d="m174.08,128.31s-5.76-2.36-10.4-1.59c0,0,1.14,2.65-.45,3.45-1.25.63-1.76,5.09.93,7.62,1.25,1.17,3.3,1.36,4.98.48,1.86-.97,5.13-2.91,7.03-4.45l-2.1-5.52Z"/>
                        <g>
                          <ellipse class="cls-22" cx="164" cy="128.37" rx="1.67" ry="1.68" transform="translate(-22.75 36.17) rotate(-11.78)"/>
                          <path class="cls-22" d="m160.22,129.99s1-.28,3.88.06l-.56-3.29s-3.68,1.15-6.11,1.87c-.45.13-.53.74-.13.99h0c.67.43,1.47.6,2.26.48l.66-.1Z"/>
                        </g>
                        <g>
                          <g>
                            <path class="cls-22" d="m159.08,141.56c-.38.04-.67-.33-.54-.68h0c.26-.74.89-1.3,1.66-1.46s1.86-.37,2.93-.56l.46,2.22-4.52.49Z"/>
                            <ellipse class="cls-22" cx="163.46" cy="139.93" rx="1.13" ry="1.13" transform="translate(-25.12 36.3) rotate(-11.78)"/>
                          </g>
                          <g>
                            <g>
                              <ellipse class="cls-22" cx="167.74" cy="137.47" rx="1.28" ry="1.29" transform="translate(-24.53 37.13) rotate(-11.78)"/>
                              <path class="cls-22" d="m164.01,140.94l4.35-2.33-1.24-2.26s-2.25,1.36-4.37,2.71l1.26,1.89Z"/>
                            </g>
                            <ellipse class="cls-22" cx="163.46" cy="139.93" rx="1.13" ry="1.13" transform="translate(-25.12 36.3) rotate(-11.78)"/>
                          </g>
                        </g>
                        <g>
                          <g>
                            <path class="cls-22" d="m151.86,138.78c-.37.06-.67-.29-.57-.65h0c.22-.75.83-1.32,1.59-1.49,2-.44,5.76-1.19,7.13-1.51l.58,2.19-8.73,1.45Z"/>
                            <ellipse class="cls-22" cx="160.39" cy="136.19" rx="1.13" ry="1.13" transform="translate(-24.42 35.6) rotate(-11.78)"/>
                          </g>
                          <g>
                            <g>
                              <ellipse class="cls-22" cx="164.63" cy="133.66" rx="1.28" ry="1.29" transform="translate(-23.81 36.41) rotate(-11.78)"/>
                              <path class="cls-22" d="m160.96,137.19l4.31-2.41-1.28-2.24s-2.22,1.4-4.32,2.78l1.29,1.86Z"/>
                            </g>
                            <ellipse class="cls-22" cx="160.39" cy="136.19" rx="1.13" ry="1.13" transform="translate(-24.42 35.6) rotate(-11.78)"/>
                          </g>
                        </g>
                        <g>
                          <g>
                            <path class="cls-22" d="m159.47,132.83l.46,2.22-8.18.92c-.37.04-.66-.32-.53-.67l.1-.28c.2-.56.68-.98,1.27-1.08,1.79-.31,5.45-.85,6.89-1.11Z"/>
                            <ellipse class="cls-22" cx="159.8" cy="133.91" rx="1.13" ry="1.13" transform="translate(-23.97 35.43) rotate(-11.78)"/>
                          </g>
                          <g>
                            <g>
                              <ellipse class="cls-22" cx="163.95" cy="131.23" rx="1.28" ry="1.29" transform="translate(-23.33 36.22) rotate(-11.78)"/>
                              <path class="cls-22" d="m160.4,134.89l4.23-2.56-1.35-2.19s-2.17,1.48-4.22,2.93l1.35,1.82Z"/>
                            </g>
                            <ellipse class="cls-22" cx="159.8" cy="133.91" rx="1.13" ry="1.13" transform="translate(-23.97 35.43) rotate(-11.78)"/>
                          </g>
                        </g>
                        <g>
                          <g>
                            <ellipse class="cls-22" cx="160.92" cy="138.6" rx="1.13" ry="1.13" transform="translate(-24.9 35.76) rotate(-11.78)"/>
                            <g>
                              <g>
                                <ellipse class="cls-22" cx="165.16" cy="136.06" rx="1.28" ry="1.29" transform="translate(-24.29 36.57) rotate(-11.78)"/>
                                <path class="cls-22" d="m161.49,139.59l4.31-2.41-1.28-2.24s-2.22,1.4-4.32,2.78l1.29,1.86Z"/>
                              </g>
                              <ellipse class="cls-22" cx="160.92" cy="138.6" rx="1.13" ry="1.13" transform="translate(-24.9 35.76) rotate(-11.78)"/>
                            </g>
                          </g>
                          <path class="cls-22" d="m154.45,141.07c-.35.07-.65-.25-.56-.59h0c.2-.79.81-1.41,1.59-1.62,1.47-.4,3.77-.97,5.02-1.31l.65,2.17-6.71,1.35Z"/>
                        </g>
                      </g>
                      <circle class="cls-22" cx="174.92" cy="131.15" r="2.96"/>
                    </g>
                  </g>
                  <g>
                    <path class="cls-22" d="m196.05,82.77s.77,13.92,3.46,35.39c.27,2.19,2.27,3.8,4.57,3.68h0c2.61-.15,4.16-2.44,4.04-4.96-.84-19.11.27-34.79.27-34.79l-12.34.69Z"/>
                    <circle class="cls-11" cx="202.22" cy="82.42" r="6.18"/>
                    <circle class="cls-22" cx="203.74" cy="117.44" r="4.41"/>
                  </g>
                </g>
                <path class="cls-12" d="m197.15,104.51c-.26-9.04-.81-17.76-1.11-21.06-.1-.48-.15-.97-.14-1.46.04-1.69.73-3.27,1.96-4.44,1.22-1.17,2.83-1.79,4.52-1.76.33,0,.67.04.99.1,3.09.56,5.27,3.24,5.21,6.38,0,.11.82,22.41.82,22.41l-6.16.62-6.1-.81Z"/>
              </g>
              <g>
                <g>
                  <path class="cls-22" d="m161.39,112.62l-6.19.55c-1.4.18-2.79.45-4.16.8-2.24.58-4.46,1.27-6.63,2.08l-14.5,5.42,1.37,5.72s5.22-1.3,10.15-2.07c8.16-1.28,19.38-2.23,22.28-4.28l-2.32-8.22Z"/>
                  <circle class="cls-22" cx="130.43" cy="124.38" r="2.95"/>
                </g>
                <circle class="cls-22" cx="161.51" cy="117.03" r="4.41"/>
                <g>
                  <g>
                    <path class="cls-22" d="m130.23,121.41s-5.13-3.52-9.84-3.74c0,0,.56,2.83-1.16,3.28-1.36.35-2.8,4.61-.69,7.65.97,1.4,2.94,2.02,4.77,1.52,2.02-.55,5.63-1.76,7.81-2.87l-.89-5.83Z"/>
                    <g>
                      <ellipse class="cls-22" cx="120.35" cy="119.35" rx="1.68" ry="1.67" transform="translate(.21 238.91) rotate(-89.62)"/>
                      <path class="cls-22" d="m116.32,120.14s1.04-.06,3.78.87l.15-3.34s-3.84.35-6.37.54c-.47.04-.67.61-.34.94h0c.57.56,1.31.89,2.11.94l.67.04Z"/>
                    </g>
                    <g>
                      <g>
                        <path class="cls-22" d="m112.77,131.21c-.38-.04-.58-.46-.38-.78h0c.41-.67,1.14-1.08,1.93-1.08s1.89.03,2.99.07v2.27s-4.53-.47-4.53-.47Z"/>
                        <ellipse class="cls-22" cx="117.39" cy="130.54" rx="1.13" ry="1.13" transform="translate(-13.93 247.07) rotate(-89.62)"/>
                      </g>
                      <g>
                        <g>
                          <ellipse class="cls-22" cx="122.1" cy="129.04" rx="1.29" ry="1.28" transform="translate(-7.75 250.28) rotate(-89.62)"/>
                          <path class="cls-22" d="m117.72,131.64l4.75-1.37-.74-2.47s-2.48.86-4.84,1.72l.83,2.11Z"/>
                        </g>
                        <ellipse class="cls-22" cx="117.39" cy="130.54" rx="1.13" ry="1.13" transform="translate(-13.93 247.07) rotate(-89.62)"/>
                      </g>
                    </g>
                    <g>
                      <g>
                        <path class="cls-22" d="m106.3,126.97c-.37-.02-.6-.42-.42-.75h0c.37-.69,1.09-1.12,1.87-1.12,2.05-.01,5.88.05,7.28.02l.1,2.27-8.84-.42Z"/>
                        <ellipse class="cls-22" cx="115.18" cy="126.24" rx="1.13" ry="1.13" transform="translate(-11.82 240.59) rotate(-89.62)"/>
                      </g>
                      <g>
                        <g>
                          <ellipse class="cls-22" cx="119.86" cy="124.66" rx="1.29" ry="1.28" transform="translate(-5.58 243.69) rotate(-89.62)"/>
                          <path class="cls-22" d="m115.53,127.33l4.72-1.45-.78-2.45s-2.47.9-4.81,1.81l.87,2.09Z"/>
                        </g>
                        <ellipse class="cls-22" cx="115.18" cy="126.24" rx="1.13" ry="1.13" transform="translate(-11.82 240.59) rotate(-89.62)"/>
                      </g>
                    </g>
                    <g>
                      <g>
                        <path class="cls-22" d="m114.99,122.76v2.27s-8.21-.82-8.21-.82c-.37-.04-.58-.45-.38-.77l.16-.25c.31-.51.87-.81,1.47-.79,1.81.07,5.51.32,6.97.37Z"/>
                        <ellipse class="cls-22" cx="115.08" cy="123.89" rx="1.13" ry="1.13" transform="translate(-9.57 238.15) rotate(-89.62)"/>
                      </g>
                      <g>
                        <g>
                          <ellipse class="cls-22" cx="119.7" cy="122.14" rx="1.29" ry="1.28" transform="translate(-3.22 241.03) rotate(-89.62)"/>
                          <path class="cls-22" d="m115.46,124.97l4.67-1.61-.86-2.43s-2.44.99-4.75,1.98l.94,2.06Z"/>
                        </g>
                        <ellipse class="cls-22" cx="115.08" cy="123.89" rx="1.13" ry="1.13" transform="translate(-9.57 238.15) rotate(-89.62)"/>
                      </g>
                    </g>
                    <g>
                      <g>
                        <ellipse class="cls-22" cx="115.19" cy="128.7" rx="1.13" ry="1.13" transform="translate(-14.27 243.04) rotate(-89.62)"/>
                        <g>
                          <g>
                            <ellipse class="cls-22" cx="119.87" cy="127.12" rx="1.29" ry="1.28" transform="translate(-8.03 246.15) rotate(-89.62)"/>
                            <path class="cls-22" d="m115.54,129.79l4.72-1.45-.78-2.45s-2.47.9-4.81,1.81l.87,2.09Z"/>
                          </g>
                          <ellipse class="cls-22" cx="115.19" cy="128.7" rx="1.13" ry="1.13" transform="translate(-14.27 243.04) rotate(-89.62)"/>
                        </g>
                      </g>
                      <path class="cls-22" d="m108.34,129.75c-.35,0-.58-.38-.42-.7h0c.36-.73,1.09-1.21,1.89-1.25,1.52-.08,3.89-.15,5.19-.22l.18,2.26-6.84-.09Z"/>
                    </g>
                  </g>
                  <circle class="cls-22" cx="130.44" cy="124.37" r="2.96"/>
                </g>
              </g>
            </g>
          </g>
        </g>
        <g>
          <g>
            <g>
              <path class="cls-11" d="m166.87,208.3s.83,18.57,1.09,26.39c.25,7.74.56,13.21.77,20.95.14,5.25.13,13.28.13,13.28l6.02.65s.45-6.42,2.05-13.45c1.76-7.75,4.71-17.89,5.26-24.25.67-7.8-2.35-23.57-2.35-23.57h-12.97Z"/>
              <g>
                <path class="cls-11" d="m167.48,148.81c0-5.92,4.8-10.73,10.73-10.73,5.92,0,10.73,4.8,10.73,10.73,0,0,0,4.6,0,4.6,0,12.3.21,22.35-8.39,48.67-.34,1.04-.59,1.97-.76,2.78-.03.12.09,3.31.06,3.44h-12.97c.09-.98.17-36.14.17-41.54,0-8.38.43-16.39.43-17.96Z"/>
                <circle class="cls-11" cx="178.2" cy="148.81" r="10.73"/>
              </g>
              <circle class="cls-11" cx="173.36" cy="208.22" r="6.48"/>
              <circle class="cls-11" cx="171.82" cy="269.74" r="3.1"/>
            </g>
            <g>
              <path class="cls-11" d="m153.16,283.16c.38.22,1.34,1.04,3.61,1.26,1.57.15,3.17-.59,3.61-.76,2.03-.76,4.92-1.36,6.87-2.38s4.04-2.1,5.16-2.45c1.86-.58,3.53-1.06,4.24-3.07.7-2-1.59-4.91-1.63-6.36,0,0-6.31-.53-6.31-.52-.47,2.32-6.47,4.8-11.36,10.09-1.17,1.26-4.2,1.22-5.71,1.68-4.14,1.1-.26,3.01,1.51,2.5Z"/>
              <g>
                <polygon class="cls-17" points="174.42 284.06 172.72 284.06 171.87 277.3 175.45 276.42 176.91 277.17 174.42 284.06"/>
                <path class="cls-19" d="m149.32,283.37c2.43,1.55,10.16,1.52,13.35.92,2.55-.48,4.74-2.55,6.82-3.92,2.51-1.65,4.55-2.44,7.42-3.21.52-1.25.55-2.38.44-3-.23-1.28-1.93-4.79-2.33-4.77-.47,0-6.33,7.26-13.69,9.55-1.25.39-3.3.05-3.19-.54,0,0-4.36,1.42-6.78,1.71-2.27.27-2.04,3.25-2.04,3.25Z"/>
              </g>
            </g>
          </g>
          <g>
            <g>
              <path class="cls-11" d="m185.71,208.78s.83,18.57,1.09,26.39c.25,7.74.56,13.21.77,20.95.14,5.25.13,13.28.13,13.28l6.02.65s.45-6.42,2.05-13.45c1.76-7.75,4.71-17.89,5.26-24.25.67-7.8-2.35-23.57-2.35-23.57h-12.97Z"/>
              <g>
                <path class="cls-11" d="m186.32,149.29c0-5.92,4.8-10.73,10.73-10.73,5.92,0,10.73,4.8,10.73,10.73,0,0,0,4.6,0,4.6,0,12.3.21,22.35-8.39,48.67-.34,1.04-.59,1.97-.76,2.78-.03.12.09,3.31.06,3.44h-12.97c.09-.98.17-36.14.17-41.54,0-8.38.43-16.39.43-17.96Z"/>
                <circle class="cls-11" cx="197.04" cy="149.29" r="10.73"/>
              </g>
              <circle class="cls-11" cx="192.2" cy="208.71" r="6.48"/>
              <circle class="cls-11" cx="190.66" cy="270.22" r="3.1"/>
            </g>
            <g>
              <path class="cls-11" d="m172,283.64c.38.22,1.34,1.04,3.61,1.26,1.57.15,3.17-.59,3.61-.76,2.03-.76,4.92-1.36,6.87-2.38,2.01-1.05,4.04-2.1,5.16-2.45,1.86-.58,3.53-1.06,4.24-3.07.7-2-1.59-4.91-1.63-6.36,0,0-6.31-.53-6.31-.52-.47,2.32-6.47,4.8-11.36,10.09-1.17,1.26-4.2,1.22-5.71,1.68-4.14,1.1-.26,3.01,1.51,2.5Z"/>
              <g>
                <polygon class="cls-17" points="193.26 284.54 191.56 284.54 190.71 277.78 194.29 276.9 195.75 277.65 193.26 284.54"/>
                <path class="cls-19" d="m168.16,283.86c2.43,1.55,10.16,1.52,13.35.92,2.55-.48,4.74-2.55,6.82-3.92,2.51-1.65,4.55-2.44,7.42-3.21.52-1.25.55-2.38.44-3-.23-1.28-1.93-4.79-2.33-4.77-.47,0-6.33,7.26-13.69,9.55-1.25.39-3.3.05-3.19-.54,0,0-4.36,1.42-6.78,1.71-2.27.27-2.04,3.25-2.04,3.25Z"/>
              </g>
            </g>
          </g>
          <g>
            <path class="cls-17" d="m179.51,73.07c1.98.13,4.02.12,6-.12.66-.08,1.38-.14,2-.42.15-.07,1.72-1.21,1.51-1.35.56.37,1.45.64,2.11.4.69-.25.91-1.02,1.68-1.18.62-.13,1.15.1,1.82-.1.88-.27,1.58-.65,2.54-.67,1.02-.02,2.22.17,2.92-.58.73-.78.61-2.32,1.63-2.64.48-.15,1.04.07,1.5-.14,1.1-.51.17-2.42.98-3.32.31-.35.82-.46,1.17-.77,1-.91.05-2.62.5-3.9.27-.77,1.03-1.29,1.34-2.05.67-1.67-1.1-3.65-.33-5.28.22-.47.64-.83.94-1.26.57-.82.7-1.93.34-2.86-.4-1.04-1.36-1.84-1.53-2.94-.09-.59.07-1.19.1-1.79.08-1.52-.73-3.06-2.03-3.85-1.03-.63-2.45-.96-2.81-2.11-.08-.26-.09-.54-.16-.81-.3-1.14-1.5-1.76-2.58-2.25-.58-.26-1.17-.54-1.65-.97-.33-.3-.59-.67-.9-.99-1.37-1.39-3.75-1.62-5.36-.52-.57-.84-.95-1.75-1.62-2.51-.66-.74-1.37-1.43-2.22-1.94-1.25-.74-2.87-1.03-4.15-.34-.38.2-.72.49-1.13.63-1.71.62-3.68-1.38-5.29-.54-.35.18-.63.49-.96.71-.93.62-2.13.56-3.25.63-1.11.07-2.39.44-2.81,1.48-.19.47-.17,1-.35,1.48-.71,1.84-3.88,1.7-4.5,3.58-.22.67-.03,1.43-.25,2.11-.55,1.64-3.21,1.94-3.48,3.65-.14.84.42,1.72.17,2.54-.34,1.13-1.93,1.4-2.46,2.45-.63,1.27.63,2.72.55,4.14-.08,1.47-1.59,2.63-1.5,4.1.1,1.58,1.98,2.51,2.34,4.05.2.83-.08,1.7-.21,2.54-.13.85-.05,1.85.65,2.35.36.26.83.34,1.24.5.83.33,1.49,1.07,1.74,1.93.15.53.15,1.12.45,1.58.77,1.22,2.69.67,4.02,1.24.86.37,1.39,1.19,2.05,1.8.78.71,1.46,1.5,2.22,2.23.95.92,1.85,1.09,3.07,1.36,1.34.3,2.61.6,3.99.69Z"/>
            <path class="cls-17" d="m206.03,57.45c-.14,0-.28-.07-.36-.19-.13-.2-.07-.47.12-.6.85-.55,1.72-1.13,1.86-2.02.1-.65-.24-1.3-.57-1.93l-.06-.11c-.58-1.12-.67-1.94-.33-2.59.22-.42.59-.68.95-.94.25-.18.48-.34.66-.55.61-.71.51-1.75.21-2.49-.26-.66-.7-1.26-1.13-1.83-.14-.19-.27-.37-.39-.54-.15-.21-.29-.44-.33-.71-.04-.25.02-.48.07-.69h.45s-.42-.11-.42-.11c.33-1.47,0-2.52-1.17-3.62-.77-.72-1.62-1.37-2.53-1.9-.22-.13-.49-.29-.63-.55-.14-.26-.13-.55-.12-.81v-.14c.03-.97-.45-1.7-1.43-2.19-.36-.18-.75-.31-1.13-.44-.36-.12-.72-.25-1.05-.4-.29-.13-.65-.33-.9-.66-.14-.2-.23-.41-.31-.62-.05-.14-.11-.27-.18-.4-.28-.5-.88-.84-1.6-.9-1.6-.15-3.07.71-4.37,1.46-.21.12-.47.05-.59-.16-.12-.21-.05-.47.16-.59,1.41-.82,3-1.74,4.88-1.57,1,.09,1.85.59,2.27,1.33.09.16.16.33.23.5.07.18.13.33.21.44.13.18.37.3.57.39.3.14.63.25.95.36.43.15.85.29,1.25.49,1.26.63,1.94,1.69,1.91,2.98v.16c-.01.13-.02.31,0,.36.03.06.2.16.3.22.97.58,1.88,1.26,2.69,2.03,1.38,1.3,1.82,2.67,1.42,4.44,0,0-.03.12-.03.12-.03.14-.07.28-.06.36.02.1.12.25.19.35.12.17.25.35.37.51.47.63.94,1.27,1.24,2.04.39.97.5,2.37-.36,3.37-.25.29-.54.5-.81.69-.3.22-.56.41-.69.65-.2.37-.1.94.3,1.71l.09.18c.36.68.8,1.53.66,2.46-.19,1.28-1.33,2.02-2.23,2.61-.07.05-.15.07-.24.07Z"/>
            <path class="cls-17" d="m164.48,62.58c-.08,0-.15-.02-.22-.06-.52-.31-1.12-.53-1.7-.74-.55-.2-1.11-.4-1.64-.69-1.27-.67-2.44-2.02-2.19-3.54.06-.39.21-.74.35-1.08.19-.46.35-.86.23-1.14-.09-.21-.34-.39-.64-.59-1.28-.85-2.71-2.05-2.5-3.72.11-.82.58-1.43,1.01-1.96.15-.19.29-.36.41-.54.43-.64.54-1.31.35-2.17-.2-.89-.28-1.71.7-2.63.23-.22.51-.39.76-.54.48-.3.78-.51.82-.79.03-.21-.1-.5-.25-.8l-.08-.17c-.53-1.13-.76-2.75.16-3.92.59-.75,1.48-1.08,2.26-1.37.3-.11.6-.22.88-.36.34-.16.55-.34.62-.51.1-.26.04-.6-.03-1-.08-.44-.16-.94-.04-1.46.25-1,.88-1.75,1.89-2.22.47-.22.95-.36,1.41-.49.31-.09.63-.18.93-.29.44-.16.7-.35.8-.56.1-.19.09-.47.09-.79,0-.36-.01-.76.13-1.17.46-1.31,2-1.66,3.29-1.55.16.01.32.03.48.05.83.09,1.6.17,2.16-.19.1-.06.19-.14.28-.22.21-.17.43-.36.73-.49,1.08-.47,2.07.21,2.86.76.2.14.39.27.58.38,1.07.64,2.53.58,3.54-.15.19-.14.46-.1.6.1.14.19.1.46-.1.6-1.28.93-3.13,1-4.49.2-.21-.12-.41-.26-.63-.42-.68-.47-1.38-.95-2.03-.68-.18.08-.34.21-.51.35-.13.11-.25.21-.37.29-.81.53-1.82.42-2.72.33-.16-.02-.31-.03-.46-.05-.97-.08-2.11.13-2.4.97-.09.26-.09.56-.08.87,0,.4.01.8-.18,1.18-.21.42-.61.74-1.27.98-.32.12-.66.22-.99.32-.44.13-.88.26-1.29.44-.77.36-1.24.89-1.42,1.64-.08.34-.02.71.05,1.1.09.49.17.98-.02,1.47-.16.39-.5.71-1.05.97-.3.14-.63.27-.95.39-.74.28-1.44.53-1.88,1.1-.68.87-.48,2.13-.06,3.02l.08.16c.2.41.4.83.33,1.31-.11.7-.7,1.07-1.22,1.39-.23.14-.46.28-.62.44-.67.63-.62,1.06-.45,1.82.24,1.08.08,2.01-.47,2.84-.13.2-.28.39-.44.59-.39.5-.76.96-.83,1.55-.15,1.21,1.06,2.18,2.13,2.9.4.27.77.54.95.97.26.62.01,1.22-.23,1.8-.12.3-.25.61-.3.9-.18,1.09.75,2.12,1.74,2.64.48.26,1.02.45,1.53.64.63.23,1.27.46,1.85.81.2.12.27.39.15.59-.08.14-.22.21-.37.21Z"/>
          </g>
          <g>
            <g>
              <circle class="cls-22" cx="183.11" cy="76.14" r="7.25"/>
              <polygon class="cls-22" points="190.26 75 175.95 75.01 175.95 75.01 176.27 72.85 176.53 71.06 177.02 67.75 177.38 65.33 177.44 64.87 177.55 64.14 178.05 60.72 188.2 60.73 188.77 64.68 188.86 65.3 188.94 65.8 189 66.24 189.07 66.73 190.23 74.8 190.23 74.8 190.26 75"/>
              <circle class="cls-21" cx="183.11" cy="60.73" r="5.07"/>
              <path class="cls-20" d="m189.07,66.73l-.81,1.36c-.4.68-.88,1.29-1.4,1.84-1.76,1.85-4.14,2.92-6.64,2.92h-3.94l.26-1.79.49-3.31,1.15-7.79,9.9-.28.93,6.55.07.49Z"/>
            </g>
            <path class="cls-18" d="m191.27,70.3s0,0-.01,0c-.02,0,0,0,.01,0Z"/>
          </g>
          <g>
            <g>
              <circle class="cls-17" cx="181.63" cy="45.97" r="16.91"/>
              <g>
                <path class="cls-22" d="m193.6,46.98c0-6.87-5.67-12.41-12.55-12.1-6,.27-10.93,5.05-11.42,11.09-.13,1.64.23,4.07.23,4.07,0,0,1.37,9.94,1.51,10.69.46,2.45,5.03,7.07,6.99,8.19.81.46,2.68.28,3.57,0,2.58-.8,9.43-5.74,9.89-8.19.14-.75,1.22-10.08,1.22-10.08h0c.36-1.16.56-2.39.56-3.67Z"/>
                <path class="cls-22" d="m193.03,50.47s4.79-1.1,3.83,2.87c-1.15,4.76-5,4.2-5,4.2l1.17-7.07Z"/>
                <path class="cls-22" d="m171.96,50.59s-4.63-1.22-3.67,2.75c1.15,4.76,4.45,4.22,4.45,4.22l-.78-6.97Z"/>
              </g>
              <path class="cls-17" d="m187.12,35.51s.04,0,.06.01c1.18.22,2.25.79,3.25,1.42.89.57,1.87.81,2.48,1.74.77,1.18,1.14,2.71,1.49,3.95.45,1.6.93,3.27.7,4.95-.2,1.47-.97,2.85-2.07,3.84-.35.31-.79.77-1.23.24-.34-.41-.15-.82.04-1.22.14-.29.16-.62.31-.92.16-.35.42-.7.35-1.11-.07-.37-.39-.64-.62-.95-.28-.38-.4-.87-.35-1.33.05-.45.25-.97-.05-1.31-.26-.29-.72-.25-1.06-.44-.41-.22-.56-.71-.71-1.15-.15-.44-.39-.92-.84-1.02-.26-.06-.53.02-.78-.06-.39-.13-.55-.57-.81-.88-.31-.37-.81-.58-1.29-.54-.17.01-.34.06-.51.03-.61-.11-.7-1.03-1.25-1.32-.42-.22-.99,0-1.39-.26-.33-.21-.43-.66-.72-.92-.29-.25-.72-.27-1.07-.44-.35-.17-.8-.69-.71-1.12.08-.41.7-.69,1.06-.8.79-.25,1.62-.32,2.45-.4,1.09-.1,2.2-.2,3.28,0Z"/>
              <path class="cls-17" d="m172.71,35.23c2.23-1.45,5.1-1.94,7.8-1.8,2.38.12,4.69,1.14,6.42,2.76.55.51,1.35,1.16.56,1.93-.6.59-1.29.36-1.96.1-.49-.18-1-.18-1.51-.36-.58-.21-1.18-.57-1.82-.4-.59.16-.96.72-1.42,1.12-.57.49-1.33.76-2.08.74-.73-.02-1.58-.26-2.08.26-.43.45-.3,1.19-.55,1.76-.3.68-1.06,1-1.73,1.3-.68.3-1.41.76-1.51,1.49-.06.42.1.85,0,1.25-.15.63-.82.96-1.28,1.42-.55.55-.81,1.37-.68,2.13.05.27.14.53.11.81-.09.99-1.54,1.26-1.93,2.18-.3.71.13,1.58-.22,2.26-.29.56-1,.77-1.37,1.28-.16.22-2.95-3.83-2.07-8.03,1.16-5.57,2-8.73,7.31-12.2Z"/>
            </g>
            <g>
              <ellipse class="cls-17" cx="174.32" cy="51.7" rx="1.09" ry="1.54"/>
              <path class="cls-17" d="m175.41,50.74c-1.28,0-1.89-.2-3.09-.14.44-1.4,2.67-1.17,3.09.14h0Z"/>
              <ellipse class="cls-17" cx="185.14" cy="51.7" rx="1.09" ry="1.54"/>
              <path class="cls-17" d="m187.15,50.74c-1.28,0-1.89-.2-3.09-.14.44-1.4,2.67-1.17,3.09.14h0Z"/>
              <path class="cls-17" d="m170.5,48.89c-.11.03-.18-.1-.11-.18.44-.47,1.47-1.42,2.7-1.64s3.11-.12,4.05-.05c.48.04.86.43.87.91,0,0,0,.01,0,.02,0,.38-.24.55-.46.63-.16.06-.33.06-.49.04-.68-.1-3.48-.49-3.99-.35-.44.11-1.9.46-2.57.62Z"/>
              <path class="cls-17" d="m188.98,48.89c.11.03.18-.1.11-.18-.44-.47-1.47-1.42-2.7-1.64-1.21-.22-3.11-.12-4.05-.05-.48.04-.86.43-.87.91,0,0,0,.01,0,.02,0,.38.24.55.46.63.16.06.33.06.49.04.68-.1,3.48-.49,3.99-.35.44.11,1.9.46,2.57.62Z"/>
              <g>
                <path class="cls-7" d="m176.48,60.95h6.41s-1.21,2.14-3.16,2.14-3.25-2.14-3.25-2.14Z"/>
                <path class="cls-20" d="m179.73,60.35c-1.08-1.12-4.14.6-4.14.6,0,0,2.62.71,4.14.71s4.14-.71,4.14-.71c0,0-3.06-1.73-4.14-.6Z"/>
                <path class="cls-20" d="m183.87,60.95l-1.26.3-1.24.72c-1.02.59-2.28.6-3.3.02l-1.32-.75-1.16-.28c.8,2.02,2.27,2.89,3.23,3.26.59.23,1.23.22,1.82,0,.96-.37,2.43-1.24,3.23-3.26Z"/>
              </g>
              <path class="cls-3" d="m181.94,56.54s-.13.67-1.59.94c0,0-.03.02-.08.05-.36.22-.82.22-1.18,0-.05-.03-.08-.05-.08-.05-1.46-.27-1.59-.94-1.59-.94"/>
            </g>
          </g>
        </g>
      </g>
      <g>
        <g>
          <g>
            <path class="cls-22" d="m202.7,113.14l-5.93,1.84c-1.33.48-2.64,1.03-3.9,1.66-2.07,1.04-4.09,2.18-6.04,3.43l-13.04,8.36,2.55,5.3s4.83-2.37,9.48-4.16c7.71-2.97,18.48-6.26,20.88-8.88l-4-7.54Z"/>
            <circle class="cls-11" cx="174.9" cy="131.16" r="2.95"/>
          </g>
          <circle class="cls-11" cx="203.74" cy="117.44" r="4.41"/>
          <g>
            <g>
              <path class="cls-22" d="m174.08,128.31s-5.76-2.36-10.4-1.59c0,0,1.14,2.65-.45,3.45-1.25.63-1.76,5.09.93,7.62,1.25,1.17,3.3,1.36,4.98.48,1.86-.97,5.13-2.91,7.03-4.45l-2.1-5.52Z"/>
              <g>
                <ellipse class="cls-22" cx="164" cy="128.37" rx="1.67" ry="1.68" transform="translate(-22.75 36.17) rotate(-11.78)"/>
                <path class="cls-22" d="m160.22,129.99s1-.28,3.88.06l-.56-3.29s-3.68,1.15-6.11,1.87c-.45.13-.53.74-.13.99h0c.67.43,1.47.6,2.26.48l.66-.1Z"/>
              </g>
              <g>
                <g>
                  <path class="cls-22" d="m159.08,141.56c-.38.04-.67-.33-.54-.68h0c.26-.74.89-1.3,1.66-1.46s1.86-.37,2.93-.56l.46,2.22-4.52.49Z"/>
                  <ellipse class="cls-22" cx="163.46" cy="139.93" rx="1.13" ry="1.13" transform="translate(-25.12 36.3) rotate(-11.78)"/>
                </g>
                <g>
                  <g>
                    <ellipse class="cls-22" cx="167.74" cy="137.47" rx="1.28" ry="1.29" transform="translate(-24.53 37.13) rotate(-11.78)"/>
                    <path class="cls-22" d="m164.01,140.94l4.35-2.33-1.24-2.26s-2.25,1.36-4.37,2.71l1.26,1.89Z"/>
                  </g>
                  <ellipse class="cls-22" cx="163.46" cy="139.93" rx="1.13" ry="1.13" transform="translate(-25.12 36.3) rotate(-11.78)"/>
                </g>
              </g>
              <g>
                <g>
                  <path class="cls-22" d="m151.86,138.78c-.37.06-.67-.29-.57-.65h0c.22-.75.83-1.32,1.59-1.49,2-.44,5.76-1.19,7.13-1.51l.58,2.19-8.73,1.45Z"/>
                  <ellipse class="cls-22" cx="160.39" cy="136.19" rx="1.13" ry="1.13" transform="translate(-24.42 35.6) rotate(-11.78)"/>
                </g>
                <g>
                  <g>
                    <ellipse class="cls-22" cx="164.63" cy="133.66" rx="1.28" ry="1.29" transform="translate(-23.81 36.41) rotate(-11.78)"/>
                    <path class="cls-22" d="m160.96,137.19l4.31-2.41-1.28-2.24s-2.22,1.4-4.32,2.78l1.29,1.86Z"/>
                  </g>
                  <ellipse class="cls-22" cx="160.39" cy="136.19" rx="1.13" ry="1.13" transform="translate(-24.42 35.6) rotate(-11.78)"/>
                </g>
              </g>
              <g>
                <g>
                  <path class="cls-22" d="m159.47,132.83l.46,2.22-8.18.92c-.37.04-.66-.32-.53-.67l.1-.28c.2-.56.68-.98,1.27-1.08,1.79-.31,5.45-.85,6.89-1.11Z"/>
                  <ellipse class="cls-22" cx="159.8" cy="133.91" rx="1.13" ry="1.13" transform="translate(-23.97 35.43) rotate(-11.78)"/>
                </g>
                <g>
                  <g>
                    <ellipse class="cls-22" cx="163.95" cy="131.23" rx="1.28" ry="1.29" transform="translate(-23.33 36.22) rotate(-11.78)"/>
                    <path class="cls-22" d="m160.4,134.89l4.23-2.56-1.35-2.19s-2.17,1.48-4.22,2.93l1.35,1.82Z"/>
                  </g>
                  <ellipse class="cls-22" cx="159.8" cy="133.91" rx="1.13" ry="1.13" transform="translate(-23.97 35.43) rotate(-11.78)"/>
                </g>
              </g>
              <g>
                <g>
                  <ellipse class="cls-22" cx="160.92" cy="138.6" rx="1.13" ry="1.13" transform="translate(-24.9 35.76) rotate(-11.78)"/>
                  <g>
                    <g>
                      <ellipse class="cls-22" cx="165.16" cy="136.06" rx="1.28" ry="1.29" transform="translate(-24.29 36.57) rotate(-11.78)"/>
                      <path class="cls-22" d="m161.49,139.59l4.31-2.41-1.28-2.24s-2.22,1.4-4.32,2.78l1.29,1.86Z"/>
                    </g>
                    <ellipse class="cls-22" cx="160.92" cy="138.6" rx="1.13" ry="1.13" transform="translate(-24.9 35.76) rotate(-11.78)"/>
                  </g>
                </g>
                <path class="cls-22" d="m154.45,141.07c-.35.07-.65-.25-.56-.59h0c.2-.79.81-1.41,1.59-1.62,1.47-.4,3.77-.97,5.02-1.31l.65,2.17-6.71,1.35Z"/>
              </g>
            </g>
            <circle class="cls-22" cx="174.92" cy="131.15" r="2.96"/>
          </g>
        </g>
        <g>
          <path class="cls-22" d="m196.05,82.77s.77,13.92,3.46,35.39c.27,2.19,2.27,3.8,4.57,3.68h0c2.61-.15,4.16-2.44,4.04-4.96-.84-19.11.27-34.79.27-34.79l-12.34.69Z"/>
          <circle class="cls-11" cx="202.22" cy="82.42" r="6.18"/>
          <circle class="cls-22" cx="203.74" cy="117.44" r="4.41"/>
        </g>
      </g>
      <path class="cls-12" d="m197.15,104.51c-.26-9.04-.81-17.76-1.11-21.06-.1-.48-.15-.97-.14-1.46.04-1.69.73-3.27,1.96-4.44,1.22-1.17,2.83-1.79,4.52-1.76.33,0,.67.04.99.1,3.09.56,5.27,3.24,5.21,6.38,0,.11.82,22.41.82,22.41l-6.16.62-6.1-.81Z"/>
      <g>
        <path class="cls-15" d="m41.38,61.99s-10.12,10.17-24.7,27c-1.49,1.72-1.35,4.36.33,6.02h0c1.91,1.9,4.73,1.5,6.58-.32,14.05-13.8,26.81-23.73,26.81-23.73l-9.02-8.97Z"/>
        <circle class="cls-15" cx="45.89" cy="66.48" r="6.36"/>
        <circle class="cls-15" cx="20.14" cy="91.74" r="4.54"/>
      </g>
      <g>
        <path class="cls-15" d="m16.27,94.03l3.48,5.18c.81,1.21,1.69,2.37,2.64,3.47,1.56,1.81,3.21,3.53,4.96,5.16l11.64,10.89,3.64-4.6s-2.68-3.18-5.38-7.5c-4.51-7.21-10.59-17.5-14.32-18.76l-6.66,6.17Z"/>
        <circle class="cls-15" cx="41.43" cy="116.92" r="3.04"/>
      </g>
    </g>
  </g>
</svg>