<?xml version="1.0" encoding="UTF-8"?>
<svg id="Layer_2" data-name="Layer 2" xmlns="http://www.w3.org/2000/svg" viewBox="0 0 165.96 130.62">
  <defs>
    <style>
      .cls-1, .cls-2 {
        fill: #a59a6e;
      }

      .cls-3 {
        fill: #aa2734;
      }

      .cls-4 {
        fill: #54565a;
      }

      .cls-4, .cls-2, .cls-5, .cls-6 {
        stroke: #000;
        stroke-linecap: round;
        stroke-linejoin: round;
        stroke-width: 1.5px;
      }

      .cls-5 {
        fill: #fff;
      }

      .cls-6 {
        fill: none;
      }
    </style>
  </defs>
  <g id="Content">
    <g>
      <g>
        <path class="cls-3" d="m92.52,1.5c8.46,0,15.35,6.82,15.43,15.29.07,8.14-6.17,14.87-14.16,15.52-.37.03-.75.05-1.13.05-.05,0-.11,0-.16,0-.42,0-.84-.02-1.25-.05-7.87-.64-14.09-7.19-14.16-15.24-.08-8.52,6.77-15.49,15.29-15.57.05,0,.09,0,.14,0m0-1.5h-.16c-9.33.09-16.86,7.75-16.78,17.09.08,8.82,6.76,16.01,15.54,16.72.46.04.92.06,1.37.06h.18c.42,0,.84-.02,1.24-.06,8.78-.71,15.61-8.19,15.53-17.02-.08-9.25-7.68-16.78-16.93-16.78h0Z"/>
        <g>
          <path class="cls-4" d="m102,16.42c.01-.47-.26-.88-.67-1.05.38-.23.59-.68.51-1.14v-.05c-.09-.46-.45-.81-.88-.9.32-.3.44-.77.27-1.21l-.03-.07c-.18-.44-.6-.69-1.05-.68.26-.37.28-.88,0-1.28l-.03-.04c-.27-.39-.75-.56-1.19-.45.17-.42.06-.93-.29-1.25,0,0-.02-.02-.02-.02-.35-.32-.85-.37-1.25-.17.06-.44-.16-.9-.58-1.12l-.05-.03c-.42-.23-.93-.15-1.27.15-.06-.45-.39-.84-.85-.95,0,0-.05-.01-.06-.01-.47-.11-.92.11-1.16.5-.16-.42-.57-.73-1.05-.72h-.09c-.48.02-.87.34-1,.78-.27-.36-.75-.54-1.21-.4l-.07.02c-.46.15-.74.56-.76,1.01-.36-.29-.87-.33-1.28-.08l-.04.02c-.41.25-.6.72-.51,1.16-.41-.18-.91-.1-1.24.24l-.04.04c-.33.34-.4.83-.22,1.24-.44-.08-.89.11-1.14.5l-.04.06c-.25.41-.2.89.08,1.24-.44,0-.86.29-1.02.73l-.02.07c-.16.45,0,.92.34,1.2-.43.1-.78.46-.85.92v.07c-.07.47.17.9.56,1.11-.4.19-.67.6-.64,1.07v.07c.04.47.36.84.79.97-.36.26-.54.73-.41,1.18l.02.07c.13.46.53.75.97.79-.3.34-.37.83-.15,1.25l.03.06c.23.42.68.62,1.12.56-.22.4-.18.91.14,1.27l.03.03c.31.36.8.47,1.22.32-.11.43.04.91.43,1.18l.06.04c.39.28.89.25,1.26-.01-.01.46.26.89.71,1.07l.07.03c.45.17.93.02,1.22-.33.11.44.49.79.97.84h.07s.04.01.07.01c.45.01.85-.25,1.03-.65.22.4.68.65,1.16.57,0,0,.06,0,.06,0,.48-.08.81-.46.88-.91.31.33.81.45,1.25.26l.08-.03c.43-.2.67-.64.63-1.09.39.24.9.22,1.27-.08l.05-.04c.38-.3.49-.79.34-1.21.43.15.93.01,1.23-.37l.03-.04c.29-.37.31-.87.08-1.25.44.04.88-.21,1.09-.63l.02-.04c.2-.42.12-.91-.19-1.24.43-.06.81-.38.92-.83l.02-.07c.11-.46-.09-.91-.46-1.16.42-.14.73-.53.75-1v-.1s0-.01,0-.01Z"/>
          <g>
            <g>
              <polyline class="cls-5" points="103.91 27.05 95.58 23.44 95.58 19.81 89.45 19.81 89.45 23.44 81.1 27.1"/>
              <polygon class="cls-5" points="92.51 25.93 95.58 23.44 95.58 19.81 89.45 19.81 89.45 23.44 92.51 25.93"/>
              <polygon class="cls-5" points="92.51 25.93 90.35 27.71 88.33 23.9 89.45 22.93 92.51 25.93"/>
              <polygon class="cls-5" points="92.51 25.93 94.68 27.71 96.69 23.9 95.58 22.93 92.51 25.93"/>
              <polyline class="cls-6" points="93.93 27.09 93.27 28.49 92.51 28.49 91.76 28.49 91.1 27.09"/>
              <line class="cls-6" x1="93.78" y1="32.31" x2="93.27" y2="28.49"/>
              <line class="cls-6" x1="91.76" y1="28.49" x2="91.25" y2="32.31"/>
            </g>
            <path class="cls-5" d="m97.55,13.81c0,3.61,0-1.21,0,2.4-.13,2.89-2.37,5.7-5.02,5.68-2.63-.02-4.82-2.82-4.95-5.68,0-3.61,0,.65,0-2.96"/>
            <path class="cls-5" d="m87.58,13.26s2.18-1.19,2.85-3.24c0,0,2.14,3.49,7.12,3.8"/>
          </g>
        </g>
      </g>
      <g>
        <path class="cls-3" d="m149.03,35.23c8.46,0,15.35,6.82,15.43,15.29.07,8.14-6.17,14.87-14.16,15.52-.37.03-.75.05-1.13.05-.05,0-.11,0-.16,0-.42,0-.83-.02-1.24-.05-7.87-.64-14.09-7.19-14.16-15.24-.08-8.52,6.77-15.49,15.29-15.57.05,0,.09,0,.14,0m0-1.5v1.5-1.5h-.16c-9.33.09-16.86,7.75-16.78,17.09.08,8.82,6.76,16.01,15.54,16.72.46.04.92.06,1.37.06h.18c.42,0,.84-.02,1.24-.06,8.78-.71,15.61-8.19,15.53-17.02-.08-9.25-7.68-16.78-16.93-16.78h0Z"/>
        <g>
          <path class="cls-4" d="m158.51,50.15c.01-.47-.26-.88-.67-1.05.38-.23.59-.68.51-1.14v-.05c-.09-.46-.45-.81-.88-.9.32-.3.44-.77.27-1.21l-.03-.07c-.18-.44-.6-.69-1.05-.68.26-.37.28-.88,0-1.28l-.03-.04c-.27-.39-.75-.56-1.19-.45.17-.42.06-.93-.29-1.25,0,0-.02-.02-.02-.02-.35-.32-.85-.37-1.25-.17.06-.44-.16-.9-.58-1.12l-.05-.03c-.42-.23-.93-.15-1.27.15-.06-.45-.39-.84-.85-.95,0,0-.05-.01-.06-.01-.47-.11-.92.11-1.16.5-.16-.42-.57-.73-1.05-.72h-.09c-.48.02-.87.34-1,.78-.27-.36-.75-.54-1.21-.4l-.07.02c-.46.15-.74.56-.76,1.01-.36-.29-.87-.33-1.28-.08l-.04.02c-.41.25-.6.72-.51,1.16-.41-.18-.91-.1-1.24.24l-.04.04c-.33.34-.4.83-.22,1.24-.44-.08-.89.11-1.14.5l-.04.06c-.25.41-.2.89.08,1.24-.44,0-.86.29-1.02.73l-.02.07c-.16.45,0,.92.34,1.2-.43.1-.78.46-.85.92v.07c-.07.47.17.9.56,1.11-.4.19-.67.6-.64,1.07v.07c.04.47.36.84.79.97-.36.26-.54.73-.41,1.18l.02.07c.13.46.53.75.97.79-.3.34-.37.83-.15,1.25l.03.06c.23.42.68.62,1.12.56-.22.4-.18.91.14,1.27l.03.03c.31.36.8.47,1.22.32-.11.43.04.91.43,1.18l.06.04c.39.28.89.25,1.26-.01-.01.46.26.89.71,1.07l.07.03c.45.17.93.02,1.22-.33.11.44.49.79.97.84h.07s.04.01.07.01c.45.01.85-.25,1.03-.65.22.4.68.65,1.16.57,0,0,.06,0,.06,0,.48-.08.81-.46.88-.91.31.33.81.45,1.25.26l.08-.03c.43-.2.67-.64.63-1.09.39.24.9.22,1.27-.08l.05-.04c.38-.3.49-.79.34-1.21.43.15.93.01,1.23-.37l.03-.04c.29-.37.31-.87.08-1.25.44.04.88-.21,1.09-.63l.02-.04c.2-.42.12-.91-.19-1.24.43-.06.81-.38.92-.83l.02-.07c.11-.46-.09-.91-.46-1.16.42-.14.73-.53.75-1v-.1s0-.01,0-.01Z"/>
          <g>
            <g>
              <polyline class="cls-5" points="160.42 60.79 152.1 57.18 152.1 53.54 145.96 53.54 145.96 57.18 137.61 60.84"/>
              <polygon class="cls-5" points="149.03 59.67 152.1 57.18 152.1 53.54 145.96 53.54 145.96 57.18 149.03 59.67"/>
              <polygon class="cls-5" points="149.03 59.67 146.86 61.45 144.85 57.64 145.96 56.66 149.03 59.67"/>
              <polygon class="cls-5" points="149.03 59.67 151.2 61.45 153.21 57.64 152.1 56.66 149.03 59.67"/>
              <polyline class="cls-6" points="150.44 60.83 149.78 62.22 149.03 62.22 148.28 62.22 147.62 60.83"/>
              <line class="cls-6" x1="150.29" y1="66.04" x2="149.78" y2="62.22"/>
              <line class="cls-6" x1="148.28" y1="62.22" x2="147.76" y2="66.04"/>
            </g>
            <path class="cls-5" d="m154.06,47.54c0,3.61,0-1.21,0,2.4-.13,2.89-2.37,5.7-5.02,5.68-2.63-.02-4.82-2.82-4.95-5.68,0-3.61,0,.65,0-2.96"/>
            <path class="cls-5" d="m144.1,47s2.18-1.19,2.85-3.24c0,0,2.14,3.49,7.12,3.8"/>
          </g>
        </g>
      </g>
      <g>
        <path class="cls-3" d="m102.26,67.52c8.46,0,15.35,6.82,15.43,15.29.07,8.14-6.17,14.87-14.16,15.52-.37.03-.75.05-1.13.05-.05,0-.11,0-.16,0-.42,0-.84-.02-1.25-.05-7.87-.64-14.09-7.19-14.16-15.24-.08-8.52,6.77-15.49,15.29-15.57.05,0,.09,0,.14,0m0-1.5v1.5-1.5h-.16c-9.33.09-16.86,7.75-16.78,17.09.08,8.82,6.76,16.01,15.54,16.72.46.04.92.06,1.37.06h.18c.42,0,.84-.02,1.24-.06,8.79-.71,15.61-8.19,15.53-17.02-.08-9.25-7.68-16.78-16.93-16.78h0Z"/>
        <g>
          <path class="cls-4" d="m111.74,82.44c.01-.47-.26-.88-.67-1.05.38-.23.59-.68.51-1.14v-.05c-.09-.46-.45-.81-.88-.9.32-.3.44-.77.27-1.21l-.03-.07c-.18-.44-.6-.69-1.05-.68.26-.37.28-.88,0-1.28l-.03-.04c-.27-.39-.75-.56-1.19-.45.17-.42.06-.93-.29-1.25,0,0-.02-.02-.02-.02-.35-.32-.85-.37-1.25-.17.06-.44-.16-.9-.58-1.12l-.05-.03c-.42-.23-.93-.15-1.27.15-.06-.45-.39-.84-.85-.95,0,0-.05-.01-.06-.01-.47-.11-.92.11-1.16.5-.16-.42-.57-.73-1.05-.72h-.09c-.48.02-.87.34-1,.78-.27-.36-.75-.54-1.21-.4l-.07.02c-.46.15-.74.56-.76,1.01-.36-.29-.87-.33-1.28-.08l-.04.02c-.41.25-.6.72-.51,1.16-.41-.18-.91-.1-1.24.24l-.04.04c-.33.34-.4.83-.22,1.24-.44-.08-.89.11-1.14.5l-.04.06c-.25.41-.2.89.08,1.24-.44,0-.86.29-1.02.73l-.02.07c-.16.45,0,.92.34,1.2-.43.1-.78.46-.85.92v.07c-.07.47.17.9.56,1.11-.4.19-.67.6-.64,1.07v.07c.04.47.36.84.79.97-.36.26-.54.73-.41,1.18l.02.07c.13.46.53.75.97.79-.3.34-.37.83-.15,1.25l.03.06c.23.42.68.62,1.12.56-.22.4-.18.91.14,1.27l.03.03c.31.36.8.47,1.22.32-.11.43.04.91.43,1.18l.06.04c.39.28.89.25,1.26-.01-.01.46.26.89.71,1.07l.07.03c.45.17.93.02,1.22-.33.11.44.49.79.97.84h.07s.04.01.07.01c.45.01.85-.25,1.03-.65.22.4.68.65,1.16.57,0,0,.06,0,.06,0,.48-.08.81-.46.88-.91.31.33.81.45,1.25.26l.08-.03c.43-.2.67-.64.63-1.09.39.24.9.22,1.27-.08l.05-.04c.38-.3.49-.79.34-1.21.43.15.93.01,1.23-.37l.03-.04c.29-.37.31-.87.08-1.25.44.04.88-.21,1.09-.63l.02-.04c.2-.42.12-.91-.19-1.24.43-.06.81-.38.92-.83l.02-.07c.11-.46-.09-.91-.46-1.16.42-.14.73-.53.75-1v-.1s0-.01,0-.01Z"/>
          <g>
            <g>
              <polyline class="cls-5" points="113.65 93.08 105.33 89.47 105.33 85.83 99.19 85.83 99.19 89.47 90.85 93.13"/>
              <polygon class="cls-5" points="102.26 91.96 105.33 89.47 105.33 85.83 99.19 85.83 99.19 89.47 102.26 91.96"/>
              <polygon class="cls-5" points="102.26 91.96 100.09 93.74 98.08 89.93 99.19 88.95 102.26 91.96"/>
              <polygon class="cls-5" points="102.26 91.96 104.43 93.74 106.44 89.93 105.33 88.95 102.26 91.96"/>
              <polyline class="cls-6" points="103.67 93.12 103.01 94.51 102.26 94.51 101.51 94.51 100.85 93.12"/>
              <line class="cls-6" x1="103.53" y1="98.33" x2="103.01" y2="94.51"/>
              <line class="cls-6" x1="101.51" y1="94.51" x2="100.99" y2="98.33"/>
            </g>
            <path class="cls-5" d="m107.29,79.83c0,3.61,0-1.21,0,2.4-.13,2.89-2.37,5.7-5.02,5.68-2.63-.02-4.82-2.82-4.95-5.68,0-3.61,0,.65,0-2.96"/>
            <path class="cls-5" d="m97.33,79.29s2.18-1.19,2.85-3.24c0,0,2.14,3.49,7.12,3.8"/>
          </g>
        </g>
      </g>
      <g>
        <path class="cls-3" d="m16.93,59.26c8.46,0,15.35,6.82,15.43,15.29.07,8.14-6.17,14.87-14.16,15.52-.37.03-.75.05-1.13.05-.05,0-.11,0-.16,0-.42,0-.83-.02-1.24-.05-7.87-.64-14.09-7.19-14.16-15.24-.08-8.52,6.77-15.49,15.29-15.57.05,0,.09,0,.14,0m0-1.5h-.16C7.44,57.85-.08,65.52,0,74.85c.08,8.82,6.76,16.01,15.54,16.72.46.04.92.06,1.37.06h.18c.42,0,.84-.02,1.24-.06,8.78-.71,15.61-8.19,15.53-17.02-.08-9.25-7.68-16.78-16.93-16.78h0Z"/>
        <g>
          <path class="cls-4" d="m26.41,74.18c.01-.47-.26-.88-.67-1.05.38-.23.59-.68.51-1.14v-.05c-.09-.46-.45-.81-.88-.9.32-.3.44-.77.27-1.21l-.03-.07c-.18-.44-.6-.69-1.05-.68.26-.37.28-.88,0-1.28l-.03-.04c-.27-.39-.75-.56-1.19-.45.17-.42.06-.93-.29-1.25,0,0-.02-.02-.02-.02-.35-.32-.85-.37-1.25-.17.06-.44-.16-.9-.58-1.12l-.05-.03c-.42-.23-.93-.15-1.27.15-.06-.45-.39-.84-.85-.95,0,0-.05-.01-.06-.01-.47-.11-.92.11-1.16.5-.16-.42-.57-.73-1.05-.72h-.09c-.48.02-.87.34-1,.78-.27-.36-.75-.54-1.21-.4l-.07.02c-.46.15-.74.56-.76,1.01-.36-.29-.87-.33-1.28-.08l-.04.02c-.41.25-.6.72-.51,1.16-.41-.18-.91-.1-1.24.24l-.04.04c-.33.34-.4.83-.22,1.24-.44-.08-.89.11-1.14.5l-.04.06c-.25.41-.2.89.08,1.24-.44,0-.86.29-1.02.73l-.02.07c-.16.45,0,.92.34,1.2-.43.1-.78.46-.85.92v.07c-.07.47.17.9.56,1.11-.4.19-.67.6-.64,1.07v.07c.04.47.36.84.79.97-.36.26-.54.73-.41,1.18l.02.07c.13.46.53.75.97.79-.3.34-.37.83-.15,1.25l.03.06c.23.42.68.62,1.12.56-.22.4-.18.91.14,1.27l.03.03c.31.36.8.47,1.22.32-.11.43.04.91.43,1.18l.06.04c.39.28.89.25,1.26-.01-.01.46.26.89.71,1.07l.07.03c.45.17.93.02,1.22-.33.11.44.49.79.97.84h.07s.04.01.07.01c.45.01.85-.25,1.03-.65.22.4.68.65,1.16.57,0,0,.06,0,.06,0,.48-.08.81-.46.88-.91.31.33.81.45,1.25.26l.08-.03c.43-.2.67-.64.63-1.09.39.24.9.22,1.27-.08l.05-.04c.38-.3.49-.79.34-1.21.43.15.93.01,1.23-.37l.03-.04c.29-.37.31-.87.08-1.25.44.04.88-.21,1.09-.63l.02-.04c.2-.42.12-.91-.19-1.24.43-.06.81-.38.92-.83l.02-.07c.11-.46-.09-.91-.46-1.16.42-.14.73-.53.75-1v-.1s0-.01,0-.01Z"/>
          <g>
            <g>
              <polyline class="cls-5" points="28.32 84.82 20 81.21 20 77.57 13.86 77.57 13.86 81.21 5.52 84.87"/>
              <polygon class="cls-5" points="16.93 83.7 20 81.21 20 77.57 13.86 77.57 13.86 81.21 16.93 83.7"/>
              <polygon class="cls-5" points="16.93 83.7 14.76 85.48 12.75 81.67 13.86 80.69 16.93 83.7"/>
              <polygon class="cls-5" points="16.93 83.7 19.1 85.48 21.11 81.67 20 80.69 16.93 83.7"/>
              <polyline class="cls-6" points="18.34 84.86 17.68 86.25 16.93 86.25 16.18 86.25 15.52 84.86"/>
              <line class="cls-6" x1="18.2" y1="90.07" x2="17.68" y2="86.25"/>
              <line class="cls-6" x1="16.18" y1="86.25" x2="15.66" y2="90.07"/>
            </g>
            <path class="cls-5" d="m21.96,71.57c0,3.61,0-1.21,0,2.4-.13,2.89-2.37,5.7-5.02,5.68-2.63-.02-4.82-2.82-4.95-5.68,0-3.61,0,.65,0-2.96"/>
            <path class="cls-5" d="m12,71.03s2.18-1.19,2.85-3.24c0,0,2.14,3.49,7.12,3.8"/>
          </g>
        </g>
      </g>
      <g>
        <line class="cls-6" x1="100.17" y1="39.36" x2="134.56" y2="81.69"/>
        <polygon points="126.66 81.7 126.87 80.22 134.19 81.25 134.68 73.87 136.18 73.97 135.58 82.96 126.66 81.7"/>
      </g>
      <g>
        <line class="cls-6" x1="86.89" y1="39.36" x2="77.94" y2="53.86"/>
        <polygon points="75.33 46.41 76.8 46.11 78.24 53.37 85.37 51.4 85.77 52.85 77.08 55.24 75.33 46.41"/>
      </g>
      <g>
        <line class="cls-6" x1="71.21" y1="28.89" x2="36.66" y2="59.74"/>
        <polygon points="36.28 51.86 37.78 51.99 37.09 59.36 44.49 59.51 44.45 61.01 35.45 60.82 36.28 51.86"/>
      </g>
      <g>
        <line class="cls-6" x1="110.94" y1="32.73" x2="125.86" y2="40.51"/>
        <polygon points="118.61 43.65 118.21 42.21 125.34 40.25 122.87 33.28 124.29 32.78 127.3 41.27 118.61 43.65"/>
      </g>
      <g>
        <polygon class="cls-1" points="75.08 75.33 68.78 74.24 68.78 69.46 72.66 69.79 73.7 73.29 75.08 75.33"/>
        <path class="cls-2" d="m70.54,68.8c.73-.27,1.73.07,2.44,1.25.53.89.56,2.55.67,2.89.22.68.95,1.45,2.44,1.13,0,0-.12,1.12-.96,1.28"/>
        <path class="cls-2" d="m72.37,63.04c0,2.67-2.16,4.83-4.83,4.83s-4.83-2.16-4.83-4.83,2.16-4.87,4.83-4.87,4.83,2.2,4.83,4.87Z"/>
        <g>
          <path class="cls-5" d="m77.82,77.37c-.13-.69-.63-1.28-1.32-1.56l-6.61-2.22v-3.3h-4.71v3.3l-6.61,2.22c-.69.28-1.19.87-1.32,1.56"/>
          <path class="cls-5" d="m72.11,63.97c0,3.31,0-.61,0,2.7-.12,2.65-2.17,5.23-4.6,5.21-2.41-.02-4.42-2.58-4.54-5.21,0-3.31,0,.67,0-2.64l4.22-.05c1.04-.01,1.95-.7,2.25-1.69l.11-.37.03.14c.24,1.19,1.33,2.01,2.54,1.9h0Z"/>
          <path class="cls-5" d="m61.97,74.79s1.76,2.43,5.56,2.43,5.56-2.43,5.56-2.43"/>
        </g>
      </g>
      <g>
        <polygon class="cls-1" points="60.28 104.92 53.98 103.83 53.98 99.05 57.87 99.38 58.91 102.89 60.28 104.92"/>
        <path class="cls-2" d="m55.74,98.39c.73-.27,1.73.07,2.44,1.25.53.89.56,2.55.67,2.89.22.68.95,1.45,2.44,1.13,0,0-.12,1.12-.96,1.28"/>
        <path class="cls-2" d="m57.57,92.63c0,2.67-2.16,4.83-4.83,4.83s-4.83-2.16-4.83-4.83,2.16-4.87,4.83-4.87,4.83,2.2,4.83,4.87Z"/>
        <g>
          <path class="cls-5" d="m63.02,106.97c-.13-.69-.63-1.28-1.32-1.56l-6.61-2.22v-3.3h-4.71v3.3l-6.61,2.22c-.69.28-1.19.87-1.32,1.56"/>
          <path class="cls-5" d="m57.31,93.56c0,3.31,0-.61,0,2.7-.12,2.65-2.17,5.23-4.6,5.21-2.41-.02-4.42-2.58-4.54-5.21,0-3.31,0,.67,0-2.64l4.22-.05c1.04-.01,1.95-.7,2.25-1.69l.11-.37.03.14c.24,1.19,1.33,2.01,2.54,1.9h0Z"/>
          <path class="cls-5" d="m47.18,104.38s1.76,2.43,5.56,2.43,5.56-2.43,5.56-2.43"/>
        </g>
      </g>
      <g>
        <polygon class="cls-1" points="106.73 127.83 100.44 126.74 100.44 121.96 104.32 122.29 105.36 125.79 106.73 127.83"/>
        <path class="cls-2" d="m102.19,121.3c.73-.27,1.73.07,2.44,1.25.53.89.56,2.55.67,2.89.22.68.95,1.45,2.44,1.13,0,0-.12,1.12-.96,1.28"/>
        <path class="cls-2" d="m104.02,115.54c0,2.67-2.16,4.83-4.83,4.83s-4.83-2.16-4.83-4.83,2.16-4.87,4.83-4.87,4.83,2.2,4.83,4.87Z"/>
        <g>
          <path class="cls-5" d="m109.47,129.87c-.13-.69-.63-1.28-1.32-1.56l-6.61-2.22v-3.3h-4.71v3.3l-6.61,2.22c-.69.28-1.19.87-1.32,1.56"/>
          <path class="cls-5" d="m103.76,116.47c0,3.31,0-.61,0,2.7-.12,2.65-2.17,5.23-4.6,5.21-2.41-.02-4.42-2.58-4.54-5.21,0-3.31,0,.67,0-2.64l4.22-.05c1.04-.01,1.95-.7,2.25-1.69l.11-.37.03.14c.24,1.19,1.33,2.01,2.54,1.9h0Z"/>
          <path class="cls-5" d="m93.63,127.29s1.76,2.43,5.56,2.43,5.56-2.43,5.56-2.43"/>
        </g>
      </g>
      <g>
        <polygon class="cls-1" points="153.5 102.39 147.2 101.31 147.2 96.52 151.09 96.85 152.13 100.36 153.5 102.39"/>
        <path class="cls-2" d="m148.96,95.86c.73-.27,1.73.07,2.44,1.25.53.89.56,2.55.67,2.89.22.68.95,1.45,2.44,1.13,0,0-.12,1.12-.96,1.28"/>
        <path class="cls-2" d="m150.79,90.11c0,2.67-2.16,4.83-4.83,4.83s-4.83-2.16-4.83-4.83,2.16-4.87,4.83-4.87,4.83,2.2,4.83,4.87Z"/>
        <g>
          <path class="cls-5" d="m156.24,104.44c-.13-.69-.63-1.28-1.32-1.56l-6.61-2.22v-3.3h-4.71v3.3l-6.61,2.22c-.69.28-1.19.87-1.32,1.56"/>
          <path class="cls-5" d="m150.53,91.04c0,3.31,0-.61,0,2.7-.12,2.65-2.17,5.23-4.6,5.21-2.41-.02-4.42-2.58-4.54-5.21,0-3.31,0,.67,0-2.64l4.22-.05c1.04-.01,1.95-.7,2.25-1.69l.11-.37.03.14c.24,1.19,1.33,2.01,2.54,1.9h0Z"/>
          <path class="cls-5" d="m140.4,101.86s1.76,2.43,5.56,2.43,5.56-2.43,5.56-2.43"/>
        </g>
      </g>
      <g>
        <polygon class="cls-1" points="20.29 44.98 13.99 43.89 13.99 39.1 17.88 39.44 18.92 42.94 20.29 44.98"/>
        <path class="cls-2" d="m15.75,38.44c.73-.27,1.73.07,2.44,1.25.53.89.56,2.55.67,2.89.22.68.95,1.45,2.44,1.13,0,0-.12,1.12-.96,1.28"/>
        <path class="cls-2" d="m17.58,32.69c0,2.67-2.16,4.83-4.83,4.83s-4.83-2.16-4.83-4.83,2.16-4.87,4.83-4.87,4.83,2.2,4.83,4.87Z"/>
        <g>
          <path class="cls-5" d="m23.03,47.02c-.13-.69-.63-1.28-1.32-1.56l-6.61-2.22v-3.3h-4.71v3.3l-6.61,2.22c-.69.28-1.19.87-1.32,1.56"/>
          <path class="cls-5" d="m17.32,33.62c0,3.31,0-.61,0,2.7-.12,2.65-2.17,5.23-4.6,5.21-2.41-.02-4.42-2.58-4.54-5.21,0-3.31,0,.67,0-2.64l4.22-.05c1.04-.01,1.95-.7,2.25-1.69l.11-.37.03.14c.24,1.19,1.33,2.01,2.54,1.9h0Z"/>
          <path class="cls-5" d="m7.19,44.44s1.76,2.43,5.56,2.43,5.56-2.43,5.56-2.43"/>
        </g>
      </g>
    </g>
  </g>
</svg>