<?xml version="1.0" encoding="UTF-8"?>
<svg id="Layer_2" data-name="Layer 2" xmlns="http://www.w3.org/2000/svg" viewBox="0 0 217.31 324.79">
  <defs>
    <style>
      .cls-1, .cls-2 {
        fill: #a59a6e;
      }

      .cls-3 {
        fill: #aa2734;
      }

      .cls-4 {
        fill: #54565a;
      }

      .cls-4, .cls-2, .cls-5, .cls-6 {
        stroke: #000;
        stroke-linecap: round;
        stroke-linejoin: round;
        stroke-width: 1.5px;
      }

      .cls-5 {
        fill: #fff;
      }

      .cls-6 {
        fill: none;
      }
    </style>
  </defs>
  <g id="Content">
    <g>
      <g>
        <path class="cls-3" d="m109.18,1.5c10.95,0,19.87,8.82,19.97,19.79.1,10.54-7.99,19.25-18.33,20.08-.48.04-.97.06-1.46.07-.07,0-.14,0-.21,0-.54,0-1.08-.02-1.61-.07-10.19-.83-18.24-9.31-18.33-19.72-.1-11.03,8.76-20.05,19.79-20.15.06,0,.12,0,.18,0m0-1.5h-.2c-11.84.11-21.38,9.83-21.28,21.67.1,11.18,8.58,20.3,19.71,21.2.59.05,1.17.07,1.74.07h.22c.54,0,1.07-.03,1.57-.07,11.14-.9,19.8-10.39,19.7-21.59-.11-11.73-9.74-21.28-21.47-21.28h0Z"/>
        <g>
          <path class="cls-4" d="m121.45,20.81c.02-.6-.34-1.13-.86-1.36.49-.3.77-.88.66-1.48v-.07c-.12-.6-.58-1.05-1.14-1.16.41-.39.57-1,.35-1.56l-.04-.09c-.23-.57-.78-.89-1.36-.88.34-.48.36-1.14,0-1.65l-.03-.05c-.35-.51-.97-.72-1.54-.58.22-.55.08-1.2-.38-1.61,0,0-.03-.03-.03-.03-.46-.41-1.1-.48-1.62-.22.08-.57-.2-1.16-.75-1.45l-.06-.03c-.55-.3-1.2-.2-1.64.19-.07-.58-.5-1.09-1.11-1.23,0,0-.07-.02-.08-.02-.61-.14-1.2.14-1.5.65-.21-.55-.74-.95-1.36-.93h-.11c-.62.03-1.12.44-1.3,1-.35-.47-.98-.69-1.57-.51l-.09.03c-.59.19-.96.72-.98,1.31-.46-.37-1.13-.43-1.66-.1l-.05.03c-.53.32-.77.93-.66,1.5-.53-.23-1.17-.13-1.6.31l-.05.05c-.43.44-.52,1.07-.28,1.6-.56-.1-1.16.14-1.48.65l-.05.08c-.32.52-.25,1.16.1,1.61-.58.01-1.11.37-1.32.94l-.03.09c-.2.58,0,1.19.44,1.56-.56.13-1.01.59-1.1,1.19v.09c-.09.61.22,1.16.73,1.43-.52.24-.87.78-.83,1.39v.09c.05.61.47,1.09,1.02,1.25-.46.34-.69.94-.53,1.53l.03.09c.17.59.68.98,1.26,1.02-.38.44-.48,1.08-.19,1.62l.04.08c.29.54.88.8,1.45.72-.29.52-.23,1.18.18,1.65l.04.04c.4.46,1.03.61,1.58.41-.15.56.06,1.17.55,1.53l.07.05c.51.36,1.15.33,1.63-.01-.02.59.34,1.15.92,1.38l.09.04c.58.22,1.2.02,1.58-.43.14.58.63,1.03,1.25,1.09h.09s.06.01.08.01c.59.02,1.1-.33,1.33-.84.28.52.88.84,1.5.73,0,0,.07-.01.08-.01.62-.11,1.05-.59,1.14-1.18.4.43,1.05.58,1.62.33l.1-.05c.56-.26.87-.83.82-1.41.5.3,1.16.28,1.64-.1l.06-.05c.49-.39.64-1.02.44-1.57.56.19,1.21.01,1.59-.48l.04-.06c.37-.48.4-1.12.1-1.62.57.05,1.14-.27,1.41-.82l.03-.06c.26-.55.15-1.18-.24-1.6.56-.08,1.04-.49,1.19-1.07l.02-.09c.14-.6-.11-1.18-.59-1.5.54-.19.94-.69.97-1.3v-.12s0-.02,0-.02Z"/>
          <g>
            <g>
              <polyline class="cls-5" points="123.92 34.57 113.15 29.9 113.15 25.19 105.21 25.19 105.21 29.9 94.41 34.64"/>
              <polygon class="cls-5" points="109.18 33.12 113.15 29.9 113.15 25.19 105.21 25.19 105.21 29.9 109.18 33.12"/>
              <polygon class="cls-5" points="109.18 33.12 106.37 35.43 103.77 30.5 105.21 29.24 109.18 33.12"/>
              <polygon class="cls-5" points="109.18 33.12 111.99 35.43 114.59 30.5 113.15 29.24 109.18 33.12"/>
              <polyline class="cls-6" points="111.01 34.62 110.15 36.43 109.18 36.43 108.21 36.43 107.35 34.62"/>
              <line class="cls-6" x1="110.82" y1="41.38" x2="110.15" y2="36.43"/>
              <line class="cls-6" x1="108.21" y1="36.43" x2="107.54" y2="41.38"/>
            </g>
            <path class="cls-5" d="m115.7,17.43c0,4.67,0-1.56,0,3.1-.17,3.74-3.06,7.38-6.49,7.35-3.4-.02-6.24-3.64-6.41-7.35,0-4.67,0,.84,0-3.83"/>
            <path class="cls-5" d="m102.79,16.72s2.83-1.54,3.69-4.19c0,0,2.76,4.51,9.21,4.92"/>
          </g>
        </g>
      </g>
      <g>
        <path class="cls-3" d="m195.84,172.19c10.95,0,19.87,8.82,19.97,19.79.1,10.54-7.99,19.25-18.33,20.08-.48.04-.97.06-1.46.07-.07,0-.14,0-.21,0-.54,0-1.08-.02-1.61-.07-10.19-.83-18.24-9.31-18.33-19.72-.1-11.03,8.76-20.05,19.79-20.15.06,0,.12,0,.18,0m0-1.5h-.2c-11.84.11-21.38,9.83-21.28,21.67.1,11.18,8.58,20.3,19.71,21.2.59.05,1.17.07,1.73.07h.22c.53,0,1.07-.03,1.57-.07,11.14-.9,19.8-10.39,19.7-21.59-.11-11.73-9.74-21.28-21.47-21.28h0Z"/>
        <g>
          <path class="cls-4" d="m208.11,191.49c.02-.6-.34-1.13-.86-1.36.49-.3.77-.88.66-1.48v-.07c-.12-.6-.58-1.05-1.14-1.16.41-.39.57-1,.35-1.56l-.04-.09c-.23-.57-.78-.89-1.36-.88.34-.48.36-1.14,0-1.65l-.03-.05c-.35-.51-.97-.72-1.54-.58.22-.55.08-1.2-.38-1.61,0,0-.03-.03-.03-.03-.46-.41-1.1-.48-1.62-.22.08-.57-.2-1.16-.75-1.45l-.06-.03c-.55-.3-1.2-.2-1.64.19-.07-.58-.5-1.09-1.11-1.23,0,0-.07-.02-.08-.02-.61-.14-1.2.14-1.5.65-.21-.55-.74-.95-1.36-.93h-.11c-.62.03-1.12.44-1.3,1-.35-.47-.98-.69-1.57-.51l-.09.03c-.59.19-.96.72-.98,1.31-.46-.37-1.13-.43-1.66-.1l-.05.03c-.53.32-.77.93-.66,1.5-.53-.23-1.17-.13-1.6.31l-.05.05c-.43.44-.52,1.07-.28,1.6-.56-.1-1.16.14-1.48.65l-.05.08c-.32.52-.25,1.16.1,1.61-.58.01-1.11.37-1.32.94l-.03.09c-.2.58,0,1.19.44,1.56-.56.13-1.01.59-1.1,1.19v.09c-.09.61.22,1.16.73,1.43-.52.24-.87.78-.83,1.39v.09c.05.61.47,1.09,1.02,1.25-.46.34-.69.94-.53,1.53l.03.09c.17.59.68.98,1.26,1.02-.38.44-.48,1.08-.19,1.62l.04.08c.29.54.88.8,1.45.72-.29.52-.23,1.18.18,1.65l.04.04c.4.46,1.03.61,1.58.41-.15.56.06,1.17.55,1.53l.07.05c.51.36,1.15.33,1.63-.01-.02.59.34,1.15.92,1.38l.09.04c.58.22,1.2.02,1.58-.43.14.58.63,1.03,1.25,1.09h.09s.06.01.08.01c.59.02,1.1-.33,1.33-.84.28.52.88.84,1.5.73,0,0,.07-.01.08-.01.62-.11,1.05-.59,1.14-1.18.4.43,1.05.58,1.62.33l.1-.05c.56-.26.87-.83.82-1.41.5.3,1.16.28,1.64-.1l.06-.05c.49-.39.64-1.02.44-1.57.56.19,1.21.01,1.59-.48l.04-.06c.37-.48.4-1.12.1-1.62.57.05,1.14-.27,1.41-.82l.03-.06c.26-.55.15-1.18-.24-1.6.56-.08,1.04-.49,1.19-1.07l.02-.09c.14-.6-.11-1.18-.59-1.5.54-.19.94-.69.97-1.3v-.12s0-.02,0-.02Z"/>
          <g>
            <g>
              <polyline class="cls-5" points="210.58 205.26 199.81 200.59 199.81 195.88 191.87 195.88 191.87 200.59 181.06 205.33"/>
              <polygon class="cls-5" points="195.84 203.81 199.81 200.59 199.81 195.88 191.87 195.88 191.87 200.59 195.84 203.81"/>
              <polygon class="cls-5" points="195.84 203.81 193.03 206.11 190.43 201.18 191.87 199.92 195.84 203.81"/>
              <polygon class="cls-5" points="195.84 203.81 198.64 206.11 201.25 201.18 199.81 199.92 195.84 203.81"/>
              <polyline class="cls-6" points="197.67 205.31 196.81 207.11 195.84 207.11 194.87 207.11 194.01 205.31"/>
              <line class="cls-6" x1="197.48" y1="212.06" x2="196.81" y2="207.12"/>
              <line class="cls-6" x1="194.87" y1="207.12" x2="194.2" y2="212.06"/>
            </g>
            <path class="cls-5" d="m202.35,188.12c0,4.67,0-1.56,0,3.1-.17,3.74-3.06,7.38-6.49,7.35-3.4-.02-6.24-3.64-6.41-7.35,0-4.67,0,.84,0-3.83"/>
            <path class="cls-5" d="m189.45,187.41s2.83-1.54,3.69-4.19c0,0,2.76,4.51,9.21,4.92"/>
          </g>
        </g>
      </g>
      <g>
        <path class="cls-3" d="m123.1,221.45c10.95,0,19.87,8.82,19.97,19.79.1,10.54-7.99,19.25-18.33,20.08-.48.04-.97.06-1.46.07-.07,0-.14,0-.21,0-.54,0-1.08-.02-1.61-.07-10.19-.83-18.24-9.31-18.33-19.72-.1-11.03,8.76-20.05,19.79-20.15.06,0,.12,0,.18,0m0-1.5h-.2c-11.84.11-21.38,9.83-21.28,21.67.1,11.18,8.58,20.3,19.71,21.2.59.05,1.17.07,1.73.07h.23c.54,0,1.07-.03,1.57-.07,11.14-.9,19.8-10.39,19.7-21.59-.11-11.73-9.74-21.28-21.47-21.28h0Z"/>
        <g>
          <path class="cls-4" d="m135.37,240.75c.02-.6-.34-1.13-.86-1.36.49-.3.77-.88.66-1.48v-.07c-.12-.6-.58-1.05-1.14-1.16.41-.39.57-1,.35-1.56l-.04-.09c-.23-.57-.78-.89-1.36-.88.34-.48.36-1.14,0-1.65l-.03-.05c-.35-.51-.97-.72-1.54-.58.22-.55.08-1.2-.38-1.61,0,0-.03-.03-.03-.03-.46-.41-1.1-.48-1.62-.22.08-.57-.2-1.16-.75-1.45l-.06-.03c-.55-.3-1.2-.2-1.64.19-.07-.58-.5-1.09-1.11-1.23,0,0-.07-.02-.08-.02-.61-.14-1.2.14-1.5.65-.21-.55-.74-.95-1.36-.93h-.11c-.62.03-1.12.44-1.3,1-.35-.47-.98-.69-1.57-.51l-.09.03c-.59.19-.96.72-.98,1.31-.46-.37-1.13-.43-1.66-.1l-.05.03c-.53.32-.77.93-.66,1.5-.53-.23-1.17-.13-1.6.31l-.05.05c-.43.44-.52,1.07-.28,1.6-.56-.1-1.16.14-1.48.65l-.05.08c-.32.52-.25,1.16.1,1.61-.58.01-1.11.37-1.32.94l-.03.09c-.2.58,0,1.19.44,1.56-.56.13-1.01.59-1.1,1.19v.09c-.09.61.22,1.16.73,1.43-.52.24-.87.78-.83,1.39v.09c.05.61.47,1.09,1.02,1.25-.46.34-.69.94-.53,1.53l.03.09c.17.59.68.98,1.26,1.02-.38.44-.48,1.08-.19,1.62l.04.08c.29.54.88.8,1.45.72-.29.52-.23,1.18.18,1.65l.04.04c.4.46,1.03.61,1.58.41-.15.56.06,1.17.55,1.53l.07.05c.51.36,1.15.33,1.63-.01-.02.59.34,1.15.92,1.38l.09.04c.58.22,1.2.02,1.58-.43.14.58.63,1.03,1.25,1.09h.09s.06.01.08.01c.59.02,1.1-.33,1.33-.84.28.52.88.84,1.5.73,0,0,.07-.01.08-.01.62-.11,1.05-.59,1.14-1.18.4.43,1.05.58,1.62.33l.1-.05c.56-.26.87-.83.82-1.41.5.3,1.16.28,1.64-.1l.06-.05c.49-.39.64-1.02.44-1.57.56.19,1.21.01,1.59-.48l.04-.06c.37-.48.4-1.12.1-1.62.57.05,1.14-.27,1.41-.82l.03-.06c.26-.55.15-1.18-.24-1.6.56-.08,1.04-.49,1.19-1.07l.02-.09c.14-.6-.11-1.18-.59-1.5.54-.19.94-.69.97-1.3v-.12s0-.02,0-.02Z"/>
          <g>
            <g>
              <polyline class="cls-5" points="137.84 254.52 127.07 249.85 127.07 245.14 119.13 245.14 119.13 249.85 108.32 254.59"/>
              <polygon class="cls-5" points="123.1 253.07 127.07 249.85 127.07 245.14 119.13 245.14 119.13 249.85 123.1 253.07"/>
              <polygon class="cls-5" points="123.1 253.07 120.29 255.37 117.69 250.44 119.13 249.18 123.1 253.07"/>
              <polygon class="cls-5" points="123.1 253.07 125.9 255.37 128.51 250.44 127.07 249.18 123.1 253.07"/>
              <polyline class="cls-6" points="124.93 254.57 124.07 256.38 123.1 256.38 122.13 256.38 121.27 254.57"/>
              <line class="cls-6" x1="124.74" y1="261.33" x2="124.07" y2="256.38"/>
              <line class="cls-6" x1="122.13" y1="256.38" x2="121.46" y2="261.33"/>
            </g>
            <path class="cls-5" d="m129.61,237.38c0,4.67,0-1.56,0,3.1-.17,3.74-3.06,7.38-6.49,7.35-3.4-.02-6.24-3.64-6.41-7.35,0-4.67,0,.84,0-3.83"/>
            <path class="cls-5" d="m116.71,236.67s2.83-1.54,3.69-4.19c0,0,2.76,4.51,9.21,4.92"/>
          </g>
        </g>
      </g>
      <g>
        <path class="cls-3" d="m21.84,181.95c10.95,0,19.87,8.82,19.97,19.79.1,10.54-7.99,19.25-18.33,20.08-.48.04-.97.06-1.46.07-.07,0-.14,0-.21,0-.54,0-1.08-.02-1.61-.07-10.19-.83-18.24-9.31-18.33-19.72-.1-11.03,8.76-20.05,19.79-20.15.06,0,.12,0,.18,0m0-1.5h-.2c-11.84.11-21.38,9.83-21.28,21.67.1,11.18,8.58,20.3,19.71,21.2.59.05,1.17.07,1.73.07h.22c.54,0,1.07-.03,1.57-.07,11.14-.9,19.8-10.39,19.7-21.59-.11-11.73-9.74-21.28-21.47-21.28h0Z"/>
        <g>
          <path class="cls-4" d="m34.11,201.26c.02-.6-.34-1.13-.86-1.36.49-.3.77-.88.66-1.48v-.07c-.12-.6-.58-1.05-1.14-1.16.41-.39.57-1,.35-1.56l-.04-.09c-.23-.57-.78-.89-1.36-.88.34-.48.36-1.14,0-1.65l-.03-.05c-.35-.51-.97-.72-1.54-.58.22-.55.08-1.2-.38-1.61,0,0-.03-.03-.03-.03-.46-.41-1.1-.48-1.62-.22.08-.57-.2-1.16-.75-1.45l-.06-.03c-.55-.3-1.2-.2-1.64.19-.07-.58-.5-1.09-1.11-1.23,0,0-.07-.02-.08-.02-.61-.14-1.2.14-1.5.65-.21-.55-.74-.95-1.36-.93h-.11c-.62.03-1.12.44-1.3,1-.35-.47-.98-.69-1.57-.51l-.09.03c-.59.19-.96.72-.98,1.31-.46-.37-1.13-.43-1.66-.1l-.05.03c-.53.32-.77.93-.66,1.5-.53-.23-1.17-.13-1.6.31l-.05.05c-.43.44-.52,1.07-.28,1.6-.56-.1-1.16.14-1.48.65l-.05.08c-.32.52-.25,1.16.1,1.61-.58.01-1.11.37-1.32.94l-.03.09c-.2.58,0,1.19.44,1.56-.56.13-1.01.59-1.1,1.19v.09c-.09.61.22,1.16.73,1.43-.52.24-.87.78-.83,1.39v.09c.05.61.47,1.09,1.02,1.25-.46.34-.69.94-.53,1.53l.03.09c.17.59.68.98,1.26,1.02-.38.44-.48,1.08-.19,1.62l.04.08c.29.54.88.8,1.45.72-.29.52-.23,1.18.18,1.65l.04.04c.4.46,1.03.61,1.58.41-.15.56.06,1.17.55,1.53l.07.05c.51.36,1.15.33,1.63-.01-.02.59.34,1.15.92,1.38l.09.04c.58.22,1.2.02,1.58-.43.14.58.63,1.03,1.25,1.09h.09s.06.01.08.01c.59.02,1.1-.33,1.33-.84.28.52.88.84,1.5.73,0,0,.07-.01.08-.01.62-.11,1.05-.59,1.14-1.18.4.43,1.05.58,1.62.33l.1-.05c.56-.26.87-.83.82-1.41.5.3,1.16.28,1.64-.1l.06-.05c.49-.39.64-1.02.44-1.57.56.19,1.21.01,1.59-.48l.04-.06c.37-.48.4-1.12.1-1.62.57.05,1.14-.27,1.41-.82l.03-.06c.26-.55.15-1.18-.24-1.6.56-.08,1.04-.49,1.19-1.07l.02-.09c.14-.6-.11-1.18-.59-1.5.54-.19.94-.69.97-1.3v-.12s0-.02,0-.02Z"/>
          <g>
            <g>
              <polyline class="cls-5" points="36.59 215.03 25.81 210.36 25.81 205.65 17.87 205.65 17.87 210.36 7.07 215.09"/>
              <polygon class="cls-5" points="21.84 213.57 25.81 210.36 25.81 205.65 17.87 205.65 17.87 210.36 21.84 213.57"/>
              <polygon class="cls-5" points="21.84 213.57 19.04 215.88 16.43 210.95 17.87 209.69 21.84 213.57"/>
              <polygon class="cls-5" points="21.84 213.57 24.65 215.88 27.25 210.95 25.81 209.69 21.84 213.57"/>
              <polyline class="cls-6" points="23.67 215.08 22.81 216.88 21.84 216.88 20.87 216.88 20.01 215.08"/>
              <line class="cls-6" x1="23.48" y1="221.83" x2="22.81" y2="216.88"/>
              <line class="cls-6" x1="20.87" y1="216.88" x2="20.2" y2="221.83"/>
            </g>
            <path class="cls-5" d="m28.36,197.89c0,4.67,0-1.56,0,3.1-.17,3.74-3.06,7.38-6.49,7.35-3.4-.02-6.24-3.64-6.41-7.35,0-4.67,0,.84,0-3.83"/>
            <path class="cls-5" d="m15.46,197.18s2.83-1.54,3.69-4.19c0,0,2.76,4.51,9.21,4.92"/>
          </g>
        </g>
      </g>
      <g>
        <line class="cls-6" x1="119.09" y1="50.51" x2="126.98" y2="202.74"/>
        <polygon points="120.6 198.09 121.65 197.01 126.95 202.16 131.7 196.49 132.85 197.46 127.07 204.36 120.6 198.09"/>
      </g>
      <g>
        <line class="cls-6" x1="101.9" y1="50.51" x2="94.04" y2="157.77"/>
        <polygon points="88.29 152.36 89.46 151.42 94.08 157.19 99.5 152.16 100.52 153.26 93.92 159.39 88.29 152.36"/>
      </g>
      <g>
        <line class="cls-6" x1="86.06" y1="41.92" x2="42.33" y2="172.13"/>
        <polygon points="38.1 165.46 39.46 164.84 42.51 171.58 49.01 168.05 49.73 169.37 41.81 173.67 38.1 165.46"/>
      </g>
      <g>
        <line class="cls-6" x1="133.03" y1="41.92" x2="179.22" y2="157.88"/>
        <polygon points="171.68 155.53 172.33 154.18 179.01 157.35 181.68 150.45 183.08 150.99 179.82 159.39 171.68 155.53"/>
      </g>
      <g>
        <polygon class="cls-1" points="102.07 191.06 93.92 189.65 93.92 183.46 98.95 183.89 100.3 188.43 102.07 191.06"/>
        <path class="cls-2" d="m96.2,182.61c.95-.35,2.24.09,3.16,1.61.69,1.15.72,3.31.86,3.74.28.88,1.23,1.87,3.16,1.46,0,0-.15,1.45-1.25,1.66"/>
        <path class="cls-2" d="m98.56,175.16c0,3.45-2.8,6.25-6.25,6.25s-6.25-2.8-6.25-6.25,2.8-6.31,6.25-6.31,6.25,2.85,6.25,6.31Z"/>
        <g>
          <path class="cls-5" d="m105.62,193.71c-.17-.9-.81-1.65-1.71-2.02l-8.55-2.87v-4.27h-6.1v4.27l-8.55,2.87c-.89.36-1.54,1.12-1.71,2.02"/>
          <path class="cls-5" d="m98.23,176.36c0,4.28,0-.78,0,3.5-.16,3.43-2.81,6.77-5.96,6.75-3.12-.02-5.73-3.34-5.88-6.75,0-4.28,0,.87,0-3.41l5.46-.06c1.35-.01,2.52-.9,2.91-2.19l.14-.48.04.18c.31,1.54,1.73,2.61,3.29,2.46h0Z"/>
          <path class="cls-5" d="m85.11,190.36s2.28,3.15,7.2,3.15,7.2-3.15,7.2-3.15"/>
        </g>
      </g>
      <g>
        <polygon class="cls-1" points="70.13 279.03 61.98 277.62 61.98 271.43 67 271.86 68.35 276.39 70.13 279.03"/>
        <path class="cls-2" d="m64.25,270.58c.95-.35,2.24.09,3.16,1.61.69,1.15.72,3.31.86,3.74.28.88,1.23,1.87,3.16,1.46,0,0-.15,1.45-1.25,1.66"/>
        <path class="cls-2" d="m66.62,263.13c0,3.45-2.8,6.25-6.25,6.25s-6.25-2.8-6.25-6.25,2.8-6.31,6.25-6.31,6.25,2.85,6.25,6.31Z"/>
        <g>
          <path class="cls-5" d="m73.67,281.68c-.17-.9-.81-1.65-1.71-2.02l-8.55-2.87v-4.27h-6.1v4.27l-8.55,2.87c-.89.36-1.54,1.12-1.71,2.02"/>
          <path class="cls-5" d="m66.28,264.33c0,4.28,0-.78,0,3.5-.16,3.43-2.81,6.77-5.96,6.75-3.12-.02-5.73-3.34-5.88-6.75,0-4.28,0,.87,0-3.41l5.46-.06c1.35-.01,2.52-.9,2.91-2.19l.14-.48.04.18c.31,1.54,1.73,2.61,3.29,2.46h0Z"/>
          <path class="cls-5" d="m53.16,278.33s2.28,3.15,7.2,3.15,7.2-3.15,7.2-3.15"/>
        </g>
      </g>
      <g>
        <polygon class="cls-1" points="127.58 321.39 119.43 319.98 119.43 313.79 124.46 314.22 125.81 318.76 127.58 321.39"/>
        <path class="cls-2" d="m121.71,312.94c.95-.35,2.24.09,3.16,1.61.69,1.15.72,3.31.86,3.74.28.88,1.23,1.87,3.16,1.46,0,0-.15,1.45-1.25,1.66"/>
        <path class="cls-2" d="m124.08,305.49c0,3.45-2.8,6.25-6.25,6.25s-6.25-2.8-6.25-6.25,2.8-6.31,6.25-6.31,6.25,2.85,6.25,6.31Z"/>
        <g>
          <path class="cls-5" d="m131.13,324.04c-.17-.9-.81-1.65-1.71-2.02l-8.55-2.87v-4.27h-6.1v4.27l-8.55,2.87c-.89.36-1.54,1.12-1.71,2.02"/>
          <path class="cls-5" d="m123.74,306.69c0,4.28,0-.78,0,3.5-.16,3.43-2.81,6.77-5.96,6.75-3.12-.02-5.73-3.34-5.88-6.75,0-4.28,0,.87,0-3.41l5.46-.06c1.35-.01,2.52-.9,2.91-2.19l.14-.48.04.18c.31,1.54,1.73,2.61,3.29,2.46h0Z"/>
          <path class="cls-5" d="m110.62,320.69s2.28,3.15,7.2,3.15,7.2-3.15,7.2-3.15"/>
        </g>
      </g>
      <g>
        <polygon class="cls-1" points="189.59 277.91 181.43 276.5 181.43 270.31 186.46 270.74 187.81 275.28 189.59 277.91"/>
        <path class="cls-2" d="m183.71,269.46c.95-.35,2.24.09,3.16,1.61.69,1.15.72,3.31.86,3.74.28.88,1.23,1.87,3.16,1.46,0,0-.15,1.45-1.25,1.66"/>
        <path class="cls-2" d="m186.08,262.01c0,3.45-2.8,6.25-6.25,6.25s-6.25-2.8-6.25-6.25,2.8-6.31,6.25-6.31,6.25,2.85,6.25,6.31Z"/>
        <g>
          <path class="cls-5" d="m193.13,280.56c-.17-.9-.81-1.65-1.71-2.02l-8.55-2.87v-4.27h-6.1v4.27l-8.55,2.87c-.89.36-1.54,1.12-1.71,2.02"/>
          <path class="cls-5" d="m185.74,263.21c0,4.28,0-.78,0,3.5-.16,3.43-2.81,6.77-5.96,6.75-3.12-.02-5.73-3.34-5.88-6.75,0-4.28,0,.87,0-3.41l5.46-.06c1.35-.01,2.52-.9,2.91-2.19l.14-.48.04.18c.31,1.54,1.73,2.61,3.29,2.46h0Z"/>
          <path class="cls-5" d="m172.62,277.21s2.28,3.15,7.2,3.15,7.2-3.15,7.2-3.15"/>
        </g>
      </g>
      <g>
        <polygon class="cls-1" points="23.82 147.5 15.67 146.1 15.67 139.91 20.7 140.33 22.04 144.87 23.82 147.5"/>
        <path class="cls-2" d="m17.95,139.05c.95-.35,2.24.09,3.16,1.61.69,1.15.72,3.31.86,3.74.28.88,1.23,1.87,3.16,1.46,0,0-.15,1.45-1.25,1.66"/>
        <path class="cls-2" d="m20.31,131.6c0,3.45-2.8,6.25-6.25,6.25s-6.25-2.8-6.25-6.25,2.8-6.31,6.25-6.31,6.25,2.85,6.25,6.31Z"/>
        <g>
          <path class="cls-5" d="m27.37,150.15c-.17-.9-.81-1.65-1.71-2.02l-8.55-2.87v-4.27h-6.1v4.27l-8.55,2.87c-.89.36-1.54,1.12-1.71,2.02"/>
          <path class="cls-5" d="m19.98,132.8c0,4.28,0-.78,0,3.5-.16,3.43-2.81,6.77-5.96,6.75-3.12-.02-5.73-3.34-5.88-6.75,0-4.28,0,.87,0-3.41l5.46-.06c1.35-.01,2.52-.9,2.91-2.19l.14-.48.04.18c.31,1.54,1.73,2.61,3.29,2.46h0Z"/>
          <path class="cls-5" d="m6.86,146.81s2.28,3.15,7.2,3.15,7.2-3.15,7.2-3.15"/>
        </g>
      </g>
    </g>
  </g>
</svg>