<?xml version="1.0" encoding="UTF-8"?>
<svg id="Layer_2" data-name="Layer 2" xmlns="http://www.w3.org/2000/svg" viewBox="0 0 219.38 172.71">
  <defs>
    <style>
      .cls-1, .cls-2 {
        fill: #a59a6e;
      }

      .cls-3 {
        fill: #aa2734;
      }

      .cls-4 {
        fill: #54565a;
      }

      .cls-4, .cls-2, .cls-5, .cls-6 {
        stroke: #000;
        stroke-linecap: round;
        stroke-linejoin: round;
        stroke-width: 1.5px;
      }

      .cls-5 {
        fill: #fff;
      }

      .cls-6 {
        fill: none;
      }
    </style>
  </defs>
  <g id="Content">
    <g>
      <g>
        <path class="cls-3" d="m122.35,1.5c11.23,0,20.38,9.05,20.48,20.31.1,10.81-8.2,19.74-18.81,20.6-.5.04-.99.07-1.5.07-.07,0-.14,0-.21,0-.56,0-1.11-.03-1.66-.07-10.45-.85-18.71-9.55-18.81-20.23-.1-11.32,8.99-20.57,20.3-20.68.06,0,.13,0,.19,0m0-1.5h-.2c-12.12.11-21.9,10.07-21.79,22.19.11,11.45,8.78,20.79,20.18,21.71.6.05,1.2.08,1.78.08h.22c.55,0,1.09-.03,1.61-.08,11.41-.92,20.28-10.64,20.17-22.11-.11-12.02-9.97-21.79-21.98-21.79h0Z"/>
        <g>
          <path class="cls-4" d="m134.94,21.31c.02-.62-.35-1.16-.88-1.4.5-.31.79-.9.68-1.51v-.07c-.12-.61-.59-1.07-1.17-1.19.42-.4.58-1.03.36-1.6l-.04-.1c-.24-.58-.8-.91-1.39-.9.35-.49.37-1.17,0-1.69l-.04-.05c-.36-.52-1-.74-1.58-.6.22-.56.08-1.23-.39-1.66,0,0-.03-.03-.03-.03-.47-.42-1.13-.49-1.66-.22.08-.59-.21-1.19-.76-1.49l-.07-.04c-.56-.3-1.23-.2-1.68.2-.07-.6-.51-1.12-1.13-1.26,0,0-.07-.02-.08-.02-.63-.14-1.23.15-1.54.67-.21-.56-.76-.97-1.4-.95h-.12c-.64.03-1.15.46-1.33,1.03-.36-.48-1-.71-1.61-.53l-.09.03c-.61.19-.99.74-1,1.34-.48-.38-1.16-.44-1.7-.1l-.05.03c-.54.33-.79.95-.68,1.54-.55-.24-1.2-.13-1.65.32l-.05.05c-.44.45-.53,1.1-.29,1.64-.58-.1-1.19.14-1.52.67l-.05.08c-.33.54-.26,1.19.11,1.65-.59.01-1.14.38-1.36.97l-.03.09c-.21.59,0,1.22.45,1.6-.57.13-1.03.61-1.12,1.22v.1c-.1.62.23,1.19.75,1.47-.53.25-.89.8-.85,1.43v.09c.05.63.48,1.12,1.05,1.29-.47.35-.71.97-.55,1.57l.03.09c.17.61.7,1,1.29,1.04-.39.45-.49,1.11-.2,1.67l.04.08c.3.55.9.83,1.48.74-.29.53-.24,1.21.19,1.69l.04.05c.41.47,1.06.62,1.62.42-.15.57.06,1.21.57,1.57l.08.05c.52.37,1.18.33,1.67-.01-.02.61.34,1.18.94,1.41l.1.04c.6.22,1.23.02,1.62-.44.14.59.64,1.06,1.28,1.12h.1s.06.01.09.01c.6.02,1.13-.33,1.36-.86.29.54.9.86,1.54.75,0,0,.07-.01.08-.01.63-.11,1.08-.61,1.17-1.21.41.44,1.07.6,1.66.34l.1-.05c.58-.27.89-.85.84-1.45.51.31,1.19.29,1.69-.11l.06-.05c.5-.4.66-1.04.45-1.61.58.19,1.24.01,1.63-.49l.05-.06c.38-.49.41-1.15.11-1.66.59.05,1.17-.27,1.44-.84l.03-.06c.27-.56.15-1.21-.25-1.64.57-.08,1.07-.5,1.22-1.1l.02-.09c.15-.61-.12-1.21-.61-1.54.56-.19.97-.71,1-1.33v-.13s0-.02,0-.02Z"/>
          <g>
            <g>
              <polyline class="cls-5" points="137.48 35.43 126.43 30.64 126.43 25.81 118.28 25.81 118.28 30.64 107.2 35.5"/>
              <polygon class="cls-5" points="122.35 33.94 126.43 30.64 126.43 25.81 118.28 25.81 118.28 30.64 122.35 33.94"/>
              <polygon class="cls-5" points="122.35 33.94 119.47 36.31 116.8 31.25 118.28 29.95 122.35 33.94"/>
              <polygon class="cls-5" points="122.35 33.94 125.23 36.31 127.9 31.25 126.43 29.95 122.35 33.94"/>
              <polyline class="cls-6" points="124.23 35.48 123.35 37.33 122.35 37.33 121.35 37.33 120.48 35.48"/>
              <line class="cls-6" x1="124.03" y1="42.41" x2="123.35" y2="37.33"/>
              <line class="cls-6" x1="121.35" y1="37.33" x2="120.67" y2="42.41"/>
            </g>
            <path class="cls-5" d="m129.04,17.84c0,4.79,0-1.6,0,3.19-.18,3.84-3.14,7.57-6.66,7.54-3.49-.02-6.4-3.74-6.57-7.54,0-4.79,0,.86,0-3.93"/>
            <path class="cls-5" d="m115.8,17.12s2.9-1.58,3.78-4.3c0,0,2.84,4.63,9.45,5.05"/>
          </g>
        </g>
      </g>
      <g>
        <path class="cls-3" d="m197.4,46.29c11.23,0,20.38,9.05,20.48,20.31.1,10.81-8.2,19.74-18.81,20.6-.49.04-.99.07-1.5.07-.07,0-.14,0-.21,0-.56,0-1.11-.03-1.65-.07-10.45-.85-18.71-9.55-18.81-20.23-.1-11.32,8.99-20.57,20.3-20.68.06,0,.13,0,.19,0m0-1.5h-.2c-12.12.11-21.9,10.07-21.79,22.19.11,11.45,8.78,20.79,20.18,21.71.6.05,1.2.08,1.78.08h.23c.55,0,1.09-.03,1.61-.08,11.41-.92,20.28-10.64,20.17-22.11-.11-12.02-9.97-21.79-21.98-21.79h0Z"/>
        <g>
          <path class="cls-4" d="m209.98,66.1c.02-.62-.35-1.16-.88-1.4.5-.31.79-.9.68-1.51v-.07c-.12-.61-.59-1.07-1.17-1.19.42-.4.58-1.03.36-1.6l-.04-.1c-.24-.58-.8-.91-1.39-.9.35-.49.37-1.17,0-1.69l-.04-.05c-.36-.52-1-.74-1.58-.6.22-.56.08-1.23-.39-1.66,0,0-.03-.03-.03-.03-.47-.42-1.13-.49-1.66-.22.08-.59-.21-1.19-.76-1.49l-.07-.04c-.56-.3-1.23-.2-1.68.2-.07-.6-.51-1.12-1.13-1.26,0,0-.07-.02-.08-.02-.63-.14-1.23.15-1.54.67-.21-.56-.76-.97-1.4-.95h-.12c-.64.03-1.15.46-1.33,1.03-.36-.48-1-.71-1.61-.53l-.09.03c-.61.19-.99.74-1,1.34-.48-.38-1.16-.44-1.7-.1l-.05.03c-.54.33-.79.95-.68,1.54-.55-.24-1.2-.13-1.65.32l-.05.05c-.44.45-.53,1.1-.29,1.64-.58-.1-1.19.14-1.52.67l-.05.08c-.33.54-.26,1.19.11,1.65-.59.01-1.14.38-1.36.97l-.03.09c-.21.59,0,1.22.45,1.6-.57.13-1.03.61-1.12,1.22v.1c-.1.62.23,1.19.75,1.47-.53.25-.89.8-.85,1.43v.09c.05.63.48,1.12,1.05,1.29-.47.35-.71.97-.55,1.57l.03.09c.17.61.7,1,1.29,1.04-.39.45-.49,1.11-.2,1.67l.04.08c.3.55.9.83,1.48.74-.29.53-.24,1.21.19,1.69l.04.05c.41.47,1.06.62,1.62.42-.15.57.06,1.21.57,1.57l.08.05c.52.37,1.18.33,1.67-.01-.02.61.34,1.18.94,1.41l.1.04c.6.22,1.23.02,1.62-.44.14.59.64,1.06,1.28,1.12h.1s.06.01.09.01c.6.02,1.13-.33,1.36-.86.29.54.9.86,1.54.75,0,0,.07-.01.08-.01.63-.11,1.08-.61,1.17-1.21.41.44,1.07.6,1.66.34l.1-.05c.58-.27.89-.85.84-1.45.51.31,1.19.29,1.69-.11l.06-.05c.5-.4.66-1.04.45-1.61.58.19,1.24.01,1.63-.49l.05-.06c.38-.49.41-1.15.11-1.66.59.05,1.17-.27,1.44-.84l.03-.06c.27-.56.15-1.21-.25-1.64.57-.08,1.07-.5,1.22-1.1l.02-.09c.15-.61-.12-1.21-.61-1.54.56-.19.97-.71,1-1.33v-.13s0-.02,0-.02Z"/>
          <g>
            <g>
              <polyline class="cls-5" points="212.52 80.22 201.47 75.43 201.47 70.6 193.32 70.6 193.32 75.43 182.24 80.29"/>
              <polygon class="cls-5" points="197.39 78.73 201.47 75.43 201.47 70.6 193.32 70.6 193.32 75.43 197.39 78.73"/>
              <polygon class="cls-5" points="197.39 78.73 194.51 81.1 191.84 76.04 193.32 74.75 197.39 78.73"/>
              <polygon class="cls-5" points="197.39 78.73 200.27 81.1 202.94 76.04 201.47 74.75 197.39 78.73"/>
              <polyline class="cls-6" points="199.27 80.27 198.39 82.13 197.39 82.13 196.4 82.13 195.52 80.27"/>
              <line class="cls-6" x1="199.07" y1="87.2" x2="198.39" y2="82.13"/>
              <line class="cls-6" x1="196.4" y1="82.13" x2="195.71" y2="87.2"/>
            </g>
            <path class="cls-5" d="m204.08,62.64c0,4.79,0-1.6,0,3.19-.18,3.84-3.14,7.57-6.66,7.54-3.49-.02-6.4-3.74-6.57-7.54,0-4.79,0,.86,0-3.93"/>
            <path class="cls-5" d="m190.84,61.91s2.9-1.58,3.78-4.3c0,0,2.84,4.63,9.45,5.05"/>
          </g>
        </g>
      </g>
      <g>
        <path class="cls-3" d="m135.29,89.17c11.23,0,20.38,9.05,20.48,20.31.1,10.81-8.2,19.75-18.81,20.6-.49.04-.99.07-1.5.07-.07,0-.14,0-.21,0-.56,0-1.11-.03-1.65-.07-10.45-.85-18.71-9.55-18.81-20.23-.1-11.32,8.99-20.57,20.3-20.68.06,0,.13,0,.19,0m0-1.5h-.2c-12.12.11-21.9,10.07-21.79,22.19.11,11.45,8.78,20.79,20.18,21.71.6.05,1.2.08,1.77.08h.23c.55,0,1.09-.03,1.61-.08,11.41-.92,20.28-10.64,20.17-22.11-.11-12.02-9.97-21.79-21.98-21.79h0Z"/>
        <g>
          <path class="cls-4" d="m147.88,108.97c.02-.62-.35-1.16-.88-1.4.5-.31.79-.9.68-1.51v-.07c-.12-.61-.59-1.07-1.17-1.19.42-.4.58-1.03.36-1.6l-.04-.1c-.24-.58-.8-.91-1.39-.9.35-.49.37-1.17,0-1.69l-.04-.05c-.36-.52-1-.74-1.58-.6.22-.56.08-1.23-.39-1.66,0,0-.03-.03-.03-.03-.47-.42-1.13-.49-1.66-.22.08-.59-.21-1.19-.76-1.49l-.07-.04c-.56-.3-1.23-.2-1.68.2-.07-.6-.51-1.12-1.13-1.26,0,0-.07-.02-.08-.02-.63-.14-1.23.15-1.54.67-.21-.56-.76-.97-1.4-.95h-.12c-.64.03-1.15.46-1.33,1.03-.36-.48-1-.71-1.61-.53l-.09.03c-.61.19-.99.74-1,1.34-.48-.38-1.16-.44-1.7-.1l-.05.03c-.54.33-.79.95-.68,1.54-.55-.24-1.2-.13-1.65.32l-.05.05c-.44.45-.53,1.1-.29,1.64-.58-.1-1.19.14-1.52.67l-.05.08c-.33.54-.26,1.19.11,1.65-.59.01-1.14.38-1.36.97l-.03.09c-.21.59,0,1.22.45,1.6-.57.13-1.03.61-1.12,1.22v.1c-.1.62.23,1.19.75,1.47-.53.25-.89.8-.85,1.43v.09c.05.63.48,1.12,1.05,1.29-.47.35-.71.97-.55,1.57l.03.09c.17.61.7,1,1.29,1.04-.39.45-.49,1.11-.2,1.67l.04.08c.3.55.9.83,1.48.74-.29.53-.24,1.21.19,1.69l.04.05c.41.47,1.06.62,1.62.42-.15.57.06,1.21.57,1.57l.08.05c.52.37,1.18.33,1.67-.01-.02.61.34,1.18.94,1.41l.1.04c.6.22,1.23.02,1.62-.44.14.59.64,1.06,1.28,1.12h.1s.06.01.09.01c.6.02,1.13-.33,1.36-.86.29.54.9.86,1.54.75,0,0,.07-.01.08-.01.63-.11,1.08-.61,1.17-1.21.41.44,1.07.6,1.66.34l.1-.05c.58-.27.89-.85.84-1.45.51.31,1.19.29,1.69-.11l.06-.05c.5-.4.66-1.04.45-1.61.58.19,1.24.01,1.63-.49l.05-.06c.38-.49.41-1.15.11-1.66.59.05,1.17-.27,1.44-.84l.03-.06c.27-.56.15-1.21-.25-1.64.57-.08,1.07-.5,1.22-1.1l.02-.09c.15-.61-.12-1.21-.61-1.54.56-.19.97-.71,1-1.33v-.13s0-.02,0-.02Z"/>
          <g>
            <g>
              <polyline class="cls-5" points="150.42 123.1 139.37 118.31 139.37 113.48 131.22 113.48 131.22 118.31 120.14 123.17"/>
              <polygon class="cls-5" points="135.29 121.61 139.37 118.31 139.37 113.48 131.22 113.48 131.22 118.31 135.29 121.61"/>
              <polygon class="cls-5" points="135.29 121.61 132.41 123.98 129.74 118.92 131.22 117.62 135.29 121.61"/>
              <polygon class="cls-5" points="135.29 121.61 138.17 123.98 140.84 118.92 139.37 117.62 135.29 121.61"/>
              <polyline class="cls-6" points="137.17 123.15 136.29 125 135.29 125 134.29 125 133.42 123.15"/>
              <line class="cls-6" x1="136.97" y1="130.08" x2="136.29" y2="125"/>
              <line class="cls-6" x1="134.29" y1="125" x2="133.61" y2="130.08"/>
            </g>
            <path class="cls-5" d="m141.98,105.51c0,4.79,0-1.6,0,3.19-.18,3.84-3.14,7.57-6.66,7.54-3.49-.02-6.4-3.74-6.57-7.54,0-4.79,0,.86,0-3.93"/>
            <path class="cls-5" d="m128.74,104.79s2.9-1.58,3.78-4.3c0,0,2.84,4.63,9.45,5.05"/>
          </g>
        </g>
      </g>
      <g>
        <path class="cls-3" d="m21.99,78.2c11.23,0,20.38,9.05,20.48,20.31.1,10.81-8.2,19.74-18.81,20.6-.49.04-.99.07-1.5.07-.07,0-.14,0-.21,0-.56,0-1.11-.03-1.65-.07-10.45-.85-18.71-9.55-18.81-20.23-.1-11.32,8.99-20.57,20.3-20.68.06,0,.13,0,.19,0m0-1.5h-.2C9.67,76.82-.11,86.77,0,98.89c.11,11.45,8.78,20.79,20.18,21.71.6.05,1.2.08,1.78.08h.23c.55,0,1.09-.03,1.61-.08,11.41-.92,20.28-10.64,20.17-22.11-.11-12.02-9.97-21.79-21.98-21.79h0Z"/>
        <g>
          <path class="cls-4" d="m34.58,98.01c.02-.62-.35-1.16-.88-1.4.5-.31.79-.9.68-1.51v-.07c-.12-.61-.59-1.07-1.17-1.19.42-.4.58-1.03.36-1.6l-.04-.1c-.24-.58-.8-.91-1.39-.9.35-.49.37-1.17,0-1.69l-.04-.05c-.36-.52-1-.74-1.58-.6.22-.56.08-1.23-.39-1.66,0,0-.03-.03-.03-.03-.47-.42-1.13-.49-1.66-.22.08-.59-.21-1.19-.76-1.49l-.07-.04c-.56-.3-1.23-.2-1.68.2-.07-.6-.51-1.12-1.13-1.26,0,0-.07-.02-.08-.02-.63-.14-1.23.15-1.54.67-.21-.56-.76-.97-1.4-.95h-.12c-.64.03-1.15.46-1.33,1.03-.36-.48-1-.71-1.61-.53l-.09.03c-.61.19-.99.74-1,1.34-.48-.38-1.16-.44-1.7-.1l-.05.03c-.54.33-.79.95-.68,1.54-.55-.24-1.2-.13-1.65.32l-.05.05c-.44.45-.53,1.1-.29,1.64-.58-.1-1.19.14-1.52.67l-.05.08c-.33.54-.26,1.19.11,1.65-.59.01-1.14.38-1.36.97l-.03.09c-.21.59,0,1.22.45,1.6-.57.13-1.03.61-1.12,1.22v.1c-.1.62.23,1.19.75,1.47-.53.25-.89.8-.85,1.43v.09c.05.63.48,1.12,1.05,1.29-.47.35-.71.97-.55,1.57l.03.09c.17.61.7,1,1.29,1.04-.39.45-.49,1.11-.2,1.67l.04.08c.3.55.9.83,1.48.74-.29.53-.24,1.21.19,1.69l.04.05c.41.47,1.06.62,1.62.42-.15.57.06,1.21.57,1.57l.08.05c.52.37,1.18.33,1.67-.01-.02.61.34,1.18.94,1.41l.1.04c.6.22,1.23.02,1.62-.44.14.59.64,1.06,1.28,1.12h.1s.06.01.09.01c.6.02,1.13-.33,1.36-.86.29.54.9.86,1.54.75,0,0,.07-.01.08-.01.63-.11,1.08-.61,1.17-1.21.41.44,1.07.6,1.66.34l.1-.05c.58-.27.89-.85.84-1.45.51.31,1.19.29,1.69-.11l.06-.05c.5-.4.66-1.04.45-1.61.58.19,1.24.01,1.63-.49l.05-.06c.38-.49.41-1.15.11-1.66.59.05,1.17-.27,1.44-.84l.03-.06c.27-.56.15-1.21-.25-1.64.57-.08,1.07-.5,1.22-1.1l.02-.09c.15-.61-.12-1.21-.61-1.54.56-.19.97-.71,1-1.33v-.13s0-.02,0-.02Z"/>
          <g>
            <g>
              <polyline class="cls-5" points="37.11 112.13 26.06 107.34 26.06 102.51 17.91 102.51 17.91 107.34 6.83 112.2"/>
              <polygon class="cls-5" points="21.99 110.64 26.06 107.34 26.06 102.51 17.91 102.51 17.91 107.34 21.99 110.64"/>
              <polygon class="cls-5" points="21.99 110.64 19.11 113.01 16.44 107.95 17.91 106.66 21.99 110.64"/>
              <polygon class="cls-5" points="21.99 110.64 24.87 113.01 27.54 107.95 26.06 106.66 21.99 110.64"/>
              <polyline class="cls-6" points="23.86 112.18 22.99 114.03 21.99 114.03 20.99 114.03 20.11 112.18"/>
              <line class="cls-6" x1="23.67" y1="119.11" x2="22.99" y2="114.03"/>
              <line class="cls-6" x1="20.99" y1="114.03" x2="20.31" y2="119.11"/>
            </g>
            <path class="cls-5" d="m28.67,94.55c0,4.79,0-1.6,0,3.19-.18,3.84-3.14,7.57-6.66,7.54-3.49-.02-6.4-3.74-6.57-7.54,0-4.79,0,.86,0-3.93"/>
            <path class="cls-5" d="m15.44,93.82s2.9-1.58,3.78-4.3c0,0,2.84,4.63,9.45,5.05"/>
          </g>
        </g>
      </g>
      <g>
        <line class="cls-6" x1="132.52" y1="51.78" x2="178.51" y2="108.4"/>
        <polygon points="170.62 108.41 170.82 106.92 178.15 107.95 178.64 100.57 180.14 100.67 179.54 109.66 170.62 108.41"/>
      </g>
      <g>
        <line class="cls-6" x1="114.88" y1="51.78" x2="102.72" y2="71.48"/>
        <polygon points="100.11 64.02 101.58 63.73 103.02 70.99 110.15 69.02 110.55 70.47 101.86 72.86 100.11 64.02"/>
      </g>
      <g>
        <line class="cls-6" x1="94.06" y1="37.87" x2="47.79" y2="79.19"/>
        <polygon points="47.41 71.3 48.91 71.44 48.22 78.81 55.61 78.95 55.58 80.46 46.58 80.27 47.41 71.3"/>
      </g>
      <g>
        <line class="cls-6" x1="146.82" y1="42.97" x2="167.1" y2="53.55"/>
        <polygon points="159.85 56.69 159.45 55.24 166.59 53.29 164.11 46.31 165.53 45.81 168.54 54.3 159.85 56.69"/>
      </g>
      <g>
        <polygon class="cls-1" points="99.2 99.53 90.83 98.09 90.83 91.74 95.99 92.18 97.37 96.83 99.2 99.53"/>
        <path class="cls-2" d="m93.17,90.86c.98-.36,2.3.09,3.24,1.65.71,1.18.74,3.39.89,3.84.29.9,1.26,1.92,3.24,1.5,0,0-.16,1.49-1.28,1.7"/>
        <path class="cls-2" d="m95.6,83.22c0,3.54-2.87,6.42-6.42,6.42s-6.42-2.87-6.42-6.42,2.87-6.47,6.42-6.47,6.42,2.93,6.42,6.47Z"/>
        <g>
          <path class="cls-5" d="m102.84,102.25c-.18-.92-.83-1.7-1.75-2.07l-8.78-2.95v-4.38h-6.26v4.38l-8.78,2.95c-.92.37-1.57,1.15-1.75,2.07"/>
          <path class="cls-5" d="m95.25,84.45c0,4.39,0-.81,0,3.59-.16,3.52-2.88,6.94-6.11,6.92-3.2-.02-5.87-3.43-6.03-6.92,0-4.39,0,.89,0-3.5l5.6-.06c1.38-.02,2.59-.93,2.98-2.25l.15-.49.04.19c.31,1.58,1.77,2.67,3.38,2.53h0Z"/>
          <path class="cls-5" d="m81.79,98.82s2.34,3.23,7.39,3.23,7.39-3.23,7.39-3.23"/>
        </g>
      </g>
      <g>
        <polygon class="cls-1" points="79.55 138.83 71.19 137.38 71.19 131.03 76.35 131.47 77.73 136.12 79.55 138.83"/>
        <path class="cls-2" d="m73.53,130.15c.98-.36,2.3.09,3.24,1.65.71,1.18.74,3.39.89,3.84.29.9,1.26,1.92,3.24,1.5,0,0-.16,1.49-1.28,1.7"/>
        <path class="cls-2" d="m75.95,122.51c0,3.54-2.87,6.42-6.42,6.42s-6.42-2.87-6.42-6.42,2.87-6.47,6.42-6.47,6.42,2.93,6.42,6.47Z"/>
        <g>
          <path class="cls-5" d="m83.19,141.54c-.18-.92-.83-1.7-1.75-2.07l-8.78-2.95v-4.38h-6.26v4.38l-8.78,2.95c-.92.37-1.57,1.15-1.75,2.07"/>
          <path class="cls-5" d="m75.61,123.74c0,4.39,0-.81,0,3.59-.16,3.52-2.88,6.94-6.11,6.92-3.2-.02-5.87-3.43-6.03-6.92,0-4.39,0,.89,0-3.5l5.6-.06c1.38-.02,2.59-.93,2.98-2.25l.15-.49.04.19c.31,1.58,1.77,2.67,3.38,2.53h0Z"/>
          <path class="cls-5" d="m62.15,138.11s2.34,3.23,7.39,3.23,7.39-3.23,7.39-3.23"/>
        </g>
      </g>
      <g>
        <polygon class="cls-1" points="141.23 169.25 132.87 167.8 132.87 161.45 138.03 161.89 139.41 166.54 141.23 169.25"/>
        <path class="cls-2" d="m135.2,160.57c.98-.36,2.3.09,3.24,1.65.71,1.18.74,3.39.89,3.84.29.9,1.26,1.92,3.24,1.5,0,0-.16,1.49-1.28,1.7"/>
        <path class="cls-2" d="m137.63,152.93c0,3.54-2.87,6.42-6.42,6.42s-6.42-2.87-6.42-6.42,2.87-6.47,6.42-6.47,6.42,2.93,6.42,6.47Z"/>
        <g>
          <path class="cls-5" d="m144.87,171.96c-.18-.92-.83-1.7-1.75-2.07l-8.78-2.95v-4.38h-6.26v4.38l-8.78,2.95c-.92.37-1.57,1.15-1.75,2.07"/>
          <path class="cls-5" d="m137.29,154.16c0,4.39,0-.81,0,3.59-.16,3.52-2.88,6.94-6.11,6.92-3.2-.02-5.87-3.43-6.03-6.92,0-4.39,0,.89,0-3.5l5.6-.06c1.38-.02,2.59-.93,2.98-2.25l.15-.49.04.19c.31,1.58,1.77,2.67,3.38,2.53h0Z"/>
          <path class="cls-5" d="m123.83,168.53s2.34,3.23,7.39,3.23,7.39-3.23,7.39-3.23"/>
        </g>
      </g>
      <g>
        <polygon class="cls-1" points="203.33 135.47 194.97 134.02 194.97 127.67 200.13 128.11 201.51 132.77 203.33 135.47"/>
        <path class="cls-2" d="m197.31,126.8c.98-.36,2.3.09,3.24,1.65.71,1.18.74,3.39.89,3.84.29.9,1.26,1.92,3.24,1.5,0,0-.16,1.49-1.28,1.7"/>
        <path class="cls-2" d="m199.73,119.15c0,3.54-2.87,6.42-6.42,6.42s-6.42-2.87-6.42-6.42,2.87-6.47,6.42-6.47,6.42,2.93,6.42,6.47Z"/>
        <g>
          <path class="cls-5" d="m206.97,138.18c-.18-.92-.83-1.7-1.75-2.07l-8.78-2.95v-4.38h-6.26v4.38l-8.78,2.95c-.92.37-1.57,1.15-1.75,2.07"/>
          <path class="cls-5" d="m199.39,120.39c0,4.39,0-.81,0,3.59-.16,3.52-2.88,6.94-6.11,6.92-3.2-.02-5.87-3.43-6.03-6.92,0-4.39,0,.89,0-3.5l5.6-.06c1.38-.02,2.59-.93,2.98-2.25l.15-.49.04.19c.31,1.58,1.77,2.67,3.38,2.53h0Z"/>
          <path class="cls-5" d="m185.93,134.76s2.34,3.23,7.39,3.23,7.39-3.23,7.39-3.23"/>
        </g>
      </g>
      <g>
        <polygon class="cls-1" points="26.45 59.23 18.09 57.78 18.09 51.43 23.25 51.87 24.63 56.53 26.45 59.23"/>
        <path class="cls-2" d="m20.43,50.56c.98-.36,2.3.09,3.24,1.65.71,1.18.74,3.39.89,3.84.29.9,1.26,1.92,3.24,1.5,0,0-.16,1.49-1.28,1.7"/>
        <path class="cls-2" d="m22.85,42.91c0,3.54-2.87,6.42-6.42,6.42s-6.42-2.87-6.42-6.42,2.87-6.47,6.42-6.47,6.42,2.93,6.42,6.47Z"/>
        <g>
          <path class="cls-5" d="m30.09,61.94c-.18-.92-.83-1.7-1.75-2.07l-8.78-2.95v-4.38h-6.26v4.38l-8.78,2.95c-.92.37-1.57,1.15-1.75,2.07"/>
          <path class="cls-5" d="m22.51,44.15c0,4.39,0-.81,0,3.59-.16,3.52-2.88,6.94-6.11,6.92-3.2-.02-5.87-3.43-6.03-6.92,0-4.39,0,.89,0-3.5l5.6-.06c1.38-.02,2.59-.93,2.98-2.25l.15-.49.04.19c.31,1.58,1.77,2.67,3.38,2.53h0Z"/>
          <path class="cls-5" d="m9.05,58.51s2.34,3.23,7.39,3.23,7.39-3.23,7.39-3.23"/>
        </g>
      </g>
    </g>
  </g>
</svg>