<?xml version="1.0" encoding="UTF-8"?>
<svg id="Layer_2" data-name="Layer 2" xmlns="http://www.w3.org/2000/svg" viewBox="0 0 229.5 336.75">
  <defs>
    <style>
      .cls-1, .cls-2 {
        fill: #a59a6e;
      }

      .cls-3 {
        fill: #aa2734;
      }

      .cls-4 {
        fill: #54565a;
      }

      .cls-4, .cls-2, .cls-5, .cls-6 {
        stroke: #000;
        stroke-linecap: round;
        stroke-linejoin: round;
        stroke-width: 1.5px;
      }

      .cls-5 {
        fill: #fff;
      }

      .cls-6 {
        fill: none;
      }
    </style>
  </defs>
  <g id="Content">
    <g>
      <g>
        <path class="cls-3" d="m121.53,1.5c10.54,0,19.13,8.5,19.22,19.06.09,10.15-7.69,18.53-17.65,19.33-.46.04-.93.06-1.4.06-.07,0-.13,0-.2,0-.52,0-1.04-.02-1.55-.07-9.81-.8-17.56-8.96-17.65-18.99-.1-10.62,8.43-19.3,19.05-19.4.06,0,.12,0,.18,0m0-1.5h-.19c-11.43.11-20.64,9.49-20.54,20.92.1,10.8,8.28,19.6,19.03,20.47.57.05,1.13.07,1.67.07h.22c.52,0,1.03-.03,1.52-.07,10.76-.87,19.11-10.03,19.02-20.84-.1-11.33-9.4-20.54-20.72-20.54h0Z"/>
        <g>
          <path class="cls-4" d="m133.34,20.09c.02-.58-.33-1.09-.83-1.31.47-.29.74-.85.63-1.42v-.06c-.11-.58-.55-1.01-1.09-1.12.39-.38.54-.96.34-1.5l-.04-.09c-.22-.55-.75-.86-1.31-.84.32-.46.34-1.1,0-1.59l-.03-.05c-.34-.49-.94-.7-1.48-.56.21-.53.08-1.15-.36-1.55,0,0-.03-.03-.03-.03-.44-.4-1.06-.46-1.56-.21.07-.55-.2-1.12-.72-1.4l-.06-.03c-.53-.28-1.16-.19-1.58.19-.07-.56-.48-1.05-1.06-1.18,0,0-.07-.02-.07-.02-.59-.13-1.15.14-1.45.62-.2-.53-.71-.91-1.31-.89h-.11c-.6.03-1.08.43-1.25.97-.34-.45-.94-.67-1.51-.49l-.08.03c-.57.18-.92.69-.94,1.26-.45-.36-1.09-.41-1.6-.09l-.05.03c-.51.31-.74.89-.64,1.45-.51-.22-1.13-.12-1.54.3l-.05.05c-.41.42-.5,1.03-.27,1.54-.54-.1-1.11.13-1.42.63l-.05.07c-.31.5-.24,1.11.1,1.55-.55.01-1.07.36-1.27.91l-.03.08c-.2.56,0,1.14.42,1.5-.54.13-.97.57-1.05,1.15v.09c-.09.58.21,1.12.7,1.38-.5.23-.83.75-.8,1.34v.09c.05.59.45,1.05.98,1.21-.45.33-.67.91-.51,1.48l.02.09c.16.57.65.94,1.21.98-.37.42-.46,1.04-.19,1.56l.04.08c.28.52.84.77,1.39.69-.28.5-.22,1.14.18,1.59l.04.04c.39.45.99.58,1.52.4-.14.54.05,1.13.53,1.47l.07.05c.49.34,1.11.31,1.57-.01-.01.57.32,1.11.88,1.33l.09.03c.56.21,1.16.02,1.52-.41.13.55.61.99,1.2,1.05h.09s.05.01.08.01c.57.02,1.06-.31,1.28-.81.27.5.85.81,1.45.71,0,0,.07-.01.07-.01.59-.1,1.01-.57,1.1-1.13.39.41,1.01.56,1.56.32l.1-.04c.54-.25.83-.8.79-1.36.48.29,1.12.27,1.58-.1l.06-.05c.47-.37.61-.98.42-1.51.54.18,1.16.01,1.53-.46l.04-.06c.36-.46.38-1.08.1-1.56.55.05,1.1-.26,1.35-.79l.03-.06c.25-.53.14-1.14-.23-1.54.54-.08,1-.47,1.15-1.03l.02-.09c.14-.57-.11-1.13-.57-1.44.52-.18.91-.66.93-1.25v-.12s0-.01,0-.01Z"/>
          <g>
            <g>
              <polyline class="cls-5" points="135.72 33.34 125.35 28.84 125.35 24.31 117.71 24.31 117.71 28.84 107.31 33.4"/>
              <polygon class="cls-5" points="121.53 31.94 125.35 28.84 125.35 24.31 117.71 24.31 117.71 28.84 121.53 31.94"/>
              <polygon class="cls-5" points="121.53 31.94 118.83 34.16 116.32 29.41 117.71 28.2 121.53 31.94"/>
              <polygon class="cls-5" points="121.53 31.94 124.23 34.16 126.74 29.41 125.35 28.2 121.53 31.94"/>
              <polyline class="cls-6" points="123.29 33.39 122.46 35.12 121.53 35.12 120.59 35.12 119.77 33.39"/>
              <line class="cls-6" x1="123.11" y1="39.89" x2="122.46" y2="35.13"/>
              <line class="cls-6" x1="120.59" y1="35.13" x2="119.95" y2="39.89"/>
            </g>
            <path class="cls-5" d="m127.8,16.84c0,4.49,0-1.5,0,2.99-.16,3.6-2.95,7.1-6.25,7.08-3.27-.02-6.01-3.51-6.17-7.08,0-4.49,0,.81,0-3.68"/>
            <path class="cls-5" d="m115.38,16.16s2.72-1.48,3.55-4.03c0,0,2.66,4.34,8.87,4.74"/>
          </g>
        </g>
      </g>
      <g>
        <path class="cls-3" d="m42.05,147.35c10.54,0,19.13,8.5,19.22,19.06.09,10.15-7.69,18.53-17.65,19.33-.46.04-.93.06-1.4.06-.07,0-.13,0-.2,0-.52,0-1.04-.02-1.55-.07-9.81-.8-17.56-8.96-17.65-18.99-.1-10.62,8.43-19.3,19.05-19.4.06,0,.12,0,.18,0m0-1.5h-.19c-11.43.11-20.64,9.49-20.54,20.92.1,10.8,8.28,19.6,19.03,20.47.57.05,1.13.07,1.67.07h.22c.52,0,1.03-.03,1.52-.07,10.76-.87,19.11-10.03,19.02-20.84-.1-11.33-9.4-20.54-20.72-20.54h0Z"/>
        <g>
          <path class="cls-4" d="m53.86,165.93c.02-.58-.33-1.09-.83-1.31.47-.29.74-.85.63-1.42v-.06c-.11-.58-.55-1.01-1.09-1.12.39-.38.54-.96.34-1.5l-.04-.09c-.22-.55-.75-.86-1.31-.84.32-.46.34-1.1,0-1.59l-.03-.05c-.34-.49-.94-.7-1.48-.56.21-.53.08-1.15-.36-1.55,0,0-.03-.03-.03-.03-.44-.4-1.06-.46-1.56-.21.07-.55-.2-1.12-.72-1.4l-.06-.03c-.53-.28-1.16-.19-1.58.19-.07-.56-.48-1.05-1.06-1.18,0,0-.07-.02-.07-.02-.59-.13-1.15.14-1.45.62-.2-.53-.71-.91-1.31-.89h-.11c-.6.03-1.08.43-1.25.97-.34-.45-.94-.67-1.51-.49l-.08.03c-.57.18-.92.69-.94,1.26-.45-.36-1.09-.41-1.6-.09l-.05.03c-.51.31-.74.89-.64,1.45-.51-.22-1.13-.12-1.54.3l-.05.05c-.41.42-.5,1.03-.27,1.54-.54-.1-1.11.13-1.42.63l-.05.07c-.31.5-.24,1.11.1,1.55-.55.01-1.07.36-1.27.91l-.03.08c-.2.56,0,1.14.42,1.5-.54.13-.97.57-1.05,1.15v.09c-.09.58.21,1.12.7,1.38-.5.23-.83.75-.8,1.34v.09c.05.59.45,1.05.98,1.21-.45.33-.67.91-.51,1.48l.02.09c.16.57.65.94,1.21.98-.37.42-.46,1.04-.19,1.56l.04.08c.28.52.84.77,1.39.69-.28.5-.22,1.14.18,1.59l.04.04c.39.45.99.58,1.52.4-.14.54.05,1.13.53,1.47l.07.05c.49.34,1.11.31,1.57-.01-.01.57.32,1.11.88,1.33l.09.03c.56.21,1.16.02,1.52-.41.13.55.61.99,1.2,1.05h.09s.05.01.08.01c.57.02,1.06-.31,1.28-.81.27.5.85.81,1.45.71,0,0,.07-.01.07-.01.59-.1,1.01-.57,1.1-1.13.39.41,1.01.56,1.56.32l.1-.04c.54-.25.83-.8.79-1.36.48.29,1.12.27,1.58-.1l.06-.05c.47-.37.61-.98.42-1.51.54.18,1.16.01,1.53-.46l.04-.06c.36-.46.38-1.08.1-1.56.55.05,1.1-.26,1.35-.79l.03-.06c.25-.53.14-1.14-.23-1.54.54-.08,1-.47,1.15-1.03l.02-.09c.14-.57-.11-1.13-.57-1.44.52-.18.91-.66.93-1.25v-.12s0-.01,0-.01Z"/>
          <g>
            <g>
              <polyline class="cls-5" points="56.24 179.19 45.87 174.69 45.87 170.16 38.23 170.16 38.23 174.69 27.83 179.25"/>
              <polygon class="cls-5" points="42.05 177.79 45.87 174.69 45.87 170.16 38.23 170.16 38.23 174.69 42.05 177.79"/>
              <polygon class="cls-5" points="42.05 177.79 39.35 180.01 36.84 175.26 38.23 174.05 42.05 177.79"/>
              <polygon class="cls-5" points="42.05 177.79 44.75 180.01 47.26 175.26 45.87 174.05 42.05 177.79"/>
              <polyline class="cls-6" points="43.81 179.23 42.98 180.97 42.05 180.97 41.11 180.97 40.29 179.23"/>
              <line class="cls-6" x1="43.63" y1="185.74" x2="42.98" y2="180.97"/>
              <line class="cls-6" x1="41.11" y1="180.97" x2="40.47" y2="185.74"/>
            </g>
            <path class="cls-5" d="m48.32,162.69c0,4.49,0-1.5,0,2.99-.16,3.6-2.95,7.1-6.25,7.08-3.27-.02-6.01-3.51-6.17-7.08,0-4.49,0,.81,0-3.68"/>
            <path class="cls-5" d="m35.9,162s2.72-1.48,3.55-4.03c0,0,2.66,4.34,8.87,4.74"/>
          </g>
        </g>
      </g>
      <g>
        <path class="cls-3" d="m198.51,147.37c10.54,0,19.13,8.5,19.22,19.06.09,10.15-7.69,18.53-17.65,19.33-.46.04-.93.06-1.4.06-.07,0-.13,0-.2,0-.52,0-1.04-.02-1.55-.07-9.81-.8-17.56-8.96-17.65-18.99-.1-10.62,8.43-19.3,19.05-19.4.06,0,.12,0,.18,0m0-1.5h-.19c-11.43.11-20.64,9.49-20.54,20.92.1,10.8,8.28,19.6,19.03,20.47.57.05,1.13.07,1.67.07h.22c.52,0,1.03-.03,1.52-.07,10.76-.87,19.11-10.03,19.02-20.84-.1-11.33-9.4-20.54-20.72-20.54h0Z"/>
        <g>
          <path class="cls-4" d="m210.33,165.96c.02-.58-.33-1.09-.83-1.31.47-.29.74-.85.63-1.42v-.06c-.11-.58-.55-1.01-1.09-1.12.39-.38.54-.96.34-1.5l-.04-.09c-.22-.55-.75-.86-1.31-.84.32-.46.34-1.1,0-1.59l-.03-.05c-.34-.49-.94-.7-1.48-.56.21-.53.08-1.15-.36-1.55,0,0-.03-.03-.03-.03-.44-.4-1.06-.46-1.56-.21.07-.55-.2-1.12-.72-1.4l-.06-.03c-.53-.28-1.16-.19-1.58.19-.07-.56-.48-1.05-1.06-1.18,0,0-.07-.02-.07-.02-.59-.13-1.15.14-1.45.62-.2-.53-.71-.91-1.31-.89h-.11c-.6.03-1.08.43-1.25.97-.34-.45-.94-.67-1.51-.49l-.08.03c-.57.18-.92.69-.94,1.26-.45-.36-1.09-.41-1.6-.09l-.05.03c-.51.31-.74.89-.64,1.45-.51-.22-1.13-.12-1.54.3l-.05.05c-.41.42-.5,1.03-.27,1.54-.54-.1-1.11.13-1.42.63l-.05.07c-.31.5-.24,1.11.1,1.55-.55.01-1.07.36-1.27.91l-.03.08c-.2.56,0,1.14.42,1.5-.54.13-.97.57-1.05,1.15v.09c-.09.58.21,1.12.7,1.38-.5.23-.83.75-.8,1.34v.09c.05.59.45,1.05.98,1.21-.45.33-.67.91-.51,1.48l.02.09c.16.57.65.94,1.21.98-.37.42-.46,1.04-.19,1.56l.04.08c.28.52.84.77,1.39.69-.28.5-.22,1.14.18,1.59l.04.04c.39.45.99.58,1.52.4-.14.54.05,1.13.53,1.47l.07.05c.49.34,1.11.31,1.57-.01-.01.57.32,1.11.88,1.33l.09.03c.56.21,1.16.02,1.52-.41.13.55.61.99,1.2,1.05h.09s.05.01.08.01c.57.02,1.06-.31,1.28-.81.27.5.85.81,1.45.71,0,0,.07-.01.07-.01.59-.1,1.01-.57,1.1-1.13.39.41,1.01.56,1.56.32l.1-.04c.54-.25.83-.8.79-1.36.48.29,1.12.27,1.58-.1l.06-.05c.47-.37.61-.98.42-1.51.54.18,1.16.01,1.53-.46l.04-.06c.36-.46.38-1.08.1-1.56.55.05,1.1-.26,1.35-.79l.03-.06c.25-.53.14-1.14-.23-1.54.54-.08,1-.47,1.15-1.03l.02-.09c.14-.57-.11-1.13-.57-1.44.52-.18.91-.66.93-1.25v-.12s0-.01,0-.01Z"/>
          <g>
            <g>
              <polyline class="cls-5" points="212.7 179.21 202.33 174.72 202.33 170.18 194.69 170.18 194.69 174.72 184.29 179.27"/>
              <polygon class="cls-5" points="198.51 177.81 202.33 174.72 202.33 170.18 194.69 170.18 194.69 174.72 198.51 177.81"/>
              <polygon class="cls-5" points="198.51 177.81 195.81 180.03 193.3 175.29 194.69 174.07 198.51 177.81"/>
              <polygon class="cls-5" points="198.51 177.81 201.21 180.03 203.72 175.29 202.33 174.07 198.51 177.81"/>
              <polyline class="cls-6" points="200.27 179.26 199.45 181 198.51 181 197.58 181 196.75 179.26"/>
              <line class="cls-6" x1="200.09" y1="185.76" x2="199.45" y2="181"/>
              <line class="cls-6" x1="197.58" y1="181" x2="196.93" y2="185.76"/>
            </g>
            <path class="cls-5" d="m204.78,162.71c0,4.49,0-1.5,0,2.99-.16,3.6-2.95,7.1-6.25,7.08-3.27-.02-6.01-3.51-6.17-7.08,0-4.49,0,.81,0-3.68"/>
            <path class="cls-5" d="m192.36,162.03s2.72-1.48,3.55-4.03c0,0,2.66,4.34,8.87,4.74"/>
          </g>
        </g>
      </g>
      <g>
        <path class="cls-3" d="m176.36,254.57c10.54,0,19.13,8.5,19.22,19.06.09,10.15-7.69,18.53-17.65,19.33-.46.04-.93.06-1.4.06-.07,0-.13,0-.2,0-.52,0-1.04-.02-1.55-.07-9.81-.8-17.56-8.96-17.65-18.99-.1-10.62,8.43-19.3,19.05-19.4.06,0,.12,0,.18,0m0-1.5h-.19c-11.43.11-20.64,9.49-20.54,20.92.1,10.8,8.28,19.6,19.03,20.47.57.05,1.13.07,1.67.07h.22c.52,0,1.03-.03,1.52-.07,10.76-.87,19.11-10.03,19.02-20.84-.1-11.33-9.4-20.54-20.72-20.54h0Z"/>
        <g>
          <path class="cls-4" d="m188.17,273.15c.02-.58-.33-1.09-.83-1.31.47-.29.74-.85.63-1.42v-.06c-.11-.58-.55-1.01-1.09-1.12.39-.38.54-.96.34-1.5l-.04-.09c-.22-.55-.75-.86-1.31-.84.32-.46.34-1.1,0-1.59l-.03-.05c-.34-.49-.94-.7-1.48-.56.21-.53.08-1.15-.36-1.55,0,0-.03-.03-.03-.03-.44-.4-1.06-.46-1.56-.21.07-.55-.2-1.12-.72-1.4l-.06-.03c-.53-.28-1.16-.19-1.58.19-.07-.56-.48-1.05-1.06-1.18,0,0-.07-.02-.07-.02-.59-.13-1.15.14-1.45.62-.2-.53-.71-.91-1.31-.89h-.11c-.6.03-1.08.43-1.25.97-.34-.45-.94-.67-1.51-.49l-.08.03c-.57.18-.92.69-.94,1.26-.45-.36-1.09-.41-1.6-.09l-.05.03c-.51.31-.74.89-.64,1.45-.51-.22-1.13-.12-1.54.3l-.05.05c-.41.42-.5,1.03-.27,1.54-.54-.1-1.11.13-1.42.63l-.05.07c-.31.5-.24,1.11.1,1.55-.55.01-1.07.36-1.27.91l-.03.08c-.2.56,0,1.14.42,1.5-.54.13-.97.57-1.05,1.15v.09c-.09.58.21,1.12.7,1.38-.5.23-.83.75-.8,1.34v.09c.05.59.45,1.05.98,1.21-.45.33-.67.91-.51,1.48l.02.09c.16.57.65.94,1.21.98-.37.42-.46,1.04-.19,1.56l.04.08c.28.52.84.77,1.39.69-.28.5-.22,1.14.18,1.59l.04.04c.39.45.99.58,1.52.4-.14.54.05,1.13.53,1.47l.07.05c.49.34,1.11.31,1.57-.01-.01.57.32,1.11.88,1.33l.09.03c.56.21,1.16.02,1.52-.41.13.55.61.99,1.2,1.05h.09s.05.01.08.01c.57.02,1.06-.31,1.28-.81.27.5.85.81,1.45.71,0,0,.07-.01.07-.01.59-.1,1.01-.57,1.1-1.13.39.41,1.01.56,1.56.32l.1-.04c.54-.25.83-.8.79-1.36.48.29,1.12.27,1.58-.1l.06-.05c.47-.37.61-.98.42-1.51.54.18,1.16.01,1.53-.46l.04-.06c.36-.46.38-1.08.1-1.56.55.05,1.1-.26,1.35-.79l.03-.06c.25-.53.14-1.14-.23-1.54.54-.08,1-.47,1.15-1.03l.02-.09c.14-.57-.11-1.13-.57-1.44.52-.18.91-.66.93-1.25v-.12s0-.01,0-.01Z"/>
          <g>
            <g>
              <polyline class="cls-5" points="190.55 286.41 180.18 281.91 180.18 277.38 172.53 277.38 172.53 281.91 162.14 286.47"/>
              <polygon class="cls-5" points="176.36 285.01 180.18 281.91 180.18 277.38 172.53 277.38 172.53 281.91 176.36 285.01"/>
              <polygon class="cls-5" points="176.36 285.01 173.66 287.23 171.15 282.48 172.53 281.27 176.36 285.01"/>
              <polygon class="cls-5" points="176.36 285.01 179.06 287.23 181.57 282.48 180.18 281.27 176.36 285.01"/>
              <polyline class="cls-6" points="178.12 286.46 177.29 288.19 176.36 288.19 175.42 288.19 174.6 286.46"/>
              <line class="cls-6" x1="177.94" y1="292.96" x2="177.29" y2="288.19"/>
              <line class="cls-6" x1="175.42" y1="288.19" x2="174.78" y2="292.96"/>
            </g>
            <path class="cls-5" d="m182.63,269.91c0,4.49,0-1.5,0,2.99-.16,3.6-2.95,7.1-6.25,7.08-3.27-.02-6.01-3.51-6.17-7.08,0-4.49,0,.81,0-3.68"/>
            <path class="cls-5" d="m170.21,269.23s2.72-1.48,3.55-4.03c0,0,2.66,4.34,8.87,4.74"/>
          </g>
        </g>
      </g>
      <g>
        <path class="cls-3" d="m119.77,296.8c10.54,0,19.13,8.5,19.22,19.06.09,10.15-7.69,18.53-17.65,19.33-.46.04-.93.06-1.4.06-.07,0-.13,0-.2,0-.52,0-1.04-.02-1.55-.07-9.81-.8-17.56-8.96-17.65-18.99-.1-10.62,8.43-19.3,19.05-19.4.06,0,.12,0,.18,0m0-1.5h-.19c-11.43.11-20.64,9.49-20.54,20.92.1,10.8,8.28,19.6,19.03,20.47.57.05,1.13.07,1.67.07h.22c.52,0,1.03-.03,1.52-.07,10.76-.87,19.11-10.03,19.02-20.84-.1-11.33-9.4-20.54-20.72-20.54h0Z"/>
        <g>
          <path class="cls-4" d="m131.58,315.38c.02-.58-.33-1.09-.83-1.31.47-.29.74-.85.63-1.42v-.06c-.11-.58-.55-1.01-1.09-1.12.39-.38.54-.96.34-1.5l-.04-.09c-.22-.55-.75-.86-1.31-.84.32-.46.34-1.1,0-1.59l-.03-.05c-.34-.49-.94-.7-1.48-.56.21-.53.08-1.15-.36-1.55,0,0-.03-.03-.03-.03-.44-.4-1.06-.46-1.56-.21.07-.55-.2-1.12-.72-1.4l-.06-.03c-.53-.28-1.16-.19-1.58.19-.07-.56-.48-1.05-1.06-1.18,0,0-.07-.02-.07-.02-.59-.13-1.15.14-1.45.62-.2-.53-.71-.91-1.31-.89h-.11c-.6.03-1.08.43-1.25.97-.34-.45-.94-.67-1.51-.49l-.08.03c-.57.18-.92.69-.94,1.26-.45-.36-1.09-.41-1.6-.09l-.05.03c-.51.31-.74.89-.64,1.45-.51-.22-1.13-.12-1.54.3l-.05.05c-.41.42-.5,1.03-.27,1.54-.54-.1-1.11.13-1.42.63l-.05.07c-.31.5-.24,1.11.1,1.55-.55.01-1.07.36-1.27.91l-.03.08c-.2.56,0,1.14.42,1.5-.54.13-.97.57-1.05,1.15v.09c-.09.58.21,1.12.7,1.38-.5.23-.83.75-.8,1.34v.09c.05.59.45,1.05.98,1.21-.45.33-.67.91-.51,1.48l.02.09c.16.57.65.94,1.21.98-.37.42-.46,1.04-.19,1.56l.04.08c.28.52.84.77,1.39.69-.28.5-.22,1.14.18,1.59l.04.04c.39.45.99.58,1.52.4-.14.54.05,1.13.53,1.47l.07.05c.49.34,1.11.31,1.57-.01-.01.57.32,1.11.88,1.33l.09.03c.56.21,1.16.02,1.52-.41.13.55.61.99,1.2,1.05h.09s.05.01.08.01c.57.02,1.06-.31,1.28-.81.27.5.85.81,1.45.71,0,0,.07-.01.07-.01.59-.1,1.01-.57,1.1-1.13.39.41,1.01.56,1.56.32l.1-.04c.54-.25.83-.8.79-1.36.48.29,1.12.27,1.58-.1l.06-.05c.47-.37.61-.98.42-1.51.54.18,1.16.01,1.53-.46l.04-.06c.36-.46.38-1.08.1-1.56.55.05,1.1-.26,1.35-.79l.03-.06c.25-.53.14-1.14-.23-1.54.54-.08,1-.47,1.15-1.03l.02-.09c.14-.57-.11-1.13-.57-1.44.52-.18.91-.66.93-1.25v-.12s0-.01,0-.01Z"/>
          <g>
            <g>
              <polyline class="cls-5" points="133.96 328.64 123.59 324.14 123.59 319.61 115.95 319.61 115.95 324.14 105.55 328.7"/>
              <polygon class="cls-5" points="119.77 327.24 123.59 324.14 123.59 319.61 115.95 319.61 115.95 324.14 119.77 327.24"/>
              <polygon class="cls-5" points="119.77 327.24 117.07 329.46 114.56 324.71 115.95 323.5 119.77 327.24"/>
              <polygon class="cls-5" points="119.77 327.24 122.47 329.46 124.98 324.71 123.59 323.5 119.77 327.24"/>
              <polyline class="cls-6" points="121.53 328.68 120.7 330.42 119.77 330.42 118.83 330.42 118.01 328.68"/>
              <line class="cls-6" x1="121.35" y1="335.19" x2="120.71" y2="330.42"/>
              <line class="cls-6" x1="118.83" y1="330.42" x2="118.19" y2="335.19"/>
            </g>
            <path class="cls-5" d="m126.04,312.13c0,4.49,0-1.5,0,2.99-.16,3.6-2.95,7.1-6.25,7.08-3.27-.02-6.01-3.51-6.17-7.08,0-4.49,0,.81,0-3.68"/>
            <path class="cls-5" d="m113.62,311.45s2.72-1.48,3.55-4.03c0,0,2.66,4.34,8.87,4.74"/>
          </g>
        </g>
      </g>
      <g>
        <path class="cls-3" d="m59.58,247.81c10.54,0,19.13,8.5,19.22,19.06.09,10.15-7.69,18.53-17.65,19.33-.46.04-.93.06-1.4.06-.07,0-.13,0-.2,0-.52,0-1.04-.02-1.55-.07-9.81-.8-17.55-8.96-17.65-18.99-.1-10.62,8.43-19.3,19.05-19.4.06,0,.12,0,.18,0m0-1.5h-.19c-11.43.11-20.64,9.49-20.54,20.92.1,10.8,8.28,19.6,19.03,20.47.57.05,1.13.07,1.67.07h.22c.52,0,1.03-.03,1.52-.07,10.76-.87,19.11-10.03,19.02-20.84-.1-11.33-9.4-20.54-20.72-20.54h0Z"/>
        <g>
          <path class="cls-4" d="m71.39,266.4c.02-.58-.33-1.09-.83-1.31.47-.29.74-.85.63-1.42v-.06c-.11-.58-.55-1.01-1.09-1.12.39-.38.54-.96.34-1.5l-.04-.09c-.22-.55-.75-.86-1.31-.84.32-.46.34-1.1,0-1.59l-.03-.05c-.34-.49-.94-.7-1.48-.56.21-.53.08-1.15-.36-1.55,0,0-.03-.03-.03-.03-.44-.4-1.06-.46-1.56-.21.07-.55-.2-1.12-.72-1.4l-.06-.03c-.53-.28-1.16-.19-1.58.19-.07-.56-.48-1.05-1.06-1.18,0,0-.07-.02-.07-.02-.59-.13-1.15.14-1.45.62-.2-.53-.71-.91-1.31-.89h-.11c-.6.03-1.08.43-1.25.97-.34-.45-.94-.67-1.51-.49l-.08.03c-.57.18-.92.69-.94,1.26-.45-.36-1.09-.41-1.6-.09l-.05.03c-.51.31-.74.89-.64,1.45-.51-.22-1.13-.12-1.54.3l-.05.05c-.41.42-.5,1.03-.27,1.54-.54-.1-1.11.13-1.42.63l-.05.07c-.31.5-.24,1.11.1,1.55-.55.01-1.07.36-1.27.91l-.03.08c-.2.56,0,1.14.42,1.5-.54.13-.97.57-1.05,1.15v.09c-.09.58.21,1.12.7,1.38-.5.23-.83.75-.8,1.34v.09c.05.59.45,1.05.98,1.21-.45.33-.67.91-.51,1.48l.02.09c.16.57.65.94,1.21.98-.37.42-.46,1.04-.19,1.56l.04.08c.28.52.84.77,1.39.69-.28.5-.22,1.14.18,1.59l.04.04c.39.45.99.58,1.52.4-.14.54.05,1.13.53,1.47l.07.05c.49.34,1.11.31,1.57-.01-.01.57.32,1.11.88,1.33l.09.03c.56.21,1.16.02,1.52-.41.13.55.61.99,1.2,1.05h.09s.05.01.08.01c.57.02,1.06-.31,1.28-.81.27.5.85.81,1.45.71,0,0,.07-.01.07-.01.59-.1,1.01-.57,1.1-1.13.39.41,1.01.56,1.56.32l.1-.04c.54-.25.83-.8.79-1.36.48.29,1.12.27,1.58-.1l.06-.05c.47-.37.61-.98.42-1.51.54.18,1.16.01,1.53-.46l.04-.06c.36-.46.38-1.08.1-1.56.55.05,1.1-.26,1.35-.79l.03-.06c.25-.53.14-1.14-.23-1.54.54-.08,1-.47,1.15-1.03l.02-.09c.14-.57-.11-1.13-.57-1.44.52-.18.91-.66.93-1.25v-.12s0-.01,0-.01Z"/>
          <g>
            <g>
              <polyline class="cls-5" points="73.77 279.65 63.4 275.16 63.4 270.62 55.75 270.62 55.75 275.16 45.35 279.71"/>
              <polygon class="cls-5" points="59.58 278.25 63.4 275.16 63.4 270.62 55.75 270.62 55.75 275.16 59.58 278.25"/>
              <polygon class="cls-5" points="59.58 278.25 56.87 280.47 54.37 275.73 55.75 274.51 59.58 278.25"/>
              <polygon class="cls-5" points="59.58 278.25 62.28 280.47 64.78 275.73 63.4 274.51 59.58 278.25"/>
              <polyline class="cls-6" points="61.33 279.7 60.51 281.44 59.58 281.44 58.64 281.44 57.82 279.7"/>
              <line class="cls-6" x1="61.15" y1="286.2" x2="60.51" y2="281.44"/>
              <line class="cls-6" x1="58.64" y1="281.44" x2="58" y2="286.2"/>
            </g>
            <path class="cls-5" d="m65.85,263.15c0,4.49,0-1.5,0,2.99-.16,3.6-2.95,7.1-6.25,7.08-3.27-.02-6.01-3.51-6.17-7.08,0-4.49,0,.81,0-3.68"/>
            <path class="cls-5" d="m53.43,262.47s2.72-1.48,3.55-4.03c0,0,2.66,4.34,8.87,4.74"/>
          </g>
        </g>
      </g>
      <g>
        <line class="cls-6" x1="135.72" y1="49.24" x2="169.92" y2="240.63"/>
        <polygon points="163.01 236.82 163.91 235.61 169.82 240.06 173.83 233.84 175.09 234.66 170.21 242.23 163.01 236.82"/>
      </g>
      <g>
        <line class="cls-6" x1="121.51" y1="52.1" x2="120.89" y2="282.27"/>
        <polygon points="114.77 277.28 115.87 276.26 120.89 281.69 125.94 276.29 127.04 277.32 120.89 283.9 114.77 277.28"/>
      </g>
      <g>
        <line class="cls-6" x1="110.01" y1="49" x2="66.22" y2="235.19"/>
        <polygon points="61.39 228.95 62.69 228.2 66.35 234.63 72.49 230.51 73.33 231.76 65.85 236.77 61.39 228.95"/>
      </g>
      <g>
        <line class="cls-6" x1="97.53" y1="40.41" x2="56.87" y2="137.23"/>
        <polygon points="53.14 130.27 54.55 129.76 57.09 136.7 63.83 133.66 64.45 135.02 56.24 138.73 53.14 130.27"/>
      </g>
      <g>
        <line class="cls-6" x1="144.49" y1="40.41" x2="186.2" y2="137.24"/>
        <polygon points="178.6 135.1 179.2 133.73 185.97 136.71 188.45 129.74 189.87 130.25 186.84 138.73 178.6 135.1"/>
      </g>
      <g>
        <polygon class="cls-1" points="225.33 255.87 217.48 254.51 217.48 248.55 222.32 248.97 223.62 253.33 225.33 255.87"/>
        <path class="cls-2" d="m219.68,247.73c.92-.34,2.16.08,3.04,1.55.66,1.1.69,3.18.83,3.6.27.85,1.18,1.8,3.04,1.41,0,0-.15,1.39-1.2,1.6"/>
        <path class="cls-2" d="m221.95,240.56c0,3.32-2.7,6.02-6.02,6.02s-6.02-2.7-6.02-6.02,2.7-6.07,6.02-6.07,6.02,2.75,6.02,6.07Z"/>
        <g>
          <path class="cls-5" d="m228.75,258.42c-.16-.86-.78-1.59-1.64-1.94l-8.23-2.76v-4.11h-5.87v4.11l-8.23,2.76c-.86.35-1.48,1.08-1.64,1.94"/>
          <path class="cls-5" d="m221.63,241.72c0,4.12,0-.76,0,3.37-.15,3.31-2.71,6.52-5.74,6.5-3-.02-5.51-3.22-5.66-6.5,0-4.12,0,.84,0-3.29l5.25-.06c1.29-.01,2.43-.87,2.8-2.11l.14-.46.03.18c.29,1.49,1.66,2.51,3.17,2.37h0Z"/>
          <path class="cls-5" d="m209,255.2s2.19,3.03,6.93,3.03,6.93-3.03,6.93-3.03"/>
        </g>
      </g>
      <g>
        <polygon class="cls-1" points="106.93 244.09 99.08 242.73 99.08 236.78 103.92 237.19 105.22 241.55 106.93 244.09"/>
        <path class="cls-2" d="m101.27,235.95c.92-.34,2.16.08,3.04,1.55.66,1.1.69,3.18.83,3.6.27.85,1.18,1.8,3.04,1.41,0,0-.15,1.39-1.2,1.6"/>
        <path class="cls-2" d="m103.55,228.78c0,3.32-2.7,6.02-6.02,6.02s-6.02-2.7-6.02-6.02,2.7-6.07,6.02-6.07,6.02,2.75,6.02,6.07Z"/>
        <g>
          <path class="cls-5" d="m110.34,246.64c-.16-.86-.78-1.59-1.64-1.94l-8.23-2.76v-4.11h-5.87v4.11l-8.23,2.76c-.86.35-1.48,1.08-1.64,1.94"/>
          <path class="cls-5" d="m103.23,229.94c0,4.12,0-.76,0,3.37-.15,3.31-2.71,6.52-5.74,6.5-3-.02-5.51-3.22-5.66-6.5,0-4.12,0,.84,0-3.29l5.25-.06c1.29-.01,2.43-.87,2.8-2.11l.14-.46.03.18c.29,1.49,1.66,2.51,3.17,2.37h0Z"/>
          <path class="cls-5" d="m90.6,243.42s2.19,3.03,6.93,3.03,6.93-3.03,6.93-3.03"/>
        </g>
      </g>
      <g>
        <polygon class="cls-1" points="40.51 310.9 32.66 309.55 32.66 303.59 37.5 304 38.8 308.37 40.51 310.9"/>
        <path class="cls-2" d="m34.86,302.77c.92-.34,2.16.08,3.04,1.55.66,1.1.69,3.18.83,3.6.27.85,1.18,1.8,3.04,1.41,0,0-.15,1.39-1.2,1.6"/>
        <path class="cls-2" d="m37.13,295.59c0,3.32-2.7,6.02-6.02,6.02s-6.02-2.7-6.02-6.02,2.7-6.07,6.02-6.07,6.02,2.75,6.02,6.07Z"/>
        <g>
          <path class="cls-5" d="m43.93,313.45c-.16-.86-.78-1.59-1.64-1.94l-8.23-2.76v-4.11h-5.87v4.11l-8.23,2.76c-.86.35-1.48,1.08-1.64,1.94"/>
          <path class="cls-5" d="m36.81,296.75c0,4.12,0-.76,0,3.37-.15,3.31-2.71,6.52-5.74,6.5-3-.02-5.51-3.22-5.66-6.5,0-4.12,0,.84,0-3.29l5.25-.06c1.29-.01,2.43-.87,2.8-2.11l.14-.46.03.18c.29,1.49,1.66,2.51,3.17,2.37h0Z"/>
          <path class="cls-5" d="m24.18,310.23s2.19,3.03,6.93,3.03,6.93-3.03,6.93-3.03"/>
        </g>
      </g>
      <g>
        <polygon class="cls-1" points="22.96 213.51 15.11 212.15 15.11 206.19 19.95 206.6 21.25 210.97 22.96 213.51"/>
        <path class="cls-2" d="m17.3,205.37c.92-.34,2.16.08,3.04,1.55.66,1.1.69,3.18.83,3.6.27.85,1.18,1.8,3.04,1.41,0,0-.15,1.39-1.2,1.6"/>
        <path class="cls-2" d="m19.58,198.2c0,3.32-2.7,6.02-6.02,6.02s-6.02-2.7-6.02-6.02,2.7-6.07,6.02-6.07,6.02,2.75,6.02,6.07Z"/>
        <g>
          <path class="cls-5" d="m26.38,216.05c-.16-.86-.78-1.59-1.64-1.94l-8.23-2.76v-4.11h-5.87v4.11l-8.23,2.76c-.86.35-1.48,1.08-1.64,1.94"/>
          <path class="cls-5" d="m19.26,199.35c0,4.12,0-.76,0,3.37-.15,3.31-2.71,6.52-5.74,6.5-3-.02-5.51-3.22-5.66-6.5,0-4.12,0,.84,0-3.29l5.25-.06c1.29-.01,2.43-.87,2.8-2.11l.14-.46.03.18c.29,1.49,1.66,2.51,3.17,2.37h0Z"/>
          <path class="cls-5" d="m6.63,212.84s2.19,3.03,6.93,3.03,6.93-3.03,6.93-3.03"/>
        </g>
      </g>
    </g>
  </g>
</svg>