<?xml version="1.0" encoding="UTF-8"?>
<svg id="Layer_2" data-name="Layer 2" xmlns="http://www.w3.org/2000/svg" viewBox="0 0 243.26 204.6">
  <defs>
    <style>
      .cls-1, .cls-2 {
        fill: #a59a6e;
      }

      .cls-3 {
        fill: #aa2734;
      }

      .cls-4 {
        fill: #54565a;
      }

      .cls-4, .cls-2, .cls-5, .cls-6 {
        stroke: #000;
        stroke-linecap: round;
        stroke-linejoin: round;
        stroke-width: 1.5px;
      }

      .cls-5 {
        fill: #fff;
      }

      .cls-6 {
        fill: none;
      }
    </style>
  </defs>
  <g id="Content">
    <g>
      <g>
        <path class="cls-3" d="m129.7,1.5c11.25,0,20.42,9.07,20.52,20.34.1,10.83-8.21,19.78-18.84,20.64-.5.04-1,.07-1.5.07-.07,0-.14,0-.21,0-.56,0-1.11-.03-1.66-.07-10.47-.85-18.74-9.56-18.84-20.27-.1-11.34,9-20.61,20.34-20.72.06,0,.13,0,.19,0m0-1.5h-.2c-12.14.11-21.94,10.09-21.83,22.23.11,11.47,8.8,20.82,20.22,21.75.6.05,1.2.08,1.78.08h.23c.55,0,1.1-.03,1.61-.08,11.43-.93,20.31-10.66,20.21-22.15-.11-12.04-9.99-21.83-22.02-21.83h0Z"/>
        <g>
          <path class="cls-4" d="m142.31,21.34c.02-.62-.35-1.17-.89-1.4.5-.31.79-.9.68-1.52v-.07c-.12-.61-.59-1.07-1.17-1.19.42-.4.58-1.03.36-1.6l-.04-.1c-.24-.58-.8-.92-1.4-.9.35-.49.37-1.17,0-1.7l-.04-.05c-.36-.53-1-.74-1.58-.6.22-.56.08-1.23-.39-1.66,0,0-.03-.03-.03-.03-.47-.42-1.13-.49-1.66-.22.08-.59-.21-1.2-.77-1.49l-.07-.04c-.56-.3-1.24-.2-1.69.2-.07-.6-.51-1.12-1.14-1.26,0,0-.07-.02-.08-.02-.63-.14-1.23.15-1.54.67-.21-.57-.76-.98-1.4-.95h-.12c-.64.03-1.15.46-1.33,1.03-.36-.48-1-.71-1.62-.53l-.09.03c-.61.19-.99.74-1.01,1.34-.48-.38-1.16-.44-1.71-.1l-.05.03c-.54.33-.79.95-.68,1.54-.55-.24-1.21-.13-1.65.32l-.05.05c-.44.45-.54,1.1-.29,1.64-.58-.1-1.19.14-1.52.67l-.05.08c-.33.54-.26,1.19.11,1.65-.59.01-1.14.38-1.36.97l-.03.09c-.21.6,0,1.22.45,1.6-.57.13-1.03.61-1.13,1.23v.1c-.1.62.23,1.19.75,1.47-.53.25-.89.8-.85,1.43v.09c.05.63.48,1.12,1.05,1.29-.48.35-.71.97-.55,1.58l.03.09c.17.61.7,1,1.29,1.05-.4.45-.49,1.11-.2,1.67l.04.08c.3.56.9.83,1.49.74-.29.53-.24,1.21.19,1.7l.04.05c.41.48,1.06.62,1.62.42-.15.57.06,1.21.57,1.57l.08.05c.52.37,1.19.34,1.67-.01-.02.61.35,1.19.94,1.42l.1.04c.6.22,1.24.02,1.62-.44.14.59.65,1.06,1.29,1.12h.1s.06.01.09.01c.6.02,1.13-.33,1.36-.86.29.54.91.86,1.54.76,0,0,.07-.01.08-.01.63-.11,1.08-.61,1.17-1.21.41.44,1.08.6,1.66.34l.1-.05c.58-.27.89-.85.84-1.45.51.31,1.19.29,1.69-.11l.06-.05c.5-.4.66-1.05.45-1.62.58.19,1.24.01,1.63-.49l.05-.06c.38-.49.41-1.15.11-1.66.59.05,1.18-.27,1.44-.84l.03-.06c.27-.56.15-1.21-.25-1.65.58-.08,1.07-.5,1.22-1.1l.02-.09c.15-.61-.12-1.21-.61-1.54.56-.19.97-.71,1-1.33v-.13s0-.02,0-.02Z"/>
          <g>
            <g>
              <polyline class="cls-5" points="144.85 35.49 133.78 30.69 133.78 25.85 125.62 25.85 125.62 30.69 114.51 35.56"/>
              <polygon class="cls-5" points="129.7 34 133.78 30.69 133.78 25.85 125.62 25.85 125.62 30.69 129.7 34"/>
              <polygon class="cls-5" points="129.7 34 126.81 36.37 124.14 31.3 125.62 30.01 129.7 34"/>
              <polygon class="cls-5" points="129.7 34 132.58 36.37 135.26 31.3 133.78 30.01 129.7 34"/>
              <polyline class="cls-6" points="131.58 35.54 130.7 37.4 129.7 37.4 128.7 37.4 127.82 35.54"/>
              <line class="cls-6" x1="131.38" y1="42.49" x2="130.7" y2="37.4"/>
              <line class="cls-6" x1="128.7" y1="37.4" x2="128.01" y2="42.49"/>
            </g>
            <path class="cls-5" d="m136.39,17.87c0,4.8,0-1.61,0,3.19-.18,3.85-3.15,7.58-6.67,7.56-3.49-.02-6.41-3.75-6.59-7.56,0-4.8,0,.86,0-3.93"/>
            <path class="cls-5" d="m123.13,17.15s2.9-1.58,3.79-4.3c0,0,2.84,4.64,9.47,5.06"/>
          </g>
        </g>
      </g>
      <g>
        <path class="cls-3" d="m44.84,36.86c11.25,0,20.42,9.07,20.52,20.34.1,10.83-8.21,19.78-18.84,20.64-.5.04-1,.07-1.5.07-.07,0-.14,0-.21,0-.56,0-1.11-.03-1.66-.07-10.47-.85-18.74-9.56-18.84-20.27-.1-11.34,9-20.61,20.34-20.72.06,0,.13,0,.19,0m0-1.5h-.2c-12.14.11-21.94,10.09-21.83,22.23.11,11.47,8.8,20.82,20.22,21.75.6.05,1.2.08,1.78.08h.23c.55,0,1.09-.03,1.61-.08,11.43-.93,20.31-10.66,20.21-22.15-.11-12.04-9.99-21.83-22.02-21.83h0Z"/>
        <g>
          <path class="cls-4" d="m57.45,56.7c.02-.62-.35-1.17-.89-1.4.5-.31.79-.9.68-1.52v-.07c-.12-.61-.59-1.07-1.17-1.19.42-.4.58-1.03.36-1.6l-.04-.1c-.24-.58-.8-.92-1.4-.9.35-.49.37-1.17,0-1.7l-.04-.05c-.36-.53-1-.74-1.58-.6.22-.56.08-1.23-.39-1.66,0,0-.03-.03-.03-.03-.47-.42-1.13-.49-1.66-.22.08-.59-.21-1.2-.77-1.49l-.07-.04c-.56-.3-1.24-.2-1.69.2-.07-.6-.51-1.12-1.14-1.26,0,0-.07-.02-.08-.02-.63-.14-1.23.15-1.54.67-.21-.57-.76-.98-1.4-.95h-.12c-.64.03-1.15.46-1.33,1.03-.36-.48-1-.71-1.62-.53l-.09.03c-.61.19-.99.74-1.01,1.34-.48-.38-1.16-.44-1.71-.1l-.05.03c-.54.33-.79.95-.68,1.54-.55-.24-1.21-.13-1.65.32l-.05.05c-.44.45-.54,1.1-.29,1.64-.58-.1-1.19.14-1.52.67l-.05.08c-.33.54-.26,1.19.11,1.65-.59.01-1.14.38-1.36.97l-.03.09c-.21.6,0,1.22.45,1.6-.57.13-1.03.61-1.13,1.23v.1c-.1.62.23,1.19.75,1.47-.53.25-.89.8-.85,1.43v.09c.05.63.48,1.12,1.05,1.29-.48.35-.71.97-.55,1.58l.03.09c.17.61.7,1,1.29,1.05-.4.45-.49,1.11-.2,1.67l.04.08c.3.56.9.83,1.49.74-.29.53-.24,1.21.19,1.7l.04.05c.41.48,1.06.62,1.62.42-.15.57.06,1.21.57,1.57l.08.05c.52.37,1.19.34,1.67-.01-.02.61.35,1.19.94,1.42l.1.04c.6.22,1.24.02,1.62-.44.14.59.65,1.06,1.29,1.12h.1s.06.01.09.01c.6.02,1.13-.33,1.36-.86.29.54.91.86,1.54.76,0,0,.07-.01.08-.01.63-.11,1.08-.61,1.17-1.21.41.44,1.08.6,1.66.34l.1-.05c.58-.27.89-.85.84-1.45.51.31,1.19.29,1.69-.11l.06-.05c.5-.4.66-1.05.45-1.62.58.19,1.24.01,1.63-.49l.05-.06c.38-.49.41-1.15.11-1.66.59.05,1.18-.27,1.44-.84l.03-.06c.27-.56.15-1.21-.25-1.65.58-.08,1.07-.5,1.22-1.1l.02-.09c.15-.61-.12-1.21-.61-1.54.56-.19.97-.71,1-1.33v-.13s0-.02,0-.02Z"/>
          <g>
            <g>
              <polyline class="cls-5" points="60 70.85 48.92 66.05 48.92 61.21 40.76 61.21 40.76 66.05 29.66 70.92"/>
              <polygon class="cls-5" points="44.84 69.36 48.92 66.05 48.92 61.21 40.76 61.21 40.76 66.05 44.84 69.36"/>
              <polygon class="cls-5" points="44.84 69.36 41.96 71.73 39.28 66.66 40.76 65.37 44.84 69.36"/>
              <polygon class="cls-5" points="44.84 69.36 47.73 71.73 50.4 66.66 48.92 65.37 44.84 69.36"/>
              <polyline class="cls-6" points="46.72 70.91 45.84 72.76 44.84 72.76 43.84 72.76 42.96 70.91"/>
              <line class="cls-6" x1="46.53" y1="77.85" x2="45.84" y2="72.76"/>
              <line class="cls-6" x1="43.84" y1="72.76" x2="43.16" y2="77.85"/>
            </g>
            <path class="cls-5" d="m51.54,53.24c0,4.8,0-1.61,0,3.19-.18,3.85-3.15,7.58-6.67,7.56-3.49-.02-6.41-3.75-6.59-7.56,0-4.8,0,.86,0-3.93"/>
            <path class="cls-5" d="m38.28,52.51s2.9-1.58,3.79-4.3c0,0,2.84,4.64,9.47,5.06"/>
          </g>
        </g>
      </g>
      <g>
        <path class="cls-3" d="m211.89,36.86c11.25,0,20.42,9.07,20.52,20.34.1,10.83-8.21,19.78-18.84,20.64-.5.04-1,.07-1.5.07-.07,0-.14,0-.21,0-.56,0-1.11-.03-1.66-.07-10.47-.85-18.74-9.56-18.84-20.27-.1-11.34,9-20.61,20.34-20.72.06,0,.13,0,.19,0m0-1.5h-.2c-12.14.11-21.94,10.09-21.83,22.23.11,11.47,8.8,20.82,20.22,21.75.6.05,1.2.08,1.78.08h.23c.55,0,1.09-.03,1.61-.08,11.43-.93,20.31-10.66,20.21-22.15-.11-12.04-9.99-21.83-22.02-21.83h0Z"/>
        <g>
          <path class="cls-4" d="m224.5,56.7c.02-.62-.35-1.17-.89-1.4.5-.31.79-.9.68-1.52v-.07c-.12-.61-.59-1.07-1.17-1.19.42-.4.58-1.03.36-1.6l-.04-.1c-.24-.58-.8-.92-1.4-.9.35-.49.37-1.17,0-1.7l-.04-.05c-.36-.53-1-.74-1.58-.6.22-.56.08-1.23-.39-1.66,0,0-.03-.03-.03-.03-.47-.42-1.13-.49-1.66-.22.08-.59-.21-1.2-.77-1.49l-.07-.04c-.56-.3-1.24-.2-1.69.2-.07-.6-.51-1.12-1.14-1.26,0,0-.07-.02-.08-.02-.63-.14-1.23.15-1.54.67-.21-.57-.76-.98-1.4-.95h-.12c-.64.03-1.15.46-1.33,1.03-.36-.48-1-.71-1.62-.53l-.09.03c-.61.19-.99.74-1.01,1.34-.48-.38-1.16-.44-1.71-.1l-.05.03c-.54.33-.79.95-.68,1.54-.55-.24-1.21-.13-1.65.32l-.05.05c-.44.45-.54,1.1-.29,1.64-.58-.1-1.19.14-1.52.67l-.05.08c-.33.54-.26,1.19.11,1.65-.59.01-1.14.38-1.36.97l-.03.09c-.21.6,0,1.22.45,1.6-.57.13-1.03.61-1.13,1.23v.1c-.1.62.23,1.19.75,1.47-.53.25-.89.8-.85,1.43v.09c.05.63.48,1.12,1.05,1.29-.48.35-.71.97-.55,1.58l.03.09c.17.61.7,1,1.29,1.05-.4.45-.49,1.11-.2,1.67l.04.08c.3.56.9.83,1.49.74-.29.53-.24,1.21.19,1.7l.04.05c.41.48,1.06.62,1.62.42-.15.57.06,1.21.57,1.57l.08.05c.52.37,1.19.34,1.67-.01-.02.61.35,1.19.94,1.42l.1.04c.6.22,1.24.02,1.62-.44.14.59.65,1.06,1.29,1.12h.1s.06.01.09.01c.6.02,1.13-.33,1.36-.86.29.54.91.86,1.54.76,0,0,.07-.01.08-.01.63-.11,1.08-.61,1.17-1.21.41.44,1.08.6,1.66.34l.1-.05c.58-.27.89-.85.84-1.45.51.31,1.19.29,1.69-.11l.06-.05c.5-.4.66-1.05.45-1.62.58.19,1.24.01,1.63-.49l.05-.06c.38-.49.41-1.15.11-1.66.59.05,1.18-.27,1.44-.84l.03-.06c.27-.56.15-1.21-.25-1.65.58-.08,1.07-.5,1.22-1.1l.02-.09c.15-.61-.12-1.21-.61-1.54.56-.19.97-.71,1-1.33v-.13s0-.02,0-.02Z"/>
          <g>
            <g>
              <polyline class="cls-5" points="227.04 70.85 215.97 66.05 215.97 61.21 207.81 61.21 207.81 66.05 196.7 70.92"/>
              <polygon class="cls-5" points="211.89 69.36 215.97 66.05 215.97 61.21 207.81 61.21 207.81 66.05 211.89 69.36"/>
              <polygon class="cls-5" points="211.89 69.36 209 71.73 206.33 66.66 207.81 65.37 211.89 69.36"/>
              <polygon class="cls-5" points="211.89 69.36 214.77 71.73 217.45 66.66 215.97 65.37 211.89 69.36"/>
              <polyline class="cls-6" points="213.76 70.91 212.89 72.76 211.89 72.76 210.89 72.76 210.01 70.91"/>
              <line class="cls-6" x1="213.57" y1="77.85" x2="212.89" y2="72.76"/>
              <line class="cls-6" x1="210.89" y1="72.76" x2="210.2" y2="77.85"/>
            </g>
            <path class="cls-5" d="m218.58,53.24c0,4.8,0-1.61,0,3.19-.18,3.85-3.15,7.58-6.67,7.56-3.49-.02-6.41-3.75-6.59-7.56,0-4.8,0,.86,0-3.93"/>
            <path class="cls-5" d="m205.32,52.51s2.9-1.58,3.79-4.3c0,0,2.84,4.64,9.47,5.06"/>
          </g>
        </g>
      </g>
      <g>
        <path class="cls-3" d="m189.24,128.96c11.25,0,20.42,9.07,20.52,20.34.1,10.83-8.21,19.78-18.84,20.64-.5.04-1,.07-1.5.07-.07,0-.14,0-.21,0-.56,0-1.11-.03-1.66-.07-10.47-.85-18.74-9.56-18.84-20.27-.1-11.34,9-20.61,20.34-20.72.06,0,.13,0,.19,0m0-1.5h-.2c-12.14.11-21.94,10.09-21.83,22.23.11,11.47,8.8,20.82,20.22,21.75.6.05,1.2.08,1.78.08h.23c.55,0,1.09-.03,1.61-.08,11.43-.93,20.31-10.66,20.21-22.15-.11-12.04-9.99-21.83-22.02-21.83h0Z"/>
        <g>
          <path class="cls-4" d="m201.85,148.8c.02-.62-.35-1.17-.89-1.4.5-.31.79-.9.68-1.52v-.07c-.12-.61-.59-1.07-1.17-1.19.42-.4.58-1.03.36-1.6l-.04-.1c-.24-.58-.8-.92-1.4-.9.35-.49.37-1.17,0-1.7l-.04-.05c-.36-.53-1-.74-1.58-.6.22-.56.08-1.23-.39-1.66,0,0-.03-.03-.03-.03-.47-.42-1.13-.49-1.66-.22.08-.59-.21-1.2-.77-1.49l-.07-.04c-.56-.3-1.24-.2-1.69.2-.07-.6-.51-1.12-1.14-1.26,0,0-.07-.02-.08-.02-.63-.14-1.23.15-1.54.67-.21-.57-.76-.98-1.4-.95h-.12c-.64.03-1.15.46-1.33,1.03-.36-.48-1-.71-1.62-.53l-.09.03c-.61.19-.99.74-1.01,1.34-.48-.38-1.16-.44-1.71-.1l-.05.03c-.54.33-.79.95-.68,1.54-.55-.24-1.21-.13-1.65.32l-.05.05c-.44.45-.54,1.1-.29,1.64-.58-.1-1.19.14-1.52.67l-.05.08c-.33.54-.26,1.19.11,1.65-.59.01-1.14.38-1.36.97l-.03.09c-.21.6,0,1.22.45,1.6-.57.13-1.03.61-1.13,1.23v.1c-.1.62.23,1.19.75,1.47-.53.25-.89.8-.85,1.43v.09c.05.63.48,1.12,1.05,1.29-.48.35-.71.97-.55,1.58l.03.09c.17.61.7,1,1.29,1.05-.4.45-.49,1.11-.2,1.67l.04.08c.3.56.9.83,1.49.74-.29.53-.24,1.21.19,1.7l.04.05c.41.48,1.06.62,1.62.42-.15.57.06,1.21.57,1.57l.08.05c.52.37,1.19.34,1.67-.01-.02.61.35,1.19.94,1.42l.1.04c.6.22,1.24.02,1.62-.44.14.59.65,1.06,1.29,1.12h.1s.06.01.09.01c.6.02,1.13-.33,1.36-.86.29.54.91.86,1.54.76,0,0,.07-.01.08-.01.63-.11,1.08-.61,1.17-1.21.41.44,1.08.6,1.66.34l.1-.05c.58-.27.89-.85.84-1.45.51.31,1.19.29,1.69-.11l.06-.05c.5-.4.66-1.05.45-1.62.58.19,1.24.01,1.63-.49l.05-.06c.38-.49.41-1.15.11-1.66.59.05,1.18-.27,1.44-.84l.03-.06c.27-.56.15-1.21-.25-1.65.58-.08,1.07-.5,1.22-1.1l.02-.09c.15-.61-.12-1.21-.61-1.54.56-.19.97-.71,1-1.33v-.13s0-.02,0-.02Z"/>
          <g>
            <g>
              <polyline class="cls-5" points="204.39 162.95 193.31 158.15 193.31 153.31 185.15 153.31 185.15 158.15 174.05 163.02"/>
              <polygon class="cls-5" points="189.23 161.46 193.31 158.15 193.31 153.31 185.15 153.31 185.15 158.15 189.23 161.46"/>
              <polygon class="cls-5" points="189.23 161.46 186.35 163.83 183.67 158.76 185.15 157.47 189.23 161.46"/>
              <polygon class="cls-5" points="189.23 161.46 192.12 163.83 194.79 158.76 193.31 157.47 189.23 161.46"/>
              <polyline class="cls-6" points="191.11 163 190.23 164.86 189.23 164.86 188.23 164.86 187.36 163"/>
              <line class="cls-6" x1="190.92" y1="169.94" x2="190.23" y2="164.86"/>
              <line class="cls-6" x1="188.23" y1="164.86" x2="187.55" y2="169.94"/>
            </g>
            <path class="cls-5" d="m195.93,145.33c0,4.8,0-1.61,0,3.19-.18,3.85-3.15,7.58-6.67,7.56-3.49-.02-6.41-3.75-6.59-7.56,0-4.8,0,.86,0-3.93"/>
            <path class="cls-5" d="m182.67,144.61s2.9-1.58,3.79-4.3c0,0,2.84,4.64,9.47,5.06"/>
          </g>
        </g>
      </g>
      <g>
        <path class="cls-3" d="m127.82,162.04c11.25,0,20.42,9.07,20.52,20.34.1,10.83-8.21,19.78-18.84,20.64-.5.04-1,.07-1.5.07-.07,0-.14,0-.21,0-.56,0-1.11-.03-1.66-.07-10.47-.85-18.74-9.56-18.84-20.27-.1-11.34,9-20.61,20.34-20.72.06,0,.13,0,.19,0m0-1.5h-.2c-12.14.11-21.94,10.09-21.83,22.23.11,11.47,8.8,20.82,20.22,21.75.6.05,1.2.08,1.78.08h.23c.55,0,1.1-.03,1.61-.08,11.43-.93,20.31-10.66,20.21-22.15-.11-12.04-9.99-21.83-22.02-21.83h0Z"/>
        <g>
          <path class="cls-4" d="m140.43,181.89c.02-.62-.35-1.17-.89-1.4.5-.31.79-.9.68-1.52v-.07c-.12-.61-.59-1.07-1.17-1.19.42-.4.58-1.03.36-1.6l-.04-.1c-.24-.58-.8-.92-1.4-.9.35-.49.37-1.17,0-1.7l-.04-.05c-.36-.53-1-.74-1.58-.6.22-.56.08-1.23-.39-1.66,0,0-.03-.03-.03-.03-.47-.42-1.13-.49-1.66-.22.08-.59-.21-1.2-.77-1.49l-.07-.04c-.56-.3-1.24-.2-1.69.2-.07-.6-.51-1.12-1.14-1.26,0,0-.07-.02-.08-.02-.63-.14-1.23.15-1.54.67-.21-.57-.76-.98-1.4-.95h-.12c-.64.03-1.15.46-1.33,1.03-.36-.48-1-.71-1.62-.53l-.09.03c-.61.19-.99.74-1.01,1.34-.48-.38-1.16-.44-1.71-.1l-.05.03c-.54.33-.79.95-.68,1.54-.55-.24-1.21-.13-1.65.32l-.05.05c-.44.45-.54,1.1-.29,1.64-.58-.1-1.19.14-1.52.67l-.05.08c-.33.54-.26,1.19.11,1.65-.59.01-1.14.38-1.36.97l-.03.09c-.21.6,0,1.22.45,1.6-.57.13-1.03.61-1.13,1.23v.1c-.1.62.23,1.19.75,1.47-.53.25-.89.8-.85,1.43v.09c.05.63.48,1.12,1.05,1.29-.48.35-.71.97-.55,1.58l.03.09c.17.61.7,1,1.29,1.05-.4.45-.49,1.11-.2,1.67l.04.08c.3.56.9.83,1.49.74-.29.53-.24,1.21.19,1.7l.04.05c.41.48,1.06.62,1.62.42-.15.57.06,1.21.57,1.57l.08.05c.52.37,1.19.34,1.67-.01-.02.61.35,1.19.94,1.42l.1.04c.6.22,1.24.02,1.62-.44.14.59.65,1.06,1.29,1.12h.1s.06.01.09.01c.6.02,1.13-.33,1.36-.86.29.54.91.86,1.54.76,0,0,.07-.01.08-.01.63-.11,1.08-.61,1.17-1.21.41.44,1.08.6,1.66.34l.1-.05c.58-.27.89-.85.84-1.45.51.31,1.19.29,1.69-.11l.06-.05c.5-.4.66-1.05.45-1.62.58.19,1.24.01,1.63-.49l.05-.06c.38-.49.41-1.15.11-1.66.59.05,1.18-.27,1.44-.84l.03-.06c.27-.56.15-1.21-.25-1.65.58-.08,1.07-.5,1.22-1.1l.02-.09c.15-.61-.12-1.21-.61-1.54.56-.19.97-.71,1-1.33v-.13s0-.02,0-.02Z"/>
          <g>
            <g>
              <polyline class="cls-5" points="142.97 196.04 131.9 191.24 131.9 186.4 123.74 186.4 123.74 191.24 112.63 196.1"/>
              <polygon class="cls-5" points="127.82 194.54 131.9 191.24 131.9 186.4 123.74 186.4 123.74 191.24 127.82 194.54"/>
              <polygon class="cls-5" points="127.82 194.54 124.93 196.91 122.26 191.85 123.74 190.55 127.82 194.54"/>
              <polygon class="cls-5" points="127.82 194.54 130.7 196.91 133.38 191.85 131.9 190.55 127.82 194.54"/>
              <polyline class="cls-6" points="129.7 196.09 128.82 197.94 127.82 197.94 126.82 197.94 125.94 196.09"/>
              <line class="cls-6" x1="129.5" y1="203.03" x2="128.82" y2="197.94"/>
              <line class="cls-6" x1="126.82" y1="197.94" x2="126.13" y2="203.03"/>
            </g>
            <path class="cls-5" d="m134.52,178.42c0,4.8,0-1.61,0,3.19-.18,3.85-3.15,7.58-6.67,7.56-3.49-.02-6.41-3.75-6.59-7.56,0-4.8,0,.86,0-3.93"/>
            <path class="cls-5" d="m121.26,177.69s2.9-1.58,3.79-4.3c0,0,2.84,4.64,9.47,5.06"/>
          </g>
        </g>
      </g>
      <g>
        <path class="cls-3" d="m63.56,118.69c11.25,0,20.42,9.07,20.52,20.34.1,10.83-8.21,19.78-18.84,20.64-.5.04-1,.07-1.5.07-.07,0-.14,0-.21,0-.56,0-1.11-.03-1.66-.07-10.47-.85-18.74-9.56-18.84-20.27-.1-11.34,9-20.61,20.34-20.72.06,0,.13,0,.19,0m0-1.5h-.2c-12.14.11-21.94,10.09-21.83,22.23.11,11.47,8.8,20.82,20.22,21.75.6.05,1.2.08,1.78.08h.23c.55,0,1.1-.03,1.61-.08,11.43-.93,20.31-10.66,20.21-22.15-.11-12.04-9.99-21.83-22.02-21.83h0Z"/>
        <g>
          <path class="cls-4" d="m76.17,138.53c.02-.62-.35-1.17-.89-1.4.5-.31.79-.9.68-1.52v-.07c-.12-.61-.59-1.07-1.17-1.19.42-.4.58-1.03.36-1.6l-.04-.1c-.24-.58-.8-.92-1.4-.9.35-.49.37-1.17,0-1.7l-.04-.05c-.36-.53-1-.74-1.58-.6.22-.56.08-1.23-.39-1.66,0,0-.03-.03-.03-.03-.47-.42-1.13-.49-1.66-.22.08-.59-.21-1.2-.77-1.49l-.07-.04c-.56-.3-1.24-.2-1.69.2-.07-.6-.51-1.12-1.14-1.26,0,0-.07-.02-.08-.02-.63-.14-1.23.15-1.54.67-.21-.57-.76-.98-1.4-.95h-.12c-.64.03-1.15.46-1.33,1.03-.36-.48-1-.71-1.62-.53l-.09.03c-.61.19-.99.74-1.01,1.34-.48-.38-1.16-.44-1.71-.1l-.05.03c-.54.33-.79.95-.68,1.54-.55-.24-1.21-.13-1.65.32l-.05.05c-.44.45-.54,1.1-.29,1.64-.58-.1-1.19.14-1.52.67l-.05.08c-.33.54-.26,1.19.11,1.65-.59.01-1.14.38-1.36.97l-.03.09c-.21.6,0,1.22.45,1.6-.57.13-1.03.61-1.13,1.23v.1c-.1.62.23,1.19.75,1.47-.53.25-.89.8-.85,1.43v.09c.05.63.48,1.12,1.05,1.29-.48.35-.71.97-.55,1.58l.03.09c.17.61.7,1,1.29,1.05-.4.45-.49,1.11-.2,1.67l.04.08c.3.56.9.83,1.49.74-.29.53-.24,1.21.19,1.7l.04.05c.41.48,1.06.62,1.62.42-.15.57.06,1.21.57,1.57l.08.05c.52.37,1.19.34,1.67-.01-.02.61.35,1.19.94,1.42l.1.04c.6.22,1.24.02,1.62-.44.14.59.65,1.06,1.29,1.12h.1s.06.01.09.01c.6.02,1.13-.33,1.36-.86.29.54.91.86,1.54.76,0,0,.07-.01.08-.01.63-.11,1.08-.61,1.17-1.21.41.44,1.08.6,1.66.34l.1-.05c.58-.27.89-.85.84-1.45.51.31,1.19.29,1.69-.11l.06-.05c.5-.4.66-1.05.45-1.62.58.19,1.24.01,1.63-.49l.05-.06c.38-.49.41-1.15.11-1.66.59.05,1.18-.27,1.44-.84l.03-.06c.27-.56.15-1.21-.25-1.65.58-.08,1.07-.5,1.22-1.1l.02-.09c.15-.61-.12-1.21-.61-1.54.56-.19.97-.71,1-1.33v-.13s0-.02,0-.02Z"/>
          <g>
            <g>
              <polyline class="cls-5" points="78.71 152.68 67.64 147.88 67.64 143.04 59.47 143.04 59.47 147.88 48.37 152.75"/>
              <polygon class="cls-5" points="63.55 151.19 67.64 147.88 67.64 143.04 59.47 143.04 59.47 147.88 63.55 151.19"/>
              <polygon class="cls-5" points="63.55 151.19 60.67 153.56 57.99 148.49 59.47 147.19 63.55 151.19"/>
              <polygon class="cls-5" points="63.55 151.19 66.44 153.56 69.11 148.49 67.64 147.19 63.55 151.19"/>
              <polyline class="cls-6" points="65.43 152.73 64.55 154.59 63.55 154.59 62.55 154.59 61.68 152.73"/>
              <line class="cls-6" x1="65.24" y1="159.67" x2="64.55" y2="154.59"/>
              <line class="cls-6" x1="62.55" y1="154.59" x2="61.87" y2="159.67"/>
            </g>
            <path class="cls-5" d="m70.25,135.06c0,4.8,0-1.61,0,3.19-.18,3.85-3.15,7.58-6.67,7.56-3.49-.02-6.41-3.75-6.59-7.56,0-4.8,0,.86,0-3.93"/>
            <path class="cls-5" d="m56.99,134.33s2.9-1.58,3.79-4.3c0,0,2.84,4.64,9.47,5.06"/>
          </g>
        </g>
      </g>
      <g>
        <line class="cls-6" x1="144.85" y1="52.46" x2="193.78" y2="113.6"/>
        <polygon points="185.88 113.55 186.1 112.07 193.42 113.15 193.96 105.78 195.46 105.89 194.79 114.87 185.88 113.55"/>
      </g>
      <g>
        <line class="cls-6" x1="129.68" y1="55.53" x2="129.02" y2="154.45"/>
        <polygon points="122.92 149.44 124.03 148.43 129.02 153.88 134.1 148.49 135.19 149.53 129.01 156.08 122.92 149.44"/>
      </g>
      <g>
        <line class="cls-6" x1="117.4" y1="52.21" x2="79.61" y2="108.66"/>
        <polygon points="77.28 101.12 78.76 100.88 79.93 108.19 87.13 106.48 87.47 107.95 78.71 110.02 77.28 101.12"/>
      </g>
      <g>
        <line class="cls-6" x1="104.08" y1="43.05" x2="80.22" y2="52.66"/>
        <polygon points="82.53 45.11 83.89 45.74 80.75 52.44 87.66 55.09 87.12 56.49 78.71 53.26 82.53 45.11"/>
      </g>
      <g>
        <line class="cls-6" x1="154.21" y1="43.05" x2="178.14" y2="51.66"/>
        <polygon points="171.39 55.75 170.8 54.37 177.6 51.47 174.21 44.89 175.54 44.21 179.67 52.21 171.39 55.75"/>
      </g>
      <g>
        <polygon class="cls-1" points="238.86 131.25 230.49 129.8 230.49 123.43 235.65 123.88 237.04 128.54 238.86 131.25"/>
        <path class="cls-2" d="m232.83,122.56c.98-.36,2.31.09,3.25,1.66.71,1.18.74,3.4.89,3.85.29.9,1.26,1.93,3.25,1.51,0,0-.16,1.49-1.28,1.71"/>
        <path class="cls-2" d="m235.26,114.9c0,3.55-2.88,6.43-6.43,6.43s-6.43-2.88-6.43-6.43,2.88-6.48,6.43-6.48,6.43,2.93,6.43,6.48Z"/>
        <g>
          <path class="cls-5" d="m242.51,133.96c-.18-.92-.83-1.7-1.75-2.08l-8.79-2.95v-4.39h-6.27v4.39l-8.79,2.95c-.92.37-1.58,1.15-1.75,2.08"/>
          <path class="cls-5" d="m234.92,116.13c0,4.4,0-.81,0,3.6-.16,3.53-2.89,6.96-6.12,6.93-3.21-.02-5.88-3.44-6.04-6.93,0-4.4,0,.89,0-3.51l5.61-.06c1.38-.02,2.59-.93,2.99-2.25l.15-.49.04.19c.31,1.59,1.77,2.68,3.38,2.53h0Z"/>
          <path class="cls-5" d="m221.43,130.53s2.34,3.24,7.4,3.24,7.4-3.24,7.4-3.24"/>
        </g>
      </g>
      <g>
        <polygon class="cls-1" points="116.09 128.02 107.71 126.57 107.71 120.21 112.88 120.65 114.26 125.31 116.09 128.02"/>
        <path class="cls-2" d="m110.05,119.33c.98-.36,2.31.09,3.25,1.66.71,1.18.74,3.4.89,3.85.29.9,1.26,1.93,3.25,1.51,0,0-.16,1.49-1.28,1.71"/>
        <path class="cls-2" d="m112.48,111.68c0,3.55-2.88,6.43-6.43,6.43s-6.43-2.88-6.43-6.43,2.88-6.48,6.43-6.48,6.43,2.93,6.43,6.48Z"/>
        <g>
          <path class="cls-5" d="m119.73,130.74c-.18-.92-.83-1.7-1.75-2.08l-8.79-2.95v-4.39h-6.27v4.39l-8.79,2.95c-.92.37-1.58,1.15-1.75,2.08"/>
          <path class="cls-5" d="m112.14,112.91c0,4.4,0-.81,0,3.6-.16,3.53-2.89,6.96-6.12,6.93-3.21-.02-5.88-3.44-6.04-6.93,0-4.4,0,.89,0-3.51l5.61-.06c1.38-.02,2.59-.93,2.99-2.25l.15-.49.04.19c.31,1.59,1.77,2.68,3.38,2.53h0Z"/>
          <path class="cls-5" d="m98.65,127.31s2.34,3.24,7.4,3.24,7.4-3.24,7.4-3.24"/>
        </g>
      </g>
      <g>
        <polygon class="cls-1" points="43.2 186.05 34.82 184.6 34.82 178.24 39.99 178.68 41.37 183.34 43.2 186.05"/>
        <path class="cls-2" d="m37.16,177.36c.98-.36,2.31.09,3.25,1.66.71,1.18.74,3.4.89,3.85.29.9,1.26,1.93,3.25,1.51,0,0-.16,1.49-1.28,1.71"/>
        <path class="cls-2" d="m39.6,169.7c0,3.55-2.88,6.43-6.43,6.43s-6.43-2.88-6.43-6.43,2.88-6.48,6.43-6.48,6.43,2.93,6.43,6.48Z"/>
        <g>
          <path class="cls-5" d="m46.85,188.77c-.18-.92-.83-1.7-1.75-2.08l-8.79-2.95v-4.39h-6.27v4.39l-8.79,2.95c-.92.37-1.58,1.15-1.75,2.08"/>
          <path class="cls-5" d="m39.25,170.94c0,4.4,0-.81,0,3.6-.16,3.53-2.89,6.96-6.12,6.93-3.21-.02-5.88-3.44-6.04-6.93,0-4.4,0,.89,0-3.51l5.61-.06c1.38-.02,2.59-.93,2.99-2.25l.15-.49.04.19c.31,1.59,1.77,2.68,3.38,2.53h0Z"/>
          <path class="cls-5" d="m25.77,185.33s2.34,3.24,7.4,3.24,7.4-3.24,7.4-3.24"/>
        </g>
      </g>
      <g>
        <polygon class="cls-1" points="24.46 107.49 16.09 106.05 16.09 99.68 21.25 100.12 22.64 104.79 24.46 107.49"/>
        <path class="cls-2" d="m18.42,98.81c.98-.36,2.31.09,3.25,1.66.71,1.18.74,3.4.89,3.85.29.9,1.26,1.93,3.25,1.51,0,0-.16,1.49-1.28,1.71"/>
        <path class="cls-2" d="m20.86,91.15c0,3.55-2.88,6.43-6.43,6.43s-6.43-2.88-6.43-6.43,2.88-6.48,6.43-6.48,6.43,2.93,6.43,6.48Z"/>
        <g>
          <path class="cls-5" d="m28.11,110.21c-.18-.92-.83-1.7-1.75-2.08l-8.79-2.95v-4.39h-6.27v4.39l-8.79,2.95c-.92.37-1.58,1.15-1.75,2.08"/>
          <path class="cls-5" d="m20.51,92.38c0,4.4,0-.81,0,3.6-.16,3.53-2.89,6.96-6.12,6.93-3.21-.02-5.88-3.44-6.04-6.93,0-4.4,0,.89,0-3.51l5.61-.06c1.38-.02,2.59-.93,2.99-2.25l.15-.49.04.19c.31,1.59,1.77,2.68,3.38,2.53h0Z"/>
          <path class="cls-5" d="m7.03,106.78s2.34,3.24,7.4,3.24,7.4-3.24,7.4-3.24"/>
        </g>
      </g>
    </g>
  </g>
</svg>