<?xml version="1.0" encoding="UTF-8"?>
<svg id="Layer_2" data-name="Layer 2" xmlns="http://www.w3.org/2000/svg" viewBox="0 0 183.24 154.55">
  <defs>
    <style>
      .cls-1, .cls-2 {
        fill: #a59a6e;
      }

      .cls-3 {
        fill: #aa2734;
      }

      .cls-4 {
        fill: #54565a;
      }

      .cls-4, .cls-2, .cls-5, .cls-6 {
        stroke: #000;
        stroke-linecap: round;
        stroke-linejoin: round;
        stroke-width: 1.5px;
      }

      .cls-5 {
        fill: #fff;
      }

      .cls-6 {
        fill: none;
      }
    </style>
  </defs>
  <g id="Content">
    <g>
      <g>
        <path class="cls-3" d="m97.68,1.5c8.46,0,15.35,6.82,15.43,15.29.07,8.14-6.17,14.87-14.16,15.52-.37.03-.75.05-1.13.05-.05,0-.11,0-.16,0-.42,0-.84-.02-1.25-.05-7.87-.64-14.09-7.19-14.16-15.24-.08-8.52,6.77-15.49,15.29-15.57.05,0,.09,0,.14,0m0-1.5h-.16c-9.33.09-16.86,7.75-16.78,17.09.08,8.82,6.76,16.01,15.54,16.72.46.04.92.06,1.37.06h.18c.42,0,.84-.02,1.24-.06,8.78-.71,15.61-8.19,15.53-17.02-.08-9.25-7.68-16.78-16.93-16.78h0Z"/>
        <g>
          <path class="cls-4" d="m107.16,16.42c.01-.47-.26-.88-.67-1.05.38-.23.59-.68.51-1.14v-.05c-.09-.46-.45-.81-.88-.9.32-.3.44-.77.27-1.21l-.03-.07c-.18-.44-.6-.69-1.05-.68.26-.37.28-.88,0-1.28l-.03-.04c-.27-.39-.75-.56-1.19-.45.17-.42.06-.93-.29-1.25,0,0-.02-.02-.02-.02-.35-.32-.85-.37-1.25-.17.06-.44-.16-.9-.58-1.12l-.05-.03c-.42-.23-.93-.15-1.27.15-.06-.45-.39-.84-.85-.95,0,0-.05-.01-.06-.01-.47-.11-.92.11-1.16.5-.16-.42-.57-.73-1.05-.72h-.09c-.48.02-.87.34-1,.78-.27-.36-.75-.54-1.21-.4l-.07.02c-.46.15-.74.56-.76,1.01-.36-.29-.87-.33-1.28-.08l-.04.02c-.41.25-.6.72-.51,1.16-.41-.18-.91-.1-1.24.24l-.04.04c-.33.34-.4.83-.22,1.24-.44-.08-.89.11-1.14.5l-.04.06c-.25.41-.2.89.08,1.24-.44,0-.86.29-1.02.73l-.02.07c-.16.45,0,.92.34,1.2-.43.1-.78.46-.85.92v.07c-.07.47.17.9.56,1.11-.4.19-.67.6-.64,1.07v.07c.04.47.36.84.79.97-.36.26-.54.73-.41,1.18l.02.07c.13.46.53.75.97.79-.3.34-.37.83-.15,1.25l.03.06c.23.42.68.62,1.12.56-.22.4-.18.91.14,1.27l.03.03c.31.36.8.47,1.22.32-.11.43.04.91.43,1.18l.06.04c.39.28.89.25,1.26-.01-.01.46.26.89.71,1.07l.07.03c.45.17.93.02,1.22-.33.11.44.49.79.97.84h.07s.04.01.07.01c.45.01.85-.25,1.03-.65.22.4.68.65,1.16.57,0,0,.06,0,.06,0,.48-.08.81-.46.88-.91.31.33.81.45,1.25.26l.08-.03c.43-.2.67-.64.63-1.09.39.24.9.22,1.27-.08l.05-.04c.38-.3.49-.79.34-1.21.43.15.93.01,1.23-.37l.03-.04c.29-.37.31-.87.08-1.25.44.04.88-.21,1.09-.63l.02-.04c.2-.42.12-.91-.19-1.24.43-.06.81-.38.92-.83l.02-.07c.11-.46-.09-.91-.46-1.16.42-.14.73-.53.75-1v-.1s0-.01,0-.01Z"/>
          <g>
            <g>
              <polyline class="cls-5" points="109.07 27.05 100.75 23.44 100.75 19.81 94.61 19.81 94.61 23.44 86.27 27.1"/>
              <polygon class="cls-5" points="97.68 25.93 100.75 23.44 100.75 19.81 94.61 19.81 94.61 23.44 97.68 25.93"/>
              <polygon class="cls-5" points="97.68 25.93 95.51 27.71 93.5 23.9 94.61 22.93 97.68 25.93"/>
              <polygon class="cls-5" points="97.68 25.93 99.85 27.71 101.86 23.9 100.75 22.93 97.68 25.93"/>
              <polyline class="cls-6" points="99.09 27.09 98.43 28.49 97.68 28.49 96.93 28.49 96.27 27.09"/>
              <line class="cls-6" x1="98.95" y1="32.31" x2="98.43" y2="28.49"/>
              <line class="cls-6" x1="96.93" y1="28.49" x2="96.42" y2="32.31"/>
            </g>
            <path class="cls-5" d="m102.72,13.81c0,3.61,0-1.21,0,2.4-.13,2.89-2.37,5.7-5.02,5.68-2.63-.02-4.82-2.82-4.95-5.68,0-3.61,0,.65,0-2.96"/>
            <path class="cls-5" d="m92.75,13.26s2.18-1.19,2.85-3.24c0,0,2.14,3.49,7.12,3.8"/>
          </g>
        </g>
      </g>
      <g>
        <path class="cls-3" d="m33.9,28.08c8.46,0,15.35,6.82,15.43,15.29.07,8.14-6.17,14.87-14.16,15.52-.37.03-.75.05-1.13.05-.05,0-.11,0-.16,0-.42,0-.84-.02-1.25-.05-7.87-.64-14.09-7.19-14.16-15.24-.08-8.52,6.77-15.49,15.29-15.57.05,0,.1,0,.14,0m0-1.5v1.5-1.5h-.16c-9.33.09-16.86,7.75-16.78,17.09.08,8.82,6.76,16.01,15.54,16.72.46.04.92.06,1.37.06h.18c.42,0,.84-.02,1.24-.06,8.78-.71,15.61-8.19,15.53-17.02-.08-9.25-7.68-16.78-16.93-16.78h0Z"/>
        <g>
          <path class="cls-4" d="m43.38,43c.01-.47-.26-.88-.67-1.05.38-.23.59-.68.51-1.14v-.05c-.09-.46-.45-.81-.88-.9.32-.3.44-.77.27-1.21l-.03-.07c-.18-.44-.6-.69-1.05-.68.26-.37.28-.88,0-1.28l-.03-.04c-.27-.39-.75-.56-1.19-.45.17-.42.06-.93-.29-1.25,0,0-.02-.02-.02-.02-.35-.32-.85-.37-1.25-.17.06-.44-.16-.9-.58-1.12l-.05-.03c-.42-.23-.93-.15-1.27.15-.06-.45-.39-.84-.85-.95,0,0-.05-.01-.06-.01-.47-.11-.92.11-1.16.5-.16-.42-.57-.73-1.05-.72h-.09c-.48.02-.87.34-1,.78-.27-.36-.75-.54-1.21-.4l-.07.02c-.46.15-.74.56-.76,1.01-.36-.29-.87-.33-1.28-.08l-.04.02c-.41.25-.6.72-.51,1.16-.41-.18-.91-.1-1.24.24l-.04.04c-.33.34-.4.83-.22,1.24-.44-.08-.89.11-1.14.5l-.04.06c-.25.41-.2.89.08,1.24-.44,0-.86.29-1.02.73l-.02.07c-.16.45,0,.92.34,1.2-.43.1-.78.46-.85.92v.07c-.07.47.17.9.56,1.11-.4.19-.67.6-.64,1.07v.07c.04.47.36.84.79.97-.36.26-.54.73-.41,1.18l.02.07c.13.46.53.75.97.79-.3.34-.37.83-.15,1.25l.03.06c.23.42.68.62,1.12.56-.22.4-.18.91.14,1.27l.03.03c.31.36.8.47,1.22.32-.11.43.04.91.43,1.18l.06.04c.39.28.89.25,1.26-.01-.01.46.26.89.71,1.07l.07.03c.45.17.93.02,1.22-.33.11.44.49.79.97.84h.07s.04.01.07.01c.45.01.85-.25,1.03-.65.22.4.68.65,1.16.57,0,0,.06,0,.06,0,.48-.08.81-.46.88-.91.31.33.81.45,1.25.26l.08-.03c.43-.2.67-.64.63-1.09.39.24.9.22,1.27-.08l.05-.04c.38-.3.49-.79.34-1.21.43.15.93.01,1.23-.37l.03-.04c.29-.37.31-.87.08-1.25.44.04.88-.21,1.09-.63l.02-.04c.2-.42.12-.91-.19-1.24.43-.06.81-.38.92-.83l.02-.07c.11-.46-.09-.91-.46-1.16.42-.14.73-.53.75-1v-.1s0-.01,0-.01Z"/>
          <g>
            <g>
              <polyline class="cls-5" points="45.29 53.63 36.96 50.03 36.96 46.39 30.83 46.39 30.83 50.03 22.48 53.69"/>
              <polygon class="cls-5" points="33.89 52.51 36.96 50.03 36.96 46.39 30.83 46.39 30.83 50.03 33.89 52.51"/>
              <polygon class="cls-5" points="33.89 52.51 31.73 54.29 29.71 50.49 30.83 49.51 33.89 52.51"/>
              <polygon class="cls-5" points="33.89 52.51 36.06 54.29 38.07 50.49 36.96 49.51 33.89 52.51"/>
              <polyline class="cls-6" points="35.31 53.67 34.65 55.07 33.89 55.07 33.14 55.07 32.48 53.67"/>
              <line class="cls-6" x1="35.16" y1="58.89" x2="34.65" y2="55.07"/>
              <line class="cls-6" x1="33.14" y1="55.07" x2="32.63" y2="58.89"/>
            </g>
            <path class="cls-5" d="m38.93,40.39c0,3.61,0-1.21,0,2.4-.13,2.89-2.37,5.7-5.02,5.68-2.63-.02-4.82-2.82-4.95-5.68,0-3.61,0,.65,0-2.96"/>
            <path class="cls-5" d="m28.96,39.84s2.18-1.19,2.85-3.24c0,0,2.14,3.49,7.12,3.8"/>
          </g>
        </g>
      </g>
      <g>
        <path class="cls-3" d="m159.47,28.08c8.46,0,15.35,6.82,15.43,15.29.07,8.14-6.17,14.87-14.16,15.52-.37.03-.75.05-1.13.05-.05,0-.11,0-.16,0-.42,0-.84-.02-1.25-.05-7.87-.64-14.09-7.19-14.16-15.24-.08-8.52,6.77-15.49,15.29-15.57.05,0,.1,0,.14,0m0-1.5v1.5-1.5h-.16c-9.33.09-16.86,7.75-16.78,17.09.08,8.82,6.76,16.01,15.54,16.72.46.04.92.06,1.37.06h.18c.42,0,.84-.02,1.24-.06,8.79-.71,15.61-8.19,15.53-17.03-.08-9.25-7.68-16.78-16.93-16.78h0Z"/>
        <g>
          <path class="cls-4" d="m168.95,43c.01-.47-.26-.88-.67-1.05.38-.23.59-.68.51-1.14v-.05c-.09-.46-.45-.81-.88-.9.32-.3.44-.77.27-1.21l-.03-.07c-.18-.44-.6-.69-1.05-.68.26-.37.28-.88,0-1.28l-.03-.04c-.27-.39-.75-.56-1.19-.45.17-.42.06-.93-.29-1.25,0,0-.02-.02-.02-.02-.35-.32-.85-.37-1.25-.17.06-.44-.16-.9-.58-1.12l-.05-.03c-.42-.23-.93-.15-1.27.15-.06-.45-.39-.84-.85-.95,0,0-.05-.01-.06-.01-.47-.11-.92.11-1.16.5-.16-.42-.57-.73-1.05-.72h-.09c-.48.02-.87.34-1,.78-.27-.36-.75-.54-1.21-.4l-.07.02c-.46.15-.74.56-.76,1.01-.36-.29-.87-.33-1.28-.08l-.04.02c-.41.25-.6.72-.51,1.16-.41-.18-.91-.1-1.24.24l-.04.04c-.33.34-.4.83-.22,1.24-.44-.08-.89.11-1.14.5l-.04.06c-.25.41-.2.89.08,1.24-.44,0-.86.29-1.02.73l-.02.07c-.16.45,0,.92.34,1.2-.43.1-.78.46-.85.92v.07c-.07.47.17.9.56,1.11-.4.19-.67.6-.64,1.07v.07c.04.47.36.84.79.97-.36.26-.54.73-.41,1.18l.02.07c.13.46.53.75.97.79-.3.34-.37.83-.15,1.25l.03.06c.23.42.68.62,1.12.56-.22.4-.18.91.14,1.27l.03.03c.31.36.8.47,1.22.32-.11.43.04.91.43,1.18l.06.04c.39.28.89.25,1.26-.01-.01.46.26.89.71,1.07l.07.03c.45.17.93.02,1.22-.33.11.44.49.79.97.84h.07s.04.01.07.01c.45.01.85-.25,1.03-.65.22.4.68.65,1.16.57,0,0,.06,0,.06,0,.48-.08.81-.46.88-.91.31.33.81.45,1.25.26l.08-.03c.43-.2.67-.64.63-1.09.39.24.9.22,1.27-.08l.05-.04c.38-.3.49-.79.34-1.21.43.15.93.01,1.23-.37l.03-.04c.29-.37.31-.87.08-1.25.44.04.88-.21,1.09-.63l.02-.04c.2-.42.12-.91-.19-1.24.43-.06.81-.38.92-.83l.02-.07c.11-.46-.09-.91-.46-1.16.42-.14.73-.53.75-1v-.1s0-.01,0-.01Z"/>
          <g>
            <g>
              <polyline class="cls-5" points="170.86 53.63 162.53 50.03 162.53 46.39 156.4 46.39 156.4 50.03 148.05 53.69"/>
              <polygon class="cls-5" points="159.46 52.51 162.53 50.03 162.53 46.39 156.4 46.39 156.4 50.03 159.46 52.51"/>
              <polygon class="cls-5" points="159.46 52.51 157.3 54.29 155.28 50.49 156.4 49.51 159.46 52.51"/>
              <polygon class="cls-5" points="159.46 52.51 161.63 54.29 163.64 50.49 162.53 49.51 159.46 52.51"/>
              <polyline class="cls-6" points="160.88 53.67 160.22 55.07 159.46 55.07 158.71 55.07 158.05 53.67"/>
              <line class="cls-6" x1="160.73" y1="58.89" x2="160.22" y2="55.07"/>
              <line class="cls-6" x1="158.71" y1="55.07" x2="158.2" y2="58.89"/>
            </g>
            <path class="cls-5" d="m164.5,40.39c0,3.61,0-1.21,0,2.4-.13,2.89-2.37,5.7-5.02,5.68-2.63-.02-4.82-2.82-4.95-5.68,0-3.61,0,.65,0-2.96"/>
            <path class="cls-5" d="m154.53,39.84s2.18-1.19,2.85-3.24c0,0,2.14,3.49,7.12,3.8"/>
          </g>
        </g>
      </g>
      <g>
        <path class="cls-3" d="m142.44,97.31c8.46,0,15.35,6.82,15.43,15.29.07,8.14-6.17,14.87-14.16,15.52-.37.03-.75.05-1.13.05-.05,0-.11,0-.16,0-.42,0-.83-.02-1.24-.05-7.87-.64-14.09-7.19-14.16-15.24-.08-8.52,6.77-15.49,15.29-15.57.05,0,.09,0,.14,0m0-1.5h-.16c-9.33.09-16.86,7.75-16.78,17.09.08,8.82,6.76,16.01,15.54,16.72.46.04.92.06,1.37.06h.18c.42,0,.84-.02,1.24-.06,8.78-.71,15.61-8.19,15.53-17.02-.08-9.25-7.68-16.78-16.93-16.78h0Z"/>
        <g>
          <path class="cls-4" d="m151.92,112.23c.01-.47-.26-.88-.67-1.05.38-.23.59-.68.51-1.14v-.05c-.09-.46-.45-.81-.88-.9.32-.3.44-.77.27-1.21l-.03-.07c-.18-.44-.6-.69-1.05-.68.26-.37.28-.88,0-1.28l-.03-.04c-.27-.39-.75-.56-1.19-.45.17-.42.06-.93-.29-1.25,0,0-.02-.02-.02-.02-.35-.32-.85-.37-1.25-.17.06-.44-.16-.9-.58-1.12l-.05-.03c-.42-.23-.93-.15-1.27.15-.06-.45-.39-.84-.85-.95,0,0-.05-.01-.06-.01-.47-.11-.92.11-1.16.5-.16-.42-.57-.73-1.05-.72h-.09c-.48.02-.87.34-1,.78-.27-.36-.75-.54-1.21-.4l-.07.02c-.46.15-.74.56-.76,1.01-.36-.29-.87-.33-1.28-.08l-.04.02c-.41.25-.6.72-.51,1.16-.41-.18-.91-.1-1.24.24l-.04.04c-.33.34-.4.83-.22,1.24-.44-.08-.89.11-1.14.5l-.04.06c-.25.41-.2.89.08,1.24-.44,0-.86.29-1.02.73l-.02.07c-.16.45,0,.92.34,1.2-.43.1-.78.46-.85.92v.07c-.07.47.17.9.56,1.11-.4.19-.67.6-.64,1.07v.07c.04.47.36.84.79.97-.36.26-.54.73-.41,1.18l.02.07c.13.46.53.75.97.79-.3.34-.37.83-.15,1.25l.03.06c.23.42.68.62,1.12.56-.22.4-.18.91.14,1.27l.03.03c.31.36.8.47,1.22.32-.11.43.04.91.43,1.18l.06.04c.39.28.89.25,1.26-.01-.01.46.26.89.71,1.07l.07.03c.45.17.93.02,1.22-.33.11.44.49.79.97.84h.07s.04.01.07.01c.45.01.85-.25,1.03-.65.22.4.68.65,1.16.57,0,0,.06,0,.06,0,.48-.08.81-.46.88-.91.31.33.81.45,1.25.26l.08-.03c.43-.2.67-.64.63-1.09.39.24.9.22,1.27-.08l.05-.04c.38-.3.49-.79.34-1.21.43.15.93.01,1.23-.37l.03-.04c.29-.37.31-.87.08-1.25.44.04.88-.21,1.09-.63l.02-.04c.2-.42.12-.91-.19-1.24.43-.06.81-.38.92-.83l.02-.07c.11-.46-.09-.91-.46-1.16.42-.14.73-.53.75-1v-.1s0-.01,0-.01Z"/>
          <g>
            <g>
              <polyline class="cls-5" points="153.83 122.86 145.5 119.26 145.5 115.62 139.37 115.62 139.37 119.26 131.02 122.92"/>
              <polygon class="cls-5" points="142.44 121.74 145.5 119.26 145.5 115.62 139.37 115.62 139.37 119.26 142.44 121.74"/>
              <polygon class="cls-5" points="142.44 121.74 140.27 123.52 138.26 119.72 139.37 118.74 142.44 121.74"/>
              <polygon class="cls-5" points="142.44 121.74 144.6 123.52 146.62 119.72 145.5 118.74 142.44 121.74"/>
              <polyline class="cls-6" points="143.85 122.9 143.19 124.3 142.44 124.3 141.68 124.3 141.02 122.9"/>
              <line class="cls-6" x1="143.7" y1="128.12" x2="143.19" y2="124.3"/>
              <line class="cls-6" x1="141.68" y1="124.3" x2="141.17" y2="128.12"/>
            </g>
            <path class="cls-5" d="m147.47,109.62c0,3.61,0-1.21,0,2.4-.13,2.89-2.37,5.7-5.02,5.68-2.63-.02-4.82-2.82-4.95-5.68,0-3.61,0,.65,0-2.96"/>
            <path class="cls-5" d="m137.5,109.07s2.18-1.19,2.85-3.24c0,0,2.14,3.49,7.12,3.8"/>
          </g>
        </g>
      </g>
      <g>
        <path class="cls-3" d="m96.27,122.18c8.46,0,15.35,6.82,15.43,15.29.07,8.14-6.17,14.87-14.16,15.52-.37.03-.75.05-1.13.05-.05,0-.11,0-.16,0-.42,0-.83-.02-1.24-.05-7.87-.64-14.09-7.19-14.16-15.24-.08-8.52,6.77-15.49,15.29-15.57.05,0,.09,0,.14,0m0-1.5h-.16c-9.33.09-16.86,7.75-16.78,17.09.08,8.82,6.76,16.01,15.54,16.72.46.04.92.06,1.37.06h.18c.42,0,.84-.02,1.24-.06,8.78-.71,15.61-8.19,15.53-17.02-.08-9.25-7.68-16.78-16.93-16.78h0Z"/>
        <g>
          <path class="cls-4" d="m105.75,137.1c.01-.47-.26-.88-.67-1.05.38-.23.59-.68.51-1.14v-.05c-.09-.46-.45-.81-.88-.9.32-.3.44-.77.27-1.21l-.03-.07c-.18-.44-.6-.69-1.05-.68.26-.37.28-.88,0-1.28l-.03-.04c-.27-.39-.75-.56-1.19-.45.17-.42.06-.93-.29-1.25,0,0-.02-.02-.02-.02-.35-.32-.85-.37-1.25-.17.06-.44-.16-.9-.58-1.12l-.05-.03c-.42-.23-.93-.15-1.27.15-.06-.45-.39-.84-.85-.95,0,0-.05-.01-.06-.01-.47-.11-.92.11-1.16.5-.16-.42-.57-.73-1.05-.72h-.09c-.48.02-.87.34-1,.78-.27-.36-.75-.54-1.21-.4l-.07.02c-.46.15-.74.56-.76,1.01-.36-.29-.87-.33-1.28-.08l-.04.02c-.41.25-.6.72-.51,1.16-.41-.18-.91-.1-1.24.24l-.04.04c-.33.34-.4.83-.22,1.24-.44-.08-.89.11-1.14.5l-.04.06c-.25.41-.2.89.08,1.24-.44,0-.86.29-1.02.73l-.02.07c-.16.45,0,.92.34,1.2-.43.1-.78.46-.85.92v.07c-.07.47.17.9.56,1.11-.4.19-.67.6-.64,1.07v.07c.04.47.36.84.79.97-.36.26-.54.73-.41,1.18l.02.07c.13.46.53.75.97.79-.3.34-.37.83-.15,1.25l.03.06c.23.42.68.62,1.12.56-.22.4-.18.91.14,1.27l.03.03c.31.36.8.47,1.22.32-.11.43.04.91.43,1.18l.06.04c.39.28.89.25,1.26-.01-.01.46.26.89.71,1.07l.07.03c.45.17.93.02,1.22-.33.11.44.49.79.97.84h.07s.04.01.07.01c.45.01.85-.25,1.03-.65.22.4.68.65,1.16.57,0,0,.06,0,.06,0,.48-.08.81-.46.88-.91.31.33.81.45,1.25.26l.08-.03c.43-.2.67-.64.63-1.09.39.24.9.22,1.27-.08l.05-.04c.38-.3.49-.79.34-1.21.43.15.93.01,1.23-.37l.03-.04c.29-.37.31-.87.08-1.25.44.04.88-.21,1.09-.63l.02-.04c.2-.42.12-.91-.19-1.24.43-.06.81-.38.92-.83l.02-.07c.11-.46-.09-.91-.46-1.16.42-.14.73-.53.75-1v-.1s0-.01,0-.01Z"/>
          <g>
            <g>
              <polyline class="cls-5" points="107.66 147.74 99.34 144.13 99.34 140.49 93.2 140.49 93.2 144.13 84.86 147.79"/>
              <polygon class="cls-5" points="96.27 146.61 99.34 144.13 99.34 140.49 93.2 140.49 93.2 144.13 96.27 146.61"/>
              <polygon class="cls-5" points="96.27 146.61 94.1 148.4 92.09 144.59 93.2 143.61 96.27 146.61"/>
              <polygon class="cls-5" points="96.27 146.61 98.44 148.4 100.45 144.59 99.34 143.61 96.27 146.61"/>
              <polyline class="cls-6" points="97.68 147.77 97.02 149.17 96.27 149.17 95.52 149.17 94.86 147.77"/>
              <line class="cls-6" x1="97.54" y1="152.99" x2="97.02" y2="149.17"/>
              <line class="cls-6" x1="95.52" y1="149.17" x2="95" y2="152.99"/>
            </g>
            <path class="cls-5" d="m101.3,134.49c0,3.61,0-1.21,0,2.4-.13,2.89-2.37,5.7-5.02,5.68-2.63-.02-4.82-2.82-4.95-5.68,0-3.61,0,.65,0-2.96"/>
            <path class="cls-5" d="m91.34,133.95s2.18-1.19,2.85-3.24c0,0,2.14,3.49,7.12,3.8"/>
          </g>
        </g>
      </g>
      <g>
        <path class="cls-3" d="m47.96,89.59c8.46,0,15.35,6.82,15.43,15.29.07,8.14-6.17,14.87-14.16,15.52-.37.03-.75.05-1.13.05-.05,0-.11,0-.16,0-.42,0-.83-.02-1.24-.05-7.87-.64-14.09-7.19-14.16-15.24-.08-8.52,6.77-15.49,15.29-15.57.05,0,.09,0,.14,0m0-1.5v1.5-1.5h-.16c-9.33.09-16.86,7.75-16.78,17.09.08,8.82,6.76,16.01,15.54,16.72.46.04.92.06,1.37.06h.18c.42,0,.84-.02,1.24-.06,8.78-.71,15.61-8.19,15.53-17.02-.08-9.25-7.68-16.78-16.93-16.78h0Z"/>
        <g>
          <path class="cls-4" d="m57.44,104.51c.01-.47-.26-.88-.67-1.05.38-.23.59-.68.51-1.14v-.05c-.09-.46-.45-.81-.88-.9.32-.3.44-.77.27-1.21l-.03-.07c-.18-.44-.6-.69-1.05-.68.26-.37.28-.88,0-1.28l-.03-.04c-.27-.39-.75-.56-1.19-.45.17-.42.06-.93-.29-1.25,0,0-.02-.02-.02-.02-.35-.32-.85-.37-1.25-.17.06-.44-.16-.9-.58-1.12l-.05-.03c-.42-.23-.93-.15-1.27.15-.06-.45-.39-.84-.85-.95,0,0-.05-.01-.06-.01-.47-.11-.92.11-1.16.5-.16-.42-.57-.73-1.05-.72h-.09c-.48.02-.87.34-1,.78-.27-.36-.75-.54-1.21-.4l-.07.02c-.46.15-.74.56-.76,1.01-.36-.29-.87-.33-1.28-.08l-.04.02c-.41.25-.6.72-.51,1.16-.41-.18-.91-.1-1.24.24l-.04.04c-.33.34-.4.83-.22,1.24-.44-.08-.89.11-1.14.5l-.04.06c-.25.41-.2.89.08,1.24-.44,0-.86.29-1.02.73l-.02.07c-.16.45,0,.92.34,1.2-.43.1-.78.46-.85.92v.07c-.07.47.17.9.56,1.11-.4.19-.67.6-.64,1.07v.07c.04.47.36.84.79.97-.36.26-.54.73-.41,1.18l.02.07c.13.46.53.75.97.79-.3.34-.37.83-.15,1.25l.03.06c.23.42.68.62,1.12.56-.22.4-.18.91.14,1.27l.03.03c.31.36.8.47,1.22.32-.11.43.04.91.43,1.18l.06.04c.39.28.89.25,1.26-.01-.01.46.26.89.71,1.07l.07.03c.45.17.93.02,1.22-.33.11.44.49.79.97.84h.07s.04.01.07.01c.45.01.85-.25,1.03-.65.22.4.68.65,1.16.57,0,0,.06,0,.06,0,.48-.08.81-.46.88-.91.31.33.81.45,1.25.26l.08-.03c.43-.2.67-.64.63-1.09.39.24.9.22,1.27-.08l.05-.04c.38-.3.49-.79.34-1.21.43.15.93.01,1.23-.37l.03-.04c.29-.37.31-.87.08-1.25.44.04.88-.21,1.09-.63l.02-.04c.2-.42.12-.91-.19-1.24.43-.06.81-.38.92-.83l.02-.07c.11-.46-.09-.91-.46-1.16.42-.14.73-.53.75-1v-.1s0-.01,0-.01Z"/>
          <g>
            <g>
              <polyline class="cls-5" points="59.35 115.14 51.03 111.54 51.03 107.9 44.89 107.9 44.89 111.54 36.55 115.19"/>
              <polygon class="cls-5" points="47.96 114.02 51.03 111.54 51.03 107.9 44.89 107.9 44.89 111.54 47.96 114.02"/>
              <polygon class="cls-5" points="47.96 114.02 45.79 115.8 43.78 111.99 44.89 111.02 47.96 114.02"/>
              <polygon class="cls-5" points="47.96 114.02 50.13 115.8 52.14 111.99 51.03 111.02 47.96 114.02"/>
              <polyline class="cls-6" points="49.37 115.18 48.71 116.58 47.96 116.58 47.21 116.58 46.55 115.18"/>
              <line class="cls-6" x1="49.23" y1="120.4" x2="48.71" y2="116.58"/>
              <line class="cls-6" x1="47.21" y1="116.58" x2="46.69" y2="120.4"/>
            </g>
            <path class="cls-5" d="m52.99,101.9c0,3.61,0-1.21,0,2.4-.13,2.89-2.37,5.7-5.02,5.68-2.63-.02-4.82-2.82-4.95-5.68,0-3.61,0,.65,0-2.96"/>
            <path class="cls-5" d="m43.03,101.35s2.18-1.19,2.85-3.24c0,0,2.14,3.49,7.12,3.8"/>
          </g>
        </g>
      </g>
      <g>
        <line class="cls-6" x1="109.07" y1="39.81" x2="145.6" y2="85.45"/>
        <polygon points="137.7 85.41 137.92 83.92 145.24 85 145.78 77.63 147.28 77.74 146.61 86.72 137.7 85.41"/>
      </g>
      <g>
        <line class="cls-6" x1="97.67" y1="42.11" x2="97.18" y2="116.07"/>
        <polygon points="91.08 111.06 92.18 110.05 97.18 115.5 102.25 110.11 103.34 111.14 97.16 117.7 91.08 111.06"/>
      </g>
      <g>
        <line class="cls-6" x1="88.43" y1="39.62" x2="60.26" y2="81.72"/>
        <polygon points="57.92 74.18 59.41 73.94 60.58 81.24 67.77 79.54 68.12 81 59.35 83.07 57.92 74.18"/>
      </g>
      <g>
        <line class="cls-6" x1="78.42" y1="32.73" x2="60.86" y2="39.8"/>
        <polygon points="63.18 32.26 64.54 32.89 61.39 39.59 68.3 42.23 67.76 43.64 59.35 40.41 63.18 32.26"/>
      </g>
      <g>
        <line class="cls-6" x1="116.11" y1="32.73" x2="133.72" y2="39.07"/>
        <polygon points="126.97 43.16 126.38 41.78 133.18 38.88 129.79 32.3 131.12 31.62 135.25 39.62 126.97 43.16"/>
      </g>
      <g>
        <polygon class="cls-1" points="179.74 99.03 173.45 97.94 173.45 93.16 177.33 93.49 178.37 97 179.74 99.03"/>
        <path class="cls-2" d="m175.21,92.5c.73-.27,1.73.07,2.44,1.25.53.89.56,2.55.67,2.89.22.68.95,1.45,2.44,1.13,0,0-.12,1.12-.96,1.28"/>
        <path class="cls-2" d="m177.03,86.74c0,2.67-2.16,4.83-4.83,4.83s-4.83-2.16-4.83-4.83,2.16-4.87,4.83-4.87,4.83,2.2,4.83,4.87Z"/>
        <g>
          <path class="cls-5" d="m182.49,101.08c-.13-.69-.63-1.28-1.32-1.56l-6.61-2.22v-3.3h-4.71v3.3l-6.61,2.22c-.69.28-1.19.87-1.32,1.56"/>
          <path class="cls-5" d="m176.78,87.67c0,3.31,0-.61,0,2.7-.12,2.65-2.17,5.23-4.6,5.21-2.41-.02-4.42-2.58-4.54-5.21,0-3.31,0,.67,0-2.64l4.22-.05c1.04-.01,1.95-.7,2.25-1.69l.11-.37.03.14c.24,1.19,1.33,2.01,2.54,1.9h0Z"/>
          <path class="cls-5" d="m166.64,98.49s1.76,2.43,5.56,2.43,5.56-2.43,5.56-2.43"/>
        </g>
      </g>
      <g>
        <polygon class="cls-1" points="87.45 96.61 81.15 95.52 81.15 90.74 85.04 91.07 86.08 94.57 87.45 96.61"/>
        <path class="cls-2" d="m82.91,90.08c.73-.27,1.73.07,2.44,1.25.53.89.56,2.55.67,2.89.22.68.95,1.45,2.44,1.13,0,0-.12,1.12-.96,1.28"/>
        <path class="cls-2" d="m84.74,84.32c0,2.67-2.16,4.83-4.83,4.83s-4.83-2.16-4.83-4.83,2.16-4.87,4.83-4.87,4.83,2.2,4.83,4.87Z"/>
        <g>
          <path class="cls-5" d="m90.19,98.65c-.13-.69-.63-1.28-1.32-1.56l-6.61-2.22v-3.3h-4.71v3.3l-6.61,2.22c-.69.28-1.19.87-1.32,1.56"/>
          <path class="cls-5" d="m84.48,85.25c0,3.31,0-.61,0,2.7-.12,2.65-2.17,5.23-4.6,5.21-2.41-.02-4.42-2.58-4.54-5.21,0-3.31,0,.67,0-2.64l4.22-.05c1.04-.01,1.95-.7,2.25-1.69l.11-.37.03.14c.24,1.19,1.33,2.01,2.54,1.9h0Z"/>
          <path class="cls-5" d="m74.35,96.07s1.76,2.43,5.56,2.43,5.56-2.43,5.56-2.43"/>
        </g>
      </g>
      <g>
        <polygon class="cls-1" points="32.66 140.23 26.36 139.14 26.36 134.35 30.25 134.69 31.29 138.19 32.66 140.23"/>
        <path class="cls-2" d="m28.12,133.7c.73-.27,1.73.07,2.44,1.25.53.89.56,2.55.67,2.89.22.68.95,1.45,2.44,1.13,0,0-.12,1.12-.96,1.28"/>
        <path class="cls-2" d="m29.95,127.94c0,2.67-2.16,4.83-4.83,4.83s-4.83-2.16-4.83-4.83,2.16-4.87,4.83-4.87,4.83,2.2,4.83,4.87Z"/>
        <g>
          <path class="cls-5" d="m35.4,142.27c-.13-.69-.63-1.28-1.32-1.56l-6.61-2.22v-3.3h-4.71v3.3l-6.61,2.22c-.69.28-1.19.87-1.32,1.56"/>
          <path class="cls-5" d="m29.69,128.87c0,3.31,0-.61,0,2.7-.12,2.65-2.17,5.23-4.6,5.21-2.41-.02-4.42-2.58-4.54-5.21,0-3.31,0,.67,0-2.64l4.22-.05c1.04-.01,1.95-.7,2.25-1.69l.11-.37.03.14c.24,1.19,1.33,2.01,2.54,1.9h0Z"/>
          <path class="cls-5" d="m19.55,139.69s1.76,2.43,5.56,2.43,5.56-2.43,5.56-2.43"/>
        </g>
      </g>
      <g>
        <polygon class="cls-1" points="18.58 81.18 12.28 80.09 12.28 75.31 16.16 75.64 17.2 79.14 18.58 81.18"/>
        <path class="cls-2" d="m14.04,74.65c.73-.27,1.73.07,2.44,1.25.53.89.56,2.55.67,2.89.22.68.95,1.45,2.44,1.13,0,0-.12,1.12-.96,1.28"/>
        <path class="cls-2" d="m15.86,68.89c0,2.67-2.16,4.83-4.83,4.83s-4.83-2.16-4.83-4.83,2.16-4.87,4.83-4.87,4.83,2.2,4.83,4.87Z"/>
        <g>
          <path class="cls-5" d="m21.32,83.22c-.13-.69-.63-1.28-1.32-1.56l-6.61-2.22v-3.3h-4.71v3.3l-6.61,2.22c-.69.28-1.19.87-1.32,1.56"/>
          <path class="cls-5" d="m15.61,69.82c0,3.31,0-.61,0,2.7-.12,2.65-2.17,5.23-4.6,5.21-2.41-.02-4.42-2.58-4.54-5.21,0-3.31,0,.67,0-2.64l4.22-.05c1.04-.01,1.95-.7,2.25-1.69l.11-.37.03.14c.24,1.19,1.33,2.01,2.54,1.9h0Z"/>
          <path class="cls-5" d="m5.47,80.64s1.76,2.43,5.56,2.43,5.56-2.43,5.56-2.43"/>
        </g>
      </g>
    </g>
  </g>
</svg>