<?xml version="1.0" encoding="UTF-8"?>
<svg xmlns="http://www.w3.org/2000/svg" xmlns:xlink="http://www.w3.org/1999/xlink" viewBox="0 0 248.82 280.09">
  <defs>
    <style>
      .cls-1, .cls-2, .cls-3, .cls-4, .cls-5 {
        fill: none;
      }

      .cls-2 {
        stroke-width: .72px;
      }

      .cls-2, .cls-3 {
        stroke: #5a595c;
      }

      .cls-2, .cls-3, .cls-4 {
        stroke-miterlimit: 10;
      }

      .cls-2, .cls-3, .cls-4, .cls-5, .cls-6 {
        stroke-linecap: round;
      }

      .cls-7 {
        clip-path: url(#clippath);
      }

      .cls-3, .cls-5 {
        stroke-width: .84px;
      }

      .cls-8 {
        fill: #e9b69b;
      }

      .cls-9 {
        fill: #fff;
      }

      .cls-10 {
        fill: #f1f1f1;
      }

      .cls-11 {
        fill: #e5e6e7;
      }

      .cls-12 {
        fill: #ba0c2f;
      }

      .cls-13 {
        fill: #b9ad86;
      }

      .cls-14 {
        fill: #a89968;
      }

      .cls-15 {
        fill: #a6a6a9;
      }

      .cls-16, .cls-6 {
        fill: #d0d1d1;
      }

      .cls-17 {
        fill: #d66d82;
      }

      .cls-18 {
        fill: #434243;
      }

      .cls-19 {
        fill: #1a1a1a;
      }

      .cls-20 {
        fill: #6d6e71;
      }

      .cls-21 {
        fill: #808082;
      }

      .cls-22 {
        fill: #5a595c;
      }

      .cls-23 {
        clip-path: url(#clippath-1);
      }

      .cls-24 {
        fill: #6e4758;
        mix-blend-mode: multiply;
        opacity: .4;
      }

      .cls-4 {
        stroke: #909294;
        stroke-width: .81px;
      }

      .cls-25 {
        isolation: isolate;
      }

      .cls-5 {
        stroke: #1a1a1a;
      }

      .cls-5, .cls-6 {
        stroke-linejoin: round;
      }

      .cls-6 {
        stroke: #989898;
        stroke-width: .75px;
      }
    </style>
    <clipPath id="clippath">
      <path class="cls-1" d="m.68,0h248.13v139.33H3.01c-1.29,0-2.33-1.04-2.33-2.33V0h0Z" transform="translate(249.5 139.33) rotate(-180)"/>
    </clipPath>
    <clipPath id="clippath-1">
      <rect class="cls-1" x="38.01" y="6.21" width="168.91" height="133.51" rx="27.87" ry="27.87"/>
    </clipPath>
  </defs>
  <g class="cls-25">
    <g id="Layer_2" data-name="Layer 2">
      <g id="Content">
        <g>
          <g class="cls-7">
            <rect class="cls-10" x="38.01" y="6.21" width="168.91" height="133.51" rx="27.87" ry="27.87"/>
            <g class="cls-23">
              <g>
                <path class="cls-13" d="m76.14,85.63s25.43,25.93,30.7,27.62l6.74-9.24c-2.16-1.38-24.17-30.23-24.17-30.23l-13.28,11.86Z"/>
                <circle class="cls-13" cx="109.46" cy="107.12" r="6.79"/>
                <circle class="cls-13" cx="82.84" cy="79.52" r="8.9"/>
                <g>
                  <g>
                    <path class="cls-16" d="m166.21,72.47s-5.69,11.94-15.77,29.82c-1.03,1.83-3.36,2.52-5.33,1.58h0c-2.24-1.07-2.77-3.64-1.77-5.81,7.62-16.48,12.28-30.64,12.28-30.64l10.59,5.04Z"/>
                    <circle class="cls-16" cx="160.91" cy="69.94" r="5.86"/>
                    <circle class="cls-16" cx="146.98" cy="100.14" r="4.19"/>
                  </g>
                  <g>
                    <path class="cls-16" d="m143.19,100.2l-.88-5.69c-.2-1.33-.33-2.66-.38-4-.07-2.2-.02-4.4.14-6.59l1.09-14.65,5.34.85s.07-.48.93,4.14c1.44,7.7,3.85,22.79,2.11,25.97l-8.37-.02Z"/>
                    <circle class="cls-16" cx="145.96" cy="68.97" r="2.8"/>
                  </g>
                </g>
                <g>
                  <path class="cls-19" d="m150.23,53.5c3.73-6.31,6.98-11.86,7.42-16.94,1.41-17.74,16.14-16.45,19.29-11.74,0,0,6.12,2.48,5.59,9.03-.36,4.39.03,9.09.03,9.09,0,0,.5,4.72,3.69,10.27,2.96,5.15.48,10.68-2.9,11.33-.13.03-7.23,1.59-14.29,1.59-6.97,0-14.58-1.7-14.85-1.78-4.06-1.19-6.37-6.82-3.99-10.84Z"/>
                  <path class="cls-19" d="m176.94,24.82s3.61,3.83,3.21,9.93c-.4,6.11-.19,10.6,1.65,15.97,1.84,5.38.37,11.77-2.75,13.1-3.12,1.33-4.06,2.3-9.98,2.3-5.92,0-11.72-1.16-11.72-1.16,0,0-5.51-3.17-.6-16.96,2.61-7.34,2.09-11.78,3.81-16.63,2.33-6.56,7.56-9.67,16.38-6.56Z"/>
                  <path class="cls-19" d="m186.74,55.46s-.03,0-.05,0c-.21-.03-.36-.22-.33-.43.86-6.59-3.76-10.36-3.81-10.39-.17-.13-.19-.38-.06-.54.13-.17.38-.2.54-.06.2.16,5.02,4.06,4.09,11.1-.03.19-.19.34-.38.34Z"/>
                  <path class="cls-19" d="m148.32,58.04c-.17,0-.32-.11-.37-.28-.06-.21-1.45-5.32,4.34-10.69,5.52-5.13,7.44-15.64,7.46-15.74.04-.21.24-.36.45-.31.21.04.35.24.31.45-.08.44-1.98,10.87-7.69,16.18-5.42,5.04-4.18,9.72-4.12,9.91.06.2-.06.42-.27.48-.04,0-.07.02-.11.02Z"/>
                </g>
                <path class="cls-16" d="m185.22,111.88c0-7.7-6.23-13.94-13.92-13.94s-13.96,6.25-13.96,13.95c0,7.7,6.27,13.94,13.96,13.94s13.92-6.24,13.92-13.94Z"/>
                <g>
                  <g>
                    <circle class="cls-16" cx="170.36" cy="67.83" r="6.88"/>
                    <polygon class="cls-16" points="163.57 66.76 177.15 66.76 176.6 63.01 176.37 61.46 176.14 59.88 175.73 57.15 175.63 56.45 175.3 54.2 175.15 53.2 165.53 53.22 165.33 54.57 165.08 56.27 164.99 56.96 164.9 57.55 164.77 58.44 163.57 66.76"/>
                    <circle class="cls-16" cx="170.36" cy="53.21" r="4.81"/>
                    <path class="cls-15" d="m165.08,56.27l.18.27c1.64,2.52,4.31,4.79,7.32,4.79l3.79.14-.23-1.58-.41-2.73-.1-.7-.33-2.25-9.97.37-.25,1.7Z"/>
                  </g>
                  <path class="cls-16" d="m153.77,81.28c.59-1.19,1.36-2.23,2.23-3.1.54-.54.9-1.23,1.03-1.98.54-3.07,2.01-10.7,2.01-10.7.3-.53,10.92-4.64,10.92-4.64l15.49,3.06c.06.01,3.15,16.3,2.95,16.8-.31.77-1.12,2.57-1.43,3.33-.58,1.38-1.13,2.77-1.68,4.15-.86,2.17-1.75,4.41-2.73,6.59-1.27,2.83,2.16,14.45,2.95,18.2l-15.78,12.66-11.68-7.86s-1.74-2.97-.42-8.67c.5-2.16.14-6.69-.38-9.85-.23-1.37-.36-2.75-.38-4.14,0-.2,0-.41-.01-.62-4.19-2.43-5.58-8.23-3.08-13.23Z"/>
                  <g>
                    <path class="cls-12" d="m153.68,81.16c.6-1.21,1.38-2.27,2.27-3.15.55-.55.91-1.25,1.05-2.01.55-3.12,2.04-10.88,2.04-10.88.3-.54,13.76-6.74,13.76-6.74l13.06,5.65s-2.57,3.81-1.95,7.85c.68,4.41,4.61,8.58,4.5,8.85-.31.78-.66,2.47-.98,3.25-.59,1.4-1.14,2.81-1.7,4.22-.87,2.2-1.78,4.48-2.77,6.7-1.29,2.88,2.2,14.69,2.99,18.5l-16.04,12.87-11.87-7.99s-1.77-3.02-.43-8.81c.51-2.2.14-6.8-.39-10.01-.23-1.39-.36-2.8-.39-4.21,0-.2,0-.41-.01-.63-4.25-2.47-5.67-8.36-3.13-13.45Z"/>
                    <path class="cls-17" d="m175.88,56.75l1.12,4.36-6.74,4.34-2.07-4.95s6.64-4.15,7.69-3.75Z"/>
                    <path class="cls-17" d="m164.62,57.51l-1.66,5.59,1.73,1.9,3.51-4.51s-2.61-3.35-3.58-2.98Z"/>
                  </g>
                </g>
                <g>
                  <path class="cls-16" d="m157.69,109.01h26.86s9.89,10.67,7.72,27.9l-21.3,4.94s-2.14.88-4.62,0l-14.58-6.5c-.17-4.8,5.93-26.34,5.93-26.34Z"/>
                  <path class="cls-19" d="m157.69,109.01l27.16-.14s10.82,12.01,8.5,30.4c-.87.89-11.27,11.15-25.57,8.44-9.88-1.87-15.49-8.77-16.94-10.67.79-4.92,2.18-10.65,6.85-28.02Z"/>
                </g>
                <g>
                  <g>
                    <path class="cls-16" d="m172.17,195.71s1.25,18.03,2.15,25.4c.88,7.29,2.47,11.44,3.32,18.75.57,4.95.75,13.19.75,13.19l5.87.48s3.97-22.49,3.94-34.03c-.02-7.43-4.44-24.82-4.44-24.82l-11.58,1.02Z"/>
                    <circle class="cls-19" cx="182.21" cy="138.19" r="10.18"/>
                    <circle class="cls-16" cx="177.62" cy="195.16" r="6.15"/>
                    <circle class="cls-16" cx="181.31" cy="253.43" r="2.95"/>
                    <path class="cls-19" d="m193.35,139.27s1.06,24.13-6.32,49.72c-.71,2.44-2.95,4.12-5.5,4.12h-6.58c-2.82,0-5.06-2.35-4.93-5.16l.99-21.41c.04-.76.05-1.53.04-2.29l.92-24.97h21.38Z"/>
                    <path class="cls-19" d="m186.16,190.75s7.44,28.95.99,53h-12.15s-2.85-38.6-2.85-38.6c-.05-.69-.12-1.37-.21-2.06-1.16-3.84-2.31-10.32-1.93-15.15l16.15,2.8Z"/>
                  </g>
                  <g>
                    <path class="cls-16" d="m163.91,266.34c.35.21,1.24.97,3.36,1.17,1.46.14,2.95-.55,3.36-.7,1.89-.71,4.57-1.27,6.39-2.21,1.87-.97,3.75-1.95,4.8-2.28,1.73-.54,3.28-.99,3.95-2.86.65-1.86-1.48-4.56-1.52-5.92,0,0-5.87-.5-5.87-.48-.44,2.16-6.02,4.47-10.56,9.39-1.08,1.17-3.9,1.13-5.31,1.56-3.85,1.02-.24,2.8,1.4,2.33Z"/>
                    <g>
                      <polygon class="cls-19" points="183.69 267.17 182.1 267.17 181.31 260.88 184.64 260.06 186.01 260.76 183.69 267.17"/>
                      <path class="cls-20" d="m160.34,266.54c2.26,1.44,9.46,1.41,12.42.86,2.37-.44,4.41-2.37,6.34-3.65,2.33-1.54,4.23-2.27,6.9-2.98.48-1.16.52-2.22.41-2.79-.21-1.2-1.79-4.45-2.17-4.44-.44,0-5.89,6.76-12.74,8.88-1.16.36-3.07.05-2.96-.5,0,0-4.05,1.32-6.31,1.59-2.11.25-1.9,3.03-1.9,3.03Z"/>
                    </g>
                  </g>
                </g>
                <g>
                  <g>
                    <path class="cls-16" d="m150.84,194.98s-.34,18.07-.1,25.49c.24,7.34,1.45,11.62,1.65,18.97.13,4.99-.33,13.06-.33,13.06l5.71.62s5.95-21.52,6.94-33.02c.63-7.4-2.23-25.11-2.23-25.11h-11.63Z"/>
                    <circle class="cls-19" cx="160.91" cy="138.53" r="10.18"/>
                    <circle class="cls-16" cx="156.31" cy="194.9" r="6.15"/>
                    <circle class="cls-16" cx="154.86" cy="253.27" r="2.95"/>
                    <path class="cls-19" d="m171.96,139.27s1.06,24.13-6.32,49.72c-.71,2.44-2.95,4.12-5.5,4.12h-6.58c-2.82,0-5.06-2.35-4.93-5.16l.99-21.41c.04-.76.05-1.53.04-2.29l1.18-27.2,21.13,2.23Z"/>
                    <path class="cls-19" d="m164.59,191.18s5.64,29.36-2.28,52.96l-12.12-.75-.47-38.7c0-.69-.03-1.38-.08-2.07-.92-3.91-1.67-10.44-.99-15.24l15.95,3.79Z"/>
                  </g>
                  <g>
                    <path class="cls-16" d="m137.47,266.34c.35.21,1.24.97,3.36,1.17,1.46.14,2.95-.55,3.36-.7,1.89-.71,4.57-1.27,6.39-2.21,1.87-.97,3.75-1.95,4.8-2.28,1.73-.54,3.28-.99,3.95-2.86.65-1.86-1.48-4.56-1.52-5.92,0,0-5.87-.5-5.87-.48-.44,2.16-6.02,4.47-10.56,9.39-1.08,1.17-3.9,1.13-5.31,1.56-3.85,1.02-.24,2.8,1.4,2.33Z"/>
                    <g>
                      <polygon class="cls-19" points="157.25 267.17 155.66 267.17 154.87 260.88 158.2 260.06 159.57 260.76 157.25 267.17"/>
                      <path class="cls-20" d="m133.9,266.54c2.26,1.44,9.46,1.41,12.42.86,2.37-.44,4.41-2.37,6.34-3.65,2.33-1.54,4.23-2.27,6.9-2.98.48-1.16.52-2.22.41-2.79-.21-1.2-1.79-4.45-2.17-4.44-.44,0-5.89,6.76-12.74,8.88-1.16.36-3.07.05-2.96-.5,0,0-4.05,1.32-6.31,1.59-2.11.25-1.9,3.03-1.9,3.03Z"/>
                    </g>
                  </g>
                </g>
                <g>
                  <path class="cls-19" d="m178.5,42.36c2.16,8.63,2.17,16.56-.76,21.86,0,0,4.2-.43,6.12-2.73,1.73-2.07,2.01-6.24,1.13-8.87-1.86-5.55-2.16-10.26-2.16-10.26h-4.33Z"/>
                  <path class="cls-16" d="m159.69,36.87c0,.43.03.86.07,1.28.02.18.05.36.08.53.08.52.21,1.02.36,1.51,0,0,.12,3.28.24,5.25.04.64.08,1.14.12,1.35,0,.01,0,.02,0,.03.31,1.68.76,3,1.7,4.55.3.51.65,1.04,1.07,1.61.64.88.92,1.25,1.77,2.13.75.78,1.72,1.55,3.62,1.96.17.04.58.05,1.02.04,1.12-.01,2.22-.34,3.17-.94,1.68-1.07,3.37-2.64,3.84-3.28,1.69-2.34,2.84-3.84,3.25-6.06,0-.04.02-.1.03-.18.18-1.01.84-4.97,1.03-6.14l.02-.12.03-.2c.49-1.56.66-3.26.38-5.04-.76-4.94-4.87-8.78-9.85-9.21-3.95-.35-7.51,1.4-9.7,4.26-.24.31-.47.65-.68.99-1.01,1.66-1.58,3.6-1.58,5.68Z"/>
                  <path class="cls-16" d="m162.22,40.19s-3.9-1.01-3.02,2.62c1.05,4.35,4.13,3.84,4.13,3.84l-1.11-6.46Z"/>
                  <g>
                    <ellipse class="cls-19" cx="173.2" cy="41.22" rx="1.03" ry="1.46"/>
                    <path class="cls-19" d="m172.17,40.31c.49-1.13,2.43-1.35,2.94-.13-1.2-.18-1.74.02-2.94.13h0Z"/>
                  </g>
                  <g>
                    <path class="cls-19" d="m164.13,41.17c0,.81-.46,1.46-1.03,1.46s-1.03-.66-1.03-1.46c0-.81.46-1.46,1.03-1.46s1.03.66,1.03,1.46Z"/>
                    <path class="cls-19" d="m161.2,40.27c.49-1.13,2.43-1.35,2.94-.13-1.2-.18-1.74.02-2.94.13h0Z"/>
                  </g>
                  <path class="cls-4" d="m166.47,46.04c0,.35.64.63,1.42.63s1.42-.29,1.42-.63"/>
                  <path class="cls-21" d="m170.05,49.69l2.53-.23c-.57,1.01-1.59,1.65-2.46,2.03-.99.44-2.12.44-3.11,0-.87-.38-1.89-1.02-2.46-2.03l2.53.23c.99.09,1.98.09,2.97,0Z"/>
                  <path class="cls-20" d="m168.57,49.22c2.1,0,4.01.25,4.01.25-1.85,1.07-4.01.97-4.01.97,0,0-2.16.09-4.01-.97,0,0,1.91-.25,4.01-.25Z"/>
                  <path class="cls-18" d="m177.01,38.2c.1,0,.15-.13.07-.19-.49-.37-1.6-1.1-2.79-1.11s-2.93.37-3.8.59c-.45.11-.74.54-.67.99,0,0,0,.01,0,.02.06.36.31.48.53.52.16.03.32,0,.47-.04.63-.2,3.19-1,3.68-.96.43.04,1.85.14,2.5.18Z"/>
                  <path class="cls-18" d="m159.84,37.56c.04.17.1.35.15.52.66-.26,1.56-.62,1.88-.75.46-.19,3.14-.19,3.79-.19.16,0,.32-.03.46-.1.2-.1.4-.3.35-.65v-.02c-.07-.46-.48-.77-.94-.75-.89.06-2.69.21-3.8.58-.8.27-1.46.86-1.9,1.37Z"/>
                  <path class="cls-19" d="m178.36,31.12h0c.03.09.5,1.45.8,5.93.05.89.1,1.89.14,3.04.1.49.23.66.42.66.28,0,.7-.35,1.39-.55l1.37,1.31s-.22-.2.54-6.71c.91-7.78-3.8-8.85-3.8-8.85l-.85,5.19Z"/>
                  <path class="cls-16" d="m181.11,40.19s3.9-1.01,3.02,2.62c-1.05,4.35-4.13,3.84-4.13,3.84l1.11-6.46Z"/>
                  <path class="cls-22" d="m156.61,65.67l4.59-.04c-2.32-5.34-3.55-12.91-1.44-27.35-.51-10.62,14.03-12.7,18.6-7.16l.85-5.18s-7.78-10.27-17.7.03c0,0-4.05,3.35-4.76,11.03-.47,5.08-2.11,11.29-6.1,17.6-2.86,4.52.62,11.06,5.96,11.06Z"/>
                  <path class="cls-19" d="m178.36,31.13c.03.08.5,1.45.8,5.93l.05.39c1.82-5.35-.72-6.28-.85-6.32Z"/>
                  <path class="cls-19" d="m158.08,66.45l4.59-.04c-2.32-5.34-4.57-11.79-2.46-26.22-.02-.34-.02-.67,0-1h0c.06-1.59.46-3.02,1.1-4.27,0,0,0,0,0-.01h0c2.58-5,9.06-7.21,13.61-5.93h0c1.37.39,2.57,1.09,3.43,2.14l.85-5.18s-7.78-10.27-17.7.03c0,0-4.05,3.35-4.76,11.03-.47,5.08-2.49,10.54-6.48,16.84-2.86,4.52.15,11.82,7.81,12.61Z"/>
                  <path class="cls-19" d="m161.31,34.92h0c2.58-5,9.06-7.21,13.61-5.93-.23-.09-11.03-4.07-13.62,5.93Z"/>
                </g>
                <g>
                  <g>
                    <path class="cls-16" d="m188.08,66.1s9.38,9.33,22.9,24.77c1.38,1.58,1.26,4.01-.27,5.55h0c-1.75,1.76-4.35,1.41-6.06-.26-13.02-12.65-24.83-21.75-24.83-21.75l8.27-8.31Z"/>
                    <circle class="cls-16" cx="183.94" cy="70.25" r="5.86"/>
                    <circle class="cls-16" cx="207.8" cy="93.42" r="4.19"/>
                  </g>
                  <g>
                    <path class="cls-16" d="m211.84,94.41l-1.83,5.46c-.43,1.27-.93,2.52-1.5,3.73-.95,1.99-2,3.92-3.15,5.79l-7.69,12.52-4.36-3.2s1.61-3.48,2.96-7.98c2.25-7.51,5.15-18.14,8.16-20.17l7.43,3.86Z"/>
                    <circle class="cls-16" cx="195.05" cy="120.9" r="2.8"/>
                  </g>
                  <path class="cls-16" d="m195.56,119.11l-1.97-1.05-3,1.37c-2.02.11-3.27-.76-4.22-.55-.95.21-2.72-.19-2.72-.19-.34,1.57,1.79,2.3,1.79,2.3-.13.02-.27.05-.4.07-.33.06-.67.11-1,.17-.42.07-.85.14-1.27.22-.41.07-.82.13-1.23.21-.32.06-.63.12-.94.22-.32.11-.59.29-.88.47-.35.22-2.09,1.72-2.4,1.92-.14.1-.44.29-.44.29,0,.44.13.87.46,1.15.59.49,1.49.13,1.93-.13.32-.19.72-.54,1.02-.79.25-.21.15-.25.68-.39.31-.08.63-.09.94-.14.68-.1,1.36-.2,2.04-.29.16-.02.31-.04.47-.06,0,0-2.81,1.72-3.65,2.35-.63.47-1.88,3.15-1.88,3.15-.91,1.92,1.54,1.58,1.54,1.58-.06.17-.14.45-.06.64.07.16.22.25.35.3.24.11.49.1.73.09.45-.03.89-.14,1.26-.4.1-.07.2-.16.3-.25.09-.09.18-.18.27-.27.11-.12.22-.24.32-.37.32-.39.65-.78.92-1.21.03-.05.09-.21.15-.24,0,0,2.3-1.04,2.3-1.04-.63.74-.89,2.49-1.71,3.56-.12.16-.24.34-.32.54-.07.18-.14.44-.03.64.11.19.32.18.48.18.53,0,1.01-.19,1.45-.49.23-.15.43-.34.61-.56.14-.16.26-.33.37-.51.05-.08.1-.16.14-.25.81-2.14,2.1-3.55,4.54-3.28,3.52.38,4.14-4.88,4.14-4.88l-1.07-4.06Z"/>
                </g>
                <g>
                  <circle class="cls-19" cx="55.84" cy="195.18" r="7.63"/>
                  <g>
                    <path class="cls-19" d="m59.52,130.77c5.41.31,9.66,4.77,9.72,10.19.06,5.81-.77,12.49-.94,14.97-.7,9.95-4.59,39.54-4.6,39.74-.17,2.34-1.77,4.2-3.56,5.43-1.38,1.03-3.47,1.38-5.11,1.26-.01,0-.02,0-.03,0,0,0-.02,0-.03,0-.21-.02-.42-.04-.64-.08-.06,0-.12-.02-.18-.03-3.52-.64-6.67-3.52-6.38-7.04-.8-6.86-1.29-37.66-.64-43.84.37-3.79,1.13-7.13,1.49-10.92.34-5.68,5.21-10.01,10.89-9.68Z"/>
                    <path class="cls-19" d="m19.73,251.86l-8.85-6.88s18.95-31.77,23.12-36.74c4.22-5.03,15.82-17.74,15.82-17.74l11.94,9.46s-10.75,14.43-14.57,19.58c-5.94,8.02-27.46,32.32-27.46,32.32Z"/>
                    <g>
                      <path class="cls-11" d="m19.7,251.77c-.07.09-1.39,6.86-1.39,6.86,0,0-6.81,1.66-11.23-3.41l-.88-2.47,5.38-6.68,8.12,5.7Z"/>
                      <g>
                        <path class="cls-18" d="m7.91,250.39s-3.78,2.67-5.16,4.45c-1.54,1.98-1.62,3.06-1.07,3.49s26.14,20.57,26.14,20.57c0,0,2.13-1.59-.2-5.11-3.91-5.89-6.49-8.48-7.23-10.52-1.25-3.45-1.27-4.88-1.27-4.88,0,0-3.98-.27-8.05-3.43-1.98-1.54-3.16-4.57-3.16-4.57Z"/>
                        <path class="cls-19" d="m27.68,273.83c-1.76-2.73-4.4-6.09-5.22-7.24-3.55.52-8.27-1.07-10.69-1.2,1.58,1.23,12.64,11.15,15.9,13.69,1-.74,1.56-2.83,0-5.25Z"/>
                        <path class="cls-22" d="m-2.88,267.43H30.96c.24,0,.43.19.43.43v1.36c0,.1-.08.17-.17.17H-2.88c-.14,0-.25-.11-.25-.25v-1.48c0-.14.11-.25.25-.25Z" transform="translate(167.7 47.82) rotate(37.86)"/>
                        <path class="cls-19" d="m22.35,268.44s-.07-.07-.1-.11c-1.38-1.82-3.07-3.9-3.83-8.9-.12-.79-.09-.27-.13-.94-.08-1.65.29-1.7.58-1.71.31-.01.54.13.63,1.78.03.6,0,0,.11.69.73,4.74,2.02,6.22,3.6,8.36.2.27.15.64-.12.84-.22.17-.53.15-.74-.01Z"/>
                        <path class="cls-2" d="m21.5,264.73s-1.31-1.55-2.73-.56"/>
                        <path class="cls-2" d="m20.84,262.82s-1.31-1.55-2.73-.56"/>
                      </g>
                    </g>
                  </g>
                </g>
                <g>
                  <circle class="cls-19" cx="83.45" cy="192.74" r="7.63"/>
                  <g>
                    <path class="cls-19" d="m79.43,128.35c5.41-.33,10.16,3.58,10.86,8.96.75,5.76.73,12.49.85,14.98.49,9.96.16,39.81.17,40,.11,2.34-1.26,4.38-2.89,5.81-1.25,1.19-3.28,1.79-4.92,1.86-.01,0-.02,0-.03,0,0,0-.02,0-.03,0-.21,0-.43,0-.64,0-.06,0-.12,0-.18,0-3.57-.22-7.04-2.7-7.17-6.23-1.61-6.71-5.77-37.24-5.86-43.45-.09-3.81.27-7.21.18-11.02-.34-5.68,3.98-10.56,9.66-10.91Z"/>
                    <path class="cls-19" d="m54.35,253.31l-9.61-5.78s15.03-33.81,18.57-39.24c3.59-5.5,13.59-19.5,13.59-19.5l12.98,7.97s-8.95,15.61-12.13,21.17c-4.95,8.67-23.41,35.36-23.41,35.36Z"/>
                    <g>
                      <path class="cls-11" d="m54.31,253.22c-.06.1-.56,6.97-.56,6.97,0,0-6.57,2.46-11.56-2.04l-1.17-2.34,4.55-7.27,8.74,4.69Z"/>
                      <g>
                        <path class="cls-18" d="m42.44,253.26s-3.43,3.1-4.6,5.04c-1.29,2.15-1.24,3.24-.64,3.6.6.36,28.41,17.31,28.41,17.31,0,0,1.92-1.83-.81-5.05-4.58-5.39-7.45-7.65-8.43-9.59-1.65-3.28-1.84-4.7-1.84-4.7,0,0-3.99.2-8.4-2.45-2.15-1.29-3.68-4.16-3.68-4.16Z"/>
                        <path class="cls-19" d="m64.86,274.18c-2.07-2.5-5.1-5.53-6.04-6.56-3.47.94-8.34-.08-10.75.08,1.72,1.03,13.88,9.57,17.42,11.69.91-.85,1.22-2.99-.62-5.21Z"/>
                        <path class="cls-22" d="m33.75,269.43h33.84c.24,0,.43.19.43.43v1.36c0,.1-.08.17-.17.17h-34.1c-.14,0-.25-.11-.25-.25v-1.48c0-.14.11-.25.25-.25Z" transform="translate(146.6 12.5) rotate(31.02)"/>
                        <path class="cls-19" d="m58.93,269.46s-.08-.06-.11-.09c-1.58-1.65-3.51-3.5-4.86-8.38-.21-.77-.13-.26-.24-.92-.28-1.63.09-1.72.37-1.77.3-.05.55.06.84,1.7.1.59,0,0,.19.67,1.29,4.62,2.75,5.93,4.57,7.87.23.24.22.62-.02.85-.2.19-.51.22-.73.07Z"/>
                        <path class="cls-2" d="m57.64,265.88s-1.48-1.38-2.77-.23"/>
                        <path class="cls-2" d="m56.75,264.06s-1.48-1.38-2.77-.23"/>
                      </g>
                    </g>
                  </g>
                </g>
                <g>
                  <path class="cls-21" d="m52.8,70.03l15-5.32,10.29,4.73,3.29,2.22c-2.3,2.18-2.88,4.54-2.23,8.5.67,4.1.22,7.32-1.07,11.26-1.86,5.71-2.6,10.83-2,16.81.17,1.67.83,3.19,1.82,4.51l-24.53.39c-1.46-4.14-3.25-7.05-4.38-15.98-1.21-9.6-4.04-24.24-4.04-24.24l7.84-2.88Z"/>
                  <g>
                    <path class="cls-21" d="m61.09,70.4c0,.06,0,.12,0,.19.07,3.7,3.29,6.64,7.19,6.57,3.9-.07,7-3.12,6.93-6.82,0-.06-.01-.13-.01-.19h.01s-.02-.07-.02-.07c-.03-.56-2-13.26-2-13.26h0s-10.6.18-10.6.18c0,0-1.48,12.68-1.5,13.32v.08s0,0,0,0Z"/>
                    <path class="cls-20" d="m62.59,57c.05,2.77,2.47,4.98,5.4,4.93,2.93-.05,5.26-2.34,5.21-5.11h0c0-.42-.07-.83-.18-1.21-.61-2.18-2.73-3.77-5.22-3.72-2.62.05-4.76,1.88-5.14,4.25-.05.28-.07.57-.06.86Z"/>
                    <path class="cls-20" d="m62.23,60.05c2,2.54,5.45,4.48,8.81,4.43l3.32-.05s-1.24-8.43-1.35-8.81l-10.36.53c-.05.28-.42,3.91-.42,3.91Z"/>
                  </g>
                  <polygon class="cls-14" points="87.96 127.09 86.57 115.01 49.33 115.6 49.03 127.71 87.96 127.09"/>
                  <path class="cls-14" d="m57.55,67.83l14.54,5.43,5.5-4.49,10.25,4.13s1.61,11.29.77,21.5c-.47,5.77-2.04,20.6-2.04,20.6l-37.24.59s-.22-3.87-1.4-8.92c-.96-4.07-2.85-8.91-3.38-13.14-1.28-10.17-2.46-19.61-2.46-19.61l15.47-6.1Z"/>
                  <path class="cls-24" d="m46.38,123.18c-.1.09-.17.15-.19.17.05-.06.11-.12.19-.17Z"/>
                  <path class="cls-24" d="m53.81,122.03h.28c-.08,0-.18,0-.28,0Z"/>
                </g>
                <path class="cls-19" d="m48.71,137.76c-1.15,8.38,5.55,15.9,14,16.37,2.15.12,12.03.07,14.55-.2,8.15-.89,14.26-8.53,12.97-16.62-.19-1.2-2.23-10.22-2.23-10.22l-37.4.63s-1.53,7.42-1.89,10.05Z"/>
                <g>
                  <path class="cls-21" d="m74.36,137.09h0c.37-.71,1.04-1.2,1.82-1.34l2.22-.39c1.84-1.13,2.41-2.65,3.37-3.05.96-.39,2.27-1.82,2.27-1.82,1.26,1.18-.18,3.11-.18,3.11.13-.06.26-.12.4-.19.33-.15.65-.31.98-.46.42-.19.83-.39,1.25-.58.4-.18.8-.38,1.21-.56.31-.14.63-.28.96-.38.34-.1.69-.11,1.05-.12.45-.02,2.88.24,3.27.23.18,0,.57-.01.57-.01.27.39.41.85.29,1.29-.21.79-1.23,1.02-1.77,1.06-.4.03-.96-.03-1.37-.07-.35-.04-.28-.12-.83.07-.31.11-.6.3-.9.44-.52.26-1.05.5-1.56.77-.28.15-.58.3-.87.44,0,0,3.52-.2,4.64-.15.84.03,3.56,1.63,3.56,1.63,1.96,1.14-.4,2.33-.4,2.33.16.11.39.31.44.53.04.18-.05.35-.13.48-.15.24-.37.38-.59.52-.41.25-.86.42-1.36.41-.14,0-.27-.02-.41-.04-.13-.02-.27-.05-.4-.08-.17-.04-.34-.08-.51-.13-.52-.15-1.04-.29-1.55-.51-.06-.03-.21-.13-.28-.12,0,0-2.65.48-2.65.48,1,.27,2.29,1.65,3.66,2.09.21.07.42.15.61.27.18.12.39.3.42.55.03.23-.17.35-.31.45-.46.32-1,.44-1.57.45-.29,0-.59-.04-.88-.12-.21-.05-.43-.13-.63-.23-.09-.04-.18-.08-.27-.14-2.01-1.38-4-1.84-5.98-.12-2.86,2.47-6.6-1.78-6.6-1.78l-1.15-3.17c-.24-.67-.19-1.41.13-2.04Z"/>
                  <circle class="cls-13" cx="46.21" cy="81.87" r="8.9"/>
                  <path class="cls-13" d="m37.36,82.88s5.93,38.41,9.15,42.92l9.86-5.79c-.9-2.4-1.27-38.69-1.27-38.69l-17.74,1.55Z"/>
                  <path class="cls-13" d="m79.14,134.17l-4.41,8.05s-24.13-10.38-27.76-16.03l9-9.81c1.88.51,23.12,17.77,23.17,17.79Z"/>
                  <circle class="cls-13" cx="51.33" cy="121.27" r="6.78"/>
                </g>
                <g>
                  <path class="cls-19" d="m57.09,35.82c-.16-1.87-.2-3.77-.19-5.66.01-1.44-.12-3.73,1.64-4.25.63-.19,1.16-.32,1.69-.75.46-.37.85-.83,1.37-1.13.94-.55,2.21.05,3.19-.41.38-.18.68-.5,1.05-.7,1.08-.59,2.39-.01,3.62.01,1.43.03,2.89-.7,4.24-.24.88.3,1.58,1.07,2.5,1.2.45.06.91-.03,1.34.09.87.25,1.29,1.27,2.1,1.66.39.19.85.22,1.22.46.44.28.67.8.85,1.29,1.17,3.16,1.04,6.51.77,9.84-.37,4.48-.81,9.91-3.96,13.46-3.54,3.98-10.25,3.88-14.34.56-4.92-3.99-6.61-9.56-7.11-15.43Z"/>
                  <g>
                    <circle class="cls-8" cx="72.1" cy="53.7" r="5.26"/>
                    <path class="cls-21" d="m57.9,39.43c0,.54.05,1.06.13,1.57.02.13.04.26.06.39.05.26.1.51.17.77.03.13.07.27.11.4.05.18.1.35.16.53,0,0,1.21,8.19,1.36,8.94.5,2.44,5.69,7.92,9.98,8.88.91.2,1.72.25,2.6-.04,3.75-1.24,7.43-6.73,7.85-9.18.13-.75,1.06-8.98,1.06-8.98h0c.04-.14.08-.29.12-.44.04-.13.07-.26.1-.39.07-.29.12-.59.16-.89.02-.13.04-.26.05-.4.1-.83.11-1.69.02-2.57-.59-6.03-5.59-10.72-11.59-10.89-6.87-.19-12.45,5.43-12.33,12.3Z"/>
                    <path class="cls-19" d="m81.34,40.38c.1.02.16-.11.09-.19-.41-.48-1.35-1.45-2.47-1.66s-2.81-.08-3.67.01c-.44.04-.77.46-.77.96,0,0,0,.01,0,.02,0,.4.23.57.43.65.14.06.3.06.45.04.62-.11,3.14-.56,3.6-.43.4.11,1.73.45,2.34.61Z"/>
                    <path class="cls-19" d="m62.82,40.69c-.1.03-.17-.11-.1-.19.39-.49,1.3-1.49,2.42-1.74s2.81-.17,3.66-.11c.44.03.79.43.8.93,0,0,0,.01,0,.02,0,.4-.21.58-.41.66-.14.06-.29.07-.44.05-.62-.09-3.16-.45-3.62-.31-.4.13-1.71.51-2.31.68Z"/>
                    <g>
                      <ellipse class="cls-19" cx="77.38" cy="43.58" rx="1.12" ry="1.59" transform="translate(-.72 1.31) rotate(-.97)"/>
                      <path class="cls-19" d="m76.24,42.61c.18-1.33,2.36-1.49,2.7-.19-1.08-.05-1.55,0-2.7.19h0Z"/>
                      <ellipse class="cls-19" cx="66.21" cy="43.76" rx="1.12" ry="1.59" transform="translate(-.73 1.12) rotate(-.97)"/>
                      <path class="cls-19" d="m67.32,42.76c-1.15-.15-1.63-.18-2.7-.09.3-1.31,2.47-1.23,2.7.09h0Z"/>
                    </g>
                    <path class="cls-9" d="m75.92,51.89s-1.16,1.58-3.04,2.03c-.65.16-1.33.17-1.99.03-1.9-.39-3.13-1.97-3.13-1.97.05.01,0,0,.05.01,0,0,2.36.02,4.06-.02s4.08-.1,4.05-.09-.03,0,0,0Z"/>
                    <path class="cls-21" d="m58.52,42.91s-4.32-1.03-3.29,2.92c1.23,4.74,4.58,4.12,4.58,4.12l-1.29-7.04Z"/>
                    <path class="cls-21" d="m81.02,42.65s4.6-1.3,3.71,2.69c-1.07,4.77-4.37,4.29-4.37,4.29l.66-6.97Z"/>
                    <path class="cls-3" d="m69.96,48.74s1.35,1.26,1.94,1.25,1.94-1.32,1.94-1.32"/>
                  </g>
                  <path class="cls-19" d="m79.28,33.73c.66.35,1.35.23,1.33-.73-.03-1.18-1-2.82-1.83-3.55-1.42-1.24-3.19-1.92-4.99-2.22-2.53-.38-5.67-.53-8.18.08-1.95.47-3.76,1.66-5.22,3.11-.44.44-1.39,1.14-1.62,1.7-.3.74.46,1.7,1.22,1.69.93-.02,1.82-1.02,2.64-.58.17.09.3.23.46.33,1.09.65,2.43-1.05,3.62-.6.4.15.7.52,1.11.59.65.12,1.2-.54,1.85-.63.7-.1,1.34.46,2.05.49,1.12.05,2.16-1.21,3.19-.77.44.19.73.65,1.19.75.36.08.73-.08,1.09-.16.88-.2,1.36.12,2.06.5,0,0,0,0,.01,0Z"/>
                  <path class="cls-5" d="m82.16,30.53c-.18-1.31-.51-2.6-.98-3.83-.21-.56-.51-1.16-1.09-1.39-.17-.07-.34-.09-.5-.12-.18-.03-.34-.06-.49-.13-.26-.13-.43-.4-.61-.69-.06-.09-.12-.18-.18-.27-.65-.94-1.85-1.47-2.98-1.33-.06,0-.13.02-.19.03-.2.03-.4.06-.58.02-.26-.06-.47-.25-.69-.46-.06-.06-.12-.11-.19-.17-.99-.86-2.52-1.06-3.7-.49-.48.23-.9.57-1.31.9-.59.47-1.14.92-1.83,1.04-.84.15-1.62-.13-2.34-.45-.29-.13-.62-.27-.97-.31-1.07-.12-1.95.75-2.37,1.28-.15.19-.3.39-.44.59-.38.52-.74,1.02-1.25,1.37-.12.08-.25.15-.38.23-.25.14-.5.29-.71.5"/>
                  <path class="cls-19" d="m80.49,33.58s-.46,2.01-.15,3.07,1.31,3.75.41,4.47c-.9.72-.19,2.76.14,2.88,0,0-.11-.66.49-1.3l.55-.8s1.06-6.96-1.44-8.32Z"/>
                  <path class="cls-19" d="m59.29,33.56s1.23.8.83,3-1.14,2.73-.9,3.88c.24,1.15.58,2.36-.17,3.28,0,0-.09-.39-.54-.81s-2.13-6.88.77-9.35Z"/>
                </g>
                <g>
                  <path class="cls-21" d="m117.1,79.95s-1.9-6.13-1.05-10.61c0,0,2.5,1.23,3.29-.3.63-1.2,4.97-1.61,7.36,1.08,1.12,1.23,1.23,3.25.37,4.86-.97,1.79-2.61,4.48-4.15,6.31l-5.83-1.34h0Z"/>
                  <g>
                    <ellipse class="cls-21" cx="117.62" cy="69.72" rx="1.61" ry="1.64" transform="translate(23.03 168.44) rotate(-76.88)"/>
                    <path class="cls-21" d="m119.27,66.09s-.3.97-.04,3.77l-3.17-.63s1.2-3.55,1.94-5.9c.15-.45.71-.49.97-.11h0c.41.67.56,1.46.41,2.2l-.11.67h0Z"/>
                  </g>
                  <g>
                    <g>
                      <path class="cls-21" d="m130.59,64.82c.04-.37-.3-.67-.67-.52h0c-.75.22-1.27.82-1.46,1.57-.19.75-.41,1.79-.6,2.84l2.13.49.6-4.37h0Z"/>
                      <circle class="cls-21" cx="128.94" cy="69.01" r="1.08" transform="translate(32.46 178.92) rotate(-76.88)"/>
                    </g>
                    <g>
                      <g>
                        <circle class="cls-21" cx="126.44" cy="73.11" r="1.23"/>
                        <path class="cls-21" d="m129.88,69.61l-2.35,4.18-2.17-1.23s1.38-2.17,2.73-4.18l1.79,1.23h0Z"/>
                      </g>
                      <circle class="cls-21" cx="128.94" cy="69.01" r="1.08" transform="translate(32.46 178.92) rotate(-76.88)"/>
                    </g>
                  </g>
                  <g>
                    <g>
                      <path class="cls-21" d="m127.97,58.21c.07-.34-.26-.67-.6-.56h0c-.75.19-1.31.78-1.49,1.49-.49,1.94-1.27,5.57-1.61,6.87l2.13.6,1.57-8.4h0Z"/>
                      <circle class="cls-21" cx="125.28" cy="66.39" r="1.08" transform="translate(32.18 173.33) rotate(-76.88)"/>
                    </g>
                    <g>
                      <g>
                        <circle class="cls-21" cx="122.74" cy="70.46" r="1.23"/>
                        <path class="cls-21" d="m126.21,66.99l-2.43,4.15-2.13-1.27s1.42-2.13,2.8-4.15l1.76,1.27h0Z"/>
                      </g>
                      <circle class="cls-21" cx="125.28" cy="66.39" r="1.08" transform="translate(32.18 173.33) rotate(-76.88)"/>
                    </g>
                  </g>
                  <g>
                    <g>
                      <path class="cls-21" d="m122.03,65.46l2.13.49,1.08-7.92c.04-.37-.3-.63-.63-.52l-.26.07c-.56.19-.97.63-1.08,1.2-.34,1.76-.93,5.27-1.23,6.69h0Z"/>
                      <circle class="cls-21" cx="123.08" cy="65.75" r="1.08" transform="translate(31.1 170.69) rotate(-76.88)"/>
                    </g>
                    <g>
                      <g>
                        <circle class="cls-21" cx="120.39" cy="69.71" r="1.23"/>
                        <path class="cls-21" d="m124.01,66.39l-2.58,4.03-2.09-1.38s1.49-2.09,2.95-4.03l1.72,1.38h0Z"/>
                      </g>
                      <circle class="cls-21" cx="123.08" cy="65.75" r="1.08" transform="translate(31.1 170.69) rotate(-76.88)"/>
                    </g>
                  </g>
                  <g>
                    <g>
                      <circle class="cls-21" cx="127.6" cy="66.95" r="1.08" transform="translate(33.43 176.02) rotate(-76.88)"/>
                      <g>
                        <g>
                          <circle class="cls-21" cx="125.05" cy="71.02" r="1.23"/>
                          <path class="cls-21" d="m128.57,67.55l-2.43,4.15-2.13-1.27s1.42-2.13,2.8-4.15l1.76,1.27h0Z"/>
                        </g>
                        <circle class="cls-21" cx="127.6" cy="66.95" r="1.08" transform="translate(33.43 176.02) rotate(-76.88)"/>
                      </g>
                    </g>
                    <path class="cls-21" d="m130.14,60.75c.07-.34-.22-.63-.56-.56h0c-.78.19-1.38.75-1.61,1.49-.41,1.42-1.01,3.62-1.38,4.86l2.09.67,1.46-6.46h0Z"/>
                  </g>
                </g>
                <path class="cls-13" d="m109.57,108.55l-6.68-3.84c.09-1.94,12.3-26.44,12.31-26.49l8.82,2.55s-4.87,25.81-9.59,30.59l-4.87-2.8"/>
                <g>
                  <path class="cls-16" d="m152.35,59.01c.43-.89,2.22-2.41,2.93-2.36.82.05,4.15-.12,4.78-.18.86-.08,1.31-.53,1.48-.82.28-.48.23-1.19-.56-1.43-.28-.09-5.57-.23-5.96-.14-.72.18-4.26,1.39-5.01,1.9-1.07.71-1.99,1.89-3.17,3.43-.18.24-3.6,5.91-3.6,7.82s.48,2.91,1.42,3.24c1.22.43,3.09-.64,3.35-.82,1.16-.77,3.13-2.44,3.11-4.2.47-2.17.66-4.3,1.24-6.43Z"/>
                  <path class="cls-16" d="m152.35,59.01c.43-.89,2.22-2.41,2.93-2.36.82.05,4.15-.12,4.78-.18.86-.08,1.31-.53,1.48-.82.28-.48.23-1.19-.56-1.43-.28-.09-5.57-.23-5.96-.14"/>
                  <path class="cls-6" d="m150.28,57.46l4.4-1.05c.85-.26,1.76.15,2.12.96l1.02,1.96c.3.66.16,1.44-.36,1.96l-2.17,2.19c-.44.44-1.16.51-1.63.09-.5-.44-.51-1.2-.05-1.67l1.6-2.06-.12-.27c-.19.21-2.56,1.82-3.47,1.93"/>
                  <path class="cls-16" d="m156.33,60.22s-.78,0-1.11-.38l-.12-.27s.27-.44.12-1.11"/>
                  <path class="cls-6" d="m149.98,58.89l4.82.09c.88.11,1.54.86,1.54,1.75l.12,2.21c0,.73-.45,1.38-1.13,1.64l-2.88,1.09c-.58.22-1.27-.02-1.52-.59-.27-.61.03-1.31.64-1.54l2.31-1.21v-.3c-.26.11-1.54.4-2.41.13"/>
                  <path class="cls-16" d="m149.96,60.87l3.92.97c.73.19,1.2.9,1.1,1.65l-.15,1.88c-.08.61-.54,1.11-1.14,1.25l-2.56.6c-.52.12-1.07-.16-1.22-.67-.16-.54.17-1.1.72-1.23l2.09-.76.03-.25c-.23.06-1.82,0-2.52-.33"/>
                  <path class="cls-16" d="m153.35,65.33s-.56-.36-.63-.78l.03-.25s.4-.19.59-.74"/>
                  <path class="cls-6" d="m150.22,63.97c.7.33,2.3.39,2.52.33l-.03.25-2.09.76c-.54.13-.87.68-.72,1.23.15.51.7.79,1.22.67l2.56-.6c.6-.14,1.06-.64,1.14-1.25l.15-1.88c.1-.75-.37-1.46-1.1-1.65l-3.92-.97"/>
                </g>
              </g>
            </g>
            <g>
              <g>
                <path class="cls-16" d="m188.08,66.1s9.38,9.33,22.9,24.77c1.38,1.58,1.26,4.01-.27,5.55h0c-1.75,1.76-4.35,1.41-6.06-.26-13.02-12.65-24.83-21.75-24.83-21.75l8.27-8.31Z"/>
                <circle class="cls-16" cx="183.94" cy="70.25" r="5.86"/>
                <circle class="cls-16" cx="207.8" cy="93.42" r="4.19"/>
              </g>
              <g>
                <path class="cls-16" d="m211.84,94.41l-1.83,5.46c-.43,1.27-.93,2.52-1.5,3.73-.95,1.99-2,3.92-3.15,5.79l-7.69,12.52-4.36-3.2s1.61-3.48,2.96-7.98c2.25-7.51,5.15-18.14,8.16-20.17l7.43,3.86Z"/>
                <circle class="cls-16" cx="195.05" cy="120.9" r="2.8"/>
              </g>
              <path class="cls-16" d="m195.56,119.11l-1.97-1.05-3,1.37c-2.02.11-3.27-.76-4.22-.55-.95.21-2.72-.19-2.72-.19-.34,1.57,1.79,2.3,1.79,2.3-.13.02-.27.05-.4.07-.33.06-.67.11-1,.17-.42.07-.85.14-1.27.22-.41.07-.82.13-1.23.21-.32.06-.63.12-.94.22-.32.11-.59.29-.88.47-.35.22-2.09,1.72-2.4,1.92-.14.1-.44.29-.44.29,0,.44.13.87.46,1.15.59.49,1.49.13,1.93-.13.32-.19.72-.54,1.02-.79.25-.21.15-.25.68-.39.31-.08.63-.09.94-.14.68-.1,1.36-.2,2.04-.29.16-.02.31-.04.47-.06,0,0-2.81,1.72-3.65,2.35-.63.47-1.88,3.15-1.88,3.15-.91,1.92,1.54,1.58,1.54,1.58-.06.17-.14.45-.06.64.07.16.22.25.35.3.24.11.49.1.73.09.45-.03.89-.14,1.26-.4.1-.07.2-.16.3-.25.09-.09.18-.18.27-.27.11-.12.22-.24.32-.37.32-.39.65-.78.92-1.21.03-.05.09-.21.15-.24,0,0,2.3-1.04,2.3-1.04-.63.74-.89,2.49-1.71,3.56-.12.16-.24.34-.32.54-.07.18-.14.44-.03.64.11.19.32.18.48.18.53,0,1.01-.19,1.45-.49.23-.15.43-.34.61-.56.14-.16.26-.33.37-.51.05-.08.1-.16.14-.25.81-2.14,2.1-3.55,4.54-3.28,3.52.38,4.14-4.88,4.14-4.88l-1.07-4.06Z"/>
            </g>
          </g>
          <g>
            <path class="cls-21" d="m74.36,137.09h0c.37-.71,1.04-1.2,1.82-1.34l2.22-.39c1.84-1.13,2.41-2.65,3.37-3.05.96-.39,2.27-1.82,2.27-1.82,1.26,1.18-.18,3.11-.18,3.11.13-.06.26-.12.4-.19.33-.15.65-.31.98-.46.42-.19.83-.39,1.25-.58.4-.18.8-.38,1.21-.56.31-.14.63-.28.96-.38.34-.1.69-.11,1.05-.12.45-.02,2.88.24,3.27.23.18,0,.57-.01.57-.01.27.39.41.85.29,1.29-.21.79-1.23,1.02-1.77,1.06-.4.03-.96-.03-1.37-.07-.35-.04-.28-.12-.83.07-.31.11-.6.3-.9.44-.52.26-1.05.5-1.56.77-.28.15-.58.3-.87.44,0,0,3.52-.2,4.64-.15.84.03,3.56,1.63,3.56,1.63,1.96,1.14-.4,2.33-.4,2.33.16.11.39.31.44.53.04.18-.05.35-.13.48-.15.24-.37.38-.59.52-.41.25-.86.42-1.36.41-.14,0-.27-.02-.41-.04-.13-.02-.27-.05-.4-.08-.17-.04-.34-.08-.51-.13-.52-.15-1.04-.29-1.55-.51-.06-.03-.21-.13-.28-.12,0,0-2.65.48-2.65.48,1,.27,2.29,1.65,3.66,2.09.21.07.42.15.61.27.18.12.39.3.42.55.03.23-.17.35-.31.45-.46.32-1,.44-1.57.45-.29,0-.59-.04-.88-.12-.21-.05-.43-.13-.63-.23-.09-.04-.18-.08-.27-.14-2.01-1.38-4-1.84-5.98-.12-2.86,2.47-6.6-1.78-6.6-1.78l-1.15-3.17c-.24-.67-.19-1.41.13-2.04Z"/>
            <circle class="cls-13" cx="46.21" cy="81.87" r="8.9"/>
            <path class="cls-13" d="m37.36,82.88s5.93,38.41,9.15,42.92l9.86-5.79c-.9-2.4-1.27-38.69-1.27-38.69l-17.74,1.55Z"/>
            <path class="cls-13" d="m79.14,134.17l-4.41,8.05s-24.13-10.38-27.76-16.03l9-9.81c1.88.51,23.12,17.77,23.17,17.79Z"/>
            <circle class="cls-13" cx="51.33" cy="121.27" r="6.78"/>
          </g>
        </g>
      </g>
    </g>
  </g>
</svg>