<?xml version="1.0" encoding="UTF-8"?>
<svg id="Layer_2" data-name="Layer 2" xmlns="http://www.w3.org/2000/svg" viewBox="0 0 249.09 182.58">
  <defs>
    <style>
      .cls-1 {
        stroke-width: 1.42px;
      }

      .cls-1, .cls-2, .cls-3, .cls-4, .cls-5, .cls-6, .cls-7, .cls-8, .cls-9, .cls-10, .cls-11, .cls-12 {
        stroke-linecap: round;
      }

      .cls-1, .cls-2, .cls-3, .cls-4, .cls-5, .cls-6, .cls-7, .cls-8, .cls-9, .cls-12 {
        stroke-miterlimit: 10;
      }

      .cls-1, .cls-2, .cls-3, .cls-5, .cls-6, .cls-7, .cls-8, .cls-9, .cls-10, .cls-11, .cls-12 {
        fill: none;
      }

      .cls-1, .cls-6 {
        stroke: #444344;
      }

      .cls-2, .cls-5 {
        stroke: #5b5a5d;
      }

      .cls-2, .cls-11 {
        stroke-width: .86px;
      }

      .cls-13 {
        fill: #010101;
      }

      .cls-14 {
        fill: #e9b69b;
      }

      .cls-15 {
        fill: #fff;
      }

      .cls-16 {
        fill: #f1f1f1;
      }

      .cls-17 {
        fill: #ba0c2f;
      }

      .cls-18 {
        fill: #919394;
      }

      .cls-19 {
        fill: #bacc52;
      }

      .cls-20 {
        fill: #b9ad86;
      }

      .cls-21 {
        fill: #a89968;
      }

      .cls-22 {
        fill: #a6a6a9;
      }

      .cls-23 {
        fill: #cccbcb;
      }

      .cls-24 {
        fill: #cbc2a4;
      }

      .cls-25, .cls-4 {
        fill: #d1d2d2;
      }

      .cls-26 {
        fill: #172d4c;
      }

      .cls-27 {
        fill: #244a87;
      }

      .cls-28 {
        fill: #221f20;
      }

      .cls-29 {
        fill: #444344;
      }

      .cls-30 {
        fill: #6e6f72;
      }

      .cls-31 {
        fill: #808082;
      }

      .cls-32 {
        fill: #5b5a5d;
      }

      .cls-33 {
        fill: #2e6755;
      }

      .cls-34 {
        fill: #4e85c2;
      }

      .cls-35 {
        fill: #4ea887;
      }

      .cls-3 {
        stroke-width: 1.3px;
      }

      .cls-3, .cls-12 {
        stroke: #2d2d2c;
      }

      .cls-4, .cls-8, .cls-9 {
        stroke: #919394;
      }

      .cls-4, .cls-9 {
        stroke-width: .98px;
      }

      .cls-5, .cls-6, .cls-7, .cls-8, .cls-10 {
        stroke-width: .95px;
      }

      .cls-7 {
        stroke: #181818;
      }

      .cls-36 {
        opacity: .5;
      }

      .cls-36, .cls-37 {
        fill: #ef3340;
        isolation: isolate;
      }

      .cls-37 {
        opacity: .6;
      }

      .cls-10, .cls-11 {
        stroke: #010101;
        stroke-linejoin: round;
      }

      .cls-12 {
        stroke-width: 1.31px;
      }
    </style>
  </defs>
  <g id="Content">
    <g>
      <rect class="cls-16" x="41.32" width="168.91" height="133.02" rx="27.82" ry="27.82"/>
      <g>
        <g>
          <g>
            <path class="cls-21" d="m218.21,133.7s-.04,0,0,0c-.15.15-.62.55-1.28,1.1-2.53,2.12-8.17,6.81-11.76,8.94-.51.33-1.06.62-1.65.88-1.76.84-3.7,1.47-5.79,1.72-.22.04-.62.04-1.06.04h-.51c-.44,0-.84-.04-1.06-.04-2.09-.22-4.03-.84-5.79-1.72-.55-.29-1.1-.59-1.65-.88-3.59-2.16-9.23-6.81-11.76-8.94-.66-.55-1.14-.95-1.25-1.06l-.04-.04.7-6.56.55-5.35,1.28-12.27.26-2.31h38.03l.26,2.53h0l1.28,12.05.55,5.35.7,6.56h0Z"/>
            <g>
              <path class="cls-21" d="m196.05,134.65c0,.88-.11,1.72-.29,2.53,0,.07-.04.11-.04.18-1.14,4.47-5.09,7.8-9.82,8.02h-.55c-5.93,0-10.73-4.8-10.73-10.73h0c0-1.28.22-2.56.66-3.7h0c1.5-4.1,5.46-7.03,10.07-7.03,5.9,0,10.7,4.8,10.7,10.73h0Z"/>
              <path class="cls-21" d="m196.71,134.65c0,.88.11,1.72.29,2.53,0,.07.04.11.04.18,1.14,4.47,5.09,7.8,9.82,8.02h.55c5.93,0,10.73-4.8,10.73-10.73h0c0-1.28-.22-2.56-.66-3.7h0c-1.5-4.1-5.46-7.03-10.07-7.03-5.86,0-10.7,4.8-10.7,10.73h0Z"/>
            </g>
            <path class="cls-25" d="m219.16,74.79l-3.74,31.98h0l-.04.4h-38.03l-.04-.29h0l-3.92-32.06,6.74-3.63,8.13-4.36.92-.48h0l3.11-1.69,2.31-1.25.66-.37,1.21-.66,1.21.66.55.29.11.07,5.13,2.78.84.44,7.99,4.36,6.85,3.77h0Z"/>
            <circle class="cls-25" cx="196.38" cy="109.74" r="19.27"/>
            <g>
              <path class="cls-25" d="m203.96,69.04c0,4.29-3.41,7.77-7.62,7.77s-7.62-3.48-7.58-7.8c0-.07.73-4.32.73-4.32l1.06-6.08.11-.73h11.43l.18,1.17.15.88s1.54,9.05,1.54,9.12h0Z"/>
              <path class="cls-25" d="m202.06,57.91c0,3.22-2.56,5.82-5.71,5.82s-5.71-2.6-5.71-5.86h0c0-.48.07-.95.18-1.39.62-2.56,2.86-4.43,5.57-4.43s5.17,2.09,5.61,4.84c.07.37.07.7.07,1.03h0Z"/>
              <path class="cls-22" d="m202.42,59.92c-2.12,3-5.5,4.76-9.12,4.76h-3.85l1.06-6.08.11-.73h0c0-.48.07-.95.18-1.39l11.17.4c.07.33.07.66.07.99l.18,1.17.18.88h0Z"/>
            </g>
            <path class="cls-32" d="m206.34,48.34c-.48-.15-2.93-1.69-3.19-5.09s-3.48-4.07-3.48-4.07c0,0-.29,0-1.06-.04h-2.2c-.51,0-1.06,0-1.69.04h-.18c-3.55.11-4.84,1.1-5.06,4.25,0,.29-.04.55-.07.81-.44,2.86-2.12,5.17-2.12,5.17,0,0-2.01-1.94-2.6-4.29-1.43-5.64,3.33-8.21,3.33-8.21,3.88-8.57,9.96-3.41,9.96-3.41,4.54-.07,4.18,3.26,4.18,3.26,0,0,3-1.21,4.18.95,1.14,2.23,0,10.62,0,10.62h0Z"/>
            <g>
              <path class="cls-32" d="m183.23,42.3s-3.96,5.31.99,7.66l1.72,2.75,22.27-5.64c.07-.99-.66-2.42-1.65-2.53l-23.34-2.23h0Z"/>
              <g>
                <path class="cls-25" d="m206.71,44.02c0,.48,0,.92-.07,1.39,0,.11-.04.22-.04.33-.04.22-.07.44-.11.7-.04.11-.04.22-.07.37-.04.15-.07.33-.11.48,0,0-.84,8.83-.95,9.49-.37,2.16-5.97,5.39-7.69,6.37-.7.4-1.58.44-2.27.04-1.72-.95-7.47-4.03-7.91-6.15-.15-.66-1.17-9.45-1.17-9.45h0c-.04-.11-.07-.26-.11-.37s-.07-.22-.11-.33c-.07-.26-.11-.51-.18-.77,0-.11-.04-.22-.07-.33-.11-.73-.15-1.47-.07-2.23.37-5.28,4.58-9.52,9.82-9.85,6.01-.4,11.06,4.36,11.14,10.33h0Z"/>
                <path class="cls-29" d="m187.88,45.49c-.07.04-.15-.07-.07-.18.33-.44,1.14-1.32,2.12-1.5.95-.22,2.45-.15,3.19-.07.37.04.7.37.7.81h0c0,.37-.18.51-.37.59-.11.04-.26.07-.4.04-.55-.07-2.75-.4-3.15-.29-.37.15-1.5.48-2.01.62h0Z"/>
                <path class="cls-29" d="m204.03,45.23c.07.04.15-.11.07-.18-.37-.4-1.17-1.28-2.16-1.47-.95-.18-2.45-.07-3.22,0-.37.04-.66.4-.66.84h0c0,.37.18.51.37.55.11.04.26.04.4.04.55-.11,2.75-.48,3.15-.37.37.18,1.54.48,2.05.59h0Z"/>
                <g>
                  <ellipse class="cls-13" cx="191.44" cy="48.16" rx=".99" ry="1.39" transform="translate(-.71 2.91) rotate(-.87)"/>
                  <path class="cls-13" d="m192.38,47.32c-.81-.4-1.54-.44-2.38-.07.51-.88,1.9-.81,2.38.07h0Z"/>
                  <ellipse class="cls-13" cx="201.18" cy="48.02" rx=".99" ry="1.39" transform="translate(-.71 3.06) rotate(-.87)"/>
                  <path class="cls-13" d="m200.19,47.17c.44-.88,1.83-.99,2.34-.15-.81-.33-1.54-.29-2.34.15h0Z"/>
                </g>
                <line class="cls-9" x1="196.01" y1="45.38" x2="195.35" y2="51.82"/>
                <path class="cls-25" d="m206.27,47.1s3.74-1.03,2.97,2.45c-.95,4.18-3.88,3.74-3.88,3.74l.92-6.19h0Z"/>
                <path class="cls-25" d="m186.6,47.5s-4.07-.99-3.15,2.45c1.06,4.14,3.96,3.63,3.96,3.63l-.81-6.08h0Z"/>
                <path class="cls-4" d="m198.06,52.48s-1.14,1.14-1.65,1.14-1.72-1.1-1.72-1.1"/>
                <path class="cls-22" d="m194.73,55.89l-2.75-.26c.62,1.1,1.72,2.53,2.67,2.93,1.06.48,2.31.48,3.37,0,.95-.4,2.05-1.83,2.67-2.93l-2.75.26c-1.06.11-2.16.11-3.22,0h0Z"/>
                <path class="cls-22" d="m191.98,55.63c2.01,1.17,4.36,1.06,4.36,1.06,0,0,2.34.11,4.36-1.06h-8.72Z"/>
                <path class="cls-15" d="m192.57,55.93s1.47,1.69,3,2.01c.51.11,1.06.11,1.58,0,1.5-.33,3-2.01,3-2.01-2.05.59-5.57.59-7.58,0h0Z"/>
              </g>
              <path class="cls-32" d="m207.66,46.04c-.55-.15-3.3-1.87-3.66-5.64-.37-3.81-3.96-4.51-3.96-4.51h-1.21c-.59,0-1.39,0-2.45.04-.55,0-1.17.04-1.9.07h-.18c-3.96.18-5.42,1.32-5.57,4.84,0,.33-.04.62-.07.92-.44,3.19-2.31,5.86-2.31,5.86,0,0-2.31-2.16-3-4.76-1.72-6.3,3.59-9.27,3.59-9.27,4.21-9.67,11.14-3.99,11.14-3.99,5.09-.15,4.76,3.59,4.76,3.59,0,0,3.37-1.43,4.69.99,1.28,2.38.11,11.87.15,11.87h0Z"/>
              <path class="cls-13" d="m194.29,35.96c-3.96.18-5.42,1.32-5.57,4.84,0,.33-.04.62-.07.92-.37-1.76-1.43-8.24,2.6-8.39-.04-.04,2.64,0,3.04,2.64Z"/>
              <path class="cls-13" d="m198.83,35.85c-.59,0-1.39,0-2.45.04.48-.66,1.72-2.56,1.21-3.99,0,0,1.58.84,1.25,3.96Z"/>
              <path class="cls-13" d="m200,35.85s3.74.11,4.14,3.77.99,4.14.99,4.14c0,0-2.12-1.98-2.42-4.62-.29-2.64-2.71-3.3-2.71-3.3Z"/>
            </g>
          </g>
          <g>
            <path class="cls-27" d="m168.13,80.51s-4.21,26.52-5.35,30.92l13.04,3.11c.62-2.23,7.58-29.64,7.58-29.64l-15.28-4.4h0Z"/>
            <path class="cls-27" d="m163.33,144.88l-7.25-1.54s.48-3,.92-4.69c.11-.44.26-.99.4-1.54h0v-.07c.66-2.56,1.47-6.04,2.2-9.74,1.06-5.42,1.76-11.25,3.15-15.9l13.04,3.11c.11,1.83-12.46,30.33-12.46,30.37h0Z"/>
            <circle class="cls-25" cx="175.82" cy="82.49" r="8.02"/>
            <circle class="cls-27" cx="169.52" cy="112.6" r="6.81"/>
            <g id="Scene1_2-11" data-name="Scene1 2-11">
              <g id="Hand-11">
                <circle class="cls-25" cx="160" cy="143.12" r="3.77"/>
              </g>
            </g>
            <g>
              <path class="cls-18" d="m158.2,157.19c2.23.66,5.24-1.21,5.39,1.61-1.87.59-4.91.81-7.4-.11l2.01-1.5Z"/>
              <path class="cls-18" d="m159.27,159.09c2.78,1.1,6.3-.92,6.15,2.71-2.45.55-5.82.44-8.9-1.03l2.75-1.69Z"/>
              <path class="cls-22" d="m160.55,160.63c2.67,1.32,7.11-.55,6.67,3.04-2.49.37-6.59.11-9.56-1.58l2.89-1.47h0Z"/>
              <path class="cls-25" d="m162.64,143.3l-.48,10.92c-1.76,1.98-2.2,4.54-.99,7.84,3.08,1.58,6.34,1.69,5.61,4.1-2.49.22-6.19-.44-9.05-2.31l-3.63-8.5c.15-4.25.95-8.46,2.16-11.94l6.37-.11h0Z"/>
              <path class="cls-22" d="m157.76,163.85c-.07,0-.7-1.58-1.21-3.55-.48-1.98-.84-3.59-.77-3.63s.55,1.58,1.03,3.55c.51,2.01,1.03,3.63.95,3.63h0Z"/>
              <path class="cls-25" d="m161.98,154.25c1.65,1.47.88,2.09,1.43,4.73.84,3.85,3.48,3.44,3.81,2.49.33-.95-.99-6.74-.99-6.74-1.03-3.88-.29-8.02-3.63-11.43-1.83,2.34-.62,6.7-.62,10.95h0Z"/>
            </g>
          </g>
          <circle class="cls-25" cx="216.67" cy="82.49" r="8.02"/>
          <g>
            <path class="cls-12" d="m182.42,125.13s-1.5,15.09-9.23,18.5"/>
            <path class="cls-3" d="m195.68,142.06c0,.73.62,1.32,1.36,1.32h.55"/>
          </g>
          <path class="cls-24" d="m213.92,101.35v27.66h-35.35v-27.66l1.58-30.11,8.13-4.36c.18.22.44.44.7.73,1.54,1.47,4.07,3.3,7.25,3.55,3.33-.26,5.93-2.27,7.44-3.74.26-.26.48-.48.66-.7l7.99,4.36,1.61,30.26h0Z"/>
          <g>
            <path class="cls-21" d="m166.26,80.14l-6.48,42.57,13.23,2.05c.33-1.72,4.65-14.65,4.76-15.17l5.82-22.82-17.33-6.63h0Z"/>
            <circle class="cls-27" cx="174.95" cy="83.48" r="9.31"/>
            <circle class="cls-21" cx="166.56" cy="123.19" r="6.63"/>
            <path class="cls-27" d="m159.78,122.71s-1.69,10.51-4.69,19.23c0,0,6.52,3.15,10.26,2.34,0,0,6.67-15.28,7.69-19.56l-13.26-2.01h0Z"/>
            <path class="cls-34" d="m154.58,138.72s7.69.37,12.86,3.15l-1.54,5.9s-8.24-2.12-12.6-2.64l1.28-6.41h0Z"/>
            <path class="cls-13" d="m158.09,142.27c0,.59-.48,1.06-1.06,1.06s-1.06-.48-1.06-1.06.48-1.06,1.06-1.06,1.06.48,1.06,1.06Z"/>
          </g>
          <path class="cls-21" d="m225.68,79.45l16.05,30.48-10.7,7.55c-.81-1.58-21.36-28.9-21.36-28.9l16.01-9.12h0Z"/>
          <circle class="cls-21" cx="217.08" cy="83.04" r="9.31"/>
          <g>
            <path class="cls-20" d="m189.16,66.37s-9.38,4.58-17.47,8.39c0,0,3.63,9.89,4.54,19.45,0,0,.22,7.58-.15,12.16-.37,4.62-1.65,21.69-1.65,21.69,0,0,3.48,4.47,7.58,5.31s9.45,1.03,9.45,1.03c0,0,2.05-3.81,2.05-4.8s0-38.1.22-40.74c.22-2.64.26-8.72.26-13.01,0,0-11.06-3.55-4.84-9.49h0Z"/>
            <g>
              <path class="cls-21" d="m190.26,89.7l-.33,6.63s-.77,3-6.12,2.75c-5.35-.26-5.79-3.37-5.79-3.37l.33-6.63"/>
              <path class="cls-24" d="m190.3,88.5l-.07,1.21c-.07,1.17-1.06,2.12-2.27,2.05l-7.62-.37c-1.17-.07-2.12-1.06-2.05-2.27l.07-1.21"/>
            </g>
            <path class="cls-21" d="m194,75.86s-4.73,1.1-6.15,2.49-4.18,2.89-4.18,2.89c0,0-.18-2.38-.33-4.91s-1.1-4.07.66-6.04c1.76-2.01,2.56-3.55,5.17-3.92,0,0-2.05,1.61-1.54,4.1.55,2.49,5.2,4.1,6.37,5.39h0Z"/>
          </g>
          <g>
            <path class="cls-20" d="m203.59,66.37s9.38,4.58,17.47,8.39c0,0-3.63,9.89-4.54,19.45,0,0-.22,7.58.15,12.16.37,4.62,1.76,21.61,1.76,21.61,0,0-3.63,4.54-7.73,5.39s-9.45,1.03-9.45,1.03c0,0-2.05-3.81-2.05-4.8s0-38.1-.22-40.74-.26-8.72-.26-13.01c.07,0,11.1-3.55,4.87-9.49h0Z"/>
            <g>
              <path class="cls-21" d="m202.53,89.7l.33,6.63s.77,3,6.12,2.75c5.35-.26,5.79-3.37,5.79-3.37l-.33-6.63"/>
              <path class="cls-24" d="m202.46,88.5l.07,1.21c.07,1.17,1.06,2.12,2.27,2.05l7.62-.37c1.17-.07,2.12-1.06,2.05-2.27l-.07-1.21"/>
            </g>
            <path class="cls-21" d="m198.79,75.86s4.73,1.1,6.15,2.49,4.18,2.89,4.18,2.89c0,0,.18-2.38.33-4.91.15-2.53,1.1-4.07-.66-6.04-1.76-2.01-2.67-3.66-5.31-4.03,0,0,2.16,1.72,1.65,4.21s-5.17,4.1-6.34,5.39h0Z"/>
          </g>
          <g>
            <g>
              <g id="Scene1_2-12" data-name="Scene1 2-12">
                <g id="Hand-12">
                  <circle class="cls-25" cx="219.64" cy="94.54" r="3.77"/>
                </g>
              </g>
              <circle class="cls-21" cx="235.72" cy="112.78" r="6.63"/>
              <path class="cls-21" d="m231,117.47s-9.45-12.64-15.97-19.16c0,0,4.51-5.68,8.24-6.56,0,0,14.84,13.44,17.58,16.85l-9.85,8.87h0Z"/>
            </g>
            <g>
              <path class="cls-23" d="m207.4,83.99c.81.15,2.23.11,4.58.81,2.53.73,3.22.92,5.68,1.61.84.26,3.22,2.2,5.02,4.18,1.47,1.61,1.58,4.1.29,5.86l-.15.18c-1.25,1.65-3.41,2.12-5.24,1.21-.95-.48-1.87-.62-2.42-.59-.73.04-.66.37-2.93.33-3.55-.07-6.59-.88-6.59-.88"/>
              <path class="cls-23" d="m211.8,84.94c.07-1.61.07-3.48-.22-4.87-.29-1.43-.33-2.78.4-3.96.37-.59.77-.59,1.21-.48.66.18.66.7.77,1.28.04.22-.04,1.83,1.17,3.66.33.51.99,2.86,2.05,4.4.84,1.17.88,1.9,1.5,2.01"/>
              <path class="cls-23" d="m209.13,87.76c-1.25-.11-2.2-.37-3.37-.59,0,0-1.61-.44-1.36-2.01,0,0,.26-1.43,2.23-1.21,0,0,2.75.29,3,.33"/>
              <path class="cls-23" d="m207.26,93.84l-1.72-.15s-1.43,0-1.43,1.39c0,.92.59,1.32,1.03,1.47.29.11,2.12.48,2.12.48"/>
              <path class="cls-23" d="m208.14,90.62l-3.19-.37s-1.58-.15-1.69,1.43c-.11,1.69,1.65,1.87,1.65,1.87,0,0,2.42.37,2.93.4"/>
              <path class="cls-23" d="m209.13,87.76l-4.25-.73s-1.72-.22-1.94,1.32c-.26,1.61,1.65,1.87,1.65,1.87,0,0,3.15.37,3.52.4"/>
            </g>
            <g>
              <path class="cls-24" d="m223.34,88.86s-6.26,4.47-9.09,9.67l4.51,4.1s5.75-6.26,9.12-9.09l-4.54-4.69Z"/>
              <path class="cls-13" d="m222.35,93.73c.33.48.99.62,1.47.29s.62-.99.29-1.47-.99-.62-1.47-.29-.62.99-.29,1.47Z"/>
            </g>
          </g>
        </g>
        <g>
          <path class="cls-13" d="m38.61,78.71c1.54.11,3.08.07,4.62-.11.51-.07,1.06-.11,1.54-.33.11-.04,1.32-.92,1.17-1.03.44.29,1.1.48,1.61.29s.7-.77,1.28-.92c.48-.11.88.07,1.39-.07.66-.22,1.21-.51,1.94-.51.77,0,1.72.15,2.23-.44.55-.59.48-1.8,1.25-2.01.37-.11.81.07,1.14-.11.84-.4.15-1.87.77-2.56.22-.26.62-.37.88-.59.77-.7.04-2.01.4-3,.22-.59.81-.99,1.03-1.58.51-1.28-.84-2.78-.26-4.07.18-.37.48-.62.73-.95.44-.62.55-1.47.26-2.2-.33-.81-1.06-1.43-1.17-2.27-.07-.44.04-.92.07-1.36.07-1.17-.55-2.34-1.58-2.97-.81-.48-1.87-.73-2.16-1.61-.07-.18-.07-.4-.11-.62-.22-.88-1.14-1.36-1.98-1.72-.44-.18-.92-.4-1.25-.73-.26-.22-.44-.51-.7-.77-1.06-1.06-2.89-1.25-4.1-.4-.44-.66-.73-1.36-1.25-1.9-.51-.55-1.06-1.1-1.72-1.5-.95-.59-2.2-.77-3.19-.26-.29.15-.55.37-.88.48-1.32.48-2.82-1.06-4.07-.4-.26.15-.48.37-.73.55-.7.48-1.65.44-2.49.48s-1.83.33-2.16,1.14c-.15.37-.15.77-.26,1.14-.55,1.43-2.97,1.32-3.44,2.75-.18.51-.04,1.1-.18,1.61-.44,1.25-2.45,1.5-2.67,2.78-.11.66.33,1.32.11,1.94-.26.88-1.5,1.06-1.9,1.87-.48.99.48,2.09.44,3.19-.07,1.14-1.21,2.01-1.14,3.15.07,1.21,1.5,1.94,1.8,3.11.15.66-.07,1.28-.15,1.94s-.04,1.43.51,1.8c.29.18.62.26.95.4.66.26,1.14.81,1.32,1.47.11.4.11.84.33,1.21.59.95,2.05.51,3.08.95.66.29,1.06.92,1.58,1.39.59.55,1.14,1.17,1.69,1.72.73.7,1.43.84,2.34,1.06,1.06.29,2.05.51,3.08.59h0Z"/>
          <path class="cls-26" d="m32.57,73.18c.55.55,1.28.95,1.9,1.43.55.44,1.03,1.03,1.69,1.28.55.26,1.14.26,1.76.26,1.54,0,2.86-.81,4.4-.81.73,0,1.43.18,2.16.26,1.72.26,3.52.11,5.06-.66.37-.18.77-.44.95-.81.22-.48.04-1.06.07-1.61.07-.7.51-1.36.4-2.05-.11-.92-1.14-1.54-1.36-2.45-.18-.73.18-1.47.48-2.2.07-.18.15-.4,0-.51-.07-.07-.18-.11-.29-.11-.84-.15-1.76-.33-2.56-.7-.51-.26-.95-.59-1.54-.77-1.36-.48-2.82-.66-4.25-.62-1.61.04-3.22.48-4.84.48-1.69.04-3.52-.26-5.13.48.15,1.25-1.06,2.38-.81,3.63.15.7.73,1.25.95,1.94.29.88,0,1.87.33,2.75.18.29.37.55.62.81h0Z"/>
          <path class="cls-29" d="m48.28,48.82c.29,0,.59.04.84.11.29.07.55.22.77.37.48.33.88.81,1.06,1.36.11.29.15.55.26.81s.29.44.51.62c.22.18.44.33.7.51.22.18.48.37.66.59s.33.51.44.77.15.59.15.88,0,.59.04.84c.04.15.04.26.11.4.04.11.11.26.18.37.15.22.29.48.48.7s.33.44.51.7.33.51.4.77c.11.29.18.59.15.92,0,.07-.04.15-.04.22-.04.07-.04.15-.07.22-.04.15-.11.26-.15.4-.04.15-.04.26-.04.37s.04.26.07.37c.11.26.26.48.44.7s.33.48.48.73c.07.15.11.29.15.44.04.15,0,.33-.04.48l-.04.11-.04.11-.11.22c-.07.15-.15.26-.26.37-.18.22-.37.44-.51.66s-.29.48-.29.73c-.04.26.04.55.11.81.07.29.15.55.11.88,0,.15-.07.29-.15.44-.07.15-.18.26-.29.33-.22.18-.48.33-.7.51-.11.07-.18.18-.26.33-.04.11-.07.26-.11.4-.04.29.04.55,0,.84s-.15.55-.37.77c-.18.22-.44.37-.73.44.29-.07.51-.26.7-.48.18-.22.29-.48.33-.77.04-.29-.04-.55-.04-.84,0-.15.04-.29.07-.44.07-.15.15-.26.26-.37.22-.22.48-.37.66-.55.11-.07.18-.18.26-.29s.11-.22.11-.37c0-.26-.07-.55-.15-.81-.04-.15-.07-.29-.11-.44s-.04-.29-.04-.44v-.11s0-.07.04-.11c.04-.07.04-.15.07-.22l.04-.11.04-.11c.04-.07.07-.15.11-.18.15-.26.37-.48.51-.7.07-.11.15-.22.22-.33.04-.07.07-.11.07-.18l.04-.07.04-.07c.04-.11.04-.26,0-.37s-.07-.26-.11-.37c-.11-.26-.29-.48-.44-.7s-.33-.48-.48-.77c-.07-.15-.11-.29-.11-.44s0-.33.04-.48.11-.29.15-.4c.04-.15.07-.26.07-.37.04-.26-.04-.51-.11-.77-.11-.26-.22-.51-.4-.73-.29-.44-.7-.88-.99-1.43-.07-.15-.15-.26-.18-.4s-.07-.29-.11-.44c-.04-.29-.04-.59-.04-.88s-.04-.55-.11-.81-.22-.51-.37-.7c-.18-.22-.4-.4-.62-.55s-.48-.33-.7-.51c-.22-.18-.4-.44-.55-.7-.11-.29-.15-.55-.22-.84-.11-1.1-1.21-1.9-2.38-1.94h0Z"/>
          <path class="cls-11" d="m47.55,46.07c1.03-.59,2.23-1.28,3.55-1.17.66.07,1.21.37,1.5.84.07.11.11.22.15.37.07.15.11.29.18.4.15.18.37.33.55.4.26.11.51.18.77.29.29.11.62.22.92.37.88.44,1.32,1.1,1.28,1.98v.11c0,.18,0,.33.04.44.07.11.22.22.37.29h0c.73.44,1.39.95,2.01,1.5.99.92,1.28,1.83.99,3.08,0,.04,0,.07-.04.07-.04.15-.07.29-.04.4.04.15.11.26.22.4s.18.29.29.4c.33.48.7.92.92,1.47.26.66.33,1.61-.22,2.23-.15.18-.37.33-.55.48-.26.18-.51.37-.62.62-.22.4-.15.92.22,1.61.04.04.04.07.07.15.26.51.55,1.1.48,1.69-.11.84-.88,1.32-1.58,1.8"/>
          <path class="cls-11" d="m27.07,70.32c-.44-.26-.92-.44-1.36-.59-.4-.15-.81-.29-1.21-.51-.88-.44-1.69-1.36-1.5-2.38.04-.26.15-.51.26-.77.15-.4.33-.77.18-1.14-.11-.26-.33-.4-.62-.59-.92-.59-1.9-1.43-1.76-2.53.07-.55.4-.95.7-1.36.11-.15.22-.29.33-.44.37-.55.48-1.17.33-1.94-.15-.66-.18-1.1.44-1.72.15-.15.33-.26.51-.37.37-.22.73-.44.77-.84.04-.26-.07-.51-.22-.81-.04-.04-.04-.07-.07-.15-.37-.77-.55-1.87.07-2.67.4-.51.99-.73,1.58-.95.22-.07.48-.18.7-.29.33-.18.55-.37.66-.55.11-.29.07-.62,0-.95s-.11-.66-.04-.99c.15-.66.59-1.17,1.28-1.47.33-.15.7-.26,1.03-.37.26-.07.51-.15.73-.22.4-.15.66-.37.81-.59.11-.22.11-.48.11-.77,0-.26,0-.51.07-.77.29-.84,1.32-1.03,2.2-.95.11,0,.22.04.37.04.66.07,1.36.15,1.87-.18.07-.07.18-.11.26-.18.15-.11.29-.26.48-.33.66-.29,1.32.15,1.87.55.15.11.33.22.48.29.95.55,2.2.51,3.08-.15"/>
          <path class="cls-21" d="m51.69,116.55h-20.33s-7.18,14.95-7.03,18.83l15.06,8.1c1.25.95,2.97.95,4.25,0l15.39-8.1c.18-3.85-7.33-18.83-7.33-18.83h0Z"/>
          <path class="cls-31" d="m56.34,81.53l-14.8-4.73h-.04l-14.8,4.73c-.84,4.91.81,12.53.81,12.53.59,6.04,2.01,11.58,2.97,14.69.55,1.87.84,3.77.84,5.71v2.09h20.37l.04-2.09c0-1.94.29-3.88.84-5.71.95-3.11,2.42-8.61,2.97-14.69,0,0,1.65-7.62.81-12.53h0Z"/>
          <path class="cls-21" d="m31.36,116.15c0-5.61,4.54-10.18,10.15-10.18s10.18,4.58,10.18,10.18-4.58,10.18-10.18,10.18-10.15-4.54-10.15-10.18h0Z"/>
          <path class="cls-31" d="m21.94,85.49s-1.69,10.59-3.11,27.11c-.15,1.69,1.1,3.22,2.82,3.48h0c1.98.33,3.52-1.17,3.85-3.08,2.45-14.47,5.82-26.08,5.82-26.08l-9.38-1.43h0Z"/>
          <circle class="cls-31" cx="26.63" cy="86.22" r="4.76"/>
          <circle class="cls-31" cx="22.12" cy="112.78" r="3.37"/>
          <g>
            <path class="cls-31" d="m18.9,111.68l-2.16,4.14c-.51.95-.95,1.94-1.36,2.97-.62,1.65-1.17,3.37-1.61,5.09l-3,11.5,4.32.77s1.14-2.89,3-6.19c3.11-5.53,7.73-13.19,7.22-16.05l-6.41-2.23h0Z"/>
            <circle class="cls-31" cx="12.82" cy="136.34" r="2.27"/>
          </g>
          <g id="Layer_2-9" data-name="Layer 2-9">
            <g id="Scene1_2-7" data-name="Scene1 2-7">
              <g id="Hand-7">
                <circle class="cls-31" cx="12.93" cy="136.26" r="2.27"/>
              </g>
            </g>
          </g>
          <g>
            <path class="cls-32" d="m11.87,144.69c1.39.44,3.33-.77,3.37,1.03-1.17.37-3.08.51-4.65-.07l1.28-.95Z"/>
            <path class="cls-32" d="m12.53,145.86c1.76.7,3.96-.55,3.88,1.69-1.54.33-3.66.29-5.61-.66l1.72-1.03Z"/>
            <path class="cls-30" d="m13.33,146.85c1.69.81,4.47-.33,4.21,1.9-1.58.22-4.18.07-6.01-.99l1.8-.92h0Z"/>
            <path class="cls-31" d="m14.65,135.93l-.29,6.89c-1.1,1.25-1.39,2.86-.62,4.95,1.94.99,3.99,1.06,3.55,2.56-1.58.15-3.92-.29-5.71-1.47l-2.27-5.35c.07-2.67.62-5.31,1.36-7.55l3.99-.04h0Z"/>
            <path class="cls-30" d="m11.57,148.86s-.44-.99-.77-2.23c-.29-1.25-.51-2.27-.48-2.27s.33.99.66,2.23c.29,1.25.62,2.27.59,2.27Z"/>
            <path class="cls-31" d="m14.25,142.82c1.03.92.55,1.32.92,3,.51,2.42,2.2,2.16,2.42,1.58.22-.62-.62-4.25-.62-4.25-.66-2.45-.18-5.06-2.27-7.18-1.21,1.43-.48,4.18-.44,6.85h0Z"/>
          </g>
          <circle class="cls-21" cx="32.46" cy="136.85" r="8.24"/>
          <ellipse class="cls-31" cx="35.02" cy="98.43" rx="7.73" ry="6.78" transform="translate(-68.69 85.83) rotate(-63.49)"/>
          <ellipse class="cls-31" cx="48" cy="98.39" rx="6.74" ry="7.73" transform="translate(-38.87 31.77) rotate(-26.51)"/>
          <circle class="cls-21" cx="50.96" cy="136.85" r="8.24"/>
          <path class="cls-31" d="m60.33,85.49s1.69,10.59,3.11,27.11c.15,1.69-1.1,3.22-2.82,3.48h0c-1.98.33-3.52-1.17-3.85-3.08-2.45-14.47-5.82-26.08-5.82-26.08l9.38-1.43h0Z"/>
          <circle class="cls-31" cx="55.61" cy="86.22" r="4.76"/>
          <g>
            <circle class="cls-31" cx="60.44" cy="112.52" r="3.37"/>
            <circle class="cls-31" cx="80.3" cy="128.24" r="2.27"/>
            <g id="Layer_2-10" data-name="Layer 2-10">
              <g id="Scene1_2-8" data-name="Scene1 2-8">
                <g id="Hand-8">
                  <circle class="cls-31" cx="80.19" cy="128.24" r="2.27"/>
                </g>
              </g>
            </g>
            <g>
              <path class="cls-32" d="m85.36,134.98c-1.03,1.06-3.26.99-2.42,2.56,1.21-.29,2.93-1.1,3.99-2.42l-1.58-.15Z"/>
              <path class="cls-32" d="m85.39,136.34c-1.17,1.47-3.74,1.5-2.49,3.41,1.5-.48,3.3-1.61,4.51-3.37l-2.01-.04h0Z"/>
              <path class="cls-30" d="m85.17,137.58c-1.06,1.58-4.07,1.94-2.67,3.77,1.47-.59,3.63-2.01,4.73-3.88l-2.05.11h0Z"/>
              <path class="cls-31" d="m78.54,128.83l3.74,5.79c1.58.51,2.64,1.8,3,3.96-1.17,1.83-2.93,2.93-1.76,3.99,1.43-.66,3.22-2.2,4.21-4.1l-.7-5.79c-1.43-2.27-3.19-4.32-4.95-5.82l-3.55,1.98h0Z"/>
              <path class="cls-30" d="m87.7,138.46s-.11-1.1-.48-2.31-.7-2.23-.73-2.2c-.04,0,.22,1.03.55,2.27.33,1.25.62,2.23.66,2.23h0Z"/>
              <path class="cls-31" d="m82.35,134.58c-.44,1.32.18,1.43.7,3.04.77,2.34-.81,2.97-1.28,2.56-.48-.44-1.61-3.99-1.61-3.99-.66-2.45-2.38-4.47-1.65-7.36,1.8.66,2.53,3.44,3.85,5.75h0Z"/>
            </g>
          </g>
          <circle class="cls-31" cx="41.39" cy="81.05" r="5.57"/>
          <polygon class="cls-31" points="46.89 80.17 35.9 80.17 35.9 80.17 36.16 78.53 36.34 77.17 36.71 74.61 37 72.77 37.04 72.41 37.11 71.86 37.51 69.22 45.31 69.22 45.72 72.26 45.79 72.74 45.86 73.1 45.9 73.47 45.97 73.84 46.85 80.03 46.85 80.03 46.89 80.17"/>
          <circle class="cls-31" cx="41.39" cy="69.22" r="3.88"/>
          <path class="cls-30" d="m45.97,73.84l-.62,1.03c-.33.51-.66.99-1.06,1.39-1.36,1.43-3.19,2.23-5.09,2.23h-3.08l.22-1.39.37-2.53.29-1.87,8.87.37.04.33.07.44h0Z"/>
          <g>
            <path class="cls-31" d="m50.55,58.67c0-5.28-4.36-9.52-9.63-9.31-4.62.22-8.39,3.88-8.76,8.5-.11,1.25.04,2.49.4,3.59h0s.84,7.14.95,7.73c.37,1.87,5.35,5.42,6.85,6.3.62.37,1.39.37,2.01,0,1.5-.84,6.52-4.4,6.85-6.3.11-.59.95-7.73.95-7.73h0c.22-.84.37-1.8.37-2.78h0Z"/>
            <path class="cls-31" d="m50.11,61.34s3.3-.84,2.56,2.2c-.88,3.66-3.48,3.22-3.48,3.22l.92-5.42Z"/>
            <path class="cls-31" d="m32.82,61.45s-3.55-.95-2.82,2.12c.88,3.66,3.41,3.22,3.41,3.22l-.59-5.35h0Z"/>
            <ellipse class="cls-13" cx="37.25" cy="62.3" rx=".84" ry="1.17"/>
            <path class="cls-13" d="m38.06,61.56c-.81-.29-1.58-.44-2.38-.11.59-.77,1.83-.59,2.38.11h0Z"/>
            <ellipse class="cls-13" cx="45.53" cy="62.3" rx=".84" ry="1.17"/>
            <path class="cls-13" d="m47.07,61.56c-.81-.29-1.58-.44-2.38-.11.59-.77,1.83-.59,2.38.11h0Z"/>
          </g>
          <path class="cls-13" d="m34.29,60.14c-.07,0-.15-.07-.07-.15.33-.37,1.14-1.1,2.09-1.25.92-.18,2.38-.07,3.11-.04.37.04.66.33.66.7h0c0,.29-.18.44-.37.48-.11.04-.26.04-.37.04-.51-.07-2.67-.37-3.08-.26-.33.07-1.47.37-1.98.48h0Z"/>
          <path class="cls-13" d="m48.5,60.14c.07,0,.15-.07.07-.15-.33-.37-1.14-1.1-2.09-1.25-.92-.18-2.38-.07-3.11-.04-.37.04-.66.33-.66.7h0c0,.29.18.44.37.48.11.04.26.04.37.04.51-.07,2.67-.37,3.08-.26.33.07,1.47.37,1.98.48h0Z"/>
          <g>
            <path class="cls-15" d="m38.21,69.4h6.37s-1.69,1.65-3.19,1.65-3.19-1.65-3.19-1.65Z"/>
            <path class="cls-30" d="m41.39,68.93c-.84-.88-3.19.48-3.19.48,0,0,2.01.4,3.19.4s3.19-.4,3.19-.4c0,0-2.34-1.32-3.19-.48Z"/>
            <path class="cls-30" d="m44.58,69.4l-.66.15s-1.17,1.14-2.49,1.14c-1.47,0-2.6-1.14-2.6-1.14l-.62-.11c.62,1.54,1.76,2.23,2.49,2.49.44.18.95.18,1.39,0,.73-.33,1.87-.99,2.49-2.53h0Z"/>
          </g>
          <path class="cls-2" d="m43.08,66s-.11.51-1.21.73c0,0-.04,0-.07.04-.29.18-.62.18-.92,0-.04-.04-.07-.04-.07-.04-1.14-.22-1.21-.73-1.21-.73"/>
          <path class="cls-13" d="m45.94,49.84h.04c.92.18,1.72.62,2.49,1.1.7.44,1.43.62,1.9,1.32.59.92.88,2.09,1.14,3.04.33,1.25.7,2.53.55,3.81-.15,1.14-.73,2.2-1.58,2.93-.26.22-.62.59-.95.18-.26-.33-.11-.62.04-.95.11-.22.11-.48.22-.7.11-.26.33-.55.26-.84-.04-.29-.29-.48-.48-.73-.22-.29-.29-.66-.26-1.03.04-.33.18-.73-.04-.99-.18-.22-.55-.18-.81-.33-.33-.18-.44-.55-.55-.88s-.29-.7-.66-.77c-.18-.04-.4,0-.59-.04-.29-.11-.44-.44-.62-.66-.22-.29-.62-.44-.99-.4-.15,0-.26.04-.4,0-.48-.07-.55-.81-.95-1.03-.33-.18-.77,0-1.06-.18-.26-.15-.33-.51-.55-.7s-.55-.22-.81-.33c-.26-.15-.62-.55-.55-.88s.55-.51.81-.62c.62-.18,1.25-.26,1.87-.29.88-.11,1.72-.18,2.53-.04h0Z"/>
          <path class="cls-13" d="m26.56,59.33v-.07c.15-1.47.73-2.86,1.39-4.14.59-1.17.81-2.38,1.87-3.22,1.36-1.06,3.19-1.69,4.69-2.27,1.9-.73,3.92-1.5,6.01-1.39,1.83.07,3.59.88,4.95,2.12.4.4,1.03.88.44,1.47-.48.44-.99.26-1.5.07-.37-.15-.77-.15-1.17-.29-.44-.18-.92-.44-1.39-.29-.44.11-.73.55-1.1.84-.44.37-1.03.59-1.61.55-.55,0-1.21-.18-1.61.18-.33.33-.22.92-.4,1.36-.22.51-.81.77-1.32.99-.51.22-1.06.59-1.17,1.14-.04.33.07.66,0,.95-.11.48-.62.73-.99,1.1-.4.4-.62,1.06-.51,1.65.04.22.11.4.07.62-.07.77-1.17.95-1.5,1.69-.22.55.11,1.21-.15,1.72-.22.44-.77.59-1.06.99-.29.4-.26.92-.44,1.36s-.77,1.06-1.28.99c-.51-.04-.92-.77-1.1-1.21-.4-.95-.59-1.94-.73-2.97-.26-1.21-.48-2.56-.37-3.92h0Z"/>
          <path class="cls-29" d="m46.41,48.3c-.11-.22-.26-.44-.44-.59s-.4-.29-.66-.37c-.48-.15-1.03-.04-1.39.26-.22.15-.37.33-.55.51-.11.07-.22.18-.33.22s-.26.07-.4.07c-.51.04-1.03.04-1.54,0-.26,0-.51-.04-.77-.04s-.51-.04-.77-.07c-.26,0-.51,0-.73.04s-.48.11-.66.26c-.18.11-.37.29-.44.51-.11.22-.15.44-.22.7-.04.15-.07.26-.15.37s-.15.26-.29.33c-.22.18-.48.29-.73.37s-.48.15-.7.22c-.11.04-.22.11-.29.18-.04.04-.07.07-.11.11t-.04.07s-.04.04-.04.07c-.11.18-.15.4-.15.66s.04.48.04.73,0,.55-.11.81c-.04.15-.11.26-.22.37s-.22.18-.33.26c-.48.29-.99.33-1.39.59-.22.11-.37.29-.4.51-.07.22-.04.48-.04.73v.4c0,.15-.04.26-.07.4-.11.26-.26.48-.44.66s-.37.37-.59.51c-.18.18-.37.33-.51.55-.15.18-.22.44-.22.7s.07.51.26.66c-.22-.15-.33-.4-.33-.66s.07-.51.22-.73c.29-.44.7-.73,1.03-1.1.15-.18.33-.37.4-.62.07-.22.07-.48.07-.73-.04-.26-.04-.51.04-.81.04-.15.11-.26.18-.37s.18-.18.33-.29c.22-.15.48-.22.73-.33.22-.07.48-.18.66-.29.11-.07.18-.15.26-.22s.11-.18.15-.29c.07-.22.07-.44.07-.7s-.04-.51-.04-.77c0-.15,0-.26.04-.4s.07-.29.15-.4c.04-.04.04-.07.07-.07t.07-.07c.04-.07.11-.11.15-.15.11-.07.22-.15.37-.18.26-.11.51-.18.73-.22s.48-.15.62-.29c.07-.07.15-.15.22-.26.04-.11.07-.22.11-.33.07-.22.11-.51.22-.73.11-.26.33-.48.55-.62.22-.15.51-.22.77-.26s.51-.04.77-.04.51.04.77.07c.26.04.51.04.77.07.51.04,1.03.04,1.5.04.11,0,.22-.04.33-.07.11-.04.22-.11.29-.18.18-.15.37-.37.59-.51.44-.29,1.03-.37,1.5-.18.26.07.48.22.66.4.18.11.33.33.4.55h0Z"/>
          <path class="cls-29" d="m31.76,49.95c-.26.04-.48.18-.66.33s-.37.37-.44.55c-.11.22-.15.48-.15.7,0,.26,0,.51-.04.73,0,.15-.04.26-.07.37-.04.11-.07.26-.15.37-.11.22-.29.44-.44.62-.33.37-.73.7-1.06,1.06-.15.18-.29.37-.4.59-.11.22-.15.44-.15.66s.07.48.11.7c.04.26.11.51.11.77s-.07.55-.18.77c-.11.26-.22.48-.37.7s-.29.4-.44.62-.29.4-.4.62-.22.44-.29.66-.11.44-.07.7v.07l.04.07s.04.11.04.15c.04.11.07.22.15.29.11.18.29.37.44.59.15.18.33.4.44.66.04.15.07.26.11.4s0,.26,0,.4c-.04.26-.07.51-.15.77s-.15.48-.18.73c-.04.22-.07.48-.04.7s.11.44.26.62c.15.18.37.33.55.44.22.11.44.22.66.4.11.07.18.18.29.29.07.11.15.22.18.37.07.26.11.51.15.73.04.11.04.26.07.37.04.11.11.22.18.33s.18.18.29.22.22.07.37.04c-.11.04-.26.04-.37-.04-.11-.04-.22-.15-.29-.22-.07-.11-.15-.22-.22-.33s-.07-.26-.11-.37c-.04-.26-.07-.48-.18-.73-.04-.11-.11-.22-.18-.29-.07-.07-.15-.18-.26-.22-.18-.15-.4-.26-.62-.37s-.44-.26-.62-.44-.29-.48-.33-.73,0-.51.04-.77.11-.51.18-.73.11-.48.11-.7v-.37c0-.11-.04-.22-.07-.33-.07-.22-.22-.4-.4-.59-.15-.18-.33-.37-.48-.59-.07-.11-.15-.22-.18-.37-.04-.07-.04-.15-.07-.18l-.04-.11v-.11c-.04-.26,0-.55.07-.81s.18-.48.33-.7c.11-.22.29-.44.44-.62.15-.18.29-.4.44-.59.15-.18.26-.4.33-.62.07-.22.15-.44.15-.66.04-.44-.18-.92-.18-1.47,0-.26.07-.55.18-.77s.29-.44.44-.62c.37-.37.73-.7,1.06-1.03.18-.18.33-.37.44-.59.04-.11.11-.22.15-.33.04-.11.07-.22.07-.37.04-.26.04-.48.07-.73.04-.26.07-.51.22-.73.11-.22.29-.4.51-.55.11-.26.37-.33.62-.4h0Z"/>
          <g>
            <g>
              <path class="cls-21" d="m32.79,86.33s-.15.44-.4,1.25q-.18.55,0,0c-.22.73-.59,1.83-.99,3.19-.92,3.04-2.2,7.47-3.55,12.79-.07.29-.15.62-.26.95-.26.99-.51,2.01-.77,3.04-.22.95-1.47,6.41-1.65,7.33-.04.22-.07.4-.11.62-.04.11-.04.18-.07.29-.04.22-.11.44-.18.66l-.04.04c-.07.18-.15.37-.26.55h0c-.73,1.39-2.12,2.27-3.74,2.09-.11,0-.18-.04-.29-.04-1.98-.4-3.33-2.2-3.08-4.1.11-.73.18-1.47.29-2.2.07-.44.11-.84.15-1.25,2.05-15.64,3.99-25.83,4.25-27.11,0-.04.04-.07.04-.15l.59.11h.04l4.51.88.92.18,4.29.84h.04l.29.04h0Z"/>
              <circle class="cls-21" cx="27.11" cy="85.19" r="5.09" transform="translate(-8.26 3.09) rotate(-5.66)"/>
            </g>
            <path class="cls-21" d="m24.98,112.96s2.12,3.48-2.23,9.27c-.18.26-.44.44-.77.37l-6.96-1.39c-.29-.07-.48-.33-.44-.62.26-1.76,1.87-7.44,3.41-10.15l7,2.53h0Z"/>
          </g>
          <g>
            <path class="cls-21" d="m42.27,95.09v25.57s-16.01,3.59-15.02-1.94c.18-1.06.48-2.12.66-3.11.37-1.98.62-3.77.59-4.98,0-.51-.04-1.14-.04-1.83-.04-.81-.07-1.76-.11-2.75-.04-.4-.04-.84-.07-1.28-.04-.73-.07-1.47-.11-2.27-.07-1.54-.18-3.15-.29-4.8-.07-1.47-.18-3-.29-4.47-.07-1.06-.15-2.09-.18-3.08-.04-.26-.04-.55-.07-.81-.11-1.5-.18-2.89-.29-4.1,0-.15-.04-.33-.04-.48-.18-2.56-.29-4.32-.33-4.65v-.04h0s3.85-.11,6.52-1.06c.44-.15.88-.33,1.25-.55.66-.37,1.83-.55,1.83-.55.04.26.84,11.28,6.01,17.18h0Z"/>
            <path class="cls-21" d="m40.33,95.09l1.76,25.72s13.99,3.44,13.26-2.09c-.15-1.06-.44-2.09-.62-3.08-.37-1.98-.62-3.77-.59-4.98,0-.51.04-1.14.04-1.83.04-.81.07-1.76.11-2.75.04-.4.04-.84.07-1.28.04-.73.07-1.47.11-2.27.07-1.54.18-3.15.29-4.8.07-1.47.18-3,.29-4.47.07-1.06.15-2.09.18-3.08.04-.26.04-.55.04-.81.11-1.5.18-2.89.29-4.1,0-.15.04-.33.04-.48.18-2.56.29-4.32.33-4.65v-.04h0s-3.85-.11-6.52-1.06c-.44-.15-.88-.33-1.25-.55-.66-.37-1.83-.55-1.83-.55-.04.22-.84,11.25-6.01,17.14h0Z"/>
            <path class="cls-20" d="m40.04,133.95h2.23v-38.31c-3.88-4.61-6.01-17.63-6.01-17.63,0,0-1.25.83-1.9,1.21h0c.81,4.61,2.64,13.12,5.64,16.72l.04,38.01h0Z"/>
            <path class="cls-20" d="m42.57,134.65h-2.23v-38.79c3.88-4.67,6.01-17.85,6.01-17.85,0,0,1.25.84,1.9,1.23h0c-.81,4.67-2.64,13.29-5.64,16.93l-.04,38.49h0Z"/>
            <path class="cls-15" d="m41.72,95.38c0,.33-.26.59-.59.59s-.59-.26-.59-.59.26-.59.59-.59.59.26.59.59Z"/>
            <circle class="cls-15" cx="41.14" cy="100.84" r=".59"/>
            <circle class="cls-15" cx="41.14" cy="106.33" r=".59"/>
            <circle class="cls-15" cx="41.14" cy="111.79" r=".59"/>
          </g>
          <path class="cls-33" d="m34.58,82.37l-2.71.77s2.53-3.26,3.59-3.19,1.76,2.67,1.76,2.67l-.44-.18c-.7-.26-1.47-.26-2.2-.07h0Z"/>
          <path class="cls-20" d="m36.27,78.01c-.55-.26-1.65-.29-2.2,0-.77.44-1.5,1.25-2.71,2.42-1.03,1.03-3.33,2.27-3.33,2.27,1.1,1.06,3.15.66,3.74.48,1.8-.51,2.45-2.67,4.03-2.34.7.15,1.47,1.76,1.47,1.76l-.99-4.58h0Z"/>
          <path class="cls-33" d="m48.03,82.37l2.71.77s-2.53-3.26-3.59-3.19c-1.06.04-1.76,2.67-1.76,2.67l.44-.18c.7-.26,1.47-.26,2.2-.07h0Z"/>
          <path class="cls-20" d="m46.3,78.01c.55-.26,1.65-.29,2.2,0,.77.44,1.5,1.25,2.71,2.42,1.03,1.03,3.33,2.27,3.33,2.27-1.1,1.06-3.15.66-3.74.48-1.8-.51-2.45-2.67-4.03-2.34-.7.15-1.47,1.76-1.47,1.76l.99-4.58h0Z"/>
          <g>
            <path class="cls-21" d="m49.71,86.33s.15.44.4,1.25q.18.55,0,0c.22.73.59,1.83.99,3.19.92,3.04,2.2,7.47,3.55,12.79.07.29.15.62.22.95.26.99.51,2.01.77,3.04.22.95,1.32,6.48,1.5,7.4.04.22.48,1.28.55,1.47l.04.04c.07.18.15.37.26.55h0c.73,1.39,2.12,2.27,3.74,2.09.11,0,.18-.04.29-.04,1.98-.4,3.33-2.2,3.08-4.1-.11-.73-.18-1.47-.29-2.2-.04-.44-.11-.84-.15-1.25-2.05-15.64-3.99-25.83-4.25-27.11,0-.04-.04-.07-.04-.15l-.59.11h-.04l-4.51.88-.92.18-4.29.84h-.04l-.29.07h0Z"/>
            <circle class="cls-21" cx="55.39" cy="85.19" r="5.09"/>
          </g>
          <path class="cls-35" d="m57.45,113.02s-1.82,3.52,2.57,9.23c.2.24.47.43.77.35l6.96-1.45c.28-.05.48-.32.42-.6-.27-1.75-2.03-6.81-3.6-9.46l-7.12,1.94Z"/>
        </g>
        <g>
          <g>
            <path class="cls-6" d="m168.63,54.94s1.03,3.48,3.59,5.06c3.99,2.49,4.87,4.8,3.81,8.13-2.64,8.46-.48,8.24-.48,8.24"/>
            <path class="cls-29" d="m173.76,68.78c-1.36,5.61-2.05,7.25-.18,10.77,0,0-2.23.84-5.28,1.43-3.37.66-7.69.99-10.99-.44-.33-.15-.66-.33-.99-.51-.15.07-.29.15-.44.22-3.15,1.61-7.44,1.39-10.92.81-3.33-.59-5.9-1.54-5.9-1.54,1.87-3.55,1.17-5.2-.18-10.77-.81-3.37.62-5.68,1.9-7,1.58-1.61,2.6-4.1,2.93-6.34.48-3.22-.11-5.31-.11-5.31l12.75,7.44,12.71-7.4s-.59,2.05-.11,5.28c.33,2.23,1.36,4.73,2.93,6.34,1.25,1.36,2.71,3.66,1.87,7.03h0Z"/>
            <path class="cls-13" d="m168.3,80.95v.07c-3.37.66-7.69.99-10.99-.44v-21.25l7.51-.22s5.31,5.93,2.34,10.99c-2.97,5.02.81,9.78,1.14,10.84h0Z"/>
            <path class="cls-13" d="m156.35,61.93l-.4,18.39c-3.15,1.61-7.44,1.39-10.92.81.81.15,2.31-6.92,1.03-11.5-1.28-4.62,1.5-8.72,1.5-8.72l8.79,1.03h0Z"/>
            <circle class="cls-22" cx="156.24" cy="75.96" r="5.68"/>
            <polygon class="cls-22" points="161.81 74.83 150.64 74.94 150.93 70.4 151.41 64.97 151.63 62.45 160.49 62.45 160.82 65.34 160.86 65.89 161.81 74.83"/>
            <circle class="cls-14" cx="156.06" cy="62.45" r="4.43"/>
            <path class="cls-31" d="m160.82,65.34l-9.42-.37-.48,5.42h2.93c2.56,0,4.95-1.28,6.34-3.41l.7-1.06-.07-.59h0Z"/>
            <path class="cls-22" d="m166.28,50.21c-.62-15.57-23.85-11.87-19.78,3.11h0c.95,8.72.84,9.67,8.54,15.2,2.53,1.58,9.01-5.53,9.71-7.66.11-.62,1.03-7.58,1.03-7.58h0c.37-.95.51-2.01.51-3.08h0Z"/>
            <path class="cls-31" d="m154.78,61.9l-2.34-.22c.51.95,1.47,1.54,2.27,1.87.92.4,1.94.4,2.86,0,.81-.37,1.76-.95,2.27-1.87l-2.34.22c-.88.07-1.8.07-2.71,0h0Z"/>
            <path class="cls-30" d="m152.43,61.68c1.72.99,3.7.88,3.7.88,0,0,1.98.07,3.7-.88l-2.86-.29h-.29l-.55.11-.51-.11c-.11-.04-.22-.04-.29,0l-2.89.29h0Z"/>
            <path class="cls-29" d="m148.07,51.97c-.11.04-.15-.07-.07-.15.4-.4,1.28-1.25,2.38-1.43,1.06-.18,2.71-.11,3.55-.04.44.04.77.37.77.81h0c0,.33-.22.48-.4.55-.15.04-.29.07-.44.04-.59-.07-3.04-.44-3.48-.29-.44.04-1.72.37-2.31.51h0Z"/>
            <path class="cls-29" d="m164.27,51.97c.11.04.15-.07.07-.15-.4-.4-1.28-1.25-2.38-1.43-1.06-.18-2.71-.11-3.55-.04-.44.04-.77.37-.77.81h0c0,.33.22.48.4.55.15.04.29.07.44.04.59-.07,3.04-.44,3.48-.29.44.04,1.72.37,2.31.51h0Z"/>
            <path class="cls-8" d="m157.78,58.23s-1.14,1.1-1.61,1.1-1.65-1.1-1.65-1.1"/>
            <g>
              <ellipse class="cls-13" cx="151.44" cy="53.98" rx=".95" ry="1.36"/>
              <path class="cls-13" d="m152.4,53.14c-.92-.33-1.8-.51-2.71-.11.66-.88,2.09-.66,2.71.11h0Z"/>
              <ellipse class="cls-13" cx="160.9" cy="53.98" rx=".95" ry="1.36"/>
              <path class="cls-13" d="m162.62,53.14c-.92-.33-1.8-.51-2.71-.11.66-.88,2.09-.66,2.71.11h0Z"/>
            </g>
            <path class="cls-15" d="m152.95,61.93s1.25.81,2.53,1.06c.44.11.92.11,1.36,0,1.28-.29,2.53-1.06,2.53-1.06-1.72.48-4.73.48-6.41,0h0Z"/>
            <line class="cls-8" x1="155.58" y1="54.28" x2="155.18" y2="57.54"/>
            <path class="cls-29" d="m168.92,55.41c-1.06-.18-2.12-1.06-3.11-2.27-1.87-2.27-3.48-5.68-4.29-8.06-1.17-3.44-4.8-3.74-5.17-3.77h-.04v-4.21c4.14.11,7.18,2.78,7.18,2.78,7.84,5.2,5.42,15.53,5.42,15.53h0Z"/>
            <path class="cls-29" d="m156.35,37.1v4.25s-3.48-1.17-5.28,1.43l-.29,3.08c-3,7.69-5.71,9.34-7.03,9.56,0,0-.18-.81-.29-2.09h0c-.26-3.3.07-9.71,5.71-13.44.04,0,3.08-2.67,7.18-2.78h0Z"/>
            <path class="cls-13" d="m165.81,53.14h0c-1.87-2.27-3.48-5.68-4.29-8.06-1.17-3.44-4.8-3.74-5.17-3.77h0s2.2-2.82,4.32-.4c.44.51.77,1.14.95,1.83.51,1.9,2.16,7.51,4.18,10.4Z"/>
            <path class="cls-13" d="m147.16,52.81c1.87-2.27,3.22-5.35,4.03-7.69,1.17-3.44,4.8-3.74,5.17-3.77h0s-2.2-2.82-4.32-.4c-.44.51-.77,1.14-.95,1.83-.51,1.9-3.92,10.04-3.92,10.04Z"/>
            <path class="cls-6" d="m149.21,40.5s-10.51,9.16-5.79,17.73"/>
            <line class="cls-7" x1="156.35" y1="37.64" x2="156.35" y2="40.5"/>
            <path class="cls-22" d="m165.81,53.14s3.63-.92,2.82,2.42c-.99,4.03-3.81,3.55-3.81,3.55l.99-5.97Z"/>
            <path class="cls-22" d="m150.93,73.69s-1.28,1.98-3.88,2.49h3.88v-2.49Z"/>
            <path class="cls-22" d="m161.37,73.69s1.28,1.98,3.88,2.49h-3.88v-2.49Z"/>
            <path class="cls-22" d="m146.83,53.25s-3.92-1.03-3.08,2.31c.99,4.03,3.74,3.55,3.74,3.55l-.66-5.86Z"/>
          </g>
          <g>
            <path class="cls-22" d="m169.03,114.14h-26.38s-5.57,16.19-5.42,20.41l16.3,8.79c1.36,1.03,3.22,1.03,4.58,0l16.67-8.79c.22-4.21-5.75-20.41-5.75-20.41h0Z"/>
            <path class="cls-22" d="m171.89,76.18l-15.86-.7-16.19.7c-.92,5.35.88,13.59.88,13.59.62,6.56,2.2,12.53,3.22,15.9.62,2.01-.44,6.08-.44,6.08l-.81,2.42h26.38l-.84-3s-.99-3.44-.37-5.46c1.03-3.33,2.6-9.34,3.22-15.9-.04-.07,1.72-8.32.81-13.63h0Z"/>
            <path class="cls-22" d="m143.28,113.66c0-6.96,5.64-12.6,12.57-12.6s12.6,5.64,12.6,12.6-5.68,12.6-12.6,12.6-12.57-5.64-12.57-12.6h0Z"/>
            <ellipse class="cls-22" cx="148.25" cy="94.42" rx="9.2" ry="8.06" transform="translate(-2.42 184.94) rotate(-63.49)"/>
            <ellipse class="cls-22" cx="163.7" cy="94.43" rx="8.06" ry="9.2" transform="translate(-24.94 83) rotate(-26.51)"/>
            <circle class="cls-22" cx="166.06" cy="136.08" r="8.9"/>
            <circle class="cls-22" cx="146.02" cy="136.08" r="8.9"/>
            <g>
              <g>
                <path class="cls-22" d="m135.66,80.32s-2.05,11.43-4.03,29.34c-.18,1.83,1.1,3.52,3,3.85h0c2.16.4,3.85-1.17,4.25-3.22,3-15.64,6.92-28.14,6.92-28.14l-10.15-1.83h0Z"/>
                <circle class="cls-22" cx="140.71" cy="81.24" r="5.13"/>
                <circle class="cls-22" cx="135.22" cy="109.85" r="3.66"/>
                <path class="cls-22" d="m131.7,108.75l-1.47,4.84c-.33,1.14-.62,2.27-.81,3.44-.33,1.9-.55,3.81-.7,5.75l-.84,12.86,4.73-.07s.62-3.3,1.94-7.22c2.2-6.52,5.53-15.57,4.4-18.54l-7.25-1.06h0Z"/>
              </g>
              <g id="Layer_2-2" data-name="Layer 2-2">
                <g id="Scene1_2" data-name="Scene1 2">
                  <g id="Hand">
                    <circle class="cls-22" cx="130.34" cy="136.05" r="2.49"/>
                  </g>
                </g>
              </g>
              <g>
                <path class="cls-31" d="m129.39,146.63c1.76.51,4.14-.95,4.21,1.28-1.47.44-3.88.66-5.82-.11l1.61-1.17h0Z"/>
                <path class="cls-31" d="m130.2,148.13c2.2.88,4.95-.7,4.84,2.12-1.94.4-4.58.37-7-.81l2.16-1.32h0Z"/>
                <path class="cls-18" d="m131.26,149.34c2.12,1.03,5.61-.44,5.28,2.38-1.98.29-5.2.11-7.51-1.25l2.23-1.14h0Z"/>
                <path class="cls-22" d="m132.8,135.72l-.29,8.61c-1.39,1.54-1.72,3.59-.77,6.15,2.42,1.25,5.02,1.32,4.43,3.22-1.98.18-4.87-.37-7.11-1.8l-2.86-6.7c.11-3.33.77-6.67,1.69-9.42l4.91-.07h0Z"/>
                <path class="cls-18" d="m129.02,151.91c-.07,0-.55-1.25-.95-2.78-.4-1.54-.66-2.82-.59-2.86.07,0,.44,1.25.81,2.78.4,1.58.77,2.82.73,2.86Z"/>
                <path class="cls-22" d="m132.25,144.32c1.28,1.14.7,1.65,1.14,3.74.66,3.04,2.75,2.71,3,1.94.26-.77-.77-5.31-.77-5.31-.81-3.08-.26-6.3-2.86-8.98-1.47,1.83-.51,5.28-.51,8.61Z"/>
              </g>
            </g>
            <g>
              <g>
                <path class="cls-22" d="m176.5,80.32s2.05,11.43,4.03,29.34c.18,1.83-1.1,3.52-3,3.85h0c-2.16.4-3.85-1.17-4.25-3.22-3-15.64-6.92-28.14-6.92-28.14l10.15-1.83h0Z"/>
                <circle class="cls-22" cx="171.45" cy="81.24" r="5.13"/>
                <circle class="cls-22" cx="176.94" cy="109.85" r="3.66"/>
                <path class="cls-22" d="m180.46,108.75l1.47,4.84c.33,1.14.62,2.27.81,3.44.33,1.9.55,3.81.7,5.75l.84,12.86-4.73-.07s-.62-3.3-1.94-7.22c-2.2-6.52-5.53-15.57-4.4-18.54l7.25-1.06h0Z"/>
              </g>
              <g id="Layer_2-3" data-name="Layer 2-3">
                <g id="Scene1_2-2" data-name="Scene1 2-2">
                  <g id="Hand-2">
                    <circle class="cls-22" cx="181.81" cy="136.05" r="2.49"/>
                  </g>
                </g>
              </g>
              <g>
                <path class="cls-31" d="m182.77,146.63c-1.76.51-4.14-.95-4.21,1.28,1.47.44,3.88.66,5.82-.11l-1.61-1.17h0Z"/>
                <path class="cls-31" d="m181.96,148.13c-2.2.88-4.95-.7-4.84,2.12,1.94.4,4.58.37,7-.81l-2.16-1.32h0Z"/>
                <path class="cls-18" d="m180.9,149.34c-2.12,1.03-5.61-.44-5.28,2.38,1.98.29,5.2.11,7.51-1.25l-2.23-1.14h0Z"/>
                <path class="cls-22" d="m179.36,135.72l.29,8.61c1.39,1.54,1.72,3.59.77,6.15-2.42,1.25-5.02,1.32-4.43,3.22,1.98.18,4.87-.37,7.11-1.8l2.86-6.7c-.11-3.33-.77-6.67-1.69-9.42l-4.91-.07h0Z"/>
                <path class="cls-18" d="m183.13,151.91c.07,0,.55-1.25.95-2.78s.66-2.82.59-2.86c-.07,0-.44,1.25-.81,2.78-.4,1.58-.81,2.82-.73,2.86Z"/>
                <path class="cls-22" d="m179.91,144.32c-1.28,1.14-.7,1.65-1.14,3.74-.66,3.04-2.75,2.71-3,1.94-.26-.77.77-5.31.77-5.31.81-3.08.26-6.3,2.86-8.98,1.47,1.83.51,5.28.51,8.61Z"/>
              </g>
            </g>
          </g>
          <g>
            <path class="cls-17" d="m175.51,131.76c-.88-5.53-4.29-9.49-5.09-14.14-.15-.88-1.25-9.31.59-17.88-.04-.07-.04-.15-.07-.22,1.36-2.49,1.43-5.75-.07-8.72-.18-.33-.33-.66-.55-.95.81-4.14,2.53-8.39,3.33-13.23-.48-.26-1.03-.48-1.8-.55-5.42,1.25-26.34,1.17-30.22-.04-1.06,0-2.09-.04-2.75.33.84,4.4,1.9,9.38,2.53,13.66-.15.26-.29.51-.44.77-1.54,3.04-1.39,6.45.07,8.94h0c1.87,7.07,1.21,16.05.73,16.82-3.11,4.98-3.3,9.2-4.87,15.06-.92,3.48-3.96,27.44-3.96,32.6,6.04,4.73,43.23,5.31,49.02-1.5.04-5.13-5.86-27.4-6.45-30.96h0Z"/>
            <path class="cls-36" d="m181.17,83.72c-1.8-2.6-2.27-4.18-7.51-6.92-1.06-.55-2.12-.66-3.33-.51-6.37.84-21.76.7-27.66-.07-1.32-.18-3.22-.15-4.4.44-5.31,2.82-6.15,5.13-7.73,8.24,1.17,3.33,6.34,4.03,7.99,10.29,1.87,7.07-.62,16.49,3.59,19.2,0,.95-.66,2.38-1.14,3.15-2.38,3.99-4.65,7.69-5.5,13.92,7.47,4.95,34.95,4.47,41.21-.22-.81-4.18-3.66-9.63-6.08-13.59-.48-.77-.62-1.98-.62-2.93,4.65-1.98,1.9-11.03,3.7-19.6.88-4.18,5.31-7.77,7.47-11.39h0Z"/>
            <path class="cls-15" d="m141.37,117.4l29.05.04s-.04-.22-.04-.26c-.07-.33-.11-1.28-.29-2.67l-27.88-.04s-.07,1.1-.33,2.01c0,0-.51.84-.51.92Z"/>
            <path class="cls-37" d="m141.37,117.4l29.05.04s-.04-.22-.04-.26c-.07-.33-.11-1.28-.29-2.67l-27.88-.04s-.07,1.1-.33,2.01c0,0-.51.84-.51.92Z"/>
          </g>
          <path class="cls-28" d="m166.76,52.19c0-.15-.07-.22-.07-.22-.26-.18-1.17-.51-1.17-.51-1.47-.62-3.85-.62-3.85-.62-2.31,0-4.4,1.17-4.4,1.17-.29.15-1.03.18-1.14.18-.15,0-.84-.04-1.14-.18,0,0-2.09-1.17-4.4-1.17,0,0-2.38,0-3.81.62,0,0-.92.37-1.17.51,0,0-.07.04-.07.22,0,0-.04.37.07.44l.18.29.11.15.51,1.54s.51,1.76,2.01,2.6c0,0,.95.59,2.27.55,0,0,1.5.04,2.75-.95,0,0,.95-.81,1.39-1.98l.44-1.14s.11-.62.81-.62.81.62.81.62l.44,1.14c.44,1.17,1.39,1.98,1.39,1.98,1.25.99,2.75.95,2.75.95,1.32.07,2.27-.55,2.27-.55,1.5-.84,2.01-2.6,2.01-2.6l.51-1.54.11-.15.18-.29c.18-.11.18-.48.18-.44h0Zm-11.98,1.17c-.26,2.23-1.9,4.18-4.1,4.07-2.64.07-3.99-2.31-4.03-4.54-.04-1.58,1.9-1.5,3.7-1.65,2.09,0,4.51.73,4.43,2.12h0Zm6.81,4.07c-2.2.11-3.85-1.83-4.1-4.07-.07-1.39,2.34-2.12,4.43-2.12,1.83.15,3.74.07,3.74,1.65-.07,2.27-1.43,4.65-4.07,4.54h0Z"/>
        </g>
        <g>
          <path class="cls-13" d="m92.13,43.63c.11-1.72.11-3.48.07-5.24-.04-1.32.04-3.44-1.58-3.92-.59-.15-1.1-.29-1.58-.66-.44-.33-.81-.77-1.28-1.03-.88-.48-2.05.07-2.97-.33-.37-.15-.62-.44-.99-.62-1.03-.51-2.23.04-3.37.07-1.32.04-2.67-.59-3.96-.15-.81.29-1.47,1.03-2.31,1.14-.4.07-.84,0-1.25.11-.81.26-1.17,1.21-1.9,1.58-.37.18-.77.22-1.14.44-.4.26-.62.73-.77,1.21-1.03,2.93-.88,6.04-.55,9.12.4,4.14.92,9.16,3.88,12.42,3.33,3.63,9.56,3.44,13.3.29,4.51-3.81,6.01-9.01,6.37-14.43h0Z"/>
          <path class="cls-31" d="m92.79,72.61l-12.2-5.64-11.25,5.64-13.99,7.84s4.4,8.94,7.03,17.91c1.5,5.13,2.38,8.76,3.66,12.79h29.09c1.28-4.03,2.16-7.66,3.66-12.79,2.64-8.98,7.03-17.91,7.03-17.91l-13.04-7.84h0Z"/>
          <circle class="cls-31" cx="80.63" cy="112.79" r="15.13"/>
          <g>
            <path class="cls-31" d="m87.07,72.72v.18c0,3.59-2.89,6.48-6.48,6.48s-6.48-2.89-6.45-6.48v-.18h0v-.07c.04-.55.11-1.06.26-1.54.04-.07.04-.15.07-.22l.29-1.58.92-5.06.11-.59h9.71l.18.95.11.73.26,1.43.73,4.14c.18.55.29,1.17.33,1.76l-.04.04h0Z"/>
            <path class="cls-31" d="m85.5,63.63c0,2.67-2.2,4.84-4.87,4.84s-4.84-2.16-4.84-4.87h0c0-.4.04-.81.15-1.17.51-2.12,2.45-3.7,4.73-3.7s4.4,1.76,4.76,4.03c.04.33.07.59.07.88h0Z"/>
            <path class="cls-30" d="m85.79,65.31c-1.8,2.49-4.69,3.96-7.77,3.96h-3.26l.92-5.06.11-.59h0c0-.4.04-.81.15-1.17l9.49.37c.04.26.07.55.07.84l.18.95.11.7h0Z"/>
          </g>
          <circle class="cls-31" cx="71.76" cy="131.77" r="8.72"/>
          <circle class="cls-31" cx="89.2" cy="131.77" r="8.72"/>
          <g>
            <circle class="cls-14" cx="80.19" cy="60.41" r="4.87"/>
            <path class="cls-31" d="m91.43,46.96c0,.51-.04.99-.11,1.47,0,.11-.04.26-.04.37-.04.26-.07.48-.15.73-.04.11-.07.26-.07.37-.04.18-.07.33-.15.48,0,0-.99,7.62-1.14,8.32-.44,2.27-4.32,7.44-8.28,8.39-.84.22-1.58.26-2.42,0-3.48-1.1-7.84-6.12-8.28-8.39-.15-.7-1.14-8.32-1.14-8.32h0c-.04-.15-.07-.26-.11-.4-.04-.11-.07-.26-.11-.37-.07-.26-.11-.55-.18-.81,0-.11-.04-.26-.04-.37-.11-.77-.11-1.58-.07-2.38.44-5.61,5.02-10.04,10.59-10.26,6.45-.29,11.69,4.84,11.69,11.17h0Z"/>
            <path class="cls-13" d="m71.43,48.21c-.07.04-.15-.11-.07-.18.37-.44,1.25-1.36,2.27-1.58,1.03-.22,2.6-.11,3.41-.04.4.04.73.4.73.88v.04c0,.37-.22.55-.4.62-.15.07-.29.07-.4.04-.59-.11-2.93-.48-3.33-.33-.4.07-1.65.4-2.2.55h0Z"/>
            <path class="cls-13" d="m88.58,48.21c.07.04.15-.11.07-.18-.37-.44-1.25-1.36-2.27-1.58-1.03-.22-2.6-.11-3.41-.04-.4.04-.73.4-.73.88v.04c0,.37.22.55.4.62.15.07.29.07.4.04.59-.11,2.93-.48,3.33-.33.44.07,1.65.4,2.2.55h0Z"/>
            <g>
              <ellipse class="cls-13" cx="75.13" cy="51.1" rx="1.03" ry="1.47"/>
              <path class="cls-13" d="m76.19,50.22c-.84-.44-1.65-.51-2.49-.11.55-.92,2.01-.84,2.49.11h0Z"/>
              <ellipse class="cls-13" cx="85.5" cy="51.1" rx="1.03" ry="1.47"/>
              <path class="cls-13" d="m84.47,50.22c.48-.92,1.94-1.03,2.49-.11-.88-.4-1.65-.37-2.49.11h0Z"/>
            </g>
            <path class="cls-15" d="m76.63,58.79s1.1,1.43,2.86,1.83c.62.15,1.25.15,1.83,0,1.76-.4,2.86-1.87,2.86-1.87h-.04s-2.2.04-3.77.04c-1.54.04-3.77,0-3.74,0h0Z"/>
            <path class="cls-31" d="m90.92,50.22s3.99-1.03,3.11,2.64c-1.06,4.4-4.18,3.88-4.18,3.88l1.06-6.52h0Z"/>
            <path class="cls-31" d="m70.08,50.33s-4.29-1.14-3.41,2.56c1.06,4.4,4.1,3.92,4.1,3.92l-.7-6.48h0Z"/>
            <path class="cls-5" d="m82.09,55.79s-1.25,1.21-1.8,1.21-1.83-1.21-1.83-1.21"/>
          </g>
          <g>
            <path class="cls-31" d="m53.81,84s-.73,7.84-.15,17.44c.29,5.02-.92,10.48-1.58,15.17-.4,3,2.23,6.26,5.68,6.04,0,0,4.43,0,5.2-5.06.37-2.38-.22-5.2.18-7.99,1.65-10.99,4.25-23.41,4.25-23.41l-13.59-2.2h0Z"/>
            <path class="cls-31" d="m59.71,131.37c-1.36,3.63-4.21,17.14-4.21,17.14,0,.04-.77,2.75-.77,2.78l-5.64-.92s.11-3.19.37-4.95c.07-.48.15-1.03.22-1.61h0v-.07c.37-2.71.77-6.41,1.1-10.33.44-5.75.55-12.53,1.43-17.51l10.77,1.72c.26,1.8-.7,6.92-3.26,13.74h0Z"/>
            <circle class="cls-31" cx="60.51" cy="85.28" r="6.89"/>
            <circle class="cls-31" cx="57.55" cy="117.19" r="5.46"/>
            <g id="Layer_2-4" data-name="Layer 2-4">
              <g id="Scene1_2-3" data-name="Scene1 2-3">
                <g id="Hand-3">
                  <circle class="cls-31" cx="52.31" cy="149.76" r="2.89"/>
                </g>
              </g>
            </g>
            <g>
              <path class="cls-32" d="m50.66,161.15c1.76.51,4.14-.95,4.21,1.25-1.47.44-3.85.66-5.82-.07l1.61-1.17h0Z"/>
              <path class="cls-32" d="m51.47,162.65c2.2.88,4.95-.7,4.84,2.12-1.94.4-4.58.37-6.96-.81l2.12-1.32h0Z"/>
              <path class="cls-30" d="m52.49,163.82c2.12,1.03,5.61-.44,5.24,2.38-1.98.29-5.17.11-7.51-1.25l2.27-1.14Z"/>
              <path class="cls-31" d="m54.14,150.27l-.4,8.57c-1.39,1.54-1.72,3.55-.77,6.15,2.42,1.25,4.98,1.32,4.43,3.22-1.98.18-4.87-.37-7.11-1.8l-2.86-6.67c.11-3.33.73-6.63,1.69-9.38l5.02-.11h0Z"/>
              <path class="cls-30" d="m50.29,166.39c-.07,0-.55-1.25-.95-2.78s-.66-2.82-.59-2.86c.07,0,.4,1.25.81,2.78.4,1.54.77,2.86.73,2.86h0Z"/>
              <path class="cls-31" d="m53.63,158.84c1.28,1.14.7,1.65,1.14,3.74.66,3,2.75,2.71,3,1.94.26-.77-.77-5.28-.77-5.28-.81-3.04-.22-6.3-2.82-8.98-1.54,1.8-.59,5.24-.55,8.57h0Z"/>
            </g>
          </g>
          <g>
            <path class="cls-31" d="m107.77,84s.73,7.84.15,17.44c-.29,5.02.92,10.48,1.58,15.17.4,3-2.23,6.26-5.68,6.04,0,0-4.43,0-5.2-5.06-.37-2.38.22-5.2-.18-7.99-1.65-10.99-4.25-23.41-4.25-23.41l13.59-2.2h0Z"/>
            <path class="cls-31" d="m101.87,131.37c1.36,3.63,4.21,17.14,4.21,17.14,0,.04.77,2.75.77,2.78l5.64-.92s-.11-3.19-.37-4.95c-.07-.48-.15-1.03-.22-1.61h0v-.07c-.37-2.71-.77-6.41-1.1-10.33-.44-5.75-.55-12.53-1.43-17.51l-10.77,1.72c-.26,1.8.7,6.92,3.26,13.74h0Z"/>
            <circle class="cls-31" cx="101.07" cy="85.28" r="6.89"/>
            <circle class="cls-31" cx="104.04" cy="117.19" r="5.46"/>
            <g id="Layer_2-5" data-name="Layer 2-5">
              <g id="Scene1_2-4" data-name="Scene1 2-4">
                <g id="Hand-4">
                  <circle class="cls-31" cx="109.27" cy="149.76" r="2.89"/>
                </g>
              </g>
            </g>
            <g>
              <path class="cls-32" d="m110.92,161.15c-1.76.51-4.14-.95-4.21,1.25,1.47.44,3.85.66,5.82-.07l-1.61-1.17h0Z"/>
              <path class="cls-32" d="m110.12,162.65c-2.2.88-4.95-.7-4.84,2.12,1.94.4,4.58.37,6.96-.81l-2.12-1.32h0Z"/>
              <path class="cls-30" d="m109.09,163.82c-2.12,1.03-5.61-.44-5.24,2.38,1.98.29,5.17.11,7.51-1.25l-2.27-1.14Z"/>
              <path class="cls-31" d="m107.44,150.27l.4,8.57c1.39,1.54,1.72,3.55.77,6.15-2.42,1.25-4.98,1.32-4.43,3.22,1.98.18,4.87-.37,7.11-1.8l2.86-6.67c-.11-3.33-.73-6.63-1.69-9.38l-5.02-.11h0Z"/>
              <path class="cls-30" d="m111.29,166.39c.07,0,.55-1.25.95-2.78.4-1.54.66-2.82.59-2.86-.07,0-.4,1.25-.81,2.78-.4,1.54-.77,2.86-.73,2.86h0Z"/>
              <path class="cls-31" d="m107.96,158.84c-1.28,1.14-.7,1.65-1.14,3.74-.66,3-2.75,2.71-3,1.94-.26-.77.77-5.28.77-5.28.81-3.04.22-6.3,2.82-8.98,1.54,1.8.59,5.24.55,8.57h0Z"/>
            </g>
          </g>
          <path class="cls-13" d="m71.54,42.02c-.59.33-1.25.22-1.25-.66,0-1.1.88-2.64,1.65-3.33,1.28-1.17,2.93-1.83,4.58-2.12,2.34-.4,5.24-.59,7.58-.04,1.83.4,3.52,1.47,4.87,2.82.4.4,1.32,1.03,1.54,1.54.29.7-.4,1.58-1.1,1.58-.88,0-1.72-.92-2.45-.51-.15.07-.29.22-.4.29-.99.62-2.27-.92-3.37-.51-.37.15-.62.51-1.03.55-.59.11-1.1-.48-1.72-.55-.66-.07-1.25.44-1.9.48-1.03.07-2.01-1.1-2.97-.66-.4.18-.66.62-1.1.73-.33.07-.7-.07-1.03-.15-.81-.11-1.25.18-1.9.55h0Z"/>
          <path class="cls-10" d="m68.79,39.12c.15-1.21.44-2.42.84-3.55.18-.51.44-1.06.99-1.32.15-.07.29-.07.48-.11s.33-.07.44-.11c.26-.11.4-.37.55-.66.04-.07.11-.18.15-.26.59-.88,1.69-1.39,2.75-1.28.07,0,.11,0,.18.04.18.04.37.04.55,0,.22-.07.44-.26.62-.44.07-.07.11-.11.18-.15.92-.81,2.31-1.03,3.41-.51.44.22.84.51,1.21.81.55.44,1.06.84,1.72.92.77.11,1.5-.15,2.16-.44.26-.11.55-.26.88-.29.99-.11,1.83.66,2.23,1.14.15.18.29.37.4.55.37.48.7.95,1.17,1.25.11.07.22.15.37.22.22.15.48.26.66.44"/>
          <path class="cls-32" d="m72.64,39.6c.07-.22.22-.44.4-.66.18-.18.4-.33.66-.44.22-.11.51-.18.77-.18s.55.07.77.07h.33c.11-.04.22-.07.29-.11.18-.11.37-.29.55-.48.07-.07.18-.18.29-.26s.22-.15.37-.22c.15-.04.29-.07.44-.07s.29.04.4.04c.26.07.48.15.73.18.22.04.48,0,.7-.04.48-.07.95-.29,1.47-.4,1.03-.29,2.12-.11,2.97.44-.92-.44-1.98-.51-2.89-.22-.48.15-.95.37-1.47.48-.26.07-.55.07-.81.04-.29-.04-.51-.11-.77-.18-.22-.04-.48-.07-.66,0s-.37.22-.55.4-.37.37-.59.51c-.11.07-.26.11-.4.15s-.29,0-.4,0c-.26-.04-.51-.11-.73-.15-.22,0-.48.04-.7.11-.22.07-.44.18-.62.37s-.44.37-.55.62h0Z"/>
          <path class="cls-13" d="m70.41,41.91s.44,1.87.18,2.86c-.26.99-1.14,3.48-.33,4.14.84.66.22,2.56-.07,2.67,0,0,.11-.62-.48-1.21l-.51-.73s-1.1-6.41,1.21-7.73h0Z"/>
          <path class="cls-13" d="m90.04,41.54s-1.14.77-.73,2.78c.4,2.01,1.1,2.53.88,3.59-.22,1.06-.51,2.2.22,3.04,0,0,.07-.37.48-.77.44-.37,1.9-6.37-.84-8.65h0Z"/>
          <g>
            <path class="cls-13" d="m100.56,146.28h-40.22c.22-1.36.66-7.84,1.14-10.99l.07-.48c.11-.84.26-1.69.4-2.56l.15-.88h36.78v.04c.18,1.32.4,2.64.59,3.92.48,3.19.92,9.67,1.1,10.95h0Z"/>
            <path class="cls-1" d="m94.22,135.95l.37,2.67c.29,2.16,1.65,4.07,3.59,5.06l.95.48"/>
            <path class="cls-1" d="m66.56,135.95l-.37,2.67c-.29,2.16-1.65,4.07-3.59,5.06l-.95.48"/>
          </g>
          <g>
            <g>
              <path class="cls-17" d="m51.83,84.15s-.81,8.79-.18,19.53c.33,5.64-1.03,11.76-1.76,17-.48,3.37,2.53,7,6.37,6.78,0,0,5.57.04,6.41-5.61.4-2.67,4.36-35.21,4.36-35.21l-15.2-2.49h0Z"/>
              <circle class="cls-17" cx="59.38" cy="85.54" r="7.69"/>
              <path class="cls-17" d="m50.11,119.17c-1.03,5.9-1.17,14.47-1.9,21.25-.73,6.92,0,8.06,0,8.06l7.18.18c2.09-5.64,2.2-5.9,3.41-10.62,2.12-8.35,4.18-14.14,3.85-16.3l-12.53-2.56h0Z"/>
              <circle class="cls-17" cx="56.23" cy="121.26" r="6.45"/>
              <path class="cls-19" d="m56.23,147.05c.04-.22-.07-.4-.29-.44l-7.99-.88c-.15,0-.22.07-.22.22l.29,3.99,7.33.95.88-3.85h0Z"/>
            </g>
            <g>
              <path class="cls-17" d="m109.64,84.15s.81,8.79.18,19.53c-.33,5.64,1.03,11.76,1.76,17,.48,3.37-2.53,7-6.37,6.78,0,0-5.57.04-6.41-5.61-.4-2.67-4.36-35.21-4.36-35.21l15.2-2.49h0Z"/>
              <circle class="cls-17" cx="102.09" cy="85.54" r="7.69"/>
              <path class="cls-17" d="m111.36,119.17c1.03,5.9,1.17,14.47,1.9,21.25.73,6.92,0,8.06,0,8.06l-7.18.18c-2.09-5.64-2.2-5.9-3.41-10.62-2.12-8.35-4.18-14.14-3.85-16.3l12.53-2.56h0Z"/>
              <circle class="cls-17" cx="105.25" cy="121.26" r="6.45"/>
              <path class="cls-19" d="m105.25,147.05c-.04-.22.07-.4.29-.44l7.99-.88c.15,0,.22.07.22.22l-.29,3.99-7.33.95-.88-3.85h0Z"/>
            </g>
            <path class="cls-17" d="m98.03,115.98c-.11,1.76-.15,3.08-.11,3.66.11,1.25,1.32,8.24,2.01,13.12.33,2.23-8.32,3.08-17.04,3.26-1.28.04-2.56.04-3.85,0h0c-8.94-.15-18.1-.99-17.77-3.26.7-4.87,2.05-11.87,2.16-13.12.04-.55,0-1.72-.07-3.26h0c-.29-6.45-1.39-19.42-1.39-19.42.04-1.32-.07-2.71-.26-4.1-.37-2.56-.99-5.13-1.69-7.4-1.14-3.77-2.45-6.7-2.75-7.36l-.07-.15,14.07-6.48h0l.4-.18c.33-.15.73-.11,1.06.11l5.79,5.2c1.21,1.1,3.04,1.1,4.25.04l6.15-5.35c.18-.15.4-.22.62-.22.15,0,.29.04.44.11l.48.22,13.52,6.67h0l.26.15s-1.47,3.08-2.75,7.22c-.7,2.27-1.36,4.87-1.72,7.47-.18,1.39-.29,2.75-.26,4.07.07,0-1.1,12.42-1.5,19.01h0Z"/>
          </g>
          <path class="cls-17" d="m90.48,71.43c-1.39,1.54-7.22,7.95-9.89,7.95-3,0-9.31-7.88-9.31-7.88h0l.4-.18c.33-.15.73-.11,1.06.11l5.79,5.2c1.21,1.1,3.04,1.1,4.25.04l6.15-5.35c.18-.15.4-.22.62-.22.15,0,.29.04.44.11l.48.22h0Z"/>
        </g>
        <rect class="cls-15" y="133.71" width="249.09" height="48.87"/>
        <g>
          <path class="cls-31" d="m13.77,123.88l-3,11.5,4.32.77s1.14-2.89,3-6.19"/>
          <circle class="cls-31" cx="12.82" cy="136.34" r="2.27"/>
        </g>
        <g id="Layer_2-9-2" data-name="Layer 2-9">
          <g id="Scene1_2-7-2" data-name="Scene1 2-7">
            <g id="Hand-7-2" data-name="Hand-7">
              <circle class="cls-31" cx="12.93" cy="136.26" r="2.27"/>
            </g>
          </g>
        </g>
        <g>
          <path class="cls-32" d="m11.87,144.69c1.39.44,3.33-.77,3.37,1.03-1.17.37-3.08.51-4.65-.07l1.28-.95Z"/>
          <path class="cls-32" d="m12.53,145.86c1.76.7,3.96-.55,3.88,1.69-1.54.33-3.66.29-5.61-.66l1.72-1.03Z"/>
          <path class="cls-30" d="m13.33,146.85c1.69.81,4.47-.33,4.21,1.9-1.58.22-4.18.07-6.01-.99l1.8-.92h0Z"/>
          <path class="cls-31" d="m14.65,135.93l-.29,6.89c-1.1,1.25-1.39,2.86-.62,4.95,1.94.99,3.99,1.06,3.55,2.56-1.58.15-3.92-.29-5.71-1.47l-2.27-5.35c.07-2.67.62-5.31,1.36-7.55l3.99-.04h0Z"/>
          <path class="cls-30" d="m11.57,148.86s-.44-.99-.77-2.23c-.29-1.25-.51-2.27-.48-2.27s.33.99.66,2.23c.29,1.25.62,2.27.59,2.27Z"/>
          <path class="cls-31" d="m14.25,142.82c1.03.92.55,1.32.92,3,.51,2.42,2.2,2.16,2.42,1.58.22-.62-.62-4.25-.62-4.25-.66-2.45-.18-5.06-2.27-7.18-1.21,1.43-.48,4.18-.44,6.85h0Z"/>
        </g>
      </g>
    </g>
  </g>
</svg>