<?xml version="1.0" encoding="UTF-8"?>
<svg id="Layer_2" data-name="Layer 2" xmlns="http://www.w3.org/2000/svg" viewBox="0 0 158.04 135.31">
  <defs>
    <style>
      .cls-1, .cls-2 {
        fill: #a59a6e;
      }

      .cls-3 {
        fill: #aa2734;
      }

      .cls-4 {
        fill: #54565a;
      }

      .cls-4, .cls-2, .cls-5, .cls-6 {
        stroke: #000;
        stroke-linecap: round;
        stroke-linejoin: round;
        stroke-width: 1.5px;
      }

      .cls-5 {
        fill: #fff;
      }

      .cls-6 {
        fill: none;
      }
    </style>
  </defs>
  <g id="Content">
    <g>
      <g>
        <g>
          <path class="cls-3" d="m73.08,1.5c8.46,0,15.35,6.82,15.43,15.29.07,8.14-6.17,14.87-14.16,15.52-.37.03-.75.05-1.13.05-.05,0-.11,0-.16,0-.42,0-.84-.02-1.25-.05-7.87-.64-14.09-7.19-14.16-15.24-.08-8.52,6.77-15.49,15.29-15.57.05,0,.09,0,.14,0m0-1.5h-.16c-9.33.09-16.86,7.75-16.78,17.09.08,8.82,6.76,16.01,15.54,16.72.46.04.92.06,1.37.06h.18c.42,0,.84-.02,1.24-.06,8.78-.71,15.61-8.19,15.53-17.02-.08-9.25-7.68-16.78-16.93-16.78h0Z"/>
          <g>
            <path class="cls-4" d="m82.56,16.42c.01-.47-.26-.88-.67-1.05.38-.23.59-.68.51-1.14v-.05c-.09-.46-.45-.81-.88-.9.32-.3.44-.77.27-1.21l-.03-.07c-.18-.44-.6-.69-1.05-.68.26-.37.28-.88,0-1.28l-.03-.04c-.27-.39-.75-.56-1.19-.45.17-.42.06-.93-.29-1.25,0,0-.02-.02-.02-.02-.35-.32-.85-.37-1.25-.17.06-.44-.16-.9-.58-1.12l-.05-.03c-.42-.23-.93-.15-1.27.15-.06-.45-.39-.84-.85-.95,0,0-.05-.01-.06-.01-.47-.11-.92.11-1.16.5-.16-.42-.57-.73-1.05-.72h-.09c-.48.02-.87.34-1,.78-.27-.36-.75-.54-1.21-.4l-.07.02c-.46.15-.74.56-.76,1.01-.36-.29-.87-.33-1.28-.08l-.04.02c-.41.25-.6.72-.51,1.16-.41-.18-.91-.1-1.24.24l-.04.04c-.33.34-.4.83-.22,1.24-.44-.08-.89.11-1.14.5l-.04.06c-.25.41-.2.89.08,1.24-.44,0-.86.29-1.02.73l-.02.07c-.16.45,0,.92.34,1.2-.43.1-.78.46-.85.92v.07c-.07.47.17.9.56,1.11-.4.19-.67.6-.64,1.07v.07c.04.47.36.84.79.97-.36.26-.54.73-.41,1.18l.02.07c.13.46.53.75.97.79-.3.34-.37.83-.15,1.25l.03.06c.23.42.68.62,1.12.56-.22.4-.18.91.14,1.27l.03.03c.31.36.8.47,1.22.32-.11.43.04.91.43,1.18l.06.04c.39.28.89.25,1.26-.01-.01.46.26.89.71,1.07l.07.03c.45.17.93.02,1.22-.33.11.44.49.79.97.84h.07s.04.01.07.01c.45.01.85-.25,1.03-.65.22.4.68.65,1.16.57,0,0,.06,0,.06,0,.48-.08.81-.46.88-.91.31.33.81.45,1.25.26l.08-.03c.43-.2.67-.64.63-1.09.39.24.9.22,1.27-.08l.05-.04c.38-.3.49-.79.34-1.21.43.15.93.01,1.23-.37l.03-.04c.29-.37.31-.87.08-1.25.44.04.88-.21,1.09-.63l.02-.04c.2-.42.12-.91-.19-1.24.43-.06.81-.38.92-.83l.02-.07c.11-.46-.09-.91-.46-1.16.42-.14.73-.53.75-1v-.1s0-.01,0-.01Z"/>
            <g>
              <g>
                <polyline class="cls-5" points="84.47 27.05 76.15 23.44 76.15 19.81 70.01 19.81 70.01 23.44 61.66 27.1"/>
                <polygon class="cls-5" points="73.08 25.93 76.15 23.44 76.15 19.81 70.01 19.81 70.01 23.44 73.08 25.93"/>
                <polygon class="cls-5" points="73.08 25.93 70.91 27.71 68.9 23.9 70.01 22.93 73.08 25.93"/>
                <polygon class="cls-5" points="73.08 25.93 75.25 27.71 77.26 23.9 76.15 22.93 73.08 25.93"/>
                <polyline class="cls-6" points="74.49 27.09 73.83 28.49 73.08 28.49 72.33 28.49 71.67 27.09"/>
                <line class="cls-6" x1="74.34" y1="32.31" x2="73.83" y2="28.49"/>
                <line class="cls-6" x1="72.33" y1="28.49" x2="71.81" y2="32.31"/>
              </g>
              <path class="cls-5" d="m78.11,13.81c0,3.61,0-1.21,0,2.4-.13,2.89-2.37,5.7-5.02,5.68-2.63-.02-4.82-2.82-4.95-5.68,0-3.61,0,.65,0-2.96"/>
              <path class="cls-5" d="m68.14,13.26s2.18-1.19,2.85-3.24c0,0,2.14,3.49,7.12,3.8"/>
            </g>
          </g>
        </g>
        <g>
          <path class="cls-3" d="m141.11,71.21c8.46,0,15.35,6.82,15.43,15.29.07,8.14-6.17,14.87-14.16,15.52-.37.03-.75.05-1.13.05-.05,0-.11,0-.16,0-.42,0-.84-.02-1.25-.05-7.87-.64-14.09-7.19-14.16-15.24-.08-8.52,6.77-15.49,15.29-15.57.05,0,.1,0,.14,0m0-1.5v1.5-1.5h-.16c-9.33.09-16.86,7.75-16.78,17.09.08,8.82,6.76,16.01,15.54,16.72.46.04.92.06,1.37.06h.18c.42,0,.84-.02,1.24-.06,8.78-.71,15.61-8.19,15.53-17.02-.08-9.25-7.68-16.78-16.93-16.78h0Z"/>
          <g>
            <path class="cls-4" d="m150.59,86.12c.01-.47-.26-.88-.67-1.05.38-.23.59-.68.51-1.14v-.05c-.09-.46-.45-.81-.88-.9.32-.3.44-.77.27-1.21l-.03-.07c-.18-.44-.6-.69-1.05-.68.26-.37.28-.88,0-1.28l-.03-.04c-.27-.39-.75-.56-1.19-.45.17-.42.06-.93-.29-1.25,0,0-.02-.02-.02-.02-.35-.32-.85-.37-1.25-.17.06-.44-.16-.9-.58-1.12l-.05-.03c-.42-.23-.93-.15-1.27.15-.06-.45-.39-.84-.85-.95,0,0-.05-.01-.06-.01-.47-.11-.92.11-1.16.5-.16-.42-.57-.73-1.05-.72h-.09c-.48.02-.87.34-1,.78-.27-.36-.75-.54-1.21-.4l-.07.02c-.46.15-.74.56-.76,1.01-.36-.29-.87-.33-1.28-.08l-.04.02c-.41.25-.6.72-.51,1.16-.41-.18-.91-.1-1.24.24l-.04.04c-.33.34-.4.83-.22,1.24-.44-.08-.89.11-1.14.5l-.04.06c-.25.41-.2.89.08,1.24-.44,0-.86.29-1.02.73l-.02.07c-.16.45,0,.92.34,1.2-.43.1-.78.46-.85.92v.07c-.07.47.17.9.56,1.11-.4.19-.67.6-.64,1.07v.07c.04.47.36.84.79.97-.36.26-.54.73-.41,1.18l.02.07c.13.46.53.75.97.79-.3.34-.37.83-.15,1.25l.03.06c.23.42.68.62,1.12.56-.22.4-.18.91.14,1.27l.03.03c.31.36.8.47,1.22.32-.11.43.04.91.43,1.18l.06.04c.39.28.89.25,1.26-.01-.01.46.26.89.71,1.07l.07.03c.45.17.93.02,1.22-.33.11.44.49.79.97.84h.07s.04.01.07.01c.45.01.85-.25,1.03-.65.22.4.68.65,1.16.57,0,0,.06,0,.06,0,.48-.08.81-.46.88-.91.31.33.81.45,1.25.26l.08-.03c.43-.2.67-.64.63-1.09.39.24.9.22,1.27-.08l.05-.04c.38-.3.49-.79.34-1.21.43.15.93.01,1.23-.37l.03-.04c.29-.37.31-.87.08-1.25.44.04.88-.21,1.09-.63l.02-.04c.2-.42.12-.91-.19-1.24.43-.06.81-.38.92-.83l.02-.07c.11-.46-.09-.91-.46-1.16.42-.14.73-.53.75-1v-.1s0-.01,0-.01Z"/>
            <g>
              <g>
                <polyline class="cls-5" points="152.5 96.76 144.18 93.15 144.18 89.51 138.04 89.51 138.04 93.15 129.69 96.81"/>
                <polygon class="cls-5" points="141.11 95.64 144.18 93.15 144.18 89.51 138.04 89.51 138.04 93.15 141.11 95.64"/>
                <polygon class="cls-5" points="141.11 95.64 138.94 97.42 136.93 93.61 138.04 92.64 141.11 95.64"/>
                <polygon class="cls-5" points="141.11 95.64 143.28 97.42 145.29 93.61 144.18 92.64 141.11 95.64"/>
                <polyline class="cls-6" points="142.52 96.8 141.86 98.19 141.11 98.19 140.36 98.19 139.7 96.8"/>
                <line class="cls-6" x1="142.38" y1="102.02" x2="141.86" y2="98.19"/>
                <line class="cls-6" x1="140.36" y1="98.19" x2="139.84" y2="102.02"/>
              </g>
              <path class="cls-5" d="m146.14,83.52c0,3.61,0-1.21,0,2.4-.13,2.89-2.37,5.7-5.02,5.68-2.63-.02-4.82-2.82-4.95-5.68,0-3.61,0,.65,0-2.96"/>
              <path class="cls-5" d="m136.18,82.97s2.18-1.19,2.85-3.24c0,0,2.14,3.49,7.12,3.8"/>
            </g>
          </g>
        </g>
        <g>
          <path class="cls-3" d="m55.09,62.82c8.46,0,15.35,6.82,15.43,15.29.07,8.14-6.17,14.87-14.16,15.52-.37.03-.75.05-1.13.05-.05,0-.11,0-.16,0-.42,0-.83-.02-1.24-.05-7.87-.64-14.09-7.19-14.16-15.24-.08-8.52,6.77-15.49,15.29-15.57.05,0,.09,0,.14,0m0-1.5h-.16c-9.33.09-16.86,7.75-16.78,17.09.08,8.82,6.76,16.01,15.54,16.72.46.04.92.06,1.37.06h.18c.42,0,.84-.02,1.24-.06,8.78-.71,15.61-8.19,15.53-17.02-.08-9.25-7.68-16.78-16.93-16.78h0Z"/>
          <g>
            <path class="cls-4" d="m64.56,77.74c.01-.47-.26-.88-.67-1.05.38-.23.59-.68.51-1.14v-.05c-.09-.46-.45-.81-.88-.9.32-.3.44-.77.27-1.21l-.03-.07c-.18-.44-.6-.69-1.05-.68.26-.37.28-.88,0-1.28l-.03-.04c-.27-.39-.75-.56-1.19-.45.17-.42.06-.93-.29-1.25,0,0-.02-.02-.02-.02-.35-.32-.85-.37-1.25-.17.06-.44-.16-.9-.58-1.12l-.05-.03c-.42-.23-.93-.15-1.27.15-.06-.45-.39-.84-.85-.95,0,0-.05-.01-.06-.01-.47-.11-.92.11-1.16.5-.16-.42-.57-.73-1.05-.72h-.09c-.48.02-.87.34-1,.78-.27-.36-.75-.54-1.21-.4l-.07.02c-.46.15-.74.56-.76,1.01-.36-.29-.87-.33-1.28-.08l-.04.02c-.41.25-.6.72-.51,1.16-.41-.18-.91-.1-1.24.24l-.04.04c-.33.34-.4.83-.22,1.24-.44-.08-.89.11-1.14.5l-.04.06c-.25.41-.2.89.08,1.24-.44,0-.86.29-1.02.73l-.02.07c-.16.45,0,.92.34,1.2-.43.1-.78.46-.85.92v.07c-.07.47.17.9.56,1.11-.4.19-.67.6-.64,1.07v.07c.04.47.36.84.79.97-.36.26-.54.73-.41,1.18l.02.07c.13.46.53.75.97.79-.3.34-.37.83-.15,1.25l.03.06c.23.42.68.62,1.12.56-.22.4-.18.91.14,1.27l.03.03c.31.36.8.47,1.22.32-.11.43.04.91.43,1.18l.06.04c.39.28.89.25,1.26-.01-.01.46.26.89.71,1.07l.07.03c.45.17.93.02,1.22-.33.11.44.49.79.97.84h.07s.04.01.07.01c.45.01.85-.25,1.03-.65.22.4.68.65,1.16.57,0,0,.06,0,.06,0,.48-.08.81-.46.88-.91.31.33.81.45,1.25.26l.08-.03c.43-.2.67-.64.63-1.09.39.24.9.22,1.27-.08l.05-.04c.38-.3.49-.79.34-1.21.43.15.93.01,1.23-.37l.03-.04c.29-.37.31-.87.08-1.25.44.04.88-.21,1.09-.63l.02-.04c.2-.42.12-.91-.19-1.24.43-.06.81-.38.92-.83l.02-.07c.11-.46-.09-.91-.46-1.16.42-.14.73-.53.75-1v-.1s0-.01,0-.01Z"/>
            <g>
              <g>
                <polyline class="cls-5" points="66.47 88.37 58.15 84.76 58.15 81.12 52.02 81.12 52.02 84.76 43.67 88.42"/>
                <polygon class="cls-5" points="55.08 87.25 58.15 84.76 58.15 81.12 52.02 81.12 52.02 84.76 55.08 87.25"/>
                <polygon class="cls-5" points="55.08 87.25 52.91 89.03 50.9 85.22 52.02 84.25 55.08 87.25"/>
                <polygon class="cls-5" points="55.08 87.25 57.25 89.03 59.26 85.22 58.15 84.25 55.08 87.25"/>
                <polyline class="cls-6" points="56.5 88.41 55.83 89.81 55.08 89.81 54.33 89.81 53.67 88.41"/>
                <line class="cls-6" x1="56.35" y1="93.63" x2="55.83" y2="89.81"/>
                <line class="cls-6" x1="54.33" y1="89.81" x2="53.82" y2="93.63"/>
              </g>
              <path class="cls-5" d="m60.12,75.13c0,3.61,0-1.21,0,2.4-.13,2.89-2.37,5.7-5.02,5.68-2.63-.02-4.82-2.82-4.95-5.68,0-3.61,0,.65,0-2.96"/>
              <path class="cls-5" d="m50.15,74.58s2.18-1.19,2.85-3.24c0,0,2.14,3.49,7.12,3.8"/>
            </g>
          </g>
        </g>
        <g>
          <line class="cls-6" x1="80.73" y1="39.36" x2="87.51" y2="53.77"/>
          <polygon points="79.84 51.89 80.4 50.49 87.27 53.25 89.52 46.2 90.95 46.66 88.2 55.24 79.84 51.89"/>
        </g>
        <g>
          <line class="cls-6" x1="67.45" y1="39.36" x2="60.67" y2="53.77"/>
          <polygon points="57.24 46.66 58.67 46.2 60.91 53.25 67.78 50.49 68.34 51.88 59.98 55.24 57.24 46.66"/>
        </g>
        <g>
          <line class="cls-6" x1="53.82" y1="32.73" x2="41.81" y2="43.19"/>
          <polygon points="41.53 35.3 43.02 35.45 42.24 42.81 49.64 43.05 49.59 44.55 40.58 44.25 41.53 35.3"/>
        </g>
        <g>
          <line class="cls-6" x1="91.5" y1="32.73" x2="103.51" y2="43.19"/>
          <polygon points="95.73 44.55 95.68 43.05 103.07 42.81 102.3 35.45 103.79 35.3 104.73 44.26 95.73 44.55"/>
        </g>
        <g>
          <polygon class="cls-1" points="137.13 57.28 130.84 56.2 130.84 51.41 134.72 51.74 135.76 55.25 137.13 57.28"/>
          <path class="cls-2" d="m132.59,50.75c.73-.27,1.73.07,2.44,1.25.53.89.56,2.55.67,2.89.22.68.95,1.45,2.44,1.13,0,0-.12,1.12-.96,1.28"/>
          <path class="cls-2" d="m134.42,45c0,2.67-2.16,4.83-4.83,4.83s-4.83-2.16-4.83-4.83,2.16-4.87,4.83-4.87,4.83,2.2,4.83,4.87Z"/>
          <g>
            <path class="cls-5" d="m139.87,59.33c-.13-.69-.63-1.28-1.32-1.56l-6.61-2.22v-3.3h-4.71v3.3l-6.61,2.22c-.69.28-1.19.87-1.32,1.56"/>
            <path class="cls-5" d="m134.16,45.93c0,3.31,0-.61,0,2.7-.12,2.65-2.17,5.23-4.6,5.21-2.41-.02-4.42-2.58-4.54-5.21,0-3.31,0,.67,0-2.64l4.22-.05c1.04-.01,1.95-.7,2.25-1.69l.11-.37.03.14c.24,1.19,1.33,2.01,2.54,1.9h0Z"/>
            <path class="cls-5" d="m124.03,56.75s1.76,2.43,5.56,2.43,5.56-2.43,5.56-2.43"/>
          </g>
        </g>
        <g>
          <polygon class="cls-1" points="21.73 113.63 15.43 112.54 15.43 107.76 19.32 108.09 20.36 111.6 21.73 113.63"/>
          <path class="cls-2" d="m17.19,107.1c.73-.27,1.73.07,2.44,1.25.53.89.56,2.55.67,2.89.22.68.95,1.45,2.44,1.13,0,0-.12,1.12-.96,1.28"/>
          <path class="cls-2" d="m19.02,101.34c0,2.67-2.16,4.83-4.83,4.83s-4.83-2.16-4.83-4.83,2.16-4.87,4.83-4.87,4.83,2.2,4.83,4.87Z"/>
          <g>
            <path class="cls-5" d="m24.47,115.68c-.13-.69-.63-1.28-1.32-1.56l-6.61-2.22v-3.3h-4.71v3.3l-6.61,2.22c-.69.28-1.19.87-1.32,1.56"/>
            <path class="cls-5" d="m18.76,102.27c0,3.31,0-.61,0,2.7-.12,2.65-2.17,5.23-4.6,5.21-2.41-.02-4.42-2.58-4.54-5.21,0-3.31,0,.67,0-2.64l4.22-.05c1.04-.01,1.95-.7,2.25-1.69l.11-.37.03.14c.24,1.19,1.33,2.01,2.54,1.9h0Z"/>
            <path class="cls-5" d="m8.62,113.09s1.76,2.43,5.56,2.43,5.56-2.43,5.56-2.43"/>
          </g>
        </g>
        <g>
          <g>
            <polygon class="cls-1" points="24.47 66.83 18.17 65.74 18.17 60.96 22.06 61.29 23.1 64.79 24.47 66.83"/>
            <path class="cls-2" d="m19.93,60.3c.73-.27,1.73.07,2.44,1.25.53.89.56,2.55.67,2.89.22.68.95,1.45,2.44,1.13,0,0-.12,1.12-.96,1.28"/>
            <path class="cls-2" d="m21.76,54.54c0,2.67-2.16,4.83-4.83,4.83s-4.83-2.16-4.83-4.83,2.16-4.87,4.83-4.87,4.83,2.2,4.83,4.87Z"/>
            <g>
              <path class="cls-5" d="m27.21,68.87c-.13-.69-.63-1.28-1.32-1.56l-6.61-2.22v-3.3h-4.71v3.3l-6.61,2.22c-.69.28-1.19.87-1.32,1.56"/>
              <path class="cls-5" d="m21.5,55.47c0,3.31,0-.61,0,2.7-.12,2.65-2.17,5.23-4.6,5.21-2.41-.02-4.42-2.58-4.54-5.21,0-3.31,0,.67,0-2.64l4.22-.05c1.04-.01,1.95-.7,2.25-1.69l.11-.37.03.14c.24,1.19,1.33,2.01,2.54,1.9h0Z"/>
              <path class="cls-5" d="m11.37,66.29s1.76,2.43,5.56,2.43,5.56-2.43,5.56-2.43"/>
            </g>
          </g>
          <path class="cls-3" d="m16.93,41.88c8.46,0,15.35,6.82,15.43,15.29.07,8.14-6.17,14.87-14.16,15.52-.37.03-.75.05-1.13.05-.05,0-.11,0-.16,0-.42,0-.83-.02-1.24-.05-7.87-.64-14.09-7.19-14.16-15.24-.08-8.52,6.77-15.49,15.29-15.57.05,0,.1,0,.14,0m0-1.5v1.5-1.5h-.16C7.44,40.46-.08,48.13,0,57.46c.08,8.82,6.76,16.01,15.54,16.72.46.04.92.06,1.37.06h.18c.42,0,.84-.02,1.24-.06,8.78-.71,15.61-8.19,15.53-17.02-.08-9.25-7.68-16.78-16.93-16.78h0Z"/>
        </g>
        <g>
          <g>
            <polygon class="cls-1" points="113.12 119.48 106.82 118.39 106.82 113.6 110.71 113.94 111.75 117.44 113.12 119.48"/>
            <path class="cls-2" d="m108.58,112.94c.73-.27,1.73.07,2.44,1.25.53.89.56,2.55.67,2.89.22.68.95,1.45,2.44,1.13,0,0-.12,1.12-.96,1.28"/>
            <path class="cls-2" d="m110.41,107.19c0,2.67-2.16,4.83-4.83,4.83s-4.83-2.16-4.83-4.83,2.16-4.87,4.83-4.87,4.83,2.2,4.83,4.87Z"/>
            <g>
              <path class="cls-5" d="m115.86,121.52c-.13-.69-.63-1.28-1.32-1.56l-6.61-2.22v-3.3h-4.71v3.3l-6.61,2.22c-.69.28-1.19.87-1.32,1.56"/>
              <path class="cls-5" d="m110.15,108.12c0,3.31,0-.61,0,2.7-.12,2.65-2.17,5.23-4.6,5.21-2.41-.02-4.42-2.58-4.54-5.21,0-3.31,0,.67,0-2.64l4.22-.05c1.04-.01,1.95-.7,2.25-1.69l.11-.37.03.14c.24,1.19,1.33,2.01,2.54,1.9h0Z"/>
              <path class="cls-5" d="m100.01,118.94s1.76,2.43,5.56,2.43,5.56-2.43,5.56-2.43"/>
            </g>
          </g>
          <path class="cls-3" d="m105.58,94.52c8.46,0,15.35,6.82,15.43,15.29.07,8.14-6.17,14.87-14.16,15.52-.37.03-.75.05-1.13.05-.05,0-.11,0-.16,0-.42,0-.83-.02-1.24-.05-7.87-.64-14.09-7.19-14.16-15.24-.08-8.52,6.77-15.49,15.29-15.57.05,0,.1,0,.14,0m0-1.5v1.5-1.5h-.16c-9.33.09-16.86,7.75-16.78,17.09.08,8.82,6.76,16.01,15.54,16.72.46.04.92.06,1.37.06h.18c.42,0,.84-.02,1.24-.06,8.78-.71,15.61-8.19,15.53-17.02-.08-9.25-7.68-16.78-16.93-16.78h0Z"/>
        </g>
      </g>
      <g>
        <path class="cls-4" d="m108.99,71.8c.01-.47-.26-.88-.67-1.05.38-.23.59-.68.51-1.14v-.05c-.09-.46-.45-.81-.88-.9.32-.3.44-.77.27-1.21l-.03-.07c-.18-.44-.6-.69-1.05-.68.26-.37.28-.88,0-1.28l-.03-.04c-.27-.39-.75-.56-1.19-.45.17-.42.06-.93-.29-1.25,0,0-.02-.02-.02-.02-.35-.32-.85-.37-1.25-.17.06-.44-.16-.9-.58-1.12l-.05-.03c-.42-.23-.93-.15-1.27.15-.06-.45-.39-.84-.85-.95,0,0-.05-.01-.06-.01-.47-.11-.92.11-1.16.5-.16-.42-.57-.73-1.05-.72h-.09c-.48.02-.87.34-1,.78-.27-.36-.75-.54-1.21-.4l-.07.02c-.46.15-.74.56-.76,1.01-.36-.29-.87-.33-1.28-.08l-.04.02c-.41.25-.6.72-.51,1.16-.41-.18-.91-.1-1.24.24l-.04.04c-.33.34-.4.83-.22,1.24-.44-.08-.89.11-1.14.5l-.04.06c-.25.41-.2.89.08,1.24-.44,0-.86.29-1.02.73l-.02.07c-.16.45,0,.92.34,1.2-.43.1-.78.46-.85.92v.07c-.07.47.17.9.56,1.11-.4.19-.67.6-.64,1.07v.07c.04.47.36.84.79.97-.36.26-.54.73-.41,1.18l.02.07c.13.46.53.75.97.79-.3.34-.37.83-.15,1.25l.03.06c.23.42.68.62,1.12.56-.22.4-.18.91.14,1.27l.03.03c.31.36.8.47,1.22.32-.11.43.04.91.43,1.18l.06.04c.39.28.89.25,1.26-.01-.01.46.26.89.71,1.07l.07.03c.45.17.93.02,1.22-.33.11.44.49.79.97.84h.07s.04.01.07.01c.45.01.85-.25,1.03-.65.22.4.68.65,1.16.57,0,0,.06,0,.06,0,.48-.08.81-.46.88-.91.31.33.81.45,1.25.26l.08-.03c.43-.2.67-.64.63-1.09.39.24.9.22,1.27-.08l.05-.04c.38-.3.49-.79.34-1.21.43.15.93.01,1.23-.37l.03-.04c.29-.37.31-.87.08-1.25.44.04.88-.21,1.09-.63l.02-.04c.2-.42.12-.91-.19-1.24.43-.06.81-.38.92-.83l.02-.07c.11-.46-.09-.91-.46-1.16.42-.14.73-.53.75-1v-.1s0-.01,0-.01Z"/>
        <g>
          <g>
            <polyline class="cls-5" points="110.9 82.43 102.58 78.83 102.58 75.19 96.44 75.19 96.44 78.83 88.1 82.49"/>
            <polygon class="cls-5" points="99.51 81.31 102.58 78.83 102.58 75.19 96.44 75.19 96.44 78.83 99.51 81.31"/>
            <polygon class="cls-5" points="99.51 81.31 97.34 83.1 95.33 79.29 96.44 78.31 99.51 81.31"/>
            <polygon class="cls-5" points="99.51 81.31 101.68 83.1 103.69 79.29 102.58 78.31 99.51 81.31"/>
            <polyline class="cls-6" points="100.92 82.47 100.26 83.87 99.51 83.87 98.76 83.87 98.1 82.47"/>
            <line class="cls-6" x1="100.78" y1="87.69" x2="100.26" y2="83.87"/>
            <line class="cls-6" x1="98.76" y1="83.87" x2="98.25" y2="87.69"/>
          </g>
          <path class="cls-5" d="m104.55,69.19c0,3.61,0-1.21,0,2.4-.13,2.89-2.37,5.7-5.02,5.68-2.63-.02-4.82-2.82-4.95-5.68,0-3.61,0,.65,0-2.96"/>
          <path class="cls-5" d="m94.58,68.65s2.18-1.19,2.85-3.24c0,0,2.14,3.49,7.12,3.8"/>
        </g>
      </g>
      <g>
        <path class="cls-4" d="m67.14,118.66c.01-.47-.26-.88-.67-1.05.38-.23.59-.68.51-1.14v-.05c-.09-.46-.45-.81-.88-.9.32-.3.44-.77.27-1.21l-.03-.07c-.18-.44-.6-.69-1.05-.68.26-.37.28-.88,0-1.28l-.03-.04c-.27-.39-.75-.56-1.19-.45.17-.42.06-.93-.29-1.25,0,0-.02-.02-.02-.02-.35-.32-.85-.37-1.25-.17.06-.44-.16-.9-.58-1.12l-.05-.03c-.42-.23-.93-.15-1.27.15-.06-.45-.39-.84-.85-.95,0,0-.05-.01-.06-.01-.47-.11-.92.11-1.16.5-.16-.42-.57-.73-1.05-.72h-.09c-.48.02-.87.34-1,.78-.27-.36-.75-.54-1.21-.4l-.07.02c-.46.15-.74.56-.76,1.01-.36-.29-.87-.33-1.28-.08l-.04.02c-.41.25-.6.72-.51,1.16-.41-.18-.91-.1-1.24.24l-.04.04c-.33.34-.4.83-.22,1.24-.44-.08-.89.11-1.14.5l-.04.06c-.25.41-.2.89.08,1.24-.44,0-.86.29-1.02.73l-.02.07c-.16.45,0,.92.34,1.2-.43.1-.78.46-.85.92v.07c-.07.47.17.9.56,1.11-.4.19-.67.6-.64,1.07v.07c.04.47.36.84.79.97-.36.26-.54.73-.41,1.18l.02.07c.13.46.53.75.97.79-.3.34-.37.83-.15,1.25l.03.06c.23.42.68.62,1.12.56-.22.4-.18.91.14,1.27l.03.03c.31.36.8.47,1.22.32-.11.43.04.91.43,1.18l.06.04c.39.28.89.25,1.26-.01-.01.46.26.89.71,1.07l.07.03c.45.17.93.02,1.22-.33.11.44.49.79.97.84h.07s.04.01.07.01c.45.01.85-.25,1.03-.65.22.4.68.65,1.16.57,0,0,.06,0,.06,0,.48-.08.81-.46.88-.91.31.33.81.45,1.25.26l.08-.03c.43-.2.67-.64.63-1.09.39.24.9.22,1.27-.08l.05-.04c.38-.3.49-.79.34-1.21.43.15.93.01,1.23-.37l.03-.04c.29-.37.31-.87.08-1.25.44.04.88-.21,1.09-.63l.02-.04c.2-.42.12-.91-.19-1.24.43-.06.81-.38.92-.83l.02-.07c.11-.46-.09-.91-.46-1.16.42-.14.73-.53.75-1v-.1s0-.01,0-.01Z"/>
        <g>
          <g>
            <polyline class="cls-5" points="69.05 129.3 60.73 125.69 60.73 122.05 54.59 122.05 54.59 125.69 46.24 129.35"/>
            <polygon class="cls-5" points="57.66 128.18 60.73 125.69 60.73 122.05 54.59 122.05 54.59 125.69 57.66 128.18"/>
            <polygon class="cls-5" points="57.66 128.18 55.49 129.96 53.48 126.15 54.59 125.18 57.66 128.18"/>
            <polygon class="cls-5" points="57.66 128.18 59.83 129.96 61.84 126.15 60.73 125.18 57.66 128.18"/>
            <polyline class="cls-6" points="59.07 129.34 58.41 130.73 57.66 130.73 56.91 130.73 56.25 129.34"/>
            <line class="cls-6" x1="58.93" y1="134.56" x2="58.41" y2="130.73"/>
            <line class="cls-6" x1="56.91" y1="130.73" x2="56.39" y2="134.56"/>
          </g>
          <path class="cls-5" d="m62.69,116.06c0,3.61,0-1.21,0,2.4-.13,2.89-2.37,5.7-5.02,5.68-2.63-.02-4.82-2.82-4.95-5.68,0-3.61,0,.65,0-2.96"/>
          <path class="cls-5" d="m52.73,115.51s2.18-1.19,2.85-3.24c0,0,2.14,3.49,7.12,3.8"/>
        </g>
      </g>
    </g>
  </g>
</svg>