<?xml version="1.0" encoding="UTF-8"?>
<svg xmlns="http://www.w3.org/2000/svg" xmlns:xlink="http://www.w3.org/1999/xlink" viewBox="0 0 255.32 161.25">
  <defs>
    <style>
      .cls-1, .cls-2, .cls-3, .cls-4, .cls-5, .cls-6 {
        fill: none;
      }

      .cls-7, .cls-2 {
        stroke: #666;
        stroke-linejoin: round;
      }

      .cls-7, .cls-2, .cls-3, .cls-4, .cls-8, .cls-9, .cls-5, .cls-6 {
        stroke-linecap: round;
      }

      .cls-7, .cls-10 {
        fill: #fff;
      }

      .cls-11 {
        clip-path: url(#clippath);
      }

      .cls-12 {
        fill: #f1f1f1;
      }

      .cls-13 {
        fill: #e5e6e7;
      }

      .cls-14 {
        fill: #919193;
      }

      .cls-15 {
        fill: #b4b4b6;
      }

      .cls-16 {
        fill: #ba0c2f;
      }

      .cls-17 {
        fill: #babbbd;
      }

      .cls-18 {
        fill: #b9ad86;
      }

      .cls-19 {
        fill: #a89968;
      }

      .cls-20 {
        fill: #a6a6a9;
      }

      .cls-21, .cls-9, .cls-22 {
        fill: #d8d9d9;
      }

      .cls-23, .cls-8 {
        fill: #d0d1d1;
      }

      .cls-24 {
        fill: #d1d2d2;
      }

      .cls-25 {
        fill: #d66d82;
      }

      .cls-26 {
        fill: #c7af8b;
      }

      .cls-27 {
        fill: #c7bd9e;
      }

      .cls-28 {
        fill: #1a1a1a;
      }

      .cls-29 {
        fill: #6d6e71;
      }

      .cls-30 {
        fill: #808285;
      }

      .cls-31 {
        fill: #808083;
      }

      .cls-32 {
        fill: #808082;
      }

      .cls-33 {
        fill: #59595b;
      }

      .cls-34 {
        fill: #313131;
      }

      .cls-3 {
        stroke: #5a595c;
      }

      .cls-3, .cls-4, .cls-8, .cls-9, .cls-5, .cls-6 {
        stroke-miterlimit: 10;
      }

      .cls-4, .cls-8 {
        stroke: #909294;
      }

      .cls-9 {
        stroke: #a0a2a4;
      }

      .cls-35 {
        clip-path: url(#clippath-1);
      }

      .cls-36 {
        fill: #784559;
        mix-blend-mode: multiply;
        opacity: .4;
      }

      .cls-5 {
        stroke: #fff;
        stroke-width: .64px;
      }

      .cls-37 {
        isolation: isolate;
      }

      .cls-6 {
        stroke: #5b5a5d;
        stroke-width: .65px;
      }

      .cls-22 {
        opacity: .25;
      }
    </style>
    <clipPath id="clippath">
      <path class="cls-1" d="m6.98,0h248.34v142.5H0V6.98C0,3.13,3.13,0,6.98,0Z"/>
    </clipPath>
    <clipPath id="clippath-1">
      <rect class="cls-1" x="38.98" y="14.29" width="168.91" height="127.85" rx="27.27" ry="27.27"/>
    </clipPath>
  </defs>
  <g class="cls-37">
    <g id="Layer_2" data-name="Layer 2">
      <g id="Content">
        <g>
          <g class="cls-11">
            <rect class="cls-12" x="38.98" y="14.29" width="168.91" height="127.85" rx="27.27" ry="27.27"/>
            <g class="cls-35">
              <g>
                <g>
                  <g>
                    <polygon class="cls-7" points="170.43 160.26 172.82 160.75 181.97 118.87 178.62 118.17 170.43 160.26"/>
                    <polygon class="cls-7" points="200.01 160.26 197.62 160.75 188.47 118.87 191.81 118.17 200.01 160.26"/>
                    <polygon class="cls-7" points="193.38 160.26 195.77 160.75 204.92 118.87 201.57 118.17 193.38 160.26"/>
                    <polygon class="cls-7" points="222.96 160.26 220.57 160.75 211.42 118.87 214.76 118.17 222.96 160.26"/>
                    <g>
                      <path class="cls-10" d="m216,110.2c.64,3.97-3.81,7.78-9.89,8.47l-5.92.67c-6.08.69-11.6-2.71-12.27-7.55s-.04-13.67,1.41-19.6l2.07-8.47c1.45-5.94,6.37-11.78,10.92-12.97s9.79-2.17,11.63-2.17,2.99,4.99,2.56,11.09l-.87,12.24c-.43,6.1-.27,14.34.37,18.3Z"/>
                      <path class="cls-2" d="m216,110.2c.64,3.97-3.81,7.78-9.89,8.47l-5.92.67c-6.08.69-11.6-2.71-12.27-7.55s-.04-13.67,1.41-19.6l2.07-8.47c1.45-5.94,6.37-11.78,10.92-12.97s9.79-2.17,11.63-2.17,2.99,4.99,2.56,11.09l-.87,12.24c-.43,6.1-.27,14.34.37,18.3Z"/>
                    </g>
                    <g>
                      <path class="cls-10" d="m212.47,111.79c.67,4.84-3.78,8.81-9.89,8.81h-5.43c-6.11,0-11.67-3.96-12.34-8.81s-.18-13.7,1.1-19.68l2.71-12.67c1.28-5.98,7.32-10.87,13.44-10.87h.53c6.11,0,10.76,4.99,10.33,11.09l-.87,12.24c-.43,6.1-.24,15.05.44,19.89Z"/>
                      <path class="cls-2" d="m212.47,111.79c.67,4.84-3.78,8.81-9.89,8.81h-5.43c-6.11,0-11.67-3.96-12.34-8.81s-.18-13.7,1.1-19.68l2.71-12.67c1.28-5.98,7.32-10.87,13.44-10.87h.53c6.11,0,10.76,4.99,10.33,11.09l-.87,12.24c-.43,6.1-.24,15.05.44,19.89Z"/>
                    </g>
                    <rect class="cls-7" x="169.06" y="114.47" width="48.11" height="5.97" rx=".95" ry=".95"/>
                    <rect class="cls-7" x="186.7" y="114.47" width="30.46" height="5.97" rx=".99" ry=".99"/>
                  </g>
                  <g>
                    <path class="cls-23" d="m163.08,58.06s.31-4.03-.84-6.67c0,0-1.36,1.1-2.07.28-.56-.65-3.28-.29-4.38,1.69-.51.91-.31,2.16.46,3.03.85.96,2.23,2.39,3.43,3.29l3.41-1.61Z"/>
                    <g>
                      <ellipse class="cls-23" cx="161.35" cy="51.85" rx="1.03" ry="1.02" transform="translate(-6.45 75.65) rotate(-25.89)"/>
                      <path class="cls-23" d="m159.82,49.85s.31.55.54,2.31l1.87-.82s-1.23-2.01-2.02-3.34c-.15-.25-.52-.2-.6.07h0c-.15.46-.13.96.05,1.41l.16.38Z"/>
                    </g>
                    <g>
                      <g>
                        <path class="cls-23" d="m152.69,50.65c-.08-.22.09-.44.33-.42h0c.48.04.9.33,1.11.77s.49,1.05.77,1.66l-1.25.61-.96-2.6Z"/>
                        <circle class="cls-23" cx="154.3" cy="53" r=".69" transform="translate(-7.66 72.69) rotate(-25.89)"/>
                      </g>
                      <g>
                        <g>
                          <circle class="cls-23" cx="156.4" cy="55.18" r=".79" transform="translate(-8.4 73.83) rotate(-25.89)"/>
                          <path class="cls-23" d="m153.79,53.48l2.03,2.23,1.15-1.07s-1.14-1.13-2.26-2.19l-.93,1.03Z"/>
                        </g>
                        <circle class="cls-23" cx="154.3" cy="53" r=".69" transform="translate(-7.66 72.69) rotate(-25.89)"/>
                      </g>
                    </g>
                    <g>
                      <g>
                        <path class="cls-23" d="m153.37,46.21c-.09-.21.07-.44.3-.43h0c.48.02.91.29,1.12.72.56,1.12,1.56,3.24,1.96,4l-1.21.67-2.16-4.96Z"/>
                        <circle class="cls-23" cx="156.17" cy="50.88" r=".69" transform="translate(-6.54 73.3) rotate(-25.89)"/>
                      </g>
                      <g>
                        <g>
                          <circle class="cls-23" cx="158.31" cy="53.02" r=".79" transform="translate(-7.26 74.44) rotate(-25.89)"/>
                          <path class="cls-23" d="m155.67,51.37l2.07,2.2,1.14-1.09s-1.16-1.11-2.29-2.15l-.91,1.04Z"/>
                        </g>
                        <circle class="cls-23" cx="156.17" cy="50.88" r=".69" transform="translate(-6.54 73.3) rotate(-25.89)"/>
                      </g>
                    </g>
                    <g>
                      <g>
                        <path class="cls-23" d="m158.03,49.83l-1.25.61-1.77-4.71c-.08-.21.09-.44.32-.42l.18.02c.36.03.68.26.83.59.45,1.01,1.32,3.1,1.68,3.92Z"/>
                        <circle class="cls-23" cx="157.43" cy="50.19" r=".69" transform="translate(-6.11 73.78) rotate(-25.89)"/>
                      </g>
                      <g>
                        <g>
                          <circle class="cls-23" cx="159.64" cy="52.25" r=".79" transform="translate(-6.79 74.95) rotate(-25.89)"/>
                          <path class="cls-23" d="m156.95,50.69l2.15,2.12,1.1-1.13s-1.2-1.07-2.37-2.07l-.88,1.07Z"/>
                        </g>
                        <circle class="cls-23" cx="157.43" cy="50.19" r=".69" transform="translate(-6.11 73.78) rotate(-25.89)"/>
                      </g>
                    </g>
                    <g>
                      <g>
                        <circle class="cls-23" cx="154.82" cy="51.55" r=".69" transform="translate(-6.97 72.78) rotate(-25.89)"/>
                        <g>
                          <g>
                            <circle class="cls-23" cx="156.96" cy="53.69" r=".79" transform="translate(-7.69 73.92) rotate(-25.89)"/>
                            <path class="cls-23" d="m154.32,52.04l2.07,2.2,1.14-1.09s-1.16-1.11-2.29-2.15l-.91,1.04Z"/>
                          </g>
                          <circle class="cls-23" cx="154.82" cy="51.55" r=".69" transform="translate(-6.97 72.78) rotate(-25.89)"/>
                        </g>
                      </g>
                      <path class="cls-23" d="m152.4,48.08c-.09-.2.05-.42.27-.42h0c.5,0,.95.27,1.2.7.45.81,1.14,2.09,1.52,2.78l-1.19.71-1.8-3.78Z"/>
                    </g>
                  </g>
                  <circle class="cls-23" cx="161.68" cy="59.27" r="2.06"/>
                  <path class="cls-13" d="m180.92,148.96c0,.07.23,4.7.23,4.7l5.26.38.39-5.08h-5.88Z"/>
                  <path class="cls-13" d="m161.87,148.18c0,.07-1.38,3.82-1.38,3.82,0,0,2.66,3.35,6.68,2.56l1.35-.86.17-4.97-6.81-.55Z"/>
                  <g>
                    <path class="cls-34" d="m161.5,109.59s-1.62,27.2-.64,40.2l8.12,1.12c1.37-5.44,2.88-17.66,3.17-21.92.54-8.07-.81-19.4-.81-19.4h-9.84Z"/>
                    <path class="cls-34" d="m195.52,96.67c-9.11-.21-30.59,7.51-30.59,7.51l.6,10.4c6.15,1.09,13.56.29,17.91.34,3.59.04,9.62-.29,12.58-.38l-.49-17.87Z"/>
                    <circle class="cls-34" cx="195.79" cy="105.56" r="8.94"/>
                    <circle class="cls-34" cx="166.67" cy="109.09" r="5.19"/>
                  </g>
                  <g>
                    <path class="cls-34" d="m174.12,109.47s4.26,28.64,6.77,41.45l6.63-.31c.72-5.56,1.33-18.26,1.7-22.09.77-8.05-4.7-18.69-4.7-18.69l-10.4-.35Z"/>
                    <path class="cls-34" d="m204.73,97.11c-8.04-.24-26.98,7.41-26.98,7.41l.57,10.4c5.43,1.11,11.97.34,15.81.4,3.17.05,7.16-.35,9.77-.43l.84-17.77Z"/>
                    <circle class="cls-34" cx="200.85" cy="106.03" r="8.94"/>
                    <circle class="cls-34" cx="179.3" cy="109.47" r="5.19"/>
                  </g>
                  <path class="cls-23" d="m206.85,57.23l-6.56-3.79-8.86,2.81-5.76,2.88s-1.73,9.21,0,15.1c.99,3.38,1.12,9.83,1.12,9.83h19.89c.84-2.65,1.88-4.51,2.46-10.2.63-6.11,2.17-15.16,2.17-15.16l-4.47-1.47Z"/>
                  <circle class="cls-23" cx="196.74" cy="84.06" r="9.94"/>
                  <g>
                    <path class="cls-23" d="m201.63,57.62s0,.08,0,.13c0,2.52-2.05,4.57-4.58,4.57-2.52,0-4.57-2.05-4.56-4.58,0-.04,0-.09,0-.13h0v-.05c.03-.38.08-.75.18-1.1.02-.05.03-.1.05-.15l.2-1.11.64-3.57.08-.42h0s6.86,0,6.86,0l.12.68.09.51.18,1.01.52,2.91c.13.4.2.81.22,1.25v.05s0,0,0,0Z"/>
                    <path class="cls-23" d="m200.51,51.21c0,1.89-1.54,3.43-3.43,3.42-1.89,0-3.43-1.54-3.43-3.43h0c0-.29.04-.57.1-.83.37-1.49,1.72-2.6,3.33-2.6,1.69,0,3.1,1.23,3.37,2.85.03.19.05.39.05.59Z"/>
                    <path class="cls-20" d="m200.72,52.4c-1.27,1.75-3.3,2.8-5.48,2.8h-2.31l.64-3.57.08-.42h0c0-.29.04-.57.1-.83l6.71.25c.03.19.05.39.05.59l.12.68.09.51Z"/>
                  </g>
                  <path class="cls-23" d="m213.78,60.01s3.97,3.39,8.14,8.23c2.18,2.53,5.36,4.26,7.49,6.99l-4.44,5.01c-1.28-.97-2.56-2.31-4.05-3.45-5.87-4.48-12.58-9.44-12.58-9.44l5.44-7.35Z"/>
                  <path class="cls-23" d="m219.28,82.7c-1.29,2.22-10.11,10.79-10.13,10.81l2.35,3.52s8.62-7.08,10.51-8.89c2.77-2.64,5.82-6.24,8.02-8.78l-5.04-4.12c-1.05.63-3.28,3.28-5.71,7.46Z"/>
                  <circle class="cls-23" cx="210.3" cy="63.09" r="4.56"/>
                  <circle class="cls-23" cx="226.79" cy="77.74" r="3.62"/>
                  <path class="cls-19" d="m210.21,91.84l4.03,4.11s14.55-12.56,15.78-16.58l-7.1-4.39c-1.05.63-12.69,16.84-12.72,16.86Z"/>
                  <path class="cls-19" d="m186.14,97.72s1.16,8.69,23.25,2.45l-.24-14.57h-22.43l-.59,12.12Z"/>
                  <path class="cls-19" d="m203.69,55.32l-8.7,2.19-3.36-1.39-6.1,3.05s-.61,9.52,0,16c.35,3.66,1.18,10.42,1.18,10.42h22.43s2.03-4.6,2.65-10.62c.66-6.48.92-16.25.92-16.25l-9.02-3.4Z"/>
                  <path class="cls-34" d="m188.57,39.64s-2.5,3.9.97,5.63l1.2,1.98,15.27-5.57c.89-1.79-.79-5.98-1.49-6.05l-15.96,4.02Z"/>
                  <circle class="cls-19" cx="211.32" cy="64.05" r="5.58"/>
                  <g>
                    <g>
                      <path class="cls-18" d="m196.34,58.04v38.62c-.8.02-1.61.02-2.42,0v-.38s-.17-38.25-.17-38.25l1.08-1.07.09-.09h.27l.08.08,1.09,1.08Z"/>
                      <g>
                        <path class="cls-27" d="m195.52,60.68c0,.25-.2.45-.44.45s-.44-.2-.44-.45.2-.45.44-.45.44.2.44.45Z"/>
                        <path class="cls-27" d="m195.52,66.47c0,.25-.2.45-.44.45s-.44-.2-.44-.45.2-.45.44-.45.44.2.44.45Z"/>
                        <path class="cls-27" d="m195.52,72.25c0,.25-.2.45-.44.45s-.44-.2-.44-.45.2-.45.44-.45.44.2.44.45Z"/>
                        <path class="cls-27" d="m195.52,78.04c0,.25-.2.45-.44.45s-.44-.2-.44-.45.2-.45.44-.45.44.2.44.45Z"/>
                        <path class="cls-27" d="m195.52,83.83c0,.25-.2.45-.44.45s-.44-.2-.44-.45.2-.45.44-.45.44.2.44.45Z"/>
                        <path class="cls-27" d="m195.52,89.62c0,.25-.2.45-.44.45s-.44-.2-.44-.45.2-.45.44-.45.44.2.44.45Z"/>
                      </g>
                    </g>
                    <g>
                      <polygon class="cls-27" points="193.2 53.91 191.29 56.1 192.67 60.45 195.05 56.8 193.2 53.91"/>
                      <polygon class="cls-27" points="200.68 52.49 203.69 55.32 197.15 61.25 195.05 56.8 200.68 52.49"/>
                    </g>
                  </g>
                  <g>
                    <path class="cls-17" d="m190.88,41.35s-2.71-.69-2.11,1.8c.73,3,2.84,2.64,2.84,2.64l-.74-4.45Z"/>
                    <path class="cls-23" d="m189.95,41.65s-.34,3.5-.02,5.16c.3,1.54,3.34,5.31,4.58,6.01.51.29,1.07.14,1.64,0,2.56-.65,6.26-4.16,6.55-5.7.09-.47,1.67-5.64,1.67-5.64h0c.03-.09.4-1.96.33-2.95-.29-3.8-3.41-6.81-7.19-6.98-4.33-.19-7.9,3.29-7.9,7.62,0,.05,0,.14,0,.26,0,.13,0,.3,0,.48,0,.66.32,1.68.34,1.75Z"/>
                    <path class="cls-23" d="m204.14,41.43s2.91-.77,2.31,1.73c-.73,3-3.43,2.8-3.43,2.8l1.13-4.53Z"/>
                    <path class="cls-10" d="m197.22,47.19s-.87.98-2,1.25c-.39.09-.79.09-1.18,0-1.13-.26-1.68-1.27-1.68-1.27.03,0,0,0,.03,0,0,0,1.41.04,2.42.03s2.43-.02,2.41-.02-.02,0,0,0Z"/>
                    <line class="cls-4" x1="194.46" y1="39.7" x2="194.04" y2="44.52"/>
                    <path class="cls-34" d="m192.32,46.04l.82-.21c1.07-.27,2.17-.27,3.24,0l.82.21c.54.14.96.69.96,1.35,0,.82-.46,1.52-.46,1.52.16-1.26-.96-1.7-.96-1.7h-1.97s-2.4,0-2.4,0c0,0-.68.44-.53,1.7,0,0-.46-.7-.46-1.52,0-.66.41-1.22.96-1.35Z"/>
                    <path class="cls-8" d="m193.4,45.15s.77.81,1.11.81,1.13-.81,1.13-.81"/>
                    <path class="cls-34" d="m200.89,40c.06.02.1-.07.06-.12-.25-.31-.84-.93-1.54-1.07s-1.77-.08-2.31-.03c-.27.02-.49.28-.49.6,0,0,0,0,0,.01,0,.25.14.36.26.41.09.04.19.04.28.03.39-.06,1.99-.32,2.27-.23.25.08,1.08.3,1.47.41Z"/>
                    <path class="cls-34" d="m189.61,39.9c.4-.11.9-.25,1.08-.3.29-.09,1.89.17,2.28.23.09.02.19.01.28-.03.12-.05.26-.16.26-.41h0c0-.33-.22-.59-.49-.61-.54-.05-1.62-.11-2.31.03-.42.09-.8.35-1.09.61,0,.13,0,.3,0,.48Z"/>
                    <g>
                      <ellipse class="cls-34" cx="198.23" cy="41.97" rx=".71" ry="1"/>
                      <path class="cls-34" d="m197.52,41.35c-.11-1.1,1.72-1.2,1.7-.09-.7.18-.84.26-1.7.09h0Z"/>
                      <ellipse class="cls-34" cx="191.62" cy="41.97" rx=".71" ry="1"/>
                      <path class="cls-34" d="m192.33,41.35c-.86.17-1,.09-1.7-.09-.02-1.11,1.81-1.02,1.7.09h0Z"/>
                    </g>
                    <path class="cls-34" d="m189.78,45.13v-.35s.34,3.3,1.64,4.48c.67.61,1.23.73,1.85.37.38-.21.76-.35,1.18-.37h.03c.42.03.82.18,1.2.39.63.36,2.1.43,3.33-.43,1.44-1.01,4.29-4.44,4.29-4.44,0,0-.61,3.14-.85,3.73-.69,1.67-2.15,2.74-3.5,3.68-2.13,1.48-4.29,1.39-4.29,1.39,0,0-1.33-.06-2.86-2.02-.86-1.1-1.43-2.39-1.73-3.75-.17-.76-.3-1.69-.3-2.68Z"/>
                  </g>
                  <g>
                    <path class="cls-34" d="m201.48,40.6c-.04-.15-.82-.25-1.52-.24-.7.01-1.35-.06-2.63.08,0,0-1.03.14-1.49.24-1.5.32-2.07.16-3.37-.13,0,0-.01,0-.02,0-.8-.18-1.4-.18-2.11-.19-.7-.01-1.3.14-1.34.29-.04.15-.07.65.09.74.16.09.3.04.51.87.22.84.15,1.49,1.2,1.86.93.33,1.53.23,2.17-.34.64-.57,1.08-2.09,1.17-2.36.03-.09.32-.13.55-.11.18.01.51.15.53.34l.02.22c.02.23.06.46.11.68.1.41.3.96.74,1.35.64.57,2.33.62,3.37.23,1.04-.39,1.17-1.08,1.39-1.91.22-.84.35-.79.51-.87.16-.09.14-.6.09-.74Zm-7.91,1.35c-.11.6-.35,1.39-.88,1.75-.53.37-.76.38-1.36.32-.89-.1-1.14-.63-1.29-1.19-.15-.56-.26-1.41-.09-1.79.16-.38,1.12-.46,1.87-.39.74.06.81.15,1.31.39.04.02.55.31.45.91Zm6.75.88c-.15.56-.42.98-1.29,1.19-.87.22-2.06.05-2.58-.32-.53-.37-.77-1.15-.88-1.75-.11-.6.41-.89.45-.91.5-.24,2.4-.33,3.14-.39.74-.06,1.09.01,1.26.39.16.38.05,1.23-.09,1.79Z"/>
                    <path class="cls-34" d="m201.02,40.68s2.37-.39,2.89-.38c.26,0,.42.13.51.26.08.11.1.26.08.4v.04c-.22.04-.42-.06-.57-.22-.04-.04-.09-.06-.15-.05-.22.04-2.85.54-2.85.54l.1-.59Z"/>
                  </g>
                  <path class="cls-34" d="m203.31,32.41c-1.06-1.63-3.44-1.71-3.47-1.71,0,0-1.96-1.89-5.59-1.83,0,0-6.48-1.06-5.93,5.96,0,0-1.31.62-.98,3.32.23,1.91,2.27,1.75,2.27,1.75,0,0,.12-.14.41-1.86.03-.18.06-.37.1-.58.04-.21.06-.43.08-.65.1-1.63,1.1-2.54,2.56-2.99,0,0,0,0,.01,0,.26-.08.53-.15.82-.2.58-.11,1.21-.17,1.86-.19.04,0,.88-.02,1.34-.02.05,0,.1,0,.15,0,0,0,.08,0,.22,0,.58.05,1.74.3,2.62.95,0,0-.32,3.75,1.71,5.64h0c.79,1.9,2.44,2.9,2.7,2.97,0,0,2.72-5.04-.88-10.57Z"/>
                  <path class="cls-34" d="m192.76,33.81c-1.47.46-2.47,1.37-2.57,3-.02.22-.04.44-.08.65-.03.21-.07.4-.1.58-.09-.7-.23-2.77.01-4.38.34-2.18,2.51-2.06,2.73.15Z"/>
                  <path class="cls-34" d="m199.83,34.1c-.01.1-.03.18-.07.26-.89-.64-2.04-.89-2.62-.95-.14,0-.22,0-.22,0-.04,0-.09,0-.15,0,.89-.84,1.71-.79,2.25-.58.52.2.88.72.81,1.28Z"/>
                  <path class="cls-19" d="m214.96,59.82s12.68,13.13,14.81,15.87l-5.24,4.88c-1.28-.97-16.2-12.24-16.2-12.24l6.63-8.51Z"/>
                  <circle class="cls-19" cx="226.16" cy="77.74" r="4.25"/>
                  <path class="cls-23" d="m211.73,94.02l-.99-.94-2,.33c-1.21-.26-1.81-.98-2.41-1.01-.6-.03-1.58-.55-1.58-.55-.46.88.69,1.65.69,1.65-.08,0-.17-.02-.25-.03-.21-.02-.41-.04-.62-.06-.26-.03-.52-.05-.79-.08-.25-.02-.51-.06-.76-.07-.2-.02-.39-.03-.59-.02-.21.01-.4.07-.59.13-.25.08-1.51.68-1.73.75-.1.03-.31.1-.31.1-.07.26-.06.54.09.75.27.39.86.32,1.16.24.22-.06.52-.2.73-.3.18-.09.13-.12.46-.12.19,0,.39.05.58.07.42.05.84.1,1.26.16.1.01.19.03.29.04,0,0-1.94.56-2.54.8-.45.18-1.62,1.56-1.62,1.56-.85.99.66,1.19.66,1.19-.07.09-.15.25-.14.37.01.1.09.18.16.24.12.1.27.14.42.17.27.06.55.06.81-.03.07-.03.15-.06.22-.1.07-.04.14-.08.2-.12.08-.05.17-.11.25-.17.25-.18.51-.36.74-.57.03-.03.09-.11.13-.12,0,0,1.53-.25,1.53-.25-.49.34-.93,1.33-1.59,1.83-.1.08-.2.16-.28.26-.07.1-.16.24-.12.38.03.13.16.16.25.19.31.09.63.05.94-.06.16-.05.31-.13.45-.23.11-.07.21-.15.3-.24.04-.04.08-.08.12-.13.83-1.13,1.82-1.76,3.22-1.2,2.02.8,3.24-2.22,3.24-2.22l.03-2.58Z"/>
                  <circle class="cls-19" cx="187.33" cy="64.33" r="5.58"/>
                  <path class="cls-19" d="m191.49,67.54s-14.28,11.38-17.21,13.24l-4.36-5.68c1.09-1.18,13.72-14.96,13.72-14.96l7.84,7.4Z"/>
                  <path class="cls-19" d="m163.7,57.55l-5.07,2.72s7.98,17.49,11.5,19.8l6.2-5.59c-.31-1.18-12.61-16.9-12.63-16.93Z"/>
                  <circle class="cls-19" cx="172.77" cy="76.81" r="4.25"/>
                  <path class="cls-36" d="m211,90.38c.06.06.1.09.12.11-.03-.04-.07-.07-.12-.11Z"/>
                  <path class="cls-36" d="m206.52,89.72h-.17c.05,0,.11,0,.17,0Z"/>
                  <g>
                    <path class="cls-34" d="m180.61,153.13c-.24.75-.68,1.19-1.43,1.95-.96.99-1.88,1.69-1.8,3.14.04.69.62.89,1.07.89h8.78c.5,0,1.09-.5,1.14-.93.12-1.06,0-1.43-.38-2.33-.32-.74-.7-1.42-1.42-2.62-3.51-.79-4.25-.53-5.96-.09Z"/>
                    <path class="cls-34" d="m181.67,156.08c-2.6,0-3.73.91-3.9,2.14h9.63c-.72-1.38-3.12-2.14-5.73-2.14Z"/>
                    <path class="cls-34" d="m184.17,156.93h-4.27s1.5-2.1,1.67-4.21c.11-1.36,3.3-1.39,3.19,0-.13,1.65-.59,4.21-.59,4.21Z"/>
                    <rect class="cls-34" x="177.21" y="158.19" width="11.38" height=".99" rx=".16" ry=".16"/>
                    <path class="cls-3" d="m180.35,155.31s2.36-.9,4.41.17"/>
                    <path class="cls-3" d="m180.58,154.25s2.36-.9,4.41.17"/>
                  </g>
                  <g>
                    <path class="cls-34" d="m169.6,153.2s.56,1.42.56,2.8c0,1.53-.37,2.08-.79,2.08s-21.05.12-21.05.12c0,0-.43-1.56,2.01-2.38,4.08-1.38,6.3-1.66,7.41-2.36,1.89-1.2,2.44-1.87,2.44-1.87,0,0,2.28,1.62,5.42,1.62,2.97,0,4,0,4,0Z"/>
                    <path class="cls-34" d="m150.29,155.81c1.87-.66,4.4-1.29,5.22-1.53,1.51,1.58,4.38,2.58,5.59,3.42-1.22,0-10.26.64-12.77.64-.21-.73.31-1.95,1.96-2.53Z"/>
                    <path class="cls-34" d="m148.47,157.67h21.56c.06,0,.11.05.11.11v.83c0,.15-.12.26-.26.26h-21.4c-.08,0-.15-.07-.15-.15v-.9c0-.08.07-.15.15-.15Z" transform="translate(318.44 316.54) rotate(-180)"/>
                    <path class="cls-34" d="m154.87,155.21s.06,0,.09-.01c1.34-.36,2.93-.73,5.17-2.85.35-.34.66-.66.93-.97.66-.77.5-.93.36-1.04-.14-.12-.31-.14-.97.62-.24.28-.51.56-.83.86-2.12,2.01-3.3,2.23-4.86,2.68-.19.05-.31.25-.26.45.04.17.2.27.36.27Z"/>
                    <path class="cls-3" d="m156.67,153.74s1.21-.26,1.52.75"/>
                    <path class="cls-3" d="m157.7,153.07s1.21-.26,1.52.75"/>
                  </g>
                </g>
                <g>
                  <polygon class="cls-7" points="145.53 160.26 143.14 160.75 133.99 118.87 137.34 118.17 145.53 160.26"/>
                  <polygon class="cls-7" points="93 160.26 95.39 160.75 104.55 118.87 101.2 118.17 93 160.26"/>
                  <polygon class="cls-7" points="145.53 160.26 143.14 160.75 133.99 118.87 137.34 118.17 145.53 160.26"/>
                  <polygon class="cls-7" points="93 160.26 95.39 160.75 104.55 118.87 101.2 118.17 93 160.26"/>
                  <polygon class="cls-7" points="138.5 160.26 136.11 160.75 126.96 118.87 130.31 118.17 138.5 160.26"/>
                  <polygon class="cls-7" points="99.87 160.26 102.26 160.75 111.42 118.87 108.07 118.17 99.87 160.26"/>
                  <path class="cls-7" d="m133.44,88.63v-12.56c0-3.76-3.79-6.8-8.47-6.8h-12.55c-4.68,0-8.47,3.04-8.47,6.8v12.56s.19,23.34-1.89,27.02h33.27c-2.08-3.68-1.89-27.02-1.89-27.02Z"/>
                  <rect class="cls-7" x="98.8" y="114.47" width="39.78" height="5.97" rx=".99" ry=".99" transform="translate(237.37 234.91) rotate(-180)"/>
                  <g>
                    <g>
                      <circle class="cls-32" cx="116.62" cy="66.57" r="5.68" transform="translate(15.7 155.15) rotate(-70.99)"/>
                      <polygon class="cls-32" points="110.98 65.99 122.18 65.37 121.55 62.31 119.9 54.28 111.97 54.74 111.69 57.85 111.65 58.34 111.59 59.08 110.98 65.99"/>
                      <circle class="cls-24" cx="115.95" cy="54.51" r="3.98" transform="translate(26.64 146.39) rotate(-70.99)"/>
                      <path class="cls-29" d="m118.78,61.96l2.15-2.57-.71-3.52-8.58,2.48-.06.74-.28,3.18c.94.54,2.04.97,3.09,1.22.33.08.66.12.99.12,1.32.01,2.55-.64,3.4-1.65Z"/>
                    </g>
                    <g>
                      <path class="cls-34" d="m120.69,42.78c-.25-1.2-.58-2.39-.94-3.57-.27-.9-.62-2.35-1.81-2.35-.43,0-.78.01-1.19-.15-.36-.15-.68-.36-1.06-.46-.69-.17-1.37.44-2.06.34-.27-.04-.52-.19-.79-.24-.78-.17-1.49.43-2.25.68-.88.28-1.93.1-2.69.64-.49.35-.78.96-1.33,1.21-.27.12-.57.15-.82.31-.49.32-.57,1.03-1,1.43-.21.19-.49.3-.68.51-.22.26-.27.62-.29.96-.14,2.19.56,4.26,1.35,6.29,1.06,2.73,2.35,6.04,4.97,7.67,2.94,1.83,7.1.52,9.03-2.3,2.32-3.4,2.34-7.19,1.56-10.95Z"/>
                      <path class="cls-28" d="m105.38,43.9s.83,1.82.75,2.89-.49,3.83.5,4.33c.98.5.73,2.58.44,2.76,0,0-.02-.65-.72-1.13l-.67-.65s-2.37-6.39-.29-8.19Z"/>
                      <g>
                        <g>
                          <path class="cls-33" d="m107.14,51s-2.98-.03-1.72,2.4c1.51,2.92,3.61,2.01,3.61,2.01l-1.89-4.42Z"/>
                          <path class="cls-32" d="m106.26,51.54s.53,3.7,1.29,5.34c.7,1.52,4.8,4.64,6.26,5.05.6.17,1.15-.12,1.7-.42,2.49-1.32,5.42-5.89,5.33-7.56-.03-.51.3-6.27.3-6.27h0c0-.1-.08-2.13-.41-3.13-1.27-3.86-5.26-6.19-9.21-5.4-4.53.9-7.34,5.41-6.24,9.89.01.06.04.15.06.27.03.14.07.31.12.5.16.68.76,1.66.8,1.73Z"/>
                          <path class="cls-32" d="m120.89,47.71s2.82-1.53,2.83,1.21c0,3.29-2.84,3.77-2.84,3.77l.02-4.97Z"/>
                        </g>
                        <g>
                          <path class="cls-6" d="m110.66,54.22s1.04.61,1.41.51,1.04-1.11,1.04-1.11"/>
                          <g>
                            <path class="cls-28" d="m116.9,48.04c.06.01.1-.08.06-.13-.28-.3-.91-.91-1.65-1.02s-1.83.02-2.38.1c-.28.04-.49.32-.47.64,0,0,0,0,0,.01.01.26.16.36.29.41.09.03.19.03.29.01.4-.09,2.02-.44,2.33-.37.26.06,1.13.25,1.53.33Z"/>
                            <ellipse class="cls-28" cx="114.8" cy="49.78" rx=".73" ry="1.05" transform="translate(-8.55 28.78) rotate(-13.78)"/>
                            <path class="cls-28" d="m113.49,48.95c.55-.67,1.66-.71,2.16.04-.85.22-1.32.27-2.16-.04h0Z"/>
                            <path class="cls-6" d="m111.81,47.71s0,.92.66,1.19"/>
                          </g>
                          <path class="cls-10" d="m110.76,56.94s.8.43,1.84.46c.36.01.72-.05,1.06-.18.97-.36,1.54-1.02,1.54-1.02-.03.01-1.33.04-2.23.19s-2.19.55-2.2.55Z"/>
                          <g>
                            <path class="cls-34" d="m108.98,48.44c-.13-.3-.44-.45-.71-.36-.53.17-1.58.55-2.17.97-.27.19-.48.47-.65.75,0,0,0,.02,0,.02.04.18.12.38.2.58.3-.24.62-.49.75-.6.24-.2,1.85-.61,2.25-.7.1-.02.18-.07.25-.14.1-.1.18-.26.08-.5,0,0,0,0,0-.01Z"/>
                            <ellipse class="cls-28" cx="107.84" cy="51.39" rx=".73" ry="1.05" transform="translate(-8.61 24.75) rotate(-12.59)"/>
                            <path class="cls-28" d="m108.65,50.07c-.61.64-1.06.81-1.92.99.12-.89,1.13-1.35,1.92-.99h0Z"/>
                          </g>
                          <path class="cls-6" d="m109.64,48.27s.24.89-.32,1.32"/>
                        </g>
                      </g>
                      <path class="cls-34" d="m118.13,39.23s-.96,1.05-.05,2.98c.91,1.93,1.72,2.23,1.77,3.36.05,1.13-.15,3.03.77,3.69,0,0-.04-1.09.49-1.6.43-.41.32-6.89-2.98-8.44Z"/>
                      <path class="cls-34" d="m118.87,43.19c.47.41,1.02.52,1.11-.18.12-.87-.57-2.37-1.3-3.1-1.21-1.26-2.87-2.02-4.52-2.29-2.3-.39-5.12-.09-6.96.96-1.44.8-2.39,2.18-2.85,3.59-.15.42-.5,1.21-.44,1.64.09.57.84.89,1.29.64.54-.31.82-1.23,1.48-1.16.13.02.25.08.38.1.85.17,1.38-1.28,2.32-1.16.31.04.58.26.89.26.48,0,.78-.52,1.25-.64.51-.12,1.04.25,1.57.26.83.03,1.58-.86,2.41-.44.35.18.58.55.93.69.28.11.57.05.85.05.69,0,1.07.34,1.57.79,0,0,0,0,0,0Z"/>
                    </g>
                  </g>
                  <polygon class="cls-34" points="134.36 110.89 107.11 110.89 107.11 97.99 132.98 97.94 134.36 110.89"/>
                  <path class="cls-34" d="m133.79,107.1l-9.79-1.51c-.24-.04-.4-.25-.34-.46h0c.07-.26-.18-.51-.48-.46l-2.5.39s-.1,0-.14,0l-2.5-.39c-.3-.05-.55.2-.48.46h0c.06.21-.1.42-.34.46l-9.79,1.51c-.25.04-.4.26-.33.48l2.52,7.76c.07.2.3,1.72.53,1.66l4.12-1.12c4.13-1.12,8.55-1.12,12.68,0l4.12,1.12c.23.06.46-1.46.53-1.66l2.52-7.76c.07-.22-.09-.44-.33-.48Z"/>
                  <g>
                    <path class="cls-32" d="m120.8,62.38l-4.59,3.71-4.75-2.06-11.33,7.56s3.84.13,6.24,6.14c1.37,3.44,1.82,1.7,2.95,4.39l20.02-1.9c.61-2.86,1.37-1.23,2.08-4.87,1.23-6.34,3.72-9.41,3.72-9.41l-14.34-3.56Z"/>
                    <path class="cls-16" d="m134.94,100.1c.5,1.47-7.54,3.46-13.57,3.8-5.99.34-14.94-1.35-14.86-2.93.17-3.4-.31-12.66-.33-13.52,0-.37-2.79-10.19-2.79-10.19-.07-.92,2.35-1.31,2.13-2.25-.41-1.74-1.61-.78-2.23-2.3-1.04-2.52-5.01-.52-5.01-.52l10.68-7.47.27-.16c.23-.13.24-.07.46.06l5.76,3.45c.9.67,2.15.56,2.93-.25l5.36-5.21c.12-.1.26-.17.41-.18.11,0,.21,0,.32.04l.33.13,10.16,3.1s-1.76.08-2.38,3.02c-.34,1.61-.75,2.02-.82,3.82-.04.96,0,.89.11,1.8,0,0,1.06,19.94,3.06,25.75Z"/>
                  </g>
                  <g>
                    <g>
                      <path class="cls-32" d="m138.21,69.42s3.15,20.52,4.04,23.66c.58,2.02-.94,4.5-3.31,4.69,0,0-3.04.43-4.04-2.95-.48-1.6-5.88-22.48-5.88-22.48l9.19-2.92Z"/>
                      <circle class="cls-26" cx="133.73" cy="70.92" r="4.75" transform="translate(-17.58 66.63) rotate(-26.31)"/>
                    </g>
                    <g>
                      <path class="cls-16" d="m141.5,82.9c0-.07-.02-.14-.02-.22-.59-7.43-2.16-13.27-2.16-13.27l-10.28,3.05s1.77,8.16,3.35,14.03l9.12-3.61Z"/>
                      <circle class="cls-16" cx="134.14" cy="71.06" r="5.42" transform="translate(-17.47 63.51) rotate(-25.06)"/>
                    </g>
                  </g>
                  <g>
                    <g>
                      <path class="cls-30" d="m96.79,76.84s3.69,17.21,4.08,20.45c.26,2.08,2.76,3.78,5.02,3.03,0,0,2.96-.78,2.58-4.29-.18-1.66-1.08-3.43-1.3-5.37-.86-7.64-.91-14.76-.91-14.76l-9.47.94Z"/>
                      <circle class="cls-26" cx="101.5" cy="76.48" r="4.75" transform="translate(22.61 176.12) rotate(-88.63)"/>
                    </g>
                    <g>
                      <path class="cls-16" d="m98.66,90.28c-.02-.07-2.89-13.02-2.89-13.02l10.42-1.07s.67,6.38,1.51,12.41l-9.04,1.68Z"/>
                      <circle class="cls-16" cx="101.17" cy="76.76" r="5.42" transform="translate(22.55 176.5) rotate(-88.94)"/>
                    </g>
                  </g>
                  <g>
                    <g>
                      <g>
                        <path class="cls-32" d="m130.78,102.47s.77,3.93,1.05,8.71c.12,2.12-.34,5.09-.34,6.83,0,5.08,1.46,8.88,1.73,12.12.35,4.22.72,8.21.11,13.31-.19,1.6-.41,2.76,1.58,3.87.86.47,3.42.21,3.79-2.09,0-.01-.11-6.65.34-11.39.52-5.5,2.01-11.47,2.32-15.24.47-5.57-2.22-16.11-2.22-16.11h-8.36Z"/>
                        <path class="cls-32" d="m137.03,145.19c.52.49,1.47,1.43,2.09,2.4.19.3.41.59.66.84.63.62,1.81,1.89,2.08,2.95,0,0,.46,1.46.18,2.15s-1.22.75-1.7.41c0,0-1.18.61-1.75.3,0,0-.91.28-1.54,0,0,0-1.91.88-3.17.16s-.94-2.95-.94-2.95l.37-5.6c.05-.74.59-1.38,1.33-1.49.36-.05.79-.02,1.32.18.39.15.75.37,1.06.66Z"/>
                        <circle class="cls-24" cx="135.95" cy="144.75" r="2.77"/>
                      </g>
                      <g>
                        <circle class="cls-34" cx="135.16" cy="104.07" r="5.05"/>
                        <path class="cls-34" d="m139.98,143.19h-7.41s-2.61-21.66-2.45-25.95c.16-4.34,0-12.94,0-12.94h10.09s1.73,8.87,1.82,13.11c.15,6.6-2.06,25.78-2.06,25.78Z"/>
                      </g>
                      <g>
                        <path class="cls-28" d="m132.1,148.42s-.16,1.96-.4,2.92-.5,1.75-.54,2.23l.07,1.18c1.69.15,3.55.25,5.56.25,1.98,0,3.82-.1,5.5-.25.1-.79.07-1.79-.38-2.77-.62-1.33-1.44-3.57-1.44-3.57l-1.6-3.59-5.57.08s-.84,1.29-1.2,3.5Z"/>
                        <path class="cls-28" d="m131.22,154.75s-.71-1.81,1.39-3.06c2.1-1.25,6.09-.6,7.83.29,1.73.9,1.84,2.77,1.84,2.77-1.85.12-3.83.19-5.94.18-1.8,0-3.51-.08-5.12-.18Z"/>
                        <path class="cls-28" d="m132.15,148.14c.15.37.3.73.36.9.12.31.55.22.55.22.75-.17,1.99-.35,2.52-.4.53-.04.51-.38.51-.38l-.46-3.6-2.33.03s-.77,1.19-1.15,3.22Z"/>
                        <path class="cls-28" d="m136.81,149c.39.13,1.56.42,2.36.9.8.48,1.09-.33,1.09-.33l.25-1c-.03-.09-.05-.15-.05-.15l-1.6-3.59-1.95.03-.34,3.58s-.15.44.23.56Z"/>
                        <g>
                          <path class="cls-5" d="m134.91,148.08s1.48-.71,2.75.11"/>
                          <path class="cls-5" d="m134.83,147.37s1.62-.71,3.02.11"/>
                          <path class="cls-5" d="m134.63,146.66s1.85-.71,3.44.11"/>
                          <path class="cls-5" d="m134.43,145.85s2.05-.71,3.82.11"/>
                          <path class="cls-5" d="m134.25,145.04s2.26-.71,4.2.11"/>
                        </g>
                        <path class="cls-28" d="m136.39,155.92c-3.12,0-5.42-.21-5.45-.21l.1-1.1c.06,0,5.81.53,11.48-.1l.12,1.1c-2.18.24-4.37.32-6.25.32Z"/>
                      </g>
                    </g>
                    <g>
                      <g>
                        <path class="cls-32" d="m110.3,102.47s-.77,3.93-1.05,8.71c-.12,2.12.34,5.09.34,6.83,0,5.08-1.46,8.88-1.73,12.12-.35,4.22-.72,8.21-.11,13.31.19,1.6.41,2.76-1.58,3.87-.86.47-3.42.21-3.79-2.09,0-.01.11-6.65-.34-11.39-.52-5.5-2.01-11.47-2.32-15.24-.47-5.57,2.22-16.11,2.22-16.11h8.36Z"/>
                        <path class="cls-32" d="m104.05,145.19c-.52.49-1.47,1.43-2.09,2.4-.19.3-.41.59-.66.84-.63.62-1.81,1.89-2.08,2.95,0,0-.46,1.46-.18,2.15s1.22.75,1.7.41c0,0,1.18.61,1.75.3,0,0,.91.28,1.54,0,0,0,1.91.88,3.17.16,1.26-.72.94-2.95.94-2.95l-.37-5.6c-.05-.74-.59-1.38-1.33-1.49-.36-.05-.79-.02-1.32.18-.39.15-.75.37-1.06.66Z"/>
                        <circle class="cls-24" cx="105.13" cy="144.75" r="2.77"/>
                      </g>
                      <g>
                        <circle class="cls-34" cx="105.92" cy="104.07" r="5.05"/>
                        <path class="cls-34" d="m101.1,143.19h7.41s2.61-21.66,2.45-25.95c-.16-4.34,0-12.94,0-12.94h-10.09s-1.73,8.87-1.82,13.11c-.15,6.6,2.06,25.78,2.06,25.78Z"/>
                      </g>
                      <g>
                        <path class="cls-28" d="m108.99,148.42s.16,1.96.4,2.92c.24.96.5,1.75.54,2.23l-.07,1.18c-1.69.15-3.55.25-5.56.25-1.98,0-3.82-.1-5.5-.25-.1-.79-.07-1.79.38-2.77.62-1.33,1.44-3.57,1.44-3.57l1.6-3.59,5.57.08s.84,1.29,1.2,3.5Z"/>
                        <path class="cls-28" d="m109.86,154.75s.71-1.81-1.39-3.06c-2.1-1.25-6.09-.6-7.83.29-1.73.9-1.84,2.77-1.84,2.77,1.85.12,3.83.19,5.94.18,1.8,0,3.51-.08,5.12-.18Z"/>
                        <path class="cls-28" d="m108.94,148.14c-.15.37-.3.73-.36.9-.12.31-.55.22-.55.22-.75-.17-1.99-.35-2.52-.4-.53-.04-.51-.38-.51-.38l.46-3.6,2.33.03s.77,1.19,1.15,3.22Z"/>
                        <path class="cls-28" d="m104.27,149c-.39.13-1.56.42-2.36.9-.8.48-1.09-.33-1.09-.33l-.25-1c.03-.09.05-.15.05-.15l1.6-3.59,1.95.03.34,3.58s.15.44-.23.56Z"/>
                        <g>
                          <path class="cls-5" d="m106.17,148.08s-1.48-.71-2.75.11"/>
                          <path class="cls-5" d="m106.25,147.37s-1.62-.71-3.02.11"/>
                          <path class="cls-5" d="m106.46,146.66s-1.85-.71-3.44.11"/>
                          <path class="cls-5" d="m106.65,145.85s-2.05-.71-3.82.11"/>
                          <path class="cls-5" d="m106.84,145.04s-2.26-.71-4.2.11"/>
                        </g>
                        <path class="cls-28" d="m104.69,155.92c3.12,0,5.42-.21,5.45-.21l-.1-1.1c-.06,0-5.81.53-11.48-.1l-.12,1.1c2.18.24,4.37.32,6.25.32Z"/>
                      </g>
                    </g>
                  </g>
                  <g>
                    <g>
                      <g>
                        <path class="cls-32" d="m142.54,84.92c2.16-1.57,7.62-6.7,7.64-6.73l3.73,2.8s-10.54,13.2-12.94,15.74l-5.55-5.11c.54-1.15,3.05-3.74,7.12-6.7Z"/>
                        <circle class="cls-32" cx="138.38" cy="93.93" r="3.77" transform="translate(19.66 211.73) rotate(-78.95)"/>
                        <g id="Layer_2-2" data-name="Layer 2">
                          <g id="Scene1_2" data-name="Scene1 2">
                            <g id="Hand">
                              <circle class="cls-32" cx="151.54" cy="80.01" r="2.25" transform="translate(44.11 213.52) rotate(-79.01)"/>
                            </g>
                          </g>
                        </g>
                        <g>
                          <path class="cls-32" d="m150.57,78.91l3.94-5.41c1.56-.41,2.65-1.58,3.15-3.67-1.04-1.85-2.67-3.01-1.49-3.99,1.35.74,3.01,2.32,3.84,4.23l-1.02,5.57c-1.51,2.12-3.35,4-5.15,5.38l-3.29-2.11Z"/>
                          <path class="cls-32" d="m154.6,73.56c-.35-1.3.26-1.36.86-2.91.88-2.25-.61-2.94-1.11-2.56-.5.38-1.78,3.77-1.78,3.77-.79,2.33-2.56,4.2-2.01,7.05,1.76-.55,2.62-3.19,4.03-5.35Z"/>
                        </g>
                      </g>
                      <path class="cls-32" d="m154.6,73.56c-.35-1.3.26-1.36.86-2.91.88-2.25-.61-2.94-1.11-2.56-.5.38-1.78,3.77-1.78,3.77-.79,2.33-2.88,4.11-2.34,6.95,1.76-.55,2.94-3.09,4.35-5.26Z"/>
                      <path class="cls-30" d="m150.57,78.91l3.94-5.41c1.56-.41,2.65-1.58,3.15-3.67-1.04-1.85-2.67-3.01-1.49-3.99,1.35.74,3.01,2.32,3.84,4.23l-1.02,5.57c-1.51,2.12-3.35,4-5.15,5.38l-3.29-2.11Z"/>
                      <g>
                        <path class="cls-30" d="m157.19,71.31c-.86-1.62-3.3-2.09-1.78-3.7,1.36.73,2.89,2.11,3.73,4.02l-1.95-.32Z"/>
                        <path class="cls-30" d="m157.44,70.42c-.73-1.68-3.53-2.58-1.9-4.07,1.3.83,3.12,2.57,3.82,4.53l-1.92-.46Z"/>
                      </g>
                      <path class="cls-32" d="m156.88,71.8c-.92-1.1-2.23-1.44-1.66-2.85,1.16.34,2.16,1.05,3.11,2.37l-1.46.48Z"/>
                      <path class="cls-29" d="m155.37,69c1.3.4,2.52,1.16,3.37,2.24-.32.87-.7,1.71-1.15,2.54.06-.88.18-1.73.37-2.57l.06.33c-.68-.96-1.61-1.82-2.65-2.54h0Z"/>
                      <path class="cls-32" d="m156.9,71.12s-1.8,3.12-1.8,3.12l1.86.27s1.03-2.91.92-2.95-1.04-.61-1.07-.55"/>
                      <path class="cls-29" d="m159.23,70.06c-.76-.91-1.59-1.47-2.18-2.52,0,0,.06-.07.06-.07,1.11.35,2.12,1.4,2.12,2.59h0Z"/>
                      <path class="cls-29" d="m158.77,70.73c-.73-.79-1.48-1.25-2.04-2.19,0,0,.05-.08.05-.08,1.04.23,1.99,1.16,1.99,2.27h0Z"/>
                      <path class="cls-29" d="m154.56,73.49c-.82.56-1.52.81-2.36,1.26.31-.87,1.45-1.74,2.36-1.26h0Z"/>
                    </g>
                    <g>
                      <path class="cls-25" d="m152.98,82.66s-2.92-1.52-4.02-3.54l-1.65,1.45s1.43,2.63,4.4,3.84l1.26-1.75Z"/>
                      <path class="cls-25" d="m151.41,84.29l1.5-1.87c.27-.33.75-.41,1.09-.17h0c.34.24.39.69.13,1.02l-1.5,1.87c-.27.33-.75.41-1.09.17h0c-.34-.24-.39-.69-.13-1.02Z"/>
                    </g>
                  </g>
                  <g>
                    <g>
                      <path class="cls-30" d="m113.92,93.28c1.76-2.02,6.81-6.07,6.84-6.09l-3.09-3.68s-12.9,8.13-15.64,10.3l4.6,5.98c1.19-.44,4-2.71,7.3-6.51Z"/>
                      <circle class="cls-32" cx="104.58" cy="96.62" r="3.77" transform="translate(-17.76 169.46) rotate(-73.51)"/>
                      <g id="Layer_2-3" data-name="Layer 2">
                        <g id="Scene1_2-2" data-name="Scene1 2">
                          <g id="Hand-2" data-name="Hand">
                            <circle class="cls-32" cx="119.28" cy="85.23" r="2.21" transform="translate(3.79 175.53) rotate(-73.57)"/>
                          </g>
                        </g>
                      </g>
                    </g>
                    <g>
                      <g>
                        <path class="cls-32" d="m120.2,87.62c2.06-1.59,2.28-1.37,2.99-1.58,2.19-.63,4.17-2.34,4.17-2.34l4.16-3.08c.25-.23.3-.6.13-.88-.2-.33-.63-.43-.96-.23l-3.77,2.42,5.07-3.82c.29-.26.35-.69.12-1.01h0c-.23-.32-.67-.41-1.01-.21l-5.11,3.55,5.44-4.34c.34-.23.42-.69.19-1.03-.23-.34-.69-.42-1.03-.19-.64.37-4.86,3.48-5.5,3.86.77-.54,3.81-2.94,4.26-3.55.17-.25.54-.69.18-1.1-.29-.33-.72-.16-1.2.16-.97.79-3.29,2.41-3.75,2.73l-1.75,1.25v-.02c.18-.63.92-1.51.92-1.51,0,0,.93-.85.76-1.82-.09-.48-.33-.61-.56-.61-.24,0-.45.15-.53.37l-.14.35c-.13.28-.32.52-.57.7-.89.68-1.61,1.53-2.52,2.8-1.31,1.83-1.05,2.99-1.28,3.53-.37.86-.31.83-1.46,1.58l2.76,4.01Z"/>
                        <line class="cls-32" x1="121.15" y1="79.48" x2="122.81" y2="78.22"/>
                        <path class="cls-32" d="m122.82,78.23c-.61.34-1.17.76-1.66,1.26.74-.39,1.66-1.26,1.66-1.26Z"/>
                      </g>
                      <g id="Layer_2-4" data-name="Layer 2">
                        <g id="Scene1_2-3" data-name="Scene1 2">
                          <g id="Hand-3" data-name="Hand">
                            <circle class="cls-32" cx="118.86" cy="85.59" r="2.44" transform="translate(3.1 175.33) rotate(-73.54)"/>
                          </g>
                        </g>
                      </g>
                    </g>
                  </g>
                </g>
                <g>
                  <path class="cls-23" d="m55.51,45.42s-.04-.07-.05-.11c-.09-.17-.13-.36-.13-.56,0-.2.03-.39.13-.56.06-.18.16-.34.3-.47.1-.1.22-.18.33-.26,0-.35.02-.71.02-1.1.03-1.3-.05-2.43-.22-3.41-.87-5.07-4.24-6.13-8.62-6.22-5.22-.11-8.45,2.42-8.59,9.28-.03,1.47-.26,4.76,3.38,6.37.85.37,1.84.65,3.01.79.85.11,1.8.14,2.85.09.85-.04,1.77-.14,2.76-.31,4.05.55,5,1.12,5.3-2.43-.25-.27-.47-.56-.58-.86.05-.08.08-.16.12-.23Z"/>
                  <g>
                    <polygon class="cls-7" points="75.82 160.26 73.43 160.75 64.28 118.87 67.63 118.17 75.82 160.26"/>
                    <polygon class="cls-7" points="46.24 160.26 48.63 160.75 57.79 118.87 54.44 118.17 46.24 160.26"/>
                    <polygon class="cls-7" points="52.87 160.26 50.48 160.75 41.33 118.87 44.68 118.17 52.87 160.26"/>
                    <polygon class="cls-7" points="23.29 160.26 25.68 160.75 34.84 118.87 31.49 118.17 23.29 160.26"/>
                    <g>
                      <path class="cls-10" d="m30.25,110.2c-.64,3.97,3.81,7.78,9.89,8.47l5.92.67c6.08.69,11.6-2.71,12.27-7.55s.04-13.67-1.41-19.6l-2.07-8.47c-1.45-5.94-4.71-11.78-7.24-12.97s-7.76-2.17-11.63-2.17-6.67,4.99-6.24,11.09l.87,12.24c.43,6.1.27,14.34-.37,18.3Z"/>
                      <path class="cls-2" d="m30.25,110.2c-.64,3.97,3.81,7.78,9.89,8.47l5.92.67c6.08.69,11.6-2.71,12.27-7.55s.04-13.67-1.41-19.6l-2.07-8.47c-1.45-5.94-4.71-11.78-7.24-12.97s-7.76-2.17-11.63-2.17-6.67,4.99-6.24,11.09l.87,12.24c.43,6.1.27,14.34-.37,18.3Z"/>
                    </g>
                    <g>
                      <path class="cls-10" d="m33.78,111.79c-.67,4.84,3.78,8.81,9.89,8.81h5.43c6.11,0,11.67-3.96,12.34-8.81s.18-13.7-1.1-19.68l-2.71-12.67c-1.28-5.98-7.32-10.87-13.44-10.87h-.53c-6.11,0-10.76,4.99-10.33,11.09l.87,12.24c.43,6.1.24,15.05-.44,19.89Z"/>
                      <path class="cls-2" d="m33.78,111.79c-.67,4.84,3.78,8.81,9.89,8.81h5.43c6.11,0,11.67-3.96,12.34-8.81s.18-13.7-1.1-19.68l-2.71-12.67c-1.28-5.98-7.32-10.87-13.44-10.87h-.53c-6.11,0-10.76,4.99-10.33,11.09l.87,12.24c.43,6.1.24,15.05-.44,19.89Z"/>
                    </g>
                    <rect class="cls-7" x="29.09" y="114.47" width="48.11" height="5.97" rx=".95" ry=".95" transform="translate(106.28 234.91) rotate(180)"/>
                    <rect class="cls-7" x="29.09" y="114.47" width="30.46" height="5.97" rx=".99" ry=".99" transform="translate(88.64 234.91) rotate(-180)"/>
                  </g>
                  <g>
                    <path class="cls-34" d="m86.33,109.59s1.62,27.2.64,40.2l-8.12,1.12c-1.37-5.44-2.88-17.66-3.17-21.92-.54-8.07.81-19.4.81-19.4h9.84Z"/>
                    <path class="cls-34" d="m52.32,96.67c9.11-.21,30.59,7.51,30.59,7.51l-.6,10.4c-6.15,1.09-13.56.29-17.91.34-3.59.04-9.62-.29-12.58-.38l.49-17.87Z"/>
                    <circle class="cls-34" cx="52.04" cy="105.56" r="8.94"/>
                    <circle class="cls-34" cx="81.16" cy="109.09" r="5.19"/>
                  </g>
                  <g>
                    <path class="cls-34" d="m73.71,109.47s-4.26,28.64-6.77,41.45l-6.63-.31c-.72-5.56-1.33-18.26-1.7-22.09-.77-8.05,4.7-18.69,4.7-18.69l10.4-.35Z"/>
                    <path class="cls-34" d="m43.11,97.11c8.04-.24,26.98,7.41,26.98,7.41l-.57,10.4c-5.43,1.11-11.97.34-15.81.4-3.17.05-7.16-.35-9.77-.43l-.84-17.77Z"/>
                    <circle class="cls-34" cx="46.98" cy="106.03" r="8.94"/>
                    <circle class="cls-34" cx="68.53" cy="109.47" r="5.19"/>
                  </g>
                  <g>
                    <g>
                      <g>
                        <g>
                          <path class="cls-23" d="m78.25,75.48l1.86-3.76c.41-.81.77-1.65,1.08-2.51.51-1.41.94-2.84,1.29-4.29l2.23-9.37-3.62-1.14s-.78,2.68-2.31,5.49c-2.55,4.67-6.3,11.15-5.84,13.58l5.31,2.01Z"/>
                          <g>
                            <path class="cls-23" d="m81.04,54.54s-.77-4.01.09-6.79c0,0,1.49.95,2.11.04.49-.71,3.26-.66,4.59,1.2.61.86.56,2.13-.11,3.09-.74,1.06-1.97,2.65-3.07,3.69l-3.61-1.23Z"/>
                            <g>
                              <ellipse class="cls-23" cx="82.08" cy="48.11" rx="1.03" ry="1.04" transform="translate(9.43 109.54) rotate(-70.59)"/>
                              <path class="cls-23" d="m83.38,45.93s-.25.59-.28,2.38l-1.97-.61s1-2.16,1.64-3.59c.12-.26.49-.26.61,0h0c.21.45.24.95.11,1.42l-.11.4Z"/>
                            </g>
                            <g>
                              <g>
                                <path class="cls-23" d="m90.64,45.92c.06-.23-.15-.43-.37-.39h0c-.48.1-.87.44-1.03.89s-.38,1.11-.58,1.75l1.32.47.67-2.72Z"/>
                                <circle class="cls-23" cx="89.28" cy="48.47" r=".7" transform="translate(13.9 116.57) rotate(-70.59)"/>
                              </g>
                              <g>
                                <g>
                                  <circle class="cls-23" cx="87.42" cy="50.89" r=".79" transform="translate(10.38 116.44) rotate(-70.59)"/>
                                  <path class="cls-23" d="m89.85,48.89l-1.79,2.47-1.28-.94s1.02-1.26,2.02-2.45l1.05.92Z"/>
                                </g>
                                <circle class="cls-23" cx="89.28" cy="48.47" r=".7" transform="translate(13.9 116.57) rotate(-70.59)"/>
                              </g>
                            </g>
                            <g>
                              <g>
                                <path class="cls-23" d="m89.45,41.54c.07-.22-.12-.44-.35-.4h0c-.48.07-.88.4-1.04.85-.43,1.19-1.2,3.43-1.51,4.24l1.29.53,1.61-5.22Z"/>
                                <circle class="cls-23" cx="87.16" cy="46.55" r=".7" transform="translate(14.3 113.29) rotate(-70.59)"/>
                              </g>
                              <g>
                                <g>
                                  <circle class="cls-23" cx="85.26" cy="48.94" r=".79" transform="translate(10.78 113.1) rotate(-70.59)"/>
                                  <path class="cls-23" d="m87.73,46.98l-1.83,2.44-1.26-.97s1.04-1.25,2.06-2.42l1.03.94Z"/>
                                </g>
                                <circle class="cls-23" cx="87.16" cy="46.55" r=".7" transform="translate(14.3 113.29) rotate(-70.59)"/>
                              </g>
                            </g>
                            <g>
                              <g>
                                <path class="cls-23" d="m85.18,45.71l1.32.47,1.24-4.93c.06-.22-.14-.43-.37-.38l-.18.04c-.36.07-.65.34-.77.69-.34,1.07-.97,3.27-1.24,4.12Z"/>
                                <circle class="cls-23" cx="85.82" cy="46" r=".7" transform="translate(13.92 111.66) rotate(-70.59)"/>
                              </g>
                              <g>
                                <g>
                                  <circle class="cls-23" cx="83.84" cy="48.32" r=".79" transform="translate(10.41 111.33) rotate(-70.59)"/>
                                  <path class="cls-23" d="m86.36,46.45l-1.91,2.38-1.23-1.01s1.08-1.21,2.14-2.34l1,.98Z"/>
                                </g>
                                <circle class="cls-23" cx="85.82" cy="46" r=".7" transform="translate(13.92 111.66) rotate(-70.59)"/>
                              </g>
                            </g>
                            <g>
                              <g>
                                <circle class="cls-23" cx="88.59" cy="47.07" r=".7" transform="translate(14.76 114.99) rotate(-70.59)"/>
                                <g>
                                  <g>
                                    <circle class="cls-23" cx="86.69" cy="49.46" r=".79" transform="translate(11.24 114.79) rotate(-70.59)"/>
                                    <path class="cls-23" d="m89.15,47.5l-1.83,2.44-1.26-.97s1.04-1.25,2.06-2.42l1.03.94Z"/>
                                  </g>
                                  <circle class="cls-23" cx="88.59" cy="47.07" r=".7" transform="translate(14.76 114.99) rotate(-70.59)"/>
                                </g>
                              </g>
                              <path class="cls-23" d="m90.64,43.31c.07-.21-.1-.42-.32-.39h0c-.5.06-.93.38-1.12.84-.36.86-.9,2.23-1.21,2.97l1.28.58,1.38-3.99Z"/>
                            </g>
                          </g>
                        </g>
                        <circle class="cls-23" cx="75.64" cy="74.35" r="2.84" transform="translate(-29.23 90.18) rotate(-53.09)"/>
                      </g>
                      <g>
                        <path class="cls-23" d="m52.37,69.63s8.64,3.33,21.95,7.47l1.76-5.42c-11.44-4.6-20.83-9.48-20.83-9.48l-2.88,7.42Z"/>
                        <circle class="cls-23" cx="53.81" cy="65.92" r="3.98" transform="translate(-31.26 63.72) rotate(-49.29)"/>
                        <circle class="cls-23" cx="75.33" cy="74.43" r="2.85" transform="translate(-30.11 84.33) rotate(-50.02)"/>
                      </g>
                    </g>
                    <path class="cls-27" d="m68.61,67.82c-5.94-2.63-10.58-4.93-12.31-5.81-.24-.15-.49-.28-.76-.39l-.63-.33-.04.11c-.2-.05-.41-.08-.61-.1-2.06-.2-4.01,1.01-4.76,2.94-.85,2.18.07,4.61,2.05,5.72l-.02.05.62.24c.07.03,5.57,3.86,15.18,7l1.29-9.43Z"/>
                  </g>
                  <path class="cls-23" d="m58.64,81.66c-.38.88-.74,1.38-.74,1.46l-14.24-1.08c-2.57-6.53-3.7-17.48.8-25.08h8.05c2.86,1.77,9.89,19.26,6.13,24.69Z"/>
                  <ellipse class="cls-21" cx="54.99" cy="75.57" rx="6.23" ry="7.12" transform="translate(-24.47 26.37) rotate(-22.19)"/>
                  <g>
                    <circle class="cls-23" cx="48.67" cy="59.9" r="4.4"/>
                    <polygon class="cls-23" points="52.97 59.03 44.3 59.41 44.29 59.41 44.91 53.42 45.03 52.33 45.19 50.75 45.19 50.68 51.34 50.43 51.35 50.43 52.29 55.43 52.48 56.42 52.93 58.81 52.93 58.83 52.95 58.88 52.97 59.03"/>
                  </g>
                  <path class="cls-15" d="m52.48,56.42h-.41c-.24.01-.48.01-.72,0-1.15-.06-2.27-.38-3.31-.87-.58-.27-1.14-.6-1.67-.97-.51-.35-.99-.74-1.46-1.17l.11-1.09.16-1.58v-.06s6.15-.26,6.15-.26h.01l.94,5,.19.99Z"/>
                  <path class="cls-23" d="m56.77,48.11c-1.54.64-.84,1.01-.78,1.4.02.16-.06.32-.47.51-.01.05-.02.1-.03.16-.02.09-.04.19-.06.28-.05.31-.11.62-.24.9-.07.16-.16.32-.3.47-.14.57-.26,1.2-.43,1.78-.26.89-1.13,1.01-1.93.92-1.35-.15-2.7-.31-4.01-.67-1.42-.39-2.63-1.05-3.75-2-.55-.46-1.93-1.34-1.93-2.15.03-.19-.34.06-.31-.13.06-.44.1-.88.06-1.3-.06-.53-.25-1.04-.71-1.51-3.83-4.26.2-13.03,5.7-13.46,3.29-.58,6.78.6,8.01,3.74.63,1.59,1.08,5.05.58,6.72-.08.27-.2.64-.32.91-.22.5-.15,1.1.24,1.5.63.67,1.42,1.27.69,1.93Z"/>
                  <path class="cls-14" d="m55.36,50.03c.22.09.42.91-.12,1.32-.22.17-2.05-.76-2.44-1.39h0s0,0,0,0h.01s0,0,0,0c0,0,2.19.04,2.55.07Z"/>
                  <path class="cls-31" d="m56.05,49.72l-.38.6c-.06.09-.15.14-.25.15-.43.01-1.63,0-2.62-.51h0s0,0,.01,0h0c.15-.03,3.01-.44,3.19-.45.03,0,.09.15.05.21Z"/>
                  <ellipse class="cls-34" cx="53.23" cy="44.69" rx=".47" ry=".94" transform="translate(-1.89 2.35) rotate(-2.49)"/>
                  <path class="cls-34" d="m53.78,43.96c-.89.45-.56.28-1.52.24-.33-1.03,1.42-1.28,1.52-.24h0Z"/>
                  <path class="cls-34" d="m56.66,44.25c-.95.3-.6.18-1.54-.02-.16-1.08,1.61-1.03,1.54.02h0Z"/>
                  <path class="cls-34" d="m55.61,43.76c-.21,0-.38.3-.42.7,0,0,.01,0,.02,0,.07.04.13.09.18.16.06.06.09.13.11.21.04.11.06.22.09.33.01.05.04.1.06.15.01.02.02.05.04.07,0,.01.02.02.03.03.02.05.04.1.06.15,0,.02,0,.03,0,.05.22-.09.36-.48.34-.94-.02-.52-.25-.93-.51-.92Z"/>
                  <path class="cls-34" d="m50.83,42.6c-.05,0-.07-.08-.03-.12.27-.23.89-.68,1.51-.68s1.5.27,1.94.41c.22.07.35.35.29.64,0,0,0,0,0,.01-.05.23-.19.3-.31.32-.08.02-.16,0-.24-.03-.31-.13-1.59-.67-1.85-.65-.23.02-.97.07-1.31.09Z"/>
                  <path class="cls-34" d="m57.41,43.69s.06-.06.05-.11c-.1-.3-.35-.91-.72-1.1s-.97-.2-1.27-.19c-.15,0-.3.22-.34.52,0,0,0,0,0,.01-.03.23.03.34.1.4.04.04.1.05.15.04.22-.03,1.13-.15,1.28-.05.13.09.56.36.76.48Z"/>
                  <path class="cls-9" d="m55.04,47.59s-.41.47.12.76"/>
                  <path class="cls-19" d="m58.76,69.49c-.15-.49-.31-.99-.49-1.5-1.1-3.23-2.42-6.23-3.43-8.26.01.03-1.25-.1-1.33-.12-.77-.17-1.53-.4-2.29-.63-2.51-.76-4.5-2.19-6.52-3.83-.18.3-.34.6-.5.9-.07.13-.31.43-.31.58-4.79,8.08-3.91,19.38-1.61,25.42-.46,3.8-2.03,14.72-3.29,17.98,4.64,2.12,14.49-1.01,22.81-1.01.08-.31-1.16-9.43-1.85-17.61,2.01-2.01,2.66-5.35,1.4-8.44-.58-1.42-1.5-2.61-2.61-3.48Z"/>
                  <g>
                    <g>
                      <g>
                        <path class="cls-23" d="m56.05,82.42l4.02-1.19c.87-.27,1.76-.48,2.65-.64,1.47-.26,2.95-.44,4.45-.54l9.65-.61.74,3.48s-3.04.61-6.07,1.64c-5.04,1.72-12.81,4.17-15.43,3.4l-.02-5.53Z"/>
                        <circle class="cls-21" cx="56.71" cy="85.18" r="2.84" transform="translate(-42.1 58.55) rotate(-41.26)"/>
                      </g>
                      <g>
                        <path class="cls-23" d="m44.59,65.2s3.5,8.57,9.6,21.11l5.15-2.43c-4.49-11.48-7.37-21.66-7.37-21.66l-7.38,2.99Z"/>
                        <circle class="cls-21" cx="48.28" cy="63.71" r="3.98" transform="translate(-2.68 2.12) rotate(-2.45)"/>
                        <circle class="cls-23" cx="56.83" cy="85.21" r="2.85" transform="translate(-4.81 3.42) rotate(-3.3)"/>
                      </g>
                    </g>
                    <path class="cls-27" d="m52.84,62.84c-.06-.29-.14-.58-.26-.87-.86-2.12-3.17-3.31-5.39-2.77-.22.05-.44.12-.65.21-2.37.96-3.52,3.67-2.56,6.04,0,0,0,0,0,0h0c.03.07,4.68,14.8,4.68,14.8l9.85-4.61s-5.09-10.8-5.67-12.8Z"/>
                  </g>
                  <circle class="cls-23" cx="77.19" cy="81.18" r="1.79"/>
                  <g>
                    <path class="cls-23" d="m83.28,82.02c.33-1.1-.59-2.58.79-2.63.28.92.4,2.41-.06,3.63l-.73-1Z"/>
                    <path class="cls-23" d="m84.21,81.51c.54-1.36-.44-3.1,1.32-3.01.26,1.21.22,2.86-.5,4.36l-.82-1.35Z"/>
                    <path class="cls-23" d="m84.95,80.87c.64-1.32-.27-3.49,1.49-3.28.17,1.22.06,3.24-.77,4.69l-.72-1.41Z"/>
                    <path class="cls-23" d="m76.47,79.91l5.36.18c.97.86,2.23,1.07,3.85.49.78-1.51.83-3.12,2.01-2.76.1,1.23-.22,3.04-1.13,4.44l-4.17,1.78c-2.09-.07-4.15-.47-5.87-1.06l-.04-3.07Z"/>
                    <path class="cls-23" d="m86.55,82.25s-.77.35-1.74.59-1.76.41-1.77.37c0-.04.77-.26,1.74-.51.97-.24,1.76-.49,1.77-.46Z"/>
                    <path class="cls-23" d="m81.82,80.24c.71-.8,1.03-.43,2.32-.71,1.89-.41,1.69-1.71,1.22-1.87-.47-.16-3.3.48-3.3.48-1.91.5-3.94.15-5.6,1.77,1.14.93,3.29.34,5.36.33Z"/>
                  </g>
                  <polygon class="cls-22" points="51.99 42.9 54.24 43.19 54.11 46.41 52.26 46.59 51.99 42.9"/>
                  <polygon class="cls-22" points="55.54 43.41 57.06 43.66 56.98 46.44 55.73 46.59 55.54 43.41"/>
                  <path class="cls-34" d="m30.67,57.03s1.47,3.88,5.13,4.09c3.66.21,7.13-6.39,3.09-13.15-4.04-6.76-.65-10.38-.65-10.38,0,0-2.02-.98-4.65.79-2.63,1.77-3.25,7.06-.89,10.85,2.36,3.79,3.42,8.69-2.03,7.81Z"/>
                  <path class="cls-34" d="m50.28,36.05s.37,5.16-3.83,6.85c0,0-.58.33,0,2.6,0,0,1.13,5.13-1.86,6.19,0,0-1.29-.82-2.92-1.95,0,0-2.68-.77-4.58-5.45-1.19-3.17-.65-6.72,1.41-9.4.07-.09.15-.18.23-.27.83-.83,4.28-5.01,10.61-3.26.1.03.19.06.28.1.87.35,5.08,2.18,6.44,6.09-.01,0-2.24.29-5.77-1.5Z"/>
                  <path class="cls-34" d="m48.13,40.65s.55,2.63-.42,4.29c0,0-.75-1.35-2.01-1.44s-.11-1.32-.11-1.32l2.53-1.53Z"/>
                  <path class="cls-34" d="m44.1,52.58c.44-.92.27-2.01-.42-2.76l-2.88-.53s3.15,1.88,3.3,3.28Z"/>
                  <path class="cls-14" d="m57.11,43.42c-.07-.15-1.77-.37-1.86-.33-.03.41-.04.82-.02,1.24-.02-.03-.05-.05-.07-.07-.21-.17-.52-.14-.69.07,0,0,.04-1.29-.02-1.36s-2.66-.54-2.76-.49c-.07.03-.05.66-.05.66l-5.88.44c0,.18.02.35.02.53,2.19-.1,5.51-.25,5.84-.25,0,0-.02,2.73.21,2.98.15.17,2.3.02,2.51-.19.12-.11.13-1.83.12-1.83.03-.05.07-.1.12-.13.18-.13.44-.08.57.1.06.11.38.53.62.85-.02-.82-.07-2.04-.04-2.05.07-.03,1,.07,1.04.12,0,.01,0,2.56-.03,2.58-.02.02-.49.06-.49.06l.35.38s.43-.05.46-.1c.04-.04.11-3.06.04-3.21Zm-3.05,1.58s.03,0,.05-.01c-.01.68-.01,1.3-.05,1.33-.04.03-1.62.13-1.66.07-.03-.06-.14-3.28-.08-3.3.08-.04,1.75.22,1.79.28.01.02.01.41.01.9-.02,0-.04-.01-.06-.01-.15.03-.27.15-.3.3-.04.21.09.41.3.45Z"/>
                  <path class="cls-23" d="m46.79,47.87c-.95.12-2.58-1.89-2.45-3.34.1-1.09,1.37-1.67,2.45-.92,0,0,1.11.92.79,2.12,0,0,.67,1.95-.79,2.14Z"/>
                </g>
              </g>
            </g>
          </g>
          <g>
            <g>
              <g>
                <path class="cls-10" d="m216,110.2c.64,3.97-3.81,7.78-9.89,8.47l-5.92.67c-6.08.69-11.6-2.71-12.27-7.55s-.04-13.67,1.41-19.6l2.07-8.47c1.45-5.94,6.37-11.78,10.92-12.97s9.79-2.17,11.63-2.17,2.99,4.99,2.56,11.09l-.87,12.24c-.43,6.1-.27,14.34.37,18.3Z"/>
                <path class="cls-2" d="m216,110.2c.64,3.97-3.81,7.78-9.89,8.47l-5.92.67c-6.08.69-11.6-2.71-12.27-7.55s-.04-13.67,1.41-19.6l2.07-8.47c1.45-5.94,6.37-11.78,10.92-12.97s9.79-2.17,11.63-2.17,2.99,4.99,2.56,11.09l-.87,12.24c-.43,6.1-.27,14.34.37,18.3Z"/>
              </g>
              <g>
                <path class="cls-10" d="m212.47,111.79c.67,4.84-3.78,8.81-9.89,8.81h-5.43c-6.11,0-11.67-3.96-12.34-8.81s-.18-13.7,1.1-19.68l2.71-12.67c1.28-5.98,7.32-10.87,13.44-10.87h.53c6.11,0,10.76,4.99,10.33,11.09l-.87,12.24c-.43,6.1-.24,15.05.44,19.89Z"/>
                <path class="cls-2" d="m212.47,111.79c.67,4.84-3.78,8.81-9.89,8.81h-5.43c-6.11,0-11.67-3.96-12.34-8.81s-.18-13.7,1.1-19.68l2.71-12.67c1.28-5.98,7.32-10.87,13.44-10.87h.53c6.11,0,10.76,4.99,10.33,11.09l-.87,12.24c-.43,6.1-.24,15.05.44,19.89Z"/>
              </g>
              <rect class="cls-7" x="169.06" y="114.47" width="48.11" height="5.97" rx=".95" ry=".95"/>
              <rect class="cls-7" x="186.7" y="114.47" width="30.46" height="5.97" rx=".99" ry=".99"/>
            </g>
            <g>
              <path class="cls-23" d="m163.08,58.06s.31-4.03-.84-6.67c0,0-1.36,1.1-2.07.28-.56-.65-3.28-.29-4.38,1.69-.51.91-.31,2.16.46,3.03.85.96,2.23,2.39,3.43,3.29l3.41-1.61Z"/>
              <g>
                <ellipse class="cls-23" cx="161.35" cy="51.85" rx="1.03" ry="1.02" transform="translate(-6.45 75.65) rotate(-25.89)"/>
                <path class="cls-23" d="m159.82,49.85s.31.55.54,2.31l1.87-.82s-1.23-2.01-2.02-3.34c-.15-.25-.52-.2-.6.07h0c-.15.46-.13.96.05,1.41l.16.38Z"/>
              </g>
              <g>
                <g>
                  <path class="cls-23" d="m152.69,50.65c-.08-.22.09-.44.33-.42h0c.48.04.9.33,1.11.77s.49,1.05.77,1.66l-1.25.61-.96-2.6Z"/>
                  <circle class="cls-23" cx="154.3" cy="53" r=".69" transform="translate(-7.66 72.69) rotate(-25.89)"/>
                </g>
                <g>
                  <g>
                    <circle class="cls-23" cx="156.4" cy="55.18" r=".79" transform="translate(-8.4 73.83) rotate(-25.89)"/>
                    <path class="cls-23" d="m153.79,53.48l2.03,2.23,1.15-1.07s-1.14-1.13-2.26-2.19l-.93,1.03Z"/>
                  </g>
                  <circle class="cls-23" cx="154.3" cy="53" r=".69" transform="translate(-7.66 72.69) rotate(-25.89)"/>
                </g>
              </g>
              <g>
                <g>
                  <path class="cls-23" d="m153.37,46.21c-.09-.21.07-.44.3-.43h0c.48.02.91.29,1.12.72.56,1.12,1.56,3.24,1.96,4l-1.21.67-2.16-4.96Z"/>
                  <circle class="cls-23" cx="156.17" cy="50.88" r=".69" transform="translate(-6.54 73.3) rotate(-25.89)"/>
                </g>
                <g>
                  <g>
                    <circle class="cls-23" cx="158.31" cy="53.02" r=".79" transform="translate(-7.26 74.44) rotate(-25.89)"/>
                    <path class="cls-23" d="m155.67,51.37l2.07,2.2,1.14-1.09s-1.16-1.11-2.29-2.15l-.91,1.04Z"/>
                  </g>
                  <circle class="cls-23" cx="156.17" cy="50.88" r=".69" transform="translate(-6.54 73.3) rotate(-25.89)"/>
                </g>
              </g>
              <g>
                <g>
                  <path class="cls-23" d="m158.03,49.83l-1.25.61-1.77-4.71c-.08-.21.09-.44.32-.42l.18.02c.36.03.68.26.83.59.45,1.01,1.32,3.1,1.68,3.92Z"/>
                  <circle class="cls-23" cx="157.43" cy="50.19" r=".69" transform="translate(-6.11 73.78) rotate(-25.89)"/>
                </g>
                <g>
                  <g>
                    <circle class="cls-23" cx="159.64" cy="52.25" r=".79" transform="translate(-6.79 74.95) rotate(-25.89)"/>
                    <path class="cls-23" d="m156.95,50.69l2.15,2.12,1.1-1.13s-1.2-1.07-2.37-2.07l-.88,1.07Z"/>
                  </g>
                  <circle class="cls-23" cx="157.43" cy="50.19" r=".69" transform="translate(-6.11 73.78) rotate(-25.89)"/>
                </g>
              </g>
              <g>
                <g>
                  <circle class="cls-23" cx="154.82" cy="51.55" r=".69" transform="translate(-6.97 72.78) rotate(-25.89)"/>
                  <g>
                    <g>
                      <circle class="cls-23" cx="156.96" cy="53.69" r=".79" transform="translate(-7.69 73.92) rotate(-25.89)"/>
                      <path class="cls-23" d="m154.32,52.04l2.07,2.2,1.14-1.09s-1.16-1.11-2.29-2.15l-.91,1.04Z"/>
                    </g>
                    <circle class="cls-23" cx="154.82" cy="51.55" r=".69" transform="translate(-6.97 72.78) rotate(-25.89)"/>
                  </g>
                </g>
                <path class="cls-23" d="m152.4,48.08c-.09-.2.05-.42.27-.42h0c.5,0,.95.27,1.2.7.45.81,1.14,2.09,1.52,2.78l-1.19.71-1.8-3.78Z"/>
              </g>
            </g>
            <circle class="cls-23" cx="161.68" cy="59.27" r="2.06"/>
            <g>
              <path class="cls-34" d="m172.15,128.99c.54-8.07-.81-19.4-.81-19.4h-9.84"/>
              <path class="cls-34" d="m195.52,96.67c-9.11-.21-30.59,7.51-30.59,7.51l.6,10.4c6.15,1.09,13.56.29,17.91.34,3.59.04,9.62-.29,12.58-.38l-.49-17.87Z"/>
              <circle class="cls-34" cx="195.79" cy="105.56" r="8.94"/>
              <circle class="cls-34" cx="166.67" cy="109.09" r="5.19"/>
            </g>
            <g>
              <path class="cls-34" d="m189.22,128.52c.77-8.05-4.7-18.69-4.7-18.69l-10.4-.35"/>
              <path class="cls-34" d="m204.73,97.11c-8.04-.24-26.98,7.41-26.98,7.41l.57,10.4c5.43,1.11,11.97.34,15.81.4,3.17.05,7.16-.35,9.77-.43l.84-17.77Z"/>
              <circle class="cls-34" cx="200.85" cy="106.03" r="8.94"/>
              <circle class="cls-34" cx="179.3" cy="109.47" r="5.19"/>
            </g>
            <path class="cls-23" d="m206.85,57.23l-6.56-3.79-8.86,2.81-5.76,2.88s-1.73,9.21,0,15.1c.99,3.38,1.12,9.83,1.12,9.83h19.89c.84-2.65,1.88-4.51,2.46-10.2.63-6.11,2.17-15.16,2.17-15.16l-4.47-1.47Z"/>
            <circle class="cls-23" cx="196.74" cy="84.06" r="9.94"/>
            <g>
              <path class="cls-23" d="m201.63,57.62s0,.08,0,.13c0,2.52-2.05,4.57-4.58,4.57-2.52,0-4.57-2.05-4.56-4.58,0-.04,0-.09,0-.13h0v-.05c.03-.38.08-.75.18-1.1.02-.05.03-.1.05-.15l.2-1.11.64-3.57.08-.42h0s6.86,0,6.86,0l.12.68.09.51.18,1.01.52,2.91c.13.4.2.81.22,1.25v.05s0,0,0,0Z"/>
              <path class="cls-23" d="m200.51,51.21c0,1.89-1.54,3.43-3.43,3.42-1.89,0-3.43-1.54-3.43-3.43h0c0-.29.04-.57.1-.83.37-1.49,1.72-2.6,3.33-2.6,1.69,0,3.1,1.23,3.37,2.85.03.19.05.39.05.59Z"/>
              <path class="cls-20" d="m200.72,52.4c-1.27,1.75-3.3,2.8-5.48,2.8h-2.31l.64-3.57.08-.42h0c0-.29.04-.57.1-.83l6.71.25c.03.19.05.39.05.59l.12.68.09.51Z"/>
            </g>
            <path class="cls-23" d="m213.78,60.01s3.97,3.39,8.14,8.23c2.18,2.53,5.36,4.26,7.49,6.99l-4.44,5.01c-1.28-.97-2.56-2.31-4.05-3.45-5.87-4.48-12.58-9.44-12.58-9.44l5.44-7.35Z"/>
            <path class="cls-23" d="m219.28,82.7c-1.29,2.22-10.11,10.79-10.13,10.81l2.35,3.52s8.62-7.08,10.51-8.89c2.77-2.64,5.82-6.24,8.02-8.78l-5.04-4.12c-1.05.63-3.28,3.28-5.71,7.46Z"/>
            <circle class="cls-23" cx="210.3" cy="63.09" r="4.56"/>
            <circle class="cls-23" cx="226.79" cy="77.74" r="3.62"/>
            <path class="cls-19" d="m210.21,91.84l4.03,4.11s14.55-12.56,15.78-16.58l-7.1-4.39c-1.05.63-12.69,16.84-12.72,16.86Z"/>
            <path class="cls-19" d="m186.14,97.72s1.16,8.69,23.25,2.45l-.24-14.57h-22.43l-.59,12.12Z"/>
            <path class="cls-19" d="m203.69,55.32l-8.7,2.19-3.36-1.39-6.1,3.05s-.61,9.52,0,16c.35,3.66,1.18,10.42,1.18,10.42h22.43s2.03-4.6,2.65-10.62c.66-6.48.92-16.25.92-16.25l-9.02-3.4Z"/>
            <path class="cls-34" d="m188.57,39.64s-2.5,3.9.97,5.63l1.2,1.98,15.27-5.57c.89-1.79-.79-5.98-1.49-6.05l-15.96,4.02Z"/>
            <circle class="cls-19" cx="211.32" cy="64.05" r="5.58"/>
            <g>
              <g>
                <path class="cls-18" d="m196.34,58.04v38.62c-.8.02-1.61.02-2.42,0v-.38s-.17-38.25-.17-38.25l1.08-1.07.09-.09h.27l.08.08,1.09,1.08Z"/>
                <g>
                  <path class="cls-27" d="m195.52,60.68c0,.25-.2.45-.44.45s-.44-.2-.44-.45.2-.45.44-.45.44.2.44.45Z"/>
                  <path class="cls-27" d="m195.52,66.47c0,.25-.2.45-.44.45s-.44-.2-.44-.45.2-.45.44-.45.44.2.44.45Z"/>
                  <path class="cls-27" d="m195.52,72.25c0,.25-.2.45-.44.45s-.44-.2-.44-.45.2-.45.44-.45.44.2.44.45Z"/>
                  <path class="cls-27" d="m195.52,78.04c0,.25-.2.45-.44.45s-.44-.2-.44-.45.2-.45.44-.45.44.2.44.45Z"/>
                  <path class="cls-27" d="m195.52,83.83c0,.25-.2.45-.44.45s-.44-.2-.44-.45.2-.45.44-.45.44.2.44.45Z"/>
                  <path class="cls-27" d="m195.52,89.62c0,.25-.2.45-.44.45s-.44-.2-.44-.45.2-.45.44-.45.44.2.44.45Z"/>
                </g>
              </g>
              <g>
                <polygon class="cls-27" points="193.2 53.91 191.29 56.1 192.67 60.45 195.05 56.8 193.2 53.91"/>
                <polygon class="cls-27" points="200.68 52.49 203.69 55.32 197.15 61.25 195.05 56.8 200.68 52.49"/>
              </g>
            </g>
            <g>
              <path class="cls-17" d="m190.88,41.35s-2.71-.69-2.11,1.8c.73,3,2.84,2.64,2.84,2.64l-.74-4.45Z"/>
              <path class="cls-23" d="m189.95,41.65s-.34,3.5-.02,5.16c.3,1.54,3.34,5.31,4.58,6.01.51.29,1.07.14,1.64,0,2.56-.65,6.26-4.16,6.55-5.7.09-.47,1.67-5.64,1.67-5.64h0c.03-.09.4-1.96.33-2.95-.29-3.8-3.41-6.81-7.19-6.98-4.33-.19-7.9,3.29-7.9,7.62,0,.05,0,.14,0,.26,0,.13,0,.3,0,.48,0,.66.32,1.68.34,1.75Z"/>
              <path class="cls-23" d="m204.14,41.43s2.91-.77,2.31,1.73c-.73,3-3.43,2.8-3.43,2.8l1.13-4.53Z"/>
              <path class="cls-10" d="m197.22,47.19s-.87.98-2,1.25c-.39.09-.79.09-1.18,0-1.13-.26-1.68-1.27-1.68-1.27.03,0,0,0,.03,0,0,0,1.41.04,2.42.03s2.43-.02,2.41-.02-.02,0,0,0Z"/>
              <line class="cls-4" x1="194.46" y1="39.7" x2="194.04" y2="44.52"/>
              <path class="cls-34" d="m192.32,46.04l.82-.21c1.07-.27,2.17-.27,3.24,0l.82.21c.54.14.96.69.96,1.35,0,.82-.46,1.52-.46,1.52.16-1.26-.96-1.7-.96-1.7h-1.97s-2.4,0-2.4,0c0,0-.68.44-.53,1.7,0,0-.46-.7-.46-1.52,0-.66.41-1.22.96-1.35Z"/>
              <path class="cls-8" d="m193.4,45.15s.77.81,1.11.81,1.13-.81,1.13-.81"/>
              <path class="cls-34" d="m200.89,40c.06.02.1-.07.06-.12-.25-.31-.84-.93-1.54-1.07s-1.77-.08-2.31-.03c-.27.02-.49.28-.49.6,0,0,0,0,0,.01,0,.25.14.36.26.41.09.04.19.04.28.03.39-.06,1.99-.32,2.27-.23.25.08,1.08.3,1.47.41Z"/>
              <path class="cls-34" d="m189.61,39.9c.4-.11.9-.25,1.08-.3.29-.09,1.89.17,2.28.23.09.02.19.01.28-.03.12-.05.26-.16.26-.41h0c0-.33-.22-.59-.49-.61-.54-.05-1.62-.11-2.31.03-.42.09-.8.35-1.09.61,0,.13,0,.3,0,.48Z"/>
              <g>
                <ellipse class="cls-34" cx="198.23" cy="41.97" rx=".71" ry="1"/>
                <path class="cls-34" d="m197.52,41.35c-.11-1.1,1.72-1.2,1.7-.09-.7.18-.84.26-1.7.09h0Z"/>
                <ellipse class="cls-34" cx="191.62" cy="41.97" rx=".71" ry="1"/>
                <path class="cls-34" d="m192.33,41.35c-.86.17-1,.09-1.7-.09-.02-1.11,1.81-1.02,1.7.09h0Z"/>
              </g>
              <path class="cls-34" d="m189.78,45.13v-.35s.34,3.3,1.64,4.48c.67.61,1.23.73,1.85.37.38-.21.76-.35,1.18-.37h.03c.42.03.82.18,1.2.39.63.36,2.1.43,3.33-.43,1.44-1.01,4.29-4.44,4.29-4.44,0,0-.61,3.14-.85,3.73-.69,1.67-2.15,2.74-3.5,3.68-2.13,1.48-4.29,1.39-4.29,1.39,0,0-1.33-.06-2.86-2.02-.86-1.1-1.43-2.39-1.73-3.75-.17-.76-.3-1.69-.3-2.68Z"/>
            </g>
            <g>
              <path class="cls-34" d="m201.48,40.6c-.04-.15-.82-.25-1.52-.24-.7.01-1.35-.06-2.63.08,0,0-1.03.14-1.49.24-1.5.32-2.07.16-3.37-.13,0,0-.01,0-.02,0-.8-.18-1.4-.18-2.11-.19-.7-.01-1.3.14-1.34.29-.04.15-.07.65.09.74.16.09.3.04.51.87.22.84.15,1.49,1.2,1.86.93.33,1.53.23,2.17-.34.64-.57,1.08-2.09,1.17-2.36.03-.09.32-.13.55-.11.18.01.51.15.53.34l.02.22c.02.23.06.46.11.68.1.41.3.96.74,1.35.64.57,2.33.62,3.37.23,1.04-.39,1.17-1.08,1.39-1.91.22-.84.35-.79.51-.87.16-.09.14-.6.09-.74Zm-7.91,1.35c-.11.6-.35,1.39-.88,1.75-.53.37-.76.38-1.36.32-.89-.1-1.14-.63-1.29-1.19-.15-.56-.26-1.41-.09-1.79.16-.38,1.12-.46,1.87-.39.74.06.81.15,1.31.39.04.02.55.31.45.91Zm6.75.88c-.15.56-.42.98-1.29,1.19-.87.22-2.06.05-2.58-.32-.53-.37-.77-1.15-.88-1.75-.11-.6.41-.89.45-.91.5-.24,2.4-.33,3.14-.39.74-.06,1.09.01,1.26.39.16.38.05,1.23-.09,1.79Z"/>
              <path class="cls-34" d="m201.02,40.68s2.37-.39,2.89-.38c.26,0,.42.13.51.26.08.11.1.26.08.4v.04c-.22.04-.42-.06-.57-.22-.04-.04-.09-.06-.15-.05-.22.04-2.85.54-2.85.54l.1-.59Z"/>
            </g>
            <path class="cls-34" d="m203.31,32.41c-1.06-1.63-3.44-1.71-3.47-1.71,0,0-1.96-1.89-5.59-1.83,0,0-6.48-1.06-5.93,5.96,0,0-1.31.62-.98,3.32.23,1.91,2.27,1.75,2.27,1.75,0,0,.12-.14.41-1.86.03-.18.06-.37.1-.58.04-.21.06-.43.08-.65.1-1.63,1.1-2.54,2.56-2.99,0,0,0,0,.01,0,.26-.08.53-.15.82-.2.58-.11,1.21-.17,1.86-.19.04,0,.88-.02,1.34-.02.05,0,.1,0,.15,0,0,0,.08,0,.22,0,.58.05,1.74.3,2.62.95,0,0-.32,3.75,1.71,5.64h0c.79,1.9,2.44,2.9,2.7,2.97,0,0,2.72-5.04-.88-10.57Z"/>
            <path class="cls-34" d="m192.76,33.81c-1.47.46-2.47,1.37-2.57,3-.02.22-.04.44-.08.65-.03.21-.07.4-.1.58-.09-.7-.23-2.77.01-4.38.34-2.18,2.51-2.06,2.73.15Z"/>
            <path class="cls-34" d="m199.83,34.1c-.01.1-.03.18-.07.26-.89-.64-2.04-.89-2.62-.95-.14,0-.22,0-.22,0-.04,0-.09,0-.15,0,.89-.84,1.71-.79,2.25-.58.52.2.88.72.81,1.28Z"/>
            <path class="cls-19" d="m214.96,59.82s12.68,13.13,14.81,15.87l-5.24,4.88c-1.28-.97-16.2-12.24-16.2-12.24l6.63-8.51Z"/>
            <circle class="cls-19" cx="226.16" cy="77.74" r="4.25"/>
            <path class="cls-23" d="m211.73,94.02l-.99-.94-2,.33c-1.21-.26-1.81-.98-2.41-1.01-.6-.03-1.58-.55-1.58-.55-.46.88.69,1.65.69,1.65-.08,0-.17-.02-.25-.03-.21-.02-.41-.04-.62-.06-.26-.03-.52-.05-.79-.08-.25-.02-.51-.06-.76-.07-.2-.02-.39-.03-.59-.02-.21.01-.4.07-.59.13-.25.08-1.51.68-1.73.75-.1.03-.31.1-.31.1-.07.26-.06.54.09.75.27.39.86.32,1.16.24.22-.06.52-.2.73-.3.18-.09.13-.12.46-.12.19,0,.39.05.58.07.42.05.84.1,1.26.16.1.01.19.03.29.04,0,0-1.94.56-2.54.8-.45.18-1.62,1.56-1.62,1.56-.85.99.66,1.19.66,1.19-.07.09-.15.25-.14.37.01.1.09.18.16.24.12.1.27.14.42.17.27.06.55.06.81-.03.07-.03.15-.06.22-.1.07-.04.14-.08.2-.12.08-.05.17-.11.25-.17.25-.18.51-.36.74-.57.03-.03.09-.11.13-.12,0,0,1.53-.25,1.53-.25-.49.34-.93,1.33-1.59,1.83-.1.08-.2.16-.28.26-.07.1-.16.24-.12.38.03.13.16.16.25.19.31.09.63.05.94-.06.16-.05.31-.13.45-.23.11-.07.21-.15.3-.24.04-.04.08-.08.12-.13.83-1.13,1.82-1.76,3.22-1.2,2.02.8,3.24-2.22,3.24-2.22l.03-2.58Z"/>
            <circle class="cls-19" cx="187.33" cy="64.33" r="5.58"/>
            <path class="cls-19" d="m191.49,67.54s-14.28,11.38-17.21,13.24l-4.36-5.68c1.09-1.18,13.72-14.96,13.72-14.96l7.84,7.4Z"/>
            <path class="cls-19" d="m163.7,57.55l-5.07,2.72s7.98,17.49,11.5,19.8l6.2-5.59c-.31-1.18-12.61-16.9-12.63-16.93Z"/>
            <circle class="cls-19" cx="172.77" cy="76.81" r="4.25"/>
            <path class="cls-36" d="m211,90.38c.06.06.1.09.12.11-.03-.04-.07-.07-.12-.11Z"/>
            <path class="cls-36" d="m206.52,89.72h-.17c.05,0,.11,0,.17,0Z"/>
          </g>
          <g>
            <path class="cls-23" d="m55.51,45.42s-.04-.07-.05-.11c-.09-.17-.13-.36-.13-.56,0-.2.03-.39.13-.56.06-.18.16-.34.3-.47.1-.1.22-.18.33-.26,0-.35.02-.71.02-1.1.03-1.3-.05-2.43-.22-3.41-.87-5.07-4.24-6.13-8.62-6.22-5.22-.11-8.45,2.42-8.59,9.28-.03,1.47-.26,4.76,3.38,6.37.85.37,1.84.65,3.01.79.85.11,1.8.14,2.85.09.85-.04,1.77-.14,2.76-.31,4.05.55,5,1.12,5.3-2.43-.25-.27-.47-.56-.58-.86.05-.08.08-.16.12-.23Z"/>
            <g>
              <g>
                <path class="cls-10" d="m30.25,110.2c-.64,3.97,3.81,7.78,9.89,8.47l5.92.67c6.08.69,11.6-2.71,12.27-7.55s.04-13.67-1.41-19.6l-2.07-8.47c-1.45-5.94-4.71-11.78-7.24-12.97s-7.76-2.17-11.63-2.17-6.67,4.99-6.24,11.09l.87,12.24c.43,6.1.27,14.34-.37,18.3Z"/>
                <path class="cls-2" d="m30.25,110.2c-.64,3.97,3.81,7.78,9.89,8.47l5.92.67c6.08.69,11.6-2.71,12.27-7.55s.04-13.67-1.41-19.6l-2.07-8.47c-1.45-5.94-4.71-11.78-7.24-12.97s-7.76-2.17-11.63-2.17-6.67,4.99-6.24,11.09l.87,12.24c.43,6.1.27,14.34-.37,18.3Z"/>
              </g>
              <g>
                <path class="cls-10" d="m33.78,111.79c-.67,4.84,3.78,8.81,9.89,8.81h5.43c6.11,0,11.67-3.96,12.34-8.81s.18-13.7-1.1-19.68l-2.71-12.67c-1.28-5.98-7.32-10.87-13.44-10.87h-.53c-6.11,0-10.76,4.99-10.33,11.09l.87,12.24c.43,6.1.24,15.05-.44,19.89Z"/>
                <path class="cls-2" d="m33.78,111.79c-.67,4.84,3.78,8.81,9.89,8.81h5.43c6.11,0,11.67-3.96,12.34-8.81s.18-13.7-1.1-19.68l-2.71-12.67c-1.28-5.98-7.32-10.87-13.44-10.87h-.53c-6.11,0-10.76,4.99-10.33,11.09l.87,12.24c.43,6.1.24,15.05-.44,19.89Z"/>
              </g>
              <rect class="cls-7" x="29.09" y="114.47" width="48.11" height="5.97" rx=".95" ry=".95" transform="translate(106.28 234.91) rotate(180)"/>
              <rect class="cls-7" x="29.09" y="114.47" width="30.46" height="5.97" rx=".99" ry=".99" transform="translate(88.64 234.91) rotate(-180)"/>
            </g>
            <g>
              <path class="cls-34" d="m75.68,128.99c-.54-8.07.81-19.4.81-19.4h9.84"/>
              <path class="cls-34" d="m52.32,96.67c9.11-.21,30.59,7.51,30.59,7.51l-.6,10.4c-6.15,1.09-13.56.29-17.91.34-3.59.04-9.62-.29-12.58-.38l.49-17.87Z"/>
              <circle class="cls-34" cx="52.04" cy="105.56" r="8.94"/>
              <circle class="cls-34" cx="81.16" cy="109.09" r="5.19"/>
            </g>
            <g>
              <path class="cls-34" d="m73.71,109.47l-10.4.35s-5.47,10.65-4.7,18.69l11.24,5.7,3.87-24.93"/>
              <path class="cls-34" d="m43.11,97.11c8.04-.24,26.98,7.41,26.98,7.41l-.57,10.4c-5.43,1.11-11.97.34-15.81.4-3.17.05-7.16-.35-9.77-.43l-.84-17.77Z"/>
              <circle class="cls-34" cx="46.98" cy="106.03" r="8.94"/>
              <circle class="cls-34" cx="68.53" cy="109.47" r="5.19"/>
            </g>
            <g>
              <g>
                <g>
                  <g>
                    <path class="cls-23" d="m78.25,75.48l1.86-3.76c.41-.81.77-1.65,1.08-2.51.51-1.41.94-2.84,1.29-4.29l2.23-9.37-3.62-1.14s-.78,2.68-2.31,5.49c-2.55,4.67-6.3,11.15-5.84,13.58l5.31,2.01Z"/>
                    <g>
                      <path class="cls-23" d="m81.04,54.54s-.77-4.01.09-6.79c0,0,1.49.95,2.11.04.49-.71,3.26-.66,4.59,1.2.61.86.56,2.13-.11,3.09-.74,1.06-1.97,2.65-3.07,3.69l-3.61-1.23Z"/>
                      <g>
                        <ellipse class="cls-23" cx="82.08" cy="48.11" rx="1.03" ry="1.04" transform="translate(9.43 109.54) rotate(-70.59)"/>
                        <path class="cls-23" d="m83.38,45.93s-.25.59-.28,2.38l-1.97-.61s1-2.16,1.64-3.59c.12-.26.49-.26.61,0h0c.21.45.24.95.11,1.42l-.11.4Z"/>
                      </g>
                      <g>
                        <g>
                          <path class="cls-23" d="m90.64,45.92c.06-.23-.15-.43-.37-.39h0c-.48.1-.87.44-1.03.89s-.38,1.11-.58,1.75l1.32.47.67-2.72Z"/>
                          <circle class="cls-23" cx="89.28" cy="48.47" r=".7" transform="translate(13.9 116.57) rotate(-70.59)"/>
                        </g>
                        <g>
                          <g>
                            <circle class="cls-23" cx="87.42" cy="50.89" r=".79" transform="translate(10.38 116.44) rotate(-70.59)"/>
                            <path class="cls-23" d="m89.85,48.89l-1.79,2.47-1.28-.94s1.02-1.26,2.02-2.45l1.05.92Z"/>
                          </g>
                          <circle class="cls-23" cx="89.28" cy="48.47" r=".7" transform="translate(13.9 116.57) rotate(-70.59)"/>
                        </g>
                      </g>
                      <g>
                        <g>
                          <path class="cls-23" d="m89.45,41.54c.07-.22-.12-.44-.35-.4h0c-.48.07-.88.4-1.04.85-.43,1.19-1.2,3.43-1.51,4.24l1.29.53,1.61-5.22Z"/>
                          <circle class="cls-23" cx="87.16" cy="46.55" r=".7" transform="translate(14.3 113.29) rotate(-70.59)"/>
                        </g>
                        <g>
                          <g>
                            <circle class="cls-23" cx="85.26" cy="48.94" r=".79" transform="translate(10.78 113.1) rotate(-70.59)"/>
                            <path class="cls-23" d="m87.73,46.98l-1.83,2.44-1.26-.97s1.04-1.25,2.06-2.42l1.03.94Z"/>
                          </g>
                          <circle class="cls-23" cx="87.16" cy="46.55" r=".7" transform="translate(14.3 113.29) rotate(-70.59)"/>
                        </g>
                      </g>
                      <g>
                        <g>
                          <path class="cls-23" d="m85.18,45.71l1.32.47,1.24-4.93c.06-.22-.14-.43-.37-.38l-.18.04c-.36.07-.65.34-.77.69-.34,1.07-.97,3.27-1.24,4.12Z"/>
                          <circle class="cls-23" cx="85.82" cy="46" r=".7" transform="translate(13.92 111.66) rotate(-70.59)"/>
                        </g>
                        <g>
                          <g>
                            <circle class="cls-23" cx="83.84" cy="48.32" r=".79" transform="translate(10.41 111.33) rotate(-70.59)"/>
                            <path class="cls-23" d="m86.36,46.45l-1.91,2.38-1.23-1.01s1.08-1.21,2.14-2.34l1,.98Z"/>
                          </g>
                          <circle class="cls-23" cx="85.82" cy="46" r=".7" transform="translate(13.92 111.66) rotate(-70.59)"/>
                        </g>
                      </g>
                      <g>
                        <g>
                          <circle class="cls-23" cx="88.59" cy="47.07" r=".7" transform="translate(14.76 114.99) rotate(-70.59)"/>
                          <g>
                            <g>
                              <circle class="cls-23" cx="86.69" cy="49.46" r=".79" transform="translate(11.24 114.79) rotate(-70.59)"/>
                              <path class="cls-23" d="m89.15,47.5l-1.83,2.44-1.26-.97s1.04-1.25,2.06-2.42l1.03.94Z"/>
                            </g>
                            <circle class="cls-23" cx="88.59" cy="47.07" r=".7" transform="translate(14.76 114.99) rotate(-70.59)"/>
                          </g>
                        </g>
                        <path class="cls-23" d="m90.64,43.31c.07-.21-.1-.42-.32-.39h0c-.5.06-.93.38-1.12.84-.36.86-.9,2.23-1.21,2.97l1.28.58,1.38-3.99Z"/>
                      </g>
                    </g>
                  </g>
                  <circle class="cls-23" cx="75.64" cy="74.35" r="2.84" transform="translate(-29.23 90.18) rotate(-53.09)"/>
                </g>
                <g>
                  <path class="cls-23" d="m52.37,69.63s8.64,3.33,21.95,7.47l1.76-5.42c-11.44-4.6-20.83-9.48-20.83-9.48l-2.88,7.42Z"/>
                  <circle class="cls-23" cx="53.81" cy="65.92" r="3.98" transform="translate(-31.26 63.72) rotate(-49.29)"/>
                  <circle class="cls-23" cx="75.33" cy="74.43" r="2.85" transform="translate(-30.11 84.33) rotate(-50.02)"/>
                </g>
              </g>
              <path class="cls-27" d="m68.61,67.82c-5.94-2.63-10.58-4.93-12.31-5.81-.24-.15-.49-.28-.76-.39l-.63-.33-.04.11c-.2-.05-.41-.08-.61-.1-2.06-.2-4.01,1.01-4.76,2.94-.85,2.18.07,4.61,2.05,5.72l-.02.05.62.24c.07.03,5.57,3.86,15.18,7l1.29-9.43Z"/>
            </g>
            <path class="cls-23" d="m58.64,81.66c-.38.88-.74,1.38-.74,1.46l-14.24-1.08c-2.57-6.53-3.7-17.48.8-25.08h8.05c2.86,1.77,9.89,19.26,6.13,24.69Z"/>
            <ellipse class="cls-21" cx="54.99" cy="75.57" rx="6.23" ry="7.12" transform="translate(-24.47 26.37) rotate(-22.19)"/>
            <g>
              <circle class="cls-23" cx="48.67" cy="59.9" r="4.4"/>
              <polygon class="cls-23" points="52.97 59.03 44.3 59.41 44.29 59.41 44.91 53.42 45.03 52.33 45.19 50.75 45.19 50.68 51.34 50.43 51.35 50.43 52.29 55.43 52.48 56.42 52.93 58.81 52.93 58.83 52.95 58.88 52.97 59.03"/>
            </g>
            <path class="cls-15" d="m52.48,56.42h-.41c-.24.01-.48.01-.72,0-1.15-.06-2.27-.38-3.31-.87-.58-.27-1.14-.6-1.67-.97-.51-.35-.99-.74-1.46-1.17l.11-1.09.16-1.58v-.06s6.15-.26,6.15-.26h.01l.94,5,.19.99Z"/>
            <path class="cls-23" d="m56.77,48.11c-1.54.64-.84,1.01-.78,1.4.02.16-.06.32-.47.51-.01.05-.02.1-.03.16-.02.09-.04.19-.06.28-.05.31-.11.62-.24.9-.07.16-.16.32-.3.47-.14.57-.26,1.2-.43,1.78-.26.89-1.13,1.01-1.93.92-1.35-.15-2.7-.31-4.01-.67-1.42-.39-2.63-1.05-3.75-2-.55-.46-1.93-1.34-1.93-2.15.03-.19-.34.06-.31-.13.06-.44.1-.88.06-1.3-.06-.53-.25-1.04-.71-1.51-3.83-4.26.2-13.03,5.7-13.46,3.29-.58,6.78.6,8.01,3.74.63,1.59,1.08,5.05.58,6.72-.08.27-.2.64-.32.91-.22.5-.15,1.1.24,1.5.63.67,1.42,1.27.69,1.93Z"/>
            <path class="cls-14" d="m55.36,50.03c.22.09.42.91-.12,1.32-.22.17-2.05-.76-2.44-1.39h0s0,0,0,0h.01s0,0,0,0c0,0,2.19.04,2.55.07Z"/>
            <path class="cls-31" d="m56.05,49.72l-.38.6c-.06.09-.15.14-.25.15-.43.01-1.63,0-2.62-.51h0s0,0,.01,0h0c.15-.03,3.01-.44,3.19-.45.03,0,.09.15.05.21Z"/>
            <ellipse class="cls-34" cx="53.23" cy="44.69" rx=".47" ry=".94" transform="translate(-1.89 2.35) rotate(-2.49)"/>
            <path class="cls-34" d="m53.78,43.96c-.89.45-.56.28-1.52.24-.33-1.03,1.42-1.28,1.52-.24h0Z"/>
            <path class="cls-34" d="m56.66,44.25c-.95.3-.6.18-1.54-.02-.16-1.08,1.61-1.03,1.54.02h0Z"/>
            <path class="cls-34" d="m55.61,43.76c-.21,0-.38.3-.42.7,0,0,.01,0,.02,0,.07.04.13.09.18.16.06.06.09.13.11.21.04.11.06.22.09.33.01.05.04.1.06.15.01.02.02.05.04.07,0,.01.02.02.03.03.02.05.04.1.06.15,0,.02,0,.03,0,.05.22-.09.36-.48.34-.94-.02-.52-.25-.93-.51-.92Z"/>
            <path class="cls-34" d="m50.83,42.6c-.05,0-.07-.08-.03-.12.27-.23.89-.68,1.51-.68s1.5.27,1.94.41c.22.07.35.35.29.64,0,0,0,0,0,.01-.05.23-.19.3-.31.32-.08.02-.16,0-.24-.03-.31-.13-1.59-.67-1.85-.65-.23.02-.97.07-1.31.09Z"/>
            <path class="cls-34" d="m57.41,43.69s.06-.06.05-.11c-.1-.3-.35-.91-.72-1.1s-.97-.2-1.27-.19c-.15,0-.3.22-.34.52,0,0,0,0,0,.01-.03.23.03.34.1.4.04.04.1.05.15.04.22-.03,1.13-.15,1.28-.05.13.09.56.36.76.48Z"/>
            <path class="cls-9" d="m55.04,47.59s-.41.47.12.76"/>
            <path class="cls-19" d="m58.76,69.49c-.15-.49-.31-.99-.49-1.5-1.1-3.23-2.42-6.23-3.43-8.26.01.03-1.25-.1-1.33-.12-.77-.17-1.53-.4-2.29-.63-2.51-.76-4.5-2.19-6.52-3.83-.18.3-.34.6-.5.9-.07.13-.31.43-.31.58-4.79,8.08-3.91,19.38-1.61,25.42-.46,3.8-2.03,14.72-3.29,17.98,4.64,2.12,14.49-1.01,22.81-1.01.08-.31-1.16-9.43-1.85-17.61,2.01-2.01,2.66-5.35,1.4-8.44-.58-1.42-1.5-2.61-2.61-3.48Z"/>
            <g>
              <g>
                <g>
                  <path class="cls-23" d="m56.05,82.42l4.02-1.19c.87-.27,1.76-.48,2.65-.64,1.47-.26,2.95-.44,4.45-.54l9.65-.61.74,3.48s-3.04.61-6.07,1.64c-5.04,1.72-12.81,4.17-15.43,3.4l-.02-5.53Z"/>
                  <circle class="cls-21" cx="56.71" cy="85.18" r="2.84" transform="translate(-42.1 58.55) rotate(-41.26)"/>
                </g>
                <g>
                  <path class="cls-23" d="m44.59,65.2s3.5,8.57,9.6,21.11l5.15-2.43c-4.49-11.48-7.37-21.66-7.37-21.66l-7.38,2.99Z"/>
                  <circle class="cls-21" cx="48.28" cy="63.71" r="3.98" transform="translate(-2.68 2.12) rotate(-2.45)"/>
                  <circle class="cls-23" cx="56.83" cy="85.21" r="2.85" transform="translate(-4.81 3.42) rotate(-3.3)"/>
                </g>
              </g>
              <path class="cls-27" d="m52.84,62.84c-.06-.29-.14-.58-.26-.87-.86-2.12-3.17-3.31-5.39-2.77-.22.05-.44.12-.65.21-2.37.96-3.52,3.67-2.56,6.04,0,0,0,0,0,0h0c.03.07,4.68,14.8,4.68,14.8l9.85-4.61s-5.09-10.8-5.67-12.8Z"/>
            </g>
            <circle class="cls-23" cx="77.19" cy="81.18" r="1.79"/>
            <g>
              <path class="cls-23" d="m83.28,82.02c.33-1.1-.59-2.58.79-2.63.28.92.4,2.41-.06,3.63l-.73-1Z"/>
              <path class="cls-23" d="m84.21,81.51c.54-1.36-.44-3.1,1.32-3.01.26,1.21.22,2.86-.5,4.36l-.82-1.35Z"/>
              <path class="cls-23" d="m84.95,80.87c.64-1.32-.27-3.49,1.49-3.28.17,1.22.06,3.24-.77,4.69l-.72-1.41Z"/>
              <path class="cls-23" d="m76.47,79.91l5.36.18c.97.86,2.23,1.07,3.85.49.78-1.51.83-3.12,2.01-2.76.1,1.23-.22,3.04-1.13,4.44l-4.17,1.78c-2.09-.07-4.15-.47-5.87-1.06l-.04-3.07Z"/>
              <path class="cls-23" d="m86.55,82.25s-.77.35-1.74.59-1.76.41-1.77.37c0-.04.77-.26,1.74-.51.97-.24,1.76-.49,1.77-.46Z"/>
              <path class="cls-23" d="m81.82,80.24c.71-.8,1.03-.43,2.32-.71,1.89-.41,1.69-1.71,1.22-1.87-.47-.16-3.3.48-3.3.48-1.91.5-3.94.15-5.6,1.77,1.14.93,3.29.34,5.36.33Z"/>
            </g>
            <polygon class="cls-22" points="51.99 42.9 54.24 43.19 54.11 46.41 52.26 46.59 51.99 42.9"/>
            <polygon class="cls-22" points="55.54 43.41 57.06 43.66 56.98 46.44 55.73 46.59 55.54 43.41"/>
            <path class="cls-34" d="m30.67,57.03s1.47,3.88,5.13,4.09c3.66.21,7.13-6.39,3.09-13.15-4.04-6.76-.65-10.38-.65-10.38,0,0-2.02-.98-4.65.79-2.63,1.77-3.25,7.06-.89,10.85,2.36,3.79,3.42,8.69-2.03,7.81Z"/>
            <path class="cls-34" d="m50.28,36.05s.37,5.16-3.83,6.85c0,0-.58.33,0,2.6,0,0,1.13,5.13-1.86,6.19,0,0-1.29-.82-2.92-1.95,0,0-2.68-.77-4.58-5.45-1.19-3.17-.65-6.72,1.41-9.4.07-.09.15-.18.23-.27.83-.83,4.28-5.01,10.61-3.26.1.03.19.06.28.1.87.35,5.08,2.18,6.44,6.09-.01,0-2.24.29-5.77-1.5Z"/>
            <path class="cls-34" d="m48.13,40.65s.55,2.63-.42,4.29c0,0-.75-1.35-2.01-1.44s-.11-1.32-.11-1.32l2.53-1.53Z"/>
            <path class="cls-34" d="m44.1,52.58c.44-.92.27-2.01-.42-2.76l-2.88-.53s3.15,1.88,3.3,3.28Z"/>
            <path class="cls-14" d="m57.11,43.42c-.07-.15-1.77-.37-1.86-.33-.03.41-.04.82-.02,1.24-.02-.03-.05-.05-.07-.07-.21-.17-.52-.14-.69.07,0,0,.04-1.29-.02-1.36s-2.66-.54-2.76-.49c-.07.03-.05.66-.05.66l-5.88.44c0,.18.02.35.02.53,2.19-.1,5.51-.25,5.84-.25,0,0-.02,2.73.21,2.98.15.17,2.3.02,2.51-.19.12-.11.13-1.83.12-1.83.03-.05.07-.1.12-.13.18-.13.44-.08.57.1.06.11.38.53.62.85-.02-.82-.07-2.04-.04-2.05.07-.03,1,.07,1.04.12,0,.01,0,2.56-.03,2.58-.02.02-.49.06-.49.06l.35.38s.43-.05.46-.1c.04-.04.11-3.06.04-3.21Zm-3.05,1.58s.03,0,.05-.01c-.01.68-.01,1.3-.05,1.33-.04.03-1.62.13-1.66.07-.03-.06-.14-3.28-.08-3.3.08-.04,1.75.22,1.79.28.01.02.01.41.01.9-.02,0-.04-.01-.06-.01-.15.03-.27.15-.3.3-.04.21.09.41.3.45Z"/>
            <path class="cls-23" d="m46.79,47.87c-.95.12-2.58-1.89-2.45-3.34.1-1.09,1.37-1.67,2.45-.92,0,0,1.11.92.79,2.12,0,0,.67,1.95-.79,2.14Z"/>
          </g>
          <polygon class="cls-34" points="174.11 109.29 177.98 134.22 188.81 134.22 184.49 117.45 179.3 111.63 174.11 109.29"/>
        </g>
      </g>
    </g>
  </g>
</svg>