<?xml version="1.0" encoding="UTF-8"?>
<svg id="Layer_2" data-name="Layer 2" xmlns="http://www.w3.org/2000/svg" viewBox="0 0 222.41 141.83">
  <defs>
    <style>
      .cls-1, .cls-2 {
        fill: #a59a6e;
      }

      .cls-3 {
        fill: #aa2734;
      }

      .cls-4 {
        fill: #54565a;
      }

      .cls-4, .cls-2, .cls-5, .cls-6 {
        stroke: #000;
        stroke-linecap: round;
        stroke-linejoin: round;
        stroke-width: 1.5px;
      }

      .cls-5 {
        fill: #fff;
      }

      .cls-6 {
        fill: none;
      }
    </style>
  </defs>
  <g id="Content">
    <g>
      <g>
        <path class="cls-3" d="m111.07,1.5c8.46,0,15.35,6.82,15.43,15.29.07,8.14-6.17,14.87-14.16,15.52-.37.03-.75.05-1.13.05-.05,0-.11,0-.16,0-.42,0-.84-.02-1.25-.05-7.87-.64-14.09-7.19-14.16-15.24-.08-8.52,6.77-15.49,15.29-15.57.05,0,.09,0,.14,0m0-1.5h-.16c-9.33.09-16.86,7.75-16.78,17.09.08,8.82,6.76,16.01,15.54,16.72.46.04.92.06,1.37.06h.18c.42,0,.84-.02,1.24-.06,8.78-.71,15.61-8.19,15.53-17.02-.08-9.25-7.68-16.78-16.93-16.78h0Z"/>
        <g>
          <path class="cls-4" d="m120.55,16.42c.01-.47-.26-.88-.67-1.05.38-.23.59-.68.51-1.14v-.05c-.09-.46-.45-.81-.88-.9.32-.3.44-.77.27-1.21l-.03-.07c-.18-.44-.6-.69-1.05-.68.26-.37.28-.88,0-1.28l-.03-.04c-.27-.39-.75-.56-1.19-.45.17-.42.06-.93-.29-1.25,0,0-.02-.02-.02-.02-.35-.32-.85-.37-1.25-.17.06-.44-.16-.9-.58-1.12l-.05-.03c-.42-.23-.93-.15-1.27.15-.06-.45-.39-.84-.85-.95,0,0-.05-.01-.06-.01-.47-.11-.92.11-1.16.5-.16-.42-.57-.73-1.05-.72h-.09c-.48.02-.87.34-1,.78-.27-.36-.75-.54-1.21-.4l-.07.02c-.46.15-.74.56-.76,1.01-.36-.29-.87-.33-1.28-.08l-.04.02c-.41.25-.6.72-.51,1.16-.41-.18-.91-.1-1.24.24l-.04.04c-.33.34-.4.83-.22,1.24-.44-.08-.89.11-1.14.5l-.04.06c-.25.41-.2.89.08,1.24-.44,0-.86.29-1.02.73l-.02.07c-.16.45,0,.92.34,1.2-.43.1-.78.46-.85.92v.07c-.07.47.17.9.56,1.11-.4.19-.67.6-.64,1.07v.07c.04.47.36.84.79.97-.36.26-.54.73-.41,1.18l.02.07c.13.46.53.75.97.79-.3.34-.37.83-.15,1.25l.03.06c.23.42.68.62,1.12.56-.22.4-.18.91.14,1.27l.03.03c.31.36.8.47,1.22.32-.11.43.04.91.43,1.18l.06.04c.39.28.89.25,1.26-.01-.01.46.26.89.71,1.07l.07.03c.45.17.93.02,1.22-.33.11.44.49.79.97.84h.07s.04.01.07.01c.45.01.85-.25,1.03-.65.22.4.68.65,1.16.57,0,0,.06,0,.06,0,.48-.08.81-.46.88-.91.31.33.81.45,1.25.26l.08-.03c.43-.2.67-.64.63-1.09.39.24.9.22,1.27-.08l.05-.04c.38-.3.49-.79.34-1.21.43.15.93.01,1.23-.37l.03-.04c.29-.37.31-.87.08-1.25.44.04.88-.21,1.09-.63l.02-.04c.2-.42.12-.91-.19-1.24.43-.06.81-.38.92-.83l.02-.07c.11-.46-.09-.91-.46-1.16.42-.14.73-.53.75-1v-.1s0-.01,0-.01Z"/>
          <g>
            <g>
              <polyline class="cls-5" points="122.46 27.05 114.14 23.44 114.14 19.81 108 19.81 108 23.44 99.66 27.1"/>
              <polygon class="cls-5" points="111.07 25.93 114.14 23.44 114.14 19.81 108 19.81 108 23.44 111.07 25.93"/>
              <polygon class="cls-5" points="111.07 25.93 108.9 27.71 106.89 23.9 108 22.93 111.07 25.93"/>
              <polygon class="cls-5" points="111.07 25.93 113.24 27.71 115.25 23.9 114.14 22.93 111.07 25.93"/>
              <polyline class="cls-6" points="112.48 27.09 111.82 28.49 111.07 28.49 110.32 28.49 109.66 27.09"/>
              <line class="cls-6" x1="112.34" y1="32.31" x2="111.82" y2="28.49"/>
              <line class="cls-6" x1="110.32" y1="28.49" x2="109.81" y2="32.31"/>
            </g>
            <path class="cls-5" d="m116.11,13.81c0,3.61,0-1.21,0,2.4-.13,2.89-2.37,5.7-5.02,5.68-2.63-.02-4.82-2.82-4.95-5.68,0-3.61,0,.65,0-2.96"/>
            <path class="cls-5" d="m106.14,13.26s2.18-1.19,2.85-3.24c0,0,2.14,3.49,7.12,3.8"/>
          </g>
        </g>
      </g>
      <g>
        <line class="cls-6" x1="91.81" y1="32.73" x2="69.36" y2="44.5"/>
        <polygon points="70.91 36.76 72.33 37.26 69.87 44.23 77.01 46.18 76.61 47.63 67.92 45.26 70.91 36.76"/>
      </g>
      <g>
        <line class="cls-6" x1="129.5" y1="32.73" x2="152.03" y2="44.5"/>
        <polygon points="144.79 47.64 144.39 46.19 151.52 44.24 149.05 37.27 150.47 36.77 153.47 45.26 144.79 47.64"/>
      </g>
      <g>
        <g>
          <path class="cls-3" d="m176.8,41.72c8.46,0,15.35,6.82,15.43,15.29.07,8.14-6.17,14.87-14.16,15.52-.37.03-.75.05-1.13.05-.05,0-.1,0-.16,0-.42,0-.84-.02-1.25-.05-7.87-.64-14.09-7.19-14.16-15.24-.08-8.52,6.77-15.49,15.29-15.57.05,0,.09,0,.14,0m0-1.5h-.16c-9.33.09-16.86,7.75-16.78,17.09.08,8.82,6.76,16.01,15.54,16.72.47.04.93.06,1.37.06h.17c.42,0,.84-.02,1.24-.06,8.78-.71,15.61-8.19,15.53-17.02-.08-9.25-7.68-16.78-16.93-16.78h0Z"/>
          <g>
            <path class="cls-4" d="m186.28,56.64c.01-.47-.26-.88-.67-1.05.38-.23.59-.68.51-1.14v-.05c-.09-.46-.45-.81-.88-.9.32-.3.44-.77.27-1.21l-.03-.07c-.18-.44-.6-.69-1.05-.68.26-.37.28-.88,0-1.28l-.03-.04c-.27-.39-.75-.56-1.19-.45.17-.42.06-.93-.29-1.25,0,0-.02-.02-.02-.02-.35-.32-.85-.37-1.25-.17.06-.44-.16-.9-.58-1.12l-.05-.03c-.42-.23-.93-.15-1.27.15-.06-.45-.39-.84-.85-.95,0,0-.05-.01-.06-.01-.47-.11-.92.11-1.16.5-.16-.42-.57-.73-1.05-.72h-.09c-.48.02-.87.34-1,.78-.27-.36-.75-.54-1.21-.4l-.07.02c-.46.15-.74.56-.76,1.01-.36-.29-.87-.33-1.28-.08l-.04.02c-.41.25-.6.72-.51,1.16-.41-.18-.91-.1-1.24.24l-.04.04c-.33.34-.4.83-.22,1.24-.44-.08-.89.11-1.14.5l-.04.06c-.25.41-.2.89.08,1.24-.44,0-.86.29-1.02.73l-.02.07c-.16.45,0,.92.34,1.2-.43.1-.78.46-.85.92v.07c-.07.47.17.9.56,1.11-.4.19-.67.6-.64,1.07v.07c.04.47.36.84.79.97-.36.26-.54.73-.41,1.18l.02.07c.13.46.53.75.97.79-.3.34-.37.83-.15,1.25l.03.06c.23.42.68.62,1.12.56-.22.4-.18.91.14,1.27l.03.03c.31.36.8.47,1.22.32-.11.43.04.91.43,1.18l.06.04c.39.28.89.25,1.26-.01-.01.46.26.89.71,1.07l.07.03c.45.17.93.02,1.22-.33.11.44.49.79.97.84h.07s.04.01.07.01c.45.01.85-.25,1.03-.65.22.4.68.65,1.16.57,0,0,.06,0,.06,0,.48-.08.81-.46.88-.91.31.33.81.45,1.25.26l.08-.03c.43-.2.67-.64.63-1.09.39.24.9.22,1.27-.08l.05-.04c.38-.3.49-.79.34-1.21.43.15.93.01,1.23-.37l.03-.04c.29-.37.31-.87.08-1.25.44.04.88-.21,1.09-.63l.02-.04c.2-.42.12-.91-.19-1.24.43-.06.81-.38.92-.83l.02-.07c.11-.46-.09-.91-.46-1.16.42-.14.73-.53.75-1v-.1s0-.01,0-.01Z"/>
            <g>
              <g>
                <polyline class="cls-5" points="188.19 67.28 179.87 63.67 179.87 60.03 173.73 60.03 173.73 63.67 165.39 67.33"/>
                <polygon class="cls-5" points="176.8 66.15 179.87 63.67 179.87 60.03 173.73 60.03 173.73 63.67 176.8 66.15"/>
                <polygon class="cls-5" points="176.8 66.15 174.63 67.94 172.62 64.13 173.73 63.15 176.8 66.15"/>
                <polygon class="cls-5" points="176.8 66.15 178.97 67.94 180.98 64.13 179.87 63.15 176.8 66.15"/>
                <polyline class="cls-6" points="178.21 67.31 177.55 68.71 176.8 68.71 176.05 68.71 175.39 67.31"/>
                <line class="cls-6" x1="178.07" y1="72.53" x2="177.55" y2="68.71"/>
                <line class="cls-6" x1="176.05" y1="68.71" x2="175.53" y2="72.53"/>
              </g>
              <path class="cls-5" d="m181.84,54.03c0,3.61,0-1.21,0,2.4-.13,2.89-2.37,5.7-5.02,5.68-2.63-.02-4.82-2.82-4.95-5.68,0-3.61,0,.65,0-2.96"/>
              <path class="cls-5" d="m171.87,53.49s2.18-1.19,2.85-3.24c0,0,2.14,3.49,7.12,3.8"/>
            </g>
          </g>
        </g>
        <g>
          <line class="cls-6" x1="163.63" y1="75.25" x2="152.61" y2="86.57"/>
          <polygon points="151.68 78.73 153.18 78.76 153.01 86.16 160.4 85.78 160.47 87.28 151.47 87.73 151.68 78.73"/>
        </g>
        <g>
          <line class="cls-6" x1="188.69" y1="75.25" x2="199.7" y2="86.57"/>
          <polygon points="191.84 87.29 191.92 85.79 199.3 86.16 199.13 78.76 200.63 78.73 200.84 87.74 191.84 87.29"/>
        </g>
        <g>
          <line class="cls-6" x1="177.04" y1="80.62" x2="177.08" y2="96.41"/>
          <polygon points="170.93 91.46 172.03 90.43 177.08 95.84 182.1 90.41 183.2 91.43 177.08 98.04 170.93 91.46"/>
        </g>
        <g>
          <path class="cls-3" d="m176.74,109.47c8.46,0,15.35,6.82,15.43,15.29.07,8.14-6.17,14.87-14.16,15.52-.37.03-.75.05-1.13.05-.05,0-.11,0-.16,0-.42,0-.83-.02-1.24-.05-7.87-.64-14.09-7.19-14.16-15.24-.08-8.52,6.77-15.49,15.29-15.57.05,0,.09,0,.14,0m0-1.5v1.5-1.5h-.16c-9.33.09-16.86,7.75-16.78,17.09.08,8.82,6.76,16.01,15.54,16.72.46.04.92.06,1.37.06h.18c.42,0,.84-.02,1.24-.06,8.79-.71,15.61-8.19,15.53-17.02-.08-9.25-7.68-16.78-16.93-16.78h0Z"/>
          <g>
            <path class="cls-4" d="m186.22,124.38c.01-.47-.26-.88-.67-1.05.38-.23.59-.68.51-1.14v-.05c-.09-.46-.45-.81-.88-.9.32-.3.44-.77.27-1.21l-.03-.07c-.18-.44-.6-.69-1.05-.68.26-.37.28-.88,0-1.28l-.03-.04c-.27-.39-.75-.56-1.19-.45.17-.42.06-.93-.29-1.25,0,0-.02-.02-.02-.02-.35-.32-.85-.37-1.25-.17.06-.44-.16-.9-.58-1.12l-.05-.03c-.42-.23-.93-.15-1.27.15-.06-.45-.39-.84-.85-.95,0,0-.05-.01-.06-.01-.47-.11-.92.11-1.16.5-.16-.42-.57-.73-1.05-.72h-.09c-.48.02-.87.34-1,.78-.27-.36-.75-.54-1.21-.4l-.07.02c-.46.15-.74.56-.76,1.01-.36-.29-.87-.33-1.28-.08l-.04.02c-.41.25-.6.72-.51,1.16-.41-.18-.91-.1-1.24.24l-.04.04c-.33.34-.4.83-.22,1.24-.44-.08-.89.11-1.14.5l-.04.06c-.25.41-.2.89.08,1.24-.44,0-.86.29-1.02.73l-.02.07c-.16.45,0,.92.34,1.2-.43.1-.78.46-.85.92v.07c-.07.47.17.9.56,1.11-.4.19-.67.6-.64,1.07v.07c.04.47.36.84.79.97-.36.26-.54.73-.41,1.18l.02.07c.13.46.53.75.97.79-.3.34-.37.83-.15,1.25l.03.06c.23.42.68.62,1.12.56-.22.4-.18.91.14,1.27l.03.03c.31.36.8.47,1.22.32-.11.43.04.91.43,1.18l.06.04c.39.28.89.25,1.26-.01-.01.46.26.89.71,1.07l.07.03c.45.17.93.02,1.22-.33.11.44.49.79.97.84h.07s.04.01.07.01c.45.01.85-.25,1.03-.65.22.4.68.65,1.16.57,0,0,.06,0,.06,0,.48-.08.81-.46.88-.91.31.33.81.45,1.25.26l.08-.03c.43-.2.67-.64.63-1.09.39.24.9.22,1.27-.08l.05-.04c.38-.3.49-.79.34-1.21.43.15.93.01,1.23-.37l.03-.04c.29-.37.31-.87.08-1.25.44.04.88-.21,1.09-.63l.02-.04c.2-.42.12-.91-.19-1.24.43-.06.81-.38.92-.83l.02-.07c.11-.46-.09-.91-.46-1.16.42-.14.73-.53.75-1v-.1s0-.01,0-.01Z"/>
            <g>
              <g>
                <polyline class="cls-5" points="188.13 135.02 179.81 131.41 179.81 127.77 173.67 127.77 173.67 131.41 165.33 135.07"/>
                <polygon class="cls-5" points="176.74 133.9 179.81 131.41 179.81 127.77 173.67 127.77 173.67 131.41 176.74 133.9"/>
                <polygon class="cls-5" points="176.74 133.9 174.57 135.68 172.56 131.87 173.67 130.89 176.74 133.9"/>
                <polygon class="cls-5" points="176.74 133.9 178.91 135.68 180.92 131.87 179.81 130.89 176.74 133.9"/>
                <polyline class="cls-6" points="178.15 135.06 177.49 136.45 176.74 136.45 175.99 136.45 175.33 135.06"/>
                <line class="cls-6" x1="178.01" y1="140.28" x2="177.49" y2="136.45"/>
                <line class="cls-6" x1="175.99" y1="136.45" x2="175.48" y2="140.28"/>
              </g>
              <path class="cls-5" d="m181.78,121.77c0,3.61,0-1.21,0,2.4-.13,2.89-2.37,5.7-5.02,5.68-2.63-.02-4.82-2.82-4.95-5.68,0-3.61,0,.65,0-2.96"/>
              <path class="cls-5" d="m171.81,121.23s2.18-1.19,2.85-3.24c0,0,2.14,3.49,7.12,3.8"/>
            </g>
          </g>
        </g>
        <g>
          <polygon class="cls-1" points="218.92 115.23 212.63 114.14 212.63 109.36 216.51 109.69 217.55 113.19 218.92 115.23"/>
          <path class="cls-2" d="m214.38,108.7c.73-.27,1.73.07,2.44,1.25.53.89.56,2.55.67,2.89.22.68.95,1.45,2.44,1.13,0,0-.12,1.12-.96,1.28"/>
          <path class="cls-2" d="m216.21,102.94c0,2.67-2.16,4.83-4.83,4.83s-4.83-2.16-4.83-4.83,2.16-4.87,4.83-4.87,4.83,2.2,4.83,4.87Z"/>
          <g>
            <path class="cls-5" d="m221.66,117.27c-.13-.69-.63-1.28-1.32-1.56l-6.61-2.22v-3.3h-4.71v3.3l-6.61,2.22c-.69.28-1.19.87-1.32,1.56"/>
            <path class="cls-5" d="m215.96,103.87c0,3.31,0-.61,0,2.7-.12,2.65-2.17,5.23-4.6,5.21-2.41-.02-4.42-2.58-4.54-5.21,0-3.31,0,.67,0-2.64l4.22-.05c1.04-.01,1.95-.7,2.25-1.69l.11-.37.03.14c.24,1.19,1.33,2.01,2.54,1.9h0Z"/>
            <path class="cls-5" d="m205.82,114.69s1.76,2.43,5.56,2.43,5.56-2.43,5.56-2.43"/>
          </g>
        </g>
        <g>
          <polygon class="cls-1" points="149.39 116.17 143.09 115.08 143.09 110.3 146.97 110.63 148.02 114.13 149.39 116.17"/>
          <path class="cls-2" d="m144.85,109.64c.73-.27,1.73.07,2.44,1.25.53.89.56,2.55.67,2.89.22.68.95,1.45,2.44,1.13,0,0-.12,1.12-.96,1.28"/>
          <path class="cls-2" d="m146.68,103.88c0,2.67-2.16,4.83-4.83,4.83s-4.83-2.16-4.83-4.83,2.16-4.87,4.83-4.87,4.83,2.2,4.83,4.87Z"/>
          <g>
            <path class="cls-5" d="m152.13,118.21c-.13-.69-.63-1.28-1.32-1.56l-6.61-2.22v-3.3h-4.71v3.3l-6.61,2.22c-.69.28-1.19.87-1.32,1.56"/>
            <path class="cls-5" d="m146.42,104.81c0,3.31,0-.61,0,2.7-.12,2.65-2.17,5.23-4.6,5.21-2.41-.02-4.42-2.58-4.54-5.21,0-3.31,0,.67,0-2.64l4.22-.05c1.04-.01,1.95-.7,2.25-1.69l.11-.37.03.14c.24,1.19,1.33,2.01,2.54,1.9h0Z"/>
            <path class="cls-5" d="m136.28,115.63s1.76,2.43,5.56,2.43,5.56-2.43,5.56-2.43"/>
          </g>
        </g>
      </g>
      <g>
        <g>
          <path class="cls-3" d="m16.93,86.89c8.46,0,15.35,6.82,15.43,15.29.07,8.14-6.17,14.87-14.16,15.52-.37.03-.75.05-1.13.05-.05,0-.11,0-.16,0-.42,0-.83-.02-1.24-.05-7.87-.64-14.09-7.19-14.16-15.24-.08-8.52,6.77-15.49,15.29-15.57.05,0,.09,0,.14,0m0-1.5v1.5-1.5h-.16C7.44,85.48-.08,93.14,0,102.48c.08,8.82,6.76,16.01,15.54,16.72.46.04.92.06,1.37.06h.18c.42,0,.84-.02,1.24-.06,8.78-.71,15.61-8.19,15.53-17.02-.08-9.25-7.68-16.78-16.93-16.78h0Z"/>
          <g>
            <path class="cls-4" d="m26.41,101.81c.01-.47-.26-.88-.67-1.05.38-.23.59-.68.51-1.14v-.05c-.09-.46-.45-.81-.88-.9.32-.3.44-.77.27-1.21l-.03-.07c-.18-.44-.6-.69-1.05-.68.26-.37.28-.88,0-1.28l-.03-.04c-.27-.39-.75-.56-1.19-.45.17-.42.06-.93-.29-1.25,0,0-.02-.02-.02-.02-.35-.32-.85-.37-1.25-.17.06-.44-.16-.9-.58-1.12l-.05-.03c-.42-.23-.93-.15-1.27.15-.06-.45-.39-.84-.85-.95,0,0-.05-.01-.06-.01-.47-.11-.92.11-1.16.5-.16-.42-.57-.73-1.05-.72h-.09c-.48.02-.87.34-1,.78-.27-.36-.75-.54-1.21-.4l-.07.02c-.46.15-.74.56-.76,1.01-.36-.29-.87-.33-1.28-.08l-.04.02c-.41.25-.6.72-.51,1.16-.41-.18-.91-.1-1.24.24l-.04.04c-.33.34-.4.83-.22,1.24-.44-.08-.89.11-1.14.5l-.04.06c-.25.41-.2.89.08,1.24-.44,0-.86.29-1.02.73l-.02.07c-.16.45,0,.92.34,1.2-.43.1-.78.46-.85.92v.07c-.07.47.17.9.56,1.11-.4.19-.67.6-.64,1.07v.07c.04.47.36.84.79.97-.36.26-.54.73-.41,1.18l.02.07c.13.46.53.75.97.79-.3.34-.37.83-.15,1.25l.03.06c.23.42.68.62,1.12.56-.22.4-.18.91.14,1.27l.03.03c.31.36.8.47,1.22.32-.11.43.04.91.43,1.18l.06.04c.39.28.89.25,1.26-.01-.01.46.26.89.71,1.07l.07.03c.45.17.93.02,1.22-.33.11.44.49.79.97.84h.07s.04.01.07.01c.45.01.85-.25,1.03-.65.22.4.68.65,1.16.57,0,0,.06,0,.06,0,.48-.08.81-.46.88-.91.31.33.81.45,1.25.26l.08-.03c.43-.2.67-.64.63-1.09.39.24.9.22,1.27-.08l.05-.04c.38-.3.49-.79.34-1.21.43.15.93.01,1.23-.37l.03-.04c.29-.37.31-.87.08-1.25.44.04.88-.21,1.09-.63l.02-.04c.2-.42.12-.91-.19-1.24.43-.06.81-.38.92-.83l.02-.07c.11-.46-.09-.91-.46-1.16.42-.14.73-.53.75-1v-.1s0-.01,0-.01Z"/>
            <g>
              <g>
                <polyline class="cls-5" points="28.32 112.44 20 108.84 20 105.2 13.86 105.2 13.86 108.84 5.52 112.49"/>
                <polygon class="cls-5" points="16.93 111.32 20 108.84 20 105.2 13.86 105.2 13.86 108.84 16.93 111.32"/>
                <polygon class="cls-5" points="16.93 111.32 14.76 113.1 12.75 109.29 13.86 108.32 16.93 111.32"/>
                <polygon class="cls-5" points="16.93 111.32 19.1 113.1 21.11 109.29 20 108.32 16.93 111.32"/>
                <polyline class="cls-6" points="18.34 112.48 17.68 113.88 16.93 113.88 16.18 113.88 15.52 112.48"/>
                <line class="cls-6" x1="18.2" y1="117.7" x2="17.68" y2="113.88"/>
                <line class="cls-6" x1="16.18" y1="113.88" x2="15.66" y2="117.7"/>
              </g>
              <path class="cls-5" d="m21.96,99.2c0,3.61,0-1.21,0,2.4-.13,2.89-2.37,5.7-5.02,5.68-2.63-.02-4.82-2.82-4.95-5.68,0-3.61,0,.65,0-2.96"/>
              <path class="cls-5" d="m12,98.65s2.18-1.19,2.85-3.24c0,0,2.14,3.49,7.12,3.8"/>
            </g>
          </g>
        </g>
        <g>
          <path class="cls-3" d="m85,86.89c8.46,0,15.35,6.82,15.43,15.29.07,8.14-6.17,14.87-14.16,15.52-.37.03-.75.05-1.13.05-.05,0-.11,0-.16,0-.42,0-.83-.02-1.24-.05-7.87-.64-14.09-7.19-14.16-15.24-.08-8.52,6.77-15.49,15.29-15.57.05,0,.1,0,.14,0m0-1.5v1.5-1.5h-.16c-9.33.09-16.86,7.75-16.78,17.09.08,8.82,6.76,16.01,15.54,16.72.46.04.92.06,1.37.06h.18c.42,0,.84-.02,1.24-.06,8.78-.71,15.61-8.19,15.53-17.02-.08-9.25-7.68-16.78-16.93-16.78h0Z"/>
          <g>
            <path class="cls-4" d="m94.48,101.81c.01-.47-.26-.88-.67-1.05.38-.23.59-.68.51-1.14v-.05c-.09-.46-.45-.81-.88-.9.32-.3.44-.77.27-1.21l-.03-.07c-.18-.44-.6-.69-1.05-.68.26-.37.28-.88,0-1.28l-.03-.04c-.27-.39-.75-.56-1.19-.45.17-.42.06-.93-.29-1.25,0,0-.02-.02-.02-.02-.35-.32-.85-.37-1.25-.17.06-.44-.16-.9-.58-1.12l-.05-.03c-.42-.23-.93-.15-1.27.15-.06-.45-.39-.84-.85-.95,0,0-.05-.01-.06-.01-.47-.11-.92.11-1.16.5-.16-.42-.57-.73-1.05-.72h-.09c-.48.02-.87.34-1,.78-.27-.36-.75-.54-1.21-.4l-.07.02c-.46.15-.74.56-.76,1.01-.36-.29-.87-.33-1.28-.08l-.04.02c-.41.25-.6.72-.51,1.16-.41-.18-.91-.1-1.24.24l-.04.04c-.33.34-.4.83-.22,1.24-.44-.08-.89.11-1.14.5l-.04.06c-.25.41-.2.89.08,1.24-.44,0-.86.29-1.02.73l-.02.07c-.16.45,0,.92.34,1.2-.43.1-.78.46-.85.92v.07c-.07.47.17.9.56,1.11-.4.19-.67.6-.64,1.07v.07c.04.47.36.84.79.97-.36.26-.54.73-.41,1.18l.02.07c.13.46.53.75.97.79-.3.34-.37.83-.15,1.25l.03.06c.23.42.68.62,1.12.56-.22.4-.18.91.14,1.27l.03.03c.31.36.8.47,1.22.32-.11.43.04.91.43,1.18l.06.04c.39.28.89.25,1.26-.01-.01.46.26.89.71,1.07l.07.03c.45.17.93.02,1.22-.33.11.44.49.79.97.84h.07s.04.01.07.01c.45.01.85-.25,1.03-.65.22.4.68.65,1.16.57,0,0,.06,0,.06,0,.48-.08.81-.46.88-.91.31.33.81.45,1.25.26l.08-.03c.43-.2.67-.64.63-1.09.39.24.9.22,1.27-.08l.05-.04c.38-.3.49-.79.34-1.21.43.15.93.01,1.23-.37l.03-.04c.29-.37.31-.87.08-1.25.44.04.88-.21,1.09-.63l.02-.04c.2-.42.12-.91-.19-1.24.43-.06.81-.38.92-.83l.02-.07c.11-.46-.09-.91-.46-1.16.42-.14.73-.53.75-1v-.1s0-.01,0-.01Z"/>
            <g>
              <g>
                <polyline class="cls-5" points="96.39 112.44 88.07 108.84 88.07 105.2 81.93 105.2 81.93 108.84 73.59 112.49"/>
                <polygon class="cls-5" points="85 111.32 88.07 108.84 88.07 105.2 81.93 105.2 81.93 108.84 85 111.32"/>
                <polygon class="cls-5" points="85 111.32 82.83 113.1 80.82 109.29 81.93 108.32 85 111.32"/>
                <polygon class="cls-5" points="85 111.32 87.17 113.1 89.18 109.29 88.07 108.32 85 111.32"/>
                <polyline class="cls-6" points="86.41 112.48 85.75 113.88 85 113.88 84.25 113.88 83.59 112.48"/>
                <line class="cls-6" x1="86.27" y1="117.7" x2="85.75" y2="113.88"/>
                <line class="cls-6" x1="84.25" y1="113.88" x2="83.74" y2="117.7"/>
              </g>
              <path class="cls-5" d="m90.04,99.2c0,3.61,0-1.21,0,2.4-.13,2.89-2.37,5.7-5.02,5.68-2.63-.02-4.82-2.82-4.95-5.68,0-3.61,0,.65,0-2.96"/>
              <path class="cls-5" d="m80.07,98.65s2.18-1.19,2.85-3.24c0,0,2.14,3.49,7.12,3.8"/>
            </g>
          </g>
        </g>
        <g>
          <path class="cls-3" d="m51.08,104.47c8.46,0,15.35,6.82,15.43,15.29.07,8.14-6.17,14.87-14.16,15.52-.37.03-.75.05-1.13.05-.05,0-.11,0-.16,0-.42,0-.83-.02-1.24-.05-7.87-.64-14.09-7.19-14.16-15.24-.08-8.52,6.77-15.49,15.29-15.57.05,0,.1,0,.14,0m0-1.5v1.5-1.5h-.16c-9.33.09-16.86,7.75-16.78,17.09.08,8.82,6.76,16.01,15.54,16.72.46.04.92.06,1.37.06h.18c.42,0,.84-.02,1.24-.06,8.79-.71,15.61-8.19,15.53-17.03-.08-9.25-7.68-16.78-16.93-16.78h0Z"/>
          <g>
            <path class="cls-4" d="m60.56,119.38c.01-.47-.26-.88-.67-1.05.38-.23.59-.68.51-1.14v-.05c-.09-.46-.45-.81-.88-.9.32-.3.44-.77.27-1.21l-.03-.07c-.18-.44-.6-.69-1.05-.68.26-.37.28-.88,0-1.28l-.03-.04c-.27-.39-.75-.56-1.19-.45.17-.42.06-.93-.29-1.25,0,0-.02-.02-.02-.02-.35-.32-.85-.37-1.25-.17.06-.44-.16-.9-.58-1.12l-.05-.03c-.42-.23-.93-.15-1.27.15-.06-.45-.39-.84-.85-.95,0,0-.05-.01-.06-.01-.47-.11-.92.11-1.16.5-.16-.42-.57-.73-1.05-.72h-.09c-.48.02-.87.34-1,.78-.27-.36-.75-.54-1.21-.4l-.07.02c-.46.15-.74.56-.76,1.01-.36-.29-.87-.33-1.28-.08l-.04.02c-.41.25-.6.72-.51,1.16-.41-.18-.91-.1-1.24.24l-.04.04c-.33.34-.4.83-.22,1.24-.44-.08-.89.11-1.14.5l-.04.06c-.25.41-.2.89.08,1.24-.44,0-.86.29-1.02.73l-.02.07c-.16.45,0,.92.34,1.2-.43.1-.78.46-.85.92v.07c-.07.47.17.9.56,1.11-.4.19-.67.6-.64,1.07v.07c.04.47.36.84.79.97-.36.26-.54.73-.41,1.18l.02.07c.13.46.53.75.97.79-.3.34-.37.83-.15,1.25l.03.06c.23.42.68.62,1.12.56-.22.4-.18.91.14,1.27l.03.03c.31.36.8.47,1.22.32-.11.43.04.91.43,1.18l.06.04c.39.28.89.25,1.26-.01-.01.46.26.89.71,1.07l.07.03c.45.17.93.02,1.22-.33.11.44.49.79.97.84h.07s.04.01.07.01c.45.01.85-.25,1.03-.65.22.4.68.65,1.16.57,0,0,.06,0,.06,0,.48-.08.81-.46.88-.91.31.33.81.45,1.25.26l.08-.03c.43-.2.67-.64.63-1.09.39.24.9.22,1.27-.08l.05-.04c.38-.3.49-.79.34-1.21.43.15.93.01,1.23-.37l.03-.04c.29-.37.31-.87.08-1.25.44.04.88-.21,1.09-.63l.02-.04c.2-.42.12-.91-.19-1.24.43-.06.81-.38.92-.83l.02-.07c.11-.46-.09-.91-.46-1.16.42-.14.73-.53.75-1v-.1s0-.01,0-.01Z"/>
            <g>
              <g>
                <polyline class="cls-5" points="62.47 130.02 54.14 126.41 54.14 122.77 48.01 122.77 48.01 126.41 39.66 130.07"/>
                <polygon class="cls-5" points="51.07 128.9 54.14 126.41 54.14 122.77 48.01 122.77 48.01 126.41 51.07 128.9"/>
                <polygon class="cls-5" points="51.07 128.9 48.91 130.68 46.89 126.87 48.01 125.89 51.07 128.9"/>
                <polygon class="cls-5" points="51.07 128.9 53.24 130.68 55.25 126.87 54.14 125.89 51.07 128.9"/>
                <polyline class="cls-6" points="52.49 130.06 51.82 131.45 51.07 131.45 50.32 131.45 49.66 130.06"/>
                <line class="cls-6" x1="52.34" y1="135.28" x2="51.83" y2="131.45"/>
                <line class="cls-6" x1="50.32" y1="131.45" x2="49.81" y2="135.28"/>
              </g>
              <path class="cls-5" d="m56.11,116.77c0,3.61,0-1.21,0,2.4-.13,2.89-2.37,5.7-5.02,5.68-2.63-.02-4.82-2.82-4.95-5.68,0-3.61,0,.65,0-2.96"/>
              <path class="cls-5" d="m46.14,116.23s2.18-1.19,2.85-3.24c0,0,2.14,3.49,7.12,3.8"/>
            </g>
          </g>
        </g>
        <g>
          <line class="cls-6" x1="38.44" y1="70.25" x2="27.42" y2="81.57"/>
          <polygon points="26.49 73.73 27.99 73.76 27.82 81.16 35.21 80.78 35.28 82.28 26.28 82.73 26.49 73.73"/>
        </g>
        <g>
          <line class="cls-6" x1="63.5" y1="70.25" x2="74.51" y2="81.57"/>
          <polygon points="66.65 82.29 66.72 80.79 74.11 81.16 73.94 73.76 75.44 73.73 75.65 82.74 66.65 82.29"/>
        </g>
        <g>
          <line class="cls-6" x1="51.85" y1="75.62" x2="51.89" y2="91.41"/>
          <polygon points="45.74 86.46 46.84 85.43 51.89 90.84 56.91 85.41 58.01 86.43 51.89 93.04 45.74 86.46"/>
        </g>
        <g>
          <polygon class="cls-1" points="59.41 62.42 53.12 61.33 53.12 56.55 57 56.88 58.04 60.38 59.41 62.42"/>
          <path class="cls-2" d="m54.88,55.89c.73-.27,1.73.07,2.44,1.25.53.89.56,2.55.67,2.89.22.68.95,1.45,2.44,1.13,0,0-.12,1.12-.96,1.28"/>
          <path class="cls-2" d="m56.7,50.13c0,2.67-2.16,4.83-4.83,4.83s-4.83-2.16-4.83-4.83,2.16-4.87,4.83-4.87,4.83,2.2,4.83,4.87Z"/>
          <g>
            <path class="cls-5" d="m62.16,64.46c-.13-.69-.63-1.28-1.32-1.56l-6.61-2.22v-3.3h-4.71v3.3l-6.61,2.22c-.69.28-1.19.87-1.32,1.56"/>
            <path class="cls-5" d="m56.45,51.06c0,3.31,0-.61,0,2.7-.12,2.65-2.17,5.23-4.6,5.21-2.41-.02-4.42-2.58-4.54-5.21,0-3.31,0,.67,0-2.64l4.22-.05c1.04-.01,1.95-.7,2.25-1.69l.11-.37.03.14c.24,1.19,1.33,2.01,2.54,1.9h0Z"/>
            <path class="cls-5" d="m46.31,61.88s1.76,2.43,5.56,2.43,5.56-2.43,5.56-2.43"/>
          </g>
        </g>
      </g>
    </g>
  </g>
</svg>