<?xml version="1.0" encoding="UTF-8"?>
<svg id="Layer_2" data-name="Layer 2" xmlns="http://www.w3.org/2000/svg" viewBox="0 0 237.62 333.51">
  <defs>
    <style>
      .cls-1, .cls-2 {
        fill: #a59a6e;
      }

      .cls-3 {
        fill: #aa2734;
      }

      .cls-4 {
        fill: #54565a;
      }

      .cls-4, .cls-2, .cls-5, .cls-6 {
        stroke: #000;
        stroke-linecap: round;
        stroke-linejoin: round;
        stroke-width: 1.5px;
      }

      .cls-5 {
        fill: #fff;
      }

      .cls-6 {
        fill: none;
      }
    </style>
  </defs>
  <g id="Content">
    <g>
      <g>
        <path class="cls-3" d="m116.19,1.5c10.64,0,19.3,8.57,19.4,19.23.09,10.24-7.76,18.7-17.81,19.51-.47.04-.94.06-1.42.07-.07,0-.13,0-.2,0-.53,0-1.05-.02-1.57-.07-9.9-.8-17.72-9.04-17.81-19.16-.1-10.72,8.51-19.48,19.23-19.58.06,0,.12,0,.18,0m0-1.5h-.19c-11.53.11-20.82,9.57-20.71,21.1.1,10.89,8.35,19.76,19.19,20.64.57.05,1.14.07,1.69.07h.22c.52,0,1.04-.03,1.53-.07,10.85-.88,19.28-10.11,19.18-21.02-.1-11.42-9.48-20.72-20.9-20.72h0Z"/>
        <g>
          <path class="cls-4" d="m128.11,20.26c.02-.59-.33-1.1-.84-1.32.47-.29.74-.85.64-1.43v-.07c-.11-.58-.56-1.02-1.1-1.13.4-.38.55-.97.34-1.52l-.04-.09c-.23-.55-.76-.87-1.32-.85.33-.47.35-1.11,0-1.6l-.03-.05c-.34-.5-.95-.7-1.5-.56.21-.53.08-1.16-.37-1.57,0,0-.03-.03-.03-.03-.44-.4-1.07-.46-1.57-.21.07-.56-.2-1.13-.72-1.41l-.06-.03c-.53-.29-1.17-.19-1.6.19-.07-.57-.49-1.06-1.07-1.19,0,0-.07-.02-.07-.02-.59-.13-1.16.14-1.46.63-.2-.53-.72-.92-1.33-.9h-.11c-.6.03-1.09.43-1.26.97-.34-.46-.95-.67-1.53-.5l-.09.03c-.57.18-.93.7-.95,1.27-.45-.36-1.1-.42-1.61-.09l-.05.03c-.51.31-.75.9-.64,1.46-.52-.23-1.14-.12-1.56.3l-.05.05c-.41.42-.51,1.04-.28,1.55-.55-.1-1.13.13-1.44.64l-.05.08c-.31.51-.25,1.12.1,1.56-.56.01-1.08.36-1.29.92l-.03.08c-.2.56,0,1.15.42,1.51-.54.13-.98.57-1.06,1.16v.09c-.09.59.21,1.13.71,1.39-.51.23-.84.76-.81,1.35v.09c.05.59.46,1.06.99,1.22-.45.33-.67.92-.52,1.49l.02.09c.16.58.66.95,1.22.99-.37.42-.47,1.05-.19,1.58l.04.08c.29.53.85.78,1.4.7-.28.5-.23,1.15.18,1.6l.04.04c.39.45,1,.59,1.53.4-.14.54.06,1.14.54,1.49l.07.05c.5.35,1.12.32,1.58-.01-.02.57.33,1.12.89,1.34l.09.03c.57.21,1.17.02,1.53-.42.14.56.61,1,1.22,1.06h.09s.05.01.08.01c.57.02,1.07-.32,1.29-.82.28.51.86.81,1.46.71,0,0,.07-.01.07-.01.6-.1,1.02-.57,1.11-1.14.39.41,1.02.56,1.57.32l.1-.04c.55-.25.84-.81.79-1.37.49.3,1.13.27,1.6-.1l.06-.05c.47-.38.62-.99.43-1.53.55.18,1.17.01,1.55-.47l.04-.06c.36-.47.38-1.09.1-1.57.56.05,1.11-.26,1.37-.8l.03-.06c.26-.53.15-1.15-.23-1.56.54-.08,1.01-.48,1.16-1.04l.02-.09c.14-.58-.11-1.14-.58-1.46.53-.18.92-.67.94-1.26v-.12s0-.02,0-.02Z"/>
          <g>
            <g>
              <polyline class="cls-5" points="130.52 33.63 120.05 29.1 120.05 24.52 112.33 24.52 112.33 29.1 101.84 33.7"/>
              <polygon class="cls-5" points="116.19 32.22 120.05 29.1 120.05 24.52 112.33 24.52 112.33 29.1 116.19 32.22"/>
              <polygon class="cls-5" points="116.19 32.22 113.46 34.46 110.93 29.67 112.33 28.45 116.19 32.22"/>
              <polygon class="cls-5" points="116.19 32.22 118.92 34.46 121.45 29.67 120.05 28.45 116.19 32.22"/>
              <polyline class="cls-6" points="117.97 33.68 117.14 35.44 116.19 35.44 115.25 35.44 114.42 33.68"/>
              <line class="cls-6" x1="117.78" y1="40.25" x2="117.14" y2="35.44"/>
              <line class="cls-6" x1="115.25" y1="35.44" x2="114.6" y2="40.25"/>
            </g>
            <path class="cls-5" d="m122.52,16.98c0,4.54,0-1.52,0,3.02-.17,3.64-2.98,7.17-6.31,7.14-3.3-.02-6.06-3.54-6.23-7.14,0-4.54,0,.82,0-3.72"/>
            <path class="cls-5" d="m109.99,16.29s2.75-1.5,3.58-4.07c0,0,2.69,4.38,8.95,4.78"/>
          </g>
        </g>
      </g>
      <g>
        <line class="cls-6" x1="93.59" y1="44.06" x2="58.49" y2="123.94"/>
        <polygon points="54.88 116.93 56.29 116.43 58.72 123.42 65.51 120.48 66.11 121.86 57.84 125.43 54.88 116.93"/>
      </g>
      <g>
        <line class="cls-6" x1="135.59" y1="44.06" x2="173.05" y2="123.96"/>
        <polygon points="165.38 122.06 165.95 120.67 172.8 123.44 175.06 116.4 176.49 116.86 173.74 125.43 165.38 122.06"/>
      </g>
      <g>
        <polygon class="cls-1" points="233.43 284.94 225.51 283.57 225.51 277.55 230.39 277.97 231.7 282.38 233.43 284.94"/>
        <path class="cls-2" d="m227.72,276.72c.92-.34,2.18.08,3.07,1.57.67,1.11.7,3.21.84,3.64.27.85,1.19,1.82,3.07,1.42,0,0-.15,1.41-1.21,1.61"/>
        <path class="cls-2" d="m230.02,269.48c0,3.36-2.72,6.08-6.08,6.08s-6.08-2.72-6.08-6.08,2.72-6.13,6.08-6.13,6.08,2.77,6.08,6.13Z"/>
        <g>
          <path class="cls-5" d="m236.87,287.51c-.17-.87-.79-1.61-1.66-1.96l-8.31-2.79v-4.15h-5.93v4.15l-8.31,2.79c-.87.35-1.49,1.09-1.66,1.96"/>
          <path class="cls-5" d="m229.69,270.65c0,4.16,0-.76,0,3.4-.15,3.34-2.73,6.58-5.79,6.56-3.03-.02-5.56-3.25-5.71-6.56,0-4.16,0,.84,0-3.32l5.3-.06c1.31-.01,2.45-.88,2.83-2.13l.14-.46.04.18c.3,1.5,1.68,2.53,3.2,2.39h0Z"/>
          <path class="cls-5" d="m216.95,284.26s2.21,3.06,7,3.06,7-3.06,7-3.06"/>
        </g>
      </g>
      <g>
        <path class="cls-3" d="m185.52,133.52c10.64,0,19.3,8.57,19.4,19.23.09,10.24-7.76,18.7-17.81,19.51-.47.04-.94.06-1.42.07-.07,0-.13,0-.2,0-.53,0-1.05-.02-1.57-.07-9.9-.8-17.72-9.04-17.81-19.16-.1-10.72,8.51-19.48,19.23-19.58.06,0,.12,0,.18,0m0-1.5h-.19c-11.53.11-20.82,9.57-20.71,21.1.1,10.89,8.35,19.76,19.19,20.64.57.05,1.14.07,1.69.07h.22c.52,0,1.04-.03,1.53-.07,10.85-.88,19.28-10.11,19.18-21.02-.1-11.42-9.48-20.72-20.9-20.72h0Z"/>
        <g>
          <path class="cls-4" d="m197.44,152.27c.02-.59-.33-1.1-.84-1.32.47-.29.74-.85.64-1.43v-.07c-.11-.58-.56-1.02-1.1-1.13.4-.38.55-.97.34-1.52l-.04-.09c-.23-.55-.76-.87-1.32-.85.33-.47.35-1.11,0-1.6l-.03-.05c-.34-.5-.95-.7-1.5-.56.21-.53.08-1.16-.37-1.57,0,0-.03-.03-.03-.03-.44-.4-1.07-.46-1.57-.21.07-.56-.2-1.13-.72-1.41l-.06-.03c-.53-.29-1.17-.19-1.6.19-.07-.57-.49-1.06-1.07-1.19,0,0-.07-.02-.07-.02-.59-.13-1.16.14-1.46.63-.2-.53-.72-.92-1.33-.9h-.11c-.6.03-1.09.43-1.26.97-.34-.46-.95-.67-1.53-.5l-.09.03c-.57.18-.93.7-.95,1.27-.45-.36-1.1-.42-1.61-.09l-.05.03c-.51.31-.75.9-.64,1.46-.52-.23-1.14-.12-1.56.3l-.05.05c-.41.42-.51,1.04-.28,1.55-.55-.1-1.13.13-1.44.64l-.05.08c-.31.51-.25,1.12.1,1.56-.56.01-1.08.36-1.29.92l-.03.08c-.2.56,0,1.15.42,1.51-.54.13-.98.57-1.06,1.16v.09c-.09.59.21,1.13.71,1.39-.51.23-.84.76-.81,1.35v.09c.05.59.46,1.06.99,1.22-.45.33-.67.92-.52,1.49l.02.09c.16.58.66.95,1.22.99-.37.42-.47,1.05-.19,1.58l.04.08c.29.53.85.78,1.4.7-.28.5-.23,1.15.18,1.6l.04.04c.39.45,1,.59,1.53.4-.14.54.06,1.14.54,1.49l.07.05c.5.35,1.12.32,1.58-.01-.02.57.33,1.12.89,1.34l.09.03c.57.21,1.17.02,1.53-.42.14.56.61,1,1.22,1.06h.09s.05.01.08.01c.57.02,1.07-.32,1.29-.82.28.51.86.81,1.46.71,0,0,.07-.01.07-.01.6-.1,1.02-.57,1.11-1.14.39.41,1.02.56,1.57.32l.1-.04c.55-.25.84-.81.79-1.37.49.3,1.13.27,1.6-.1l.06-.05c.47-.38.62-.99.43-1.53.55.18,1.17.01,1.55-.47l.04-.06c.36-.47.38-1.09.1-1.57.56.05,1.11-.26,1.37-.8l.03-.06c.26-.53.15-1.15-.23-1.56.54-.08,1.01-.48,1.16-1.04l.02-.09c.14-.58-.11-1.14-.58-1.46.53-.18.92-.67.94-1.26v-.12s0-.02,0-.02Z"/>
          <g>
            <g>
              <polyline class="cls-5" points="199.84 165.65 189.37 161.11 189.37 156.54 181.66 156.54 181.66 161.11 171.16 165.71"/>
              <polygon class="cls-5" points="185.51 164.24 189.37 161.11 189.37 156.54 181.66 156.54 181.66 161.11 185.51 164.24"/>
              <polygon class="cls-5" points="185.51 164.24 182.79 166.48 180.26 161.69 181.66 160.46 185.51 164.24"/>
              <polygon class="cls-5" points="185.51 164.24 188.24 166.48 190.77 161.69 189.37 160.46 185.51 164.24"/>
              <polyline class="cls-6" points="187.29 165.7 186.46 167.45 185.51 167.45 184.57 167.45 183.74 165.7"/>
              <line class="cls-6" x1="187.11" y1="172.26" x2="186.46" y2="167.45"/>
              <line class="cls-6" x1="184.57" y1="167.45" x2="183.92" y2="172.26"/>
            </g>
            <path class="cls-5" d="m191.85,149c0,4.54,0-1.52,0,3.02-.17,3.64-2.98,7.17-6.31,7.14-3.3-.02-6.06-3.54-6.23-7.14,0-4.54,0,.82,0-3.72"/>
            <path class="cls-5" d="m179.31,148.31s2.75-1.5,3.58-4.07c0,0,2.69,4.38,8.95,4.78"/>
          </g>
        </g>
      </g>
      <g>
        <line class="cls-6" x1="171.16" y1="185.82" x2="147.88" y2="247.46"/>
        <polygon points="143.9 240.64 145.29 240.07 148.09 246.92 154.71 243.63 155.38 244.98 147.31 248.98 143.9 240.64"/>
      </g>
      <g>
        <line class="cls-6" x1="200.46" y1="183.36" x2="217.76" y2="246.65"/>
        <polygon points="210.53 243.47 211.32 242.19 217.61 246.09 221.04 239.54 222.37 240.24 218.19 248.22 210.53 243.47"/>
      </g>
      <g>
        <line class="cls-6" x1="185.82" y1="185.82" x2="185.87" y2="280.91"/>
        <polygon points="179.74 275.94 180.83 274.92 185.87 280.33 190.9 274.91 192 275.94 185.87 282.54 179.74 275.94"/>
      </g>
      <g>
        <path class="cls-3" d="m185.44,292.94c10.64,0,19.3,8.57,19.4,19.23.09,10.24-7.76,18.7-17.81,19.51-.47.04-.94.06-1.42.07-.07,0-.13,0-.2,0-.53,0-1.05-.02-1.57-.07-9.9-.8-17.72-9.04-17.81-19.16-.1-10.72,8.51-19.48,19.23-19.58.06,0,.12,0,.18,0m0-1.5h-.19c-11.53.11-20.82,9.57-20.71,21.1.1,10.89,8.35,19.76,19.19,20.64.57.05,1.14.07,1.69.07h.22c.52,0,1.04-.03,1.53-.07,10.85-.88,19.28-10.11,19.18-21.02-.1-11.42-9.48-20.72-20.9-20.72h0Z"/>
        <g>
          <path class="cls-4" d="m197.36,311.7c.02-.59-.33-1.1-.84-1.32.47-.29.74-.85.64-1.43v-.07c-.11-.58-.56-1.02-1.1-1.13.4-.38.55-.97.34-1.52l-.04-.09c-.23-.55-.76-.87-1.32-.85.33-.47.35-1.11,0-1.6l-.03-.05c-.34-.5-.95-.7-1.5-.56.21-.53.08-1.16-.37-1.57,0,0-.03-.03-.03-.03-.44-.4-1.07-.46-1.57-.21.07-.56-.2-1.13-.72-1.41l-.06-.03c-.53-.29-1.17-.19-1.6.19-.07-.57-.49-1.06-1.07-1.19,0,0-.07-.02-.07-.02-.59-.13-1.16.14-1.46.63-.2-.53-.72-.92-1.33-.9h-.11c-.6.03-1.09.43-1.26.97-.34-.46-.95-.67-1.53-.5l-.09.03c-.57.18-.93.7-.95,1.27-.45-.36-1.1-.42-1.61-.09l-.05.03c-.51.31-.75.9-.64,1.46-.52-.23-1.14-.12-1.56.3l-.05.05c-.41.42-.51,1.04-.28,1.55-.55-.1-1.13.13-1.44.64l-.05.08c-.31.51-.25,1.12.1,1.56-.56.01-1.08.36-1.29.92l-.03.08c-.2.56,0,1.15.42,1.51-.54.13-.98.57-1.06,1.16v.09c-.09.59.21,1.13.71,1.39-.51.23-.84.76-.81,1.35v.09c.05.59.46,1.06.99,1.22-.45.33-.67.92-.52,1.49l.02.09c.16.58.66.95,1.22.99-.37.42-.47,1.05-.19,1.58l.04.08c.29.53.85.78,1.4.7-.28.5-.23,1.15.18,1.6l.04.04c.39.45,1,.59,1.53.4-.14.54.06,1.14.54,1.49l.07.05c.5.35,1.12.32,1.58-.01-.02.57.33,1.12.89,1.34l.09.03c.57.21,1.17.02,1.53-.42.14.56.61,1,1.22,1.06h.09s.05.01.08.01c.57.02,1.07-.32,1.29-.82.28.51.86.81,1.46.71,0,0,.07-.01.07-.01.6-.1,1.02-.57,1.11-1.14.39.41,1.02.56,1.57.32l.1-.04c.55-.25.84-.81.79-1.37.49.3,1.13.27,1.6-.1l.06-.05c.47-.38.62-.99.43-1.53.55.18,1.17.01,1.55-.47l.04-.06c.36-.47.38-1.09.1-1.57.56.05,1.11-.26,1.37-.8l.03-.06c.26-.53.15-1.15-.23-1.56.54-.08,1.01-.48,1.16-1.04l.02-.09c.14-.58-.11-1.14-.58-1.46.53-.18.92-.67.94-1.26v-.12s0-.02,0-.02Z"/>
          <g>
            <g>
              <polyline class="cls-5" points="199.77 325.07 189.3 320.53 189.3 315.96 181.58 315.96 181.58 320.53 171.09 325.14"/>
              <polygon class="cls-5" points="185.44 323.66 189.3 320.53 189.3 315.96 181.58 315.96 181.58 320.53 185.44 323.66"/>
              <polygon class="cls-5" points="185.44 323.66 182.71 325.9 180.18 321.11 181.58 319.89 185.44 323.66"/>
              <polygon class="cls-5" points="185.44 323.66 188.17 325.9 190.7 321.11 189.3 319.89 185.44 323.66"/>
              <polyline class="cls-6" points="187.22 325.12 186.38 326.87 185.44 326.87 184.5 326.87 183.67 325.12"/>
              <line class="cls-6" x1="187.03" y1="331.68" x2="186.39" y2="326.87"/>
              <line class="cls-6" x1="184.5" y1="326.87" x2="183.85" y2="331.68"/>
            </g>
            <path class="cls-5" d="m191.77,308.42c0,4.54,0-1.52,0,3.02-.17,3.64-2.98,7.17-6.31,7.14-3.3-.02-6.06-3.54-6.23-7.14,0-4.54,0,.82,0-3.72"/>
            <path class="cls-5" d="m179.24,307.73s2.75-1.5,3.58-4.07c0,0,2.69,4.38,8.95,4.78"/>
          </g>
        </g>
      </g>
      <g>
        <polygon class="cls-1" points="151.04 284.94 143.12 283.57 143.12 277.55 148.01 277.97 149.32 282.38 151.04 284.94"/>
        <path class="cls-2" d="m145.33,276.72c.92-.34,2.18.08,3.07,1.57.67,1.11.7,3.21.84,3.64.27.85,1.19,1.82,3.07,1.42,0,0-.15,1.41-1.21,1.61"/>
        <path class="cls-2" d="m147.63,269.48c0,3.36-2.72,6.08-6.08,6.08s-6.08-2.72-6.08-6.08,2.72-6.13,6.08-6.13,6.08,2.77,6.08,6.13Z"/>
        <g>
          <path class="cls-5" d="m154.49,287.51c-.17-.87-.79-1.61-1.66-1.96l-8.31-2.79v-4.15h-5.93v4.15l-8.31,2.79c-.87.35-1.49,1.09-1.66,1.96"/>
          <path class="cls-5" d="m147.31,270.65c0,4.16,0-.76,0,3.4-.15,3.34-2.73,6.58-5.79,6.56-3.03-.02-5.56-3.25-5.71-6.56,0-4.16,0,.84,0-3.32l5.3-.06c1.31-.01,2.45-.88,2.83-2.13l.14-.46.04.18c.3,1.5,1.68,2.53,3.2,2.39h0Z"/>
          <path class="cls-5" d="m134.56,284.26s2.21,3.06,7,3.06,7-3.06,7-3.06"/>
        </g>
      </g>
      <g>
        <path class="cls-3" d="m20.91,253.26c10.64,0,19.3,8.57,19.4,19.23.09,10.24-7.76,18.7-17.81,19.51-.47.04-.94.06-1.42.07-.07,0-.13,0-.2,0-.53,0-1.05-.02-1.57-.07-9.9-.8-17.72-9.04-17.81-19.16-.1-10.72,8.51-19.48,19.23-19.58.06,0,.12,0,.18,0m0-1.5h-.19C9.19,251.87-.1,261.33,0,272.86c.1,10.89,8.35,19.76,19.19,20.64.57.05,1.14.07,1.69.07h.22c.52,0,1.04-.03,1.53-.07,10.85-.88,19.28-10.11,19.18-21.02-.1-11.42-9.48-20.72-20.9-20.72h0Z"/>
        <g>
          <path class="cls-4" d="m32.83,272.02c.02-.59-.33-1.1-.84-1.32.47-.29.74-.85.64-1.43v-.07c-.11-.58-.56-1.02-1.1-1.13.4-.38.55-.97.34-1.52l-.04-.09c-.23-.55-.76-.87-1.32-.85.33-.47.35-1.11,0-1.6l-.03-.05c-.34-.5-.95-.7-1.5-.56.21-.53.08-1.16-.37-1.57,0,0-.03-.03-.03-.03-.44-.4-1.07-.46-1.57-.21.07-.56-.2-1.13-.72-1.41l-.06-.03c-.53-.29-1.17-.19-1.6.19-.07-.57-.49-1.06-1.07-1.19,0,0-.07-.02-.07-.02-.59-.13-1.16.14-1.46.63-.2-.53-.72-.92-1.33-.9h-.11c-.6.03-1.09.43-1.26.97-.34-.46-.95-.67-1.53-.5l-.09.03c-.57.18-.93.7-.95,1.27-.45-.36-1.1-.42-1.61-.09l-.05.03c-.51.31-.75.9-.64,1.46-.52-.23-1.14-.12-1.56.3l-.05.05c-.41.42-.51,1.04-.28,1.55-.55-.1-1.13.13-1.44.64l-.05.08c-.31.51-.25,1.12.1,1.56-.56.01-1.08.36-1.29.92l-.03.08c-.2.56,0,1.15.42,1.51-.54.13-.98.57-1.06,1.16v.09c-.09.59.21,1.13.71,1.39-.51.23-.84.76-.81,1.35v.09c.05.59.46,1.06.99,1.22-.45.33-.67.92-.52,1.49l.02.09c.16.58.66.95,1.22.99-.37.42-.47,1.05-.19,1.58l.04.08c.29.53.85.78,1.4.7-.28.5-.23,1.15.18,1.6l.04.04c.39.45,1,.59,1.53.4-.14.54.06,1.14.54,1.49l.07.05c.5.35,1.12.32,1.58-.01-.02.57.33,1.12.89,1.34l.09.03c.57.21,1.17.02,1.53-.42.14.56.61,1,1.22,1.06h.09s.05.01.08.01c.57.02,1.07-.32,1.29-.82.28.51.86.81,1.46.71,0,0,.07-.01.07-.01.6-.1,1.02-.57,1.11-1.14.39.41,1.02.56,1.57.32l.1-.04c.55-.25.84-.81.79-1.37.49.3,1.13.27,1.6-.1l.06-.05c.47-.38.62-.99.43-1.53.55.18,1.17.01,1.55-.47l.04-.06c.36-.47.38-1.09.1-1.57.56.05,1.11-.26,1.37-.8l.03-.06c.26-.53.15-1.15-.23-1.56.54-.08,1.01-.48,1.16-1.04l.02-.09c.14-.58-.11-1.14-.58-1.46.53-.18.92-.67.94-1.26v-.12s0-.02,0-.02Z"/>
          <g>
            <g>
              <polyline class="cls-5" points="35.23 285.39 24.76 280.85 24.76 276.28 17.05 276.28 17.05 280.85 6.55 285.46"/>
              <polygon class="cls-5" points="20.9 283.98 24.76 280.85 24.76 276.28 17.05 276.28 17.05 280.85 20.9 283.98"/>
              <polygon class="cls-5" points="20.9 283.98 18.18 286.22 15.65 281.43 17.05 280.21 20.9 283.98"/>
              <polygon class="cls-5" points="20.9 283.98 23.63 286.22 26.16 281.43 24.76 280.21 20.9 283.98"/>
              <polyline class="cls-6" points="22.68 285.44 21.85 287.19 20.9 287.19 19.96 287.19 19.13 285.44"/>
              <line class="cls-6" x1="22.5" y1="292" x2="21.85" y2="287.19"/>
              <line class="cls-6" x1="19.96" y1="287.19" x2="19.31" y2="292"/>
            </g>
            <path class="cls-5" d="m27.23,268.74c0,4.54,0-1.52,0,3.02-.17,3.64-2.98,7.17-6.31,7.14-3.3-.02-6.06-3.54-6.23-7.14,0-4.54,0,.82,0-3.72"/>
            <path class="cls-5" d="m14.7,268.05s2.75-1.5,3.58-4.07c0,0,2.69,4.38,8.95,4.78"/>
          </g>
        </g>
      </g>
      <g>
        <path class="cls-3" d="m84.6,253.26c10.64,0,19.3,8.57,19.4,19.23.09,10.24-7.76,18.7-17.81,19.51-.47.04-.94.06-1.42.07-.07,0-.13,0-.2,0-.53,0-1.05-.02-1.57-.07-9.9-.8-17.72-9.04-17.81-19.16-.1-10.72,8.51-19.48,19.23-19.58.06,0,.12,0,.18,0m0-1.5h-.19c-11.53.11-20.82,9.57-20.71,21.1.1,10.89,8.35,19.76,19.19,20.64.57.05,1.14.07,1.69.07h.22c.52,0,1.04-.03,1.53-.07,10.85-.88,19.28-10.11,19.18-21.02-.1-11.42-9.48-20.72-20.9-20.72h0Z"/>
        <g>
          <path class="cls-4" d="m96.52,272.02c.02-.59-.33-1.1-.84-1.32.47-.29.74-.85.64-1.43v-.07c-.11-.58-.56-1.02-1.1-1.13.4-.38.55-.97.34-1.52l-.04-.09c-.23-.55-.76-.87-1.32-.85.33-.47.35-1.11,0-1.6l-.03-.05c-.34-.5-.95-.7-1.5-.56.21-.53.08-1.16-.37-1.57,0,0-.03-.03-.03-.03-.44-.4-1.07-.46-1.57-.21.07-.56-.2-1.13-.72-1.41l-.06-.03c-.53-.29-1.17-.19-1.6.19-.07-.57-.49-1.06-1.07-1.19,0,0-.07-.02-.07-.02-.59-.13-1.16.14-1.46.63-.2-.53-.72-.92-1.33-.9h-.11c-.6.03-1.09.43-1.26.97-.34-.46-.95-.67-1.53-.5l-.09.03c-.57.18-.93.7-.95,1.27-.45-.36-1.1-.42-1.61-.09l-.05.03c-.51.31-.75.9-.64,1.46-.52-.23-1.14-.12-1.56.3l-.05.05c-.41.42-.51,1.04-.28,1.55-.55-.1-1.13.13-1.44.64l-.05.08c-.31.51-.25,1.12.1,1.56-.56.01-1.08.36-1.29.92l-.03.08c-.2.56,0,1.15.42,1.51-.54.13-.98.57-1.06,1.16v.09c-.09.59.21,1.13.71,1.39-.51.23-.84.76-.81,1.35v.09c.05.59.46,1.06.99,1.22-.45.33-.67.92-.52,1.49l.02.09c.16.58.66.95,1.22.99-.37.42-.47,1.05-.19,1.58l.04.08c.29.53.85.78,1.4.7-.28.5-.23,1.15.18,1.6l.04.04c.39.45,1,.59,1.53.4-.14.54.06,1.14.54,1.49l.07.05c.5.35,1.12.32,1.58-.01-.02.57.33,1.12.89,1.34l.09.03c.57.21,1.17.02,1.53-.42.14.56.61,1,1.22,1.06h.09s.05.01.08.01c.57.02,1.07-.32,1.29-.82.28.51.86.81,1.46.71,0,0,.07-.01.07-.01.6-.1,1.02-.57,1.11-1.14.39.41,1.02.56,1.57.32l.1-.04c.55-.25.84-.81.79-1.37.49.3,1.13.27,1.6-.1l.06-.05c.47-.38.62-.99.43-1.53.55.18,1.17.01,1.55-.47l.04-.06c.36-.47.38-1.09.1-1.57.56.05,1.11-.26,1.37-.8l.03-.06c.26-.53.15-1.15-.23-1.56.54-.08,1.01-.48,1.16-1.04l.02-.09c.14-.58-.11-1.14-.58-1.46.53-.18.92-.67.94-1.26v-.12s0-.02,0-.02Z"/>
          <g>
            <g>
              <polyline class="cls-5" points="98.92 285.39 88.45 280.85 88.45 276.28 80.74 276.28 80.74 280.85 70.24 285.46"/>
              <polygon class="cls-5" points="84.59 283.98 88.45 280.85 88.45 276.28 80.74 276.28 80.74 280.85 84.59 283.98"/>
              <polygon class="cls-5" points="84.59 283.98 81.87 286.22 79.34 281.43 80.74 280.21 84.59 283.98"/>
              <polygon class="cls-5" points="84.59 283.98 87.32 286.22 89.85 281.43 88.45 280.21 84.59 283.98"/>
              <polyline class="cls-6" points="86.37 285.44 85.54 287.19 84.59 287.19 83.65 287.19 82.82 285.44"/>
              <line class="cls-6" x1="86.19" y1="292" x2="85.54" y2="287.19"/>
              <line class="cls-6" x1="83.65" y1="287.19" x2="83" y2="292"/>
            </g>
            <path class="cls-5" d="m90.92,268.74c0,4.54,0-1.52,0,3.02-.17,3.64-2.98,7.17-6.31,7.14-3.3-.02-6.06-3.54-6.23-7.14,0-4.54,0,.82,0-3.72"/>
            <path class="cls-5" d="m78.39,268.05s2.75-1.5,3.58-4.07c0,0,2.69,4.38,8.95,4.78"/>
          </g>
        </g>
      </g>
      <g>
        <path class="cls-3" d="m49.57,293.2c10.64,0,19.3,8.57,19.4,19.23.09,10.24-7.76,18.7-17.81,19.51-.47.04-.94.06-1.42.07-.07,0-.13,0-.2,0-.53,0-1.05-.02-1.57-.07-9.9-.8-17.72-9.04-17.81-19.16-.1-10.72,8.51-19.48,19.23-19.58.06,0,.12,0,.18,0m0-1.5h-.19c-11.53.11-20.82,9.57-20.71,21.1.1,10.89,8.35,19.76,19.19,20.64.57.05,1.14.07,1.69.07h.22c.52,0,1.04-.03,1.53-.07,10.85-.88,19.28-10.11,19.18-21.02-.1-11.42-9.48-20.72-20.9-20.72h0Z"/>
        <g>
          <path class="cls-4" d="m61.49,311.96c.02-.59-.33-1.1-.84-1.32.47-.29.74-.85.64-1.43v-.07c-.11-.58-.56-1.02-1.1-1.13.4-.38.55-.97.34-1.52l-.04-.09c-.23-.55-.76-.87-1.32-.85.33-.47.35-1.11,0-1.6l-.03-.05c-.34-.5-.95-.7-1.5-.56.21-.53.08-1.16-.37-1.57,0,0-.03-.03-.03-.03-.44-.4-1.07-.46-1.57-.21.07-.56-.2-1.13-.72-1.41l-.06-.03c-.53-.29-1.17-.19-1.6.19-.07-.57-.49-1.06-1.07-1.19,0,0-.07-.02-.07-.02-.59-.13-1.16.14-1.46.63-.2-.53-.72-.92-1.33-.9h-.11c-.6.03-1.09.43-1.26.97-.34-.46-.95-.67-1.53-.5l-.09.03c-.57.18-.93.7-.95,1.27-.45-.36-1.1-.42-1.61-.09l-.05.03c-.51.31-.75.9-.64,1.46-.52-.23-1.14-.12-1.56.3l-.05.05c-.41.42-.51,1.04-.28,1.55-.55-.1-1.13.13-1.44.64l-.05.08c-.31.51-.25,1.12.1,1.56-.56.01-1.08.36-1.29.92l-.03.08c-.2.56,0,1.15.42,1.51-.54.13-.98.57-1.06,1.16v.09c-.09.59.21,1.13.71,1.39-.51.23-.84.76-.81,1.35v.09c.05.59.46,1.06.99,1.22-.45.33-.67.92-.52,1.49l.02.09c.16.58.66.95,1.22.99-.37.42-.47,1.05-.19,1.58l.04.08c.29.53.85.78,1.4.7-.28.5-.23,1.15.18,1.6l.04.04c.39.45,1,.59,1.53.4-.14.54.06,1.14.54,1.49l.07.05c.5.35,1.12.32,1.58-.01-.02.57.33,1.12.89,1.34l.09.03c.57.21,1.17.02,1.53-.42.14.56.61,1,1.22,1.06h.09s.05.01.08.01c.57.02,1.07-.32,1.29-.82.28.51.86.81,1.46.71,0,0,.07-.01.07-.01.6-.1,1.02-.57,1.11-1.14.39.41,1.02.56,1.57.32l.1-.04c.55-.25.84-.81.79-1.37.49.3,1.13.27,1.6-.1l.06-.05c.47-.38.62-.99.43-1.53.55.18,1.17.01,1.55-.47l.04-.06c.36-.47.38-1.09.1-1.57.56.05,1.11-.26,1.37-.8l.03-.06c.26-.53.15-1.15-.23-1.56.54-.08,1.01-.48,1.16-1.04l.02-.09c.14-.58-.11-1.14-.58-1.46.53-.18.92-.67.94-1.26v-.12s0-.02,0-.02Z"/>
          <g>
            <g>
              <polyline class="cls-5" points="63.89 325.33 53.43 320.8 53.43 316.22 45.71 316.22 45.71 320.8 35.22 325.4"/>
              <polygon class="cls-5" points="49.57 323.92 53.43 320.8 53.43 316.22 45.71 316.22 45.71 320.8 49.57 323.92"/>
              <polygon class="cls-5" points="49.57 323.92 46.84 326.16 44.31 321.37 45.71 320.15 49.57 323.92"/>
              <polygon class="cls-5" points="49.57 323.92 52.3 326.16 54.83 321.37 53.43 320.15 49.57 323.92"/>
              <polyline class="cls-6" points="51.34 325.38 50.51 327.14 49.57 327.14 48.62 327.14 47.79 325.38"/>
              <line class="cls-6" x1="51.16" y1="331.95" x2="50.51" y2="327.14"/>
              <line class="cls-6" x1="48.62" y1="327.14" x2="47.98" y2="331.95"/>
            </g>
            <path class="cls-5" d="m55.9,308.68c0,4.54,0-1.52,0,3.02-.17,3.64-2.98,7.17-6.31,7.14-3.3-.02-6.06-3.54-6.23-7.14,0-4.54,0,.82,0-3.72"/>
            <path class="cls-5" d="m43.37,307.99s2.75-1.5,3.58-4.07c0,0,2.69,4.38,8.95,4.78"/>
          </g>
        </g>
      </g>
      <g>
        <line class="cls-6" x1="37.79" y1="185.82" x2="22.58" y2="244.38"/>
        <polygon points="17.89 238.02 19.21 237.31 22.73 243.82 28.96 239.84 29.77 241.11 22.17 245.95 17.89 238.02"/>
      </g>
      <g>
        <line class="cls-6" x1="63.89" y1="185.82" x2="77.52" y2="244.43"/>
        <polygon points="70.42 240.98 71.26 239.74 77.39 243.87 81.06 237.46 82.37 238.2 77.88 246.02 70.42 240.98"/>
      </g>
      <g>
        <line class="cls-6" x1="50.81" y1="185.82" x2="50.96" y2="284.16"/>
        <polygon points="44.82 279.2 45.92 278.18 50.96 283.59 55.99 278.16 57.09 279.18 50.96 285.79 44.82 279.2"/>
      </g>
      <g>
        <polygon class="cls-1" points="60.06 166.82 52.14 165.45 52.14 159.44 57.02 159.85 58.33 164.26 60.06 166.82"/>
        <path class="cls-2" d="m54.35,158.61c.92-.34,2.18.08,3.07,1.57.67,1.11.7,3.21.84,3.64.27.85,1.19,1.82,3.07,1.42,0,0-.15,1.41-1.21,1.61"/>
        <path class="cls-2" d="m56.65,151.37c0,3.36-2.72,6.08-6.08,6.08s-6.08-2.72-6.08-6.08,2.72-6.13,6.08-6.13,6.08,2.77,6.08,6.13Z"/>
        <g>
          <path class="cls-5" d="m63.51,169.39c-.17-.87-.79-1.61-1.66-1.96l-8.31-2.79v-4.15h-5.93v4.15l-8.31,2.79c-.87.35-1.49,1.09-1.66,1.96"/>
          <path class="cls-5" d="m56.33,152.53c0,4.16,0-.76,0,3.4-.15,3.34-2.73,6.58-5.79,6.56-3.03-.02-5.56-3.25-5.71-6.56,0-4.16,0,.84,0-3.32l5.3-.06c1.31-.01,2.45-.88,2.83-2.13l.14-.46.04.18c.3,1.5,1.68,2.53,3.2,2.39h0Z"/>
          <path class="cls-5" d="m43.58,166.14s2.21,3.06,7,3.06,7-3.06,7-3.06"/>
        </g>
      </g>
    </g>
  </g>
</svg>