<?xml version="1.0" encoding="UTF-8"?>
<svg id="Layer_2" data-name="Layer 2" xmlns="http://www.w3.org/2000/svg" viewBox="0 0 297.82 189.38">
  <defs>
    <style>
      .cls-1, .cls-2 {
        fill: #a59a6e;
      }

      .cls-3 {
        fill: #aa2734;
      }

      .cls-4 {
        fill: #54565a;
      }

      .cls-4, .cls-2, .cls-5, .cls-6 {
        stroke: #000;
        stroke-linecap: round;
        stroke-linejoin: round;
        stroke-width: 1.5px;
      }

      .cls-5 {
        fill: #fff;
      }

      .cls-6 {
        fill: none;
      }
    </style>
  </defs>
  <g id="Content">
    <g>
      <g>
        <path class="cls-3" d="m148.6,1.5c11.35,0,20.61,9.15,20.71,20.53.1,10.93-8.29,19.96-19.01,20.83-.5.04-1,.07-1.51.07-.07,0-.14,0-.21,0-.56,0-1.12-.03-1.67-.07-10.56-.86-18.91-9.65-19.01-20.46-.1-11.44,9.09-20.8,20.53-20.91.06,0,.13,0,.19,0m0-1.5h-.21c-12.25.12-22.12,10.17-22.01,22.42.11,11.57,8.87,21,20.39,21.94.61.05,1.21.08,1.8.08h.23c.55,0,1.1-.03,1.63-.08,11.53-.93,20.49-10.75,20.38-22.34-.11-12.14-10.07-22.02-22.21-22.02h0Z"/>
        <g>
          <path class="cls-4" d="m161.33,21.52c.02-.63-.35-1.18-.89-1.41.5-.31.79-.91.68-1.53v-.07c-.12-.62-.6-1.08-1.18-1.21.42-.4.59-1.04.36-1.62l-.04-.1c-.24-.59-.81-.92-1.41-.91.35-.5.37-1.18,0-1.71l-.04-.05c-.36-.53-1.01-.75-1.6-.6.22-.57.08-1.24-.39-1.67,0,0-.03-.03-.03-.03-.47-.43-1.14-.49-1.68-.22.08-.6-.21-1.21-.77-1.51l-.07-.04c-.57-.31-1.25-.21-1.7.2-.07-.6-.52-1.13-1.15-1.28,0,0-.07-.02-.08-.02-.63-.14-1.24.15-1.56.67-.22-.57-.77-.98-1.42-.96h-.12c-.64.03-1.17.46-1.35,1.04-.37-.49-1.01-.72-1.63-.53l-.09.03c-.61.2-1,.75-1.01,1.35-.48-.38-1.17-.45-1.72-.1l-.05.03c-.55.33-.8.96-.69,1.56-.55-.24-1.22-.13-1.66.32l-.05.05c-.44.45-.54,1.11-.29,1.66-.59-.1-1.2.14-1.53.68l-.05.08c-.33.54-.26,1.2.11,1.67-.6.01-1.15.38-1.37.98l-.03.09c-.21.6-.01,1.23.45,1.61-.58.14-1.04.61-1.14,1.24v.1c-.1.63.23,1.2.76,1.48-.54.25-.9.81-.86,1.44v.09c.05.64.49,1.13,1.06,1.3-.48.35-.72.98-.55,1.59l.03.09c.17.61.71,1.01,1.3,1.06-.4.45-.5,1.12-.2,1.68l.04.08c.3.56.91.83,1.5.75-.3.54-.24,1.23.19,1.71l.04.05c.42.48,1.07.63,1.64.43-.15.58.06,1.22.57,1.59l.08.05c.53.37,1.2.34,1.69-.01-.02.61.35,1.2.95,1.43l.1.04c.6.22,1.25.02,1.63-.44.14.6.65,1.07,1.3,1.13h.1s.06.01.09.01c.61.02,1.14-.34,1.38-.87.3.54.91.87,1.56.76,0,0,.07-.01.08-.01.64-.11,1.09-.61,1.18-1.22.42.44,1.09.6,1.68.35l.1-.05c.58-.27.9-.86.85-1.46.52.32,1.2.29,1.71-.11l.06-.05c.51-.4.66-1.06.46-1.63.58.2,1.25.01,1.65-.5l.05-.06c.39-.5.41-1.16.11-1.68.59.05,1.19-.28,1.46-.85l.03-.06c.27-.57.15-1.22-.25-1.66.58-.08,1.08-.51,1.23-1.11l.02-.09c.15-.62-.12-1.22-.61-1.55.56-.19.98-.72,1.01-1.35v-.13s0-.02,0-.02Z"/>
          <g>
            <g>
              <polyline class="cls-5" points="163.89 35.8 152.72 30.96 152.72 26.07 144.48 26.07 144.48 30.96 133.28 35.87"/>
              <polygon class="cls-5" points="148.6 34.3 152.72 30.96 152.72 26.07 144.48 26.07 144.48 30.96 148.6 34.3"/>
              <polygon class="cls-5" points="148.6 34.3 145.69 36.69 142.99 31.58 144.48 30.27 148.6 34.3"/>
              <polygon class="cls-5" points="148.6 34.3 151.51 36.69 154.21 31.58 152.72 30.27 148.6 34.3"/>
              <polyline class="cls-6" points="150.5 35.86 149.61 37.73 148.6 37.73 147.59 37.73 146.71 35.86"/>
              <line class="cls-6" x1="150.3" y1="42.86" x2="149.61" y2="37.73"/>
              <line class="cls-6" x1="147.59" y1="37.73" x2="146.9" y2="42.86"/>
            </g>
            <path class="cls-5" d="m155.36,18.03c0,4.84,0-1.62,0,3.22-.18,3.88-3.18,7.65-6.73,7.63-3.52-.02-6.47-3.78-6.65-7.63,0-4.84,0,.87,0-3.97"/>
            <path class="cls-5" d="m141.98,17.29s2.93-1.6,3.82-4.34c0,0,2.87,4.68,9.56,5.1"/>
          </g>
        </g>
      </g>
      <g>
        <line class="cls-6" x1="122.74" y1="43.43" x2="92.11" y2="59.49"/>
        <polygon points="93.66 51.75 95.08 52.25 92.62 59.22 99.76 61.17 99.36 62.61 90.67 60.24 93.66 51.75"/>
      </g>
      <g>
        <line class="cls-6" x1="173.34" y1="43.43" x2="204.08" y2="59.49"/>
        <polygon points="196.84 62.63 196.44 61.18 203.57 59.23 201.1 52.25 202.52 51.75 205.52 60.25 196.84 62.63"/>
      </g>
      <g>
        <g>
          <path class="cls-3" d="m236.85,55.5c11.35,0,20.61,9.15,20.71,20.53.1,10.93-8.29,19.96-19.01,20.83-.5.04-1,.07-1.51.07-.07,0-.14,0-.21,0-.56,0-1.12-.03-1.67-.07-10.56-.86-18.91-9.65-19.01-20.46-.1-11.44,9.09-20.8,20.53-20.91.06,0,.13,0,.19,0m0-1.5h-.21c-12.25.12-22.12,10.17-22.01,22.42.11,11.57,8.87,21,20.39,21.94.61.05,1.21.08,1.8.08h.23c.56,0,1.11-.03,1.63-.08,11.53-.93,20.49-10.75,20.38-22.34-.11-12.14-10.07-22.02-22.21-22.02h0Z"/>
          <g>
            <path class="cls-4" d="m249.57,75.52c.02-.63-.35-1.18-.89-1.41.5-.31.79-.91.68-1.53v-.07c-.12-.62-.6-1.08-1.18-1.21.42-.4.59-1.04.36-1.62l-.04-.1c-.24-.59-.81-.92-1.41-.91.35-.5.37-1.18,0-1.71l-.04-.05c-.36-.53-1.01-.75-1.6-.6.22-.57.08-1.24-.39-1.67,0,0-.03-.03-.03-.03-.47-.43-1.14-.49-1.68-.22.08-.6-.21-1.21-.77-1.51l-.07-.04c-.57-.31-1.25-.21-1.7.2-.07-.6-.52-1.13-1.15-1.28,0,0-.07-.02-.08-.02-.63-.14-1.24.15-1.56.67-.22-.57-.77-.98-1.42-.96h-.12c-.64.03-1.17.46-1.35,1.04-.37-.49-1.01-.72-1.63-.53l-.09.03c-.61.2-1,.75-1.01,1.35-.48-.38-1.17-.45-1.72-.1l-.05.03c-.55.33-.8.96-.69,1.56-.55-.24-1.22-.13-1.66.32l-.05.05c-.44.45-.54,1.11-.29,1.66-.59-.1-1.2.14-1.53.68l-.05.08c-.33.54-.26,1.2.11,1.67-.6.01-1.15.38-1.37.98l-.03.09c-.21.6-.01,1.23.45,1.61-.58.14-1.04.61-1.14,1.24v.1c-.1.63.23,1.2.76,1.48-.54.25-.9.81-.86,1.44v.09c.05.64.49,1.13,1.06,1.3-.48.35-.72.98-.55,1.59l.03.09c.17.61.71,1.01,1.3,1.06-.4.45-.5,1.12-.2,1.68l.04.08c.3.56.91.83,1.5.75-.3.54-.24,1.23.19,1.71l.04.05c.42.48,1.07.63,1.64.43-.15.58.06,1.22.57,1.59l.08.05c.53.37,1.2.34,1.69-.01-.02.61.35,1.2.95,1.43l.1.04c.6.22,1.25.02,1.63-.44.14.6.65,1.07,1.3,1.13h.1s.06.01.09.01c.61.02,1.14-.34,1.38-.87.3.54.91.87,1.56.76,0,0,.07-.01.08-.01.64-.11,1.09-.61,1.18-1.22.42.44,1.09.6,1.68.35l.1-.05c.58-.27.9-.86.85-1.46.52.32,1.2.29,1.71-.11l.06-.05c.51-.4.66-1.06.46-1.63.58.2,1.25.01,1.65-.5l.05-.06c.39-.5.41-1.16.11-1.68.59.05,1.19-.28,1.46-.85l.03-.06c.27-.57.15-1.22-.25-1.66.58-.08,1.08-.51,1.23-1.11l.02-.09c.15-.62-.12-1.22-.61-1.55.56-.19.98-.72,1.01-1.35v-.13s0-.02,0-.02Z"/>
            <g>
              <g>
                <polyline class="cls-5" points="252.14 89.8 240.96 84.96 240.96 80.08 232.72 80.08 232.72 84.96 221.52 89.87"/>
                <polygon class="cls-5" points="236.84 88.3 240.96 84.96 240.96 80.08 232.72 80.08 232.72 84.96 236.84 88.3"/>
                <polygon class="cls-5" points="236.84 88.3 233.93 90.69 231.23 85.58 232.72 84.27 236.84 88.3"/>
                <polygon class="cls-5" points="236.84 88.3 239.75 90.69 242.45 85.58 240.96 84.27 236.84 88.3"/>
                <polyline class="cls-6" points="238.74 89.86 237.85 91.73 236.84 91.73 235.83 91.73 234.95 89.86"/>
                <line class="cls-6" x1="238.54" y1="96.86" x2="237.85" y2="91.73"/>
                <line class="cls-6" x1="235.83" y1="91.73" x2="235.14" y2="96.86"/>
              </g>
              <path class="cls-5" d="m243.6,72.03c0,4.84,0-1.62,0,3.22-.18,3.88-3.18,7.65-6.73,7.63-3.52-.02-6.47-3.78-6.65-7.63,0-4.84,0,.87,0-3.97"/>
              <path class="cls-5" d="m230.22,71.29s2.93-1.6,3.82-4.34c0,0,2.87,4.68,9.56,5.1"/>
            </g>
          </g>
        </g>
        <g>
          <line class="cls-6" x1="219.16" y1="100.51" x2="203.98" y2="116.1"/>
          <polygon points="203.05 108.26 204.55 108.3 204.38 115.69 211.76 115.32 211.84 116.82 202.84 117.27 203.05 108.26"/>
        </g>
        <g>
          <line class="cls-6" x1="252.8" y1="100.51" x2="267.98" y2="116.1"/>
          <polygon points="260.12 116.82 260.19 115.32 267.58 115.69 267.41 108.3 268.91 108.27 269.11 117.27 260.12 116.82"/>
        </g>
        <g>
          <line class="cls-6" x1="237.17" y1="107.71" x2="237.22" y2="129.48"/>
          <polygon points="231.07 124.52 232.17 123.5 237.22 128.9 242.24 123.47 243.34 124.49 237.22 131.11 231.07 124.52"/>
        </g>
        <g>
          <path class="cls-3" d="m236.77,146.44c11.35,0,20.61,9.15,20.71,20.53.1,10.93-8.29,19.96-19.01,20.83-.5.04-1,.07-1.51.07-.07,0-.14,0-.21,0-.56,0-1.12-.03-1.67-.07-10.56-.86-18.91-9.65-19.01-20.46-.1-11.44,9.09-20.8,20.53-20.91.06,0,.13,0,.19,0m0-1.5h-.21c-12.25.12-22.12,10.17-22.01,22.42.11,11.57,8.87,21,20.39,21.94.61.05,1.21.08,1.79.08h.23c.55,0,1.1-.03,1.63-.08,11.53-.93,20.49-10.75,20.38-22.34-.11-12.14-10.07-22.02-22.21-22.02h0Z"/>
          <g>
            <path class="cls-4" d="m249.49,166.47c.02-.63-.35-1.18-.89-1.41.5-.31.79-.91.68-1.53v-.07c-.12-.62-.6-1.08-1.18-1.21.42-.4.59-1.04.36-1.62l-.04-.1c-.24-.59-.81-.92-1.41-.91.35-.5.37-1.18,0-1.71l-.04-.05c-.36-.53-1.01-.75-1.6-.6.22-.57.08-1.24-.39-1.67,0,0-.03-.03-.03-.03-.47-.43-1.14-.49-1.68-.22.08-.6-.21-1.21-.77-1.51l-.07-.04c-.57-.31-1.25-.21-1.7.2-.07-.6-.52-1.13-1.15-1.28,0,0-.07-.02-.08-.02-.63-.14-1.24.15-1.56.67-.22-.57-.77-.98-1.42-.96h-.12c-.64.03-1.17.46-1.35,1.04-.37-.49-1.01-.72-1.63-.53l-.09.03c-.61.2-1,.75-1.01,1.35-.48-.38-1.17-.45-1.72-.1l-.05.03c-.55.33-.8.96-.69,1.56-.55-.24-1.22-.13-1.66.32l-.05.05c-.44.45-.54,1.11-.29,1.66-.59-.1-1.2.14-1.53.68l-.05.08c-.33.54-.26,1.2.11,1.67-.6.01-1.15.38-1.37.98l-.03.09c-.21.6-.01,1.23.45,1.61-.58.14-1.04.61-1.14,1.24v.1c-.1.63.23,1.2.76,1.48-.54.25-.9.81-.86,1.44v.09c.05.64.49,1.13,1.06,1.3-.48.35-.72.98-.55,1.59l.03.09c.17.61.71,1.01,1.3,1.06-.4.45-.5,1.12-.2,1.68l.04.08c.3.56.91.83,1.5.75-.3.54-.24,1.23.19,1.71l.04.05c.42.48,1.07.63,1.64.43-.15.58.06,1.22.57,1.59l.08.05c.53.37,1.2.34,1.69-.01-.02.61.35,1.2.95,1.43l.1.04c.6.22,1.25.02,1.63-.44.14.6.65,1.07,1.3,1.13h.1s.06.01.09.01c.61.02,1.14-.34,1.38-.87.3.54.91.87,1.56.76,0,0,.07-.01.08-.01.64-.11,1.09-.61,1.18-1.22.42.44,1.09.6,1.68.35l.1-.05c.58-.27.9-.86.85-1.46.52.32,1.2.29,1.71-.11l.06-.05c.51-.4.66-1.06.46-1.63.58.2,1.25.01,1.65-.5l.05-.06c.39-.5.41-1.16.11-1.68.59.05,1.19-.28,1.46-.85l.03-.06c.27-.57.15-1.22-.25-1.66.58-.08,1.08-.51,1.23-1.11l.02-.09c.15-.62-.12-1.22-.61-1.55.56-.19.98-.72,1.01-1.35v-.13s0-.02,0-.02Z"/>
            <g>
              <g>
                <polyline class="cls-5" points="252.06 180.75 240.88 175.9 240.88 171.02 232.65 171.02 232.65 175.9 221.44 180.82"/>
                <polygon class="cls-5" points="236.76 179.24 240.88 175.9 240.88 171.02 232.65 171.02 232.65 175.9 236.76 179.24"/>
                <polygon class="cls-5" points="236.76 179.24 233.85 181.64 231.15 176.52 232.65 175.21 236.76 179.24"/>
                <polygon class="cls-5" points="236.76 179.24 239.67 181.64 242.38 176.52 240.88 175.21 236.76 179.24"/>
                <polyline class="cls-6" points="238.66 180.8 237.77 182.67 236.76 182.67 235.76 182.67 234.87 180.8"/>
                <line class="cls-6" x1="238.46" y1="187.81" x2="237.77" y2="182.67"/>
                <line class="cls-6" x1="235.76" y1="182.67" x2="235.06" y2="187.81"/>
              </g>
              <path class="cls-5" d="m243.52,162.97c0,4.84,0-1.62,0,3.22-.18,3.88-3.18,7.65-6.73,7.63-3.52-.02-6.47-3.78-6.65-7.63,0-4.84,0,.87,0-3.97"/>
              <path class="cls-5" d="m230.14,162.24s2.93-1.6,3.82-4.34c0,0,2.87,4.68,9.56,5.1"/>
            </g>
          </g>
        </g>
        <g>
          <polygon class="cls-1" points="293.39 154.18 284.94 152.72 284.94 146.3 290.15 146.74 291.55 151.45 293.39 154.18"/>
          <path class="cls-2" d="m287.3,145.41c.99-.36,2.33.09,3.28,1.67.71,1.19.75,3.43.89,3.88.29.91,1.27,1.94,3.28,1.52,0,0-.16,1.5-1.3,1.72"/>
          <path class="cls-2" d="m289.75,137.68c0,3.58-2.9,6.49-6.49,6.49s-6.49-2.9-6.49-6.49,2.9-6.54,6.49-6.54,6.49,2.96,6.49,6.54Z"/>
          <g>
            <path class="cls-5" d="m297.07,156.92c-.18-.93-.84-1.72-1.77-2.09l-8.87-2.98v-4.43h-6.33v4.43l-8.87,2.98c-.93.38-1.59,1.16-1.77,2.09"/>
            <path class="cls-5" d="m289.41,138.93c0,4.44,0-.81,0,3.63-.16,3.56-2.92,7.02-6.18,7-3.23-.02-5.94-3.47-6.1-7,0-4.44,0,.9,0-3.54l5.66-.06c1.4-.02,2.62-.94,3.02-2.27l.15-.5.04.19c.32,1.6,1.79,2.7,3.42,2.55h0Z"/>
            <path class="cls-5" d="m275.8,153.46s2.36,3.27,7.47,3.27,7.47-3.27,7.47-3.27"/>
          </g>
        </g>
        <g>
          <polygon class="cls-1" points="200.04 155.44 191.59 153.98 191.59 147.56 196.8 148 198.2 152.71 200.04 155.44"/>
          <path class="cls-2" d="m193.95,146.67c.99-.36,2.33.09,3.28,1.67.71,1.19.75,3.43.89,3.88.29.91,1.27,1.94,3.28,1.52,0,0-.16,1.5-1.3,1.72"/>
          <path class="cls-2" d="m196.4,138.94c0,3.58-2.9,6.49-6.49,6.49s-6.49-2.9-6.49-6.49,2.9-6.54,6.49-6.54,6.49,2.96,6.49,6.54Z"/>
          <g>
            <path class="cls-5" d="m203.72,158.19c-.18-.93-.84-1.72-1.77-2.09l-8.87-2.98v-4.43h-6.33v4.43l-8.87,2.98c-.93.38-1.59,1.16-1.77,2.09"/>
            <path class="cls-5" d="m196.06,140.19c0,4.44,0-.81,0,3.63-.16,3.56-2.92,7.02-6.18,7-3.23-.02-5.94-3.47-6.1-7,0-4.44,0,.9,0-3.54l5.66-.06c1.4-.02,2.62-.94,3.02-2.27l.15-.5.04.19c.32,1.6,1.79,2.7,3.42,2.55h0Z"/>
            <path class="cls-5" d="m182.45,154.72s2.36,3.27,7.47,3.27,7.47-3.27,7.47-3.27"/>
          </g>
        </g>
      </g>
      <g>
        <g>
          <path class="cls-3" d="m22.22,116.14c11.35,0,20.61,9.15,20.71,20.53.1,10.93-8.29,19.96-19.01,20.83-.5.04-1,.07-1.51.07-.07,0-.14,0-.21,0-.56,0-1.12-.03-1.67-.07-10.56-.86-18.91-9.65-19.01-20.46-.1-11.44,9.09-20.8,20.53-20.91.06,0,.13,0,.19,0m0-1.5h-.21C9.77,114.75-.11,124.81,0,137.06c.11,11.57,8.87,21,20.39,21.94.61.05,1.21.08,1.8.08h.23c.55,0,1.1-.03,1.63-.08,11.53-.93,20.49-10.75,20.38-22.34-.11-12.14-10.07-22.02-22.21-22.02h0Z"/>
          <g>
            <path class="cls-4" d="m34.94,136.16c.02-.63-.35-1.18-.89-1.41.5-.31.79-.91.68-1.53v-.07c-.12-.62-.6-1.08-1.18-1.21.42-.4.59-1.04.36-1.62l-.04-.1c-.24-.59-.81-.92-1.41-.91.35-.5.37-1.18,0-1.71l-.04-.05c-.36-.53-1.01-.75-1.6-.6.22-.57.08-1.24-.39-1.67,0,0-.03-.03-.03-.03-.47-.43-1.14-.49-1.68-.22.08-.6-.21-1.21-.77-1.51l-.07-.04c-.57-.31-1.25-.21-1.7.2-.07-.6-.52-1.13-1.15-1.28,0,0-.07-.02-.08-.02-.63-.14-1.24.15-1.56.67-.22-.57-.77-.98-1.42-.96h-.12c-.64.03-1.17.46-1.35,1.04-.37-.49-1.01-.72-1.63-.53l-.09.03c-.61.2-1,.75-1.01,1.35-.48-.38-1.17-.45-1.72-.1l-.05.03c-.55.33-.8.96-.69,1.56-.55-.24-1.22-.13-1.66.32l-.05.05c-.44.45-.54,1.11-.29,1.66-.59-.1-1.2.14-1.53.68l-.05.08c-.33.54-.26,1.2.11,1.67-.6.01-1.15.38-1.37.98l-.03.09c-.21.6-.01,1.23.45,1.61-.58.14-1.04.61-1.14,1.24v.1c-.1.63.23,1.2.76,1.48-.54.25-.9.81-.86,1.44v.09c.05.64.49,1.13,1.06,1.3-.48.35-.72.98-.55,1.59l.03.09c.17.61.71,1.01,1.3,1.06-.4.45-.5,1.12-.2,1.68l.04.08c.3.56.91.83,1.5.75-.3.54-.24,1.23.19,1.71l.04.05c.42.48,1.07.63,1.64.43-.15.58.06,1.22.57,1.59l.08.05c.53.37,1.2.34,1.69-.01-.02.61.35,1.2.95,1.43l.1.04c.6.22,1.25.02,1.63-.44.14.6.65,1.07,1.3,1.13h.1s.06.01.09.01c.61.02,1.14-.34,1.38-.87.3.54.91.87,1.56.76,0,0,.07-.01.08-.01.64-.11,1.09-.61,1.18-1.22.42.44,1.09.6,1.68.35l.1-.05c.58-.27.9-.86.85-1.46.52.32,1.2.29,1.71-.11l.06-.05c.51-.4.66-1.06.46-1.63.58.2,1.25.01,1.65-.5l.05-.06c.39-.5.41-1.16.11-1.68.59.05,1.19-.28,1.46-.85l.03-.06c.27-.57.15-1.22-.25-1.66.58-.08,1.08-.51,1.23-1.11l.02-.09c.15-.62-.12-1.22-.61-1.55.56-.19.98-.72,1.01-1.35v-.13s0-.02,0-.02Z"/>
            <g>
              <g>
                <polyline class="cls-5" points="37.51 150.44 26.33 145.6 26.33 140.71 18.1 140.71 18.1 145.6 6.89 150.51"/>
                <polygon class="cls-5" points="22.21 148.94 26.33 145.6 26.33 140.71 18.1 140.71 18.1 145.6 22.21 148.94"/>
                <polygon class="cls-5" points="22.21 148.94 19.3 151.33 16.6 146.21 18.1 144.91 22.21 148.94"/>
                <polygon class="cls-5" points="22.21 148.94 25.13 151.33 27.83 146.21 26.33 144.91 22.21 148.94"/>
                <polyline class="cls-6" points="24.11 150.49 23.22 152.37 22.21 152.37 21.21 152.37 20.32 150.49"/>
                <line class="cls-6" x1="23.91" y1="157.5" x2="23.22" y2="152.37"/>
                <line class="cls-6" x1="21.21" y1="152.37" x2="20.51" y2="157.5"/>
              </g>
              <path class="cls-5" d="m28.97,132.66c0,4.84,0-1.62,0,3.22-.18,3.88-3.18,7.65-6.73,7.63-3.52-.02-6.47-3.78-6.65-7.63,0-4.84,0,.87,0-3.97"/>
              <path class="cls-5" d="m15.59,131.93s2.93-1.6,3.82-4.34c0,0,2.87,4.68,9.56,5.1"/>
            </g>
          </g>
        </g>
        <g>
          <path class="cls-3" d="m113.6,116.14c11.35,0,20.61,9.15,20.71,20.53.1,10.93-8.29,19.96-19.01,20.83-.5.04-1,.07-1.51.07-.07,0-.14,0-.21,0-.56,0-1.12-.03-1.67-.07-10.56-.86-18.91-9.65-19.01-20.46-.1-11.44,9.09-20.8,20.53-20.91.06,0,.13,0,.19,0m0-1.5h-.21c-12.25.12-22.12,10.17-22.01,22.42.11,11.57,8.87,21,20.39,21.94.61.05,1.21.08,1.8.08h.23c.55,0,1.1-.03,1.63-.08,11.53-.93,20.49-10.75,20.38-22.34-.11-12.14-10.07-22.02-22.21-22.02h0Z"/>
          <g>
            <path class="cls-4" d="m126.33,136.16c.02-.63-.35-1.18-.89-1.41.5-.31.79-.91.68-1.53v-.07c-.12-.62-.6-1.08-1.18-1.21.42-.4.59-1.04.36-1.62l-.04-.1c-.24-.59-.81-.92-1.41-.91.35-.5.37-1.18,0-1.71l-.04-.05c-.36-.53-1.01-.75-1.6-.6.22-.57.08-1.24-.39-1.67,0,0-.03-.03-.03-.03-.47-.43-1.14-.49-1.68-.22.08-.6-.21-1.21-.77-1.51l-.07-.04c-.57-.31-1.25-.21-1.7.2-.07-.6-.52-1.13-1.15-1.28,0,0-.07-.02-.08-.02-.63-.14-1.24.15-1.56.67-.22-.57-.77-.98-1.42-.96h-.12c-.64.03-1.17.46-1.35,1.04-.37-.49-1.01-.72-1.63-.53l-.09.03c-.61.2-1,.75-1.01,1.35-.48-.38-1.17-.45-1.72-.1l-.05.03c-.55.33-.8.96-.69,1.56-.55-.24-1.22-.13-1.66.32l-.05.05c-.44.45-.54,1.11-.29,1.66-.59-.1-1.2.14-1.53.68l-.05.08c-.33.54-.26,1.2.11,1.67-.6.01-1.15.38-1.37.98l-.03.09c-.21.6-.01,1.23.45,1.61-.58.14-1.04.61-1.14,1.24v.1c-.1.63.23,1.2.76,1.48-.54.25-.9.81-.86,1.44v.09c.05.64.49,1.13,1.06,1.3-.48.35-.72.98-.55,1.59l.03.09c.17.61.71,1.01,1.3,1.06-.4.45-.5,1.12-.2,1.68l.04.08c.3.56.91.83,1.5.75-.3.54-.24,1.23.19,1.71l.04.05c.42.48,1.07.63,1.64.43-.15.58.06,1.22.57,1.59l.08.05c.53.37,1.2.34,1.69-.01-.02.61.35,1.2.95,1.43l.1.04c.6.22,1.25.02,1.63-.44.14.6.65,1.07,1.3,1.13h.1s.06.01.09.01c.61.02,1.14-.34,1.38-.87.3.54.91.87,1.56.76,0,0,.07-.01.08-.01.64-.11,1.09-.61,1.18-1.22.42.44,1.09.6,1.68.35l.1-.05c.58-.27.9-.86.85-1.46.52.32,1.2.29,1.71-.11l.06-.05c.51-.4.66-1.06.46-1.63.58.2,1.25.01,1.65-.5l.05-.06c.39-.5.41-1.16.11-1.68.59.05,1.19-.28,1.46-.85l.03-.06c.27-.57.15-1.22-.25-1.66.58-.08,1.08-.51,1.23-1.11l.02-.09c.15-.62-.12-1.22-.61-1.55.56-.19.98-.72,1.01-1.35v-.13s0-.02,0-.02Z"/>
            <g>
              <g>
                <polyline class="cls-5" points="128.89 150.44 117.72 145.6 117.72 140.71 109.48 140.71 109.48 145.6 98.28 150.51"/>
                <polygon class="cls-5" points="113.6 148.94 117.72 145.6 117.72 140.71 109.48 140.71 109.48 145.6 113.6 148.94"/>
                <polygon class="cls-5" points="113.6 148.94 110.69 151.33 107.99 146.21 109.48 144.91 113.6 148.94"/>
                <polygon class="cls-5" points="113.6 148.94 116.51 151.33 119.21 146.21 117.72 144.91 113.6 148.94"/>
                <polyline class="cls-6" points="115.5 150.49 114.61 152.37 113.6 152.37 112.59 152.37 111.71 150.49"/>
                <line class="cls-6" x1="115.3" y1="157.5" x2="114.61" y2="152.37"/>
                <line class="cls-6" x1="112.59" y1="152.37" x2="111.9" y2="157.5"/>
              </g>
              <path class="cls-5" d="m120.36,132.66c0,4.84,0-1.62,0,3.22-.18,3.88-3.18,7.65-6.73,7.63-3.52-.02-6.47-3.78-6.65-7.63,0-4.84,0,.87,0-3.97"/>
              <path class="cls-5" d="m106.98,131.93s2.93-1.6,3.82-4.34c0,0,2.87,4.68,9.56,5.1"/>
            </g>
          </g>
        </g>
        <g>
          <path class="cls-3" d="m68.06,139.73c11.35,0,20.61,9.15,20.71,20.53.1,10.93-8.29,19.96-19.01,20.83-.5.04-1,.07-1.51.07-.07,0-.15,0-.22,0-.56,0-1.12-.03-1.67-.07-10.56-.86-18.91-9.65-19.01-20.46-.1-11.44,9.09-20.8,20.53-20.91.06,0,.13,0,.19,0m0-1.5h-.21c-12.25.12-22.12,10.17-22.01,22.42.11,11.57,8.87,21,20.39,21.94.61.05,1.21.08,1.79.08h.24c.55,0,1.1-.03,1.63-.08,11.53-.93,20.49-10.75,20.38-22.34-.11-12.14-10.07-22.02-22.21-22.02h0Z"/>
          <g>
            <path class="cls-4" d="m80.78,159.76c.02-.63-.35-1.18-.89-1.41.5-.31.79-.91.68-1.53v-.07c-.12-.62-.6-1.08-1.18-1.21.42-.4.59-1.04.36-1.62l-.04-.1c-.24-.59-.81-.92-1.41-.91.35-.5.37-1.18,0-1.71l-.04-.05c-.36-.53-1.01-.75-1.6-.6.22-.57.08-1.24-.39-1.67,0,0-.03-.03-.03-.03-.47-.43-1.14-.49-1.68-.22.08-.6-.21-1.21-.77-1.51l-.07-.04c-.57-.31-1.25-.21-1.7.2-.07-.6-.52-1.13-1.15-1.28,0,0-.07-.02-.08-.02-.63-.14-1.24.15-1.56.67-.22-.57-.77-.98-1.42-.96h-.12c-.64.03-1.17.46-1.35,1.04-.37-.49-1.01-.72-1.63-.53l-.09.03c-.61.2-1,.75-1.01,1.35-.48-.38-1.17-.45-1.72-.1l-.05.03c-.55.33-.8.96-.69,1.56-.55-.24-1.22-.13-1.66.32l-.05.05c-.44.45-.54,1.11-.29,1.66-.59-.1-1.2.14-1.53.68l-.05.08c-.33.54-.26,1.2.11,1.67-.6.01-1.15.38-1.37.98l-.03.09c-.21.6-.01,1.23.45,1.61-.58.14-1.04.61-1.14,1.24v.1c-.1.63.23,1.2.76,1.48-.54.25-.9.81-.86,1.44v.09c.05.64.49,1.13,1.06,1.3-.48.35-.72.98-.55,1.59l.03.09c.17.61.71,1.01,1.3,1.06-.4.45-.5,1.12-.2,1.68l.04.08c.3.56.91.83,1.5.75-.3.54-.24,1.23.19,1.71l.04.05c.42.48,1.07.63,1.64.43-.15.58.06,1.22.57,1.59l.08.05c.53.37,1.2.34,1.69-.01-.02.61.35,1.2.95,1.43l.1.04c.6.22,1.25.02,1.63-.44.14.6.65,1.07,1.3,1.13h.1s.06.01.09.01c.61.02,1.14-.34,1.38-.87.3.54.91.87,1.56.76,0,0,.07-.01.08-.01.64-.11,1.09-.61,1.18-1.22.42.44,1.09.6,1.68.35l.1-.05c.58-.27.9-.86.85-1.46.52.32,1.2.29,1.71-.11l.06-.05c.51-.4.66-1.06.46-1.63.58.2,1.25.01,1.65-.5l.05-.06c.39-.5.41-1.16.11-1.68.59.05,1.19-.28,1.46-.85l.03-.06c.27-.57.15-1.22-.25-1.66.58-.08,1.08-.51,1.23-1.11l.02-.09c.15-.62-.12-1.22-.61-1.55.56-.19.98-.72,1.01-1.35v-.13s0-.02,0-.02Z"/>
            <g>
              <g>
                <polyline class="cls-5" points="83.35 174.04 72.17 169.19 72.17 164.31 63.93 164.31 63.93 169.19 52.73 174.1"/>
                <polygon class="cls-5" points="68.05 172.53 72.17 169.19 72.17 164.31 63.93 164.31 63.93 169.19 68.05 172.53"/>
                <polygon class="cls-5" points="68.05 172.53 65.14 174.92 62.44 169.81 63.93 168.5 68.05 172.53"/>
                <polygon class="cls-5" points="68.05 172.53 70.96 174.92 73.66 169.81 72.17 168.5 68.05 172.53"/>
                <polyline class="cls-6" points="69.95 174.09 69.06 175.96 68.05 175.96 67.04 175.96 66.16 174.09"/>
                <line class="cls-6" x1="69.75" y1="181.09" x2="69.06" y2="175.96"/>
                <line class="cls-6" x1="67.05" y1="175.96" x2="66.35" y2="181.09"/>
              </g>
              <path class="cls-5" d="m74.81,156.26c0,4.84,0-1.62,0,3.22-.18,3.88-3.18,7.65-6.73,7.63-3.52-.02-6.47-3.78-6.65-7.63,0-4.84,0,.87,0-3.97"/>
              <path class="cls-5" d="m61.43,155.52s2.93-1.6,3.82-4.34c0,0,2.87,4.68,9.56,5.1"/>
            </g>
          </g>
        </g>
        <g>
          <line class="cls-6" x1="51.09" y1="93.79" x2="35.91" y2="109.39"/>
          <polygon points="34.98 101.55 36.48 101.58 36.31 108.98 43.69 108.61 43.77 110.11 34.77 110.56 34.98 101.55"/>
        </g>
        <g>
          <line class="cls-6" x1="84.73" y1="93.79" x2="99.91" y2="109.39"/>
          <polygon points="92.05 110.11 92.12 108.61 99.51 108.98 99.34 101.59 100.84 101.55 101.04 110.56 92.05 110.11"/>
        </g>
        <g>
          <line class="cls-6" x1="69.1" y1="101" x2="69.15" y2="122.77"/>
          <polygon points="63 117.81 64.1 116.79 69.15 122.19 74.17 116.76 75.27 117.78 69.15 124.39 63 117.81"/>
        </g>
        <g>
          <polygon class="cls-1" points="79.25 83.28 70.8 81.82 70.8 75.4 76.01 75.85 77.41 80.55 79.25 83.28"/>
          <path class="cls-2" d="m73.16,74.52c.99-.36,2.33.09,3.28,1.67.71,1.19.75,3.43.89,3.88.29.91,1.27,1.94,3.28,1.52,0,0-.16,1.5-1.3,1.72"/>
          <path class="cls-2" d="m75.61,66.79c0,3.58-2.9,6.49-6.49,6.49s-6.49-2.9-6.49-6.49,2.9-6.54,6.49-6.54,6.49,2.96,6.49,6.54Z"/>
          <g>
            <path class="cls-5" d="m82.93,86.03c-.18-.93-.84-1.72-1.77-2.09l-8.87-2.98v-4.43h-6.33v4.43l-8.87,2.98c-.93.38-1.59,1.16-1.77,2.09"/>
            <path class="cls-5" d="m75.27,68.03c0,4.44,0-.81,0,3.63-.16,3.56-2.92,7.02-6.18,7-3.23-.02-5.94-3.47-6.1-7,0-4.44,0,.9,0-3.54l5.66-.06c1.4-.02,2.62-.94,3.02-2.27l.15-.5.04.19c.32,1.6,1.79,2.7,3.42,2.55h0Z"/>
            <path class="cls-5" d="m61.66,82.56s2.36,3.27,7.47,3.27,7.47-3.27,7.47-3.27"/>
          </g>
        </g>
      </g>
    </g>
  </g>
</svg>