<?xml version="1.0" encoding="UTF-8"?>
<svg id="Layer_2" data-name="Layer 2" xmlns="http://www.w3.org/2000/svg" viewBox="0 0 241.32 322.9">
  <defs>
    <style>
      .cls-1, .cls-2 {
        fill: #a59a6e;
      }

      .cls-3 {
        fill: #aa2734;
      }

      .cls-4 {
        fill: #54565a;
      }

      .cls-4, .cls-2, .cls-5, .cls-6 {
        stroke: #000;
        stroke-linecap: round;
        stroke-linejoin: round;
        stroke-width: 1.5px;
      }

      .cls-5 {
        fill: #fff;
      }

      .cls-6 {
        fill: none;
      }
    </style>
  </defs>
  <g id="Content">
    <g>
      <g>
        <path class="cls-3" d="m127.65,1.5c10.54,0,19.13,8.5,19.22,19.06.09,10.15-7.69,18.53-17.65,19.33-.46.04-.93.06-1.4.06-.07,0-.13,0-.2,0-.52,0-1.04-.02-1.55-.07-9.81-.8-17.56-8.96-17.65-18.99-.1-10.62,8.43-19.3,19.05-19.4.06,0,.12,0,.18,0m0-1.5h-.19c-11.43.11-20.64,9.49-20.54,20.92.1,10.8,8.28,19.6,19.03,20.47.57.05,1.13.07,1.67.07h.22c.52,0,1.03-.03,1.52-.07,10.76-.87,19.11-10.03,19.02-20.84-.1-11.33-9.4-20.54-20.72-20.54h0Z"/>
        <g>
          <path class="cls-4" d="m139.46,20.09c.02-.58-.33-1.09-.83-1.31.47-.29.74-.85.63-1.42v-.06c-.11-.58-.55-1.01-1.09-1.12.39-.38.54-.96.34-1.5l-.04-.09c-.22-.55-.75-.86-1.31-.84.32-.46.34-1.1,0-1.59l-.03-.05c-.34-.49-.94-.7-1.48-.56.21-.53.08-1.15-.36-1.55,0,0-.03-.03-.03-.03-.44-.4-1.06-.46-1.56-.21.07-.55-.2-1.12-.72-1.4l-.06-.03c-.53-.28-1.16-.19-1.58.19-.07-.56-.48-1.05-1.06-1.18,0,0-.07-.02-.07-.02-.59-.13-1.15.14-1.45.62-.2-.53-.71-.91-1.31-.89h-.11c-.6.03-1.08.43-1.25.97-.34-.45-.94-.67-1.51-.49l-.08.03c-.57.18-.92.69-.94,1.26-.45-.36-1.09-.41-1.6-.09l-.05.03c-.51.31-.74.89-.64,1.45-.51-.22-1.13-.12-1.54.3l-.05.05c-.41.42-.5,1.03-.27,1.54-.54-.1-1.11.13-1.42.63l-.05.07c-.31.5-.24,1.11.1,1.55-.55.01-1.07.36-1.27.91l-.03.08c-.2.56,0,1.14.42,1.5-.54.13-.97.57-1.05,1.15v.09c-.09.58.21,1.12.7,1.38-.5.23-.83.75-.8,1.34v.09c.05.59.45,1.05.98,1.21-.45.33-.67.91-.51,1.48l.02.09c.16.57.65.94,1.21.98-.37.42-.46,1.04-.19,1.56l.04.08c.28.52.84.77,1.39.69-.28.5-.22,1.14.18,1.59l.04.04c.39.45.99.58,1.52.4-.14.54.05,1.13.53,1.47l.07.05c.49.34,1.11.31,1.57-.01-.01.57.32,1.11.88,1.33l.09.03c.56.21,1.16.02,1.52-.41.13.55.61.99,1.2,1.05h.09s.05.01.08.01c.57.02,1.06-.31,1.28-.81.27.5.85.81,1.45.71,0,0,.07-.01.07-.01.59-.1,1.01-.57,1.1-1.13.39.41,1.01.56,1.56.32l.1-.04c.54-.25.83-.8.79-1.36.48.29,1.12.27,1.58-.1l.06-.05c.47-.37.61-.98.42-1.51.54.18,1.16.01,1.53-.46l.04-.06c.36-.46.38-1.08.1-1.56.55.05,1.1-.26,1.35-.79l.03-.06c.25-.53.14-1.14-.23-1.54.54-.08,1-.47,1.15-1.03l.02-.09c.14-.57-.11-1.13-.57-1.44.52-.18.91-.66.93-1.25v-.12s0-.01,0-.01Z"/>
          <g>
            <g>
              <polyline class="cls-5" points="141.84 33.34 131.47 28.84 131.47 24.31 123.83 24.31 123.83 28.84 113.43 33.4"/>
              <polygon class="cls-5" points="127.65 31.94 131.47 28.84 131.47 24.31 123.83 24.31 123.83 28.84 127.65 31.94"/>
              <polygon class="cls-5" points="127.65 31.94 124.95 34.16 122.44 29.42 123.83 28.2 127.65 31.94"/>
              <polygon class="cls-5" points="127.65 31.94 130.35 34.16 132.86 29.42 131.47 28.2 127.65 31.94"/>
              <polyline class="cls-6" points="129.41 33.39 128.58 35.12 127.65 35.12 126.71 35.12 125.89 33.39"/>
              <line class="cls-6" x1="129.23" y1="39.89" x2="128.58" y2="35.13"/>
              <line class="cls-6" x1="126.71" y1="35.13" x2="126.07" y2="39.89"/>
            </g>
            <path class="cls-5" d="m133.92,16.84c0,4.49,0-1.5,0,2.99-.16,3.6-2.95,7.1-6.25,7.08-3.27-.02-6.01-3.51-6.17-7.08,0-4.49,0,.81,0-3.68"/>
            <path class="cls-5" d="m121.5,16.16s2.72-1.48,3.55-4.03c0,0,2.66,4.34,8.87,4.74"/>
          </g>
        </g>
      </g>
      <g>
        <path class="cls-3" d="m56.29,116.84c10.38,0,18.83,8.37,18.93,18.76.09,9.99-7.57,18.24-17.38,19.04-.46.04-.92.06-1.38.06-.07,0-.13,0-.2,0-.51,0-1.02-.02-1.53-.06-9.66-.78-17.29-8.82-17.38-18.7-.09-10.46,8.3-19.01,18.76-19.11.06,0,.12,0,.17,0m0-1.5h-.19c-11.27.11-20.35,9.36-20.25,20.62.1,10.64,8.16,19.32,18.76,20.18.56.05,1.12.07,1.65.07h.21c.51,0,1.02-.03,1.5-.07,10.6-.86,18.84-9.88,18.75-20.55-.1-11.17-9.26-20.25-20.43-20.25h0Z"/>
        <g>
          <path class="cls-4" d="m67.92,135.14c.02-.57-.32-1.07-.82-1.29.46-.29.73-.83.62-1.4v-.06c-.11-.57-.55-.99-1.08-1.1.39-.37.54-.95.33-1.48l-.04-.09c-.22-.54-.74-.85-1.29-.83.32-.46.34-1.08,0-1.56l-.03-.05c-.33-.48-.92-.69-1.46-.55.2-.52.08-1.14-.36-1.53,0,0-.03-.03-.03-.03-.43-.39-1.04-.45-1.53-.2.07-.55-.19-1.1-.71-1.38l-.06-.03c-.52-.28-1.14-.19-1.56.18-.07-.55-.47-1.03-1.05-1.17,0,0-.07-.02-.07-.02-.58-.13-1.13.14-1.42.61-.2-.52-.7-.9-1.29-.88h-.11c-.59.03-1.06.42-1.23.95-.33-.45-.92-.66-1.49-.49l-.08.03c-.56.18-.91.68-.93,1.24-.44-.35-1.07-.41-1.57-.09l-.05.03c-.5.31-.73.88-.63,1.42-.5-.22-1.11-.12-1.52.3l-.05.05c-.4.41-.49,1.02-.27,1.52-.53-.09-1.1.13-1.4.62l-.05.07c-.3.5-.24,1.1.1,1.52-.55.01-1.06.35-1.25.89l-.03.08c-.19.55,0,1.13.41,1.47-.53.12-.95.56-1.04,1.13v.09c-.09.58.21,1.1.69,1.36-.49.23-.82.74-.79,1.32v.09c.05.58.44,1.04.97,1.19-.44.32-.66.9-.51,1.45l.02.08c.16.56.64.92,1.19.96-.36.41-.46,1.02-.18,1.54l.04.08c.28.51.83.76,1.37.68-.27.49-.22,1.12.17,1.56l.04.04c.38.44.98.58,1.49.39-.14.53.05,1.11.53,1.45l.07.05c.48.34,1.09.31,1.54-.01-.01.56.32,1.09.87,1.31l.09.03c.55.2,1.14.02,1.49-.41.13.55.6.98,1.19,1.04h.09s.05.01.08.01c.56.02,1.04-.31,1.26-.8.27.5.84.79,1.42.7,0,0,.07-.01.07-.01.59-.1,1-.56,1.08-1.11.38.4.99.55,1.53.32l.1-.04c.53-.25.82-.79.77-1.34.47.29,1.1.27,1.56-.1l.06-.04c.46-.37.61-.97.42-1.49.53.18,1.14.01,1.51-.46l.04-.05c.35-.45.38-1.06.1-1.53.54.05,1.08-.25,1.33-.78l.03-.06c.25-.52.14-1.12-.23-1.52.53-.08.99-.46,1.13-1.02l.02-.09c.13-.57-.11-1.12-.56-1.42.51-.18.89-.65.92-1.23v-.12s0-.01,0-.01Z"/>
          <g>
            <g>
              <polyline class="cls-5" points="70.26 148.19 60.05 143.76 60.05 139.3 52.52 139.3 52.52 143.76 42.28 148.25"/>
              <polygon class="cls-5" points="56.28 146.81 60.05 143.76 60.05 139.3 52.52 139.3 52.52 143.76 56.28 146.81"/>
              <polygon class="cls-5" points="56.28 146.81 53.62 149 51.15 144.33 52.52 143.13 56.28 146.81"/>
              <polygon class="cls-5" points="56.28 146.81 58.94 149 61.41 144.33 60.05 143.13 56.28 146.81"/>
              <polyline class="cls-6" points="58.02 148.24 57.2 149.95 56.28 149.95 55.36 149.95 54.55 148.24"/>
              <line class="cls-6" x1="57.84" y1="154.64" x2="57.2" y2="149.95"/>
              <line class="cls-6" x1="55.36" y1="149.95" x2="54.73" y2="154.64"/>
            </g>
            <path class="cls-5" d="m62.46,131.94c0,4.42,0-1.48,0,2.94-.16,3.55-2.9,6.99-6.15,6.97-3.22-.02-5.91-3.45-6.07-6.97,0-4.42,0,.8,0-3.63"/>
            <path class="cls-5" d="m50.23,131.27s2.68-1.46,3.49-3.97c0,0,2.62,4.28,8.74,4.67"/>
          </g>
        </g>
      </g>
      <g>
        <path class="cls-3" d="m181.16,195.66c10.38,0,18.83,8.36,18.93,18.76.09,9.99-7.57,18.24-17.38,19.04-.46.04-.92.06-1.38.06-.07,0-.13,0-.2,0-.52,0-1.02-.02-1.53-.06-9.66-.78-17.29-8.82-17.38-18.7-.09-10.46,8.3-19.01,18.76-19.11.06,0,.12,0,.17,0m0-1.5h-.19c-11.27.11-20.35,9.36-20.25,20.62.1,10.64,8.16,19.32,18.76,20.18.56.05,1.12.07,1.65.07h.21c.51,0,1.01-.03,1.5-.07,10.6-.86,18.84-9.88,18.75-20.55-.1-11.17-9.26-20.25-20.43-20.25h0Z"/>
        <g>
          <path class="cls-4" d="m192.79,213.96c.02-.57-.32-1.07-.82-1.29.46-.29.73-.83.62-1.4v-.06c-.11-.57-.55-.99-1.08-1.1.39-.37.54-.95.33-1.48l-.04-.09c-.22-.54-.74-.85-1.29-.83.32-.46.34-1.08,0-1.56l-.03-.05c-.33-.48-.92-.69-1.46-.55.2-.52.08-1.14-.36-1.53,0,0-.03-.03-.03-.03-.43-.39-1.04-.45-1.53-.2.07-.55-.19-1.1-.71-1.38l-.06-.03c-.52-.28-1.14-.19-1.56.18-.07-.55-.47-1.03-1.05-1.17,0,0-.07-.02-.07-.02-.58-.13-1.13.14-1.42.61-.2-.52-.7-.9-1.29-.88h-.11c-.59.03-1.06.42-1.23.95-.33-.45-.92-.66-1.49-.49l-.08.03c-.56.18-.91.68-.93,1.24-.44-.35-1.07-.41-1.57-.09l-.05.03c-.5.31-.73.88-.63,1.42-.5-.22-1.11-.12-1.52.3l-.05.05c-.4.41-.49,1.02-.27,1.52-.53-.09-1.1.13-1.4.62l-.05.07c-.3.5-.24,1.1.1,1.52-.55.01-1.06.35-1.25.89l-.03.08c-.19.55,0,1.13.41,1.47-.53.12-.95.56-1.04,1.13v.09c-.09.58.21,1.1.69,1.36-.49.23-.82.74-.79,1.32v.09c.05.58.44,1.04.97,1.19-.44.32-.66.9-.51,1.45l.02.08c.16.56.64.92,1.19.96-.36.41-.46,1.02-.18,1.54l.04.08c.28.51.83.76,1.37.68-.27.49-.22,1.12.17,1.56l.04.04c.38.44.98.58,1.49.39-.14.53.05,1.11.53,1.45l.07.05c.48.34,1.09.31,1.54-.01-.01.56.32,1.09.87,1.31l.09.03c.55.2,1.14.02,1.49-.41.13.55.6.98,1.19,1.04h.09s.05.01.08.01c.56.02,1.04-.31,1.26-.8.27.5.84.79,1.42.7,0,0,.07-.01.07-.01.59-.1,1-.56,1.08-1.11.38.4.99.55,1.53.32l.1-.04c.53-.25.82-.79.77-1.34.47.29,1.1.27,1.56-.1l.06-.04c.46-.37.61-.97.42-1.49.53.18,1.14.01,1.51-.46l.04-.05c.35-.45.38-1.06.1-1.53.54.05,1.08-.25,1.33-.78l.03-.06c.25-.52.14-1.12-.23-1.52.53-.08.99-.46,1.13-1.02l.02-.09c.13-.57-.11-1.12-.56-1.42.51-.18.89-.65.92-1.23v-.12s0-.01,0-.01Z"/>
          <g>
            <g>
              <polyline class="cls-5" points="195.13 227.01 184.92 222.59 184.92 218.12 177.39 218.12 177.39 222.59 167.15 227.08"/>
              <polygon class="cls-5" points="181.15 225.64 184.92 222.59 184.92 218.12 177.39 218.12 177.39 222.59 181.15 225.64"/>
              <polygon class="cls-5" points="181.15 225.64 178.49 227.82 176.03 223.15 177.39 221.95 181.15 225.64"/>
              <polygon class="cls-5" points="181.15 225.64 183.82 227.82 186.28 223.15 184.92 221.95 181.15 225.64"/>
              <polyline class="cls-6" points="182.89 227.06 182.08 228.77 181.15 228.77 180.23 228.77 179.42 227.06"/>
              <line class="cls-6" x1="182.71" y1="233.46" x2="182.08" y2="228.77"/>
              <line class="cls-6" x1="180.23" y1="228.77" x2="179.6" y2="233.46"/>
            </g>
            <path class="cls-5" d="m187.33,210.76c0,4.42,0-1.48,0,2.94-.16,3.55-2.9,6.99-6.15,6.97-3.22-.02-5.91-3.45-6.07-6.97,0-4.42,0,.8,0-3.63"/>
            <path class="cls-5" d="m175.1,210.09s2.68-1.46,3.49-3.97c0,0,2.62,4.28,8.74,4.67"/>
          </g>
        </g>
      </g>
      <g>
        <path class="cls-3" d="m126.73,254.32c10.38,0,18.83,8.37,18.93,18.76.09,9.99-7.57,18.24-17.38,19.04-.46.04-.92.06-1.38.06-.07,0-.13,0-.2,0-.51,0-1.02-.02-1.53-.07-9.66-.78-17.29-8.82-17.38-18.7-.09-10.46,8.3-19.01,18.76-19.11.06,0,.12,0,.17,0m0-1.5h-.19c-11.27.11-20.35,9.36-20.25,20.62.1,10.64,8.16,19.32,18.76,20.18.56.05,1.12.07,1.65.07h.21c.51,0,1.02-.03,1.5-.07,10.6-.86,18.84-9.88,18.74-20.55-.1-11.17-9.26-20.25-20.43-20.25h0Z"/>
        <g>
          <path class="cls-4" d="m138.36,272.62c.02-.57-.32-1.07-.82-1.29.46-.29.73-.83.62-1.4v-.06c-.11-.57-.55-.99-1.08-1.1.39-.37.54-.95.33-1.48l-.04-.09c-.22-.54-.74-.85-1.29-.83.32-.46.34-1.08,0-1.56l-.03-.05c-.33-.48-.92-.69-1.46-.55.2-.52.08-1.14-.36-1.53,0,0-.03-.03-.03-.03-.43-.39-1.04-.45-1.53-.2.07-.55-.19-1.1-.71-1.38l-.06-.03c-.52-.28-1.14-.19-1.56.18-.07-.55-.47-1.03-1.05-1.17,0,0-.07-.02-.07-.02-.58-.13-1.13.14-1.42.61-.2-.52-.7-.9-1.29-.88h-.11c-.59.03-1.06.42-1.23.95-.33-.45-.92-.66-1.49-.49l-.08.03c-.56.18-.91.68-.93,1.24-.44-.35-1.07-.41-1.57-.09l-.05.03c-.5.31-.73.88-.63,1.42-.5-.22-1.11-.12-1.52.3l-.05.05c-.4.41-.49,1.02-.27,1.52-.53-.09-1.1.13-1.4.62l-.05.07c-.3.5-.24,1.1.1,1.52-.55.01-1.06.35-1.25.89l-.03.08c-.19.55,0,1.13.41,1.47-.53.12-.95.56-1.04,1.13v.09c-.09.58.21,1.1.69,1.36-.49.23-.82.74-.79,1.32v.09c.05.58.44,1.04.97,1.19-.44.32-.66.9-.51,1.45l.02.08c.16.56.64.92,1.19.96-.36.41-.46,1.02-.18,1.54l.04.08c.28.51.83.76,1.37.68-.27.49-.22,1.12.17,1.56l.04.04c.38.44.98.58,1.49.39-.14.53.05,1.11.53,1.45l.07.05c.48.34,1.09.31,1.54-.01-.01.56.32,1.09.87,1.31l.09.03c.55.2,1.14.02,1.49-.41.13.55.6.98,1.19,1.04h.09s.05.01.08.01c.56.02,1.04-.31,1.26-.8.27.5.84.79,1.42.7,0,0,.07-.01.07-.01.59-.1,1-.56,1.08-1.11.38.4.99.55,1.53.32l.1-.04c.53-.25.82-.79.77-1.34.47.29,1.1.27,1.56-.1l.06-.04c.46-.37.61-.97.42-1.49.53.18,1.14.01,1.51-.46l.04-.05c.35-.45.38-1.06.1-1.53.54.05,1.08-.25,1.33-.78l.03-.06c.25-.52.14-1.12-.23-1.52.53-.08.99-.46,1.13-1.02l.02-.09c.13-.57-.11-1.12-.56-1.42.51-.18.89-.65.92-1.23v-.12s0-.01,0-.01Z"/>
          <g>
            <g>
              <polyline class="cls-5" points="140.7 285.67 130.49 281.24 130.49 276.78 122.96 276.78 122.96 281.24 112.72 285.73"/>
              <polygon class="cls-5" points="126.73 284.29 130.49 281.24 130.49 276.78 122.96 276.78 122.96 281.24 126.73 284.29"/>
              <polygon class="cls-5" points="126.73 284.29 124.07 286.48 121.6 281.81 122.96 280.61 126.73 284.29"/>
              <polygon class="cls-5" points="126.73 284.29 129.39 286.48 131.86 281.81 130.49 280.61 126.73 284.29"/>
              <polyline class="cls-6" points="128.46 285.72 127.65 287.43 126.73 287.43 125.81 287.43 125 285.72"/>
              <line class="cls-6" x1="128.28" y1="292.12" x2="127.65" y2="287.43"/>
              <line class="cls-6" x1="125.81" y1="287.43" x2="125.17" y2="292.12"/>
            </g>
            <path class="cls-5" d="m132.9,269.42c0,4.42,0-1.48,0,2.94-.16,3.55-2.9,6.99-6.15,6.97-3.22-.02-5.91-3.45-6.07-6.97,0-4.42,0,.8,0-3.63"/>
            <path class="cls-5" d="m120.68,268.75s2.68-1.46,3.49-3.97c0,0,2.62,4.28,8.74,4.67"/>
          </g>
        </g>
      </g>
      <g>
        <line class="cls-6" x1="141.63" y1="48.81" x2="157.45" y2="187.27"/>
        <polygon points="150.79 183.03 151.77 181.89 157.38 186.7 161.77 180.75 162.98 181.64 157.63 188.89 150.79 183.03"/>
      </g>
      <g>
        <line class="cls-6" x1="127.64" y1="51.64" x2="127.02" y2="237.85"/>
        <polygon points="120.9 232.86 122.01 231.84 127.02 237.27 132.08 231.87 133.17 232.9 127.02 239.48 120.9 232.86"/>
      </g>
      <g>
        <line class="cls-6" x1="116.3" y1="48.58" x2="95.4" y2="184.63"/>
        <polygon points="90.09 178.79 91.33 177.94 95.48 184.06 101.28 179.47 102.21 180.65 95.15 186.24 90.09 178.79"/>
      </g>
      <g>
        <line class="cls-6" x1="104.02" y1="40.12" x2="73.37" y2="106.27"/>
        <polygon points="69.9 99.18 71.32 98.72 73.61 105.75 80.46 102.95 81.03 104.34 72.69 107.75 69.9 99.18"/>
      </g>
      <g>
        <line class="cls-6" x1="150.26" y1="40.12" x2="177.96" y2="106.25"/>
        <polygon points="170.38 104.04 171 102.67 177.74 105.72 180.29 98.78 181.7 99.29 178.59 107.75 170.38 104.04"/>
      </g>
      <g>
        <polygon class="cls-1" points="117.97 319.64 110.25 318.3 110.25 312.43 115.01 312.84 116.29 317.14 117.97 319.64"/>
        <path class="cls-2" d="m112.4,311.62c.9-.33,2.13.08,3,1.53.65,1.09.68,3.13.82,3.55.27.83,1.17,1.78,3,1.39,0,0-.15,1.37-1.18,1.57"/>
        <path class="cls-2" d="m114.65,304.56c0,3.27-2.65,5.93-5.93,5.93s-5.93-2.65-5.93-5.93,2.65-5.98,5.93-5.98,5.93,2.7,5.93,5.98Z"/>
        <g>
          <path class="cls-5" d="m121.34,322.15c-.16-.85-.77-1.57-1.62-1.91l-8.11-2.72v-4.05h-5.78v4.05l-8.11,2.72c-.85.35-1.46,1.06-1.62,1.91"/>
          <path class="cls-5" d="m114.33,305.7c0,4.06,0-.74,0,3.32-.15,3.26-2.66,6.42-5.65,6.4-2.96-.02-5.43-3.17-5.57-6.4,0-4.06,0,.82,0-3.24l5.17-.06c1.28-.01,2.39-.86,2.76-2.08l.14-.45.03.17c.29,1.46,1.64,2.47,3.12,2.33h0Z"/>
          <path class="cls-5" d="m101.89,318.98s2.16,2.99,6.83,2.99,6.83-2.99,6.83-2.99"/>
        </g>
      </g>
      <g>
        <polygon class="cls-1" points="154.27 319.32 146.54 317.98 146.54 312.12 151.31 312.52 152.59 316.82 154.27 319.32"/>
        <path class="cls-2" d="m148.7,311.31c.9-.33,2.13.08,3,1.53.65,1.09.68,3.13.82,3.55.27.83,1.17,1.78,3,1.39,0,0-.15,1.37-1.18,1.57"/>
        <path class="cls-2" d="m150.95,304.24c0,3.27-2.65,5.93-5.93,5.93s-5.93-2.65-5.93-5.93,2.65-5.98,5.93-5.98,5.93,2.7,5.93,5.98Z"/>
        <g>
          <path class="cls-5" d="m157.63,321.83c-.16-.85-.77-1.57-1.62-1.91l-8.11-2.72v-4.05h-5.78v4.05l-8.11,2.72c-.85.35-1.46,1.06-1.62,1.91"/>
          <path class="cls-5" d="m150.63,305.38c0,4.06,0-.74,0,3.32-.15,3.26-2.66,6.42-5.65,6.4-2.96-.02-5.43-3.17-5.57-6.4,0-4.06,0,.82,0-3.24l5.17-.06c1.28-.01,2.39-.86,2.76-2.08l.14-.45.03.17c.29,1.46,1.64,2.47,3.12,2.33h0Z"/>
          <path class="cls-5" d="m138.19,318.66s2.16,2.99,6.83,2.99,6.83-2.99,6.83-2.99"/>
        </g>
      </g>
      <g>
        <polygon class="cls-1" points="78.26 262.4 70.53 261.06 70.53 255.19 75.3 255.6 76.57 259.9 78.26 262.4"/>
        <path class="cls-2" d="m72.69,254.38c.9-.33,2.13.08,3,1.53.65,1.09.68,3.13.82,3.55.27.83,1.17,1.78,3,1.39,0,0-.15,1.37-1.18,1.57"/>
        <path class="cls-2" d="m74.93,247.32c0,3.27-2.65,5.93-5.93,5.93s-5.93-2.65-5.93-5.93,2.65-5.98,5.93-5.98,5.93,2.7,5.93,5.98Z"/>
        <g>
          <path class="cls-5" d="m81.62,264.91c-.16-.85-.77-1.57-1.62-1.91l-8.11-2.72v-4.05h-5.78v4.05l-8.11,2.72c-.85.35-1.46,1.06-1.62,1.91"/>
          <path class="cls-5" d="m74.62,248.46c0,4.06,0-.74,0,3.32-.15,3.26-2.66,6.42-5.65,6.4-2.96-.02-5.43-3.17-5.57-6.4,0-4.06,0,.82,0-3.24l5.17-.06c1.28-.01,2.39-.86,2.76-2.08l.14-.45.03.17c.29,1.46,1.64,2.47,3.12,2.33h0Z"/>
          <path class="cls-5" d="m62.18,261.74s2.16,2.99,6.83,2.99,6.83-2.99,6.83-2.99"/>
        </g>
      </g>
      <g>
        <polygon class="cls-1" points="22.62 153.05 14.89 151.71 14.89 145.84 19.66 146.25 20.94 150.55 22.62 153.05"/>
        <path class="cls-2" d="m17.05,145.03c.9-.33,2.13.08,3,1.53.65,1.09.68,3.13.82,3.55.27.83,1.17,1.78,3,1.39,0,0-.15,1.37-1.18,1.57"/>
        <path class="cls-2" d="m19.29,137.97c0,3.27-2.65,5.93-5.93,5.93s-5.93-2.65-5.93-5.93,2.65-5.98,5.93-5.98,5.93,2.7,5.93,5.98Z"/>
        <g>
          <path class="cls-5" d="m25.98,155.56c-.16-.85-.77-1.57-1.62-1.91l-8.11-2.72v-4.05h-5.78v4.05l-8.11,2.72c-.85.35-1.46,1.06-1.62,1.91"/>
          <path class="cls-5" d="m18.98,139.11c0,4.06,0-.74,0,3.32-.15,3.26-2.66,6.42-5.65,6.4-2.96-.02-5.43-3.17-5.57-6.4,0-4.06,0,.82,0-3.24l5.17-.06c1.28-.01,2.39-.86,2.76-2.08l.14-.45.03.17c.29,1.46,1.64,2.47,3.12,2.33h0Z"/>
          <path class="cls-5" d="m6.54,152.39s2.16,2.99,6.83,2.99,6.83-2.99,6.83-2.99"/>
        </g>
      </g>
      <g>
        <g>
          <polygon class="cls-1" points="85.47 225.61 77.74 224.27 77.74 218.4 82.51 218.81 83.79 223.11 85.47 225.61"/>
          <path class="cls-2" d="m79.9,217.59c.9-.33,2.13.08,3,1.53.65,1.09.68,3.13.82,3.55.27.83,1.17,1.78,3,1.39,0,0-.15,1.37-1.18,1.57"/>
          <path class="cls-2" d="m82.15,210.53c0,3.27-2.65,5.93-5.93,5.93s-5.93-2.65-5.93-5.93,2.65-5.98,5.93-5.98,5.93,2.7,5.93,5.98Z"/>
          <g>
            <path class="cls-5" d="m88.83,228.11c-.16-.85-.77-1.57-1.62-1.91l-8.11-2.72v-4.05h-5.78v4.05l-8.11,2.72c-.85.35-1.46,1.06-1.62,1.91"/>
            <path class="cls-5" d="m81.83,211.67c0,4.06,0-.74,0,3.32-.15,3.26-2.66,6.42-5.65,6.4-2.96-.02-5.43-3.17-5.57-6.4,0-4.06,0,.82,0-3.24l5.17-.06c1.28-.01,2.39-.86,2.76-2.08l.14-.45.03.17c.29,1.46,1.64,2.47,3.12,2.33h0Z"/>
            <path class="cls-5" d="m69.39,224.94s2.16,2.99,6.83,2.99,6.83-2.99,6.83-2.99"/>
          </g>
        </g>
        <path class="cls-3" d="m76.22,194.99c10.38,0,18.83,8.37,18.93,18.76.09,9.99-7.57,18.24-17.38,19.04-.46.04-.92.06-1.38.06-.07,0-.13,0-.2,0-.51,0-1.02-.02-1.53-.07-9.66-.78-17.29-8.82-17.38-18.7-.09-10.46,8.3-19.01,18.76-19.11.06,0,.12,0,.17,0m0-1.5h-.19c-11.27.11-20.35,9.36-20.25,20.62.1,10.64,8.16,19.32,18.76,20.18.56.05,1.11.07,1.65.07h.22c.51,0,1.02-.03,1.5-.07,10.6-.86,18.84-9.88,18.75-20.55-.1-11.17-9.26-20.25-20.43-20.25h0Z"/>
      </g>
      <g>
        <g>
          <polygon class="cls-1" points="191.33 147.36 183.6 146.02 183.6 140.16 188.37 140.56 189.65 144.86 191.33 147.36"/>
          <path class="cls-2" d="m185.76,139.35c.9-.33,2.13.08,3,1.53.65,1.09.68,3.13.82,3.55.27.83,1.17,1.78,3,1.39,0,0-.15,1.37-1.18,1.57"/>
          <path class="cls-2" d="m188,132.28c0,3.27-2.65,5.93-5.93,5.93s-5.93-2.65-5.93-5.93,2.65-5.98,5.93-5.98,5.93,2.7,5.93,5.98Z"/>
          <g>
            <path class="cls-5" d="m194.69,149.87c-.16-.85-.77-1.57-1.62-1.91l-8.11-2.72v-4.05h-5.78v4.05l-8.11,2.72c-.85.35-1.46,1.06-1.62,1.91"/>
            <path class="cls-5" d="m187.69,133.42c0,4.06,0-.74,0,3.32-.15,3.26-2.66,6.42-5.65,6.4-2.96-.02-5.43-3.17-5.57-6.4,0-4.06,0,.82,0-3.24l5.17-.06c1.28-.01,2.39-.86,2.76-2.08l.14-.45.03.17c.29,1.46,1.64,2.47,3.12,2.33h0Z"/>
            <path class="cls-5" d="m175.25,146.7s2.16,2.99,6.83,2.99,6.83-2.99,6.83-2.99"/>
          </g>
        </g>
        <path class="cls-3" d="m182.08,116.74c10.38,0,18.83,8.36,18.93,18.76.09,9.99-7.57,18.24-17.38,19.04-.46.04-.92.06-1.38.06-.07,0-.13,0-.2,0-.51,0-1.02-.02-1.53-.07-9.66-.78-17.29-8.82-17.38-18.7-.09-10.46,8.3-19.01,18.76-19.11.06,0,.12,0,.17,0m0-1.5h-.19c-11.27.11-20.35,9.36-20.25,20.62.1,10.64,8.16,19.32,18.76,20.18.56.05,1.11.07,1.65.07h.22c.51,0,1.02-.03,1.5-.07,10.6-.86,18.84-9.88,18.75-20.55-.1-11.17-9.26-20.25-20.43-20.25h0Z"/>
      </g>
      <g>
        <path class="cls-4" d="m48.3,171.73c.02-.57-.32-1.07-.82-1.29.46-.29.73-.83.62-1.4v-.06c-.11-.57-.55-.99-1.08-1.1.39-.37.54-.95.33-1.48l-.04-.09c-.22-.54-.74-.85-1.29-.83.32-.46.34-1.08,0-1.56l-.03-.05c-.33-.48-.92-.69-1.46-.55.2-.52.08-1.14-.36-1.53,0,0-.03-.03-.03-.03-.43-.39-1.04-.45-1.53-.2.07-.55-.19-1.1-.71-1.38l-.06-.03c-.52-.28-1.14-.19-1.56.18-.07-.55-.47-1.03-1.05-1.17,0,0-.07-.02-.07-.02-.58-.13-1.13.14-1.42.61-.2-.52-.7-.9-1.29-.88h-.11c-.59.03-1.06.42-1.23.95-.33-.45-.92-.66-1.49-.49l-.08.03c-.56.18-.91.68-.93,1.24-.44-.35-1.07-.41-1.57-.09l-.05.03c-.5.31-.73.88-.63,1.42-.5-.22-1.11-.12-1.52.3l-.05.05c-.4.41-.49,1.02-.27,1.52-.53-.09-1.1.13-1.4.62l-.05.07c-.3.5-.24,1.1.1,1.52-.55.01-1.06.35-1.25.89l-.03.08c-.19.55,0,1.13.41,1.47-.53.12-.95.56-1.04,1.13v.09c-.09.58.21,1.1.69,1.36-.49.23-.82.74-.79,1.32v.09c.05.58.44,1.04.97,1.19-.44.32-.66.9-.51,1.45l.02.08c.16.56.64.92,1.19.96-.36.41-.46,1.02-.18,1.54l.04.08c.28.51.83.76,1.37.68-.27.49-.22,1.12.17,1.56l.04.04c.38.44.98.58,1.49.39-.14.53.05,1.11.53,1.45l.07.05c.48.34,1.09.31,1.54-.01-.01.56.32,1.09.87,1.31l.09.03c.55.2,1.14.02,1.49-.41.13.55.6.98,1.19,1.04h.09s.05.01.08.01c.56.02,1.04-.31,1.26-.8.27.5.84.79,1.42.7,0,0,.07-.01.07-.01.59-.1,1-.56,1.08-1.11.38.4.99.55,1.53.32l.1-.04c.53-.25.82-.79.77-1.34.47.29,1.1.27,1.56-.1l.06-.04c.46-.37.61-.97.42-1.49.53.18,1.14.01,1.51-.46l.04-.05c.35-.45.38-1.06.1-1.53.54.05,1.08-.25,1.33-.78l.03-.06c.25-.52.14-1.12-.23-1.52.53-.08.99-.46,1.13-1.02l.02-.09c.13-.57-.11-1.12-.56-1.42.51-.18.89-.65.92-1.23v-.12s0-.01,0-.01Z"/>
        <g>
          <g>
            <polyline class="cls-5" points="50.64 184.78 40.43 180.36 40.43 175.89 32.9 175.89 32.9 180.36 22.66 184.85"/>
            <polygon class="cls-5" points="36.66 183.41 40.43 180.36 40.43 175.89 32.9 175.89 32.9 180.36 36.66 183.41"/>
            <polygon class="cls-5" points="36.66 183.41 34 185.6 31.53 180.92 32.9 179.73 36.66 183.41"/>
            <polygon class="cls-5" points="36.66 183.41 39.32 185.6 41.79 180.92 40.43 179.73 36.66 183.41"/>
            <polyline class="cls-6" points="38.4 184.83 37.58 186.54 36.66 186.54 35.74 186.54 34.93 184.83"/>
            <line class="cls-6" x1="38.22" y1="191.24" x2="37.58" y2="186.54"/>
            <line class="cls-6" x1="35.74" y1="186.54" x2="35.11" y2="191.24"/>
          </g>
          <path class="cls-5" d="m42.84,168.54c0,4.42,0-1.48,0,2.94-.16,3.55-2.9,6.99-6.15,6.97-3.22-.02-5.91-3.45-6.07-6.97,0-4.42,0,.8,0-3.63"/>
          <path class="cls-5" d="m30.61,167.87s2.68-1.46,3.49-3.97c0,0,2.62,4.28,8.74,4.67"/>
        </g>
      </g>
      <g>
        <polygon class="cls-1" points="217.25 181.21 209.52 179.88 209.52 174.01 214.29 174.41 215.56 178.71 217.25 181.21"/>
        <path class="cls-2" d="m211.68,173.2c.9-.33,2.13.08,3,1.53.65,1.09.68,3.13.82,3.55.27.83,1.17,1.78,3,1.39,0,0-.15,1.37-1.18,1.57"/>
        <path class="cls-2" d="m213.92,166.14c0,3.27-2.65,5.93-5.93,5.93s-5.93-2.65-5.93-5.93,2.65-5.98,5.93-5.98,5.93,2.7,5.93,5.98Z"/>
        <g>
          <path class="cls-5" d="m220.61,183.72c-.16-.85-.77-1.57-1.62-1.91l-8.11-2.72v-4.05h-5.78v4.05l-8.11,2.72c-.85.35-1.46,1.06-1.62,1.91"/>
          <path class="cls-5" d="m213.61,167.27c0,4.06,0-.74,0,3.32-.15,3.26-2.66,6.42-5.65,6.4-2.96-.02-5.43-3.17-5.57-6.4,0-4.06,0,.82,0-3.24l5.17-.06c1.28-.01,2.39-.86,2.76-2.08l.14-.45.03.17c.29,1.46,1.64,2.47,3.12,2.33h0Z"/>
          <path class="cls-5" d="m201.17,180.55s2.16,2.99,6.83,2.99,6.83-2.99,6.83-2.99"/>
        </g>
      </g>
      <g>
        <path class="cls-4" d="m238.22,134.59c.02-.57-.32-1.07-.82-1.29.46-.29.73-.83.62-1.4v-.06c-.11-.57-.55-.99-1.08-1.1.39-.37.54-.95.33-1.48l-.04-.09c-.22-.54-.74-.85-1.29-.83.32-.46.34-1.08,0-1.56l-.03-.05c-.33-.48-.92-.69-1.46-.55.2-.52.08-1.14-.36-1.53,0,0-.03-.03-.03-.03-.43-.39-1.04-.45-1.53-.2.07-.55-.19-1.1-.71-1.38l-.06-.03c-.52-.28-1.14-.19-1.56.18-.07-.55-.47-1.03-1.05-1.17,0,0-.07-.02-.07-.02-.58-.13-1.13.14-1.42.61-.2-.52-.7-.9-1.29-.88h-.11c-.59.03-1.06.42-1.23.95-.33-.45-.92-.66-1.49-.49l-.08.03c-.56.18-.91.68-.93,1.24-.44-.35-1.07-.41-1.57-.09l-.05.03c-.5.31-.73.88-.63,1.42-.5-.22-1.11-.12-1.52.3l-.05.05c-.4.41-.49,1.02-.27,1.52-.53-.09-1.1.13-1.4.62l-.05.07c-.3.5-.24,1.1.1,1.52-.55.01-1.06.35-1.25.89l-.03.08c-.19.55,0,1.13.41,1.47-.53.12-.95.56-1.04,1.13v.09c-.09.58.21,1.1.69,1.36-.49.23-.82.74-.79,1.32v.09c.05.58.44,1.04.97,1.19-.44.32-.66.9-.51,1.45l.02.08c.16.56.64.92,1.19.96-.36.41-.46,1.02-.18,1.54l.04.08c.28.51.83.76,1.37.68-.27.49-.22,1.12.17,1.56l.04.04c.38.44.98.58,1.49.39-.14.53.05,1.11.53,1.45l.07.05c.48.34,1.09.31,1.54-.01-.01.56.32,1.09.87,1.31l.09.03c.55.2,1.14.02,1.49-.41.13.55.6.98,1.19,1.04h.09s.05.01.08.01c.56.02,1.04-.31,1.26-.8.27.5.84.79,1.42.7,0,0,.07-.01.07-.01.59-.1,1-.56,1.08-1.11.38.4.99.55,1.53.32l.1-.04c.53-.25.82-.79.77-1.34.47.29,1.1.27,1.56-.1l.06-.04c.46-.37.61-.97.42-1.49.53.18,1.14.01,1.51-.46l.04-.05c.35-.45.38-1.06.1-1.53.54.05,1.08-.25,1.33-.78l.03-.06c.25-.52.14-1.12-.23-1.52.53-.08.99-.46,1.13-1.02l.02-.09c.13-.57-.11-1.12-.56-1.42.51-.18.89-.65.92-1.23v-.12s0-.01,0-.01Z"/>
        <g>
          <g>
            <polyline class="cls-5" points="240.57 147.64 230.35 143.21 230.35 138.75 222.82 138.75 222.82 143.21 212.58 147.7"/>
            <polygon class="cls-5" points="226.59 146.26 230.35 143.21 230.35 138.75 222.82 138.75 222.82 143.21 226.59 146.26"/>
            <polygon class="cls-5" points="226.59 146.26 223.93 148.45 221.46 143.77 222.82 142.58 226.59 146.26"/>
            <polygon class="cls-5" points="226.59 146.26 229.25 148.45 231.72 143.77 230.35 142.58 226.59 146.26"/>
            <polyline class="cls-6" points="228.32 147.69 227.51 149.4 226.59 149.4 225.67 149.4 224.86 147.69"/>
            <line class="cls-6" x1="228.14" y1="154.09" x2="227.51" y2="149.4"/>
            <line class="cls-6" x1="225.67" y1="149.4" x2="225.04" y2="154.09"/>
          </g>
          <path class="cls-5" d="m232.77,131.39c0,4.42,0-1.48,0,2.94-.16,3.55-2.9,6.99-6.15,6.97-3.22-.02-5.91-3.45-6.07-6.97,0-4.42,0,.8,0-3.63"/>
          <path class="cls-5" d="m220.54,130.72s2.68-1.46,3.49-3.97c0,0,2.62,4.28,8.74,4.67"/>
        </g>
      </g>
      <g>
        <path class="cls-4" d="m231.12,232.1c.02-.57-.32-1.07-.82-1.29.46-.29.73-.83.62-1.4v-.06c-.11-.57-.55-.99-1.08-1.1.39-.37.54-.95.33-1.48l-.04-.09c-.22-.54-.74-.85-1.29-.83.32-.46.34-1.08,0-1.56l-.03-.05c-.33-.48-.92-.69-1.46-.55.2-.52.08-1.14-.36-1.53,0,0-.03-.03-.03-.03-.43-.39-1.04-.45-1.53-.2.07-.55-.19-1.1-.71-1.38l-.06-.03c-.52-.28-1.14-.19-1.56.18-.07-.55-.47-1.03-1.05-1.17,0,0-.07-.02-.07-.02-.58-.13-1.13.14-1.42.61-.2-.52-.7-.9-1.29-.88h-.11c-.59.03-1.06.42-1.23.95-.33-.45-.92-.66-1.49-.49l-.08.03c-.56.18-.91.68-.93,1.24-.44-.35-1.07-.41-1.57-.09l-.05.03c-.5.31-.73.88-.63,1.42-.5-.22-1.11-.12-1.52.3l-.05.05c-.4.41-.49,1.02-.27,1.52-.53-.09-1.1.13-1.4.62l-.05.07c-.3.5-.24,1.1.1,1.52-.55.01-1.06.35-1.25.89l-.03.08c-.19.55,0,1.13.41,1.47-.53.12-.95.56-1.04,1.13v.09c-.09.58.21,1.1.69,1.36-.49.23-.82.74-.79,1.32v.09c.05.58.44,1.04.97,1.19-.44.32-.66.9-.51,1.45l.02.08c.16.56.64.92,1.19.96-.36.41-.46,1.02-.18,1.54l.04.08c.28.51.83.76,1.37.68-.27.49-.22,1.12.17,1.56l.04.04c.38.44.98.58,1.49.39-.14.53.05,1.11.53,1.45l.07.05c.48.34,1.09.31,1.54-.01-.01.56.32,1.09.87,1.31l.09.03c.55.2,1.14.02,1.49-.41.13.55.6.98,1.19,1.04h.09s.05.01.08.01c.56.02,1.04-.31,1.26-.8.27.5.84.79,1.42.7,0,0,.07-.01.07-.01.59-.1,1-.56,1.08-1.11.38.4.99.55,1.53.32l.1-.04c.53-.25.82-.79.77-1.34.47.29,1.1.27,1.56-.1l.06-.04c.46-.37.61-.97.42-1.49.53.18,1.14.01,1.51-.46l.04-.05c.35-.45.38-1.06.1-1.53.54.05,1.08-.25,1.33-.78l.03-.06c.25-.52.14-1.12-.23-1.52.53-.08.99-.46,1.13-1.02l.02-.09c.13-.57-.11-1.12-.56-1.42.51-.18.89-.65.92-1.23v-.12s0-.01,0-.01Z"/>
        <g>
          <g>
            <polyline class="cls-5" points="233.46 245.15 223.25 240.73 223.25 236.26 215.72 236.26 215.72 240.73 205.48 245.21"/>
            <polygon class="cls-5" points="219.48 243.78 223.25 240.73 223.25 236.26 215.72 236.26 215.72 240.73 219.48 243.78"/>
            <polygon class="cls-5" points="219.48 243.78 216.82 245.96 214.36 241.29 215.72 240.09 219.48 243.78"/>
            <polygon class="cls-5" points="219.48 243.78 222.14 245.96 224.61 241.29 223.25 240.09 219.48 243.78"/>
            <polyline class="cls-6" points="221.22 245.2 220.41 246.91 219.48 246.91 218.56 246.91 217.75 245.2"/>
            <line class="cls-6" x1="221.04" y1="251.6" x2="220.41" y2="246.91"/>
            <line class="cls-6" x1="218.56" y1="246.91" x2="217.93" y2="251.6"/>
          </g>
          <path class="cls-5" d="m225.66,228.9c0,4.42,0-1.48,0,2.94-.16,3.55-2.9,6.99-6.15,6.97-3.22-.02-5.91-3.45-6.07-6.97,0-4.42,0,.8,0-3.63"/>
          <path class="cls-5" d="m213.43,228.23s2.68-1.46,3.49-3.97c0,0,2.62,4.28,8.74,4.67"/>
        </g>
      </g>
      <g>
        <path class="cls-4" d="m192.79,256.25c.02-.57-.32-1.07-.82-1.29.46-.29.73-.83.62-1.4v-.06c-.11-.57-.55-.99-1.08-1.1.39-.37.54-.95.33-1.48l-.04-.09c-.22-.54-.74-.85-1.29-.83.32-.46.34-1.08,0-1.56l-.03-.05c-.33-.48-.92-.69-1.46-.55.2-.52.08-1.14-.36-1.53,0,0-.03-.03-.03-.03-.43-.39-1.04-.45-1.53-.2.07-.55-.19-1.1-.71-1.38l-.06-.03c-.52-.28-1.14-.19-1.56.18-.07-.55-.47-1.03-1.05-1.17,0,0-.07-.02-.07-.02-.58-.13-1.13.14-1.42.61-.2-.52-.7-.9-1.29-.88h-.11c-.59.03-1.06.42-1.23.95-.33-.45-.92-.66-1.49-.49l-.08.03c-.56.18-.91.68-.93,1.24-.44-.35-1.07-.41-1.57-.09l-.05.03c-.5.31-.73.88-.63,1.42-.5-.22-1.11-.12-1.52.3l-.05.05c-.4.41-.49,1.02-.27,1.52-.53-.09-1.1.13-1.4.62l-.05.07c-.3.5-.24,1.1.1,1.52-.55.01-1.06.35-1.25.89l-.03.08c-.19.55,0,1.13.41,1.47-.53.12-.95.56-1.04,1.13v.09c-.09.58.21,1.1.69,1.36-.49.23-.82.74-.79,1.32v.09c.05.58.44,1.04.97,1.19-.44.32-.66.9-.51,1.45l.02.08c.16.56.64.92,1.19.96-.36.41-.46,1.02-.18,1.54l.04.08c.28.51.83.76,1.37.68-.27.49-.22,1.12.17,1.56l.04.04c.38.44.98.58,1.49.39-.14.53.05,1.11.53,1.45l.07.05c.48.34,1.09.31,1.54-.01-.01.56.32,1.09.87,1.31l.09.03c.55.2,1.14.02,1.49-.41.13.55.6.98,1.19,1.04h.09s.05.01.08.01c.56.02,1.04-.31,1.26-.8.27.5.84.79,1.42.7,0,0,.07-.01.07-.01.59-.1,1-.56,1.08-1.11.38.4.99.55,1.53.32l.1-.04c.53-.25.82-.79.77-1.34.47.29,1.1.27,1.56-.1l.06-.04c.46-.37.61-.97.42-1.49.53.18,1.14.01,1.51-.46l.04-.05c.35-.45.38-1.06.1-1.53.54.05,1.08-.25,1.33-.78l.03-.06c.25-.52.14-1.12-.23-1.52.53-.08.99-.46,1.13-1.02l.02-.09c.13-.57-.11-1.12-.56-1.42.51-.18.89-.65.92-1.23v-.12s0-.01,0-.01Z"/>
        <g>
          <g>
            <polyline class="cls-5" points="195.13 269.3 184.92 264.87 184.92 260.41 177.39 260.41 177.39 264.87 167.15 269.36"/>
            <polygon class="cls-5" points="181.15 267.93 184.92 264.87 184.92 260.41 177.39 260.41 177.39 264.87 181.15 267.93"/>
            <polygon class="cls-5" points="181.15 267.93 178.49 270.11 176.03 265.44 177.39 264.24 181.15 267.93"/>
            <polygon class="cls-5" points="181.15 267.93 183.82 270.11 186.28 265.44 184.92 264.24 181.15 267.93"/>
            <polyline class="cls-6" points="182.89 269.35 182.08 271.06 181.15 271.06 180.23 271.06 179.42 269.35"/>
            <line class="cls-6" x1="182.71" y1="275.75" x2="182.08" y2="271.06"/>
            <line class="cls-6" x1="180.23" y1="271.06" x2="179.6" y2="275.75"/>
          </g>
          <path class="cls-5" d="m187.33,253.05c0,4.42,0-1.48,0,2.94-.16,3.55-2.9,6.99-6.15,6.97-3.22-.02-5.91-3.45-6.07-6.97,0-4.42,0,.8,0-3.63"/>
          <path class="cls-5" d="m175.1,252.38s2.68-1.46,3.49-3.97c0,0,2.62,4.28,8.74,4.67"/>
        </g>
      </g>
      <g>
        <path class="cls-4" d="m45.44,232.76c.02-.57-.32-1.07-.82-1.29.46-.29.73-.83.62-1.4v-.06c-.11-.57-.55-.99-1.08-1.1.39-.37.54-.95.33-1.48l-.04-.09c-.22-.54-.74-.85-1.29-.83.32-.46.34-1.08,0-1.56l-.03-.05c-.33-.48-.92-.69-1.46-.55.2-.52.08-1.14-.36-1.53,0,0-.03-.03-.03-.03-.43-.39-1.04-.45-1.53-.2.07-.55-.19-1.1-.71-1.38l-.06-.03c-.52-.28-1.14-.19-1.56.18-.07-.55-.47-1.03-1.05-1.17,0,0-.07-.02-.07-.02-.58-.13-1.13.14-1.42.61-.2-.52-.7-.9-1.29-.88h-.11c-.59.03-1.06.42-1.23.95-.33-.45-.92-.66-1.49-.49l-.08.03c-.56.18-.91.68-.93,1.24-.44-.35-1.07-.41-1.57-.09l-.05.03c-.5.31-.73.88-.63,1.42-.5-.22-1.11-.12-1.52.3l-.05.05c-.4.41-.49,1.02-.27,1.52-.53-.09-1.1.13-1.4.62l-.05.07c-.3.5-.24,1.1.1,1.52-.55.01-1.06.35-1.25.89l-.03.08c-.19.55,0,1.13.41,1.47-.53.12-.95.56-1.04,1.13v.09c-.09.58.21,1.1.69,1.36-.49.23-.82.74-.79,1.32v.09c.05.58.44,1.04.97,1.19-.44.32-.66.9-.51,1.45l.02.08c.16.56.64.92,1.19.96-.36.41-.46,1.02-.18,1.54l.04.08c.28.51.83.76,1.37.68-.27.49-.22,1.12.17,1.56l.04.04c.38.44.98.58,1.49.39-.14.53.05,1.11.53,1.45l.07.05c.48.34,1.09.31,1.54-.01-.01.56.32,1.09.87,1.31l.09.03c.55.2,1.14.02,1.49-.41.13.55.6.98,1.19,1.04h.09s.05.01.08.01c.56.02,1.04-.31,1.26-.8.27.5.84.79,1.42.7,0,0,.07-.01.07-.01.59-.1,1-.56,1.08-1.11.38.4.99.55,1.53.32l.1-.04c.53-.25.82-.79.77-1.34.47.29,1.1.27,1.56-.1l.06-.04c.46-.37.61-.97.42-1.49.53.18,1.14.01,1.51-.46l.04-.05c.35-.45.38-1.06.1-1.53.54.05,1.08-.25,1.33-.78l.03-.06c.25-.52.14-1.12-.23-1.52.53-.08.99-.46,1.13-1.02l.02-.09c.13-.57-.11-1.12-.56-1.42.51-.18.89-.65.92-1.23v-.12s0-.01,0-.01Z"/>
        <g>
          <g>
            <polyline class="cls-5" points="47.78 245.81 37.57 241.39 37.57 236.92 30.04 236.92 30.04 241.39 19.8 245.87"/>
            <polygon class="cls-5" points="33.81 244.44 37.57 241.39 37.57 236.92 30.04 236.92 30.04 241.39 33.81 244.44"/>
            <polygon class="cls-5" points="33.81 244.44 31.15 246.62 28.68 241.95 30.04 240.75 33.81 244.44"/>
            <polygon class="cls-5" points="33.81 244.44 36.47 246.62 38.93 241.95 37.57 240.75 33.81 244.44"/>
            <polyline class="cls-6" points="35.54 245.86 34.73 247.57 33.81 247.57 32.88 247.57 32.07 245.86"/>
            <line class="cls-6" x1="35.36" y1="252.26" x2="34.73" y2="247.57"/>
            <line class="cls-6" x1="32.88" y1="247.57" x2="32.25" y2="252.26"/>
          </g>
          <path class="cls-5" d="m39.98,229.56c0,4.42,0-1.48,0,2.94-.16,3.55-2.9,6.99-6.15,6.97-3.22-.02-5.91-3.45-6.07-6.97,0-4.42,0,.8,0-3.63"/>
          <path class="cls-5" d="m27.75,228.89s2.68-1.46,3.49-3.97c0,0,2.62,4.28,8.74,4.67"/>
        </g>
      </g>
    </g>
  </g>
</svg>