<?xml version="1.0" encoding="UTF-8"?>
<svg id="Layer_2" data-name="Layer 2" xmlns="http://www.w3.org/2000/svg" xmlns:xlink="http://www.w3.org/1999/xlink" viewBox="0 0 260.89 200.56">
  <defs>
    <style>
      .cls-1, .cls-2, .cls-3, .cls-4 {
        fill: none;
      }

      .cls-5, .cls-2, .cls-3, .cls-4, .cls-6 {
        stroke-linecap: round;
      }

      .cls-5, .cls-2, .cls-3, .cls-6 {
        stroke-linejoin: round;
      }

      .cls-5, .cls-3, .cls-6 {
        stroke: #666;
      }

      .cls-5, .cls-7 {
        fill: #fff;
      }

      .cls-2 {
        stroke: #1e4f80;
      }

      .cls-4 {
        stroke: #6d6c6f;
        stroke-miterlimit: 10;
        stroke-width: .72px;
      }

      .cls-8 {
        clip-path: url(#clippath);
      }

      .cls-6, .cls-9 {
        fill: #f2f2f2;
      }

      .cls-10 {
        fill: #f1f1f1;
      }

      .cls-11 {
        fill: #ba0c2f;
      }

      .cls-12 {
        fill: #919194;
      }

      .cls-13 {
        fill: #bdc2bf;
      }

      .cls-14 {
        fill: #d66d82;
      }

      .cls-15 {
        fill: #1a1a1a;
      }

      .cls-16 {
        fill: #6d6c6f;
      }

      .cls-17 {
        fill: #888b89;
      }

      .cls-18 {
        fill: #808082;
      }

      .cls-19 {
        clip-path: url(#clippath-1);
      }
    </style>
    <clipPath id="clippath">
      <polyline class="cls-1" points="7.53 0 260.89 0 260.89 146.36 0 146.36"/>
    </clipPath>
    <clipPath id="clippath-1">
      <rect class="cls-1" x="41.23" y="12.86" width="168.91" height="133.51" rx="27.87" ry="27.87"/>
    </clipPath>
  </defs>
  <g id="Content">
    <g>
      <g class="cls-8">
        <rect class="cls-10" x="41.23" y="12.86" width="168.91" height="133.51" rx="27.87" ry="27.87"/>
        <g class="cls-19">
          <g>
            <g>
              <rect class="cls-5" x="102.99" y="64.52" width="6.66" height="57.36" transform="translate(-3.86 4.59) rotate(-2.43)"/>
              <rect class="cls-5" x="114.86" y="89.87" width="57.36" height="6.66" transform="translate(44.35 232.66) rotate(-87.57)"/>
              <rect class="cls-5" x="97.73" y="137.85" width="3.82" height="47.51"/>
              <rect class="cls-5" x="106.42" y="134.73" width="3.31" height="43.76"/>
              <rect class="cls-5" x="138.35" y="134.73" width="3.31" height="43.76"/>
              <rect class="cls-5" x="146.96" y="137.85" width="3.82" height="47.51"/>
              <polygon class="cls-5" points="127.17 136.95 154.27 132.71 145.69 121.36 104.16 121.36 93.89 132.75 122.67 136.95 122.72 137.65 124.92 137.31 127.13 137.65 127.17 136.95"/>
              <rect class="cls-5" x="93.42" y="131.3" width="61.35" height="9.67" rx="3.1" ry="3.1"/>
              <rect class="cls-5" x="99.64" y="62.25" width="51.15" height="7.86" rx="2.19" ry="2.19"/>
            </g>
            <ellipse class="cls-15" cx="124.89" cy="122.02" rx="20.24" ry="9.83"/>
            <polygon class="cls-15" points="108.99 131.42 104.56 122.65 113.66 124.72 118.45 126.62 118.5 130.1 108.99 131.42"/>
            <polygon class="cls-15" points="121.93 125.13 124.14 139.32 110.24 140.53 104.86 123.48 121.93 125.13"/>
            <polygon class="cls-15" points="122.51 186.97 113.96 185.69 110.24 140.53 124.25 140.48 122.51 186.97"/>
            <circle class="cls-15" cx="117.24" cy="140.54" r="7" transform="translate(-38.84 236.11) rotate(-81.65)"/>
            <polygon class="cls-15" points="144.83 123.48 139.45 140.53 125.54 139.32 127.75 125.13 144.83 123.48"/>
            <polygon class="cls-15" points="125.44 140.48 139.45 140.53 135.72 185.69 127.18 186.97 125.44 140.48"/>
            <circle class="cls-15" cx="132.44" cy="140.54" r="7" transform="translate(-19.02 20.74) rotate(-8.35)"/>
            <path class="cls-13" d="m116.91,185.25c1.16-.9,2.78-.9,3.95-.01,0,0,.17,4.93.51,5.75s1.01,2.91,1.21,3.61-.22,1.62-.22,1.62l-3.15.61-4.79-.5-1.62-.75-.54-1.33.57-1.33,1.77-2.5.93-3.02.77-1.95.6-.19Z"/>
            <path class="cls-17" d="m112.04,193.6s-1.2,3.35.04,5.1c1.23,1.75,8.5,2.28,9.82,1.55,1.32-.74,1.17-5.13,1.17-5.13-.93.43-1.96.61-2.98.54-1.78-.15-6.53-.27-8.04-2.05Z"/>
            <path class="cls-17" d="m112.13,194.87s-.63-1,1.01-3.37,1.31-5.58,1.59-5.82,2.88-1.46,3.33-.52-1.63,4.96-2.53,5.78c-.9.82-3,2.52-2.95,3.5s-.45.42-.45.42Z"/>
            <path class="cls-17" d="m123.28,186.89s-.87,4.36-.68,5c.26,1.16.42,2.34.48,3.53,0,.69-.61.87-.62.56s-.02-1.18-.91-2.66-2.04-3-1.62-5.87c.42-2.87.34-3.02,1.89-2.08,1.55.94,1.46,1.53,1.46,1.53Z"/>
            <path class="cls-2" d="m114.19,191.66s.64-1.22,3.14-.79,3.95.35,4.45,1.83"/>
            <path class="cls-2" d="m114.51,190.14c.83-.65,1.92-.88,2.95-.62,2.33.5,3.32.14,4.26,1.61"/>
            <path class="cls-2" d="m115.35,188.81s.77-.8,2.49-.46c2.25.44,2.72.17,3.75,1.39"/>
            <path class="cls-2" d="m115.9,187.37c.58-.38,1.28-.54,1.96-.43,2.25.44,2.47.08,3.94,1.25"/>
            <path class="cls-13" d="m133.75,185.44l.77,1.95.93,3.02,1.77,2.5.57,1.33-.54,1.33-1.62.75-4.79.5-3.15-.61s-.42-.91-.22-1.62.87-2.8,1.21-3.61.51-5.75.51-5.75c1.17-.89,2.79-.88,3.95.01l.6.19Z"/>
            <path class="cls-17" d="m129.97,195.65c-1.02.07-2.05-.12-2.98-.54,0,0-.15,4.4,1.17,5.13s8.58.2,9.82-1.55.04-5.1.04-5.1c-1.51,1.78-6.26,1.91-8.04,2.05Z"/>
            <path class="cls-17" d="m137.47,194.45c.05-.99-2.05-2.68-2.95-3.5s-2.98-4.83-2.53-5.78c.45-.94,3.05.28,3.33.52s-.04,3.45,1.59,5.82c1.63,2.37,1.01,3.37,1.01,3.37,0,0-.5.56-.45-.42Z"/>
            <path class="cls-17" d="m128.23,185.36c1.55-.94,1.47-.78,1.89,2.08.42,2.87-.72,4.38-1.62,5.87s-.9,2.36-.91,2.66-.61.14-.62-.56c.06-1.19.22-2.37.48-3.53.19-.64-.68-5-.68-5,0,0-.09-.6,1.46-1.53Z"/>
            <path class="cls-2" d="m128.27,192.71c.5-1.49,1.95-1.41,4.45-1.83s3.14.79,3.14.79"/>
            <path class="cls-2" d="m128.33,191.13c.95-1.47,1.93-1.11,4.26-1.61,1.03-.26,2.12-.03,2.95.62"/>
            <path class="cls-2" d="m128.46,189.73c1.03-1.22,1.5-.95,3.75-1.39,1.72-.34,2.49.46,2.49.46"/>
            <path class="cls-2" d="m128.25,188.19c1.47-1.17,1.69-.81,3.94-1.25.68-.11,1.39.04,1.96.43"/>
            <path class="cls-15" d="m139.06,58.37c1.11-1.58-.08-2.8-.08-2.8,1-1.61-.52-2.69-.52-2.69,1.28-1.67-.19-3.61-.19-3.61.8-2.01-1.16-3.49-1.16-3.49.07-2.95-2.18-5.74-2.18-5.74l-7.15-6.78h-7.57l-6.72,6.78s-2.11,2.79-2.05,5.74c0,0-1.84,1.48-1.09,3.49,0,0-1.38,1.93-.18,3.61,0,0-1.44,1.08-.49,2.69,0,0-1.12,1.21-.08,2.8,0,0-1.27,1.16.18,2.6,0,0-.64,1.91.5,2.55,0,0-.41,1.86,1.45,1.91,0,0,.5,1.97,1.75,1.54,0,0,1.02,1.12,2.3.58,0,0,.9.8,2.18.27,0,0,.93.56,1.85-.29,0,0,.36.42,1.07.42s1.02-.41,1.02-.41c0,0,.12.42,1,.42s1.04-.43,1.04-.43c0,0,.29.42,1.16.42s1.12-.4,1.12-.4c0,0,.21.36.98.36s1.04-.44,1.04-.44c.98.85,1.92.35,1.92.35,1.36.53,2.32-.27,2.32-.27,1.35.53,2.44-.58,2.44-.58,1.33.43,1.86-1.54,1.86-1.54,1.98-.05,1.55-1.91,1.55-1.91,1.21-.64.53-2.55.53-2.55,1.55-1.43.19-2.6.19-2.6Z"/>
            <path class="cls-12" d="m130.48,65.52l-5.93-1.05-5.93,1.05c-.24.08-6.57,1.95-10.64,2.58,0,0,5.42,14.75,16.58,15.55,11.14-.8,16.34-15.1,16.34-15.1l-2.02-.92c-4.43-.94-8.17-2.04-8.39-2.12Z"/>
            <ellipse class="cls-11" cx="113.33" cy="86.89" rx="5.56" ry="7.16"/>
            <ellipse class="cls-11" cx="136.46" cy="87.51" rx="5.56" ry="7.16"/>
            <path class="cls-11" d="m111.89,67.31s2.86,7.5,12.15,9.35c0,0,8.77.98,13.36-9.35,0,0,3.7.81,6.54,1.61,0,0-8.26,38.87-3.57,46.45,1.43,2.32-35.29,3.35-33.18.72,5.07-6.32.89-43.99-.62-47.12-.13-.25-.03-.55.22-.67.04-.02.09-.04.14-.05l4.96-.94Z"/>
            <rect class="cls-5" x="53.89" y="118.03" width="4.2" height="67.85"/>
            <rect class="cls-5" x="73.74" y="100.02" width="4.2" height="76.53"/>
            <rect class="cls-5" x="53.45" y="183.76" width="5" height="3.96" rx=".72" ry=".72"/>
            <rect class="cls-5" x="73.33" y="173.09" width="5" height="3.96" rx=".72" ry=".72"/>
            <rect class="cls-5" x="201.7" y="117.61" width="4.2" height="67.85"/>
            <rect class="cls-5" x="181.86" y="99.59" width="4.2" height="76.53"/>
            <path class="cls-5" d="m182.18,173.09h3.56c.4,0,.72.32.72.72v2.51c0,.4-.32.72-.72.72h-3.56c-.4,0-.72-.32-.72-.72v-2.51c0-.4.32-.72.72-.72Z"/>
            <rect class="cls-5" x="201.3" y="181.99" width="5" height="3.96" rx=".72" ry=".72"/>
            <rect class="cls-5" x="47.33" y="115.43" width="163.46" height="5"/>
            <polygon class="cls-7" points="210.79 115.43 47.33 115.43 74.41 97.87 174.06 98.15 184.13 98.15 210.79 115.43"/>
            <path class="cls-9" d="m98.01,111.25l22.39.23.3.65h1.96l-.89-1.97-4.47-1.9-4.9.83s-1.7-5.81-1.95-5.81h-5.09l-7.35,7.97Z"/>
            <path class="cls-9" d="m146.55,111.25l-22.39.23-.26.7-1.91-.05.77-1.97,4.47-1.9,4.9.83s2.37-5.79,2.63-5.79h4.39l7.39,7.94Z"/>
            <path class="cls-6" d="m144.11,108.81s-3.82-3.17-5.58-5.86c0,0-8.19-.09-11.12-1.62-2.93-1.52-5.18,1.16-5.24,1.95s0,7.13,0,7.13l2.44-1.89,6.34.8,4.39.42,4.57.25,3.72-.25.49-.94Z"/>
            <path class="cls-6" d="m100.48,108.81s3.82-3.17,5.58-5.86c0,0,8.19-.09,11.12-1.62,2.93-1.52,5.18,1.16,5.24,1.95s0,7.13,0,7.13l-2.43-1.88-6.35.79-4.39.42-4.57.25-3.72-.25-.49-.94Z"/>
            <path class="cls-3" d="m121.56,103.81c-1.16-.77-2.57-1.09-3.95-.89-.69.09-1.37.23-2.04.42-.68.17-1.34.38-2.02.58-1.35.41-2.73.71-4.13.9-.7.09-1.4.15-2.11.18-.42,0-.85-.03-1.27-.08"/>
            <path class="cls-3" d="m121.56,105.19c-1.16-.77-2.57-1.09-3.95-.89-.69.09-1.37.23-2.04.42-.68.17-1.34.38-2.02.58-1.35.41-2.73.71-4.13.9-.7.09-1.4.15-2.11.18-.42,0-1.29-.2-1.71-.25"/>
            <path class="cls-3" d="m121.56,106.57c-1.16-.77-2.57-1.09-3.95-.89-.69.09-1.37.23-2.04.42-.68.17-1.34.38-2.02.58-1.35.41-2.73.71-4.13.9-.7.09-1.4.15-2.11.18-.42,0-1.94,0-2.36-.06"/>
            <path class="cls-3" d="m139.01,104.92c-.42.05-.84.08-1.27.08-.71-.03-1.41-.09-2.11-.18-1.4-.19-2.78-.49-4.13-.9-.68-.2-1.34-.41-2.02-.58-.67-.19-1.35-.33-2.04-.42-1.38-.2-2.78.11-3.95.89"/>
            <path class="cls-3" d="m139.45,106.14c-.42.05-1.28.24-1.71.25-.71-.03-1.41-.09-2.11-.18-1.4-.19-2.78-.49-4.13-.9-.68-.2-1.34-.41-2.02-.58-.67-.19-1.35-.33-2.04-.42-1.38-.2-2.78.11-3.95.89"/>
            <path class="cls-3" d="m140.11,107.7c-.42.05-1.94.05-2.36.06-.71-.03-1.41-.09-2.11-.18-1.4-.19-2.78-.49-4.13-.9-.68-.2-1.34-.41-2.02-.58-.67-.19-1.35-.33-2.04-.42-1.38-.2-2.78.11-3.95.89"/>
            <path class="cls-6" d="m145.3,109.72c-.81-.78-1.19-.91-1.19-.91-3.43.69-6.97.6-10.36-.26-5.92-1.51-7.83-2.28-10.44-.52-.46.31-.79.72-1.01,1.15-.23-.42-.55-.83-1.02-1.15-2.61-1.77-4.52-.99-10.44.52-3.39.86-6.93.95-10.36.26,0,0-.38.13-1.18.91-.87.85-.98,1.52-.98,1.52.01-.09.34-.3,1.15-.42.69-.1,2.23.14,4.64.28,2.41.11,4.82-.07,7.19-.53.18-.03,6.71-1.2,6.71-1.2,2.75-.23,3.07,2.76,3.07,2.76h2.41s.32-2.99,3.07-2.76c0,0,6.53,1.17,6.71,1.2,2.37.47,4.78.64,7.19.53,2.41-.14,3.96-.38,4.64-.28.81.12,1.14.33,1.15.42,0,0-.11-.67-.98-1.52Z"/>
            <polyline class="cls-3" points="98.01 111.4 120.39 111.63 120.63 112.21 123.95 112.21 124.17 111.63 146.55 111.4"/>
            <circle class="cls-13" cx="156.16" cy="97.67" r="4.11"/>
            <line class="cls-1" x1="137.34" y1="100.43" x2="155.1" y2="98.06"/>
            <path class="cls-12" d="m137,98.7l17.39-4.24c2.36-.58,4.85.53,5.55,2.48.7,1.94-.79,4.21-3.15,4.79-.45.05-.91.07-1.36.05l-17.75.38c-1.18.03-2.18-.73-2.22-1.7-.03-.82.62-1.53,1.54-1.75Z"/>
            <path class="cls-12" d="m131.69,99.13c-.38.26-2.39.56-3.01.65-.26.04-1.52,0-1.84,0-.95.06-1.84.54-1.82,1.23s.8,1.15,1.89,1.12c.25-.01.51-.04.76-.09.92-.11,2.68.43,4.16.69,2.48.43,4.1-.1,4.97-.55"/>
            <path class="cls-12" d="m130.83,100.21l-4.67.65-4.13,1.75c-.37.2-1.07.16-1.36-.15-.37-.4-.07-1.01.35-1.33,0,0,3.87-2.23,4.39-2.37l4.65-1.23c.57-.16,1.16-.19,1.74-.11.33.05,4.3.43,4.3.43,1.54.39,7.17-.68,7.17-.68l-.33,4.79s-5.72.03-6.31.32"/>
            <path class="cls-12" d="m130.57,98.61l-4.5,1.03c-.43.12-3.51,1.81-3.51,1.81-.54.3-.62.79-.3,1.14.26.26.7.31,1.17.13l3.1-1.27,4.64-.33"/>
            <path class="cls-12" d="m131.29,99.98l-3,.41c-.43.12-3.42,1.06-3.42,1.06-.7.26-.62.79-.3,1.14.26.26.52.23,1.17.13l3.01-.52,3.05.42"/>
            <g id="forearm">
              <polygon class="cls-12" points="109.81 95.45 91.39 92.25 90.4 100.39 110.26 101.38 109.81 95.45"/>
              <circle class="cls-12" cx="90.76" cy="96.31" r="4.11"/>
            </g>
            <g id="hand">
              <path class="cls-12" d="m111.12,93.62s2.51,1.15,3.2,1.24,1.48.43,1.68,1.32.28,1.83.48,2.23.56.93.2,1.24-1.34.3-1.98-.61c-.36-.5-.62-1.06-.74-1.67,0,0-1.42.08-2.08-.17"/>
              <path class="cls-12" d="m111.88,97.2l.13.06c.13.05.27.08.41.11.22.04.44.08.66.1.13.01.26.02.42.03s.35,0,.36.02v.04s0,.03,0,.05c.01.06.03.12.04.19.03.12.07.26.12.38.1.27.23.53.38.77.16.29.38.54.64.74.3.23.66.35,1.03.35.2,0,.4-.05.58-.15.1-.06.19-.14.26-.24.06-.11.09-.23.09-.35-.02-.2-.08-.39-.18-.57-.09-.16-.19-.32-.26-.46-.12-.34-.22-.68-.29-1.03-.09-.35-.18-.71-.3-1.06,0,0,.04.26.1.7.03.22.06.49.1.79.02.15.05.31.09.49.02.09.05.18.08.27.04.09.08.17.12.26.16.32.33.73.06.86-.16.08-.34.12-.52.1-.19-.02-.38-.07-.55-.17-.36-.22-.65-.54-.84-.92-.11-.19-.21-.38-.29-.58-.04-.1-.09-.2-.12-.31-.02-.05-.03-.1-.05-.15s-.04-.2-.06-.3l-.68.04c-.18,0-.35.02-.52.02-.34.02-.68,0-1.01-.07Z"/>
              <polygon class="cls-14" points="116.41 102.9 116.42 104.16 115.54 103.25 109.75 89 110.62 88.65 116.41 102.9"/>
              <line class="cls-12" x1="115.54" y1="103.25" x2="116.41" y2="102.9"/>
              <path class="cls-12" d="m105.62,100.81s1.68,1.58,2.09,1.88,1.89.17,2.21.07c.35-.08.6-.39.6-.75.03-.43-.45-.83-.88-.83s-1.18-.21-1.37-.4-1.13-1.29-1.13-1.29"/>
              <path class="cls-12" d="m112.01,94.71c-.89-1.68-1.91-1.33-2.32-1.08s-.67.65-1.14.88-1.17.29-1.55.7-.18.91-.35,1.37-.82.67-.85,1.52-.2.73-.47,1.17c-.15.33-.16.7-.04,1.03.12.25.28.47.49.65"/>
              <path class="cls-12" d="m107.16,99.47l.55.74.3.38.17.22s.07.08.12.11c.04.03.09.06.14.09.2.1.41.18.63.23.12.03.24.06.36.07.06,0,.13.02.19.02.05,0,.1,0,.15.02.21.06.38.19.5.38.05.08.07.18.07.28,0,.11-.04.22-.1.31-.06.09-.15.16-.26.2-.05.03-.11.05-.17.06l-.2.04c-.29.04-.59.07-.88.07-.29.02-.58,0-.86-.09l-.07-.04-.09-.06-.19-.15-.38-.3c-.52-.41-1.01-.82-1.55-1.22,0,0,.27.29.74.77.24.23.52.52.85.83l.26.24s.09.08.14.12c.06.05.12.09.19.11.26.1.53.15.81.15.28.01.56,0,.84-.02.15-.01.3-.03.44-.06.17-.03.33-.1.47-.2.15-.11.26-.26.32-.44.03-.08.05-.17.05-.26.01-.1,0-.19-.02-.29-.11-.35-.39-.63-.74-.73-.08-.03-.17-.04-.26-.05h-.21c-.14-.01-.28-.03-.42-.06-.14-.04-.28-.09-.41-.15-.06-.02-.12-.05-.18-.07-.03-.01-.05-.03-.07-.04-.02-.02-.05-.04-.06-.06-.39-.41-.78-.8-1.16-1.16Z"/>
              <path class="cls-12" d="m106.64,99.74s1.84,2.19,2.28,2.6,2.16.45,2.54.37c.41-.05.73-.37.79-.77.09-.5-.41-1.03-.91-1.08s-1.34-.4-1.52-.64-1.64-2.4-1.64-2.4"/>
              <path class="cls-12" d="m108.21,97.8l.6,1,.7,1.14c.07.11.14.22.21.34.1.12.23.22.37.3.27.15.56.28.86.37.08.03.17.05.26.06.04,0,.09.02.13.02s.06,0,.1.02c.13.04.26.11.36.21.23.17.33.47.26.75-.08.29-.34.51-.64.53-.37.03-.74.03-1.1,0-.38-.01-.75-.08-1.11-.21-.04-.01-.08-.03-.11-.06-.04-.02-.07-.05-.1-.08-.07-.06-.14-.14-.21-.21l-.42-.44-1.72-1.79s.3.4.83,1.06c.26.33.58.72.95,1.16.09.11.19.22.29.33.05.06.11.12.18.17.07.06.15.1.23.14.32.13.65.21.99.25.35.05.71.07,1.06.06.43.03.84-.15,1.11-.48.06-.09.11-.19.15-.3.04-.11.05-.22.06-.33,0-.23-.08-.45-.22-.63-.13-.18-.3-.32-.5-.42-.1-.05-.21-.08-.32-.1-.11-.02-.17-.03-.26-.05-.35-.08-.68-.2-1-.37-.07-.04-.13-.08-.18-.13-.05-.06-.11-.14-.16-.22l-.33-.44c-.45-.58-.87-1.14-1.29-1.66Z"/>
              <path class="cls-12" d="m107.92,98.02c.45.41.85.86,1.21,1.34.32.49.68.95,1.08,1.38.77.71,1.59,1.37,2.45,1.98.38.23,1.05-.02,1.4-.23s.44-.97,0-1.4-2.28-2.16-2.28-2.16l-2.12-2.74"/>
              <path class="cls-12" d="m109.69,96.17l.81,1.17.95,1.33.14.19.07.1s.03.04.05.06l.05.05.36.36.77.77c.28.27.56.55.86.84.07.07.16.15.21.21.06.07.1.14.13.22.07.16.08.34.05.52-.02.08-.05.16-.1.23-.05.07-.11.11-.19.14-.19.1-.39.17-.59.21-.18.05-.37.03-.54-.05-.19-.11-.38-.26-.57-.39-.38-.28-.76-.59-1.14-.89-.19-.15-.38-.31-.57-.47-.18-.16-.36-.33-.52-.52-.34-.37-.62-.77-.94-1.18-.34-.38-.7-.73-1.1-1.05,0,0,.11.11.3.31.28.29.54.6.77.92.32.52.68,1.02,1.09,1.49.55.54,1.13,1.05,1.73,1.52.16.13.33.26.5.39.09.06.18.13.27.19.12.07.25.11.38.12.25.02.49-.02.72-.1.11-.04.22-.08.33-.13l.16-.09c.07-.04.13-.09.18-.14.17-.22.25-.5.23-.77-.02-.27-.12-.53-.3-.74-.34-.34-.67-.64-1.01-.96l-1.01-.93-.26-.23-.06-.06h-.01l-.03-.03-.11-.13-.43-.52c-.56-.69-1.12-1.35-1.65-1.96Z"/>
              <path class="cls-12" d="m112.01,94.71l1.57,2.58,1.67,2.34s1.09,1.39,1.18,1.89.03.77-.2.96-.73.47-1.4-.14c-1.11-1.08-2.17-2.22-3.16-3.42-.47-.65-1.99-2.69-1.99-2.69"/>
              <path class="cls-12" d="m109.7,96.22l.74,1.08.85,1.24c.17.24.34.5.55.77s.43.52.67.8c.47.55,1,1.14,1.59,1.75.14.15.3.31.45.46.16.17.35.32.56.44.24.13.52.17.79.11.13-.03.26-.09.37-.17.13-.08.23-.18.31-.31.11-.26.13-.55.06-.82l-.02-.09-.03-.11c-.02-.06-.05-.13-.08-.19-.05-.11-.11-.23-.18-.33-.26-.42-.55-.83-.86-1.22-.59-.79-1.2-1.61-1.82-2.41-.54-.83-1.11-1.68-1.68-2.52,0,0,.57,1,1.51,2.63.54.79,1.17,1.73,1.91,2.75.18.26.36.52.52.79.08.14.16.27.23.42.07.13.11.27.12.42.02.14.01.29-.03.42-.04.12-.12.18-.26.26-.25.15-.56.13-.79-.04-.27-.21-.52-.43-.75-.68l-.74-.77c-.5-.52-.99-1.03-1.46-1.55-.24-.26-.45-.52-.66-.8l-.64-.81c-.41-.52-.82-1.04-1.22-1.53Z"/>
            </g>
            <path class="cls-12" d="m159.88,95.93l-9.58-19.5c-1.03-2.22-3.67-3.19-5.9-2.15h0c-2.22,1.03-3.19,3.67-2.16,5.89,0,0,0,0,0,0l10.25,19.38c1.03,2.22,3.89,1.65,4.26,1.34h0c2.23-1.03,3.65-3.36,3.11-4.96Z"/>
            <path class="cls-11" d="m153.12,81.14s-2.6-5.88-6.16-10.37l-10.13,6.87,6.11,9.24,10.19-5.74Z"/>
            <circle class="cls-11" cx="142.55" cy="74.55" r="5.8"/>
            <path class="cls-12" d="m100.52,74.29s-11.9,17.26-13.42,20.13c-2.24,4.24,4.21,7.27,5.8,5.13,5.21-7.04,15.16-17.93,15.16-17.93l-7.54-7.32Z"/>
            <path class="cls-11" d="m96.83,79.09s3.56-6.69,7.48-9.78l8.77,9.25-7.07,7.42-9.19-6.89Z"/>
            <circle class="cls-11" cx="107.72" cy="73.99" r="5.8"/>
            <path class="cls-5" d="m180.73,100.73l-12.45,3.92-4.2,6.75-5.31-6.05c-1.72-2.32,0-4.64,0-4.64l21.95.02"/>
            <polygon class="cls-6" points="166.93 111.39 187.9 111.39 187.9 107.04 164.09 106.76 163.33 109.07 164.09 111.39 166.93 111.39"/>
            <polygon class="cls-5" points="188.54 106.76 180.73 100.73 158.77 100.73 164.09 106.76 188.54 106.76"/>
            <ellipse class="cls-15" cx="124.06" cy="42.98" rx="11.41" ry="11.89"/>
            <polygon class="cls-12" points="130.13 69.62 118.33 69.73 118.64 64.94 119.15 59.23 119.38 56.56 128.76 56.57 129.08 59.6 129.14 60.2 130.13 69.62"/>
            <path class="cls-18" d="m129.18,60.08l-10.15-.38-.51,5.84h3.15c2.75,0,5.31-1.39,6.82-3.69l.76-1.16-.06-.61Z"/>
            <g>
              <path class="cls-12" d="m134.24,45.68c0,1.05-.16,2.06-.46,3,0,0-.83,5.21-.97,5.96,0,.01,0,.02,0,.03-.28,1.51-.69,2.7-1.53,4.11h0c-.27.46-.59.94-.96,1.45-.58.8-.83,1.12-1.59,1.92-.68.71-1.55,1.45-3.27,1.77-.31.06-1.05.09-1.69.05-.18,0-.34-.02-.49-.05-1.72-.32-2.59-1.06-3.27-1.77-.77-.79-1.02-1.12-1.6-1.92-1.53-2.12-2.12-3.56-2.5-5.56-.11-.61-1-5.99-1-5.99h0c-.3-.95-.47-1.96-.47-3,0-5.47,4.43-9.9,9.91-9.9,3.21,0,6.05,1.52,7.86,3.88.22.29.42.58.61.89.91,1.5,1.43,3.25,1.43,5.13Z"/>
              <path class="cls-12" d="m133.78,48.68s3.56-.91,2.76,2.37c-.95,3.93-3.73,3.46-3.73,3.46l.96-5.83Z"/>
              <path class="cls-15" d="m116.43,47.51c-.09.02-.16-.09-.09-.16.38-.4,1.26-1.22,2.32-1.41,1.04-.19,2.66-.1,3.47-.04.41.03.74.37.74.78,0,0,0,.01,0,.02,0,.33-.21.47-.4.54-.13.05-.28.06-.42.04-.59-.08-2.99-.42-3.42-.3-.38.1-1.63.4-2.2.53Z"/>
              <path class="cls-15" d="m132.26,47.51c.09.02.16-.09.09-.16-.38-.4-1.26-1.22-2.32-1.41s-2.66-.1-3.47-.04c-.41.03-.74.37-.74.78,0,0,0,.01,0,.02,0,.33.21.47.4.54.13.05.28.06.42.04.59-.08,2.99-.42,3.42-.3.38.1,1.63.4,2.2.53Z"/>
              <path class="cls-12" d="m114.89,48.68s-3.52-.91-2.73,2.37c.95,3.93,3.73,3.46,3.73,3.46l-1-5.83Z"/>
              <g>
                <ellipse class="cls-15" cx="119.7" cy="49.56" rx=".93" ry="1.32"/>
                <path class="cls-15" d="m120.63,48.74c-1.15.09-1.59-.08-2.65-.12.31-1.29,2.35-1.11,2.65.12h0Z"/>
                <ellipse class="cls-15" cx="128.97" cy="49.56" rx=".93" ry="1.32"/>
                <path class="cls-15" d="m130.69,48.74c-1.15.09-1.59-.08-2.65-.12.31-1.29,2.35-1.11,2.65.12h0Z"/>
              </g>
              <g>
                <path class="cls-7" d="m121.48,57.17h5.5s-1.04,1.83-2.71,1.83-2.79-1.83-2.79-1.83Z"/>
                <path class="cls-16" d="m124.26,56.65c-.93-.96-3.55.52-3.55.52,0,0,2.24.61,3.55.61s3.55-.61,3.55-.61c0,0-2.62-1.48-3.55-.52Z"/>
                <path class="cls-16" d="m127.81,57.17l-1.08.26-1.06.62c-.87.51-1.95.51-2.83.02l-1.14-.64-1-.24c.69,1.73,1.95,2.48,2.77,2.79.5.19,1.06.19,1.56,0,.82-.31,2.08-1.06,2.77-2.79Z"/>
              </g>
              <path class="cls-4" d="m126.16,53.59s-.11.29-1.36.41c0,0-.02,0-.07.02-.31.1-.7.1-1.01,0-.04-.01-.07-.02-.07-.02-1.25-.12-1.36-.41-1.36-.41"/>
            </g>
            <path class="cls-15" d="m124.81,35.18s-3.56.24-3.54.27c-1.97-.11-10.62,3.73-6.37,14.76,0,0,.66-4.22.89-4.64.23-.42-.69-.37-.69-.37,0,0,.74-1.54,1.27-1.76.53-.22-.31-.92-.31-.92,0,0,1.1-1.01,1.5-1.1,0,0,.15-.28.13-.59s-.22-.53-.22-.53c0,0,1.3-.18,1.56-.42,0,0,.38-.21-.36-.56,0,0,.81.3,1.69.05.88-.24-.08-.88-.08-.88,0,0,1.29.49,1.55.35.16-.09.24-.55.29-.91.3.41.77.91,1.31.93.53.02,1.11-.57,1.51-1.07.08.41.2.92.38,1.01.29.15,1.65-.49,1.65-.49,0,0-.99.79-.03,1.02s1.82-.17,1.82-.17c-.77.45-.35.66-.35.66.3.26,1.71.38,1.71.38,0,0-.2.26-.2.62,0,.36.18.66.18.66.43.08,1.7,1.17,1.7,1.17,0,0-.86.85-.27,1.07.58.22,1.49,1.94,1.49,1.94,0,0-.99,0-.72.46.27.46,1.48,4.09,1.48,4.09,3.73-12.62-6.57-15.29-8.97-15.03Z"/>
            <path class="cls-16" d="m112.7,42.69s2.96-8.06,11.26-8.06,11.42,7.36,11.42,7.36c0,0-2.93-5.57-11.34-5.57s-11.34,6.27-11.34,6.27Z"/>
            <path class="cls-5" d="m188.54,106.75h-24.45s-1.72,2.32,0,4.64h24.45v-4.64"/>
            <path class="cls-5" d="m178.64,96.51l-12.45,3.92-4.2,6.74-5.31-6.05c-1.72-2.32,0-4.64,0-4.64l21.95.02"/>
            <polygon class="cls-5" points="186.46 102.55 178.64 96.51 156.69 96.51 162 102.55 186.46 102.55"/>
            <path class="cls-5" d="m186.46,102.55h-24.45s-1.72,2.32,0,4.63h24.45v-4.63"/>
          </g>
        </g>
      </g>
      <polyline class="cls-5" points="210.79 115.43 184.13 98.15 181.06 98.19"/>
      <polygon class="cls-7" points="55.53 116.89 39.86 115.43 52.7 106.65 62.07 106.65 55.53 116.89"/>
      <polyline class="cls-5" points="39.15 115.43 66.24 97.87 74.41 97.87 87.11 97.87"/>
      <path class="cls-12" d="m90.76,100.41c-2.27,0-4.11-1.84-4.11-4.11"/>
      <rect class="cls-5" x="39.15" y="115.43" width="171.63" height="5"/>
    </g>
  </g>
</svg>