<?xml version="1.0" encoding="UTF-8"?>
<svg id="Layer_2" data-name="Layer 2" xmlns="http://www.w3.org/2000/svg" viewBox="0 0 210.15 147.09">
  <defs>
    <style>
      .cls-1, .cls-2 {
        fill: #a59a6e;
      }

      .cls-3 {
        fill: #aa2734;
      }

      .cls-4 {
        fill: #54565a;
      }

      .cls-4, .cls-2, .cls-5, .cls-6 {
        stroke: #000;
        stroke-linecap: round;
        stroke-linejoin: round;
        stroke-width: 1.5px;
      }

      .cls-5 {
        fill: #fff;
      }

      .cls-6 {
        fill: none;
      }
    </style>
  </defs>
  <g id="Content">
    <g>
      <g>
        <path class="cls-3" d="m104.47,1.5c8.46,0,15.35,6.82,15.43,15.29.07,8.14-6.17,14.87-14.16,15.52-.37.03-.75.05-1.13.05-.05,0-.11,0-.16,0-.42,0-.84-.02-1.25-.05-7.87-.64-14.09-7.19-14.16-15.24-.08-8.52,6.77-15.49,15.29-15.57.05,0,.09,0,.14,0m0-1.5h-.16c-9.33.09-16.86,7.75-16.78,17.09.08,8.82,6.76,16.01,15.54,16.72.46.04.92.06,1.37.06h.18c.42,0,.84-.02,1.24-.06,8.78-.71,15.61-8.19,15.53-17.02-.08-9.25-7.68-16.78-16.93-16.78h0Z"/>
        <g>
          <path class="cls-4" d="m113.95,16.42c.01-.47-.26-.88-.67-1.05.38-.23.59-.68.51-1.14v-.05c-.09-.46-.45-.81-.88-.9.32-.3.44-.77.27-1.21l-.03-.07c-.18-.44-.6-.69-1.05-.68.26-.37.28-.88,0-1.28l-.03-.04c-.27-.39-.75-.56-1.19-.45.17-.42.06-.93-.29-1.25,0,0-.02-.02-.02-.02-.35-.32-.85-.37-1.25-.17.06-.44-.16-.9-.58-1.12l-.05-.03c-.42-.23-.93-.15-1.27.15-.06-.45-.39-.84-.85-.95,0,0-.05-.01-.06-.01-.47-.11-.92.11-1.16.5-.16-.42-.57-.73-1.05-.72h-.09c-.48.02-.87.34-1,.78-.27-.36-.75-.54-1.21-.4l-.07.02c-.46.15-.74.56-.76,1.01-.36-.29-.87-.33-1.28-.08l-.04.02c-.41.25-.6.72-.51,1.16-.41-.18-.91-.1-1.24.24l-.04.04c-.33.34-.4.83-.22,1.24-.44-.08-.89.11-1.14.5l-.04.06c-.25.41-.2.89.08,1.24-.44,0-.86.29-1.02.73l-.02.07c-.16.45,0,.92.34,1.2-.43.1-.78.46-.85.92v.07c-.07.47.17.9.56,1.11-.4.19-.67.6-.64,1.07v.07c.04.47.36.84.79.97-.36.26-.54.73-.41,1.18l.02.07c.13.46.53.75.97.79-.3.34-.37.83-.15,1.25l.03.06c.23.42.68.62,1.12.56-.22.4-.18.91.14,1.27l.03.03c.31.36.8.47,1.22.32-.11.43.04.91.43,1.18l.06.04c.39.28.89.25,1.26-.01-.01.46.26.89.71,1.07l.07.03c.45.17.93.02,1.22-.33.11.44.49.79.97.84h.07s.04.01.07.01c.45.01.85-.25,1.03-.65.22.4.68.65,1.16.57,0,0,.06,0,.06,0,.48-.08.81-.46.88-.91.31.33.81.45,1.25.26l.08-.03c.43-.2.67-.64.63-1.09.39.24.9.22,1.27-.08l.05-.04c.38-.3.49-.79.34-1.21.43.15.93.01,1.23-.37l.03-.04c.29-.37.31-.87.08-1.25.44.04.88-.21,1.09-.63l.02-.04c.2-.42.12-.91-.19-1.24.43-.06.81-.38.92-.83l.02-.07c.11-.46-.09-.91-.46-1.16.42-.14.73-.53.75-1v-.1s0-.01,0-.01Z"/>
          <g>
            <g>
              <polyline class="cls-5" points="115.86 27.05 107.54 23.44 107.54 19.81 101.4 19.81 101.4 23.44 93.06 27.1"/>
              <polygon class="cls-5" points="104.47 25.93 107.54 23.44 107.54 19.81 101.4 19.81 101.4 23.44 104.47 25.93"/>
              <polygon class="cls-5" points="104.47 25.93 102.3 27.71 100.29 23.9 101.4 22.93 104.47 25.93"/>
              <polygon class="cls-5" points="104.47 25.93 106.64 27.71 108.65 23.9 107.54 22.93 104.47 25.93"/>
              <polyline class="cls-6" points="105.88 27.09 105.22 28.49 104.47 28.49 103.72 28.49 103.06 27.09"/>
              <line class="cls-6" x1="105.74" y1="32.31" x2="105.22" y2="28.49"/>
              <line class="cls-6" x1="103.72" y1="28.49" x2="103.21" y2="32.31"/>
            </g>
            <path class="cls-5" d="m109.51,13.81c0,3.61,0-1.21,0,2.4-.13,2.89-2.37,5.7-5.02,5.68-2.63-.02-4.82-2.82-4.95-5.68,0-3.61,0,.65,0-2.96"/>
            <path class="cls-5" d="m99.54,13.26s2.18-1.19,2.85-3.24c0,0,2.14,3.49,7.12,3.8"/>
          </g>
        </g>
      </g>
      <g>
        <line class="cls-6" x1="85.21" y1="32.73" x2="62.76" y2="44.5"/>
        <polygon points="64.31 36.76 65.73 37.26 63.27 44.23 70.41 46.18 70.01 47.63 61.32 45.26 64.31 36.76"/>
      </g>
      <g>
        <line class="cls-6" x1="122.9" y1="32.73" x2="145.43" y2="44.5"/>
        <polygon points="138.19 47.64 137.79 46.19 144.92 44.24 142.45 37.27 143.87 36.77 146.87 45.26 138.19 47.64"/>
      </g>
      <g>
        <line class="cls-6" x1="104.53" y1="38.09" x2="104.49" y2="51.31"/>
        <polygon points="98.37 46.33 99.47 45.31 104.49 50.74 109.55 45.33 110.64 46.36 104.49 52.94 98.37 46.33"/>
      </g>
      <g>
        <line class="cls-6" x1="175.97" y1="94.26" x2="167.07" y2="107.95"/>
        <polygon points="164.63 100.44 166.11 100.18 167.38 107.47 174.55 105.67 174.92 107.13 166.18 109.31 164.63 100.44"/>
      </g>
      <g>
        <line class="cls-6" x1="49.26" y1="92.65" x2="53.7" y2="107.75"/>
        <polygon points="46.41 104.71 47.17 103.42 53.53 107.2 56.84 100.58 58.18 101.25 54.15 109.31 46.41 104.71"/>
      </g>
      <g>
        <line class="cls-6" x1="114.1" y1="94.26" x2="108.25" y2="106.44"/>
        <polygon points="104.87 99.3 106.31 98.85 108.49 105.92 115.38 103.22 115.93 104.62 107.54 107.9 104.87 99.3"/>
      </g>
      <g>
        <path class="cls-3" d="m123.88,58.29c8.46,0,15.35,6.82,15.43,15.29.07,8.14-6.17,14.87-14.16,15.52-.37.03-.75.05-1.13.05-.05,0-.11,0-.16,0-.42,0-.83-.02-1.24-.05-7.87-.64-14.09-7.19-14.16-15.24-.08-8.52,6.77-15.49,15.29-15.57.05,0,.09,0,.14,0m0-1.5v1.5-1.5h-.16c-9.33.09-16.86,7.75-16.78,17.09.08,8.82,6.76,16.01,15.54,16.72.46.04.92.06,1.37.06h.18c.42,0,.84-.02,1.24-.06,8.78-.71,15.61-8.19,15.53-17.02-.08-9.25-7.68-16.78-16.93-16.78h0Z"/>
        <g>
          <path class="cls-4" d="m133.36,73.21c.01-.47-.26-.88-.67-1.05.38-.23.59-.68.51-1.14v-.05c-.09-.46-.45-.81-.88-.9.32-.3.44-.77.27-1.21l-.03-.07c-.18-.44-.6-.69-1.05-.68.26-.37.28-.88,0-1.28l-.03-.04c-.27-.39-.75-.56-1.19-.45.17-.42.06-.93-.29-1.25,0,0-.02-.02-.02-.02-.35-.32-.85-.37-1.25-.17.06-.44-.16-.9-.58-1.12l-.05-.03c-.42-.23-.93-.15-1.27.15-.06-.45-.39-.84-.85-.95,0,0-.05-.01-.06-.01-.47-.11-.92.11-1.16.5-.16-.42-.57-.73-1.05-.72h-.09c-.48.02-.87.34-1,.78-.27-.36-.75-.54-1.21-.4l-.07.02c-.46.15-.74.56-.76,1.01-.36-.29-.87-.33-1.28-.08l-.04.02c-.41.25-.6.72-.51,1.16-.41-.18-.91-.1-1.24.24l-.04.04c-.33.34-.4.83-.22,1.24-.44-.08-.89.11-1.14.5l-.04.06c-.25.41-.2.89.08,1.24-.44,0-.86.29-1.02.73l-.02.07c-.16.45,0,.92.34,1.2-.43.1-.78.46-.85.92v.07c-.07.47.17.9.56,1.11-.4.19-.67.6-.64,1.07v.07c.04.47.36.84.79.97-.36.26-.54.73-.41,1.18l.02.07c.13.46.53.75.97.79-.3.34-.37.83-.15,1.25l.03.06c.23.42.68.62,1.12.56-.22.4-.18.91.14,1.27l.03.03c.31.36.8.47,1.22.32-.11.43.04.91.43,1.18l.06.04c.39.28.89.25,1.26-.01-.01.46.26.89.71,1.07l.07.03c.45.17.93.02,1.22-.33.11.44.49.79.97.84h.07s.04.01.07.01c.45.01.85-.25,1.03-.65.22.4.68.65,1.16.57,0,0,.06,0,.06,0,.48-.08.81-.46.88-.91.31.33.81.45,1.25.26l.08-.03c.43-.2.67-.64.63-1.09.39.24.9.22,1.27-.08l.05-.04c.38-.3.49-.79.34-1.21.43.15.93.01,1.23-.37l.03-.04c.29-.37.31-.87.08-1.25.44.04.88-.21,1.09-.63l.02-.04c.2-.42.12-.91-.19-1.24.43-.06.81-.38.92-.83l.02-.07c.11-.46-.09-.91-.46-1.16.42-.14.73-.53.75-1v-.1s0-.01,0-.01Z"/>
          <g>
            <g>
              <polyline class="cls-5" points="135.27 83.84 126.95 80.23 126.95 76.59 120.81 76.59 120.81 80.23 112.46 83.89"/>
              <polygon class="cls-5" points="123.88 82.72 126.95 80.23 126.95 76.59 120.81 76.59 120.81 80.23 123.88 82.72"/>
              <polygon class="cls-5" points="123.88 82.72 121.71 84.5 119.7 80.69 120.81 79.72 123.88 82.72"/>
              <polygon class="cls-5" points="123.88 82.72 126.05 84.5 128.06 80.69 126.95 79.72 123.88 82.72"/>
              <polyline class="cls-6" points="125.29 83.88 124.63 85.28 123.88 85.28 123.13 85.28 122.47 83.88"/>
              <line class="cls-6" x1="125.15" y1="89.1" x2="124.63" y2="85.28"/>
              <line class="cls-6" x1="123.13" y1="85.28" x2="122.61" y2="89.1"/>
            </g>
            <path class="cls-5" d="m128.91,70.6c0,3.61,0-1.21,0,2.4-.13,2.89-2.37,5.7-5.02,5.68-2.63-.02-4.82-2.82-4.95-5.68,0-3.61,0,.65,0-2.96"/>
            <path class="cls-5" d="m118.95,70.05s2.18-1.19,2.85-3.24c0,0,2.14,3.49,7.12,3.8"/>
          </g>
        </g>
      </g>
      <g>
        <path class="cls-3" d="m105.8,114.72c8.46,0,15.35,6.82,15.43,15.29.07,8.14-6.17,14.87-14.16,15.52-.37.03-.75.05-1.13.05-.05,0-.11,0-.16,0-.42,0-.84-.02-1.25-.05-7.87-.64-14.09-7.19-14.16-15.24-.08-8.52,6.77-15.49,15.29-15.57.05,0,.1,0,.14,0m0-1.5v1.5-1.5h-.16c-9.33.09-16.86,7.75-16.78,17.09.08,8.82,6.76,16.01,15.54,16.72.46.04.92.06,1.37.06h.18c.42,0,.84-.02,1.24-.06,8.79-.71,15.61-8.19,15.53-17.03-.08-9.25-7.68-16.78-16.93-16.78h0Z"/>
        <g>
          <path class="cls-4" d="m115.28,129.64c.01-.47-.26-.88-.67-1.05.38-.23.59-.68.51-1.14v-.05c-.09-.46-.45-.81-.88-.9.32-.3.44-.77.27-1.21l-.03-.07c-.18-.44-.6-.69-1.05-.68.26-.37.28-.88,0-1.28l-.03-.04c-.27-.39-.75-.56-1.19-.45.17-.42.06-.93-.29-1.25,0,0-.02-.02-.02-.02-.35-.32-.85-.37-1.25-.17.06-.44-.16-.9-.58-1.12l-.05-.03c-.42-.23-.93-.15-1.27.15-.06-.45-.39-.84-.85-.95,0,0-.05-.01-.06-.01-.47-.11-.92.11-1.16.5-.16-.42-.57-.73-1.05-.72h-.09c-.48.02-.87.34-1,.78-.27-.36-.75-.54-1.21-.4l-.07.02c-.46.15-.74.56-.76,1.01-.36-.29-.87-.33-1.28-.08l-.04.02c-.41.25-.6.72-.51,1.16-.41-.18-.91-.1-1.24.24l-.04.04c-.33.34-.4.83-.22,1.24-.44-.08-.89.11-1.14.5l-.04.06c-.25.41-.2.89.08,1.24-.44,0-.86.29-1.02.73l-.02.07c-.16.45,0,.92.34,1.2-.43.1-.78.46-.85.92v.07c-.07.47.17.9.56,1.11-.4.19-.67.6-.64,1.07v.07c.04.47.36.84.79.97-.36.26-.54.73-.41,1.18l.02.07c.13.46.53.75.97.79-.3.34-.37.83-.15,1.25l.03.06c.23.42.68.62,1.12.56-.22.4-.18.91.14,1.27l.03.03c.31.36.8.47,1.22.32-.11.43.04.91.43,1.18l.06.04c.39.28.89.25,1.26-.01-.01.46.26.89.71,1.07l.07.03c.45.17.93.02,1.22-.33.11.44.49.79.97.84h.07s.04.01.07.01c.45.01.85-.25,1.03-.65.22.4.68.65,1.16.57,0,0,.06,0,.06,0,.48-.08.81-.46.88-.91.31.33.81.45,1.25.26l.08-.03c.43-.2.67-.64.63-1.09.39.24.9.22,1.27-.08l.05-.04c.38-.3.49-.79.34-1.21.43.15.93.01,1.23-.37l.03-.04c.29-.37.31-.87.08-1.25.44.04.88-.21,1.09-.63l.02-.04c.2-.42.12-.91-.19-1.24.43-.06.81-.38.92-.83l.02-.07c.11-.46-.09-.91-.46-1.16.42-.14.73-.53.75-1v-.1s0-.01,0-.01Z"/>
          <g>
            <g>
              <polyline class="cls-5" points="117.19 140.27 108.87 136.67 108.87 133.03 102.73 133.03 102.73 136.67 94.39 140.33"/>
              <polygon class="cls-5" points="105.8 139.15 108.87 136.67 108.87 133.03 102.73 133.03 102.73 136.67 105.8 139.15"/>
              <polygon class="cls-5" points="105.8 139.15 103.63 140.94 101.62 137.13 102.73 136.15 105.8 139.15"/>
              <polygon class="cls-5" points="105.8 139.15 107.97 140.94 109.98 137.13 108.87 136.15 105.8 139.15"/>
              <polyline class="cls-6" points="107.21 140.31 106.55 141.71 105.8 141.71 105.05 141.71 104.39 140.31"/>
              <line class="cls-6" x1="107.07" y1="145.53" x2="106.55" y2="141.71"/>
              <line class="cls-6" x1="105.05" y1="141.71" x2="104.54" y2="145.53"/>
            </g>
            <path class="cls-5" d="m110.84,127.03c0,3.61,0-1.21,0,2.4-.13,2.89-2.37,5.7-5.02,5.68-2.63-.02-4.82-2.82-4.95-5.68,0-3.61,0,.65,0-2.96"/>
            <path class="cls-5" d="m100.87,126.49s2.18-1.19,2.85-3.24c0,0,2.14,3.49,7.12,3.8"/>
          </g>
        </g>
      </g>
      <g>
        <polygon class="cls-1" points="18.58 80.79 12.28 79.7 12.28 74.92 16.16 75.25 17.2 78.76 18.58 80.79"/>
        <path class="cls-2" d="m14.04,74.26c.73-.27,1.73.07,2.44,1.25.53.89.56,2.55.67,2.89.22.68.95,1.45,2.44,1.13,0,0-.12,1.12-.96,1.28"/>
        <path class="cls-2" d="m15.86,68.5c0,2.67-2.16,4.83-4.83,4.83s-4.83-2.16-4.83-4.83,2.16-4.87,4.83-4.87,4.83,2.2,4.83,4.87Z"/>
        <g>
          <path class="cls-5" d="m21.32,82.84c-.13-.69-.63-1.28-1.32-1.56l-6.61-2.22v-3.3h-4.71v3.3l-6.61,2.22c-.69.28-1.19.87-1.32,1.56"/>
          <path class="cls-5" d="m15.61,69.43c0,3.31,0-.61,0,2.7-.12,2.65-2.17,5.23-4.6,5.21-2.41-.02-4.42-2.58-4.54-5.21,0-3.31,0,.67,0-2.64l4.22-.05c1.04-.01,1.95-.7,2.25-1.69l.11-.37.03.14c.24,1.19,1.33,2.01,2.54,1.9h0Z"/>
          <path class="cls-5" d="m5.47,80.25s1.76,2.43,5.56,2.43,5.56-2.43,5.56-2.43"/>
        </g>
      </g>
      <g>
        <polygon class="cls-1" points="166.5 80.79 160.2 79.7 160.2 74.92 164.08 75.25 165.12 78.76 166.5 80.79"/>
        <path class="cls-2" d="m161.96,74.26c.73-.27,1.73.07,2.44,1.25.53.89.56,2.55.67,2.89.22.68.95,1.45,2.44,1.13,0,0-.12,1.12-.96,1.28"/>
        <path class="cls-2" d="m163.78,68.5c0,2.67-2.16,4.83-4.83,4.83s-4.83-2.16-4.83-4.83,2.16-4.87,4.83-4.87,4.83,2.2,4.83,4.87Z"/>
        <g>
          <path class="cls-5" d="m169.24,82.84c-.13-.69-.63-1.28-1.32-1.56l-6.61-2.22v-3.3h-4.71v3.3l-6.61,2.22c-.69.28-1.19.87-1.32,1.56"/>
          <path class="cls-5" d="m163.53,69.43c0,3.31,0-.61,0,2.7-.12,2.65-2.17,5.23-4.6,5.21-2.41-.02-4.42-2.58-4.54-5.21,0-3.31,0,.67,0-2.64l4.22-.05c1.04-.01,1.95-.7,2.25-1.69l.11-.37.03.14c.24,1.19,1.33,2.01,2.54,1.9h0Z"/>
          <path class="cls-5" d="m153.39,80.25s1.76,2.43,5.56,2.43,5.56-2.43,5.56-2.43"/>
        </g>
      </g>
      <g>
        <g>
          <polygon class="cls-1" points="200.76 82.73 194.46 81.64 194.46 76.86 198.35 77.19 199.39 80.69 200.76 82.73"/>
          <path class="cls-2" d="m196.22,76.2c.73-.27,1.73.07,2.44,1.25.53.89.56,2.55.67,2.89.22.68.95,1.45,2.44,1.13,0,0-.12,1.12-.96,1.28"/>
          <path class="cls-2" d="m198.05,70.44c0,2.67-2.16,4.83-4.83,4.83s-4.83-2.16-4.83-4.83,2.16-4.87,4.83-4.87,4.83,2.2,4.83,4.87Z"/>
          <g>
            <path class="cls-5" d="m203.5,84.77c-.13-.69-.63-1.28-1.32-1.56l-6.61-2.22v-3.3h-4.71v3.3l-6.61,2.22c-.69.28-1.19.87-1.32,1.56"/>
            <path class="cls-5" d="m197.79,71.37c0,3.31,0-.61,0,2.7-.12,2.65-2.17,5.23-4.6,5.21-2.41-.02-4.42-2.58-4.54-5.21,0-3.31,0,.67,0-2.64l4.22-.05c1.04-.01,1.95-.7,2.25-1.69l.11-.37.03.14c.24,1.19,1.33,2.01,2.54,1.9h0Z"/>
            <path class="cls-5" d="m187.65,82.19s1.76,2.43,5.56,2.43,5.56-2.43,5.56-2.43"/>
          </g>
        </g>
        <path class="cls-3" d="m193.22,57.77c8.46,0,15.35,6.82,15.43,15.29.07,8.14-6.17,14.87-14.16,15.52-.37.03-.75.05-1.13.05-.05,0-.11,0-.16,0-.42,0-.84-.02-1.25-.05-7.87-.64-14.09-7.19-14.16-15.24-.08-8.52,6.77-15.49,15.29-15.57.05,0,.1,0,.14,0m0-1.5v1.5-1.5h-.16c-9.33.09-16.86,7.75-16.78,17.09.08,8.82,6.76,16.01,15.54,16.72.46.04.92.06,1.37.06h.18c.42,0,.84-.02,1.24-.06,8.78-.71,15.61-8.19,15.53-17.02-.08-9.25-7.68-16.78-16.93-16.78h0Z"/>
      </g>
      <g>
        <g>
          <polygon class="cls-1" points="56.67 82.73 50.37 81.64 50.37 76.86 54.26 77.19 55.3 80.69 56.67 82.73"/>
          <path class="cls-2" d="m52.13,76.2c.73-.27,1.73.07,2.44,1.25.53.89.56,2.55.67,2.89.22.68.95,1.45,2.44,1.13,0,0-.12,1.12-.96,1.28"/>
          <path class="cls-2" d="m53.96,70.44c0,2.67-2.16,4.83-4.83,4.83s-4.83-2.16-4.83-4.83,2.16-4.87,4.83-4.87,4.83,2.2,4.83,4.87Z"/>
          <g>
            <path class="cls-5" d="m59.41,84.77c-.13-.69-.63-1.28-1.32-1.56l-6.61-2.22v-3.3h-4.71v3.3l-6.61,2.22c-.69.28-1.19.87-1.32,1.56"/>
            <path class="cls-5" d="m53.7,71.37c0,3.31,0-.61,0,2.7-.12,2.65-2.17,5.23-4.6,5.21-2.41-.02-4.42-2.58-4.54-5.21,0-3.31,0,.67,0-2.64l4.22-.05c1.04-.01,1.95-.7,2.25-1.69l.11-.37.03.14c.24,1.19,1.33,2.01,2.54,1.9h0Z"/>
            <path class="cls-5" d="m43.57,82.19s1.76,2.43,5.56,2.43,5.56-2.43,5.56-2.43"/>
          </g>
        </g>
        <path class="cls-3" d="m49.13,57.77c8.46,0,15.35,6.82,15.43,15.29.07,8.14-6.17,14.87-14.16,15.52-.37.03-.75.05-1.13.05-.05,0-.11,0-.16,0-.42,0-.84-.02-1.25-.05-7.87-.64-14.09-7.19-14.16-15.24-.08-8.52,6.77-15.49,15.29-15.57.05,0,.1,0,.14,0m0-1.5v1.5-1.5h-.16c-9.33.09-16.86,7.75-16.78,17.09.08,8.82,6.76,16.01,15.54,16.72.46.04.92.06,1.37.06h.18c.42,0,.84-.02,1.24-.06,8.78-.71,15.61-8.19,15.53-17.02-.08-9.25-7.68-16.78-16.93-16.78h0Z"/>
      </g>
      <g>
        <g>
          <polygon class="cls-1" points="62.57 139 56.28 137.91 56.28 133.13 60.16 133.46 61.2 136.97 62.57 139"/>
          <path class="cls-2" d="m58.03,132.47c.73-.27,1.73.07,2.44,1.25.53.89.56,2.55.67,2.89.22.68.95,1.45,2.44,1.13,0,0-.12,1.12-.96,1.28"/>
          <path class="cls-2" d="m59.86,126.71c0,2.67-2.16,4.83-4.83,4.83s-4.83-2.16-4.83-4.83,2.16-4.87,4.83-4.87,4.83,2.2,4.83,4.87Z"/>
          <g>
            <path class="cls-5" d="m65.32,141.05c-.13-.69-.63-1.28-1.32-1.56l-6.61-2.22v-3.3h-4.71v3.3l-6.61,2.22c-.69.28-1.19.87-1.32,1.56"/>
            <path class="cls-5" d="m59.61,127.64c0,3.31,0-.61,0,2.7-.12,2.65-2.17,5.23-4.6,5.21-2.41-.02-4.42-2.58-4.54-5.21,0-3.31,0,.67,0-2.64l4.22-.05c1.04-.01,1.95-.7,2.25-1.69l.11-.37.03.14c.24,1.19,1.33,2.01,2.54,1.9h0Z"/>
            <path class="cls-5" d="m49.47,138.46s1.76,2.43,5.56,2.43,5.56-2.43,5.56-2.43"/>
          </g>
        </g>
        <path class="cls-3" d="m55.03,114.05c8.46,0,15.35,6.82,15.43,15.29.07,8.14-6.17,14.87-14.16,15.52-.37.03-.75.05-1.13.05-.05,0-.11,0-.16,0-.42,0-.84-.02-1.25-.05-7.87-.64-14.09-7.19-14.16-15.24-.08-8.52,6.77-15.49,15.29-15.57.05,0,.1,0,.14,0m0-1.5v1.5-1.5h-.16c-9.33.09-16.86,7.75-16.78,17.09.08,8.82,6.76,16.01,15.54,16.72.46.04.92.06,1.37.06h.18c.42,0,.84-.02,1.24-.06,8.78-.71,15.61-8.19,15.53-17.02-.08-9.25-7.68-16.78-16.93-16.78h0Z"/>
      </g>
      <g>
        <g>
          <polygon class="cls-1" points="161.32 139 155.02 137.91 155.02 133.13 158.91 133.46 159.95 136.97 161.32 139"/>
          <path class="cls-2" d="m156.78,132.47c.73-.27,1.73.07,2.44,1.25.53.89.56,2.55.67,2.89.22.68.95,1.45,2.44,1.13,0,0-.12,1.12-.96,1.28"/>
          <path class="cls-2" d="m158.61,126.71c0,2.67-2.16,4.83-4.83,4.83s-4.83-2.16-4.83-4.83,2.16-4.87,4.83-4.87,4.83,2.2,4.83,4.87Z"/>
          <g>
            <path class="cls-5" d="m164.06,141.05c-.13-.69-.63-1.28-1.32-1.56l-6.61-2.22v-3.3h-4.71v3.3l-6.61,2.22c-.69.28-1.19.87-1.32,1.56"/>
            <path class="cls-5" d="m158.35,127.64c0,3.31,0-.61,0,2.7-.12,2.65-2.17,5.23-4.6,5.21-2.41-.02-4.42-2.58-4.54-5.21,0-3.31,0,.67,0-2.64l4.22-.05c1.04-.01,1.95-.7,2.25-1.69l.11-.37.03.14c.24,1.19,1.33,2.01,2.54,1.9h0Z"/>
            <path class="cls-5" d="m148.21,138.46s1.76,2.43,5.56,2.43,5.56-2.43,5.56-2.43"/>
          </g>
        </g>
        <path class="cls-3" d="m153.78,114.05c8.46,0,15.35,6.82,15.43,15.29.07,8.14-6.17,14.87-14.16,15.52-.37.03-.75.05-1.13.05-.05,0-.11,0-.16,0-.42,0-.84-.02-1.25-.05-7.87-.64-14.09-7.19-14.16-15.24-.08-8.52,6.77-15.49,15.29-15.57.05,0,.1,0,.14,0m0-1.5v1.5-1.5h-.16c-9.33.09-16.86,7.75-16.78,17.09.08,8.82,6.76,16.01,15.54,16.72.46.04.92.06,1.37.06h.18c.42,0,.84-.02,1.24-.06,8.79-.71,15.61-8.19,15.53-17.03-.08-9.25-7.68-16.78-16.93-16.78h0Z"/>
      </g>
      <g>
        <path class="cls-4" d="m96.67,71.6c.01-.47-.26-.88-.67-1.05.38-.23.59-.68.51-1.14v-.05c-.09-.46-.45-.81-.88-.9.32-.3.44-.77.27-1.21l-.03-.07c-.18-.44-.6-.69-1.05-.68.26-.37.28-.88,0-1.28l-.03-.04c-.27-.39-.75-.56-1.19-.45.17-.42.06-.93-.29-1.25,0,0-.02-.02-.02-.02-.35-.32-.85-.37-1.25-.17.06-.44-.16-.9-.58-1.12l-.05-.03c-.42-.23-.93-.15-1.27.15-.06-.45-.39-.84-.85-.95,0,0-.05-.01-.06-.01-.47-.11-.92.11-1.16.5-.16-.42-.57-.73-1.05-.72h-.09c-.48.02-.87.34-1,.78-.27-.36-.75-.54-1.21-.4l-.07.02c-.46.15-.74.56-.76,1.01-.36-.29-.87-.33-1.28-.08l-.04.02c-.41.25-.6.72-.51,1.16-.41-.18-.91-.1-1.24.24l-.04.04c-.33.34-.4.83-.22,1.24-.44-.08-.89.11-1.14.5l-.04.06c-.25.41-.2.89.08,1.24-.44,0-.86.29-1.02.73l-.02.07c-.16.45,0,.92.34,1.2-.43.1-.78.46-.85.92v.07c-.07.47.17.9.56,1.11-.4.19-.67.6-.64,1.07v.07c.04.47.36.84.79.97-.36.26-.54.73-.41,1.18l.02.07c.13.46.53.75.97.79-.3.34-.37.83-.15,1.25l.03.06c.23.42.68.62,1.12.56-.22.4-.18.91.14,1.27l.03.03c.31.36.8.47,1.22.32-.11.43.04.91.43,1.18l.06.04c.39.28.89.25,1.26-.01-.01.46.26.89.71,1.07l.07.03c.45.17.93.02,1.22-.33.11.44.49.79.97.84h.07s.04.01.07.01c.45.01.85-.25,1.03-.65.22.4.68.65,1.16.57,0,0,.06,0,.06,0,.48-.08.81-.46.88-.91.31.33.81.45,1.25.26l.08-.03c.43-.2.67-.64.63-1.09.39.24.9.22,1.27-.08l.05-.04c.38-.3.49-.79.34-1.21.43.15.93.01,1.23-.37l.03-.04c.29-.37.31-.87.08-1.25.44.04.88-.21,1.09-.63l.02-.04c.2-.42.12-.91-.19-1.24.43-.06.81-.38.92-.83l.02-.07c.11-.46-.09-.91-.46-1.16.42-.14.73-.53.75-1v-.1s0-.01,0-.01Z"/>
        <g>
          <g>
            <polyline class="cls-5" points="98.58 82.23 90.26 78.63 90.26 74.99 84.12 74.99 84.12 78.63 75.77 82.28"/>
            <polygon class="cls-5" points="87.19 81.11 90.26 78.63 90.26 74.99 84.12 74.99 84.12 78.63 87.19 81.11"/>
            <polygon class="cls-5" points="87.19 81.11 85.02 82.89 83.01 79.08 84.12 78.11 87.19 81.11"/>
            <polygon class="cls-5" points="87.19 81.11 89.36 82.89 91.37 79.08 90.26 78.11 87.19 81.11"/>
            <polyline class="cls-6" points="88.6 82.27 87.94 83.67 87.19 83.67 86.44 83.67 85.78 82.27"/>
            <line class="cls-6" x1="88.45" y1="87.49" x2="87.94" y2="83.67"/>
            <line class="cls-6" x1="86.44" y1="83.67" x2="85.92" y2="87.49"/>
          </g>
          <path class="cls-5" d="m92.22,68.99c0,3.61,0-1.21,0,2.4-.13,2.89-2.37,5.7-5.02,5.68-2.63-.02-4.82-2.82-4.95-5.68,0-3.61,0,.65,0-2.96"/>
          <path class="cls-5" d="m82.26,68.44s2.18-1.19,2.85-3.24c0,0,2.14,3.49,7.12,3.8"/>
        </g>
      </g>
    </g>
  </g>
</svg>