<?xml version="1.0" encoding="UTF-8"?>
<svg id="Layer_2" data-name="Layer 2" xmlns="http://www.w3.org/2000/svg" viewBox="0 0 238.23 327.19">
  <defs>
    <style>
      .cls-1, .cls-2 {
        fill: #a59a6e;
      }

      .cls-3 {
        fill: #aa2734;
      }

      .cls-4 {
        fill: #54565a;
      }

      .cls-4, .cls-2, .cls-5, .cls-6 {
        stroke: #000;
        stroke-linecap: round;
        stroke-linejoin: round;
        stroke-width: 1.5px;
      }

      .cls-5 {
        fill: #fff;
      }

      .cls-6 {
        fill: none;
      }
    </style>
  </defs>
  <g id="Content">
    <g>
      <g>
        <path class="cls-3" d="m116.35,1.5c10.64,0,19.3,8.57,19.4,19.23.09,10.24-7.76,18.7-17.81,19.51-.47.04-.94.06-1.42.07-.07,0-.13,0-.2,0-.53,0-1.05-.02-1.57-.07-9.9-.8-17.72-9.04-17.81-19.16-.1-10.72,8.51-19.48,19.23-19.58.06,0,.12,0,.18,0m0-1.5h-.19c-11.53.11-20.82,9.57-20.71,21.1.1,10.89,8.35,19.76,19.19,20.64.57.05,1.14.07,1.69.07h.22c.52,0,1.04-.03,1.53-.07,10.85-.88,19.28-10.11,19.18-21.02-.1-11.42-9.48-20.72-20.9-20.72h0Z"/>
        <g>
          <path class="cls-4" d="m128.27,20.26c.02-.59-.33-1.1-.84-1.32.47-.29.74-.85.64-1.43v-.07c-.11-.58-.56-1.02-1.1-1.13.4-.38.55-.97.34-1.52l-.04-.09c-.23-.55-.76-.87-1.32-.85.33-.47.35-1.11,0-1.6l-.03-.05c-.34-.5-.95-.7-1.5-.56.21-.53.08-1.16-.37-1.57,0,0-.03-.03-.03-.03-.44-.4-1.07-.46-1.57-.21.07-.56-.2-1.13-.72-1.41l-.06-.03c-.53-.29-1.17-.19-1.6.19-.07-.57-.49-1.06-1.07-1.19,0,0-.07-.02-.07-.02-.59-.13-1.16.14-1.46.63-.2-.53-.72-.92-1.33-.9h-.11c-.6.03-1.09.43-1.26.97-.34-.46-.95-.67-1.53-.5l-.09.03c-.57.18-.93.7-.95,1.27-.45-.36-1.1-.42-1.61-.09l-.05.03c-.51.31-.75.9-.64,1.46-.52-.23-1.14-.12-1.56.3l-.05.05c-.41.42-.51,1.04-.28,1.55-.55-.1-1.13.13-1.44.64l-.05.08c-.31.51-.25,1.12.1,1.56-.56.01-1.08.36-1.29.92l-.03.08c-.2.56,0,1.15.42,1.51-.54.13-.98.57-1.06,1.16v.09c-.09.59.21,1.13.71,1.39-.51.23-.84.76-.81,1.35v.09c.05.59.46,1.06.99,1.22-.45.33-.67.92-.52,1.49l.02.09c.16.58.66.95,1.22.99-.37.42-.47,1.05-.19,1.58l.04.08c.29.53.85.78,1.4.7-.28.5-.23,1.15.18,1.6l.04.04c.39.45,1,.59,1.53.4-.14.54.06,1.14.54,1.49l.07.05c.5.35,1.12.32,1.58-.01-.02.57.33,1.12.89,1.34l.09.03c.57.21,1.17.02,1.53-.42.14.56.61,1,1.22,1.06h.09s.05.01.08.01c.57.02,1.07-.32,1.29-.82.28.51.86.81,1.46.71,0,0,.07-.01.07-.01.6-.1,1.02-.57,1.11-1.14.39.41,1.02.56,1.57.32l.1-.04c.55-.25.84-.81.79-1.37.49.3,1.13.27,1.6-.1l.06-.05c.47-.38.62-.99.43-1.53.55.18,1.17.01,1.55-.47l.04-.06c.36-.47.38-1.09.1-1.57.56.05,1.11-.26,1.37-.8l.03-.06c.26-.53.15-1.15-.23-1.56.54-.08,1.01-.48,1.16-1.04l.02-.09c.14-.58-.11-1.14-.58-1.46.53-.18.92-.67.94-1.26v-.12s0-.02,0-.02Z"/>
          <g>
            <g>
              <polyline class="cls-5" points="130.67 33.63 120.2 29.1 120.2 24.52 112.48 24.52 112.48 29.1 101.99 33.7"/>
              <polygon class="cls-5" points="116.34 32.22 120.2 29.1 120.2 24.52 112.48 24.52 112.48 29.1 116.34 32.22"/>
              <polygon class="cls-5" points="116.34 32.22 113.62 34.46 111.09 29.67 112.48 28.45 116.34 32.22"/>
              <polygon class="cls-5" points="116.34 32.22 119.07 34.46 121.6 29.67 120.2 28.45 116.34 32.22"/>
              <polyline class="cls-6" points="118.12 33.68 117.29 35.44 116.34 35.44 115.4 35.44 114.57 33.68"/>
              <line class="cls-6" x1="117.94" y1="40.25" x2="117.29" y2="35.44"/>
              <line class="cls-6" x1="115.4" y1="35.44" x2="114.75" y2="40.25"/>
            </g>
            <path class="cls-5" d="m122.67,16.98c0,4.54,0-1.52,0,3.02-.17,3.64-2.98,7.17-6.31,7.14-3.3-.02-6.06-3.54-6.23-7.14,0-4.54,0,.82,0-3.72"/>
            <path class="cls-5" d="m110.14,16.29s2.75-1.5,3.58-4.07c0,0,2.69,4.38,8.95,4.78"/>
          </g>
        </g>
      </g>
      <g>
        <line class="cls-6" x1="92.93" y1="39.82" x2="58.45" y2="141.71"/>
        <polygon points="54.23 135.04 55.6 134.42 58.63 141.16 65.14 137.65 65.85 138.97 57.92 143.25 54.23 135.04"/>
      </g>
      <g>
        <line class="cls-6" x1="138.52" y1="39.82" x2="204.74" y2="141.89"/>
        <polygon points="196.88 141.06 197.25 139.6 204.42 141.4 205.7 134.12 207.18 134.38 205.62 143.25 196.88 141.06"/>
      </g>
      <g>
        <line class="cls-6" x1="116.3" y1="46.3" x2="131.37" y2="141.64"/>
        <polygon points="124.53 137.69 125.46 136.51 131.27 141.08 135.4 134.94 136.65 135.78 131.62 143.25 124.53 137.69"/>
      </g>
      <g>
        <line class="cls-6" x1="212.57" y1="204.58" x2="186.82" y2="270.69"/>
        <polygon points="182.91 263.83 184.3 263.28 187.03 270.15 193.69 266.93 194.34 268.28 186.23 272.2 182.91 263.83"/>
      </g>
      <g>
        <line class="cls-6" x1="55.05" y1="204.58" x2="56.94" y2="270.58"/>
        <polygon points="50.67 265.79 51.73 264.73 56.92 270 61.8 264.44 62.93 265.43 56.99 272.2 50.67 265.79"/>
      </g>
      <g>
        <line class="cls-6" x1="133.74" y1="204.58" x2="120.68" y2="270.61"/>
        <polygon points="115.63 264.54 116.91 263.75 120.79 270.04 126.79 265.71 127.66 266.92 120.37 272.2 115.63 264.54"/>
      </g>
      <g>
        <path class="cls-3" d="m139.71,154.76c10.23,0,18.57,8.25,18.66,18.5.09,9.85-7.47,17.99-17.13,18.77-.45.04-.91.06-1.36.06-.06,0-.13,0-.19,0-.51,0-1.01-.02-1.51-.06-9.52-.77-17.04-8.7-17.13-18.43-.09-10.31,8.19-18.74,18.5-18.84.06,0,.11,0,.17,0m0-1.5h-.19c-11.12.1-20.08,9.23-19.98,20.35.1,10.51,8.06,19.07,18.51,19.92.55.05,1.1.07,1.63.07h.21c.5,0,1-.03,1.48-.07,10.47-.85,18.6-9.76,18.5-20.28-.1-11.02-9.14-19.99-20.16-19.99h0Z"/>
        <g>
          <path class="cls-4" d="m151.18,172.81c.02-.57-.32-1.06-.81-1.27.45-.28.72-.82.62-1.38v-.06c-.11-.56-.54-.98-1.06-1.09.38-.36.53-.94.33-1.46l-.03-.09c-.22-.53-.73-.83-1.27-.82.31-.45.33-1.07,0-1.54l-.03-.05c-.33-.48-.91-.68-1.44-.54.2-.51.08-1.12-.35-1.51,0,0-.03-.03-.03-.03-.43-.38-1.03-.45-1.51-.2.07-.54-.19-1.09-.7-1.36l-.06-.03c-.51-.28-1.12-.19-1.54.18-.07-.54-.47-1.02-1.03-1.15,0,0-.07-.02-.07-.02-.57-.13-1.12.13-1.4.61-.2-.51-.69-.89-1.28-.87h-.11c-.58.03-1.05.42-1.21.94-.33-.44-.91-.65-1.47-.48l-.08.03c-.55.18-.9.67-.91,1.22-.43-.35-1.06-.4-1.55-.09l-.05.03c-.49.3-.72.87-.62,1.4-.5-.22-1.1-.12-1.5.29l-.05.05c-.4.41-.49,1-.27,1.49-.53-.09-1.08.13-1.38.61l-.04.07c-.3.49-.24,1.08.1,1.5-.54.01-1.04.35-1.24.88l-.03.08c-.19.54,0,1.11.41,1.45-.52.12-.94.55-1.02,1.11v.09c-.09.57.21,1.09.68,1.34-.49.23-.81.73-.78,1.3v.09c.05.57.44,1.02.96,1.17-.43.32-.65.88-.5,1.43l.02.08c.16.55.64.91,1.17.95-.36.41-.45,1.01-.18,1.52l.04.08c.27.51.82.75,1.35.67-.27.48-.22,1.1.17,1.54l.04.04c.37.43.97.57,1.47.38-.14.52.05,1.1.52,1.43l.07.05c.48.33,1.08.31,1.52-.01-.01.55.31,1.08.86,1.29l.09.03c.54.2,1.12.02,1.47-.4.13.54.59.96,1.17,1.02h.09s.05.01.08.01c.55.02,1.03-.3,1.24-.78.27.49.82.78,1.4.69,0,0,.07-.01.07-.01.58-.1.98-.55,1.07-1.1.38.4.98.54,1.51.31l.09-.04c.52-.24.81-.78.76-1.32.47.28,1.08.26,1.54-.1l.05-.04c.46-.36.6-.95.41-1.47.52.18,1.13.01,1.49-.45l.04-.05c.35-.45.37-1.05.1-1.51.54.05,1.07-.25,1.31-.77l.03-.05c.25-.51.14-1.1-.22-1.5.52-.08.97-.46,1.11-1l.02-.08c.13-.56-.11-1.1-.55-1.4.51-.17.88-.64.91-1.21v-.12s0-.01,0-.01Z"/>
          <g>
            <g>
              <polyline class="cls-5" points="153.49 185.67 143.42 181.31 143.42 176.91 136 176.91 136 181.31 125.9 185.74"/>
              <polygon class="cls-5" points="139.71 184.32 143.42 181.31 143.42 176.91 136 176.91 136 181.31 139.71 184.32"/>
              <polygon class="cls-5" points="139.71 184.32 137.09 186.47 134.65 181.86 136 180.68 139.71 184.32"/>
              <polygon class="cls-5" points="139.71 184.32 142.33 186.47 144.77 181.86 143.42 180.68 139.71 184.32"/>
              <polyline class="cls-6" points="141.42 185.72 140.62 187.41 139.71 187.41 138.8 187.41 138 185.72"/>
              <line class="cls-6" x1="141.24" y1="192.03" x2="140.62" y2="187.41"/>
              <line class="cls-6" x1="138.8" y1="187.41" x2="138.18" y2="192.03"/>
            </g>
            <path class="cls-5" d="m145.8,169.65c0,4.36,0-1.46,0,2.9-.16,3.5-2.86,6.89-6.07,6.87-3.18-.02-5.83-3.41-5.99-6.87,0-4.36,0,.79,0-3.58"/>
            <path class="cls-5" d="m133.74,168.99s2.64-1.44,3.44-3.91c0,0,2.58,4.22,8.61,4.6"/>
          </g>
        </g>
      </g>
      <g>
        <path class="cls-3" d="m117.84,288.35c10.23,0,18.57,8.25,18.66,18.5.09,9.85-7.47,17.99-17.13,18.77-.45.04-.91.06-1.36.06-.06,0-.13,0-.19,0-.51,0-1.01-.02-1.51-.06-9.52-.77-17.04-8.7-17.13-18.43-.09-10.31,8.19-18.74,18.5-18.84.06,0,.11,0,.17,0m0-1.5h-.19c-11.12.1-20.08,9.23-19.98,20.35.1,10.51,8.06,19.07,18.51,19.92.55.05,1.1.07,1.63.07h.21c.5,0,1-.03,1.48-.07,10.47-.85,18.6-9.76,18.5-20.28-.1-11.02-9.14-19.99-20.16-19.99h0Z"/>
        <g>
          <path class="cls-4" d="m129.31,306.4c.02-.57-.32-1.06-.81-1.27.45-.28.72-.82.62-1.38v-.06c-.11-.56-.54-.98-1.06-1.09.38-.36.53-.94.33-1.46l-.03-.09c-.22-.53-.73-.83-1.27-.82.31-.45.33-1.07,0-1.54l-.03-.05c-.33-.48-.91-.68-1.44-.54.2-.51.08-1.12-.35-1.51,0,0-.03-.03-.03-.03-.43-.38-1.03-.45-1.51-.2.07-.54-.19-1.09-.7-1.36l-.06-.03c-.51-.28-1.12-.19-1.54.18-.07-.54-.47-1.02-1.03-1.15,0,0-.07-.02-.07-.02-.57-.13-1.12.13-1.4.61-.2-.51-.69-.89-1.28-.87h-.11c-.58.03-1.05.42-1.21.94-.33-.44-.91-.65-1.47-.48l-.08.03c-.55.18-.9.67-.91,1.22-.43-.35-1.06-.4-1.55-.09l-.05.03c-.49.3-.72.87-.62,1.4-.5-.22-1.1-.12-1.5.29l-.05.05c-.4.41-.49,1-.27,1.49-.53-.09-1.08.13-1.38.61l-.04.07c-.3.49-.24,1.08.1,1.5-.54.01-1.04.35-1.24.88l-.03.08c-.19.54,0,1.11.41,1.45-.52.12-.94.55-1.02,1.11v.09c-.09.57.21,1.09.68,1.34-.49.23-.81.73-.78,1.3v.09c.05.57.44,1.02.96,1.17-.43.32-.65.88-.5,1.43l.02.08c.16.55.64.91,1.17.95-.36.41-.45,1.01-.18,1.52l.04.08c.27.51.82.75,1.35.67-.27.48-.22,1.1.17,1.54l.04.04c.37.43.97.57,1.47.38-.14.52.05,1.1.52,1.43l.07.05c.48.33,1.08.31,1.52-.01-.01.55.31,1.08.86,1.29l.09.03c.54.2,1.12.02,1.47-.4.13.54.59.96,1.17,1.02h.09s.05.01.08.01c.55.02,1.03-.3,1.24-.78.27.49.82.78,1.4.69,0,0,.07-.01.07-.01.58-.1.98-.55,1.07-1.1.38.4.98.54,1.51.31l.09-.04c.52-.24.81-.78.76-1.32.47.28,1.08.26,1.54-.1l.05-.04c.46-.36.6-.95.41-1.47.52.18,1.13.01,1.49-.45l.04-.05c.35-.45.37-1.05.1-1.51.54.05,1.07-.25,1.31-.77l.03-.05c.25-.51.14-1.1-.22-1.5.52-.08.97-.46,1.11-1l.02-.08c.13-.56-.11-1.1-.55-1.4.51-.17.88-.64.91-1.21v-.12s0-.01,0-.01Z"/>
          <g>
            <g>
              <polyline class="cls-5" points="131.62 319.27 121.55 314.9 121.55 310.5 114.13 310.5 114.13 314.9 104.03 319.33"/>
              <polygon class="cls-5" points="117.84 317.91 121.55 314.9 121.55 310.5 114.13 310.5 114.13 314.9 117.84 317.91"/>
              <polygon class="cls-5" points="117.84 317.91 115.22 320.07 112.78 315.46 114.13 314.28 117.84 317.91"/>
              <polygon class="cls-5" points="117.84 317.91 120.46 320.07 122.9 315.46 121.55 314.28 117.84 317.91"/>
              <polyline class="cls-6" points="119.55 319.31 118.75 321 117.84 321 116.93 321 116.13 319.31"/>
              <line class="cls-6" x1="119.37" y1="325.63" x2="118.75" y2="321"/>
              <line class="cls-6" x1="116.93" y1="321" x2="116.31" y2="325.63"/>
            </g>
            <path class="cls-5" d="m123.93,303.25c0,4.36,0-1.46,0,2.9-.16,3.5-2.86,6.89-6.07,6.87-3.18-.02-5.83-3.41-5.99-6.87,0-4.36,0,.79,0-3.58"/>
            <path class="cls-5" d="m111.87,302.58s2.64-1.44,3.44-3.91c0,0,2.58,4.22,8.61,4.6"/>
          </g>
        </g>
      </g>
      <g>
        <polygon class="cls-1" points="22.31 181.98 14.7 180.67 14.7 174.88 19.39 175.28 20.65 179.52 22.31 181.98"/>
        <path class="cls-2" d="m16.82,174.08c.89-.33,2.1.08,2.95,1.51.64,1.07.67,3.09.81,3.5.26.82,1.15,1.75,2.95,1.37,0,0-.14,1.35-1.17,1.55"/>
        <path class="cls-2" d="m19.04,167.12c0,3.23-2.62,5.85-5.85,5.85s-5.85-2.62-5.85-5.85,2.62-5.89,5.85-5.89,5.85,2.67,5.85,5.89Z"/>
        <g>
          <path class="cls-5" d="m25.63,184.46c-.16-.84-.76-1.55-1.59-1.89l-7.99-2.68v-3.99h-5.7v3.99l-7.99,2.68c-.84.34-1.43,1.05-1.59,1.89"/>
          <path class="cls-5" d="m18.72,168.24c0,4,0-.73,0,3.27-.15,3.21-2.63,6.33-5.57,6.31-2.91-.02-5.35-3.13-5.5-6.31,0-4,0,.81,0-3.19l5.1-.06c1.26-.01,2.36-.84,2.72-2.05l.13-.45.03.17c.29,1.44,1.61,2.44,3.08,2.3h0Z"/>
          <path class="cls-5" d="m6.46,181.33s2.13,2.94,6.73,2.94,6.73-2.94,6.73-2.94"/>
        </g>
      </g>
      <g>
        <polygon class="cls-1" points="188.72 181.95 181.1 180.63 181.1 174.85 185.8 175.25 187.06 179.49 188.72 181.95"/>
        <path class="cls-2" d="m183.23,174.05c.89-.33,2.1.08,2.95,1.51.64,1.07.67,3.09.81,3.5.26.82,1.15,1.75,2.95,1.37,0,0-.14,1.35-1.17,1.55"/>
        <path class="cls-2" d="m185.44,167.08c0,3.23-2.62,5.85-5.85,5.85s-5.85-2.62-5.85-5.85,2.62-5.89,5.85-5.89,5.85,2.67,5.85,5.89Z"/>
        <g>
          <path class="cls-5" d="m192.04,184.42c-.16-.84-.76-1.55-1.59-1.89l-7.99-2.68v-3.99h-5.7v3.99l-7.99,2.68c-.84.34-1.43,1.05-1.59,1.89"/>
          <path class="cls-5" d="m185.13,168.21c0,4,0-.73,0,3.27-.15,3.21-2.63,6.33-5.57,6.31-2.92-.02-5.35-3.13-5.5-6.31,0-4,0,.81,0-3.19l5.1-.06c1.26-.01,2.36-.84,2.72-2.05l.13-.45.03.17c.29,1.44,1.61,2.44,3.08,2.3h0Z"/>
          <path class="cls-5" d="m172.86,181.3s2.13,2.94,6.73,2.94,6.73-2.94,6.73-2.94"/>
        </g>
      </g>
      <g>
        <g>
          <polygon class="cls-1" points="227.19 184.33 219.57 183.01 219.57 177.22 224.26 177.62 225.53 181.86 227.19 184.33"/>
          <path class="cls-2" d="m221.69,176.42c.89-.33,2.1.08,2.95,1.51.64,1.07.67,3.09.81,3.5.26.82,1.15,1.75,2.95,1.37,0,0-.14,1.35-1.17,1.55"/>
          <path class="cls-2" d="m223.91,169.46c0,3.23-2.62,5.85-5.85,5.85s-5.85-2.62-5.85-5.85,2.62-5.89,5.85-5.89,5.85,2.67,5.85,5.89Z"/>
          <g>
            <path class="cls-5" d="m230.5,186.8c-.16-.84-.76-1.55-1.59-1.89l-7.99-2.68v-3.99h-5.7v3.99l-7.99,2.68c-.84.34-1.43,1.05-1.59,1.89"/>
            <path class="cls-5" d="m223.6,170.58c0,4,0-.73,0,3.27-.15,3.21-2.63,6.33-5.57,6.31-2.92-.02-5.35-3.13-5.5-6.31,0-4,0,.81,0-3.19l5.1-.06c1.26-.01,2.36-.84,2.72-2.05l.13-.45.03.17c.29,1.44,1.61,2.44,3.08,2.3h0Z"/>
            <path class="cls-5" d="m211.33,183.67s2.13,2.94,6.73,2.94,6.73-2.94,6.73-2.94"/>
          </g>
        </g>
        <path class="cls-3" d="m218.06,154.14c10.23,0,18.57,8.25,18.66,18.5.09,9.85-7.47,17.99-17.13,18.77-.45.04-.91.06-1.36.06-.06,0-.13,0-.19,0-.51,0-1.01-.02-1.51-.06-9.52-.77-17.04-8.7-17.13-18.43-.09-10.31,8.19-18.74,18.5-18.84.06,0,.11,0,.17,0m0-1.5h-.19c-11.12.1-20.08,9.23-19.98,20.35.1,10.51,8.06,19.07,18.51,19.92.55.05,1.1.07,1.63.07h.21c.5,0,1-.03,1.48-.07,10.47-.85,18.6-9.76,18.5-20.28-.1-11.02-9.14-19.99-20.16-19.99h0Z"/>
      </g>
      <g>
        <g>
          <polygon class="cls-1" points="64.61 184.33 56.99 183.01 56.99 177.22 61.68 177.62 62.94 181.86 64.61 184.33"/>
          <path class="cls-2" d="m59.11,176.42c.89-.33,2.1.08,2.95,1.51.64,1.07.67,3.09.81,3.5.26.82,1.15,1.75,2.95,1.37,0,0-.14,1.35-1.17,1.55"/>
          <path class="cls-2" d="m61.33,169.46c0,3.23-2.62,5.85-5.85,5.85s-5.85-2.62-5.85-5.85,2.62-5.89,5.85-5.89,5.85,2.67,5.85,5.89Z"/>
          <g>
            <path class="cls-5" d="m67.92,186.8c-.16-.84-.76-1.55-1.59-1.89l-7.99-2.68v-3.99h-5.7v3.99l-7.99,2.68c-.84.34-1.43,1.05-1.59,1.89"/>
            <path class="cls-5" d="m61.01,170.58c0,4,0-.73,0,3.27-.15,3.21-2.63,6.33-5.57,6.31-2.91-.02-5.35-3.13-5.5-6.31,0-4,0,.81,0-3.19l5.1-.06c1.26-.01,2.36-.84,2.72-2.05l.13-.45.03.17c.29,1.44,1.61,2.44,3.08,2.3h0Z"/>
            <path class="cls-5" d="m48.75,183.67s2.13,2.94,6.73,2.94,6.73-2.94,6.73-2.94"/>
          </g>
        </g>
        <path class="cls-3" d="m55.48,154.14c10.23,0,18.57,8.25,18.66,18.5.09,9.85-7.47,17.99-17.13,18.77-.45.04-.91.06-1.36.06-.06,0-.13,0-.19,0-.51,0-1.01-.02-1.51-.06-9.52-.77-17.04-8.7-17.13-18.43-.09-10.31,8.19-18.74,18.5-18.84.06,0,.11,0,.17,0m0-1.5h-.19c-11.12.1-20.08,9.23-19.98,20.35.1,10.5,8.06,19.07,18.51,19.92.55.05,1.1.07,1.63.07h.21c.5,0,1-.03,1.48-.07,10.47-.85,18.6-9.76,18.5-20.28-.1-11.02-9.14-19.99-20.16-19.99h0Z"/>
      </g>
      <g>
        <g>
          <polygon class="cls-1" points="65.54 317.73 57.92 316.41 57.92 310.62 62.62 311.02 63.88 315.26 65.54 317.73"/>
          <path class="cls-2" d="m60.05,309.83c.89-.33,2.1.08,2.95,1.51.64,1.07.67,3.09.81,3.5.26.82,1.15,1.75,2.95,1.37,0,0-.14,1.35-1.17,1.55"/>
          <path class="cls-2" d="m62.26,302.86c0,3.23-2.62,5.85-5.85,5.85s-5.85-2.62-5.85-5.85,2.62-5.89,5.85-5.89,5.85,2.67,5.85,5.89Z"/>
          <g>
            <path class="cls-5" d="m68.86,320.2c-.16-.84-.76-1.55-1.59-1.89l-7.99-2.68v-3.99h-5.7v3.99l-7.99,2.68c-.84.34-1.43,1.05-1.59,1.89"/>
            <path class="cls-5" d="m61.95,303.98c0,4,0-.73,0,3.27-.15,3.21-2.63,6.33-5.57,6.31-2.92-.02-5.35-3.13-5.5-6.31,0-4,0,.81,0-3.19l5.1-.06c1.26-.01,2.36-.84,2.72-2.05l.13-.45.03.17c.29,1.44,1.61,2.44,3.08,2.3h0Z"/>
            <path class="cls-5" d="m49.69,317.07s2.13,2.94,6.73,2.94,6.73-2.94,6.73-2.94"/>
          </g>
        </g>
        <path class="cls-3" d="m56.42,287.54c10.23,0,18.57,8.25,18.66,18.5.09,9.85-7.47,17.99-17.13,18.77-.45.04-.91.06-1.36.06-.06,0-.13,0-.19,0-.51,0-1.01-.02-1.51-.06-9.52-.77-17.04-8.7-17.13-18.43-.09-10.31,8.19-18.74,18.5-18.84.06,0,.11,0,.17,0m0-1.5h-.19c-11.12.1-20.08,9.23-19.98,20.35.1,10.51,8.06,19.07,18.51,19.92.55.05,1.1.07,1.63.07h.21c.5,0,1-.03,1.48-.07,10.47-.85,18.6-9.76,18.5-20.28-.1-11.02-9.14-19.99-20.16-19.99h0Z"/>
      </g>
      <g>
        <g>
          <polygon class="cls-1" points="185.01 317.73 177.39 316.41 177.39 310.62 182.08 311.02 183.34 315.26 185.01 317.73"/>
          <path class="cls-2" d="m179.51,309.83c.89-.33,2.1.08,2.95,1.51.64,1.07.67,3.09.81,3.5.26.82,1.15,1.75,2.95,1.37,0,0-.14,1.35-1.17,1.55"/>
          <path class="cls-2" d="m181.73,302.86c0,3.23-2.62,5.85-5.85,5.85s-5.85-2.62-5.85-5.85,2.62-5.89,5.85-5.89,5.85,2.67,5.85,5.89Z"/>
          <g>
            <path class="cls-5" d="m188.32,320.2c-.16-.84-.76-1.55-1.59-1.89l-7.99-2.68v-3.99h-5.7v3.99l-7.99,2.68c-.84.34-1.43,1.05-1.59,1.89"/>
            <path class="cls-5" d="m181.41,303.98c0,4,0-.73,0,3.27-.15,3.21-2.63,6.33-5.57,6.31-2.92-.02-5.35-3.13-5.5-6.31,0-4,0,.81,0-3.19l5.1-.06c1.26-.01,2.36-.84,2.72-2.05l.13-.45.03.17c.29,1.44,1.61,2.44,3.08,2.3h0Z"/>
            <path class="cls-5" d="m169.15,317.07s2.13,2.94,6.73,2.94,6.73-2.94,6.73-2.94"/>
          </g>
        </g>
        <path class="cls-3" d="m175.88,287.54c10.23,0,18.57,8.25,18.66,18.5.09,9.85-7.47,17.99-17.13,18.77-.45.04-.91.06-1.36.06-.06,0-.13,0-.19,0-.51,0-1.01-.02-1.51-.06-9.52-.77-17.04-8.7-17.13-18.43-.09-10.31,8.19-18.74,18.5-18.84.06,0,.11,0,.17,0m0-1.5h-.19c-11.12.1-20.08,9.23-19.98,20.35.1,10.51,8.06,19.07,18.51,19.92.55.05,1.1.07,1.63.07h.21c.5,0,1-.03,1.48-.07,10.47-.85,18.6-9.76,18.5-20.28-.1-11.02-9.14-19.99-20.16-19.99h0Z"/>
      </g>
      <g>
        <path class="cls-4" d="m110.52,170.86c.02-.57-.32-1.06-.81-1.27.45-.28.72-.82.62-1.38v-.06c-.11-.56-.54-.98-1.06-1.09.38-.36.53-.94.33-1.46l-.03-.09c-.22-.53-.73-.83-1.27-.82.31-.45.33-1.07,0-1.54l-.03-.05c-.33-.48-.91-.68-1.44-.54.2-.51.08-1.12-.35-1.51,0,0-.03-.03-.03-.03-.43-.38-1.03-.45-1.51-.2.07-.54-.19-1.09-.7-1.36l-.06-.03c-.51-.28-1.12-.19-1.54.18-.07-.54-.47-1.02-1.03-1.15,0,0-.07-.02-.07-.02-.57-.13-1.12.13-1.4.61-.2-.51-.69-.89-1.28-.87h-.11c-.58.03-1.05.42-1.21.94-.33-.44-.91-.65-1.47-.48l-.08.03c-.55.18-.9.67-.91,1.22-.43-.35-1.06-.4-1.55-.09l-.05.03c-.49.3-.72.87-.62,1.4-.5-.22-1.1-.12-1.5.29l-.05.05c-.4.41-.49,1-.27,1.49-.53-.09-1.08.13-1.38.61l-.04.07c-.3.49-.24,1.08.1,1.5-.54.01-1.04.35-1.24.88l-.03.08c-.19.54,0,1.11.41,1.45-.52.12-.94.55-1.02,1.11v.09c-.09.57.21,1.09.68,1.34-.49.23-.81.73-.78,1.3v.09c.05.57.44,1.02.96,1.17-.43.32-.65.88-.5,1.43l.02.08c.16.55.64.91,1.17.95-.36.41-.45,1.01-.18,1.52l.04.08c.27.51.82.75,1.35.67-.27.48-.22,1.1.17,1.54l.04.04c.37.43.97.57,1.47.38-.14.52.05,1.1.52,1.43l.07.05c.48.33,1.08.31,1.52-.01-.01.55.31,1.08.86,1.29l.09.03c.54.2,1.12.02,1.47-.4.13.54.59.96,1.17,1.02h.09s.05.01.08.01c.55.02,1.03-.3,1.24-.78.27.49.82.78,1.4.69,0,0,.07-.01.07-.01.58-.1.98-.55,1.07-1.1.38.4.98.54,1.51.31l.09-.04c.52-.24.81-.78.76-1.32.47.28,1.08.26,1.54-.1l.05-.04c.46-.36.6-.95.41-1.47.52.18,1.13.01,1.49-.45l.04-.05c.35-.45.37-1.05.1-1.51.54.05,1.07-.25,1.31-.77l.03-.05c.25-.51.14-1.1-.22-1.5.52-.08.97-.46,1.11-1l.02-.08c.13-.56-.11-1.1-.55-1.4.51-.17.88-.64.91-1.21v-.12s0-.01,0-.01Z"/>
        <g>
          <g>
            <polyline class="cls-5" points="112.83 183.73 102.76 179.36 102.76 174.96 95.33 174.96 95.33 179.36 85.24 183.79"/>
            <polygon class="cls-5" points="99.05 182.37 102.76 179.36 102.76 174.96 95.33 174.96 95.33 179.36 99.05 182.37"/>
            <polygon class="cls-5" points="99.05 182.37 96.42 184.53 93.99 179.92 95.33 178.74 99.05 182.37"/>
            <polygon class="cls-5" points="99.05 182.37 101.67 184.53 104.1 179.92 102.76 178.74 99.05 182.37"/>
            <polyline class="cls-6" points="100.75 183.77 99.96 185.46 99.05 185.46 98.14 185.46 97.34 183.77"/>
            <line class="cls-6" x1="100.58" y1="190.09" x2="99.96" y2="185.46"/>
            <line class="cls-6" x1="98.14" y1="185.46" x2="97.51" y2="190.09"/>
          </g>
          <path class="cls-5" d="m105.14,167.71c0,4.36,0-1.46,0,2.9-.16,3.5-2.86,6.89-6.07,6.87-3.18-.02-5.83-3.41-5.99-6.87,0-4.36,0,.79,0-3.58"/>
          <path class="cls-5" d="m93.08,167.04s2.64-1.44,3.44-3.91c0,0,2.58,4.22,8.61,4.6"/>
        </g>
      </g>
    </g>
  </g>
</svg>